G75*
%MOIN*%
%OFA0B0*%
%FSLAX24Y24*%
%IPPOS*%
%LPD*%
%AMOC8*
5,1,8,0,0,1.08239X$1,22.5*
%
%ADD10C,0.0000*%
%ADD11C,0.0059*%
D10*
X012594Y018167D02*
X012594Y022104D01*
X012594Y057537D01*
X038184Y057537D01*
X038184Y018167D01*
X012594Y018167D01*
X015428Y020529D02*
X015430Y020564D01*
X015436Y020599D01*
X015446Y020633D01*
X015459Y020666D01*
X015476Y020697D01*
X015497Y020725D01*
X015520Y020752D01*
X015547Y020775D01*
X015575Y020796D01*
X015606Y020813D01*
X015639Y020826D01*
X015673Y020836D01*
X015708Y020842D01*
X015743Y020844D01*
X015778Y020842D01*
X015813Y020836D01*
X015847Y020826D01*
X015880Y020813D01*
X015911Y020796D01*
X015939Y020775D01*
X015966Y020752D01*
X015989Y020725D01*
X016010Y020697D01*
X016027Y020666D01*
X016040Y020633D01*
X016050Y020599D01*
X016056Y020564D01*
X016058Y020529D01*
X016056Y020494D01*
X016050Y020459D01*
X016040Y020425D01*
X016027Y020392D01*
X016010Y020361D01*
X015989Y020333D01*
X015966Y020306D01*
X015939Y020283D01*
X015911Y020262D01*
X015880Y020245D01*
X015847Y020232D01*
X015813Y020222D01*
X015778Y020216D01*
X015743Y020214D01*
X015708Y020216D01*
X015673Y020222D01*
X015639Y020232D01*
X015606Y020245D01*
X015575Y020262D01*
X015547Y020283D01*
X015520Y020306D01*
X015497Y020333D01*
X015476Y020361D01*
X015459Y020392D01*
X015446Y020425D01*
X015436Y020459D01*
X015430Y020494D01*
X015428Y020529D01*
X015428Y022300D02*
X015430Y022335D01*
X015436Y022370D01*
X015446Y022404D01*
X015459Y022437D01*
X015476Y022468D01*
X015497Y022496D01*
X015520Y022523D01*
X015547Y022546D01*
X015575Y022567D01*
X015606Y022584D01*
X015639Y022597D01*
X015673Y022607D01*
X015708Y022613D01*
X015743Y022615D01*
X015778Y022613D01*
X015813Y022607D01*
X015847Y022597D01*
X015880Y022584D01*
X015911Y022567D01*
X015939Y022546D01*
X015966Y022523D01*
X015989Y022496D01*
X016010Y022468D01*
X016027Y022437D01*
X016040Y022404D01*
X016050Y022370D01*
X016056Y022335D01*
X016058Y022300D01*
X016056Y022265D01*
X016050Y022230D01*
X016040Y022196D01*
X016027Y022163D01*
X016010Y022132D01*
X015989Y022104D01*
X015966Y022077D01*
X015939Y022054D01*
X015911Y022033D01*
X015880Y022016D01*
X015847Y022003D01*
X015813Y021993D01*
X015778Y021987D01*
X015743Y021985D01*
X015708Y021987D01*
X015673Y021993D01*
X015639Y022003D01*
X015606Y022016D01*
X015575Y022033D01*
X015547Y022054D01*
X015520Y022077D01*
X015497Y022104D01*
X015476Y022132D01*
X015459Y022163D01*
X015446Y022196D01*
X015436Y022230D01*
X015430Y022265D01*
X015428Y022300D01*
X017870Y022399D02*
X017872Y022436D01*
X017878Y022473D01*
X017887Y022508D01*
X017901Y022543D01*
X017917Y022576D01*
X017938Y022607D01*
X017961Y022636D01*
X017987Y022662D01*
X018016Y022685D01*
X018047Y022706D01*
X018080Y022722D01*
X018115Y022736D01*
X018150Y022745D01*
X018187Y022751D01*
X018224Y022753D01*
X018261Y022751D01*
X018298Y022745D01*
X018333Y022736D01*
X018368Y022722D01*
X018401Y022706D01*
X018432Y022685D01*
X018461Y022662D01*
X018487Y022636D01*
X018510Y022607D01*
X018531Y022576D01*
X018547Y022543D01*
X018561Y022508D01*
X018570Y022473D01*
X018576Y022436D01*
X018578Y022399D01*
X018576Y022362D01*
X018570Y022325D01*
X018561Y022290D01*
X018547Y022255D01*
X018531Y022222D01*
X018510Y022191D01*
X018487Y022162D01*
X018461Y022136D01*
X018432Y022113D01*
X018401Y022092D01*
X018368Y022076D01*
X018333Y022062D01*
X018298Y022053D01*
X018261Y022047D01*
X018224Y022045D01*
X018187Y022047D01*
X018150Y022053D01*
X018115Y022062D01*
X018080Y022076D01*
X018047Y022092D01*
X018016Y022113D01*
X017987Y022136D01*
X017961Y022162D01*
X017938Y022191D01*
X017917Y022222D01*
X017901Y022255D01*
X017887Y022290D01*
X017878Y022325D01*
X017872Y022362D01*
X017870Y022399D01*
X017870Y019643D02*
X017872Y019680D01*
X017878Y019717D01*
X017887Y019752D01*
X017901Y019787D01*
X017917Y019820D01*
X017938Y019851D01*
X017961Y019880D01*
X017987Y019906D01*
X018016Y019929D01*
X018047Y019950D01*
X018080Y019966D01*
X018115Y019980D01*
X018150Y019989D01*
X018187Y019995D01*
X018224Y019997D01*
X018261Y019995D01*
X018298Y019989D01*
X018333Y019980D01*
X018368Y019966D01*
X018401Y019950D01*
X018432Y019929D01*
X018461Y019906D01*
X018487Y019880D01*
X018510Y019851D01*
X018531Y019820D01*
X018547Y019787D01*
X018561Y019752D01*
X018570Y019717D01*
X018576Y019680D01*
X018578Y019643D01*
X018576Y019606D01*
X018570Y019569D01*
X018561Y019534D01*
X018547Y019499D01*
X018531Y019466D01*
X018510Y019435D01*
X018487Y019406D01*
X018461Y019380D01*
X018432Y019357D01*
X018401Y019336D01*
X018368Y019320D01*
X018333Y019306D01*
X018298Y019297D01*
X018261Y019291D01*
X018224Y019289D01*
X018187Y019291D01*
X018150Y019297D01*
X018115Y019306D01*
X018080Y019320D01*
X018047Y019336D01*
X018016Y019357D01*
X017987Y019380D01*
X017961Y019406D01*
X017938Y019435D01*
X017917Y019466D01*
X017901Y019499D01*
X017887Y019534D01*
X017878Y019569D01*
X017872Y019606D01*
X017870Y019643D01*
X022318Y019643D02*
X022320Y019680D01*
X022326Y019717D01*
X022335Y019752D01*
X022349Y019787D01*
X022365Y019820D01*
X022386Y019851D01*
X022409Y019880D01*
X022435Y019906D01*
X022464Y019929D01*
X022495Y019950D01*
X022528Y019966D01*
X022563Y019980D01*
X022598Y019989D01*
X022635Y019995D01*
X022672Y019997D01*
X022709Y019995D01*
X022746Y019989D01*
X022781Y019980D01*
X022816Y019966D01*
X022849Y019950D01*
X022880Y019929D01*
X022909Y019906D01*
X022935Y019880D01*
X022958Y019851D01*
X022979Y019820D01*
X022995Y019787D01*
X023009Y019752D01*
X023018Y019717D01*
X023024Y019680D01*
X023026Y019643D01*
X023024Y019606D01*
X023018Y019569D01*
X023009Y019534D01*
X022995Y019499D01*
X022979Y019466D01*
X022958Y019435D01*
X022935Y019406D01*
X022909Y019380D01*
X022880Y019357D01*
X022849Y019336D01*
X022816Y019320D01*
X022781Y019306D01*
X022746Y019297D01*
X022709Y019291D01*
X022672Y019289D01*
X022635Y019291D01*
X022598Y019297D01*
X022563Y019306D01*
X022528Y019320D01*
X022495Y019336D01*
X022464Y019357D01*
X022435Y019380D01*
X022409Y019406D01*
X022386Y019435D01*
X022365Y019466D01*
X022349Y019499D01*
X022335Y019534D01*
X022326Y019569D01*
X022320Y019606D01*
X022318Y019643D01*
X022318Y022399D02*
X022320Y022436D01*
X022326Y022473D01*
X022335Y022508D01*
X022349Y022543D01*
X022365Y022576D01*
X022386Y022607D01*
X022409Y022636D01*
X022435Y022662D01*
X022464Y022685D01*
X022495Y022706D01*
X022528Y022722D01*
X022563Y022736D01*
X022598Y022745D01*
X022635Y022751D01*
X022672Y022753D01*
X022709Y022751D01*
X022746Y022745D01*
X022781Y022736D01*
X022816Y022722D01*
X022849Y022706D01*
X022880Y022685D01*
X022909Y022662D01*
X022935Y022636D01*
X022958Y022607D01*
X022979Y022576D01*
X022995Y022543D01*
X023009Y022508D01*
X023018Y022473D01*
X023024Y022436D01*
X023026Y022399D01*
X023024Y022362D01*
X023018Y022325D01*
X023009Y022290D01*
X022995Y022255D01*
X022979Y022222D01*
X022958Y022191D01*
X022935Y022162D01*
X022909Y022136D01*
X022880Y022113D01*
X022849Y022092D01*
X022816Y022076D01*
X022781Y022062D01*
X022746Y022053D01*
X022709Y022047D01*
X022672Y022045D01*
X022635Y022047D01*
X022598Y022053D01*
X022563Y022062D01*
X022528Y022076D01*
X022495Y022092D01*
X022464Y022113D01*
X022435Y022136D01*
X022409Y022162D01*
X022386Y022191D01*
X022365Y022222D01*
X022349Y022255D01*
X022335Y022290D01*
X022326Y022325D01*
X022320Y022362D01*
X022318Y022399D01*
X026767Y022399D02*
X026769Y022436D01*
X026775Y022473D01*
X026784Y022508D01*
X026798Y022543D01*
X026814Y022576D01*
X026835Y022607D01*
X026858Y022636D01*
X026884Y022662D01*
X026913Y022685D01*
X026944Y022706D01*
X026977Y022722D01*
X027012Y022736D01*
X027047Y022745D01*
X027084Y022751D01*
X027121Y022753D01*
X027158Y022751D01*
X027195Y022745D01*
X027230Y022736D01*
X027265Y022722D01*
X027298Y022706D01*
X027329Y022685D01*
X027358Y022662D01*
X027384Y022636D01*
X027407Y022607D01*
X027428Y022576D01*
X027444Y022543D01*
X027458Y022508D01*
X027467Y022473D01*
X027473Y022436D01*
X027475Y022399D01*
X027473Y022362D01*
X027467Y022325D01*
X027458Y022290D01*
X027444Y022255D01*
X027428Y022222D01*
X027407Y022191D01*
X027384Y022162D01*
X027358Y022136D01*
X027329Y022113D01*
X027298Y022092D01*
X027265Y022076D01*
X027230Y022062D01*
X027195Y022053D01*
X027158Y022047D01*
X027121Y022045D01*
X027084Y022047D01*
X027047Y022053D01*
X027012Y022062D01*
X026977Y022076D01*
X026944Y022092D01*
X026913Y022113D01*
X026884Y022136D01*
X026858Y022162D01*
X026835Y022191D01*
X026814Y022222D01*
X026798Y022255D01*
X026784Y022290D01*
X026775Y022325D01*
X026769Y022362D01*
X026767Y022399D01*
X026767Y019643D02*
X026769Y019680D01*
X026775Y019717D01*
X026784Y019752D01*
X026798Y019787D01*
X026814Y019820D01*
X026835Y019851D01*
X026858Y019880D01*
X026884Y019906D01*
X026913Y019929D01*
X026944Y019950D01*
X026977Y019966D01*
X027012Y019980D01*
X027047Y019989D01*
X027084Y019995D01*
X027121Y019997D01*
X027158Y019995D01*
X027195Y019989D01*
X027230Y019980D01*
X027265Y019966D01*
X027298Y019950D01*
X027329Y019929D01*
X027358Y019906D01*
X027384Y019880D01*
X027407Y019851D01*
X027428Y019820D01*
X027444Y019787D01*
X027458Y019752D01*
X027467Y019717D01*
X027473Y019680D01*
X027475Y019643D01*
X027473Y019606D01*
X027467Y019569D01*
X027458Y019534D01*
X027444Y019499D01*
X027428Y019466D01*
X027407Y019435D01*
X027384Y019406D01*
X027358Y019380D01*
X027329Y019357D01*
X027298Y019336D01*
X027265Y019320D01*
X027230Y019306D01*
X027195Y019297D01*
X027158Y019291D01*
X027121Y019289D01*
X027084Y019291D01*
X027047Y019297D01*
X027012Y019306D01*
X026977Y019320D01*
X026944Y019336D01*
X026913Y019357D01*
X026884Y019380D01*
X026858Y019406D01*
X026835Y019435D01*
X026814Y019466D01*
X026798Y019499D01*
X026784Y019534D01*
X026775Y019569D01*
X026769Y019606D01*
X026767Y019643D01*
X031216Y019643D02*
X031218Y019680D01*
X031224Y019717D01*
X031233Y019752D01*
X031247Y019787D01*
X031263Y019820D01*
X031284Y019851D01*
X031307Y019880D01*
X031333Y019906D01*
X031362Y019929D01*
X031393Y019950D01*
X031426Y019966D01*
X031461Y019980D01*
X031496Y019989D01*
X031533Y019995D01*
X031570Y019997D01*
X031607Y019995D01*
X031644Y019989D01*
X031679Y019980D01*
X031714Y019966D01*
X031747Y019950D01*
X031778Y019929D01*
X031807Y019906D01*
X031833Y019880D01*
X031856Y019851D01*
X031877Y019820D01*
X031893Y019787D01*
X031907Y019752D01*
X031916Y019717D01*
X031922Y019680D01*
X031924Y019643D01*
X031922Y019606D01*
X031916Y019569D01*
X031907Y019534D01*
X031893Y019499D01*
X031877Y019466D01*
X031856Y019435D01*
X031833Y019406D01*
X031807Y019380D01*
X031778Y019357D01*
X031747Y019336D01*
X031714Y019320D01*
X031679Y019306D01*
X031644Y019297D01*
X031607Y019291D01*
X031570Y019289D01*
X031533Y019291D01*
X031496Y019297D01*
X031461Y019306D01*
X031426Y019320D01*
X031393Y019336D01*
X031362Y019357D01*
X031333Y019380D01*
X031307Y019406D01*
X031284Y019435D01*
X031263Y019466D01*
X031247Y019499D01*
X031233Y019534D01*
X031224Y019569D01*
X031218Y019606D01*
X031216Y019643D01*
X031216Y022399D02*
X031218Y022436D01*
X031224Y022473D01*
X031233Y022508D01*
X031247Y022543D01*
X031263Y022576D01*
X031284Y022607D01*
X031307Y022636D01*
X031333Y022662D01*
X031362Y022685D01*
X031393Y022706D01*
X031426Y022722D01*
X031461Y022736D01*
X031496Y022745D01*
X031533Y022751D01*
X031570Y022753D01*
X031607Y022751D01*
X031644Y022745D01*
X031679Y022736D01*
X031714Y022722D01*
X031747Y022706D01*
X031778Y022685D01*
X031807Y022662D01*
X031833Y022636D01*
X031856Y022607D01*
X031877Y022576D01*
X031893Y022543D01*
X031907Y022508D01*
X031916Y022473D01*
X031922Y022436D01*
X031924Y022399D01*
X031922Y022362D01*
X031916Y022325D01*
X031907Y022290D01*
X031893Y022255D01*
X031877Y022222D01*
X031856Y022191D01*
X031833Y022162D01*
X031807Y022136D01*
X031778Y022113D01*
X031747Y022092D01*
X031714Y022076D01*
X031679Y022062D01*
X031644Y022053D01*
X031607Y022047D01*
X031570Y022045D01*
X031533Y022047D01*
X031496Y022053D01*
X031461Y022062D01*
X031426Y022076D01*
X031393Y022092D01*
X031362Y022113D01*
X031333Y022136D01*
X031307Y022162D01*
X031284Y022191D01*
X031263Y022222D01*
X031247Y022255D01*
X031233Y022290D01*
X031224Y022325D01*
X031218Y022362D01*
X031216Y022399D01*
X035665Y022399D02*
X035667Y022436D01*
X035673Y022473D01*
X035682Y022508D01*
X035696Y022543D01*
X035712Y022576D01*
X035733Y022607D01*
X035756Y022636D01*
X035782Y022662D01*
X035811Y022685D01*
X035842Y022706D01*
X035875Y022722D01*
X035910Y022736D01*
X035945Y022745D01*
X035982Y022751D01*
X036019Y022753D01*
X036056Y022751D01*
X036093Y022745D01*
X036128Y022736D01*
X036163Y022722D01*
X036196Y022706D01*
X036227Y022685D01*
X036256Y022662D01*
X036282Y022636D01*
X036305Y022607D01*
X036326Y022576D01*
X036342Y022543D01*
X036356Y022508D01*
X036365Y022473D01*
X036371Y022436D01*
X036373Y022399D01*
X036371Y022362D01*
X036365Y022325D01*
X036356Y022290D01*
X036342Y022255D01*
X036326Y022222D01*
X036305Y022191D01*
X036282Y022162D01*
X036256Y022136D01*
X036227Y022113D01*
X036196Y022092D01*
X036163Y022076D01*
X036128Y022062D01*
X036093Y022053D01*
X036056Y022047D01*
X036019Y022045D01*
X035982Y022047D01*
X035945Y022053D01*
X035910Y022062D01*
X035875Y022076D01*
X035842Y022092D01*
X035811Y022113D01*
X035782Y022136D01*
X035756Y022162D01*
X035733Y022191D01*
X035712Y022222D01*
X035696Y022255D01*
X035682Y022290D01*
X035673Y022325D01*
X035667Y022362D01*
X035665Y022399D01*
X035665Y019643D02*
X035667Y019680D01*
X035673Y019717D01*
X035682Y019752D01*
X035696Y019787D01*
X035712Y019820D01*
X035733Y019851D01*
X035756Y019880D01*
X035782Y019906D01*
X035811Y019929D01*
X035842Y019950D01*
X035875Y019966D01*
X035910Y019980D01*
X035945Y019989D01*
X035982Y019995D01*
X036019Y019997D01*
X036056Y019995D01*
X036093Y019989D01*
X036128Y019980D01*
X036163Y019966D01*
X036196Y019950D01*
X036227Y019929D01*
X036256Y019906D01*
X036282Y019880D01*
X036305Y019851D01*
X036326Y019820D01*
X036342Y019787D01*
X036356Y019752D01*
X036365Y019717D01*
X036371Y019680D01*
X036373Y019643D01*
X036371Y019606D01*
X036365Y019569D01*
X036356Y019534D01*
X036342Y019499D01*
X036326Y019466D01*
X036305Y019435D01*
X036282Y019406D01*
X036256Y019380D01*
X036227Y019357D01*
X036196Y019336D01*
X036163Y019320D01*
X036128Y019306D01*
X036093Y019297D01*
X036056Y019291D01*
X036019Y019289D01*
X035982Y019291D01*
X035945Y019297D01*
X035910Y019306D01*
X035875Y019320D01*
X035842Y019336D01*
X035811Y019357D01*
X035782Y019380D01*
X035756Y019406D01*
X035733Y019435D01*
X035712Y019466D01*
X035696Y019499D01*
X035682Y019534D01*
X035673Y019569D01*
X035667Y019606D01*
X035665Y019643D01*
X016393Y043088D02*
X016395Y043125D01*
X016401Y043162D01*
X016410Y043197D01*
X016424Y043232D01*
X016440Y043265D01*
X016461Y043296D01*
X016484Y043325D01*
X016510Y043351D01*
X016539Y043374D01*
X016570Y043395D01*
X016603Y043411D01*
X016638Y043425D01*
X016673Y043434D01*
X016710Y043440D01*
X016747Y043442D01*
X016784Y043440D01*
X016821Y043434D01*
X016856Y043425D01*
X016891Y043411D01*
X016924Y043395D01*
X016955Y043374D01*
X016984Y043351D01*
X017010Y043325D01*
X017033Y043296D01*
X017054Y043265D01*
X017070Y043232D01*
X017084Y043197D01*
X017093Y043162D01*
X017099Y043125D01*
X017101Y043088D01*
X017099Y043051D01*
X017093Y043014D01*
X017084Y042979D01*
X017070Y042944D01*
X017054Y042911D01*
X017033Y042880D01*
X017010Y042851D01*
X016984Y042825D01*
X016955Y042802D01*
X016924Y042781D01*
X016891Y042765D01*
X016856Y042751D01*
X016821Y042742D01*
X016784Y042736D01*
X016747Y042734D01*
X016710Y042736D01*
X016673Y042742D01*
X016638Y042751D01*
X016603Y042765D01*
X016570Y042781D01*
X016539Y042802D01*
X016510Y042825D01*
X016484Y042851D01*
X016461Y042880D01*
X016440Y042911D01*
X016424Y042944D01*
X016410Y042979D01*
X016401Y043014D01*
X016395Y043051D01*
X016393Y043088D01*
X013637Y043088D02*
X013639Y043125D01*
X013645Y043162D01*
X013654Y043197D01*
X013668Y043232D01*
X013684Y043265D01*
X013705Y043296D01*
X013728Y043325D01*
X013754Y043351D01*
X013783Y043374D01*
X013814Y043395D01*
X013847Y043411D01*
X013882Y043425D01*
X013917Y043434D01*
X013954Y043440D01*
X013991Y043442D01*
X014028Y043440D01*
X014065Y043434D01*
X014100Y043425D01*
X014135Y043411D01*
X014168Y043395D01*
X014199Y043374D01*
X014228Y043351D01*
X014254Y043325D01*
X014277Y043296D01*
X014298Y043265D01*
X014314Y043232D01*
X014328Y043197D01*
X014337Y043162D01*
X014343Y043125D01*
X014345Y043088D01*
X014343Y043051D01*
X014337Y043014D01*
X014328Y042979D01*
X014314Y042944D01*
X014298Y042911D01*
X014277Y042880D01*
X014254Y042851D01*
X014228Y042825D01*
X014199Y042802D01*
X014168Y042781D01*
X014135Y042765D01*
X014100Y042751D01*
X014065Y042742D01*
X014028Y042736D01*
X013991Y042734D01*
X013954Y042736D01*
X013917Y042742D01*
X013882Y042751D01*
X013847Y042765D01*
X013814Y042781D01*
X013783Y042802D01*
X013754Y042825D01*
X013728Y042851D01*
X013705Y042880D01*
X013684Y042911D01*
X013668Y042944D01*
X013654Y042979D01*
X013645Y043014D01*
X013639Y043051D01*
X013637Y043088D01*
X022574Y055745D02*
X022576Y055771D01*
X022582Y055797D01*
X022592Y055822D01*
X022605Y055845D01*
X022621Y055865D01*
X022641Y055883D01*
X022663Y055898D01*
X022686Y055910D01*
X022712Y055918D01*
X022738Y055922D01*
X022764Y055922D01*
X022790Y055918D01*
X022816Y055910D01*
X022840Y055898D01*
X022861Y055883D01*
X022881Y055865D01*
X022897Y055845D01*
X022910Y055822D01*
X022920Y055797D01*
X022926Y055771D01*
X022928Y055745D01*
X022926Y055719D01*
X022920Y055693D01*
X022910Y055668D01*
X022897Y055645D01*
X022881Y055625D01*
X022861Y055607D01*
X022839Y055592D01*
X022816Y055580D01*
X022790Y055572D01*
X022764Y055568D01*
X022738Y055568D01*
X022712Y055572D01*
X022686Y055580D01*
X022662Y055592D01*
X022641Y055607D01*
X022621Y055625D01*
X022605Y055645D01*
X022592Y055668D01*
X022582Y055693D01*
X022576Y055719D01*
X022574Y055745D01*
X024306Y055745D02*
X024308Y055771D01*
X024314Y055797D01*
X024324Y055822D01*
X024337Y055845D01*
X024353Y055865D01*
X024373Y055883D01*
X024395Y055898D01*
X024418Y055910D01*
X024444Y055918D01*
X024470Y055922D01*
X024496Y055922D01*
X024522Y055918D01*
X024548Y055910D01*
X024572Y055898D01*
X024593Y055883D01*
X024613Y055865D01*
X024629Y055845D01*
X024642Y055822D01*
X024652Y055797D01*
X024658Y055771D01*
X024660Y055745D01*
X024658Y055719D01*
X024652Y055693D01*
X024642Y055668D01*
X024629Y055645D01*
X024613Y055625D01*
X024593Y055607D01*
X024571Y055592D01*
X024548Y055580D01*
X024522Y055572D01*
X024496Y055568D01*
X024470Y055568D01*
X024444Y055572D01*
X024418Y055580D01*
X024394Y055592D01*
X024373Y055607D01*
X024353Y055625D01*
X024337Y055645D01*
X024324Y055668D01*
X024314Y055693D01*
X024308Y055719D01*
X024306Y055745D01*
D11*
X012594Y057537D02*
X012594Y018167D01*
X038184Y018167D01*
X038184Y057537D01*
X012594Y057537D01*
M02*
