G75*
%MOIN*%
%OFA0B0*%
%FSLAX24Y24*%
%IPPOS*%
%LPD*%
%AMOC8*
5,1,8,0,0,1.08239X$1,22.5*
%
%ADD10C,0.0050*%
%ADD11C,0.0059*%
%ADD12C,0.0040*%
%ADD13C,0.0030*%
%ADD14C,0.0070*%
%ADD15C,0.0080*%
%ADD16C,0.0049*%
%ADD17R,0.0276X0.0236*%
%ADD18C,0.0573*%
%ADD19R,0.0157X0.0197*%
%ADD20C,0.0352*%
%ADD21C,0.0591*%
%ADD22C,0.0060*%
%ADD23R,0.1063X0.0217*%
%ADD24C,0.0118*%
%ADD25C,0.0325*%
%ADD26C,0.0000*%
%ADD27C,0.0001*%
%ADD28C,0.0315*%
D10*
X013087Y026853D02*
X013238Y026853D01*
X013313Y026928D01*
X013473Y026853D02*
X013473Y027303D01*
X013773Y026853D01*
X013773Y027303D01*
X013933Y027228D02*
X014008Y027303D01*
X014158Y027303D01*
X014233Y027228D01*
X014233Y027153D01*
X014158Y027078D01*
X014233Y027003D01*
X014233Y026928D01*
X014158Y026853D01*
X014008Y026853D01*
X013933Y026928D01*
X014083Y027078D02*
X014158Y027078D01*
X013313Y027228D02*
X013238Y027303D01*
X013087Y027303D01*
X013012Y027228D01*
X013012Y026928D01*
X013087Y026853D01*
X016491Y034407D02*
X016491Y034800D01*
X017554Y034800D02*
X017554Y034407D01*
X020371Y031083D02*
X020296Y031008D01*
X020296Y030708D01*
X020371Y030633D01*
X020521Y030633D01*
X020596Y030708D01*
X020756Y030633D02*
X020756Y031083D01*
X021056Y030633D01*
X021056Y031083D01*
X021217Y030933D02*
X021367Y031083D01*
X021367Y030633D01*
X021217Y030633D02*
X021517Y030633D01*
X021677Y030633D02*
X021977Y030933D01*
X021977Y031008D01*
X021902Y031083D01*
X021752Y031083D01*
X021677Y031008D01*
X021677Y030633D02*
X021977Y030633D01*
X020596Y031008D02*
X020521Y031083D01*
X020371Y031083D01*
X020324Y028091D02*
X020174Y028091D01*
X020099Y028016D01*
X020099Y027716D01*
X020174Y027640D01*
X020324Y027640D01*
X020399Y027716D01*
X020559Y027640D02*
X020559Y028091D01*
X020860Y027640D01*
X020860Y028091D01*
X021020Y027866D02*
X021320Y027866D01*
X021245Y028091D02*
X021020Y027866D01*
X021245Y027640D02*
X021245Y028091D01*
X020399Y028016D02*
X020324Y028091D01*
X022184Y034399D02*
X022184Y035399D01*
X024184Y035399D01*
X024184Y034399D01*
X022184Y034399D01*
X021255Y039446D02*
X021255Y039800D01*
X021255Y040627D02*
X021255Y040982D01*
X018922Y046656D02*
X018772Y046656D01*
X018697Y046731D01*
X018697Y046881D02*
X018847Y046956D01*
X018922Y046956D01*
X018997Y046881D01*
X018997Y046731D01*
X018922Y046656D01*
X018697Y046881D02*
X018697Y047107D01*
X018997Y047107D01*
X018537Y047107D02*
X018537Y046656D01*
X018387Y046806D01*
X018237Y046656D01*
X018237Y047107D01*
X018076Y047032D02*
X018001Y047107D01*
X017851Y047107D01*
X017776Y047032D01*
X017776Y046956D01*
X017851Y046881D01*
X018001Y046881D01*
X018076Y046806D01*
X018076Y046731D01*
X018001Y046656D01*
X017851Y046656D01*
X017776Y046731D01*
X016138Y050081D02*
X015988Y050232D01*
X016063Y050232D02*
X015838Y050232D01*
X015838Y050081D02*
X015838Y050532D01*
X016063Y050532D01*
X016138Y050457D01*
X016138Y050307D01*
X016063Y050232D01*
X015678Y050081D02*
X015378Y050081D01*
X015378Y050532D01*
X015678Y050532D01*
X015528Y050307D02*
X015378Y050307D01*
X015218Y050081D02*
X015218Y050532D01*
X014917Y050532D02*
X014917Y050081D01*
X015068Y050232D01*
X015218Y050081D01*
X014757Y050156D02*
X014757Y050457D01*
X014682Y050532D01*
X014532Y050532D01*
X014457Y050457D01*
X014457Y050156D01*
X014532Y050081D01*
X014682Y050081D01*
X014757Y050156D01*
X014297Y050307D02*
X014222Y050232D01*
X013997Y050232D01*
X013997Y050081D02*
X013997Y050532D01*
X014222Y050532D01*
X014297Y050457D01*
X014297Y050307D01*
X014233Y047185D02*
X013933Y047185D01*
X014083Y047185D02*
X014083Y046735D01*
X013623Y046735D02*
X013623Y047185D01*
X013473Y047185D02*
X013773Y047185D01*
X013313Y047110D02*
X013313Y046960D01*
X013238Y046885D01*
X013012Y046885D01*
X013012Y046735D02*
X013012Y047185D01*
X013238Y047185D01*
X013313Y047110D01*
X013775Y040942D02*
X014168Y040942D01*
X014168Y039879D02*
X013775Y039879D01*
X013775Y039407D02*
X014168Y039407D01*
X014168Y038344D02*
X013775Y038344D01*
X013399Y055278D02*
X013474Y055353D01*
X013474Y055503D01*
X013399Y055579D01*
X013324Y055579D01*
X013249Y055503D01*
X013249Y055353D01*
X013174Y055278D01*
X013099Y055278D01*
X013024Y055353D01*
X013024Y055503D01*
X013099Y055579D01*
X013024Y055739D02*
X013474Y055739D01*
X013324Y055889D01*
X013474Y056039D01*
X013024Y056039D01*
X013099Y056199D02*
X013024Y056274D01*
X013024Y056424D01*
X013099Y056499D01*
X013174Y056499D01*
X013249Y056424D01*
X013324Y056499D01*
X013399Y056499D01*
X013474Y056424D01*
X013474Y056274D01*
X013399Y056199D01*
X013249Y056349D02*
X013249Y056424D01*
X014780Y059215D02*
X014705Y059290D01*
X014780Y059215D02*
X014930Y059215D01*
X015006Y059290D01*
X015006Y059365D01*
X014930Y059440D01*
X014780Y059440D01*
X014705Y059516D01*
X014705Y059591D01*
X014780Y059666D01*
X014930Y059666D01*
X015006Y059591D01*
X015166Y059666D02*
X015166Y059215D01*
X015316Y059365D01*
X015466Y059215D01*
X015466Y059666D01*
X015626Y059440D02*
X015926Y059440D01*
X015851Y059215D02*
X015851Y059666D01*
X015626Y059440D01*
X019902Y058134D02*
X019902Y058059D01*
X019977Y057984D01*
X020127Y057984D01*
X020202Y057909D01*
X020202Y057834D01*
X020127Y057759D01*
X019977Y057759D01*
X019902Y057834D01*
X019902Y058134D02*
X019977Y058209D01*
X020127Y058209D01*
X020202Y058134D01*
X020363Y058209D02*
X020363Y057759D01*
X020513Y057909D01*
X020663Y057759D01*
X020663Y058209D01*
X020823Y058134D02*
X020898Y058209D01*
X021048Y058209D01*
X021123Y058134D01*
X021123Y058059D01*
X020823Y057759D01*
X021123Y057759D01*
X028905Y054600D02*
X028905Y052600D01*
X029905Y052600D01*
X029905Y054600D01*
X028905Y054600D01*
X030980Y057930D02*
X030980Y058324D01*
X031609Y058324D02*
X031609Y057930D01*
X035233Y057174D02*
X035458Y057174D01*
X035533Y057098D01*
X035533Y056948D01*
X035458Y056873D01*
X035233Y056873D01*
X035233Y056723D02*
X035233Y057174D01*
X035383Y056873D02*
X035533Y056723D01*
X035693Y056948D02*
X035993Y056948D01*
X036154Y056948D02*
X036379Y056948D01*
X036454Y056873D01*
X036454Y056798D01*
X036379Y056723D01*
X036229Y056723D01*
X036154Y056798D01*
X036154Y056948D01*
X036304Y057098D01*
X036454Y057174D01*
X036721Y057522D02*
X036796Y057522D01*
X036871Y057597D01*
X036871Y057748D01*
X036946Y057823D01*
X037021Y057823D01*
X037096Y057748D01*
X037096Y057597D01*
X037021Y057522D01*
X036721Y057522D02*
X036646Y057597D01*
X036646Y057748D01*
X036721Y057823D01*
X036646Y057983D02*
X036646Y058208D01*
X036721Y058283D01*
X036871Y058283D01*
X036946Y058208D01*
X036946Y057983D01*
X037096Y057983D02*
X036646Y057983D01*
X036646Y058443D02*
X037096Y058443D01*
X036946Y058443D02*
X036646Y058743D01*
X036646Y058904D02*
X036646Y059129D01*
X036721Y059204D01*
X036871Y059204D01*
X036946Y059129D01*
X036946Y058904D01*
X036946Y059054D02*
X037096Y059204D01*
X037096Y058904D02*
X036646Y058904D01*
X036871Y058518D02*
X037096Y058743D01*
X037315Y058783D02*
X037315Y058483D01*
X037315Y058633D02*
X037766Y058633D01*
X037690Y058322D02*
X037315Y058322D01*
X037315Y058022D02*
X037690Y058022D01*
X037766Y058097D01*
X037766Y058247D01*
X037690Y058322D01*
X037690Y057862D02*
X037390Y057862D01*
X037315Y057787D01*
X037315Y057637D01*
X037390Y057562D01*
X037690Y057562D01*
X037766Y057637D01*
X037766Y057787D01*
X037690Y057862D01*
X035918Y057174D02*
X035693Y056948D01*
X035918Y056723D02*
X035918Y057174D01*
X032220Y046119D02*
X032220Y045726D01*
X031157Y045726D02*
X031157Y046119D01*
X030728Y044257D02*
X032728Y044257D01*
X032728Y043257D01*
X030728Y043257D01*
X030728Y044257D01*
X029852Y040082D02*
X029852Y039782D01*
X029552Y040082D01*
X029477Y040082D01*
X029402Y040007D01*
X029402Y039857D01*
X029477Y039782D01*
X029627Y039622D02*
X029627Y039321D01*
X029402Y039547D01*
X029852Y039547D01*
X029852Y039161D02*
X029702Y039011D01*
X029702Y039086D02*
X029702Y038861D01*
X029852Y038861D02*
X029402Y038861D01*
X029402Y039086D01*
X029477Y039161D01*
X029627Y039161D01*
X029702Y039086D01*
X030690Y038288D02*
X030840Y038138D01*
X030990Y038288D01*
X030990Y037837D01*
X031150Y037837D02*
X031300Y037837D01*
X031225Y037837D02*
X031225Y038288D01*
X031150Y038288D02*
X031300Y038288D01*
X031457Y038213D02*
X031457Y037912D01*
X031532Y037837D01*
X031682Y037837D01*
X031757Y037912D01*
X031757Y038213D02*
X031682Y038288D01*
X031532Y038288D01*
X031457Y038213D01*
X030690Y038288D02*
X030690Y037837D01*
X030212Y036867D02*
X030212Y036474D01*
X031275Y036474D02*
X031275Y036867D01*
X032658Y037952D02*
X032733Y037877D01*
X032883Y037877D01*
X032958Y037952D01*
X032958Y038102D01*
X032808Y038102D01*
X032658Y038252D02*
X032733Y038327D01*
X032883Y038327D01*
X032958Y038252D01*
X033118Y038177D02*
X033269Y038327D01*
X033419Y038177D01*
X033419Y037877D01*
X033579Y037877D02*
X033729Y037877D01*
X033654Y037877D02*
X033654Y038327D01*
X033579Y038327D02*
X033729Y038327D01*
X033886Y038327D02*
X034186Y037877D01*
X034186Y038327D01*
X033886Y038327D02*
X033886Y037877D01*
X033419Y038102D02*
X033118Y038102D01*
X033118Y038177D02*
X033118Y037877D01*
X032658Y037952D02*
X032658Y038252D01*
X031635Y034548D02*
X031335Y034548D01*
X031100Y034548D02*
X030874Y034322D01*
X031175Y034322D01*
X031335Y034172D02*
X031335Y034097D01*
X031335Y034172D02*
X031635Y034472D01*
X031635Y034548D01*
X031100Y034548D02*
X031100Y034097D01*
X030714Y034097D02*
X030564Y034247D01*
X030639Y034247D02*
X030414Y034247D01*
X030414Y034097D02*
X030414Y034548D01*
X030639Y034548D01*
X030714Y034472D01*
X030714Y034322D01*
X030639Y034247D01*
X030369Y033127D02*
X030369Y032734D01*
X029306Y032734D02*
X029306Y033127D01*
X028985Y033388D02*
X028835Y033539D01*
X028910Y033539D02*
X028685Y033539D01*
X028685Y033388D02*
X028685Y033839D01*
X028910Y033839D01*
X028985Y033764D01*
X028985Y033614D01*
X028910Y033539D01*
X028525Y033388D02*
X028300Y033614D01*
X028225Y033539D02*
X028525Y033839D01*
X028619Y033940D02*
X028769Y033940D01*
X028844Y034015D01*
X028844Y034165D01*
X028694Y034165D01*
X028844Y034315D02*
X028769Y034390D01*
X028619Y034390D01*
X028543Y034315D01*
X028543Y034015D01*
X028619Y033940D01*
X028387Y033940D02*
X028237Y033940D01*
X028312Y033940D02*
X028312Y034390D01*
X028237Y034390D02*
X028387Y034390D01*
X028076Y034315D02*
X028076Y034165D01*
X028001Y034090D01*
X027776Y034090D01*
X027926Y034090D02*
X028076Y033940D01*
X027989Y033839D02*
X028064Y033764D01*
X028064Y033614D01*
X027989Y033539D01*
X027764Y033539D01*
X027764Y033388D02*
X027764Y033839D01*
X027989Y033839D01*
X027776Y033940D02*
X027776Y034390D01*
X028001Y034390D01*
X028076Y034315D01*
X028225Y033839D02*
X028225Y033388D01*
X027604Y033464D02*
X027529Y033388D01*
X027379Y033388D01*
X027304Y033464D01*
X027379Y033614D02*
X027304Y033689D01*
X027304Y033764D01*
X027379Y033839D01*
X027529Y033839D01*
X027604Y033764D01*
X027529Y033614D02*
X027604Y033539D01*
X027604Y033464D01*
X027529Y033614D02*
X027379Y033614D01*
X026848Y035905D02*
X026398Y035905D01*
X026398Y036130D01*
X026473Y036205D01*
X026623Y036205D01*
X026698Y036130D01*
X026698Y035905D01*
X026698Y036055D02*
X026848Y036205D01*
X026773Y036365D02*
X026848Y036440D01*
X026848Y036591D01*
X026773Y036666D01*
X026623Y036666D01*
X026548Y036591D01*
X026548Y036515D01*
X026623Y036365D01*
X026398Y036365D01*
X026398Y036666D01*
X026473Y036826D02*
X026398Y036901D01*
X026398Y037051D01*
X026473Y037126D01*
X026548Y037126D01*
X026848Y036826D01*
X026848Y037126D01*
X028957Y028878D02*
X029258Y028878D01*
X029107Y028878D02*
X029107Y028428D01*
X029418Y028428D02*
X029718Y028728D01*
X029718Y028803D01*
X029643Y028878D01*
X029493Y028878D01*
X029418Y028803D01*
X029418Y028428D02*
X029718Y028428D01*
X033012Y028878D02*
X033313Y028878D01*
X033163Y028878D02*
X033163Y028428D01*
X033473Y028428D02*
X033773Y028428D01*
X033623Y028428D02*
X033623Y028878D01*
X033473Y028728D01*
X036275Y032143D02*
X036275Y032537D01*
X037338Y032537D02*
X037338Y032143D01*
X037362Y034255D02*
X037362Y034705D01*
X037287Y034705D02*
X037437Y034705D01*
X037594Y034630D02*
X037594Y034330D01*
X037669Y034255D01*
X037819Y034255D01*
X037894Y034330D01*
X037894Y034630D02*
X037819Y034705D01*
X037669Y034705D01*
X037594Y034630D01*
X037437Y034255D02*
X037287Y034255D01*
X037127Y034255D02*
X037127Y034705D01*
X036977Y034555D01*
X036826Y034705D01*
X036826Y034255D01*
X036206Y034330D02*
X036206Y034480D01*
X036056Y034480D01*
X036206Y034630D02*
X036131Y034705D01*
X035981Y034705D01*
X035906Y034630D01*
X035906Y034330D01*
X035981Y034255D01*
X036131Y034255D01*
X036206Y034330D01*
X035749Y034255D02*
X035599Y034255D01*
X035674Y034255D02*
X035674Y034705D01*
X035599Y034705D02*
X035749Y034705D01*
X035439Y034630D02*
X035439Y034480D01*
X035364Y034405D01*
X035138Y034405D01*
X035138Y034255D02*
X035138Y034705D01*
X035364Y034705D01*
X035439Y034630D01*
X035288Y034405D02*
X035439Y034255D01*
X035451Y021298D02*
X035276Y021298D01*
X035276Y020948D01*
X035276Y021064D02*
X035451Y021064D01*
X035509Y021123D01*
X035509Y021239D01*
X035451Y021298D01*
X035392Y021064D02*
X035509Y020948D01*
X035644Y021006D02*
X035644Y021123D01*
X035702Y021181D01*
X035819Y021181D01*
X035877Y021123D01*
X035877Y021064D01*
X035644Y021064D01*
X035644Y021006D02*
X035702Y020948D01*
X035819Y020948D01*
X036012Y021181D02*
X036129Y020948D01*
X036246Y021181D01*
X036749Y021298D02*
X036924Y021298D01*
X036982Y021239D01*
X036982Y021006D01*
X036924Y020948D01*
X036749Y020948D01*
X036749Y021298D01*
X034773Y021239D02*
X034539Y021006D01*
X034597Y020948D01*
X034714Y020948D01*
X034773Y021006D01*
X034773Y021239D01*
X034714Y021298D01*
X034597Y021298D01*
X034539Y021239D01*
X034539Y021006D01*
X034404Y021006D02*
X034346Y020948D01*
X034229Y020948D01*
X034171Y021006D01*
X034404Y021239D01*
X034404Y021006D01*
X034171Y021006D02*
X034171Y021239D01*
X034229Y021298D01*
X034346Y021298D01*
X034404Y021239D01*
X034036Y021239D02*
X033802Y021006D01*
X033861Y020948D01*
X033978Y020948D01*
X034036Y021006D01*
X034036Y021239D01*
X033978Y021298D01*
X033861Y021298D01*
X033802Y021239D01*
X033802Y021006D01*
X033668Y020948D02*
X033434Y020948D01*
X033551Y020948D02*
X033551Y021298D01*
X033434Y021181D01*
X033299Y021298D02*
X033299Y020948D01*
X033066Y020948D02*
X033066Y021298D01*
X033182Y021181D01*
X033299Y021298D01*
X032931Y021239D02*
X032873Y021298D01*
X032756Y021298D01*
X032697Y021239D01*
X032697Y021181D01*
X032756Y021123D01*
X032873Y021123D01*
X032931Y021064D01*
X032931Y021006D01*
X032873Y020948D01*
X032756Y020948D01*
X032697Y021006D01*
D11*
X012594Y020529D02*
X012594Y059899D01*
X038184Y059899D01*
X038184Y020529D01*
X012594Y020529D01*
X013972Y020923D02*
X013972Y022300D01*
X013972Y023482D02*
X013972Y024663D01*
X013972Y025844D02*
X013972Y026710D01*
X017515Y026710D01*
X017515Y025844D01*
X017515Y024663D02*
X017515Y023482D01*
X017515Y022300D02*
X017515Y020923D01*
X013972Y020923D01*
X016275Y027950D02*
X016924Y027950D01*
X016275Y027950D02*
X016275Y030962D01*
X016531Y031218D01*
X016924Y031218D01*
X018893Y031218D02*
X019287Y031218D01*
X019542Y030962D01*
X019542Y027950D01*
X018893Y027950D01*
X020271Y027419D02*
X020271Y024072D01*
X020271Y020726D01*
X026570Y020726D01*
X026570Y024072D01*
X026570Y027419D01*
X025586Y027419D01*
X026570Y028797D02*
X020271Y028797D01*
X020271Y030371D01*
X026570Y030371D01*
X026570Y028797D01*
X027535Y027773D02*
X027535Y022734D01*
X027850Y022734D01*
X030999Y022734D02*
X031314Y022734D01*
X031314Y027773D01*
X031078Y027773D01*
X031865Y027773D02*
X031865Y022734D01*
X032180Y022734D01*
X035330Y022734D02*
X035645Y022734D01*
X035645Y027773D01*
X035409Y027773D01*
X035704Y031946D02*
X035822Y031946D01*
X035822Y032734D01*
X035704Y032734D01*
X034365Y032734D02*
X034247Y032734D01*
X034247Y031946D01*
X034365Y031946D01*
X033401Y032202D02*
X033401Y033915D01*
X033381Y033915D02*
X032515Y033915D01*
X031688Y033915D02*
X030783Y033915D01*
X030763Y033915D02*
X030763Y032143D01*
X031491Y031151D02*
X032672Y031151D01*
X032180Y027773D02*
X031865Y027773D01*
X027850Y027773D02*
X027535Y027773D01*
X024602Y031946D02*
X022239Y031946D01*
X022239Y033915D01*
X024602Y033915D01*
X024602Y031946D01*
X027023Y035686D02*
X027023Y037458D01*
X027042Y037458D02*
X027948Y037458D01*
X028775Y037458D02*
X029641Y037458D01*
X029661Y037458D02*
X029661Y035745D01*
X028932Y034694D02*
X027751Y034694D01*
X030704Y038631D02*
X031885Y038631D01*
X032613Y039682D02*
X032613Y041395D01*
X032594Y041395D02*
X031728Y041395D01*
X030901Y041395D02*
X029995Y041395D01*
X029976Y041395D02*
X029976Y039623D01*
X029720Y041671D02*
X030231Y042182D01*
X030231Y042576D01*
X030231Y043363D02*
X030231Y043757D01*
X029720Y044269D01*
X027633Y044269D01*
X027633Y043363D01*
X027633Y042576D02*
X027633Y041671D01*
X029720Y041671D01*
X027121Y045175D02*
X026767Y045686D01*
X026373Y047793D02*
X021649Y047793D01*
X021255Y048186D01*
X021255Y052911D01*
X026373Y052911D01*
X026373Y047793D01*
X024444Y045135D02*
X024444Y044348D01*
X024661Y044151D02*
X024661Y043501D01*
X024011Y043501D01*
X023893Y043757D02*
X023735Y043757D01*
X023184Y044348D02*
X023184Y045135D01*
X023735Y045726D02*
X023893Y045726D01*
X023539Y046867D02*
X023420Y046867D01*
X021649Y048383D02*
X021651Y048410D01*
X021657Y048437D01*
X021666Y048463D01*
X021679Y048487D01*
X021695Y048510D01*
X021714Y048529D01*
X021736Y048546D01*
X021760Y048560D01*
X021785Y048570D01*
X021812Y048577D01*
X021839Y048580D01*
X021867Y048579D01*
X021894Y048574D01*
X021920Y048566D01*
X021944Y048554D01*
X021967Y048538D01*
X021988Y048520D01*
X022005Y048499D01*
X022020Y048475D01*
X022031Y048450D01*
X022039Y048424D01*
X022043Y048397D01*
X022043Y048369D01*
X022039Y048342D01*
X022031Y048316D01*
X022020Y048291D01*
X022005Y048267D01*
X021988Y048246D01*
X021967Y048228D01*
X021945Y048212D01*
X021920Y048200D01*
X021894Y048192D01*
X021867Y048187D01*
X021839Y048186D01*
X021812Y048189D01*
X021785Y048196D01*
X021760Y048206D01*
X021736Y048220D01*
X021714Y048237D01*
X021695Y048256D01*
X021679Y048279D01*
X021666Y048303D01*
X021657Y048329D01*
X021651Y048356D01*
X021649Y048383D01*
X019228Y046336D02*
X019228Y044564D01*
X017456Y044564D01*
X017456Y046336D01*
X019228Y046336D01*
X016137Y050844D02*
X016137Y051434D01*
X016137Y055175D01*
X016137Y056631D01*
X013775Y056631D01*
X013775Y055175D01*
X013775Y051631D01*
X013775Y050844D01*
X016137Y050844D01*
X014877Y049525D02*
X014877Y049387D01*
X014877Y049525D02*
X012594Y049525D01*
X012594Y049269D01*
X012594Y047694D01*
X012594Y047438D01*
X014877Y047438D01*
X014877Y048560D01*
X017869Y040765D02*
X017869Y040726D01*
X019129Y040726D01*
X019129Y040686D01*
X017869Y040686D01*
X017869Y040726D01*
X017869Y040765D02*
X019129Y040765D01*
X019129Y040726D01*
X019129Y038560D02*
X019129Y038482D01*
X017869Y038482D01*
X017869Y038560D01*
X015743Y035450D02*
X015743Y033954D01*
X013814Y034702D02*
X013816Y034757D01*
X013822Y034811D01*
X013832Y034865D01*
X013846Y034917D01*
X013863Y034969D01*
X013885Y035019D01*
X013910Y035068D01*
X013938Y035115D01*
X013970Y035159D01*
X014005Y035201D01*
X014043Y035240D01*
X014084Y035277D01*
X014127Y035310D01*
X014172Y035340D01*
X014220Y035367D01*
X014269Y035390D01*
X014320Y035410D01*
X014373Y035426D01*
X014426Y035438D01*
X014480Y035446D01*
X014535Y035450D01*
X014589Y035450D01*
X014644Y035446D01*
X014698Y035438D01*
X014751Y035426D01*
X014804Y035410D01*
X014855Y035390D01*
X014904Y035367D01*
X014952Y035340D01*
X014997Y035310D01*
X015040Y035277D01*
X015081Y035240D01*
X015119Y035201D01*
X015154Y035159D01*
X015186Y035115D01*
X015214Y035068D01*
X015239Y035019D01*
X015261Y034969D01*
X015278Y034917D01*
X015292Y034865D01*
X015302Y034811D01*
X015308Y034757D01*
X015310Y034702D01*
X015308Y034647D01*
X015302Y034593D01*
X015292Y034539D01*
X015278Y034487D01*
X015261Y034435D01*
X015239Y034385D01*
X015214Y034336D01*
X015186Y034289D01*
X015154Y034245D01*
X015119Y034203D01*
X015081Y034164D01*
X015040Y034127D01*
X014997Y034094D01*
X014952Y034064D01*
X014904Y034037D01*
X014855Y034014D01*
X014804Y033994D01*
X014751Y033978D01*
X014698Y033966D01*
X014644Y033958D01*
X014589Y033954D01*
X014535Y033954D01*
X014480Y033958D01*
X014426Y033966D01*
X014373Y033978D01*
X014320Y033994D01*
X014269Y034014D01*
X014220Y034037D01*
X014172Y034064D01*
X014127Y034094D01*
X014084Y034127D01*
X014043Y034164D01*
X014005Y034203D01*
X013970Y034245D01*
X013938Y034289D01*
X013910Y034336D01*
X013885Y034385D01*
X013863Y034435D01*
X013846Y034487D01*
X013832Y034539D01*
X013822Y034593D01*
X013816Y034647D01*
X013814Y034702D01*
X013381Y035450D02*
X013381Y033954D01*
X013224Y031277D02*
X013617Y031277D01*
X013617Y031238D02*
X013224Y031238D01*
X013224Y031198D02*
X013617Y031198D01*
X020271Y027419D02*
X021255Y027419D01*
X023696Y039623D02*
X023698Y039710D01*
X023704Y039796D01*
X023714Y039882D01*
X023728Y039968D01*
X023745Y040053D01*
X023767Y040137D01*
X023793Y040219D01*
X023822Y040301D01*
X023855Y040381D01*
X023891Y040460D01*
X023931Y040537D01*
X023975Y040611D01*
X024022Y040684D01*
X024072Y040755D01*
X024126Y040823D01*
X024182Y040889D01*
X024242Y040952D01*
X024304Y041012D01*
X024369Y041069D01*
X024437Y041124D01*
X024507Y041175D01*
X024579Y041222D01*
X024654Y041267D01*
X024730Y041308D01*
X024808Y041345D01*
X024888Y041379D01*
X024969Y041409D01*
X025052Y041436D01*
X025135Y041458D01*
X025220Y041477D01*
X025305Y041492D01*
X025391Y041503D01*
X025478Y041510D01*
X025564Y041513D01*
X025651Y041512D01*
X025738Y041507D01*
X025824Y041498D01*
X025909Y041485D01*
X025994Y041468D01*
X026079Y041448D01*
X026162Y041423D01*
X026244Y041395D01*
X026324Y041363D01*
X026403Y041327D01*
X026481Y041288D01*
X026556Y041245D01*
X026629Y041199D01*
X026700Y041149D01*
X026769Y041097D01*
X026836Y041041D01*
X026899Y040982D01*
X026960Y040921D01*
X027018Y040856D01*
X027073Y040789D01*
X027125Y040720D01*
X027174Y040648D01*
X027219Y040574D01*
X027261Y040498D01*
X027299Y040421D01*
X027334Y040341D01*
X027365Y040260D01*
X027393Y040178D01*
X027416Y040095D01*
X027436Y040010D01*
X027452Y039925D01*
X027464Y039839D01*
X027472Y039753D01*
X027476Y039666D01*
X027476Y039580D01*
X027472Y039493D01*
X027464Y039407D01*
X027452Y039321D01*
X027436Y039236D01*
X027416Y039151D01*
X027393Y039068D01*
X027365Y038986D01*
X027334Y038905D01*
X027299Y038825D01*
X027261Y038748D01*
X027219Y038672D01*
X027174Y038598D01*
X027125Y038526D01*
X027073Y038457D01*
X027018Y038390D01*
X026960Y038325D01*
X026899Y038264D01*
X026836Y038205D01*
X026769Y038149D01*
X026700Y038097D01*
X026629Y038047D01*
X026556Y038001D01*
X026481Y037958D01*
X026403Y037919D01*
X026324Y037883D01*
X026244Y037851D01*
X026162Y037823D01*
X026079Y037798D01*
X025994Y037778D01*
X025909Y037761D01*
X025824Y037748D01*
X025738Y037739D01*
X025651Y037734D01*
X025564Y037733D01*
X025478Y037736D01*
X025391Y037743D01*
X025305Y037754D01*
X025220Y037769D01*
X025135Y037788D01*
X025052Y037810D01*
X024969Y037837D01*
X024888Y037867D01*
X024808Y037901D01*
X024730Y037938D01*
X024654Y037979D01*
X024579Y038024D01*
X024507Y038071D01*
X024437Y038122D01*
X024369Y038177D01*
X024304Y038234D01*
X024242Y038294D01*
X024182Y038357D01*
X024126Y038423D01*
X024072Y038491D01*
X024022Y038562D01*
X023975Y038635D01*
X023931Y038709D01*
X023891Y038786D01*
X023855Y038865D01*
X023822Y038945D01*
X023793Y039027D01*
X023767Y039109D01*
X023745Y039193D01*
X023728Y039278D01*
X023714Y039364D01*
X023704Y039450D01*
X023698Y039536D01*
X023696Y039623D01*
X030999Y048226D02*
X031649Y048226D01*
X030999Y048226D02*
X030999Y051238D01*
X031255Y051493D01*
X031649Y051493D01*
X033617Y051493D02*
X034011Y051493D01*
X034267Y051238D01*
X034267Y048226D01*
X033617Y048226D01*
X034582Y047241D02*
X035231Y047241D01*
X034582Y047241D02*
X034582Y050253D01*
X034838Y050509D01*
X035231Y050509D01*
X037200Y050509D02*
X037594Y050509D01*
X037850Y050253D01*
X037850Y047241D01*
X037200Y047241D01*
X037003Y044466D02*
X036609Y044466D01*
X037003Y044466D02*
X037515Y043954D01*
X037515Y041867D01*
X036609Y041867D01*
X035822Y041867D02*
X034917Y041867D01*
X034917Y043954D01*
X035428Y044466D01*
X035822Y044466D01*
X034641Y041198D02*
X034523Y041198D01*
X034641Y041198D02*
X034641Y040411D01*
X034523Y040411D01*
X033184Y040411D02*
X033066Y040411D01*
X033066Y041198D01*
X033184Y041198D01*
X032987Y036080D02*
X032869Y036080D01*
X032869Y035293D01*
X032987Y035293D01*
X034326Y035293D02*
X034444Y035293D01*
X034444Y036080D01*
X034326Y036080D01*
X033854Y054682D02*
X033657Y054682D01*
X033854Y054682D02*
X033854Y055863D01*
X033657Y055863D01*
X032448Y057336D02*
X032448Y059501D01*
X036385Y059501D01*
X036385Y057336D01*
X032448Y057336D01*
X031688Y055863D02*
X031491Y055863D01*
X031491Y054682D01*
X031688Y054682D01*
X029523Y058915D02*
X029483Y058915D01*
X029483Y059702D01*
X029523Y059702D01*
X029523Y058915D01*
X029483Y058915D01*
X029444Y058915D01*
X029444Y059702D01*
X029483Y059702D01*
X029483Y058915D01*
X029444Y058915D01*
X029326Y058915D01*
X029287Y058915D01*
X029326Y058915D01*
X029444Y058915D01*
X029444Y059702D01*
X029326Y059702D01*
X029287Y059702D01*
X029326Y059702D01*
X029444Y059702D01*
X029483Y059702D01*
X029523Y059702D01*
X029523Y058915D01*
X030114Y059663D02*
X030106Y059691D01*
X030094Y059718D01*
X030080Y059744D01*
X030063Y059768D01*
X030043Y059789D01*
X030022Y059809D01*
X029998Y059826D01*
X029972Y059840D01*
X029945Y059852D01*
X029917Y059860D01*
X029129Y059860D01*
X029103Y059858D01*
X029078Y059853D01*
X029054Y059845D01*
X029031Y059834D01*
X029009Y059819D01*
X028990Y059802D01*
X028973Y059783D01*
X028958Y059762D01*
X028947Y059738D01*
X028939Y059714D01*
X028934Y059689D01*
X028932Y059663D01*
X027751Y059860D02*
X026964Y059860D01*
X026938Y059858D01*
X026913Y059853D01*
X026889Y059845D01*
X026866Y059834D01*
X026844Y059819D01*
X026825Y059802D01*
X026808Y059783D01*
X026793Y059762D01*
X026782Y059738D01*
X026774Y059714D01*
X026769Y059689D01*
X026767Y059663D01*
X027121Y059702D02*
X027161Y059702D01*
X027279Y059702D01*
X027279Y058915D01*
X027161Y058915D01*
X027121Y058915D01*
X027161Y058915D01*
X027279Y058915D01*
X027318Y058915D01*
X027318Y059702D01*
X027357Y059702D01*
X027357Y058915D01*
X027318Y058915D01*
X027318Y059702D01*
X027279Y059702D01*
X027279Y058915D01*
X027318Y058915D01*
X027357Y058915D01*
X027357Y059702D01*
X027318Y059702D01*
X027279Y059702D01*
X027161Y059702D01*
X027121Y059702D01*
X027751Y059860D02*
X027779Y059852D01*
X027806Y059840D01*
X027832Y059826D01*
X027856Y059809D01*
X027877Y059789D01*
X027897Y059768D01*
X027914Y059744D01*
X027928Y059718D01*
X027940Y059691D01*
X027948Y059663D01*
X025586Y059860D02*
X024798Y059860D01*
X024772Y059858D01*
X024747Y059853D01*
X024723Y059845D01*
X024700Y059834D01*
X024678Y059819D01*
X024659Y059802D01*
X024642Y059783D01*
X024627Y059762D01*
X024616Y059738D01*
X024608Y059714D01*
X024603Y059689D01*
X024601Y059663D01*
X024956Y059702D02*
X024995Y059702D01*
X025113Y059702D01*
X025113Y058915D01*
X024995Y058915D01*
X024956Y058915D01*
X024995Y058915D01*
X025113Y058915D01*
X025153Y058915D01*
X025153Y059702D01*
X025192Y059702D01*
X025192Y058915D01*
X025153Y058915D01*
X025153Y059702D01*
X025113Y059702D01*
X025113Y058915D01*
X025153Y058915D01*
X025192Y058915D01*
X025192Y059702D01*
X025153Y059702D01*
X025113Y059702D01*
X024995Y059702D01*
X024956Y059702D01*
X025586Y059860D02*
X025614Y059852D01*
X025641Y059840D01*
X025667Y059826D01*
X025691Y059809D01*
X025712Y059789D01*
X025732Y059768D01*
X025749Y059744D01*
X025763Y059718D01*
X025775Y059691D01*
X025783Y059663D01*
X023420Y059860D02*
X022633Y059860D01*
X022607Y059858D01*
X022582Y059853D01*
X022558Y059845D01*
X022535Y059834D01*
X022513Y059819D01*
X022494Y059802D01*
X022477Y059783D01*
X022462Y059762D01*
X022451Y059738D01*
X022443Y059714D01*
X022438Y059689D01*
X022436Y059663D01*
X022791Y059702D02*
X022830Y059702D01*
X022948Y059702D01*
X022948Y058915D01*
X022830Y058915D01*
X022791Y058915D01*
X022830Y058915D01*
X022948Y058915D01*
X022987Y058915D01*
X022987Y059702D01*
X023027Y059702D01*
X023027Y058915D01*
X022987Y058915D01*
X022987Y059702D01*
X022948Y059702D01*
X022948Y058915D01*
X022987Y058915D01*
X023027Y058915D01*
X023027Y059702D01*
X022987Y059702D01*
X022948Y059702D01*
X022830Y059702D01*
X022791Y059702D01*
X023421Y059860D02*
X023449Y059852D01*
X023476Y059840D01*
X023502Y059826D01*
X023526Y059809D01*
X023547Y059789D01*
X023567Y059768D01*
X023584Y059744D01*
X023598Y059718D01*
X023610Y059691D01*
X023618Y059663D01*
X021255Y059505D02*
X021255Y058324D01*
X020468Y058324D01*
X020507Y059505D02*
X021255Y059505D01*
X019641Y059505D02*
X018893Y059505D01*
X018893Y058324D01*
X019680Y058324D01*
X018499Y058324D02*
X017712Y058324D01*
X018499Y058324D02*
X018499Y059505D01*
X017751Y059505D01*
X016885Y059505D02*
X016137Y059505D01*
X016137Y058324D01*
X016924Y058324D01*
X023263Y055608D02*
X023263Y054741D01*
X023972Y054741D01*
X023972Y055608D01*
X023263Y055608D01*
X027220Y055785D02*
X027259Y055785D01*
X027259Y055155D01*
X027298Y055155D01*
X027298Y055785D01*
X027653Y055785D01*
X027298Y055785D02*
X027259Y055785D01*
X027220Y055785D02*
X027220Y055155D01*
X027259Y055155D01*
X027298Y055155D02*
X027653Y055155D01*
D12*
X027827Y056966D02*
X027827Y057320D01*
X027709Y057320D02*
X027945Y057320D01*
X027582Y057320D02*
X027346Y057320D01*
X027464Y057320D02*
X027464Y056966D01*
X027220Y057143D02*
X027161Y057084D01*
X026984Y057084D01*
X026984Y056966D02*
X026984Y057320D01*
X027161Y057320D01*
X027220Y057261D01*
X027220Y057143D01*
X025945Y057025D02*
X025886Y056966D01*
X025768Y056966D01*
X025709Y057025D01*
X025709Y057261D01*
X025768Y057320D01*
X025886Y057320D01*
X025945Y057261D01*
X025583Y057320D02*
X025583Y056966D01*
X025347Y057320D01*
X025347Y056966D01*
X025102Y056966D02*
X025102Y057143D01*
X025220Y057261D01*
X025220Y057320D01*
X025102Y057143D02*
X024984Y057261D01*
X024984Y057320D01*
X024858Y057261D02*
X024799Y057320D01*
X024681Y057320D01*
X024622Y057261D01*
X024622Y057202D01*
X024681Y057143D01*
X024799Y057143D01*
X024858Y057084D01*
X024858Y057025D01*
X024799Y056966D01*
X024681Y056966D01*
X024622Y057025D01*
X023462Y057143D02*
X023403Y057084D01*
X023226Y057084D01*
X023226Y056966D02*
X023226Y057320D01*
X023403Y057320D01*
X023462Y057261D01*
X023462Y057143D01*
X023102Y056966D02*
X022984Y056966D01*
X023043Y056966D02*
X023043Y057320D01*
X022984Y057320D02*
X023102Y057320D01*
X022858Y056966D02*
X022622Y056966D01*
X022622Y057320D01*
X022495Y057261D02*
X022436Y057320D01*
X022318Y057320D01*
X022259Y057261D01*
X022259Y057025D01*
X022318Y056966D01*
X022436Y056966D01*
X022495Y057025D01*
X028559Y056966D02*
X028559Y057320D01*
X028736Y057320D01*
X028795Y057261D01*
X028795Y057143D01*
X028736Y057084D01*
X028559Y057084D01*
X028921Y057025D02*
X028980Y056966D01*
X029098Y056966D01*
X029157Y057025D01*
X029157Y057261D01*
X029098Y057320D01*
X028980Y057320D01*
X028921Y057261D01*
X028921Y057025D01*
X029284Y056966D02*
X029402Y057084D01*
X029520Y056966D01*
X029520Y057320D01*
X029646Y057320D02*
X029646Y056966D01*
X029882Y056966D01*
X030009Y056966D02*
X030009Y057320D01*
X030186Y057320D01*
X030245Y057261D01*
X030245Y057143D01*
X030186Y057084D01*
X030009Y057084D01*
X030127Y057084D02*
X030245Y056966D01*
X029882Y057320D02*
X029646Y057320D01*
X029646Y057143D02*
X029764Y057143D01*
X029284Y057320D02*
X029284Y056966D01*
X015526Y048375D02*
X015526Y048139D01*
X015526Y048257D02*
X015172Y048257D01*
X015290Y048139D01*
X015172Y048013D02*
X015526Y048013D01*
X015408Y047895D01*
X015526Y047777D01*
X015172Y047777D01*
X015231Y047650D02*
X015172Y047591D01*
X015172Y047473D01*
X015231Y047414D01*
X015290Y047414D01*
X015349Y047473D01*
X015349Y047591D01*
X015408Y047650D01*
X015467Y047650D01*
X015526Y047591D01*
X015526Y047473D01*
X015467Y047414D01*
X013637Y031316D02*
X013637Y030844D01*
X013204Y030844D01*
X013204Y031316D01*
D13*
X013770Y031201D02*
X013770Y031105D01*
X013818Y031056D01*
X013818Y030955D02*
X013770Y030907D01*
X013770Y030762D01*
X014060Y030762D01*
X014060Y030907D01*
X014012Y030955D01*
X013818Y030955D01*
X013770Y031201D02*
X013818Y031250D01*
X013867Y031250D01*
X014060Y031056D01*
X014060Y031250D01*
X014617Y031528D02*
X014617Y031818D01*
X014810Y031818D01*
X014911Y031818D02*
X015056Y031818D01*
X015105Y031770D01*
X015105Y031722D01*
X015056Y031673D01*
X014911Y031673D01*
X014911Y031528D02*
X015056Y031528D01*
X015105Y031576D01*
X015105Y031625D01*
X015056Y031673D01*
X015206Y031673D02*
X015303Y031722D01*
X015351Y031722D01*
X015399Y031673D01*
X015399Y031576D01*
X015351Y031528D01*
X015254Y031528D01*
X015206Y031576D01*
X015206Y031673D02*
X015206Y031818D01*
X015399Y031818D01*
X014911Y031818D02*
X014911Y031528D01*
X014713Y031673D02*
X014617Y031673D01*
X016743Y032403D02*
X016791Y032355D01*
X016888Y032355D01*
X016936Y032403D01*
X017037Y032403D02*
X017086Y032355D01*
X017182Y032355D01*
X017231Y032403D01*
X017231Y032452D01*
X017182Y032500D01*
X017037Y032500D01*
X017037Y032403D01*
X017037Y032500D02*
X017134Y032597D01*
X017231Y032645D01*
X017332Y032597D02*
X017380Y032645D01*
X017477Y032645D01*
X017525Y032597D01*
X017525Y032548D01*
X017477Y032500D01*
X017525Y032452D01*
X017525Y032403D01*
X017477Y032355D01*
X017380Y032355D01*
X017332Y032403D01*
X017429Y032500D02*
X017477Y032500D01*
X016936Y032597D02*
X016888Y032645D01*
X016791Y032645D01*
X016743Y032597D01*
X016743Y032403D01*
X017924Y033654D02*
X017924Y033944D01*
X018069Y033944D01*
X018117Y033896D01*
X018117Y033799D01*
X018069Y033751D01*
X017924Y033751D01*
X018020Y033751D02*
X018117Y033654D01*
X018218Y033702D02*
X018267Y033654D01*
X018363Y033654D01*
X018412Y033702D01*
X018412Y033751D01*
X018363Y033799D01*
X018315Y033799D01*
X018363Y033799D02*
X018412Y033848D01*
X018412Y033896D01*
X018363Y033944D01*
X018267Y033944D01*
X018218Y033896D01*
X018513Y033896D02*
X018561Y033944D01*
X018658Y033944D01*
X018706Y033896D01*
X018706Y033848D01*
X018658Y033799D01*
X018706Y033751D01*
X018706Y033702D01*
X018658Y033654D01*
X018561Y033654D01*
X018513Y033702D01*
X018610Y033799D02*
X018658Y033799D01*
X017428Y035629D02*
X017476Y035678D01*
X017476Y035871D01*
X017428Y035920D01*
X017331Y035920D01*
X017283Y035871D01*
X017283Y035823D01*
X017331Y035775D01*
X017476Y035775D01*
X017428Y035629D02*
X017331Y035629D01*
X017283Y035678D01*
X017181Y035629D02*
X016988Y035629D01*
X017181Y035823D01*
X017181Y035871D01*
X017133Y035920D01*
X017036Y035920D01*
X016988Y035871D01*
X016887Y035871D02*
X016838Y035920D01*
X016742Y035920D01*
X016693Y035871D01*
X016693Y035678D01*
X016742Y035629D01*
X016838Y035629D01*
X016887Y035678D01*
X017727Y036095D02*
X017920Y036095D01*
X018021Y036095D02*
X018215Y036095D01*
X018316Y036095D02*
X018461Y036095D01*
X018510Y036143D01*
X018510Y036337D01*
X018461Y036385D01*
X018316Y036385D01*
X018316Y036095D01*
X018118Y036240D02*
X018021Y036240D01*
X018021Y036385D02*
X018021Y036095D01*
X018021Y036385D02*
X018215Y036385D01*
X018611Y036337D02*
X018611Y036289D01*
X018659Y036240D01*
X018756Y036240D01*
X018804Y036192D01*
X018804Y036143D01*
X018756Y036095D01*
X018659Y036095D01*
X018611Y036143D01*
X018611Y036192D01*
X018659Y036240D01*
X018756Y036240D02*
X018804Y036289D01*
X018804Y036337D01*
X018756Y036385D01*
X018659Y036385D01*
X018611Y036337D01*
X017727Y036385D02*
X017727Y036095D01*
X019902Y036496D02*
X019902Y036786D01*
X020047Y036786D01*
X020095Y036737D01*
X020095Y036641D01*
X020047Y036592D01*
X019902Y036592D01*
X019999Y036592D02*
X020095Y036496D01*
X020197Y036496D02*
X020390Y036689D01*
X020390Y036737D01*
X020342Y036786D01*
X020245Y036786D01*
X020197Y036737D01*
X020197Y036496D02*
X020390Y036496D01*
X020491Y036496D02*
X020685Y036496D01*
X020588Y036496D02*
X020588Y036786D01*
X020491Y036689D01*
X020680Y035204D02*
X020825Y035204D01*
X020873Y035156D01*
X020873Y035059D01*
X020825Y035011D01*
X020680Y035011D01*
X020776Y035011D02*
X020873Y034914D01*
X020974Y034962D02*
X021023Y034914D01*
X021119Y034914D01*
X021168Y034962D01*
X021168Y035059D01*
X021119Y035107D01*
X021071Y035107D01*
X020974Y035059D01*
X020974Y035204D01*
X021168Y035204D01*
X021269Y035107D02*
X021366Y035204D01*
X021366Y034914D01*
X021462Y034914D02*
X021269Y034914D01*
X020680Y034914D02*
X020680Y035204D01*
X022475Y035647D02*
X022523Y035599D01*
X022572Y035599D01*
X022620Y035647D01*
X022620Y035889D01*
X022572Y035889D02*
X022668Y035889D01*
X022769Y035744D02*
X022963Y035744D01*
X022915Y035599D02*
X022915Y035889D01*
X022769Y035744D01*
X023054Y036997D02*
X023054Y037287D01*
X023199Y037287D01*
X023247Y037238D01*
X023247Y037142D01*
X023199Y037093D01*
X023054Y037093D01*
X023348Y036997D02*
X023542Y036997D01*
X023445Y036997D02*
X023445Y037287D01*
X023348Y037190D01*
X023643Y037190D02*
X023691Y037142D01*
X023836Y037142D01*
X023836Y037238D02*
X023788Y037287D01*
X023691Y037287D01*
X023643Y037238D01*
X023643Y037190D01*
X023643Y037045D02*
X023691Y036997D01*
X023788Y036997D01*
X023836Y037045D01*
X023836Y037238D01*
X023927Y037429D02*
X023927Y037719D01*
X023830Y037622D01*
X023733Y037719D01*
X023733Y037429D01*
X024028Y037429D02*
X024124Y037429D01*
X024076Y037429D02*
X024076Y037719D01*
X024028Y037719D02*
X024124Y037719D01*
X024224Y037670D02*
X024224Y037477D01*
X024272Y037429D01*
X024369Y037429D01*
X024418Y037477D01*
X024519Y037429D02*
X024712Y037429D01*
X024615Y037429D02*
X024615Y037719D01*
X024519Y037622D01*
X024418Y037670D02*
X024369Y037719D01*
X024272Y037719D01*
X024224Y037670D01*
X024813Y037370D02*
X025007Y037370D01*
X025108Y037370D02*
X025253Y037370D01*
X025302Y037321D01*
X025302Y037273D01*
X025253Y037224D01*
X025108Y037224D01*
X025108Y037079D02*
X025253Y037079D01*
X025302Y037128D01*
X025302Y037176D01*
X025253Y037224D01*
X025403Y037224D02*
X025548Y037224D01*
X025596Y037176D01*
X025596Y037128D01*
X025548Y037079D01*
X025451Y037079D01*
X025403Y037128D01*
X025403Y037224D01*
X025499Y037321D01*
X025596Y037370D01*
X025108Y037370D02*
X025108Y037079D01*
X024910Y037224D02*
X024813Y037224D01*
X024813Y037079D02*
X024813Y037370D01*
X025059Y035598D02*
X025010Y035549D01*
X025010Y035356D01*
X025059Y035308D01*
X025155Y035308D01*
X025204Y035356D01*
X025305Y035453D02*
X025498Y035453D01*
X025600Y035453D02*
X025696Y035501D01*
X025745Y035501D01*
X025793Y035453D01*
X025793Y035356D01*
X025745Y035308D01*
X025648Y035308D01*
X025600Y035356D01*
X025600Y035453D02*
X025600Y035598D01*
X025793Y035598D01*
X025450Y035598D02*
X025305Y035453D01*
X025204Y035549D02*
X025155Y035598D01*
X025059Y035598D01*
X025450Y035598D02*
X025450Y035308D01*
X027564Y038477D02*
X027564Y038670D01*
X027564Y038772D02*
X027564Y038917D01*
X027612Y038965D01*
X027661Y038965D01*
X027709Y038917D01*
X027709Y038772D01*
X027709Y038917D02*
X027758Y038965D01*
X027806Y038965D01*
X027854Y038917D01*
X027854Y038772D01*
X027564Y038772D01*
X027709Y038574D02*
X027709Y038477D01*
X027854Y038477D02*
X027564Y038477D01*
X027709Y039066D02*
X027709Y039260D01*
X027564Y039211D02*
X027709Y039066D01*
X027854Y039211D02*
X027564Y039211D01*
X027220Y041392D02*
X027269Y041441D01*
X027269Y041537D01*
X027220Y041586D01*
X027220Y041687D02*
X027269Y041735D01*
X027269Y041832D01*
X027220Y041880D01*
X027172Y041880D01*
X027124Y041832D01*
X027124Y041784D01*
X027124Y041832D02*
X027075Y041880D01*
X027027Y041880D01*
X026979Y041832D01*
X026979Y041735D01*
X027027Y041687D01*
X027027Y041586D02*
X026979Y041537D01*
X026979Y041441D01*
X027027Y041392D01*
X027220Y041392D01*
X027269Y041981D02*
X027075Y042175D01*
X027027Y042175D01*
X026979Y042127D01*
X026979Y042030D01*
X027027Y041981D01*
X027269Y041981D02*
X027269Y042175D01*
X027963Y042133D02*
X027963Y041843D01*
X027963Y041940D02*
X028108Y041940D01*
X028157Y041988D01*
X028157Y042085D01*
X028108Y042133D01*
X027963Y042133D01*
X028060Y041940D02*
X028157Y041843D01*
X028258Y041843D02*
X028451Y041843D01*
X028354Y041843D02*
X028354Y042133D01*
X028258Y042037D01*
X028552Y042037D02*
X028649Y042133D01*
X028649Y041843D01*
X028552Y041843D02*
X028746Y041843D01*
X028967Y041850D02*
X028967Y042140D01*
X029112Y042140D01*
X029160Y042092D01*
X029160Y041995D01*
X029112Y041947D01*
X028967Y041947D01*
X029064Y041947D02*
X029160Y041850D01*
X029262Y041898D02*
X029310Y041850D01*
X029407Y041850D01*
X029455Y041898D01*
X029455Y041947D01*
X029407Y041995D01*
X029358Y041995D01*
X029407Y041995D02*
X029455Y042043D01*
X029455Y042092D01*
X029407Y042140D01*
X029310Y042140D01*
X029262Y042092D01*
X029556Y042092D02*
X029605Y042140D01*
X029701Y042140D01*
X029750Y042092D01*
X029750Y042043D01*
X029556Y041850D01*
X029750Y041850D01*
X031159Y042354D02*
X031208Y042306D01*
X031401Y042306D01*
X031450Y042354D01*
X031450Y042451D01*
X031401Y042499D01*
X031401Y042600D02*
X031450Y042649D01*
X031450Y042745D01*
X031401Y042794D01*
X031353Y042794D01*
X031305Y042745D01*
X031305Y042600D01*
X031401Y042600D01*
X031305Y042600D02*
X031208Y042697D01*
X031159Y042794D01*
X031208Y042895D02*
X031159Y042943D01*
X031159Y043040D01*
X031208Y043088D01*
X031256Y043088D01*
X031450Y042895D01*
X031450Y043088D01*
X031580Y043059D02*
X031580Y042865D01*
X031725Y042865D01*
X031677Y042962D01*
X031677Y043011D01*
X031725Y043059D01*
X031822Y043059D01*
X031870Y043011D01*
X031870Y042914D01*
X031822Y042865D01*
X031822Y042764D02*
X031870Y042716D01*
X031870Y042619D01*
X031822Y042571D01*
X031822Y042470D02*
X031870Y042421D01*
X031870Y042325D01*
X031822Y042276D01*
X031628Y042276D01*
X031580Y042325D01*
X031580Y042421D01*
X031628Y042470D01*
X031628Y042571D02*
X031580Y042619D01*
X031580Y042716D01*
X031628Y042764D01*
X031677Y042764D01*
X031725Y042716D01*
X031773Y042764D01*
X031822Y042764D01*
X031725Y042716D02*
X031725Y042668D01*
X031208Y042499D02*
X031159Y042451D01*
X031159Y042354D01*
X032800Y042343D02*
X032800Y042246D01*
X032849Y042197D01*
X033042Y042197D01*
X033090Y042246D01*
X033090Y042343D01*
X033042Y042391D01*
X033090Y042492D02*
X032897Y042686D01*
X032849Y042686D01*
X032800Y042637D01*
X032800Y042540D01*
X032849Y042492D01*
X032849Y042391D02*
X032800Y042343D01*
X033090Y042492D02*
X033090Y042686D01*
X033090Y042787D02*
X032897Y042980D01*
X032849Y042980D01*
X032800Y042932D01*
X032800Y042835D01*
X032849Y042787D01*
X033090Y042787D02*
X033090Y042980D01*
X033784Y042932D02*
X033784Y042835D01*
X033833Y042787D01*
X033881Y042787D01*
X033930Y042835D01*
X033930Y042932D01*
X033978Y042980D01*
X034026Y042980D01*
X034075Y042932D01*
X034075Y042835D01*
X034026Y042787D01*
X033978Y042787D01*
X033930Y042835D01*
X033930Y042932D02*
X033881Y042980D01*
X033833Y042980D01*
X033784Y042932D01*
X033833Y042686D02*
X033881Y042686D01*
X033930Y042637D01*
X033978Y042686D01*
X034026Y042686D01*
X034075Y042637D01*
X034075Y042540D01*
X034026Y042492D01*
X034075Y042391D02*
X033978Y042294D01*
X033978Y042343D02*
X033978Y042197D01*
X034075Y042197D02*
X033784Y042197D01*
X033784Y042343D01*
X033833Y042391D01*
X033930Y042391D01*
X033978Y042343D01*
X033833Y042492D02*
X033784Y042540D01*
X033784Y042637D01*
X033833Y042686D01*
X033930Y042637D02*
X033930Y042589D01*
X032988Y041663D02*
X032795Y041663D01*
X032746Y041615D01*
X032746Y041518D01*
X032795Y041470D01*
X032843Y041470D01*
X032891Y041518D01*
X032891Y041663D01*
X032988Y041663D02*
X033036Y041615D01*
X033036Y041518D01*
X032988Y041470D01*
X032988Y041369D02*
X032746Y041369D01*
X032746Y041175D02*
X032988Y041175D01*
X033036Y041223D01*
X033036Y041320D01*
X032988Y041369D01*
X032985Y039437D02*
X032985Y039243D01*
X032840Y039389D01*
X033130Y039389D01*
X033081Y039142D02*
X033130Y039094D01*
X033130Y038997D01*
X033081Y038949D01*
X032985Y038949D02*
X032936Y039045D01*
X032936Y039094D01*
X032985Y039142D01*
X033081Y039142D01*
X032985Y038949D02*
X032840Y038949D01*
X032840Y039142D01*
X032888Y038848D02*
X032840Y038799D01*
X032840Y038702D01*
X032888Y038654D01*
X033081Y038654D01*
X033130Y038702D01*
X033130Y038799D01*
X033081Y038848D01*
X033371Y037568D02*
X033661Y037568D01*
X033661Y037472D02*
X033661Y037665D01*
X033468Y037472D02*
X033371Y037568D01*
X033371Y037371D02*
X033419Y037274D01*
X033516Y037177D01*
X033516Y037322D01*
X033565Y037371D01*
X033613Y037371D01*
X033661Y037322D01*
X033661Y037225D01*
X033613Y037177D01*
X033516Y037177D01*
X033419Y037076D02*
X033371Y037028D01*
X033371Y036931D01*
X033419Y036882D01*
X033613Y036882D01*
X033661Y036931D01*
X033661Y037028D01*
X033613Y037076D01*
X032736Y036259D02*
X032688Y036308D01*
X032639Y036308D01*
X032591Y036259D01*
X032591Y036114D01*
X032688Y036114D01*
X032736Y036162D01*
X032736Y036259D01*
X032591Y036114D02*
X032494Y036211D01*
X032446Y036308D01*
X032446Y036013D02*
X032688Y036013D01*
X032736Y035965D01*
X032736Y035868D01*
X032688Y035819D01*
X032446Y035819D01*
X032067Y035452D02*
X032067Y035355D01*
X032018Y035306D01*
X032067Y035205D02*
X032067Y035012D01*
X031873Y035205D01*
X031825Y035205D01*
X031777Y035157D01*
X031777Y035060D01*
X031825Y035012D01*
X031825Y034911D02*
X031922Y034911D01*
X031970Y034862D01*
X031970Y034717D01*
X031970Y034814D02*
X032067Y034911D01*
X032067Y034717D02*
X031777Y034717D01*
X031777Y034862D01*
X031825Y034911D01*
X031825Y035306D02*
X031777Y035355D01*
X031777Y035452D01*
X031825Y035500D01*
X031873Y035500D01*
X031922Y035452D01*
X031970Y035500D01*
X032018Y035500D01*
X032067Y035452D01*
X031922Y035452D02*
X031922Y035403D01*
X031704Y035859D02*
X031752Y035907D01*
X031752Y036004D01*
X031704Y036052D01*
X031704Y036153D02*
X031752Y036202D01*
X031752Y036299D01*
X031704Y036347D01*
X031655Y036347D01*
X031607Y036299D01*
X031607Y036250D01*
X031607Y036299D02*
X031558Y036347D01*
X031510Y036347D01*
X031462Y036299D01*
X031462Y036202D01*
X031510Y036153D01*
X031510Y036052D02*
X031462Y036004D01*
X031462Y035907D01*
X031510Y035859D01*
X031704Y035859D01*
X031704Y036448D02*
X031752Y036496D01*
X031752Y036593D01*
X031704Y036642D01*
X031655Y036642D01*
X031607Y036593D01*
X031607Y036448D01*
X031704Y036448D01*
X031607Y036448D02*
X031510Y036545D01*
X031462Y036642D01*
X031777Y036705D02*
X031777Y036850D01*
X031825Y036899D01*
X031922Y036899D01*
X031970Y036850D01*
X031970Y036705D01*
X032067Y036705D02*
X031777Y036705D01*
X031970Y036802D02*
X032067Y036899D01*
X031922Y037000D02*
X031922Y037193D01*
X032018Y037295D02*
X032067Y037343D01*
X032067Y037440D01*
X032018Y037488D01*
X031970Y037488D01*
X031922Y037440D01*
X031922Y037391D01*
X031922Y037440D02*
X031873Y037488D01*
X031825Y037488D01*
X031777Y037440D01*
X031777Y037343D01*
X031825Y037295D01*
X031777Y037145D02*
X031922Y037000D01*
X032067Y037145D02*
X031777Y037145D01*
X030837Y035402D02*
X030644Y035402D01*
X030596Y035354D01*
X030596Y035257D01*
X030644Y035209D01*
X030692Y035209D01*
X030741Y035257D01*
X030741Y035402D01*
X030837Y035402D02*
X030886Y035354D01*
X030886Y035257D01*
X030837Y035209D01*
X030886Y035107D02*
X030789Y035011D01*
X030789Y035059D02*
X030789Y034914D01*
X030886Y034914D02*
X030596Y034914D01*
X030596Y035059D01*
X030644Y035107D01*
X030741Y035107D01*
X030789Y035059D01*
X029122Y033231D02*
X029122Y033182D01*
X028928Y032989D01*
X028928Y032940D01*
X028779Y032940D02*
X028779Y033231D01*
X028634Y033086D01*
X028827Y033086D01*
X028928Y033231D02*
X029122Y033231D01*
X028532Y033182D02*
X028484Y033231D01*
X028387Y033231D01*
X028339Y033182D01*
X028339Y032989D01*
X028387Y032940D01*
X028484Y032940D01*
X028532Y032989D01*
X028600Y030952D02*
X028648Y030904D01*
X028648Y030855D01*
X028600Y030807D01*
X028455Y030807D01*
X028600Y030807D02*
X028648Y030759D01*
X028648Y030710D01*
X028600Y030662D01*
X028455Y030662D01*
X028455Y030952D01*
X028600Y030952D01*
X028749Y030904D02*
X028798Y030952D01*
X028894Y030952D01*
X028943Y030904D01*
X028943Y030855D01*
X028749Y030662D01*
X028943Y030662D01*
X029341Y030730D02*
X029486Y030584D01*
X029486Y030778D01*
X029583Y030879D02*
X029631Y030927D01*
X029631Y031024D01*
X029583Y031073D01*
X029534Y031073D01*
X029486Y031024D01*
X029486Y030976D01*
X029486Y031024D02*
X029437Y031073D01*
X029389Y031073D01*
X029341Y031024D01*
X029341Y030927D01*
X029389Y030879D01*
X029341Y030730D02*
X029631Y030730D01*
X029583Y030483D02*
X029631Y030435D01*
X029631Y030338D01*
X029583Y030290D01*
X029389Y030290D01*
X029341Y030338D01*
X029341Y030435D01*
X029389Y030483D01*
X029980Y029695D02*
X030028Y029695D01*
X030076Y029646D01*
X030076Y029550D01*
X030028Y029501D01*
X029980Y029501D01*
X029931Y029550D01*
X029931Y029646D01*
X029980Y029695D01*
X030076Y029646D02*
X030125Y029695D01*
X030173Y029695D01*
X030222Y029646D01*
X030222Y029550D01*
X030173Y029501D01*
X030125Y029501D01*
X030076Y029550D01*
X030076Y029400D02*
X030076Y029207D01*
X029931Y029352D01*
X030222Y029352D01*
X030222Y029105D02*
X030125Y029009D01*
X030125Y029057D02*
X030125Y028912D01*
X030222Y028912D02*
X029931Y028912D01*
X029931Y029057D01*
X029980Y029105D01*
X030076Y029105D01*
X030125Y029057D01*
X030443Y031195D02*
X030443Y031340D01*
X030491Y031389D01*
X030588Y031389D01*
X030637Y031340D01*
X030637Y031195D01*
X030733Y031195D02*
X030443Y031195D01*
X030637Y031292D02*
X030733Y031389D01*
X030588Y031490D02*
X030443Y031635D01*
X030733Y031635D01*
X030588Y031683D02*
X030588Y031490D01*
X030540Y031785D02*
X030588Y031833D01*
X030588Y031978D01*
X030685Y031978D02*
X030491Y031978D01*
X030443Y031930D01*
X030443Y031833D01*
X030491Y031785D01*
X030540Y031785D01*
X030685Y031785D02*
X030733Y031833D01*
X030733Y031930D01*
X030685Y031978D01*
X032834Y029443D02*
X032786Y029395D01*
X032786Y029201D01*
X032834Y029153D01*
X032931Y029153D01*
X032979Y029201D01*
X033080Y029298D02*
X033274Y029298D01*
X033375Y029298D02*
X033569Y029298D01*
X033520Y029153D02*
X033520Y029443D01*
X033375Y029298D01*
X033226Y029153D02*
X033226Y029443D01*
X033080Y029298D01*
X032979Y029395D02*
X032931Y029443D01*
X032834Y029443D01*
X033829Y030819D02*
X033829Y031110D01*
X034023Y031110D01*
X034124Y031110D02*
X034269Y031110D01*
X034317Y031061D01*
X034317Y031013D01*
X034269Y030965D01*
X034124Y030965D01*
X034124Y031110D02*
X034124Y030819D01*
X034269Y030819D01*
X034317Y030868D01*
X034317Y030916D01*
X034269Y030965D01*
X034418Y031013D02*
X034515Y031110D01*
X034515Y030819D01*
X034418Y030819D02*
X034612Y030819D01*
X033926Y030965D02*
X033829Y030965D01*
X033738Y031528D02*
X033786Y031576D01*
X033738Y031528D02*
X033641Y031528D01*
X033593Y031576D01*
X033593Y031770D01*
X033641Y031818D01*
X033738Y031818D01*
X033786Y031770D01*
X033888Y031673D02*
X034081Y031673D01*
X034182Y031770D02*
X034231Y031818D01*
X034327Y031818D01*
X034376Y031770D01*
X034376Y031722D01*
X034182Y031528D01*
X034376Y031528D01*
X034033Y031528D02*
X034033Y031818D01*
X033888Y031673D01*
X035177Y033378D02*
X035273Y033378D01*
X035322Y033427D01*
X035322Y033669D01*
X035423Y033669D02*
X035617Y033669D01*
X035617Y033620D01*
X035423Y033427D01*
X035423Y033378D01*
X035177Y033378D02*
X035128Y033427D01*
X035128Y033669D01*
X036191Y033679D02*
X036191Y033486D01*
X036240Y033438D01*
X036336Y033438D01*
X036385Y033486D01*
X036486Y033486D02*
X036534Y033438D01*
X036631Y033438D01*
X036680Y033486D01*
X036680Y033534D01*
X036631Y033583D01*
X036583Y033583D01*
X036631Y033583D02*
X036680Y033631D01*
X036680Y033679D01*
X036631Y033728D01*
X036534Y033728D01*
X036486Y033679D01*
X036385Y033679D02*
X036336Y033728D01*
X036240Y033728D01*
X036191Y033679D01*
X036781Y033679D02*
X036829Y033728D01*
X036926Y033728D01*
X036974Y033679D01*
X036974Y033631D01*
X036926Y033583D01*
X036829Y033583D01*
X036781Y033631D01*
X036781Y033679D01*
X036829Y033583D02*
X036781Y033534D01*
X036781Y033486D01*
X036829Y033438D01*
X036926Y033438D01*
X036974Y033486D01*
X036974Y033534D01*
X036926Y033583D01*
X036270Y034914D02*
X036319Y034962D01*
X036319Y035059D01*
X036270Y035107D01*
X036270Y035209D02*
X036319Y035257D01*
X036319Y035354D01*
X036270Y035402D01*
X036174Y035402D01*
X036125Y035354D01*
X036125Y035305D01*
X036174Y035209D01*
X036029Y035209D01*
X036029Y035402D01*
X036077Y035503D02*
X036029Y035552D01*
X036029Y035648D01*
X036077Y035697D01*
X036270Y035503D01*
X036319Y035552D01*
X036319Y035648D01*
X036270Y035697D01*
X036077Y035697D01*
X036077Y035503D02*
X036270Y035503D01*
X036077Y035107D02*
X036029Y035059D01*
X036029Y034962D01*
X036077Y034914D01*
X036270Y034914D01*
X035236Y035080D02*
X035236Y035177D01*
X035188Y035226D01*
X035091Y035327D02*
X035091Y035520D01*
X035043Y035621D02*
X034946Y035718D01*
X035236Y035718D01*
X035236Y035621D02*
X035236Y035815D01*
X035236Y035472D02*
X034946Y035472D01*
X035091Y035327D01*
X034994Y035226D02*
X034946Y035177D01*
X034946Y035080D01*
X034994Y035032D01*
X035188Y035032D01*
X035236Y035080D01*
X034823Y036686D02*
X034533Y036686D01*
X034533Y036831D01*
X034581Y036879D01*
X034678Y036879D01*
X034726Y036831D01*
X034726Y036686D01*
X034726Y036782D02*
X034823Y036879D01*
X034678Y036980D02*
X034678Y037174D01*
X034678Y037275D02*
X034629Y037372D01*
X034629Y037420D01*
X034678Y037468D01*
X034774Y037468D01*
X034823Y037420D01*
X034823Y037323D01*
X034774Y037275D01*
X034678Y037275D02*
X034533Y037275D01*
X034533Y037468D01*
X034533Y037125D02*
X034678Y036980D01*
X034823Y037125D02*
X034533Y037125D01*
X034808Y038221D02*
X034808Y038366D01*
X034856Y038415D01*
X034953Y038415D01*
X035002Y038366D01*
X035002Y038221D01*
X035098Y038221D02*
X034808Y038221D01*
X035002Y038318D02*
X035098Y038415D01*
X035098Y038516D02*
X034905Y038709D01*
X034856Y038709D01*
X034808Y038661D01*
X034808Y038564D01*
X034856Y038516D01*
X035098Y038516D02*
X035098Y038709D01*
X035050Y038810D02*
X035098Y038859D01*
X035098Y038955D01*
X035050Y039004D01*
X034856Y039004D01*
X034808Y038955D01*
X034808Y038859D01*
X034856Y038810D01*
X034905Y038810D01*
X034953Y038859D01*
X034953Y039004D01*
X035792Y039094D02*
X035937Y038949D01*
X035937Y039142D01*
X035889Y039243D02*
X035792Y039340D01*
X036083Y039340D01*
X036083Y039243D02*
X036083Y039437D01*
X036083Y039094D02*
X035792Y039094D01*
X035841Y038848D02*
X035937Y038848D01*
X035986Y038799D01*
X035986Y038654D01*
X036083Y038654D02*
X035792Y038654D01*
X035792Y038799D01*
X035841Y038848D01*
X035986Y038751D02*
X036083Y038848D01*
X036777Y038839D02*
X036777Y038742D01*
X036825Y038693D01*
X037018Y038693D01*
X037067Y038742D01*
X037067Y038839D01*
X037018Y038887D01*
X037018Y038988D02*
X037067Y039036D01*
X037067Y039133D01*
X037018Y039182D01*
X036970Y039182D01*
X036922Y039133D01*
X036922Y039085D01*
X036922Y039133D02*
X036873Y039182D01*
X036825Y039182D01*
X036777Y039133D01*
X036777Y039036D01*
X036825Y038988D01*
X036825Y038887D02*
X036777Y038839D01*
X036825Y039283D02*
X036777Y039331D01*
X036777Y039428D01*
X036825Y039476D01*
X036873Y039476D01*
X036922Y039428D01*
X036970Y039476D01*
X037018Y039476D01*
X037067Y039428D01*
X037067Y039331D01*
X037018Y039283D01*
X036922Y039380D02*
X036922Y039428D01*
X036864Y040032D02*
X037058Y040032D01*
X037106Y040080D01*
X037106Y040177D01*
X037058Y040226D01*
X037058Y040327D02*
X037106Y040375D01*
X037106Y040472D01*
X037058Y040520D01*
X036961Y040520D01*
X036913Y040472D01*
X036913Y040423D01*
X036961Y040327D01*
X036816Y040327D01*
X036816Y040520D01*
X036864Y040621D02*
X036913Y040621D01*
X036961Y040670D01*
X036961Y040766D01*
X037009Y040815D01*
X037058Y040815D01*
X037106Y040766D01*
X037106Y040670D01*
X037058Y040621D01*
X037009Y040621D01*
X036961Y040670D01*
X036961Y040766D02*
X036913Y040815D01*
X036864Y040815D01*
X036816Y040766D01*
X036816Y040670D01*
X036864Y040621D01*
X036864Y040226D02*
X036816Y040177D01*
X036816Y040080D01*
X036864Y040032D01*
X036004Y040032D02*
X035714Y040032D01*
X035714Y040177D01*
X035762Y040226D01*
X035859Y040226D01*
X035907Y040177D01*
X035907Y040032D01*
X035907Y040129D02*
X036004Y040226D01*
X035859Y040327D02*
X035859Y040520D01*
X035955Y040621D02*
X035762Y040815D01*
X035955Y040815D01*
X036004Y040766D01*
X036004Y040670D01*
X035955Y040621D01*
X035762Y040621D01*
X035714Y040670D01*
X035714Y040766D01*
X035762Y040815D01*
X035714Y040472D02*
X035859Y040327D01*
X036004Y040472D02*
X035714Y040472D01*
X035157Y040494D02*
X035157Y040591D01*
X035109Y040639D01*
X035109Y040740D02*
X035157Y040788D01*
X035157Y040885D01*
X035109Y040934D01*
X035061Y040934D01*
X035012Y040885D01*
X035012Y040837D01*
X035012Y040885D02*
X034964Y040934D01*
X034916Y040934D01*
X034867Y040885D01*
X034867Y040788D01*
X034916Y040740D01*
X034916Y040639D02*
X034867Y040591D01*
X034867Y040494D01*
X034916Y040445D01*
X035109Y040445D01*
X035157Y040494D01*
X035012Y041035D02*
X035012Y041228D01*
X034867Y041180D02*
X035012Y041035D01*
X035157Y041180D02*
X034867Y041180D01*
X034066Y039417D02*
X034114Y039369D01*
X034114Y039272D01*
X034066Y039224D01*
X034066Y039123D02*
X034114Y039074D01*
X034114Y038977D01*
X034066Y038929D01*
X033969Y038929D02*
X033921Y039026D01*
X033921Y039074D01*
X033969Y039123D01*
X034066Y039123D01*
X033969Y038929D02*
X033824Y038929D01*
X033824Y039123D01*
X033872Y039224D02*
X033824Y039272D01*
X033824Y039369D01*
X033872Y039417D01*
X033921Y039417D01*
X033969Y039369D01*
X034017Y039417D01*
X034066Y039417D01*
X033969Y039369D02*
X033969Y039320D01*
X033969Y038828D02*
X034017Y038780D01*
X034017Y038634D01*
X034114Y038634D02*
X033824Y038634D01*
X033824Y038780D01*
X033872Y038828D01*
X033969Y038828D01*
X034017Y038731D02*
X034114Y038828D01*
X035714Y037420D02*
X035859Y037275D01*
X035859Y037468D01*
X036004Y037420D02*
X035714Y037420D01*
X035859Y037174D02*
X035859Y036980D01*
X035714Y037125D01*
X036004Y037125D01*
X036004Y036879D02*
X035907Y036782D01*
X035907Y036831D02*
X035907Y036686D01*
X036004Y036686D02*
X035714Y036686D01*
X035714Y036831D01*
X035762Y036879D01*
X035859Y036879D01*
X035907Y036831D01*
X035883Y044953D02*
X035786Y044953D01*
X035738Y045002D01*
X035738Y045098D02*
X035835Y045147D01*
X035883Y045147D01*
X035931Y045098D01*
X035931Y045002D01*
X035883Y044953D01*
X036033Y045002D02*
X036081Y044953D01*
X036178Y044953D01*
X036226Y045002D01*
X036226Y045195D01*
X036178Y045244D01*
X036081Y045244D01*
X036033Y045195D01*
X036033Y045147D01*
X036081Y045098D01*
X036226Y045098D01*
X035931Y045244D02*
X035738Y045244D01*
X035738Y045098D01*
X035637Y045002D02*
X035588Y044953D01*
X035492Y044953D01*
X035443Y045002D01*
X035443Y045195D01*
X035492Y045244D01*
X035588Y045244D01*
X035637Y045195D01*
X033733Y045297D02*
X033733Y045394D01*
X033685Y045442D01*
X033685Y045543D02*
X033733Y045592D01*
X033733Y045688D01*
X033685Y045737D01*
X033636Y045737D01*
X033588Y045688D01*
X033588Y045543D01*
X033685Y045543D01*
X033588Y045543D02*
X033491Y045640D01*
X033443Y045737D01*
X033588Y045838D02*
X033588Y045983D01*
X033636Y046031D01*
X033685Y046031D01*
X033733Y045983D01*
X033733Y045886D01*
X033685Y045838D01*
X033588Y045838D01*
X033491Y045935D01*
X033443Y046031D01*
X033491Y045442D02*
X033443Y045394D01*
X033443Y045297D01*
X033491Y045249D01*
X033685Y045249D01*
X033733Y045297D01*
X032670Y045315D02*
X032622Y045363D01*
X032670Y045315D02*
X032670Y045218D01*
X032622Y045170D01*
X032428Y045170D01*
X032380Y045218D01*
X032380Y045315D01*
X032428Y045363D01*
X032525Y045464D02*
X032525Y045610D01*
X032573Y045658D01*
X032622Y045658D01*
X032670Y045610D01*
X032670Y045513D01*
X032622Y045464D01*
X032525Y045464D01*
X032428Y045561D01*
X032380Y045658D01*
X032380Y045759D02*
X032525Y045759D01*
X032477Y045856D01*
X032477Y045904D01*
X032525Y045953D01*
X032622Y045953D01*
X032670Y045904D01*
X032670Y045808D01*
X032622Y045759D01*
X032380Y045759D02*
X032380Y045953D01*
X032314Y044767D02*
X032217Y044767D01*
X032266Y044767D02*
X032266Y044525D01*
X032217Y044477D01*
X032169Y044477D01*
X032120Y044525D01*
X032415Y044525D02*
X032464Y044477D01*
X032560Y044477D01*
X032609Y044525D01*
X032609Y044574D01*
X032560Y044622D01*
X032512Y044622D01*
X032560Y044622D02*
X032609Y044670D01*
X032609Y044719D01*
X032560Y044767D01*
X032464Y044767D01*
X032415Y044719D01*
X032054Y046830D02*
X032054Y047121D01*
X031909Y046975D01*
X032102Y046975D01*
X031807Y046927D02*
X031759Y046975D01*
X031614Y046975D01*
X031614Y046879D01*
X031662Y046830D01*
X031759Y046830D01*
X031807Y046879D01*
X031807Y046927D01*
X031711Y047072D02*
X031614Y046975D01*
X031711Y047072D02*
X031807Y047121D01*
X031513Y047072D02*
X031464Y047121D01*
X031368Y047121D01*
X031319Y047072D01*
X031319Y046879D01*
X031368Y046830D01*
X031464Y046830D01*
X031513Y046879D01*
X029692Y048897D02*
X029595Y048897D01*
X029546Y048946D01*
X029546Y049042D02*
X029643Y049091D01*
X029692Y049091D01*
X029740Y049042D01*
X029740Y048946D01*
X029692Y048897D01*
X029546Y049042D02*
X029546Y049187D01*
X029740Y049187D01*
X029445Y049187D02*
X029252Y049187D01*
X029252Y049042D01*
X029349Y049091D01*
X029397Y049091D01*
X029445Y049042D01*
X029445Y048946D01*
X029397Y048897D01*
X029300Y048897D01*
X029252Y048946D01*
X029151Y048897D02*
X029054Y048994D01*
X029102Y048994D02*
X028957Y048994D01*
X028957Y048897D02*
X028957Y049187D01*
X029102Y049187D01*
X029151Y049139D01*
X029151Y049042D01*
X029102Y048994D01*
X029151Y049881D02*
X029054Y049978D01*
X029102Y049978D02*
X028957Y049978D01*
X028957Y049881D02*
X028957Y050172D01*
X029102Y050172D01*
X029151Y050123D01*
X029151Y050027D01*
X029102Y049978D01*
X029252Y049930D02*
X029300Y049881D01*
X029397Y049881D01*
X029445Y049930D01*
X029445Y050027D01*
X029397Y050075D01*
X029349Y050075D01*
X029252Y050027D01*
X029252Y050172D01*
X029445Y050172D01*
X029546Y050027D02*
X029740Y050027D01*
X029692Y050172D02*
X029546Y050027D01*
X029692Y050172D02*
X029692Y049881D01*
X030168Y051016D02*
X030168Y051307D01*
X030313Y051307D01*
X030361Y051258D01*
X030361Y051161D01*
X030313Y051113D01*
X030168Y051113D01*
X030264Y051113D02*
X030361Y051016D01*
X030462Y051065D02*
X030511Y051016D01*
X030608Y051016D01*
X030656Y051065D01*
X030656Y051113D01*
X030608Y051161D01*
X030462Y051161D01*
X030462Y051065D01*
X030462Y051161D02*
X030559Y051258D01*
X030656Y051307D01*
X030618Y051784D02*
X030618Y052074D01*
X030521Y051978D01*
X030420Y052026D02*
X030372Y052074D01*
X030275Y052074D01*
X030227Y052026D01*
X030227Y051832D01*
X030275Y051784D01*
X030372Y051784D01*
X030420Y051832D01*
X030521Y051784D02*
X030715Y051784D01*
X030816Y051832D02*
X030864Y051784D01*
X030961Y051784D01*
X031010Y051832D01*
X031010Y051929D01*
X030961Y051978D01*
X030913Y051978D01*
X030816Y051929D01*
X030816Y052074D01*
X031010Y052074D01*
X032139Y052767D02*
X032188Y052719D01*
X032381Y052719D01*
X032429Y052767D01*
X032429Y052864D01*
X032381Y052913D01*
X032381Y053014D02*
X032429Y053062D01*
X032429Y053159D01*
X032381Y053207D01*
X032284Y053207D01*
X032236Y053159D01*
X032236Y053110D01*
X032284Y053014D01*
X032139Y053014D01*
X032139Y053207D01*
X032139Y053308D02*
X032139Y053502D01*
X032188Y053502D01*
X032381Y053308D01*
X032429Y053308D01*
X032188Y052913D02*
X032139Y052864D01*
X032139Y052767D01*
X033226Y052775D02*
X033226Y052678D01*
X033275Y052630D01*
X033275Y052529D02*
X033372Y052529D01*
X033420Y052480D01*
X033420Y052335D01*
X033517Y052335D02*
X033226Y052335D01*
X033226Y052480D01*
X033275Y052529D01*
X033420Y052432D02*
X033517Y052529D01*
X033517Y052630D02*
X033323Y052823D01*
X033275Y052823D01*
X033226Y052775D01*
X033275Y052924D02*
X033226Y052973D01*
X033226Y053070D01*
X033275Y053118D01*
X033323Y053118D01*
X033517Y052924D01*
X033517Y053118D01*
X033517Y052823D02*
X033517Y052630D01*
X033681Y051936D02*
X033632Y051888D01*
X033632Y051695D01*
X033681Y051646D01*
X033777Y051646D01*
X033826Y051695D01*
X033927Y051695D02*
X033975Y051646D01*
X034072Y051646D01*
X034120Y051695D01*
X034120Y051743D01*
X034072Y051791D01*
X033927Y051791D01*
X033927Y051695D01*
X033927Y051791D02*
X034024Y051888D01*
X034120Y051936D01*
X034222Y051888D02*
X034270Y051936D01*
X034367Y051936D01*
X034415Y051888D01*
X034222Y051695D01*
X034270Y051646D01*
X034367Y051646D01*
X034415Y051695D01*
X034415Y051888D01*
X034222Y051888D02*
X034222Y051695D01*
X033826Y051888D02*
X033777Y051936D01*
X033681Y051936D01*
X034533Y052788D02*
X034533Y052933D01*
X034581Y052981D01*
X034678Y052981D01*
X034726Y052933D01*
X034726Y052788D01*
X034726Y052885D02*
X034823Y052981D01*
X034774Y053083D02*
X034823Y053131D01*
X034823Y053228D01*
X034774Y053276D01*
X034678Y053276D01*
X034629Y053228D01*
X034629Y053179D01*
X034678Y053083D01*
X034533Y053083D01*
X034533Y053276D01*
X034581Y053377D02*
X034533Y053426D01*
X034533Y053522D01*
X034581Y053571D01*
X034774Y053377D01*
X034823Y053426D01*
X034823Y053522D01*
X034774Y053571D01*
X034581Y053571D01*
X034581Y053377D02*
X034774Y053377D01*
X034823Y052788D02*
X034533Y052788D01*
X035832Y052834D02*
X035977Y052689D01*
X035977Y052882D01*
X036074Y052984D02*
X035880Y053177D01*
X036074Y053177D01*
X036122Y053129D01*
X036122Y053032D01*
X036074Y052984D01*
X035880Y052984D01*
X035832Y053032D01*
X035832Y053129D01*
X035880Y053177D01*
X035832Y052834D02*
X036122Y052834D01*
X036074Y052588D02*
X036122Y052539D01*
X036122Y052443D01*
X036074Y052394D01*
X035880Y052394D01*
X035832Y052443D01*
X035832Y052539D01*
X035880Y052588D01*
X035292Y051051D02*
X035195Y051051D01*
X035147Y051002D01*
X035147Y050954D01*
X035195Y050906D01*
X035340Y050906D01*
X035340Y051002D02*
X035292Y051051D01*
X035340Y051002D02*
X035340Y050809D01*
X035292Y050760D01*
X035195Y050760D01*
X035147Y050809D01*
X035046Y050809D02*
X034997Y050760D01*
X034901Y050760D01*
X034852Y050809D01*
X034751Y050809D02*
X034703Y050760D01*
X034606Y050760D01*
X034557Y050809D01*
X034557Y051002D01*
X034606Y051051D01*
X034703Y051051D01*
X034751Y051002D01*
X034852Y051002D02*
X034901Y051051D01*
X034997Y051051D01*
X035046Y051002D01*
X035046Y050954D01*
X034997Y050906D01*
X035046Y050857D01*
X035046Y050809D01*
X034997Y050906D02*
X034949Y050906D01*
X031231Y054599D02*
X031279Y054647D01*
X031279Y054744D01*
X031231Y054792D01*
X030989Y054792D01*
X031038Y054894D02*
X031086Y054894D01*
X031134Y054942D01*
X031134Y055039D01*
X031183Y055087D01*
X031231Y055087D01*
X031279Y055039D01*
X031279Y054942D01*
X031231Y054894D01*
X031183Y054894D01*
X031134Y054942D01*
X031134Y055039D02*
X031086Y055087D01*
X031038Y055087D01*
X030989Y055039D01*
X030989Y054942D01*
X031038Y054894D01*
X030989Y054599D02*
X031231Y054599D01*
X030567Y054086D02*
X030567Y053796D01*
X030470Y053796D02*
X030664Y053796D01*
X030470Y053989D02*
X030567Y054086D01*
X030369Y054086D02*
X030272Y054086D01*
X030321Y054086D02*
X030321Y053844D01*
X030272Y053796D01*
X030224Y053796D01*
X030176Y053844D01*
X028549Y053857D02*
X028549Y053808D01*
X028501Y053760D01*
X028549Y053711D01*
X028549Y053663D01*
X028501Y053615D01*
X028404Y053615D01*
X028355Y053663D01*
X028254Y053663D02*
X028206Y053615D01*
X028109Y053615D01*
X028061Y053663D01*
X028061Y053760D02*
X028158Y053808D01*
X028206Y053808D01*
X028254Y053760D01*
X028254Y053663D01*
X028061Y053760D02*
X028061Y053905D01*
X028254Y053905D01*
X028355Y053857D02*
X028404Y053905D01*
X028501Y053905D01*
X028549Y053857D01*
X028501Y053760D02*
X028452Y053760D01*
X028483Y053354D02*
X028434Y053305D01*
X028483Y053354D02*
X028579Y053354D01*
X028628Y053305D01*
X028628Y053257D01*
X028434Y053064D01*
X028628Y053064D01*
X028333Y053112D02*
X028285Y053064D01*
X028188Y053064D01*
X028140Y053112D01*
X028140Y053209D02*
X028236Y053257D01*
X028285Y053257D01*
X028333Y053209D01*
X028333Y053112D01*
X028140Y053209D02*
X028140Y053354D01*
X028333Y053354D01*
X028038Y053305D02*
X027990Y053354D01*
X027893Y053354D01*
X027845Y053305D01*
X027845Y053112D01*
X027893Y053064D01*
X027990Y053064D01*
X028038Y053112D01*
X027911Y053615D02*
X027815Y053615D01*
X027766Y053663D01*
X027766Y053857D01*
X027815Y053905D01*
X027911Y053905D01*
X027960Y053857D01*
X027960Y053663D02*
X027911Y053615D01*
X027960Y054205D02*
X027863Y054302D01*
X027911Y054302D02*
X027766Y054302D01*
X027766Y054205D02*
X027766Y054496D01*
X027911Y054496D01*
X027960Y054447D01*
X027960Y054350D01*
X027911Y054302D01*
X028061Y054350D02*
X028254Y054350D01*
X028206Y054205D02*
X028206Y054496D01*
X028061Y054350D01*
X026780Y053610D02*
X026780Y053319D01*
X026876Y053319D02*
X026683Y053319D01*
X026582Y053368D02*
X026582Y053610D01*
X026683Y053513D02*
X026780Y053610D01*
X026582Y053368D02*
X026533Y053319D01*
X026437Y053319D01*
X026388Y053368D01*
X026388Y053610D01*
X025784Y054422D02*
X025687Y054422D01*
X025639Y054470D01*
X025832Y054664D01*
X025832Y054470D01*
X025784Y054422D01*
X025639Y054470D02*
X025639Y054664D01*
X025687Y054712D01*
X025784Y054712D01*
X025832Y054664D01*
X025538Y054664D02*
X025538Y054615D01*
X025489Y054567D01*
X025538Y054519D01*
X025538Y054470D01*
X025489Y054422D01*
X025393Y054422D01*
X025344Y054470D01*
X025243Y054422D02*
X025146Y054519D01*
X025195Y054519D02*
X025050Y054519D01*
X025050Y054422D02*
X025050Y054712D01*
X025195Y054712D01*
X025243Y054664D01*
X025243Y054567D01*
X025195Y054519D01*
X025344Y054664D02*
X025393Y054712D01*
X025489Y054712D01*
X025538Y054664D01*
X025489Y054567D02*
X025441Y054567D01*
X023777Y055780D02*
X023777Y056070D01*
X023632Y055925D01*
X023825Y055925D01*
X023531Y055828D02*
X023531Y056070D01*
X023337Y056070D02*
X023337Y055828D01*
X023385Y055780D01*
X023482Y055780D01*
X023531Y055828D01*
X022106Y055867D02*
X022058Y055818D01*
X022009Y055818D01*
X021961Y055867D01*
X021961Y055963D01*
X022009Y056012D01*
X022058Y056012D01*
X022106Y055963D01*
X022106Y055867D01*
X021961Y055867D02*
X021913Y055818D01*
X021864Y055818D01*
X021816Y055867D01*
X021816Y055963D01*
X021864Y056012D01*
X021913Y056012D01*
X021961Y055963D01*
X021913Y055717D02*
X021864Y055717D01*
X021816Y055669D01*
X021816Y055572D01*
X021864Y055524D01*
X021864Y055422D02*
X021961Y055422D01*
X022009Y055374D01*
X022009Y055229D01*
X022009Y055326D02*
X022106Y055422D01*
X022106Y055524D02*
X021913Y055717D01*
X022106Y055717D02*
X022106Y055524D01*
X021864Y055422D02*
X021816Y055374D01*
X021816Y055229D01*
X022106Y055229D01*
X021864Y054949D02*
X022058Y054755D01*
X022106Y054755D01*
X022106Y054654D02*
X022106Y054461D01*
X021913Y054654D01*
X021864Y054654D01*
X021816Y054606D01*
X021816Y054509D01*
X021864Y054461D01*
X021864Y054359D02*
X021961Y054359D01*
X022009Y054311D01*
X022009Y054166D01*
X022009Y054263D02*
X022106Y054359D01*
X022106Y054166D02*
X021816Y054166D01*
X021816Y054311D01*
X021864Y054359D01*
X021816Y054755D02*
X021816Y054949D01*
X021864Y054949D01*
X020709Y053955D02*
X020709Y053859D01*
X020660Y053810D01*
X020612Y053810D01*
X020563Y053859D01*
X020563Y053955D01*
X020612Y054004D01*
X020660Y054004D01*
X020709Y053955D01*
X020563Y053955D02*
X020515Y054004D01*
X020467Y054004D01*
X020418Y053955D01*
X020418Y053859D01*
X020467Y053810D01*
X020515Y053810D01*
X020563Y053859D01*
X020709Y053709D02*
X020709Y053516D01*
X020709Y053612D02*
X020418Y053612D01*
X020515Y053516D01*
X020467Y053415D02*
X020418Y053366D01*
X020418Y053269D01*
X020467Y053221D01*
X020660Y053221D01*
X020709Y053269D01*
X020709Y053366D01*
X020660Y053415D01*
X019921Y053445D02*
X019873Y053493D01*
X019921Y053445D02*
X019921Y053348D01*
X019873Y053300D01*
X019679Y053300D01*
X019631Y053348D01*
X019631Y053445D01*
X019679Y053493D01*
X019728Y053594D02*
X019631Y053691D01*
X019921Y053691D01*
X019921Y053594D02*
X019921Y053788D01*
X019873Y053889D02*
X019921Y053937D01*
X019921Y054034D01*
X019873Y054083D01*
X019679Y054083D01*
X019631Y054034D01*
X019631Y053937D01*
X019679Y053889D01*
X019728Y053889D01*
X019776Y053937D01*
X019776Y054083D01*
X019722Y054441D02*
X019771Y054490D01*
X019722Y054441D02*
X019626Y054441D01*
X019577Y054490D01*
X019577Y054683D01*
X019626Y054732D01*
X019722Y054732D01*
X019771Y054683D01*
X019872Y054635D02*
X019969Y054732D01*
X019969Y054441D01*
X020065Y054441D02*
X019872Y054441D01*
X020166Y054587D02*
X020360Y054587D01*
X020312Y054732D02*
X020166Y054587D01*
X020312Y054732D02*
X020312Y054441D01*
X020312Y055229D02*
X020215Y055229D01*
X020166Y055277D01*
X020360Y055471D01*
X020360Y055277D01*
X020312Y055229D01*
X020166Y055277D02*
X020166Y055471D01*
X020215Y055519D01*
X020312Y055519D01*
X020360Y055471D01*
X020065Y055471D02*
X020017Y055519D01*
X019920Y055519D01*
X019872Y055471D01*
X019771Y055471D02*
X019771Y055374D01*
X019722Y055326D01*
X019577Y055326D01*
X019674Y055326D02*
X019771Y055229D01*
X019872Y055229D02*
X020065Y055422D01*
X020065Y055471D01*
X020065Y055229D02*
X019872Y055229D01*
X019771Y055471D02*
X019722Y055519D01*
X019577Y055519D01*
X019577Y055229D01*
X019135Y055148D02*
X018844Y055148D01*
X018844Y055293D01*
X018893Y055341D01*
X018989Y055341D01*
X019038Y055293D01*
X019038Y055148D01*
X019038Y055244D02*
X019135Y055341D01*
X019135Y055442D02*
X018941Y055636D01*
X018893Y055636D01*
X018844Y055587D01*
X018844Y055491D01*
X018893Y055442D01*
X019135Y055442D02*
X019135Y055636D01*
X019086Y055737D02*
X019135Y055785D01*
X019135Y055882D01*
X019086Y055930D01*
X019038Y055930D01*
X018989Y055882D01*
X018989Y055737D01*
X019086Y055737D01*
X018989Y055737D02*
X018893Y055834D01*
X018844Y055930D01*
X018848Y057749D02*
X019042Y057942D01*
X019042Y057990D01*
X018993Y058039D01*
X018897Y058039D01*
X018848Y057990D01*
X018747Y057990D02*
X018747Y057894D01*
X018699Y057845D01*
X018554Y057845D01*
X018650Y057845D02*
X018747Y057749D01*
X018848Y057749D02*
X019042Y057749D01*
X019143Y057894D02*
X019336Y057894D01*
X019288Y058039D02*
X019143Y057894D01*
X019288Y057749D02*
X019288Y058039D01*
X018747Y057990D02*
X018699Y058039D01*
X018554Y058039D01*
X018554Y057749D01*
X018313Y057797D02*
X018264Y057749D01*
X018168Y057749D01*
X018119Y057797D01*
X018119Y057894D02*
X018216Y057942D01*
X018264Y057942D01*
X018313Y057894D01*
X018313Y057797D01*
X018119Y057894D02*
X018119Y058039D01*
X018313Y058039D01*
X018018Y057990D02*
X017970Y058039D01*
X017873Y058039D01*
X017825Y057990D01*
X017723Y057990D02*
X017723Y057894D01*
X017675Y057845D01*
X017530Y057845D01*
X017530Y057749D02*
X017530Y058039D01*
X017675Y058039D01*
X017723Y057990D01*
X017627Y057845D02*
X017723Y057749D01*
X017825Y057749D02*
X018018Y057942D01*
X018018Y057990D01*
X018018Y057749D02*
X017825Y057749D01*
X017231Y057990D02*
X017037Y057797D01*
X017037Y057749D01*
X016936Y057749D02*
X016839Y057845D01*
X016888Y057845D02*
X016743Y057845D01*
X016743Y057749D02*
X016743Y058039D01*
X016888Y058039D01*
X016936Y057990D01*
X016936Y057894D01*
X016888Y057845D01*
X017037Y058039D02*
X017231Y058039D01*
X017231Y057990D01*
X016443Y057990D02*
X016443Y057942D01*
X016395Y057894D01*
X016298Y057894D01*
X016250Y057942D01*
X016250Y057990D01*
X016298Y058039D01*
X016395Y058039D01*
X016443Y057990D01*
X016395Y057894D02*
X016443Y057845D01*
X016443Y057797D01*
X016395Y057749D01*
X016298Y057749D01*
X016250Y057797D01*
X016250Y057845D01*
X016298Y057894D01*
X016149Y057894D02*
X016100Y057845D01*
X015955Y057845D01*
X015955Y057749D02*
X015955Y058039D01*
X016100Y058039D01*
X016149Y057990D01*
X016149Y057894D01*
X016052Y057845D02*
X016149Y057749D01*
X015557Y057133D02*
X015460Y057085D01*
X015363Y056988D01*
X015508Y056988D01*
X015557Y056940D01*
X015557Y056891D01*
X015508Y056843D01*
X015412Y056843D01*
X015363Y056891D01*
X015363Y056988D01*
X015262Y056843D02*
X015069Y056843D01*
X015165Y056843D02*
X015165Y057133D01*
X015069Y057037D01*
X014968Y057085D02*
X014968Y056988D01*
X014919Y056940D01*
X014774Y056940D01*
X014774Y056843D02*
X014774Y057133D01*
X014919Y057133D01*
X014968Y057085D01*
X014494Y056988D02*
X014300Y056988D01*
X014445Y057133D01*
X014445Y056843D01*
X014199Y056843D02*
X014006Y056843D01*
X014102Y056843D02*
X014102Y057133D01*
X014006Y057037D01*
X013905Y057085D02*
X013905Y056988D01*
X013856Y056940D01*
X013711Y056940D01*
X013711Y056843D02*
X013711Y057133D01*
X013856Y057133D01*
X013905Y057085D01*
X014045Y058024D02*
X014239Y058024D01*
X014142Y058024D02*
X014142Y058314D01*
X014045Y058218D01*
X013944Y058266D02*
X013944Y058169D01*
X013896Y058121D01*
X013750Y058121D01*
X013750Y058024D02*
X013750Y058314D01*
X013896Y058314D01*
X013944Y058266D01*
X014340Y058266D02*
X014388Y058314D01*
X014485Y058314D01*
X014533Y058266D01*
X014533Y058218D01*
X014485Y058169D01*
X014533Y058121D01*
X014533Y058073D01*
X014485Y058024D01*
X014388Y058024D01*
X014340Y058073D01*
X014436Y058169D02*
X014485Y058169D01*
X014735Y058121D02*
X014880Y058121D01*
X014928Y058169D01*
X014928Y058266D01*
X014880Y058314D01*
X014735Y058314D01*
X014735Y058024D01*
X015029Y058024D02*
X015223Y058218D01*
X015223Y058266D01*
X015174Y058314D01*
X015078Y058314D01*
X015029Y058266D01*
X015029Y058024D02*
X015223Y058024D01*
X015324Y058073D02*
X015517Y058266D01*
X015517Y058073D01*
X015469Y058024D01*
X015372Y058024D01*
X015324Y058073D01*
X015324Y058266D01*
X015372Y058314D01*
X015469Y058314D01*
X015517Y058266D01*
X018278Y053275D02*
X018423Y053275D01*
X018471Y053227D01*
X018471Y053130D01*
X018423Y053082D01*
X018278Y053082D01*
X018375Y053082D02*
X018471Y052985D01*
X018573Y052985D02*
X018766Y052985D01*
X018669Y052985D02*
X018669Y053275D01*
X018573Y053178D01*
X018867Y053178D02*
X018916Y053130D01*
X019061Y053130D01*
X019061Y053227D02*
X019012Y053275D01*
X018916Y053275D01*
X018867Y053227D01*
X018867Y053178D01*
X018867Y053033D02*
X018916Y052985D01*
X019012Y052985D01*
X019061Y053033D01*
X019061Y053227D01*
X018278Y053275D02*
X018278Y052985D01*
X019223Y051976D02*
X019368Y051976D01*
X019416Y051927D01*
X019416Y051831D01*
X019368Y051782D01*
X019223Y051782D01*
X019223Y051686D02*
X019223Y051976D01*
X019320Y051782D02*
X019416Y051686D01*
X019518Y051734D02*
X019566Y051686D01*
X019663Y051686D01*
X019711Y051734D01*
X019711Y051831D01*
X019663Y051879D01*
X019614Y051879D01*
X019518Y051831D01*
X019518Y051976D01*
X019711Y051976D01*
X019812Y051831D02*
X019957Y051831D01*
X020006Y051782D01*
X020006Y051734D01*
X019957Y051686D01*
X019861Y051686D01*
X019812Y051734D01*
X019812Y051831D01*
X019909Y051927D01*
X020006Y051976D01*
X019791Y051543D02*
X019791Y051253D01*
X019694Y051253D02*
X019888Y051253D01*
X019694Y051446D02*
X019791Y051543D01*
X019593Y051543D02*
X019399Y051543D01*
X019399Y051398D01*
X019496Y051446D01*
X019545Y051446D01*
X019593Y051398D01*
X019593Y051301D01*
X019545Y051253D01*
X019448Y051253D01*
X019399Y051301D01*
X019298Y051301D02*
X019250Y051253D01*
X019153Y051253D01*
X019105Y051301D01*
X019105Y051494D01*
X019153Y051543D01*
X019250Y051543D01*
X019298Y051494D01*
X019302Y050755D02*
X019447Y050755D01*
X019495Y050707D01*
X019495Y050610D01*
X019447Y050562D01*
X019302Y050562D01*
X019398Y050562D02*
X019495Y050465D01*
X019596Y050513D02*
X019645Y050465D01*
X019741Y050465D01*
X019790Y050513D01*
X019790Y050562D01*
X019741Y050610D01*
X019693Y050610D01*
X019741Y050610D02*
X019790Y050659D01*
X019790Y050707D01*
X019741Y050755D01*
X019645Y050755D01*
X019596Y050707D01*
X019302Y050755D02*
X019302Y050465D01*
X019250Y049968D02*
X019298Y049920D01*
X019298Y049823D01*
X019250Y049774D01*
X019105Y049774D01*
X019105Y049678D02*
X019105Y049968D01*
X019250Y049968D01*
X019399Y049920D02*
X019448Y049968D01*
X019545Y049968D01*
X019593Y049920D01*
X019593Y049871D01*
X019399Y049678D01*
X019593Y049678D01*
X019298Y049678D02*
X019201Y049774D01*
X019781Y048966D02*
X019829Y048966D01*
X020023Y048773D01*
X020071Y048773D01*
X020023Y048672D02*
X020071Y048623D01*
X020071Y048527D01*
X020023Y048478D01*
X019926Y048478D02*
X019877Y048575D01*
X019877Y048623D01*
X019926Y048672D01*
X020023Y048672D01*
X019926Y048478D02*
X019781Y048478D01*
X019781Y048672D01*
X019781Y048773D02*
X019781Y048966D01*
X019829Y048377D02*
X019781Y048329D01*
X019781Y048184D01*
X020071Y048184D01*
X019974Y048184D02*
X019974Y048329D01*
X019926Y048377D01*
X019829Y048377D01*
X019974Y048280D02*
X020071Y048377D01*
X020084Y047409D02*
X020084Y047361D01*
X019891Y047167D01*
X019891Y047119D01*
X019790Y047119D02*
X019596Y047119D01*
X019693Y047119D02*
X019693Y047409D01*
X019596Y047312D01*
X019495Y047361D02*
X019447Y047409D01*
X019350Y047409D01*
X019302Y047361D01*
X019302Y047167D01*
X019350Y047119D01*
X019447Y047119D01*
X019495Y047167D01*
X019407Y046976D02*
X019311Y046976D01*
X019262Y046927D01*
X019262Y046734D01*
X019311Y046686D01*
X019407Y046686D01*
X019456Y046734D01*
X019557Y046686D02*
X019750Y046686D01*
X019654Y046686D02*
X019654Y046976D01*
X019557Y046879D01*
X019456Y046927D02*
X019407Y046976D01*
X019852Y046831D02*
X019997Y046831D01*
X020045Y046782D01*
X020045Y046734D01*
X019997Y046686D01*
X019900Y046686D01*
X019852Y046734D01*
X019852Y046831D01*
X019948Y046927D01*
X020045Y046976D01*
X020084Y047409D02*
X019891Y047409D01*
X021048Y046259D02*
X021097Y046308D01*
X021145Y046308D01*
X021193Y046259D01*
X021242Y046308D01*
X021290Y046308D01*
X021339Y046259D01*
X021339Y046162D01*
X021290Y046114D01*
X021339Y046013D02*
X021242Y045916D01*
X021242Y045965D02*
X021242Y045819D01*
X021339Y045819D02*
X021048Y045819D01*
X021048Y045965D01*
X021097Y046013D01*
X021193Y046013D01*
X021242Y045965D01*
X021097Y046114D02*
X021048Y046162D01*
X021048Y046259D01*
X021193Y046259D02*
X021193Y046211D01*
X020922Y045703D02*
X020825Y045703D01*
X020777Y045655D01*
X020777Y045606D01*
X020825Y045558D01*
X020970Y045558D01*
X020970Y045461D02*
X020970Y045655D01*
X020922Y045703D01*
X020970Y045461D02*
X020922Y045413D01*
X020825Y045413D01*
X020777Y045461D01*
X020676Y045558D02*
X020482Y045558D01*
X020627Y045703D01*
X020627Y045413D01*
X020381Y045461D02*
X020333Y045413D01*
X020236Y045413D01*
X020187Y045461D01*
X020187Y045655D01*
X020236Y045703D01*
X020333Y045703D01*
X020381Y045655D01*
X020561Y044791D02*
X020707Y044791D01*
X020755Y044742D01*
X020755Y044646D01*
X020707Y044597D01*
X020561Y044597D01*
X020561Y044501D02*
X020561Y044791D01*
X020658Y044597D02*
X020755Y044501D01*
X020856Y044501D02*
X021050Y044501D01*
X020953Y044501D02*
X020953Y044791D01*
X020856Y044694D01*
X021151Y044791D02*
X021344Y044791D01*
X021344Y044742D01*
X021151Y044549D01*
X021151Y044501D01*
X021567Y044898D02*
X021616Y044850D01*
X021712Y044850D01*
X021761Y044898D01*
X021862Y044850D02*
X022055Y045043D01*
X022055Y045092D01*
X022007Y045140D01*
X021910Y045140D01*
X021862Y045092D01*
X021761Y045092D02*
X021712Y045140D01*
X021616Y045140D01*
X021567Y045092D01*
X021567Y044898D01*
X021862Y044850D02*
X022055Y044850D01*
X022157Y044995D02*
X022350Y044995D01*
X022302Y045140D02*
X022157Y044995D01*
X022302Y044850D02*
X022302Y045140D01*
X022222Y044141D02*
X022270Y044093D01*
X022270Y044044D01*
X022222Y043996D01*
X022270Y043948D01*
X022270Y043899D01*
X022222Y043851D01*
X022125Y043851D01*
X022077Y043899D01*
X021975Y043899D02*
X021927Y043851D01*
X021830Y043851D01*
X021782Y043899D01*
X021782Y044093D01*
X021830Y044141D01*
X021927Y044141D01*
X021975Y044093D01*
X022077Y044093D02*
X022125Y044141D01*
X022222Y044141D01*
X022222Y043996D02*
X022173Y043996D01*
X022845Y043433D02*
X023038Y043142D01*
X022845Y043142D02*
X023038Y043433D01*
X023140Y043433D02*
X023333Y043433D01*
X023236Y043433D02*
X023236Y043142D01*
X023434Y043142D02*
X023434Y043336D01*
X023531Y043433D01*
X023628Y043336D01*
X023628Y043142D01*
X023729Y043142D02*
X023922Y043142D01*
X024024Y043142D02*
X024217Y043142D01*
X024120Y043142D02*
X024120Y043433D01*
X024024Y043336D01*
X023729Y043433D02*
X023729Y043142D01*
X023628Y043287D02*
X023434Y043287D01*
X022704Y042857D02*
X022511Y042857D01*
X022511Y042711D01*
X022608Y042760D01*
X022656Y042760D01*
X022704Y042711D01*
X022704Y042615D01*
X022656Y042566D01*
X022559Y042566D01*
X022511Y042615D01*
X022410Y042615D02*
X022410Y042808D01*
X022361Y042857D01*
X022216Y042857D01*
X022216Y042566D01*
X022361Y042566D01*
X022410Y042615D01*
X022115Y042566D02*
X021922Y042566D01*
X021922Y042857D01*
X022115Y042857D01*
X022018Y042711D02*
X021922Y042711D01*
X021820Y042566D02*
X021627Y042566D01*
X021627Y042857D01*
X021071Y042729D02*
X021022Y042778D01*
X020925Y042778D01*
X020877Y042729D01*
X020776Y042778D02*
X020776Y042536D01*
X020727Y042488D01*
X020631Y042488D01*
X020582Y042536D01*
X020582Y042778D01*
X020877Y042488D02*
X021071Y042681D01*
X021071Y042729D01*
X021071Y042488D02*
X020877Y042488D01*
X021988Y040992D02*
X021939Y040943D01*
X021939Y040750D01*
X021988Y040701D01*
X022085Y040701D01*
X022133Y040750D01*
X022234Y040750D02*
X022282Y040701D01*
X022379Y040701D01*
X022428Y040750D01*
X022428Y040798D01*
X022379Y040846D01*
X022331Y040846D01*
X022379Y040846D02*
X022428Y040895D01*
X022428Y040943D01*
X022379Y040992D01*
X022282Y040992D01*
X022234Y040943D01*
X022133Y040943D02*
X022085Y040992D01*
X021988Y040992D01*
X021939Y040519D02*
X022085Y040519D01*
X022133Y040471D01*
X022133Y040374D01*
X022085Y040326D01*
X021939Y040326D01*
X021939Y040229D02*
X021939Y040519D01*
X022036Y040326D02*
X022133Y040229D01*
X022234Y040277D02*
X022282Y040229D01*
X022379Y040229D01*
X022428Y040277D01*
X022428Y040326D01*
X022379Y040374D01*
X022331Y040374D01*
X022379Y040374D02*
X022428Y040422D01*
X022428Y040471D01*
X022379Y040519D01*
X022282Y040519D01*
X022234Y040471D01*
X022529Y040374D02*
X022722Y040374D01*
X022674Y040229D02*
X022674Y040519D01*
X022529Y040374D01*
X022529Y040701D02*
X022722Y040701D01*
X022625Y040701D02*
X022625Y040992D01*
X022529Y040895D01*
X022439Y039732D02*
X022342Y039732D01*
X022294Y039683D01*
X022294Y039490D01*
X022342Y039441D01*
X022439Y039441D01*
X022487Y039490D01*
X022588Y039587D02*
X022782Y039587D01*
X022883Y039635D02*
X022883Y039683D01*
X022931Y039732D01*
X023028Y039732D01*
X023077Y039683D01*
X023077Y039635D01*
X023028Y039587D01*
X022931Y039587D01*
X022883Y039635D01*
X022931Y039587D02*
X022883Y039538D01*
X022883Y039490D01*
X022931Y039441D01*
X023028Y039441D01*
X023077Y039490D01*
X023077Y039538D01*
X023028Y039587D01*
X022733Y039732D02*
X022588Y039587D01*
X022487Y039683D02*
X022439Y039732D01*
X022733Y039732D02*
X022733Y039441D01*
X022840Y039141D02*
X022744Y039093D01*
X022647Y038996D01*
X022792Y038996D01*
X022840Y038948D01*
X022840Y038899D01*
X022792Y038851D01*
X022695Y038851D01*
X022647Y038899D01*
X022647Y038996D01*
X022546Y038948D02*
X022546Y038899D01*
X022497Y038851D01*
X022401Y038851D01*
X022352Y038899D01*
X022251Y038851D02*
X022154Y038948D01*
X022203Y038948D02*
X022057Y038948D01*
X022057Y038851D02*
X022057Y039141D01*
X022203Y039141D01*
X022251Y039093D01*
X022251Y038996D01*
X022203Y038948D01*
X022352Y039093D02*
X022401Y039141D01*
X022497Y039141D01*
X022546Y039093D01*
X022546Y039044D01*
X022497Y038996D01*
X022546Y038948D01*
X022497Y038996D02*
X022449Y038996D01*
X022497Y038551D02*
X022401Y038551D01*
X022352Y038502D01*
X022251Y038502D02*
X022203Y038551D01*
X022106Y038551D01*
X022057Y038502D01*
X022057Y038309D01*
X022106Y038260D01*
X022203Y038260D01*
X022251Y038309D01*
X022352Y038260D02*
X022546Y038454D01*
X022546Y038502D01*
X022497Y038551D01*
X022647Y038551D02*
X022840Y038551D01*
X022840Y038502D01*
X022647Y038309D01*
X022647Y038260D01*
X022546Y038260D02*
X022352Y038260D01*
X022401Y037960D02*
X022497Y037960D01*
X022546Y037912D01*
X022546Y037863D01*
X022497Y037815D01*
X022546Y037767D01*
X022546Y037718D01*
X022497Y037670D01*
X022401Y037670D01*
X022352Y037718D01*
X022251Y037670D02*
X022154Y037767D01*
X022203Y037767D02*
X022057Y037767D01*
X022057Y037670D02*
X022057Y037960D01*
X022203Y037960D01*
X022251Y037912D01*
X022251Y037815D01*
X022203Y037767D01*
X022352Y037912D02*
X022401Y037960D01*
X022449Y037815D02*
X022497Y037815D01*
X022647Y037815D02*
X022744Y037863D01*
X022792Y037863D01*
X022840Y037815D01*
X022840Y037718D01*
X022792Y037670D01*
X022695Y037670D01*
X022647Y037718D01*
X022647Y037815D02*
X022647Y037960D01*
X022840Y037960D01*
X024008Y041484D02*
X024008Y041774D01*
X024202Y041774D01*
X024303Y041774D02*
X024448Y041774D01*
X024496Y041726D01*
X024496Y041677D01*
X024448Y041629D01*
X024303Y041629D01*
X024303Y041484D02*
X024303Y041774D01*
X024448Y041629D02*
X024496Y041580D01*
X024496Y041532D01*
X024448Y041484D01*
X024303Y041484D01*
X024105Y041629D02*
X024008Y041629D01*
X024597Y041677D02*
X024597Y041726D01*
X024646Y041774D01*
X024743Y041774D01*
X024791Y041726D01*
X024791Y041677D01*
X024743Y041629D01*
X024646Y041629D01*
X024597Y041677D01*
X024646Y041629D02*
X024597Y041580D01*
X024597Y041532D01*
X024646Y041484D01*
X024743Y041484D01*
X024791Y041532D01*
X024791Y041580D01*
X024743Y041629D01*
X026073Y043969D02*
X026073Y044259D01*
X026267Y044259D01*
X026368Y044259D02*
X026513Y044259D01*
X026561Y044211D01*
X026561Y044163D01*
X026513Y044114D01*
X026368Y044114D01*
X026368Y043969D02*
X026513Y043969D01*
X026561Y044017D01*
X026561Y044066D01*
X026513Y044114D01*
X026663Y044017D02*
X026663Y043969D01*
X026663Y044017D02*
X026856Y044211D01*
X026856Y044259D01*
X026663Y044259D01*
X026368Y044259D02*
X026368Y043969D01*
X026170Y044114D02*
X026073Y044114D01*
X026014Y044363D02*
X026207Y044556D01*
X026207Y044605D01*
X026159Y044653D01*
X026062Y044653D01*
X026014Y044605D01*
X025912Y044605D02*
X025864Y044653D01*
X025767Y044653D01*
X025719Y044605D01*
X025719Y044411D01*
X025767Y044363D01*
X025864Y044363D01*
X025912Y044411D01*
X026014Y044363D02*
X026207Y044363D01*
X026189Y044796D02*
X026189Y045086D01*
X026092Y044989D01*
X025991Y044941D02*
X025943Y044893D01*
X025798Y044893D01*
X025894Y044893D02*
X025991Y044796D01*
X026092Y044796D02*
X026286Y044796D01*
X026387Y044844D02*
X026580Y045038D01*
X026580Y044844D01*
X026532Y044796D01*
X026435Y044796D01*
X026387Y044844D01*
X026387Y045038D01*
X026435Y045086D01*
X026532Y045086D01*
X026580Y045038D01*
X026762Y045057D02*
X026762Y044864D01*
X026811Y044815D01*
X026907Y044815D01*
X026956Y044864D01*
X027057Y044815D02*
X027250Y044815D01*
X027154Y044815D02*
X027154Y045106D01*
X027057Y045009D01*
X026956Y045057D02*
X026907Y045106D01*
X026811Y045106D01*
X026762Y045057D01*
X025991Y045038D02*
X025991Y044941D01*
X025991Y045038D02*
X025943Y045086D01*
X025798Y045086D01*
X025798Y044796D01*
X024828Y046056D02*
X024635Y046056D01*
X024828Y046249D01*
X024828Y046298D01*
X024780Y046346D01*
X024683Y046346D01*
X024635Y046298D01*
X024437Y046346D02*
X024437Y046056D01*
X024340Y046056D02*
X024534Y046056D01*
X024340Y046249D02*
X024437Y046346D01*
X024239Y046298D02*
X024191Y046346D01*
X024094Y046346D01*
X024046Y046298D01*
X024046Y046104D01*
X024094Y046056D01*
X024191Y046056D01*
X024239Y046104D01*
X024232Y046681D02*
X024280Y046729D01*
X024232Y046681D02*
X024135Y046681D01*
X024087Y046729D01*
X024087Y046922D01*
X024135Y046971D01*
X024232Y046971D01*
X024280Y046922D01*
X024382Y046874D02*
X024478Y046971D01*
X024478Y046681D01*
X024382Y046681D02*
X024575Y046681D01*
X024676Y046729D02*
X024725Y046681D01*
X024821Y046681D01*
X024870Y046729D01*
X024870Y046777D01*
X024821Y046826D01*
X024773Y046826D01*
X024821Y046826D02*
X024870Y046874D01*
X024870Y046922D01*
X024821Y046971D01*
X024725Y046971D01*
X024676Y046922D01*
X023352Y046870D02*
X023159Y046870D01*
X023304Y047015D01*
X023304Y046725D01*
X023057Y046725D02*
X022864Y046725D01*
X022961Y046725D02*
X022961Y047015D01*
X022864Y046918D01*
X022763Y046870D02*
X022714Y046822D01*
X022569Y046822D01*
X022569Y046725D02*
X022569Y047015D01*
X022714Y047015D01*
X022763Y046967D01*
X022763Y046870D01*
X022666Y046822D02*
X022763Y046725D01*
X022727Y046464D02*
X022872Y046464D01*
X022920Y046416D01*
X022920Y046319D01*
X022872Y046271D01*
X022727Y046271D01*
X022824Y046271D02*
X022920Y046174D01*
X023021Y046222D02*
X023070Y046174D01*
X023167Y046174D01*
X023215Y046222D01*
X023215Y046271D01*
X023167Y046319D01*
X023118Y046319D01*
X023167Y046319D02*
X023215Y046367D01*
X023215Y046416D01*
X023167Y046464D01*
X023070Y046464D01*
X023021Y046416D01*
X022727Y046464D02*
X022727Y046174D01*
X023316Y046174D02*
X023510Y046174D01*
X023413Y046174D02*
X023413Y046464D01*
X023316Y046367D01*
X026429Y047044D02*
X026478Y046995D01*
X026575Y046995D01*
X026623Y047044D01*
X026724Y046995D02*
X026918Y046995D01*
X026821Y046995D02*
X026821Y047286D01*
X026724Y047189D01*
X026623Y047237D02*
X026575Y047286D01*
X026478Y047286D01*
X026429Y047237D01*
X026429Y047044D01*
X027019Y046995D02*
X027212Y046995D01*
X027115Y046995D02*
X027115Y047286D01*
X027019Y047189D01*
X027579Y046840D02*
X027579Y046647D01*
X027628Y046599D01*
X027724Y046599D01*
X027773Y046647D01*
X027874Y046647D02*
X027922Y046599D01*
X028019Y046599D01*
X028067Y046647D01*
X028067Y046744D01*
X028019Y046792D01*
X027971Y046792D01*
X027874Y046744D01*
X027874Y046889D01*
X028067Y046889D01*
X028168Y046889D02*
X028168Y046744D01*
X028265Y046792D01*
X028314Y046792D01*
X028362Y046744D01*
X028362Y046647D01*
X028314Y046599D01*
X028217Y046599D01*
X028168Y046647D01*
X028168Y046889D02*
X028362Y046889D01*
X028376Y047040D02*
X028569Y047233D01*
X028569Y047282D01*
X028521Y047330D01*
X028424Y047330D01*
X028376Y047282D01*
X028275Y047282D02*
X028226Y047330D01*
X028129Y047330D01*
X028081Y047282D01*
X028081Y047088D01*
X028129Y047040D01*
X028226Y047040D01*
X028275Y047088D01*
X028376Y047040D02*
X028569Y047040D01*
X028670Y047088D02*
X028864Y047282D01*
X028864Y047088D01*
X028816Y047040D01*
X028719Y047040D01*
X028670Y047088D01*
X028670Y047282D01*
X028719Y047330D01*
X028816Y047330D01*
X028864Y047282D01*
X027919Y048103D02*
X027726Y048103D01*
X027822Y048103D02*
X027822Y048393D01*
X027726Y048296D01*
X027624Y048296D02*
X027624Y048345D01*
X027576Y048393D01*
X027479Y048393D01*
X027431Y048345D01*
X027330Y048345D02*
X027281Y048393D01*
X027185Y048393D01*
X027136Y048345D01*
X027136Y048151D01*
X027185Y048103D01*
X027281Y048103D01*
X027330Y048151D01*
X027431Y048103D02*
X027624Y048296D01*
X027624Y048103D02*
X027431Y048103D01*
X027628Y046889D02*
X027579Y046840D01*
X027628Y046889D02*
X027724Y046889D01*
X027773Y046840D01*
X027724Y046023D02*
X027628Y046023D01*
X027579Y045974D01*
X027579Y045781D01*
X027628Y045732D01*
X027724Y045732D01*
X027773Y045781D01*
X027874Y045781D02*
X027922Y045732D01*
X028019Y045732D01*
X028067Y045781D01*
X028067Y045878D01*
X028019Y045926D01*
X027971Y045926D01*
X027874Y045878D01*
X027874Y046023D01*
X028067Y046023D01*
X028168Y045878D02*
X028265Y045974D01*
X028362Y046023D01*
X028314Y045878D02*
X028168Y045878D01*
X028168Y045781D01*
X028217Y045732D01*
X028314Y045732D01*
X028362Y045781D01*
X028362Y045829D01*
X028314Y045878D01*
X027773Y045974D02*
X027724Y046023D01*
X027497Y045106D02*
X027545Y045057D01*
X027352Y044864D01*
X027400Y044815D01*
X027497Y044815D01*
X027545Y044864D01*
X027545Y045057D01*
X027497Y045106D02*
X027400Y045106D01*
X027352Y045057D01*
X027352Y044864D01*
X027275Y049953D02*
X027518Y049953D01*
X027579Y050014D01*
X027579Y050135D01*
X027518Y050196D01*
X027579Y050316D02*
X027215Y050316D01*
X027579Y050558D01*
X027215Y050558D01*
X027336Y050678D02*
X027215Y050800D01*
X027579Y050800D01*
X027579Y050921D02*
X027579Y050678D01*
X027579Y051041D02*
X027579Y051284D01*
X027579Y051162D02*
X027215Y051162D01*
X027336Y051041D01*
X027275Y050196D02*
X027215Y050135D01*
X027215Y050014D01*
X027275Y049953D01*
X025526Y052075D02*
X025574Y052124D01*
X025574Y052172D01*
X025526Y052220D01*
X025381Y052220D01*
X025381Y052124D01*
X025429Y052075D01*
X025526Y052075D01*
X025381Y052220D02*
X025477Y052317D01*
X025574Y052366D01*
X025280Y052366D02*
X025086Y052366D01*
X025183Y052366D02*
X025183Y052075D01*
X024985Y052124D02*
X024985Y052220D01*
X024888Y052220D01*
X024791Y052124D02*
X024840Y052075D01*
X024937Y052075D01*
X024985Y052124D01*
X024985Y052317D02*
X024937Y052366D01*
X024840Y052366D01*
X024791Y052317D01*
X024791Y052124D01*
X024690Y052172D02*
X024690Y052366D01*
X024497Y052366D02*
X024497Y052172D01*
X024594Y052075D01*
X024690Y052172D01*
X024396Y052124D02*
X024347Y052075D01*
X024250Y052075D01*
X024202Y052124D01*
X024202Y052220D02*
X024299Y052269D01*
X024347Y052269D01*
X024396Y052220D01*
X024396Y052124D01*
X024202Y052220D02*
X024202Y052366D01*
X024396Y052366D01*
X024101Y052317D02*
X023907Y052124D01*
X023956Y052075D01*
X024053Y052075D01*
X024101Y052124D01*
X024101Y052317D01*
X024053Y052366D01*
X023956Y052366D01*
X023907Y052317D01*
X023907Y052124D01*
X023806Y052220D02*
X023613Y052220D01*
X023758Y052366D01*
X023758Y052075D01*
X023415Y052220D02*
X023318Y052220D01*
X023217Y052269D02*
X023217Y052317D01*
X023169Y052366D01*
X023072Y052366D01*
X023024Y052317D01*
X022922Y052317D02*
X022922Y052269D01*
X022874Y052220D01*
X022922Y052172D01*
X022922Y052124D01*
X022874Y052075D01*
X022777Y052075D01*
X022729Y052124D01*
X022628Y052075D02*
X022628Y052366D01*
X022531Y052269D01*
X022434Y052366D01*
X022434Y052075D01*
X022236Y052075D02*
X022236Y052366D01*
X022140Y052366D02*
X022333Y052366D01*
X022038Y052317D02*
X021990Y052366D01*
X021893Y052366D01*
X021845Y052317D01*
X021845Y052269D01*
X021893Y052220D01*
X021990Y052220D01*
X022038Y052172D01*
X022038Y052124D01*
X021990Y052075D01*
X021893Y052075D01*
X021845Y052124D01*
X022729Y052317D02*
X022777Y052366D01*
X022874Y052366D01*
X022922Y052317D01*
X022874Y052220D02*
X022826Y052220D01*
X023024Y052075D02*
X023217Y052269D01*
X023318Y052366D02*
X023512Y052366D01*
X023318Y052366D02*
X023318Y052075D01*
X023217Y052075D02*
X023024Y052075D01*
X020084Y050755D02*
X020084Y050707D01*
X019891Y050513D01*
X019891Y050465D01*
X019891Y050755D02*
X020084Y050755D01*
X017693Y049499D02*
X017499Y049499D01*
X017596Y049499D02*
X017596Y049790D01*
X017499Y049693D01*
X017398Y049790D02*
X017398Y049499D01*
X017204Y049790D01*
X017204Y049499D01*
X017103Y049548D02*
X017055Y049499D01*
X016958Y049499D01*
X016910Y049548D01*
X016910Y049741D01*
X016958Y049790D01*
X017055Y049790D01*
X017103Y049741D01*
X017544Y048041D02*
X017544Y047848D01*
X017544Y047944D02*
X017254Y047944D01*
X017351Y047848D01*
X017399Y047746D02*
X017448Y047698D01*
X017448Y047553D01*
X017544Y047553D02*
X017254Y047553D01*
X017254Y047698D01*
X017302Y047746D01*
X017399Y047746D01*
X017448Y047650D02*
X017544Y047746D01*
X016560Y047707D02*
X016463Y047610D01*
X016463Y047659D02*
X016463Y047514D01*
X016560Y047514D02*
X016270Y047514D01*
X016270Y047659D01*
X016318Y047707D01*
X016415Y047707D01*
X016463Y047659D01*
X016415Y047808D02*
X016367Y047905D01*
X016367Y047953D01*
X016415Y048002D01*
X016512Y048002D01*
X016560Y047953D01*
X016560Y047857D01*
X016512Y047808D01*
X016415Y047808D02*
X016270Y047808D01*
X016270Y048002D01*
X015736Y044569D02*
X015736Y044521D01*
X015542Y044327D01*
X015542Y044279D01*
X015441Y044327D02*
X015393Y044279D01*
X015296Y044279D01*
X015248Y044327D01*
X015248Y044521D01*
X015296Y044569D01*
X015393Y044569D01*
X015441Y044521D01*
X015542Y044569D02*
X015736Y044569D01*
X016358Y043433D02*
X016309Y043384D01*
X016309Y043191D01*
X016358Y043142D01*
X016455Y043142D01*
X016503Y043191D01*
X016604Y043191D02*
X016604Y043239D01*
X016652Y043287D01*
X016749Y043287D01*
X016798Y043239D01*
X016798Y043191D01*
X016749Y043142D01*
X016652Y043142D01*
X016604Y043191D01*
X016652Y043287D02*
X016604Y043336D01*
X016604Y043384D01*
X016652Y043433D01*
X016749Y043433D01*
X016798Y043384D01*
X016798Y043336D01*
X016749Y043287D01*
X016921Y043123D02*
X016921Y042930D01*
X016969Y042881D01*
X017066Y042881D01*
X017114Y042930D01*
X017216Y042930D02*
X017264Y042881D01*
X017361Y042881D01*
X017409Y042930D01*
X017409Y043026D01*
X017361Y043075D01*
X017312Y043075D01*
X017216Y043026D01*
X017216Y043172D01*
X017409Y043172D01*
X017114Y043123D02*
X017066Y043172D01*
X016969Y043172D01*
X016921Y043123D01*
X016503Y043384D02*
X016455Y043433D01*
X016358Y043433D01*
X015260Y041573D02*
X015308Y041524D01*
X015308Y041428D01*
X015260Y041379D01*
X015066Y041573D01*
X015260Y041573D01*
X015260Y041379D02*
X015066Y041379D01*
X015018Y041428D01*
X015018Y041524D01*
X015066Y041573D01*
X015066Y041278D02*
X015260Y041085D01*
X015308Y041085D01*
X015260Y040983D02*
X015308Y040935D01*
X015308Y040838D01*
X015260Y040790D01*
X015066Y040790D01*
X015018Y040838D01*
X015018Y040935D01*
X015066Y040983D01*
X015018Y041085D02*
X015018Y041278D01*
X015066Y041278D01*
X016235Y041227D02*
X016235Y041033D01*
X016283Y040985D01*
X016380Y040985D01*
X016428Y041033D01*
X016529Y040985D02*
X016723Y041178D01*
X016723Y041227D01*
X016674Y041275D01*
X016578Y041275D01*
X016529Y041227D01*
X016428Y041227D02*
X016380Y041275D01*
X016283Y041275D01*
X016235Y041227D01*
X016529Y040985D02*
X016723Y040985D01*
X016824Y041033D02*
X016872Y040985D01*
X016969Y040985D01*
X017017Y041033D01*
X017017Y041082D01*
X016969Y041130D01*
X016824Y041130D01*
X016824Y041033D01*
X016824Y041130D02*
X016921Y041227D01*
X017017Y041275D01*
X017796Y042881D02*
X017893Y042881D01*
X017941Y042930D01*
X018042Y043026D02*
X018236Y043026D01*
X018187Y042881D02*
X018187Y043172D01*
X018042Y043026D01*
X017941Y043123D02*
X017893Y043172D01*
X017796Y043172D01*
X017748Y043123D01*
X017748Y042930D01*
X017796Y042881D01*
X018524Y044094D02*
X018524Y044384D01*
X018669Y044384D01*
X018718Y044336D01*
X018718Y044239D01*
X018669Y044191D01*
X018524Y044191D01*
X018621Y044191D02*
X018718Y044094D01*
X018819Y044094D02*
X019012Y044094D01*
X018915Y044094D02*
X018915Y044384D01*
X018819Y044288D01*
X019113Y044288D02*
X019113Y044336D01*
X019162Y044384D01*
X019258Y044384D01*
X019307Y044336D01*
X019307Y044288D01*
X019258Y044239D01*
X019162Y044239D01*
X019113Y044288D01*
X019162Y044239D02*
X019113Y044191D01*
X019113Y044142D01*
X019162Y044094D01*
X019258Y044094D01*
X019307Y044142D01*
X019307Y044191D01*
X019258Y044239D01*
X018805Y041149D02*
X018612Y041149D01*
X018612Y041004D01*
X018709Y041052D01*
X018757Y041052D01*
X018805Y041004D01*
X018805Y040907D01*
X018757Y040859D01*
X018660Y040859D01*
X018612Y040907D01*
X018511Y040907D02*
X018511Y041149D01*
X018317Y041149D02*
X018317Y040907D01*
X018366Y040859D01*
X018462Y040859D01*
X018511Y040907D01*
X015300Y039371D02*
X015300Y039274D01*
X015252Y039226D01*
X015155Y039226D02*
X015107Y039322D01*
X015107Y039371D01*
X015155Y039419D01*
X015252Y039419D01*
X015300Y039371D01*
X015155Y039226D02*
X015010Y039226D01*
X015010Y039419D01*
X015058Y039124D02*
X015010Y039076D01*
X015010Y038979D01*
X015058Y038931D01*
X015058Y038830D02*
X015010Y038781D01*
X015010Y038685D01*
X015058Y038636D01*
X015252Y038636D01*
X015300Y038685D01*
X015300Y038781D01*
X015252Y038830D01*
X015300Y038931D02*
X015107Y039124D01*
X015058Y039124D01*
X015300Y039124D02*
X015300Y038931D01*
X013591Y036976D02*
X013591Y036686D01*
X013687Y036686D02*
X013494Y036686D01*
X013393Y036686D02*
X013199Y036686D01*
X013199Y036976D01*
X013494Y036879D02*
X013591Y036976D01*
X013605Y041347D02*
X013701Y041347D01*
X013750Y041395D01*
X013750Y041444D01*
X013701Y041492D01*
X013556Y041492D01*
X013556Y041395D01*
X013605Y041347D01*
X013556Y041492D02*
X013653Y041589D01*
X013750Y041637D01*
X013455Y041492D02*
X013262Y041492D01*
X013407Y041637D01*
X013407Y041347D01*
X013160Y041395D02*
X013112Y041347D01*
X013015Y041347D01*
X012967Y041395D01*
X012967Y041589D01*
X013015Y041637D01*
X013112Y041637D01*
X013160Y041589D01*
X013148Y042079D02*
X013196Y042128D01*
X013148Y042079D02*
X013051Y042079D01*
X013002Y042128D01*
X013002Y042321D01*
X013051Y042370D01*
X013148Y042370D01*
X013196Y042321D01*
X013297Y042273D02*
X013394Y042370D01*
X013394Y042079D01*
X013297Y042079D02*
X013491Y042079D01*
X014263Y042831D02*
X014312Y042783D01*
X014409Y042783D01*
X014457Y042831D01*
X014558Y042831D02*
X014558Y042928D01*
X014703Y042928D01*
X014752Y042880D01*
X014752Y042831D01*
X014703Y042783D01*
X014606Y042783D01*
X014558Y042831D01*
X014558Y042928D02*
X014655Y043025D01*
X014752Y043073D01*
X014457Y043025D02*
X014409Y043073D01*
X014312Y043073D01*
X014263Y043025D01*
X014263Y042831D01*
X022806Y031740D02*
X022806Y031449D01*
X022999Y031449D01*
X023100Y031449D02*
X023245Y031449D01*
X023294Y031498D01*
X023294Y031691D01*
X023245Y031740D01*
X023100Y031740D01*
X023100Y031449D01*
X023395Y031449D02*
X023588Y031643D01*
X023588Y031691D01*
X023540Y031740D01*
X023443Y031740D01*
X023395Y031691D01*
X023395Y031449D02*
X023588Y031449D01*
X026882Y030947D02*
X027076Y030947D01*
X027177Y030947D02*
X027322Y030947D01*
X027370Y030899D01*
X027370Y030850D01*
X027322Y030802D01*
X027177Y030802D01*
X027322Y030802D02*
X027370Y030754D01*
X027370Y030705D01*
X027322Y030657D01*
X027177Y030657D01*
X027177Y030947D01*
X026979Y030802D02*
X026882Y030802D01*
X026882Y030657D02*
X026882Y030947D01*
X027472Y030899D02*
X027520Y030947D01*
X027617Y030947D01*
X027665Y030899D01*
X027665Y030850D01*
X027617Y030802D01*
X027665Y030754D01*
X027665Y030705D01*
X027617Y030657D01*
X027520Y030657D01*
X027472Y030705D01*
X027568Y030802D02*
X027617Y030802D01*
X028160Y030807D02*
X028257Y030807D01*
X028353Y030952D02*
X028160Y030952D01*
X028160Y030662D01*
X029670Y037847D02*
X029670Y037992D01*
X029719Y038040D01*
X029815Y038040D01*
X029864Y037992D01*
X029864Y037847D01*
X029961Y037847D02*
X029670Y037847D01*
X029864Y037944D02*
X029961Y038040D01*
X029912Y038142D02*
X029961Y038190D01*
X029961Y038287D01*
X029912Y038335D01*
X029815Y038335D01*
X029767Y038287D01*
X029767Y038238D01*
X029815Y038142D01*
X029670Y038142D01*
X029670Y038335D01*
X029719Y038436D02*
X029767Y038436D01*
X029815Y038485D01*
X029815Y038581D01*
X029864Y038630D01*
X029912Y038630D01*
X029961Y038581D01*
X029961Y038485D01*
X029912Y038436D01*
X029864Y038436D01*
X029815Y038485D01*
X029815Y038581D02*
X029767Y038630D01*
X029719Y038630D01*
X029670Y038581D01*
X029670Y038485D01*
X029719Y038436D01*
X037180Y027978D02*
X037229Y027978D01*
X037277Y027930D01*
X037277Y027833D01*
X037229Y027785D01*
X037180Y027785D01*
X037132Y027833D01*
X037132Y027930D01*
X037180Y027978D01*
X037277Y027930D02*
X037326Y027978D01*
X037374Y027978D01*
X037422Y027930D01*
X037422Y027833D01*
X037374Y027785D01*
X037326Y027785D01*
X037277Y027833D01*
X037422Y027683D02*
X037422Y027490D01*
X037422Y027587D02*
X037132Y027587D01*
X037229Y027490D01*
X037277Y027389D02*
X037326Y027340D01*
X037326Y027195D01*
X037422Y027195D02*
X037132Y027195D01*
X037132Y027340D01*
X037180Y027389D01*
X037277Y027389D01*
X016720Y027080D02*
X016527Y026886D01*
X016575Y026838D01*
X016672Y026838D01*
X016720Y026886D01*
X016720Y027080D01*
X016672Y027128D01*
X016575Y027128D01*
X016527Y027080D01*
X016527Y026886D01*
X016425Y026886D02*
X016377Y026838D01*
X016280Y026838D01*
X016232Y026886D01*
X016131Y026886D02*
X016082Y026838D01*
X015986Y026838D01*
X015937Y026886D01*
X015937Y027080D01*
X015986Y027128D01*
X016082Y027128D01*
X016131Y027080D01*
X016232Y027080D02*
X016280Y027128D01*
X016377Y027128D01*
X016425Y027080D01*
X016425Y027032D01*
X016377Y026983D01*
X016425Y026935D01*
X016425Y026886D01*
X016377Y026983D02*
X016329Y026983D01*
X027081Y055957D02*
X027274Y055957D01*
X027323Y056006D01*
X027323Y056102D01*
X027274Y056151D01*
X027274Y056252D02*
X027323Y056300D01*
X027323Y056397D01*
X027274Y056445D01*
X027081Y056445D01*
X027033Y056397D01*
X027033Y056300D01*
X027081Y056252D01*
X027129Y056252D01*
X027178Y056300D01*
X027178Y056445D01*
X027081Y056151D02*
X027033Y056102D01*
X027033Y056006D01*
X027081Y055957D01*
X026768Y058201D02*
X026672Y058201D01*
X026623Y058250D01*
X026623Y058346D02*
X026720Y058395D01*
X026768Y058395D01*
X026817Y058346D01*
X026817Y058250D01*
X026768Y058201D01*
X026623Y058346D02*
X026623Y058492D01*
X026817Y058492D01*
X026425Y058492D02*
X026425Y058201D01*
X026329Y058201D02*
X026522Y058201D01*
X026329Y058395D02*
X026425Y058492D01*
X026227Y058443D02*
X026227Y058346D01*
X026179Y058298D01*
X026034Y058298D01*
X026131Y058298D02*
X026227Y058201D01*
X026034Y058201D02*
X026034Y058492D01*
X026179Y058492D01*
X026227Y058443D01*
X026297Y058733D02*
X026249Y058781D01*
X026297Y058733D02*
X026394Y058733D01*
X026442Y058781D01*
X026442Y058830D01*
X026394Y058878D01*
X026345Y058878D01*
X026394Y058878D02*
X026442Y058926D01*
X026442Y058975D01*
X026394Y059023D01*
X026297Y059023D01*
X026249Y058975D01*
X026147Y058975D02*
X026147Y058781D01*
X026099Y058733D01*
X025954Y058733D01*
X025954Y059023D01*
X026099Y059023D01*
X026147Y058975D01*
X025853Y059023D02*
X025659Y059023D01*
X025659Y058733D01*
X025853Y058733D01*
X025756Y058878D02*
X025659Y058878D01*
X025558Y058733D02*
X025365Y058733D01*
X025365Y059023D01*
X024375Y058878D02*
X024182Y058878D01*
X024327Y059023D01*
X024327Y058733D01*
X024080Y058781D02*
X024080Y058975D01*
X024032Y059023D01*
X023887Y059023D01*
X023887Y058733D01*
X024032Y058733D01*
X024080Y058781D01*
X023786Y058733D02*
X023592Y058733D01*
X023592Y059023D01*
X023786Y059023D01*
X023689Y058878D02*
X023592Y058878D01*
X023491Y058733D02*
X023298Y058733D01*
X023298Y059023D01*
X023632Y057684D02*
X023777Y057684D01*
X023826Y057636D01*
X023826Y057539D01*
X023777Y057491D01*
X023632Y057491D01*
X023632Y057394D02*
X023632Y057684D01*
X023729Y057491D02*
X023826Y057394D01*
X023927Y057394D02*
X024120Y057394D01*
X024024Y057394D02*
X024024Y057684D01*
X023927Y057588D01*
X024222Y057539D02*
X024367Y057539D01*
X024415Y057491D01*
X024415Y057443D01*
X024367Y057394D01*
X024270Y057394D01*
X024222Y057443D01*
X024222Y057539D01*
X024318Y057636D01*
X024415Y057684D01*
X021837Y056927D02*
X021837Y056879D01*
X021789Y056831D01*
X021837Y056782D01*
X021837Y056734D01*
X021789Y056686D01*
X021692Y056686D01*
X021643Y056734D01*
X021542Y056734D02*
X021542Y056976D01*
X021643Y056927D02*
X021692Y056976D01*
X021789Y056976D01*
X021837Y056927D01*
X021789Y056831D02*
X021740Y056831D01*
X021542Y056734D02*
X021494Y056686D01*
X021397Y056686D01*
X021349Y056734D01*
X021349Y056976D01*
X027491Y058733D02*
X027684Y058733D01*
X027785Y058733D02*
X027979Y058733D01*
X028080Y058733D02*
X028225Y058733D01*
X028273Y058781D01*
X028273Y058975D01*
X028225Y059023D01*
X028080Y059023D01*
X028080Y058733D01*
X027882Y058878D02*
X027785Y058878D01*
X027785Y059023D02*
X027785Y058733D01*
X027785Y059023D02*
X027979Y059023D01*
X028375Y058975D02*
X028423Y059023D01*
X028520Y059023D01*
X028568Y058975D01*
X028568Y058926D01*
X028375Y058733D01*
X028568Y058733D01*
X028551Y058433D02*
X028551Y058142D01*
X028455Y058142D02*
X028648Y058142D01*
X028749Y058191D02*
X028798Y058142D01*
X028894Y058142D01*
X028943Y058191D01*
X028943Y058239D01*
X028894Y058287D01*
X028846Y058287D01*
X028894Y058287D02*
X028943Y058336D01*
X028943Y058384D01*
X028894Y058433D01*
X028798Y058433D01*
X028749Y058384D01*
X028551Y058433D02*
X028455Y058336D01*
X028353Y058384D02*
X028353Y058287D01*
X028305Y058239D01*
X028160Y058239D01*
X028257Y058239D02*
X028353Y058142D01*
X028160Y058142D02*
X028160Y058433D01*
X028305Y058433D01*
X028353Y058384D01*
X027491Y058733D02*
X027491Y059023D01*
X029341Y058039D02*
X029486Y058039D01*
X029534Y057990D01*
X029534Y057894D01*
X029486Y057845D01*
X029341Y057845D01*
X029341Y057749D02*
X029341Y058039D01*
X029438Y057845D02*
X029534Y057749D01*
X029636Y057749D02*
X029829Y057749D01*
X029732Y057749D02*
X029732Y058039D01*
X029636Y057942D01*
X029930Y057990D02*
X029979Y058039D01*
X030075Y058039D01*
X030124Y057990D01*
X030124Y057942D01*
X029930Y057749D01*
X030124Y057749D01*
X030561Y057061D02*
X030707Y057061D01*
X030755Y057013D01*
X030755Y056916D01*
X030707Y056868D01*
X030561Y056868D01*
X030561Y056771D02*
X030561Y057061D01*
X030658Y056868D02*
X030755Y056771D01*
X030856Y056820D02*
X030904Y056771D01*
X031001Y056771D01*
X031050Y056820D01*
X031050Y056868D01*
X031001Y056916D01*
X030953Y056916D01*
X031001Y056916D02*
X031050Y056965D01*
X031050Y057013D01*
X031001Y057061D01*
X030904Y057061D01*
X030856Y057013D01*
X031151Y057013D02*
X031151Y056965D01*
X031199Y056916D01*
X031344Y056916D01*
X031344Y056820D02*
X031344Y057013D01*
X031296Y057061D01*
X031199Y057061D01*
X031151Y057013D01*
X031151Y056820D02*
X031199Y056771D01*
X031296Y056771D01*
X031344Y056820D01*
X031517Y059043D02*
X031614Y059043D01*
X031662Y059091D01*
X031763Y059043D02*
X031957Y059236D01*
X031957Y059285D01*
X031909Y059333D01*
X031812Y059333D01*
X031763Y059285D01*
X031662Y059285D02*
X031614Y059333D01*
X031517Y059333D01*
X031469Y059285D01*
X031469Y059091D01*
X031517Y059043D01*
X031763Y059043D02*
X031957Y059043D01*
X032058Y059091D02*
X032106Y059043D01*
X032203Y059043D01*
X032252Y059091D01*
X032252Y059139D01*
X032203Y059188D01*
X032155Y059188D01*
X032203Y059188D02*
X032252Y059236D01*
X032252Y059285D01*
X032203Y059333D01*
X032106Y059333D01*
X032058Y059285D01*
X031560Y059363D02*
X031367Y059363D01*
X031463Y059363D02*
X031463Y059653D01*
X031367Y059556D01*
X031265Y059605D02*
X031217Y059653D01*
X031072Y059653D01*
X031072Y059363D01*
X031217Y059363D01*
X031265Y059411D01*
X031265Y059605D01*
X030971Y059653D02*
X030777Y059653D01*
X030777Y059363D01*
X030971Y059363D01*
X030874Y059508D02*
X030777Y059508D01*
X030676Y059363D02*
X030483Y059363D01*
X030483Y059653D01*
X034139Y056957D02*
X034187Y056957D01*
X034381Y056763D01*
X034429Y056763D01*
X034381Y056662D02*
X034429Y056614D01*
X034429Y056517D01*
X034381Y056468D01*
X034381Y056367D02*
X034429Y056319D01*
X034429Y056222D01*
X034381Y056174D01*
X034187Y056174D01*
X034139Y056222D01*
X034139Y056319D01*
X034187Y056367D01*
X034187Y056468D02*
X034139Y056517D01*
X034139Y056614D01*
X034187Y056662D01*
X034236Y056662D01*
X034284Y056614D01*
X034332Y056662D01*
X034381Y056662D01*
X034284Y056614D02*
X034284Y056565D01*
X034139Y056763D02*
X034139Y056957D01*
D14*
X031303Y051011D02*
X031303Y050590D01*
X031093Y050800D02*
X031514Y050800D01*
X034676Y049816D02*
X035096Y049816D01*
X034886Y050026D02*
X034886Y049606D01*
X016789Y030525D02*
X016369Y030525D01*
X016579Y030735D02*
X016579Y030315D01*
D15*
X016531Y028389D02*
X016985Y028389D01*
X031256Y048665D02*
X031709Y048665D01*
X034838Y047681D02*
X035292Y047681D01*
D16*
X034247Y046119D02*
X034247Y045923D01*
X034247Y046119D02*
X033854Y046119D01*
X033854Y045923D01*
X033854Y045529D02*
X033854Y045332D01*
X034247Y045332D01*
X034247Y045529D01*
X033361Y045411D02*
X033361Y045135D01*
X032771Y045135D01*
X032771Y045411D01*
X032771Y046041D02*
X032771Y046316D01*
X033361Y046316D01*
X033361Y046041D01*
X033263Y042970D02*
X033657Y042970D01*
X033657Y042773D01*
X033657Y042379D02*
X033657Y042182D01*
X033263Y042182D01*
X033263Y042379D01*
X033263Y042773D02*
X033263Y042970D01*
X034208Y042970D02*
X034208Y042773D01*
X034208Y042970D02*
X034602Y042970D01*
X034602Y042773D01*
X034602Y042379D02*
X034602Y042182D01*
X034208Y042182D01*
X034208Y042379D01*
X035231Y041198D02*
X035625Y041198D01*
X035625Y041001D01*
X035625Y040608D02*
X035625Y040411D01*
X035231Y040411D01*
X035231Y040608D01*
X035231Y041001D02*
X035231Y041198D01*
X036216Y041001D02*
X036216Y040804D01*
X036216Y041001D02*
X036609Y041001D01*
X036609Y040804D01*
X036609Y040411D02*
X036609Y040214D01*
X036216Y040214D01*
X036216Y040411D01*
X036216Y039426D02*
X036609Y039426D01*
X036609Y039230D01*
X036216Y039230D02*
X036216Y039426D01*
X036216Y038836D02*
X036216Y038639D01*
X036609Y038639D01*
X036609Y038836D01*
X037200Y038836D02*
X037200Y038639D01*
X037594Y038639D01*
X037594Y038836D01*
X037594Y039230D02*
X037594Y039426D01*
X037200Y039426D01*
X037200Y039230D01*
X037200Y040214D02*
X037594Y040214D01*
X037594Y040411D01*
X037594Y040804D02*
X037594Y041001D01*
X037200Y041001D01*
X037200Y040804D01*
X037200Y040411D02*
X037200Y040214D01*
X035586Y039426D02*
X035586Y039230D01*
X035586Y039426D02*
X035192Y039426D01*
X035192Y039230D01*
X035192Y038836D02*
X035192Y038639D01*
X035586Y038639D01*
X035586Y038836D01*
X035428Y037655D02*
X035035Y037655D01*
X035035Y037458D01*
X035428Y037458D02*
X035428Y037655D01*
X035428Y037064D02*
X035428Y036867D01*
X035035Y036867D01*
X035035Y037064D01*
X034247Y037064D02*
X034247Y036867D01*
X033854Y036867D01*
X033854Y037064D01*
X033854Y037458D02*
X033854Y037655D01*
X034247Y037655D01*
X034247Y037458D01*
X034247Y038639D02*
X034247Y038836D01*
X034247Y038639D02*
X034641Y038639D01*
X034641Y038836D01*
X034641Y039230D02*
X034641Y039426D01*
X034247Y039426D01*
X034247Y039230D01*
X033657Y039230D02*
X033657Y039426D01*
X033263Y039426D01*
X033263Y039230D01*
X033263Y038836D02*
X033263Y038639D01*
X033657Y038639D01*
X033657Y038836D01*
X032672Y037655D02*
X032672Y037458D01*
X032672Y037655D02*
X032279Y037655D01*
X032279Y037458D01*
X032279Y037064D02*
X032279Y036867D01*
X032672Y036867D01*
X032672Y037064D01*
X032672Y035489D02*
X032279Y035489D01*
X032279Y035293D01*
X032672Y035293D02*
X032672Y035489D01*
X032672Y034899D02*
X032672Y034702D01*
X032279Y034702D01*
X032279Y034899D01*
X031491Y034899D02*
X031491Y034702D01*
X031098Y034702D01*
X031098Y034899D01*
X031098Y035293D02*
X031098Y035489D01*
X031491Y035489D01*
X031491Y035293D01*
X029562Y037852D02*
X029562Y038049D01*
X029562Y037852D02*
X029168Y037852D01*
X029168Y038049D01*
X028814Y038206D02*
X027869Y038206D01*
X027869Y039938D01*
X028814Y039938D01*
X028814Y038206D01*
X029168Y038442D02*
X029168Y038639D01*
X029562Y038639D01*
X029562Y038442D01*
X029424Y040175D02*
X028834Y040175D01*
X028834Y040411D01*
X028440Y040411D02*
X028440Y040175D01*
X027850Y040175D01*
X027850Y040411D01*
X027850Y041119D02*
X027850Y041356D01*
X028440Y041356D01*
X028440Y041119D01*
X028834Y041119D02*
X028834Y041356D01*
X029424Y041356D01*
X029424Y041119D01*
X029424Y040411D02*
X029424Y040175D01*
X030625Y042300D02*
X030625Y042497D01*
X030625Y042300D02*
X031019Y042300D01*
X031019Y042497D01*
X031019Y042891D02*
X031019Y043088D01*
X030625Y043088D01*
X030625Y042891D01*
X031983Y042970D02*
X031983Y042694D01*
X031983Y042970D02*
X032574Y042970D01*
X032574Y042694D01*
X032574Y042064D02*
X032574Y041789D01*
X031983Y041789D01*
X031983Y042064D01*
X028302Y045253D02*
X028105Y045253D01*
X028302Y045253D02*
X028302Y045647D01*
X028105Y045647D01*
X027712Y045647D02*
X027515Y045647D01*
X027515Y045253D01*
X027712Y045253D01*
X027239Y045824D02*
X027239Y046415D01*
X026964Y046415D01*
X026767Y046513D02*
X026767Y046907D01*
X026570Y046907D01*
X026176Y046907D02*
X025980Y046907D01*
X025980Y046513D01*
X026176Y046513D01*
X026058Y046415D02*
X026058Y045824D01*
X026334Y045824D01*
X026373Y045785D02*
X026609Y045785D01*
X026609Y045194D01*
X026373Y045194D01*
X026019Y045824D02*
X026019Y046415D01*
X025743Y046415D01*
X025783Y046513D02*
X025783Y046907D01*
X025586Y046907D01*
X025192Y046907D02*
X024995Y046907D01*
X024995Y046513D01*
X025192Y046513D01*
X025113Y046415D02*
X024838Y046415D01*
X024838Y045824D01*
X025113Y045824D01*
X025428Y045785D02*
X025428Y045194D01*
X025665Y045194D01*
X025586Y044938D02*
X025586Y044741D01*
X025586Y044938D02*
X025192Y044938D01*
X025192Y044741D01*
X025192Y044348D02*
X025192Y044151D01*
X025586Y044151D01*
X025586Y044348D01*
X024917Y043836D02*
X024917Y042891D01*
X026649Y042891D01*
X026649Y043836D01*
X024917Y043836D01*
X024917Y042812D02*
X024917Y041867D01*
X026649Y041867D01*
X026649Y042812D01*
X024917Y042812D01*
X022791Y044348D02*
X022397Y044348D01*
X022397Y044545D01*
X022239Y044722D02*
X022042Y044722D01*
X022239Y044722D02*
X022239Y044328D01*
X022042Y044328D01*
X021649Y044328D02*
X021452Y044328D01*
X021452Y044722D01*
X021649Y044722D01*
X021767Y045234D02*
X021491Y045234D01*
X021491Y045824D01*
X021767Y045824D01*
X021688Y046021D02*
X021452Y046021D01*
X021452Y046612D01*
X021688Y046612D01*
X022397Y046612D02*
X022633Y046612D01*
X022633Y046021D01*
X022397Y046021D01*
X022397Y045824D02*
X022672Y045824D01*
X022672Y045234D01*
X022397Y045234D01*
X022397Y045135D02*
X022791Y045135D01*
X022791Y044938D01*
X022791Y044545D02*
X022791Y044348D01*
X022397Y044938D02*
X022397Y045135D01*
X020980Y044938D02*
X020783Y044938D01*
X020980Y044938D02*
X020980Y045332D01*
X020783Y045332D01*
X020389Y045332D02*
X020192Y045332D01*
X020192Y044938D01*
X020389Y044938D01*
X020350Y045804D02*
X020153Y045804D01*
X020153Y046198D01*
X020350Y046198D01*
X020389Y046454D02*
X020192Y046454D01*
X020192Y046848D01*
X020389Y046848D01*
X020389Y047045D02*
X020192Y047045D01*
X020192Y047438D01*
X020389Y047438D01*
X020783Y047438D02*
X020980Y047438D01*
X020980Y047045D01*
X020783Y047045D01*
X020783Y046848D02*
X020980Y046848D01*
X020980Y046454D01*
X020783Y046454D01*
X020743Y046198D02*
X020940Y046198D01*
X020940Y045804D01*
X020743Y045804D01*
X019680Y044013D02*
X019680Y043423D01*
X019444Y043423D01*
X019444Y044013D02*
X019680Y044013D01*
X018735Y044013D02*
X018499Y044013D01*
X018499Y043423D01*
X018735Y043423D01*
X018204Y043462D02*
X018204Y043659D01*
X018204Y043462D02*
X017810Y043462D01*
X017810Y043659D01*
X017515Y043541D02*
X017515Y043265D01*
X016924Y043265D01*
X016924Y043541D01*
X016728Y043560D02*
X016334Y043560D01*
X016334Y043757D01*
X016728Y043757D02*
X016728Y043560D01*
X016728Y044151D02*
X016728Y044348D01*
X016334Y044348D01*
X016334Y044151D01*
X016924Y044171D02*
X016924Y044446D01*
X017515Y044446D01*
X017515Y044171D01*
X017810Y044249D02*
X018204Y044249D01*
X018204Y044052D01*
X017810Y044052D02*
X017810Y044249D01*
X015743Y044151D02*
X015743Y043954D01*
X015743Y044151D02*
X015350Y044151D01*
X015350Y043954D01*
X015350Y043560D02*
X015350Y043363D01*
X015743Y043363D01*
X015743Y043560D01*
X014857Y043442D02*
X014857Y043167D01*
X014267Y043167D01*
X014267Y043442D01*
X014267Y044072D02*
X014267Y044348D01*
X014857Y044348D01*
X014857Y044072D01*
X014483Y042419D02*
X014287Y042419D01*
X014483Y042419D02*
X014483Y042025D01*
X014287Y042025D01*
X014464Y041769D02*
X014661Y041769D01*
X014661Y041375D01*
X014464Y041375D01*
X014070Y041375D02*
X013873Y041375D01*
X013873Y041769D01*
X014070Y041769D01*
X013893Y042025D02*
X013696Y042025D01*
X013696Y042419D01*
X013893Y042419D01*
X015743Y040804D02*
X015743Y040411D01*
X015940Y040411D01*
X015940Y040804D02*
X015743Y040804D01*
X016334Y040804D02*
X016531Y040804D01*
X016531Y040411D01*
X016334Y040411D01*
X019680Y036375D02*
X019680Y035785D01*
X019917Y035785D01*
X019917Y036375D02*
X019680Y036375D01*
X020625Y036375D02*
X020861Y036375D01*
X020861Y035785D01*
X020625Y035785D01*
X021058Y034702D02*
X021255Y034702D01*
X021058Y034702D02*
X021058Y034308D01*
X021255Y034308D01*
X021649Y034308D02*
X021846Y034308D01*
X021846Y034702D01*
X021649Y034702D01*
X021649Y037655D02*
X021452Y037655D01*
X021649Y037655D02*
X021649Y038049D01*
X021452Y038049D01*
X021452Y038245D02*
X021649Y038245D01*
X021649Y038639D01*
X021452Y038639D01*
X021452Y038836D02*
X021649Y038836D01*
X021649Y039230D01*
X021452Y039230D01*
X021058Y039230D02*
X020861Y039230D01*
X020861Y038836D01*
X021058Y038836D01*
X021058Y038639D02*
X020861Y038639D01*
X020861Y038245D01*
X021058Y038245D01*
X021058Y038049D02*
X020861Y038049D01*
X020861Y037655D01*
X021058Y037655D01*
X021058Y040017D02*
X020861Y040017D01*
X020861Y040411D01*
X021058Y040411D01*
X021452Y040411D02*
X021649Y040411D01*
X021649Y040017D01*
X021452Y040017D01*
X024129Y036946D02*
X024129Y036001D01*
X025861Y036001D01*
X025861Y036946D01*
X024129Y036946D01*
X024405Y035686D02*
X024798Y035686D01*
X024798Y035489D01*
X024798Y035096D02*
X024798Y034899D01*
X024405Y034899D01*
X024405Y035096D01*
X024405Y035489D02*
X024405Y035686D01*
X026885Y032812D02*
X027830Y032812D01*
X027830Y031080D01*
X026885Y031080D01*
X026885Y032812D01*
X028066Y032812D02*
X028066Y031080D01*
X029011Y031080D01*
X029011Y032812D01*
X028066Y032812D01*
X029326Y031946D02*
X029720Y031946D01*
X029720Y031749D01*
X029917Y031749D02*
X029917Y031946D01*
X030310Y031946D01*
X030310Y031749D01*
X030310Y031356D02*
X030310Y031159D01*
X029917Y031159D01*
X029917Y031356D01*
X029720Y031356D02*
X029720Y031159D01*
X029326Y031159D01*
X029326Y031356D01*
X029326Y031749D02*
X029326Y031946D01*
X029917Y030765D02*
X029917Y030568D01*
X029917Y030765D02*
X030310Y030765D01*
X030310Y030568D01*
X030310Y030175D02*
X030310Y029978D01*
X029917Y029978D01*
X029917Y030175D01*
X033066Y030175D02*
X033066Y030371D01*
X033460Y030371D01*
X033460Y030175D01*
X033460Y029781D02*
X033460Y029584D01*
X033066Y029584D01*
X033066Y029781D01*
X033775Y030647D02*
X034720Y030647D01*
X034720Y028915D01*
X033775Y028915D01*
X033775Y030647D01*
X033696Y032143D02*
X033696Y032340D01*
X033696Y032143D02*
X034090Y032143D01*
X034090Y032340D01*
X034090Y032734D02*
X034090Y032930D01*
X033696Y032930D01*
X033696Y032734D01*
X035428Y035096D02*
X035428Y035293D01*
X035428Y035096D02*
X035822Y035096D01*
X035822Y035293D01*
X035822Y035686D02*
X035822Y035883D01*
X035428Y035883D01*
X035428Y035686D01*
X036511Y035804D02*
X036511Y036080D01*
X037102Y036080D01*
X037102Y035804D01*
X037102Y035175D02*
X037102Y034899D01*
X036511Y034899D01*
X036511Y035175D01*
X036609Y036867D02*
X036216Y036867D01*
X036216Y037064D01*
X036609Y037064D02*
X036609Y036867D01*
X036609Y037458D02*
X036609Y037655D01*
X036216Y037655D01*
X036216Y037458D01*
X030113Y048186D02*
X029877Y048186D01*
X030113Y048186D02*
X030113Y048777D01*
X029877Y048777D01*
X029877Y049171D02*
X030113Y049171D01*
X030113Y049761D01*
X029877Y049761D01*
X029168Y049761D02*
X028932Y049761D01*
X028932Y049171D01*
X029168Y049171D01*
X029168Y048777D02*
X028932Y048777D01*
X028932Y048186D01*
X029168Y048186D01*
X027948Y047989D02*
X027948Y047596D01*
X027751Y047596D01*
X027751Y047399D02*
X027948Y047399D01*
X027948Y047005D01*
X027751Y047005D01*
X027357Y047005D02*
X027161Y047005D01*
X027161Y047399D01*
X027357Y047399D01*
X027357Y047596D02*
X027161Y047596D01*
X027161Y047989D01*
X027357Y047989D01*
X027751Y047989D02*
X027948Y047989D01*
X028105Y046513D02*
X028302Y046513D01*
X028302Y046119D01*
X028105Y046119D01*
X027712Y046119D02*
X027515Y046119D01*
X027515Y046513D01*
X027712Y046513D01*
X027239Y045824D02*
X026964Y045824D01*
X026767Y046513D02*
X026570Y046513D01*
X026334Y046415D02*
X026058Y046415D01*
X025783Y046513D02*
X025586Y046513D01*
X025743Y045824D02*
X026019Y045824D01*
X025665Y045785D02*
X025428Y045785D01*
X024011Y046119D02*
X023617Y046119D01*
X023617Y046316D01*
X023617Y046710D02*
X023617Y046907D01*
X024011Y046907D01*
X024011Y046710D01*
X024011Y046316D02*
X024011Y046119D01*
X019838Y048954D02*
X019641Y048954D01*
X019838Y048954D02*
X019838Y049348D01*
X019641Y049348D01*
X019247Y049348D02*
X019050Y049348D01*
X019050Y048954D01*
X019247Y048954D01*
X019090Y050056D02*
X018893Y050056D01*
X019090Y050056D02*
X019090Y050450D01*
X018893Y050450D01*
X018893Y050647D02*
X019090Y050647D01*
X019090Y051041D01*
X018893Y051041D01*
X018893Y051238D02*
X019090Y051238D01*
X019090Y051631D01*
X018893Y051631D01*
X018893Y051828D02*
X019090Y051828D01*
X019090Y052222D01*
X018893Y052222D01*
X019050Y052320D02*
X019287Y052320D01*
X019287Y052911D01*
X019050Y052911D01*
X018342Y052911D02*
X018105Y052911D01*
X018105Y052320D01*
X018342Y052320D01*
X018302Y052222D02*
X018499Y052222D01*
X018302Y052222D02*
X018302Y051828D01*
X018499Y051828D01*
X018499Y051631D02*
X018302Y051631D01*
X018302Y051238D01*
X018499Y051238D01*
X018499Y051041D02*
X018302Y051041D01*
X018302Y050647D01*
X018499Y050647D01*
X018499Y050450D02*
X018302Y050450D01*
X018302Y050056D01*
X018499Y050056D01*
X017121Y048324D02*
X017121Y048127D01*
X017121Y048324D02*
X016728Y048324D01*
X016728Y048127D01*
X016728Y047734D02*
X016728Y047537D01*
X017121Y047537D01*
X017121Y047734D01*
X016137Y047694D02*
X016137Y047497D01*
X015743Y047497D01*
X015743Y047694D01*
X015743Y048088D02*
X015743Y048285D01*
X016137Y048285D01*
X016137Y048088D01*
X019976Y053206D02*
X020369Y053206D01*
X020369Y053403D01*
X019976Y053403D02*
X019976Y053206D01*
X019976Y053797D02*
X019976Y053993D01*
X020369Y053993D01*
X020369Y053797D01*
X020468Y054131D02*
X020468Y054722D01*
X020743Y054722D01*
X020704Y054919D02*
X020468Y054919D01*
X020468Y055509D01*
X020704Y055509D01*
X021413Y055509D02*
X021649Y055509D01*
X021649Y054919D01*
X021413Y054919D01*
X021373Y054722D02*
X021649Y054722D01*
X021649Y054131D01*
X021373Y054131D01*
X021157Y053993D02*
X021157Y053797D01*
X021157Y053993D02*
X020763Y053993D01*
X020763Y053797D01*
X020743Y054131D02*
X020468Y054131D01*
X020763Y053403D02*
X020763Y053206D01*
X021157Y053206D01*
X021157Y053403D01*
X022239Y054190D02*
X022239Y054387D01*
X022239Y054190D02*
X022633Y054190D01*
X022633Y054387D01*
X022633Y054781D02*
X022633Y054978D01*
X022239Y054978D01*
X022239Y054781D01*
X022239Y055096D02*
X022239Y055293D01*
X022239Y055096D02*
X022633Y055096D01*
X022633Y055293D01*
X022633Y055686D02*
X022633Y055883D01*
X022239Y055883D01*
X022239Y055686D01*
X023224Y057852D02*
X023224Y058049D01*
X023224Y057852D02*
X023617Y057852D01*
X023617Y058049D01*
X023617Y058442D02*
X023617Y058639D01*
X023224Y058639D01*
X023224Y058442D01*
X024956Y058521D02*
X025350Y058521D01*
X025350Y058324D01*
X025350Y057930D02*
X025350Y057734D01*
X024956Y057734D01*
X024956Y057930D01*
X024956Y058324D02*
X024956Y058521D01*
X024936Y055962D02*
X024936Y055726D01*
X024936Y055962D02*
X025527Y055962D01*
X025527Y055726D01*
X025527Y055017D02*
X025527Y054781D01*
X024936Y054781D01*
X024936Y055017D01*
X026964Y054584D02*
X026964Y054190D01*
X027161Y054190D01*
X027161Y053993D02*
X026964Y053993D01*
X026964Y053600D01*
X027161Y053600D01*
X027161Y053403D02*
X026964Y053403D01*
X026964Y053009D01*
X027161Y053009D01*
X027554Y053009D02*
X027751Y053009D01*
X027751Y053403D01*
X027554Y053403D01*
X027554Y053600D02*
X027751Y053600D01*
X027751Y053993D01*
X027554Y053993D01*
X027554Y054190D02*
X027751Y054190D01*
X027751Y054584D01*
X027554Y054584D01*
X027161Y054584D02*
X026964Y054584D01*
X028932Y052261D02*
X028932Y051671D01*
X029208Y051671D01*
X029247Y051336D02*
X029444Y051336D01*
X029247Y051336D02*
X029247Y050942D01*
X029444Y050942D01*
X029838Y050942D02*
X030035Y050942D01*
X030035Y051336D01*
X029838Y051336D01*
X029838Y051671D02*
X030113Y051671D01*
X030113Y052261D01*
X029838Y052261D01*
X029208Y052261D02*
X028932Y052261D01*
X032672Y052615D02*
X032672Y052812D01*
X032672Y052615D02*
X033066Y052615D01*
X033066Y052812D01*
X033066Y053206D02*
X033066Y053403D01*
X032672Y053403D01*
X032672Y053206D01*
X033755Y053167D02*
X033755Y053403D01*
X034346Y053403D01*
X034346Y053167D01*
X035035Y053167D02*
X035035Y053403D01*
X035625Y053403D01*
X035625Y053167D01*
X036314Y053206D02*
X036708Y053206D01*
X036708Y053009D01*
X036708Y052615D02*
X036708Y052419D01*
X036314Y052419D01*
X036314Y052615D01*
X036314Y053009D02*
X036314Y053206D01*
X035625Y052458D02*
X035625Y052222D01*
X035035Y052222D01*
X035035Y052458D01*
X034346Y052458D02*
X034346Y052222D01*
X033755Y052222D01*
X033755Y052458D01*
X034346Y054978D02*
X034739Y054978D01*
X034739Y055175D01*
X034739Y055568D02*
X034739Y055765D01*
X034346Y055765D01*
X034346Y055568D01*
X034346Y055175D02*
X034346Y054978D01*
X032180Y058127D02*
X031787Y058127D01*
X031787Y058324D01*
X032180Y058324D02*
X032180Y058127D01*
X032180Y058718D02*
X032180Y058915D01*
X031787Y058915D01*
X031787Y058718D01*
X030113Y058521D02*
X030113Y058127D01*
X029917Y058127D01*
X029917Y058521D02*
X030113Y058521D01*
X029523Y058521D02*
X029326Y058521D01*
X029326Y058127D01*
X029523Y058127D01*
X027948Y058127D02*
X027751Y058127D01*
X027948Y058127D02*
X027948Y058521D01*
X027751Y058521D01*
X027357Y058521D02*
X027161Y058521D01*
X027161Y058127D01*
X027357Y058127D01*
X019385Y057340D02*
X019385Y057104D01*
X019385Y057340D02*
X018794Y057340D01*
X018794Y057104D01*
X018302Y056946D02*
X018302Y056749D01*
X017909Y056749D01*
X017909Y056946D01*
X017712Y056946D02*
X017712Y056749D01*
X017318Y056749D01*
X017318Y056946D01*
X017121Y056946D02*
X017121Y056749D01*
X016728Y056749D01*
X016728Y056946D01*
X016531Y056946D02*
X016531Y056749D01*
X016137Y056749D01*
X016137Y056946D01*
X016137Y057340D02*
X016137Y057537D01*
X016531Y057537D01*
X016531Y057340D01*
X016728Y057340D02*
X016728Y057537D01*
X017121Y057537D01*
X017121Y057340D01*
X017318Y057340D02*
X017318Y057537D01*
X017712Y057537D01*
X017712Y057340D01*
X017909Y057340D02*
X017909Y057537D01*
X018302Y057537D01*
X018302Y057340D01*
X018794Y056395D02*
X018794Y056159D01*
X019385Y056159D01*
X019385Y056395D01*
X018302Y034899D02*
X017909Y034899D01*
X017909Y034702D01*
X018302Y034702D02*
X018302Y034899D01*
X018302Y034308D02*
X018302Y034112D01*
X017909Y034112D01*
X017909Y034308D01*
X016019Y031434D02*
X016019Y030489D01*
X014287Y030489D01*
X014287Y031434D01*
X016019Y031434D01*
X015940Y027615D02*
X015940Y027222D01*
X016137Y027222D01*
X016137Y027615D02*
X015940Y027615D01*
X016531Y027615D02*
X016728Y027615D01*
X016728Y027222D01*
X016531Y027222D01*
D17*
X018007Y040883D03*
D18*
X022633Y033521D03*
D19*
X034326Y032045D03*
X034365Y035982D03*
X034562Y041100D03*
D20*
X031767Y054997D03*
D21*
X030409Y026631D03*
X034739Y026631D03*
D22*
X028724Y048919D02*
X027724Y048919D01*
X027724Y051934D01*
X028724Y051934D01*
X028724Y048919D01*
X017818Y050147D02*
X016818Y050147D01*
X016818Y053163D01*
X017818Y053163D01*
X017818Y050147D01*
D23*
X017318Y050047D03*
X028224Y052035D03*
D24*
X015113Y034151D02*
X015231Y034033D01*
X014011Y035253D02*
X013893Y035371D01*
D25*
X017751Y046041D03*
D26*
X022180Y043462D02*
X022180Y043324D01*
X022121Y043324D01*
X022121Y043206D01*
X022180Y043206D01*
X022180Y043068D01*
X022259Y043068D01*
X022259Y043462D01*
X022180Y043462D01*
X018322Y035883D02*
X018243Y035883D01*
X018243Y035489D01*
X018322Y035489D01*
X018322Y035627D01*
X018381Y035627D01*
X018381Y035745D01*
X018322Y035745D01*
X018322Y035883D01*
D27*
X018243Y035883D01*
X018243Y035882D02*
X018322Y035882D01*
X018322Y035881D02*
X018243Y035881D01*
X018243Y035880D02*
X018322Y035880D01*
X018322Y035879D02*
X018243Y035879D01*
X018243Y035878D02*
X018322Y035878D01*
X018322Y035877D02*
X018243Y035877D01*
X018243Y035876D02*
X018322Y035876D01*
X018322Y035875D02*
X018243Y035875D01*
X018243Y035874D02*
X018322Y035874D01*
X018322Y035873D02*
X018243Y035873D01*
X018243Y035872D02*
X018322Y035872D01*
X018322Y035871D02*
X018243Y035871D01*
X018243Y035870D02*
X018322Y035870D01*
X018322Y035869D02*
X018243Y035869D01*
X018243Y035868D02*
X018322Y035868D01*
X018322Y035867D02*
X018243Y035867D01*
X018243Y035866D02*
X018322Y035866D01*
X018322Y035865D02*
X018243Y035865D01*
X018243Y035864D02*
X018322Y035864D01*
X018322Y035863D02*
X018243Y035863D01*
X018243Y035862D02*
X018322Y035862D01*
X018322Y035861D02*
X018243Y035861D01*
X018243Y035860D02*
X018322Y035860D01*
X018322Y035859D02*
X018243Y035859D01*
X018243Y035858D02*
X018322Y035858D01*
X018322Y035857D02*
X018243Y035857D01*
X018243Y035856D02*
X018322Y035856D01*
X018322Y035855D02*
X018243Y035855D01*
X018243Y035854D02*
X018322Y035854D01*
X018322Y035853D02*
X018243Y035853D01*
X018243Y035852D02*
X018322Y035852D01*
X018322Y035851D02*
X018243Y035851D01*
X018243Y035850D02*
X018322Y035850D01*
X018322Y035849D02*
X018243Y035849D01*
X018243Y035848D02*
X018322Y035848D01*
X018322Y035847D02*
X018243Y035847D01*
X018243Y035846D02*
X018322Y035846D01*
X018322Y035845D02*
X018243Y035845D01*
X018243Y035844D02*
X018322Y035844D01*
X018322Y035843D02*
X018243Y035843D01*
X018243Y035842D02*
X018322Y035842D01*
X018322Y035841D02*
X018243Y035841D01*
X018243Y035840D02*
X018322Y035840D01*
X018322Y035839D02*
X018243Y035839D01*
X018243Y035838D02*
X018322Y035838D01*
X018322Y035837D02*
X018243Y035837D01*
X018243Y035836D02*
X018322Y035836D01*
X018322Y035835D02*
X018243Y035835D01*
X018243Y035834D02*
X018322Y035834D01*
X018322Y035833D02*
X018243Y035833D01*
X018243Y035832D02*
X018322Y035832D01*
X018322Y035831D02*
X018243Y035831D01*
X018243Y035830D02*
X018322Y035830D01*
X018322Y035829D02*
X018243Y035829D01*
X018243Y035828D02*
X018322Y035828D01*
X018322Y035827D02*
X018243Y035827D01*
X018243Y035826D02*
X018322Y035826D01*
X018322Y035825D02*
X018243Y035825D01*
X018243Y035824D02*
X018322Y035824D01*
X018322Y035823D02*
X018243Y035823D01*
X018243Y035822D02*
X018322Y035822D01*
X018322Y035821D02*
X018243Y035821D01*
X018243Y035820D02*
X018322Y035820D01*
X018322Y035819D02*
X018243Y035819D01*
X018243Y035818D02*
X018322Y035818D01*
X018322Y035817D02*
X018243Y035817D01*
X018243Y035816D02*
X018322Y035816D01*
X018322Y035815D02*
X018243Y035815D01*
X018243Y035814D02*
X018322Y035814D01*
X018322Y035813D02*
X018243Y035813D01*
X018243Y035812D02*
X018322Y035812D01*
X018322Y035811D02*
X018243Y035811D01*
X018243Y035810D02*
X018322Y035810D01*
X018322Y035809D02*
X018243Y035809D01*
X018243Y035808D02*
X018322Y035808D01*
X018322Y035807D02*
X018243Y035807D01*
X018243Y035806D02*
X018322Y035806D01*
X018322Y035805D02*
X018243Y035805D01*
X018243Y035804D02*
X018322Y035804D01*
X018322Y035803D02*
X018243Y035803D01*
X018243Y035802D02*
X018322Y035802D01*
X018322Y035801D02*
X018243Y035801D01*
X018243Y035800D02*
X018322Y035800D01*
X018322Y035799D02*
X018243Y035799D01*
X018243Y035798D02*
X018322Y035798D01*
X018322Y035797D02*
X018243Y035797D01*
X018243Y035796D02*
X018322Y035796D01*
X018322Y035795D02*
X018243Y035795D01*
X018243Y035794D02*
X018322Y035794D01*
X018322Y035793D02*
X018243Y035793D01*
X018243Y035792D02*
X018322Y035792D01*
X018322Y035791D02*
X018243Y035791D01*
X018243Y035790D02*
X018322Y035790D01*
X018322Y035789D02*
X018243Y035789D01*
X018243Y035788D02*
X018322Y035788D01*
X018322Y035787D02*
X018243Y035787D01*
X018243Y035786D02*
X018322Y035786D01*
X018322Y035785D02*
X018243Y035785D01*
X018243Y035784D02*
X018322Y035784D01*
X018322Y035783D02*
X018243Y035783D01*
X018243Y035782D02*
X018322Y035782D01*
X018322Y035781D02*
X018243Y035781D01*
X018243Y035780D02*
X018322Y035780D01*
X018322Y035779D02*
X018243Y035779D01*
X018243Y035778D02*
X018322Y035778D01*
X018322Y035777D02*
X018243Y035777D01*
X018243Y035776D02*
X018322Y035776D01*
X018322Y035775D02*
X018243Y035775D01*
X018243Y035774D02*
X018322Y035774D01*
X018322Y035773D02*
X018243Y035773D01*
X018243Y035772D02*
X018322Y035772D01*
X018322Y035771D02*
X018243Y035771D01*
X018243Y035770D02*
X018322Y035770D01*
X018322Y035769D02*
X018243Y035769D01*
X018243Y035768D02*
X018322Y035768D01*
X018322Y035767D02*
X018243Y035767D01*
X018243Y035766D02*
X018322Y035766D01*
X018322Y035765D02*
X018243Y035765D01*
X018243Y035764D02*
X018322Y035764D01*
X018322Y035763D02*
X018243Y035763D01*
X018243Y035762D02*
X018322Y035762D01*
X018322Y035761D02*
X018243Y035761D01*
X018243Y035760D02*
X018322Y035760D01*
X018322Y035759D02*
X018243Y035759D01*
X018243Y035758D02*
X018322Y035758D01*
X018322Y035757D02*
X018243Y035757D01*
X018243Y035756D02*
X018322Y035756D01*
X018322Y035755D02*
X018243Y035755D01*
X018243Y035754D02*
X018322Y035754D01*
X018322Y035753D02*
X018243Y035753D01*
X018243Y035752D02*
X018322Y035752D01*
X018322Y035751D02*
X018243Y035751D01*
X018243Y035750D02*
X018322Y035750D01*
X018322Y035749D02*
X018243Y035749D01*
X018243Y035748D02*
X018322Y035748D01*
X018322Y035747D02*
X018243Y035747D01*
X018243Y035746D02*
X018322Y035746D01*
X018381Y035745D02*
X018243Y035745D01*
X018243Y035744D02*
X018381Y035744D01*
X018381Y035743D02*
X018243Y035743D01*
X018243Y035742D02*
X018381Y035742D01*
X018381Y035741D02*
X018243Y035741D01*
X018243Y035740D02*
X018381Y035740D01*
X018381Y035739D02*
X018243Y035739D01*
X018243Y035738D02*
X018381Y035738D01*
X018381Y035737D02*
X018243Y035737D01*
X018243Y035736D02*
X018381Y035736D01*
X018381Y035735D02*
X018243Y035735D01*
X018243Y035734D02*
X018381Y035734D01*
X018381Y035733D02*
X018243Y035733D01*
X018243Y035732D02*
X018381Y035732D01*
X018381Y035731D02*
X018243Y035731D01*
X018243Y035730D02*
X018381Y035730D01*
X018381Y035729D02*
X018243Y035729D01*
X018243Y035728D02*
X018381Y035728D01*
X018381Y035727D02*
X018243Y035727D01*
X018243Y035726D02*
X018381Y035726D01*
X018381Y035725D02*
X018243Y035725D01*
X018243Y035724D02*
X018381Y035724D01*
X018381Y035723D02*
X018243Y035723D01*
X018243Y035722D02*
X018381Y035722D01*
X018381Y035721D02*
X018243Y035721D01*
X018243Y035720D02*
X018381Y035720D01*
X018381Y035719D02*
X018243Y035719D01*
X018243Y035718D02*
X018381Y035718D01*
X018381Y035717D02*
X018243Y035717D01*
X018243Y035716D02*
X018381Y035716D01*
X018381Y035715D02*
X018243Y035715D01*
X018243Y035714D02*
X018381Y035714D01*
X018381Y035713D02*
X018243Y035713D01*
X018243Y035712D02*
X018381Y035712D01*
X018381Y035711D02*
X018243Y035711D01*
X018243Y035710D02*
X018381Y035710D01*
X018381Y035709D02*
X018243Y035709D01*
X018243Y035708D02*
X018381Y035708D01*
X018381Y035707D02*
X018243Y035707D01*
X018243Y035706D02*
X018381Y035706D01*
X018381Y035705D02*
X018243Y035705D01*
X018243Y035704D02*
X018381Y035704D01*
X018381Y035703D02*
X018243Y035703D01*
X018243Y035702D02*
X018381Y035702D01*
X018381Y035701D02*
X018243Y035701D01*
X018243Y035700D02*
X018381Y035700D01*
X018381Y035699D02*
X018243Y035699D01*
X018243Y035698D02*
X018381Y035698D01*
X018381Y035697D02*
X018243Y035697D01*
X018243Y035696D02*
X018381Y035696D01*
X018381Y035695D02*
X018243Y035695D01*
X018243Y035694D02*
X018381Y035694D01*
X018381Y035693D02*
X018243Y035693D01*
X018243Y035692D02*
X018381Y035692D01*
X018381Y035691D02*
X018243Y035691D01*
X018243Y035690D02*
X018381Y035690D01*
X018381Y035689D02*
X018243Y035689D01*
X018243Y035688D02*
X018381Y035688D01*
X018381Y035687D02*
X018243Y035687D01*
X018243Y035686D02*
X018381Y035686D01*
X018381Y035685D02*
X018243Y035685D01*
X018243Y035684D02*
X018381Y035684D01*
X018381Y035683D02*
X018243Y035683D01*
X018243Y035682D02*
X018381Y035682D01*
X018381Y035681D02*
X018243Y035681D01*
X018243Y035680D02*
X018381Y035680D01*
X018381Y035679D02*
X018243Y035679D01*
X018243Y035678D02*
X018381Y035678D01*
X018381Y035677D02*
X018243Y035677D01*
X018243Y035676D02*
X018381Y035676D01*
X018381Y035675D02*
X018243Y035675D01*
X018243Y035674D02*
X018381Y035674D01*
X018381Y035673D02*
X018243Y035673D01*
X018243Y035672D02*
X018381Y035672D01*
X018381Y035671D02*
X018243Y035671D01*
X018243Y035670D02*
X018381Y035670D01*
X018381Y035669D02*
X018243Y035669D01*
X018243Y035668D02*
X018381Y035668D01*
X018381Y035667D02*
X018243Y035667D01*
X018243Y035666D02*
X018381Y035666D01*
X018381Y035665D02*
X018243Y035665D01*
X018243Y035664D02*
X018381Y035664D01*
X018381Y035663D02*
X018243Y035663D01*
X018243Y035662D02*
X018381Y035662D01*
X018381Y035661D02*
X018243Y035661D01*
X018243Y035660D02*
X018381Y035660D01*
X018381Y035659D02*
X018243Y035659D01*
X018243Y035658D02*
X018381Y035658D01*
X018381Y035657D02*
X018243Y035657D01*
X018243Y035656D02*
X018381Y035656D01*
X018381Y035655D02*
X018243Y035655D01*
X018243Y035654D02*
X018381Y035654D01*
X018381Y035653D02*
X018243Y035653D01*
X018243Y035652D02*
X018381Y035652D01*
X018381Y035651D02*
X018243Y035651D01*
X018243Y035650D02*
X018381Y035650D01*
X018381Y035649D02*
X018243Y035649D01*
X018243Y035648D02*
X018381Y035648D01*
X018381Y035647D02*
X018243Y035647D01*
X018243Y035646D02*
X018381Y035646D01*
X018381Y035645D02*
X018243Y035645D01*
X018243Y035644D02*
X018381Y035644D01*
X018381Y035643D02*
X018243Y035643D01*
X018243Y035642D02*
X018381Y035642D01*
X018381Y035641D02*
X018243Y035641D01*
X018243Y035640D02*
X018381Y035640D01*
X018381Y035639D02*
X018243Y035639D01*
X018243Y035638D02*
X018381Y035638D01*
X018381Y035637D02*
X018243Y035637D01*
X018243Y035636D02*
X018381Y035636D01*
X018381Y035635D02*
X018243Y035635D01*
X018243Y035634D02*
X018381Y035634D01*
X018381Y035633D02*
X018243Y035633D01*
X018243Y035632D02*
X018381Y035632D01*
X018381Y035631D02*
X018243Y035631D01*
X018243Y035630D02*
X018381Y035630D01*
X018381Y035629D02*
X018243Y035629D01*
X018243Y035628D02*
X018381Y035628D01*
X018322Y035627D02*
X018243Y035627D01*
X018243Y035626D02*
X018322Y035626D01*
X018322Y035625D02*
X018243Y035625D01*
X018243Y035624D02*
X018322Y035624D01*
X018322Y035623D02*
X018243Y035623D01*
X018243Y035622D02*
X018322Y035622D01*
X018322Y035621D02*
X018243Y035621D01*
X018243Y035620D02*
X018322Y035620D01*
X018322Y035619D02*
X018243Y035619D01*
X018243Y035618D02*
X018322Y035618D01*
X018322Y035617D02*
X018243Y035617D01*
X018243Y035616D02*
X018322Y035616D01*
X018322Y035615D02*
X018243Y035615D01*
X018243Y035614D02*
X018322Y035614D01*
X018322Y035613D02*
X018243Y035613D01*
X018243Y035612D02*
X018322Y035612D01*
X018322Y035611D02*
X018243Y035611D01*
X018243Y035610D02*
X018322Y035610D01*
X018322Y035609D02*
X018243Y035609D01*
X018243Y035608D02*
X018322Y035608D01*
X018322Y035607D02*
X018243Y035607D01*
X018243Y035606D02*
X018322Y035606D01*
X018322Y035605D02*
X018243Y035605D01*
X018243Y035604D02*
X018322Y035604D01*
X018322Y035603D02*
X018243Y035603D01*
X018243Y035602D02*
X018322Y035602D01*
X018322Y035601D02*
X018243Y035601D01*
X018243Y035600D02*
X018322Y035600D01*
X018322Y035599D02*
X018243Y035599D01*
X018243Y035598D02*
X018322Y035598D01*
X018322Y035597D02*
X018243Y035597D01*
X018243Y035596D02*
X018322Y035596D01*
X018322Y035595D02*
X018243Y035595D01*
X018243Y035594D02*
X018322Y035594D01*
X018322Y035593D02*
X018243Y035593D01*
X018243Y035592D02*
X018322Y035592D01*
X018322Y035591D02*
X018243Y035591D01*
X018243Y035590D02*
X018322Y035590D01*
X018322Y035589D02*
X018243Y035589D01*
X018243Y035588D02*
X018322Y035588D01*
X018322Y035587D02*
X018243Y035587D01*
X018243Y035586D02*
X018322Y035586D01*
X018322Y035585D02*
X018243Y035585D01*
X018243Y035584D02*
X018322Y035584D01*
X018322Y035583D02*
X018243Y035583D01*
X018243Y035582D02*
X018322Y035582D01*
X018322Y035581D02*
X018243Y035581D01*
X018243Y035580D02*
X018322Y035580D01*
X018322Y035579D02*
X018243Y035579D01*
X018243Y035578D02*
X018322Y035578D01*
X018322Y035577D02*
X018243Y035577D01*
X018243Y035576D02*
X018322Y035576D01*
X018322Y035575D02*
X018243Y035575D01*
X018243Y035574D02*
X018322Y035574D01*
X018322Y035573D02*
X018243Y035573D01*
X018243Y035572D02*
X018322Y035572D01*
X018322Y035571D02*
X018243Y035571D01*
X018243Y035570D02*
X018322Y035570D01*
X018322Y035569D02*
X018243Y035569D01*
X018243Y035568D02*
X018322Y035568D01*
X018322Y035567D02*
X018243Y035567D01*
X018243Y035566D02*
X018322Y035566D01*
X018322Y035565D02*
X018243Y035565D01*
X018243Y035564D02*
X018322Y035564D01*
X018322Y035563D02*
X018243Y035563D01*
X018243Y035562D02*
X018322Y035562D01*
X018322Y035561D02*
X018243Y035561D01*
X018243Y035560D02*
X018322Y035560D01*
X018322Y035559D02*
X018243Y035559D01*
X018243Y035558D02*
X018322Y035558D01*
X018322Y035557D02*
X018243Y035557D01*
X018243Y035556D02*
X018322Y035556D01*
X018322Y035555D02*
X018243Y035555D01*
X018243Y035554D02*
X018322Y035554D01*
X018322Y035553D02*
X018243Y035553D01*
X018243Y035552D02*
X018322Y035552D01*
X018322Y035551D02*
X018243Y035551D01*
X018243Y035550D02*
X018322Y035550D01*
X018322Y035549D02*
X018243Y035549D01*
X018243Y035548D02*
X018322Y035548D01*
X018322Y035547D02*
X018243Y035547D01*
X018243Y035546D02*
X018322Y035546D01*
X018322Y035545D02*
X018243Y035545D01*
X018243Y035544D02*
X018322Y035544D01*
X018322Y035543D02*
X018243Y035543D01*
X018243Y035542D02*
X018322Y035542D01*
X018322Y035541D02*
X018243Y035541D01*
X018243Y035540D02*
X018322Y035540D01*
X018322Y035539D02*
X018243Y035539D01*
X018243Y035538D02*
X018322Y035538D01*
X018322Y035537D02*
X018243Y035537D01*
X018243Y035536D02*
X018322Y035536D01*
X018322Y035535D02*
X018243Y035535D01*
X018243Y035534D02*
X018322Y035534D01*
X018322Y035533D02*
X018243Y035533D01*
X018243Y035532D02*
X018322Y035532D01*
X018322Y035531D02*
X018243Y035531D01*
X018243Y035530D02*
X018322Y035530D01*
X018322Y035529D02*
X018243Y035529D01*
X018243Y035528D02*
X018322Y035528D01*
X018322Y035527D02*
X018243Y035527D01*
X018243Y035526D02*
X018322Y035526D01*
X018322Y035525D02*
X018243Y035525D01*
X018243Y035524D02*
X018322Y035524D01*
X018322Y035523D02*
X018243Y035523D01*
X018243Y035522D02*
X018322Y035522D01*
X018322Y035521D02*
X018243Y035521D01*
X018243Y035520D02*
X018322Y035520D01*
X018322Y035519D02*
X018243Y035519D01*
X018243Y035518D02*
X018322Y035518D01*
X018322Y035517D02*
X018243Y035517D01*
X018243Y035516D02*
X018322Y035516D01*
X018322Y035515D02*
X018243Y035515D01*
X018243Y035514D02*
X018322Y035514D01*
X018322Y035513D02*
X018243Y035513D01*
X018243Y035512D02*
X018322Y035512D01*
X018322Y035511D02*
X018243Y035511D01*
X018243Y035510D02*
X018322Y035510D01*
X018322Y035509D02*
X018243Y035509D01*
X018243Y035508D02*
X018322Y035508D01*
X018322Y035507D02*
X018243Y035507D01*
X018243Y035506D02*
X018322Y035506D01*
X018322Y035505D02*
X018243Y035505D01*
X018243Y035504D02*
X018322Y035504D01*
X018322Y035503D02*
X018243Y035503D01*
X018243Y035502D02*
X018322Y035502D01*
X018322Y035501D02*
X018243Y035501D01*
X018243Y035500D02*
X018322Y035500D01*
X018322Y035499D02*
X018243Y035499D01*
X018243Y035498D02*
X018322Y035498D01*
X018322Y035497D02*
X018243Y035497D01*
X018243Y035496D02*
X018322Y035496D01*
X018322Y035495D02*
X018243Y035495D01*
X018243Y035494D02*
X018322Y035494D01*
X018322Y035493D02*
X018243Y035493D01*
X018243Y035492D02*
X018322Y035492D01*
X018322Y035491D02*
X018243Y035491D01*
X018243Y035490D02*
X018322Y035490D01*
X022180Y043069D02*
X022259Y043069D01*
X022259Y043070D02*
X022180Y043070D01*
X022180Y043071D02*
X022259Y043071D01*
X022259Y043072D02*
X022180Y043072D01*
X022180Y043073D02*
X022259Y043073D01*
X022259Y043074D02*
X022180Y043074D01*
X022180Y043075D02*
X022259Y043075D01*
X022259Y043076D02*
X022180Y043076D01*
X022180Y043077D02*
X022259Y043077D01*
X022259Y043078D02*
X022180Y043078D01*
X022180Y043079D02*
X022259Y043079D01*
X022259Y043080D02*
X022180Y043080D01*
X022180Y043081D02*
X022259Y043081D01*
X022259Y043082D02*
X022180Y043082D01*
X022180Y043083D02*
X022259Y043083D01*
X022259Y043084D02*
X022180Y043084D01*
X022180Y043085D02*
X022259Y043085D01*
X022259Y043086D02*
X022180Y043086D01*
X022180Y043087D02*
X022259Y043087D01*
X022259Y043088D02*
X022180Y043088D01*
X022180Y043089D02*
X022259Y043089D01*
X022259Y043090D02*
X022180Y043090D01*
X022180Y043091D02*
X022259Y043091D01*
X022259Y043092D02*
X022180Y043092D01*
X022180Y043093D02*
X022259Y043093D01*
X022259Y043094D02*
X022180Y043094D01*
X022180Y043095D02*
X022259Y043095D01*
X022259Y043096D02*
X022180Y043096D01*
X022180Y043097D02*
X022259Y043097D01*
X022259Y043098D02*
X022180Y043098D01*
X022180Y043099D02*
X022259Y043099D01*
X022259Y043100D02*
X022180Y043100D01*
X022180Y043101D02*
X022259Y043101D01*
X022259Y043102D02*
X022180Y043102D01*
X022180Y043103D02*
X022259Y043103D01*
X022259Y043104D02*
X022180Y043104D01*
X022180Y043105D02*
X022259Y043105D01*
X022259Y043106D02*
X022180Y043106D01*
X022180Y043107D02*
X022259Y043107D01*
X022259Y043108D02*
X022180Y043108D01*
X022180Y043109D02*
X022259Y043109D01*
X022259Y043110D02*
X022180Y043110D01*
X022180Y043111D02*
X022259Y043111D01*
X022259Y043112D02*
X022180Y043112D01*
X022180Y043113D02*
X022259Y043113D01*
X022259Y043114D02*
X022180Y043114D01*
X022180Y043115D02*
X022259Y043115D01*
X022259Y043116D02*
X022180Y043116D01*
X022180Y043117D02*
X022259Y043117D01*
X022259Y043118D02*
X022180Y043118D01*
X022180Y043119D02*
X022259Y043119D01*
X022259Y043120D02*
X022180Y043120D01*
X022180Y043121D02*
X022259Y043121D01*
X022259Y043122D02*
X022180Y043122D01*
X022180Y043123D02*
X022259Y043123D01*
X022259Y043124D02*
X022180Y043124D01*
X022180Y043125D02*
X022259Y043125D01*
X022259Y043126D02*
X022180Y043126D01*
X022180Y043127D02*
X022259Y043127D01*
X022259Y043128D02*
X022180Y043128D01*
X022180Y043129D02*
X022259Y043129D01*
X022259Y043130D02*
X022180Y043130D01*
X022180Y043131D02*
X022259Y043131D01*
X022259Y043132D02*
X022180Y043132D01*
X022180Y043133D02*
X022259Y043133D01*
X022259Y043134D02*
X022180Y043134D01*
X022180Y043135D02*
X022259Y043135D01*
X022259Y043136D02*
X022180Y043136D01*
X022180Y043137D02*
X022259Y043137D01*
X022259Y043138D02*
X022180Y043138D01*
X022180Y043139D02*
X022259Y043139D01*
X022259Y043140D02*
X022180Y043140D01*
X022180Y043141D02*
X022259Y043141D01*
X022259Y043142D02*
X022180Y043142D01*
X022180Y043143D02*
X022259Y043143D01*
X022259Y043144D02*
X022180Y043144D01*
X022180Y043145D02*
X022259Y043145D01*
X022259Y043146D02*
X022180Y043146D01*
X022180Y043147D02*
X022259Y043147D01*
X022259Y043148D02*
X022180Y043148D01*
X022180Y043149D02*
X022259Y043149D01*
X022259Y043150D02*
X022180Y043150D01*
X022180Y043151D02*
X022259Y043151D01*
X022259Y043152D02*
X022180Y043152D01*
X022180Y043153D02*
X022259Y043153D01*
X022259Y043154D02*
X022180Y043154D01*
X022180Y043155D02*
X022259Y043155D01*
X022259Y043156D02*
X022180Y043156D01*
X022180Y043157D02*
X022259Y043157D01*
X022259Y043158D02*
X022180Y043158D01*
X022180Y043159D02*
X022259Y043159D01*
X022259Y043160D02*
X022180Y043160D01*
X022180Y043161D02*
X022259Y043161D01*
X022259Y043162D02*
X022180Y043162D01*
X022180Y043163D02*
X022259Y043163D01*
X022259Y043164D02*
X022180Y043164D01*
X022180Y043165D02*
X022259Y043165D01*
X022259Y043166D02*
X022180Y043166D01*
X022180Y043167D02*
X022259Y043167D01*
X022259Y043168D02*
X022180Y043168D01*
X022180Y043169D02*
X022259Y043169D01*
X022259Y043170D02*
X022180Y043170D01*
X022180Y043171D02*
X022259Y043171D01*
X022259Y043172D02*
X022180Y043172D01*
X022180Y043173D02*
X022259Y043173D01*
X022259Y043174D02*
X022180Y043174D01*
X022180Y043175D02*
X022259Y043175D01*
X022259Y043176D02*
X022180Y043176D01*
X022180Y043177D02*
X022259Y043177D01*
X022259Y043178D02*
X022180Y043178D01*
X022180Y043179D02*
X022259Y043179D01*
X022259Y043180D02*
X022180Y043180D01*
X022180Y043181D02*
X022259Y043181D01*
X022259Y043182D02*
X022180Y043182D01*
X022180Y043183D02*
X022259Y043183D01*
X022259Y043184D02*
X022180Y043184D01*
X022180Y043185D02*
X022259Y043185D01*
X022259Y043186D02*
X022180Y043186D01*
X022180Y043187D02*
X022259Y043187D01*
X022259Y043188D02*
X022180Y043188D01*
X022180Y043189D02*
X022259Y043189D01*
X022259Y043190D02*
X022180Y043190D01*
X022180Y043191D02*
X022259Y043191D01*
X022259Y043192D02*
X022180Y043192D01*
X022180Y043193D02*
X022259Y043193D01*
X022259Y043194D02*
X022180Y043194D01*
X022180Y043195D02*
X022259Y043195D01*
X022259Y043196D02*
X022180Y043196D01*
X022180Y043197D02*
X022259Y043197D01*
X022259Y043198D02*
X022180Y043198D01*
X022180Y043199D02*
X022259Y043199D01*
X022259Y043200D02*
X022180Y043200D01*
X022180Y043201D02*
X022259Y043201D01*
X022259Y043202D02*
X022180Y043202D01*
X022180Y043203D02*
X022259Y043203D01*
X022259Y043204D02*
X022180Y043204D01*
X022180Y043205D02*
X022259Y043205D01*
X022259Y043206D02*
X022180Y043206D01*
X022121Y043207D02*
X022259Y043207D01*
X022259Y043208D02*
X022121Y043208D01*
X022121Y043209D02*
X022259Y043209D01*
X022259Y043210D02*
X022121Y043210D01*
X022259Y043210D01*
X022259Y043211D02*
X022121Y043211D01*
X022121Y043212D02*
X022259Y043212D01*
X022259Y043213D02*
X022121Y043213D01*
X022121Y043214D02*
X022259Y043214D01*
X022259Y043215D02*
X022121Y043215D01*
X022121Y043216D02*
X022259Y043216D01*
X022259Y043217D02*
X022121Y043217D01*
X022121Y043218D02*
X022259Y043218D01*
X022259Y043219D02*
X022121Y043219D01*
X022121Y043220D02*
X022259Y043220D01*
X022259Y043221D02*
X022121Y043221D01*
X022121Y043222D02*
X022259Y043222D01*
X022259Y043223D02*
X022121Y043223D01*
X022121Y043224D02*
X022259Y043224D01*
X022259Y043225D02*
X022121Y043225D01*
X022121Y043226D02*
X022259Y043226D01*
X022259Y043227D02*
X022121Y043227D01*
X022121Y043228D02*
X022259Y043228D01*
X022259Y043229D02*
X022121Y043229D01*
X022121Y043230D02*
X022259Y043230D01*
X022259Y043231D02*
X022121Y043231D01*
X022121Y043232D02*
X022259Y043232D01*
X022259Y043233D02*
X022121Y043233D01*
X022121Y043234D02*
X022259Y043234D01*
X022259Y043235D02*
X022121Y043235D01*
X022121Y043236D02*
X022259Y043236D01*
X022259Y043237D02*
X022121Y043237D01*
X022121Y043238D02*
X022259Y043238D01*
X022259Y043239D02*
X022121Y043239D01*
X022121Y043240D02*
X022259Y043240D01*
X022259Y043241D02*
X022121Y043241D01*
X022121Y043242D02*
X022259Y043242D01*
X022259Y043243D02*
X022121Y043243D01*
X022121Y043244D02*
X022259Y043244D01*
X022259Y043245D02*
X022121Y043245D01*
X022121Y043246D02*
X022259Y043246D01*
X022259Y043247D02*
X022121Y043247D01*
X022121Y043248D02*
X022259Y043248D01*
X022259Y043249D02*
X022121Y043249D01*
X022121Y043250D02*
X022259Y043250D01*
X022259Y043251D02*
X022121Y043251D01*
X022121Y043252D02*
X022259Y043252D01*
X022259Y043253D02*
X022121Y043253D01*
X022121Y043254D02*
X022259Y043254D01*
X022259Y043255D02*
X022121Y043255D01*
X022121Y043256D02*
X022259Y043256D01*
X022259Y043257D02*
X022121Y043257D01*
X022121Y043258D02*
X022259Y043258D01*
X022259Y043259D02*
X022121Y043259D01*
X022121Y043260D02*
X022259Y043260D01*
X022259Y043261D02*
X022121Y043261D01*
X022121Y043262D02*
X022259Y043262D01*
X022259Y043263D02*
X022121Y043263D01*
X022121Y043264D02*
X022259Y043264D01*
X022259Y043265D02*
X022121Y043265D01*
X022121Y043266D02*
X022259Y043266D01*
X022259Y043267D02*
X022121Y043267D01*
X022121Y043268D02*
X022259Y043268D01*
X022259Y043269D02*
X022121Y043269D01*
X022121Y043270D02*
X022259Y043270D01*
X022259Y043271D02*
X022121Y043271D01*
X022121Y043272D02*
X022259Y043272D01*
X022259Y043273D02*
X022121Y043273D01*
X022121Y043274D02*
X022259Y043274D01*
X022259Y043275D02*
X022121Y043275D01*
X022121Y043276D02*
X022259Y043276D01*
X022259Y043277D02*
X022121Y043277D01*
X022121Y043278D02*
X022259Y043278D01*
X022259Y043279D02*
X022121Y043279D01*
X022121Y043280D02*
X022259Y043280D01*
X022259Y043281D02*
X022121Y043281D01*
X022121Y043282D02*
X022259Y043282D01*
X022259Y043283D02*
X022121Y043283D01*
X022121Y043284D02*
X022259Y043284D01*
X022259Y043285D02*
X022121Y043285D01*
X022121Y043286D02*
X022259Y043286D01*
X022259Y043287D02*
X022121Y043287D01*
X022121Y043288D02*
X022259Y043288D01*
X022259Y043289D02*
X022121Y043289D01*
X022121Y043290D02*
X022259Y043290D01*
X022259Y043291D02*
X022121Y043291D01*
X022121Y043292D02*
X022259Y043292D01*
X022259Y043293D02*
X022121Y043293D01*
X022121Y043294D02*
X022259Y043294D01*
X022259Y043295D02*
X022121Y043295D01*
X022121Y043296D02*
X022259Y043296D01*
X022259Y043297D02*
X022121Y043297D01*
X022121Y043298D02*
X022259Y043298D01*
X022259Y043299D02*
X022121Y043299D01*
X022121Y043300D02*
X022259Y043300D01*
X022259Y043301D02*
X022121Y043301D01*
X022121Y043302D02*
X022259Y043302D01*
X022259Y043303D02*
X022121Y043303D01*
X022121Y043304D02*
X022259Y043304D01*
X022259Y043305D02*
X022121Y043305D01*
X022121Y043306D02*
X022259Y043306D01*
X022259Y043307D02*
X022121Y043307D01*
X022121Y043308D02*
X022259Y043308D01*
X022259Y043309D02*
X022121Y043309D01*
X022121Y043310D02*
X022259Y043310D01*
X022259Y043311D02*
X022121Y043311D01*
X022121Y043312D02*
X022259Y043312D01*
X022259Y043313D02*
X022121Y043313D01*
X022121Y043314D02*
X022259Y043314D01*
X022259Y043315D02*
X022121Y043315D01*
X022121Y043316D02*
X022259Y043316D01*
X022259Y043317D02*
X022121Y043317D01*
X022121Y043318D02*
X022259Y043318D01*
X022259Y043319D02*
X022121Y043319D01*
X022121Y043320D02*
X022259Y043320D01*
X022259Y043321D02*
X022121Y043321D01*
X022121Y043322D02*
X022259Y043322D01*
X022259Y043323D02*
X022121Y043323D01*
X022180Y043324D02*
X022259Y043324D01*
X022259Y043325D02*
X022180Y043325D01*
X022180Y043326D02*
X022259Y043326D01*
X022259Y043327D02*
X022180Y043327D01*
X022180Y043328D02*
X022259Y043328D01*
X022259Y043329D02*
X022180Y043329D01*
X022180Y043330D02*
X022259Y043330D01*
X022259Y043331D02*
X022180Y043331D01*
X022180Y043332D02*
X022259Y043332D01*
X022259Y043333D02*
X022180Y043333D01*
X022180Y043334D02*
X022259Y043334D01*
X022259Y043335D02*
X022180Y043335D01*
X022180Y043336D02*
X022259Y043336D01*
X022259Y043337D02*
X022180Y043337D01*
X022180Y043338D02*
X022259Y043338D01*
X022259Y043339D02*
X022180Y043339D01*
X022180Y043340D02*
X022259Y043340D01*
X022259Y043341D02*
X022180Y043341D01*
X022180Y043342D02*
X022259Y043342D01*
X022259Y043343D02*
X022180Y043343D01*
X022180Y043344D02*
X022259Y043344D01*
X022259Y043345D02*
X022180Y043345D01*
X022180Y043346D02*
X022259Y043346D01*
X022259Y043347D02*
X022180Y043347D01*
X022180Y043348D02*
X022259Y043348D01*
X022259Y043349D02*
X022180Y043349D01*
X022180Y043350D02*
X022259Y043350D01*
X022259Y043351D02*
X022180Y043351D01*
X022180Y043352D02*
X022259Y043352D01*
X022259Y043353D02*
X022180Y043353D01*
X022180Y043354D02*
X022259Y043354D01*
X022259Y043355D02*
X022180Y043355D01*
X022180Y043356D02*
X022259Y043356D01*
X022259Y043357D02*
X022180Y043357D01*
X022180Y043358D02*
X022259Y043358D01*
X022259Y043359D02*
X022180Y043359D01*
X022180Y043360D02*
X022259Y043360D01*
X022259Y043361D02*
X022180Y043361D01*
X022180Y043362D02*
X022259Y043362D01*
X022259Y043363D02*
X022180Y043363D01*
X022180Y043364D02*
X022259Y043364D01*
X022259Y043365D02*
X022180Y043365D01*
X022180Y043366D02*
X022259Y043366D01*
X022259Y043367D02*
X022180Y043367D01*
X022180Y043368D02*
X022259Y043368D01*
X022259Y043369D02*
X022180Y043369D01*
X022180Y043370D02*
X022259Y043370D01*
X022259Y043371D02*
X022180Y043371D01*
X022180Y043372D02*
X022259Y043372D01*
X022259Y043373D02*
X022180Y043373D01*
X022180Y043374D02*
X022259Y043374D01*
X022259Y043375D02*
X022180Y043375D01*
X022180Y043376D02*
X022259Y043376D01*
X022259Y043377D02*
X022180Y043377D01*
X022180Y043378D02*
X022259Y043378D01*
X022259Y043379D02*
X022180Y043379D01*
X022180Y043380D02*
X022259Y043380D01*
X022259Y043381D02*
X022180Y043381D01*
X022180Y043382D02*
X022259Y043382D01*
X022259Y043383D02*
X022180Y043383D01*
X022180Y043384D02*
X022259Y043384D01*
X022259Y043385D02*
X022180Y043385D01*
X022180Y043386D02*
X022259Y043386D01*
X022259Y043387D02*
X022180Y043387D01*
X022180Y043388D02*
X022259Y043388D01*
X022259Y043389D02*
X022180Y043389D01*
X022180Y043390D02*
X022259Y043390D01*
X022259Y043391D02*
X022180Y043391D01*
X022180Y043392D02*
X022259Y043392D01*
X022259Y043393D02*
X022180Y043393D01*
X022180Y043394D02*
X022259Y043394D01*
X022259Y043395D02*
X022180Y043395D01*
X022180Y043396D02*
X022259Y043396D01*
X022259Y043397D02*
X022180Y043397D01*
X022180Y043398D02*
X022259Y043398D01*
X022259Y043399D02*
X022180Y043399D01*
X022180Y043400D02*
X022259Y043400D01*
X022259Y043401D02*
X022180Y043401D01*
X022180Y043402D02*
X022259Y043402D01*
X022259Y043403D02*
X022180Y043403D01*
X022180Y043404D02*
X022259Y043404D01*
X022259Y043405D02*
X022180Y043405D01*
X022180Y043406D02*
X022259Y043406D01*
X022259Y043407D02*
X022180Y043407D01*
X022180Y043408D02*
X022259Y043408D01*
X022259Y043409D02*
X022180Y043409D01*
X022180Y043410D02*
X022259Y043410D01*
X022259Y043411D02*
X022180Y043411D01*
X022180Y043412D02*
X022259Y043412D01*
X022259Y043413D02*
X022180Y043413D01*
X022180Y043414D02*
X022259Y043414D01*
X022259Y043415D02*
X022180Y043415D01*
X022180Y043416D02*
X022259Y043416D01*
X022259Y043417D02*
X022180Y043417D01*
X022180Y043418D02*
X022259Y043418D01*
X022259Y043419D02*
X022180Y043419D01*
X022180Y043420D02*
X022259Y043420D01*
X022259Y043421D02*
X022180Y043421D01*
X022180Y043422D02*
X022259Y043422D01*
X022259Y043423D02*
X022180Y043423D01*
X022180Y043424D02*
X022259Y043424D01*
X022259Y043425D02*
X022180Y043425D01*
X022180Y043426D02*
X022259Y043426D01*
X022259Y043427D02*
X022180Y043427D01*
X022180Y043428D02*
X022259Y043428D01*
X022259Y043429D02*
X022180Y043429D01*
X022180Y043430D02*
X022259Y043430D01*
X022259Y043431D02*
X022180Y043431D01*
X022180Y043432D02*
X022259Y043432D01*
X022259Y043433D02*
X022180Y043433D01*
X022180Y043434D02*
X022259Y043434D01*
X022259Y043435D02*
X022180Y043435D01*
X022180Y043436D02*
X022259Y043436D01*
X022259Y043437D02*
X022180Y043437D01*
X022180Y043438D02*
X022259Y043438D01*
X022259Y043439D02*
X022180Y043439D01*
X022180Y043440D02*
X022259Y043440D01*
X022259Y043441D02*
X022180Y043441D01*
X022180Y043442D02*
X022259Y043442D01*
X022259Y043443D02*
X022180Y043443D01*
X022180Y043444D02*
X022259Y043444D01*
X022259Y043445D02*
X022180Y043445D01*
X022180Y043446D02*
X022259Y043446D01*
X022259Y043447D02*
X022180Y043447D01*
X022180Y043448D02*
X022259Y043448D01*
X022259Y043449D02*
X022180Y043449D01*
X022180Y043450D02*
X022259Y043450D01*
X022259Y043451D02*
X022180Y043451D01*
X022180Y043452D02*
X022259Y043452D01*
X022259Y043453D02*
X022180Y043453D01*
X022180Y043454D02*
X022259Y043454D01*
X022259Y043455D02*
X022180Y043455D01*
X022180Y043456D02*
X022259Y043456D01*
X022259Y043457D02*
X022180Y043457D01*
X022180Y043458D02*
X022259Y043458D01*
X022259Y043459D02*
X022180Y043459D01*
X022180Y043460D02*
X022259Y043460D01*
X022259Y043461D02*
X022180Y043461D01*
D28*
X021413Y043068D03*
X019090Y035883D03*
M02*
