G75*
%MOIN*%
%OFA0B0*%
%FSLAX24Y24*%
%IPPOS*%
%LPD*%
%AMOC8*
5,1,8,0,0,1.08239X$1,22.5*
%
%ADD10C,0.0059*%
%ADD11C,0.0134*%
%ADD12C,0.0364*%
%ADD13C,0.0108*%
%ADD14C,0.0084*%
%ADD15C,0.0098*%
%ADD16C,0.0079*%
%ADD17C,0.0118*%
%ADD18C,0.0069*%
%ADD19R,0.0945X0.1260*%
%ADD20C,0.0133*%
%ADD21C,0.0839*%
%ADD22R,0.0779X0.0779*%
%ADD23C,0.0779*%
%ADD24R,0.0639X0.0639*%
%ADD25C,0.0639*%
%ADD26C,0.0217*%
%ADD27C,0.0049*%
%ADD28C,0.0083*%
%ADD29C,0.0270*%
%ADD30C,0.0089*%
%ADD31C,0.0137*%
%ADD32C,0.0146*%
%ADD33C,0.0167*%
%ADD34R,0.0787X0.0787*%
%ADD35C,0.0157*%
%ADD36R,0.0579X0.0579*%
%ADD37C,0.0207*%
%ADD38C,0.0128*%
%ADD39C,0.0787*%
%ADD40R,0.0551X0.0551*%
%ADD41C,0.0551*%
%ADD42C,0.0739*%
%ADD43C,0.0709*%
%ADD44C,0.0433*%
%ADD45C,0.0472*%
%ADD46C,0.0579*%
%ADD47C,0.2619*%
D10*
X012594Y020529D02*
X012594Y059899D01*
X038184Y059899D01*
X038184Y020529D01*
X012594Y020529D01*
D11*
X023420Y054879D03*
X023420Y055076D03*
X023420Y055273D03*
X023617Y055273D03*
X023617Y055470D03*
X023814Y055470D03*
X023814Y055273D03*
X023814Y055076D03*
X023617Y055076D03*
X023617Y054879D03*
X023814Y054879D03*
D12*
X033179Y051981D02*
X033179Y050613D01*
X032087Y050613D01*
X032087Y051981D01*
X033179Y051981D01*
X033179Y050976D02*
X032087Y050976D01*
X032087Y051339D02*
X033179Y051339D01*
X033179Y051702D02*
X032087Y051702D01*
X033179Y049107D02*
X033179Y047739D01*
X032087Y047739D01*
X032087Y049107D01*
X033179Y049107D01*
X033179Y048102D02*
X032087Y048102D01*
X032087Y048465D02*
X033179Y048465D01*
X033179Y048828D02*
X032087Y048828D01*
X036762Y048122D02*
X036762Y046754D01*
X035670Y046754D01*
X035670Y048122D01*
X036762Y048122D01*
X036762Y047117D02*
X035670Y047117D01*
X035670Y047480D02*
X036762Y047480D01*
X036762Y047843D02*
X035670Y047843D01*
X036762Y049628D02*
X036762Y050996D01*
X036762Y049628D02*
X035670Y049628D01*
X035670Y050996D01*
X036762Y050996D01*
X036762Y049991D02*
X035670Y049991D01*
X035670Y050354D02*
X036762Y050354D01*
X036762Y050717D02*
X035670Y050717D01*
X018455Y031705D02*
X018455Y030337D01*
X017363Y030337D01*
X017363Y031705D01*
X018455Y031705D01*
X018455Y030700D02*
X017363Y030700D01*
X017363Y031063D02*
X018455Y031063D01*
X018455Y031426D02*
X017363Y031426D01*
X018455Y028831D02*
X018455Y027463D01*
X017363Y027463D01*
X017363Y028831D01*
X018455Y028831D01*
X018455Y027826D02*
X017363Y027826D01*
X017363Y028189D02*
X018455Y028189D01*
X018455Y028552D02*
X017363Y028552D01*
D13*
X021102Y039451D02*
X021102Y039795D01*
X021102Y039451D02*
X020778Y039451D01*
X020778Y039795D01*
X021102Y039795D01*
X021102Y039558D02*
X020778Y039558D01*
X020778Y039665D02*
X021102Y039665D01*
X021102Y039772D02*
X020778Y039772D01*
X021732Y039795D02*
X021732Y039451D01*
X021408Y039451D01*
X021408Y039795D01*
X021732Y039795D01*
X021732Y039558D02*
X021408Y039558D01*
X021408Y039665D02*
X021732Y039665D01*
X021732Y039772D02*
X021408Y039772D01*
X021732Y040632D02*
X021732Y040976D01*
X021732Y040632D02*
X021408Y040632D01*
X021408Y040976D01*
X021732Y040976D01*
X021732Y040739D02*
X021408Y040739D01*
X021408Y040846D02*
X021732Y040846D01*
X021732Y040953D02*
X021408Y040953D01*
X021102Y040976D02*
X021102Y040632D01*
X020778Y040632D01*
X020778Y040976D01*
X021102Y040976D01*
X021102Y040739D02*
X020778Y040739D01*
X020778Y040846D02*
X021102Y040846D01*
X021102Y040953D02*
X020778Y040953D01*
X017392Y043703D02*
X017048Y043703D01*
X017392Y043703D02*
X017392Y043379D01*
X017048Y043379D01*
X017048Y043703D01*
X017048Y043486D02*
X017392Y043486D01*
X017392Y043593D02*
X017048Y043593D01*
X017048Y043700D02*
X017392Y043700D01*
X017392Y044333D02*
X017048Y044333D01*
X017392Y044333D02*
X017392Y044009D01*
X017048Y044009D01*
X017048Y044333D01*
X017048Y044116D02*
X017392Y044116D01*
X017392Y044223D02*
X017048Y044223D01*
X017048Y044330D02*
X017392Y044330D01*
X014734Y044234D02*
X014390Y044234D01*
X014734Y044234D02*
X014734Y043910D01*
X014390Y043910D01*
X014390Y044234D01*
X014390Y044017D02*
X014734Y044017D01*
X014734Y044124D02*
X014390Y044124D01*
X014390Y044231D02*
X014734Y044231D01*
X014734Y043604D02*
X014390Y043604D01*
X014734Y043604D02*
X014734Y043280D01*
X014390Y043280D01*
X014390Y043604D01*
X014390Y043387D02*
X014734Y043387D01*
X014734Y043494D02*
X014390Y043494D01*
X014390Y043601D02*
X014734Y043601D01*
X021605Y045357D02*
X021605Y045701D01*
X021929Y045701D01*
X021929Y045357D01*
X021605Y045357D01*
X021605Y045464D02*
X021929Y045464D01*
X021929Y045571D02*
X021605Y045571D01*
X021605Y045678D02*
X021929Y045678D01*
X022235Y045701D02*
X022235Y045357D01*
X022235Y045701D02*
X022559Y045701D01*
X022559Y045357D01*
X022235Y045357D01*
X022235Y045464D02*
X022559Y045464D01*
X022559Y045571D02*
X022235Y045571D01*
X022235Y045678D02*
X022559Y045678D01*
X024951Y045947D02*
X024951Y046291D01*
X025275Y046291D01*
X025275Y045947D01*
X024951Y045947D01*
X024951Y046054D02*
X025275Y046054D01*
X025275Y046161D02*
X024951Y046161D01*
X024951Y046268D02*
X025275Y046268D01*
X025581Y046291D02*
X025581Y045947D01*
X025581Y046291D02*
X025905Y046291D01*
X025905Y045947D01*
X025581Y045947D01*
X025581Y046054D02*
X025905Y046054D01*
X025905Y046161D02*
X025581Y046161D01*
X025581Y046268D02*
X025905Y046268D01*
X026496Y046291D02*
X026496Y045947D01*
X026172Y045947D01*
X026172Y046291D01*
X026496Y046291D01*
X026496Y046054D02*
X026172Y046054D01*
X026172Y046161D02*
X026496Y046161D01*
X026496Y046268D02*
X026172Y046268D01*
X027126Y046291D02*
X027126Y045947D01*
X026802Y045947D01*
X026802Y046291D01*
X027126Y046291D01*
X027126Y046054D02*
X026802Y046054D01*
X026802Y046161D02*
X027126Y046161D01*
X027126Y046268D02*
X026802Y046268D01*
X029370Y051794D02*
X029370Y052138D01*
X029370Y051794D02*
X029046Y051794D01*
X029046Y052138D01*
X029370Y052138D01*
X029370Y051901D02*
X029046Y051901D01*
X029046Y052008D02*
X029370Y052008D01*
X029370Y052115D02*
X029046Y052115D01*
X030000Y052138D02*
X030000Y051794D01*
X029676Y051794D01*
X029676Y052138D01*
X030000Y052138D01*
X030000Y051901D02*
X029676Y051901D01*
X029676Y052008D02*
X030000Y052008D01*
X030000Y052115D02*
X029676Y052115D01*
X032894Y046203D02*
X033238Y046203D01*
X033238Y045879D01*
X032894Y045879D01*
X032894Y046203D01*
X032894Y045986D02*
X033238Y045986D01*
X033238Y046093D02*
X032894Y046093D01*
X032894Y046200D02*
X033238Y046200D01*
X033238Y045573D02*
X032894Y045573D01*
X033238Y045573D02*
X033238Y045249D01*
X032894Y045249D01*
X032894Y045573D01*
X032894Y045356D02*
X033238Y045356D01*
X033238Y045463D02*
X032894Y045463D01*
X032894Y045570D02*
X033238Y045570D01*
X032451Y042532D02*
X032107Y042532D01*
X032107Y042856D01*
X032451Y042856D01*
X032451Y042532D01*
X032451Y042639D02*
X032107Y042639D01*
X032107Y042746D02*
X032451Y042746D01*
X032451Y042853D02*
X032107Y042853D01*
X032107Y041902D02*
X032451Y041902D01*
X032107Y041902D02*
X032107Y042226D01*
X032451Y042226D01*
X032451Y041902D01*
X032451Y042009D02*
X032107Y042009D01*
X032107Y042116D02*
X032451Y042116D01*
X032451Y042223D02*
X032107Y042223D01*
X036634Y035966D02*
X036978Y035966D01*
X036978Y035642D01*
X036634Y035642D01*
X036634Y035966D01*
X036634Y035749D02*
X036978Y035749D01*
X036978Y035856D02*
X036634Y035856D01*
X036634Y035963D02*
X036978Y035963D01*
X036978Y035337D02*
X036634Y035337D01*
X036978Y035337D02*
X036978Y035013D01*
X036634Y035013D01*
X036634Y035337D01*
X036634Y035120D02*
X036978Y035120D01*
X036978Y035227D02*
X036634Y035227D01*
X036634Y035334D02*
X036978Y035334D01*
X021211Y054254D02*
X021211Y054598D01*
X021535Y054598D01*
X021535Y054254D01*
X021211Y054254D01*
X021211Y054361D02*
X021535Y054361D01*
X021535Y054468D02*
X021211Y054468D01*
X021211Y054575D02*
X021535Y054575D01*
X020581Y054598D02*
X020581Y054254D01*
X020581Y054598D02*
X020905Y054598D01*
X020905Y054254D01*
X020581Y054254D01*
X020581Y054361D02*
X020905Y054361D01*
X020905Y054468D02*
X020581Y054468D01*
X020581Y054575D02*
X020905Y054575D01*
D14*
X020835Y053902D02*
X021085Y053902D01*
X021085Y053652D01*
X020835Y053652D01*
X020835Y053902D01*
X020835Y053735D02*
X021085Y053735D01*
X021085Y053818D02*
X020835Y053818D01*
X020835Y053901D02*
X021085Y053901D01*
X021085Y053548D02*
X020835Y053548D01*
X021085Y053548D02*
X021085Y053298D01*
X020835Y053298D01*
X020835Y053548D01*
X020835Y053381D02*
X021085Y053381D01*
X021085Y053464D02*
X020835Y053464D01*
X020835Y053547D02*
X021085Y053547D01*
X020297Y053548D02*
X020047Y053548D01*
X020297Y053548D02*
X020297Y053298D01*
X020047Y053298D01*
X020047Y053548D01*
X020047Y053381D02*
X020297Y053381D01*
X020297Y053464D02*
X020047Y053464D01*
X020047Y053547D02*
X020297Y053547D01*
X020297Y053902D02*
X020047Y053902D01*
X020297Y053902D02*
X020297Y053652D01*
X020047Y053652D01*
X020047Y053902D01*
X020047Y053735D02*
X020297Y053735D01*
X020297Y053818D02*
X020047Y053818D01*
X020047Y053901D02*
X020297Y053901D01*
X018748Y051559D02*
X018748Y051309D01*
X018748Y051559D02*
X018998Y051559D01*
X018998Y051309D01*
X018748Y051309D01*
X018748Y051392D02*
X018998Y051392D01*
X018998Y051475D02*
X018748Y051475D01*
X018748Y051558D02*
X018998Y051558D01*
X018394Y051559D02*
X018394Y051309D01*
X018394Y051559D02*
X018644Y051559D01*
X018644Y051309D01*
X018394Y051309D01*
X018394Y051392D02*
X018644Y051392D01*
X018644Y051475D02*
X018394Y051475D01*
X018394Y051558D02*
X018644Y051558D01*
X020284Y047366D02*
X020284Y047116D01*
X020284Y047366D02*
X020534Y047366D01*
X020534Y047116D01*
X020284Y047116D01*
X020284Y047199D02*
X020534Y047199D01*
X020534Y047282D02*
X020284Y047282D01*
X020284Y047365D02*
X020534Y047365D01*
X020638Y047366D02*
X020638Y047116D01*
X020638Y047366D02*
X020888Y047366D01*
X020888Y047116D01*
X020638Y047116D01*
X020638Y047199D02*
X020888Y047199D01*
X020888Y047282D02*
X020638Y047282D01*
X020638Y047365D02*
X020888Y047365D01*
X020638Y046776D02*
X020638Y046526D01*
X020638Y046776D02*
X020888Y046776D01*
X020888Y046526D01*
X020638Y046526D01*
X020638Y046609D02*
X020888Y046609D01*
X020888Y046692D02*
X020638Y046692D01*
X020638Y046775D02*
X020888Y046775D01*
X020284Y046776D02*
X020284Y046526D01*
X020284Y046776D02*
X020534Y046776D01*
X020534Y046526D01*
X020284Y046526D01*
X020284Y046609D02*
X020534Y046609D01*
X020534Y046692D02*
X020284Y046692D01*
X020284Y046775D02*
X020534Y046775D01*
X020534Y045260D02*
X020534Y045010D01*
X020284Y045010D01*
X020284Y045260D01*
X020534Y045260D01*
X020534Y045093D02*
X020284Y045093D01*
X020284Y045176D02*
X020534Y045176D01*
X020534Y045259D02*
X020284Y045259D01*
X020888Y045260D02*
X020888Y045010D01*
X020638Y045010D01*
X020638Y045260D01*
X020888Y045260D01*
X020888Y045093D02*
X020638Y045093D01*
X020638Y045176D02*
X020888Y045176D01*
X020888Y045259D02*
X020638Y045259D01*
X022469Y044794D02*
X022719Y044794D01*
X022469Y044794D02*
X022469Y045044D01*
X022719Y045044D01*
X022719Y044794D01*
X022719Y044877D02*
X022469Y044877D01*
X022469Y044960D02*
X022719Y044960D01*
X022719Y045043D02*
X022469Y045043D01*
X022469Y044439D02*
X022719Y044439D01*
X022469Y044439D02*
X022469Y044689D01*
X022719Y044689D01*
X022719Y044439D01*
X022719Y044522D02*
X022469Y044522D01*
X022469Y044605D02*
X022719Y044605D01*
X022719Y044688D02*
X022469Y044688D01*
X025264Y044847D02*
X025514Y044847D01*
X025514Y044597D01*
X025264Y044597D01*
X025264Y044847D01*
X025264Y044680D02*
X025514Y044680D01*
X025514Y044763D02*
X025264Y044763D01*
X025264Y044846D02*
X025514Y044846D01*
X025514Y044492D02*
X025264Y044492D01*
X025514Y044492D02*
X025514Y044242D01*
X025264Y044242D01*
X025264Y044492D01*
X025264Y044325D02*
X025514Y044325D01*
X025514Y044408D02*
X025264Y044408D01*
X025264Y044491D02*
X025514Y044491D01*
X025441Y046585D02*
X025441Y046835D01*
X025691Y046835D01*
X025691Y046585D01*
X025441Y046585D01*
X025441Y046668D02*
X025691Y046668D01*
X025691Y046751D02*
X025441Y046751D01*
X025441Y046834D02*
X025691Y046834D01*
X025087Y046835D02*
X025087Y046585D01*
X025087Y046835D02*
X025337Y046835D01*
X025337Y046585D01*
X025087Y046585D01*
X025087Y046668D02*
X025337Y046668D01*
X025337Y046751D02*
X025087Y046751D01*
X025087Y046834D02*
X025337Y046834D01*
X026321Y046835D02*
X026321Y046585D01*
X026071Y046585D01*
X026071Y046835D01*
X026321Y046835D01*
X026321Y046668D02*
X026071Y046668D01*
X026071Y046751D02*
X026321Y046751D01*
X026321Y046834D02*
X026071Y046834D01*
X026675Y046835D02*
X026675Y046585D01*
X026425Y046585D01*
X026425Y046835D01*
X026675Y046835D01*
X026675Y046668D02*
X026425Y046668D01*
X026425Y046751D02*
X026675Y046751D01*
X026675Y046834D02*
X026425Y046834D01*
X027252Y047077D02*
X027252Y047327D01*
X027502Y047327D01*
X027502Y047077D01*
X027252Y047077D01*
X027252Y047160D02*
X027502Y047160D01*
X027502Y047243D02*
X027252Y047243D01*
X027252Y047326D02*
X027502Y047326D01*
X027606Y047327D02*
X027606Y047077D01*
X027606Y047327D02*
X027856Y047327D01*
X027856Y047077D01*
X027606Y047077D01*
X027606Y047160D02*
X027856Y047160D01*
X027856Y047243D02*
X027606Y047243D01*
X027606Y047326D02*
X027856Y047326D01*
X027606Y047668D02*
X027606Y047918D01*
X027856Y047918D01*
X027856Y047668D01*
X027606Y047668D01*
X027606Y047751D02*
X027856Y047751D01*
X027856Y047834D02*
X027606Y047834D01*
X027606Y047917D02*
X027856Y047917D01*
X027252Y047918D02*
X027252Y047668D01*
X027252Y047918D02*
X027502Y047918D01*
X027502Y047668D01*
X027252Y047668D01*
X027252Y047751D02*
X027502Y047751D01*
X027502Y047834D02*
X027252Y047834D01*
X027252Y047917D02*
X027502Y047917D01*
X027856Y046441D02*
X027856Y046191D01*
X027606Y046191D01*
X027606Y046441D01*
X027856Y046441D01*
X027856Y046274D02*
X027606Y046274D01*
X027606Y046357D02*
X027856Y046357D01*
X027856Y046440D02*
X027606Y046440D01*
X028211Y046441D02*
X028211Y046191D01*
X027961Y046191D01*
X027961Y046441D01*
X028211Y046441D01*
X028211Y046274D02*
X027961Y046274D01*
X027961Y046357D02*
X028211Y046357D01*
X028211Y046440D02*
X027961Y046440D01*
X028211Y045575D02*
X028211Y045325D01*
X027961Y045325D01*
X027961Y045575D01*
X028211Y045575D01*
X028211Y045408D02*
X027961Y045408D01*
X027961Y045491D02*
X028211Y045491D01*
X028211Y045574D02*
X027961Y045574D01*
X027856Y045575D02*
X027856Y045325D01*
X027606Y045325D01*
X027606Y045575D01*
X027856Y045575D01*
X027856Y045408D02*
X027606Y045408D01*
X027606Y045491D02*
X027856Y045491D01*
X027856Y045574D02*
X027606Y045574D01*
X030697Y042746D02*
X030947Y042746D01*
X030697Y042746D02*
X030697Y042996D01*
X030947Y042996D01*
X030947Y042746D01*
X030947Y042829D02*
X030697Y042829D01*
X030697Y042912D02*
X030947Y042912D01*
X030947Y042995D02*
X030697Y042995D01*
X030697Y042392D02*
X030947Y042392D01*
X030697Y042392D02*
X030697Y042642D01*
X030947Y042642D01*
X030947Y042392D01*
X030947Y042475D02*
X030697Y042475D01*
X030697Y042558D02*
X030947Y042558D01*
X030947Y042641D02*
X030697Y042641D01*
X033335Y042628D02*
X033585Y042628D01*
X033335Y042628D02*
X033335Y042878D01*
X033585Y042878D01*
X033585Y042628D01*
X033585Y042711D02*
X033335Y042711D01*
X033335Y042794D02*
X033585Y042794D01*
X033585Y042877D02*
X033335Y042877D01*
X033335Y042274D02*
X033585Y042274D01*
X033335Y042274D02*
X033335Y042524D01*
X033585Y042524D01*
X033585Y042274D01*
X033585Y042357D02*
X033335Y042357D01*
X033335Y042440D02*
X033585Y042440D01*
X033585Y042523D02*
X033335Y042523D01*
X035303Y041107D02*
X035553Y041107D01*
X035553Y040857D01*
X035303Y040857D01*
X035303Y041107D01*
X035303Y040940D02*
X035553Y040940D01*
X035553Y041023D02*
X035303Y041023D01*
X035303Y041106D02*
X035553Y041106D01*
X035553Y040752D02*
X035303Y040752D01*
X035553Y040752D02*
X035553Y040502D01*
X035303Y040502D01*
X035303Y040752D01*
X035303Y040585D02*
X035553Y040585D01*
X035553Y040668D02*
X035303Y040668D01*
X035303Y040751D02*
X035553Y040751D01*
X037272Y040910D02*
X037522Y040910D01*
X037522Y040660D01*
X037272Y040660D01*
X037272Y040910D01*
X037272Y040743D02*
X037522Y040743D01*
X037522Y040826D02*
X037272Y040826D01*
X037272Y040909D02*
X037522Y040909D01*
X037522Y040555D02*
X037272Y040555D01*
X037522Y040555D02*
X037522Y040305D01*
X037272Y040305D01*
X037272Y040555D01*
X037272Y040388D02*
X037522Y040388D01*
X037522Y040471D02*
X037272Y040471D01*
X037272Y040554D02*
X037522Y040554D01*
X037522Y039085D02*
X037272Y039085D01*
X037272Y039335D01*
X037522Y039335D01*
X037522Y039085D01*
X037522Y039168D02*
X037272Y039168D01*
X037272Y039251D02*
X037522Y039251D01*
X037522Y039334D02*
X037272Y039334D01*
X037272Y038731D02*
X037522Y038731D01*
X037272Y038731D02*
X037272Y038981D01*
X037522Y038981D01*
X037522Y038731D01*
X037522Y038814D02*
X037272Y038814D01*
X037272Y038897D02*
X037522Y038897D01*
X037522Y038980D02*
X037272Y038980D01*
X035750Y035792D02*
X035500Y035792D01*
X035750Y035792D02*
X035750Y035542D01*
X035500Y035542D01*
X035500Y035792D01*
X035500Y035625D02*
X035750Y035625D01*
X035750Y035708D02*
X035500Y035708D01*
X035500Y035791D02*
X035750Y035791D01*
X035750Y035437D02*
X035500Y035437D01*
X035750Y035437D02*
X035750Y035187D01*
X035500Y035187D01*
X035500Y035437D01*
X035500Y035270D02*
X035750Y035270D01*
X035750Y035353D02*
X035500Y035353D01*
X035500Y035436D02*
X035750Y035436D01*
X034175Y037209D02*
X033925Y037209D01*
X034175Y037209D02*
X034175Y036959D01*
X033925Y036959D01*
X033925Y037209D01*
X033925Y037042D02*
X034175Y037042D01*
X034175Y037125D02*
X033925Y037125D01*
X033925Y037208D02*
X034175Y037208D01*
X034175Y037563D02*
X033925Y037563D01*
X034175Y037563D02*
X034175Y037313D01*
X033925Y037313D01*
X033925Y037563D01*
X033925Y037396D02*
X034175Y037396D01*
X034175Y037479D02*
X033925Y037479D01*
X033925Y037562D02*
X034175Y037562D01*
X033585Y038731D02*
X033335Y038731D01*
X033335Y038981D01*
X033585Y038981D01*
X033585Y038731D01*
X033585Y038814D02*
X033335Y038814D01*
X033335Y038897D02*
X033585Y038897D01*
X033585Y038980D02*
X033335Y038980D01*
X033335Y039085D02*
X033585Y039085D01*
X033335Y039085D02*
X033335Y039335D01*
X033585Y039335D01*
X033585Y039085D01*
X033585Y039168D02*
X033335Y039168D01*
X033335Y039251D02*
X033585Y039251D01*
X033585Y039334D02*
X033335Y039334D01*
X033925Y045674D02*
X034175Y045674D01*
X034175Y045424D01*
X033925Y045424D01*
X033925Y045674D01*
X033925Y045507D02*
X034175Y045507D01*
X034175Y045590D02*
X033925Y045590D01*
X033925Y045673D02*
X034175Y045673D01*
X034175Y046028D02*
X033925Y046028D01*
X034175Y046028D02*
X034175Y045778D01*
X033925Y045778D01*
X033925Y046028D01*
X033925Y045861D02*
X034175Y045861D01*
X034175Y045944D02*
X033925Y045944D01*
X033925Y046027D02*
X034175Y046027D01*
X032994Y052707D02*
X032744Y052707D01*
X032744Y052957D01*
X032994Y052957D01*
X032994Y052707D01*
X032994Y052790D02*
X032744Y052790D01*
X032744Y052873D02*
X032994Y052873D01*
X032994Y052956D02*
X032744Y052956D01*
X032744Y053061D02*
X032994Y053061D01*
X032744Y053061D02*
X032744Y053311D01*
X032994Y053311D01*
X032994Y053061D01*
X032994Y053144D02*
X032744Y053144D01*
X032744Y053227D02*
X032994Y053227D01*
X032994Y053310D02*
X032744Y053310D01*
X034417Y055319D02*
X034667Y055319D01*
X034667Y055069D01*
X034417Y055069D01*
X034417Y055319D01*
X034417Y055152D02*
X034667Y055152D01*
X034667Y055235D02*
X034417Y055235D01*
X034417Y055318D02*
X034667Y055318D01*
X034667Y055674D02*
X034417Y055674D01*
X034667Y055674D02*
X034667Y055424D01*
X034417Y055424D01*
X034417Y055674D01*
X034417Y055507D02*
X034667Y055507D01*
X034667Y055590D02*
X034417Y055590D01*
X034417Y055673D02*
X034667Y055673D01*
X036386Y052864D02*
X036636Y052864D01*
X036386Y052864D02*
X036386Y053114D01*
X036636Y053114D01*
X036636Y052864D01*
X036636Y052947D02*
X036386Y052947D01*
X036386Y053030D02*
X036636Y053030D01*
X036636Y053113D02*
X036386Y053113D01*
X036386Y052510D02*
X036636Y052510D01*
X036386Y052510D02*
X036386Y052760D01*
X036636Y052760D01*
X036636Y052510D01*
X036636Y052593D02*
X036386Y052593D01*
X036386Y052676D02*
X036636Y052676D01*
X036636Y052759D02*
X036386Y052759D01*
X032108Y058219D02*
X031858Y058219D01*
X031858Y058469D01*
X032108Y058469D01*
X032108Y058219D01*
X032108Y058302D02*
X031858Y058302D01*
X031858Y058385D02*
X032108Y058385D01*
X032108Y058468D02*
X031858Y058468D01*
X031858Y058573D02*
X032108Y058573D01*
X031858Y058573D02*
X031858Y058823D01*
X032108Y058823D01*
X032108Y058573D01*
X032108Y058656D02*
X031858Y058656D01*
X031858Y058739D02*
X032108Y058739D01*
X032108Y058822D02*
X031858Y058822D01*
X027660Y053922D02*
X027660Y053672D01*
X027410Y053672D01*
X027410Y053922D01*
X027660Y053922D01*
X027660Y053755D02*
X027410Y053755D01*
X027410Y053838D02*
X027660Y053838D01*
X027660Y053921D02*
X027410Y053921D01*
X027305Y053922D02*
X027305Y053672D01*
X027055Y053672D01*
X027055Y053922D01*
X027305Y053922D01*
X027305Y053755D02*
X027055Y053755D01*
X027055Y053838D02*
X027305Y053838D01*
X027305Y053921D02*
X027055Y053921D01*
X027305Y053331D02*
X027305Y053081D01*
X027055Y053081D01*
X027055Y053331D01*
X027305Y053331D01*
X027305Y053164D02*
X027055Y053164D01*
X027055Y053247D02*
X027305Y053247D01*
X027305Y053330D02*
X027055Y053330D01*
X027660Y053331D02*
X027660Y053081D01*
X027410Y053081D01*
X027410Y053331D01*
X027660Y053331D01*
X027660Y053164D02*
X027410Y053164D01*
X027410Y053247D02*
X027660Y053247D01*
X027660Y053330D02*
X027410Y053330D01*
X018132Y044158D02*
X017882Y044158D01*
X018132Y044158D02*
X018132Y043908D01*
X017882Y043908D01*
X017882Y044158D01*
X017882Y043991D02*
X018132Y043991D01*
X018132Y044074D02*
X017882Y044074D01*
X017882Y044157D02*
X018132Y044157D01*
X018132Y043803D02*
X017882Y043803D01*
X018132Y043803D02*
X018132Y043553D01*
X017882Y043553D01*
X017882Y043803D01*
X017882Y043636D02*
X018132Y043636D01*
X018132Y043719D02*
X017882Y043719D01*
X017882Y043802D02*
X018132Y043802D01*
X016656Y043902D02*
X016406Y043902D01*
X016656Y043902D02*
X016656Y043652D01*
X016406Y043652D01*
X016406Y043902D01*
X016406Y043735D02*
X016656Y043735D01*
X016656Y043818D02*
X016406Y043818D01*
X016406Y043901D02*
X016656Y043901D01*
X016656Y044256D02*
X016406Y044256D01*
X016656Y044256D02*
X016656Y044006D01*
X016406Y044006D01*
X016406Y044256D01*
X016406Y044089D02*
X016656Y044089D01*
X016656Y044172D02*
X016406Y044172D01*
X016406Y044255D02*
X016656Y044255D01*
X015671Y044059D02*
X015421Y044059D01*
X015671Y044059D02*
X015671Y043809D01*
X015421Y043809D01*
X015421Y044059D01*
X015421Y043892D02*
X015671Y043892D01*
X015671Y043975D02*
X015421Y043975D01*
X015421Y044058D02*
X015671Y044058D01*
X015671Y043705D02*
X015421Y043705D01*
X015671Y043705D02*
X015671Y043455D01*
X015421Y043455D01*
X015421Y043705D01*
X015421Y043538D02*
X015671Y043538D01*
X015671Y043621D02*
X015421Y043621D01*
X015421Y043704D02*
X015671Y043704D01*
X014392Y042347D02*
X014392Y042097D01*
X014142Y042097D01*
X014142Y042347D01*
X014392Y042347D01*
X014392Y042180D02*
X014142Y042180D01*
X014142Y042263D02*
X014392Y042263D01*
X014392Y042346D02*
X014142Y042346D01*
X014038Y042347D02*
X014038Y042097D01*
X013788Y042097D01*
X013788Y042347D01*
X014038Y042347D01*
X014038Y042180D02*
X013788Y042180D01*
X013788Y042263D02*
X014038Y042263D01*
X014038Y042346D02*
X013788Y042346D01*
X013965Y041697D02*
X013965Y041447D01*
X013965Y041697D02*
X014215Y041697D01*
X014215Y041447D01*
X013965Y041447D01*
X013965Y041530D02*
X014215Y041530D01*
X014215Y041613D02*
X013965Y041613D01*
X013965Y041696D02*
X014215Y041696D01*
X014319Y041697D02*
X014319Y041447D01*
X014319Y041697D02*
X014569Y041697D01*
X014569Y041447D01*
X014319Y041447D01*
X014319Y041530D02*
X014569Y041530D01*
X014569Y041613D02*
X014319Y041613D01*
X014319Y041696D02*
X014569Y041696D01*
X015835Y040733D02*
X015835Y040483D01*
X015835Y040733D02*
X016085Y040733D01*
X016085Y040483D01*
X015835Y040483D01*
X015835Y040566D02*
X016085Y040566D01*
X016085Y040649D02*
X015835Y040649D01*
X015835Y040732D02*
X016085Y040732D01*
X016189Y040733D02*
X016189Y040483D01*
X016189Y040733D02*
X016439Y040733D01*
X016439Y040483D01*
X016189Y040483D01*
X016189Y040566D02*
X016439Y040566D01*
X016439Y040649D02*
X016189Y040649D01*
X016189Y040732D02*
X016439Y040732D01*
X020953Y038567D02*
X020953Y038317D01*
X020953Y038567D02*
X021203Y038567D01*
X021203Y038317D01*
X020953Y038317D01*
X020953Y038400D02*
X021203Y038400D01*
X021203Y038483D02*
X020953Y038483D01*
X020953Y038566D02*
X021203Y038566D01*
X021307Y038567D02*
X021307Y038317D01*
X021307Y038567D02*
X021557Y038567D01*
X021557Y038317D01*
X021307Y038317D01*
X021307Y038400D02*
X021557Y038400D01*
X021557Y038483D02*
X021307Y038483D01*
X021307Y038566D02*
X021557Y038566D01*
X024477Y035345D02*
X024727Y035345D01*
X024477Y035345D02*
X024477Y035595D01*
X024727Y035595D01*
X024727Y035345D01*
X024727Y035428D02*
X024477Y035428D01*
X024477Y035511D02*
X024727Y035511D01*
X024727Y035594D02*
X024477Y035594D01*
X024477Y034990D02*
X024727Y034990D01*
X024477Y034990D02*
X024477Y035240D01*
X024727Y035240D01*
X024727Y034990D01*
X024727Y035073D02*
X024477Y035073D01*
X024477Y035156D02*
X024727Y035156D01*
X024727Y035239D02*
X024477Y035239D01*
X029398Y031605D02*
X029648Y031605D01*
X029398Y031605D02*
X029398Y031855D01*
X029648Y031855D01*
X029648Y031605D01*
X029648Y031688D02*
X029398Y031688D01*
X029398Y031771D02*
X029648Y031771D01*
X029648Y031854D02*
X029398Y031854D01*
X029398Y031250D02*
X029648Y031250D01*
X029398Y031250D02*
X029398Y031500D01*
X029648Y031500D01*
X029648Y031250D01*
X029648Y031333D02*
X029398Y031333D01*
X029398Y031416D02*
X029648Y031416D01*
X029648Y031499D02*
X029398Y031499D01*
X033138Y030030D02*
X033388Y030030D01*
X033138Y030030D02*
X033138Y030280D01*
X033388Y030280D01*
X033388Y030030D01*
X033388Y030113D02*
X033138Y030113D01*
X033138Y030196D02*
X033388Y030196D01*
X033388Y030279D02*
X033138Y030279D01*
X033138Y029675D02*
X033388Y029675D01*
X033138Y029675D02*
X033138Y029925D01*
X033388Y029925D01*
X033388Y029675D01*
X033388Y029758D02*
X033138Y029758D01*
X033138Y029841D02*
X033388Y029841D01*
X033388Y029924D02*
X033138Y029924D01*
X033768Y032235D02*
X034018Y032235D01*
X033768Y032235D02*
X033768Y032485D01*
X034018Y032485D01*
X034018Y032235D01*
X034018Y032318D02*
X033768Y032318D01*
X033768Y032401D02*
X034018Y032401D01*
X034018Y032484D02*
X033768Y032484D01*
X033768Y032589D02*
X034018Y032589D01*
X033768Y032589D02*
X033768Y032839D01*
X034018Y032839D01*
X034018Y032589D01*
X034018Y032672D02*
X033768Y032672D01*
X033768Y032755D02*
X034018Y032755D01*
X034018Y032838D02*
X033768Y032838D01*
X016636Y027544D02*
X016636Y027294D01*
X016386Y027294D01*
X016386Y027544D01*
X016636Y027544D01*
X016636Y027377D02*
X016386Y027377D01*
X016386Y027460D02*
X016636Y027460D01*
X016636Y027543D02*
X016386Y027543D01*
X016282Y027544D02*
X016282Y027294D01*
X016032Y027294D01*
X016032Y027544D01*
X016282Y027544D01*
X016282Y027377D02*
X016032Y027377D01*
X016032Y027460D02*
X016282Y027460D01*
X016282Y027543D02*
X016032Y027543D01*
D15*
X017859Y035538D02*
X018155Y035538D01*
X017859Y035538D02*
X017859Y035834D01*
X018155Y035834D01*
X018155Y035538D01*
X018155Y035635D02*
X017859Y035635D01*
X017859Y035732D02*
X018155Y035732D01*
X018155Y035829D02*
X017859Y035829D01*
X018450Y035538D02*
X018746Y035538D01*
X018450Y035538D02*
X018450Y035834D01*
X018746Y035834D01*
X018746Y035538D01*
X018746Y035635D02*
X018450Y035635D01*
X018450Y035732D02*
X018746Y035732D01*
X018746Y035829D02*
X018450Y035829D01*
X020104Y035903D02*
X020104Y036257D01*
X020104Y035903D02*
X019808Y035903D01*
X019808Y036257D01*
X020104Y036257D01*
X020104Y036000D02*
X019808Y036000D01*
X019808Y036097D02*
X020104Y036097D01*
X020104Y036194D02*
X019808Y036194D01*
X020734Y036257D02*
X020734Y035903D01*
X020438Y035903D01*
X020438Y036257D01*
X020734Y036257D01*
X020734Y036000D02*
X020438Y036000D01*
X020438Y036097D02*
X020734Y036097D01*
X020734Y036194D02*
X020438Y036194D01*
X021757Y043413D02*
X022053Y043413D01*
X022053Y043117D01*
X021757Y043117D01*
X021757Y043413D01*
X021757Y043214D02*
X022053Y043214D01*
X022053Y043311D02*
X021757Y043311D01*
X021757Y043408D02*
X022053Y043408D01*
X022347Y043413D02*
X022643Y043413D01*
X022643Y043117D01*
X022347Y043117D01*
X022347Y043413D01*
X022347Y043214D02*
X022643Y043214D01*
X022643Y043311D02*
X022347Y043311D01*
X022347Y043408D02*
X022643Y043408D01*
X022505Y046139D02*
X022505Y046493D01*
X022505Y046139D02*
X022209Y046139D01*
X022209Y046493D01*
X022505Y046493D01*
X022505Y046236D02*
X022209Y046236D01*
X022209Y046333D02*
X022505Y046333D01*
X022505Y046430D02*
X022209Y046430D01*
X021876Y046493D02*
X021876Y046139D01*
X021580Y046139D01*
X021580Y046493D01*
X021876Y046493D01*
X021876Y046236D02*
X021580Y046236D01*
X021580Y046333D02*
X021876Y046333D01*
X021876Y046430D02*
X021580Y046430D01*
X019946Y045893D02*
X019572Y045893D01*
X019572Y046189D01*
X019946Y046189D01*
X019946Y045893D01*
X019946Y045990D02*
X019572Y045990D01*
X019572Y046087D02*
X019946Y046087D01*
X019946Y046184D02*
X019572Y046184D01*
X019572Y044712D02*
X019946Y044712D01*
X019572Y044712D02*
X019572Y045008D01*
X019946Y045008D01*
X019946Y044712D01*
X019946Y044809D02*
X019572Y044809D01*
X019572Y044906D02*
X019946Y044906D01*
X019946Y045003D02*
X019572Y045003D01*
X019553Y043895D02*
X019553Y043541D01*
X019257Y043541D01*
X019257Y043895D01*
X019553Y043895D01*
X019553Y043638D02*
X019257Y043638D01*
X019257Y043735D02*
X019553Y043735D01*
X019553Y043832D02*
X019257Y043832D01*
X018923Y043895D02*
X018923Y043541D01*
X018627Y043541D01*
X018627Y043895D01*
X018923Y043895D01*
X018923Y043638D02*
X018627Y043638D01*
X018627Y043735D02*
X018923Y043735D01*
X018923Y043832D02*
X018627Y043832D01*
X017111Y044712D02*
X016737Y044712D01*
X016737Y045008D01*
X017111Y045008D01*
X017111Y044712D01*
X017111Y044809D02*
X016737Y044809D01*
X016737Y044906D02*
X017111Y044906D01*
X017111Y045003D02*
X016737Y045003D01*
X016737Y045893D02*
X017111Y045893D01*
X016737Y045893D02*
X016737Y046189D01*
X017111Y046189D01*
X017111Y045893D01*
X017111Y045990D02*
X016737Y045990D01*
X016737Y046087D02*
X017111Y046087D01*
X017111Y046184D02*
X016737Y046184D01*
X018233Y052438D02*
X018233Y052792D01*
X018529Y052792D01*
X018529Y052438D01*
X018233Y052438D01*
X018233Y052535D02*
X018529Y052535D01*
X018529Y052632D02*
X018233Y052632D01*
X018233Y052729D02*
X018529Y052729D01*
X018863Y052792D02*
X018863Y052438D01*
X018863Y052792D02*
X019159Y052792D01*
X019159Y052438D01*
X018863Y052438D01*
X018863Y052535D02*
X019159Y052535D01*
X019159Y052632D02*
X018863Y052632D01*
X018863Y052729D02*
X019159Y052729D01*
X020595Y055037D02*
X020595Y055391D01*
X020891Y055391D01*
X020891Y055037D01*
X020595Y055037D01*
X020595Y055134D02*
X020891Y055134D01*
X020891Y055231D02*
X020595Y055231D01*
X020595Y055328D02*
X020891Y055328D01*
X021225Y055391D02*
X021225Y055037D01*
X021225Y055391D02*
X021521Y055391D01*
X021521Y055037D01*
X021225Y055037D01*
X021225Y055134D02*
X021521Y055134D01*
X021521Y055231D02*
X021225Y055231D01*
X021225Y055328D02*
X021521Y055328D01*
X019267Y056582D02*
X018913Y056582D01*
X019267Y056582D02*
X019267Y056286D01*
X018913Y056286D01*
X018913Y056582D01*
X018913Y056383D02*
X019267Y056383D01*
X019267Y056480D02*
X018913Y056480D01*
X018913Y056577D02*
X019267Y056577D01*
X019267Y057212D02*
X018913Y057212D01*
X019267Y057212D02*
X019267Y056916D01*
X018913Y056916D01*
X018913Y057212D01*
X018913Y057013D02*
X019267Y057013D01*
X019267Y057110D02*
X018913Y057110D01*
X018913Y057207D02*
X019267Y057207D01*
X025054Y055538D02*
X025408Y055538D01*
X025054Y055538D02*
X025054Y055834D01*
X025408Y055834D01*
X025408Y055538D01*
X025408Y055635D02*
X025054Y055635D01*
X025054Y055732D02*
X025408Y055732D01*
X025408Y055829D02*
X025054Y055829D01*
X025054Y054908D02*
X025408Y054908D01*
X025054Y054908D02*
X025054Y055204D01*
X025408Y055204D01*
X025408Y054908D01*
X025408Y055005D02*
X025054Y055005D01*
X025054Y055102D02*
X025408Y055102D01*
X025408Y055199D02*
X025054Y055199D01*
X029356Y049643D02*
X029356Y049289D01*
X029060Y049289D01*
X029060Y049643D01*
X029356Y049643D01*
X029356Y049386D02*
X029060Y049386D01*
X029060Y049483D02*
X029356Y049483D01*
X029356Y049580D02*
X029060Y049580D01*
X029986Y049643D02*
X029986Y049289D01*
X029690Y049289D01*
X029690Y049643D01*
X029986Y049643D01*
X029986Y049386D02*
X029690Y049386D01*
X029690Y049483D02*
X029986Y049483D01*
X029986Y049580D02*
X029690Y049580D01*
X029986Y048659D02*
X029986Y048305D01*
X029690Y048305D01*
X029690Y048659D01*
X029986Y048659D01*
X029986Y048402D02*
X029690Y048402D01*
X029690Y048499D02*
X029986Y048499D01*
X029986Y048596D02*
X029690Y048596D01*
X029356Y048659D02*
X029356Y048305D01*
X029060Y048305D01*
X029060Y048659D01*
X029356Y048659D01*
X029356Y048402D02*
X029060Y048402D01*
X029060Y048499D02*
X029356Y048499D01*
X029356Y048596D02*
X029060Y048596D01*
X026482Y045666D02*
X026482Y045312D01*
X026186Y045312D01*
X026186Y045666D01*
X026482Y045666D01*
X026482Y045409D02*
X026186Y045409D01*
X026186Y045506D02*
X026482Y045506D01*
X026482Y045603D02*
X026186Y045603D01*
X025852Y045666D02*
X025852Y045312D01*
X025556Y045312D01*
X025556Y045666D01*
X025852Y045666D01*
X025852Y045409D02*
X025556Y045409D01*
X025556Y045506D02*
X025852Y045506D01*
X025852Y045603D02*
X025556Y045603D01*
X027564Y042822D02*
X028490Y042822D01*
X027564Y042822D02*
X027564Y043118D01*
X028490Y043118D01*
X028490Y042822D01*
X028490Y042919D02*
X027564Y042919D01*
X027564Y043016D02*
X028490Y043016D01*
X028490Y043113D02*
X027564Y043113D01*
X027968Y041228D02*
X028322Y041228D01*
X028322Y040932D01*
X027968Y040932D01*
X027968Y041228D01*
X027968Y041029D02*
X028322Y041029D01*
X028322Y041126D02*
X027968Y041126D01*
X027968Y041223D02*
X028322Y041223D01*
X028322Y040598D02*
X027968Y040598D01*
X028322Y040598D02*
X028322Y040302D01*
X027968Y040302D01*
X027968Y040598D01*
X027968Y040399D02*
X028322Y040399D01*
X028322Y040496D02*
X027968Y040496D01*
X027968Y040593D02*
X028322Y040593D01*
X028952Y040598D02*
X029306Y040598D01*
X029306Y040302D01*
X028952Y040302D01*
X028952Y040598D01*
X028952Y040399D02*
X029306Y040399D01*
X029306Y040496D02*
X028952Y040496D01*
X028952Y040593D02*
X029306Y040593D01*
X029306Y041228D02*
X028952Y041228D01*
X029306Y041228D02*
X029306Y040932D01*
X028952Y040932D01*
X028952Y041228D01*
X028952Y041029D02*
X029306Y041029D01*
X029306Y041126D02*
X028952Y041126D01*
X028952Y041223D02*
X029306Y041223D01*
X029375Y042822D02*
X030301Y042822D01*
X029375Y042822D02*
X029375Y043118D01*
X030301Y043118D01*
X030301Y042822D01*
X030301Y042919D02*
X029375Y042919D01*
X029375Y043016D02*
X030301Y043016D01*
X030301Y043113D02*
X029375Y043113D01*
X033873Y052349D02*
X034227Y052349D01*
X033873Y052349D02*
X033873Y052645D01*
X034227Y052645D01*
X034227Y052349D01*
X034227Y052446D02*
X033873Y052446D01*
X033873Y052543D02*
X034227Y052543D01*
X034227Y052640D02*
X033873Y052640D01*
X033873Y052979D02*
X034227Y052979D01*
X033873Y052979D02*
X033873Y053275D01*
X034227Y053275D01*
X034227Y052979D01*
X034227Y053076D02*
X033873Y053076D01*
X033873Y053173D02*
X034227Y053173D01*
X034227Y053270D02*
X033873Y053270D01*
X035153Y052979D02*
X035507Y052979D01*
X035153Y052979D02*
X035153Y053275D01*
X035507Y053275D01*
X035507Y052979D01*
X035507Y053076D02*
X035153Y053076D01*
X035153Y053173D02*
X035507Y053173D01*
X035507Y053270D02*
X035153Y053270D01*
X035153Y052349D02*
X035507Y052349D01*
X035153Y052349D02*
X035153Y052645D01*
X035507Y052645D01*
X035507Y052349D01*
X035507Y052446D02*
X035153Y052446D01*
X035153Y052543D02*
X035507Y052543D01*
X035507Y052640D02*
X035153Y052640D01*
X036364Y044535D02*
X036364Y043609D01*
X036068Y043609D01*
X036068Y044535D01*
X036364Y044535D01*
X036364Y043706D02*
X036068Y043706D01*
X036068Y043803D02*
X036364Y043803D01*
X036364Y043900D02*
X036068Y043900D01*
X036068Y043997D02*
X036364Y043997D01*
X036364Y044094D02*
X036068Y044094D01*
X036068Y044191D02*
X036364Y044191D01*
X036364Y044288D02*
X036068Y044288D01*
X036068Y044385D02*
X036364Y044385D01*
X036364Y044482D02*
X036068Y044482D01*
X036364Y042724D02*
X036364Y041798D01*
X036068Y041798D01*
X036068Y042724D01*
X036364Y042724D01*
X036364Y041895D02*
X036068Y041895D01*
X036068Y041992D02*
X036364Y041992D01*
X036364Y042089D02*
X036068Y042089D01*
X036068Y042186D02*
X036364Y042186D01*
X036364Y042283D02*
X036068Y042283D01*
X036068Y042380D02*
X036364Y042380D01*
X036364Y042477D02*
X036068Y042477D01*
X036068Y042574D02*
X036364Y042574D01*
X036364Y042671D02*
X036068Y042671D01*
D16*
X036285Y040686D02*
X036541Y040686D01*
X036285Y040686D02*
X036285Y040922D01*
X036541Y040922D01*
X036541Y040686D01*
X036541Y040764D02*
X036285Y040764D01*
X036285Y040842D02*
X036541Y040842D01*
X036541Y040920D02*
X036285Y040920D01*
X036285Y040293D02*
X036541Y040293D01*
X036285Y040293D02*
X036285Y040529D01*
X036541Y040529D01*
X036541Y040293D01*
X036541Y040371D02*
X036285Y040371D01*
X036285Y040449D02*
X036541Y040449D01*
X036541Y040527D02*
X036285Y040527D01*
X036285Y039348D02*
X036541Y039348D01*
X036541Y039112D01*
X036285Y039112D01*
X036285Y039348D01*
X036285Y039190D02*
X036541Y039190D01*
X036541Y039268D02*
X036285Y039268D01*
X036285Y039346D02*
X036541Y039346D01*
X036541Y038954D02*
X036285Y038954D01*
X036541Y038954D02*
X036541Y038718D01*
X036285Y038718D01*
X036285Y038954D01*
X036285Y038796D02*
X036541Y038796D01*
X036541Y038874D02*
X036285Y038874D01*
X036285Y038952D02*
X036541Y038952D01*
X035517Y038718D02*
X035261Y038718D01*
X035261Y038954D01*
X035517Y038954D01*
X035517Y038718D01*
X035517Y038796D02*
X035261Y038796D01*
X035261Y038874D02*
X035517Y038874D01*
X035517Y038952D02*
X035261Y038952D01*
X035261Y039112D02*
X035517Y039112D01*
X035261Y039112D02*
X035261Y039348D01*
X035517Y039348D01*
X035517Y039112D01*
X035517Y039190D02*
X035261Y039190D01*
X035261Y039268D02*
X035517Y039268D01*
X035517Y039346D02*
X035261Y039346D01*
X034572Y039112D02*
X034316Y039112D01*
X034316Y039348D01*
X034572Y039348D01*
X034572Y039112D01*
X034572Y039190D02*
X034316Y039190D01*
X034316Y039268D02*
X034572Y039268D01*
X034572Y039346D02*
X034316Y039346D01*
X034316Y038718D02*
X034572Y038718D01*
X034316Y038718D02*
X034316Y038954D01*
X034572Y038954D01*
X034572Y038718D01*
X034572Y038796D02*
X034316Y038796D01*
X034316Y038874D02*
X034572Y038874D01*
X034572Y038952D02*
X034316Y038952D01*
X035103Y037576D02*
X035359Y037576D01*
X035359Y037340D01*
X035103Y037340D01*
X035103Y037576D01*
X035103Y037418D02*
X035359Y037418D01*
X035359Y037496D02*
X035103Y037496D01*
X035103Y037574D02*
X035359Y037574D01*
X035359Y037182D02*
X035103Y037182D01*
X035359Y037182D02*
X035359Y036946D01*
X035103Y036946D01*
X035103Y037182D01*
X035103Y037024D02*
X035359Y037024D01*
X035359Y037102D02*
X035103Y037102D01*
X035103Y037180D02*
X035359Y037180D01*
X036285Y037182D02*
X036541Y037182D01*
X036541Y036946D01*
X036285Y036946D01*
X036285Y037182D01*
X036285Y037024D02*
X036541Y037024D01*
X036541Y037102D02*
X036285Y037102D01*
X036285Y037180D02*
X036541Y037180D01*
X036541Y037576D02*
X036285Y037576D01*
X036541Y037576D02*
X036541Y037340D01*
X036285Y037340D01*
X036285Y037576D01*
X036285Y037418D02*
X036541Y037418D01*
X036541Y037496D02*
X036285Y037496D01*
X036285Y037574D02*
X036541Y037574D01*
X034533Y042497D02*
X034277Y042497D01*
X034533Y042497D02*
X034533Y042261D01*
X034277Y042261D01*
X034277Y042497D01*
X034277Y042339D02*
X034533Y042339D01*
X034533Y042417D02*
X034277Y042417D01*
X034277Y042495D02*
X034533Y042495D01*
X034533Y042891D02*
X034277Y042891D01*
X034533Y042891D02*
X034533Y042655D01*
X034277Y042655D01*
X034277Y042891D01*
X034277Y042733D02*
X034533Y042733D01*
X034533Y042811D02*
X034277Y042811D01*
X034277Y042889D02*
X034533Y042889D01*
X032604Y037576D02*
X032348Y037576D01*
X032604Y037576D02*
X032604Y037340D01*
X032348Y037340D01*
X032348Y037576D01*
X032348Y037418D02*
X032604Y037418D01*
X032604Y037496D02*
X032348Y037496D01*
X032348Y037574D02*
X032604Y037574D01*
X032604Y037182D02*
X032348Y037182D01*
X032604Y037182D02*
X032604Y036946D01*
X032348Y036946D01*
X032348Y037182D01*
X032348Y037024D02*
X032604Y037024D01*
X032604Y037102D02*
X032348Y037102D01*
X032348Y037180D02*
X032604Y037180D01*
X032604Y035411D02*
X032348Y035411D01*
X032604Y035411D02*
X032604Y035175D01*
X032348Y035175D01*
X032348Y035411D01*
X032348Y035253D02*
X032604Y035253D01*
X032604Y035331D02*
X032348Y035331D01*
X032348Y035409D02*
X032604Y035409D01*
X032604Y035017D02*
X032348Y035017D01*
X032604Y035017D02*
X032604Y034781D01*
X032348Y034781D01*
X032348Y035017D01*
X032348Y034859D02*
X032604Y034859D01*
X032604Y034937D02*
X032348Y034937D01*
X032348Y035015D02*
X032604Y035015D01*
X031422Y034781D02*
X031166Y034781D01*
X031166Y035017D01*
X031422Y035017D01*
X031422Y034781D01*
X031422Y034859D02*
X031166Y034859D01*
X031166Y034937D02*
X031422Y034937D01*
X031422Y035015D02*
X031166Y035015D01*
X031166Y035175D02*
X031422Y035175D01*
X031166Y035175D02*
X031166Y035411D01*
X031422Y035411D01*
X031422Y035175D01*
X031422Y035253D02*
X031166Y035253D01*
X031166Y035331D02*
X031422Y035331D01*
X031422Y035409D02*
X031166Y035409D01*
X029493Y038167D02*
X029237Y038167D01*
X029493Y038167D02*
X029493Y037931D01*
X029237Y037931D01*
X029237Y038167D01*
X029237Y038009D02*
X029493Y038009D01*
X029493Y038087D02*
X029237Y038087D01*
X029237Y038165D02*
X029493Y038165D01*
X029493Y038560D02*
X029237Y038560D01*
X029493Y038560D02*
X029493Y038324D01*
X029237Y038324D01*
X029237Y038560D01*
X029237Y038402D02*
X029493Y038402D01*
X029493Y038480D02*
X029237Y038480D01*
X029237Y038558D02*
X029493Y038558D01*
X029985Y031631D02*
X030241Y031631D01*
X029985Y031631D02*
X029985Y031867D01*
X030241Y031867D01*
X030241Y031631D01*
X030241Y031709D02*
X029985Y031709D01*
X029985Y031787D02*
X030241Y031787D01*
X030241Y031865D02*
X029985Y031865D01*
X029985Y031238D02*
X030241Y031238D01*
X029985Y031238D02*
X029985Y031474D01*
X030241Y031474D01*
X030241Y031238D01*
X030241Y031316D02*
X029985Y031316D01*
X029985Y031394D02*
X030241Y031394D01*
X030241Y031472D02*
X029985Y031472D01*
X029985Y030450D02*
X030241Y030450D01*
X029985Y030450D02*
X029985Y030686D01*
X030241Y030686D01*
X030241Y030450D01*
X030241Y030528D02*
X029985Y030528D01*
X029985Y030606D02*
X030241Y030606D01*
X030241Y030684D02*
X029985Y030684D01*
X029985Y030057D02*
X030241Y030057D01*
X029985Y030057D02*
X029985Y030293D01*
X030241Y030293D01*
X030241Y030057D01*
X030241Y030135D02*
X029985Y030135D01*
X029985Y030213D02*
X030241Y030213D01*
X030241Y030291D02*
X029985Y030291D01*
X021767Y034377D02*
X021767Y034633D01*
X021767Y034377D02*
X021531Y034377D01*
X021531Y034633D01*
X021767Y034633D01*
X021767Y034455D02*
X021531Y034455D01*
X021531Y034533D02*
X021767Y034533D01*
X021767Y034611D02*
X021531Y034611D01*
X021373Y034633D02*
X021373Y034377D01*
X021137Y034377D01*
X021137Y034633D01*
X021373Y034633D01*
X021373Y034455D02*
X021137Y034455D01*
X021137Y034533D02*
X021373Y034533D01*
X021373Y034611D02*
X021137Y034611D01*
X020940Y037724D02*
X020940Y037980D01*
X021176Y037980D01*
X021176Y037724D01*
X020940Y037724D01*
X020940Y037802D02*
X021176Y037802D01*
X021176Y037880D02*
X020940Y037880D01*
X020940Y037958D02*
X021176Y037958D01*
X021334Y037980D02*
X021334Y037724D01*
X021334Y037980D02*
X021570Y037980D01*
X021570Y037724D01*
X021334Y037724D01*
X021334Y037802D02*
X021570Y037802D01*
X021570Y037880D02*
X021334Y037880D01*
X021334Y037958D02*
X021570Y037958D01*
X021570Y038905D02*
X021570Y039161D01*
X021570Y038905D02*
X021334Y038905D01*
X021334Y039161D01*
X021570Y039161D01*
X021570Y038983D02*
X021334Y038983D01*
X021334Y039061D02*
X021570Y039061D01*
X021570Y039139D02*
X021334Y039139D01*
X021176Y039161D02*
X021176Y038905D01*
X020940Y038905D01*
X020940Y039161D01*
X021176Y039161D01*
X021176Y038983D02*
X020940Y038983D01*
X020940Y039061D02*
X021176Y039061D01*
X021176Y039139D02*
X020940Y039139D01*
X020940Y040086D02*
X020940Y040342D01*
X021176Y040342D01*
X021176Y040086D01*
X020940Y040086D01*
X020940Y040164D02*
X021176Y040164D01*
X021176Y040242D02*
X020940Y040242D01*
X020940Y040320D02*
X021176Y040320D01*
X021334Y040342D02*
X021334Y040086D01*
X021334Y040342D02*
X021570Y040342D01*
X021570Y040086D01*
X021334Y040086D01*
X021334Y040164D02*
X021570Y040164D01*
X021570Y040242D02*
X021334Y040242D01*
X021334Y040320D02*
X021570Y040320D01*
X020822Y042970D02*
X020822Y043442D01*
X021058Y043442D01*
X021058Y042970D01*
X020822Y042970D01*
X020822Y043048D02*
X021058Y043048D01*
X021058Y043126D02*
X020822Y043126D01*
X020822Y043204D02*
X021058Y043204D01*
X021058Y043282D02*
X020822Y043282D01*
X020822Y043360D02*
X021058Y043360D01*
X021058Y043438D02*
X020822Y043438D01*
X020448Y043442D02*
X020448Y042970D01*
X020448Y043442D02*
X020684Y043442D01*
X020684Y042970D01*
X020448Y042970D01*
X020448Y043048D02*
X020684Y043048D01*
X020684Y043126D02*
X020448Y043126D01*
X020448Y043204D02*
X020684Y043204D01*
X020684Y043282D02*
X020448Y043282D01*
X020448Y043360D02*
X020684Y043360D01*
X020684Y043438D02*
X020448Y043438D01*
X020074Y043442D02*
X020074Y042970D01*
X020074Y043442D02*
X020310Y043442D01*
X020310Y042970D01*
X020074Y042970D01*
X020074Y043048D02*
X020310Y043048D01*
X020310Y043126D02*
X020074Y043126D01*
X020074Y043204D02*
X020310Y043204D01*
X020310Y043282D02*
X020074Y043282D01*
X020074Y043360D02*
X020310Y043360D01*
X020310Y043438D02*
X020074Y043438D01*
X020074Y043876D02*
X020074Y044348D01*
X020310Y044348D01*
X020310Y043876D01*
X020074Y043876D01*
X020074Y043954D02*
X020310Y043954D01*
X020310Y044032D02*
X020074Y044032D01*
X020074Y044110D02*
X020310Y044110D01*
X020310Y044188D02*
X020074Y044188D01*
X020074Y044266D02*
X020310Y044266D01*
X020310Y044344D02*
X020074Y044344D01*
X020822Y044348D02*
X020822Y043876D01*
X020822Y044348D02*
X021058Y044348D01*
X021058Y043876D01*
X020822Y043876D01*
X020822Y043954D02*
X021058Y043954D01*
X021058Y044032D02*
X020822Y044032D01*
X020822Y044110D02*
X021058Y044110D01*
X021058Y044188D02*
X020822Y044188D01*
X020822Y044266D02*
X021058Y044266D01*
X021058Y044344D02*
X020822Y044344D01*
X021531Y044397D02*
X021531Y044653D01*
X021767Y044653D01*
X021767Y044397D01*
X021531Y044397D01*
X021531Y044475D02*
X021767Y044475D01*
X021767Y044553D02*
X021531Y044553D01*
X021531Y044631D02*
X021767Y044631D01*
X021924Y044653D02*
X021924Y044397D01*
X021924Y044653D02*
X022160Y044653D01*
X022160Y044397D01*
X021924Y044397D01*
X021924Y044475D02*
X022160Y044475D01*
X022160Y044553D02*
X021924Y044553D01*
X021924Y044631D02*
X022160Y044631D01*
X020861Y045873D02*
X020861Y046129D01*
X020861Y045873D02*
X020625Y045873D01*
X020625Y046129D01*
X020861Y046129D01*
X020861Y045951D02*
X020625Y045951D01*
X020625Y046029D02*
X020861Y046029D01*
X020861Y046107D02*
X020625Y046107D01*
X020468Y046129D02*
X020468Y045873D01*
X020232Y045873D01*
X020232Y046129D01*
X020468Y046129D01*
X020468Y045951D02*
X020232Y045951D01*
X020232Y046029D02*
X020468Y046029D01*
X020468Y046107D02*
X020232Y046107D01*
X019523Y049023D02*
X019523Y049279D01*
X019759Y049279D01*
X019759Y049023D01*
X019523Y049023D01*
X019523Y049101D02*
X019759Y049101D01*
X019759Y049179D02*
X019523Y049179D01*
X019523Y049257D02*
X019759Y049257D01*
X019129Y049279D02*
X019129Y049023D01*
X019129Y049279D02*
X019365Y049279D01*
X019365Y049023D01*
X019129Y049023D01*
X019129Y049101D02*
X019365Y049101D01*
X019365Y049179D02*
X019129Y049179D01*
X019129Y049257D02*
X019365Y049257D01*
X019011Y050125D02*
X019011Y050381D01*
X019011Y050125D02*
X018775Y050125D01*
X018775Y050381D01*
X019011Y050381D01*
X019011Y050203D02*
X018775Y050203D01*
X018775Y050281D02*
X019011Y050281D01*
X019011Y050359D02*
X018775Y050359D01*
X018617Y050381D02*
X018617Y050125D01*
X018381Y050125D01*
X018381Y050381D01*
X018617Y050381D01*
X018617Y050203D02*
X018381Y050203D01*
X018381Y050281D02*
X018617Y050281D01*
X018617Y050359D02*
X018381Y050359D01*
X018617Y050716D02*
X018617Y050972D01*
X018617Y050716D02*
X018381Y050716D01*
X018381Y050972D01*
X018617Y050972D01*
X018617Y050794D02*
X018381Y050794D01*
X018381Y050872D02*
X018617Y050872D01*
X018617Y050950D02*
X018381Y050950D01*
X019011Y050972D02*
X019011Y050716D01*
X018775Y050716D01*
X018775Y050972D01*
X019011Y050972D01*
X019011Y050794D02*
X018775Y050794D01*
X018775Y050872D02*
X019011Y050872D01*
X019011Y050950D02*
X018775Y050950D01*
X019011Y051897D02*
X019011Y052153D01*
X019011Y051897D02*
X018775Y051897D01*
X018775Y052153D01*
X019011Y052153D01*
X019011Y051975D02*
X018775Y051975D01*
X018775Y052053D02*
X019011Y052053D01*
X019011Y052131D02*
X018775Y052131D01*
X018617Y052153D02*
X018617Y051897D01*
X018381Y051897D01*
X018381Y052153D01*
X018617Y052153D01*
X018617Y051975D02*
X018381Y051975D01*
X018381Y052053D02*
X018617Y052053D01*
X018617Y052131D02*
X018381Y052131D01*
X019779Y056257D02*
X020251Y056257D01*
X019779Y056257D02*
X019779Y056493D01*
X020251Y056493D01*
X020251Y056257D01*
X020251Y056335D02*
X019779Y056335D01*
X019779Y056413D02*
X020251Y056413D01*
X020251Y056491D02*
X019779Y056491D01*
X019779Y057005D02*
X020251Y057005D01*
X019779Y057005D02*
X019779Y057241D01*
X020251Y057241D01*
X020251Y057005D01*
X020251Y057083D02*
X019779Y057083D01*
X019779Y057161D02*
X020251Y057161D01*
X020251Y057239D02*
X019779Y057239D01*
X020684Y057005D02*
X021156Y057005D01*
X020684Y057005D02*
X020684Y057241D01*
X021156Y057241D01*
X021156Y057005D01*
X021156Y057083D02*
X020684Y057083D01*
X020684Y057161D02*
X021156Y057161D01*
X021156Y057239D02*
X020684Y057239D01*
X020684Y056631D02*
X021156Y056631D01*
X020684Y056631D02*
X020684Y056867D01*
X021156Y056867D01*
X021156Y056631D01*
X021156Y056709D02*
X020684Y056709D01*
X020684Y056787D02*
X021156Y056787D01*
X021156Y056865D02*
X020684Y056865D01*
X020684Y056257D02*
X021156Y056257D01*
X020684Y056257D02*
X020684Y056493D01*
X021156Y056493D01*
X021156Y056257D01*
X021156Y056335D02*
X020684Y056335D01*
X020684Y056413D02*
X021156Y056413D01*
X021156Y056491D02*
X020684Y056491D01*
X022308Y055804D02*
X022564Y055804D01*
X022564Y055568D01*
X022308Y055568D01*
X022308Y055804D01*
X022308Y055646D02*
X022564Y055646D01*
X022564Y055724D02*
X022308Y055724D01*
X022308Y055802D02*
X022564Y055802D01*
X022564Y055411D02*
X022308Y055411D01*
X022564Y055411D02*
X022564Y055175D01*
X022308Y055175D01*
X022308Y055411D01*
X022308Y055253D02*
X022564Y055253D01*
X022564Y055331D02*
X022308Y055331D01*
X022308Y055409D02*
X022564Y055409D01*
X022564Y054663D02*
X022308Y054663D01*
X022308Y054899D01*
X022564Y054899D01*
X022564Y054663D01*
X022564Y054741D02*
X022308Y054741D01*
X022308Y054819D02*
X022564Y054819D01*
X022564Y054897D02*
X022308Y054897D01*
X022308Y054269D02*
X022564Y054269D01*
X022308Y054269D02*
X022308Y054505D01*
X022564Y054505D01*
X022564Y054269D01*
X022564Y054347D02*
X022308Y054347D01*
X022308Y054425D02*
X022564Y054425D01*
X022564Y054503D02*
X022308Y054503D01*
X023292Y058167D02*
X023548Y058167D01*
X023548Y057931D01*
X023292Y057931D01*
X023292Y058167D01*
X023292Y058009D02*
X023548Y058009D01*
X023548Y058087D02*
X023292Y058087D01*
X023292Y058165D02*
X023548Y058165D01*
X023548Y058560D02*
X023292Y058560D01*
X023548Y058560D02*
X023548Y058324D01*
X023292Y058324D01*
X023292Y058560D01*
X023292Y058402D02*
X023548Y058402D01*
X023548Y058480D02*
X023292Y058480D01*
X023292Y058558D02*
X023548Y058558D01*
X025025Y058442D02*
X025281Y058442D01*
X025281Y058206D01*
X025025Y058206D01*
X025025Y058442D01*
X025025Y058284D02*
X025281Y058284D01*
X025281Y058362D02*
X025025Y058362D01*
X025025Y058440D02*
X025281Y058440D01*
X025281Y058048D02*
X025025Y058048D01*
X025281Y058048D02*
X025281Y057812D01*
X025025Y057812D01*
X025025Y058048D01*
X025025Y057890D02*
X025281Y057890D01*
X025281Y057968D02*
X025025Y057968D01*
X025025Y058046D02*
X025281Y058046D01*
X027475Y058196D02*
X027475Y058452D01*
X027475Y058196D02*
X027239Y058196D01*
X027239Y058452D01*
X027475Y058452D01*
X027475Y058274D02*
X027239Y058274D01*
X027239Y058352D02*
X027475Y058352D01*
X027475Y058430D02*
X027239Y058430D01*
X027869Y058452D02*
X027869Y058196D01*
X027633Y058196D01*
X027633Y058452D01*
X027869Y058452D01*
X027869Y058274D02*
X027633Y058274D01*
X027633Y058352D02*
X027869Y058352D01*
X027869Y058430D02*
X027633Y058430D01*
X029641Y058452D02*
X029641Y058196D01*
X029405Y058196D01*
X029405Y058452D01*
X029641Y058452D01*
X029641Y058274D02*
X029405Y058274D01*
X029405Y058352D02*
X029641Y058352D01*
X029641Y058430D02*
X029405Y058430D01*
X030035Y058452D02*
X030035Y058196D01*
X029799Y058196D01*
X029799Y058452D01*
X030035Y058452D01*
X030035Y058274D02*
X029799Y058274D01*
X029799Y058352D02*
X030035Y058352D01*
X030035Y058430D02*
X029799Y058430D01*
X031804Y055864D02*
X032040Y055864D01*
X031804Y055864D02*
X031804Y056730D01*
X032040Y056730D01*
X032040Y055864D01*
X032040Y055942D02*
X031804Y055942D01*
X031804Y056020D02*
X032040Y056020D01*
X032040Y056098D02*
X031804Y056098D01*
X031804Y056176D02*
X032040Y056176D01*
X032040Y056254D02*
X031804Y056254D01*
X031804Y056332D02*
X032040Y056332D01*
X032040Y056410D02*
X031804Y056410D01*
X031804Y056488D02*
X032040Y056488D01*
X032040Y056566D02*
X031804Y056566D01*
X031804Y056644D02*
X032040Y056644D01*
X032040Y056722D02*
X031804Y056722D01*
X032304Y055864D02*
X032540Y055864D01*
X032304Y055864D02*
X032304Y056730D01*
X032540Y056730D01*
X032540Y055864D01*
X032540Y055942D02*
X032304Y055942D01*
X032304Y056020D02*
X032540Y056020D01*
X032540Y056098D02*
X032304Y056098D01*
X032304Y056176D02*
X032540Y056176D01*
X032540Y056254D02*
X032304Y056254D01*
X032304Y056332D02*
X032540Y056332D01*
X032540Y056410D02*
X032304Y056410D01*
X032304Y056488D02*
X032540Y056488D01*
X032540Y056566D02*
X032304Y056566D01*
X032304Y056644D02*
X032540Y056644D01*
X032540Y056722D02*
X032304Y056722D01*
X032804Y055864D02*
X033040Y055864D01*
X032804Y055864D02*
X032804Y056730D01*
X033040Y056730D01*
X033040Y055864D01*
X033040Y055942D02*
X032804Y055942D01*
X032804Y056020D02*
X033040Y056020D01*
X033040Y056098D02*
X032804Y056098D01*
X032804Y056176D02*
X033040Y056176D01*
X033040Y056254D02*
X032804Y056254D01*
X032804Y056332D02*
X033040Y056332D01*
X033040Y056410D02*
X032804Y056410D01*
X032804Y056488D02*
X033040Y056488D01*
X033040Y056566D02*
X032804Y056566D01*
X032804Y056644D02*
X033040Y056644D01*
X033040Y056722D02*
X032804Y056722D01*
X033304Y055864D02*
X033540Y055864D01*
X033304Y055864D02*
X033304Y056730D01*
X033540Y056730D01*
X033540Y055864D01*
X033540Y055942D02*
X033304Y055942D01*
X033304Y056020D02*
X033540Y056020D01*
X033540Y056098D02*
X033304Y056098D01*
X033304Y056176D02*
X033540Y056176D01*
X033540Y056254D02*
X033304Y056254D01*
X033304Y056332D02*
X033540Y056332D01*
X033540Y056410D02*
X033304Y056410D01*
X033304Y056488D02*
X033540Y056488D01*
X033540Y056566D02*
X033304Y056566D01*
X033304Y056644D02*
X033540Y056644D01*
X033540Y056722D02*
X033304Y056722D01*
X033304Y053816D02*
X033540Y053816D01*
X033304Y053816D02*
X033304Y054682D01*
X033540Y054682D01*
X033540Y053816D01*
X033540Y053894D02*
X033304Y053894D01*
X033304Y053972D02*
X033540Y053972D01*
X033540Y054050D02*
X033304Y054050D01*
X033304Y054128D02*
X033540Y054128D01*
X033540Y054206D02*
X033304Y054206D01*
X033304Y054284D02*
X033540Y054284D01*
X033540Y054362D02*
X033304Y054362D01*
X033304Y054440D02*
X033540Y054440D01*
X033540Y054518D02*
X033304Y054518D01*
X033304Y054596D02*
X033540Y054596D01*
X033540Y054674D02*
X033304Y054674D01*
X033040Y053816D02*
X032804Y053816D01*
X032804Y054682D01*
X033040Y054682D01*
X033040Y053816D01*
X033040Y053894D02*
X032804Y053894D01*
X032804Y053972D02*
X033040Y053972D01*
X033040Y054050D02*
X032804Y054050D01*
X032804Y054128D02*
X033040Y054128D01*
X033040Y054206D02*
X032804Y054206D01*
X032804Y054284D02*
X033040Y054284D01*
X033040Y054362D02*
X032804Y054362D01*
X032804Y054440D02*
X033040Y054440D01*
X033040Y054518D02*
X032804Y054518D01*
X032804Y054596D02*
X033040Y054596D01*
X033040Y054674D02*
X032804Y054674D01*
X032540Y053816D02*
X032304Y053816D01*
X032304Y054682D01*
X032540Y054682D01*
X032540Y053816D01*
X032540Y053894D02*
X032304Y053894D01*
X032304Y053972D02*
X032540Y053972D01*
X032540Y054050D02*
X032304Y054050D01*
X032304Y054128D02*
X032540Y054128D01*
X032540Y054206D02*
X032304Y054206D01*
X032304Y054284D02*
X032540Y054284D01*
X032540Y054362D02*
X032304Y054362D01*
X032304Y054440D02*
X032540Y054440D01*
X032540Y054518D02*
X032304Y054518D01*
X032304Y054596D02*
X032540Y054596D01*
X032540Y054674D02*
X032304Y054674D01*
X032040Y053816D02*
X031804Y053816D01*
X031804Y054682D01*
X032040Y054682D01*
X032040Y053816D01*
X032040Y053894D02*
X031804Y053894D01*
X031804Y053972D02*
X032040Y053972D01*
X032040Y054050D02*
X031804Y054050D01*
X031804Y054128D02*
X032040Y054128D01*
X032040Y054206D02*
X031804Y054206D01*
X031804Y054284D02*
X032040Y054284D01*
X032040Y054362D02*
X031804Y054362D01*
X031804Y054440D02*
X032040Y054440D01*
X032040Y054518D02*
X031804Y054518D01*
X031804Y054596D02*
X032040Y054596D01*
X032040Y054674D02*
X031804Y054674D01*
X029956Y051267D02*
X029956Y051011D01*
X029720Y051011D01*
X029720Y051267D01*
X029956Y051267D01*
X029956Y051089D02*
X029720Y051089D01*
X029720Y051167D02*
X029956Y051167D01*
X029956Y051245D02*
X029720Y051245D01*
X029562Y051267D02*
X029562Y051011D01*
X029326Y051011D01*
X029326Y051267D01*
X029562Y051267D01*
X029562Y051089D02*
X029326Y051089D01*
X029326Y051167D02*
X029562Y051167D01*
X029562Y051245D02*
X029326Y051245D01*
X027672Y054259D02*
X027672Y054515D01*
X027672Y054259D02*
X027436Y054259D01*
X027436Y054515D01*
X027672Y054515D01*
X027672Y054337D02*
X027436Y054337D01*
X027436Y054415D02*
X027672Y054415D01*
X027672Y054493D02*
X027436Y054493D01*
X027279Y054515D02*
X027279Y054259D01*
X027043Y054259D01*
X027043Y054515D01*
X027279Y054515D01*
X027279Y054337D02*
X027043Y054337D01*
X027043Y054415D02*
X027279Y054415D01*
X027279Y054493D02*
X027043Y054493D01*
X023942Y046592D02*
X023686Y046592D01*
X023686Y046828D01*
X023942Y046828D01*
X023942Y046592D01*
X023942Y046670D02*
X023686Y046670D01*
X023686Y046748D02*
X023942Y046748D01*
X023942Y046826D02*
X023686Y046826D01*
X023686Y046198D02*
X023942Y046198D01*
X023686Y046198D02*
X023686Y046434D01*
X023942Y046434D01*
X023942Y046198D01*
X023942Y046276D02*
X023686Y046276D01*
X023686Y046354D02*
X023942Y046354D01*
X023942Y046432D02*
X023686Y046432D01*
X017052Y047852D02*
X016796Y047852D01*
X017052Y047852D02*
X017052Y047616D01*
X016796Y047616D01*
X016796Y047852D01*
X016796Y047694D02*
X017052Y047694D01*
X017052Y047772D02*
X016796Y047772D01*
X016796Y047850D02*
X017052Y047850D01*
X017052Y048245D02*
X016796Y048245D01*
X017052Y048245D02*
X017052Y048009D01*
X016796Y048009D01*
X016796Y048245D01*
X016796Y048087D02*
X017052Y048087D01*
X017052Y048165D02*
X016796Y048165D01*
X016796Y048243D02*
X017052Y048243D01*
X016068Y047970D02*
X015812Y047970D01*
X015812Y048206D01*
X016068Y048206D01*
X016068Y047970D01*
X016068Y048048D02*
X015812Y048048D01*
X015812Y048126D02*
X016068Y048126D01*
X016068Y048204D02*
X015812Y048204D01*
X015812Y047576D02*
X016068Y047576D01*
X015812Y047576D02*
X015812Y047812D01*
X016068Y047812D01*
X016068Y047576D01*
X016068Y047654D02*
X015812Y047654D01*
X015812Y047732D02*
X016068Y047732D01*
X016068Y047810D02*
X015812Y047810D01*
X016206Y056828D02*
X016462Y056828D01*
X016206Y056828D02*
X016206Y057064D01*
X016462Y057064D01*
X016462Y056828D01*
X016462Y056906D02*
X016206Y056906D01*
X016206Y056984D02*
X016462Y056984D01*
X016462Y057062D02*
X016206Y057062D01*
X016206Y057222D02*
X016462Y057222D01*
X016206Y057222D02*
X016206Y057458D01*
X016462Y057458D01*
X016462Y057222D01*
X016462Y057300D02*
X016206Y057300D01*
X016206Y057378D02*
X016462Y057378D01*
X016462Y057456D02*
X016206Y057456D01*
X016796Y057222D02*
X017052Y057222D01*
X016796Y057222D02*
X016796Y057458D01*
X017052Y057458D01*
X017052Y057222D01*
X017052Y057300D02*
X016796Y057300D01*
X016796Y057378D02*
X017052Y057378D01*
X017052Y057456D02*
X016796Y057456D01*
X016796Y056828D02*
X017052Y056828D01*
X016796Y056828D02*
X016796Y057064D01*
X017052Y057064D01*
X017052Y056828D01*
X017052Y056906D02*
X016796Y056906D01*
X016796Y056984D02*
X017052Y056984D01*
X017052Y057062D02*
X016796Y057062D01*
X017387Y056828D02*
X017643Y056828D01*
X017387Y056828D02*
X017387Y057064D01*
X017643Y057064D01*
X017643Y056828D01*
X017643Y056906D02*
X017387Y056906D01*
X017387Y056984D02*
X017643Y056984D01*
X017643Y057062D02*
X017387Y057062D01*
X017387Y057222D02*
X017643Y057222D01*
X017387Y057222D02*
X017387Y057458D01*
X017643Y057458D01*
X017643Y057222D01*
X017643Y057300D02*
X017387Y057300D01*
X017387Y057378D02*
X017643Y057378D01*
X017643Y057456D02*
X017387Y057456D01*
X017977Y057222D02*
X018233Y057222D01*
X017977Y057222D02*
X017977Y057458D01*
X018233Y057458D01*
X018233Y057222D01*
X018233Y057300D02*
X017977Y057300D01*
X017977Y057378D02*
X018233Y057378D01*
X018233Y057456D02*
X017977Y057456D01*
X017977Y056828D02*
X018233Y056828D01*
X017977Y056828D02*
X017977Y057064D01*
X018233Y057064D01*
X018233Y056828D01*
X018233Y056906D02*
X017977Y056906D01*
X017977Y056984D02*
X018233Y056984D01*
X018233Y057062D02*
X017977Y057062D01*
X017977Y034820D02*
X018233Y034820D01*
X018233Y034584D01*
X017977Y034584D01*
X017977Y034820D01*
X017977Y034662D02*
X018233Y034662D01*
X018233Y034740D02*
X017977Y034740D01*
X017977Y034818D02*
X018233Y034818D01*
X018233Y034426D02*
X017977Y034426D01*
X018233Y034426D02*
X018233Y034190D01*
X017977Y034190D01*
X017977Y034426D01*
X017977Y034268D02*
X018233Y034268D01*
X018233Y034346D02*
X017977Y034346D01*
X017977Y034424D02*
X018233Y034424D01*
X013302Y031730D02*
X013302Y031414D01*
X013302Y031730D02*
X013538Y031730D01*
X013538Y031414D01*
X013302Y031414D01*
X013302Y031492D02*
X013538Y031492D01*
X013538Y031570D02*
X013302Y031570D01*
X013302Y031648D02*
X013538Y031648D01*
X013538Y031726D02*
X013302Y031726D01*
X013302Y030746D02*
X013302Y030430D01*
X013302Y030746D02*
X013538Y030746D01*
X013538Y030430D01*
X013302Y030430D01*
X013302Y030508D02*
X013538Y030508D01*
X013538Y030586D02*
X013302Y030586D01*
X013302Y030664D02*
X013538Y030664D01*
X013538Y030742D02*
X013302Y030742D01*
D17*
X022260Y059131D02*
X022810Y059131D01*
X022260Y059131D02*
X022260Y059485D01*
X022810Y059485D01*
X022810Y059131D01*
X022810Y059248D02*
X022260Y059248D01*
X022260Y059365D02*
X022810Y059365D01*
X022810Y059482D02*
X022260Y059482D01*
X023244Y059131D02*
X023794Y059131D01*
X023244Y059131D02*
X023244Y059485D01*
X023794Y059485D01*
X023794Y059131D01*
X023794Y059248D02*
X023244Y059248D01*
X023244Y059365D02*
X023794Y059365D01*
X023794Y059482D02*
X023244Y059482D01*
X024425Y059131D02*
X024975Y059131D01*
X024425Y059131D02*
X024425Y059485D01*
X024975Y059485D01*
X024975Y059131D01*
X024975Y059248D02*
X024425Y059248D01*
X024425Y059365D02*
X024975Y059365D01*
X024975Y059482D02*
X024425Y059482D01*
X025409Y059131D02*
X025959Y059131D01*
X025409Y059131D02*
X025409Y059485D01*
X025959Y059485D01*
X025959Y059131D01*
X025959Y059248D02*
X025409Y059248D01*
X025409Y059365D02*
X025959Y059365D01*
X025959Y059482D02*
X025409Y059482D01*
X026590Y059131D02*
X027140Y059131D01*
X026590Y059131D02*
X026590Y059485D01*
X027140Y059485D01*
X027140Y059131D01*
X027140Y059248D02*
X026590Y059248D01*
X026590Y059365D02*
X027140Y059365D01*
X027140Y059482D02*
X026590Y059482D01*
X027575Y059131D02*
X028125Y059131D01*
X027575Y059131D02*
X027575Y059485D01*
X028125Y059485D01*
X028125Y059131D01*
X028125Y059248D02*
X027575Y059248D01*
X027575Y059365D02*
X028125Y059365D01*
X028125Y059482D02*
X027575Y059482D01*
X028756Y059131D02*
X029306Y059131D01*
X028756Y059131D02*
X028756Y059485D01*
X029306Y059485D01*
X029306Y059131D01*
X029306Y059248D02*
X028756Y059248D01*
X028756Y059365D02*
X029306Y059365D01*
X029306Y059482D02*
X028756Y059482D01*
X029740Y059131D02*
X030290Y059131D01*
X029740Y059131D02*
X029740Y059485D01*
X030290Y059485D01*
X030290Y059131D01*
X030290Y059248D02*
X029740Y059248D01*
X029740Y059365D02*
X030290Y059365D01*
X030290Y059482D02*
X029740Y059482D01*
D18*
X020069Y040269D02*
X019193Y040269D01*
X019193Y040477D01*
X020069Y040477D01*
X020069Y040269D01*
X020069Y040337D02*
X019193Y040337D01*
X019193Y040405D02*
X020069Y040405D01*
X020069Y040473D02*
X019193Y040473D01*
X019193Y039769D02*
X020069Y039769D01*
X019193Y039769D02*
X019193Y039977D01*
X020069Y039977D01*
X020069Y039769D01*
X020069Y039837D02*
X019193Y039837D01*
X019193Y039905D02*
X020069Y039905D01*
X020069Y039973D02*
X019193Y039973D01*
X019193Y039269D02*
X020069Y039269D01*
X019193Y039269D02*
X019193Y039477D01*
X020069Y039477D01*
X020069Y039269D01*
X020069Y039337D02*
X019193Y039337D01*
X019193Y039405D02*
X020069Y039405D01*
X020069Y039473D02*
X019193Y039473D01*
X019193Y038769D02*
X020069Y038769D01*
X019193Y038769D02*
X019193Y038977D01*
X020069Y038977D01*
X020069Y038769D01*
X020069Y038837D02*
X019193Y038837D01*
X019193Y038905D02*
X020069Y038905D01*
X020069Y038973D02*
X019193Y038973D01*
X017805Y038769D02*
X016929Y038769D01*
X016929Y038977D01*
X017805Y038977D01*
X017805Y038769D01*
X017805Y038837D02*
X016929Y038837D01*
X016929Y038905D02*
X017805Y038905D01*
X017805Y038973D02*
X016929Y038973D01*
X016929Y039269D02*
X017805Y039269D01*
X016929Y039269D02*
X016929Y039477D01*
X017805Y039477D01*
X017805Y039269D01*
X017805Y039337D02*
X016929Y039337D01*
X016929Y039405D02*
X017805Y039405D01*
X017805Y039473D02*
X016929Y039473D01*
X016929Y039769D02*
X017805Y039769D01*
X016929Y039769D02*
X016929Y039977D01*
X017805Y039977D01*
X017805Y039769D01*
X017805Y039837D02*
X016929Y039837D01*
X016929Y039905D02*
X017805Y039905D01*
X017805Y039973D02*
X016929Y039973D01*
X016929Y040269D02*
X017805Y040269D01*
X016929Y040269D02*
X016929Y040477D01*
X017805Y040477D01*
X017805Y040269D01*
X017805Y040337D02*
X016929Y040337D01*
X016929Y040405D02*
X017805Y040405D01*
X017805Y040473D02*
X016929Y040473D01*
D19*
X018499Y039623D03*
D20*
X017528Y035393D02*
X016518Y035393D01*
X017528Y035393D02*
X017528Y034995D01*
X016518Y034995D01*
X016518Y035393D01*
X016518Y035127D02*
X017528Y035127D01*
X017528Y035259D02*
X016518Y035259D01*
X016518Y035391D02*
X017528Y035391D01*
X017528Y034212D02*
X016518Y034212D01*
X017528Y034212D02*
X017528Y033814D01*
X016518Y033814D01*
X016518Y034212D01*
X016518Y033946D02*
X017528Y033946D01*
X017528Y034078D02*
X016518Y034078D01*
X016518Y034210D02*
X017528Y034210D01*
X014363Y038370D02*
X014363Y039380D01*
X014761Y039380D01*
X014761Y038370D01*
X014363Y038370D01*
X014363Y038502D02*
X014761Y038502D01*
X014761Y038634D02*
X014363Y038634D01*
X014363Y038766D02*
X014761Y038766D01*
X014761Y038898D02*
X014363Y038898D01*
X014363Y039030D02*
X014761Y039030D01*
X014761Y039162D02*
X014363Y039162D01*
X014363Y039294D02*
X014761Y039294D01*
X014363Y039906D02*
X014363Y040916D01*
X014761Y040916D01*
X014761Y039906D01*
X014363Y039906D01*
X014363Y040038D02*
X014761Y040038D01*
X014761Y040170D02*
X014363Y040170D01*
X014363Y040302D02*
X014761Y040302D01*
X014761Y040434D02*
X014363Y040434D01*
X014363Y040566D02*
X014761Y040566D01*
X014761Y040698D02*
X014363Y040698D01*
X014363Y040830D02*
X014761Y040830D01*
X013182Y040916D02*
X013182Y039906D01*
X013182Y040916D02*
X013580Y040916D01*
X013580Y039906D01*
X013182Y039906D01*
X013182Y040038D02*
X013580Y040038D01*
X013580Y040170D02*
X013182Y040170D01*
X013182Y040302D02*
X013580Y040302D01*
X013580Y040434D02*
X013182Y040434D01*
X013182Y040566D02*
X013580Y040566D01*
X013580Y040698D02*
X013182Y040698D01*
X013182Y040830D02*
X013580Y040830D01*
X013182Y039380D02*
X013182Y038370D01*
X013182Y039380D02*
X013580Y039380D01*
X013580Y038370D01*
X013182Y038370D01*
X013182Y038502D02*
X013580Y038502D01*
X013580Y038634D02*
X013182Y038634D01*
X013182Y038766D02*
X013580Y038766D01*
X013580Y038898D02*
X013182Y038898D01*
X013182Y039030D02*
X013580Y039030D01*
X013580Y039162D02*
X013182Y039162D01*
X013182Y039294D02*
X013580Y039294D01*
X027025Y055172D02*
X027025Y055768D01*
X027025Y055172D02*
X026627Y055172D01*
X026627Y055768D01*
X027025Y055768D01*
X027025Y055304D02*
X026627Y055304D01*
X026627Y055436D02*
X027025Y055436D01*
X027025Y055568D02*
X026627Y055568D01*
X026627Y055700D02*
X027025Y055700D01*
X028206Y055768D02*
X028206Y055172D01*
X027808Y055172D01*
X027808Y055768D01*
X028206Y055768D01*
X028206Y055304D02*
X027808Y055304D01*
X027808Y055436D02*
X028206Y055436D01*
X028206Y055568D02*
X027808Y055568D01*
X027808Y055700D02*
X028206Y055700D01*
X031183Y046712D02*
X032193Y046712D01*
X032193Y046314D01*
X031183Y046314D01*
X031183Y046712D01*
X031183Y046446D02*
X032193Y046446D01*
X032193Y046578D02*
X031183Y046578D01*
X031183Y046710D02*
X032193Y046710D01*
X032193Y045531D02*
X031183Y045531D01*
X032193Y045531D02*
X032193Y045133D01*
X031183Y045133D01*
X031183Y045531D01*
X031183Y045265D02*
X032193Y045265D01*
X032193Y045397D02*
X031183Y045397D01*
X031183Y045529D02*
X032193Y045529D01*
X031248Y037062D02*
X030238Y037062D01*
X030238Y037460D01*
X031248Y037460D01*
X031248Y037062D01*
X031248Y037194D02*
X030238Y037194D01*
X030238Y037326D02*
X031248Y037326D01*
X031248Y037458D02*
X030238Y037458D01*
X030238Y035881D02*
X031248Y035881D01*
X030238Y035881D02*
X030238Y036279D01*
X031248Y036279D01*
X031248Y035881D01*
X031248Y036013D02*
X030238Y036013D01*
X030238Y036145D02*
X031248Y036145D01*
X031248Y036277D02*
X030238Y036277D01*
X030343Y033322D02*
X029333Y033322D01*
X029333Y033720D01*
X030343Y033720D01*
X030343Y033322D01*
X030343Y033454D02*
X029333Y033454D01*
X029333Y033586D02*
X030343Y033586D01*
X030343Y033718D02*
X029333Y033718D01*
X029333Y032141D02*
X030343Y032141D01*
X029333Y032141D02*
X029333Y032539D01*
X030343Y032539D01*
X030343Y032141D01*
X030343Y032273D02*
X029333Y032273D01*
X029333Y032405D02*
X030343Y032405D01*
X030343Y032537D02*
X029333Y032537D01*
X036301Y032731D02*
X037311Y032731D01*
X036301Y032731D02*
X036301Y033129D01*
X037311Y033129D01*
X037311Y032731D01*
X037311Y032863D02*
X036301Y032863D01*
X036301Y032995D02*
X037311Y032995D01*
X037311Y033127D02*
X036301Y033127D01*
X036301Y031550D02*
X037311Y031550D01*
X036301Y031550D02*
X036301Y031948D01*
X037311Y031948D01*
X037311Y031550D01*
X037311Y031682D02*
X036301Y031682D01*
X036301Y031814D02*
X037311Y031814D01*
X037311Y031946D02*
X036301Y031946D01*
D21*
X025086Y038836D03*
X033417Y057962D03*
X034417Y057962D03*
X035417Y057962D03*
D22*
X015448Y054190D03*
D23*
X015448Y053206D03*
X015448Y052222D03*
X014464Y052222D03*
X014464Y053206D03*
X014464Y054190D03*
D24*
X017318Y050647D03*
X028224Y051434D03*
X029405Y054100D03*
X031228Y043757D03*
X023684Y034899D03*
D25*
X022684Y034899D03*
X032228Y043757D03*
X028224Y049434D03*
X028224Y050434D03*
X029405Y053100D03*
X017318Y052647D03*
X017318Y051647D03*
D26*
X021029Y033196D02*
X021875Y033196D01*
X021029Y033196D02*
X021029Y033846D01*
X021875Y033846D01*
X021875Y033196D01*
X021875Y033412D02*
X021029Y033412D01*
X021029Y033628D02*
X021875Y033628D01*
X021875Y033844D02*
X021029Y033844D01*
X021029Y032015D02*
X021875Y032015D01*
X021029Y032015D02*
X021029Y032665D01*
X021875Y032665D01*
X021875Y032015D01*
X021875Y032231D02*
X021029Y032231D01*
X021029Y032447D02*
X021875Y032447D01*
X021875Y032663D02*
X021029Y032663D01*
X024966Y032015D02*
X025812Y032015D01*
X024966Y032015D02*
X024966Y032665D01*
X025812Y032665D01*
X025812Y032015D01*
X025812Y032231D02*
X024966Y032231D01*
X024966Y032447D02*
X025812Y032447D01*
X025812Y032663D02*
X024966Y032663D01*
X024966Y033196D02*
X025812Y033196D01*
X024966Y033196D02*
X024966Y033846D01*
X025812Y033846D01*
X025812Y033196D01*
X025812Y033412D02*
X024966Y033412D01*
X024966Y033628D02*
X025812Y033628D01*
X025812Y033844D02*
X024966Y033844D01*
X018431Y025578D02*
X017387Y025578D01*
X018431Y025578D02*
X018431Y024928D01*
X017387Y024928D01*
X017387Y025578D01*
X017387Y025144D02*
X018431Y025144D01*
X018431Y025360D02*
X017387Y025360D01*
X017387Y025576D02*
X018431Y025576D01*
X018431Y023216D02*
X017387Y023216D01*
X018431Y023216D02*
X018431Y022566D01*
X017387Y022566D01*
X017387Y023216D01*
X017387Y022782D02*
X018431Y022782D01*
X018431Y022998D02*
X017387Y022998D01*
X017387Y023214D02*
X018431Y023214D01*
X014100Y023216D02*
X013056Y023216D01*
X014100Y023216D02*
X014100Y022566D01*
X013056Y022566D01*
X013056Y023216D01*
X013056Y022782D02*
X014100Y022782D01*
X014100Y022998D02*
X013056Y022998D01*
X013056Y023214D02*
X014100Y023214D01*
X014100Y025578D02*
X013056Y025578D01*
X014100Y025578D02*
X014100Y024928D01*
X013056Y024928D01*
X013056Y025578D01*
X013056Y025144D02*
X014100Y025144D01*
X014100Y025360D02*
X013056Y025360D01*
X013056Y025576D02*
X014100Y025576D01*
D27*
X021526Y047148D02*
X021526Y047650D01*
X021526Y047148D02*
X021378Y047148D01*
X021378Y047650D01*
X021526Y047650D01*
X021526Y047196D02*
X021378Y047196D01*
X021378Y047244D02*
X021526Y047244D01*
X021526Y047292D02*
X021378Y047292D01*
X021378Y047340D02*
X021526Y047340D01*
X021526Y047388D02*
X021378Y047388D01*
X021378Y047436D02*
X021526Y047436D01*
X021526Y047484D02*
X021378Y047484D01*
X021378Y047532D02*
X021526Y047532D01*
X021526Y047580D02*
X021378Y047580D01*
X021378Y047628D02*
X021526Y047628D01*
X021723Y047650D02*
X021723Y047148D01*
X021575Y047148D01*
X021575Y047650D01*
X021723Y047650D01*
X021723Y047196D02*
X021575Y047196D01*
X021575Y047244D02*
X021723Y047244D01*
X021723Y047292D02*
X021575Y047292D01*
X021575Y047340D02*
X021723Y047340D01*
X021723Y047388D02*
X021575Y047388D01*
X021575Y047436D02*
X021723Y047436D01*
X021723Y047484D02*
X021575Y047484D01*
X021575Y047532D02*
X021723Y047532D01*
X021723Y047580D02*
X021575Y047580D01*
X021575Y047628D02*
X021723Y047628D01*
X021920Y047650D02*
X021920Y047148D01*
X021772Y047148D01*
X021772Y047650D01*
X021920Y047650D01*
X021920Y047196D02*
X021772Y047196D01*
X021772Y047244D02*
X021920Y047244D01*
X021920Y047292D02*
X021772Y047292D01*
X021772Y047340D02*
X021920Y047340D01*
X021920Y047388D02*
X021772Y047388D01*
X021772Y047436D02*
X021920Y047436D01*
X021920Y047484D02*
X021772Y047484D01*
X021772Y047532D02*
X021920Y047532D01*
X021920Y047580D02*
X021772Y047580D01*
X021772Y047628D02*
X021920Y047628D01*
X022116Y047650D02*
X022116Y047148D01*
X021968Y047148D01*
X021968Y047650D01*
X022116Y047650D01*
X022116Y047196D02*
X021968Y047196D01*
X021968Y047244D02*
X022116Y047244D01*
X022116Y047292D02*
X021968Y047292D01*
X021968Y047340D02*
X022116Y047340D01*
X022116Y047388D02*
X021968Y047388D01*
X021968Y047436D02*
X022116Y047436D01*
X022116Y047484D02*
X021968Y047484D01*
X021968Y047532D02*
X022116Y047532D01*
X022116Y047580D02*
X021968Y047580D01*
X021968Y047628D02*
X022116Y047628D01*
X022313Y047650D02*
X022313Y047148D01*
X022165Y047148D01*
X022165Y047650D01*
X022313Y047650D01*
X022313Y047196D02*
X022165Y047196D01*
X022165Y047244D02*
X022313Y047244D01*
X022313Y047292D02*
X022165Y047292D01*
X022165Y047340D02*
X022313Y047340D01*
X022313Y047388D02*
X022165Y047388D01*
X022165Y047436D02*
X022313Y047436D01*
X022313Y047484D02*
X022165Y047484D01*
X022165Y047532D02*
X022313Y047532D01*
X022313Y047580D02*
X022165Y047580D01*
X022165Y047628D02*
X022313Y047628D01*
X022510Y047650D02*
X022510Y047148D01*
X022362Y047148D01*
X022362Y047650D01*
X022510Y047650D01*
X022510Y047196D02*
X022362Y047196D01*
X022362Y047244D02*
X022510Y047244D01*
X022510Y047292D02*
X022362Y047292D01*
X022362Y047340D02*
X022510Y047340D01*
X022510Y047388D02*
X022362Y047388D01*
X022362Y047436D02*
X022510Y047436D01*
X022510Y047484D02*
X022362Y047484D01*
X022362Y047532D02*
X022510Y047532D01*
X022510Y047580D02*
X022362Y047580D01*
X022362Y047628D02*
X022510Y047628D01*
X022707Y047650D02*
X022707Y047148D01*
X022559Y047148D01*
X022559Y047650D01*
X022707Y047650D01*
X022707Y047196D02*
X022559Y047196D01*
X022559Y047244D02*
X022707Y047244D01*
X022707Y047292D02*
X022559Y047292D01*
X022559Y047340D02*
X022707Y047340D01*
X022707Y047388D02*
X022559Y047388D01*
X022559Y047436D02*
X022707Y047436D01*
X022707Y047484D02*
X022559Y047484D01*
X022559Y047532D02*
X022707Y047532D01*
X022707Y047580D02*
X022559Y047580D01*
X022559Y047628D02*
X022707Y047628D01*
X022904Y047650D02*
X022904Y047148D01*
X022756Y047148D01*
X022756Y047650D01*
X022904Y047650D01*
X022904Y047196D02*
X022756Y047196D01*
X022756Y047244D02*
X022904Y047244D01*
X022904Y047292D02*
X022756Y047292D01*
X022756Y047340D02*
X022904Y047340D01*
X022904Y047388D02*
X022756Y047388D01*
X022756Y047436D02*
X022904Y047436D01*
X022904Y047484D02*
X022756Y047484D01*
X022756Y047532D02*
X022904Y047532D01*
X022904Y047580D02*
X022756Y047580D01*
X022756Y047628D02*
X022904Y047628D01*
X023101Y047650D02*
X023101Y047148D01*
X022953Y047148D01*
X022953Y047650D01*
X023101Y047650D01*
X023101Y047196D02*
X022953Y047196D01*
X022953Y047244D02*
X023101Y047244D01*
X023101Y047292D02*
X022953Y047292D01*
X022953Y047340D02*
X023101Y047340D01*
X023101Y047388D02*
X022953Y047388D01*
X022953Y047436D02*
X023101Y047436D01*
X023101Y047484D02*
X022953Y047484D01*
X022953Y047532D02*
X023101Y047532D01*
X023101Y047580D02*
X022953Y047580D01*
X022953Y047628D02*
X023101Y047628D01*
X023298Y047650D02*
X023298Y047148D01*
X023150Y047148D01*
X023150Y047650D01*
X023298Y047650D01*
X023298Y047196D02*
X023150Y047196D01*
X023150Y047244D02*
X023298Y047244D01*
X023298Y047292D02*
X023150Y047292D01*
X023150Y047340D02*
X023298Y047340D01*
X023298Y047388D02*
X023150Y047388D01*
X023150Y047436D02*
X023298Y047436D01*
X023298Y047484D02*
X023150Y047484D01*
X023150Y047532D02*
X023298Y047532D01*
X023298Y047580D02*
X023150Y047580D01*
X023150Y047628D02*
X023298Y047628D01*
X023494Y047650D02*
X023494Y047148D01*
X023346Y047148D01*
X023346Y047650D01*
X023494Y047650D01*
X023494Y047196D02*
X023346Y047196D01*
X023346Y047244D02*
X023494Y047244D01*
X023494Y047292D02*
X023346Y047292D01*
X023346Y047340D02*
X023494Y047340D01*
X023494Y047388D02*
X023346Y047388D01*
X023346Y047436D02*
X023494Y047436D01*
X023494Y047484D02*
X023346Y047484D01*
X023346Y047532D02*
X023494Y047532D01*
X023494Y047580D02*
X023346Y047580D01*
X023346Y047628D02*
X023494Y047628D01*
X023691Y047650D02*
X023691Y047148D01*
X023543Y047148D01*
X023543Y047650D01*
X023691Y047650D01*
X023691Y047196D02*
X023543Y047196D01*
X023543Y047244D02*
X023691Y047244D01*
X023691Y047292D02*
X023543Y047292D01*
X023543Y047340D02*
X023691Y047340D01*
X023691Y047388D02*
X023543Y047388D01*
X023543Y047436D02*
X023691Y047436D01*
X023691Y047484D02*
X023543Y047484D01*
X023543Y047532D02*
X023691Y047532D01*
X023691Y047580D02*
X023543Y047580D01*
X023543Y047628D02*
X023691Y047628D01*
X023888Y047650D02*
X023888Y047148D01*
X023740Y047148D01*
X023740Y047650D01*
X023888Y047650D01*
X023888Y047196D02*
X023740Y047196D01*
X023740Y047244D02*
X023888Y047244D01*
X023888Y047292D02*
X023740Y047292D01*
X023740Y047340D02*
X023888Y047340D01*
X023888Y047388D02*
X023740Y047388D01*
X023740Y047436D02*
X023888Y047436D01*
X023888Y047484D02*
X023740Y047484D01*
X023740Y047532D02*
X023888Y047532D01*
X023888Y047580D02*
X023740Y047580D01*
X023740Y047628D02*
X023888Y047628D01*
X024085Y047650D02*
X024085Y047148D01*
X023937Y047148D01*
X023937Y047650D01*
X024085Y047650D01*
X024085Y047196D02*
X023937Y047196D01*
X023937Y047244D02*
X024085Y047244D01*
X024085Y047292D02*
X023937Y047292D01*
X023937Y047340D02*
X024085Y047340D01*
X024085Y047388D02*
X023937Y047388D01*
X023937Y047436D02*
X024085Y047436D01*
X024085Y047484D02*
X023937Y047484D01*
X023937Y047532D02*
X024085Y047532D01*
X024085Y047580D02*
X023937Y047580D01*
X023937Y047628D02*
X024085Y047628D01*
X024282Y047650D02*
X024282Y047148D01*
X024134Y047148D01*
X024134Y047650D01*
X024282Y047650D01*
X024282Y047196D02*
X024134Y047196D01*
X024134Y047244D02*
X024282Y047244D01*
X024282Y047292D02*
X024134Y047292D01*
X024134Y047340D02*
X024282Y047340D01*
X024282Y047388D02*
X024134Y047388D01*
X024134Y047436D02*
X024282Y047436D01*
X024282Y047484D02*
X024134Y047484D01*
X024134Y047532D02*
X024282Y047532D01*
X024282Y047580D02*
X024134Y047580D01*
X024134Y047628D02*
X024282Y047628D01*
X024479Y047650D02*
X024479Y047148D01*
X024331Y047148D01*
X024331Y047650D01*
X024479Y047650D01*
X024479Y047196D02*
X024331Y047196D01*
X024331Y047244D02*
X024479Y047244D01*
X024479Y047292D02*
X024331Y047292D01*
X024331Y047340D02*
X024479Y047340D01*
X024479Y047388D02*
X024331Y047388D01*
X024331Y047436D02*
X024479Y047436D01*
X024479Y047484D02*
X024331Y047484D01*
X024331Y047532D02*
X024479Y047532D01*
X024479Y047580D02*
X024331Y047580D01*
X024331Y047628D02*
X024479Y047628D01*
X024676Y047650D02*
X024676Y047148D01*
X024528Y047148D01*
X024528Y047650D01*
X024676Y047650D01*
X024676Y047196D02*
X024528Y047196D01*
X024528Y047244D02*
X024676Y047244D01*
X024676Y047292D02*
X024528Y047292D01*
X024528Y047340D02*
X024676Y047340D01*
X024676Y047388D02*
X024528Y047388D01*
X024528Y047436D02*
X024676Y047436D01*
X024676Y047484D02*
X024528Y047484D01*
X024528Y047532D02*
X024676Y047532D01*
X024676Y047580D02*
X024528Y047580D01*
X024528Y047628D02*
X024676Y047628D01*
X024872Y047650D02*
X024872Y047148D01*
X024724Y047148D01*
X024724Y047650D01*
X024872Y047650D01*
X024872Y047196D02*
X024724Y047196D01*
X024724Y047244D02*
X024872Y047244D01*
X024872Y047292D02*
X024724Y047292D01*
X024724Y047340D02*
X024872Y047340D01*
X024872Y047388D02*
X024724Y047388D01*
X024724Y047436D02*
X024872Y047436D01*
X024872Y047484D02*
X024724Y047484D01*
X024724Y047532D02*
X024872Y047532D01*
X024872Y047580D02*
X024724Y047580D01*
X024724Y047628D02*
X024872Y047628D01*
X025069Y047650D02*
X025069Y047148D01*
X024921Y047148D01*
X024921Y047650D01*
X025069Y047650D01*
X025069Y047196D02*
X024921Y047196D01*
X024921Y047244D02*
X025069Y047244D01*
X025069Y047292D02*
X024921Y047292D01*
X024921Y047340D02*
X025069Y047340D01*
X025069Y047388D02*
X024921Y047388D01*
X024921Y047436D02*
X025069Y047436D01*
X025069Y047484D02*
X024921Y047484D01*
X024921Y047532D02*
X025069Y047532D01*
X025069Y047580D02*
X024921Y047580D01*
X024921Y047628D02*
X025069Y047628D01*
X025266Y047650D02*
X025266Y047148D01*
X025118Y047148D01*
X025118Y047650D01*
X025266Y047650D01*
X025266Y047196D02*
X025118Y047196D01*
X025118Y047244D02*
X025266Y047244D01*
X025266Y047292D02*
X025118Y047292D01*
X025118Y047340D02*
X025266Y047340D01*
X025266Y047388D02*
X025118Y047388D01*
X025118Y047436D02*
X025266Y047436D01*
X025266Y047484D02*
X025118Y047484D01*
X025118Y047532D02*
X025266Y047532D01*
X025266Y047580D02*
X025118Y047580D01*
X025118Y047628D02*
X025266Y047628D01*
X025463Y047650D02*
X025463Y047148D01*
X025315Y047148D01*
X025315Y047650D01*
X025463Y047650D01*
X025463Y047196D02*
X025315Y047196D01*
X025315Y047244D02*
X025463Y047244D01*
X025463Y047292D02*
X025315Y047292D01*
X025315Y047340D02*
X025463Y047340D01*
X025463Y047388D02*
X025315Y047388D01*
X025315Y047436D02*
X025463Y047436D01*
X025463Y047484D02*
X025315Y047484D01*
X025315Y047532D02*
X025463Y047532D01*
X025463Y047580D02*
X025315Y047580D01*
X025315Y047628D02*
X025463Y047628D01*
X025660Y047650D02*
X025660Y047148D01*
X025512Y047148D01*
X025512Y047650D01*
X025660Y047650D01*
X025660Y047196D02*
X025512Y047196D01*
X025512Y047244D02*
X025660Y047244D01*
X025660Y047292D02*
X025512Y047292D01*
X025512Y047340D02*
X025660Y047340D01*
X025660Y047388D02*
X025512Y047388D01*
X025512Y047436D02*
X025660Y047436D01*
X025660Y047484D02*
X025512Y047484D01*
X025512Y047532D02*
X025660Y047532D01*
X025660Y047580D02*
X025512Y047580D01*
X025512Y047628D02*
X025660Y047628D01*
X025857Y047650D02*
X025857Y047148D01*
X025709Y047148D01*
X025709Y047650D01*
X025857Y047650D01*
X025857Y047196D02*
X025709Y047196D01*
X025709Y047244D02*
X025857Y047244D01*
X025857Y047292D02*
X025709Y047292D01*
X025709Y047340D02*
X025857Y047340D01*
X025857Y047388D02*
X025709Y047388D01*
X025709Y047436D02*
X025857Y047436D01*
X025857Y047484D02*
X025709Y047484D01*
X025709Y047532D02*
X025857Y047532D01*
X025857Y047580D02*
X025709Y047580D01*
X025709Y047628D02*
X025857Y047628D01*
X026054Y047650D02*
X026054Y047148D01*
X025906Y047148D01*
X025906Y047650D01*
X026054Y047650D01*
X026054Y047196D02*
X025906Y047196D01*
X025906Y047244D02*
X026054Y047244D01*
X026054Y047292D02*
X025906Y047292D01*
X025906Y047340D02*
X026054Y047340D01*
X026054Y047388D02*
X025906Y047388D01*
X025906Y047436D02*
X026054Y047436D01*
X026054Y047484D02*
X025906Y047484D01*
X025906Y047532D02*
X026054Y047532D01*
X026054Y047580D02*
X025906Y047580D01*
X025906Y047628D02*
X026054Y047628D01*
X026250Y047650D02*
X026250Y047148D01*
X026102Y047148D01*
X026102Y047650D01*
X026250Y047650D01*
X026250Y047196D02*
X026102Y047196D01*
X026102Y047244D02*
X026250Y047244D01*
X026250Y047292D02*
X026102Y047292D01*
X026102Y047340D02*
X026250Y047340D01*
X026250Y047388D02*
X026102Y047388D01*
X026102Y047436D02*
X026250Y047436D01*
X026250Y047484D02*
X026102Y047484D01*
X026102Y047532D02*
X026250Y047532D01*
X026250Y047580D02*
X026102Y047580D01*
X026102Y047628D02*
X026250Y047628D01*
X026516Y048063D02*
X027018Y048063D01*
X027018Y047915D01*
X026516Y047915D01*
X026516Y048063D01*
X026516Y047963D02*
X027018Y047963D01*
X027018Y048011D02*
X026516Y048011D01*
X026516Y048059D02*
X027018Y048059D01*
X027018Y048260D02*
X026516Y048260D01*
X027018Y048260D02*
X027018Y048112D01*
X026516Y048112D01*
X026516Y048260D01*
X026516Y048160D02*
X027018Y048160D01*
X027018Y048208D02*
X026516Y048208D01*
X026516Y048256D02*
X027018Y048256D01*
X027018Y048457D02*
X026516Y048457D01*
X027018Y048457D02*
X027018Y048309D01*
X026516Y048309D01*
X026516Y048457D01*
X026516Y048357D02*
X027018Y048357D01*
X027018Y048405D02*
X026516Y048405D01*
X026516Y048453D02*
X027018Y048453D01*
X027018Y048654D02*
X026516Y048654D01*
X027018Y048654D02*
X027018Y048506D01*
X026516Y048506D01*
X026516Y048654D01*
X026516Y048554D02*
X027018Y048554D01*
X027018Y048602D02*
X026516Y048602D01*
X026516Y048650D02*
X027018Y048650D01*
X027018Y048851D02*
X026516Y048851D01*
X027018Y048851D02*
X027018Y048703D01*
X026516Y048703D01*
X026516Y048851D01*
X026516Y048751D02*
X027018Y048751D01*
X027018Y048799D02*
X026516Y048799D01*
X026516Y048847D02*
X027018Y048847D01*
X027018Y049048D02*
X026516Y049048D01*
X027018Y049048D02*
X027018Y048900D01*
X026516Y048900D01*
X026516Y049048D01*
X026516Y048948D02*
X027018Y048948D01*
X027018Y048996D02*
X026516Y048996D01*
X026516Y049044D02*
X027018Y049044D01*
X027018Y049245D02*
X026516Y049245D01*
X027018Y049245D02*
X027018Y049097D01*
X026516Y049097D01*
X026516Y049245D01*
X026516Y049145D02*
X027018Y049145D01*
X027018Y049193D02*
X026516Y049193D01*
X026516Y049241D02*
X027018Y049241D01*
X027018Y049441D02*
X026516Y049441D01*
X027018Y049441D02*
X027018Y049293D01*
X026516Y049293D01*
X026516Y049441D01*
X026516Y049341D02*
X027018Y049341D01*
X027018Y049389D02*
X026516Y049389D01*
X026516Y049437D02*
X027018Y049437D01*
X027018Y049638D02*
X026516Y049638D01*
X027018Y049638D02*
X027018Y049490D01*
X026516Y049490D01*
X026516Y049638D01*
X026516Y049538D02*
X027018Y049538D01*
X027018Y049586D02*
X026516Y049586D01*
X026516Y049634D02*
X027018Y049634D01*
X027018Y049835D02*
X026516Y049835D01*
X027018Y049835D02*
X027018Y049687D01*
X026516Y049687D01*
X026516Y049835D01*
X026516Y049735D02*
X027018Y049735D01*
X027018Y049783D02*
X026516Y049783D01*
X026516Y049831D02*
X027018Y049831D01*
X027018Y050032D02*
X026516Y050032D01*
X027018Y050032D02*
X027018Y049884D01*
X026516Y049884D01*
X026516Y050032D01*
X026516Y049932D02*
X027018Y049932D01*
X027018Y049980D02*
X026516Y049980D01*
X026516Y050028D02*
X027018Y050028D01*
X027018Y050229D02*
X026516Y050229D01*
X027018Y050229D02*
X027018Y050081D01*
X026516Y050081D01*
X026516Y050229D01*
X026516Y050129D02*
X027018Y050129D01*
X027018Y050177D02*
X026516Y050177D01*
X026516Y050225D02*
X027018Y050225D01*
X027018Y050426D02*
X026516Y050426D01*
X027018Y050426D02*
X027018Y050278D01*
X026516Y050278D01*
X026516Y050426D01*
X026516Y050326D02*
X027018Y050326D01*
X027018Y050374D02*
X026516Y050374D01*
X026516Y050422D02*
X027018Y050422D01*
X027018Y050623D02*
X026516Y050623D01*
X027018Y050623D02*
X027018Y050475D01*
X026516Y050475D01*
X026516Y050623D01*
X026516Y050523D02*
X027018Y050523D01*
X027018Y050571D02*
X026516Y050571D01*
X026516Y050619D02*
X027018Y050619D01*
X027018Y050819D02*
X026516Y050819D01*
X027018Y050819D02*
X027018Y050671D01*
X026516Y050671D01*
X026516Y050819D01*
X026516Y050719D02*
X027018Y050719D01*
X027018Y050767D02*
X026516Y050767D01*
X026516Y050815D02*
X027018Y050815D01*
X027018Y051016D02*
X026516Y051016D01*
X027018Y051016D02*
X027018Y050868D01*
X026516Y050868D01*
X026516Y051016D01*
X026516Y050916D02*
X027018Y050916D01*
X027018Y050964D02*
X026516Y050964D01*
X026516Y051012D02*
X027018Y051012D01*
X027018Y051213D02*
X026516Y051213D01*
X027018Y051213D02*
X027018Y051065D01*
X026516Y051065D01*
X026516Y051213D01*
X026516Y051113D02*
X027018Y051113D01*
X027018Y051161D02*
X026516Y051161D01*
X026516Y051209D02*
X027018Y051209D01*
X027018Y051410D02*
X026516Y051410D01*
X027018Y051410D02*
X027018Y051262D01*
X026516Y051262D01*
X026516Y051410D01*
X026516Y051310D02*
X027018Y051310D01*
X027018Y051358D02*
X026516Y051358D01*
X026516Y051406D02*
X027018Y051406D01*
X027018Y051607D02*
X026516Y051607D01*
X027018Y051607D02*
X027018Y051459D01*
X026516Y051459D01*
X026516Y051607D01*
X026516Y051507D02*
X027018Y051507D01*
X027018Y051555D02*
X026516Y051555D01*
X026516Y051603D02*
X027018Y051603D01*
X027018Y051804D02*
X026516Y051804D01*
X027018Y051804D02*
X027018Y051656D01*
X026516Y051656D01*
X026516Y051804D01*
X026516Y051704D02*
X027018Y051704D01*
X027018Y051752D02*
X026516Y051752D01*
X026516Y051800D02*
X027018Y051800D01*
X027018Y052000D02*
X026516Y052000D01*
X027018Y052000D02*
X027018Y051852D01*
X026516Y051852D01*
X026516Y052000D01*
X026516Y051900D02*
X027018Y051900D01*
X027018Y051948D02*
X026516Y051948D01*
X026516Y051996D02*
X027018Y051996D01*
X027018Y052197D02*
X026516Y052197D01*
X027018Y052197D02*
X027018Y052049D01*
X026516Y052049D01*
X026516Y052197D01*
X026516Y052097D02*
X027018Y052097D01*
X027018Y052145D02*
X026516Y052145D01*
X026516Y052193D02*
X027018Y052193D01*
X027018Y052394D02*
X026516Y052394D01*
X027018Y052394D02*
X027018Y052246D01*
X026516Y052246D01*
X026516Y052394D01*
X026516Y052294D02*
X027018Y052294D01*
X027018Y052342D02*
X026516Y052342D01*
X026516Y052390D02*
X027018Y052390D01*
X027018Y052591D02*
X026516Y052591D01*
X027018Y052591D02*
X027018Y052443D01*
X026516Y052443D01*
X026516Y052591D01*
X026516Y052491D02*
X027018Y052491D01*
X027018Y052539D02*
X026516Y052539D01*
X026516Y052587D02*
X027018Y052587D01*
X027018Y052788D02*
X026516Y052788D01*
X027018Y052788D02*
X027018Y052640D01*
X026516Y052640D01*
X026516Y052788D01*
X026516Y052688D02*
X027018Y052688D01*
X027018Y052736D02*
X026516Y052736D01*
X026516Y052784D02*
X027018Y052784D01*
X026102Y053053D02*
X026102Y053555D01*
X026250Y053555D01*
X026250Y053053D01*
X026102Y053053D01*
X026102Y053101D02*
X026250Y053101D01*
X026250Y053149D02*
X026102Y053149D01*
X026102Y053197D02*
X026250Y053197D01*
X026250Y053245D02*
X026102Y053245D01*
X026102Y053293D02*
X026250Y053293D01*
X026250Y053341D02*
X026102Y053341D01*
X026102Y053389D02*
X026250Y053389D01*
X026250Y053437D02*
X026102Y053437D01*
X026102Y053485D02*
X026250Y053485D01*
X026250Y053533D02*
X026102Y053533D01*
X025906Y053555D02*
X025906Y053053D01*
X025906Y053555D02*
X026054Y053555D01*
X026054Y053053D01*
X025906Y053053D01*
X025906Y053101D02*
X026054Y053101D01*
X026054Y053149D02*
X025906Y053149D01*
X025906Y053197D02*
X026054Y053197D01*
X026054Y053245D02*
X025906Y053245D01*
X025906Y053293D02*
X026054Y053293D01*
X026054Y053341D02*
X025906Y053341D01*
X025906Y053389D02*
X026054Y053389D01*
X026054Y053437D02*
X025906Y053437D01*
X025906Y053485D02*
X026054Y053485D01*
X026054Y053533D02*
X025906Y053533D01*
X025709Y053555D02*
X025709Y053053D01*
X025709Y053555D02*
X025857Y053555D01*
X025857Y053053D01*
X025709Y053053D01*
X025709Y053101D02*
X025857Y053101D01*
X025857Y053149D02*
X025709Y053149D01*
X025709Y053197D02*
X025857Y053197D01*
X025857Y053245D02*
X025709Y053245D01*
X025709Y053293D02*
X025857Y053293D01*
X025857Y053341D02*
X025709Y053341D01*
X025709Y053389D02*
X025857Y053389D01*
X025857Y053437D02*
X025709Y053437D01*
X025709Y053485D02*
X025857Y053485D01*
X025857Y053533D02*
X025709Y053533D01*
X025512Y053555D02*
X025512Y053053D01*
X025512Y053555D02*
X025660Y053555D01*
X025660Y053053D01*
X025512Y053053D01*
X025512Y053101D02*
X025660Y053101D01*
X025660Y053149D02*
X025512Y053149D01*
X025512Y053197D02*
X025660Y053197D01*
X025660Y053245D02*
X025512Y053245D01*
X025512Y053293D02*
X025660Y053293D01*
X025660Y053341D02*
X025512Y053341D01*
X025512Y053389D02*
X025660Y053389D01*
X025660Y053437D02*
X025512Y053437D01*
X025512Y053485D02*
X025660Y053485D01*
X025660Y053533D02*
X025512Y053533D01*
X025315Y053555D02*
X025315Y053053D01*
X025315Y053555D02*
X025463Y053555D01*
X025463Y053053D01*
X025315Y053053D01*
X025315Y053101D02*
X025463Y053101D01*
X025463Y053149D02*
X025315Y053149D01*
X025315Y053197D02*
X025463Y053197D01*
X025463Y053245D02*
X025315Y053245D01*
X025315Y053293D02*
X025463Y053293D01*
X025463Y053341D02*
X025315Y053341D01*
X025315Y053389D02*
X025463Y053389D01*
X025463Y053437D02*
X025315Y053437D01*
X025315Y053485D02*
X025463Y053485D01*
X025463Y053533D02*
X025315Y053533D01*
X025118Y053555D02*
X025118Y053053D01*
X025118Y053555D02*
X025266Y053555D01*
X025266Y053053D01*
X025118Y053053D01*
X025118Y053101D02*
X025266Y053101D01*
X025266Y053149D02*
X025118Y053149D01*
X025118Y053197D02*
X025266Y053197D01*
X025266Y053245D02*
X025118Y053245D01*
X025118Y053293D02*
X025266Y053293D01*
X025266Y053341D02*
X025118Y053341D01*
X025118Y053389D02*
X025266Y053389D01*
X025266Y053437D02*
X025118Y053437D01*
X025118Y053485D02*
X025266Y053485D01*
X025266Y053533D02*
X025118Y053533D01*
X024921Y053555D02*
X024921Y053053D01*
X024921Y053555D02*
X025069Y053555D01*
X025069Y053053D01*
X024921Y053053D01*
X024921Y053101D02*
X025069Y053101D01*
X025069Y053149D02*
X024921Y053149D01*
X024921Y053197D02*
X025069Y053197D01*
X025069Y053245D02*
X024921Y053245D01*
X024921Y053293D02*
X025069Y053293D01*
X025069Y053341D02*
X024921Y053341D01*
X024921Y053389D02*
X025069Y053389D01*
X025069Y053437D02*
X024921Y053437D01*
X024921Y053485D02*
X025069Y053485D01*
X025069Y053533D02*
X024921Y053533D01*
X024724Y053555D02*
X024724Y053053D01*
X024724Y053555D02*
X024872Y053555D01*
X024872Y053053D01*
X024724Y053053D01*
X024724Y053101D02*
X024872Y053101D01*
X024872Y053149D02*
X024724Y053149D01*
X024724Y053197D02*
X024872Y053197D01*
X024872Y053245D02*
X024724Y053245D01*
X024724Y053293D02*
X024872Y053293D01*
X024872Y053341D02*
X024724Y053341D01*
X024724Y053389D02*
X024872Y053389D01*
X024872Y053437D02*
X024724Y053437D01*
X024724Y053485D02*
X024872Y053485D01*
X024872Y053533D02*
X024724Y053533D01*
X024528Y053555D02*
X024528Y053053D01*
X024528Y053555D02*
X024676Y053555D01*
X024676Y053053D01*
X024528Y053053D01*
X024528Y053101D02*
X024676Y053101D01*
X024676Y053149D02*
X024528Y053149D01*
X024528Y053197D02*
X024676Y053197D01*
X024676Y053245D02*
X024528Y053245D01*
X024528Y053293D02*
X024676Y053293D01*
X024676Y053341D02*
X024528Y053341D01*
X024528Y053389D02*
X024676Y053389D01*
X024676Y053437D02*
X024528Y053437D01*
X024528Y053485D02*
X024676Y053485D01*
X024676Y053533D02*
X024528Y053533D01*
X024331Y053555D02*
X024331Y053053D01*
X024331Y053555D02*
X024479Y053555D01*
X024479Y053053D01*
X024331Y053053D01*
X024331Y053101D02*
X024479Y053101D01*
X024479Y053149D02*
X024331Y053149D01*
X024331Y053197D02*
X024479Y053197D01*
X024479Y053245D02*
X024331Y053245D01*
X024331Y053293D02*
X024479Y053293D01*
X024479Y053341D02*
X024331Y053341D01*
X024331Y053389D02*
X024479Y053389D01*
X024479Y053437D02*
X024331Y053437D01*
X024331Y053485D02*
X024479Y053485D01*
X024479Y053533D02*
X024331Y053533D01*
X024134Y053555D02*
X024134Y053053D01*
X024134Y053555D02*
X024282Y053555D01*
X024282Y053053D01*
X024134Y053053D01*
X024134Y053101D02*
X024282Y053101D01*
X024282Y053149D02*
X024134Y053149D01*
X024134Y053197D02*
X024282Y053197D01*
X024282Y053245D02*
X024134Y053245D01*
X024134Y053293D02*
X024282Y053293D01*
X024282Y053341D02*
X024134Y053341D01*
X024134Y053389D02*
X024282Y053389D01*
X024282Y053437D02*
X024134Y053437D01*
X024134Y053485D02*
X024282Y053485D01*
X024282Y053533D02*
X024134Y053533D01*
X023937Y053555D02*
X023937Y053053D01*
X023937Y053555D02*
X024085Y053555D01*
X024085Y053053D01*
X023937Y053053D01*
X023937Y053101D02*
X024085Y053101D01*
X024085Y053149D02*
X023937Y053149D01*
X023937Y053197D02*
X024085Y053197D01*
X024085Y053245D02*
X023937Y053245D01*
X023937Y053293D02*
X024085Y053293D01*
X024085Y053341D02*
X023937Y053341D01*
X023937Y053389D02*
X024085Y053389D01*
X024085Y053437D02*
X023937Y053437D01*
X023937Y053485D02*
X024085Y053485D01*
X024085Y053533D02*
X023937Y053533D01*
X023740Y053555D02*
X023740Y053053D01*
X023740Y053555D02*
X023888Y053555D01*
X023888Y053053D01*
X023740Y053053D01*
X023740Y053101D02*
X023888Y053101D01*
X023888Y053149D02*
X023740Y053149D01*
X023740Y053197D02*
X023888Y053197D01*
X023888Y053245D02*
X023740Y053245D01*
X023740Y053293D02*
X023888Y053293D01*
X023888Y053341D02*
X023740Y053341D01*
X023740Y053389D02*
X023888Y053389D01*
X023888Y053437D02*
X023740Y053437D01*
X023740Y053485D02*
X023888Y053485D01*
X023888Y053533D02*
X023740Y053533D01*
X023543Y053555D02*
X023543Y053053D01*
X023543Y053555D02*
X023691Y053555D01*
X023691Y053053D01*
X023543Y053053D01*
X023543Y053101D02*
X023691Y053101D01*
X023691Y053149D02*
X023543Y053149D01*
X023543Y053197D02*
X023691Y053197D01*
X023691Y053245D02*
X023543Y053245D01*
X023543Y053293D02*
X023691Y053293D01*
X023691Y053341D02*
X023543Y053341D01*
X023543Y053389D02*
X023691Y053389D01*
X023691Y053437D02*
X023543Y053437D01*
X023543Y053485D02*
X023691Y053485D01*
X023691Y053533D02*
X023543Y053533D01*
X023346Y053555D02*
X023346Y053053D01*
X023346Y053555D02*
X023494Y053555D01*
X023494Y053053D01*
X023346Y053053D01*
X023346Y053101D02*
X023494Y053101D01*
X023494Y053149D02*
X023346Y053149D01*
X023346Y053197D02*
X023494Y053197D01*
X023494Y053245D02*
X023346Y053245D01*
X023346Y053293D02*
X023494Y053293D01*
X023494Y053341D02*
X023346Y053341D01*
X023346Y053389D02*
X023494Y053389D01*
X023494Y053437D02*
X023346Y053437D01*
X023346Y053485D02*
X023494Y053485D01*
X023494Y053533D02*
X023346Y053533D01*
X023150Y053555D02*
X023150Y053053D01*
X023150Y053555D02*
X023298Y053555D01*
X023298Y053053D01*
X023150Y053053D01*
X023150Y053101D02*
X023298Y053101D01*
X023298Y053149D02*
X023150Y053149D01*
X023150Y053197D02*
X023298Y053197D01*
X023298Y053245D02*
X023150Y053245D01*
X023150Y053293D02*
X023298Y053293D01*
X023298Y053341D02*
X023150Y053341D01*
X023150Y053389D02*
X023298Y053389D01*
X023298Y053437D02*
X023150Y053437D01*
X023150Y053485D02*
X023298Y053485D01*
X023298Y053533D02*
X023150Y053533D01*
X022953Y053555D02*
X022953Y053053D01*
X022953Y053555D02*
X023101Y053555D01*
X023101Y053053D01*
X022953Y053053D01*
X022953Y053101D02*
X023101Y053101D01*
X023101Y053149D02*
X022953Y053149D01*
X022953Y053197D02*
X023101Y053197D01*
X023101Y053245D02*
X022953Y053245D01*
X022953Y053293D02*
X023101Y053293D01*
X023101Y053341D02*
X022953Y053341D01*
X022953Y053389D02*
X023101Y053389D01*
X023101Y053437D02*
X022953Y053437D01*
X022953Y053485D02*
X023101Y053485D01*
X023101Y053533D02*
X022953Y053533D01*
X022756Y053555D02*
X022756Y053053D01*
X022756Y053555D02*
X022904Y053555D01*
X022904Y053053D01*
X022756Y053053D01*
X022756Y053101D02*
X022904Y053101D01*
X022904Y053149D02*
X022756Y053149D01*
X022756Y053197D02*
X022904Y053197D01*
X022904Y053245D02*
X022756Y053245D01*
X022756Y053293D02*
X022904Y053293D01*
X022904Y053341D02*
X022756Y053341D01*
X022756Y053389D02*
X022904Y053389D01*
X022904Y053437D02*
X022756Y053437D01*
X022756Y053485D02*
X022904Y053485D01*
X022904Y053533D02*
X022756Y053533D01*
X022559Y053555D02*
X022559Y053053D01*
X022559Y053555D02*
X022707Y053555D01*
X022707Y053053D01*
X022559Y053053D01*
X022559Y053101D02*
X022707Y053101D01*
X022707Y053149D02*
X022559Y053149D01*
X022559Y053197D02*
X022707Y053197D01*
X022707Y053245D02*
X022559Y053245D01*
X022559Y053293D02*
X022707Y053293D01*
X022707Y053341D02*
X022559Y053341D01*
X022559Y053389D02*
X022707Y053389D01*
X022707Y053437D02*
X022559Y053437D01*
X022559Y053485D02*
X022707Y053485D01*
X022707Y053533D02*
X022559Y053533D01*
X022362Y053555D02*
X022362Y053053D01*
X022362Y053555D02*
X022510Y053555D01*
X022510Y053053D01*
X022362Y053053D01*
X022362Y053101D02*
X022510Y053101D01*
X022510Y053149D02*
X022362Y053149D01*
X022362Y053197D02*
X022510Y053197D01*
X022510Y053245D02*
X022362Y053245D01*
X022362Y053293D02*
X022510Y053293D01*
X022510Y053341D02*
X022362Y053341D01*
X022362Y053389D02*
X022510Y053389D01*
X022510Y053437D02*
X022362Y053437D01*
X022362Y053485D02*
X022510Y053485D01*
X022510Y053533D02*
X022362Y053533D01*
X022165Y053555D02*
X022165Y053053D01*
X022165Y053555D02*
X022313Y053555D01*
X022313Y053053D01*
X022165Y053053D01*
X022165Y053101D02*
X022313Y053101D01*
X022313Y053149D02*
X022165Y053149D01*
X022165Y053197D02*
X022313Y053197D01*
X022313Y053245D02*
X022165Y053245D01*
X022165Y053293D02*
X022313Y053293D01*
X022313Y053341D02*
X022165Y053341D01*
X022165Y053389D02*
X022313Y053389D01*
X022313Y053437D02*
X022165Y053437D01*
X022165Y053485D02*
X022313Y053485D01*
X022313Y053533D02*
X022165Y053533D01*
X021968Y053555D02*
X021968Y053053D01*
X021968Y053555D02*
X022116Y053555D01*
X022116Y053053D01*
X021968Y053053D01*
X021968Y053101D02*
X022116Y053101D01*
X022116Y053149D02*
X021968Y053149D01*
X021968Y053197D02*
X022116Y053197D01*
X022116Y053245D02*
X021968Y053245D01*
X021968Y053293D02*
X022116Y053293D01*
X022116Y053341D02*
X021968Y053341D01*
X021968Y053389D02*
X022116Y053389D01*
X022116Y053437D02*
X021968Y053437D01*
X021968Y053485D02*
X022116Y053485D01*
X022116Y053533D02*
X021968Y053533D01*
X021772Y053555D02*
X021772Y053053D01*
X021772Y053555D02*
X021920Y053555D01*
X021920Y053053D01*
X021772Y053053D01*
X021772Y053101D02*
X021920Y053101D01*
X021920Y053149D02*
X021772Y053149D01*
X021772Y053197D02*
X021920Y053197D01*
X021920Y053245D02*
X021772Y053245D01*
X021772Y053293D02*
X021920Y053293D01*
X021920Y053341D02*
X021772Y053341D01*
X021772Y053389D02*
X021920Y053389D01*
X021920Y053437D02*
X021772Y053437D01*
X021772Y053485D02*
X021920Y053485D01*
X021920Y053533D02*
X021772Y053533D01*
X021575Y053555D02*
X021575Y053053D01*
X021575Y053555D02*
X021723Y053555D01*
X021723Y053053D01*
X021575Y053053D01*
X021575Y053101D02*
X021723Y053101D01*
X021723Y053149D02*
X021575Y053149D01*
X021575Y053197D02*
X021723Y053197D01*
X021723Y053245D02*
X021575Y053245D01*
X021575Y053293D02*
X021723Y053293D01*
X021723Y053341D02*
X021575Y053341D01*
X021575Y053389D02*
X021723Y053389D01*
X021723Y053437D02*
X021575Y053437D01*
X021575Y053485D02*
X021723Y053485D01*
X021723Y053533D02*
X021575Y053533D01*
X021378Y053555D02*
X021378Y053053D01*
X021378Y053555D02*
X021526Y053555D01*
X021526Y053053D01*
X021378Y053053D01*
X021378Y053101D02*
X021526Y053101D01*
X021526Y053149D02*
X021378Y053149D01*
X021378Y053197D02*
X021526Y053197D01*
X021526Y053245D02*
X021378Y053245D01*
X021378Y053293D02*
X021526Y053293D01*
X021526Y053341D02*
X021378Y053341D01*
X021378Y053389D02*
X021526Y053389D01*
X021526Y053437D02*
X021378Y053437D01*
X021378Y053485D02*
X021526Y053485D01*
X021526Y053533D02*
X021378Y053533D01*
X021112Y052640D02*
X020610Y052640D01*
X020610Y052788D01*
X021112Y052788D01*
X021112Y052640D01*
X021112Y052688D02*
X020610Y052688D01*
X020610Y052736D02*
X021112Y052736D01*
X021112Y052784D02*
X020610Y052784D01*
X020610Y052443D02*
X021112Y052443D01*
X020610Y052443D02*
X020610Y052591D01*
X021112Y052591D01*
X021112Y052443D01*
X021112Y052491D02*
X020610Y052491D01*
X020610Y052539D02*
X021112Y052539D01*
X021112Y052587D02*
X020610Y052587D01*
X020610Y052246D02*
X021112Y052246D01*
X020610Y052246D02*
X020610Y052394D01*
X021112Y052394D01*
X021112Y052246D01*
X021112Y052294D02*
X020610Y052294D01*
X020610Y052342D02*
X021112Y052342D01*
X021112Y052390D02*
X020610Y052390D01*
X020610Y052049D02*
X021112Y052049D01*
X020610Y052049D02*
X020610Y052197D01*
X021112Y052197D01*
X021112Y052049D01*
X021112Y052097D02*
X020610Y052097D01*
X020610Y052145D02*
X021112Y052145D01*
X021112Y052193D02*
X020610Y052193D01*
X020610Y051852D02*
X021112Y051852D01*
X020610Y051852D02*
X020610Y052000D01*
X021112Y052000D01*
X021112Y051852D01*
X021112Y051900D02*
X020610Y051900D01*
X020610Y051948D02*
X021112Y051948D01*
X021112Y051996D02*
X020610Y051996D01*
X020610Y051656D02*
X021112Y051656D01*
X020610Y051656D02*
X020610Y051804D01*
X021112Y051804D01*
X021112Y051656D01*
X021112Y051704D02*
X020610Y051704D01*
X020610Y051752D02*
X021112Y051752D01*
X021112Y051800D02*
X020610Y051800D01*
X020610Y051459D02*
X021112Y051459D01*
X020610Y051459D02*
X020610Y051607D01*
X021112Y051607D01*
X021112Y051459D01*
X021112Y051507D02*
X020610Y051507D01*
X020610Y051555D02*
X021112Y051555D01*
X021112Y051603D02*
X020610Y051603D01*
X020610Y051262D02*
X021112Y051262D01*
X020610Y051262D02*
X020610Y051410D01*
X021112Y051410D01*
X021112Y051262D01*
X021112Y051310D02*
X020610Y051310D01*
X020610Y051358D02*
X021112Y051358D01*
X021112Y051406D02*
X020610Y051406D01*
X020610Y051065D02*
X021112Y051065D01*
X020610Y051065D02*
X020610Y051213D01*
X021112Y051213D01*
X021112Y051065D01*
X021112Y051113D02*
X020610Y051113D01*
X020610Y051161D02*
X021112Y051161D01*
X021112Y051209D02*
X020610Y051209D01*
X020610Y050868D02*
X021112Y050868D01*
X020610Y050868D02*
X020610Y051016D01*
X021112Y051016D01*
X021112Y050868D01*
X021112Y050916D02*
X020610Y050916D01*
X020610Y050964D02*
X021112Y050964D01*
X021112Y051012D02*
X020610Y051012D01*
X020610Y050671D02*
X021112Y050671D01*
X020610Y050671D02*
X020610Y050819D01*
X021112Y050819D01*
X021112Y050671D01*
X021112Y050719D02*
X020610Y050719D01*
X020610Y050767D02*
X021112Y050767D01*
X021112Y050815D02*
X020610Y050815D01*
X020610Y050475D02*
X021112Y050475D01*
X020610Y050475D02*
X020610Y050623D01*
X021112Y050623D01*
X021112Y050475D01*
X021112Y050523D02*
X020610Y050523D01*
X020610Y050571D02*
X021112Y050571D01*
X021112Y050619D02*
X020610Y050619D01*
X020610Y050278D02*
X021112Y050278D01*
X020610Y050278D02*
X020610Y050426D01*
X021112Y050426D01*
X021112Y050278D01*
X021112Y050326D02*
X020610Y050326D01*
X020610Y050374D02*
X021112Y050374D01*
X021112Y050422D02*
X020610Y050422D01*
X020610Y050081D02*
X021112Y050081D01*
X020610Y050081D02*
X020610Y050229D01*
X021112Y050229D01*
X021112Y050081D01*
X021112Y050129D02*
X020610Y050129D01*
X020610Y050177D02*
X021112Y050177D01*
X021112Y050225D02*
X020610Y050225D01*
X020610Y049884D02*
X021112Y049884D01*
X020610Y049884D02*
X020610Y050032D01*
X021112Y050032D01*
X021112Y049884D01*
X021112Y049932D02*
X020610Y049932D01*
X020610Y049980D02*
X021112Y049980D01*
X021112Y050028D02*
X020610Y050028D01*
X020610Y049687D02*
X021112Y049687D01*
X020610Y049687D02*
X020610Y049835D01*
X021112Y049835D01*
X021112Y049687D01*
X021112Y049735D02*
X020610Y049735D01*
X020610Y049783D02*
X021112Y049783D01*
X021112Y049831D02*
X020610Y049831D01*
X020610Y049490D02*
X021112Y049490D01*
X020610Y049490D02*
X020610Y049638D01*
X021112Y049638D01*
X021112Y049490D01*
X021112Y049538D02*
X020610Y049538D01*
X020610Y049586D02*
X021112Y049586D01*
X021112Y049634D02*
X020610Y049634D01*
X020610Y049293D02*
X021112Y049293D01*
X020610Y049293D02*
X020610Y049441D01*
X021112Y049441D01*
X021112Y049293D01*
X021112Y049341D02*
X020610Y049341D01*
X020610Y049389D02*
X021112Y049389D01*
X021112Y049437D02*
X020610Y049437D01*
X020610Y049097D02*
X021112Y049097D01*
X020610Y049097D02*
X020610Y049245D01*
X021112Y049245D01*
X021112Y049097D01*
X021112Y049145D02*
X020610Y049145D01*
X020610Y049193D02*
X021112Y049193D01*
X021112Y049241D02*
X020610Y049241D01*
X020610Y048900D02*
X021112Y048900D01*
X020610Y048900D02*
X020610Y049048D01*
X021112Y049048D01*
X021112Y048900D01*
X021112Y048948D02*
X020610Y048948D01*
X020610Y048996D02*
X021112Y048996D01*
X021112Y049044D02*
X020610Y049044D01*
X020610Y048703D02*
X021112Y048703D01*
X020610Y048703D02*
X020610Y048851D01*
X021112Y048851D01*
X021112Y048703D01*
X021112Y048751D02*
X020610Y048751D01*
X020610Y048799D02*
X021112Y048799D01*
X021112Y048847D02*
X020610Y048847D01*
X020610Y048506D02*
X021112Y048506D01*
X020610Y048506D02*
X020610Y048654D01*
X021112Y048654D01*
X021112Y048506D01*
X021112Y048554D02*
X020610Y048554D01*
X020610Y048602D02*
X021112Y048602D01*
X021112Y048650D02*
X020610Y048650D01*
X020610Y048309D02*
X021112Y048309D01*
X020610Y048309D02*
X020610Y048457D01*
X021112Y048457D01*
X021112Y048309D01*
X021112Y048357D02*
X020610Y048357D01*
X020610Y048405D02*
X021112Y048405D01*
X021112Y048453D02*
X020610Y048453D01*
X020610Y048112D02*
X021112Y048112D01*
X020610Y048112D02*
X020610Y048260D01*
X021112Y048260D01*
X021112Y048112D01*
X021112Y048160D02*
X020610Y048160D01*
X020610Y048208D02*
X021112Y048208D01*
X021112Y048256D02*
X020610Y048256D01*
X020610Y047915D02*
X021112Y047915D01*
X020610Y047915D02*
X020610Y048063D01*
X021112Y048063D01*
X021112Y047915D01*
X021112Y047963D02*
X020610Y047963D01*
X020610Y048011D02*
X021112Y048011D01*
X021112Y048059D02*
X020610Y048059D01*
D28*
X021794Y028113D02*
X021794Y027117D01*
X021546Y027117D01*
X021546Y028113D01*
X021794Y028113D01*
X021794Y027199D02*
X021546Y027199D01*
X021546Y027281D02*
X021794Y027281D01*
X021794Y027363D02*
X021546Y027363D01*
X021546Y027445D02*
X021794Y027445D01*
X021794Y027527D02*
X021546Y027527D01*
X021546Y027609D02*
X021794Y027609D01*
X021794Y027691D02*
X021546Y027691D01*
X021546Y027773D02*
X021794Y027773D01*
X021794Y027855D02*
X021546Y027855D01*
X021546Y027937D02*
X021794Y027937D01*
X021794Y028019D02*
X021546Y028019D01*
X021546Y028101D02*
X021794Y028101D01*
X022294Y028113D02*
X022294Y027117D01*
X022046Y027117D01*
X022046Y028113D01*
X022294Y028113D01*
X022294Y027199D02*
X022046Y027199D01*
X022046Y027281D02*
X022294Y027281D01*
X022294Y027363D02*
X022046Y027363D01*
X022046Y027445D02*
X022294Y027445D01*
X022294Y027527D02*
X022046Y027527D01*
X022046Y027609D02*
X022294Y027609D01*
X022294Y027691D02*
X022046Y027691D01*
X022046Y027773D02*
X022294Y027773D01*
X022294Y027855D02*
X022046Y027855D01*
X022046Y027937D02*
X022294Y027937D01*
X022294Y028019D02*
X022046Y028019D01*
X022046Y028101D02*
X022294Y028101D01*
X022794Y028113D02*
X022794Y027117D01*
X022546Y027117D01*
X022546Y028113D01*
X022794Y028113D01*
X022794Y027199D02*
X022546Y027199D01*
X022546Y027281D02*
X022794Y027281D01*
X022794Y027363D02*
X022546Y027363D01*
X022546Y027445D02*
X022794Y027445D01*
X022794Y027527D02*
X022546Y027527D01*
X022546Y027609D02*
X022794Y027609D01*
X022794Y027691D02*
X022546Y027691D01*
X022546Y027773D02*
X022794Y027773D01*
X022794Y027855D02*
X022546Y027855D01*
X022546Y027937D02*
X022794Y027937D01*
X022794Y028019D02*
X022546Y028019D01*
X022546Y028101D02*
X022794Y028101D01*
X023294Y028113D02*
X023294Y027117D01*
X023046Y027117D01*
X023046Y028113D01*
X023294Y028113D01*
X023294Y027199D02*
X023046Y027199D01*
X023046Y027281D02*
X023294Y027281D01*
X023294Y027363D02*
X023046Y027363D01*
X023046Y027445D02*
X023294Y027445D01*
X023294Y027527D02*
X023046Y027527D01*
X023046Y027609D02*
X023294Y027609D01*
X023294Y027691D02*
X023046Y027691D01*
X023046Y027773D02*
X023294Y027773D01*
X023294Y027855D02*
X023046Y027855D01*
X023046Y027937D02*
X023294Y027937D01*
X023294Y028019D02*
X023046Y028019D01*
X023046Y028101D02*
X023294Y028101D01*
X023794Y028113D02*
X023794Y027117D01*
X023546Y027117D01*
X023546Y028113D01*
X023794Y028113D01*
X023794Y027199D02*
X023546Y027199D01*
X023546Y027281D02*
X023794Y027281D01*
X023794Y027363D02*
X023546Y027363D01*
X023546Y027445D02*
X023794Y027445D01*
X023794Y027527D02*
X023546Y027527D01*
X023546Y027609D02*
X023794Y027609D01*
X023794Y027691D02*
X023546Y027691D01*
X023546Y027773D02*
X023794Y027773D01*
X023794Y027855D02*
X023546Y027855D01*
X023546Y027937D02*
X023794Y027937D01*
X023794Y028019D02*
X023546Y028019D01*
X023546Y028101D02*
X023794Y028101D01*
X024294Y028113D02*
X024294Y027117D01*
X024046Y027117D01*
X024046Y028113D01*
X024294Y028113D01*
X024294Y027199D02*
X024046Y027199D01*
X024046Y027281D02*
X024294Y027281D01*
X024294Y027363D02*
X024046Y027363D01*
X024046Y027445D02*
X024294Y027445D01*
X024294Y027527D02*
X024046Y027527D01*
X024046Y027609D02*
X024294Y027609D01*
X024294Y027691D02*
X024046Y027691D01*
X024046Y027773D02*
X024294Y027773D01*
X024294Y027855D02*
X024046Y027855D01*
X024046Y027937D02*
X024294Y027937D01*
X024294Y028019D02*
X024046Y028019D01*
X024046Y028101D02*
X024294Y028101D01*
X024794Y028113D02*
X024794Y027117D01*
X024546Y027117D01*
X024546Y028113D01*
X024794Y028113D01*
X024794Y027199D02*
X024546Y027199D01*
X024546Y027281D02*
X024794Y027281D01*
X024794Y027363D02*
X024546Y027363D01*
X024546Y027445D02*
X024794Y027445D01*
X024794Y027527D02*
X024546Y027527D01*
X024546Y027609D02*
X024794Y027609D01*
X024794Y027691D02*
X024546Y027691D01*
X024546Y027773D02*
X024794Y027773D01*
X024794Y027855D02*
X024546Y027855D01*
X024546Y027937D02*
X024794Y027937D01*
X024794Y028019D02*
X024546Y028019D01*
X024546Y028101D02*
X024794Y028101D01*
X025294Y028113D02*
X025294Y027117D01*
X025046Y027117D01*
X025046Y028113D01*
X025294Y028113D01*
X025294Y027199D02*
X025046Y027199D01*
X025046Y027281D02*
X025294Y027281D01*
X025294Y027363D02*
X025046Y027363D01*
X025046Y027445D02*
X025294Y027445D01*
X025294Y027527D02*
X025046Y027527D01*
X025046Y027609D02*
X025294Y027609D01*
X025294Y027691D02*
X025046Y027691D01*
X025046Y027773D02*
X025294Y027773D01*
X025294Y027855D02*
X025046Y027855D01*
X025046Y027937D02*
X025294Y027937D01*
X025294Y028019D02*
X025046Y028019D01*
X025046Y028101D02*
X025294Y028101D01*
D29*
X026324Y023904D02*
X026324Y022044D01*
X025516Y022044D01*
X025516Y023904D01*
X026324Y023904D01*
X026324Y022313D02*
X025516Y022313D01*
X025516Y022582D02*
X026324Y022582D01*
X026324Y022851D02*
X025516Y022851D01*
X025516Y023120D02*
X026324Y023120D01*
X026324Y023389D02*
X025516Y023389D01*
X025516Y023658D02*
X026324Y023658D01*
X021324Y023904D02*
X021324Y022044D01*
X020516Y022044D01*
X020516Y023904D01*
X021324Y023904D01*
X021324Y022313D02*
X020516Y022313D01*
X020516Y022582D02*
X021324Y022582D01*
X021324Y022851D02*
X020516Y022851D01*
X020516Y023120D02*
X021324Y023120D01*
X021324Y023389D02*
X020516Y023389D01*
X020516Y023658D02*
X021324Y023658D01*
D30*
X033150Y034983D02*
X033150Y035445D01*
X033416Y035445D01*
X033416Y034983D01*
X033150Y034983D01*
X033150Y035071D02*
X033416Y035071D01*
X033416Y035159D02*
X033150Y035159D01*
X033150Y035247D02*
X033416Y035247D01*
X033416Y035335D02*
X033150Y035335D01*
X033150Y035423D02*
X033416Y035423D01*
X033524Y035445D02*
X033524Y034983D01*
X033524Y035445D02*
X033790Y035445D01*
X033790Y034983D01*
X033524Y034983D01*
X033524Y035071D02*
X033790Y035071D01*
X033790Y035159D02*
X033524Y035159D01*
X033524Y035247D02*
X033790Y035247D01*
X033790Y035335D02*
X033524Y035335D01*
X033524Y035423D02*
X033790Y035423D01*
X033898Y035445D02*
X033898Y034983D01*
X033898Y035445D02*
X034164Y035445D01*
X034164Y034983D01*
X033898Y034983D01*
X033898Y035071D02*
X034164Y035071D01*
X034164Y035159D02*
X033898Y035159D01*
X033898Y035247D02*
X034164Y035247D01*
X034164Y035335D02*
X033898Y035335D01*
X033898Y035423D02*
X034164Y035423D01*
X033898Y035928D02*
X033898Y036390D01*
X034164Y036390D01*
X034164Y035928D01*
X033898Y035928D01*
X033898Y036016D02*
X034164Y036016D01*
X034164Y036104D02*
X033898Y036104D01*
X033898Y036192D02*
X034164Y036192D01*
X034164Y036280D02*
X033898Y036280D01*
X033898Y036368D02*
X034164Y036368D01*
X033524Y036390D02*
X033524Y035928D01*
X033524Y036390D02*
X033790Y036390D01*
X033790Y035928D01*
X033524Y035928D01*
X033524Y036016D02*
X033790Y036016D01*
X033790Y036104D02*
X033524Y036104D01*
X033524Y036192D02*
X033790Y036192D01*
X033790Y036280D02*
X033524Y036280D01*
X033524Y036368D02*
X033790Y036368D01*
X033150Y036390D02*
X033150Y035928D01*
X033150Y036390D02*
X033416Y036390D01*
X033416Y035928D01*
X033150Y035928D01*
X033150Y036016D02*
X033416Y036016D01*
X033416Y036104D02*
X033150Y036104D01*
X033150Y036192D02*
X033416Y036192D01*
X033416Y036280D02*
X033150Y036280D01*
X033150Y036368D02*
X033416Y036368D01*
X034794Y033043D02*
X034794Y032581D01*
X034528Y032581D01*
X034528Y033043D01*
X034794Y033043D01*
X034794Y032669D02*
X034528Y032669D01*
X034528Y032757D02*
X034794Y032757D01*
X034794Y032845D02*
X034528Y032845D01*
X034528Y032933D02*
X034794Y032933D01*
X034794Y033021D02*
X034528Y033021D01*
X035168Y033043D02*
X035168Y032581D01*
X034902Y032581D01*
X034902Y033043D01*
X035168Y033043D01*
X035168Y032669D02*
X034902Y032669D01*
X034902Y032757D02*
X035168Y032757D01*
X035168Y032845D02*
X034902Y032845D01*
X034902Y032933D02*
X035168Y032933D01*
X035168Y033021D02*
X034902Y033021D01*
X035542Y033043D02*
X035542Y032581D01*
X035276Y032581D01*
X035276Y033043D01*
X035542Y033043D01*
X035542Y032669D02*
X035276Y032669D01*
X035276Y032757D02*
X035542Y032757D01*
X035542Y032845D02*
X035276Y032845D01*
X035276Y032933D02*
X035542Y032933D01*
X035542Y033021D02*
X035276Y033021D01*
X035542Y032098D02*
X035542Y031636D01*
X035276Y031636D01*
X035276Y032098D01*
X035542Y032098D01*
X035542Y031724D02*
X035276Y031724D01*
X035276Y031812D02*
X035542Y031812D01*
X035542Y031900D02*
X035276Y031900D01*
X035276Y031988D02*
X035542Y031988D01*
X035542Y032076D02*
X035276Y032076D01*
X035168Y032098D02*
X035168Y031636D01*
X034902Y031636D01*
X034902Y032098D01*
X035168Y032098D01*
X035168Y031724D02*
X034902Y031724D01*
X034902Y031812D02*
X035168Y031812D01*
X035168Y031900D02*
X034902Y031900D01*
X034902Y031988D02*
X035168Y031988D01*
X035168Y032076D02*
X034902Y032076D01*
X034794Y032098D02*
X034794Y031636D01*
X034528Y031636D01*
X034528Y032098D01*
X034794Y032098D01*
X034794Y031724D02*
X034528Y031724D01*
X034528Y031812D02*
X034794Y031812D01*
X034794Y031900D02*
X034528Y031900D01*
X034528Y031988D02*
X034794Y031988D01*
X034794Y032076D02*
X034528Y032076D01*
X034095Y040101D02*
X034095Y040563D01*
X034361Y040563D01*
X034361Y040101D01*
X034095Y040101D01*
X034095Y040189D02*
X034361Y040189D01*
X034361Y040277D02*
X034095Y040277D01*
X034095Y040365D02*
X034361Y040365D01*
X034361Y040453D02*
X034095Y040453D01*
X034095Y040541D02*
X034361Y040541D01*
X033721Y040563D02*
X033721Y040101D01*
X033721Y040563D02*
X033987Y040563D01*
X033987Y040101D01*
X033721Y040101D01*
X033721Y040189D02*
X033987Y040189D01*
X033987Y040277D02*
X033721Y040277D01*
X033721Y040365D02*
X033987Y040365D01*
X033987Y040453D02*
X033721Y040453D01*
X033721Y040541D02*
X033987Y040541D01*
X033347Y040563D02*
X033347Y040101D01*
X033347Y040563D02*
X033613Y040563D01*
X033613Y040101D01*
X033347Y040101D01*
X033347Y040189D02*
X033613Y040189D01*
X033613Y040277D02*
X033347Y040277D01*
X033347Y040365D02*
X033613Y040365D01*
X033613Y040453D02*
X033347Y040453D01*
X033347Y040541D02*
X033613Y040541D01*
X033347Y041046D02*
X033347Y041508D01*
X033613Y041508D01*
X033613Y041046D01*
X033347Y041046D01*
X033347Y041134D02*
X033613Y041134D01*
X033613Y041222D02*
X033347Y041222D01*
X033347Y041310D02*
X033613Y041310D01*
X033613Y041398D02*
X033347Y041398D01*
X033347Y041486D02*
X033613Y041486D01*
X033721Y041508D02*
X033721Y041046D01*
X033721Y041508D02*
X033987Y041508D01*
X033987Y041046D01*
X033721Y041046D01*
X033721Y041134D02*
X033987Y041134D01*
X033987Y041222D02*
X033721Y041222D01*
X033721Y041310D02*
X033987Y041310D01*
X033987Y041398D02*
X033721Y041398D01*
X033721Y041486D02*
X033987Y041486D01*
X034095Y041508D02*
X034095Y041046D01*
X034095Y041508D02*
X034361Y041508D01*
X034361Y041046D01*
X034095Y041046D01*
X034095Y041134D02*
X034361Y041134D01*
X034361Y041222D02*
X034095Y041222D01*
X034095Y041310D02*
X034361Y041310D01*
X034361Y041398D02*
X034095Y041398D01*
X034095Y041486D02*
X034361Y041486D01*
D31*
X032499Y039378D02*
X032499Y038136D01*
X032089Y038136D01*
X032089Y039378D01*
X032499Y039378D01*
X032499Y038272D02*
X032089Y038272D01*
X032089Y038408D02*
X032499Y038408D01*
X032499Y038544D02*
X032089Y038544D01*
X032089Y038680D02*
X032499Y038680D01*
X032499Y038816D02*
X032089Y038816D01*
X032089Y038952D02*
X032499Y038952D01*
X032499Y039088D02*
X032089Y039088D01*
X032089Y039224D02*
X032499Y039224D01*
X032499Y039360D02*
X032089Y039360D01*
X031499Y040656D02*
X031499Y041898D01*
X031499Y040656D02*
X031089Y040656D01*
X031089Y041898D01*
X031499Y041898D01*
X031499Y040792D02*
X031089Y040792D01*
X031089Y040928D02*
X031499Y040928D01*
X031499Y041064D02*
X031089Y041064D01*
X031089Y041200D02*
X031499Y041200D01*
X031499Y041336D02*
X031089Y041336D01*
X031089Y041472D02*
X031499Y041472D01*
X031499Y041608D02*
X031089Y041608D01*
X031089Y041744D02*
X031499Y041744D01*
X031499Y041880D02*
X031089Y041880D01*
X030499Y039378D02*
X030499Y038136D01*
X030089Y038136D01*
X030089Y039378D01*
X030499Y039378D01*
X030499Y038272D02*
X030089Y038272D01*
X030089Y038408D02*
X030499Y038408D01*
X030499Y038544D02*
X030089Y038544D01*
X030089Y038680D02*
X030499Y038680D01*
X030499Y038816D02*
X030089Y038816D01*
X030089Y038952D02*
X030499Y038952D01*
X030499Y039088D02*
X030089Y039088D01*
X030089Y039224D02*
X030499Y039224D01*
X030499Y039360D02*
X030089Y039360D01*
X028547Y037961D02*
X028547Y036719D01*
X028137Y036719D01*
X028137Y037961D01*
X028547Y037961D01*
X028547Y036855D02*
X028137Y036855D01*
X028137Y036991D02*
X028547Y036991D01*
X028547Y037127D02*
X028137Y037127D01*
X028137Y037263D02*
X028547Y037263D01*
X028547Y037399D02*
X028137Y037399D01*
X028137Y037535D02*
X028547Y037535D01*
X028547Y037671D02*
X028137Y037671D01*
X028137Y037807D02*
X028547Y037807D01*
X028547Y037943D02*
X028137Y037943D01*
X027547Y035441D02*
X027547Y034199D01*
X027137Y034199D01*
X027137Y035441D01*
X027547Y035441D01*
X027547Y034335D02*
X027137Y034335D01*
X027137Y034471D02*
X027547Y034471D01*
X027547Y034607D02*
X027137Y034607D01*
X027137Y034743D02*
X027547Y034743D01*
X027547Y034879D02*
X027137Y034879D01*
X027137Y035015D02*
X027547Y035015D01*
X027547Y035151D02*
X027137Y035151D01*
X027137Y035287D02*
X027547Y035287D01*
X027547Y035423D02*
X027137Y035423D01*
X029547Y035441D02*
X029547Y034199D01*
X029137Y034199D01*
X029137Y035441D01*
X029547Y035441D01*
X029547Y034335D02*
X029137Y034335D01*
X029137Y034471D02*
X029547Y034471D01*
X029547Y034607D02*
X029137Y034607D01*
X029137Y034743D02*
X029547Y034743D01*
X029547Y034879D02*
X029137Y034879D01*
X029137Y035015D02*
X029547Y035015D01*
X029547Y035151D02*
X029137Y035151D01*
X029137Y035287D02*
X029547Y035287D01*
X029547Y035423D02*
X029137Y035423D01*
X032287Y034418D02*
X032287Y033176D01*
X031877Y033176D01*
X031877Y034418D01*
X032287Y034418D01*
X032287Y033312D02*
X031877Y033312D01*
X031877Y033448D02*
X032287Y033448D01*
X032287Y033584D02*
X031877Y033584D01*
X031877Y033720D02*
X032287Y033720D01*
X032287Y033856D02*
X031877Y033856D01*
X031877Y033992D02*
X032287Y033992D01*
X032287Y034128D02*
X031877Y034128D01*
X031877Y034264D02*
X032287Y034264D01*
X032287Y034400D02*
X031877Y034400D01*
X031287Y031898D02*
X031287Y030656D01*
X030877Y030656D01*
X030877Y031898D01*
X031287Y031898D01*
X031287Y030792D02*
X030877Y030792D01*
X030877Y030928D02*
X031287Y030928D01*
X031287Y031064D02*
X030877Y031064D01*
X030877Y031200D02*
X031287Y031200D01*
X031287Y031336D02*
X030877Y031336D01*
X030877Y031472D02*
X031287Y031472D01*
X031287Y031608D02*
X030877Y031608D01*
X030877Y031744D02*
X031287Y031744D01*
X031287Y031880D02*
X030877Y031880D01*
X033287Y031898D02*
X033287Y030656D01*
X032877Y030656D01*
X032877Y031898D01*
X033287Y031898D01*
X033287Y030792D02*
X032877Y030792D01*
X032877Y030928D02*
X033287Y030928D01*
X033287Y031064D02*
X032877Y031064D01*
X032877Y031200D02*
X033287Y031200D01*
X033287Y031336D02*
X032877Y031336D01*
X032877Y031472D02*
X033287Y031472D01*
X033287Y031608D02*
X032877Y031608D01*
X032877Y031744D02*
X033287Y031744D01*
X033287Y031880D02*
X032877Y031880D01*
D32*
X033992Y029947D02*
X034502Y029947D01*
X033992Y029947D02*
X033992Y030383D01*
X034502Y030383D01*
X034502Y029947D01*
X034502Y030092D02*
X033992Y030092D01*
X033992Y030237D02*
X034502Y030237D01*
X034502Y030382D02*
X033992Y030382D01*
X033992Y029179D02*
X034502Y029179D01*
X033992Y029179D02*
X033992Y029615D01*
X034502Y029615D01*
X034502Y029179D01*
X034502Y029324D02*
X033992Y029324D01*
X033992Y029469D02*
X034502Y029469D01*
X034502Y029614D02*
X033992Y029614D01*
X028794Y031344D02*
X028284Y031344D01*
X028284Y031780D01*
X028794Y031780D01*
X028794Y031344D01*
X028794Y031489D02*
X028284Y031489D01*
X028284Y031634D02*
X028794Y031634D01*
X028794Y031779D02*
X028284Y031779D01*
X028284Y032112D02*
X028794Y032112D01*
X028284Y032112D02*
X028284Y032548D01*
X028794Y032548D01*
X028794Y032112D01*
X028794Y032257D02*
X028284Y032257D01*
X028284Y032402D02*
X028794Y032402D01*
X028794Y032547D02*
X028284Y032547D01*
X027612Y032112D02*
X027102Y032112D01*
X027102Y032548D01*
X027612Y032548D01*
X027612Y032112D01*
X027612Y032257D02*
X027102Y032257D01*
X027102Y032402D02*
X027612Y032402D01*
X027612Y032547D02*
X027102Y032547D01*
X027102Y031344D02*
X027612Y031344D01*
X027102Y031344D02*
X027102Y031780D01*
X027612Y031780D01*
X027612Y031344D01*
X027612Y031489D02*
X027102Y031489D01*
X027102Y031634D02*
X027612Y031634D01*
X027612Y031779D02*
X027102Y031779D01*
X025597Y036219D02*
X025597Y036729D01*
X025597Y036219D02*
X025161Y036219D01*
X025161Y036729D01*
X025597Y036729D01*
X025597Y036364D02*
X025161Y036364D01*
X025161Y036509D02*
X025597Y036509D01*
X025597Y036654D02*
X025161Y036654D01*
X024829Y036729D02*
X024829Y036219D01*
X024393Y036219D01*
X024393Y036729D01*
X024829Y036729D01*
X024829Y036364D02*
X024393Y036364D01*
X024393Y036509D02*
X024829Y036509D01*
X024829Y036654D02*
X024393Y036654D01*
X028087Y038906D02*
X028597Y038906D01*
X028597Y038470D01*
X028087Y038470D01*
X028087Y038906D01*
X028087Y038615D02*
X028597Y038615D01*
X028597Y038760D02*
X028087Y038760D01*
X028087Y038905D02*
X028597Y038905D01*
X028597Y039674D02*
X028087Y039674D01*
X028597Y039674D02*
X028597Y039238D01*
X028087Y039238D01*
X028087Y039674D01*
X028087Y039383D02*
X028597Y039383D01*
X028597Y039528D02*
X028087Y039528D01*
X028087Y039673D02*
X028597Y039673D01*
X026385Y042085D02*
X026385Y042595D01*
X026385Y042085D02*
X025949Y042085D01*
X025949Y042595D01*
X026385Y042595D01*
X026385Y042230D02*
X025949Y042230D01*
X025949Y042375D02*
X026385Y042375D01*
X026385Y042520D02*
X025949Y042520D01*
X025617Y042595D02*
X025617Y042085D01*
X025181Y042085D01*
X025181Y042595D01*
X025617Y042595D01*
X025617Y042230D02*
X025181Y042230D01*
X025181Y042375D02*
X025617Y042375D01*
X025617Y042520D02*
X025181Y042520D01*
X025617Y043108D02*
X025617Y043618D01*
X025617Y043108D02*
X025181Y043108D01*
X025181Y043618D01*
X025617Y043618D01*
X025617Y043253D02*
X025181Y043253D01*
X025181Y043398D02*
X025617Y043398D01*
X025617Y043543D02*
X025181Y043543D01*
X026385Y043618D02*
X026385Y043108D01*
X025949Y043108D01*
X025949Y043618D01*
X026385Y043618D01*
X026385Y043253D02*
X025949Y043253D01*
X025949Y043398D02*
X026385Y043398D01*
X026385Y043543D02*
X025949Y043543D01*
X015319Y031217D02*
X015319Y030707D01*
X015319Y031217D02*
X015755Y031217D01*
X015755Y030707D01*
X015319Y030707D01*
X015319Y030852D02*
X015755Y030852D01*
X015755Y030997D02*
X015319Y030997D01*
X015319Y031142D02*
X015755Y031142D01*
X014551Y031217D02*
X014551Y030707D01*
X014551Y031217D02*
X014987Y031217D01*
X014987Y030707D01*
X014551Y030707D01*
X014551Y030852D02*
X014987Y030852D01*
X014987Y030997D02*
X014551Y030997D01*
X014551Y031142D02*
X014987Y031142D01*
D33*
X028173Y028162D02*
X028173Y027266D01*
X028173Y028162D02*
X028675Y028162D01*
X028675Y027266D01*
X028173Y027266D01*
X028173Y027432D02*
X028675Y027432D01*
X028675Y027598D02*
X028173Y027598D01*
X028173Y027764D02*
X028675Y027764D01*
X028675Y027930D02*
X028173Y027930D01*
X028173Y028096D02*
X028675Y028096D01*
X029173Y028162D02*
X029173Y027266D01*
X029173Y028162D02*
X029675Y028162D01*
X029675Y027266D01*
X029173Y027266D01*
X029173Y027432D02*
X029675Y027432D01*
X029675Y027598D02*
X029173Y027598D01*
X029173Y027764D02*
X029675Y027764D01*
X029675Y027930D02*
X029173Y027930D01*
X029173Y028096D02*
X029675Y028096D01*
X030173Y028162D02*
X030173Y027266D01*
X030173Y028162D02*
X030675Y028162D01*
X030675Y027266D01*
X030173Y027266D01*
X030173Y027432D02*
X030675Y027432D01*
X030675Y027598D02*
X030173Y027598D01*
X030173Y027764D02*
X030675Y027764D01*
X030675Y027930D02*
X030173Y027930D01*
X030173Y028096D02*
X030675Y028096D01*
X032504Y028162D02*
X032504Y027266D01*
X032504Y028162D02*
X033006Y028162D01*
X033006Y027266D01*
X032504Y027266D01*
X032504Y027432D02*
X033006Y027432D01*
X033006Y027598D02*
X032504Y027598D01*
X032504Y027764D02*
X033006Y027764D01*
X033006Y027930D02*
X032504Y027930D01*
X032504Y028096D02*
X033006Y028096D01*
X033504Y028162D02*
X033504Y027266D01*
X033504Y028162D02*
X034006Y028162D01*
X034006Y027266D01*
X033504Y027266D01*
X033504Y027432D02*
X034006Y027432D01*
X034006Y027598D02*
X033504Y027598D01*
X033504Y027764D02*
X034006Y027764D01*
X034006Y027930D02*
X033504Y027930D01*
X033504Y028096D02*
X034006Y028096D01*
X034504Y028162D02*
X034504Y027266D01*
X034504Y028162D02*
X035006Y028162D01*
X035006Y027266D01*
X034504Y027266D01*
X034504Y027432D02*
X035006Y027432D01*
X035006Y027598D02*
X034504Y027598D01*
X034504Y027764D02*
X035006Y027764D01*
X035006Y027930D02*
X034504Y027930D01*
X034504Y028096D02*
X035006Y028096D01*
X034504Y023241D02*
X034504Y022345D01*
X034504Y023241D02*
X035006Y023241D01*
X035006Y022345D01*
X034504Y022345D01*
X034504Y022511D02*
X035006Y022511D01*
X035006Y022677D02*
X034504Y022677D01*
X034504Y022843D02*
X035006Y022843D01*
X035006Y023009D02*
X034504Y023009D01*
X034504Y023175D02*
X035006Y023175D01*
X033504Y023241D02*
X033504Y022345D01*
X033504Y023241D02*
X034006Y023241D01*
X034006Y022345D01*
X033504Y022345D01*
X033504Y022511D02*
X034006Y022511D01*
X034006Y022677D02*
X033504Y022677D01*
X033504Y022843D02*
X034006Y022843D01*
X034006Y023009D02*
X033504Y023009D01*
X033504Y023175D02*
X034006Y023175D01*
X032504Y023241D02*
X032504Y022345D01*
X032504Y023241D02*
X033006Y023241D01*
X033006Y022345D01*
X032504Y022345D01*
X032504Y022511D02*
X033006Y022511D01*
X033006Y022677D02*
X032504Y022677D01*
X032504Y022843D02*
X033006Y022843D01*
X033006Y023009D02*
X032504Y023009D01*
X032504Y023175D02*
X033006Y023175D01*
X030173Y023241D02*
X030173Y022345D01*
X030173Y023241D02*
X030675Y023241D01*
X030675Y022345D01*
X030173Y022345D01*
X030173Y022511D02*
X030675Y022511D01*
X030675Y022677D02*
X030173Y022677D01*
X030173Y022843D02*
X030675Y022843D01*
X030675Y023009D02*
X030173Y023009D01*
X030173Y023175D02*
X030675Y023175D01*
X029173Y023241D02*
X029173Y022345D01*
X029173Y023241D02*
X029675Y023241D01*
X029675Y022345D01*
X029173Y022345D01*
X029173Y022511D02*
X029675Y022511D01*
X029675Y022677D02*
X029173Y022677D01*
X029173Y022843D02*
X029675Y022843D01*
X029675Y023009D02*
X029173Y023009D01*
X029173Y023175D02*
X029675Y023175D01*
X028173Y023241D02*
X028173Y022345D01*
X028173Y023241D02*
X028675Y023241D01*
X028675Y022345D01*
X028173Y022345D01*
X028173Y022511D02*
X028675Y022511D01*
X028675Y022677D02*
X028173Y022677D01*
X028173Y022843D02*
X028675Y022843D01*
X028675Y023009D02*
X028173Y023009D01*
X028173Y023175D02*
X028675Y023175D01*
D34*
X026086Y038836D03*
D35*
X024524Y043639D02*
X024524Y044191D01*
X024524Y043639D02*
X024050Y043639D01*
X024050Y044191D01*
X024524Y044191D01*
X024524Y043795D02*
X024050Y043795D01*
X024050Y043951D02*
X024524Y043951D01*
X024524Y044107D02*
X024050Y044107D01*
X023579Y044191D02*
X023579Y043639D01*
X023105Y043639D01*
X023105Y044191D01*
X023579Y044191D01*
X023579Y043795D02*
X023105Y043795D01*
X023105Y043951D02*
X023579Y043951D01*
X023579Y044107D02*
X023105Y044107D01*
X023579Y045292D02*
X023579Y045844D01*
X023579Y045292D02*
X023105Y045292D01*
X023105Y045844D01*
X023579Y045844D01*
X023579Y045448D02*
X023105Y045448D01*
X023105Y045604D02*
X023579Y045604D01*
X023579Y045760D02*
X023105Y045760D01*
X024524Y045844D02*
X024524Y045292D01*
X024050Y045292D01*
X024050Y045844D01*
X024524Y045844D01*
X024524Y045448D02*
X024050Y045448D01*
X024050Y045604D02*
X024524Y045604D01*
X024524Y045760D02*
X024050Y045760D01*
D36*
X023027Y049072D03*
X022042Y049072D03*
X022042Y050277D03*
X023027Y050253D03*
X023224Y051434D03*
X024011Y051434D03*
X024798Y051434D03*
X025980Y050253D03*
X025783Y049466D03*
X022436Y051434D03*
X014956Y057537D03*
X013972Y057537D03*
X013972Y058718D03*
X014956Y058718D03*
X022582Y037108D03*
X030507Y048482D03*
X030507Y049466D03*
X037279Y026789D03*
D37*
X015738Y033172D02*
X013386Y033172D01*
X013386Y033792D01*
X015738Y033792D01*
X015738Y033172D01*
X015738Y033378D02*
X013386Y033378D01*
X013386Y033584D02*
X015738Y033584D01*
X015738Y033790D02*
X013386Y033790D01*
X013386Y035613D02*
X015738Y035613D01*
X013386Y035613D02*
X013386Y036233D01*
X015738Y036233D01*
X015738Y035613D01*
X015738Y035819D02*
X013386Y035819D01*
X013386Y036025D02*
X015738Y036025D01*
X015738Y036231D02*
X013386Y036231D01*
D38*
X030984Y057364D02*
X031604Y057364D01*
X030984Y057364D02*
X030984Y057748D01*
X031604Y057748D01*
X031604Y057364D01*
X031604Y057491D02*
X030984Y057491D01*
X030984Y057618D02*
X031604Y057618D01*
X031604Y057745D02*
X030984Y057745D01*
X030984Y058506D02*
X031604Y058506D01*
X030984Y058506D02*
X030984Y058890D01*
X031604Y058890D01*
X031604Y058506D01*
X031604Y058633D02*
X030984Y058633D01*
X030984Y058760D02*
X031604Y058760D01*
X031604Y058887D02*
X030984Y058887D01*
D39*
X016747Y045450D03*
X013991Y045450D03*
X018224Y024761D03*
X018224Y022005D03*
X022672Y022005D03*
X022672Y024761D03*
X027121Y024761D03*
X027121Y022005D03*
X031570Y022005D03*
X031570Y024761D03*
X036019Y024761D03*
X036019Y022005D03*
D40*
X020665Y029190D03*
D41*
X020665Y029978D03*
X021452Y029978D03*
X022239Y029978D03*
X022239Y029190D03*
X021452Y029190D03*
X023027Y029190D03*
X023027Y029978D03*
X023814Y029978D03*
X024602Y029978D03*
X024602Y029190D03*
X023814Y029190D03*
X025389Y029190D03*
X026176Y029190D03*
X026176Y029978D03*
X025389Y029978D03*
D42*
X012987Y047982D03*
X012987Y048982D03*
X014987Y048982D03*
X015987Y048982D03*
X016987Y048982D03*
X016708Y058728D03*
X017318Y059495D03*
X017928Y058728D03*
X019464Y058728D03*
X020074Y059495D03*
X020684Y058728D03*
D43*
X015743Y024663D03*
X015743Y022891D03*
D44*
X021255Y045135D03*
X022751Y058108D03*
X024483Y058108D03*
D45*
X025743Y058127D03*
X027948Y056159D03*
X030507Y058521D03*
X032003Y057812D03*
X026058Y052615D03*
X023224Y048285D03*
X024602Y048088D03*
X024995Y045529D03*
X024798Y044741D03*
X022594Y043954D03*
X022042Y041395D03*
X023420Y041395D03*
X027239Y045529D03*
X028617Y046316D03*
X028342Y047812D03*
X026885Y047615D03*
X021649Y058127D03*
X018854Y040214D03*
X018854Y039623D03*
X018854Y039033D03*
X018184Y038993D03*
X018184Y039623D03*
X018184Y040214D03*
X016294Y038521D03*
X015625Y038521D03*
X015940Y039151D03*
X015743Y036867D03*
X014956Y036867D03*
X014168Y036867D03*
X016531Y033127D03*
X017318Y033127D03*
X018105Y033127D03*
X018893Y033127D03*
X015743Y032143D03*
X015153Y032143D03*
X014050Y032143D03*
X013381Y032143D03*
D46*
X015546Y042970D03*
X015940Y044938D03*
X019680Y044348D03*
X024011Y042812D03*
X024168Y042143D03*
X027161Y042576D03*
X030743Y046631D03*
X031885Y044741D03*
X033066Y044741D03*
X033066Y046710D03*
X032476Y047104D03*
X033854Y041867D03*
X034917Y039978D03*
X036019Y041395D03*
X034838Y036080D03*
X034641Y034702D03*
X034641Y033718D03*
X035035Y031159D03*
X032672Y028600D03*
X028539Y026828D03*
X029287Y021749D03*
X033735Y021749D03*
X026964Y033718D03*
X032082Y040883D03*
X020546Y055844D03*
X022239Y023088D03*
X024602Y023088D03*
D47*
X014365Y028993D03*
X017515Y054978D03*
X036413Y054978D03*
X036413Y029387D03*
M02*
