%
M48
M72
T01C0.0157
T02C0.0197
T03C0.0236
T04C0.0276
T05C0.0315
T06C0.0354
T07C0.0394
T08C0.0472
T09C0.0630
T10C0.0709
T11C0.1260
%
T01
X23027Y23678
X24011Y22891
X25586Y23875
X25586Y25647
X27161Y25450
X27751Y26828
X26964Y27222
X27357Y27812
X26570Y28797
X26649Y29190
X27357Y30765
X29917Y33127
X30113Y31946
X30310Y35489
X30310Y37458
X32869Y37261
X34050Y37458
X34956Y36907
X35822Y37261
X36413Y37458
X35822Y35489
X34641Y35489
X33460Y31946
X34444Y28993
X32672Y27419
X32279Y27025
X31885Y27812
X32279Y28009
X32357Y28482
X31885Y25647
X29523Y27222
X27948Y23285
X34444Y23678
X34641Y26238
X36609Y28797
X37397Y31552
X34405Y41001
X33460Y41001
X33066Y41789
X29129Y42576
X28145Y42182
X27751Y42576
X26767Y42970
X25546Y45726
X24995Y46119
X25389Y46513
X25192Y47694
X23814Y45726
X22830Y45726
X21649Y44545
X21058Y45332
X20389Y45450
X20074Y45726
X19680Y44112
X19680Y43167
X20586Y41356
X21452Y41395
X23420Y39623
X22042Y37655
X22042Y37261
X21846Y32734
X16531Y37655
X15350Y38088
X16019Y41080
X16334Y43757
X16531Y44741
X16413Y46119
X18302Y45726
X18696Y46710
X18499Y47497
X19483Y47891
X20271Y49663
X19562Y49860
X20940Y50647
X21452Y51434
X22239Y51631
X22830Y52419
X23184Y52104
X23617Y51434
X24208Y52419
X24602Y52615
X24602Y53009
X24208Y53206
X24602Y53600
X22830Y53600
X22909Y52930
X22633Y56474
X24602Y56474
X26767Y56474
X28932Y56474
X26334Y53009
X25389Y50253
X27357Y49899
X27948Y50450
X27357Y47104
X23420Y48560
X21531Y48875
X21570Y49269
X19602Y53639
X18539Y54387
X15940Y54781
X27554Y38836
X32672Y50056
X34050Y51434
X33460Y52615
X33066Y53206
X32476Y52615
X34168Y53600
X35231Y51434
X34641Y49860
T02
X21255Y42773
T03
X19680Y41986
X22042Y39033
X23420Y39033
X24168Y39781
X24011Y40450
X22594Y41592
X24798Y42379
X24995Y43167
X24602Y45726
X23224Y45923
X23027Y46710
X22042Y46710
X22042Y47915
X23027Y47891
X23224Y49072
X24011Y49072
X24798Y49072
X25980Y47891
X25783Y47104
X26885Y45253
X28342Y45450
X28617Y43954
X27239Y43167
X27161Y40214
X30743Y44269
X31885Y42379
X33066Y42379
X33066Y44348
X32476Y44741
X30507Y46119
X30507Y47104
X26058Y50253
X27948Y53797
X25743Y55765
X21649Y55765
X20546Y53482
X22436Y49072
X15940Y42576
X15546Y40608
X18184Y37852
X18184Y37261
X18184Y36631
X18854Y36671
X18854Y37261
X18854Y37852
X16294Y36159
X15625Y36159
X15940Y36789
X15743Y34505
X14956Y34505
X14168Y34505
X16531Y30765
X15743Y29781
X15153Y29781
X14050Y29781
X13381Y29781
X17318Y30765
X18105Y30765
X18893Y30765
X22582Y34745
X26964Y31356
X32082Y38521
X33854Y39505
X34917Y37615
X36019Y39033
X34838Y33718
X34641Y32340
X34641Y31356
X35035Y28797
X32672Y26238
X28539Y24466
X29287Y19387
X33735Y19387
X37279Y24426
X24602Y20726
X22239Y20726
X14956Y55175
X13972Y55175
X13972Y56356
X14956Y56356
X30507Y56159
X32003Y55450
T04
X26176Y27615
X26176Y26828
X25389Y26828
X25389Y27615
X24602Y27615
X24602Y26828
X23814Y26828
X23814Y27615
X23027Y27615
X23027Y26828
X22239Y26828
X21452Y26828
X21452Y27615
X22239Y27615
X20665Y27615
X20665Y26828
T05
X22684Y32537
X23684Y32537
X31228Y41395
X32228Y41395
X28224Y47072
X28224Y48072
X28224Y49072
X29405Y50738
X29405Y51738
X33417Y55600
X34417Y55600
X35417Y55600
X20684Y56365
X20074Y57133
X19464Y56365
X17928Y56365
X17318Y57133
X16708Y56365
X17318Y50285
X17318Y49285
X17318Y48285
T06
X16987Y46619
X15987Y46619
X14987Y46619
X12987Y46619
X12987Y45619
X22751Y55745
X24483Y55745
T07
X15448Y51828
X15448Y50844
X14464Y50844
X14464Y51828
X14464Y49860
X15448Y49860
T08
X25086Y36474
X26086Y36474
T09
X15743Y20529
X15743Y22300
T10
X18224Y22399
X18224Y19643
X22672Y19643
X22672Y22399
X27121Y22399
X27121Y19643
X31570Y19643
X31570Y22399
X36019Y22399
X36019Y19643
X16747Y43088
X13991Y43088
T11
X17515Y52615
X36413Y52615
X36413Y27025
X14365Y26631
M30
