G75*
%MOIN*%
%OFA0B0*%
%FSLAX24Y24*%
%IPPOS*%
%LPD*%
%AMOC8*
5,1,8,0,0,1.08239X$1,22.5*
%
%ADD10C,0.0839*%
%ADD11R,0.0779X0.0779*%
%ADD12C,0.0779*%
%ADD13R,0.0639X0.0639*%
%ADD14C,0.0639*%
%ADD15R,0.0787X0.0787*%
%ADD16R,0.0579X0.0579*%
%ADD17C,0.0217*%
%ADD18C,0.0167*%
%ADD19C,0.0787*%
%ADD20R,0.0551X0.0551*%
%ADD21C,0.0551*%
%ADD22C,0.0739*%
%ADD23C,0.0709*%
%ADD24C,0.0069*%
%ADD25C,0.0433*%
%ADD26C,0.0472*%
%ADD27C,0.0579*%
%ADD28C,0.2619*%
D10*
X025086Y036474D03*
X033417Y055600D03*
X034417Y055600D03*
X035417Y055600D03*
D11*
X015448Y051828D03*
D12*
X015448Y050844D03*
X014464Y050844D03*
X014464Y051828D03*
X014464Y049860D03*
X015448Y049860D03*
D13*
X017318Y048285D03*
X028224Y049072D03*
X029405Y051738D03*
X031228Y041395D03*
X023684Y032537D03*
D14*
X022684Y032537D03*
X032228Y041395D03*
X028224Y047072D03*
X028224Y048072D03*
X029405Y050738D03*
X017318Y050285D03*
X017318Y049285D03*
D15*
X026086Y036474D03*
D16*
X022582Y034745D03*
X023027Y046710D03*
X022042Y046710D03*
X022042Y047915D03*
X023027Y047891D03*
X023224Y049072D03*
X024011Y049072D03*
X024798Y049072D03*
X025980Y047891D03*
X025783Y047104D03*
X022436Y049072D03*
X014956Y055175D03*
X013972Y055175D03*
X013972Y056356D03*
X014956Y056356D03*
X030507Y047104D03*
X030507Y046119D03*
X037279Y024426D03*
D17*
X036639Y024043D02*
X036639Y024889D01*
X036639Y024043D02*
X035989Y024043D01*
X035989Y024889D01*
X036639Y024889D01*
X036639Y024259D02*
X035989Y024259D01*
X035989Y024475D02*
X036639Y024475D01*
X036639Y024691D02*
X035989Y024691D01*
X035084Y022566D02*
X034238Y022566D01*
X034238Y023216D01*
X035084Y023216D01*
X035084Y022566D01*
X035084Y022782D02*
X034238Y022782D01*
X034238Y022998D02*
X035084Y022998D01*
X035084Y023214D02*
X034238Y023214D01*
X032190Y024043D02*
X032190Y024889D01*
X032190Y024043D02*
X031540Y024043D01*
X031540Y024889D01*
X032190Y024889D01*
X032190Y024259D02*
X031540Y024259D01*
X031540Y024475D02*
X032190Y024475D01*
X032190Y024691D02*
X031540Y024691D01*
X030635Y022566D02*
X029789Y022566D01*
X029789Y023216D01*
X030635Y023216D01*
X030635Y022566D01*
X030635Y022782D02*
X029789Y022782D01*
X029789Y022998D02*
X030635Y022998D01*
X030635Y023214D02*
X029789Y023214D01*
X027742Y024043D02*
X027742Y024889D01*
X027742Y024043D02*
X027092Y024043D01*
X027092Y024889D01*
X027742Y024889D01*
X027742Y024259D02*
X027092Y024259D01*
X027092Y024475D02*
X027742Y024475D01*
X027742Y024691D02*
X027092Y024691D01*
X026186Y022566D02*
X025340Y022566D01*
X025340Y023216D01*
X026186Y023216D01*
X026186Y022566D01*
X026186Y022782D02*
X025340Y022782D01*
X025340Y022998D02*
X026186Y022998D01*
X026186Y023214D02*
X025340Y023214D01*
X023293Y024043D02*
X023293Y024889D01*
X023293Y024043D02*
X022643Y024043D01*
X022643Y024889D01*
X023293Y024889D01*
X023293Y024259D02*
X022643Y024259D01*
X022643Y024475D02*
X023293Y024475D01*
X023293Y024691D02*
X022643Y024691D01*
X021737Y022566D02*
X020891Y022566D01*
X020891Y023216D01*
X021737Y023216D01*
X021737Y022566D01*
X021737Y022782D02*
X020891Y022782D01*
X020891Y022998D02*
X021737Y022998D01*
X021737Y023214D02*
X020891Y023214D01*
X018844Y024043D02*
X018844Y024889D01*
X018844Y024043D02*
X018194Y024043D01*
X018194Y024889D01*
X018844Y024889D01*
X018844Y024259D02*
X018194Y024259D01*
X018194Y024475D02*
X018844Y024475D01*
X018844Y024691D02*
X018194Y024691D01*
X017288Y022566D02*
X016442Y022566D01*
X016442Y023216D01*
X017288Y023216D01*
X017288Y022566D01*
X017288Y022782D02*
X016442Y022782D01*
X016442Y022998D02*
X017288Y022998D01*
X017288Y023214D02*
X016442Y023214D01*
X016442Y018924D02*
X017288Y018924D01*
X016442Y018924D02*
X016442Y019574D01*
X017288Y019574D01*
X017288Y018924D01*
X017288Y019140D02*
X016442Y019140D01*
X016442Y019356D02*
X017288Y019356D01*
X017288Y019572D02*
X016442Y019572D01*
X019159Y019633D02*
X020005Y019633D01*
X019159Y019633D02*
X019159Y020283D01*
X020005Y020283D01*
X020005Y019633D01*
X020005Y019849D02*
X019159Y019849D01*
X019159Y020065D02*
X020005Y020065D01*
X020005Y020281D02*
X019159Y020281D01*
X020891Y018924D02*
X021737Y018924D01*
X020891Y018924D02*
X020891Y019574D01*
X021737Y019574D01*
X021737Y018924D01*
X021737Y019140D02*
X020891Y019140D01*
X020891Y019356D02*
X021737Y019356D01*
X021737Y019572D02*
X020891Y019572D01*
X023608Y019633D02*
X024454Y019633D01*
X023608Y019633D02*
X023608Y020283D01*
X024454Y020283D01*
X024454Y019633D01*
X024454Y019849D02*
X023608Y019849D01*
X023608Y020065D02*
X024454Y020065D01*
X024454Y020281D02*
X023608Y020281D01*
X025340Y018924D02*
X026186Y018924D01*
X025340Y018924D02*
X025340Y019574D01*
X026186Y019574D01*
X026186Y018924D01*
X026186Y019140D02*
X025340Y019140D01*
X025340Y019356D02*
X026186Y019356D01*
X026186Y019572D02*
X025340Y019572D01*
X028057Y019633D02*
X028903Y019633D01*
X028057Y019633D02*
X028057Y020283D01*
X028903Y020283D01*
X028903Y019633D01*
X028903Y019849D02*
X028057Y019849D01*
X028057Y020065D02*
X028903Y020065D01*
X028903Y020281D02*
X028057Y020281D01*
X029789Y018924D02*
X030635Y018924D01*
X029789Y018924D02*
X029789Y019574D01*
X030635Y019574D01*
X030635Y018924D01*
X030635Y019140D02*
X029789Y019140D01*
X029789Y019356D02*
X030635Y019356D01*
X030635Y019572D02*
X029789Y019572D01*
X032505Y019633D02*
X033351Y019633D01*
X032505Y019633D02*
X032505Y020283D01*
X033351Y020283D01*
X033351Y019633D01*
X033351Y019849D02*
X032505Y019849D01*
X032505Y020065D02*
X033351Y020065D01*
X033351Y020281D02*
X032505Y020281D01*
X034238Y018924D02*
X035084Y018924D01*
X034238Y018924D02*
X034238Y019574D01*
X035084Y019574D01*
X035084Y018924D01*
X035084Y019140D02*
X034238Y019140D01*
X034238Y019356D02*
X035084Y019356D01*
X035084Y019572D02*
X034238Y019572D01*
X036954Y019633D02*
X037800Y019633D01*
X036954Y019633D02*
X036954Y020283D01*
X037800Y020283D01*
X037800Y019633D01*
X037800Y019849D02*
X036954Y019849D01*
X036954Y020065D02*
X037800Y020065D01*
X037800Y020281D02*
X036954Y020281D01*
X019237Y042468D02*
X018391Y042468D01*
X018391Y043118D01*
X019237Y043118D01*
X019237Y042468D01*
X019237Y042684D02*
X018391Y042684D01*
X018391Y042900D02*
X019237Y042900D01*
X019237Y043116D02*
X018391Y043116D01*
X016914Y044023D02*
X016914Y044869D01*
X017564Y044869D01*
X017564Y044023D01*
X016914Y044023D01*
X016914Y044239D02*
X017564Y044239D01*
X017564Y044455D02*
X016914Y044455D01*
X016914Y044671D02*
X017564Y044671D01*
X013981Y042153D02*
X013981Y041307D01*
X013981Y042153D02*
X014631Y042153D01*
X014631Y041307D01*
X013981Y041307D01*
X013981Y041523D02*
X014631Y041523D01*
X014631Y041739D02*
X013981Y041739D01*
X013981Y041955D02*
X014631Y041955D01*
X013273Y044023D02*
X013273Y044869D01*
X013923Y044869D01*
X013923Y044023D01*
X013273Y044023D01*
X013273Y044239D02*
X013923Y044239D01*
X013923Y044455D02*
X013273Y044455D01*
X013273Y044671D02*
X013923Y044671D01*
X022190Y054338D02*
X022190Y055184D01*
X022190Y054338D02*
X021540Y054338D01*
X021540Y055184D01*
X022190Y055184D01*
X022190Y054554D02*
X021540Y054554D01*
X021540Y054770D02*
X022190Y054770D01*
X022190Y054986D02*
X021540Y054986D01*
X022190Y056503D02*
X022190Y057349D01*
X022190Y056503D02*
X021540Y056503D01*
X021540Y057349D01*
X022190Y057349D01*
X022190Y056719D02*
X021540Y056719D01*
X021540Y056935D02*
X022190Y056935D01*
X022190Y057151D02*
X021540Y057151D01*
X025694Y057349D02*
X025694Y056503D01*
X025044Y056503D01*
X025044Y057349D01*
X025694Y057349D01*
X025694Y056719D02*
X025044Y056719D01*
X025044Y056935D02*
X025694Y056935D01*
X025694Y057151D02*
X025044Y057151D01*
X025694Y055184D02*
X025694Y054338D01*
X025044Y054338D01*
X025044Y055184D01*
X025694Y055184D01*
X025694Y054554D02*
X025044Y054554D01*
X025044Y054770D02*
X025694Y054770D01*
X025694Y054986D02*
X025044Y054986D01*
D18*
X013494Y042178D02*
X013494Y041282D01*
X012992Y041282D01*
X012992Y042178D01*
X013494Y042178D01*
X013494Y041448D02*
X012992Y041448D01*
X012992Y041614D02*
X013494Y041614D01*
X013494Y041780D02*
X012992Y041780D01*
X012992Y041946D02*
X013494Y041946D01*
X013494Y042112D02*
X012992Y042112D01*
X019134Y019146D02*
X020030Y019146D01*
X020030Y018644D01*
X019134Y018644D01*
X019134Y019146D01*
X019134Y018810D02*
X020030Y018810D01*
X020030Y018976D02*
X019134Y018976D01*
X019134Y019142D02*
X020030Y019142D01*
X023583Y019146D02*
X024479Y019146D01*
X024479Y018644D01*
X023583Y018644D01*
X023583Y019146D01*
X023583Y018810D02*
X024479Y018810D01*
X024479Y018976D02*
X023583Y018976D01*
X023583Y019142D02*
X024479Y019142D01*
X028032Y019146D02*
X028928Y019146D01*
X028928Y018644D01*
X028032Y018644D01*
X028032Y019146D01*
X028032Y018810D02*
X028928Y018810D01*
X028928Y018976D02*
X028032Y018976D01*
X028032Y019142D02*
X028928Y019142D01*
X032480Y019146D02*
X033376Y019146D01*
X033376Y018644D01*
X032480Y018644D01*
X032480Y019146D01*
X032480Y018810D02*
X033376Y018810D01*
X033376Y018976D02*
X032480Y018976D01*
X032480Y019142D02*
X033376Y019142D01*
X036929Y019146D02*
X037825Y019146D01*
X037825Y018644D01*
X036929Y018644D01*
X036929Y019146D01*
X036929Y018810D02*
X037825Y018810D01*
X037825Y018976D02*
X036929Y018976D01*
X036929Y019142D02*
X037825Y019142D01*
D19*
X036019Y019643D03*
X036019Y022399D03*
X031570Y022399D03*
X031570Y019643D03*
X027121Y019643D03*
X027121Y022399D03*
X022672Y022399D03*
X022672Y019643D03*
X018224Y019643D03*
X018224Y022399D03*
X016747Y043088D03*
X013991Y043088D03*
D20*
X020665Y026828D03*
D21*
X020665Y027615D03*
X021452Y027615D03*
X021452Y026828D03*
X022239Y026828D03*
X022239Y027615D03*
X023027Y027615D03*
X023027Y026828D03*
X023814Y026828D03*
X023814Y027615D03*
X024602Y027615D03*
X024602Y026828D03*
X025389Y026828D03*
X026176Y026828D03*
X026176Y027615D03*
X025389Y027615D03*
D22*
X012987Y045619D03*
X012987Y046619D03*
X014987Y046619D03*
X015987Y046619D03*
X016987Y046619D03*
X016708Y056365D03*
X017318Y057133D03*
X017928Y056365D03*
X019464Y056365D03*
X020074Y057133D03*
X020684Y056365D03*
D23*
X015743Y020529D03*
X015743Y022300D03*
D24*
X023091Y054264D02*
X023091Y055180D01*
X023091Y054264D02*
X022883Y054264D01*
X022883Y055180D01*
X023091Y055180D01*
X023091Y054332D02*
X022883Y054332D01*
X022883Y054400D02*
X023091Y054400D01*
X023091Y054468D02*
X022883Y054468D01*
X022883Y054536D02*
X023091Y054536D01*
X023091Y054604D02*
X022883Y054604D01*
X022883Y054672D02*
X023091Y054672D01*
X023091Y054740D02*
X022883Y054740D01*
X022883Y054808D02*
X023091Y054808D01*
X023091Y054876D02*
X022883Y054876D01*
X022883Y054944D02*
X023091Y054944D01*
X023091Y055012D02*
X022883Y055012D01*
X022883Y055080D02*
X023091Y055080D01*
X023091Y055148D02*
X022883Y055148D01*
X023406Y055180D02*
X023406Y054264D01*
X023198Y054264D01*
X023198Y055180D01*
X023406Y055180D01*
X023406Y054332D02*
X023198Y054332D01*
X023198Y054400D02*
X023406Y054400D01*
X023406Y054468D02*
X023198Y054468D01*
X023198Y054536D02*
X023406Y054536D01*
X023406Y054604D02*
X023198Y054604D01*
X023198Y054672D02*
X023406Y054672D01*
X023406Y054740D02*
X023198Y054740D01*
X023198Y054808D02*
X023406Y054808D01*
X023406Y054876D02*
X023198Y054876D01*
X023198Y054944D02*
X023406Y054944D01*
X023406Y055012D02*
X023198Y055012D01*
X023198Y055080D02*
X023406Y055080D01*
X023406Y055148D02*
X023198Y055148D01*
X023721Y055180D02*
X023721Y054264D01*
X023513Y054264D01*
X023513Y055180D01*
X023721Y055180D01*
X023721Y054332D02*
X023513Y054332D01*
X023513Y054400D02*
X023721Y054400D01*
X023721Y054468D02*
X023513Y054468D01*
X023513Y054536D02*
X023721Y054536D01*
X023721Y054604D02*
X023513Y054604D01*
X023513Y054672D02*
X023721Y054672D01*
X023721Y054740D02*
X023513Y054740D01*
X023513Y054808D02*
X023721Y054808D01*
X023721Y054876D02*
X023513Y054876D01*
X023513Y054944D02*
X023721Y054944D01*
X023721Y055012D02*
X023513Y055012D01*
X023513Y055080D02*
X023721Y055080D01*
X023721Y055148D02*
X023513Y055148D01*
X024036Y055180D02*
X024036Y054264D01*
X023828Y054264D01*
X023828Y055180D01*
X024036Y055180D01*
X024036Y054332D02*
X023828Y054332D01*
X023828Y054400D02*
X024036Y054400D01*
X024036Y054468D02*
X023828Y054468D01*
X023828Y054536D02*
X024036Y054536D01*
X024036Y054604D02*
X023828Y054604D01*
X023828Y054672D02*
X024036Y054672D01*
X024036Y054740D02*
X023828Y054740D01*
X023828Y054808D02*
X024036Y054808D01*
X024036Y054876D02*
X023828Y054876D01*
X023828Y054944D02*
X024036Y054944D01*
X024036Y055012D02*
X023828Y055012D01*
X023828Y055080D02*
X024036Y055080D01*
X024036Y055148D02*
X023828Y055148D01*
X024351Y055180D02*
X024351Y054264D01*
X024143Y054264D01*
X024143Y055180D01*
X024351Y055180D01*
X024351Y054332D02*
X024143Y054332D01*
X024143Y054400D02*
X024351Y054400D01*
X024351Y054468D02*
X024143Y054468D01*
X024143Y054536D02*
X024351Y054536D01*
X024351Y054604D02*
X024143Y054604D01*
X024143Y054672D02*
X024351Y054672D01*
X024351Y054740D02*
X024143Y054740D01*
X024143Y054808D02*
X024351Y054808D01*
X024351Y054876D02*
X024143Y054876D01*
X024143Y054944D02*
X024351Y054944D01*
X024351Y055012D02*
X024143Y055012D01*
X024143Y055080D02*
X024351Y055080D01*
X024351Y055148D02*
X024143Y055148D01*
D25*
X024483Y055745D03*
X022751Y055745D03*
X021255Y042773D03*
D26*
X022594Y041592D03*
X024798Y042379D03*
X024995Y043167D03*
X024602Y045726D03*
X023224Y045923D03*
X026058Y050253D03*
X027948Y053797D03*
X025743Y055765D03*
X021649Y055765D03*
X028342Y045450D03*
X026885Y045253D03*
X027239Y043167D03*
X028617Y043954D03*
X023420Y039033D03*
X022042Y039033D03*
X018854Y037852D03*
X018854Y037261D03*
X018854Y036671D03*
X018184Y036631D03*
X018184Y037261D03*
X018184Y037852D03*
X016294Y036159D03*
X015625Y036159D03*
X015940Y036789D03*
X015743Y034505D03*
X014956Y034505D03*
X014168Y034505D03*
X016531Y030765D03*
X015743Y029781D03*
X015153Y029781D03*
X014050Y029781D03*
X013381Y029781D03*
X017318Y030765D03*
X018105Y030765D03*
X018893Y030765D03*
X032003Y055450D03*
X030507Y056159D03*
D27*
X032476Y044741D03*
X033066Y044348D03*
X033066Y042379D03*
X031885Y042379D03*
X030743Y044269D03*
X033854Y039505D03*
X034917Y037615D03*
X036019Y039033D03*
X034838Y033718D03*
X034641Y032340D03*
X034641Y031356D03*
X035035Y028797D03*
X032672Y026238D03*
X028539Y024466D03*
X029287Y019387D03*
X033735Y019387D03*
X026964Y031356D03*
X032082Y038521D03*
X027161Y040214D03*
X024168Y039781D03*
X024011Y040450D03*
X019680Y041986D03*
X015940Y042576D03*
X015546Y040608D03*
X020546Y053482D03*
X022239Y020726D03*
X024602Y020726D03*
D28*
X014365Y026631D03*
X017515Y052615D03*
X036413Y052615D03*
X036413Y027025D03*
M02*
