G75*
%MOIN*%
%OFA0B0*%
%FSLAX24Y24*%
%IPPOS*%
%LPD*%
%AMOC8*
5,1,8,0,0,1.08239X$1,22.5*
%
%ADD10C,0.0050*%
%ADD11C,0.0059*%
%ADD12C,0.0760*%
%ADD13R,0.0700X0.0700*%
%ADD14C,0.0700*%
%ADD15R,0.0560X0.0560*%
%ADD16C,0.0560*%
%ADD17R,0.0709X0.0709*%
%ADD18R,0.0500X0.0500*%
%ADD19C,0.0197*%
%ADD20C,0.0148*%
%ADD21R,0.0472X0.0472*%
%ADD22C,0.0472*%
%ADD23C,0.0660*%
%ADD24C,0.0049*%
%ADD25C,0.0315*%
%ADD26C,0.0394*%
%ADD27C,0.0500*%
%ADD28C,0.0079*%
%ADD29C,0.0500*%
%ADD30C,0.0157*%
%ADD31C,0.0354*%
%ADD32C,0.0236*%
%ADD33C,0.0315*%
%ADD34C,0.2540*%
%ADD35C,0.0118*%
D10*
X033879Y017404D02*
X034179Y017404D01*
X034339Y017629D02*
X034564Y017855D01*
X034564Y017404D01*
X034639Y017629D02*
X034339Y017629D01*
X034799Y017629D02*
X035100Y017629D01*
X035260Y017629D02*
X035485Y017629D01*
X035560Y017554D01*
X035560Y017479D01*
X035485Y017404D01*
X035260Y017404D01*
X035260Y017855D01*
X035485Y017855D01*
X035560Y017780D01*
X035560Y017704D01*
X035485Y017629D01*
X035720Y017479D02*
X035795Y017404D01*
X035945Y017404D01*
X036020Y017479D01*
X036020Y017780D01*
X035945Y017855D01*
X035795Y017855D01*
X035720Y017780D01*
X035720Y017479D01*
X036180Y017855D02*
X036481Y017855D01*
X036331Y017855D02*
X036331Y017404D01*
X036791Y017404D02*
X036791Y017855D01*
X036641Y017855D02*
X036941Y017855D01*
X037101Y017780D02*
X037101Y017479D01*
X037176Y017404D01*
X037326Y017404D01*
X037402Y017479D01*
X037402Y017780D01*
X037326Y017855D01*
X037176Y017855D01*
X037101Y017780D01*
X037562Y017855D02*
X037712Y017704D01*
X037862Y017855D01*
X037862Y017404D01*
X037562Y017404D02*
X037562Y017855D01*
X033879Y017855D02*
X033879Y017404D01*
X033889Y047325D02*
X033889Y047626D01*
X033739Y047776D01*
X033589Y047626D01*
X033589Y047325D01*
X033589Y047551D02*
X033889Y047551D01*
X034049Y047776D02*
X034049Y047325D01*
X034349Y047325D02*
X034349Y047776D01*
X034199Y047626D01*
X034049Y047776D01*
X034509Y047701D02*
X034509Y047626D01*
X034584Y047551D01*
X034810Y047551D01*
X034970Y047626D02*
X035045Y047551D01*
X035195Y047551D01*
X035270Y047626D01*
X035270Y047701D01*
X035195Y047776D01*
X035045Y047776D01*
X034970Y047701D01*
X034970Y047626D01*
X035045Y047551D02*
X034970Y047476D01*
X034970Y047401D01*
X035045Y047325D01*
X035195Y047325D01*
X035270Y047401D01*
X035270Y047476D01*
X035195Y047551D01*
X035430Y047551D02*
X035730Y047551D01*
X035730Y047626D02*
X035580Y047776D01*
X035430Y047626D01*
X035430Y047325D01*
X035730Y047325D02*
X035730Y047626D01*
X035890Y047776D02*
X036191Y047476D01*
X036116Y047551D02*
X035890Y047325D01*
X036191Y047325D02*
X036191Y047776D01*
X036041Y048310D02*
X035890Y048460D01*
X035890Y048760D01*
X035730Y048760D02*
X035730Y048310D01*
X035730Y048460D02*
X035430Y048760D01*
X035270Y048760D02*
X035270Y048535D01*
X035120Y048610D01*
X035045Y048610D01*
X034970Y048535D01*
X034970Y048385D01*
X035045Y048310D01*
X035195Y048310D01*
X035270Y048385D01*
X035430Y048310D02*
X035655Y048535D01*
X035270Y048760D02*
X034970Y048760D01*
X034810Y048760D02*
X034584Y048760D01*
X034509Y048685D01*
X034509Y048385D01*
X034584Y048310D01*
X034810Y048310D01*
X034810Y048760D01*
X034349Y048685D02*
X034349Y048385D01*
X034274Y048310D01*
X034124Y048310D01*
X034049Y048385D01*
X034049Y048535D01*
X034199Y048535D01*
X034049Y048685D02*
X034124Y048760D01*
X034274Y048760D01*
X034349Y048685D01*
X033889Y048760D02*
X033664Y048760D01*
X033589Y048685D01*
X033589Y048535D01*
X033664Y048460D01*
X033889Y048460D01*
X033889Y048310D02*
X033889Y048760D01*
X033739Y048460D02*
X033589Y048310D01*
X034509Y047701D02*
X034584Y047776D01*
X034810Y047776D01*
X034810Y047325D01*
X034584Y047325D01*
X034509Y047401D01*
X034509Y047476D01*
X034584Y047551D01*
X036041Y048310D02*
X036191Y048460D01*
X036191Y048760D01*
D11*
X012594Y057537D02*
X012594Y018167D01*
X038184Y018167D01*
X038184Y057537D01*
X012594Y057537D01*
D12*
X025086Y036474D03*
X033417Y055600D03*
X034417Y055600D03*
X035417Y055600D03*
D13*
X015448Y051828D03*
D14*
X015448Y050844D03*
X014464Y050844D03*
X014464Y051828D03*
X014464Y049860D03*
X015448Y049860D03*
D15*
X017318Y048285D03*
X028224Y049072D03*
X029405Y051738D03*
X031228Y041395D03*
X023684Y032537D03*
D16*
X022684Y032537D03*
X032228Y041395D03*
X028224Y047072D03*
X028224Y048072D03*
X029405Y050738D03*
X017318Y050285D03*
X017318Y049285D03*
D17*
X026086Y036474D03*
D18*
X022582Y034745D03*
X023027Y046710D03*
X022042Y046710D03*
X022042Y047915D03*
X023027Y047891D03*
X023224Y049072D03*
X024011Y049072D03*
X024798Y049072D03*
X025980Y047891D03*
X025783Y047104D03*
X022436Y049072D03*
X014956Y055175D03*
X013972Y055175D03*
X013972Y056356D03*
X014956Y056356D03*
X030507Y047104D03*
X030507Y046119D03*
X037279Y024426D03*
D19*
X036609Y024072D02*
X036609Y024860D01*
X036609Y024072D02*
X036019Y024072D01*
X036019Y024860D01*
X036609Y024860D01*
X036609Y024268D02*
X036019Y024268D01*
X036019Y024464D02*
X036609Y024464D01*
X036609Y024660D02*
X036019Y024660D01*
X036019Y024856D02*
X036609Y024856D01*
X035055Y022596D02*
X034267Y022596D01*
X034267Y023186D01*
X035055Y023186D01*
X035055Y022596D01*
X035055Y022792D02*
X034267Y022792D01*
X034267Y022988D02*
X035055Y022988D01*
X035055Y023184D02*
X034267Y023184D01*
X032160Y024072D02*
X032160Y024860D01*
X032160Y024072D02*
X031570Y024072D01*
X031570Y024860D01*
X032160Y024860D01*
X032160Y024268D02*
X031570Y024268D01*
X031570Y024464D02*
X032160Y024464D01*
X032160Y024660D02*
X031570Y024660D01*
X031570Y024856D02*
X032160Y024856D01*
X030606Y022596D02*
X029818Y022596D01*
X029818Y023186D01*
X030606Y023186D01*
X030606Y022596D01*
X030606Y022792D02*
X029818Y022792D01*
X029818Y022988D02*
X030606Y022988D01*
X030606Y023184D02*
X029818Y023184D01*
X027712Y024072D02*
X027712Y024860D01*
X027712Y024072D02*
X027122Y024072D01*
X027122Y024860D01*
X027712Y024860D01*
X027712Y024268D02*
X027122Y024268D01*
X027122Y024464D02*
X027712Y024464D01*
X027712Y024660D02*
X027122Y024660D01*
X027122Y024856D02*
X027712Y024856D01*
X026157Y022596D02*
X025369Y022596D01*
X025369Y023186D01*
X026157Y023186D01*
X026157Y022596D01*
X026157Y022792D02*
X025369Y022792D01*
X025369Y022988D02*
X026157Y022988D01*
X026157Y023184D02*
X025369Y023184D01*
X023263Y024072D02*
X023263Y024860D01*
X023263Y024072D02*
X022673Y024072D01*
X022673Y024860D01*
X023263Y024860D01*
X023263Y024268D02*
X022673Y024268D01*
X022673Y024464D02*
X023263Y024464D01*
X023263Y024660D02*
X022673Y024660D01*
X022673Y024856D02*
X023263Y024856D01*
X021708Y022596D02*
X020920Y022596D01*
X020920Y023186D01*
X021708Y023186D01*
X021708Y022596D01*
X021708Y022792D02*
X020920Y022792D01*
X020920Y022988D02*
X021708Y022988D01*
X021708Y023184D02*
X020920Y023184D01*
X018814Y024072D02*
X018814Y024860D01*
X018814Y024072D02*
X018224Y024072D01*
X018224Y024860D01*
X018814Y024860D01*
X018814Y024268D02*
X018224Y024268D01*
X018224Y024464D02*
X018814Y024464D01*
X018814Y024660D02*
X018224Y024660D01*
X018224Y024856D02*
X018814Y024856D01*
X017259Y022596D02*
X016471Y022596D01*
X016471Y023186D01*
X017259Y023186D01*
X017259Y022596D01*
X017259Y022792D02*
X016471Y022792D01*
X016471Y022988D02*
X017259Y022988D01*
X017259Y023184D02*
X016471Y023184D01*
X016471Y018954D02*
X017259Y018954D01*
X016471Y018954D02*
X016471Y019544D01*
X017259Y019544D01*
X017259Y018954D01*
X017259Y019150D02*
X016471Y019150D01*
X016471Y019346D02*
X017259Y019346D01*
X017259Y019542D02*
X016471Y019542D01*
X019188Y019663D02*
X019976Y019663D01*
X019188Y019663D02*
X019188Y020253D01*
X019976Y020253D01*
X019976Y019663D01*
X019976Y019859D02*
X019188Y019859D01*
X019188Y020055D02*
X019976Y020055D01*
X019976Y020251D02*
X019188Y020251D01*
X020920Y018954D02*
X021708Y018954D01*
X020920Y018954D02*
X020920Y019544D01*
X021708Y019544D01*
X021708Y018954D01*
X021708Y019150D02*
X020920Y019150D01*
X020920Y019346D02*
X021708Y019346D01*
X021708Y019542D02*
X020920Y019542D01*
X023637Y019663D02*
X024425Y019663D01*
X023637Y019663D02*
X023637Y020253D01*
X024425Y020253D01*
X024425Y019663D01*
X024425Y019859D02*
X023637Y019859D01*
X023637Y020055D02*
X024425Y020055D01*
X024425Y020251D02*
X023637Y020251D01*
X025369Y018954D02*
X026157Y018954D01*
X025369Y018954D02*
X025369Y019544D01*
X026157Y019544D01*
X026157Y018954D01*
X026157Y019150D02*
X025369Y019150D01*
X025369Y019346D02*
X026157Y019346D01*
X026157Y019542D02*
X025369Y019542D01*
X028086Y019663D02*
X028874Y019663D01*
X028086Y019663D02*
X028086Y020253D01*
X028874Y020253D01*
X028874Y019663D01*
X028874Y019859D02*
X028086Y019859D01*
X028086Y020055D02*
X028874Y020055D01*
X028874Y020251D02*
X028086Y020251D01*
X029818Y018954D02*
X030606Y018954D01*
X029818Y018954D02*
X029818Y019544D01*
X030606Y019544D01*
X030606Y018954D01*
X030606Y019150D02*
X029818Y019150D01*
X029818Y019346D02*
X030606Y019346D01*
X030606Y019542D02*
X029818Y019542D01*
X032534Y019663D02*
X033322Y019663D01*
X032534Y019663D02*
X032534Y020253D01*
X033322Y020253D01*
X033322Y019663D01*
X033322Y019859D02*
X032534Y019859D01*
X032534Y020055D02*
X033322Y020055D01*
X033322Y020251D02*
X032534Y020251D01*
X034267Y018954D02*
X035055Y018954D01*
X034267Y018954D02*
X034267Y019544D01*
X035055Y019544D01*
X035055Y018954D01*
X035055Y019150D02*
X034267Y019150D01*
X034267Y019346D02*
X035055Y019346D01*
X035055Y019542D02*
X034267Y019542D01*
X036983Y019663D02*
X037771Y019663D01*
X036983Y019663D02*
X036983Y020253D01*
X037771Y020253D01*
X037771Y019663D01*
X037771Y019859D02*
X036983Y019859D01*
X036983Y020055D02*
X037771Y020055D01*
X037771Y020251D02*
X036983Y020251D01*
X019208Y042498D02*
X018420Y042498D01*
X018420Y043088D01*
X019208Y043088D01*
X019208Y042498D01*
X019208Y042694D02*
X018420Y042694D01*
X018420Y042890D02*
X019208Y042890D01*
X019208Y043086D02*
X018420Y043086D01*
X016944Y044052D02*
X016944Y044840D01*
X017534Y044840D01*
X017534Y044052D01*
X016944Y044052D01*
X016944Y044248D02*
X017534Y044248D01*
X017534Y044444D02*
X016944Y044444D01*
X016944Y044640D02*
X017534Y044640D01*
X017534Y044836D02*
X016944Y044836D01*
X014011Y042124D02*
X014011Y041336D01*
X014011Y042124D02*
X014601Y042124D01*
X014601Y041336D01*
X014011Y041336D01*
X014011Y041532D02*
X014601Y041532D01*
X014601Y041728D02*
X014011Y041728D01*
X014011Y041924D02*
X014601Y041924D01*
X014601Y042120D02*
X014011Y042120D01*
X013303Y044052D02*
X013303Y044840D01*
X013893Y044840D01*
X013893Y044052D01*
X013303Y044052D01*
X013303Y044248D02*
X013893Y044248D01*
X013893Y044444D02*
X013303Y044444D01*
X013303Y044640D02*
X013893Y044640D01*
X013893Y044836D02*
X013303Y044836D01*
X022160Y054367D02*
X022160Y055155D01*
X022160Y054367D02*
X021570Y054367D01*
X021570Y055155D01*
X022160Y055155D01*
X022160Y054563D02*
X021570Y054563D01*
X021570Y054759D02*
X022160Y054759D01*
X022160Y054955D02*
X021570Y054955D01*
X021570Y055151D02*
X022160Y055151D01*
X022160Y056532D02*
X022160Y057320D01*
X022160Y056532D02*
X021570Y056532D01*
X021570Y057320D01*
X022160Y057320D01*
X022160Y056728D02*
X021570Y056728D01*
X021570Y056924D02*
X022160Y056924D01*
X022160Y057120D02*
X021570Y057120D01*
X021570Y057316D02*
X022160Y057316D01*
X024247Y054722D02*
X024582Y054722D01*
X024621Y054761D01*
X024818Y054761D01*
X025369Y054761D01*
X025664Y055155D02*
X025664Y054367D01*
X025074Y054367D01*
X025074Y055155D01*
X025664Y055155D01*
X025664Y054563D02*
X025074Y054563D01*
X025074Y054759D02*
X025664Y054759D01*
X025664Y054955D02*
X025074Y054955D01*
X025074Y055151D02*
X025664Y055151D01*
X025664Y056532D02*
X025664Y057320D01*
X025664Y056532D02*
X025074Y056532D01*
X025074Y057320D01*
X025664Y057320D01*
X025664Y056728D02*
X025074Y056728D01*
X025074Y056924D02*
X025664Y056924D01*
X025664Y057120D02*
X025074Y057120D01*
X025074Y057316D02*
X025664Y057316D01*
D20*
X013464Y042148D02*
X013464Y041312D01*
X013022Y041312D01*
X013022Y042148D01*
X013464Y042148D01*
X013464Y041459D02*
X013022Y041459D01*
X013022Y041606D02*
X013464Y041606D01*
X013464Y041753D02*
X013022Y041753D01*
X013022Y041900D02*
X013464Y041900D01*
X013464Y042047D02*
X013022Y042047D01*
X019164Y019116D02*
X020000Y019116D01*
X020000Y018674D01*
X019164Y018674D01*
X019164Y019116D01*
X019164Y018821D02*
X020000Y018821D01*
X020000Y018968D02*
X019164Y018968D01*
X019164Y019115D02*
X020000Y019115D01*
X023613Y019116D02*
X024449Y019116D01*
X024449Y018674D01*
X023613Y018674D01*
X023613Y019116D01*
X023613Y018821D02*
X024449Y018821D01*
X024449Y018968D02*
X023613Y018968D01*
X023613Y019115D02*
X024449Y019115D01*
X028062Y019116D02*
X028898Y019116D01*
X028898Y018674D01*
X028062Y018674D01*
X028062Y019116D01*
X028062Y018821D02*
X028898Y018821D01*
X028898Y018968D02*
X028062Y018968D01*
X028062Y019115D02*
X028898Y019115D01*
X032510Y019116D02*
X033346Y019116D01*
X033346Y018674D01*
X032510Y018674D01*
X032510Y019116D01*
X032510Y018821D02*
X033346Y018821D01*
X033346Y018968D02*
X032510Y018968D01*
X032510Y019115D02*
X033346Y019115D01*
X036959Y019116D02*
X037795Y019116D01*
X037795Y018674D01*
X036959Y018674D01*
X036959Y019116D01*
X036959Y018821D02*
X037795Y018821D01*
X037795Y018968D02*
X036959Y018968D01*
X036959Y019115D02*
X037795Y019115D01*
D21*
X020665Y026828D03*
D22*
X020665Y027615D03*
X021452Y027615D03*
X021452Y026828D03*
X022239Y026828D03*
X022239Y027615D03*
X023027Y027615D03*
X023027Y026828D03*
X023814Y026828D03*
X023814Y027615D03*
X024602Y027615D03*
X024602Y026828D03*
X025389Y026828D03*
X026176Y026828D03*
X026176Y027615D03*
X025389Y027615D03*
D23*
X012987Y045619D03*
X012987Y046619D03*
X014987Y046619D03*
X015987Y046619D03*
X016987Y046619D03*
X016708Y056365D03*
X017318Y057133D03*
X017928Y056365D03*
X019464Y056365D03*
X020074Y057133D03*
X020684Y056365D03*
D24*
X023061Y055151D02*
X023061Y054293D01*
X022913Y054293D01*
X022913Y055151D01*
X023061Y055151D01*
X023061Y054341D02*
X022913Y054341D01*
X022913Y054389D02*
X023061Y054389D01*
X023061Y054437D02*
X022913Y054437D01*
X022913Y054485D02*
X023061Y054485D01*
X023061Y054533D02*
X022913Y054533D01*
X022913Y054581D02*
X023061Y054581D01*
X023061Y054629D02*
X022913Y054629D01*
X022913Y054677D02*
X023061Y054677D01*
X023061Y054725D02*
X022913Y054725D01*
X022913Y054773D02*
X023061Y054773D01*
X023061Y054821D02*
X022913Y054821D01*
X022913Y054869D02*
X023061Y054869D01*
X023061Y054917D02*
X022913Y054917D01*
X022913Y054965D02*
X023061Y054965D01*
X023061Y055013D02*
X022913Y055013D01*
X022913Y055061D02*
X023061Y055061D01*
X023061Y055109D02*
X022913Y055109D01*
X023376Y055151D02*
X023376Y054293D01*
X023228Y054293D01*
X023228Y055151D01*
X023376Y055151D01*
X023376Y054341D02*
X023228Y054341D01*
X023228Y054389D02*
X023376Y054389D01*
X023376Y054437D02*
X023228Y054437D01*
X023228Y054485D02*
X023376Y054485D01*
X023376Y054533D02*
X023228Y054533D01*
X023228Y054581D02*
X023376Y054581D01*
X023376Y054629D02*
X023228Y054629D01*
X023228Y054677D02*
X023376Y054677D01*
X023376Y054725D02*
X023228Y054725D01*
X023228Y054773D02*
X023376Y054773D01*
X023376Y054821D02*
X023228Y054821D01*
X023228Y054869D02*
X023376Y054869D01*
X023376Y054917D02*
X023228Y054917D01*
X023228Y054965D02*
X023376Y054965D01*
X023376Y055013D02*
X023228Y055013D01*
X023228Y055061D02*
X023376Y055061D01*
X023376Y055109D02*
X023228Y055109D01*
X023691Y055151D02*
X023691Y054293D01*
X023543Y054293D01*
X023543Y055151D01*
X023691Y055151D01*
X023691Y054341D02*
X023543Y054341D01*
X023543Y054389D02*
X023691Y054389D01*
X023691Y054437D02*
X023543Y054437D01*
X023543Y054485D02*
X023691Y054485D01*
X023691Y054533D02*
X023543Y054533D01*
X023543Y054581D02*
X023691Y054581D01*
X023691Y054629D02*
X023543Y054629D01*
X023543Y054677D02*
X023691Y054677D01*
X023691Y054725D02*
X023543Y054725D01*
X023543Y054773D02*
X023691Y054773D01*
X023691Y054821D02*
X023543Y054821D01*
X023543Y054869D02*
X023691Y054869D01*
X023691Y054917D02*
X023543Y054917D01*
X023543Y054965D02*
X023691Y054965D01*
X023691Y055013D02*
X023543Y055013D01*
X023543Y055061D02*
X023691Y055061D01*
X023691Y055109D02*
X023543Y055109D01*
X024006Y055151D02*
X024006Y054293D01*
X023858Y054293D01*
X023858Y055151D01*
X024006Y055151D01*
X024006Y054341D02*
X023858Y054341D01*
X023858Y054389D02*
X024006Y054389D01*
X024006Y054437D02*
X023858Y054437D01*
X023858Y054485D02*
X024006Y054485D01*
X024006Y054533D02*
X023858Y054533D01*
X023858Y054581D02*
X024006Y054581D01*
X024006Y054629D02*
X023858Y054629D01*
X023858Y054677D02*
X024006Y054677D01*
X024006Y054725D02*
X023858Y054725D01*
X023858Y054773D02*
X024006Y054773D01*
X024006Y054821D02*
X023858Y054821D01*
X023858Y054869D02*
X024006Y054869D01*
X024006Y054917D02*
X023858Y054917D01*
X023858Y054965D02*
X024006Y054965D01*
X024006Y055013D02*
X023858Y055013D01*
X023858Y055061D02*
X024006Y055061D01*
X024006Y055109D02*
X023858Y055109D01*
X024321Y055151D02*
X024321Y054293D01*
X024173Y054293D01*
X024173Y055151D01*
X024321Y055151D01*
X024321Y054341D02*
X024173Y054341D01*
X024173Y054389D02*
X024321Y054389D01*
X024321Y054437D02*
X024173Y054437D01*
X024173Y054485D02*
X024321Y054485D01*
X024321Y054533D02*
X024173Y054533D01*
X024173Y054581D02*
X024321Y054581D01*
X024321Y054629D02*
X024173Y054629D01*
X024173Y054677D02*
X024321Y054677D01*
X024321Y054725D02*
X024173Y054725D01*
X024173Y054773D02*
X024321Y054773D01*
X024321Y054821D02*
X024173Y054821D01*
X024173Y054869D02*
X024321Y054869D01*
X024321Y054917D02*
X024173Y054917D01*
X024173Y054965D02*
X024321Y054965D01*
X024321Y055013D02*
X024173Y055013D01*
X024173Y055061D02*
X024321Y055061D01*
X024321Y055109D02*
X024173Y055109D01*
D25*
X024602Y056474D03*
X022633Y056474D03*
X022830Y053600D03*
X022909Y052930D03*
X022830Y052419D03*
X023184Y052104D03*
X023617Y051434D03*
X024208Y052419D03*
X024602Y052615D03*
X024602Y053009D03*
X024208Y053206D03*
X024602Y053600D03*
X026334Y053009D03*
X025389Y050253D03*
X025192Y047694D03*
X025389Y046513D03*
X024995Y046119D03*
X025546Y045726D03*
X023814Y045726D03*
X022830Y045726D03*
X021649Y044545D03*
X021058Y045332D03*
X020389Y045450D03*
X020074Y045726D03*
X019680Y044112D03*
X019680Y043167D03*
X020586Y041356D03*
X023420Y039623D03*
X022042Y037655D03*
X022042Y037261D03*
X021846Y032734D03*
X026649Y029190D03*
X026570Y028797D03*
X027357Y027812D03*
X026964Y027222D03*
X027751Y026828D03*
X027161Y025450D03*
X025586Y025647D03*
X025586Y023875D03*
X024011Y022891D03*
X023027Y023678D03*
X027948Y023285D03*
X029523Y027222D03*
X031885Y027812D03*
X032279Y028009D03*
X032357Y028482D03*
X032672Y027419D03*
X032279Y027025D03*
X031885Y025647D03*
X034641Y026238D03*
X034444Y023678D03*
X036609Y028797D03*
X034444Y028993D03*
X033460Y031946D03*
X034641Y035489D03*
X035822Y035489D03*
X034956Y036907D03*
X035822Y037261D03*
X036413Y037458D03*
X034050Y037458D03*
X032869Y037261D03*
X030310Y037458D03*
X030310Y035489D03*
X029917Y033127D03*
X030113Y031946D03*
X027357Y030765D03*
X027554Y038836D03*
X028145Y042182D03*
X027751Y042576D03*
X026767Y042970D03*
X029129Y042576D03*
X027357Y047104D03*
X027357Y049899D03*
X027948Y050450D03*
X032476Y052615D03*
X033066Y053206D03*
X033460Y052615D03*
X034050Y051434D03*
X035231Y051434D03*
X034641Y049860D03*
X032672Y050056D03*
X034168Y053600D03*
X028932Y056474D03*
X026767Y056474D03*
X022239Y051631D03*
X021452Y051434D03*
X020940Y050647D03*
X020271Y049663D03*
X019562Y049860D03*
X019483Y047891D03*
X018499Y047497D03*
X018696Y046710D03*
X018302Y045726D03*
X016413Y046119D03*
X016531Y044741D03*
X016334Y043757D03*
X015350Y038088D03*
X016531Y037655D03*
X021531Y048875D03*
X021570Y049269D03*
X023420Y048560D03*
X019602Y053639D03*
X018539Y054387D03*
X015940Y054781D03*
X033066Y041789D03*
X033460Y041001D03*
X034405Y041001D03*
X037397Y031552D03*
D26*
X028617Y043954D03*
X028342Y045450D03*
X026885Y045253D03*
X027239Y043167D03*
X024995Y043167D03*
X024798Y042379D03*
X022594Y041592D03*
X022042Y039033D03*
X023420Y039033D03*
X018854Y037852D03*
X018854Y037261D03*
X018854Y036671D03*
X018184Y036631D03*
X018184Y037261D03*
X018184Y037852D03*
X016294Y036159D03*
X015625Y036159D03*
X015940Y036789D03*
X015743Y034505D03*
X014956Y034505D03*
X014168Y034505D03*
X016531Y030765D03*
X015743Y029781D03*
X015153Y029781D03*
X014050Y029781D03*
X013381Y029781D03*
X017318Y030765D03*
X018105Y030765D03*
X018893Y030765D03*
X023224Y045923D03*
X024602Y045726D03*
X026058Y050253D03*
X027948Y053797D03*
X025743Y055765D03*
X021649Y055765D03*
X030507Y056159D03*
X032003Y055450D03*
D27*
X032476Y044741D03*
X033066Y044348D03*
X033066Y042379D03*
X031885Y042379D03*
X030743Y044269D03*
X033854Y039505D03*
X034917Y037615D03*
X036019Y039033D03*
X034838Y033718D03*
X034641Y032340D03*
X034641Y031356D03*
X035035Y028797D03*
X032672Y026238D03*
X028539Y024466D03*
X029287Y019387D03*
X033735Y019387D03*
X026964Y031356D03*
X032082Y038521D03*
X027161Y040214D03*
X024168Y039781D03*
X024011Y040450D03*
X019680Y041986D03*
X015940Y042576D03*
X015546Y040608D03*
X020546Y053482D03*
X022239Y020726D03*
X024602Y020726D03*
D28*
X024582Y020716D02*
X022259Y020716D01*
X022259Y020706D02*
X022259Y020745D01*
X022627Y020745D01*
X022627Y020764D01*
X022612Y020839D01*
X022583Y020909D01*
X022541Y020973D01*
X022487Y021027D01*
X022423Y021069D01*
X022352Y021099D01*
X022278Y021113D01*
X022259Y021113D01*
X022259Y020745D01*
X022220Y020745D01*
X022220Y020706D01*
X022259Y020706D01*
X022259Y020338D01*
X022278Y020338D01*
X022352Y020353D01*
X022423Y020382D01*
X022487Y020424D01*
X022541Y020478D01*
X022583Y020542D01*
X022612Y020613D01*
X022627Y020688D01*
X022627Y020706D01*
X022259Y020706D01*
X022220Y020706D02*
X022220Y020338D01*
X022201Y020338D01*
X022126Y020353D01*
X022056Y020382D01*
X021992Y020424D01*
X021938Y020478D01*
X021896Y020542D01*
X021866Y020613D01*
X021852Y020688D01*
X021852Y020706D01*
X022220Y020706D01*
X022220Y020716D02*
X016241Y020716D01*
X016209Y020793D02*
X021857Y020793D01*
X021852Y020764D02*
X021866Y020839D01*
X021896Y020909D01*
X021938Y020973D01*
X021992Y021027D01*
X022056Y021069D01*
X022126Y021099D01*
X022201Y021113D01*
X022220Y021113D01*
X022220Y020745D01*
X021852Y020745D01*
X021852Y020764D01*
X021879Y020870D02*
X016154Y020870D01*
X016194Y020830D02*
X016044Y020979D01*
X015849Y021060D01*
X015638Y021060D01*
X015442Y020979D01*
X015293Y020830D01*
X015212Y020635D01*
X015212Y020423D01*
X015293Y020228D01*
X015442Y020078D01*
X015638Y019997D01*
X015849Y019997D01*
X016044Y020078D01*
X016194Y020228D01*
X016275Y020423D01*
X016275Y020635D01*
X016194Y020830D01*
X016076Y020947D02*
X021921Y020947D01*
X021990Y021025D02*
X015935Y021025D01*
X015551Y021025D02*
X012987Y021025D01*
X012987Y021102D02*
X022142Y021102D01*
X022220Y021102D02*
X022259Y021102D01*
X022336Y021102D02*
X024504Y021102D01*
X024488Y021099D02*
X024418Y021069D01*
X024354Y021027D01*
X024300Y020973D01*
X024258Y020909D01*
X024229Y020839D01*
X024214Y020764D01*
X024214Y020745D01*
X024582Y020745D01*
X024582Y020706D01*
X024214Y020706D01*
X024214Y020688D01*
X024229Y020613D01*
X024258Y020542D01*
X024280Y020509D01*
X023586Y020509D01*
X023492Y020470D01*
X023420Y020398D01*
X023381Y020304D01*
X023381Y019612D01*
X023420Y019518D01*
X023492Y019446D01*
X023586Y019407D01*
X024475Y019407D01*
X024569Y019446D01*
X024641Y019518D01*
X024680Y019612D01*
X024680Y019741D01*
X024798Y019741D01*
X024798Y018560D01*
X024663Y018560D01*
X024680Y018578D01*
X024680Y019212D01*
X024545Y019348D01*
X023517Y019348D01*
X023381Y019212D01*
X023381Y018578D01*
X023398Y018560D01*
X020214Y018560D01*
X020231Y018578D01*
X020231Y019212D01*
X020096Y019348D01*
X019068Y019348D01*
X018932Y019212D01*
X018932Y018578D01*
X018950Y018560D01*
X012987Y018560D01*
X012987Y021513D01*
X024798Y021513D01*
X024798Y021061D01*
X024785Y021069D01*
X024715Y021099D01*
X024640Y021113D01*
X024621Y021113D01*
X024621Y020745D01*
X024582Y020745D01*
X024582Y021113D01*
X024563Y021113D01*
X024488Y021099D01*
X024582Y021102D02*
X024621Y021102D01*
X024621Y021025D02*
X024582Y021025D01*
X024582Y020947D02*
X024621Y020947D01*
X024621Y020870D02*
X024582Y020870D01*
X024582Y020793D02*
X024621Y020793D01*
X024699Y021102D02*
X024798Y021102D01*
X024798Y021179D02*
X012987Y021179D01*
X012987Y021256D02*
X024798Y021256D01*
X024798Y021333D02*
X012987Y021333D01*
X012987Y021411D02*
X024798Y021411D01*
X024798Y021488D02*
X012987Y021488D01*
X012987Y020947D02*
X015410Y020947D01*
X015333Y020870D02*
X012987Y020870D01*
X012987Y020793D02*
X015277Y020793D01*
X015245Y020716D02*
X012987Y020716D01*
X012987Y020638D02*
X015213Y020638D01*
X015212Y020561D02*
X012987Y020561D01*
X012987Y020484D02*
X015212Y020484D01*
X015219Y020407D02*
X012987Y020407D01*
X012987Y020329D02*
X015251Y020329D01*
X015283Y020252D02*
X012987Y020252D01*
X012987Y020175D02*
X015346Y020175D01*
X015423Y020098D02*
X012987Y020098D01*
X012987Y020020D02*
X015582Y020020D01*
X015905Y020020D02*
X017794Y020020D01*
X017740Y019966D02*
X017653Y019757D01*
X017653Y019529D01*
X017740Y019320D01*
X017900Y019159D01*
X018110Y019072D01*
X018337Y019072D01*
X018547Y019159D01*
X018708Y019320D01*
X018794Y019529D01*
X018794Y019757D01*
X018708Y019966D01*
X018547Y020127D01*
X018337Y020214D01*
X018110Y020214D01*
X017900Y020127D01*
X017740Y019966D01*
X017730Y019943D02*
X012987Y019943D01*
X012987Y019866D02*
X017698Y019866D01*
X017666Y019789D02*
X012987Y019789D01*
X012987Y019711D02*
X016304Y019711D01*
X016288Y019695D02*
X016262Y019656D01*
X016244Y019613D01*
X016235Y019568D01*
X016235Y019289D01*
X016826Y019289D01*
X016826Y019781D01*
X016448Y019781D01*
X016403Y019772D01*
X016360Y019754D01*
X016321Y019728D01*
X016288Y019695D01*
X016253Y019634D02*
X012987Y019634D01*
X012987Y019557D02*
X016235Y019557D01*
X016235Y019480D02*
X012987Y019480D01*
X012987Y019402D02*
X016235Y019402D01*
X016235Y019325D02*
X012987Y019325D01*
X012987Y019248D02*
X016826Y019248D01*
X016826Y019210D02*
X016235Y019210D01*
X016235Y018931D01*
X016244Y018885D01*
X016262Y018842D01*
X016288Y018803D01*
X016321Y018771D01*
X016360Y018745D01*
X016403Y018727D01*
X016448Y018718D01*
X016826Y018718D01*
X016826Y019210D01*
X016826Y019289D01*
X016905Y019289D01*
X017495Y019289D01*
X017495Y019568D01*
X017486Y019613D01*
X017468Y019656D01*
X017443Y019695D01*
X017410Y019728D01*
X017371Y019754D01*
X017328Y019772D01*
X017282Y019781D01*
X016905Y019781D01*
X016905Y019289D01*
X016905Y019210D01*
X017495Y019210D01*
X017495Y018931D01*
X017486Y018885D01*
X017468Y018842D01*
X017443Y018803D01*
X017410Y018771D01*
X017371Y018745D01*
X017328Y018727D01*
X017282Y018718D01*
X016905Y018718D01*
X016905Y019210D01*
X016826Y019210D01*
X016826Y019171D02*
X016905Y019171D01*
X016905Y019248D02*
X017811Y019248D01*
X017737Y019325D02*
X017495Y019325D01*
X017495Y019402D02*
X017705Y019402D01*
X017673Y019480D02*
X017495Y019480D01*
X017495Y019557D02*
X017653Y019557D01*
X017653Y019634D02*
X017478Y019634D01*
X017426Y019711D02*
X017653Y019711D01*
X017871Y020098D02*
X016064Y020098D01*
X016141Y020175D02*
X018016Y020175D01*
X018431Y020175D02*
X018932Y020175D01*
X018932Y020252D02*
X016204Y020252D01*
X016236Y020329D02*
X018943Y020329D01*
X018932Y020304D02*
X018932Y019612D01*
X018971Y019518D01*
X019043Y019446D01*
X019137Y019407D01*
X020026Y019407D01*
X020121Y019446D01*
X020193Y019518D01*
X020231Y019612D01*
X020231Y020304D01*
X020193Y020398D01*
X020121Y020470D01*
X020026Y020509D01*
X019137Y020509D01*
X019043Y020470D01*
X018971Y020398D01*
X018932Y020304D01*
X018980Y020407D02*
X016268Y020407D01*
X016275Y020484D02*
X019076Y020484D01*
X018932Y020098D02*
X018576Y020098D01*
X018654Y020020D02*
X018932Y020020D01*
X018932Y019943D02*
X018717Y019943D01*
X018749Y019866D02*
X018932Y019866D01*
X018932Y019789D02*
X018781Y019789D01*
X018794Y019711D02*
X018932Y019711D01*
X018932Y019634D02*
X018794Y019634D01*
X018794Y019557D02*
X018955Y019557D01*
X019009Y019480D02*
X018774Y019480D01*
X018742Y019402D02*
X020684Y019402D01*
X020684Y019325D02*
X020118Y019325D01*
X020196Y019248D02*
X021275Y019248D01*
X021275Y019210D02*
X020684Y019210D01*
X020684Y018931D01*
X020693Y018885D01*
X020711Y018842D01*
X020737Y018803D01*
X020770Y018771D01*
X020809Y018745D01*
X020852Y018727D01*
X020897Y018718D01*
X021275Y018718D01*
X021275Y019210D01*
X021354Y019210D01*
X021354Y019289D01*
X021944Y019289D01*
X021944Y019568D01*
X021935Y019613D01*
X021917Y019656D01*
X021891Y019695D01*
X021858Y019728D01*
X021820Y019754D01*
X021777Y019772D01*
X021731Y019781D01*
X021354Y019781D01*
X021354Y019289D01*
X021275Y019289D01*
X021275Y019781D01*
X020897Y019781D01*
X020852Y019772D01*
X020809Y019754D01*
X020770Y019728D01*
X020737Y019695D01*
X020711Y019656D01*
X020693Y019613D01*
X020684Y019568D01*
X020684Y019289D01*
X021275Y019289D01*
X021275Y019210D01*
X021275Y019171D02*
X021354Y019171D01*
X021354Y019210D02*
X021354Y018718D01*
X021731Y018718D01*
X021777Y018727D01*
X021820Y018745D01*
X021858Y018771D01*
X021891Y018803D01*
X021917Y018842D01*
X021935Y018885D01*
X021944Y018931D01*
X021944Y019210D01*
X021354Y019210D01*
X021354Y019248D02*
X022260Y019248D01*
X022188Y019320D02*
X022349Y019159D01*
X022559Y019072D01*
X022786Y019072D01*
X022996Y019159D01*
X023156Y019320D01*
X023243Y019529D01*
X023243Y019757D01*
X023156Y019966D01*
X022996Y020127D01*
X022786Y020214D01*
X022559Y020214D01*
X022349Y020127D01*
X022188Y019966D01*
X022102Y019757D01*
X022102Y019529D01*
X022188Y019320D01*
X022186Y019325D02*
X021944Y019325D01*
X021944Y019402D02*
X022154Y019402D01*
X022122Y019480D02*
X021944Y019480D01*
X021944Y019557D02*
X022102Y019557D01*
X022102Y019634D02*
X021926Y019634D01*
X021875Y019711D02*
X022102Y019711D01*
X022115Y019789D02*
X020231Y019789D01*
X020231Y019866D02*
X022147Y019866D01*
X022179Y019943D02*
X020231Y019943D01*
X020231Y020020D02*
X022242Y020020D01*
X022320Y020098D02*
X020231Y020098D01*
X020231Y020175D02*
X022465Y020175D01*
X022460Y020407D02*
X023428Y020407D01*
X023392Y020329D02*
X020221Y020329D01*
X020231Y020252D02*
X023381Y020252D01*
X023381Y020175D02*
X022880Y020175D01*
X023025Y020098D02*
X023381Y020098D01*
X023381Y020020D02*
X023102Y020020D01*
X023166Y019943D02*
X023381Y019943D01*
X023381Y019866D02*
X023198Y019866D01*
X023230Y019789D02*
X023381Y019789D01*
X023381Y019711D02*
X023243Y019711D01*
X023243Y019634D02*
X023381Y019634D01*
X023404Y019557D02*
X023243Y019557D01*
X023223Y019480D02*
X023458Y019480D01*
X023494Y019325D02*
X023159Y019325D01*
X023191Y019402D02*
X024798Y019402D01*
X024798Y019325D02*
X024567Y019325D01*
X024645Y019248D02*
X024798Y019248D01*
X024798Y019171D02*
X024680Y019171D01*
X024680Y019094D02*
X024798Y019094D01*
X024798Y019016D02*
X024680Y019016D01*
X024680Y018939D02*
X024798Y018939D01*
X024798Y018862D02*
X024680Y018862D01*
X024680Y018785D02*
X024798Y018785D01*
X024798Y018707D02*
X024680Y018707D01*
X024680Y018630D02*
X024798Y018630D01*
X024798Y019480D02*
X024603Y019480D01*
X024658Y019557D02*
X024798Y019557D01*
X024798Y019634D02*
X024680Y019634D01*
X024680Y019711D02*
X024798Y019711D01*
X024798Y019938D02*
X024995Y020135D01*
X024995Y021710D01*
X024995Y021907D01*
X024011Y022891D01*
X023814Y022891D01*
X023027Y022891D01*
X022830Y023088D01*
X022239Y023088D01*
X022042Y022891D01*
X021314Y022891D01*
X022239Y023875D02*
X022436Y023678D01*
X022830Y023285D01*
X024208Y023285D01*
X024405Y023088D01*
X025763Y021730D01*
X025763Y019249D01*
X025771Y019251D01*
X025777Y019255D01*
X025781Y019261D01*
X025783Y019269D01*
X024798Y019938D02*
X024050Y019938D01*
X024031Y019958D01*
X024250Y020561D02*
X022591Y020561D01*
X022617Y020638D02*
X024224Y020638D01*
X024220Y020793D02*
X022621Y020793D01*
X022599Y020870D02*
X024242Y020870D01*
X024283Y020947D02*
X022558Y020947D01*
X022489Y021025D02*
X024352Y021025D01*
X023525Y020484D02*
X022544Y020484D01*
X022259Y020484D02*
X022220Y020484D01*
X022220Y020561D02*
X022259Y020561D01*
X022259Y020638D02*
X022220Y020638D01*
X022220Y020793D02*
X022259Y020793D01*
X022259Y020870D02*
X022220Y020870D01*
X022220Y020947D02*
X022259Y020947D01*
X022259Y021025D02*
X022220Y021025D01*
X021861Y020638D02*
X016273Y020638D01*
X016275Y020561D02*
X021888Y020561D01*
X021935Y020484D02*
X020088Y020484D01*
X020184Y020407D02*
X022019Y020407D01*
X022220Y020407D02*
X022259Y020407D01*
X021354Y019711D02*
X021275Y019711D01*
X021275Y019634D02*
X021354Y019634D01*
X021354Y019557D02*
X021275Y019557D01*
X021275Y019480D02*
X021354Y019480D01*
X021354Y019402D02*
X021275Y019402D01*
X021275Y019325D02*
X021354Y019325D01*
X021354Y019094D02*
X021275Y019094D01*
X021275Y019016D02*
X021354Y019016D01*
X021354Y018939D02*
X021275Y018939D01*
X021275Y018862D02*
X021354Y018862D01*
X021354Y018785D02*
X021275Y018785D01*
X020756Y018785D02*
X020231Y018785D01*
X020231Y018862D02*
X020703Y018862D01*
X020684Y018939D02*
X020231Y018939D01*
X020231Y019016D02*
X020684Y019016D01*
X020684Y019094D02*
X020231Y019094D01*
X020231Y019171D02*
X020684Y019171D01*
X020684Y019480D02*
X020154Y019480D01*
X020209Y019557D02*
X020684Y019557D01*
X020702Y019634D02*
X020231Y019634D01*
X020231Y019711D02*
X020753Y019711D01*
X020231Y018707D02*
X023381Y018707D01*
X023381Y018630D02*
X020231Y018630D01*
X018932Y018630D02*
X012987Y018630D01*
X012987Y018707D02*
X018932Y018707D01*
X018932Y018785D02*
X017424Y018785D01*
X017477Y018862D02*
X018932Y018862D01*
X018932Y018939D02*
X017495Y018939D01*
X017495Y019016D02*
X018932Y019016D01*
X018932Y019094D02*
X018389Y019094D01*
X018559Y019171D02*
X018932Y019171D01*
X018968Y019248D02*
X018636Y019248D01*
X018710Y019325D02*
X019045Y019325D01*
X018058Y019094D02*
X017495Y019094D01*
X017495Y019171D02*
X017889Y019171D01*
X016905Y019094D02*
X016826Y019094D01*
X016826Y019016D02*
X016905Y019016D01*
X016905Y018939D02*
X016826Y018939D01*
X016826Y018862D02*
X016905Y018862D01*
X016905Y018785D02*
X016826Y018785D01*
X016307Y018785D02*
X012987Y018785D01*
X012987Y018862D02*
X016254Y018862D01*
X016235Y018939D02*
X012987Y018939D01*
X012987Y019016D02*
X016235Y019016D01*
X016235Y019094D02*
X012987Y019094D01*
X012987Y019171D02*
X016235Y019171D01*
X016826Y019325D02*
X016905Y019325D01*
X016905Y019402D02*
X016826Y019402D01*
X016826Y019480D02*
X016905Y019480D01*
X016905Y019557D02*
X016826Y019557D01*
X016826Y019634D02*
X016905Y019634D01*
X016905Y019711D02*
X016826Y019711D01*
X016865Y022891D02*
X017515Y022891D01*
X017712Y023088D01*
X018893Y023088D01*
X020074Y024269D01*
X020074Y027812D01*
X020861Y028600D01*
X021846Y028600D01*
X025783Y028600D01*
X026373Y029190D01*
X026649Y029190D01*
X026570Y028797D02*
X026767Y028600D01*
X027948Y028600D01*
X031294Y028600D01*
X031491Y028797D01*
X034247Y028797D01*
X034444Y028993D01*
X034641Y028600D02*
X034838Y028403D01*
X035231Y028403D01*
X035625Y028797D01*
X036609Y028797D01*
X034641Y028600D02*
X032476Y028600D01*
X032357Y028482D01*
X032161Y028127D02*
X032042Y028127D01*
X031609Y028127D01*
X031491Y028009D01*
X028145Y028009D01*
X027751Y028403D01*
X021452Y028403D01*
X020665Y027615D01*
X019877Y028009D02*
X020665Y028797D01*
X023814Y028797D01*
X024208Y029190D01*
X025086Y030068D01*
X025086Y035596D01*
X025086Y036474D01*
X023027Y036473D02*
X016924Y036473D01*
X016924Y036550D02*
X023027Y036550D01*
X023027Y036627D02*
X016924Y036627D01*
X016924Y036704D02*
X023027Y036704D01*
X023027Y036782D02*
X016924Y036782D01*
X016924Y036859D02*
X023027Y036859D01*
X023027Y036936D02*
X016924Y036936D01*
X016924Y037013D02*
X023027Y037013D01*
X023027Y037091D02*
X016924Y037091D01*
X016924Y037168D02*
X023027Y037168D01*
X023027Y037245D02*
X016924Y037245D01*
X016924Y037322D02*
X023027Y037322D01*
X023027Y037400D02*
X022233Y037400D01*
X022221Y037388D02*
X022310Y037476D01*
X022357Y037592D01*
X022357Y037717D01*
X022318Y037813D01*
X022318Y038718D01*
X023027Y038718D01*
X023027Y034308D01*
X019483Y034308D01*
X019483Y032340D01*
X016334Y032340D01*
X016334Y033127D01*
X016809Y033127D01*
X016924Y033243D01*
X016924Y037421D01*
X016819Y037527D01*
X016846Y037592D01*
X016846Y037717D01*
X016798Y037833D01*
X016709Y037922D01*
X016593Y037970D01*
X016468Y037970D01*
X016352Y037922D01*
X016264Y037833D01*
X016216Y037717D01*
X016216Y037592D01*
X016239Y037537D01*
X015665Y037537D01*
X015665Y038151D01*
X015617Y038266D01*
X015528Y038355D01*
X015412Y038403D01*
X015287Y038403D01*
X015171Y038355D01*
X015083Y038266D01*
X015035Y038151D01*
X015035Y037461D01*
X014995Y037421D01*
X014995Y035293D01*
X013069Y035293D01*
X012987Y035293D01*
X012987Y041080D01*
X013561Y041080D01*
X013696Y041216D01*
X013696Y041789D01*
X013755Y041789D01*
X013755Y041285D01*
X013794Y041191D01*
X013866Y041119D01*
X013960Y041080D01*
X014652Y041080D01*
X014747Y041119D01*
X014818Y041191D01*
X014857Y041285D01*
X014857Y041789D01*
X015231Y041789D01*
X015231Y040869D01*
X015201Y040838D01*
X015139Y040689D01*
X015139Y040527D01*
X015201Y040377D01*
X015316Y040262D01*
X015465Y040200D01*
X015627Y040200D01*
X015777Y040262D01*
X015892Y040377D01*
X015954Y040527D01*
X015954Y040689D01*
X015926Y040756D01*
X015952Y040745D01*
X016085Y040745D01*
X016208Y040796D01*
X016303Y040890D01*
X016354Y041013D01*
X016354Y041147D01*
X016303Y041270D01*
X016216Y041356D01*
X016216Y041589D01*
X016415Y041789D01*
X019008Y041789D01*
X019287Y041510D01*
X019402Y041395D01*
X020156Y041395D01*
X020352Y041592D01*
X020977Y041592D01*
X021117Y041451D01*
X021117Y041328D01*
X021168Y041205D01*
X021262Y041111D01*
X021385Y041060D01*
X021519Y041060D01*
X021642Y041111D01*
X021736Y041205D01*
X021787Y041328D01*
X021787Y041462D01*
X021736Y041585D01*
X021642Y041679D01*
X021519Y041730D01*
X021396Y041730D01*
X021337Y041789D01*
X023027Y041789D01*
X023027Y039348D01*
X022208Y039348D01*
X022113Y039387D01*
X021972Y039387D01*
X021842Y039333D01*
X021742Y039233D01*
X021688Y039103D01*
X021688Y038962D01*
X021742Y038832D01*
X021767Y038807D01*
X021767Y037813D01*
X021728Y037717D01*
X021728Y037592D01*
X021775Y037476D01*
X021864Y037388D01*
X021980Y037340D01*
X022105Y037340D01*
X022221Y037388D01*
X022310Y037477D02*
X023027Y037477D01*
X023027Y037554D02*
X022342Y037554D01*
X022357Y037631D02*
X023027Y037631D01*
X023027Y037708D02*
X022357Y037708D01*
X022329Y037786D02*
X023027Y037786D01*
X023027Y037863D02*
X022318Y037863D01*
X022318Y037940D02*
X023027Y037940D01*
X023027Y038017D02*
X022318Y038017D01*
X022318Y038095D02*
X023027Y038095D01*
X023027Y038172D02*
X022318Y038172D01*
X022318Y038249D02*
X023027Y038249D01*
X023027Y038326D02*
X022318Y038326D01*
X022318Y038404D02*
X023027Y038404D01*
X023027Y038481D02*
X022318Y038481D01*
X022318Y038558D02*
X023027Y038558D01*
X023027Y038635D02*
X022318Y038635D01*
X022318Y038713D02*
X023027Y038713D01*
X023027Y039408D02*
X012987Y039408D01*
X012987Y039485D02*
X023027Y039485D01*
X023027Y039562D02*
X012987Y039562D01*
X012987Y039639D02*
X023027Y039639D01*
X023027Y039717D02*
X012987Y039717D01*
X012987Y039794D02*
X023027Y039794D01*
X023027Y039871D02*
X012987Y039871D01*
X012987Y039948D02*
X023027Y039948D01*
X023027Y040026D02*
X012987Y040026D01*
X012987Y040103D02*
X023027Y040103D01*
X023027Y040180D02*
X012987Y040180D01*
X012987Y040257D02*
X015327Y040257D01*
X015243Y040335D02*
X012987Y040335D01*
X012987Y040412D02*
X015186Y040412D01*
X015154Y040489D02*
X012987Y040489D01*
X012987Y040566D02*
X015139Y040566D01*
X015139Y040644D02*
X012987Y040644D01*
X012987Y040721D02*
X015152Y040721D01*
X015184Y040798D02*
X012987Y040798D01*
X012987Y040875D02*
X015231Y040875D01*
X015231Y040953D02*
X012987Y040953D01*
X012987Y041030D02*
X015231Y041030D01*
X015231Y041107D02*
X014718Y041107D01*
X014812Y041184D02*
X015231Y041184D01*
X015231Y041262D02*
X014848Y041262D01*
X014857Y041339D02*
X015231Y041339D01*
X015231Y041416D02*
X014857Y041416D01*
X014857Y041493D02*
X015231Y041493D01*
X015231Y041570D02*
X014857Y041570D01*
X014857Y041648D02*
X015231Y041648D01*
X015231Y041725D02*
X014857Y041725D01*
X013755Y041725D02*
X013696Y041725D01*
X013696Y041648D02*
X013755Y041648D01*
X013755Y041570D02*
X013696Y041570D01*
X013696Y041493D02*
X013755Y041493D01*
X013755Y041416D02*
X013696Y041416D01*
X013696Y041339D02*
X013755Y041339D01*
X013765Y041262D02*
X013696Y041262D01*
X013665Y041184D02*
X013801Y041184D01*
X013895Y041107D02*
X013588Y041107D01*
X012987Y039331D02*
X021839Y039331D01*
X021762Y039253D02*
X012987Y039253D01*
X012987Y039176D02*
X021718Y039176D01*
X021688Y039099D02*
X012987Y039099D01*
X012987Y039022D02*
X021688Y039022D01*
X021696Y038944D02*
X012987Y038944D01*
X012987Y038867D02*
X021728Y038867D01*
X021767Y038790D02*
X012987Y038790D01*
X012987Y038713D02*
X021767Y038713D01*
X021767Y038635D02*
X012987Y038635D01*
X012987Y038558D02*
X021767Y038558D01*
X021767Y038481D02*
X012987Y038481D01*
X012987Y038404D02*
X021767Y038404D01*
X021767Y038326D02*
X015557Y038326D01*
X015624Y038249D02*
X021767Y038249D01*
X021767Y038172D02*
X015656Y038172D01*
X015665Y038095D02*
X021767Y038095D01*
X021767Y038017D02*
X015665Y038017D01*
X015665Y037940D02*
X016397Y037940D01*
X016293Y037863D02*
X015665Y037863D01*
X015665Y037786D02*
X016244Y037786D01*
X016216Y037708D02*
X015665Y037708D01*
X015665Y037631D02*
X016216Y037631D01*
X016232Y037554D02*
X015665Y037554D01*
X015843Y037110D02*
X015907Y037123D01*
X015920Y037123D01*
X015920Y036808D01*
X015920Y036769D01*
X015605Y036769D01*
X015605Y036756D01*
X015618Y036691D01*
X015644Y036630D01*
X015680Y036575D01*
X015727Y036529D01*
X015782Y036492D01*
X015843Y036467D01*
X015907Y036454D01*
X015920Y036454D01*
X015920Y036769D01*
X015960Y036769D01*
X015960Y036808D01*
X016275Y036808D01*
X016275Y036822D01*
X016262Y036886D01*
X016237Y036947D01*
X016200Y037002D01*
X016153Y037049D01*
X016099Y037085D01*
X016038Y037110D01*
X015973Y037123D01*
X015960Y037123D01*
X015960Y036808D01*
X015920Y036808D01*
X015605Y036808D01*
X015605Y036822D01*
X015618Y036886D01*
X015644Y036947D01*
X015680Y037002D01*
X015727Y037049D01*
X015782Y037085D01*
X015843Y037110D01*
X015794Y037091D02*
X015192Y037091D01*
X015192Y037168D02*
X016728Y037168D01*
X016728Y037245D02*
X015192Y037245D01*
X015192Y037322D02*
X016728Y037322D01*
X016728Y037340D02*
X016728Y033324D01*
X016137Y033324D01*
X016137Y032340D01*
X012987Y032340D01*
X012987Y035096D01*
X015192Y035096D01*
X015192Y037340D01*
X016728Y037340D01*
X016869Y037477D02*
X021775Y037477D01*
X021743Y037554D02*
X016830Y037554D01*
X016846Y037631D02*
X021728Y037631D01*
X021728Y037708D02*
X016846Y037708D01*
X016817Y037786D02*
X021756Y037786D01*
X021767Y037863D02*
X016768Y037863D01*
X016665Y037940D02*
X021767Y037940D01*
X021852Y037400D02*
X016924Y037400D01*
X016728Y037091D02*
X016086Y037091D01*
X015960Y037091D02*
X015920Y037091D01*
X015920Y037013D02*
X015960Y037013D01*
X015960Y036936D02*
X015920Y036936D01*
X015920Y036859D02*
X015960Y036859D01*
X015960Y036782D02*
X016728Y036782D01*
X016728Y036859D02*
X016267Y036859D01*
X016241Y036936D02*
X016728Y036936D01*
X016728Y037013D02*
X016189Y037013D01*
X016275Y036769D02*
X015960Y036769D01*
X015960Y036454D01*
X015973Y036454D01*
X016038Y036467D01*
X016099Y036492D01*
X016153Y036529D01*
X016200Y036575D01*
X016237Y036630D01*
X016262Y036691D01*
X016275Y036756D01*
X016275Y036769D01*
X016265Y036704D02*
X016728Y036704D01*
X016728Y036627D02*
X016235Y036627D01*
X016175Y036550D02*
X016728Y036550D01*
X016728Y036473D02*
X016411Y036473D01*
X016392Y036481D02*
X016327Y036493D01*
X016314Y036493D01*
X016314Y036178D01*
X016629Y036178D01*
X016629Y036192D01*
X016616Y036256D01*
X016591Y036317D01*
X016554Y036372D01*
X016508Y036419D01*
X016453Y036455D01*
X016392Y036481D01*
X016314Y036473D02*
X016275Y036473D01*
X016275Y036493D02*
X016262Y036493D01*
X016197Y036481D01*
X016136Y036455D01*
X016081Y036419D01*
X016035Y036372D01*
X015998Y036317D01*
X015973Y036256D01*
X015960Y036192D01*
X015960Y036178D01*
X016275Y036178D01*
X016275Y036139D01*
X016314Y036139D01*
X016314Y035824D01*
X016327Y035824D01*
X016392Y035837D01*
X016453Y035862D01*
X016508Y035899D01*
X016554Y035945D01*
X016591Y036000D01*
X016616Y036061D01*
X016629Y036126D01*
X016629Y036139D01*
X016314Y036139D01*
X016314Y036178D01*
X016275Y036178D01*
X016275Y036493D01*
X016275Y036395D02*
X016314Y036395D01*
X016314Y036318D02*
X016275Y036318D01*
X016275Y036241D02*
X016314Y036241D01*
X016314Y036164D02*
X016728Y036164D01*
X016728Y036241D02*
X016619Y036241D01*
X016590Y036318D02*
X016728Y036318D01*
X016728Y036395D02*
X016531Y036395D01*
X016621Y036086D02*
X016728Y036086D01*
X016728Y036009D02*
X016595Y036009D01*
X016541Y035932D02*
X016728Y035932D01*
X016728Y035855D02*
X016435Y035855D01*
X016314Y035855D02*
X016275Y035855D01*
X016275Y035824D02*
X016275Y036139D01*
X015960Y036139D01*
X015960Y036126D01*
X015973Y036061D01*
X015998Y036000D01*
X016035Y035945D01*
X016081Y035899D01*
X016136Y035862D01*
X016197Y035837D01*
X016262Y035824D01*
X016275Y035824D01*
X016275Y035932D02*
X016314Y035932D01*
X016314Y036009D02*
X016275Y036009D01*
X016275Y036086D02*
X016314Y036086D01*
X016275Y036164D02*
X015645Y036164D01*
X015645Y036178D02*
X015960Y036178D01*
X015960Y036192D01*
X015947Y036256D01*
X015922Y036317D01*
X015885Y036372D01*
X015838Y036419D01*
X015784Y036455D01*
X015723Y036481D01*
X015658Y036493D01*
X015645Y036493D01*
X015645Y036178D01*
X015645Y036139D01*
X015960Y036139D01*
X015960Y036126D01*
X015947Y036061D01*
X015922Y036000D01*
X015885Y035945D01*
X015838Y035899D01*
X015784Y035862D01*
X015723Y035837D01*
X015658Y035824D01*
X015645Y035824D01*
X015645Y036139D01*
X015605Y036139D01*
X015291Y036139D01*
X015291Y036126D01*
X015303Y036061D01*
X015329Y036000D01*
X015365Y035945D01*
X015412Y035899D01*
X015467Y035862D01*
X015528Y035837D01*
X015592Y035824D01*
X015605Y035824D01*
X015605Y036139D01*
X015605Y036178D01*
X015291Y036178D01*
X015291Y036192D01*
X015303Y036256D01*
X015329Y036317D01*
X015365Y036372D01*
X015412Y036419D01*
X015467Y036455D01*
X015528Y036481D01*
X015592Y036493D01*
X015605Y036493D01*
X015605Y036178D01*
X015645Y036178D01*
X015605Y036164D02*
X015192Y036164D01*
X015192Y036241D02*
X015300Y036241D01*
X015329Y036318D02*
X015192Y036318D01*
X015192Y036395D02*
X015389Y036395D01*
X015508Y036473D02*
X015192Y036473D01*
X015192Y036550D02*
X015706Y036550D01*
X015742Y036473D02*
X015829Y036473D01*
X015862Y036395D02*
X016058Y036395D01*
X016052Y036473D02*
X016178Y036473D01*
X015960Y036473D02*
X015920Y036473D01*
X015920Y036550D02*
X015960Y036550D01*
X015960Y036627D02*
X015920Y036627D01*
X015920Y036704D02*
X015960Y036704D01*
X015920Y036782D02*
X015192Y036782D01*
X015192Y036859D02*
X015613Y036859D01*
X015639Y036936D02*
X015192Y036936D01*
X015192Y037013D02*
X015691Y037013D01*
X015616Y036704D02*
X015192Y036704D01*
X015192Y036627D02*
X015646Y036627D01*
X015645Y036473D02*
X015605Y036473D01*
X015605Y036395D02*
X015645Y036395D01*
X015645Y036318D02*
X015605Y036318D01*
X015605Y036241D02*
X015645Y036241D01*
X015645Y036086D02*
X015605Y036086D01*
X015605Y036009D02*
X015645Y036009D01*
X015645Y035932D02*
X015605Y035932D01*
X015605Y035855D02*
X015645Y035855D01*
X015766Y035855D02*
X016154Y035855D01*
X016048Y035932D02*
X015872Y035932D01*
X015925Y036009D02*
X015994Y036009D01*
X015968Y036086D02*
X015952Y036086D01*
X015950Y036241D02*
X015970Y036241D01*
X015998Y036318D02*
X015921Y036318D01*
X015485Y035855D02*
X015192Y035855D01*
X015192Y035932D02*
X015379Y035932D01*
X015325Y036009D02*
X015192Y036009D01*
X015192Y036086D02*
X015298Y036086D01*
X014995Y036086D02*
X012987Y036086D01*
X012987Y036009D02*
X014995Y036009D01*
X014995Y035932D02*
X012987Y035932D01*
X012987Y035855D02*
X014995Y035855D01*
X014995Y035777D02*
X012987Y035777D01*
X012987Y035700D02*
X014995Y035700D01*
X014995Y035623D02*
X012987Y035623D01*
X012987Y035546D02*
X014995Y035546D01*
X014995Y035468D02*
X012987Y035468D01*
X012987Y035391D02*
X014995Y035391D01*
X014995Y035314D02*
X012987Y035314D01*
X012987Y035082D02*
X016728Y035082D01*
X016728Y035005D02*
X012987Y035005D01*
X012987Y034928D02*
X016728Y034928D01*
X016728Y034851D02*
X012987Y034851D01*
X012987Y034773D02*
X013967Y034773D01*
X013955Y034765D02*
X013909Y034719D01*
X013872Y034664D01*
X013847Y034603D01*
X013834Y034538D01*
X013834Y034525D01*
X014149Y034525D01*
X014149Y034840D01*
X014136Y034840D01*
X014071Y034827D01*
X014010Y034802D01*
X013955Y034765D01*
X013894Y034696D02*
X012987Y034696D01*
X012987Y034619D02*
X013853Y034619D01*
X013835Y034542D02*
X012987Y034542D01*
X012987Y034464D02*
X013835Y034464D01*
X013834Y034472D02*
X013847Y034408D01*
X013872Y034347D01*
X013909Y034292D01*
X013955Y034245D01*
X014010Y034209D01*
X014071Y034183D01*
X014136Y034171D01*
X014149Y034171D01*
X014149Y034486D01*
X013834Y034486D01*
X013834Y034472D01*
X013855Y034387D02*
X012987Y034387D01*
X012987Y034310D02*
X013897Y034310D01*
X013974Y034233D02*
X012987Y034233D01*
X012987Y034155D02*
X016728Y034155D01*
X016728Y034078D02*
X012987Y034078D01*
X012987Y034001D02*
X016728Y034001D01*
X016728Y033924D02*
X012987Y033924D01*
X012987Y033846D02*
X016728Y033846D01*
X016728Y033769D02*
X012987Y033769D01*
X012987Y033692D02*
X016728Y033692D01*
X016728Y033615D02*
X012987Y033615D01*
X012987Y033537D02*
X016728Y033537D01*
X016728Y033460D02*
X012987Y033460D01*
X012987Y033383D02*
X016728Y033383D01*
X016924Y033383D02*
X019483Y033383D01*
X019483Y033306D02*
X016924Y033306D01*
X016910Y033229D02*
X019483Y033229D01*
X019483Y033151D02*
X016833Y033151D01*
X016924Y033460D02*
X019483Y033460D01*
X019483Y033537D02*
X016924Y033537D01*
X016924Y033615D02*
X019483Y033615D01*
X019483Y033692D02*
X016924Y033692D01*
X016924Y033769D02*
X019483Y033769D01*
X019483Y033846D02*
X016924Y033846D01*
X016924Y033924D02*
X019483Y033924D01*
X019483Y034001D02*
X016924Y034001D01*
X016924Y034078D02*
X019483Y034078D01*
X019483Y034155D02*
X016924Y034155D01*
X016924Y034233D02*
X019483Y034233D01*
X019483Y033074D02*
X016334Y033074D01*
X016334Y032997D02*
X019483Y032997D01*
X019483Y032920D02*
X016334Y032920D01*
X016334Y032842D02*
X019483Y032842D01*
X019483Y032765D02*
X016334Y032765D01*
X016334Y032688D02*
X019483Y032688D01*
X019483Y032611D02*
X016334Y032611D01*
X016334Y032533D02*
X019483Y032533D01*
X019483Y032456D02*
X016334Y032456D01*
X016334Y032379D02*
X019483Y032379D01*
X019483Y032143D02*
X012987Y032143D01*
X012987Y027004D01*
X013035Y027182D01*
X013223Y027508D01*
X013489Y027773D01*
X013814Y027961D01*
X014177Y028059D01*
X014553Y028059D01*
X014916Y027961D01*
X015242Y027773D01*
X015508Y027508D01*
X015626Y027302D01*
X017515Y029190D01*
X019483Y029190D01*
X019483Y032143D01*
X019483Y032070D02*
X012987Y032070D01*
X012987Y031993D02*
X019483Y031993D01*
X019483Y031915D02*
X012987Y031915D01*
X012987Y031838D02*
X019483Y031838D01*
X019483Y031761D02*
X012987Y031761D01*
X012987Y031684D02*
X019483Y031684D01*
X019483Y031606D02*
X012987Y031606D01*
X012987Y031529D02*
X019483Y031529D01*
X019483Y031452D02*
X012987Y031452D01*
X012987Y031375D02*
X019483Y031375D01*
X019483Y031298D02*
X012987Y031298D01*
X012987Y031220D02*
X019483Y031220D01*
X019483Y031143D02*
X012987Y031143D01*
X012987Y031066D02*
X016382Y031066D01*
X016372Y031062D02*
X016317Y031025D01*
X016271Y030978D01*
X016234Y030924D01*
X016209Y030863D01*
X016196Y030798D01*
X016196Y030785D01*
X016511Y030785D01*
X016511Y031100D01*
X016498Y031100D01*
X016433Y031087D01*
X016372Y031062D01*
X016281Y030989D02*
X012987Y030989D01*
X012987Y030911D02*
X016229Y030911D01*
X016203Y030834D02*
X012987Y030834D01*
X012987Y030757D02*
X016511Y030757D01*
X016511Y030745D02*
X016196Y030745D01*
X016196Y030732D01*
X016209Y030667D01*
X016234Y030607D01*
X016271Y030552D01*
X016317Y030505D01*
X016372Y030469D01*
X016433Y030443D01*
X016498Y030430D01*
X016511Y030430D01*
X016511Y030745D01*
X016550Y030745D01*
X016550Y030430D01*
X016564Y030430D01*
X016628Y030443D01*
X016689Y030469D01*
X016744Y030505D01*
X016791Y030552D01*
X016827Y030607D01*
X016852Y030667D01*
X016865Y030732D01*
X016865Y030745D01*
X016550Y030745D01*
X016550Y030785D01*
X016511Y030785D01*
X016511Y030745D01*
X016550Y030757D02*
X017298Y030757D01*
X017298Y030745D02*
X016983Y030745D01*
X016983Y030732D01*
X016996Y030667D01*
X017022Y030607D01*
X017058Y030552D01*
X017105Y030505D01*
X017160Y030469D01*
X017220Y030443D01*
X017285Y030430D01*
X017298Y030430D01*
X017298Y030745D01*
X017338Y030745D01*
X017338Y030430D01*
X017351Y030430D01*
X017416Y030443D01*
X017477Y030469D01*
X017531Y030505D01*
X017578Y030552D01*
X017615Y030607D01*
X017640Y030667D01*
X017653Y030732D01*
X017653Y030745D01*
X017338Y030745D01*
X017338Y030785D01*
X017653Y030785D01*
X017653Y030798D01*
X017640Y030863D01*
X017615Y030924D01*
X017578Y030978D01*
X017531Y031025D01*
X017477Y031062D01*
X017416Y031087D01*
X017351Y031100D01*
X017338Y031100D01*
X017338Y030785D01*
X017298Y030785D01*
X017298Y030745D01*
X017298Y030785D02*
X016983Y030785D01*
X016983Y030798D01*
X016996Y030863D01*
X017022Y030924D01*
X017058Y030978D01*
X017105Y031025D01*
X017160Y031062D01*
X017220Y031087D01*
X017285Y031100D01*
X017298Y031100D01*
X017298Y030785D01*
X017338Y030757D02*
X018086Y030757D01*
X018086Y030745D02*
X017771Y030745D01*
X017771Y030732D01*
X017784Y030667D01*
X017809Y030607D01*
X017846Y030552D01*
X017892Y030505D01*
X017947Y030469D01*
X018008Y030443D01*
X018073Y030430D01*
X018086Y030430D01*
X018086Y030745D01*
X018125Y030745D01*
X018125Y030430D01*
X018138Y030430D01*
X018203Y030443D01*
X018264Y030469D01*
X018319Y030505D01*
X018365Y030552D01*
X018402Y030607D01*
X018427Y030667D01*
X018440Y030732D01*
X018440Y030745D01*
X018125Y030745D01*
X018125Y030785D01*
X018086Y030785D01*
X018086Y031100D01*
X018073Y031100D01*
X018008Y031087D01*
X017947Y031062D01*
X017892Y031025D01*
X017846Y030978D01*
X017809Y030924D01*
X017784Y030863D01*
X017771Y030798D01*
X017771Y030785D01*
X018086Y030785D01*
X018086Y030745D01*
X018125Y030757D02*
X018873Y030757D01*
X018873Y030745D02*
X018558Y030745D01*
X018558Y030732D01*
X018571Y030667D01*
X018596Y030607D01*
X018633Y030552D01*
X018680Y030505D01*
X018734Y030469D01*
X018795Y030443D01*
X018860Y030430D01*
X018873Y030430D01*
X018873Y030745D01*
X018913Y030745D01*
X018913Y030785D01*
X019228Y030785D01*
X019228Y030798D01*
X019215Y030863D01*
X019189Y030924D01*
X019153Y030978D01*
X019106Y031025D01*
X019051Y031062D01*
X018991Y031087D01*
X018926Y031100D01*
X018913Y031100D01*
X018913Y030785D01*
X018873Y030785D01*
X018873Y031100D01*
X018860Y031100D01*
X018795Y031087D01*
X018734Y031062D01*
X018680Y031025D01*
X018633Y030978D01*
X018596Y030924D01*
X018571Y030863D01*
X018558Y030798D01*
X018558Y030785D01*
X018873Y030785D01*
X018873Y030745D01*
X018913Y030745D02*
X018913Y030430D01*
X018926Y030430D01*
X018991Y030443D01*
X019051Y030469D01*
X019106Y030505D01*
X019153Y030552D01*
X019189Y030607D01*
X019215Y030667D01*
X019228Y030732D01*
X019228Y030745D01*
X018913Y030745D01*
X018913Y030757D02*
X019483Y030757D01*
X019483Y030834D02*
X019220Y030834D01*
X019195Y030911D02*
X019483Y030911D01*
X019483Y030989D02*
X019143Y030989D01*
X019041Y031066D02*
X019483Y031066D01*
X019483Y030680D02*
X019217Y030680D01*
X019187Y030602D02*
X019483Y030602D01*
X019483Y030525D02*
X019126Y030525D01*
X019002Y030448D02*
X019483Y030448D01*
X019483Y030371D02*
X012987Y030371D01*
X012987Y030448D02*
X016422Y030448D01*
X016511Y030448D02*
X016550Y030448D01*
X016550Y030525D02*
X016511Y030525D01*
X016511Y030602D02*
X016550Y030602D01*
X016550Y030680D02*
X016511Y030680D01*
X016550Y030785D02*
X016865Y030785D01*
X016865Y030798D01*
X016852Y030863D01*
X016827Y030924D01*
X016791Y030978D01*
X016744Y031025D01*
X016689Y031062D01*
X016628Y031087D01*
X016564Y031100D01*
X016550Y031100D01*
X016550Y030785D01*
X016550Y030834D02*
X016511Y030834D01*
X016511Y030911D02*
X016550Y030911D01*
X016550Y030989D02*
X016511Y030989D01*
X016511Y031066D02*
X016550Y031066D01*
X016679Y031066D02*
X017170Y031066D01*
X017068Y030989D02*
X016780Y030989D01*
X016832Y030911D02*
X017016Y030911D01*
X016991Y030834D02*
X016858Y030834D01*
X016855Y030680D02*
X016994Y030680D01*
X017024Y030602D02*
X016824Y030602D01*
X016764Y030525D02*
X017085Y030525D01*
X017209Y030448D02*
X016639Y030448D01*
X016297Y030525D02*
X012987Y030525D01*
X012987Y030602D02*
X016237Y030602D01*
X016206Y030680D02*
X012987Y030680D01*
X012987Y030293D02*
X019483Y030293D01*
X019483Y030216D02*
X012987Y030216D01*
X012987Y030139D02*
X019483Y030139D01*
X019483Y030062D02*
X015964Y030062D01*
X015944Y030081D02*
X015814Y030135D01*
X015673Y030135D01*
X015543Y030081D01*
X015448Y029987D01*
X015353Y030081D01*
X015223Y030135D01*
X015082Y030135D01*
X014952Y030081D01*
X014852Y029982D01*
X014798Y029851D01*
X014798Y029710D01*
X014852Y029580D01*
X014952Y029480D01*
X015082Y029426D01*
X015223Y029426D01*
X015353Y029480D01*
X015448Y029575D01*
X015543Y029480D01*
X015673Y029426D01*
X015814Y029426D01*
X015944Y029480D01*
X016044Y029580D01*
X016098Y029710D01*
X016098Y029851D01*
X016044Y029982D01*
X015944Y030081D01*
X016041Y029984D02*
X019483Y029984D01*
X019483Y029907D02*
X016074Y029907D01*
X016098Y029830D02*
X019483Y029830D01*
X019483Y029753D02*
X016098Y029753D01*
X016083Y029675D02*
X019483Y029675D01*
X019483Y029598D02*
X016051Y029598D01*
X015985Y029521D02*
X019483Y029521D01*
X019483Y029444D02*
X015855Y029444D01*
X015631Y029444D02*
X015265Y029444D01*
X015394Y029521D02*
X015502Y029521D01*
X015041Y029444D02*
X014163Y029444D01*
X014121Y029426D02*
X014251Y029480D01*
X014351Y029580D01*
X014405Y029710D01*
X014405Y029851D01*
X014351Y029982D01*
X014251Y030081D01*
X014121Y030135D01*
X013980Y030135D01*
X013850Y030081D01*
X013750Y029982D01*
X013716Y029899D01*
X013681Y029982D01*
X013582Y030081D01*
X013452Y030135D01*
X013311Y030135D01*
X013180Y030081D01*
X013081Y029982D01*
X013027Y029851D01*
X013027Y029710D01*
X013081Y029580D01*
X013180Y029480D01*
X013311Y029426D01*
X013452Y029426D01*
X013582Y029480D01*
X013681Y029580D01*
X013716Y029663D01*
X013750Y029580D01*
X013850Y029480D01*
X013980Y029426D01*
X014121Y029426D01*
X013938Y029444D02*
X013493Y029444D01*
X013622Y029521D02*
X013809Y029521D01*
X013742Y029598D02*
X013689Y029598D01*
X013712Y029907D02*
X013719Y029907D01*
X013753Y029984D02*
X013679Y029984D01*
X013601Y030062D02*
X013830Y030062D01*
X014271Y030062D02*
X014932Y030062D01*
X014855Y029984D02*
X014348Y029984D01*
X014382Y029907D02*
X014822Y029907D01*
X014798Y029830D02*
X014405Y029830D01*
X014405Y029753D02*
X014798Y029753D01*
X014813Y029675D02*
X014390Y029675D01*
X014358Y029598D02*
X014845Y029598D01*
X014911Y029521D02*
X014292Y029521D01*
X013269Y029444D02*
X012987Y029444D01*
X012987Y029521D02*
X013140Y029521D01*
X013073Y029598D02*
X012987Y029598D01*
X012987Y029675D02*
X013041Y029675D01*
X013027Y029753D02*
X012987Y029753D01*
X012987Y029830D02*
X013027Y029830D01*
X013050Y029907D02*
X012987Y029907D01*
X012987Y029984D02*
X013084Y029984D01*
X013161Y030062D02*
X012987Y030062D01*
X012987Y029366D02*
X019483Y029366D01*
X019483Y029289D02*
X012987Y029289D01*
X012987Y029212D02*
X019483Y029212D01*
X019877Y028009D02*
X019877Y025450D01*
X019680Y025253D01*
X018696Y025253D01*
X018499Y025056D01*
X018519Y025037D01*
X018519Y024466D01*
X015683Y027358D02*
X015594Y027358D01*
X015549Y027435D02*
X015760Y027435D01*
X015837Y027513D02*
X015503Y027513D01*
X015425Y027590D02*
X015915Y027590D01*
X015992Y027667D02*
X015348Y027667D01*
X015271Y027744D02*
X016069Y027744D01*
X016146Y027822D02*
X015158Y027822D01*
X015025Y027899D02*
X016224Y027899D01*
X016301Y027976D02*
X014861Y027976D01*
X014573Y028053D02*
X016378Y028053D01*
X016455Y028131D02*
X012987Y028131D01*
X012987Y028208D02*
X016533Y028208D01*
X016610Y028285D02*
X012987Y028285D01*
X012987Y028362D02*
X016687Y028362D01*
X016764Y028440D02*
X012987Y028440D01*
X012987Y028517D02*
X016842Y028517D01*
X016919Y028594D02*
X012987Y028594D01*
X012987Y028671D02*
X016996Y028671D01*
X017073Y028749D02*
X012987Y028749D01*
X012987Y028826D02*
X017150Y028826D01*
X017228Y028903D02*
X012987Y028903D01*
X012987Y028980D02*
X017305Y028980D01*
X017382Y029058D02*
X012987Y029058D01*
X012987Y029135D02*
X017459Y029135D01*
X017427Y030448D02*
X017997Y030448D01*
X018086Y030448D02*
X018125Y030448D01*
X018125Y030525D02*
X018086Y030525D01*
X018086Y030602D02*
X018125Y030602D01*
X018125Y030680D02*
X018086Y030680D01*
X018125Y030785D02*
X018440Y030785D01*
X018440Y030798D01*
X018427Y030863D01*
X018402Y030924D01*
X018365Y030978D01*
X018319Y031025D01*
X018264Y031062D01*
X018203Y031087D01*
X018138Y031100D01*
X018125Y031100D01*
X018125Y030785D01*
X018125Y030834D02*
X018086Y030834D01*
X018086Y030911D02*
X018125Y030911D01*
X018125Y030989D02*
X018086Y030989D01*
X018086Y031066D02*
X018125Y031066D01*
X018254Y031066D02*
X018744Y031066D01*
X018643Y030989D02*
X018355Y030989D01*
X018407Y030911D02*
X018591Y030911D01*
X018565Y030834D02*
X018433Y030834D01*
X018430Y030680D02*
X018569Y030680D01*
X018599Y030602D02*
X018399Y030602D01*
X018339Y030525D02*
X018660Y030525D01*
X018784Y030448D02*
X018214Y030448D01*
X017872Y030525D02*
X017551Y030525D01*
X017612Y030602D02*
X017812Y030602D01*
X017781Y030680D02*
X017642Y030680D01*
X017646Y030834D02*
X017778Y030834D01*
X017804Y030911D02*
X017620Y030911D01*
X017568Y030989D02*
X017856Y030989D01*
X017957Y031066D02*
X017467Y031066D01*
X017338Y031066D02*
X017298Y031066D01*
X017298Y030989D02*
X017338Y030989D01*
X017338Y030911D02*
X017298Y030911D01*
X017298Y030834D02*
X017338Y030834D01*
X017338Y030680D02*
X017298Y030680D01*
X017298Y030602D02*
X017338Y030602D01*
X017338Y030525D02*
X017298Y030525D01*
X017298Y030448D02*
X017338Y030448D01*
X016137Y032379D02*
X012987Y032379D01*
X012987Y032456D02*
X016137Y032456D01*
X016137Y032533D02*
X012987Y032533D01*
X012987Y032611D02*
X016137Y032611D01*
X016137Y032688D02*
X012987Y032688D01*
X012987Y032765D02*
X016137Y032765D01*
X016137Y032842D02*
X012987Y032842D01*
X012987Y032920D02*
X016137Y032920D01*
X016137Y032997D02*
X012987Y032997D01*
X012987Y033074D02*
X016137Y033074D01*
X016137Y033151D02*
X012987Y033151D01*
X012987Y033229D02*
X016137Y033229D01*
X016137Y033306D02*
X012987Y033306D01*
X014188Y034171D02*
X014201Y034171D01*
X014266Y034183D01*
X014327Y034209D01*
X014382Y034245D01*
X014428Y034292D01*
X014465Y034347D01*
X014490Y034408D01*
X014503Y034472D01*
X014503Y034486D01*
X014188Y034486D01*
X014188Y034525D01*
X014149Y034525D01*
X014149Y034486D01*
X014188Y034486D01*
X014188Y034171D01*
X014188Y034233D02*
X014149Y034233D01*
X014149Y034310D02*
X014188Y034310D01*
X014188Y034387D02*
X014149Y034387D01*
X014149Y034464D02*
X014188Y034464D01*
X014188Y034525D02*
X014503Y034525D01*
X014503Y034538D01*
X014490Y034603D01*
X014465Y034664D01*
X014428Y034719D01*
X014382Y034765D01*
X014327Y034802D01*
X014266Y034827D01*
X014201Y034840D01*
X014188Y034840D01*
X014188Y034525D01*
X014188Y034542D02*
X014149Y034542D01*
X014149Y034619D02*
X014188Y034619D01*
X014188Y034696D02*
X014149Y034696D01*
X014149Y034773D02*
X014188Y034773D01*
X014370Y034773D02*
X014755Y034773D01*
X014743Y034765D02*
X014696Y034719D01*
X014659Y034664D01*
X014634Y034603D01*
X014621Y034538D01*
X014621Y034525D01*
X014936Y034525D01*
X014936Y034486D01*
X014621Y034486D01*
X014621Y034472D01*
X014634Y034408D01*
X014659Y034347D01*
X014696Y034292D01*
X014743Y034245D01*
X014797Y034209D01*
X014858Y034183D01*
X014923Y034171D01*
X014936Y034171D01*
X014936Y034486D01*
X014976Y034486D01*
X014976Y034525D01*
X015291Y034525D01*
X015291Y034538D01*
X015278Y034603D01*
X015252Y034664D01*
X015216Y034719D01*
X015169Y034765D01*
X015114Y034802D01*
X015053Y034827D01*
X014989Y034840D01*
X014976Y034840D01*
X014976Y034525D01*
X014936Y034525D01*
X014936Y034840D01*
X014923Y034840D01*
X014858Y034827D01*
X014797Y034802D01*
X014743Y034765D01*
X014681Y034696D02*
X014443Y034696D01*
X014484Y034619D02*
X014641Y034619D01*
X014622Y034542D02*
X014502Y034542D01*
X014502Y034464D02*
X014623Y034464D01*
X014643Y034387D02*
X014482Y034387D01*
X014440Y034310D02*
X014684Y034310D01*
X014761Y034233D02*
X014363Y034233D01*
X014936Y034233D02*
X014976Y034233D01*
X014976Y034171D02*
X014989Y034171D01*
X015053Y034183D01*
X015114Y034209D01*
X015169Y034245D01*
X015216Y034292D01*
X015252Y034347D01*
X015278Y034408D01*
X015291Y034472D01*
X015291Y034486D01*
X014976Y034486D01*
X014976Y034171D01*
X014976Y034310D02*
X014936Y034310D01*
X014936Y034387D02*
X014976Y034387D01*
X014976Y034464D02*
X014936Y034464D01*
X014936Y034542D02*
X014976Y034542D01*
X014976Y034619D02*
X014936Y034619D01*
X014936Y034696D02*
X014976Y034696D01*
X014976Y034773D02*
X014936Y034773D01*
X015157Y034773D02*
X015542Y034773D01*
X015530Y034765D02*
X015585Y034802D01*
X015646Y034827D01*
X015710Y034840D01*
X015724Y034840D01*
X015724Y034525D01*
X015763Y034525D01*
X015763Y034840D01*
X015776Y034840D01*
X015841Y034827D01*
X015902Y034802D01*
X015957Y034765D01*
X016003Y034719D01*
X016040Y034664D01*
X016065Y034603D01*
X016078Y034538D01*
X016078Y034525D01*
X015763Y034525D01*
X015763Y034486D01*
X016078Y034486D01*
X016078Y034472D01*
X016065Y034408D01*
X016040Y034347D01*
X016003Y034292D01*
X015957Y034245D01*
X015902Y034209D01*
X015841Y034183D01*
X015776Y034171D01*
X015763Y034171D01*
X015763Y034486D01*
X015724Y034486D01*
X015409Y034486D01*
X015409Y034472D01*
X015421Y034408D01*
X015447Y034347D01*
X015483Y034292D01*
X015530Y034245D01*
X015585Y034209D01*
X015646Y034183D01*
X015710Y034171D01*
X015724Y034171D01*
X015724Y034486D01*
X015724Y034525D01*
X015409Y034525D01*
X015409Y034538D01*
X015421Y034603D01*
X015447Y034664D01*
X015483Y034719D01*
X015530Y034765D01*
X015468Y034696D02*
X015231Y034696D01*
X015271Y034619D02*
X015428Y034619D01*
X015409Y034542D02*
X015290Y034542D01*
X015289Y034464D02*
X015410Y034464D01*
X015430Y034387D02*
X015269Y034387D01*
X015228Y034310D02*
X015471Y034310D01*
X015549Y034233D02*
X015150Y034233D01*
X015724Y034233D02*
X015763Y034233D01*
X015763Y034310D02*
X015724Y034310D01*
X015724Y034387D02*
X015763Y034387D01*
X015763Y034464D02*
X015724Y034464D01*
X015724Y034542D02*
X015763Y034542D01*
X015763Y034619D02*
X015724Y034619D01*
X015724Y034696D02*
X015763Y034696D01*
X015763Y034773D02*
X015724Y034773D01*
X015944Y034773D02*
X016728Y034773D01*
X016728Y034696D02*
X016018Y034696D01*
X016058Y034619D02*
X016728Y034619D01*
X016728Y034542D02*
X016077Y034542D01*
X016076Y034464D02*
X016728Y034464D01*
X016728Y034387D02*
X016057Y034387D01*
X016015Y034310D02*
X016728Y034310D01*
X016728Y034233D02*
X015938Y034233D01*
X015192Y035160D02*
X016728Y035160D01*
X016728Y035237D02*
X015192Y035237D01*
X015192Y035314D02*
X016728Y035314D01*
X016728Y035391D02*
X015192Y035391D01*
X015192Y035468D02*
X016728Y035468D01*
X016728Y035546D02*
X015192Y035546D01*
X015192Y035623D02*
X016728Y035623D01*
X016728Y035700D02*
X015192Y035700D01*
X015192Y035777D02*
X016728Y035777D01*
X016924Y035777D02*
X023027Y035777D01*
X023027Y035700D02*
X016924Y035700D01*
X016924Y035623D02*
X023027Y035623D01*
X023027Y035546D02*
X016924Y035546D01*
X016924Y035468D02*
X023027Y035468D01*
X023027Y035391D02*
X016924Y035391D01*
X016924Y035314D02*
X023027Y035314D01*
X023027Y035237D02*
X016924Y035237D01*
X016924Y035160D02*
X023027Y035160D01*
X023027Y035082D02*
X022968Y035082D01*
X022989Y035061D02*
X022897Y035153D01*
X022267Y035153D01*
X022174Y035061D01*
X022174Y034430D01*
X022267Y034338D01*
X022897Y034338D01*
X022989Y034430D01*
X022989Y035061D01*
X022989Y035005D02*
X023027Y035005D01*
X023027Y034928D02*
X022989Y034928D01*
X022989Y034851D02*
X023027Y034851D01*
X023027Y034773D02*
X022989Y034773D01*
X022989Y034696D02*
X023027Y034696D01*
X023027Y034619D02*
X022989Y034619D01*
X022989Y034542D02*
X023027Y034542D01*
X023027Y034464D02*
X022989Y034464D01*
X023027Y034387D02*
X022946Y034387D01*
X023027Y034310D02*
X016924Y034310D01*
X016924Y034387D02*
X022217Y034387D01*
X022174Y034464D02*
X016924Y034464D01*
X016924Y034542D02*
X022174Y034542D01*
X022174Y034619D02*
X016924Y034619D01*
X016924Y034696D02*
X022174Y034696D01*
X022174Y034773D02*
X016924Y034773D01*
X016924Y034851D02*
X022174Y034851D01*
X022174Y034928D02*
X016924Y034928D01*
X016924Y035005D02*
X022174Y035005D01*
X022196Y035082D02*
X016924Y035082D01*
X016924Y035855D02*
X023027Y035855D01*
X023027Y035932D02*
X016924Y035932D01*
X016924Y036009D02*
X023027Y036009D01*
X023027Y036086D02*
X016924Y036086D01*
X016924Y036164D02*
X023027Y036164D01*
X023027Y036241D02*
X016924Y036241D01*
X016924Y036318D02*
X023027Y036318D01*
X023027Y036395D02*
X016924Y036395D01*
X014995Y036395D02*
X012987Y036395D01*
X012987Y036318D02*
X014995Y036318D01*
X014995Y036241D02*
X012987Y036241D01*
X012987Y036164D02*
X014995Y036164D01*
X014995Y036473D02*
X012987Y036473D01*
X012987Y036550D02*
X014995Y036550D01*
X014995Y036627D02*
X012987Y036627D01*
X012987Y036704D02*
X014995Y036704D01*
X014995Y036782D02*
X012987Y036782D01*
X012987Y036859D02*
X014995Y036859D01*
X014995Y036936D02*
X012987Y036936D01*
X012987Y037013D02*
X014995Y037013D01*
X014995Y037091D02*
X012987Y037091D01*
X012987Y037168D02*
X014995Y037168D01*
X014995Y037245D02*
X012987Y037245D01*
X012987Y037322D02*
X014995Y037322D01*
X014995Y037400D02*
X012987Y037400D01*
X012987Y037477D02*
X015035Y037477D01*
X015035Y037554D02*
X012987Y037554D01*
X012987Y037631D02*
X015035Y037631D01*
X015035Y037708D02*
X012987Y037708D01*
X012987Y037786D02*
X015035Y037786D01*
X015035Y037863D02*
X012987Y037863D01*
X012987Y037940D02*
X015035Y037940D01*
X015035Y038017D02*
X012987Y038017D01*
X012987Y038095D02*
X015035Y038095D01*
X015043Y038172D02*
X012987Y038172D01*
X012987Y038249D02*
X015075Y038249D01*
X015143Y038326D02*
X012987Y038326D01*
X015766Y040257D02*
X023027Y040257D01*
X023027Y040335D02*
X015850Y040335D01*
X015906Y040412D02*
X023027Y040412D01*
X023027Y040489D02*
X015938Y040489D01*
X015954Y040566D02*
X023027Y040566D01*
X023027Y040644D02*
X015954Y040644D01*
X015941Y040721D02*
X023027Y040721D01*
X023027Y040798D02*
X016210Y040798D01*
X016287Y040875D02*
X023027Y040875D01*
X023027Y040953D02*
X016328Y040953D01*
X016354Y041030D02*
X023027Y041030D01*
X023027Y041107D02*
X021631Y041107D01*
X021714Y041184D02*
X023027Y041184D01*
X023027Y041262D02*
X021759Y041262D01*
X021787Y041339D02*
X023027Y041339D01*
X023027Y041416D02*
X021787Y041416D01*
X021773Y041493D02*
X023027Y041493D01*
X023027Y041570D02*
X021741Y041570D01*
X021672Y041648D02*
X023027Y041648D01*
X023027Y041725D02*
X021530Y041725D01*
X021452Y041395D02*
X021058Y041789D01*
X020665Y041789D01*
X020271Y041789D01*
X020074Y041592D01*
X019483Y041592D01*
X019090Y041986D01*
X016334Y041986D01*
X016019Y041671D01*
X016019Y041080D01*
X016338Y041184D02*
X021189Y041184D01*
X021145Y041262D02*
X016306Y041262D01*
X016233Y041339D02*
X021117Y041339D01*
X021117Y041416D02*
X020177Y041416D01*
X020254Y041493D02*
X021075Y041493D01*
X020998Y041570D02*
X020331Y041570D01*
X019381Y041416D02*
X016216Y041416D01*
X016216Y041493D02*
X019304Y041493D01*
X019226Y041570D02*
X016216Y041570D01*
X016274Y041648D02*
X019149Y041648D01*
X019072Y041725D02*
X016352Y041725D01*
X016354Y041107D02*
X021273Y041107D01*
X023420Y039623D02*
X023696Y039348D01*
X024287Y039348D01*
X024365Y039348D01*
X024838Y039820D01*
X024838Y040411D01*
X024838Y041828D01*
X025153Y042143D01*
X025153Y042497D01*
X024680Y042970D01*
X024680Y044426D01*
X024995Y044741D01*
X024995Y046119D01*
X025389Y046513D02*
X023814Y046513D01*
X023617Y046316D01*
X017909Y046316D01*
X017515Y046316D01*
X017318Y046119D01*
X016413Y046119D01*
X016987Y046619D02*
X017078Y046710D01*
X018696Y046710D01*
X018302Y045726D02*
X017515Y045726D01*
X017239Y045450D01*
X017239Y044446D01*
X019877Y047497D02*
X019483Y047891D01*
X019877Y047497D02*
X023617Y047497D01*
X024995Y047497D01*
X025192Y047694D01*
X024956Y048285D02*
X025389Y048718D01*
X025389Y050253D01*
X024602Y051434D02*
X024995Y051828D01*
X024995Y052615D01*
X024995Y053009D01*
X024602Y053009D01*
X024602Y053600D01*
X024208Y053206D02*
X023932Y053482D01*
X023932Y053678D01*
X023932Y054722D01*
X023617Y054722D02*
X023617Y053206D01*
X023342Y052930D01*
X022909Y052930D01*
X022633Y053088D02*
X022633Y052615D01*
X022830Y052419D01*
X022712Y052537D01*
X022633Y053088D02*
X022830Y053285D01*
X022909Y053285D01*
X023105Y053285D01*
X023224Y053403D01*
X023302Y053482D01*
X023302Y053678D01*
X023302Y053875D01*
X023302Y054722D01*
X022987Y054722D02*
X022987Y053757D01*
X022830Y053600D01*
X022318Y051710D02*
X023657Y051710D01*
X024444Y051710D01*
X024602Y051867D01*
X024602Y052615D01*
X024995Y053009D02*
X026334Y053009D01*
X024602Y051434D02*
X023617Y051434D01*
X022318Y051710D02*
X022239Y051631D01*
X021649Y049663D02*
X021452Y049663D01*
X021216Y049663D01*
X020350Y050529D01*
X020310Y050568D01*
X020310Y052576D01*
X020310Y052773D01*
X020310Y052930D01*
X019602Y053639D01*
X019523Y053324D02*
X019287Y053560D01*
X019287Y056188D01*
X019464Y056365D01*
X018066Y055608D02*
X018893Y054781D01*
X018893Y053718D01*
X019129Y053482D01*
X019444Y053167D01*
X019956Y052655D01*
X019956Y052615D01*
X019956Y052340D01*
X019956Y050726D01*
X019956Y050450D01*
X020113Y050293D01*
X021531Y048875D01*
X021570Y049269D02*
X021373Y049269D01*
X021058Y049584D01*
X020133Y050509D01*
X020133Y052399D01*
X020133Y052675D01*
X020133Y052714D01*
X019523Y053324D01*
X019365Y053009D02*
X019759Y052615D01*
X019759Y052576D01*
X019759Y052143D01*
X019759Y050726D01*
X019759Y050411D01*
X019838Y050332D01*
X020271Y049899D01*
X020271Y049663D01*
X019877Y049663D02*
X021058Y048482D01*
X021176Y048363D01*
X023066Y048363D01*
X023145Y048363D01*
X023224Y048285D01*
X023696Y048285D01*
X024956Y048285D01*
X023420Y048560D02*
X022239Y048560D01*
X022200Y048600D01*
X022042Y048757D01*
X022042Y048954D01*
X022042Y049269D01*
X021649Y049663D01*
X019877Y049663D02*
X019680Y049860D01*
X019562Y049860D01*
X019365Y053009D02*
X018972Y053403D01*
X018539Y053836D01*
X018539Y054387D01*
X018066Y055608D02*
X018027Y055647D01*
X017042Y055647D01*
X016728Y055962D01*
X016708Y055982D01*
X016708Y056365D01*
X021058Y045332D02*
X023420Y045332D01*
X023814Y045726D01*
X025546Y045726D02*
X025546Y045214D01*
X025546Y044190D01*
X026019Y043718D01*
X026767Y042970D01*
X027751Y042576D02*
X028539Y042576D01*
X029129Y041986D01*
X029129Y039623D01*
X029129Y036867D01*
X029720Y036277D01*
X029917Y036080D01*
X029917Y033127D01*
X030113Y031946D02*
X033460Y031946D01*
X034050Y035489D02*
X034247Y035686D01*
X034444Y035883D01*
X035035Y035883D01*
X035231Y036080D01*
X035822Y036671D01*
X035822Y037261D01*
X034956Y036907D02*
X033224Y036907D01*
X033066Y037064D01*
X032869Y037261D01*
X033854Y037655D02*
X030507Y037655D01*
X030310Y037458D01*
X029523Y036474D02*
X029720Y036277D01*
X030310Y035489D02*
X034050Y035489D01*
X034050Y037458D02*
X033854Y037655D01*
X033066Y041789D02*
X032869Y041986D01*
X029720Y041986D01*
X029129Y042576D01*
X028145Y042182D02*
X027751Y041789D01*
X027751Y040017D01*
X027554Y039820D01*
X027554Y038836D01*
X027357Y047104D02*
X027357Y049899D01*
X033066Y053206D02*
X033775Y053206D01*
X034168Y053600D01*
X034050Y051434D02*
X035231Y051434D01*
X018913Y031066D02*
X018873Y031066D01*
X018873Y030989D02*
X018913Y030989D01*
X018913Y030911D02*
X018873Y030911D01*
X018873Y030834D02*
X018913Y030834D01*
X018913Y030680D02*
X018873Y030680D01*
X018873Y030602D02*
X018913Y030602D01*
X018913Y030525D02*
X018873Y030525D01*
X018873Y030448D02*
X018913Y030448D01*
X021452Y027615D02*
X022042Y028206D01*
X027554Y028206D01*
X027948Y027812D01*
X031885Y027812D01*
X032161Y028127D02*
X032279Y028009D01*
X032672Y027419D02*
X029917Y027419D01*
X029720Y027615D01*
X029326Y027615D01*
X029129Y027419D01*
X027279Y027419D01*
X027082Y027615D01*
X026176Y027615D01*
X025389Y027615D01*
X024995Y027222D02*
X026964Y027222D01*
X029523Y027222D01*
X027751Y026828D02*
X026767Y026828D01*
X025586Y025647D01*
X024995Y027222D02*
X024602Y027615D01*
X023814Y027615D01*
X023027Y027615D02*
X022633Y027222D01*
X022633Y026119D01*
X022239Y025726D01*
X022239Y023875D01*
X022968Y023738D02*
X023027Y023678D01*
X022968Y023738D02*
X022968Y024466D01*
X025586Y023875D02*
X025763Y023698D01*
X025763Y022891D01*
X027417Y024466D02*
X027417Y025194D01*
X027161Y025450D01*
X027948Y023285D02*
X028342Y022891D01*
X030212Y022891D01*
X031865Y024466D02*
X031885Y024486D01*
X031885Y025647D01*
X032672Y026631D02*
X032279Y027025D01*
X032672Y026631D02*
X034247Y026631D01*
X034641Y026631D01*
X036216Y025056D01*
X036216Y024564D01*
X036314Y024466D01*
X034661Y023462D02*
X034661Y022891D01*
X034641Y022911D01*
X034661Y023462D02*
X034444Y023678D01*
X027357Y027812D02*
X026964Y027812D01*
X026767Y028009D01*
X022633Y028009D01*
X022239Y027615D01*
X023085Y019248D02*
X023417Y019248D01*
X023381Y019171D02*
X023007Y019171D01*
X022838Y019094D02*
X023381Y019094D01*
X023381Y019016D02*
X021944Y019016D01*
X021944Y018939D02*
X023381Y018939D01*
X023381Y018862D02*
X021925Y018862D01*
X021872Y018785D02*
X023381Y018785D01*
X022507Y019094D02*
X021944Y019094D01*
X021944Y019171D02*
X022337Y019171D01*
X014158Y028053D02*
X012987Y028053D01*
X012987Y027976D02*
X013869Y027976D01*
X013706Y027899D02*
X012987Y027899D01*
X012987Y027822D02*
X013572Y027822D01*
X013460Y027744D02*
X012987Y027744D01*
X012987Y027667D02*
X013383Y027667D01*
X013305Y027590D02*
X012987Y027590D01*
X012987Y027513D02*
X013228Y027513D01*
X013181Y027435D02*
X012987Y027435D01*
X012987Y027358D02*
X013137Y027358D01*
X013092Y027281D02*
X012987Y027281D01*
X012987Y027204D02*
X013048Y027204D01*
X013020Y027127D02*
X012987Y027127D01*
X012987Y027049D02*
X013000Y027049D01*
X015373Y030062D02*
X015523Y030062D01*
X013598Y044446D02*
X013598Y044958D01*
D29*
X014464Y049860D02*
X015448Y049860D01*
X015448Y050844D02*
X014464Y050844D01*
X016924Y019308D02*
X016865Y019249D01*
D30*
X021865Y054761D02*
X021865Y055549D01*
X021649Y055765D01*
X021865Y055982D01*
X021865Y056926D01*
X025369Y056926D02*
X025369Y055982D01*
X025369Y055765D01*
X025743Y055765D01*
X025369Y055765D02*
X025369Y055549D01*
X025369Y054761D01*
D31*
X021255Y042773D03*
X021452Y041395D03*
X016019Y041080D03*
D32*
X013598Y044958D02*
X013598Y045619D01*
X012987Y045619D01*
X022042Y039033D02*
X022042Y037655D01*
D33*
X022042Y039033D02*
X023420Y039033D01*
X015546Y040608D02*
X015546Y042182D01*
X015940Y042576D01*
X015350Y038088D02*
X015350Y037261D01*
X029287Y019387D02*
X029287Y019249D01*
X030212Y019249D01*
X033735Y019249D02*
X033735Y019387D01*
X033735Y019249D02*
X034661Y019249D01*
D34*
X036413Y027025D03*
X036413Y052615D03*
X017515Y052615D03*
X014365Y026631D03*
D35*
X027357Y030765D02*
X028145Y031552D01*
X031294Y031552D01*
X034050Y031552D01*
X034247Y031749D01*
X034365Y031867D01*
X034838Y031867D01*
X034917Y031867D01*
X035231Y031552D01*
X037397Y031552D01*
M02*
