G75*
%MOIN*%
%OFA0B0*%
%FSLAX24Y24*%
%IPPOS*%
%LPD*%
%AMOC8*
5,1,8,0,0,1.08239X$1,22.5*
%
%ADD10C,0.0134*%
%ADD11C,0.0364*%
%ADD12C,0.0108*%
%ADD13C,0.0084*%
%ADD14C,0.0098*%
%ADD15C,0.0079*%
%ADD16C,0.0118*%
%ADD17C,0.0069*%
%ADD18R,0.0945X0.1260*%
%ADD19C,0.0133*%
%ADD20C,0.0839*%
%ADD21R,0.0779X0.0779*%
%ADD22C,0.0779*%
%ADD23R,0.0639X0.0639*%
%ADD24C,0.0639*%
%ADD25C,0.0217*%
%ADD26C,0.0049*%
%ADD27C,0.0083*%
%ADD28C,0.0270*%
%ADD29C,0.0089*%
%ADD30C,0.0137*%
%ADD31C,0.0146*%
%ADD32C,0.0167*%
%ADD33R,0.0787X0.0787*%
%ADD34C,0.0157*%
%ADD35R,0.0579X0.0579*%
%ADD36C,0.0207*%
%ADD37C,0.0128*%
%ADD38C,0.0787*%
%ADD39R,0.0551X0.0551*%
%ADD40C,0.0551*%
%ADD41C,0.0739*%
%ADD42C,0.0709*%
%ADD43C,0.0433*%
%ADD44C,0.0472*%
%ADD45C,0.0579*%
%ADD46C,0.2619*%
D10*
X023420Y052517D03*
X023420Y052714D03*
X023420Y052911D03*
X023617Y052911D03*
X023617Y053108D03*
X023814Y053108D03*
X023814Y052911D03*
X023814Y052714D03*
X023617Y052714D03*
X023617Y052517D03*
X023814Y052517D03*
D11*
X033179Y049618D02*
X033179Y048250D01*
X032087Y048250D01*
X032087Y049618D01*
X033179Y049618D01*
X033179Y048613D02*
X032087Y048613D01*
X032087Y048976D02*
X033179Y048976D01*
X033179Y049339D02*
X032087Y049339D01*
X033179Y046744D02*
X033179Y045376D01*
X032087Y045376D01*
X032087Y046744D01*
X033179Y046744D01*
X033179Y045739D02*
X032087Y045739D01*
X032087Y046102D02*
X033179Y046102D01*
X033179Y046465D02*
X032087Y046465D01*
X036762Y045760D02*
X036762Y044392D01*
X035670Y044392D01*
X035670Y045760D01*
X036762Y045760D01*
X036762Y044755D02*
X035670Y044755D01*
X035670Y045118D02*
X036762Y045118D01*
X036762Y045481D02*
X035670Y045481D01*
X036762Y047266D02*
X036762Y048634D01*
X036762Y047266D02*
X035670Y047266D01*
X035670Y048634D01*
X036762Y048634D01*
X036762Y047629D02*
X035670Y047629D01*
X035670Y047992D02*
X036762Y047992D01*
X036762Y048355D02*
X035670Y048355D01*
X018455Y029343D02*
X018455Y027975D01*
X017363Y027975D01*
X017363Y029343D01*
X018455Y029343D01*
X018455Y028338D02*
X017363Y028338D01*
X017363Y028701D02*
X018455Y028701D01*
X018455Y029064D02*
X017363Y029064D01*
X018455Y026469D02*
X018455Y025101D01*
X017363Y025101D01*
X017363Y026469D01*
X018455Y026469D01*
X018455Y025464D02*
X017363Y025464D01*
X017363Y025827D02*
X018455Y025827D01*
X018455Y026190D02*
X017363Y026190D01*
D12*
X021102Y037089D02*
X021102Y037433D01*
X021102Y037089D02*
X020778Y037089D01*
X020778Y037433D01*
X021102Y037433D01*
X021102Y037196D02*
X020778Y037196D01*
X020778Y037303D02*
X021102Y037303D01*
X021102Y037410D02*
X020778Y037410D01*
X021102Y038270D02*
X021102Y038614D01*
X021102Y038270D02*
X020778Y038270D01*
X020778Y038614D01*
X021102Y038614D01*
X021102Y038377D02*
X020778Y038377D01*
X020778Y038484D02*
X021102Y038484D01*
X021102Y038591D02*
X020778Y038591D01*
X021732Y038614D02*
X021732Y038270D01*
X021408Y038270D01*
X021408Y038614D01*
X021732Y038614D01*
X021732Y038377D02*
X021408Y038377D01*
X021408Y038484D02*
X021732Y038484D01*
X021732Y038591D02*
X021408Y038591D01*
X021732Y037433D02*
X021732Y037089D01*
X021408Y037089D01*
X021408Y037433D01*
X021732Y037433D01*
X021732Y037196D02*
X021408Y037196D01*
X021408Y037303D02*
X021732Y037303D01*
X021732Y037410D02*
X021408Y037410D01*
X017392Y041340D02*
X017048Y041340D01*
X017392Y041340D02*
X017392Y041016D01*
X017048Y041016D01*
X017048Y041340D01*
X017048Y041123D02*
X017392Y041123D01*
X017392Y041230D02*
X017048Y041230D01*
X017048Y041337D02*
X017392Y041337D01*
X017392Y041970D02*
X017048Y041970D01*
X017392Y041970D02*
X017392Y041646D01*
X017048Y041646D01*
X017048Y041970D01*
X017048Y041753D02*
X017392Y041753D01*
X017392Y041860D02*
X017048Y041860D01*
X017048Y041967D02*
X017392Y041967D01*
X014734Y041872D02*
X014390Y041872D01*
X014734Y041872D02*
X014734Y041548D01*
X014390Y041548D01*
X014390Y041872D01*
X014390Y041655D02*
X014734Y041655D01*
X014734Y041762D02*
X014390Y041762D01*
X014390Y041869D02*
X014734Y041869D01*
X014734Y041242D02*
X014390Y041242D01*
X014734Y041242D02*
X014734Y040918D01*
X014390Y040918D01*
X014390Y041242D01*
X014390Y041025D02*
X014734Y041025D01*
X014734Y041132D02*
X014390Y041132D01*
X014390Y041239D02*
X014734Y041239D01*
X021605Y042995D02*
X021605Y043339D01*
X021929Y043339D01*
X021929Y042995D01*
X021605Y042995D01*
X021605Y043102D02*
X021929Y043102D01*
X021929Y043209D02*
X021605Y043209D01*
X021605Y043316D02*
X021929Y043316D01*
X022235Y043339D02*
X022235Y042995D01*
X022235Y043339D02*
X022559Y043339D01*
X022559Y042995D01*
X022235Y042995D01*
X022235Y043102D02*
X022559Y043102D01*
X022559Y043209D02*
X022235Y043209D01*
X022235Y043316D02*
X022559Y043316D01*
X024951Y043585D02*
X024951Y043929D01*
X025275Y043929D01*
X025275Y043585D01*
X024951Y043585D01*
X024951Y043692D02*
X025275Y043692D01*
X025275Y043799D02*
X024951Y043799D01*
X024951Y043906D02*
X025275Y043906D01*
X025581Y043929D02*
X025581Y043585D01*
X025581Y043929D02*
X025905Y043929D01*
X025905Y043585D01*
X025581Y043585D01*
X025581Y043692D02*
X025905Y043692D01*
X025905Y043799D02*
X025581Y043799D01*
X025581Y043906D02*
X025905Y043906D01*
X026496Y043929D02*
X026496Y043585D01*
X026172Y043585D01*
X026172Y043929D01*
X026496Y043929D01*
X026496Y043692D02*
X026172Y043692D01*
X026172Y043799D02*
X026496Y043799D01*
X026496Y043906D02*
X026172Y043906D01*
X027126Y043929D02*
X027126Y043585D01*
X026802Y043585D01*
X026802Y043929D01*
X027126Y043929D01*
X027126Y043692D02*
X026802Y043692D01*
X026802Y043799D02*
X027126Y043799D01*
X027126Y043906D02*
X026802Y043906D01*
X029370Y049432D02*
X029370Y049776D01*
X029370Y049432D02*
X029046Y049432D01*
X029046Y049776D01*
X029370Y049776D01*
X029370Y049539D02*
X029046Y049539D01*
X029046Y049646D02*
X029370Y049646D01*
X029370Y049753D02*
X029046Y049753D01*
X030000Y049776D02*
X030000Y049432D01*
X029676Y049432D01*
X029676Y049776D01*
X030000Y049776D01*
X030000Y049539D02*
X029676Y049539D01*
X029676Y049646D02*
X030000Y049646D01*
X030000Y049753D02*
X029676Y049753D01*
X032894Y043840D02*
X033238Y043840D01*
X033238Y043516D01*
X032894Y043516D01*
X032894Y043840D01*
X032894Y043623D02*
X033238Y043623D01*
X033238Y043730D02*
X032894Y043730D01*
X032894Y043837D02*
X033238Y043837D01*
X033238Y043211D02*
X032894Y043211D01*
X033238Y043211D02*
X033238Y042887D01*
X032894Y042887D01*
X032894Y043211D01*
X032894Y042994D02*
X033238Y042994D01*
X033238Y043101D02*
X032894Y043101D01*
X032894Y043208D02*
X033238Y043208D01*
X032451Y040170D02*
X032107Y040170D01*
X032107Y040494D01*
X032451Y040494D01*
X032451Y040170D01*
X032451Y040277D02*
X032107Y040277D01*
X032107Y040384D02*
X032451Y040384D01*
X032451Y040491D02*
X032107Y040491D01*
X032107Y039540D02*
X032451Y039540D01*
X032107Y039540D02*
X032107Y039864D01*
X032451Y039864D01*
X032451Y039540D01*
X032451Y039647D02*
X032107Y039647D01*
X032107Y039754D02*
X032451Y039754D01*
X032451Y039861D02*
X032107Y039861D01*
X036634Y033604D02*
X036978Y033604D01*
X036978Y033280D01*
X036634Y033280D01*
X036634Y033604D01*
X036634Y033387D02*
X036978Y033387D01*
X036978Y033494D02*
X036634Y033494D01*
X036634Y033601D02*
X036978Y033601D01*
X036978Y032974D02*
X036634Y032974D01*
X036978Y032974D02*
X036978Y032650D01*
X036634Y032650D01*
X036634Y032974D01*
X036634Y032757D02*
X036978Y032757D01*
X036978Y032864D02*
X036634Y032864D01*
X036634Y032971D02*
X036978Y032971D01*
X021211Y051892D02*
X021211Y052236D01*
X021535Y052236D01*
X021535Y051892D01*
X021211Y051892D01*
X021211Y051999D02*
X021535Y051999D01*
X021535Y052106D02*
X021211Y052106D01*
X021211Y052213D02*
X021535Y052213D01*
X020581Y052236D02*
X020581Y051892D01*
X020581Y052236D02*
X020905Y052236D01*
X020905Y051892D01*
X020581Y051892D01*
X020581Y051999D02*
X020905Y051999D01*
X020905Y052106D02*
X020581Y052106D01*
X020581Y052213D02*
X020905Y052213D01*
D13*
X020835Y051540D02*
X021085Y051540D01*
X021085Y051290D01*
X020835Y051290D01*
X020835Y051540D01*
X020835Y051373D02*
X021085Y051373D01*
X021085Y051456D02*
X020835Y051456D01*
X020835Y051539D02*
X021085Y051539D01*
X021085Y051185D02*
X020835Y051185D01*
X021085Y051185D02*
X021085Y050935D01*
X020835Y050935D01*
X020835Y051185D01*
X020835Y051018D02*
X021085Y051018D01*
X021085Y051101D02*
X020835Y051101D01*
X020835Y051184D02*
X021085Y051184D01*
X020297Y051185D02*
X020047Y051185D01*
X020297Y051185D02*
X020297Y050935D01*
X020047Y050935D01*
X020047Y051185D01*
X020047Y051018D02*
X020297Y051018D01*
X020297Y051101D02*
X020047Y051101D01*
X020047Y051184D02*
X020297Y051184D01*
X020297Y051540D02*
X020047Y051540D01*
X020297Y051540D02*
X020297Y051290D01*
X020047Y051290D01*
X020047Y051540D01*
X020047Y051373D02*
X020297Y051373D01*
X020297Y051456D02*
X020047Y051456D01*
X020047Y051539D02*
X020297Y051539D01*
X018748Y049197D02*
X018748Y048947D01*
X018748Y049197D02*
X018998Y049197D01*
X018998Y048947D01*
X018748Y048947D01*
X018748Y049030D02*
X018998Y049030D01*
X018998Y049113D02*
X018748Y049113D01*
X018748Y049196D02*
X018998Y049196D01*
X018394Y049197D02*
X018394Y048947D01*
X018394Y049197D02*
X018644Y049197D01*
X018644Y048947D01*
X018394Y048947D01*
X018394Y049030D02*
X018644Y049030D01*
X018644Y049113D02*
X018394Y049113D01*
X018394Y049196D02*
X018644Y049196D01*
X020284Y045004D02*
X020284Y044754D01*
X020284Y045004D02*
X020534Y045004D01*
X020534Y044754D01*
X020284Y044754D01*
X020284Y044837D02*
X020534Y044837D01*
X020534Y044920D02*
X020284Y044920D01*
X020284Y045003D02*
X020534Y045003D01*
X020638Y045004D02*
X020638Y044754D01*
X020638Y045004D02*
X020888Y045004D01*
X020888Y044754D01*
X020638Y044754D01*
X020638Y044837D02*
X020888Y044837D01*
X020888Y044920D02*
X020638Y044920D01*
X020638Y045003D02*
X020888Y045003D01*
X020638Y044414D02*
X020638Y044164D01*
X020638Y044414D02*
X020888Y044414D01*
X020888Y044164D01*
X020638Y044164D01*
X020638Y044247D02*
X020888Y044247D01*
X020888Y044330D02*
X020638Y044330D01*
X020638Y044413D02*
X020888Y044413D01*
X020284Y044414D02*
X020284Y044164D01*
X020284Y044414D02*
X020534Y044414D01*
X020534Y044164D01*
X020284Y044164D01*
X020284Y044247D02*
X020534Y044247D01*
X020534Y044330D02*
X020284Y044330D01*
X020284Y044413D02*
X020534Y044413D01*
X020534Y042898D02*
X020534Y042648D01*
X020284Y042648D01*
X020284Y042898D01*
X020534Y042898D01*
X020534Y042731D02*
X020284Y042731D01*
X020284Y042814D02*
X020534Y042814D01*
X020534Y042897D02*
X020284Y042897D01*
X020888Y042898D02*
X020888Y042648D01*
X020638Y042648D01*
X020638Y042898D01*
X020888Y042898D01*
X020888Y042731D02*
X020638Y042731D01*
X020638Y042814D02*
X020888Y042814D01*
X020888Y042897D02*
X020638Y042897D01*
X022469Y042431D02*
X022719Y042431D01*
X022469Y042431D02*
X022469Y042681D01*
X022719Y042681D01*
X022719Y042431D01*
X022719Y042514D02*
X022469Y042514D01*
X022469Y042597D02*
X022719Y042597D01*
X022719Y042680D02*
X022469Y042680D01*
X022469Y042077D02*
X022719Y042077D01*
X022469Y042077D02*
X022469Y042327D01*
X022719Y042327D01*
X022719Y042077D01*
X022719Y042160D02*
X022469Y042160D01*
X022469Y042243D02*
X022719Y042243D01*
X022719Y042326D02*
X022469Y042326D01*
X025264Y042485D02*
X025514Y042485D01*
X025514Y042235D01*
X025264Y042235D01*
X025264Y042485D01*
X025264Y042318D02*
X025514Y042318D01*
X025514Y042401D02*
X025264Y042401D01*
X025264Y042484D02*
X025514Y042484D01*
X025514Y042130D02*
X025264Y042130D01*
X025514Y042130D02*
X025514Y041880D01*
X025264Y041880D01*
X025264Y042130D01*
X025264Y041963D02*
X025514Y041963D01*
X025514Y042046D02*
X025264Y042046D01*
X025264Y042129D02*
X025514Y042129D01*
X025441Y044223D02*
X025441Y044473D01*
X025691Y044473D01*
X025691Y044223D01*
X025441Y044223D01*
X025441Y044306D02*
X025691Y044306D01*
X025691Y044389D02*
X025441Y044389D01*
X025441Y044472D02*
X025691Y044472D01*
X025087Y044473D02*
X025087Y044223D01*
X025087Y044473D02*
X025337Y044473D01*
X025337Y044223D01*
X025087Y044223D01*
X025087Y044306D02*
X025337Y044306D01*
X025337Y044389D02*
X025087Y044389D01*
X025087Y044472D02*
X025337Y044472D01*
X026321Y044473D02*
X026321Y044223D01*
X026071Y044223D01*
X026071Y044473D01*
X026321Y044473D01*
X026321Y044306D02*
X026071Y044306D01*
X026071Y044389D02*
X026321Y044389D01*
X026321Y044472D02*
X026071Y044472D01*
X026675Y044473D02*
X026675Y044223D01*
X026425Y044223D01*
X026425Y044473D01*
X026675Y044473D01*
X026675Y044306D02*
X026425Y044306D01*
X026425Y044389D02*
X026675Y044389D01*
X026675Y044472D02*
X026425Y044472D01*
X027252Y044715D02*
X027252Y044965D01*
X027502Y044965D01*
X027502Y044715D01*
X027252Y044715D01*
X027252Y044798D02*
X027502Y044798D01*
X027502Y044881D02*
X027252Y044881D01*
X027252Y044964D02*
X027502Y044964D01*
X027606Y044965D02*
X027606Y044715D01*
X027606Y044965D02*
X027856Y044965D01*
X027856Y044715D01*
X027606Y044715D01*
X027606Y044798D02*
X027856Y044798D01*
X027856Y044881D02*
X027606Y044881D01*
X027606Y044964D02*
X027856Y044964D01*
X027606Y045305D02*
X027606Y045555D01*
X027856Y045555D01*
X027856Y045305D01*
X027606Y045305D01*
X027606Y045388D02*
X027856Y045388D01*
X027856Y045471D02*
X027606Y045471D01*
X027606Y045554D02*
X027856Y045554D01*
X027252Y045555D02*
X027252Y045305D01*
X027252Y045555D02*
X027502Y045555D01*
X027502Y045305D01*
X027252Y045305D01*
X027252Y045388D02*
X027502Y045388D01*
X027502Y045471D02*
X027252Y045471D01*
X027252Y045554D02*
X027502Y045554D01*
X027856Y044079D02*
X027856Y043829D01*
X027606Y043829D01*
X027606Y044079D01*
X027856Y044079D01*
X027856Y043912D02*
X027606Y043912D01*
X027606Y043995D02*
X027856Y043995D01*
X027856Y044078D02*
X027606Y044078D01*
X028211Y044079D02*
X028211Y043829D01*
X027961Y043829D01*
X027961Y044079D01*
X028211Y044079D01*
X028211Y043912D02*
X027961Y043912D01*
X027961Y043995D02*
X028211Y043995D01*
X028211Y044078D02*
X027961Y044078D01*
X028211Y043213D02*
X028211Y042963D01*
X027961Y042963D01*
X027961Y043213D01*
X028211Y043213D01*
X028211Y043046D02*
X027961Y043046D01*
X027961Y043129D02*
X028211Y043129D01*
X028211Y043212D02*
X027961Y043212D01*
X027856Y043213D02*
X027856Y042963D01*
X027606Y042963D01*
X027606Y043213D01*
X027856Y043213D01*
X027856Y043046D02*
X027606Y043046D01*
X027606Y043129D02*
X027856Y043129D01*
X027856Y043212D02*
X027606Y043212D01*
X030697Y040384D02*
X030947Y040384D01*
X030697Y040384D02*
X030697Y040634D01*
X030947Y040634D01*
X030947Y040384D01*
X030947Y040467D02*
X030697Y040467D01*
X030697Y040550D02*
X030947Y040550D01*
X030947Y040633D02*
X030697Y040633D01*
X030697Y040030D02*
X030947Y040030D01*
X030697Y040030D02*
X030697Y040280D01*
X030947Y040280D01*
X030947Y040030D01*
X030947Y040113D02*
X030697Y040113D01*
X030697Y040196D02*
X030947Y040196D01*
X030947Y040279D02*
X030697Y040279D01*
X033335Y040266D02*
X033585Y040266D01*
X033335Y040266D02*
X033335Y040516D01*
X033585Y040516D01*
X033585Y040266D01*
X033585Y040349D02*
X033335Y040349D01*
X033335Y040432D02*
X033585Y040432D01*
X033585Y040515D02*
X033335Y040515D01*
X033335Y039912D02*
X033585Y039912D01*
X033335Y039912D02*
X033335Y040162D01*
X033585Y040162D01*
X033585Y039912D01*
X033585Y039995D02*
X033335Y039995D01*
X033335Y040078D02*
X033585Y040078D01*
X033585Y040161D02*
X033335Y040161D01*
X035303Y038744D02*
X035553Y038744D01*
X035553Y038494D01*
X035303Y038494D01*
X035303Y038744D01*
X035303Y038577D02*
X035553Y038577D01*
X035553Y038660D02*
X035303Y038660D01*
X035303Y038743D02*
X035553Y038743D01*
X035553Y038390D02*
X035303Y038390D01*
X035553Y038390D02*
X035553Y038140D01*
X035303Y038140D01*
X035303Y038390D01*
X035303Y038223D02*
X035553Y038223D01*
X035553Y038306D02*
X035303Y038306D01*
X035303Y038389D02*
X035553Y038389D01*
X037272Y038548D02*
X037522Y038548D01*
X037522Y038298D01*
X037272Y038298D01*
X037272Y038548D01*
X037272Y038381D02*
X037522Y038381D01*
X037522Y038464D02*
X037272Y038464D01*
X037272Y038547D02*
X037522Y038547D01*
X037522Y038193D02*
X037272Y038193D01*
X037522Y038193D02*
X037522Y037943D01*
X037272Y037943D01*
X037272Y038193D01*
X037272Y038026D02*
X037522Y038026D01*
X037522Y038109D02*
X037272Y038109D01*
X037272Y038192D02*
X037522Y038192D01*
X037522Y036723D02*
X037272Y036723D01*
X037272Y036973D01*
X037522Y036973D01*
X037522Y036723D01*
X037522Y036806D02*
X037272Y036806D01*
X037272Y036889D02*
X037522Y036889D01*
X037522Y036972D02*
X037272Y036972D01*
X037272Y036368D02*
X037522Y036368D01*
X037272Y036368D02*
X037272Y036618D01*
X037522Y036618D01*
X037522Y036368D01*
X037522Y036451D02*
X037272Y036451D01*
X037272Y036534D02*
X037522Y036534D01*
X037522Y036617D02*
X037272Y036617D01*
X035750Y033429D02*
X035500Y033429D01*
X035750Y033429D02*
X035750Y033179D01*
X035500Y033179D01*
X035500Y033429D01*
X035500Y033262D02*
X035750Y033262D01*
X035750Y033345D02*
X035500Y033345D01*
X035500Y033428D02*
X035750Y033428D01*
X035750Y033075D02*
X035500Y033075D01*
X035750Y033075D02*
X035750Y032825D01*
X035500Y032825D01*
X035500Y033075D01*
X035500Y032908D02*
X035750Y032908D01*
X035750Y032991D02*
X035500Y032991D01*
X035500Y033074D02*
X035750Y033074D01*
X034175Y034847D02*
X033925Y034847D01*
X034175Y034847D02*
X034175Y034597D01*
X033925Y034597D01*
X033925Y034847D01*
X033925Y034680D02*
X034175Y034680D01*
X034175Y034763D02*
X033925Y034763D01*
X033925Y034846D02*
X034175Y034846D01*
X034175Y035201D02*
X033925Y035201D01*
X034175Y035201D02*
X034175Y034951D01*
X033925Y034951D01*
X033925Y035201D01*
X033925Y035034D02*
X034175Y035034D01*
X034175Y035117D02*
X033925Y035117D01*
X033925Y035200D02*
X034175Y035200D01*
X033585Y036368D02*
X033335Y036368D01*
X033335Y036618D01*
X033585Y036618D01*
X033585Y036368D01*
X033585Y036451D02*
X033335Y036451D01*
X033335Y036534D02*
X033585Y036534D01*
X033585Y036617D02*
X033335Y036617D01*
X033335Y036723D02*
X033585Y036723D01*
X033335Y036723D02*
X033335Y036973D01*
X033585Y036973D01*
X033585Y036723D01*
X033585Y036806D02*
X033335Y036806D01*
X033335Y036889D02*
X033585Y036889D01*
X033585Y036972D02*
X033335Y036972D01*
X033925Y043311D02*
X034175Y043311D01*
X034175Y043061D01*
X033925Y043061D01*
X033925Y043311D01*
X033925Y043144D02*
X034175Y043144D01*
X034175Y043227D02*
X033925Y043227D01*
X033925Y043310D02*
X034175Y043310D01*
X034175Y043666D02*
X033925Y043666D01*
X034175Y043666D02*
X034175Y043416D01*
X033925Y043416D01*
X033925Y043666D01*
X033925Y043499D02*
X034175Y043499D01*
X034175Y043582D02*
X033925Y043582D01*
X033925Y043665D02*
X034175Y043665D01*
X032994Y050345D02*
X032744Y050345D01*
X032744Y050595D01*
X032994Y050595D01*
X032994Y050345D01*
X032994Y050428D02*
X032744Y050428D01*
X032744Y050511D02*
X032994Y050511D01*
X032994Y050594D02*
X032744Y050594D01*
X032744Y050699D02*
X032994Y050699D01*
X032744Y050699D02*
X032744Y050949D01*
X032994Y050949D01*
X032994Y050699D01*
X032994Y050782D02*
X032744Y050782D01*
X032744Y050865D02*
X032994Y050865D01*
X032994Y050948D02*
X032744Y050948D01*
X034417Y052957D02*
X034667Y052957D01*
X034667Y052707D01*
X034417Y052707D01*
X034417Y052957D01*
X034417Y052790D02*
X034667Y052790D01*
X034667Y052873D02*
X034417Y052873D01*
X034417Y052956D02*
X034667Y052956D01*
X034667Y053311D02*
X034417Y053311D01*
X034667Y053311D02*
X034667Y053061D01*
X034417Y053061D01*
X034417Y053311D01*
X034417Y053144D02*
X034667Y053144D01*
X034667Y053227D02*
X034417Y053227D01*
X034417Y053310D02*
X034667Y053310D01*
X036386Y050502D02*
X036636Y050502D01*
X036386Y050502D02*
X036386Y050752D01*
X036636Y050752D01*
X036636Y050502D01*
X036636Y050585D02*
X036386Y050585D01*
X036386Y050668D02*
X036636Y050668D01*
X036636Y050751D02*
X036386Y050751D01*
X036386Y050148D02*
X036636Y050148D01*
X036386Y050148D02*
X036386Y050398D01*
X036636Y050398D01*
X036636Y050148D01*
X036636Y050231D02*
X036386Y050231D01*
X036386Y050314D02*
X036636Y050314D01*
X036636Y050397D02*
X036386Y050397D01*
X032108Y055857D02*
X031858Y055857D01*
X031858Y056107D01*
X032108Y056107D01*
X032108Y055857D01*
X032108Y055940D02*
X031858Y055940D01*
X031858Y056023D02*
X032108Y056023D01*
X032108Y056106D02*
X031858Y056106D01*
X031858Y056211D02*
X032108Y056211D01*
X031858Y056211D02*
X031858Y056461D01*
X032108Y056461D01*
X032108Y056211D01*
X032108Y056294D02*
X031858Y056294D01*
X031858Y056377D02*
X032108Y056377D01*
X032108Y056460D02*
X031858Y056460D01*
X027660Y051559D02*
X027660Y051309D01*
X027410Y051309D01*
X027410Y051559D01*
X027660Y051559D01*
X027660Y051392D02*
X027410Y051392D01*
X027410Y051475D02*
X027660Y051475D01*
X027660Y051558D02*
X027410Y051558D01*
X027305Y051559D02*
X027305Y051309D01*
X027055Y051309D01*
X027055Y051559D01*
X027305Y051559D01*
X027305Y051392D02*
X027055Y051392D01*
X027055Y051475D02*
X027305Y051475D01*
X027305Y051558D02*
X027055Y051558D01*
X027305Y050969D02*
X027305Y050719D01*
X027055Y050719D01*
X027055Y050969D01*
X027305Y050969D01*
X027305Y050802D02*
X027055Y050802D01*
X027055Y050885D02*
X027305Y050885D01*
X027305Y050968D02*
X027055Y050968D01*
X027660Y050969D02*
X027660Y050719D01*
X027410Y050719D01*
X027410Y050969D01*
X027660Y050969D01*
X027660Y050802D02*
X027410Y050802D01*
X027410Y050885D02*
X027660Y050885D01*
X027660Y050968D02*
X027410Y050968D01*
X018132Y041796D02*
X017882Y041796D01*
X018132Y041796D02*
X018132Y041546D01*
X017882Y041546D01*
X017882Y041796D01*
X017882Y041629D02*
X018132Y041629D01*
X018132Y041712D02*
X017882Y041712D01*
X017882Y041795D02*
X018132Y041795D01*
X018132Y041441D02*
X017882Y041441D01*
X018132Y041441D02*
X018132Y041191D01*
X017882Y041191D01*
X017882Y041441D01*
X017882Y041274D02*
X018132Y041274D01*
X018132Y041357D02*
X017882Y041357D01*
X017882Y041440D02*
X018132Y041440D01*
X016656Y041540D02*
X016406Y041540D01*
X016656Y041540D02*
X016656Y041290D01*
X016406Y041290D01*
X016406Y041540D01*
X016406Y041373D02*
X016656Y041373D01*
X016656Y041456D02*
X016406Y041456D01*
X016406Y041539D02*
X016656Y041539D01*
X016656Y041894D02*
X016406Y041894D01*
X016656Y041894D02*
X016656Y041644D01*
X016406Y041644D01*
X016406Y041894D01*
X016406Y041727D02*
X016656Y041727D01*
X016656Y041810D02*
X016406Y041810D01*
X016406Y041893D02*
X016656Y041893D01*
X015671Y041697D02*
X015421Y041697D01*
X015671Y041697D02*
X015671Y041447D01*
X015421Y041447D01*
X015421Y041697D01*
X015421Y041530D02*
X015671Y041530D01*
X015671Y041613D02*
X015421Y041613D01*
X015421Y041696D02*
X015671Y041696D01*
X015671Y041343D02*
X015421Y041343D01*
X015671Y041343D02*
X015671Y041093D01*
X015421Y041093D01*
X015421Y041343D01*
X015421Y041176D02*
X015671Y041176D01*
X015671Y041259D02*
X015421Y041259D01*
X015421Y041342D02*
X015671Y041342D01*
X014392Y039985D02*
X014392Y039735D01*
X014142Y039735D01*
X014142Y039985D01*
X014392Y039985D01*
X014392Y039818D02*
X014142Y039818D01*
X014142Y039901D02*
X014392Y039901D01*
X014392Y039984D02*
X014142Y039984D01*
X014038Y039985D02*
X014038Y039735D01*
X013788Y039735D01*
X013788Y039985D01*
X014038Y039985D01*
X014038Y039818D02*
X013788Y039818D01*
X013788Y039901D02*
X014038Y039901D01*
X014038Y039984D02*
X013788Y039984D01*
X013965Y039335D02*
X013965Y039085D01*
X013965Y039335D02*
X014215Y039335D01*
X014215Y039085D01*
X013965Y039085D01*
X013965Y039168D02*
X014215Y039168D01*
X014215Y039251D02*
X013965Y039251D01*
X013965Y039334D02*
X014215Y039334D01*
X014319Y039335D02*
X014319Y039085D01*
X014319Y039335D02*
X014569Y039335D01*
X014569Y039085D01*
X014319Y039085D01*
X014319Y039168D02*
X014569Y039168D01*
X014569Y039251D02*
X014319Y039251D01*
X014319Y039334D02*
X014569Y039334D01*
X015835Y038370D02*
X015835Y038120D01*
X015835Y038370D02*
X016085Y038370D01*
X016085Y038120D01*
X015835Y038120D01*
X015835Y038203D02*
X016085Y038203D01*
X016085Y038286D02*
X015835Y038286D01*
X015835Y038369D02*
X016085Y038369D01*
X016189Y038370D02*
X016189Y038120D01*
X016189Y038370D02*
X016439Y038370D01*
X016439Y038120D01*
X016189Y038120D01*
X016189Y038203D02*
X016439Y038203D01*
X016439Y038286D02*
X016189Y038286D01*
X016189Y038369D02*
X016439Y038369D01*
X020953Y036205D02*
X020953Y035955D01*
X020953Y036205D02*
X021203Y036205D01*
X021203Y035955D01*
X020953Y035955D01*
X020953Y036038D02*
X021203Y036038D01*
X021203Y036121D02*
X020953Y036121D01*
X020953Y036204D02*
X021203Y036204D01*
X021307Y036205D02*
X021307Y035955D01*
X021307Y036205D02*
X021557Y036205D01*
X021557Y035955D01*
X021307Y035955D01*
X021307Y036038D02*
X021557Y036038D01*
X021557Y036121D02*
X021307Y036121D01*
X021307Y036204D02*
X021557Y036204D01*
X024477Y032983D02*
X024727Y032983D01*
X024477Y032983D02*
X024477Y033233D01*
X024727Y033233D01*
X024727Y032983D01*
X024727Y033066D02*
X024477Y033066D01*
X024477Y033149D02*
X024727Y033149D01*
X024727Y033232D02*
X024477Y033232D01*
X024477Y032628D02*
X024727Y032628D01*
X024477Y032628D02*
X024477Y032878D01*
X024727Y032878D01*
X024727Y032628D01*
X024727Y032711D02*
X024477Y032711D01*
X024477Y032794D02*
X024727Y032794D01*
X024727Y032877D02*
X024477Y032877D01*
X029398Y029242D02*
X029648Y029242D01*
X029398Y029242D02*
X029398Y029492D01*
X029648Y029492D01*
X029648Y029242D01*
X029648Y029325D02*
X029398Y029325D01*
X029398Y029408D02*
X029648Y029408D01*
X029648Y029491D02*
X029398Y029491D01*
X029398Y028888D02*
X029648Y028888D01*
X029398Y028888D02*
X029398Y029138D01*
X029648Y029138D01*
X029648Y028888D01*
X029648Y028971D02*
X029398Y028971D01*
X029398Y029054D02*
X029648Y029054D01*
X029648Y029137D02*
X029398Y029137D01*
X033138Y027668D02*
X033388Y027668D01*
X033138Y027668D02*
X033138Y027918D01*
X033388Y027918D01*
X033388Y027668D01*
X033388Y027751D02*
X033138Y027751D01*
X033138Y027834D02*
X033388Y027834D01*
X033388Y027917D02*
X033138Y027917D01*
X033138Y027313D02*
X033388Y027313D01*
X033138Y027313D02*
X033138Y027563D01*
X033388Y027563D01*
X033388Y027313D01*
X033388Y027396D02*
X033138Y027396D01*
X033138Y027479D02*
X033388Y027479D01*
X033388Y027562D02*
X033138Y027562D01*
X033768Y029872D02*
X034018Y029872D01*
X033768Y029872D02*
X033768Y030122D01*
X034018Y030122D01*
X034018Y029872D01*
X034018Y029955D02*
X033768Y029955D01*
X033768Y030038D02*
X034018Y030038D01*
X034018Y030121D02*
X033768Y030121D01*
X033768Y030227D02*
X034018Y030227D01*
X033768Y030227D02*
X033768Y030477D01*
X034018Y030477D01*
X034018Y030227D01*
X034018Y030310D02*
X033768Y030310D01*
X033768Y030393D02*
X034018Y030393D01*
X034018Y030476D02*
X033768Y030476D01*
X016636Y025181D02*
X016636Y024931D01*
X016386Y024931D01*
X016386Y025181D01*
X016636Y025181D01*
X016636Y025014D02*
X016386Y025014D01*
X016386Y025097D02*
X016636Y025097D01*
X016636Y025180D02*
X016386Y025180D01*
X016282Y025181D02*
X016282Y024931D01*
X016032Y024931D01*
X016032Y025181D01*
X016282Y025181D01*
X016282Y025014D02*
X016032Y025014D01*
X016032Y025097D02*
X016282Y025097D01*
X016282Y025180D02*
X016032Y025180D01*
D14*
X017859Y033176D02*
X018155Y033176D01*
X017859Y033176D02*
X017859Y033472D01*
X018155Y033472D01*
X018155Y033176D01*
X018155Y033273D02*
X017859Y033273D01*
X017859Y033370D02*
X018155Y033370D01*
X018155Y033467D02*
X017859Y033467D01*
X018450Y033176D02*
X018746Y033176D01*
X018450Y033176D02*
X018450Y033472D01*
X018746Y033472D01*
X018746Y033176D01*
X018746Y033273D02*
X018450Y033273D01*
X018450Y033370D02*
X018746Y033370D01*
X018746Y033467D02*
X018450Y033467D01*
X020104Y033541D02*
X020104Y033895D01*
X020104Y033541D02*
X019808Y033541D01*
X019808Y033895D01*
X020104Y033895D01*
X020104Y033638D02*
X019808Y033638D01*
X019808Y033735D02*
X020104Y033735D01*
X020104Y033832D02*
X019808Y033832D01*
X020734Y033895D02*
X020734Y033541D01*
X020438Y033541D01*
X020438Y033895D01*
X020734Y033895D01*
X020734Y033638D02*
X020438Y033638D01*
X020438Y033735D02*
X020734Y033735D01*
X020734Y033832D02*
X020438Y033832D01*
X021757Y041051D02*
X022053Y041051D01*
X022053Y040755D01*
X021757Y040755D01*
X021757Y041051D01*
X021757Y040852D02*
X022053Y040852D01*
X022053Y040949D02*
X021757Y040949D01*
X021757Y041046D02*
X022053Y041046D01*
X022347Y041051D02*
X022643Y041051D01*
X022643Y040755D01*
X022347Y040755D01*
X022347Y041051D01*
X022347Y040852D02*
X022643Y040852D01*
X022643Y040949D02*
X022347Y040949D01*
X022347Y041046D02*
X022643Y041046D01*
X022505Y043777D02*
X022505Y044131D01*
X022505Y043777D02*
X022209Y043777D01*
X022209Y044131D01*
X022505Y044131D01*
X022505Y043874D02*
X022209Y043874D01*
X022209Y043971D02*
X022505Y043971D01*
X022505Y044068D02*
X022209Y044068D01*
X021876Y044131D02*
X021876Y043777D01*
X021580Y043777D01*
X021580Y044131D01*
X021876Y044131D01*
X021876Y043874D02*
X021580Y043874D01*
X021580Y043971D02*
X021876Y043971D01*
X021876Y044068D02*
X021580Y044068D01*
X019946Y043530D02*
X019572Y043530D01*
X019572Y043826D01*
X019946Y043826D01*
X019946Y043530D01*
X019946Y043627D02*
X019572Y043627D01*
X019572Y043724D02*
X019946Y043724D01*
X019946Y043821D02*
X019572Y043821D01*
X019572Y042349D02*
X019946Y042349D01*
X019572Y042349D02*
X019572Y042645D01*
X019946Y042645D01*
X019946Y042349D01*
X019946Y042446D02*
X019572Y042446D01*
X019572Y042543D02*
X019946Y042543D01*
X019946Y042640D02*
X019572Y042640D01*
X019553Y041533D02*
X019553Y041179D01*
X019257Y041179D01*
X019257Y041533D01*
X019553Y041533D01*
X019553Y041276D02*
X019257Y041276D01*
X019257Y041373D02*
X019553Y041373D01*
X019553Y041470D02*
X019257Y041470D01*
X018923Y041533D02*
X018923Y041179D01*
X018627Y041179D01*
X018627Y041533D01*
X018923Y041533D01*
X018923Y041276D02*
X018627Y041276D01*
X018627Y041373D02*
X018923Y041373D01*
X018923Y041470D02*
X018627Y041470D01*
X017111Y042349D02*
X016737Y042349D01*
X016737Y042645D01*
X017111Y042645D01*
X017111Y042349D01*
X017111Y042446D02*
X016737Y042446D01*
X016737Y042543D02*
X017111Y042543D01*
X017111Y042640D02*
X016737Y042640D01*
X016737Y043530D02*
X017111Y043530D01*
X016737Y043530D02*
X016737Y043826D01*
X017111Y043826D01*
X017111Y043530D01*
X017111Y043627D02*
X016737Y043627D01*
X016737Y043724D02*
X017111Y043724D01*
X017111Y043821D02*
X016737Y043821D01*
X018233Y050076D02*
X018233Y050430D01*
X018529Y050430D01*
X018529Y050076D01*
X018233Y050076D01*
X018233Y050173D02*
X018529Y050173D01*
X018529Y050270D02*
X018233Y050270D01*
X018233Y050367D02*
X018529Y050367D01*
X018863Y050430D02*
X018863Y050076D01*
X018863Y050430D02*
X019159Y050430D01*
X019159Y050076D01*
X018863Y050076D01*
X018863Y050173D02*
X019159Y050173D01*
X019159Y050270D02*
X018863Y050270D01*
X018863Y050367D02*
X019159Y050367D01*
X020595Y052675D02*
X020595Y053029D01*
X020891Y053029D01*
X020891Y052675D01*
X020595Y052675D01*
X020595Y052772D02*
X020891Y052772D01*
X020891Y052869D02*
X020595Y052869D01*
X020595Y052966D02*
X020891Y052966D01*
X021225Y053029D02*
X021225Y052675D01*
X021225Y053029D02*
X021521Y053029D01*
X021521Y052675D01*
X021225Y052675D01*
X021225Y052772D02*
X021521Y052772D01*
X021521Y052869D02*
X021225Y052869D01*
X021225Y052966D02*
X021521Y052966D01*
X019267Y054220D02*
X018913Y054220D01*
X019267Y054220D02*
X019267Y053924D01*
X018913Y053924D01*
X018913Y054220D01*
X018913Y054021D02*
X019267Y054021D01*
X019267Y054118D02*
X018913Y054118D01*
X018913Y054215D02*
X019267Y054215D01*
X019267Y054850D02*
X018913Y054850D01*
X019267Y054850D02*
X019267Y054554D01*
X018913Y054554D01*
X018913Y054850D01*
X018913Y054651D02*
X019267Y054651D01*
X019267Y054748D02*
X018913Y054748D01*
X018913Y054845D02*
X019267Y054845D01*
X025054Y053176D02*
X025408Y053176D01*
X025054Y053176D02*
X025054Y053472D01*
X025408Y053472D01*
X025408Y053176D01*
X025408Y053273D02*
X025054Y053273D01*
X025054Y053370D02*
X025408Y053370D01*
X025408Y053467D02*
X025054Y053467D01*
X025054Y052546D02*
X025408Y052546D01*
X025054Y052546D02*
X025054Y052842D01*
X025408Y052842D01*
X025408Y052546D01*
X025408Y052643D02*
X025054Y052643D01*
X025054Y052740D02*
X025408Y052740D01*
X025408Y052837D02*
X025054Y052837D01*
X029356Y047281D02*
X029356Y046927D01*
X029060Y046927D01*
X029060Y047281D01*
X029356Y047281D01*
X029356Y047024D02*
X029060Y047024D01*
X029060Y047121D02*
X029356Y047121D01*
X029356Y047218D02*
X029060Y047218D01*
X029986Y047281D02*
X029986Y046927D01*
X029690Y046927D01*
X029690Y047281D01*
X029986Y047281D01*
X029986Y047024D02*
X029690Y047024D01*
X029690Y047121D02*
X029986Y047121D01*
X029986Y047218D02*
X029690Y047218D01*
X029986Y046296D02*
X029986Y045942D01*
X029690Y045942D01*
X029690Y046296D01*
X029986Y046296D01*
X029986Y046039D02*
X029690Y046039D01*
X029690Y046136D02*
X029986Y046136D01*
X029986Y046233D02*
X029690Y046233D01*
X029356Y046296D02*
X029356Y045942D01*
X029060Y045942D01*
X029060Y046296D01*
X029356Y046296D01*
X029356Y046039D02*
X029060Y046039D01*
X029060Y046136D02*
X029356Y046136D01*
X029356Y046233D02*
X029060Y046233D01*
X026482Y043304D02*
X026482Y042950D01*
X026186Y042950D01*
X026186Y043304D01*
X026482Y043304D01*
X026482Y043047D02*
X026186Y043047D01*
X026186Y043144D02*
X026482Y043144D01*
X026482Y043241D02*
X026186Y043241D01*
X025852Y043304D02*
X025852Y042950D01*
X025556Y042950D01*
X025556Y043304D01*
X025852Y043304D01*
X025852Y043047D02*
X025556Y043047D01*
X025556Y043144D02*
X025852Y043144D01*
X025852Y043241D02*
X025556Y043241D01*
X027564Y040460D02*
X028490Y040460D01*
X027564Y040460D02*
X027564Y040756D01*
X028490Y040756D01*
X028490Y040460D01*
X028490Y040557D02*
X027564Y040557D01*
X027564Y040654D02*
X028490Y040654D01*
X028490Y040751D02*
X027564Y040751D01*
X027968Y038866D02*
X028322Y038866D01*
X028322Y038570D01*
X027968Y038570D01*
X027968Y038866D01*
X027968Y038667D02*
X028322Y038667D01*
X028322Y038764D02*
X027968Y038764D01*
X027968Y038861D02*
X028322Y038861D01*
X028322Y038236D02*
X027968Y038236D01*
X028322Y038236D02*
X028322Y037940D01*
X027968Y037940D01*
X027968Y038236D01*
X027968Y038037D02*
X028322Y038037D01*
X028322Y038134D02*
X027968Y038134D01*
X027968Y038231D02*
X028322Y038231D01*
X028952Y038236D02*
X029306Y038236D01*
X029306Y037940D01*
X028952Y037940D01*
X028952Y038236D01*
X028952Y038037D02*
X029306Y038037D01*
X029306Y038134D02*
X028952Y038134D01*
X028952Y038231D02*
X029306Y038231D01*
X029306Y038866D02*
X028952Y038866D01*
X029306Y038866D02*
X029306Y038570D01*
X028952Y038570D01*
X028952Y038866D01*
X028952Y038667D02*
X029306Y038667D01*
X029306Y038764D02*
X028952Y038764D01*
X028952Y038861D02*
X029306Y038861D01*
X029375Y040460D02*
X030301Y040460D01*
X029375Y040460D02*
X029375Y040756D01*
X030301Y040756D01*
X030301Y040460D01*
X030301Y040557D02*
X029375Y040557D01*
X029375Y040654D02*
X030301Y040654D01*
X030301Y040751D02*
X029375Y040751D01*
X036364Y040362D02*
X036364Y039436D01*
X036068Y039436D01*
X036068Y040362D01*
X036364Y040362D01*
X036364Y039533D02*
X036068Y039533D01*
X036068Y039630D02*
X036364Y039630D01*
X036364Y039727D02*
X036068Y039727D01*
X036068Y039824D02*
X036364Y039824D01*
X036364Y039921D02*
X036068Y039921D01*
X036068Y040018D02*
X036364Y040018D01*
X036364Y040115D02*
X036068Y040115D01*
X036068Y040212D02*
X036364Y040212D01*
X036364Y040309D02*
X036068Y040309D01*
X036364Y041247D02*
X036364Y042173D01*
X036364Y041247D02*
X036068Y041247D01*
X036068Y042173D01*
X036364Y042173D01*
X036364Y041344D02*
X036068Y041344D01*
X036068Y041441D02*
X036364Y041441D01*
X036364Y041538D02*
X036068Y041538D01*
X036068Y041635D02*
X036364Y041635D01*
X036364Y041732D02*
X036068Y041732D01*
X036068Y041829D02*
X036364Y041829D01*
X036364Y041926D02*
X036068Y041926D01*
X036068Y042023D02*
X036364Y042023D01*
X036364Y042120D02*
X036068Y042120D01*
X035507Y049987D02*
X035153Y049987D01*
X035153Y050283D01*
X035507Y050283D01*
X035507Y049987D01*
X035507Y050084D02*
X035153Y050084D01*
X035153Y050181D02*
X035507Y050181D01*
X035507Y050278D02*
X035153Y050278D01*
X035153Y050617D02*
X035507Y050617D01*
X035153Y050617D02*
X035153Y050913D01*
X035507Y050913D01*
X035507Y050617D01*
X035507Y050714D02*
X035153Y050714D01*
X035153Y050811D02*
X035507Y050811D01*
X035507Y050908D02*
X035153Y050908D01*
X034227Y050617D02*
X033873Y050617D01*
X033873Y050913D01*
X034227Y050913D01*
X034227Y050617D01*
X034227Y050714D02*
X033873Y050714D01*
X033873Y050811D02*
X034227Y050811D01*
X034227Y050908D02*
X033873Y050908D01*
X033873Y049987D02*
X034227Y049987D01*
X033873Y049987D02*
X033873Y050283D01*
X034227Y050283D01*
X034227Y049987D01*
X034227Y050084D02*
X033873Y050084D01*
X033873Y050181D02*
X034227Y050181D01*
X034227Y050278D02*
X033873Y050278D01*
D15*
X033540Y051454D02*
X033304Y051454D01*
X033304Y052320D01*
X033540Y052320D01*
X033540Y051454D01*
X033540Y051532D02*
X033304Y051532D01*
X033304Y051610D02*
X033540Y051610D01*
X033540Y051688D02*
X033304Y051688D01*
X033304Y051766D02*
X033540Y051766D01*
X033540Y051844D02*
X033304Y051844D01*
X033304Y051922D02*
X033540Y051922D01*
X033540Y052000D02*
X033304Y052000D01*
X033304Y052078D02*
X033540Y052078D01*
X033540Y052156D02*
X033304Y052156D01*
X033304Y052234D02*
X033540Y052234D01*
X033540Y052312D02*
X033304Y052312D01*
X033040Y051454D02*
X032804Y051454D01*
X032804Y052320D01*
X033040Y052320D01*
X033040Y051454D01*
X033040Y051532D02*
X032804Y051532D01*
X032804Y051610D02*
X033040Y051610D01*
X033040Y051688D02*
X032804Y051688D01*
X032804Y051766D02*
X033040Y051766D01*
X033040Y051844D02*
X032804Y051844D01*
X032804Y051922D02*
X033040Y051922D01*
X033040Y052000D02*
X032804Y052000D01*
X032804Y052078D02*
X033040Y052078D01*
X033040Y052156D02*
X032804Y052156D01*
X032804Y052234D02*
X033040Y052234D01*
X033040Y052312D02*
X032804Y052312D01*
X032540Y051454D02*
X032304Y051454D01*
X032304Y052320D01*
X032540Y052320D01*
X032540Y051454D01*
X032540Y051532D02*
X032304Y051532D01*
X032304Y051610D02*
X032540Y051610D01*
X032540Y051688D02*
X032304Y051688D01*
X032304Y051766D02*
X032540Y051766D01*
X032540Y051844D02*
X032304Y051844D01*
X032304Y051922D02*
X032540Y051922D01*
X032540Y052000D02*
X032304Y052000D01*
X032304Y052078D02*
X032540Y052078D01*
X032540Y052156D02*
X032304Y052156D01*
X032304Y052234D02*
X032540Y052234D01*
X032540Y052312D02*
X032304Y052312D01*
X032040Y051454D02*
X031804Y051454D01*
X031804Y052320D01*
X032040Y052320D01*
X032040Y051454D01*
X032040Y051532D02*
X031804Y051532D01*
X031804Y051610D02*
X032040Y051610D01*
X032040Y051688D02*
X031804Y051688D01*
X031804Y051766D02*
X032040Y051766D01*
X032040Y051844D02*
X031804Y051844D01*
X031804Y051922D02*
X032040Y051922D01*
X032040Y052000D02*
X031804Y052000D01*
X031804Y052078D02*
X032040Y052078D01*
X032040Y052156D02*
X031804Y052156D01*
X031804Y052234D02*
X032040Y052234D01*
X032040Y052312D02*
X031804Y052312D01*
X031804Y053501D02*
X032040Y053501D01*
X031804Y053501D02*
X031804Y054367D01*
X032040Y054367D01*
X032040Y053501D01*
X032040Y053579D02*
X031804Y053579D01*
X031804Y053657D02*
X032040Y053657D01*
X032040Y053735D02*
X031804Y053735D01*
X031804Y053813D02*
X032040Y053813D01*
X032040Y053891D02*
X031804Y053891D01*
X031804Y053969D02*
X032040Y053969D01*
X032040Y054047D02*
X031804Y054047D01*
X031804Y054125D02*
X032040Y054125D01*
X032040Y054203D02*
X031804Y054203D01*
X031804Y054281D02*
X032040Y054281D01*
X032040Y054359D02*
X031804Y054359D01*
X032304Y053501D02*
X032540Y053501D01*
X032304Y053501D02*
X032304Y054367D01*
X032540Y054367D01*
X032540Y053501D01*
X032540Y053579D02*
X032304Y053579D01*
X032304Y053657D02*
X032540Y053657D01*
X032540Y053735D02*
X032304Y053735D01*
X032304Y053813D02*
X032540Y053813D01*
X032540Y053891D02*
X032304Y053891D01*
X032304Y053969D02*
X032540Y053969D01*
X032540Y054047D02*
X032304Y054047D01*
X032304Y054125D02*
X032540Y054125D01*
X032540Y054203D02*
X032304Y054203D01*
X032304Y054281D02*
X032540Y054281D01*
X032540Y054359D02*
X032304Y054359D01*
X032804Y053501D02*
X033040Y053501D01*
X032804Y053501D02*
X032804Y054367D01*
X033040Y054367D01*
X033040Y053501D01*
X033040Y053579D02*
X032804Y053579D01*
X032804Y053657D02*
X033040Y053657D01*
X033040Y053735D02*
X032804Y053735D01*
X032804Y053813D02*
X033040Y053813D01*
X033040Y053891D02*
X032804Y053891D01*
X032804Y053969D02*
X033040Y053969D01*
X033040Y054047D02*
X032804Y054047D01*
X032804Y054125D02*
X033040Y054125D01*
X033040Y054203D02*
X032804Y054203D01*
X032804Y054281D02*
X033040Y054281D01*
X033040Y054359D02*
X032804Y054359D01*
X033304Y053501D02*
X033540Y053501D01*
X033304Y053501D02*
X033304Y054367D01*
X033540Y054367D01*
X033540Y053501D01*
X033540Y053579D02*
X033304Y053579D01*
X033304Y053657D02*
X033540Y053657D01*
X033540Y053735D02*
X033304Y053735D01*
X033304Y053813D02*
X033540Y053813D01*
X033540Y053891D02*
X033304Y053891D01*
X033304Y053969D02*
X033540Y053969D01*
X033540Y054047D02*
X033304Y054047D01*
X033304Y054125D02*
X033540Y054125D01*
X033540Y054203D02*
X033304Y054203D01*
X033304Y054281D02*
X033540Y054281D01*
X033540Y054359D02*
X033304Y054359D01*
X030035Y055834D02*
X030035Y056090D01*
X030035Y055834D02*
X029799Y055834D01*
X029799Y056090D01*
X030035Y056090D01*
X030035Y055912D02*
X029799Y055912D01*
X029799Y055990D02*
X030035Y055990D01*
X030035Y056068D02*
X029799Y056068D01*
X029641Y056090D02*
X029641Y055834D01*
X029405Y055834D01*
X029405Y056090D01*
X029641Y056090D01*
X029641Y055912D02*
X029405Y055912D01*
X029405Y055990D02*
X029641Y055990D01*
X029641Y056068D02*
X029405Y056068D01*
X027869Y056090D02*
X027869Y055834D01*
X027633Y055834D01*
X027633Y056090D01*
X027869Y056090D01*
X027869Y055912D02*
X027633Y055912D01*
X027633Y055990D02*
X027869Y055990D01*
X027869Y056068D02*
X027633Y056068D01*
X027475Y056090D02*
X027475Y055834D01*
X027239Y055834D01*
X027239Y056090D01*
X027475Y056090D01*
X027475Y055912D02*
X027239Y055912D01*
X027239Y055990D02*
X027475Y055990D01*
X027475Y056068D02*
X027239Y056068D01*
X025281Y056080D02*
X025025Y056080D01*
X025281Y056080D02*
X025281Y055844D01*
X025025Y055844D01*
X025025Y056080D01*
X025025Y055922D02*
X025281Y055922D01*
X025281Y056000D02*
X025025Y056000D01*
X025025Y056078D02*
X025281Y056078D01*
X025281Y055686D02*
X025025Y055686D01*
X025281Y055686D02*
X025281Y055450D01*
X025025Y055450D01*
X025025Y055686D01*
X025025Y055528D02*
X025281Y055528D01*
X025281Y055606D02*
X025025Y055606D01*
X025025Y055684D02*
X025281Y055684D01*
X023548Y055804D02*
X023292Y055804D01*
X023548Y055804D02*
X023548Y055568D01*
X023292Y055568D01*
X023292Y055804D01*
X023292Y055646D02*
X023548Y055646D01*
X023548Y055724D02*
X023292Y055724D01*
X023292Y055802D02*
X023548Y055802D01*
X023548Y056198D02*
X023292Y056198D01*
X023548Y056198D02*
X023548Y055962D01*
X023292Y055962D01*
X023292Y056198D01*
X023292Y056040D02*
X023548Y056040D01*
X023548Y056118D02*
X023292Y056118D01*
X023292Y056196D02*
X023548Y056196D01*
X021156Y054643D02*
X020684Y054643D01*
X020684Y054879D01*
X021156Y054879D01*
X021156Y054643D01*
X021156Y054721D02*
X020684Y054721D01*
X020684Y054799D02*
X021156Y054799D01*
X021156Y054877D02*
X020684Y054877D01*
X020684Y054269D02*
X021156Y054269D01*
X020684Y054269D02*
X020684Y054505D01*
X021156Y054505D01*
X021156Y054269D01*
X021156Y054347D02*
X020684Y054347D01*
X020684Y054425D02*
X021156Y054425D01*
X021156Y054503D02*
X020684Y054503D01*
X020684Y053895D02*
X021156Y053895D01*
X020684Y053895D02*
X020684Y054131D01*
X021156Y054131D01*
X021156Y053895D01*
X021156Y053973D02*
X020684Y053973D01*
X020684Y054051D02*
X021156Y054051D01*
X021156Y054129D02*
X020684Y054129D01*
X020251Y053895D02*
X019779Y053895D01*
X019779Y054131D01*
X020251Y054131D01*
X020251Y053895D01*
X020251Y053973D02*
X019779Y053973D01*
X019779Y054051D02*
X020251Y054051D01*
X020251Y054129D02*
X019779Y054129D01*
X019779Y054643D02*
X020251Y054643D01*
X019779Y054643D02*
X019779Y054879D01*
X020251Y054879D01*
X020251Y054643D01*
X020251Y054721D02*
X019779Y054721D01*
X019779Y054799D02*
X020251Y054799D01*
X020251Y054877D02*
X019779Y054877D01*
X018233Y054860D02*
X017977Y054860D01*
X017977Y055096D01*
X018233Y055096D01*
X018233Y054860D01*
X018233Y054938D02*
X017977Y054938D01*
X017977Y055016D02*
X018233Y055016D01*
X018233Y055094D02*
X017977Y055094D01*
X017643Y054860D02*
X017387Y054860D01*
X017387Y055096D01*
X017643Y055096D01*
X017643Y054860D01*
X017643Y054938D02*
X017387Y054938D01*
X017387Y055016D02*
X017643Y055016D01*
X017643Y055094D02*
X017387Y055094D01*
X017052Y054860D02*
X016796Y054860D01*
X016796Y055096D01*
X017052Y055096D01*
X017052Y054860D01*
X017052Y054938D02*
X016796Y054938D01*
X016796Y055016D02*
X017052Y055016D01*
X017052Y055094D02*
X016796Y055094D01*
X016462Y054860D02*
X016206Y054860D01*
X016206Y055096D01*
X016462Y055096D01*
X016462Y054860D01*
X016462Y054938D02*
X016206Y054938D01*
X016206Y055016D02*
X016462Y055016D01*
X016462Y055094D02*
X016206Y055094D01*
X016206Y054466D02*
X016462Y054466D01*
X016206Y054466D02*
X016206Y054702D01*
X016462Y054702D01*
X016462Y054466D01*
X016462Y054544D02*
X016206Y054544D01*
X016206Y054622D02*
X016462Y054622D01*
X016462Y054700D02*
X016206Y054700D01*
X016796Y054466D02*
X017052Y054466D01*
X016796Y054466D02*
X016796Y054702D01*
X017052Y054702D01*
X017052Y054466D01*
X017052Y054544D02*
X016796Y054544D01*
X016796Y054622D02*
X017052Y054622D01*
X017052Y054700D02*
X016796Y054700D01*
X017387Y054466D02*
X017643Y054466D01*
X017387Y054466D02*
X017387Y054702D01*
X017643Y054702D01*
X017643Y054466D01*
X017643Y054544D02*
X017387Y054544D01*
X017387Y054622D02*
X017643Y054622D01*
X017643Y054700D02*
X017387Y054700D01*
X017977Y054466D02*
X018233Y054466D01*
X017977Y054466D02*
X017977Y054702D01*
X018233Y054702D01*
X018233Y054466D01*
X018233Y054544D02*
X017977Y054544D01*
X017977Y054622D02*
X018233Y054622D01*
X018233Y054700D02*
X017977Y054700D01*
X018617Y049791D02*
X018617Y049535D01*
X018381Y049535D01*
X018381Y049791D01*
X018617Y049791D01*
X018617Y049613D02*
X018381Y049613D01*
X018381Y049691D02*
X018617Y049691D01*
X018617Y049769D02*
X018381Y049769D01*
X019011Y049791D02*
X019011Y049535D01*
X018775Y049535D01*
X018775Y049791D01*
X019011Y049791D01*
X019011Y049613D02*
X018775Y049613D01*
X018775Y049691D02*
X019011Y049691D01*
X019011Y049769D02*
X018775Y049769D01*
X019011Y048610D02*
X019011Y048354D01*
X018775Y048354D01*
X018775Y048610D01*
X019011Y048610D01*
X019011Y048432D02*
X018775Y048432D01*
X018775Y048510D02*
X019011Y048510D01*
X019011Y048588D02*
X018775Y048588D01*
X018617Y048610D02*
X018617Y048354D01*
X018381Y048354D01*
X018381Y048610D01*
X018617Y048610D01*
X018617Y048432D02*
X018381Y048432D01*
X018381Y048510D02*
X018617Y048510D01*
X018617Y048588D02*
X018381Y048588D01*
X018617Y048019D02*
X018617Y047763D01*
X018381Y047763D01*
X018381Y048019D01*
X018617Y048019D01*
X018617Y047841D02*
X018381Y047841D01*
X018381Y047919D02*
X018617Y047919D01*
X018617Y047997D02*
X018381Y047997D01*
X019011Y048019D02*
X019011Y047763D01*
X018775Y047763D01*
X018775Y048019D01*
X019011Y048019D01*
X019011Y047841D02*
X018775Y047841D01*
X018775Y047919D02*
X019011Y047919D01*
X019011Y047997D02*
X018775Y047997D01*
X019129Y046917D02*
X019129Y046661D01*
X019129Y046917D02*
X019365Y046917D01*
X019365Y046661D01*
X019129Y046661D01*
X019129Y046739D02*
X019365Y046739D01*
X019365Y046817D02*
X019129Y046817D01*
X019129Y046895D02*
X019365Y046895D01*
X019523Y046917D02*
X019523Y046661D01*
X019523Y046917D02*
X019759Y046917D01*
X019759Y046661D01*
X019523Y046661D01*
X019523Y046739D02*
X019759Y046739D01*
X019759Y046817D02*
X019523Y046817D01*
X019523Y046895D02*
X019759Y046895D01*
X017052Y045883D02*
X016796Y045883D01*
X017052Y045883D02*
X017052Y045647D01*
X016796Y045647D01*
X016796Y045883D01*
X016796Y045725D02*
X017052Y045725D01*
X017052Y045803D02*
X016796Y045803D01*
X016796Y045881D02*
X017052Y045881D01*
X017052Y045489D02*
X016796Y045489D01*
X017052Y045489D02*
X017052Y045253D01*
X016796Y045253D01*
X016796Y045489D01*
X016796Y045331D02*
X017052Y045331D01*
X017052Y045409D02*
X016796Y045409D01*
X016796Y045487D02*
X017052Y045487D01*
X016068Y045214D02*
X015812Y045214D01*
X015812Y045450D01*
X016068Y045450D01*
X016068Y045214D01*
X016068Y045292D02*
X015812Y045292D01*
X015812Y045370D02*
X016068Y045370D01*
X016068Y045448D02*
X015812Y045448D01*
X015812Y045608D02*
X016068Y045608D01*
X015812Y045608D02*
X015812Y045844D01*
X016068Y045844D01*
X016068Y045608D01*
X016068Y045686D02*
X015812Y045686D01*
X015812Y045764D02*
X016068Y045764D01*
X016068Y045842D02*
X015812Y045842D01*
X020468Y043767D02*
X020468Y043511D01*
X020232Y043511D01*
X020232Y043767D01*
X020468Y043767D01*
X020468Y043589D02*
X020232Y043589D01*
X020232Y043667D02*
X020468Y043667D01*
X020468Y043745D02*
X020232Y043745D01*
X020861Y043767D02*
X020861Y043511D01*
X020625Y043511D01*
X020625Y043767D01*
X020861Y043767D01*
X020861Y043589D02*
X020625Y043589D01*
X020625Y043667D02*
X020861Y043667D01*
X020861Y043745D02*
X020625Y043745D01*
X021531Y042291D02*
X021531Y042035D01*
X021531Y042291D02*
X021767Y042291D01*
X021767Y042035D01*
X021531Y042035D01*
X021531Y042113D02*
X021767Y042113D01*
X021767Y042191D02*
X021531Y042191D01*
X021531Y042269D02*
X021767Y042269D01*
X021924Y042291D02*
X021924Y042035D01*
X021924Y042291D02*
X022160Y042291D01*
X022160Y042035D01*
X021924Y042035D01*
X021924Y042113D02*
X022160Y042113D01*
X022160Y042191D02*
X021924Y042191D01*
X021924Y042269D02*
X022160Y042269D01*
X020822Y041985D02*
X020822Y041513D01*
X020822Y041985D02*
X021058Y041985D01*
X021058Y041513D01*
X020822Y041513D01*
X020822Y041591D02*
X021058Y041591D01*
X021058Y041669D02*
X020822Y041669D01*
X020822Y041747D02*
X021058Y041747D01*
X021058Y041825D02*
X020822Y041825D01*
X020822Y041903D02*
X021058Y041903D01*
X021058Y041981D02*
X020822Y041981D01*
X020074Y041985D02*
X020074Y041513D01*
X020074Y041985D02*
X020310Y041985D01*
X020310Y041513D01*
X020074Y041513D01*
X020074Y041591D02*
X020310Y041591D01*
X020310Y041669D02*
X020074Y041669D01*
X020074Y041747D02*
X020310Y041747D01*
X020310Y041825D02*
X020074Y041825D01*
X020074Y041903D02*
X020310Y041903D01*
X020310Y041981D02*
X020074Y041981D01*
X020074Y041080D02*
X020074Y040608D01*
X020074Y041080D02*
X020310Y041080D01*
X020310Y040608D01*
X020074Y040608D01*
X020074Y040686D02*
X020310Y040686D01*
X020310Y040764D02*
X020074Y040764D01*
X020074Y040842D02*
X020310Y040842D01*
X020310Y040920D02*
X020074Y040920D01*
X020074Y040998D02*
X020310Y040998D01*
X020310Y041076D02*
X020074Y041076D01*
X020448Y041080D02*
X020448Y040608D01*
X020448Y041080D02*
X020684Y041080D01*
X020684Y040608D01*
X020448Y040608D01*
X020448Y040686D02*
X020684Y040686D01*
X020684Y040764D02*
X020448Y040764D01*
X020448Y040842D02*
X020684Y040842D01*
X020684Y040920D02*
X020448Y040920D01*
X020448Y040998D02*
X020684Y040998D01*
X020684Y041076D02*
X020448Y041076D01*
X020822Y041080D02*
X020822Y040608D01*
X020822Y041080D02*
X021058Y041080D01*
X021058Y040608D01*
X020822Y040608D01*
X020822Y040686D02*
X021058Y040686D01*
X021058Y040764D02*
X020822Y040764D01*
X020822Y040842D02*
X021058Y040842D01*
X021058Y040920D02*
X020822Y040920D01*
X020822Y040998D02*
X021058Y040998D01*
X021058Y041076D02*
X020822Y041076D01*
X020940Y037980D02*
X020940Y037724D01*
X020940Y037980D02*
X021176Y037980D01*
X021176Y037724D01*
X020940Y037724D01*
X020940Y037802D02*
X021176Y037802D01*
X021176Y037880D02*
X020940Y037880D01*
X020940Y037958D02*
X021176Y037958D01*
X021334Y037980D02*
X021334Y037724D01*
X021334Y037980D02*
X021570Y037980D01*
X021570Y037724D01*
X021334Y037724D01*
X021334Y037802D02*
X021570Y037802D01*
X021570Y037880D02*
X021334Y037880D01*
X021334Y037958D02*
X021570Y037958D01*
X021570Y036799D02*
X021570Y036543D01*
X021334Y036543D01*
X021334Y036799D01*
X021570Y036799D01*
X021570Y036621D02*
X021334Y036621D01*
X021334Y036699D02*
X021570Y036699D01*
X021570Y036777D02*
X021334Y036777D01*
X021176Y036799D02*
X021176Y036543D01*
X020940Y036543D01*
X020940Y036799D01*
X021176Y036799D01*
X021176Y036621D02*
X020940Y036621D01*
X020940Y036699D02*
X021176Y036699D01*
X021176Y036777D02*
X020940Y036777D01*
X020940Y035617D02*
X020940Y035361D01*
X020940Y035617D02*
X021176Y035617D01*
X021176Y035361D01*
X020940Y035361D01*
X020940Y035439D02*
X021176Y035439D01*
X021176Y035517D02*
X020940Y035517D01*
X020940Y035595D02*
X021176Y035595D01*
X021334Y035617D02*
X021334Y035361D01*
X021334Y035617D02*
X021570Y035617D01*
X021570Y035361D01*
X021334Y035361D01*
X021334Y035439D02*
X021570Y035439D01*
X021570Y035517D02*
X021334Y035517D01*
X021334Y035595D02*
X021570Y035595D01*
X021767Y032271D02*
X021767Y032015D01*
X021531Y032015D01*
X021531Y032271D01*
X021767Y032271D01*
X021767Y032093D02*
X021531Y032093D01*
X021531Y032171D02*
X021767Y032171D01*
X021767Y032249D02*
X021531Y032249D01*
X021373Y032271D02*
X021373Y032015D01*
X021137Y032015D01*
X021137Y032271D01*
X021373Y032271D01*
X021373Y032093D02*
X021137Y032093D01*
X021137Y032171D02*
X021373Y032171D01*
X021373Y032249D02*
X021137Y032249D01*
X018233Y032458D02*
X017977Y032458D01*
X018233Y032458D02*
X018233Y032222D01*
X017977Y032222D01*
X017977Y032458D01*
X017977Y032300D02*
X018233Y032300D01*
X018233Y032378D02*
X017977Y032378D01*
X017977Y032456D02*
X018233Y032456D01*
X018233Y032064D02*
X017977Y032064D01*
X018233Y032064D02*
X018233Y031828D01*
X017977Y031828D01*
X017977Y032064D01*
X017977Y031906D02*
X018233Y031906D01*
X018233Y031984D02*
X017977Y031984D01*
X017977Y032062D02*
X018233Y032062D01*
X013302Y029368D02*
X013302Y029052D01*
X013302Y029368D02*
X013538Y029368D01*
X013538Y029052D01*
X013302Y029052D01*
X013302Y029130D02*
X013538Y029130D01*
X013538Y029208D02*
X013302Y029208D01*
X013302Y029286D02*
X013538Y029286D01*
X013538Y029364D02*
X013302Y029364D01*
X013302Y028384D02*
X013302Y028068D01*
X013302Y028384D02*
X013538Y028384D01*
X013538Y028068D01*
X013302Y028068D01*
X013302Y028146D02*
X013538Y028146D01*
X013538Y028224D02*
X013302Y028224D01*
X013302Y028302D02*
X013538Y028302D01*
X013538Y028380D02*
X013302Y028380D01*
X023686Y043836D02*
X023942Y043836D01*
X023686Y043836D02*
X023686Y044072D01*
X023942Y044072D01*
X023942Y043836D01*
X023942Y043914D02*
X023686Y043914D01*
X023686Y043992D02*
X023942Y043992D01*
X023942Y044070D02*
X023686Y044070D01*
X023686Y044230D02*
X023942Y044230D01*
X023686Y044230D02*
X023686Y044466D01*
X023942Y044466D01*
X023942Y044230D01*
X023942Y044308D02*
X023686Y044308D01*
X023686Y044386D02*
X023942Y044386D01*
X023942Y044464D02*
X023686Y044464D01*
X029562Y048649D02*
X029562Y048905D01*
X029562Y048649D02*
X029326Y048649D01*
X029326Y048905D01*
X029562Y048905D01*
X029562Y048727D02*
X029326Y048727D01*
X029326Y048805D02*
X029562Y048805D01*
X029562Y048883D02*
X029326Y048883D01*
X029956Y048905D02*
X029956Y048649D01*
X029720Y048649D01*
X029720Y048905D01*
X029956Y048905D01*
X029956Y048727D02*
X029720Y048727D01*
X029720Y048805D02*
X029956Y048805D01*
X029956Y048883D02*
X029720Y048883D01*
X027672Y051897D02*
X027672Y052153D01*
X027672Y051897D02*
X027436Y051897D01*
X027436Y052153D01*
X027672Y052153D01*
X027672Y051975D02*
X027436Y051975D01*
X027436Y052053D02*
X027672Y052053D01*
X027672Y052131D02*
X027436Y052131D01*
X027279Y052153D02*
X027279Y051897D01*
X027043Y051897D01*
X027043Y052153D01*
X027279Y052153D01*
X027279Y051975D02*
X027043Y051975D01*
X027043Y052053D02*
X027279Y052053D01*
X027279Y052131D02*
X027043Y052131D01*
X022564Y051907D02*
X022308Y051907D01*
X022308Y052143D01*
X022564Y052143D01*
X022564Y051907D01*
X022564Y051985D02*
X022308Y051985D01*
X022308Y052063D02*
X022564Y052063D01*
X022564Y052141D02*
X022308Y052141D01*
X022308Y052301D02*
X022564Y052301D01*
X022308Y052301D02*
X022308Y052537D01*
X022564Y052537D01*
X022564Y052301D01*
X022564Y052379D02*
X022308Y052379D01*
X022308Y052457D02*
X022564Y052457D01*
X022564Y052535D02*
X022308Y052535D01*
X022308Y053048D02*
X022564Y053048D01*
X022564Y052812D01*
X022308Y052812D01*
X022308Y053048D01*
X022308Y052890D02*
X022564Y052890D01*
X022564Y052968D02*
X022308Y052968D01*
X022308Y053046D02*
X022564Y053046D01*
X022564Y053442D02*
X022308Y053442D01*
X022564Y053442D02*
X022564Y053206D01*
X022308Y053206D01*
X022308Y053442D01*
X022308Y053284D02*
X022564Y053284D01*
X022564Y053362D02*
X022308Y053362D01*
X022308Y053440D02*
X022564Y053440D01*
X034277Y040529D02*
X034533Y040529D01*
X034533Y040293D01*
X034277Y040293D01*
X034277Y040529D01*
X034277Y040371D02*
X034533Y040371D01*
X034533Y040449D02*
X034277Y040449D01*
X034277Y040527D02*
X034533Y040527D01*
X034533Y040135D02*
X034277Y040135D01*
X034533Y040135D02*
X034533Y039899D01*
X034277Y039899D01*
X034277Y040135D01*
X034277Y039977D02*
X034533Y039977D01*
X034533Y040055D02*
X034277Y040055D01*
X034277Y040133D02*
X034533Y040133D01*
X036285Y038324D02*
X036541Y038324D01*
X036285Y038324D02*
X036285Y038560D01*
X036541Y038560D01*
X036541Y038324D01*
X036541Y038402D02*
X036285Y038402D01*
X036285Y038480D02*
X036541Y038480D01*
X036541Y038558D02*
X036285Y038558D01*
X036285Y037931D02*
X036541Y037931D01*
X036285Y037931D02*
X036285Y038167D01*
X036541Y038167D01*
X036541Y037931D01*
X036541Y038009D02*
X036285Y038009D01*
X036285Y038087D02*
X036541Y038087D01*
X036541Y038165D02*
X036285Y038165D01*
X036285Y036985D02*
X036541Y036985D01*
X036541Y036749D01*
X036285Y036749D01*
X036285Y036985D01*
X036285Y036827D02*
X036541Y036827D01*
X036541Y036905D02*
X036285Y036905D01*
X036285Y036983D02*
X036541Y036983D01*
X036541Y036592D02*
X036285Y036592D01*
X036541Y036592D02*
X036541Y036356D01*
X036285Y036356D01*
X036285Y036592D01*
X036285Y036434D02*
X036541Y036434D01*
X036541Y036512D02*
X036285Y036512D01*
X036285Y036590D02*
X036541Y036590D01*
X035517Y036356D02*
X035261Y036356D01*
X035261Y036592D01*
X035517Y036592D01*
X035517Y036356D01*
X035517Y036434D02*
X035261Y036434D01*
X035261Y036512D02*
X035517Y036512D01*
X035517Y036590D02*
X035261Y036590D01*
X035261Y036749D02*
X035517Y036749D01*
X035261Y036749D02*
X035261Y036985D01*
X035517Y036985D01*
X035517Y036749D01*
X035517Y036827D02*
X035261Y036827D01*
X035261Y036905D02*
X035517Y036905D01*
X035517Y036983D02*
X035261Y036983D01*
X034572Y036749D02*
X034316Y036749D01*
X034316Y036985D01*
X034572Y036985D01*
X034572Y036749D01*
X034572Y036827D02*
X034316Y036827D01*
X034316Y036905D02*
X034572Y036905D01*
X034572Y036983D02*
X034316Y036983D01*
X034316Y036356D02*
X034572Y036356D01*
X034316Y036356D02*
X034316Y036592D01*
X034572Y036592D01*
X034572Y036356D01*
X034572Y036434D02*
X034316Y036434D01*
X034316Y036512D02*
X034572Y036512D01*
X034572Y036590D02*
X034316Y036590D01*
X035103Y035214D02*
X035359Y035214D01*
X035359Y034978D01*
X035103Y034978D01*
X035103Y035214D01*
X035103Y035056D02*
X035359Y035056D01*
X035359Y035134D02*
X035103Y035134D01*
X035103Y035212D02*
X035359Y035212D01*
X035359Y034820D02*
X035103Y034820D01*
X035359Y034820D02*
X035359Y034584D01*
X035103Y034584D01*
X035103Y034820D01*
X035103Y034662D02*
X035359Y034662D01*
X035359Y034740D02*
X035103Y034740D01*
X035103Y034818D02*
X035359Y034818D01*
X036285Y034820D02*
X036541Y034820D01*
X036541Y034584D01*
X036285Y034584D01*
X036285Y034820D01*
X036285Y034662D02*
X036541Y034662D01*
X036541Y034740D02*
X036285Y034740D01*
X036285Y034818D02*
X036541Y034818D01*
X036541Y035214D02*
X036285Y035214D01*
X036541Y035214D02*
X036541Y034978D01*
X036285Y034978D01*
X036285Y035214D01*
X036285Y035056D02*
X036541Y035056D01*
X036541Y035134D02*
X036285Y035134D01*
X036285Y035212D02*
X036541Y035212D01*
X032604Y035214D02*
X032348Y035214D01*
X032604Y035214D02*
X032604Y034978D01*
X032348Y034978D01*
X032348Y035214D01*
X032348Y035056D02*
X032604Y035056D01*
X032604Y035134D02*
X032348Y035134D01*
X032348Y035212D02*
X032604Y035212D01*
X032604Y034820D02*
X032348Y034820D01*
X032604Y034820D02*
X032604Y034584D01*
X032348Y034584D01*
X032348Y034820D01*
X032348Y034662D02*
X032604Y034662D01*
X032604Y034740D02*
X032348Y034740D01*
X032348Y034818D02*
X032604Y034818D01*
X032604Y033048D02*
X032348Y033048D01*
X032604Y033048D02*
X032604Y032812D01*
X032348Y032812D01*
X032348Y033048D01*
X032348Y032890D02*
X032604Y032890D01*
X032604Y032968D02*
X032348Y032968D01*
X032348Y033046D02*
X032604Y033046D01*
X032604Y032655D02*
X032348Y032655D01*
X032604Y032655D02*
X032604Y032419D01*
X032348Y032419D01*
X032348Y032655D01*
X032348Y032497D02*
X032604Y032497D01*
X032604Y032575D02*
X032348Y032575D01*
X032348Y032653D02*
X032604Y032653D01*
X031422Y032419D02*
X031166Y032419D01*
X031166Y032655D01*
X031422Y032655D01*
X031422Y032419D01*
X031422Y032497D02*
X031166Y032497D01*
X031166Y032575D02*
X031422Y032575D01*
X031422Y032653D02*
X031166Y032653D01*
X031166Y032812D02*
X031422Y032812D01*
X031166Y032812D02*
X031166Y033048D01*
X031422Y033048D01*
X031422Y032812D01*
X031422Y032890D02*
X031166Y032890D01*
X031166Y032968D02*
X031422Y032968D01*
X031422Y033046D02*
X031166Y033046D01*
X029493Y035804D02*
X029237Y035804D01*
X029493Y035804D02*
X029493Y035568D01*
X029237Y035568D01*
X029237Y035804D01*
X029237Y035646D02*
X029493Y035646D01*
X029493Y035724D02*
X029237Y035724D01*
X029237Y035802D02*
X029493Y035802D01*
X029493Y036198D02*
X029237Y036198D01*
X029493Y036198D02*
X029493Y035962D01*
X029237Y035962D01*
X029237Y036198D01*
X029237Y036040D02*
X029493Y036040D01*
X029493Y036118D02*
X029237Y036118D01*
X029237Y036196D02*
X029493Y036196D01*
X029985Y029269D02*
X030241Y029269D01*
X029985Y029269D02*
X029985Y029505D01*
X030241Y029505D01*
X030241Y029269D01*
X030241Y029347D02*
X029985Y029347D01*
X029985Y029425D02*
X030241Y029425D01*
X030241Y029503D02*
X029985Y029503D01*
X029985Y028875D02*
X030241Y028875D01*
X029985Y028875D02*
X029985Y029111D01*
X030241Y029111D01*
X030241Y028875D01*
X030241Y028953D02*
X029985Y028953D01*
X029985Y029031D02*
X030241Y029031D01*
X030241Y029109D02*
X029985Y029109D01*
X029985Y028088D02*
X030241Y028088D01*
X029985Y028088D02*
X029985Y028324D01*
X030241Y028324D01*
X030241Y028088D01*
X030241Y028166D02*
X029985Y028166D01*
X029985Y028244D02*
X030241Y028244D01*
X030241Y028322D02*
X029985Y028322D01*
X029985Y027694D02*
X030241Y027694D01*
X029985Y027694D02*
X029985Y027930D01*
X030241Y027930D01*
X030241Y027694D01*
X030241Y027772D02*
X029985Y027772D01*
X029985Y027850D02*
X030241Y027850D01*
X030241Y027928D02*
X029985Y027928D01*
D16*
X030290Y056769D02*
X029740Y056769D01*
X029740Y057123D01*
X030290Y057123D01*
X030290Y056769D01*
X030290Y056886D02*
X029740Y056886D01*
X029740Y057003D02*
X030290Y057003D01*
X030290Y057120D02*
X029740Y057120D01*
X029306Y056769D02*
X028756Y056769D01*
X028756Y057123D01*
X029306Y057123D01*
X029306Y056769D01*
X029306Y056886D02*
X028756Y056886D01*
X028756Y057003D02*
X029306Y057003D01*
X029306Y057120D02*
X028756Y057120D01*
X028125Y056769D02*
X027575Y056769D01*
X027575Y057123D01*
X028125Y057123D01*
X028125Y056769D01*
X028125Y056886D02*
X027575Y056886D01*
X027575Y057003D02*
X028125Y057003D01*
X028125Y057120D02*
X027575Y057120D01*
X027140Y056769D02*
X026590Y056769D01*
X026590Y057123D01*
X027140Y057123D01*
X027140Y056769D01*
X027140Y056886D02*
X026590Y056886D01*
X026590Y057003D02*
X027140Y057003D01*
X027140Y057120D02*
X026590Y057120D01*
X025959Y056769D02*
X025409Y056769D01*
X025409Y057123D01*
X025959Y057123D01*
X025959Y056769D01*
X025959Y056886D02*
X025409Y056886D01*
X025409Y057003D02*
X025959Y057003D01*
X025959Y057120D02*
X025409Y057120D01*
X024975Y056769D02*
X024425Y056769D01*
X024425Y057123D01*
X024975Y057123D01*
X024975Y056769D01*
X024975Y056886D02*
X024425Y056886D01*
X024425Y057003D02*
X024975Y057003D01*
X024975Y057120D02*
X024425Y057120D01*
X023794Y056769D02*
X023244Y056769D01*
X023244Y057123D01*
X023794Y057123D01*
X023794Y056769D01*
X023794Y056886D02*
X023244Y056886D01*
X023244Y057003D02*
X023794Y057003D01*
X023794Y057120D02*
X023244Y057120D01*
X022810Y056769D02*
X022260Y056769D01*
X022260Y057123D01*
X022810Y057123D01*
X022810Y056769D01*
X022810Y056886D02*
X022260Y056886D01*
X022260Y057003D02*
X022810Y057003D01*
X022810Y057120D02*
X022260Y057120D01*
D17*
X020069Y037907D02*
X019193Y037907D01*
X019193Y038115D01*
X020069Y038115D01*
X020069Y037907D01*
X020069Y037975D02*
X019193Y037975D01*
X019193Y038043D02*
X020069Y038043D01*
X020069Y038111D02*
X019193Y038111D01*
X019193Y037407D02*
X020069Y037407D01*
X019193Y037407D02*
X019193Y037615D01*
X020069Y037615D01*
X020069Y037407D01*
X020069Y037475D02*
X019193Y037475D01*
X019193Y037543D02*
X020069Y037543D01*
X020069Y037611D02*
X019193Y037611D01*
X019193Y036907D02*
X020069Y036907D01*
X019193Y036907D02*
X019193Y037115D01*
X020069Y037115D01*
X020069Y036907D01*
X020069Y036975D02*
X019193Y036975D01*
X019193Y037043D02*
X020069Y037043D01*
X020069Y037111D02*
X019193Y037111D01*
X019193Y036407D02*
X020069Y036407D01*
X019193Y036407D02*
X019193Y036615D01*
X020069Y036615D01*
X020069Y036407D01*
X020069Y036475D02*
X019193Y036475D01*
X019193Y036543D02*
X020069Y036543D01*
X020069Y036611D02*
X019193Y036611D01*
X017805Y036407D02*
X016929Y036407D01*
X016929Y036615D01*
X017805Y036615D01*
X017805Y036407D01*
X017805Y036475D02*
X016929Y036475D01*
X016929Y036543D02*
X017805Y036543D01*
X017805Y036611D02*
X016929Y036611D01*
X016929Y036907D02*
X017805Y036907D01*
X016929Y036907D02*
X016929Y037115D01*
X017805Y037115D01*
X017805Y036907D01*
X017805Y036975D02*
X016929Y036975D01*
X016929Y037043D02*
X017805Y037043D01*
X017805Y037111D02*
X016929Y037111D01*
X016929Y037407D02*
X017805Y037407D01*
X016929Y037407D02*
X016929Y037615D01*
X017805Y037615D01*
X017805Y037407D01*
X017805Y037475D02*
X016929Y037475D01*
X016929Y037543D02*
X017805Y037543D01*
X017805Y037611D02*
X016929Y037611D01*
X016929Y037907D02*
X017805Y037907D01*
X016929Y037907D02*
X016929Y038115D01*
X017805Y038115D01*
X017805Y037907D01*
X017805Y037975D02*
X016929Y037975D01*
X016929Y038043D02*
X017805Y038043D01*
X017805Y038111D02*
X016929Y038111D01*
D18*
X018499Y037261D03*
D19*
X017528Y033031D02*
X016518Y033031D01*
X017528Y033031D02*
X017528Y032633D01*
X016518Y032633D01*
X016518Y033031D01*
X016518Y032765D02*
X017528Y032765D01*
X017528Y032897D02*
X016518Y032897D01*
X016518Y033029D02*
X017528Y033029D01*
X017528Y031850D02*
X016518Y031850D01*
X017528Y031850D02*
X017528Y031452D01*
X016518Y031452D01*
X016518Y031850D01*
X016518Y031584D02*
X017528Y031584D01*
X017528Y031716D02*
X016518Y031716D01*
X016518Y031848D02*
X017528Y031848D01*
X014363Y036008D02*
X014363Y037018D01*
X014761Y037018D01*
X014761Y036008D01*
X014363Y036008D01*
X014363Y036140D02*
X014761Y036140D01*
X014761Y036272D02*
X014363Y036272D01*
X014363Y036404D02*
X014761Y036404D01*
X014761Y036536D02*
X014363Y036536D01*
X014363Y036668D02*
X014761Y036668D01*
X014761Y036800D02*
X014363Y036800D01*
X014363Y036932D02*
X014761Y036932D01*
X014363Y037544D02*
X014363Y038554D01*
X014761Y038554D01*
X014761Y037544D01*
X014363Y037544D01*
X014363Y037676D02*
X014761Y037676D01*
X014761Y037808D02*
X014363Y037808D01*
X014363Y037940D02*
X014761Y037940D01*
X014761Y038072D02*
X014363Y038072D01*
X014363Y038204D02*
X014761Y038204D01*
X014761Y038336D02*
X014363Y038336D01*
X014363Y038468D02*
X014761Y038468D01*
X013182Y038554D02*
X013182Y037544D01*
X013182Y038554D02*
X013580Y038554D01*
X013580Y037544D01*
X013182Y037544D01*
X013182Y037676D02*
X013580Y037676D01*
X013580Y037808D02*
X013182Y037808D01*
X013182Y037940D02*
X013580Y037940D01*
X013580Y038072D02*
X013182Y038072D01*
X013182Y038204D02*
X013580Y038204D01*
X013580Y038336D02*
X013182Y038336D01*
X013182Y038468D02*
X013580Y038468D01*
X013182Y037018D02*
X013182Y036008D01*
X013182Y037018D02*
X013580Y037018D01*
X013580Y036008D01*
X013182Y036008D01*
X013182Y036140D02*
X013580Y036140D01*
X013580Y036272D02*
X013182Y036272D01*
X013182Y036404D02*
X013580Y036404D01*
X013580Y036536D02*
X013182Y036536D01*
X013182Y036668D02*
X013580Y036668D01*
X013580Y036800D02*
X013182Y036800D01*
X013182Y036932D02*
X013580Y036932D01*
X027025Y052810D02*
X027025Y053406D01*
X027025Y052810D02*
X026627Y052810D01*
X026627Y053406D01*
X027025Y053406D01*
X027025Y052942D02*
X026627Y052942D01*
X026627Y053074D02*
X027025Y053074D01*
X027025Y053206D02*
X026627Y053206D01*
X026627Y053338D02*
X027025Y053338D01*
X028206Y053406D02*
X028206Y052810D01*
X027808Y052810D01*
X027808Y053406D01*
X028206Y053406D01*
X028206Y052942D02*
X027808Y052942D01*
X027808Y053074D02*
X028206Y053074D01*
X028206Y053206D02*
X027808Y053206D01*
X027808Y053338D02*
X028206Y053338D01*
X031183Y044350D02*
X032193Y044350D01*
X032193Y043952D01*
X031183Y043952D01*
X031183Y044350D01*
X031183Y044084D02*
X032193Y044084D01*
X032193Y044216D02*
X031183Y044216D01*
X031183Y044348D02*
X032193Y044348D01*
X032193Y043169D02*
X031183Y043169D01*
X032193Y043169D02*
X032193Y042771D01*
X031183Y042771D01*
X031183Y043169D01*
X031183Y042903D02*
X032193Y042903D01*
X032193Y043035D02*
X031183Y043035D01*
X031183Y043167D02*
X032193Y043167D01*
X031248Y034700D02*
X030238Y034700D01*
X030238Y035098D01*
X031248Y035098D01*
X031248Y034700D01*
X031248Y034832D02*
X030238Y034832D01*
X030238Y034964D02*
X031248Y034964D01*
X031248Y035096D02*
X030238Y035096D01*
X030238Y033519D02*
X031248Y033519D01*
X030238Y033519D02*
X030238Y033917D01*
X031248Y033917D01*
X031248Y033519D01*
X031248Y033651D02*
X030238Y033651D01*
X030238Y033783D02*
X031248Y033783D01*
X031248Y033915D02*
X030238Y033915D01*
X030343Y030960D02*
X029333Y030960D01*
X029333Y031358D01*
X030343Y031358D01*
X030343Y030960D01*
X030343Y031092D02*
X029333Y031092D01*
X029333Y031224D02*
X030343Y031224D01*
X030343Y031356D02*
X029333Y031356D01*
X029333Y029779D02*
X030343Y029779D01*
X029333Y029779D02*
X029333Y030177D01*
X030343Y030177D01*
X030343Y029779D01*
X030343Y029911D02*
X029333Y029911D01*
X029333Y030043D02*
X030343Y030043D01*
X030343Y030175D02*
X029333Y030175D01*
X036301Y030369D02*
X037311Y030369D01*
X036301Y030369D02*
X036301Y030767D01*
X037311Y030767D01*
X037311Y030369D01*
X037311Y030501D02*
X036301Y030501D01*
X036301Y030633D02*
X037311Y030633D01*
X037311Y030765D02*
X036301Y030765D01*
X036301Y029188D02*
X037311Y029188D01*
X036301Y029188D02*
X036301Y029586D01*
X037311Y029586D01*
X037311Y029188D01*
X037311Y029320D02*
X036301Y029320D01*
X036301Y029452D02*
X037311Y029452D01*
X037311Y029584D02*
X036301Y029584D01*
D20*
X025086Y036474D03*
X033417Y055600D03*
X034417Y055600D03*
X035417Y055600D03*
D21*
X015448Y051828D03*
D22*
X015448Y050844D03*
X014464Y050844D03*
X014464Y051828D03*
X014464Y049860D03*
X015448Y049860D03*
D23*
X017318Y048285D03*
X028224Y049072D03*
X029405Y051738D03*
X031228Y041395D03*
X023684Y032537D03*
D24*
X022684Y032537D03*
X032228Y041395D03*
X028224Y047072D03*
X028224Y048072D03*
X029405Y050738D03*
X017318Y050285D03*
X017318Y049285D03*
D25*
X014100Y020854D02*
X013056Y020854D01*
X014100Y020854D02*
X014100Y020204D01*
X013056Y020204D01*
X013056Y020854D01*
X013056Y020420D02*
X014100Y020420D01*
X014100Y020636D02*
X013056Y020636D01*
X013056Y020852D02*
X014100Y020852D01*
X014100Y023216D02*
X013056Y023216D01*
X014100Y023216D02*
X014100Y022566D01*
X013056Y022566D01*
X013056Y023216D01*
X013056Y022782D02*
X014100Y022782D01*
X014100Y022998D02*
X013056Y022998D01*
X013056Y023214D02*
X014100Y023214D01*
X017387Y023216D02*
X018431Y023216D01*
X018431Y022566D01*
X017387Y022566D01*
X017387Y023216D01*
X017387Y022782D02*
X018431Y022782D01*
X018431Y022998D02*
X017387Y022998D01*
X017387Y023214D02*
X018431Y023214D01*
X018431Y020854D02*
X017387Y020854D01*
X018431Y020854D02*
X018431Y020204D01*
X017387Y020204D01*
X017387Y020854D01*
X017387Y020420D02*
X018431Y020420D01*
X018431Y020636D02*
X017387Y020636D01*
X017387Y020852D02*
X018431Y020852D01*
X021029Y029653D02*
X021875Y029653D01*
X021029Y029653D02*
X021029Y030303D01*
X021875Y030303D01*
X021875Y029653D01*
X021875Y029869D02*
X021029Y029869D01*
X021029Y030085D02*
X021875Y030085D01*
X021875Y030301D02*
X021029Y030301D01*
X021029Y030834D02*
X021875Y030834D01*
X021029Y030834D02*
X021029Y031484D01*
X021875Y031484D01*
X021875Y030834D01*
X021875Y031050D02*
X021029Y031050D01*
X021029Y031266D02*
X021875Y031266D01*
X021875Y031482D02*
X021029Y031482D01*
X024966Y030834D02*
X025812Y030834D01*
X024966Y030834D02*
X024966Y031484D01*
X025812Y031484D01*
X025812Y030834D01*
X025812Y031050D02*
X024966Y031050D01*
X024966Y031266D02*
X025812Y031266D01*
X025812Y031482D02*
X024966Y031482D01*
X024966Y029653D02*
X025812Y029653D01*
X024966Y029653D02*
X024966Y030303D01*
X025812Y030303D01*
X025812Y029653D01*
X025812Y029869D02*
X024966Y029869D01*
X024966Y030085D02*
X025812Y030085D01*
X025812Y030301D02*
X024966Y030301D01*
D26*
X025069Y044786D02*
X025069Y045288D01*
X025069Y044786D02*
X024921Y044786D01*
X024921Y045288D01*
X025069Y045288D01*
X025069Y044834D02*
X024921Y044834D01*
X024921Y044882D02*
X025069Y044882D01*
X025069Y044930D02*
X024921Y044930D01*
X024921Y044978D02*
X025069Y044978D01*
X025069Y045026D02*
X024921Y045026D01*
X024921Y045074D02*
X025069Y045074D01*
X025069Y045122D02*
X024921Y045122D01*
X024921Y045170D02*
X025069Y045170D01*
X025069Y045218D02*
X024921Y045218D01*
X024921Y045266D02*
X025069Y045266D01*
X025266Y045288D02*
X025266Y044786D01*
X025118Y044786D01*
X025118Y045288D01*
X025266Y045288D01*
X025266Y044834D02*
X025118Y044834D01*
X025118Y044882D02*
X025266Y044882D01*
X025266Y044930D02*
X025118Y044930D01*
X025118Y044978D02*
X025266Y044978D01*
X025266Y045026D02*
X025118Y045026D01*
X025118Y045074D02*
X025266Y045074D01*
X025266Y045122D02*
X025118Y045122D01*
X025118Y045170D02*
X025266Y045170D01*
X025266Y045218D02*
X025118Y045218D01*
X025118Y045266D02*
X025266Y045266D01*
X025463Y045288D02*
X025463Y044786D01*
X025315Y044786D01*
X025315Y045288D01*
X025463Y045288D01*
X025463Y044834D02*
X025315Y044834D01*
X025315Y044882D02*
X025463Y044882D01*
X025463Y044930D02*
X025315Y044930D01*
X025315Y044978D02*
X025463Y044978D01*
X025463Y045026D02*
X025315Y045026D01*
X025315Y045074D02*
X025463Y045074D01*
X025463Y045122D02*
X025315Y045122D01*
X025315Y045170D02*
X025463Y045170D01*
X025463Y045218D02*
X025315Y045218D01*
X025315Y045266D02*
X025463Y045266D01*
X025660Y045288D02*
X025660Y044786D01*
X025512Y044786D01*
X025512Y045288D01*
X025660Y045288D01*
X025660Y044834D02*
X025512Y044834D01*
X025512Y044882D02*
X025660Y044882D01*
X025660Y044930D02*
X025512Y044930D01*
X025512Y044978D02*
X025660Y044978D01*
X025660Y045026D02*
X025512Y045026D01*
X025512Y045074D02*
X025660Y045074D01*
X025660Y045122D02*
X025512Y045122D01*
X025512Y045170D02*
X025660Y045170D01*
X025660Y045218D02*
X025512Y045218D01*
X025512Y045266D02*
X025660Y045266D01*
X025857Y045288D02*
X025857Y044786D01*
X025709Y044786D01*
X025709Y045288D01*
X025857Y045288D01*
X025857Y044834D02*
X025709Y044834D01*
X025709Y044882D02*
X025857Y044882D01*
X025857Y044930D02*
X025709Y044930D01*
X025709Y044978D02*
X025857Y044978D01*
X025857Y045026D02*
X025709Y045026D01*
X025709Y045074D02*
X025857Y045074D01*
X025857Y045122D02*
X025709Y045122D01*
X025709Y045170D02*
X025857Y045170D01*
X025857Y045218D02*
X025709Y045218D01*
X025709Y045266D02*
X025857Y045266D01*
X026054Y045288D02*
X026054Y044786D01*
X025906Y044786D01*
X025906Y045288D01*
X026054Y045288D01*
X026054Y044834D02*
X025906Y044834D01*
X025906Y044882D02*
X026054Y044882D01*
X026054Y044930D02*
X025906Y044930D01*
X025906Y044978D02*
X026054Y044978D01*
X026054Y045026D02*
X025906Y045026D01*
X025906Y045074D02*
X026054Y045074D01*
X026054Y045122D02*
X025906Y045122D01*
X025906Y045170D02*
X026054Y045170D01*
X026054Y045218D02*
X025906Y045218D01*
X025906Y045266D02*
X026054Y045266D01*
X026250Y045288D02*
X026250Y044786D01*
X026102Y044786D01*
X026102Y045288D01*
X026250Y045288D01*
X026250Y044834D02*
X026102Y044834D01*
X026102Y044882D02*
X026250Y044882D01*
X026250Y044930D02*
X026102Y044930D01*
X026102Y044978D02*
X026250Y044978D01*
X026250Y045026D02*
X026102Y045026D01*
X026102Y045074D02*
X026250Y045074D01*
X026250Y045122D02*
X026102Y045122D01*
X026102Y045170D02*
X026250Y045170D01*
X026250Y045218D02*
X026102Y045218D01*
X026102Y045266D02*
X026250Y045266D01*
X026516Y045701D02*
X027018Y045701D01*
X027018Y045553D01*
X026516Y045553D01*
X026516Y045701D01*
X026516Y045601D02*
X027018Y045601D01*
X027018Y045649D02*
X026516Y045649D01*
X026516Y045697D02*
X027018Y045697D01*
X027018Y045898D02*
X026516Y045898D01*
X027018Y045898D02*
X027018Y045750D01*
X026516Y045750D01*
X026516Y045898D01*
X026516Y045798D02*
X027018Y045798D01*
X027018Y045846D02*
X026516Y045846D01*
X026516Y045894D02*
X027018Y045894D01*
X027018Y046095D02*
X026516Y046095D01*
X027018Y046095D02*
X027018Y045947D01*
X026516Y045947D01*
X026516Y046095D01*
X026516Y045995D02*
X027018Y045995D01*
X027018Y046043D02*
X026516Y046043D01*
X026516Y046091D02*
X027018Y046091D01*
X027018Y046292D02*
X026516Y046292D01*
X027018Y046292D02*
X027018Y046144D01*
X026516Y046144D01*
X026516Y046292D01*
X026516Y046192D02*
X027018Y046192D01*
X027018Y046240D02*
X026516Y046240D01*
X026516Y046288D02*
X027018Y046288D01*
X027018Y046489D02*
X026516Y046489D01*
X027018Y046489D02*
X027018Y046341D01*
X026516Y046341D01*
X026516Y046489D01*
X026516Y046389D02*
X027018Y046389D01*
X027018Y046437D02*
X026516Y046437D01*
X026516Y046485D02*
X027018Y046485D01*
X027018Y046686D02*
X026516Y046686D01*
X027018Y046686D02*
X027018Y046538D01*
X026516Y046538D01*
X026516Y046686D01*
X026516Y046586D02*
X027018Y046586D01*
X027018Y046634D02*
X026516Y046634D01*
X026516Y046682D02*
X027018Y046682D01*
X027018Y046882D02*
X026516Y046882D01*
X027018Y046882D02*
X027018Y046734D01*
X026516Y046734D01*
X026516Y046882D01*
X026516Y046782D02*
X027018Y046782D01*
X027018Y046830D02*
X026516Y046830D01*
X026516Y046878D02*
X027018Y046878D01*
X027018Y047079D02*
X026516Y047079D01*
X027018Y047079D02*
X027018Y046931D01*
X026516Y046931D01*
X026516Y047079D01*
X026516Y046979D02*
X027018Y046979D01*
X027018Y047027D02*
X026516Y047027D01*
X026516Y047075D02*
X027018Y047075D01*
X027018Y047276D02*
X026516Y047276D01*
X027018Y047276D02*
X027018Y047128D01*
X026516Y047128D01*
X026516Y047276D01*
X026516Y047176D02*
X027018Y047176D01*
X027018Y047224D02*
X026516Y047224D01*
X026516Y047272D02*
X027018Y047272D01*
X027018Y047473D02*
X026516Y047473D01*
X027018Y047473D02*
X027018Y047325D01*
X026516Y047325D01*
X026516Y047473D01*
X026516Y047373D02*
X027018Y047373D01*
X027018Y047421D02*
X026516Y047421D01*
X026516Y047469D02*
X027018Y047469D01*
X027018Y047670D02*
X026516Y047670D01*
X027018Y047670D02*
X027018Y047522D01*
X026516Y047522D01*
X026516Y047670D01*
X026516Y047570D02*
X027018Y047570D01*
X027018Y047618D02*
X026516Y047618D01*
X026516Y047666D02*
X027018Y047666D01*
X027018Y047867D02*
X026516Y047867D01*
X027018Y047867D02*
X027018Y047719D01*
X026516Y047719D01*
X026516Y047867D01*
X026516Y047767D02*
X027018Y047767D01*
X027018Y047815D02*
X026516Y047815D01*
X026516Y047863D02*
X027018Y047863D01*
X027018Y048063D02*
X026516Y048063D01*
X027018Y048063D02*
X027018Y047915D01*
X026516Y047915D01*
X026516Y048063D01*
X026516Y047963D02*
X027018Y047963D01*
X027018Y048011D02*
X026516Y048011D01*
X026516Y048059D02*
X027018Y048059D01*
X027018Y048260D02*
X026516Y048260D01*
X027018Y048260D02*
X027018Y048112D01*
X026516Y048112D01*
X026516Y048260D01*
X026516Y048160D02*
X027018Y048160D01*
X027018Y048208D02*
X026516Y048208D01*
X026516Y048256D02*
X027018Y048256D01*
X027018Y048457D02*
X026516Y048457D01*
X027018Y048457D02*
X027018Y048309D01*
X026516Y048309D01*
X026516Y048457D01*
X026516Y048357D02*
X027018Y048357D01*
X027018Y048405D02*
X026516Y048405D01*
X026516Y048453D02*
X027018Y048453D01*
X027018Y048654D02*
X026516Y048654D01*
X027018Y048654D02*
X027018Y048506D01*
X026516Y048506D01*
X026516Y048654D01*
X026516Y048554D02*
X027018Y048554D01*
X027018Y048602D02*
X026516Y048602D01*
X026516Y048650D02*
X027018Y048650D01*
X027018Y048851D02*
X026516Y048851D01*
X027018Y048851D02*
X027018Y048703D01*
X026516Y048703D01*
X026516Y048851D01*
X026516Y048751D02*
X027018Y048751D01*
X027018Y048799D02*
X026516Y048799D01*
X026516Y048847D02*
X027018Y048847D01*
X027018Y049048D02*
X026516Y049048D01*
X027018Y049048D02*
X027018Y048900D01*
X026516Y048900D01*
X026516Y049048D01*
X026516Y048948D02*
X027018Y048948D01*
X027018Y048996D02*
X026516Y048996D01*
X026516Y049044D02*
X027018Y049044D01*
X027018Y049245D02*
X026516Y049245D01*
X027018Y049245D02*
X027018Y049097D01*
X026516Y049097D01*
X026516Y049245D01*
X026516Y049145D02*
X027018Y049145D01*
X027018Y049193D02*
X026516Y049193D01*
X026516Y049241D02*
X027018Y049241D01*
X027018Y049441D02*
X026516Y049441D01*
X027018Y049441D02*
X027018Y049293D01*
X026516Y049293D01*
X026516Y049441D01*
X026516Y049341D02*
X027018Y049341D01*
X027018Y049389D02*
X026516Y049389D01*
X026516Y049437D02*
X027018Y049437D01*
X027018Y049638D02*
X026516Y049638D01*
X027018Y049638D02*
X027018Y049490D01*
X026516Y049490D01*
X026516Y049638D01*
X026516Y049538D02*
X027018Y049538D01*
X027018Y049586D02*
X026516Y049586D01*
X026516Y049634D02*
X027018Y049634D01*
X027018Y049835D02*
X026516Y049835D01*
X027018Y049835D02*
X027018Y049687D01*
X026516Y049687D01*
X026516Y049835D01*
X026516Y049735D02*
X027018Y049735D01*
X027018Y049783D02*
X026516Y049783D01*
X026516Y049831D02*
X027018Y049831D01*
X027018Y050032D02*
X026516Y050032D01*
X027018Y050032D02*
X027018Y049884D01*
X026516Y049884D01*
X026516Y050032D01*
X026516Y049932D02*
X027018Y049932D01*
X027018Y049980D02*
X026516Y049980D01*
X026516Y050028D02*
X027018Y050028D01*
X027018Y050229D02*
X026516Y050229D01*
X027018Y050229D02*
X027018Y050081D01*
X026516Y050081D01*
X026516Y050229D01*
X026516Y050129D02*
X027018Y050129D01*
X027018Y050177D02*
X026516Y050177D01*
X026516Y050225D02*
X027018Y050225D01*
X027018Y050426D02*
X026516Y050426D01*
X027018Y050426D02*
X027018Y050278D01*
X026516Y050278D01*
X026516Y050426D01*
X026516Y050326D02*
X027018Y050326D01*
X027018Y050374D02*
X026516Y050374D01*
X026516Y050422D02*
X027018Y050422D01*
X026102Y050691D02*
X026102Y051193D01*
X026250Y051193D01*
X026250Y050691D01*
X026102Y050691D01*
X026102Y050739D02*
X026250Y050739D01*
X026250Y050787D02*
X026102Y050787D01*
X026102Y050835D02*
X026250Y050835D01*
X026250Y050883D02*
X026102Y050883D01*
X026102Y050931D02*
X026250Y050931D01*
X026250Y050979D02*
X026102Y050979D01*
X026102Y051027D02*
X026250Y051027D01*
X026250Y051075D02*
X026102Y051075D01*
X026102Y051123D02*
X026250Y051123D01*
X026250Y051171D02*
X026102Y051171D01*
X025906Y051193D02*
X025906Y050691D01*
X025906Y051193D02*
X026054Y051193D01*
X026054Y050691D01*
X025906Y050691D01*
X025906Y050739D02*
X026054Y050739D01*
X026054Y050787D02*
X025906Y050787D01*
X025906Y050835D02*
X026054Y050835D01*
X026054Y050883D02*
X025906Y050883D01*
X025906Y050931D02*
X026054Y050931D01*
X026054Y050979D02*
X025906Y050979D01*
X025906Y051027D02*
X026054Y051027D01*
X026054Y051075D02*
X025906Y051075D01*
X025906Y051123D02*
X026054Y051123D01*
X026054Y051171D02*
X025906Y051171D01*
X025709Y051193D02*
X025709Y050691D01*
X025709Y051193D02*
X025857Y051193D01*
X025857Y050691D01*
X025709Y050691D01*
X025709Y050739D02*
X025857Y050739D01*
X025857Y050787D02*
X025709Y050787D01*
X025709Y050835D02*
X025857Y050835D01*
X025857Y050883D02*
X025709Y050883D01*
X025709Y050931D02*
X025857Y050931D01*
X025857Y050979D02*
X025709Y050979D01*
X025709Y051027D02*
X025857Y051027D01*
X025857Y051075D02*
X025709Y051075D01*
X025709Y051123D02*
X025857Y051123D01*
X025857Y051171D02*
X025709Y051171D01*
X025512Y051193D02*
X025512Y050691D01*
X025512Y051193D02*
X025660Y051193D01*
X025660Y050691D01*
X025512Y050691D01*
X025512Y050739D02*
X025660Y050739D01*
X025660Y050787D02*
X025512Y050787D01*
X025512Y050835D02*
X025660Y050835D01*
X025660Y050883D02*
X025512Y050883D01*
X025512Y050931D02*
X025660Y050931D01*
X025660Y050979D02*
X025512Y050979D01*
X025512Y051027D02*
X025660Y051027D01*
X025660Y051075D02*
X025512Y051075D01*
X025512Y051123D02*
X025660Y051123D01*
X025660Y051171D02*
X025512Y051171D01*
X025315Y051193D02*
X025315Y050691D01*
X025315Y051193D02*
X025463Y051193D01*
X025463Y050691D01*
X025315Y050691D01*
X025315Y050739D02*
X025463Y050739D01*
X025463Y050787D02*
X025315Y050787D01*
X025315Y050835D02*
X025463Y050835D01*
X025463Y050883D02*
X025315Y050883D01*
X025315Y050931D02*
X025463Y050931D01*
X025463Y050979D02*
X025315Y050979D01*
X025315Y051027D02*
X025463Y051027D01*
X025463Y051075D02*
X025315Y051075D01*
X025315Y051123D02*
X025463Y051123D01*
X025463Y051171D02*
X025315Y051171D01*
X025118Y051193D02*
X025118Y050691D01*
X025118Y051193D02*
X025266Y051193D01*
X025266Y050691D01*
X025118Y050691D01*
X025118Y050739D02*
X025266Y050739D01*
X025266Y050787D02*
X025118Y050787D01*
X025118Y050835D02*
X025266Y050835D01*
X025266Y050883D02*
X025118Y050883D01*
X025118Y050931D02*
X025266Y050931D01*
X025266Y050979D02*
X025118Y050979D01*
X025118Y051027D02*
X025266Y051027D01*
X025266Y051075D02*
X025118Y051075D01*
X025118Y051123D02*
X025266Y051123D01*
X025266Y051171D02*
X025118Y051171D01*
X024921Y051193D02*
X024921Y050691D01*
X024921Y051193D02*
X025069Y051193D01*
X025069Y050691D01*
X024921Y050691D01*
X024921Y050739D02*
X025069Y050739D01*
X025069Y050787D02*
X024921Y050787D01*
X024921Y050835D02*
X025069Y050835D01*
X025069Y050883D02*
X024921Y050883D01*
X024921Y050931D02*
X025069Y050931D01*
X025069Y050979D02*
X024921Y050979D01*
X024921Y051027D02*
X025069Y051027D01*
X025069Y051075D02*
X024921Y051075D01*
X024921Y051123D02*
X025069Y051123D01*
X025069Y051171D02*
X024921Y051171D01*
X024724Y051193D02*
X024724Y050691D01*
X024724Y051193D02*
X024872Y051193D01*
X024872Y050691D01*
X024724Y050691D01*
X024724Y050739D02*
X024872Y050739D01*
X024872Y050787D02*
X024724Y050787D01*
X024724Y050835D02*
X024872Y050835D01*
X024872Y050883D02*
X024724Y050883D01*
X024724Y050931D02*
X024872Y050931D01*
X024872Y050979D02*
X024724Y050979D01*
X024724Y051027D02*
X024872Y051027D01*
X024872Y051075D02*
X024724Y051075D01*
X024724Y051123D02*
X024872Y051123D01*
X024872Y051171D02*
X024724Y051171D01*
X024528Y051193D02*
X024528Y050691D01*
X024528Y051193D02*
X024676Y051193D01*
X024676Y050691D01*
X024528Y050691D01*
X024528Y050739D02*
X024676Y050739D01*
X024676Y050787D02*
X024528Y050787D01*
X024528Y050835D02*
X024676Y050835D01*
X024676Y050883D02*
X024528Y050883D01*
X024528Y050931D02*
X024676Y050931D01*
X024676Y050979D02*
X024528Y050979D01*
X024528Y051027D02*
X024676Y051027D01*
X024676Y051075D02*
X024528Y051075D01*
X024528Y051123D02*
X024676Y051123D01*
X024676Y051171D02*
X024528Y051171D01*
X024331Y051193D02*
X024331Y050691D01*
X024331Y051193D02*
X024479Y051193D01*
X024479Y050691D01*
X024331Y050691D01*
X024331Y050739D02*
X024479Y050739D01*
X024479Y050787D02*
X024331Y050787D01*
X024331Y050835D02*
X024479Y050835D01*
X024479Y050883D02*
X024331Y050883D01*
X024331Y050931D02*
X024479Y050931D01*
X024479Y050979D02*
X024331Y050979D01*
X024331Y051027D02*
X024479Y051027D01*
X024479Y051075D02*
X024331Y051075D01*
X024331Y051123D02*
X024479Y051123D01*
X024479Y051171D02*
X024331Y051171D01*
X024134Y051193D02*
X024134Y050691D01*
X024134Y051193D02*
X024282Y051193D01*
X024282Y050691D01*
X024134Y050691D01*
X024134Y050739D02*
X024282Y050739D01*
X024282Y050787D02*
X024134Y050787D01*
X024134Y050835D02*
X024282Y050835D01*
X024282Y050883D02*
X024134Y050883D01*
X024134Y050931D02*
X024282Y050931D01*
X024282Y050979D02*
X024134Y050979D01*
X024134Y051027D02*
X024282Y051027D01*
X024282Y051075D02*
X024134Y051075D01*
X024134Y051123D02*
X024282Y051123D01*
X024282Y051171D02*
X024134Y051171D01*
X023937Y051193D02*
X023937Y050691D01*
X023937Y051193D02*
X024085Y051193D01*
X024085Y050691D01*
X023937Y050691D01*
X023937Y050739D02*
X024085Y050739D01*
X024085Y050787D02*
X023937Y050787D01*
X023937Y050835D02*
X024085Y050835D01*
X024085Y050883D02*
X023937Y050883D01*
X023937Y050931D02*
X024085Y050931D01*
X024085Y050979D02*
X023937Y050979D01*
X023937Y051027D02*
X024085Y051027D01*
X024085Y051075D02*
X023937Y051075D01*
X023937Y051123D02*
X024085Y051123D01*
X024085Y051171D02*
X023937Y051171D01*
X023740Y051193D02*
X023740Y050691D01*
X023740Y051193D02*
X023888Y051193D01*
X023888Y050691D01*
X023740Y050691D01*
X023740Y050739D02*
X023888Y050739D01*
X023888Y050787D02*
X023740Y050787D01*
X023740Y050835D02*
X023888Y050835D01*
X023888Y050883D02*
X023740Y050883D01*
X023740Y050931D02*
X023888Y050931D01*
X023888Y050979D02*
X023740Y050979D01*
X023740Y051027D02*
X023888Y051027D01*
X023888Y051075D02*
X023740Y051075D01*
X023740Y051123D02*
X023888Y051123D01*
X023888Y051171D02*
X023740Y051171D01*
X023543Y051193D02*
X023543Y050691D01*
X023543Y051193D02*
X023691Y051193D01*
X023691Y050691D01*
X023543Y050691D01*
X023543Y050739D02*
X023691Y050739D01*
X023691Y050787D02*
X023543Y050787D01*
X023543Y050835D02*
X023691Y050835D01*
X023691Y050883D02*
X023543Y050883D01*
X023543Y050931D02*
X023691Y050931D01*
X023691Y050979D02*
X023543Y050979D01*
X023543Y051027D02*
X023691Y051027D01*
X023691Y051075D02*
X023543Y051075D01*
X023543Y051123D02*
X023691Y051123D01*
X023691Y051171D02*
X023543Y051171D01*
X023346Y051193D02*
X023346Y050691D01*
X023346Y051193D02*
X023494Y051193D01*
X023494Y050691D01*
X023346Y050691D01*
X023346Y050739D02*
X023494Y050739D01*
X023494Y050787D02*
X023346Y050787D01*
X023346Y050835D02*
X023494Y050835D01*
X023494Y050883D02*
X023346Y050883D01*
X023346Y050931D02*
X023494Y050931D01*
X023494Y050979D02*
X023346Y050979D01*
X023346Y051027D02*
X023494Y051027D01*
X023494Y051075D02*
X023346Y051075D01*
X023346Y051123D02*
X023494Y051123D01*
X023494Y051171D02*
X023346Y051171D01*
X023150Y051193D02*
X023150Y050691D01*
X023150Y051193D02*
X023298Y051193D01*
X023298Y050691D01*
X023150Y050691D01*
X023150Y050739D02*
X023298Y050739D01*
X023298Y050787D02*
X023150Y050787D01*
X023150Y050835D02*
X023298Y050835D01*
X023298Y050883D02*
X023150Y050883D01*
X023150Y050931D02*
X023298Y050931D01*
X023298Y050979D02*
X023150Y050979D01*
X023150Y051027D02*
X023298Y051027D01*
X023298Y051075D02*
X023150Y051075D01*
X023150Y051123D02*
X023298Y051123D01*
X023298Y051171D02*
X023150Y051171D01*
X022953Y051193D02*
X022953Y050691D01*
X022953Y051193D02*
X023101Y051193D01*
X023101Y050691D01*
X022953Y050691D01*
X022953Y050739D02*
X023101Y050739D01*
X023101Y050787D02*
X022953Y050787D01*
X022953Y050835D02*
X023101Y050835D01*
X023101Y050883D02*
X022953Y050883D01*
X022953Y050931D02*
X023101Y050931D01*
X023101Y050979D02*
X022953Y050979D01*
X022953Y051027D02*
X023101Y051027D01*
X023101Y051075D02*
X022953Y051075D01*
X022953Y051123D02*
X023101Y051123D01*
X023101Y051171D02*
X022953Y051171D01*
X022756Y051193D02*
X022756Y050691D01*
X022756Y051193D02*
X022904Y051193D01*
X022904Y050691D01*
X022756Y050691D01*
X022756Y050739D02*
X022904Y050739D01*
X022904Y050787D02*
X022756Y050787D01*
X022756Y050835D02*
X022904Y050835D01*
X022904Y050883D02*
X022756Y050883D01*
X022756Y050931D02*
X022904Y050931D01*
X022904Y050979D02*
X022756Y050979D01*
X022756Y051027D02*
X022904Y051027D01*
X022904Y051075D02*
X022756Y051075D01*
X022756Y051123D02*
X022904Y051123D01*
X022904Y051171D02*
X022756Y051171D01*
X022559Y051193D02*
X022559Y050691D01*
X022559Y051193D02*
X022707Y051193D01*
X022707Y050691D01*
X022559Y050691D01*
X022559Y050739D02*
X022707Y050739D01*
X022707Y050787D02*
X022559Y050787D01*
X022559Y050835D02*
X022707Y050835D01*
X022707Y050883D02*
X022559Y050883D01*
X022559Y050931D02*
X022707Y050931D01*
X022707Y050979D02*
X022559Y050979D01*
X022559Y051027D02*
X022707Y051027D01*
X022707Y051075D02*
X022559Y051075D01*
X022559Y051123D02*
X022707Y051123D01*
X022707Y051171D02*
X022559Y051171D01*
X022362Y051193D02*
X022362Y050691D01*
X022362Y051193D02*
X022510Y051193D01*
X022510Y050691D01*
X022362Y050691D01*
X022362Y050739D02*
X022510Y050739D01*
X022510Y050787D02*
X022362Y050787D01*
X022362Y050835D02*
X022510Y050835D01*
X022510Y050883D02*
X022362Y050883D01*
X022362Y050931D02*
X022510Y050931D01*
X022510Y050979D02*
X022362Y050979D01*
X022362Y051027D02*
X022510Y051027D01*
X022510Y051075D02*
X022362Y051075D01*
X022362Y051123D02*
X022510Y051123D01*
X022510Y051171D02*
X022362Y051171D01*
X022165Y051193D02*
X022165Y050691D01*
X022165Y051193D02*
X022313Y051193D01*
X022313Y050691D01*
X022165Y050691D01*
X022165Y050739D02*
X022313Y050739D01*
X022313Y050787D02*
X022165Y050787D01*
X022165Y050835D02*
X022313Y050835D01*
X022313Y050883D02*
X022165Y050883D01*
X022165Y050931D02*
X022313Y050931D01*
X022313Y050979D02*
X022165Y050979D01*
X022165Y051027D02*
X022313Y051027D01*
X022313Y051075D02*
X022165Y051075D01*
X022165Y051123D02*
X022313Y051123D01*
X022313Y051171D02*
X022165Y051171D01*
X021968Y051193D02*
X021968Y050691D01*
X021968Y051193D02*
X022116Y051193D01*
X022116Y050691D01*
X021968Y050691D01*
X021968Y050739D02*
X022116Y050739D01*
X022116Y050787D02*
X021968Y050787D01*
X021968Y050835D02*
X022116Y050835D01*
X022116Y050883D02*
X021968Y050883D01*
X021968Y050931D02*
X022116Y050931D01*
X022116Y050979D02*
X021968Y050979D01*
X021968Y051027D02*
X022116Y051027D01*
X022116Y051075D02*
X021968Y051075D01*
X021968Y051123D02*
X022116Y051123D01*
X022116Y051171D02*
X021968Y051171D01*
X021772Y051193D02*
X021772Y050691D01*
X021772Y051193D02*
X021920Y051193D01*
X021920Y050691D01*
X021772Y050691D01*
X021772Y050739D02*
X021920Y050739D01*
X021920Y050787D02*
X021772Y050787D01*
X021772Y050835D02*
X021920Y050835D01*
X021920Y050883D02*
X021772Y050883D01*
X021772Y050931D02*
X021920Y050931D01*
X021920Y050979D02*
X021772Y050979D01*
X021772Y051027D02*
X021920Y051027D01*
X021920Y051075D02*
X021772Y051075D01*
X021772Y051123D02*
X021920Y051123D01*
X021920Y051171D02*
X021772Y051171D01*
X021575Y051193D02*
X021575Y050691D01*
X021575Y051193D02*
X021723Y051193D01*
X021723Y050691D01*
X021575Y050691D01*
X021575Y050739D02*
X021723Y050739D01*
X021723Y050787D02*
X021575Y050787D01*
X021575Y050835D02*
X021723Y050835D01*
X021723Y050883D02*
X021575Y050883D01*
X021575Y050931D02*
X021723Y050931D01*
X021723Y050979D02*
X021575Y050979D01*
X021575Y051027D02*
X021723Y051027D01*
X021723Y051075D02*
X021575Y051075D01*
X021575Y051123D02*
X021723Y051123D01*
X021723Y051171D02*
X021575Y051171D01*
X021378Y051193D02*
X021378Y050691D01*
X021378Y051193D02*
X021526Y051193D01*
X021526Y050691D01*
X021378Y050691D01*
X021378Y050739D02*
X021526Y050739D01*
X021526Y050787D02*
X021378Y050787D01*
X021378Y050835D02*
X021526Y050835D01*
X021526Y050883D02*
X021378Y050883D01*
X021378Y050931D02*
X021526Y050931D01*
X021526Y050979D02*
X021378Y050979D01*
X021378Y051027D02*
X021526Y051027D01*
X021526Y051075D02*
X021378Y051075D01*
X021378Y051123D02*
X021526Y051123D01*
X021526Y051171D02*
X021378Y051171D01*
X021112Y050278D02*
X020610Y050278D01*
X020610Y050426D01*
X021112Y050426D01*
X021112Y050278D01*
X021112Y050326D02*
X020610Y050326D01*
X020610Y050374D02*
X021112Y050374D01*
X021112Y050422D02*
X020610Y050422D01*
X020610Y050081D02*
X021112Y050081D01*
X020610Y050081D02*
X020610Y050229D01*
X021112Y050229D01*
X021112Y050081D01*
X021112Y050129D02*
X020610Y050129D01*
X020610Y050177D02*
X021112Y050177D01*
X021112Y050225D02*
X020610Y050225D01*
X020610Y049884D02*
X021112Y049884D01*
X020610Y049884D02*
X020610Y050032D01*
X021112Y050032D01*
X021112Y049884D01*
X021112Y049932D02*
X020610Y049932D01*
X020610Y049980D02*
X021112Y049980D01*
X021112Y050028D02*
X020610Y050028D01*
X020610Y049687D02*
X021112Y049687D01*
X020610Y049687D02*
X020610Y049835D01*
X021112Y049835D01*
X021112Y049687D01*
X021112Y049735D02*
X020610Y049735D01*
X020610Y049783D02*
X021112Y049783D01*
X021112Y049831D02*
X020610Y049831D01*
X020610Y049490D02*
X021112Y049490D01*
X020610Y049490D02*
X020610Y049638D01*
X021112Y049638D01*
X021112Y049490D01*
X021112Y049538D02*
X020610Y049538D01*
X020610Y049586D02*
X021112Y049586D01*
X021112Y049634D02*
X020610Y049634D01*
X020610Y049293D02*
X021112Y049293D01*
X020610Y049293D02*
X020610Y049441D01*
X021112Y049441D01*
X021112Y049293D01*
X021112Y049341D02*
X020610Y049341D01*
X020610Y049389D02*
X021112Y049389D01*
X021112Y049437D02*
X020610Y049437D01*
X020610Y049097D02*
X021112Y049097D01*
X020610Y049097D02*
X020610Y049245D01*
X021112Y049245D01*
X021112Y049097D01*
X021112Y049145D02*
X020610Y049145D01*
X020610Y049193D02*
X021112Y049193D01*
X021112Y049241D02*
X020610Y049241D01*
X020610Y048900D02*
X021112Y048900D01*
X020610Y048900D02*
X020610Y049048D01*
X021112Y049048D01*
X021112Y048900D01*
X021112Y048948D02*
X020610Y048948D01*
X020610Y048996D02*
X021112Y048996D01*
X021112Y049044D02*
X020610Y049044D01*
X020610Y048703D02*
X021112Y048703D01*
X020610Y048703D02*
X020610Y048851D01*
X021112Y048851D01*
X021112Y048703D01*
X021112Y048751D02*
X020610Y048751D01*
X020610Y048799D02*
X021112Y048799D01*
X021112Y048847D02*
X020610Y048847D01*
X020610Y048506D02*
X021112Y048506D01*
X020610Y048506D02*
X020610Y048654D01*
X021112Y048654D01*
X021112Y048506D01*
X021112Y048554D02*
X020610Y048554D01*
X020610Y048602D02*
X021112Y048602D01*
X021112Y048650D02*
X020610Y048650D01*
X020610Y048309D02*
X021112Y048309D01*
X020610Y048309D02*
X020610Y048457D01*
X021112Y048457D01*
X021112Y048309D01*
X021112Y048357D02*
X020610Y048357D01*
X020610Y048405D02*
X021112Y048405D01*
X021112Y048453D02*
X020610Y048453D01*
X020610Y048112D02*
X021112Y048112D01*
X020610Y048112D02*
X020610Y048260D01*
X021112Y048260D01*
X021112Y048112D01*
X021112Y048160D02*
X020610Y048160D01*
X020610Y048208D02*
X021112Y048208D01*
X021112Y048256D02*
X020610Y048256D01*
X020610Y047915D02*
X021112Y047915D01*
X020610Y047915D02*
X020610Y048063D01*
X021112Y048063D01*
X021112Y047915D01*
X021112Y047963D02*
X020610Y047963D01*
X020610Y048011D02*
X021112Y048011D01*
X021112Y048059D02*
X020610Y048059D01*
X020610Y047719D02*
X021112Y047719D01*
X020610Y047719D02*
X020610Y047867D01*
X021112Y047867D01*
X021112Y047719D01*
X021112Y047767D02*
X020610Y047767D01*
X020610Y047815D02*
X021112Y047815D01*
X021112Y047863D02*
X020610Y047863D01*
X020610Y047522D02*
X021112Y047522D01*
X020610Y047522D02*
X020610Y047670D01*
X021112Y047670D01*
X021112Y047522D01*
X021112Y047570D02*
X020610Y047570D01*
X020610Y047618D02*
X021112Y047618D01*
X021112Y047666D02*
X020610Y047666D01*
X020610Y047325D02*
X021112Y047325D01*
X020610Y047325D02*
X020610Y047473D01*
X021112Y047473D01*
X021112Y047325D01*
X021112Y047373D02*
X020610Y047373D01*
X020610Y047421D02*
X021112Y047421D01*
X021112Y047469D02*
X020610Y047469D01*
X020610Y047128D02*
X021112Y047128D01*
X020610Y047128D02*
X020610Y047276D01*
X021112Y047276D01*
X021112Y047128D01*
X021112Y047176D02*
X020610Y047176D01*
X020610Y047224D02*
X021112Y047224D01*
X021112Y047272D02*
X020610Y047272D01*
X020610Y046931D02*
X021112Y046931D01*
X020610Y046931D02*
X020610Y047079D01*
X021112Y047079D01*
X021112Y046931D01*
X021112Y046979D02*
X020610Y046979D01*
X020610Y047027D02*
X021112Y047027D01*
X021112Y047075D02*
X020610Y047075D01*
X020610Y046734D02*
X021112Y046734D01*
X020610Y046734D02*
X020610Y046882D01*
X021112Y046882D01*
X021112Y046734D01*
X021112Y046782D02*
X020610Y046782D01*
X020610Y046830D02*
X021112Y046830D01*
X021112Y046878D02*
X020610Y046878D01*
X020610Y046538D02*
X021112Y046538D01*
X020610Y046538D02*
X020610Y046686D01*
X021112Y046686D01*
X021112Y046538D01*
X021112Y046586D02*
X020610Y046586D01*
X020610Y046634D02*
X021112Y046634D01*
X021112Y046682D02*
X020610Y046682D01*
X020610Y046341D02*
X021112Y046341D01*
X020610Y046341D02*
X020610Y046489D01*
X021112Y046489D01*
X021112Y046341D01*
X021112Y046389D02*
X020610Y046389D01*
X020610Y046437D02*
X021112Y046437D01*
X021112Y046485D02*
X020610Y046485D01*
X020610Y046144D02*
X021112Y046144D01*
X020610Y046144D02*
X020610Y046292D01*
X021112Y046292D01*
X021112Y046144D01*
X021112Y046192D02*
X020610Y046192D01*
X020610Y046240D02*
X021112Y046240D01*
X021112Y046288D02*
X020610Y046288D01*
X020610Y045947D02*
X021112Y045947D01*
X020610Y045947D02*
X020610Y046095D01*
X021112Y046095D01*
X021112Y045947D01*
X021112Y045995D02*
X020610Y045995D01*
X020610Y046043D02*
X021112Y046043D01*
X021112Y046091D02*
X020610Y046091D01*
X020610Y045750D02*
X021112Y045750D01*
X020610Y045750D02*
X020610Y045898D01*
X021112Y045898D01*
X021112Y045750D01*
X021112Y045798D02*
X020610Y045798D01*
X020610Y045846D02*
X021112Y045846D01*
X021112Y045894D02*
X020610Y045894D01*
X020610Y045553D02*
X021112Y045553D01*
X020610Y045553D02*
X020610Y045701D01*
X021112Y045701D01*
X021112Y045553D01*
X021112Y045601D02*
X020610Y045601D01*
X020610Y045649D02*
X021112Y045649D01*
X021112Y045697D02*
X020610Y045697D01*
X021526Y045288D02*
X021526Y044786D01*
X021378Y044786D01*
X021378Y045288D01*
X021526Y045288D01*
X021526Y044834D02*
X021378Y044834D01*
X021378Y044882D02*
X021526Y044882D01*
X021526Y044930D02*
X021378Y044930D01*
X021378Y044978D02*
X021526Y044978D01*
X021526Y045026D02*
X021378Y045026D01*
X021378Y045074D02*
X021526Y045074D01*
X021526Y045122D02*
X021378Y045122D01*
X021378Y045170D02*
X021526Y045170D01*
X021526Y045218D02*
X021378Y045218D01*
X021378Y045266D02*
X021526Y045266D01*
X021723Y045288D02*
X021723Y044786D01*
X021575Y044786D01*
X021575Y045288D01*
X021723Y045288D01*
X021723Y044834D02*
X021575Y044834D01*
X021575Y044882D02*
X021723Y044882D01*
X021723Y044930D02*
X021575Y044930D01*
X021575Y044978D02*
X021723Y044978D01*
X021723Y045026D02*
X021575Y045026D01*
X021575Y045074D02*
X021723Y045074D01*
X021723Y045122D02*
X021575Y045122D01*
X021575Y045170D02*
X021723Y045170D01*
X021723Y045218D02*
X021575Y045218D01*
X021575Y045266D02*
X021723Y045266D01*
X021920Y045288D02*
X021920Y044786D01*
X021772Y044786D01*
X021772Y045288D01*
X021920Y045288D01*
X021920Y044834D02*
X021772Y044834D01*
X021772Y044882D02*
X021920Y044882D01*
X021920Y044930D02*
X021772Y044930D01*
X021772Y044978D02*
X021920Y044978D01*
X021920Y045026D02*
X021772Y045026D01*
X021772Y045074D02*
X021920Y045074D01*
X021920Y045122D02*
X021772Y045122D01*
X021772Y045170D02*
X021920Y045170D01*
X021920Y045218D02*
X021772Y045218D01*
X021772Y045266D02*
X021920Y045266D01*
X022116Y045288D02*
X022116Y044786D01*
X021968Y044786D01*
X021968Y045288D01*
X022116Y045288D01*
X022116Y044834D02*
X021968Y044834D01*
X021968Y044882D02*
X022116Y044882D01*
X022116Y044930D02*
X021968Y044930D01*
X021968Y044978D02*
X022116Y044978D01*
X022116Y045026D02*
X021968Y045026D01*
X021968Y045074D02*
X022116Y045074D01*
X022116Y045122D02*
X021968Y045122D01*
X021968Y045170D02*
X022116Y045170D01*
X022116Y045218D02*
X021968Y045218D01*
X021968Y045266D02*
X022116Y045266D01*
X022313Y045288D02*
X022313Y044786D01*
X022165Y044786D01*
X022165Y045288D01*
X022313Y045288D01*
X022313Y044834D02*
X022165Y044834D01*
X022165Y044882D02*
X022313Y044882D01*
X022313Y044930D02*
X022165Y044930D01*
X022165Y044978D02*
X022313Y044978D01*
X022313Y045026D02*
X022165Y045026D01*
X022165Y045074D02*
X022313Y045074D01*
X022313Y045122D02*
X022165Y045122D01*
X022165Y045170D02*
X022313Y045170D01*
X022313Y045218D02*
X022165Y045218D01*
X022165Y045266D02*
X022313Y045266D01*
X022510Y045288D02*
X022510Y044786D01*
X022362Y044786D01*
X022362Y045288D01*
X022510Y045288D01*
X022510Y044834D02*
X022362Y044834D01*
X022362Y044882D02*
X022510Y044882D01*
X022510Y044930D02*
X022362Y044930D01*
X022362Y044978D02*
X022510Y044978D01*
X022510Y045026D02*
X022362Y045026D01*
X022362Y045074D02*
X022510Y045074D01*
X022510Y045122D02*
X022362Y045122D01*
X022362Y045170D02*
X022510Y045170D01*
X022510Y045218D02*
X022362Y045218D01*
X022362Y045266D02*
X022510Y045266D01*
X022707Y045288D02*
X022707Y044786D01*
X022559Y044786D01*
X022559Y045288D01*
X022707Y045288D01*
X022707Y044834D02*
X022559Y044834D01*
X022559Y044882D02*
X022707Y044882D01*
X022707Y044930D02*
X022559Y044930D01*
X022559Y044978D02*
X022707Y044978D01*
X022707Y045026D02*
X022559Y045026D01*
X022559Y045074D02*
X022707Y045074D01*
X022707Y045122D02*
X022559Y045122D01*
X022559Y045170D02*
X022707Y045170D01*
X022707Y045218D02*
X022559Y045218D01*
X022559Y045266D02*
X022707Y045266D01*
X022904Y045288D02*
X022904Y044786D01*
X022756Y044786D01*
X022756Y045288D01*
X022904Y045288D01*
X022904Y044834D02*
X022756Y044834D01*
X022756Y044882D02*
X022904Y044882D01*
X022904Y044930D02*
X022756Y044930D01*
X022756Y044978D02*
X022904Y044978D01*
X022904Y045026D02*
X022756Y045026D01*
X022756Y045074D02*
X022904Y045074D01*
X022904Y045122D02*
X022756Y045122D01*
X022756Y045170D02*
X022904Y045170D01*
X022904Y045218D02*
X022756Y045218D01*
X022756Y045266D02*
X022904Y045266D01*
X023101Y045288D02*
X023101Y044786D01*
X022953Y044786D01*
X022953Y045288D01*
X023101Y045288D01*
X023101Y044834D02*
X022953Y044834D01*
X022953Y044882D02*
X023101Y044882D01*
X023101Y044930D02*
X022953Y044930D01*
X022953Y044978D02*
X023101Y044978D01*
X023101Y045026D02*
X022953Y045026D01*
X022953Y045074D02*
X023101Y045074D01*
X023101Y045122D02*
X022953Y045122D01*
X022953Y045170D02*
X023101Y045170D01*
X023101Y045218D02*
X022953Y045218D01*
X022953Y045266D02*
X023101Y045266D01*
X023298Y045288D02*
X023298Y044786D01*
X023150Y044786D01*
X023150Y045288D01*
X023298Y045288D01*
X023298Y044834D02*
X023150Y044834D01*
X023150Y044882D02*
X023298Y044882D01*
X023298Y044930D02*
X023150Y044930D01*
X023150Y044978D02*
X023298Y044978D01*
X023298Y045026D02*
X023150Y045026D01*
X023150Y045074D02*
X023298Y045074D01*
X023298Y045122D02*
X023150Y045122D01*
X023150Y045170D02*
X023298Y045170D01*
X023298Y045218D02*
X023150Y045218D01*
X023150Y045266D02*
X023298Y045266D01*
X023494Y045288D02*
X023494Y044786D01*
X023346Y044786D01*
X023346Y045288D01*
X023494Y045288D01*
X023494Y044834D02*
X023346Y044834D01*
X023346Y044882D02*
X023494Y044882D01*
X023494Y044930D02*
X023346Y044930D01*
X023346Y044978D02*
X023494Y044978D01*
X023494Y045026D02*
X023346Y045026D01*
X023346Y045074D02*
X023494Y045074D01*
X023494Y045122D02*
X023346Y045122D01*
X023346Y045170D02*
X023494Y045170D01*
X023494Y045218D02*
X023346Y045218D01*
X023346Y045266D02*
X023494Y045266D01*
X023691Y045288D02*
X023691Y044786D01*
X023543Y044786D01*
X023543Y045288D01*
X023691Y045288D01*
X023691Y044834D02*
X023543Y044834D01*
X023543Y044882D02*
X023691Y044882D01*
X023691Y044930D02*
X023543Y044930D01*
X023543Y044978D02*
X023691Y044978D01*
X023691Y045026D02*
X023543Y045026D01*
X023543Y045074D02*
X023691Y045074D01*
X023691Y045122D02*
X023543Y045122D01*
X023543Y045170D02*
X023691Y045170D01*
X023691Y045218D02*
X023543Y045218D01*
X023543Y045266D02*
X023691Y045266D01*
X023888Y045288D02*
X023888Y044786D01*
X023740Y044786D01*
X023740Y045288D01*
X023888Y045288D01*
X023888Y044834D02*
X023740Y044834D01*
X023740Y044882D02*
X023888Y044882D01*
X023888Y044930D02*
X023740Y044930D01*
X023740Y044978D02*
X023888Y044978D01*
X023888Y045026D02*
X023740Y045026D01*
X023740Y045074D02*
X023888Y045074D01*
X023888Y045122D02*
X023740Y045122D01*
X023740Y045170D02*
X023888Y045170D01*
X023888Y045218D02*
X023740Y045218D01*
X023740Y045266D02*
X023888Y045266D01*
X024085Y045288D02*
X024085Y044786D01*
X023937Y044786D01*
X023937Y045288D01*
X024085Y045288D01*
X024085Y044834D02*
X023937Y044834D01*
X023937Y044882D02*
X024085Y044882D01*
X024085Y044930D02*
X023937Y044930D01*
X023937Y044978D02*
X024085Y044978D01*
X024085Y045026D02*
X023937Y045026D01*
X023937Y045074D02*
X024085Y045074D01*
X024085Y045122D02*
X023937Y045122D01*
X023937Y045170D02*
X024085Y045170D01*
X024085Y045218D02*
X023937Y045218D01*
X023937Y045266D02*
X024085Y045266D01*
X024282Y045288D02*
X024282Y044786D01*
X024134Y044786D01*
X024134Y045288D01*
X024282Y045288D01*
X024282Y044834D02*
X024134Y044834D01*
X024134Y044882D02*
X024282Y044882D01*
X024282Y044930D02*
X024134Y044930D01*
X024134Y044978D02*
X024282Y044978D01*
X024282Y045026D02*
X024134Y045026D01*
X024134Y045074D02*
X024282Y045074D01*
X024282Y045122D02*
X024134Y045122D01*
X024134Y045170D02*
X024282Y045170D01*
X024282Y045218D02*
X024134Y045218D01*
X024134Y045266D02*
X024282Y045266D01*
X024479Y045288D02*
X024479Y044786D01*
X024331Y044786D01*
X024331Y045288D01*
X024479Y045288D01*
X024479Y044834D02*
X024331Y044834D01*
X024331Y044882D02*
X024479Y044882D01*
X024479Y044930D02*
X024331Y044930D01*
X024331Y044978D02*
X024479Y044978D01*
X024479Y045026D02*
X024331Y045026D01*
X024331Y045074D02*
X024479Y045074D01*
X024479Y045122D02*
X024331Y045122D01*
X024331Y045170D02*
X024479Y045170D01*
X024479Y045218D02*
X024331Y045218D01*
X024331Y045266D02*
X024479Y045266D01*
X024676Y045288D02*
X024676Y044786D01*
X024528Y044786D01*
X024528Y045288D01*
X024676Y045288D01*
X024676Y044834D02*
X024528Y044834D01*
X024528Y044882D02*
X024676Y044882D01*
X024676Y044930D02*
X024528Y044930D01*
X024528Y044978D02*
X024676Y044978D01*
X024676Y045026D02*
X024528Y045026D01*
X024528Y045074D02*
X024676Y045074D01*
X024676Y045122D02*
X024528Y045122D01*
X024528Y045170D02*
X024676Y045170D01*
X024676Y045218D02*
X024528Y045218D01*
X024528Y045266D02*
X024676Y045266D01*
X024872Y045288D02*
X024872Y044786D01*
X024724Y044786D01*
X024724Y045288D01*
X024872Y045288D01*
X024872Y044834D02*
X024724Y044834D01*
X024724Y044882D02*
X024872Y044882D01*
X024872Y044930D02*
X024724Y044930D01*
X024724Y044978D02*
X024872Y044978D01*
X024872Y045026D02*
X024724Y045026D01*
X024724Y045074D02*
X024872Y045074D01*
X024872Y045122D02*
X024724Y045122D01*
X024724Y045170D02*
X024872Y045170D01*
X024872Y045218D02*
X024724Y045218D01*
X024724Y045266D02*
X024872Y045266D01*
D27*
X024794Y025751D02*
X024794Y024755D01*
X024546Y024755D01*
X024546Y025751D01*
X024794Y025751D01*
X024794Y024837D02*
X024546Y024837D01*
X024546Y024919D02*
X024794Y024919D01*
X024794Y025001D02*
X024546Y025001D01*
X024546Y025083D02*
X024794Y025083D01*
X024794Y025165D02*
X024546Y025165D01*
X024546Y025247D02*
X024794Y025247D01*
X024794Y025329D02*
X024546Y025329D01*
X024546Y025411D02*
X024794Y025411D01*
X024794Y025493D02*
X024546Y025493D01*
X024546Y025575D02*
X024794Y025575D01*
X024794Y025657D02*
X024546Y025657D01*
X024546Y025739D02*
X024794Y025739D01*
X025294Y025751D02*
X025294Y024755D01*
X025046Y024755D01*
X025046Y025751D01*
X025294Y025751D01*
X025294Y024837D02*
X025046Y024837D01*
X025046Y024919D02*
X025294Y024919D01*
X025294Y025001D02*
X025046Y025001D01*
X025046Y025083D02*
X025294Y025083D01*
X025294Y025165D02*
X025046Y025165D01*
X025046Y025247D02*
X025294Y025247D01*
X025294Y025329D02*
X025046Y025329D01*
X025046Y025411D02*
X025294Y025411D01*
X025294Y025493D02*
X025046Y025493D01*
X025046Y025575D02*
X025294Y025575D01*
X025294Y025657D02*
X025046Y025657D01*
X025046Y025739D02*
X025294Y025739D01*
X024294Y025751D02*
X024294Y024755D01*
X024046Y024755D01*
X024046Y025751D01*
X024294Y025751D01*
X024294Y024837D02*
X024046Y024837D01*
X024046Y024919D02*
X024294Y024919D01*
X024294Y025001D02*
X024046Y025001D01*
X024046Y025083D02*
X024294Y025083D01*
X024294Y025165D02*
X024046Y025165D01*
X024046Y025247D02*
X024294Y025247D01*
X024294Y025329D02*
X024046Y025329D01*
X024046Y025411D02*
X024294Y025411D01*
X024294Y025493D02*
X024046Y025493D01*
X024046Y025575D02*
X024294Y025575D01*
X024294Y025657D02*
X024046Y025657D01*
X024046Y025739D02*
X024294Y025739D01*
X023794Y025751D02*
X023794Y024755D01*
X023546Y024755D01*
X023546Y025751D01*
X023794Y025751D01*
X023794Y024837D02*
X023546Y024837D01*
X023546Y024919D02*
X023794Y024919D01*
X023794Y025001D02*
X023546Y025001D01*
X023546Y025083D02*
X023794Y025083D01*
X023794Y025165D02*
X023546Y025165D01*
X023546Y025247D02*
X023794Y025247D01*
X023794Y025329D02*
X023546Y025329D01*
X023546Y025411D02*
X023794Y025411D01*
X023794Y025493D02*
X023546Y025493D01*
X023546Y025575D02*
X023794Y025575D01*
X023794Y025657D02*
X023546Y025657D01*
X023546Y025739D02*
X023794Y025739D01*
X023294Y025751D02*
X023294Y024755D01*
X023046Y024755D01*
X023046Y025751D01*
X023294Y025751D01*
X023294Y024837D02*
X023046Y024837D01*
X023046Y024919D02*
X023294Y024919D01*
X023294Y025001D02*
X023046Y025001D01*
X023046Y025083D02*
X023294Y025083D01*
X023294Y025165D02*
X023046Y025165D01*
X023046Y025247D02*
X023294Y025247D01*
X023294Y025329D02*
X023046Y025329D01*
X023046Y025411D02*
X023294Y025411D01*
X023294Y025493D02*
X023046Y025493D01*
X023046Y025575D02*
X023294Y025575D01*
X023294Y025657D02*
X023046Y025657D01*
X023046Y025739D02*
X023294Y025739D01*
X022794Y025751D02*
X022794Y024755D01*
X022546Y024755D01*
X022546Y025751D01*
X022794Y025751D01*
X022794Y024837D02*
X022546Y024837D01*
X022546Y024919D02*
X022794Y024919D01*
X022794Y025001D02*
X022546Y025001D01*
X022546Y025083D02*
X022794Y025083D01*
X022794Y025165D02*
X022546Y025165D01*
X022546Y025247D02*
X022794Y025247D01*
X022794Y025329D02*
X022546Y025329D01*
X022546Y025411D02*
X022794Y025411D01*
X022794Y025493D02*
X022546Y025493D01*
X022546Y025575D02*
X022794Y025575D01*
X022794Y025657D02*
X022546Y025657D01*
X022546Y025739D02*
X022794Y025739D01*
X022294Y025751D02*
X022294Y024755D01*
X022046Y024755D01*
X022046Y025751D01*
X022294Y025751D01*
X022294Y024837D02*
X022046Y024837D01*
X022046Y024919D02*
X022294Y024919D01*
X022294Y025001D02*
X022046Y025001D01*
X022046Y025083D02*
X022294Y025083D01*
X022294Y025165D02*
X022046Y025165D01*
X022046Y025247D02*
X022294Y025247D01*
X022294Y025329D02*
X022046Y025329D01*
X022046Y025411D02*
X022294Y025411D01*
X022294Y025493D02*
X022046Y025493D01*
X022046Y025575D02*
X022294Y025575D01*
X022294Y025657D02*
X022046Y025657D01*
X022046Y025739D02*
X022294Y025739D01*
X021794Y025751D02*
X021794Y024755D01*
X021546Y024755D01*
X021546Y025751D01*
X021794Y025751D01*
X021794Y024837D02*
X021546Y024837D01*
X021546Y024919D02*
X021794Y024919D01*
X021794Y025001D02*
X021546Y025001D01*
X021546Y025083D02*
X021794Y025083D01*
X021794Y025165D02*
X021546Y025165D01*
X021546Y025247D02*
X021794Y025247D01*
X021794Y025329D02*
X021546Y025329D01*
X021546Y025411D02*
X021794Y025411D01*
X021794Y025493D02*
X021546Y025493D01*
X021546Y025575D02*
X021794Y025575D01*
X021794Y025657D02*
X021546Y025657D01*
X021546Y025739D02*
X021794Y025739D01*
D28*
X021324Y021542D02*
X021324Y019682D01*
X020516Y019682D01*
X020516Y021542D01*
X021324Y021542D01*
X021324Y019951D02*
X020516Y019951D01*
X020516Y020220D02*
X021324Y020220D01*
X021324Y020489D02*
X020516Y020489D01*
X020516Y020758D02*
X021324Y020758D01*
X021324Y021027D02*
X020516Y021027D01*
X020516Y021296D02*
X021324Y021296D01*
X026324Y021542D02*
X026324Y019682D01*
X025516Y019682D01*
X025516Y021542D01*
X026324Y021542D01*
X026324Y019951D02*
X025516Y019951D01*
X025516Y020220D02*
X026324Y020220D01*
X026324Y020489D02*
X025516Y020489D01*
X025516Y020758D02*
X026324Y020758D01*
X026324Y021027D02*
X025516Y021027D01*
X025516Y021296D02*
X026324Y021296D01*
D29*
X034794Y029274D02*
X034794Y029736D01*
X034794Y029274D02*
X034528Y029274D01*
X034528Y029736D01*
X034794Y029736D01*
X034794Y029362D02*
X034528Y029362D01*
X034528Y029450D02*
X034794Y029450D01*
X034794Y029538D02*
X034528Y029538D01*
X034528Y029626D02*
X034794Y029626D01*
X034794Y029714D02*
X034528Y029714D01*
X035168Y029736D02*
X035168Y029274D01*
X034902Y029274D01*
X034902Y029736D01*
X035168Y029736D01*
X035168Y029362D02*
X034902Y029362D01*
X034902Y029450D02*
X035168Y029450D01*
X035168Y029538D02*
X034902Y029538D01*
X034902Y029626D02*
X035168Y029626D01*
X035168Y029714D02*
X034902Y029714D01*
X035542Y029736D02*
X035542Y029274D01*
X035276Y029274D01*
X035276Y029736D01*
X035542Y029736D01*
X035542Y029362D02*
X035276Y029362D01*
X035276Y029450D02*
X035542Y029450D01*
X035542Y029538D02*
X035276Y029538D01*
X035276Y029626D02*
X035542Y029626D01*
X035542Y029714D02*
X035276Y029714D01*
X035542Y030219D02*
X035542Y030681D01*
X035542Y030219D02*
X035276Y030219D01*
X035276Y030681D01*
X035542Y030681D01*
X035542Y030307D02*
X035276Y030307D01*
X035276Y030395D02*
X035542Y030395D01*
X035542Y030483D02*
X035276Y030483D01*
X035276Y030571D02*
X035542Y030571D01*
X035542Y030659D02*
X035276Y030659D01*
X035168Y030681D02*
X035168Y030219D01*
X034902Y030219D01*
X034902Y030681D01*
X035168Y030681D01*
X035168Y030307D02*
X034902Y030307D01*
X034902Y030395D02*
X035168Y030395D01*
X035168Y030483D02*
X034902Y030483D01*
X034902Y030571D02*
X035168Y030571D01*
X035168Y030659D02*
X034902Y030659D01*
X034794Y030681D02*
X034794Y030219D01*
X034528Y030219D01*
X034528Y030681D01*
X034794Y030681D01*
X034794Y030307D02*
X034528Y030307D01*
X034528Y030395D02*
X034794Y030395D01*
X034794Y030483D02*
X034528Y030483D01*
X034528Y030571D02*
X034794Y030571D01*
X034794Y030659D02*
X034528Y030659D01*
X033898Y032621D02*
X033898Y033083D01*
X034164Y033083D01*
X034164Y032621D01*
X033898Y032621D01*
X033898Y032709D02*
X034164Y032709D01*
X034164Y032797D02*
X033898Y032797D01*
X033898Y032885D02*
X034164Y032885D01*
X034164Y032973D02*
X033898Y032973D01*
X033898Y033061D02*
X034164Y033061D01*
X033524Y033083D02*
X033524Y032621D01*
X033524Y033083D02*
X033790Y033083D01*
X033790Y032621D01*
X033524Y032621D01*
X033524Y032709D02*
X033790Y032709D01*
X033790Y032797D02*
X033524Y032797D01*
X033524Y032885D02*
X033790Y032885D01*
X033790Y032973D02*
X033524Y032973D01*
X033524Y033061D02*
X033790Y033061D01*
X033150Y033083D02*
X033150Y032621D01*
X033150Y033083D02*
X033416Y033083D01*
X033416Y032621D01*
X033150Y032621D01*
X033150Y032709D02*
X033416Y032709D01*
X033416Y032797D02*
X033150Y032797D01*
X033150Y032885D02*
X033416Y032885D01*
X033416Y032973D02*
X033150Y032973D01*
X033150Y033061D02*
X033416Y033061D01*
X033150Y033566D02*
X033150Y034028D01*
X033416Y034028D01*
X033416Y033566D01*
X033150Y033566D01*
X033150Y033654D02*
X033416Y033654D01*
X033416Y033742D02*
X033150Y033742D01*
X033150Y033830D02*
X033416Y033830D01*
X033416Y033918D02*
X033150Y033918D01*
X033150Y034006D02*
X033416Y034006D01*
X033524Y034028D02*
X033524Y033566D01*
X033524Y034028D02*
X033790Y034028D01*
X033790Y033566D01*
X033524Y033566D01*
X033524Y033654D02*
X033790Y033654D01*
X033790Y033742D02*
X033524Y033742D01*
X033524Y033830D02*
X033790Y033830D01*
X033790Y033918D02*
X033524Y033918D01*
X033524Y034006D02*
X033790Y034006D01*
X033898Y034028D02*
X033898Y033566D01*
X033898Y034028D02*
X034164Y034028D01*
X034164Y033566D01*
X033898Y033566D01*
X033898Y033654D02*
X034164Y033654D01*
X034164Y033742D02*
X033898Y033742D01*
X033898Y033830D02*
X034164Y033830D01*
X034164Y033918D02*
X033898Y033918D01*
X033898Y034006D02*
X034164Y034006D01*
X034095Y037739D02*
X034095Y038201D01*
X034361Y038201D01*
X034361Y037739D01*
X034095Y037739D01*
X034095Y037827D02*
X034361Y037827D01*
X034361Y037915D02*
X034095Y037915D01*
X034095Y038003D02*
X034361Y038003D01*
X034361Y038091D02*
X034095Y038091D01*
X034095Y038179D02*
X034361Y038179D01*
X033721Y038201D02*
X033721Y037739D01*
X033721Y038201D02*
X033987Y038201D01*
X033987Y037739D01*
X033721Y037739D01*
X033721Y037827D02*
X033987Y037827D01*
X033987Y037915D02*
X033721Y037915D01*
X033721Y038003D02*
X033987Y038003D01*
X033987Y038091D02*
X033721Y038091D01*
X033721Y038179D02*
X033987Y038179D01*
X033347Y038201D02*
X033347Y037739D01*
X033347Y038201D02*
X033613Y038201D01*
X033613Y037739D01*
X033347Y037739D01*
X033347Y037827D02*
X033613Y037827D01*
X033613Y037915D02*
X033347Y037915D01*
X033347Y038003D02*
X033613Y038003D01*
X033613Y038091D02*
X033347Y038091D01*
X033347Y038179D02*
X033613Y038179D01*
X033347Y038684D02*
X033347Y039146D01*
X033613Y039146D01*
X033613Y038684D01*
X033347Y038684D01*
X033347Y038772D02*
X033613Y038772D01*
X033613Y038860D02*
X033347Y038860D01*
X033347Y038948D02*
X033613Y038948D01*
X033613Y039036D02*
X033347Y039036D01*
X033347Y039124D02*
X033613Y039124D01*
X033721Y039146D02*
X033721Y038684D01*
X033721Y039146D02*
X033987Y039146D01*
X033987Y038684D01*
X033721Y038684D01*
X033721Y038772D02*
X033987Y038772D01*
X033987Y038860D02*
X033721Y038860D01*
X033721Y038948D02*
X033987Y038948D01*
X033987Y039036D02*
X033721Y039036D01*
X033721Y039124D02*
X033987Y039124D01*
X034095Y039146D02*
X034095Y038684D01*
X034095Y039146D02*
X034361Y039146D01*
X034361Y038684D01*
X034095Y038684D01*
X034095Y038772D02*
X034361Y038772D01*
X034361Y038860D02*
X034095Y038860D01*
X034095Y038948D02*
X034361Y038948D01*
X034361Y039036D02*
X034095Y039036D01*
X034095Y039124D02*
X034361Y039124D01*
D30*
X032499Y037016D02*
X032499Y035774D01*
X032089Y035774D01*
X032089Y037016D01*
X032499Y037016D01*
X032499Y035910D02*
X032089Y035910D01*
X032089Y036046D02*
X032499Y036046D01*
X032499Y036182D02*
X032089Y036182D01*
X032089Y036318D02*
X032499Y036318D01*
X032499Y036454D02*
X032089Y036454D01*
X032089Y036590D02*
X032499Y036590D01*
X032499Y036726D02*
X032089Y036726D01*
X032089Y036862D02*
X032499Y036862D01*
X032499Y036998D02*
X032089Y036998D01*
X030499Y037016D02*
X030499Y035774D01*
X030089Y035774D01*
X030089Y037016D01*
X030499Y037016D01*
X030499Y035910D02*
X030089Y035910D01*
X030089Y036046D02*
X030499Y036046D01*
X030499Y036182D02*
X030089Y036182D01*
X030089Y036318D02*
X030499Y036318D01*
X030499Y036454D02*
X030089Y036454D01*
X030089Y036590D02*
X030499Y036590D01*
X030499Y036726D02*
X030089Y036726D01*
X030089Y036862D02*
X030499Y036862D01*
X030499Y036998D02*
X030089Y036998D01*
X031499Y038294D02*
X031499Y039536D01*
X031499Y038294D02*
X031089Y038294D01*
X031089Y039536D01*
X031499Y039536D01*
X031499Y038430D02*
X031089Y038430D01*
X031089Y038566D02*
X031499Y038566D01*
X031499Y038702D02*
X031089Y038702D01*
X031089Y038838D02*
X031499Y038838D01*
X031499Y038974D02*
X031089Y038974D01*
X031089Y039110D02*
X031499Y039110D01*
X031499Y039246D02*
X031089Y039246D01*
X031089Y039382D02*
X031499Y039382D01*
X031499Y039518D02*
X031089Y039518D01*
X028547Y035599D02*
X028547Y034357D01*
X028137Y034357D01*
X028137Y035599D01*
X028547Y035599D01*
X028547Y034493D02*
X028137Y034493D01*
X028137Y034629D02*
X028547Y034629D01*
X028547Y034765D02*
X028137Y034765D01*
X028137Y034901D02*
X028547Y034901D01*
X028547Y035037D02*
X028137Y035037D01*
X028137Y035173D02*
X028547Y035173D01*
X028547Y035309D02*
X028137Y035309D01*
X028137Y035445D02*
X028547Y035445D01*
X028547Y035581D02*
X028137Y035581D01*
X027547Y033079D02*
X027547Y031837D01*
X027137Y031837D01*
X027137Y033079D01*
X027547Y033079D01*
X027547Y031973D02*
X027137Y031973D01*
X027137Y032109D02*
X027547Y032109D01*
X027547Y032245D02*
X027137Y032245D01*
X027137Y032381D02*
X027547Y032381D01*
X027547Y032517D02*
X027137Y032517D01*
X027137Y032653D02*
X027547Y032653D01*
X027547Y032789D02*
X027137Y032789D01*
X027137Y032925D02*
X027547Y032925D01*
X027547Y033061D02*
X027137Y033061D01*
X029547Y033079D02*
X029547Y031837D01*
X029137Y031837D01*
X029137Y033079D01*
X029547Y033079D01*
X029547Y031973D02*
X029137Y031973D01*
X029137Y032109D02*
X029547Y032109D01*
X029547Y032245D02*
X029137Y032245D01*
X029137Y032381D02*
X029547Y032381D01*
X029547Y032517D02*
X029137Y032517D01*
X029137Y032653D02*
X029547Y032653D01*
X029547Y032789D02*
X029137Y032789D01*
X029137Y032925D02*
X029547Y032925D01*
X029547Y033061D02*
X029137Y033061D01*
X032287Y032055D02*
X032287Y030813D01*
X031877Y030813D01*
X031877Y032055D01*
X032287Y032055D01*
X032287Y030949D02*
X031877Y030949D01*
X031877Y031085D02*
X032287Y031085D01*
X032287Y031221D02*
X031877Y031221D01*
X031877Y031357D02*
X032287Y031357D01*
X032287Y031493D02*
X031877Y031493D01*
X031877Y031629D02*
X032287Y031629D01*
X032287Y031765D02*
X031877Y031765D01*
X031877Y031901D02*
X032287Y031901D01*
X032287Y032037D02*
X031877Y032037D01*
X031287Y029536D02*
X031287Y028294D01*
X030877Y028294D01*
X030877Y029536D01*
X031287Y029536D01*
X031287Y028430D02*
X030877Y028430D01*
X030877Y028566D02*
X031287Y028566D01*
X031287Y028702D02*
X030877Y028702D01*
X030877Y028838D02*
X031287Y028838D01*
X031287Y028974D02*
X030877Y028974D01*
X030877Y029110D02*
X031287Y029110D01*
X031287Y029246D02*
X030877Y029246D01*
X030877Y029382D02*
X031287Y029382D01*
X031287Y029518D02*
X030877Y029518D01*
X033287Y029536D02*
X033287Y028294D01*
X032877Y028294D01*
X032877Y029536D01*
X033287Y029536D01*
X033287Y028430D02*
X032877Y028430D01*
X032877Y028566D02*
X033287Y028566D01*
X033287Y028702D02*
X032877Y028702D01*
X032877Y028838D02*
X033287Y028838D01*
X033287Y028974D02*
X032877Y028974D01*
X032877Y029110D02*
X033287Y029110D01*
X033287Y029246D02*
X032877Y029246D01*
X032877Y029382D02*
X033287Y029382D01*
X033287Y029518D02*
X032877Y029518D01*
D31*
X033992Y027584D02*
X034502Y027584D01*
X033992Y027584D02*
X033992Y028020D01*
X034502Y028020D01*
X034502Y027584D01*
X034502Y027729D02*
X033992Y027729D01*
X033992Y027874D02*
X034502Y027874D01*
X034502Y028019D02*
X033992Y028019D01*
X033992Y026817D02*
X034502Y026817D01*
X033992Y026817D02*
X033992Y027253D01*
X034502Y027253D01*
X034502Y026817D01*
X034502Y026962D02*
X033992Y026962D01*
X033992Y027107D02*
X034502Y027107D01*
X034502Y027252D02*
X033992Y027252D01*
X028794Y028982D02*
X028284Y028982D01*
X028284Y029418D01*
X028794Y029418D01*
X028794Y028982D01*
X028794Y029127D02*
X028284Y029127D01*
X028284Y029272D02*
X028794Y029272D01*
X028794Y029417D02*
X028284Y029417D01*
X028284Y029750D02*
X028794Y029750D01*
X028284Y029750D02*
X028284Y030186D01*
X028794Y030186D01*
X028794Y029750D01*
X028794Y029895D02*
X028284Y029895D01*
X028284Y030040D02*
X028794Y030040D01*
X028794Y030185D02*
X028284Y030185D01*
X027612Y029750D02*
X027102Y029750D01*
X027102Y030186D01*
X027612Y030186D01*
X027612Y029750D01*
X027612Y029895D02*
X027102Y029895D01*
X027102Y030040D02*
X027612Y030040D01*
X027612Y030185D02*
X027102Y030185D01*
X027102Y028982D02*
X027612Y028982D01*
X027102Y028982D02*
X027102Y029418D01*
X027612Y029418D01*
X027612Y028982D01*
X027612Y029127D02*
X027102Y029127D01*
X027102Y029272D02*
X027612Y029272D01*
X027612Y029417D02*
X027102Y029417D01*
X025597Y033857D02*
X025597Y034367D01*
X025597Y033857D02*
X025161Y033857D01*
X025161Y034367D01*
X025597Y034367D01*
X025597Y034002D02*
X025161Y034002D01*
X025161Y034147D02*
X025597Y034147D01*
X025597Y034292D02*
X025161Y034292D01*
X024829Y034367D02*
X024829Y033857D01*
X024393Y033857D01*
X024393Y034367D01*
X024829Y034367D01*
X024829Y034002D02*
X024393Y034002D01*
X024393Y034147D02*
X024829Y034147D01*
X024829Y034292D02*
X024393Y034292D01*
X028087Y036544D02*
X028597Y036544D01*
X028597Y036108D01*
X028087Y036108D01*
X028087Y036544D01*
X028087Y036253D02*
X028597Y036253D01*
X028597Y036398D02*
X028087Y036398D01*
X028087Y036543D02*
X028597Y036543D01*
X028597Y037312D02*
X028087Y037312D01*
X028597Y037312D02*
X028597Y036876D01*
X028087Y036876D01*
X028087Y037312D01*
X028087Y037021D02*
X028597Y037021D01*
X028597Y037166D02*
X028087Y037166D01*
X028087Y037311D02*
X028597Y037311D01*
X026385Y039723D02*
X026385Y040233D01*
X026385Y039723D02*
X025949Y039723D01*
X025949Y040233D01*
X026385Y040233D01*
X026385Y039868D02*
X025949Y039868D01*
X025949Y040013D02*
X026385Y040013D01*
X026385Y040158D02*
X025949Y040158D01*
X025617Y040233D02*
X025617Y039723D01*
X025181Y039723D01*
X025181Y040233D01*
X025617Y040233D01*
X025617Y039868D02*
X025181Y039868D01*
X025181Y040013D02*
X025617Y040013D01*
X025617Y040158D02*
X025181Y040158D01*
X025617Y040746D02*
X025617Y041256D01*
X025617Y040746D02*
X025181Y040746D01*
X025181Y041256D01*
X025617Y041256D01*
X025617Y040891D02*
X025181Y040891D01*
X025181Y041036D02*
X025617Y041036D01*
X025617Y041181D02*
X025181Y041181D01*
X026385Y041256D02*
X026385Y040746D01*
X025949Y040746D01*
X025949Y041256D01*
X026385Y041256D01*
X026385Y040891D02*
X025949Y040891D01*
X025949Y041036D02*
X026385Y041036D01*
X026385Y041181D02*
X025949Y041181D01*
X015319Y028855D02*
X015319Y028345D01*
X015319Y028855D02*
X015755Y028855D01*
X015755Y028345D01*
X015319Y028345D01*
X015319Y028490D02*
X015755Y028490D01*
X015755Y028635D02*
X015319Y028635D01*
X015319Y028780D02*
X015755Y028780D01*
X014551Y028855D02*
X014551Y028345D01*
X014551Y028855D02*
X014987Y028855D01*
X014987Y028345D01*
X014551Y028345D01*
X014551Y028490D02*
X014987Y028490D01*
X014987Y028635D02*
X014551Y028635D01*
X014551Y028780D02*
X014987Y028780D01*
D32*
X028173Y025800D02*
X028173Y024904D01*
X028173Y025800D02*
X028675Y025800D01*
X028675Y024904D01*
X028173Y024904D01*
X028173Y025070D02*
X028675Y025070D01*
X028675Y025236D02*
X028173Y025236D01*
X028173Y025402D02*
X028675Y025402D01*
X028675Y025568D02*
X028173Y025568D01*
X028173Y025734D02*
X028675Y025734D01*
X029173Y025800D02*
X029173Y024904D01*
X029173Y025800D02*
X029675Y025800D01*
X029675Y024904D01*
X029173Y024904D01*
X029173Y025070D02*
X029675Y025070D01*
X029675Y025236D02*
X029173Y025236D01*
X029173Y025402D02*
X029675Y025402D01*
X029675Y025568D02*
X029173Y025568D01*
X029173Y025734D02*
X029675Y025734D01*
X030173Y025800D02*
X030173Y024904D01*
X030173Y025800D02*
X030675Y025800D01*
X030675Y024904D01*
X030173Y024904D01*
X030173Y025070D02*
X030675Y025070D01*
X030675Y025236D02*
X030173Y025236D01*
X030173Y025402D02*
X030675Y025402D01*
X030675Y025568D02*
X030173Y025568D01*
X030173Y025734D02*
X030675Y025734D01*
X032504Y025800D02*
X032504Y024904D01*
X032504Y025800D02*
X033006Y025800D01*
X033006Y024904D01*
X032504Y024904D01*
X032504Y025070D02*
X033006Y025070D01*
X033006Y025236D02*
X032504Y025236D01*
X032504Y025402D02*
X033006Y025402D01*
X033006Y025568D02*
X032504Y025568D01*
X032504Y025734D02*
X033006Y025734D01*
X033504Y025800D02*
X033504Y024904D01*
X033504Y025800D02*
X034006Y025800D01*
X034006Y024904D01*
X033504Y024904D01*
X033504Y025070D02*
X034006Y025070D01*
X034006Y025236D02*
X033504Y025236D01*
X033504Y025402D02*
X034006Y025402D01*
X034006Y025568D02*
X033504Y025568D01*
X033504Y025734D02*
X034006Y025734D01*
X034504Y025800D02*
X034504Y024904D01*
X034504Y025800D02*
X035006Y025800D01*
X035006Y024904D01*
X034504Y024904D01*
X034504Y025070D02*
X035006Y025070D01*
X035006Y025236D02*
X034504Y025236D01*
X034504Y025402D02*
X035006Y025402D01*
X035006Y025568D02*
X034504Y025568D01*
X034504Y025734D02*
X035006Y025734D01*
X034504Y020878D02*
X034504Y019982D01*
X034504Y020878D02*
X035006Y020878D01*
X035006Y019982D01*
X034504Y019982D01*
X034504Y020148D02*
X035006Y020148D01*
X035006Y020314D02*
X034504Y020314D01*
X034504Y020480D02*
X035006Y020480D01*
X035006Y020646D02*
X034504Y020646D01*
X034504Y020812D02*
X035006Y020812D01*
X033504Y020878D02*
X033504Y019982D01*
X033504Y020878D02*
X034006Y020878D01*
X034006Y019982D01*
X033504Y019982D01*
X033504Y020148D02*
X034006Y020148D01*
X034006Y020314D02*
X033504Y020314D01*
X033504Y020480D02*
X034006Y020480D01*
X034006Y020646D02*
X033504Y020646D01*
X033504Y020812D02*
X034006Y020812D01*
X032504Y020878D02*
X032504Y019982D01*
X032504Y020878D02*
X033006Y020878D01*
X033006Y019982D01*
X032504Y019982D01*
X032504Y020148D02*
X033006Y020148D01*
X033006Y020314D02*
X032504Y020314D01*
X032504Y020480D02*
X033006Y020480D01*
X033006Y020646D02*
X032504Y020646D01*
X032504Y020812D02*
X033006Y020812D01*
X030173Y020878D02*
X030173Y019982D01*
X030173Y020878D02*
X030675Y020878D01*
X030675Y019982D01*
X030173Y019982D01*
X030173Y020148D02*
X030675Y020148D01*
X030675Y020314D02*
X030173Y020314D01*
X030173Y020480D02*
X030675Y020480D01*
X030675Y020646D02*
X030173Y020646D01*
X030173Y020812D02*
X030675Y020812D01*
X029173Y020878D02*
X029173Y019982D01*
X029173Y020878D02*
X029675Y020878D01*
X029675Y019982D01*
X029173Y019982D01*
X029173Y020148D02*
X029675Y020148D01*
X029675Y020314D02*
X029173Y020314D01*
X029173Y020480D02*
X029675Y020480D01*
X029675Y020646D02*
X029173Y020646D01*
X029173Y020812D02*
X029675Y020812D01*
X028173Y020878D02*
X028173Y019982D01*
X028173Y020878D02*
X028675Y020878D01*
X028675Y019982D01*
X028173Y019982D01*
X028173Y020148D02*
X028675Y020148D01*
X028675Y020314D02*
X028173Y020314D01*
X028173Y020480D02*
X028675Y020480D01*
X028675Y020646D02*
X028173Y020646D01*
X028173Y020812D02*
X028675Y020812D01*
D33*
X026086Y036474D03*
D34*
X024524Y041276D02*
X024524Y041828D01*
X024524Y041276D02*
X024050Y041276D01*
X024050Y041828D01*
X024524Y041828D01*
X024524Y041432D02*
X024050Y041432D01*
X024050Y041588D02*
X024524Y041588D01*
X024524Y041744D02*
X024050Y041744D01*
X023579Y041828D02*
X023579Y041276D01*
X023105Y041276D01*
X023105Y041828D01*
X023579Y041828D01*
X023579Y041432D02*
X023105Y041432D01*
X023105Y041588D02*
X023579Y041588D01*
X023579Y041744D02*
X023105Y041744D01*
X023579Y042930D02*
X023579Y043482D01*
X023579Y042930D02*
X023105Y042930D01*
X023105Y043482D01*
X023579Y043482D01*
X023579Y043086D02*
X023105Y043086D01*
X023105Y043242D02*
X023579Y043242D01*
X023579Y043398D02*
X023105Y043398D01*
X024524Y043482D02*
X024524Y042930D01*
X024050Y042930D01*
X024050Y043482D01*
X024524Y043482D01*
X024524Y043086D02*
X024050Y043086D01*
X024050Y043242D02*
X024524Y043242D01*
X024524Y043398D02*
X024050Y043398D01*
D35*
X023027Y046710D03*
X022042Y046710D03*
X022042Y047915D03*
X023027Y047891D03*
X023224Y049072D03*
X024011Y049072D03*
X024798Y049072D03*
X025980Y047891D03*
X025783Y047104D03*
X022436Y049072D03*
X014956Y055175D03*
X013972Y055175D03*
X013972Y056356D03*
X014956Y056356D03*
X030507Y047104D03*
X030507Y046119D03*
X022582Y034745D03*
X037279Y024426D03*
D36*
X015738Y030809D02*
X013386Y030809D01*
X013386Y031429D01*
X015738Y031429D01*
X015738Y030809D01*
X015738Y031015D02*
X013386Y031015D01*
X013386Y031221D02*
X015738Y031221D01*
X015738Y031427D02*
X013386Y031427D01*
X013386Y033250D02*
X015738Y033250D01*
X013386Y033250D02*
X013386Y033870D01*
X015738Y033870D01*
X015738Y033250D01*
X015738Y033456D02*
X013386Y033456D01*
X013386Y033662D02*
X015738Y033662D01*
X015738Y033868D02*
X013386Y033868D01*
D37*
X030984Y055002D02*
X031604Y055002D01*
X030984Y055002D02*
X030984Y055386D01*
X031604Y055386D01*
X031604Y055002D01*
X031604Y055129D02*
X030984Y055129D01*
X030984Y055256D02*
X031604Y055256D01*
X031604Y055383D02*
X030984Y055383D01*
X030984Y056144D02*
X031604Y056144D01*
X030984Y056144D02*
X030984Y056528D01*
X031604Y056528D01*
X031604Y056144D01*
X031604Y056271D02*
X030984Y056271D01*
X030984Y056398D02*
X031604Y056398D01*
X031604Y056525D02*
X030984Y056525D01*
D38*
X016747Y043088D03*
X013991Y043088D03*
X018224Y022399D03*
X018224Y019643D03*
X022672Y019643D03*
X022672Y022399D03*
X027121Y022399D03*
X027121Y019643D03*
X031570Y019643D03*
X031570Y022399D03*
X036019Y022399D03*
X036019Y019643D03*
D39*
X020665Y026828D03*
D40*
X020665Y027615D03*
X021452Y027615D03*
X021452Y026828D03*
X022239Y026828D03*
X022239Y027615D03*
X023027Y027615D03*
X023027Y026828D03*
X023814Y026828D03*
X023814Y027615D03*
X024602Y027615D03*
X024602Y026828D03*
X025389Y026828D03*
X026176Y026828D03*
X026176Y027615D03*
X025389Y027615D03*
D41*
X012987Y045619D03*
X012987Y046619D03*
X014987Y046619D03*
X015987Y046619D03*
X016987Y046619D03*
X016708Y056365D03*
X017318Y057133D03*
X017928Y056365D03*
X019464Y056365D03*
X020074Y057133D03*
X020684Y056365D03*
D42*
X015743Y022300D03*
X015743Y020529D03*
D43*
X021255Y042773D03*
X022751Y055745D03*
X024483Y055745D03*
D44*
X025743Y055765D03*
X027948Y053797D03*
X030507Y056159D03*
X032003Y055450D03*
X026058Y050253D03*
X024602Y045726D03*
X023224Y045923D03*
X024995Y043167D03*
X024798Y042379D03*
X022594Y041592D03*
X022042Y039033D03*
X023420Y039033D03*
X027239Y043167D03*
X026885Y045253D03*
X028342Y045450D03*
X028617Y043954D03*
X021649Y055765D03*
X018854Y037852D03*
X018854Y037261D03*
X018854Y036671D03*
X018184Y036631D03*
X018184Y037261D03*
X018184Y037852D03*
X016294Y036159D03*
X015625Y036159D03*
X015940Y036789D03*
X015743Y034505D03*
X014956Y034505D03*
X014168Y034505D03*
X016531Y030765D03*
X015743Y029781D03*
X015153Y029781D03*
X014050Y029781D03*
X013381Y029781D03*
X017318Y030765D03*
X018105Y030765D03*
X018893Y030765D03*
D45*
X024168Y039781D03*
X024011Y040450D03*
X027161Y040214D03*
X030743Y044269D03*
X031885Y042379D03*
X033066Y042379D03*
X033066Y044348D03*
X032476Y044741D03*
X033854Y039505D03*
X034917Y037615D03*
X036019Y039033D03*
X034838Y033718D03*
X034641Y032340D03*
X034641Y031356D03*
X035035Y028797D03*
X032672Y026238D03*
X028539Y024466D03*
X029287Y019387D03*
X033735Y019387D03*
X026964Y031356D03*
X032082Y038521D03*
X020546Y053482D03*
X015940Y042576D03*
X015546Y040608D03*
X019680Y041986D03*
X022239Y020726D03*
X024602Y020726D03*
D46*
X014365Y026631D03*
X017515Y052615D03*
X036413Y052615D03*
X036413Y027025D03*
M02*
