G75*
%MOIN*%
%OFA0B0*%
%FSLAX24Y24*%
%IPPOS*%
%LPD*%
%AMOC8*
5,1,8,0,0,1.08239X$1,22.5*
%
%ADD10C,0.0040*%
%ADD11C,0.0060*%
%ADD12C,0.0039*%
%ADD13C,0.0050*%
%ADD14C,0.0059*%
%ADD15C,0.0030*%
D10*
X021216Y031320D02*
X021334Y031320D01*
X021393Y031379D01*
X021393Y031498D01*
X021334Y031557D01*
X021216Y031557D01*
X021157Y031498D01*
X021157Y031439D01*
X021393Y031439D01*
X021519Y031379D02*
X021578Y031439D01*
X021696Y031439D01*
X021755Y031498D01*
X021696Y031557D01*
X021519Y031557D01*
X021519Y031379D02*
X021578Y031320D01*
X021755Y031320D01*
X021882Y031320D02*
X021882Y031498D01*
X021941Y031557D01*
X022118Y031557D01*
X022118Y031320D01*
X022244Y031439D02*
X022480Y031439D01*
X022480Y031498D02*
X022421Y031557D01*
X022303Y031557D01*
X022244Y031498D01*
X022244Y031439D01*
X022303Y031320D02*
X022421Y031320D01*
X022480Y031379D01*
X022480Y031498D01*
X022607Y031557D02*
X022784Y031557D01*
X022843Y031498D01*
X022843Y031379D01*
X022784Y031320D01*
X022607Y031320D01*
X022967Y031320D02*
X023085Y031320D01*
X023026Y031320D02*
X023026Y031557D01*
X023085Y031557D01*
X023026Y031675D02*
X023026Y031734D01*
X023447Y031675D02*
X023447Y031320D01*
X023211Y031320D01*
X023936Y031439D02*
X024172Y031439D01*
X024172Y031498D02*
X024113Y031557D01*
X023995Y031557D01*
X023936Y031498D01*
X023936Y031439D01*
X023995Y031320D02*
X024113Y031320D01*
X024172Y031379D01*
X024172Y031498D01*
X024297Y031557D02*
X024356Y031557D01*
X024474Y031439D01*
X024474Y031557D02*
X024474Y031320D01*
X024601Y031320D02*
X024778Y031320D01*
X024837Y031379D01*
X024778Y031439D01*
X024601Y031439D01*
X024601Y031498D02*
X024601Y031320D01*
X024601Y031498D02*
X024660Y031557D01*
X024778Y031557D01*
X024963Y031557D02*
X024963Y031379D01*
X025022Y031320D01*
X025081Y031379D01*
X025140Y031320D01*
X025199Y031379D01*
X025199Y031557D01*
X025326Y031557D02*
X025503Y031557D01*
X025562Y031498D01*
X025562Y031379D01*
X025503Y031320D01*
X025326Y031320D01*
X025326Y031675D01*
X025382Y031911D02*
X025441Y031970D01*
X025441Y032088D01*
X025382Y032147D01*
X025264Y032147D01*
X025205Y032088D01*
X025205Y032029D01*
X025441Y032029D01*
X025382Y031911D02*
X025264Y031911D01*
X025568Y031970D02*
X025568Y032147D01*
X025568Y031970D02*
X025627Y031911D01*
X025686Y031970D01*
X025745Y031911D01*
X025804Y031970D01*
X025804Y032147D01*
X025930Y032088D02*
X025989Y032147D01*
X026107Y032147D01*
X026166Y032088D01*
X026166Y031970D01*
X026107Y031911D01*
X025989Y031911D01*
X025930Y031970D01*
X025930Y032088D01*
X026293Y032088D02*
X026293Y032206D01*
X026352Y032265D01*
X026529Y032265D01*
X026529Y031911D01*
X026529Y032029D02*
X026352Y032029D01*
X026293Y032088D01*
X026411Y032029D02*
X026293Y031911D01*
X026353Y031675D02*
X026353Y031320D01*
X026226Y031379D02*
X026167Y031439D01*
X025990Y031439D01*
X025990Y031498D02*
X025990Y031320D01*
X026167Y031320D01*
X026226Y031379D01*
X026353Y031498D02*
X026589Y031498D01*
X026589Y031675D02*
X026589Y031320D01*
X026167Y031557D02*
X026049Y031557D01*
X025990Y031498D01*
X025864Y031557D02*
X025864Y031320D01*
X025864Y031439D02*
X025746Y031557D01*
X025687Y031557D01*
X027018Y031911D02*
X027195Y031911D01*
X027254Y031970D01*
X027254Y032088D01*
X027195Y032147D01*
X027018Y032147D01*
X027018Y032265D02*
X027018Y031911D01*
X027377Y031911D02*
X027495Y031911D01*
X027436Y031911D02*
X027436Y032147D01*
X027495Y032147D01*
X027622Y032147D02*
X027740Y031911D01*
X027858Y032147D01*
X027984Y032088D02*
X027984Y031911D01*
X028161Y031911D01*
X028220Y031970D01*
X028161Y032029D01*
X027984Y032029D01*
X027984Y032088D02*
X028043Y032147D01*
X028161Y032147D01*
X028347Y032206D02*
X028347Y031970D01*
X028406Y031911D01*
X028583Y031911D01*
X028583Y032265D01*
X028406Y032265D01*
X028347Y032206D01*
X028343Y031675D02*
X028402Y031616D01*
X028402Y031379D01*
X028343Y031320D01*
X028225Y031320D01*
X028166Y031379D01*
X028166Y031616D01*
X028225Y031675D01*
X028343Y031675D01*
X028039Y031557D02*
X027862Y031557D01*
X027803Y031498D01*
X027803Y031379D01*
X027862Y031320D01*
X028039Y031320D01*
X028039Y031202D02*
X028039Y031557D01*
X027676Y031498D02*
X027676Y031379D01*
X027617Y031320D01*
X027499Y031320D01*
X027440Y031439D02*
X027676Y031439D01*
X027676Y031498D02*
X027617Y031557D01*
X027499Y031557D01*
X027440Y031498D01*
X027440Y031439D01*
X027314Y031557D02*
X027137Y031557D01*
X027078Y031498D01*
X027078Y031320D01*
X027314Y031320D02*
X027314Y031557D01*
X027436Y032265D02*
X027436Y032324D01*
X028891Y031616D02*
X028891Y031498D01*
X028950Y031439D01*
X029127Y031439D01*
X029009Y031439D02*
X028891Y031320D01*
X029127Y031320D02*
X029127Y031675D01*
X028950Y031675D01*
X028891Y031616D01*
X029072Y031911D02*
X029072Y032265D01*
X029072Y032147D02*
X029249Y032147D01*
X029308Y032088D01*
X029308Y031970D01*
X029249Y031911D01*
X029072Y031911D01*
X029312Y031675D02*
X029253Y031616D01*
X029253Y031498D01*
X029312Y031439D01*
X029489Y031439D01*
X029489Y031320D02*
X029489Y031675D01*
X029312Y031675D01*
X029434Y031911D02*
X029434Y032088D01*
X029493Y032147D01*
X029670Y032147D01*
X029670Y031911D01*
X029797Y031911D02*
X029974Y031911D01*
X030033Y031970D01*
X029974Y032029D01*
X029797Y032029D01*
X029797Y032088D02*
X029797Y031911D01*
X029797Y032088D02*
X029856Y032147D01*
X029974Y032147D01*
X029972Y032502D02*
X029736Y032502D01*
X029854Y032502D02*
X029854Y032856D01*
X029972Y032738D01*
X030099Y032797D02*
X030335Y032561D01*
X030276Y032502D01*
X030158Y032502D01*
X030099Y032561D01*
X030099Y032797D01*
X030158Y032856D01*
X030276Y032856D01*
X030335Y032797D01*
X030335Y032561D01*
X030461Y032502D02*
X030697Y032502D01*
X030461Y032738D01*
X030461Y032797D01*
X030520Y032856D01*
X030638Y032856D01*
X030697Y032797D01*
X030758Y032265D02*
X030758Y031911D01*
X030884Y031911D02*
X031061Y031911D01*
X031120Y031970D01*
X031120Y032088D01*
X031061Y032147D01*
X030884Y032147D01*
X030758Y032088D02*
X030699Y032147D01*
X030581Y032147D01*
X030522Y032088D01*
X030522Y031911D01*
X030214Y031675D02*
X029978Y031675D01*
X030096Y031675D02*
X030096Y031320D01*
X029852Y031320D02*
X029852Y031557D01*
X029734Y031675D01*
X029616Y031557D01*
X029616Y031320D01*
X029616Y031498D02*
X029852Y031498D01*
X029551Y032502D02*
X029433Y032502D01*
X029374Y032561D01*
X029374Y032679D01*
X029433Y032738D01*
X029492Y032738D01*
X029610Y032679D01*
X029610Y032856D01*
X029374Y032856D01*
X029610Y032561D02*
X029551Y032502D01*
X030702Y031557D02*
X030761Y031557D01*
X030879Y031439D01*
X030879Y031557D02*
X030879Y031320D01*
X031005Y031439D02*
X031241Y031439D01*
X031241Y031498D02*
X031182Y031557D01*
X031064Y031557D01*
X031005Y031498D01*
X031005Y031439D01*
X031064Y031320D02*
X031182Y031320D01*
X031241Y031379D01*
X031241Y031498D01*
X031368Y031557D02*
X031545Y031557D01*
X031604Y031498D01*
X031604Y031379D01*
X031545Y031320D01*
X031368Y031320D01*
X031368Y031675D01*
X031362Y031911D02*
X031244Y031911D01*
X031303Y031911D02*
X031303Y032147D01*
X031362Y032147D01*
X031303Y032265D02*
X031303Y032324D01*
X031489Y032088D02*
X031489Y031911D01*
X031489Y032088D02*
X031548Y032147D01*
X031725Y032147D01*
X031725Y031911D01*
X031850Y032147D02*
X031909Y032147D01*
X032027Y032029D01*
X032027Y031911D02*
X032027Y032147D01*
X032153Y032088D02*
X032153Y031911D01*
X032330Y031911D01*
X032389Y031970D01*
X032330Y032029D01*
X032153Y032029D01*
X032153Y032088D02*
X032212Y032147D01*
X032330Y032147D01*
X032516Y032147D02*
X032575Y032088D01*
X032752Y032088D01*
X032752Y031911D02*
X032575Y031911D01*
X032516Y031970D01*
X032516Y032029D01*
X032575Y032088D01*
X032516Y032147D02*
X032516Y032206D01*
X032575Y032265D01*
X032752Y032265D01*
X032752Y031911D01*
X032818Y031675D02*
X032818Y031320D01*
X032995Y031320D01*
X033054Y031379D01*
X033054Y031498D01*
X032995Y031557D01*
X032818Y031557D01*
X033180Y031498D02*
X033180Y031439D01*
X033416Y031439D01*
X033416Y031498D02*
X033357Y031557D01*
X033239Y031557D01*
X033180Y031498D01*
X033239Y031320D02*
X033357Y031320D01*
X033416Y031379D01*
X033416Y031498D01*
X033543Y031557D02*
X033720Y031557D01*
X033779Y031498D01*
X033720Y031439D01*
X033602Y031439D01*
X033543Y031379D01*
X033602Y031320D01*
X033779Y031320D01*
X033905Y031320D02*
X033905Y031498D01*
X033964Y031557D01*
X034141Y031557D01*
X034141Y031320D01*
X034268Y031439D02*
X034504Y031439D01*
X034504Y031498D02*
X034445Y031557D01*
X034327Y031557D01*
X034268Y031498D01*
X034268Y031439D01*
X034327Y031320D02*
X034445Y031320D01*
X034504Y031379D01*
X034504Y031498D01*
X034630Y031557D02*
X034807Y031557D01*
X034866Y031498D01*
X034866Y031379D01*
X034807Y031320D01*
X034630Y031320D01*
X034990Y031320D02*
X035108Y031320D01*
X035049Y031320D02*
X035049Y031557D01*
X035108Y031557D01*
X035049Y031675D02*
X035049Y031734D01*
X035049Y031911D02*
X035049Y032147D01*
X035108Y032147D01*
X035049Y032265D02*
X035049Y032324D01*
X035049Y032502D02*
X035108Y032561D01*
X035108Y032679D01*
X035049Y032738D01*
X034931Y032738D01*
X034872Y032679D01*
X034872Y032561D01*
X034931Y032502D01*
X035049Y032502D01*
X035235Y032561D02*
X035294Y032502D01*
X035412Y032502D01*
X035471Y032561D01*
X035471Y032797D01*
X035412Y032856D01*
X035294Y032856D01*
X035235Y032797D01*
X034746Y032738D02*
X034569Y032738D01*
X034510Y032679D01*
X034510Y032561D01*
X034569Y032502D01*
X034746Y032502D01*
X034746Y032384D02*
X034746Y032738D01*
X034383Y032738D02*
X034383Y032561D01*
X034324Y032502D01*
X034147Y032502D01*
X034147Y032443D02*
X034206Y032384D01*
X034265Y032384D01*
X034147Y032443D02*
X034147Y032738D01*
X034020Y032738D02*
X034020Y032502D01*
X034020Y032620D02*
X033902Y032738D01*
X033843Y032738D01*
X033718Y032738D02*
X033659Y032738D01*
X033659Y032502D01*
X033718Y032502D02*
X033600Y032502D01*
X033477Y032561D02*
X033418Y032502D01*
X033241Y032502D01*
X033241Y032443D02*
X033241Y032738D01*
X033418Y032738D01*
X033477Y032679D01*
X033477Y032561D01*
X033359Y032384D02*
X033300Y032384D01*
X033241Y032443D01*
X033114Y032502D02*
X033114Y032856D01*
X033055Y032738D02*
X032937Y032738D01*
X032878Y032679D01*
X032878Y032502D01*
X032693Y032561D02*
X032634Y032502D01*
X032693Y032561D02*
X032693Y032797D01*
X032752Y032738D02*
X032634Y032738D01*
X033055Y032738D02*
X033114Y032679D01*
X033241Y032265D02*
X033241Y031911D01*
X033418Y031911D01*
X033477Y031970D01*
X033477Y032088D01*
X033418Y032147D01*
X033241Y032147D01*
X033602Y032147D02*
X033661Y032147D01*
X033779Y032029D01*
X033779Y031911D02*
X033779Y032147D01*
X033905Y032088D02*
X033905Y031911D01*
X034082Y031911D01*
X034141Y031970D01*
X034082Y032029D01*
X033905Y032029D01*
X033905Y032088D02*
X033964Y032147D01*
X034082Y032147D01*
X034268Y032088D02*
X034268Y031911D01*
X034268Y032088D02*
X034327Y032147D01*
X034445Y032147D01*
X034504Y032088D01*
X034630Y032147D02*
X034807Y032147D01*
X034866Y032088D01*
X034866Y031970D01*
X034807Y031911D01*
X034630Y031911D01*
X034504Y031911D02*
X034504Y032265D01*
X034990Y031911D02*
X035108Y031911D01*
X035235Y031911D02*
X035353Y032029D01*
X035294Y032029D02*
X035471Y032029D01*
X035471Y031911D02*
X035471Y032265D01*
X035294Y032265D01*
X035235Y032206D01*
X035235Y032088D01*
X035294Y032029D01*
X035471Y031675D02*
X035471Y031320D01*
X035235Y031320D01*
X033659Y032856D02*
X033659Y032915D01*
X032329Y031557D02*
X032329Y031379D01*
X032270Y031320D01*
X032093Y031320D01*
X032093Y031557D01*
X031966Y031557D02*
X031789Y031557D01*
X031730Y031498D01*
X031730Y031320D01*
X031966Y031320D02*
X031966Y031557D01*
D11*
X031930Y032533D02*
X032100Y032533D01*
X032156Y032590D01*
X032156Y032703D01*
X032100Y032760D01*
X031930Y032760D01*
D12*
X031726Y032659D02*
X031728Y032689D01*
X031734Y032719D01*
X031744Y032747D01*
X031757Y032774D01*
X031774Y032799D01*
X031793Y032822D01*
X031816Y032841D01*
X031841Y032858D01*
X031868Y032871D01*
X031896Y032881D01*
X031926Y032887D01*
X031956Y032889D01*
X031986Y032887D01*
X032016Y032881D01*
X032044Y032871D01*
X032071Y032858D01*
X032096Y032841D01*
X032119Y032822D01*
X032138Y032799D01*
X032155Y032774D01*
X032168Y032747D01*
X032178Y032719D01*
X032184Y032689D01*
X032186Y032659D01*
X032184Y032629D01*
X032178Y032599D01*
X032168Y032571D01*
X032155Y032544D01*
X032138Y032519D01*
X032119Y032496D01*
X032096Y032477D01*
X032071Y032460D01*
X032044Y032447D01*
X032016Y032437D01*
X031986Y032431D01*
X031956Y032429D01*
X031926Y032431D01*
X031896Y032437D01*
X031868Y032447D01*
X031841Y032460D01*
X031816Y032477D01*
X031793Y032496D01*
X031774Y032519D01*
X031757Y032544D01*
X031744Y032571D01*
X031734Y032599D01*
X031728Y032629D01*
X031726Y032659D01*
X036019Y033324D02*
X036019Y030962D01*
X020665Y030962D01*
X020665Y033324D01*
X036019Y033324D01*
D13*
X035994Y028091D02*
X035769Y028091D01*
X035694Y028016D01*
X035694Y027866D01*
X035769Y027791D01*
X035994Y027791D01*
X035844Y027791D02*
X035694Y027640D01*
X035533Y027640D02*
X035383Y027640D01*
X035458Y027640D02*
X035458Y028091D01*
X035533Y028091D02*
X035383Y028091D01*
X035227Y028016D02*
X035227Y027716D01*
X035151Y027640D01*
X035001Y027640D01*
X034926Y027716D01*
X034926Y027866D01*
X035076Y027866D01*
X034926Y028016D02*
X035001Y028091D01*
X035151Y028091D01*
X035227Y028016D01*
X035178Y027107D02*
X035328Y027107D01*
X035403Y027032D01*
X035403Y026731D01*
X035328Y026656D01*
X035178Y026656D01*
X035103Y026731D01*
X034943Y026656D02*
X034943Y027107D01*
X034643Y026656D01*
X034643Y027107D01*
X034483Y026881D02*
X034257Y026881D01*
X034182Y026806D01*
X034182Y026731D01*
X034257Y026656D01*
X034407Y026656D01*
X034483Y026731D01*
X034483Y026881D01*
X034332Y027032D01*
X034182Y027107D01*
X034231Y027640D02*
X034306Y027716D01*
X034231Y027640D02*
X034081Y027640D01*
X034006Y027716D01*
X034006Y027791D01*
X034081Y027866D01*
X034231Y027866D01*
X034306Y027941D01*
X034306Y028016D01*
X034231Y028091D01*
X034081Y028091D01*
X034006Y028016D01*
X033845Y028091D02*
X033620Y028091D01*
X033545Y028016D01*
X033545Y027866D01*
X033620Y027791D01*
X033845Y027791D01*
X033845Y027640D02*
X033845Y028091D01*
X033385Y028091D02*
X033385Y027640D01*
X033385Y027791D02*
X033085Y028091D01*
X032925Y028091D02*
X032699Y028091D01*
X032624Y028016D01*
X032624Y027866D01*
X032699Y027791D01*
X032925Y027791D01*
X032774Y027791D02*
X032624Y027640D01*
X032925Y027640D02*
X032925Y028091D01*
X033310Y027866D02*
X033085Y027640D01*
X031466Y027640D02*
X031466Y028091D01*
X031241Y028091D01*
X031166Y028016D01*
X031166Y027866D01*
X031241Y027791D01*
X031466Y027791D01*
X031316Y027791D02*
X031166Y027640D01*
X031006Y027640D02*
X030856Y027640D01*
X030931Y027640D02*
X030931Y028091D01*
X031006Y028091D02*
X030856Y028091D01*
X030699Y028016D02*
X030699Y027716D01*
X030624Y027640D01*
X030474Y027640D01*
X030399Y027716D01*
X030399Y027866D01*
X030549Y027866D01*
X030699Y028016D02*
X030624Y028091D01*
X030474Y028091D01*
X030399Y028016D01*
X029778Y028091D02*
X029628Y027941D01*
X029478Y028091D01*
X029478Y027640D01*
X029318Y027640D02*
X029168Y027640D01*
X029243Y027640D02*
X029243Y028091D01*
X029318Y028091D02*
X029168Y028091D01*
X029011Y028016D02*
X029011Y027716D01*
X028936Y027640D01*
X028786Y027640D01*
X028711Y027716D01*
X028711Y028016D02*
X028786Y028091D01*
X028936Y028091D01*
X029011Y028016D01*
X029778Y028091D02*
X029778Y027640D01*
X029852Y027028D02*
X029852Y026953D01*
X030152Y026653D01*
X030152Y026577D01*
X030312Y026577D02*
X030312Y027028D01*
X030152Y027028D02*
X029852Y027028D01*
X030312Y026577D02*
X030612Y027028D01*
X030612Y026577D01*
X030772Y026653D02*
X030847Y026577D01*
X030998Y026577D01*
X031073Y026653D01*
X031073Y026953D01*
X030998Y027028D01*
X030847Y027028D01*
X030772Y026953D01*
X026860Y027247D02*
X026860Y027697D01*
X026635Y027697D01*
X026560Y027622D01*
X026560Y027472D01*
X026635Y027397D01*
X026860Y027397D01*
X026710Y027397D02*
X026560Y027247D01*
X026400Y027247D02*
X026249Y027247D01*
X026325Y027247D02*
X026325Y027697D01*
X026400Y027697D02*
X026249Y027697D01*
X026093Y027622D02*
X026093Y027322D01*
X026018Y027247D01*
X025868Y027247D01*
X025792Y027322D01*
X025792Y027472D01*
X025943Y027472D01*
X026093Y027622D02*
X026018Y027697D01*
X025868Y027697D01*
X025792Y027622D01*
X025784Y027028D02*
X025784Y026577D01*
X026085Y027028D01*
X026085Y026577D01*
X026245Y026653D02*
X026320Y026577D01*
X026470Y026577D01*
X026545Y026653D01*
X026545Y026953D01*
X026470Y027028D01*
X026320Y027028D01*
X026245Y026953D01*
X025624Y026953D02*
X025624Y026878D01*
X025549Y026803D01*
X025324Y026803D01*
X025324Y026653D02*
X025324Y026953D01*
X025399Y027028D01*
X025549Y027028D01*
X025624Y026953D01*
X025624Y026653D02*
X025549Y026577D01*
X025399Y026577D01*
X025324Y026653D01*
X025172Y027247D02*
X025172Y027697D01*
X024947Y027697D01*
X024872Y027622D01*
X024872Y027472D01*
X024947Y027397D01*
X025172Y027397D01*
X024712Y027697D02*
X024411Y027697D01*
X024561Y027697D02*
X024561Y027247D01*
X024101Y027247D02*
X024101Y027697D01*
X024251Y027697D02*
X023951Y027697D01*
X023514Y027640D02*
X023213Y027640D01*
X023053Y027640D02*
X022753Y028091D01*
X022593Y028091D02*
X022293Y028091D01*
X022443Y028091D02*
X022443Y027640D01*
X022753Y027640D02*
X023053Y028091D01*
X023213Y028091D02*
X023514Y028091D01*
X023514Y027640D01*
X023514Y027866D02*
X023363Y027866D01*
X022214Y026992D02*
X022214Y026692D01*
X022139Y026617D01*
X021989Y026617D01*
X021914Y026692D01*
X021754Y026617D02*
X021754Y027067D01*
X021454Y026617D01*
X021454Y027067D01*
X021294Y026992D02*
X021294Y026917D01*
X021218Y026842D01*
X021068Y026842D01*
X020993Y026767D01*
X020993Y026692D01*
X021068Y026617D01*
X021218Y026617D01*
X021294Y026692D01*
X021294Y026767D01*
X021218Y026842D01*
X021068Y026842D02*
X020993Y026917D01*
X020993Y026992D01*
X021068Y027067D01*
X021218Y027067D01*
X021294Y026992D01*
X021914Y026992D02*
X021989Y027067D01*
X022139Y027067D01*
X022214Y026992D01*
X021597Y027640D02*
X021672Y027716D01*
X021597Y027640D02*
X021447Y027640D01*
X021372Y027716D01*
X021372Y027791D01*
X021447Y027866D01*
X021597Y027866D01*
X021672Y027941D01*
X021672Y028016D01*
X021597Y028091D01*
X021447Y028091D01*
X021372Y028016D01*
X021212Y028091D02*
X020986Y028091D01*
X020911Y028016D01*
X020911Y027866D01*
X020986Y027791D01*
X021212Y027791D01*
X021212Y027640D02*
X021212Y028091D01*
X020751Y028091D02*
X020751Y027640D01*
X020751Y027791D02*
X020451Y028091D01*
X020291Y028091D02*
X020066Y028091D01*
X019991Y028016D01*
X019991Y027866D01*
X020066Y027791D01*
X020291Y027791D01*
X020141Y027791D02*
X019991Y027640D01*
X020291Y027640D02*
X020291Y028091D01*
X020676Y027866D02*
X020451Y027640D01*
X019262Y027640D02*
X018961Y027640D01*
X018801Y027640D02*
X018501Y028091D01*
X018341Y028091D02*
X018041Y028091D01*
X018191Y028091D02*
X018191Y027640D01*
X018501Y027640D02*
X018801Y028091D01*
X018961Y028091D02*
X019262Y028091D01*
X019262Y027640D01*
X019262Y027866D02*
X019111Y027866D01*
X017690Y027043D02*
X017690Y026743D01*
X017615Y026668D01*
X017465Y026668D01*
X017390Y026743D01*
X017230Y026668D02*
X017230Y027118D01*
X016929Y026668D01*
X016929Y027118D01*
X016769Y027118D02*
X016769Y026893D01*
X016619Y026968D01*
X016544Y026968D01*
X016469Y026893D01*
X016469Y026743D01*
X016544Y026668D01*
X016694Y026668D01*
X016769Y026743D01*
X016769Y027118D02*
X016469Y027118D01*
X016428Y027640D02*
X016352Y027716D01*
X016428Y027640D02*
X016578Y027640D01*
X016653Y027716D01*
X016653Y028016D01*
X016578Y028091D01*
X016428Y028091D01*
X016352Y028016D01*
X016809Y028091D02*
X016960Y028091D01*
X016885Y028091D02*
X016885Y027640D01*
X016960Y027640D02*
X016809Y027640D01*
X017120Y027640D02*
X017120Y028091D01*
X017270Y027941D01*
X017420Y028091D01*
X017420Y027640D01*
X017465Y027118D02*
X017615Y027118D01*
X017690Y027043D01*
X017465Y027118D02*
X017390Y027043D01*
X020197Y044471D02*
X020197Y044771D01*
X020197Y044932D02*
X020648Y045232D01*
X020648Y045392D02*
X020648Y045692D01*
X020648Y045542D02*
X020197Y045542D01*
X020197Y045232D02*
X020648Y044932D01*
X020648Y044771D02*
X020648Y044471D01*
X020197Y044471D01*
X020423Y044471D02*
X020423Y044621D01*
X020348Y046313D02*
X020348Y046538D01*
X020423Y046613D01*
X020573Y046613D01*
X020648Y046538D01*
X020648Y046313D01*
X020197Y046313D01*
X020197Y046923D02*
X020648Y046923D01*
X020648Y046773D02*
X020648Y047073D01*
X020648Y047234D02*
X020648Y047534D01*
X020648Y047384D02*
X020197Y047384D01*
X019230Y047404D02*
X019230Y047554D01*
X019155Y047629D01*
X018855Y047329D01*
X018780Y047404D01*
X018780Y047554D01*
X018855Y047629D01*
X019155Y047629D01*
X019230Y047404D02*
X019155Y047329D01*
X018855Y047329D01*
X018780Y047169D02*
X018780Y046868D01*
X018780Y047018D02*
X019230Y047018D01*
X019080Y046868D01*
X019230Y046708D02*
X018780Y046708D01*
X019230Y046408D01*
X018780Y046408D01*
X018855Y046248D02*
X018780Y046173D01*
X018780Y046023D01*
X018855Y045948D01*
X019155Y045948D01*
X019230Y046023D01*
X019230Y046173D01*
X019155Y046248D01*
X026311Y056589D02*
X026612Y056589D01*
X026311Y056890D01*
X026311Y056965D01*
X026387Y057040D01*
X026537Y057040D01*
X026612Y056965D01*
X026772Y057040D02*
X026772Y056589D01*
X027072Y057040D01*
X027072Y056589D01*
X027232Y056664D02*
X027307Y056589D01*
X027457Y056589D01*
X027533Y056664D01*
X027533Y056965D01*
X027457Y057040D01*
X027307Y057040D01*
X027232Y056965D01*
X027304Y057168D02*
X027229Y057243D01*
X027229Y057618D01*
X027069Y057543D02*
X027069Y057468D01*
X026994Y057393D01*
X026844Y057393D01*
X026769Y057318D01*
X026769Y057243D01*
X026844Y057168D01*
X026994Y057168D01*
X027069Y057243D01*
X027304Y057168D02*
X027454Y057168D01*
X027529Y057243D01*
X027529Y057618D01*
X027069Y057543D02*
X026994Y057618D01*
X026844Y057618D01*
X026769Y057543D01*
X026609Y057618D02*
X026383Y057618D01*
X026308Y057543D01*
X026308Y057468D01*
X026383Y057393D01*
X026609Y057393D01*
X026609Y057168D02*
X026383Y057168D01*
X026308Y057243D01*
X026308Y057318D01*
X026383Y057393D01*
X026609Y057168D02*
X026609Y057618D01*
X035994Y028091D02*
X035994Y027640D01*
X035178Y027107D02*
X035103Y027032D01*
D14*
X012594Y020529D02*
X012594Y059899D01*
X038184Y059899D01*
X038184Y020529D01*
X012594Y020529D01*
X017042Y020627D02*
X017042Y021021D01*
X017042Y020627D02*
X019405Y020627D01*
X019405Y020824D01*
X019405Y022989D02*
X019405Y026257D01*
X017042Y026257D01*
X017042Y025942D01*
X017042Y024564D02*
X017042Y022202D01*
X021491Y022202D02*
X021491Y024564D01*
X021491Y025942D02*
X021491Y026257D01*
X023854Y026257D01*
X023854Y022989D01*
X023854Y020824D02*
X023854Y020627D01*
X021491Y020627D01*
X021491Y021021D01*
X025940Y021021D02*
X025940Y020627D01*
X028302Y020627D01*
X028302Y020824D01*
X028302Y022989D02*
X028302Y026257D01*
X025940Y026257D01*
X025940Y025942D01*
X025940Y024564D02*
X025940Y022202D01*
X030389Y022202D02*
X030389Y024564D01*
X030389Y025942D02*
X030389Y026257D01*
X032751Y026257D01*
X032751Y022989D01*
X032751Y020824D02*
X032751Y020627D01*
X030389Y020627D01*
X030389Y021021D01*
X034838Y021021D02*
X034838Y020627D01*
X037200Y020627D01*
X037200Y020824D01*
X037200Y022989D02*
X037200Y026257D01*
X034838Y026257D01*
X034838Y025942D01*
X034838Y024564D02*
X034838Y022202D01*
X018243Y044269D02*
X014976Y044269D01*
X014188Y046631D02*
X016550Y046631D01*
X017928Y046631D02*
X018243Y046631D01*
X018243Y044269D01*
X013007Y046631D02*
X012613Y046631D01*
X012613Y044269D01*
X012810Y044269D01*
X022436Y056631D02*
X022751Y056631D01*
X022102Y057812D02*
X022102Y058600D01*
X022042Y059978D02*
X024798Y059978D01*
X024995Y059978D01*
X025192Y059978D01*
X025113Y058600D02*
X025113Y057832D01*
X024798Y056631D02*
X024483Y056631D01*
D15*
X024323Y052492D02*
X024178Y052492D01*
X024129Y052443D01*
X024129Y052346D01*
X024178Y052298D01*
X024323Y052298D01*
X024323Y052201D02*
X024323Y052492D01*
X024028Y052395D02*
X023931Y052492D01*
X023931Y052201D01*
X023835Y052201D02*
X024028Y052201D01*
X023733Y052250D02*
X023540Y052443D01*
X023540Y052250D01*
X023588Y052201D01*
X023685Y052201D01*
X023733Y052250D01*
X023733Y052443D01*
X023685Y052492D01*
X023588Y052492D01*
X023540Y052443D01*
X023472Y052090D02*
X023327Y052090D01*
X023279Y052042D01*
X023279Y051945D01*
X023327Y051896D01*
X023472Y051896D01*
X023472Y051800D02*
X023472Y052090D01*
X023178Y051993D02*
X023081Y052090D01*
X023081Y051800D01*
X023178Y051800D02*
X022984Y051800D01*
X022883Y051800D02*
X022690Y051800D01*
X022786Y051800D02*
X022786Y052090D01*
X022883Y051993D01*
X022653Y052225D02*
X022653Y052515D01*
X022508Y052515D01*
X022460Y052467D01*
X022460Y052370D01*
X022508Y052322D01*
X022653Y052322D01*
X022359Y052418D02*
X022262Y052515D01*
X022262Y052225D01*
X022359Y052225D02*
X022165Y052225D01*
X022064Y052225D02*
X021871Y052418D01*
X021871Y052467D01*
X021919Y052515D01*
X022016Y052515D01*
X022064Y052467D01*
X022064Y052225D02*
X021871Y052225D01*
X021930Y050980D02*
X021930Y050835D01*
X021833Y050883D01*
X021785Y050883D01*
X021736Y050835D01*
X021736Y050738D01*
X021785Y050690D01*
X021881Y050690D01*
X021930Y050738D01*
X022031Y050835D02*
X022079Y050786D01*
X022224Y050786D01*
X022224Y050690D02*
X022224Y050980D01*
X022079Y050980D01*
X022031Y050931D01*
X022031Y050835D01*
X021930Y050980D02*
X021736Y050980D01*
X022705Y050964D02*
X022705Y050916D01*
X022898Y050722D01*
X022898Y050674D01*
X022999Y050819D02*
X023048Y050771D01*
X023193Y050771D01*
X023193Y050674D02*
X023193Y050964D01*
X023048Y050964D01*
X022999Y050916D01*
X022999Y050819D01*
X022898Y050964D02*
X022705Y050964D01*
X022769Y049763D02*
X022720Y049715D01*
X022720Y049666D01*
X022769Y049618D01*
X022866Y049618D01*
X022914Y049666D01*
X022914Y049715D01*
X022866Y049763D01*
X022769Y049763D01*
X022769Y049618D02*
X022720Y049570D01*
X022720Y049521D01*
X022769Y049473D01*
X022866Y049473D01*
X022914Y049521D01*
X022914Y049570D01*
X022866Y049618D01*
X023015Y049618D02*
X023063Y049570D01*
X023209Y049570D01*
X023209Y049473D02*
X023209Y049763D01*
X023063Y049763D01*
X023015Y049715D01*
X023015Y049618D01*
X022244Y049562D02*
X022099Y049562D01*
X022051Y049610D01*
X022051Y049707D01*
X022099Y049755D01*
X022244Y049755D01*
X022244Y049465D01*
X021949Y049513D02*
X021901Y049465D01*
X021804Y049465D01*
X021756Y049513D01*
X021756Y049562D01*
X021804Y049610D01*
X021949Y049610D01*
X021949Y049513D01*
X021949Y049610D02*
X021853Y049707D01*
X021756Y049755D01*
X024543Y051848D02*
X024543Y052042D01*
X024592Y052090D01*
X024688Y052090D01*
X024737Y052042D01*
X024737Y051993D01*
X024688Y051945D01*
X024543Y051945D01*
X024543Y051848D02*
X024592Y051800D01*
X024688Y051800D01*
X024737Y051848D01*
X024838Y051945D02*
X024886Y051896D01*
X025031Y051896D01*
X025031Y051800D02*
X025031Y052090D01*
X024886Y052090D01*
X024838Y052042D01*
X024838Y051945D01*
X025170Y050716D02*
X025316Y050571D01*
X025122Y050571D01*
X025170Y050426D02*
X025170Y050716D01*
X025417Y050668D02*
X025417Y050571D01*
X025465Y050522D01*
X025610Y050522D01*
X025610Y050426D02*
X025610Y050716D01*
X025465Y050716D01*
X025417Y050668D01*
X025402Y049641D02*
X025256Y049641D01*
X025208Y049593D01*
X025208Y049496D01*
X025256Y049448D01*
X025402Y049448D01*
X025402Y049351D02*
X025402Y049641D01*
X025107Y049544D02*
X025010Y049641D01*
X025010Y049351D01*
X025107Y049351D02*
X024913Y049351D01*
X030280Y049923D02*
X030328Y049875D01*
X030425Y049875D01*
X030473Y049923D01*
X030376Y050020D02*
X030328Y050020D01*
X030280Y049971D01*
X030280Y049923D01*
X030328Y050020D02*
X030280Y050068D01*
X030280Y050116D01*
X030328Y050165D01*
X030425Y050165D01*
X030473Y050116D01*
X030574Y050116D02*
X030574Y050020D01*
X030623Y049971D01*
X030768Y049971D01*
X030768Y049875D02*
X030768Y050165D01*
X030623Y050165D01*
X030574Y050116D01*
X030650Y048106D02*
X030602Y048057D01*
X030602Y047961D01*
X030650Y047912D01*
X030795Y047912D01*
X030795Y047815D02*
X030795Y048106D01*
X030650Y048106D01*
X030501Y048057D02*
X030452Y048106D01*
X030355Y048106D01*
X030307Y048057D01*
X030307Y048009D01*
X030501Y047815D01*
X030307Y047815D01*
M02*
