G75*
%MOIN*%
%OFA0B0*%
%FSLAX24Y24*%
%IPPOS*%
%LPD*%
%AMOC8*
5,1,8,0,0,1.08239X$1,22.5*
%
%ADD10C,0.0050*%
%ADD11C,0.0059*%
%ADD12C,0.0760*%
%ADD13R,0.0700X0.0700*%
%ADD14C,0.0700*%
%ADD15R,0.0560X0.0560*%
%ADD16C,0.0560*%
%ADD17R,0.0709X0.0709*%
%ADD18R,0.0500X0.0500*%
%ADD19C,0.0197*%
%ADD20C,0.0148*%
%ADD21R,0.0472X0.0472*%
%ADD22C,0.0472*%
%ADD23C,0.0660*%
%ADD24C,0.0049*%
%ADD25C,0.0315*%
%ADD26C,0.0394*%
%ADD27C,0.0500*%
%ADD28C,0.0079*%
%ADD29C,0.0500*%
%ADD30C,0.0157*%
%ADD31C,0.0354*%
%ADD32C,0.0236*%
%ADD33C,0.0315*%
%ADD34C,0.2540*%
%ADD35C,0.0118*%
D10*
X033879Y019766D02*
X034179Y019766D01*
X034339Y019992D02*
X034639Y019992D01*
X034799Y019992D02*
X035100Y019992D01*
X035260Y019992D02*
X035485Y019992D01*
X035560Y019917D01*
X035560Y019842D01*
X035485Y019766D01*
X035260Y019766D01*
X035260Y020217D01*
X035485Y020217D01*
X035560Y020142D01*
X035560Y020067D01*
X035485Y019992D01*
X035720Y020142D02*
X035720Y019842D01*
X035795Y019766D01*
X035945Y019766D01*
X036020Y019842D01*
X036020Y020142D01*
X035945Y020217D01*
X035795Y020217D01*
X035720Y020142D01*
X036180Y020217D02*
X036481Y020217D01*
X036331Y020217D02*
X036331Y019766D01*
X036791Y019766D02*
X036791Y020217D01*
X036641Y020217D02*
X036941Y020217D01*
X037101Y020142D02*
X037101Y019842D01*
X037176Y019766D01*
X037326Y019766D01*
X037402Y019842D01*
X037402Y020142D01*
X037326Y020217D01*
X037176Y020217D01*
X037101Y020142D01*
X037562Y020217D02*
X037562Y019766D01*
X037862Y019766D02*
X037862Y020217D01*
X037712Y020067D01*
X037562Y020217D01*
X034564Y020217D02*
X034564Y019766D01*
X034339Y019992D02*
X034564Y020217D01*
X033879Y020217D02*
X033879Y019766D01*
X033889Y049688D02*
X033889Y049988D01*
X033739Y050138D01*
X033589Y049988D01*
X033589Y049688D01*
X033589Y049913D02*
X033889Y049913D01*
X034049Y050138D02*
X034049Y049688D01*
X034349Y049688D02*
X034349Y050138D01*
X034199Y049988D01*
X034049Y050138D01*
X034509Y050063D02*
X034509Y049988D01*
X034584Y049913D01*
X034810Y049913D01*
X034970Y049988D02*
X035045Y049913D01*
X035195Y049913D01*
X035270Y049988D01*
X035270Y050063D01*
X035195Y050138D01*
X035045Y050138D01*
X034970Y050063D01*
X034970Y049988D01*
X035045Y049913D02*
X034970Y049838D01*
X034970Y049763D01*
X035045Y049688D01*
X035195Y049688D01*
X035270Y049763D01*
X035270Y049838D01*
X035195Y049913D01*
X035430Y049913D02*
X035730Y049913D01*
X035730Y049988D02*
X035580Y050138D01*
X035430Y049988D01*
X035430Y049688D01*
X035730Y049688D02*
X035730Y049988D01*
X035890Y050138D02*
X036191Y049838D01*
X036116Y049913D02*
X035890Y049688D01*
X036191Y049688D02*
X036191Y050138D01*
X036041Y050672D02*
X035890Y050822D01*
X035890Y051122D01*
X035730Y051122D02*
X035730Y050672D01*
X035730Y050822D02*
X035430Y051122D01*
X035270Y051122D02*
X035270Y050897D01*
X035120Y050972D01*
X035045Y050972D01*
X034970Y050897D01*
X034970Y050747D01*
X035045Y050672D01*
X035195Y050672D01*
X035270Y050747D01*
X035430Y050672D02*
X035655Y050897D01*
X035270Y051122D02*
X034970Y051122D01*
X034810Y051122D02*
X034584Y051122D01*
X034509Y051047D01*
X034509Y050747D01*
X034584Y050672D01*
X034810Y050672D01*
X034810Y051122D01*
X034349Y051047D02*
X034349Y050747D01*
X034274Y050672D01*
X034124Y050672D01*
X034049Y050747D01*
X034049Y050897D01*
X034199Y050897D01*
X034049Y051047D02*
X034124Y051122D01*
X034274Y051122D01*
X034349Y051047D01*
X033889Y051122D02*
X033664Y051122D01*
X033589Y051047D01*
X033589Y050897D01*
X033664Y050822D01*
X033889Y050822D01*
X033889Y050672D02*
X033889Y051122D01*
X033739Y050822D02*
X033589Y050672D01*
X034509Y050063D02*
X034584Y050138D01*
X034810Y050138D01*
X034810Y049688D01*
X034584Y049688D01*
X034509Y049763D01*
X034509Y049838D01*
X034584Y049913D01*
X036041Y050672D02*
X036191Y050822D01*
X036191Y051122D01*
D11*
X012594Y059899D02*
X012594Y020529D01*
X038184Y020529D01*
X038184Y059899D01*
X012594Y059899D01*
D12*
X025086Y038836D03*
X033417Y057962D03*
X034417Y057962D03*
X035417Y057962D03*
D13*
X015448Y054190D03*
D14*
X015448Y053206D03*
X015448Y052222D03*
X014464Y052222D03*
X014464Y053206D03*
X014464Y054190D03*
D15*
X017318Y050647D03*
X028224Y051434D03*
X029405Y054100D03*
X031228Y043757D03*
X023684Y034899D03*
D16*
X022684Y034899D03*
X032228Y043757D03*
X028224Y049434D03*
X028224Y050434D03*
X029405Y053100D03*
X017318Y052647D03*
X017318Y051647D03*
D17*
X026086Y038836D03*
D18*
X022582Y037108D03*
X030507Y048482D03*
X030507Y049466D03*
X025980Y050253D03*
X025783Y049466D03*
X024798Y051434D03*
X024011Y051434D03*
X023224Y051434D03*
X022436Y051434D03*
X022042Y050277D03*
X023027Y050253D03*
X023027Y049072D03*
X022042Y049072D03*
X014956Y057537D03*
X013972Y057537D03*
X013972Y058718D03*
X014956Y058718D03*
X037279Y026789D03*
D19*
X036609Y026434D02*
X036609Y027222D01*
X036609Y026434D02*
X036019Y026434D01*
X036019Y027222D01*
X036609Y027222D01*
X036609Y026630D02*
X036019Y026630D01*
X036019Y026826D02*
X036609Y026826D01*
X036609Y027022D02*
X036019Y027022D01*
X036019Y027218D02*
X036609Y027218D01*
X035055Y024958D02*
X034267Y024958D01*
X034267Y025548D01*
X035055Y025548D01*
X035055Y024958D01*
X035055Y025154D02*
X034267Y025154D01*
X034267Y025350D02*
X035055Y025350D01*
X035055Y025546D02*
X034267Y025546D01*
X032160Y026434D02*
X032160Y027222D01*
X032160Y026434D02*
X031570Y026434D01*
X031570Y027222D01*
X032160Y027222D01*
X032160Y026630D02*
X031570Y026630D01*
X031570Y026826D02*
X032160Y026826D01*
X032160Y027022D02*
X031570Y027022D01*
X031570Y027218D02*
X032160Y027218D01*
X030606Y024958D02*
X029818Y024958D01*
X029818Y025548D01*
X030606Y025548D01*
X030606Y024958D01*
X030606Y025154D02*
X029818Y025154D01*
X029818Y025350D02*
X030606Y025350D01*
X030606Y025546D02*
X029818Y025546D01*
X027712Y026434D02*
X027712Y027222D01*
X027712Y026434D02*
X027122Y026434D01*
X027122Y027222D01*
X027712Y027222D01*
X027712Y026630D02*
X027122Y026630D01*
X027122Y026826D02*
X027712Y026826D01*
X027712Y027022D02*
X027122Y027022D01*
X027122Y027218D02*
X027712Y027218D01*
X026157Y024958D02*
X025369Y024958D01*
X025369Y025548D01*
X026157Y025548D01*
X026157Y024958D01*
X026157Y025154D02*
X025369Y025154D01*
X025369Y025350D02*
X026157Y025350D01*
X026157Y025546D02*
X025369Y025546D01*
X024425Y022025D02*
X023637Y022025D01*
X023637Y022615D01*
X024425Y022615D01*
X024425Y022025D01*
X024425Y022221D02*
X023637Y022221D01*
X023637Y022417D02*
X024425Y022417D01*
X024425Y022613D02*
X023637Y022613D01*
X025369Y021317D02*
X026157Y021317D01*
X025369Y021317D02*
X025369Y021907D01*
X026157Y021907D01*
X026157Y021317D01*
X026157Y021513D02*
X025369Y021513D01*
X025369Y021709D02*
X026157Y021709D01*
X026157Y021905D02*
X025369Y021905D01*
X028086Y022025D02*
X028874Y022025D01*
X028086Y022025D02*
X028086Y022615D01*
X028874Y022615D01*
X028874Y022025D01*
X028874Y022221D02*
X028086Y022221D01*
X028086Y022417D02*
X028874Y022417D01*
X028874Y022613D02*
X028086Y022613D01*
X029818Y021317D02*
X030606Y021317D01*
X029818Y021317D02*
X029818Y021907D01*
X030606Y021907D01*
X030606Y021317D01*
X030606Y021513D02*
X029818Y021513D01*
X029818Y021709D02*
X030606Y021709D01*
X030606Y021905D02*
X029818Y021905D01*
X032534Y022025D02*
X033322Y022025D01*
X032534Y022025D02*
X032534Y022615D01*
X033322Y022615D01*
X033322Y022025D01*
X033322Y022221D02*
X032534Y022221D01*
X032534Y022417D02*
X033322Y022417D01*
X033322Y022613D02*
X032534Y022613D01*
X034267Y021317D02*
X035055Y021317D01*
X034267Y021317D02*
X034267Y021907D01*
X035055Y021907D01*
X035055Y021317D01*
X035055Y021513D02*
X034267Y021513D01*
X034267Y021709D02*
X035055Y021709D01*
X035055Y021905D02*
X034267Y021905D01*
X036983Y022025D02*
X037771Y022025D01*
X036983Y022025D02*
X036983Y022615D01*
X037771Y022615D01*
X037771Y022025D01*
X037771Y022221D02*
X036983Y022221D01*
X036983Y022417D02*
X037771Y022417D01*
X037771Y022613D02*
X036983Y022613D01*
X023263Y026434D02*
X023263Y027222D01*
X023263Y026434D02*
X022673Y026434D01*
X022673Y027222D01*
X023263Y027222D01*
X023263Y026630D02*
X022673Y026630D01*
X022673Y026826D02*
X023263Y026826D01*
X023263Y027022D02*
X022673Y027022D01*
X022673Y027218D02*
X023263Y027218D01*
X021708Y024958D02*
X020920Y024958D01*
X020920Y025548D01*
X021708Y025548D01*
X021708Y024958D01*
X021708Y025154D02*
X020920Y025154D01*
X020920Y025350D02*
X021708Y025350D01*
X021708Y025546D02*
X020920Y025546D01*
X019976Y022025D02*
X019188Y022025D01*
X019188Y022615D01*
X019976Y022615D01*
X019976Y022025D01*
X019976Y022221D02*
X019188Y022221D01*
X019188Y022417D02*
X019976Y022417D01*
X019976Y022613D02*
X019188Y022613D01*
X020920Y021317D02*
X021708Y021317D01*
X020920Y021317D02*
X020920Y021907D01*
X021708Y021907D01*
X021708Y021317D01*
X021708Y021513D02*
X020920Y021513D01*
X020920Y021709D02*
X021708Y021709D01*
X021708Y021905D02*
X020920Y021905D01*
X018814Y026434D02*
X018814Y027222D01*
X018814Y026434D02*
X018224Y026434D01*
X018224Y027222D01*
X018814Y027222D01*
X018814Y026630D02*
X018224Y026630D01*
X018224Y026826D02*
X018814Y026826D01*
X018814Y027022D02*
X018224Y027022D01*
X018224Y027218D02*
X018814Y027218D01*
X017259Y024958D02*
X016471Y024958D01*
X016471Y025548D01*
X017259Y025548D01*
X017259Y024958D01*
X017259Y025154D02*
X016471Y025154D01*
X016471Y025350D02*
X017259Y025350D01*
X017259Y025546D02*
X016471Y025546D01*
X016471Y021317D02*
X017259Y021317D01*
X016471Y021317D02*
X016471Y021907D01*
X017259Y021907D01*
X017259Y021317D01*
X017259Y021513D02*
X016471Y021513D01*
X016471Y021709D02*
X017259Y021709D01*
X017259Y021905D02*
X016471Y021905D01*
X014011Y043698D02*
X014011Y044486D01*
X014601Y044486D01*
X014601Y043698D01*
X014011Y043698D01*
X014011Y043894D02*
X014601Y043894D01*
X014601Y044090D02*
X014011Y044090D01*
X014011Y044286D02*
X014601Y044286D01*
X014601Y044482D02*
X014011Y044482D01*
X013303Y046414D02*
X013303Y047202D01*
X013893Y047202D01*
X013893Y046414D01*
X013303Y046414D01*
X013303Y046610D02*
X013893Y046610D01*
X013893Y046806D02*
X013303Y046806D01*
X013303Y047002D02*
X013893Y047002D01*
X013893Y047198D02*
X013303Y047198D01*
X016944Y047202D02*
X016944Y046414D01*
X016944Y047202D02*
X017534Y047202D01*
X017534Y046414D01*
X016944Y046414D01*
X016944Y046610D02*
X017534Y046610D01*
X017534Y046806D02*
X016944Y046806D01*
X016944Y047002D02*
X017534Y047002D01*
X017534Y047198D02*
X016944Y047198D01*
X018420Y044860D02*
X019208Y044860D01*
X018420Y044860D02*
X018420Y045450D01*
X019208Y045450D01*
X019208Y044860D01*
X019208Y045056D02*
X018420Y045056D01*
X018420Y045252D02*
X019208Y045252D01*
X019208Y045448D02*
X018420Y045448D01*
X022160Y056729D02*
X022160Y057517D01*
X022160Y056729D02*
X021570Y056729D01*
X021570Y057517D01*
X022160Y057517D01*
X022160Y056925D02*
X021570Y056925D01*
X021570Y057121D02*
X022160Y057121D01*
X022160Y057317D02*
X021570Y057317D01*
X021570Y057513D02*
X022160Y057513D01*
X022160Y058895D02*
X022160Y059683D01*
X022160Y058895D02*
X021570Y058895D01*
X021570Y059683D01*
X022160Y059683D01*
X022160Y059091D02*
X021570Y059091D01*
X021570Y059287D02*
X022160Y059287D01*
X022160Y059483D02*
X021570Y059483D01*
X021570Y059679D02*
X022160Y059679D01*
X024247Y057084D02*
X024582Y057084D01*
X024621Y057123D01*
X024818Y057123D01*
X025369Y057123D01*
X025664Y057517D02*
X025664Y056729D01*
X025074Y056729D01*
X025074Y057517D01*
X025664Y057517D01*
X025664Y056925D02*
X025074Y056925D01*
X025074Y057121D02*
X025664Y057121D01*
X025664Y057317D02*
X025074Y057317D01*
X025074Y057513D02*
X025664Y057513D01*
X025664Y058895D02*
X025664Y059683D01*
X025664Y058895D02*
X025074Y058895D01*
X025074Y059683D01*
X025664Y059683D01*
X025664Y059091D02*
X025074Y059091D01*
X025074Y059287D02*
X025664Y059287D01*
X025664Y059483D02*
X025074Y059483D01*
X025074Y059679D02*
X025664Y059679D01*
D20*
X013464Y044510D02*
X013464Y043674D01*
X013022Y043674D01*
X013022Y044510D01*
X013464Y044510D01*
X013464Y043821D02*
X013022Y043821D01*
X013022Y043968D02*
X013464Y043968D01*
X013464Y044115D02*
X013022Y044115D01*
X013022Y044262D02*
X013464Y044262D01*
X013464Y044409D02*
X013022Y044409D01*
X019164Y021478D02*
X020000Y021478D01*
X020000Y021036D01*
X019164Y021036D01*
X019164Y021478D01*
X019164Y021183D02*
X020000Y021183D01*
X020000Y021330D02*
X019164Y021330D01*
X019164Y021477D02*
X020000Y021477D01*
X023613Y021478D02*
X024449Y021478D01*
X024449Y021036D01*
X023613Y021036D01*
X023613Y021478D01*
X023613Y021183D02*
X024449Y021183D01*
X024449Y021330D02*
X023613Y021330D01*
X023613Y021477D02*
X024449Y021477D01*
X028062Y021478D02*
X028898Y021478D01*
X028898Y021036D01*
X028062Y021036D01*
X028062Y021478D01*
X028062Y021183D02*
X028898Y021183D01*
X028898Y021330D02*
X028062Y021330D01*
X028062Y021477D02*
X028898Y021477D01*
X032510Y021478D02*
X033346Y021478D01*
X033346Y021036D01*
X032510Y021036D01*
X032510Y021478D01*
X032510Y021183D02*
X033346Y021183D01*
X033346Y021330D02*
X032510Y021330D01*
X032510Y021477D02*
X033346Y021477D01*
X036959Y021478D02*
X037795Y021478D01*
X037795Y021036D01*
X036959Y021036D01*
X036959Y021478D01*
X036959Y021183D02*
X037795Y021183D01*
X037795Y021330D02*
X036959Y021330D01*
X036959Y021477D02*
X037795Y021477D01*
D21*
X020665Y029190D03*
D22*
X020665Y029978D03*
X021452Y029978D03*
X022239Y029978D03*
X022239Y029190D03*
X021452Y029190D03*
X023027Y029190D03*
X023027Y029978D03*
X023814Y029978D03*
X024602Y029978D03*
X024602Y029190D03*
X023814Y029190D03*
X025389Y029190D03*
X026176Y029190D03*
X026176Y029978D03*
X025389Y029978D03*
D23*
X012987Y047982D03*
X012987Y048982D03*
X014987Y048982D03*
X015987Y048982D03*
X016987Y048982D03*
X016708Y058728D03*
X017318Y059495D03*
X017928Y058728D03*
X019464Y058728D03*
X020074Y059495D03*
X020684Y058728D03*
D24*
X023061Y057513D02*
X023061Y056655D01*
X022913Y056655D01*
X022913Y057513D01*
X023061Y057513D01*
X023061Y056703D02*
X022913Y056703D01*
X022913Y056751D02*
X023061Y056751D01*
X023061Y056799D02*
X022913Y056799D01*
X022913Y056847D02*
X023061Y056847D01*
X023061Y056895D02*
X022913Y056895D01*
X022913Y056943D02*
X023061Y056943D01*
X023061Y056991D02*
X022913Y056991D01*
X022913Y057039D02*
X023061Y057039D01*
X023061Y057087D02*
X022913Y057087D01*
X022913Y057135D02*
X023061Y057135D01*
X023061Y057183D02*
X022913Y057183D01*
X022913Y057231D02*
X023061Y057231D01*
X023061Y057279D02*
X022913Y057279D01*
X022913Y057327D02*
X023061Y057327D01*
X023061Y057375D02*
X022913Y057375D01*
X022913Y057423D02*
X023061Y057423D01*
X023061Y057471D02*
X022913Y057471D01*
X023376Y057513D02*
X023376Y056655D01*
X023228Y056655D01*
X023228Y057513D01*
X023376Y057513D01*
X023376Y056703D02*
X023228Y056703D01*
X023228Y056751D02*
X023376Y056751D01*
X023376Y056799D02*
X023228Y056799D01*
X023228Y056847D02*
X023376Y056847D01*
X023376Y056895D02*
X023228Y056895D01*
X023228Y056943D02*
X023376Y056943D01*
X023376Y056991D02*
X023228Y056991D01*
X023228Y057039D02*
X023376Y057039D01*
X023376Y057087D02*
X023228Y057087D01*
X023228Y057135D02*
X023376Y057135D01*
X023376Y057183D02*
X023228Y057183D01*
X023228Y057231D02*
X023376Y057231D01*
X023376Y057279D02*
X023228Y057279D01*
X023228Y057327D02*
X023376Y057327D01*
X023376Y057375D02*
X023228Y057375D01*
X023228Y057423D02*
X023376Y057423D01*
X023376Y057471D02*
X023228Y057471D01*
X023691Y057513D02*
X023691Y056655D01*
X023543Y056655D01*
X023543Y057513D01*
X023691Y057513D01*
X023691Y056703D02*
X023543Y056703D01*
X023543Y056751D02*
X023691Y056751D01*
X023691Y056799D02*
X023543Y056799D01*
X023543Y056847D02*
X023691Y056847D01*
X023691Y056895D02*
X023543Y056895D01*
X023543Y056943D02*
X023691Y056943D01*
X023691Y056991D02*
X023543Y056991D01*
X023543Y057039D02*
X023691Y057039D01*
X023691Y057087D02*
X023543Y057087D01*
X023543Y057135D02*
X023691Y057135D01*
X023691Y057183D02*
X023543Y057183D01*
X023543Y057231D02*
X023691Y057231D01*
X023691Y057279D02*
X023543Y057279D01*
X023543Y057327D02*
X023691Y057327D01*
X023691Y057375D02*
X023543Y057375D01*
X023543Y057423D02*
X023691Y057423D01*
X023691Y057471D02*
X023543Y057471D01*
X024006Y057513D02*
X024006Y056655D01*
X023858Y056655D01*
X023858Y057513D01*
X024006Y057513D01*
X024006Y056703D02*
X023858Y056703D01*
X023858Y056751D02*
X024006Y056751D01*
X024006Y056799D02*
X023858Y056799D01*
X023858Y056847D02*
X024006Y056847D01*
X024006Y056895D02*
X023858Y056895D01*
X023858Y056943D02*
X024006Y056943D01*
X024006Y056991D02*
X023858Y056991D01*
X023858Y057039D02*
X024006Y057039D01*
X024006Y057087D02*
X023858Y057087D01*
X023858Y057135D02*
X024006Y057135D01*
X024006Y057183D02*
X023858Y057183D01*
X023858Y057231D02*
X024006Y057231D01*
X024006Y057279D02*
X023858Y057279D01*
X023858Y057327D02*
X024006Y057327D01*
X024006Y057375D02*
X023858Y057375D01*
X023858Y057423D02*
X024006Y057423D01*
X024006Y057471D02*
X023858Y057471D01*
X024321Y057513D02*
X024321Y056655D01*
X024173Y056655D01*
X024173Y057513D01*
X024321Y057513D01*
X024321Y056703D02*
X024173Y056703D01*
X024173Y056751D02*
X024321Y056751D01*
X024321Y056799D02*
X024173Y056799D01*
X024173Y056847D02*
X024321Y056847D01*
X024321Y056895D02*
X024173Y056895D01*
X024173Y056943D02*
X024321Y056943D01*
X024321Y056991D02*
X024173Y056991D01*
X024173Y057039D02*
X024321Y057039D01*
X024321Y057087D02*
X024173Y057087D01*
X024173Y057135D02*
X024321Y057135D01*
X024321Y057183D02*
X024173Y057183D01*
X024173Y057231D02*
X024321Y057231D01*
X024321Y057279D02*
X024173Y057279D01*
X024173Y057327D02*
X024321Y057327D01*
X024321Y057375D02*
X024173Y057375D01*
X024173Y057423D02*
X024321Y057423D01*
X024321Y057471D02*
X024173Y057471D01*
D25*
X024602Y058836D03*
X022633Y058836D03*
X022830Y055962D03*
X022909Y055293D03*
X022830Y054781D03*
X023184Y054466D03*
X023617Y053797D03*
X024208Y054781D03*
X024602Y054978D03*
X024602Y055371D03*
X024208Y055568D03*
X024602Y055962D03*
X026334Y055371D03*
X025389Y052615D03*
X025192Y050056D03*
X025389Y048875D03*
X024995Y048482D03*
X025546Y048088D03*
X023814Y048088D03*
X022830Y048088D03*
X021649Y046907D03*
X021058Y047694D03*
X020389Y047812D03*
X020074Y048088D03*
X019680Y046474D03*
X019680Y045529D03*
X020586Y043718D03*
X023420Y041986D03*
X022042Y040017D03*
X022042Y039623D03*
X021846Y035096D03*
X026649Y031552D03*
X026570Y031159D03*
X027357Y030175D03*
X026964Y029584D03*
X027751Y029190D03*
X027161Y027812D03*
X025586Y028009D03*
X025586Y026238D03*
X024011Y025253D03*
X023027Y026041D03*
X027357Y033127D03*
X029917Y035489D03*
X030113Y034308D03*
X032357Y030844D03*
X032279Y030371D03*
X031885Y030175D03*
X032279Y029387D03*
X032672Y029781D03*
X031885Y028009D03*
X029523Y029584D03*
X027948Y025647D03*
X033460Y034308D03*
X034444Y031356D03*
X034641Y028600D03*
X034444Y026041D03*
X036609Y031159D03*
X037397Y033915D03*
X035822Y037852D03*
X034641Y037852D03*
X034956Y039269D03*
X035822Y039623D03*
X036413Y039820D03*
X034050Y039820D03*
X032869Y039623D03*
X030310Y039820D03*
X030310Y037852D03*
X027554Y041198D03*
X028145Y044545D03*
X027751Y044938D03*
X026767Y045332D03*
X029129Y044938D03*
X027357Y049466D03*
X027357Y052261D03*
X027948Y052812D03*
X032476Y054978D03*
X033066Y055568D03*
X033460Y054978D03*
X034050Y053797D03*
X035231Y053797D03*
X034641Y052222D03*
X032672Y052419D03*
X034168Y055962D03*
X028932Y058836D03*
X026767Y058836D03*
X022239Y053993D03*
X021452Y053797D03*
X020940Y053009D03*
X020271Y052025D03*
X019562Y052222D03*
X019483Y050253D03*
X018499Y049860D03*
X018696Y049072D03*
X018302Y048088D03*
X016413Y048482D03*
X016531Y047104D03*
X016334Y046119D03*
X015350Y040450D03*
X016531Y040017D03*
X021531Y051238D03*
X021570Y051631D03*
X023420Y050923D03*
X019602Y056001D03*
X018539Y056749D03*
X015940Y057143D03*
X033066Y044151D03*
X033460Y043363D03*
X034405Y043363D03*
D26*
X028617Y046316D03*
X028342Y047812D03*
X026885Y047615D03*
X027239Y045529D03*
X024995Y045529D03*
X024798Y044741D03*
X022594Y043954D03*
X022042Y041395D03*
X023420Y041395D03*
X018854Y040214D03*
X018854Y039623D03*
X018854Y039033D03*
X018184Y038993D03*
X018184Y039623D03*
X018184Y040214D03*
X016294Y038521D03*
X015625Y038521D03*
X015940Y039151D03*
X015743Y036867D03*
X014956Y036867D03*
X014168Y036867D03*
X016531Y033127D03*
X017318Y033127D03*
X018105Y033127D03*
X018893Y033127D03*
X015743Y032143D03*
X015153Y032143D03*
X014050Y032143D03*
X013381Y032143D03*
X024602Y048088D03*
X023224Y048285D03*
X026058Y052615D03*
X027948Y056159D03*
X025743Y058127D03*
X021649Y058127D03*
X030507Y058521D03*
X032003Y057812D03*
D27*
X032476Y047104D03*
X033066Y046710D03*
X033066Y044741D03*
X031885Y044741D03*
X030743Y046631D03*
X033854Y041867D03*
X034917Y039978D03*
X036019Y041395D03*
X034838Y036080D03*
X034641Y034702D03*
X034641Y033718D03*
X035035Y031159D03*
X032672Y028600D03*
X028539Y026828D03*
X029287Y021749D03*
X033735Y021749D03*
X026964Y033718D03*
X032082Y040883D03*
X027161Y042576D03*
X024168Y042143D03*
X024011Y042812D03*
X019680Y044348D03*
X015940Y044938D03*
X015546Y042970D03*
X020546Y055844D03*
X022239Y023088D03*
X024602Y023088D03*
D28*
X024582Y023078D02*
X022259Y023078D01*
X022259Y023068D02*
X022259Y023108D01*
X022220Y023108D01*
X022220Y023476D01*
X022201Y023476D01*
X022126Y023461D01*
X022056Y023432D01*
X021992Y023389D01*
X021938Y023335D01*
X021896Y023272D01*
X021866Y023201D01*
X021852Y023126D01*
X021852Y023108D01*
X022220Y023108D01*
X022220Y023068D01*
X022259Y023068D01*
X022259Y022700D01*
X022278Y022700D01*
X022352Y022715D01*
X022423Y022744D01*
X022487Y022787D01*
X022541Y022841D01*
X022583Y022904D01*
X022612Y022975D01*
X022627Y023050D01*
X022627Y023068D01*
X022259Y023068D01*
X022220Y023068D02*
X022220Y022700D01*
X022201Y022700D01*
X022126Y022715D01*
X022056Y022744D01*
X021992Y022787D01*
X021938Y022841D01*
X021896Y022904D01*
X021866Y022975D01*
X021852Y023050D01*
X021852Y023068D01*
X022220Y023068D01*
X022220Y023078D02*
X016241Y023078D01*
X016209Y023155D02*
X021857Y023155D01*
X021879Y023232D02*
X016154Y023232D01*
X016194Y023192D02*
X016044Y023342D01*
X015849Y023423D01*
X015638Y023423D01*
X015442Y023342D01*
X015293Y023192D01*
X015212Y022997D01*
X015212Y022785D01*
X015293Y022590D01*
X015442Y022440D01*
X015638Y022360D01*
X015849Y022360D01*
X016044Y022440D01*
X016194Y022590D01*
X016275Y022785D01*
X016275Y022997D01*
X016194Y023192D01*
X016076Y023310D02*
X021921Y023310D01*
X021990Y023387D02*
X015935Y023387D01*
X015551Y023387D02*
X012987Y023387D01*
X012987Y023464D02*
X022142Y023464D01*
X022220Y023464D02*
X022259Y023464D01*
X022259Y023476D02*
X022278Y023476D01*
X022352Y023461D01*
X022423Y023432D01*
X022487Y023389D01*
X022541Y023335D01*
X022583Y023272D01*
X022612Y023201D01*
X022627Y023126D01*
X022627Y023108D01*
X022259Y023108D01*
X022259Y023476D01*
X022336Y023464D02*
X024504Y023464D01*
X024488Y023461D02*
X024418Y023432D01*
X024354Y023389D01*
X024300Y023335D01*
X024258Y023272D01*
X024229Y023201D01*
X024214Y023126D01*
X024214Y023108D01*
X024582Y023108D01*
X024582Y023476D01*
X024563Y023476D01*
X024488Y023461D01*
X024582Y023464D02*
X024621Y023464D01*
X024621Y023476D02*
X024621Y023108D01*
X024582Y023108D01*
X024582Y023068D01*
X024214Y023068D01*
X024214Y023050D01*
X024229Y022975D01*
X024258Y022904D01*
X024280Y022871D01*
X023586Y022871D01*
X023492Y022832D01*
X023420Y022760D01*
X023381Y022666D01*
X023381Y021974D01*
X023420Y021880D01*
X023492Y021808D01*
X023586Y021769D01*
X024475Y021769D01*
X024569Y021808D01*
X024641Y021880D01*
X024680Y021974D01*
X024680Y022104D01*
X024798Y022104D01*
X024798Y020923D01*
X024663Y020923D01*
X024680Y020940D01*
X024680Y021574D01*
X024545Y021710D01*
X023517Y021710D01*
X023381Y021574D01*
X023381Y020940D01*
X023398Y020923D01*
X020214Y020923D01*
X020231Y020940D01*
X020231Y021574D01*
X020096Y021710D01*
X019068Y021710D01*
X018932Y021574D01*
X018932Y020940D01*
X018950Y020923D01*
X012987Y020923D01*
X012987Y023875D01*
X024798Y023875D01*
X024798Y023423D01*
X024785Y023432D01*
X024715Y023461D01*
X024640Y023476D01*
X024621Y023476D01*
X024699Y023464D02*
X024798Y023464D01*
X024798Y023541D02*
X012987Y023541D01*
X012987Y023618D02*
X024798Y023618D01*
X024798Y023696D02*
X012987Y023696D01*
X012987Y023773D02*
X024798Y023773D01*
X024798Y023850D02*
X012987Y023850D01*
X012987Y023310D02*
X015410Y023310D01*
X015333Y023232D02*
X012987Y023232D01*
X012987Y023155D02*
X015277Y023155D01*
X015245Y023078D02*
X012987Y023078D01*
X012987Y023001D02*
X015213Y023001D01*
X015212Y022923D02*
X012987Y022923D01*
X012987Y022846D02*
X015212Y022846D01*
X015219Y022769D02*
X012987Y022769D01*
X012987Y022692D02*
X015251Y022692D01*
X015283Y022614D02*
X012987Y022614D01*
X012987Y022537D02*
X015346Y022537D01*
X015423Y022460D02*
X012987Y022460D01*
X012987Y022383D02*
X015582Y022383D01*
X015905Y022383D02*
X017794Y022383D01*
X017740Y022329D02*
X017653Y022119D01*
X017653Y021892D01*
X017740Y021682D01*
X017900Y021521D01*
X018110Y021434D01*
X018337Y021434D01*
X018547Y021521D01*
X018708Y021682D01*
X018794Y021892D01*
X018794Y022119D01*
X018708Y022329D01*
X018547Y022489D01*
X018337Y022576D01*
X018110Y022576D01*
X017900Y022489D01*
X017740Y022329D01*
X017730Y022305D02*
X012987Y022305D01*
X012987Y022228D02*
X017698Y022228D01*
X017666Y022151D02*
X012987Y022151D01*
X012987Y022074D02*
X016304Y022074D01*
X016288Y022057D02*
X016262Y022019D01*
X016244Y021976D01*
X016235Y021930D01*
X016235Y021651D01*
X016826Y021651D01*
X016826Y022143D01*
X016448Y022143D01*
X016403Y022134D01*
X016360Y022116D01*
X016321Y022090D01*
X016288Y022057D01*
X016253Y021996D02*
X012987Y021996D01*
X012987Y021919D02*
X016235Y021919D01*
X016235Y021842D02*
X012987Y021842D01*
X012987Y021765D02*
X016235Y021765D01*
X016235Y021687D02*
X012987Y021687D01*
X012987Y021610D02*
X016826Y021610D01*
X016826Y021572D02*
X016235Y021572D01*
X016235Y021293D01*
X016244Y021247D01*
X016262Y021204D01*
X016288Y021166D01*
X016321Y021133D01*
X016360Y021107D01*
X016403Y021089D01*
X016448Y021080D01*
X016826Y021080D01*
X016826Y021572D01*
X016905Y021572D01*
X016905Y021651D01*
X017495Y021651D01*
X017495Y021930D01*
X017486Y021976D01*
X017468Y022019D01*
X017443Y022057D01*
X017410Y022090D01*
X017371Y022116D01*
X017328Y022134D01*
X017282Y022143D01*
X016905Y022143D01*
X016905Y021651D01*
X016826Y021651D01*
X016826Y021572D01*
X016826Y021533D02*
X016905Y021533D01*
X016905Y021572D02*
X016905Y021080D01*
X017282Y021080D01*
X017328Y021089D01*
X017371Y021107D01*
X017410Y021133D01*
X017443Y021166D01*
X017468Y021204D01*
X017486Y021247D01*
X017495Y021293D01*
X017495Y021572D01*
X016905Y021572D01*
X016905Y021610D02*
X017811Y021610D01*
X017737Y021687D02*
X017495Y021687D01*
X017495Y021765D02*
X017705Y021765D01*
X017673Y021842D02*
X017495Y021842D01*
X017495Y021919D02*
X017653Y021919D01*
X017653Y021996D02*
X017478Y021996D01*
X017426Y022074D02*
X017653Y022074D01*
X017871Y022460D02*
X016064Y022460D01*
X016141Y022537D02*
X018016Y022537D01*
X018431Y022537D02*
X018932Y022537D01*
X018932Y022460D02*
X018576Y022460D01*
X018654Y022383D02*
X018932Y022383D01*
X018932Y022305D02*
X018717Y022305D01*
X018749Y022228D02*
X018932Y022228D01*
X018932Y022151D02*
X018781Y022151D01*
X018794Y022074D02*
X018932Y022074D01*
X018932Y021996D02*
X018794Y021996D01*
X018794Y021919D02*
X018955Y021919D01*
X018971Y021880D02*
X019043Y021808D01*
X019137Y021769D01*
X020026Y021769D01*
X020121Y021808D01*
X020193Y021880D01*
X020231Y021974D01*
X020231Y022666D01*
X020193Y022760D01*
X020121Y022832D01*
X020026Y022871D01*
X019137Y022871D01*
X019043Y022832D01*
X018971Y022760D01*
X018932Y022666D01*
X018932Y021974D01*
X018971Y021880D01*
X019009Y021842D02*
X018774Y021842D01*
X018742Y021765D02*
X020684Y021765D01*
X020684Y021842D02*
X020154Y021842D01*
X020209Y021919D02*
X020684Y021919D01*
X020684Y021930D02*
X020684Y021651D01*
X021275Y021651D01*
X021275Y022143D01*
X020897Y022143D01*
X020852Y022134D01*
X020809Y022116D01*
X020770Y022090D01*
X020737Y022057D01*
X020711Y022019D01*
X020693Y021976D01*
X020684Y021930D01*
X020702Y021996D02*
X020231Y021996D01*
X020231Y022074D02*
X020753Y022074D01*
X020684Y021687D02*
X020118Y021687D01*
X020196Y021610D02*
X021275Y021610D01*
X021275Y021572D02*
X020684Y021572D01*
X020684Y021293D01*
X020693Y021247D01*
X020711Y021204D01*
X020737Y021166D01*
X020770Y021133D01*
X020809Y021107D01*
X020852Y021089D01*
X020897Y021080D01*
X021275Y021080D01*
X021275Y021572D01*
X021354Y021572D01*
X021354Y021651D01*
X021944Y021651D01*
X021944Y021930D01*
X021935Y021976D01*
X021917Y022019D01*
X021891Y022057D01*
X021858Y022090D01*
X021820Y022116D01*
X021777Y022134D01*
X021731Y022143D01*
X021354Y022143D01*
X021354Y021651D01*
X021275Y021651D01*
X021275Y021572D01*
X021275Y021533D02*
X021354Y021533D01*
X021354Y021572D02*
X021354Y021080D01*
X021731Y021080D01*
X021777Y021089D01*
X021820Y021107D01*
X021858Y021133D01*
X021891Y021166D01*
X021917Y021204D01*
X021935Y021247D01*
X021944Y021293D01*
X021944Y021572D01*
X021354Y021572D01*
X021354Y021610D02*
X022260Y021610D01*
X022188Y021682D02*
X022349Y021521D01*
X022559Y021434D01*
X022786Y021434D01*
X022996Y021521D01*
X023156Y021682D01*
X023243Y021892D01*
X023243Y022119D01*
X023156Y022329D01*
X022996Y022489D01*
X022786Y022576D01*
X022559Y022576D01*
X022349Y022489D01*
X022188Y022329D01*
X022102Y022119D01*
X022102Y021892D01*
X022188Y021682D01*
X022186Y021687D02*
X021944Y021687D01*
X021944Y021765D02*
X022154Y021765D01*
X022122Y021842D02*
X021944Y021842D01*
X021944Y021919D02*
X022102Y021919D01*
X022102Y021996D02*
X021926Y021996D01*
X021875Y022074D02*
X022102Y022074D01*
X022115Y022151D02*
X020231Y022151D01*
X020231Y022228D02*
X022147Y022228D01*
X022179Y022305D02*
X020231Y022305D01*
X020231Y022383D02*
X022242Y022383D01*
X022320Y022460D02*
X020231Y022460D01*
X020231Y022537D02*
X022465Y022537D01*
X022460Y022769D02*
X023428Y022769D01*
X023392Y022692D02*
X020221Y022692D01*
X020231Y022614D02*
X023381Y022614D01*
X023381Y022537D02*
X022880Y022537D01*
X023025Y022460D02*
X023381Y022460D01*
X023381Y022383D02*
X023102Y022383D01*
X023166Y022305D02*
X023381Y022305D01*
X023381Y022228D02*
X023198Y022228D01*
X023230Y022151D02*
X023381Y022151D01*
X023381Y022074D02*
X023243Y022074D01*
X023243Y021996D02*
X023381Y021996D01*
X023404Y021919D02*
X023243Y021919D01*
X023223Y021842D02*
X023458Y021842D01*
X023494Y021687D02*
X023159Y021687D01*
X023191Y021765D02*
X024798Y021765D01*
X024798Y021842D02*
X024603Y021842D01*
X024658Y021919D02*
X024798Y021919D01*
X024798Y021996D02*
X024680Y021996D01*
X024680Y022074D02*
X024798Y022074D01*
X024798Y022300D02*
X024995Y022497D01*
X024995Y024072D01*
X024995Y024269D01*
X024011Y025253D01*
X023814Y025253D01*
X023027Y025253D01*
X022830Y025450D01*
X022239Y025450D01*
X022042Y025253D01*
X021314Y025253D01*
X022239Y026238D02*
X022436Y026041D01*
X022830Y025647D01*
X024208Y025647D01*
X024405Y025450D01*
X025763Y024092D01*
X025763Y021612D01*
X025763Y021611D02*
X025771Y021613D01*
X025777Y021617D01*
X025781Y021623D01*
X025783Y021631D01*
X024798Y021610D02*
X024645Y021610D01*
X024680Y021533D02*
X024798Y021533D01*
X024798Y021456D02*
X024680Y021456D01*
X024680Y021378D02*
X024798Y021378D01*
X024798Y021301D02*
X024680Y021301D01*
X024680Y021224D02*
X024798Y021224D01*
X024798Y021147D02*
X024680Y021147D01*
X024680Y021070D02*
X024798Y021070D01*
X024798Y020992D02*
X024680Y020992D01*
X024567Y021687D02*
X024798Y021687D01*
X024798Y022300D02*
X024050Y022300D01*
X024031Y022320D01*
X024250Y022923D02*
X022591Y022923D01*
X022617Y023001D02*
X024224Y023001D01*
X024220Y023155D02*
X022621Y023155D01*
X022599Y023232D02*
X024242Y023232D01*
X024283Y023310D02*
X022558Y023310D01*
X022489Y023387D02*
X024352Y023387D01*
X024582Y023387D02*
X024621Y023387D01*
X024621Y023310D02*
X024582Y023310D01*
X024582Y023232D02*
X024621Y023232D01*
X024621Y023155D02*
X024582Y023155D01*
X023525Y022846D02*
X022544Y022846D01*
X022259Y022846D02*
X022220Y022846D01*
X022220Y022769D02*
X022259Y022769D01*
X022259Y022923D02*
X022220Y022923D01*
X022220Y023001D02*
X022259Y023001D01*
X022259Y023155D02*
X022220Y023155D01*
X022220Y023232D02*
X022259Y023232D01*
X022259Y023310D02*
X022220Y023310D01*
X022220Y023387D02*
X022259Y023387D01*
X021861Y023001D02*
X016273Y023001D01*
X016275Y022923D02*
X021888Y022923D01*
X021935Y022846D02*
X020088Y022846D01*
X020184Y022769D02*
X022019Y022769D01*
X021944Y021533D02*
X022337Y021533D01*
X022507Y021456D02*
X021944Y021456D01*
X021944Y021378D02*
X023381Y021378D01*
X023381Y021301D02*
X021944Y021301D01*
X021925Y021224D02*
X023381Y021224D01*
X023381Y021147D02*
X021872Y021147D01*
X021354Y021147D02*
X021275Y021147D01*
X021275Y021224D02*
X021354Y021224D01*
X021354Y021301D02*
X021275Y021301D01*
X021275Y021378D02*
X021354Y021378D01*
X021354Y021456D02*
X021275Y021456D01*
X021275Y021687D02*
X021354Y021687D01*
X021354Y021765D02*
X021275Y021765D01*
X021275Y021842D02*
X021354Y021842D01*
X021354Y021919D02*
X021275Y021919D01*
X021275Y021996D02*
X021354Y021996D01*
X021354Y022074D02*
X021275Y022074D01*
X020684Y021533D02*
X020231Y021533D01*
X020231Y021456D02*
X020684Y021456D01*
X020684Y021378D02*
X020231Y021378D01*
X020231Y021301D02*
X020684Y021301D01*
X020703Y021224D02*
X020231Y021224D01*
X020231Y021147D02*
X020756Y021147D01*
X020231Y021070D02*
X023381Y021070D01*
X023381Y020992D02*
X020231Y020992D01*
X018932Y020992D02*
X012987Y020992D01*
X012987Y021070D02*
X018932Y021070D01*
X018932Y021147D02*
X017424Y021147D01*
X017477Y021224D02*
X018932Y021224D01*
X018932Y021301D02*
X017495Y021301D01*
X017495Y021378D02*
X018932Y021378D01*
X018932Y021456D02*
X018389Y021456D01*
X018559Y021533D02*
X018932Y021533D01*
X018968Y021610D02*
X018636Y021610D01*
X018710Y021687D02*
X019045Y021687D01*
X018932Y022614D02*
X016204Y022614D01*
X016236Y022692D02*
X018943Y022692D01*
X018980Y022769D02*
X016268Y022769D01*
X016275Y022846D02*
X019076Y022846D01*
X018058Y021456D02*
X017495Y021456D01*
X017495Y021533D02*
X017889Y021533D01*
X016905Y021456D02*
X016826Y021456D01*
X016826Y021378D02*
X016905Y021378D01*
X016905Y021301D02*
X016826Y021301D01*
X016826Y021224D02*
X016905Y021224D01*
X016905Y021147D02*
X016826Y021147D01*
X016307Y021147D02*
X012987Y021147D01*
X012987Y021224D02*
X016254Y021224D01*
X016235Y021301D02*
X012987Y021301D01*
X012987Y021378D02*
X016235Y021378D01*
X016235Y021456D02*
X012987Y021456D01*
X012987Y021533D02*
X016235Y021533D01*
X016826Y021687D02*
X016905Y021687D01*
X016905Y021765D02*
X016826Y021765D01*
X016826Y021842D02*
X016905Y021842D01*
X016905Y021919D02*
X016826Y021919D01*
X016826Y021996D02*
X016905Y021996D01*
X016905Y022074D02*
X016826Y022074D01*
X016865Y025253D02*
X017515Y025253D01*
X017712Y025450D01*
X018893Y025450D01*
X020074Y026631D01*
X020074Y030175D01*
X020861Y030962D01*
X021846Y030962D01*
X025783Y030962D01*
X026373Y031552D01*
X026649Y031552D01*
X026570Y031159D02*
X026767Y030962D01*
X027948Y030962D01*
X031294Y030962D01*
X031491Y031159D01*
X034247Y031159D01*
X034444Y031356D01*
X034641Y030962D02*
X034838Y030765D01*
X035231Y030765D01*
X035625Y031159D01*
X036609Y031159D01*
X034641Y030962D02*
X032476Y030962D01*
X032357Y030844D01*
X032161Y030489D02*
X032042Y030489D01*
X031609Y030489D01*
X031491Y030371D01*
X028145Y030371D01*
X027751Y030765D01*
X021452Y030765D01*
X020665Y029978D01*
X019877Y030371D02*
X020665Y031159D01*
X023814Y031159D01*
X024208Y031552D01*
X025086Y032430D01*
X025086Y037958D01*
X025086Y038836D01*
X023027Y038835D02*
X016924Y038835D01*
X016924Y038912D02*
X023027Y038912D01*
X023027Y038989D02*
X016924Y038989D01*
X016924Y039067D02*
X023027Y039067D01*
X023027Y039144D02*
X016924Y039144D01*
X016924Y039221D02*
X023027Y039221D01*
X023027Y039298D02*
X016924Y039298D01*
X016924Y039376D02*
X023027Y039376D01*
X023027Y039453D02*
X016924Y039453D01*
X016924Y039530D02*
X023027Y039530D01*
X023027Y039607D02*
X016924Y039607D01*
X016924Y039684D02*
X023027Y039684D01*
X023027Y039762D02*
X022233Y039762D01*
X022221Y039750D02*
X022310Y039839D01*
X023027Y039839D01*
X023027Y039916D02*
X022342Y039916D01*
X022357Y039954D02*
X022357Y040080D01*
X022318Y040175D01*
X022318Y041080D01*
X023027Y041080D01*
X023027Y036671D01*
X019483Y036671D01*
X019483Y034702D01*
X016334Y034702D01*
X016334Y035489D01*
X016809Y035489D01*
X016924Y035605D01*
X016924Y039784D01*
X016819Y039889D01*
X016846Y039954D01*
X016846Y040080D01*
X016798Y040195D01*
X016709Y040284D01*
X016593Y040332D01*
X016468Y040332D01*
X016352Y040284D01*
X016264Y040195D01*
X016216Y040080D01*
X016216Y039954D01*
X016239Y039899D01*
X015665Y039899D01*
X015665Y040513D01*
X015617Y040629D01*
X015528Y040717D01*
X015412Y040765D01*
X015287Y040765D01*
X015171Y040717D01*
X015083Y040629D01*
X015035Y040513D01*
X015035Y039823D01*
X014995Y039784D01*
X014995Y037655D01*
X013069Y037655D01*
X012987Y037655D01*
X012987Y043442D01*
X013561Y043442D01*
X013696Y043578D01*
X013696Y044151D01*
X013755Y044151D01*
X013755Y043647D01*
X013794Y043553D01*
X013866Y043481D01*
X013960Y043442D01*
X014652Y043442D01*
X014747Y043481D01*
X014818Y043553D01*
X014857Y043647D01*
X014857Y044151D01*
X015231Y044151D01*
X015231Y043231D01*
X015201Y043201D01*
X015139Y043051D01*
X015139Y042889D01*
X015201Y042739D01*
X015316Y042624D01*
X015465Y042562D01*
X015627Y042562D01*
X015777Y042624D01*
X015892Y042739D01*
X015954Y042889D01*
X015954Y043051D01*
X015926Y043119D01*
X015952Y043108D01*
X016085Y043108D01*
X016208Y043159D01*
X016303Y043253D01*
X016354Y043376D01*
X016354Y043509D01*
X016303Y043632D01*
X016216Y043719D01*
X016216Y043951D01*
X016415Y044151D01*
X019008Y044151D01*
X019287Y043873D01*
X019402Y043757D01*
X020156Y043757D01*
X020352Y043954D01*
X020977Y043954D01*
X021117Y043813D01*
X021117Y043691D01*
X021168Y043568D01*
X021262Y043473D01*
X021385Y043423D01*
X021519Y043423D01*
X021642Y043473D01*
X021736Y043568D01*
X021787Y043691D01*
X021787Y043824D01*
X021736Y043947D01*
X021642Y044041D01*
X021519Y044092D01*
X021396Y044092D01*
X021337Y044151D01*
X023027Y044151D01*
X023027Y041710D01*
X022208Y041710D01*
X022113Y041749D01*
X021972Y041749D01*
X021842Y041695D01*
X021742Y041596D01*
X021688Y041465D01*
X021688Y041325D01*
X021742Y041194D01*
X021767Y041169D01*
X021767Y040175D01*
X021728Y040080D01*
X021728Y039954D01*
X021775Y039839D01*
X016869Y039839D01*
X016830Y039916D02*
X021743Y039916D01*
X021728Y039993D02*
X016846Y039993D01*
X016846Y040071D02*
X021728Y040071D01*
X021756Y040148D02*
X016817Y040148D01*
X016768Y040225D02*
X021767Y040225D01*
X021767Y040302D02*
X016665Y040302D01*
X016397Y040302D02*
X015665Y040302D01*
X015665Y040225D02*
X016293Y040225D01*
X016244Y040148D02*
X015665Y040148D01*
X015665Y040071D02*
X016216Y040071D01*
X016216Y039993D02*
X015665Y039993D01*
X015665Y039916D02*
X016232Y039916D01*
X016038Y039473D02*
X015973Y039486D01*
X015960Y039486D01*
X015960Y039171D01*
X015920Y039171D01*
X015920Y039486D01*
X015907Y039486D01*
X015843Y039473D01*
X015782Y039447D01*
X015727Y039411D01*
X015680Y039364D01*
X015644Y039309D01*
X015618Y039249D01*
X015605Y039184D01*
X015605Y039171D01*
X015920Y039171D01*
X015920Y039131D01*
X015605Y039131D01*
X015605Y039118D01*
X015618Y039053D01*
X015644Y038992D01*
X015680Y038938D01*
X015727Y038891D01*
X015782Y038854D01*
X015843Y038829D01*
X015907Y038816D01*
X015920Y038816D01*
X015920Y039131D01*
X015960Y039131D01*
X015960Y039171D01*
X016275Y039171D01*
X016275Y039184D01*
X016262Y039249D01*
X016237Y039309D01*
X016200Y039364D01*
X016153Y039411D01*
X016099Y039447D01*
X016038Y039473D01*
X016086Y039453D02*
X016728Y039453D01*
X016728Y039530D02*
X015192Y039530D01*
X015192Y039607D02*
X016728Y039607D01*
X016728Y039684D02*
X015192Y039684D01*
X015192Y039702D02*
X016728Y039702D01*
X016728Y035686D01*
X016137Y035686D01*
X016137Y034702D01*
X012987Y034702D01*
X012987Y037458D01*
X015192Y037458D01*
X015192Y039702D01*
X014995Y039684D02*
X012987Y039684D01*
X012987Y039607D02*
X014995Y039607D01*
X014995Y039530D02*
X012987Y039530D01*
X012987Y039453D02*
X014995Y039453D01*
X014995Y039376D02*
X012987Y039376D01*
X012987Y039298D02*
X014995Y039298D01*
X014995Y039221D02*
X012987Y039221D01*
X012987Y039144D02*
X014995Y039144D01*
X014995Y039067D02*
X012987Y039067D01*
X012987Y038989D02*
X014995Y038989D01*
X014995Y038912D02*
X012987Y038912D01*
X012987Y038835D02*
X014995Y038835D01*
X014995Y038758D02*
X012987Y038758D01*
X012987Y038680D02*
X014995Y038680D01*
X014995Y038603D02*
X012987Y038603D01*
X012987Y038526D02*
X014995Y038526D01*
X014995Y038449D02*
X012987Y038449D01*
X012987Y038371D02*
X014995Y038371D01*
X014995Y038294D02*
X012987Y038294D01*
X012987Y038217D02*
X014995Y038217D01*
X014995Y038140D02*
X012987Y038140D01*
X012987Y038062D02*
X014995Y038062D01*
X014995Y037985D02*
X012987Y037985D01*
X012987Y037908D02*
X014995Y037908D01*
X014995Y037831D02*
X012987Y037831D01*
X012987Y037753D02*
X014995Y037753D01*
X014995Y037676D02*
X012987Y037676D01*
X012987Y037444D02*
X016728Y037444D01*
X016728Y037367D02*
X012987Y037367D01*
X012987Y037290D02*
X016728Y037290D01*
X016728Y037213D02*
X012987Y037213D01*
X012987Y037136D02*
X013967Y037136D01*
X013955Y037127D02*
X013909Y037081D01*
X013872Y037026D01*
X013847Y036965D01*
X013834Y036900D01*
X013834Y036887D01*
X014149Y036887D01*
X014149Y037202D01*
X014136Y037202D01*
X014071Y037189D01*
X014010Y037164D01*
X013955Y037127D01*
X013894Y037058D02*
X012987Y037058D01*
X012987Y036981D02*
X013853Y036981D01*
X013835Y036904D02*
X012987Y036904D01*
X012987Y036827D02*
X013835Y036827D01*
X013834Y036834D02*
X013847Y036770D01*
X013872Y036709D01*
X013909Y036654D01*
X013955Y036607D01*
X014010Y036571D01*
X014071Y036546D01*
X014136Y036533D01*
X014149Y036533D01*
X014149Y036848D01*
X013834Y036848D01*
X013834Y036834D01*
X013855Y036749D02*
X012987Y036749D01*
X012987Y036672D02*
X013897Y036672D01*
X013974Y036595D02*
X012987Y036595D01*
X012987Y036518D02*
X016728Y036518D01*
X016728Y036595D02*
X015938Y036595D01*
X015957Y036607D02*
X016003Y036654D01*
X016040Y036709D01*
X016065Y036770D01*
X016078Y036834D01*
X016078Y036848D01*
X015763Y036848D01*
X015763Y036887D01*
X016078Y036887D01*
X016078Y036900D01*
X016065Y036965D01*
X016040Y037026D01*
X016003Y037081D01*
X015957Y037127D01*
X015902Y037164D01*
X015841Y037189D01*
X015776Y037202D01*
X015763Y037202D01*
X015763Y036887D01*
X015724Y036887D01*
X015724Y037202D01*
X015710Y037202D01*
X015646Y037189D01*
X015585Y037164D01*
X015530Y037127D01*
X015483Y037081D01*
X015447Y037026D01*
X015421Y036965D01*
X015409Y036900D01*
X015409Y036887D01*
X015724Y036887D01*
X015724Y036848D01*
X015763Y036848D01*
X015763Y036533D01*
X015776Y036533D01*
X015841Y036546D01*
X015902Y036571D01*
X015957Y036607D01*
X016015Y036672D02*
X016728Y036672D01*
X016728Y036749D02*
X016057Y036749D01*
X016076Y036827D02*
X016728Y036827D01*
X016728Y036904D02*
X016077Y036904D01*
X016058Y036981D02*
X016728Y036981D01*
X016728Y037058D02*
X016018Y037058D01*
X015944Y037136D02*
X016728Y037136D01*
X016924Y037136D02*
X022174Y037136D01*
X022174Y037213D02*
X016924Y037213D01*
X016924Y037290D02*
X022174Y037290D01*
X022174Y037367D02*
X016924Y037367D01*
X016924Y037444D02*
X022196Y037444D01*
X022174Y037423D02*
X022174Y036792D01*
X022267Y036700D01*
X022897Y036700D01*
X022989Y036792D01*
X022989Y037423D01*
X022897Y037515D01*
X022267Y037515D01*
X022174Y037423D01*
X022174Y037058D02*
X016924Y037058D01*
X016924Y036981D02*
X022174Y036981D01*
X022174Y036904D02*
X016924Y036904D01*
X016924Y036827D02*
X022174Y036827D01*
X022217Y036749D02*
X016924Y036749D01*
X016924Y036672D02*
X023027Y036672D01*
X023027Y036749D02*
X022946Y036749D01*
X022989Y036827D02*
X023027Y036827D01*
X023027Y036904D02*
X022989Y036904D01*
X022989Y036981D02*
X023027Y036981D01*
X023027Y037058D02*
X022989Y037058D01*
X022989Y037136D02*
X023027Y037136D01*
X023027Y037213D02*
X022989Y037213D01*
X022989Y037290D02*
X023027Y037290D01*
X023027Y037367D02*
X022989Y037367D01*
X022968Y037444D02*
X023027Y037444D01*
X023027Y037522D02*
X016924Y037522D01*
X016924Y037599D02*
X023027Y037599D01*
X023027Y037676D02*
X016924Y037676D01*
X016924Y037753D02*
X023027Y037753D01*
X023027Y037831D02*
X016924Y037831D01*
X016924Y037908D02*
X023027Y037908D01*
X023027Y037985D02*
X016924Y037985D01*
X016924Y038062D02*
X023027Y038062D01*
X023027Y038140D02*
X016924Y038140D01*
X016924Y038217D02*
X023027Y038217D01*
X023027Y038294D02*
X016924Y038294D01*
X016924Y038371D02*
X023027Y038371D01*
X023027Y038449D02*
X016924Y038449D01*
X016924Y038526D02*
X023027Y038526D01*
X023027Y038603D02*
X016924Y038603D01*
X016924Y038680D02*
X023027Y038680D01*
X023027Y038758D02*
X016924Y038758D01*
X016728Y038758D02*
X016531Y038758D01*
X016508Y038781D02*
X016453Y038818D01*
X016392Y038843D01*
X016327Y038856D01*
X016314Y038856D01*
X016314Y038541D01*
X016275Y038541D01*
X016275Y038856D01*
X016262Y038856D01*
X016197Y038843D01*
X016136Y038818D01*
X016081Y038781D01*
X016035Y038734D01*
X015998Y038679D01*
X015973Y038619D01*
X015960Y038554D01*
X015960Y038541D01*
X016275Y038541D01*
X016275Y038501D01*
X016314Y038501D01*
X016314Y038186D01*
X016327Y038186D01*
X016392Y038199D01*
X016453Y038224D01*
X016508Y038261D01*
X016554Y038308D01*
X016591Y038362D01*
X016616Y038423D01*
X016629Y038488D01*
X016629Y038501D01*
X016314Y038501D01*
X016314Y038541D01*
X016629Y038541D01*
X016629Y038554D01*
X016616Y038619D01*
X016591Y038679D01*
X016554Y038734D01*
X016508Y038781D01*
X016411Y038835D02*
X016728Y038835D01*
X016728Y038912D02*
X016175Y038912D01*
X016153Y038891D02*
X016200Y038938D01*
X016237Y038992D01*
X016262Y039053D01*
X016275Y039118D01*
X016275Y039131D01*
X015960Y039131D01*
X015960Y038816D01*
X015973Y038816D01*
X016038Y038829D01*
X016099Y038854D01*
X016153Y038891D01*
X016178Y038835D02*
X016052Y038835D01*
X016058Y038758D02*
X015862Y038758D01*
X015838Y038781D02*
X015784Y038818D01*
X015723Y038843D01*
X015658Y038856D01*
X015645Y038856D01*
X015645Y038541D01*
X015605Y038541D01*
X015605Y038501D01*
X015291Y038501D01*
X015291Y038488D01*
X015303Y038423D01*
X015329Y038362D01*
X015365Y038308D01*
X015412Y038261D01*
X015467Y038224D01*
X015528Y038199D01*
X015592Y038186D01*
X015605Y038186D01*
X015605Y038501D01*
X015645Y038501D01*
X015645Y038186D01*
X015658Y038186D01*
X015723Y038199D01*
X015784Y038224D01*
X015838Y038261D01*
X015885Y038308D01*
X015922Y038362D01*
X015947Y038423D01*
X015960Y038488D01*
X015973Y038423D01*
X015998Y038362D01*
X016035Y038308D01*
X016081Y038261D01*
X016136Y038224D01*
X016197Y038199D01*
X016262Y038186D01*
X016275Y038186D01*
X016275Y038501D01*
X015960Y038501D01*
X015960Y038488D01*
X015960Y038501D01*
X015645Y038501D01*
X015645Y038541D01*
X015960Y038541D01*
X015960Y038554D01*
X015947Y038619D01*
X015922Y038679D01*
X015885Y038734D01*
X015838Y038781D01*
X015829Y038835D02*
X015742Y038835D01*
X015706Y038912D02*
X015192Y038912D01*
X015192Y038835D02*
X015508Y038835D01*
X015528Y038843D02*
X015467Y038818D01*
X015412Y038781D01*
X015365Y038734D01*
X015329Y038679D01*
X015303Y038619D01*
X015291Y038554D01*
X015291Y038541D01*
X015605Y038541D01*
X015605Y038856D01*
X015592Y038856D01*
X015528Y038843D01*
X015605Y038835D02*
X015645Y038835D01*
X015645Y038758D02*
X015605Y038758D01*
X015605Y038680D02*
X015645Y038680D01*
X015645Y038603D02*
X015605Y038603D01*
X015605Y038526D02*
X015192Y038526D01*
X015192Y038603D02*
X015300Y038603D01*
X015329Y038680D02*
X015192Y038680D01*
X015192Y038758D02*
X015389Y038758D01*
X015192Y038989D02*
X015646Y038989D01*
X015616Y039067D02*
X015192Y039067D01*
X015192Y039144D02*
X015920Y039144D01*
X015960Y039144D02*
X016728Y039144D01*
X016728Y039221D02*
X016267Y039221D01*
X016241Y039298D02*
X016728Y039298D01*
X016728Y039376D02*
X016189Y039376D01*
X015960Y039376D02*
X015920Y039376D01*
X015920Y039453D02*
X015960Y039453D01*
X015960Y039298D02*
X015920Y039298D01*
X015920Y039221D02*
X015960Y039221D01*
X015960Y039067D02*
X015920Y039067D01*
X015920Y038989D02*
X015960Y038989D01*
X015960Y038912D02*
X015920Y038912D01*
X015920Y038835D02*
X015960Y038835D01*
X015921Y038680D02*
X015998Y038680D01*
X015970Y038603D02*
X015950Y038603D01*
X015952Y038449D02*
X015968Y038449D01*
X015994Y038371D02*
X015925Y038371D01*
X015872Y038294D02*
X016048Y038294D01*
X016154Y038217D02*
X015766Y038217D01*
X015645Y038217D02*
X015605Y038217D01*
X015605Y038294D02*
X015645Y038294D01*
X015645Y038371D02*
X015605Y038371D01*
X015605Y038449D02*
X015645Y038449D01*
X015645Y038526D02*
X016275Y038526D01*
X016314Y038526D02*
X016728Y038526D01*
X016728Y038603D02*
X016619Y038603D01*
X016590Y038680D02*
X016728Y038680D01*
X016728Y038449D02*
X016621Y038449D01*
X016595Y038371D02*
X016728Y038371D01*
X016728Y038294D02*
X016541Y038294D01*
X016435Y038217D02*
X016728Y038217D01*
X016728Y038140D02*
X015192Y038140D01*
X015192Y038217D02*
X015485Y038217D01*
X015379Y038294D02*
X015192Y038294D01*
X015192Y038371D02*
X015325Y038371D01*
X015298Y038449D02*
X015192Y038449D01*
X015192Y038062D02*
X016728Y038062D01*
X016728Y037985D02*
X015192Y037985D01*
X015192Y037908D02*
X016728Y037908D01*
X016728Y037831D02*
X015192Y037831D01*
X015192Y037753D02*
X016728Y037753D01*
X016728Y037676D02*
X015192Y037676D01*
X015192Y037599D02*
X016728Y037599D01*
X016728Y037522D02*
X015192Y037522D01*
X015053Y037189D02*
X014989Y037202D01*
X014976Y037202D01*
X014976Y036887D01*
X015291Y036887D01*
X015291Y036900D01*
X015278Y036965D01*
X015252Y037026D01*
X015216Y037081D01*
X015169Y037127D01*
X015114Y037164D01*
X015053Y037189D01*
X014976Y037136D02*
X014936Y037136D01*
X014936Y037202D02*
X014923Y037202D01*
X014858Y037189D01*
X014797Y037164D01*
X014743Y037127D01*
X014696Y037081D01*
X014659Y037026D01*
X014634Y036965D01*
X014621Y036900D01*
X014621Y036887D01*
X014936Y036887D01*
X014936Y036848D01*
X014621Y036848D01*
X014621Y036834D01*
X014634Y036770D01*
X014659Y036709D01*
X014696Y036654D01*
X014743Y036607D01*
X014797Y036571D01*
X014858Y036546D01*
X014923Y036533D01*
X014936Y036533D01*
X014936Y036848D01*
X014976Y036848D01*
X014976Y036887D01*
X014936Y036887D01*
X014936Y037202D01*
X014936Y037058D02*
X014976Y037058D01*
X014976Y036981D02*
X014936Y036981D01*
X014936Y036904D02*
X014976Y036904D01*
X014976Y036848D02*
X015291Y036848D01*
X015291Y036834D01*
X015278Y036770D01*
X015252Y036709D01*
X015216Y036654D01*
X015169Y036607D01*
X015114Y036571D01*
X015053Y036546D01*
X014989Y036533D01*
X014976Y036533D01*
X014976Y036848D01*
X014976Y036827D02*
X014936Y036827D01*
X014936Y036749D02*
X014976Y036749D01*
X014976Y036672D02*
X014936Y036672D01*
X014936Y036595D02*
X014976Y036595D01*
X015150Y036595D02*
X015549Y036595D01*
X015530Y036607D02*
X015585Y036571D01*
X015646Y036546D01*
X015710Y036533D01*
X015724Y036533D01*
X015724Y036848D01*
X015409Y036848D01*
X015409Y036834D01*
X015421Y036770D01*
X015447Y036709D01*
X015483Y036654D01*
X015530Y036607D01*
X015471Y036672D02*
X015228Y036672D01*
X015269Y036749D02*
X015430Y036749D01*
X015410Y036827D02*
X015289Y036827D01*
X015290Y036904D02*
X015409Y036904D01*
X015428Y036981D02*
X015271Y036981D01*
X015231Y037058D02*
X015468Y037058D01*
X015542Y037136D02*
X015157Y037136D01*
X014755Y037136D02*
X014370Y037136D01*
X014382Y037127D02*
X014327Y037164D01*
X014266Y037189D01*
X014201Y037202D01*
X014188Y037202D01*
X014188Y036887D01*
X014149Y036887D01*
X014149Y036848D01*
X014188Y036848D01*
X014188Y036887D01*
X014503Y036887D01*
X014503Y036900D01*
X014490Y036965D01*
X014465Y037026D01*
X014428Y037081D01*
X014382Y037127D01*
X014443Y037058D02*
X014681Y037058D01*
X014641Y036981D02*
X014484Y036981D01*
X014502Y036904D02*
X014622Y036904D01*
X014623Y036827D02*
X014502Y036827D01*
X014503Y036834D02*
X014503Y036848D01*
X014188Y036848D01*
X014188Y036533D01*
X014201Y036533D01*
X014266Y036546D01*
X014327Y036571D01*
X014382Y036607D01*
X014428Y036654D01*
X014465Y036709D01*
X014490Y036770D01*
X014503Y036834D01*
X014482Y036749D02*
X014643Y036749D01*
X014684Y036672D02*
X014440Y036672D01*
X014363Y036595D02*
X014761Y036595D01*
X014188Y036595D02*
X014149Y036595D01*
X014149Y036672D02*
X014188Y036672D01*
X014188Y036749D02*
X014149Y036749D01*
X014149Y036827D02*
X014188Y036827D01*
X014188Y036904D02*
X014149Y036904D01*
X014149Y036981D02*
X014188Y036981D01*
X014188Y037058D02*
X014149Y037058D01*
X014149Y037136D02*
X014188Y037136D01*
X012987Y036440D02*
X016728Y036440D01*
X016728Y036363D02*
X012987Y036363D01*
X012987Y036286D02*
X016728Y036286D01*
X016728Y036209D02*
X012987Y036209D01*
X012987Y036131D02*
X016728Y036131D01*
X016728Y036054D02*
X012987Y036054D01*
X012987Y035977D02*
X016728Y035977D01*
X016728Y035900D02*
X012987Y035900D01*
X012987Y035822D02*
X016728Y035822D01*
X016728Y035745D02*
X012987Y035745D01*
X012987Y035668D02*
X016137Y035668D01*
X016137Y035591D02*
X012987Y035591D01*
X012987Y035513D02*
X016137Y035513D01*
X016137Y035436D02*
X012987Y035436D01*
X012987Y035359D02*
X016137Y035359D01*
X016137Y035282D02*
X012987Y035282D01*
X012987Y035205D02*
X016137Y035205D01*
X016137Y035127D02*
X012987Y035127D01*
X012987Y035050D02*
X016137Y035050D01*
X016137Y034973D02*
X012987Y034973D01*
X012987Y034896D02*
X016137Y034896D01*
X016137Y034818D02*
X012987Y034818D01*
X012987Y034741D02*
X016137Y034741D01*
X016334Y034741D02*
X019483Y034741D01*
X019483Y034818D02*
X016334Y034818D01*
X016334Y034896D02*
X019483Y034896D01*
X019483Y034973D02*
X016334Y034973D01*
X016334Y035050D02*
X019483Y035050D01*
X019483Y035127D02*
X016334Y035127D01*
X016334Y035205D02*
X019483Y035205D01*
X019483Y035282D02*
X016334Y035282D01*
X016334Y035359D02*
X019483Y035359D01*
X019483Y035436D02*
X016334Y035436D01*
X016833Y035513D02*
X019483Y035513D01*
X019483Y035591D02*
X016910Y035591D01*
X016924Y035668D02*
X019483Y035668D01*
X019483Y035745D02*
X016924Y035745D01*
X016924Y035822D02*
X019483Y035822D01*
X019483Y035900D02*
X016924Y035900D01*
X016924Y035977D02*
X019483Y035977D01*
X019483Y036054D02*
X016924Y036054D01*
X016924Y036131D02*
X019483Y036131D01*
X019483Y036209D02*
X016924Y036209D01*
X016924Y036286D02*
X019483Y036286D01*
X019483Y036363D02*
X016924Y036363D01*
X016924Y036440D02*
X019483Y036440D01*
X019483Y036518D02*
X016924Y036518D01*
X016924Y036595D02*
X019483Y036595D01*
X019483Y034505D02*
X012987Y034505D01*
X012987Y029366D01*
X013035Y029544D01*
X013223Y029870D01*
X013489Y030136D01*
X013814Y030324D01*
X014177Y030421D01*
X014553Y030421D01*
X014916Y030324D01*
X015242Y030136D01*
X015508Y029870D01*
X015626Y029664D01*
X017515Y031552D01*
X019483Y031552D01*
X019483Y034505D01*
X019483Y034432D02*
X012987Y034432D01*
X012987Y034355D02*
X019483Y034355D01*
X019483Y034278D02*
X012987Y034278D01*
X012987Y034200D02*
X019483Y034200D01*
X019483Y034123D02*
X012987Y034123D01*
X012987Y034046D02*
X019483Y034046D01*
X019483Y033969D02*
X012987Y033969D01*
X012987Y033891D02*
X019483Y033891D01*
X019483Y033814D02*
X012987Y033814D01*
X012987Y033737D02*
X019483Y033737D01*
X019483Y033660D02*
X012987Y033660D01*
X012987Y033582D02*
X019483Y033582D01*
X019483Y033505D02*
X012987Y033505D01*
X012987Y033428D02*
X016382Y033428D01*
X016372Y033424D02*
X016317Y033387D01*
X016271Y033341D01*
X016234Y033286D01*
X016209Y033225D01*
X016196Y033160D01*
X016196Y033147D01*
X016511Y033147D01*
X016511Y033462D01*
X016498Y033462D01*
X016433Y033449D01*
X016372Y033424D01*
X016281Y033351D02*
X012987Y033351D01*
X012987Y033274D02*
X016229Y033274D01*
X016203Y033196D02*
X012987Y033196D01*
X012987Y033119D02*
X016511Y033119D01*
X016511Y033108D02*
X016196Y033108D01*
X016196Y033094D01*
X016209Y033030D01*
X016234Y032969D01*
X016271Y032914D01*
X016317Y032867D01*
X016372Y032831D01*
X016433Y032805D01*
X016498Y032793D01*
X016511Y032793D01*
X016511Y033108D01*
X016511Y033147D01*
X016550Y033147D01*
X016550Y033462D01*
X016564Y033462D01*
X016628Y033449D01*
X016689Y033424D01*
X016744Y033387D01*
X016791Y033341D01*
X016827Y033286D01*
X016852Y033225D01*
X016865Y033160D01*
X016865Y033147D01*
X016550Y033147D01*
X016550Y033108D01*
X016865Y033108D01*
X016865Y033094D01*
X016852Y033030D01*
X016827Y032969D01*
X016791Y032914D01*
X016744Y032867D01*
X016689Y032831D01*
X016628Y032805D01*
X016564Y032793D01*
X016550Y032793D01*
X016550Y033108D01*
X016511Y033108D01*
X016550Y033119D02*
X017298Y033119D01*
X017298Y033108D02*
X016983Y033108D01*
X016983Y033094D01*
X016996Y033030D01*
X017022Y032969D01*
X017058Y032914D01*
X017105Y032867D01*
X017160Y032831D01*
X017220Y032805D01*
X017285Y032793D01*
X017298Y032793D01*
X017298Y033108D01*
X017298Y033147D01*
X016983Y033147D01*
X016983Y033160D01*
X016996Y033225D01*
X017022Y033286D01*
X017058Y033341D01*
X017105Y033387D01*
X017160Y033424D01*
X017220Y033449D01*
X017285Y033462D01*
X017298Y033462D01*
X017298Y033147D01*
X017338Y033147D01*
X017653Y033147D01*
X017653Y033160D01*
X017640Y033225D01*
X017615Y033286D01*
X017578Y033341D01*
X017531Y033387D01*
X017477Y033424D01*
X017416Y033449D01*
X017351Y033462D01*
X017338Y033462D01*
X017338Y033147D01*
X017338Y033108D01*
X017653Y033108D01*
X017653Y033094D01*
X017640Y033030D01*
X017615Y032969D01*
X017578Y032914D01*
X017531Y032867D01*
X017477Y032831D01*
X017416Y032805D01*
X017351Y032793D01*
X017338Y032793D01*
X017338Y033108D01*
X017298Y033108D01*
X017338Y033119D02*
X018086Y033119D01*
X018086Y033108D02*
X017771Y033108D01*
X017771Y033094D01*
X017784Y033030D01*
X017809Y032969D01*
X017846Y032914D01*
X017892Y032867D01*
X017947Y032831D01*
X018008Y032805D01*
X018073Y032793D01*
X018086Y032793D01*
X018086Y033108D01*
X018086Y033147D01*
X018086Y033462D01*
X018073Y033462D01*
X018008Y033449D01*
X017947Y033424D01*
X017892Y033387D01*
X017846Y033341D01*
X017809Y033286D01*
X017784Y033225D01*
X017771Y033160D01*
X017771Y033147D01*
X018086Y033147D01*
X018125Y033147D01*
X018125Y033462D01*
X018138Y033462D01*
X018203Y033449D01*
X018264Y033424D01*
X018319Y033387D01*
X018365Y033341D01*
X018402Y033286D01*
X018427Y033225D01*
X018440Y033160D01*
X018440Y033147D01*
X018125Y033147D01*
X018125Y033108D01*
X018440Y033108D01*
X018440Y033094D01*
X018427Y033030D01*
X018402Y032969D01*
X018365Y032914D01*
X018319Y032867D01*
X018264Y032831D01*
X018203Y032805D01*
X018138Y032793D01*
X018125Y032793D01*
X018125Y033108D01*
X018086Y033108D01*
X018125Y033119D02*
X018873Y033119D01*
X018873Y033108D02*
X018558Y033108D01*
X018558Y033094D01*
X018571Y033030D01*
X018596Y032969D01*
X018633Y032914D01*
X018680Y032867D01*
X018734Y032831D01*
X018795Y032805D01*
X018860Y032793D01*
X018873Y032793D01*
X018873Y033108D01*
X018873Y033147D01*
X018558Y033147D01*
X018558Y033160D01*
X018571Y033225D01*
X018596Y033286D01*
X018633Y033341D01*
X018680Y033387D01*
X018734Y033424D01*
X018795Y033449D01*
X018860Y033462D01*
X018873Y033462D01*
X018873Y033147D01*
X018913Y033147D01*
X019228Y033147D01*
X019228Y033160D01*
X019215Y033225D01*
X019189Y033286D01*
X019153Y033341D01*
X019106Y033387D01*
X019051Y033424D01*
X018991Y033449D01*
X018926Y033462D01*
X018913Y033462D01*
X018913Y033147D01*
X018913Y033108D01*
X019228Y033108D01*
X019228Y033094D01*
X019215Y033030D01*
X019189Y032969D01*
X019153Y032914D01*
X019106Y032867D01*
X019051Y032831D01*
X018991Y032805D01*
X018926Y032793D01*
X018913Y032793D01*
X018913Y033108D01*
X018873Y033108D01*
X018913Y033119D02*
X019483Y033119D01*
X019483Y033042D02*
X019217Y033042D01*
X019187Y032965D02*
X019483Y032965D01*
X019483Y032887D02*
X019126Y032887D01*
X019002Y032810D02*
X019483Y032810D01*
X019483Y032733D02*
X012987Y032733D01*
X012987Y032810D02*
X016422Y032810D01*
X016511Y032810D02*
X016550Y032810D01*
X016550Y032887D02*
X016511Y032887D01*
X016511Y032965D02*
X016550Y032965D01*
X016550Y033042D02*
X016511Y033042D01*
X016511Y033196D02*
X016550Y033196D01*
X016550Y033274D02*
X016511Y033274D01*
X016511Y033351D02*
X016550Y033351D01*
X016550Y033428D02*
X016511Y033428D01*
X016679Y033428D02*
X017170Y033428D01*
X017068Y033351D02*
X016780Y033351D01*
X016832Y033274D02*
X017016Y033274D01*
X016991Y033196D02*
X016858Y033196D01*
X016855Y033042D02*
X016994Y033042D01*
X017024Y032965D02*
X016824Y032965D01*
X016764Y032887D02*
X017085Y032887D01*
X017209Y032810D02*
X016639Y032810D01*
X016297Y032887D02*
X012987Y032887D01*
X012987Y032965D02*
X016237Y032965D01*
X016206Y033042D02*
X012987Y033042D01*
X012987Y032656D02*
X019483Y032656D01*
X019483Y032578D02*
X012987Y032578D01*
X012987Y032501D02*
X019483Y032501D01*
X019483Y032424D02*
X015964Y032424D01*
X015944Y032443D02*
X015814Y032497D01*
X015673Y032497D01*
X015543Y032443D01*
X015448Y032349D01*
X015353Y032443D01*
X015223Y032497D01*
X015082Y032497D01*
X014952Y032443D01*
X014852Y032344D01*
X014798Y032214D01*
X014798Y032073D01*
X014852Y031942D01*
X014952Y031843D01*
X015082Y031789D01*
X015223Y031789D01*
X015353Y031843D01*
X015448Y031937D01*
X015543Y031843D01*
X015673Y031789D01*
X015814Y031789D01*
X015944Y031843D01*
X016044Y031942D01*
X016098Y032073D01*
X016098Y032214D01*
X016044Y032344D01*
X015944Y032443D01*
X016041Y032347D02*
X019483Y032347D01*
X019483Y032269D02*
X016074Y032269D01*
X016098Y032192D02*
X019483Y032192D01*
X019483Y032115D02*
X016098Y032115D01*
X016083Y032038D02*
X019483Y032038D01*
X019483Y031960D02*
X016051Y031960D01*
X015985Y031883D02*
X019483Y031883D01*
X019483Y031806D02*
X015855Y031806D01*
X015631Y031806D02*
X015265Y031806D01*
X015394Y031883D02*
X015502Y031883D01*
X015041Y031806D02*
X014163Y031806D01*
X014121Y031789D02*
X014251Y031843D01*
X014351Y031942D01*
X014405Y032073D01*
X014405Y032214D01*
X014351Y032344D01*
X014251Y032443D01*
X014121Y032497D01*
X013980Y032497D01*
X013850Y032443D01*
X013750Y032344D01*
X013716Y032261D01*
X013681Y032344D01*
X013582Y032443D01*
X013452Y032497D01*
X013311Y032497D01*
X013180Y032443D01*
X013081Y032344D01*
X013027Y032214D01*
X013027Y032073D01*
X013081Y031942D01*
X013180Y031843D01*
X013311Y031789D01*
X013452Y031789D01*
X013582Y031843D01*
X013681Y031942D01*
X013716Y032025D01*
X013750Y031942D01*
X013850Y031843D01*
X013980Y031789D01*
X014121Y031789D01*
X013938Y031806D02*
X013493Y031806D01*
X013622Y031883D02*
X013809Y031883D01*
X013742Y031960D02*
X013689Y031960D01*
X013712Y032269D02*
X013719Y032269D01*
X013753Y032347D02*
X013679Y032347D01*
X013601Y032424D02*
X013830Y032424D01*
X014271Y032424D02*
X014932Y032424D01*
X014855Y032347D02*
X014348Y032347D01*
X014382Y032269D02*
X014822Y032269D01*
X014798Y032192D02*
X014405Y032192D01*
X014405Y032115D02*
X014798Y032115D01*
X014813Y032038D02*
X014390Y032038D01*
X014358Y031960D02*
X014845Y031960D01*
X014911Y031883D02*
X014292Y031883D01*
X013269Y031806D02*
X012987Y031806D01*
X012987Y031883D02*
X013140Y031883D01*
X013073Y031960D02*
X012987Y031960D01*
X012987Y032038D02*
X013041Y032038D01*
X013027Y032115D02*
X012987Y032115D01*
X012987Y032192D02*
X013027Y032192D01*
X013050Y032269D02*
X012987Y032269D01*
X012987Y032347D02*
X013084Y032347D01*
X013161Y032424D02*
X012987Y032424D01*
X012987Y031729D02*
X019483Y031729D01*
X019483Y031651D02*
X012987Y031651D01*
X012987Y031574D02*
X019483Y031574D01*
X018913Y032810D02*
X018873Y032810D01*
X018873Y032887D02*
X018913Y032887D01*
X018913Y032965D02*
X018873Y032965D01*
X018873Y033042D02*
X018913Y033042D01*
X018913Y033196D02*
X018873Y033196D01*
X018873Y033274D02*
X018913Y033274D01*
X018913Y033351D02*
X018873Y033351D01*
X018873Y033428D02*
X018913Y033428D01*
X019041Y033428D02*
X019483Y033428D01*
X019483Y033351D02*
X019143Y033351D01*
X019195Y033274D02*
X019483Y033274D01*
X019483Y033196D02*
X019220Y033196D01*
X018744Y033428D02*
X018254Y033428D01*
X018355Y033351D02*
X018643Y033351D01*
X018591Y033274D02*
X018407Y033274D01*
X018433Y033196D02*
X018565Y033196D01*
X018569Y033042D02*
X018430Y033042D01*
X018399Y032965D02*
X018599Y032965D01*
X018660Y032887D02*
X018339Y032887D01*
X018214Y032810D02*
X018784Y032810D01*
X018125Y032810D02*
X018086Y032810D01*
X018086Y032887D02*
X018125Y032887D01*
X018125Y032965D02*
X018086Y032965D01*
X018086Y033042D02*
X018125Y033042D01*
X018125Y033196D02*
X018086Y033196D01*
X018086Y033274D02*
X018125Y033274D01*
X018125Y033351D02*
X018086Y033351D01*
X018086Y033428D02*
X018125Y033428D01*
X017957Y033428D02*
X017467Y033428D01*
X017568Y033351D02*
X017856Y033351D01*
X017804Y033274D02*
X017620Y033274D01*
X017646Y033196D02*
X017778Y033196D01*
X017781Y033042D02*
X017642Y033042D01*
X017612Y032965D02*
X017812Y032965D01*
X017872Y032887D02*
X017551Y032887D01*
X017427Y032810D02*
X017997Y032810D01*
X017338Y032810D02*
X017298Y032810D01*
X017298Y032887D02*
X017338Y032887D01*
X017338Y032965D02*
X017298Y032965D01*
X017298Y033042D02*
X017338Y033042D01*
X017338Y033196D02*
X017298Y033196D01*
X017298Y033274D02*
X017338Y033274D01*
X017338Y033351D02*
X017298Y033351D01*
X017298Y033428D02*
X017338Y033428D01*
X017459Y031497D02*
X012987Y031497D01*
X012987Y031420D02*
X017382Y031420D01*
X017305Y031343D02*
X012987Y031343D01*
X012987Y031265D02*
X017228Y031265D01*
X017150Y031188D02*
X012987Y031188D01*
X012987Y031111D02*
X017073Y031111D01*
X016996Y031034D02*
X012987Y031034D01*
X012987Y030956D02*
X016919Y030956D01*
X016842Y030879D02*
X012987Y030879D01*
X012987Y030802D02*
X016764Y030802D01*
X016687Y030725D02*
X012987Y030725D01*
X012987Y030647D02*
X016610Y030647D01*
X016533Y030570D02*
X012987Y030570D01*
X012987Y030493D02*
X016455Y030493D01*
X016378Y030416D02*
X014573Y030416D01*
X014861Y030338D02*
X016301Y030338D01*
X016224Y030261D02*
X015025Y030261D01*
X015158Y030184D02*
X016146Y030184D01*
X016069Y030107D02*
X015271Y030107D01*
X015348Y030029D02*
X015992Y030029D01*
X015915Y029952D02*
X015425Y029952D01*
X015503Y029875D02*
X015837Y029875D01*
X015760Y029798D02*
X015549Y029798D01*
X015594Y029720D02*
X015683Y029720D01*
X014158Y030416D02*
X012987Y030416D01*
X012987Y030338D02*
X013869Y030338D01*
X013706Y030261D02*
X012987Y030261D01*
X012987Y030184D02*
X013572Y030184D01*
X013460Y030107D02*
X012987Y030107D01*
X012987Y030029D02*
X013383Y030029D01*
X013305Y029952D02*
X012987Y029952D01*
X012987Y029875D02*
X013228Y029875D01*
X013181Y029798D02*
X012987Y029798D01*
X012987Y029720D02*
X013137Y029720D01*
X013092Y029643D02*
X012987Y029643D01*
X012987Y029566D02*
X013048Y029566D01*
X013020Y029489D02*
X012987Y029489D01*
X012987Y029411D02*
X013000Y029411D01*
X015373Y032424D02*
X015523Y032424D01*
X015724Y036595D02*
X015763Y036595D01*
X015763Y036672D02*
X015724Y036672D01*
X015724Y036749D02*
X015763Y036749D01*
X015763Y036827D02*
X015724Y036827D01*
X015724Y036904D02*
X015763Y036904D01*
X015763Y036981D02*
X015724Y036981D01*
X015724Y037058D02*
X015763Y037058D01*
X015763Y037136D02*
X015724Y037136D01*
X016275Y038217D02*
X016314Y038217D01*
X016314Y038294D02*
X016275Y038294D01*
X016275Y038371D02*
X016314Y038371D01*
X016314Y038449D02*
X016275Y038449D01*
X016275Y038603D02*
X016314Y038603D01*
X016314Y038680D02*
X016275Y038680D01*
X016275Y038758D02*
X016314Y038758D01*
X016314Y038835D02*
X016275Y038835D01*
X016235Y038989D02*
X016728Y038989D01*
X016728Y039067D02*
X016265Y039067D01*
X015794Y039453D02*
X015192Y039453D01*
X015192Y039376D02*
X015691Y039376D01*
X015639Y039298D02*
X015192Y039298D01*
X015192Y039221D02*
X015613Y039221D01*
X014995Y039762D02*
X012987Y039762D01*
X012987Y039839D02*
X015035Y039839D01*
X015035Y039916D02*
X012987Y039916D01*
X012987Y039993D02*
X015035Y039993D01*
X015035Y040071D02*
X012987Y040071D01*
X012987Y040148D02*
X015035Y040148D01*
X015035Y040225D02*
X012987Y040225D01*
X012987Y040302D02*
X015035Y040302D01*
X015035Y040380D02*
X012987Y040380D01*
X012987Y040457D02*
X015035Y040457D01*
X015043Y040534D02*
X012987Y040534D01*
X012987Y040611D02*
X015075Y040611D01*
X015143Y040689D02*
X012987Y040689D01*
X012987Y040766D02*
X021767Y040766D01*
X021767Y040843D02*
X012987Y040843D01*
X012987Y040920D02*
X021767Y040920D01*
X021767Y040998D02*
X012987Y040998D01*
X012987Y041075D02*
X021767Y041075D01*
X021767Y041152D02*
X012987Y041152D01*
X012987Y041229D02*
X021728Y041229D01*
X021696Y041307D02*
X012987Y041307D01*
X012987Y041384D02*
X021688Y041384D01*
X021688Y041461D02*
X012987Y041461D01*
X012987Y041538D02*
X021718Y041538D01*
X021762Y041615D02*
X012987Y041615D01*
X012987Y041693D02*
X021839Y041693D01*
X022318Y041075D02*
X023027Y041075D01*
X023027Y040998D02*
X022318Y040998D01*
X022318Y040920D02*
X023027Y040920D01*
X023027Y040843D02*
X022318Y040843D01*
X022318Y040766D02*
X023027Y040766D01*
X023027Y040689D02*
X022318Y040689D01*
X022318Y040611D02*
X023027Y040611D01*
X023027Y040534D02*
X022318Y040534D01*
X022318Y040457D02*
X023027Y040457D01*
X023027Y040380D02*
X022318Y040380D01*
X022318Y040302D02*
X023027Y040302D01*
X023027Y040225D02*
X022318Y040225D01*
X022329Y040148D02*
X023027Y040148D01*
X023027Y040071D02*
X022357Y040071D01*
X022357Y039993D02*
X023027Y039993D01*
X022357Y039954D02*
X022310Y039839D01*
X022221Y039750D02*
X022105Y039702D01*
X021980Y039702D01*
X021864Y039750D01*
X021775Y039839D01*
X021852Y039762D02*
X016924Y039762D01*
X015665Y040380D02*
X021767Y040380D01*
X021767Y040457D02*
X015665Y040457D01*
X015656Y040534D02*
X021767Y040534D01*
X021767Y040611D02*
X015624Y040611D01*
X015557Y040689D02*
X021767Y040689D01*
X023027Y041770D02*
X012987Y041770D01*
X012987Y041847D02*
X023027Y041847D01*
X023027Y041924D02*
X012987Y041924D01*
X012987Y042002D02*
X023027Y042002D01*
X023027Y042079D02*
X012987Y042079D01*
X012987Y042156D02*
X023027Y042156D01*
X023027Y042233D02*
X012987Y042233D01*
X012987Y042311D02*
X023027Y042311D01*
X023027Y042388D02*
X012987Y042388D01*
X012987Y042465D02*
X023027Y042465D01*
X023027Y042542D02*
X012987Y042542D01*
X012987Y042620D02*
X015327Y042620D01*
X015243Y042697D02*
X012987Y042697D01*
X012987Y042774D02*
X015186Y042774D01*
X015154Y042851D02*
X012987Y042851D01*
X012987Y042929D02*
X015139Y042929D01*
X015139Y043006D02*
X012987Y043006D01*
X012987Y043083D02*
X015152Y043083D01*
X015184Y043160D02*
X012987Y043160D01*
X012987Y043238D02*
X015231Y043238D01*
X015231Y043315D02*
X012987Y043315D01*
X012987Y043392D02*
X015231Y043392D01*
X015231Y043469D02*
X014718Y043469D01*
X014812Y043546D02*
X015231Y043546D01*
X015231Y043624D02*
X014848Y043624D01*
X014857Y043701D02*
X015231Y043701D01*
X015231Y043778D02*
X014857Y043778D01*
X014857Y043855D02*
X015231Y043855D01*
X015231Y043933D02*
X014857Y043933D01*
X014857Y044010D02*
X015231Y044010D01*
X015231Y044087D02*
X014857Y044087D01*
X013755Y044087D02*
X013696Y044087D01*
X013696Y044010D02*
X013755Y044010D01*
X013755Y043933D02*
X013696Y043933D01*
X013696Y043855D02*
X013755Y043855D01*
X013755Y043778D02*
X013696Y043778D01*
X013696Y043701D02*
X013755Y043701D01*
X013765Y043624D02*
X013696Y043624D01*
X013665Y043546D02*
X013801Y043546D01*
X013895Y043469D02*
X013588Y043469D01*
X015766Y042620D02*
X023027Y042620D01*
X023027Y042697D02*
X015850Y042697D01*
X015906Y042774D02*
X023027Y042774D01*
X023027Y042851D02*
X015938Y042851D01*
X015954Y042929D02*
X023027Y042929D01*
X023027Y043006D02*
X015954Y043006D01*
X015941Y043083D02*
X023027Y043083D01*
X023027Y043160D02*
X016210Y043160D01*
X016287Y043238D02*
X023027Y043238D01*
X023027Y043315D02*
X016328Y043315D01*
X016354Y043392D02*
X023027Y043392D01*
X023027Y043469D02*
X021631Y043469D01*
X021714Y043546D02*
X023027Y043546D01*
X023027Y043624D02*
X021759Y043624D01*
X021787Y043701D02*
X023027Y043701D01*
X023027Y043778D02*
X021787Y043778D01*
X021773Y043855D02*
X023027Y043855D01*
X023027Y043933D02*
X021741Y043933D01*
X021672Y044010D02*
X023027Y044010D01*
X023027Y044087D02*
X021530Y044087D01*
X021452Y043757D02*
X021058Y044151D01*
X020665Y044151D01*
X020271Y044151D01*
X020074Y043954D01*
X019483Y043954D01*
X019090Y044348D01*
X016334Y044348D01*
X016019Y044033D01*
X016019Y043442D01*
X016338Y043546D02*
X021189Y043546D01*
X021145Y043624D02*
X016306Y043624D01*
X016233Y043701D02*
X021117Y043701D01*
X021117Y043778D02*
X020177Y043778D01*
X020254Y043855D02*
X021075Y043855D01*
X020998Y043933D02*
X020331Y043933D01*
X019381Y043778D02*
X016216Y043778D01*
X016216Y043855D02*
X019304Y043855D01*
X019226Y043933D02*
X016216Y043933D01*
X016274Y044010D02*
X019149Y044010D01*
X019072Y044087D02*
X016352Y044087D01*
X016354Y043469D02*
X021273Y043469D01*
X023420Y041986D02*
X023696Y041710D01*
X024287Y041710D01*
X024365Y041710D01*
X024838Y042182D01*
X024838Y042773D01*
X024838Y044190D01*
X025153Y044505D01*
X025153Y044860D01*
X024680Y045332D01*
X024680Y046789D01*
X024995Y047104D01*
X024995Y048482D01*
X025389Y048875D02*
X023814Y048875D01*
X023617Y048678D01*
X017909Y048678D01*
X017515Y048678D01*
X017318Y048482D01*
X016413Y048482D01*
X016987Y048982D02*
X017078Y049072D01*
X018696Y049072D01*
X018302Y048088D02*
X017515Y048088D01*
X017239Y047812D01*
X017239Y046808D01*
X019877Y049860D02*
X019483Y050253D01*
X019877Y049860D02*
X023617Y049860D01*
X024995Y049860D01*
X025192Y050056D01*
X024956Y050647D02*
X025389Y051080D01*
X025389Y052615D01*
X024602Y053797D02*
X024995Y054190D01*
X024995Y054978D01*
X024995Y055371D01*
X024602Y055371D01*
X024602Y055962D01*
X024208Y055568D02*
X023932Y055844D01*
X023932Y056041D01*
X023932Y057084D01*
X023617Y057084D02*
X023617Y055568D01*
X023342Y055293D01*
X022909Y055293D01*
X022633Y055450D02*
X022633Y054978D01*
X022830Y054781D01*
X022712Y054899D01*
X022633Y055450D02*
X022830Y055647D01*
X022909Y055647D01*
X023105Y055647D01*
X023224Y055765D01*
X023302Y055844D01*
X023302Y056041D01*
X023302Y056238D01*
X023302Y057084D01*
X022987Y057084D02*
X022987Y056119D01*
X022830Y055962D01*
X022318Y054072D02*
X023657Y054072D01*
X024444Y054072D01*
X024602Y054230D01*
X024602Y054978D01*
X024995Y055371D02*
X026334Y055371D01*
X024602Y053797D02*
X023617Y053797D01*
X022318Y054072D02*
X022239Y053993D01*
X021649Y052025D02*
X021452Y052025D01*
X021216Y052025D01*
X020350Y052891D01*
X020310Y052930D01*
X020310Y054938D01*
X020310Y055135D01*
X020310Y055293D01*
X019602Y056001D01*
X019523Y055686D02*
X019287Y055923D01*
X019287Y058550D01*
X019464Y058728D01*
X018066Y057970D02*
X018893Y057143D01*
X018893Y056080D01*
X019129Y055844D01*
X019444Y055529D01*
X019956Y055017D01*
X019956Y054978D01*
X019956Y054702D01*
X019956Y053088D01*
X019956Y052812D01*
X020113Y052655D01*
X021531Y051238D01*
X021570Y051631D02*
X021373Y051631D01*
X021058Y051946D01*
X020133Y052871D01*
X020133Y054761D01*
X020133Y055037D01*
X020133Y055076D01*
X019523Y055686D01*
X019365Y055371D02*
X019759Y054978D01*
X019759Y054938D01*
X019759Y054505D01*
X019759Y053088D01*
X019759Y052773D01*
X019838Y052694D01*
X020271Y052261D01*
X020271Y052025D01*
X019877Y052025D02*
X021058Y050844D01*
X021176Y050726D01*
X023066Y050726D01*
X023145Y050726D01*
X023224Y050647D01*
X023696Y050647D01*
X024956Y050647D01*
X023420Y050923D02*
X022239Y050923D01*
X022200Y050962D01*
X022042Y051119D01*
X022042Y051316D01*
X022042Y051631D01*
X021649Y052025D01*
X019877Y052025D02*
X019680Y052222D01*
X019562Y052222D01*
X019365Y055371D02*
X018972Y055765D01*
X018539Y056198D01*
X018539Y056749D01*
X018066Y057970D02*
X018027Y058009D01*
X017042Y058009D01*
X016728Y058324D01*
X016708Y058344D01*
X016708Y058728D01*
X021058Y047694D02*
X023420Y047694D01*
X023814Y048088D01*
X025546Y048088D02*
X025546Y047576D01*
X025546Y046552D01*
X026019Y046080D01*
X026767Y045332D01*
X027751Y044938D02*
X028539Y044938D01*
X029129Y044348D01*
X029129Y041986D01*
X029129Y039230D01*
X029720Y038639D01*
X029917Y038442D01*
X029917Y035489D01*
X030113Y034308D02*
X033460Y034308D01*
X034050Y037852D02*
X034247Y038049D01*
X034444Y038245D01*
X035035Y038245D01*
X035231Y038442D01*
X035822Y039033D01*
X035822Y039623D01*
X034956Y039269D02*
X033224Y039269D01*
X033066Y039426D01*
X032869Y039623D01*
X033854Y040017D02*
X034050Y039820D01*
X033854Y040017D02*
X030507Y040017D01*
X030310Y039820D01*
X029523Y038836D02*
X029720Y038639D01*
X030310Y037852D02*
X034050Y037852D01*
X033066Y044151D02*
X032869Y044348D01*
X029720Y044348D01*
X029129Y044938D01*
X028145Y044545D02*
X027751Y044151D01*
X027751Y042379D01*
X027554Y042182D01*
X027554Y041198D01*
X027357Y049466D02*
X027357Y052261D01*
X033066Y055568D02*
X033775Y055568D01*
X034168Y055962D01*
X034050Y053797D02*
X035231Y053797D01*
X032161Y030489D02*
X032279Y030371D01*
X031885Y030175D02*
X027948Y030175D01*
X027554Y030568D01*
X022042Y030568D01*
X021452Y029978D01*
X022239Y029978D02*
X022633Y030371D01*
X026767Y030371D01*
X026964Y030175D01*
X027357Y030175D01*
X027082Y029978D02*
X027279Y029781D01*
X029129Y029781D01*
X029326Y029978D01*
X029720Y029978D01*
X029917Y029781D01*
X032672Y029781D01*
X032279Y029387D02*
X032672Y028993D01*
X034247Y028993D01*
X034641Y028993D01*
X036216Y027419D01*
X036216Y026926D01*
X036314Y026828D01*
X034661Y025824D02*
X034661Y025253D01*
X034641Y025273D01*
X034661Y025824D02*
X034444Y026041D01*
X031885Y026848D02*
X031885Y028009D01*
X031885Y026848D02*
X031865Y026828D01*
X030212Y025253D02*
X028342Y025253D01*
X027948Y025647D01*
X027417Y026828D02*
X027417Y027556D01*
X027161Y027812D01*
X026767Y029190D02*
X025586Y028009D01*
X026767Y029190D02*
X027751Y029190D01*
X026964Y029584D02*
X029523Y029584D01*
X027082Y029978D02*
X026176Y029978D01*
X025389Y029978D01*
X024995Y029584D02*
X026964Y029584D01*
X024995Y029584D02*
X024602Y029978D01*
X023814Y029978D01*
X023027Y029978D02*
X022633Y029584D01*
X022633Y028482D01*
X022239Y028088D01*
X022239Y026238D01*
X022968Y026100D02*
X022968Y026828D01*
X022968Y026100D02*
X023027Y026041D01*
X025586Y026238D02*
X025763Y026060D01*
X025763Y025253D01*
X023417Y021610D02*
X023085Y021610D01*
X023007Y021533D02*
X023381Y021533D01*
X023381Y021456D02*
X022838Y021456D01*
X018519Y026828D02*
X018519Y027399D01*
X018499Y027419D01*
X018696Y027615D01*
X019680Y027615D01*
X019877Y027812D01*
X019877Y030371D01*
X013598Y046808D02*
X013598Y047320D01*
D29*
X014464Y052222D02*
X015448Y052222D01*
X015448Y053206D02*
X014464Y053206D01*
X016924Y021671D02*
X016865Y021612D01*
D30*
X021865Y057123D02*
X021865Y057911D01*
X021649Y058127D01*
X021865Y058344D01*
X021865Y059289D01*
X025369Y059289D02*
X025369Y058344D01*
X025369Y058127D01*
X025743Y058127D01*
X025369Y058127D02*
X025369Y057911D01*
X025369Y057123D01*
D31*
X021255Y045135D03*
X021452Y043757D03*
X016019Y043442D03*
D32*
X013598Y047320D02*
X013598Y047982D01*
X012987Y047982D01*
X022042Y041395D02*
X022042Y040017D01*
D33*
X022042Y041395D02*
X023420Y041395D01*
X015546Y042970D02*
X015546Y044545D01*
X015940Y044938D01*
X015350Y040450D02*
X015350Y039623D01*
X029287Y021749D02*
X029287Y021612D01*
X030212Y021612D01*
X033735Y021612D02*
X033735Y021749D01*
X033735Y021612D02*
X034661Y021612D01*
D34*
X036413Y029387D03*
X036413Y054978D03*
X017515Y054978D03*
X014365Y028993D03*
D35*
X027357Y033127D02*
X028145Y033915D01*
X031294Y033915D01*
X034050Y033915D01*
X034247Y034112D01*
X034365Y034230D01*
X034838Y034230D01*
X034917Y034230D01*
X035231Y033915D01*
X037397Y033915D01*
M02*
