%
M48
M72
T01C0.0157
T02C0.0197
T03C0.0236
T04C0.0276
T05C0.0315
T06C0.0354
T07C0.0394
T08C0.0472
T09C0.0630
T10C0.0709
T11C0.1260
%
T01
X23027Y26041
X24011Y25253
X25586Y26238
X25586Y28009
X27161Y27812
X27751Y29190
X26964Y29584
X27357Y30175
X26570Y31159
X26649Y31552
X27357Y33127
X29917Y35489
X30113Y34308
X32357Y30844
X32279Y30371
X31885Y30175
X32279Y29387
X32672Y29781
X31885Y28009
X29523Y29584
X27948Y25647
X33460Y34308
X34444Y31356
X34641Y28600
X34444Y26041
X36609Y31159
X37397Y33915
X35822Y37852
X34641Y37852
X34956Y39269
X35822Y39623
X36413Y39820
X34050Y39820
X32869Y39623
X30310Y39820
X30310Y37852
X27554Y41198
X28145Y44545
X27751Y44938
X26767Y45332
X25546Y48088
X24995Y48482
X25389Y48875
X25192Y50056
X23814Y48088
X22830Y48088
X21649Y46907
X21058Y47694
X20389Y47812
X20074Y48088
X19680Y46474
X19680Y45529
X20586Y43718
X21452Y43757
X23420Y41986
X22042Y40017
X22042Y39623
X21846Y35096
X16531Y40017
X15350Y40450
X16019Y43442
X16334Y46119
X16531Y47104
X16413Y48482
X18302Y48088
X18696Y49072
X18499Y49860
X19483Y50253
X20271Y52025
X19562Y52222
X20940Y53009
X21452Y53797
X22239Y53993
X22830Y54781
X23184Y54466
X23617Y53797
X24208Y54781
X24602Y54978
X24602Y55371
X24208Y55568
X24602Y55962
X22830Y55962
X22909Y55293
X22633Y58836
X24602Y58836
X26767Y58836
X26334Y55371
X25389Y52615
X27357Y52261
X27948Y52812
X27357Y49466
X29129Y44938
X33066Y44151
X33460Y43363
X34405Y43363
X34641Y52222
X35231Y53797
X34050Y53797
X33460Y54978
X33066Y55568
X32476Y54978
X34168Y55962
X32672Y52419
X28932Y58836
X23420Y50923
X21531Y51238
X21570Y51631
X19602Y56001
X18539Y56749
X15940Y57143
T02
X21255Y45135
T03
X19680Y44348
X22042Y41395
X23420Y41395
X24011Y42812
X24168Y42143
X22594Y43954
X24798Y44741
X24995Y45529
X24602Y48088
X23224Y48285
X23027Y49072
X22042Y49072
X22042Y50277
X23027Y50253
X23224Y51434
X24011Y51434
X24798Y51434
X25980Y50253
X25783Y49466
X26885Y47615
X28342Y47812
X28617Y46316
X27239Y45529
X27161Y42576
X30743Y46631
X31885Y44741
X33066Y44741
X33066Y46710
X32476Y47104
X30507Y48482
X30507Y49466
X26058Y52615
X27948Y56159
X25743Y58127
X21649Y58127
X20546Y55844
X22436Y51434
X15940Y44938
X15546Y42970
X18184Y40214
X18184Y39623
X18184Y38993
X18854Y39033
X18854Y39623
X18854Y40214
X16294Y38521
X15625Y38521
X15940Y39151
X15743Y36867
X14956Y36867
X14168Y36867
X16531Y33127
X17318Y33127
X18105Y33127
X18893Y33127
X15743Y32143
X15153Y32143
X14050Y32143
X13381Y32143
X22239Y23088
X24602Y23088
X28539Y26828
X29287Y21749
X33735Y21749
X37279Y26789
X35035Y31159
X34641Y33718
X34641Y34702
X34838Y36080
X34917Y39978
X36019Y41395
X33854Y41867
X32082Y40883
X26964Y33718
X22582Y37108
X32672Y28600
X32003Y57812
X30507Y58521
X14956Y58718
X13972Y58718
X13972Y57537
X14956Y57537
T04
X20665Y29978
X20665Y29190
X21452Y29190
X22239Y29190
X22239Y29978
X21452Y29978
X23027Y29978
X23027Y29190
X23814Y29190
X24602Y29190
X24602Y29978
X23814Y29978
X25389Y29978
X26176Y29978
X26176Y29190
X25389Y29190
T05
X23684Y34899
X22684Y34899
X31228Y43757
X32228Y43757
X28224Y49434
X28224Y50434
X28224Y51434
X29405Y53100
X29405Y54100
X33417Y57962
X34417Y57962
X35417Y57962
X20684Y58728
X20074Y59495
X19464Y58728
X17928Y58728
X17318Y59495
X16708Y58728
X17318Y52647
X17318Y51647
X17318Y50647
T06
X16987Y48982
X15987Y48982
X14987Y48982
X12987Y48982
X12987Y47982
X22751Y58108
X24483Y58108
T07
X15448Y54190
X15448Y53206
X15448Y52222
X14464Y52222
X14464Y53206
X14464Y54190
T08
X25086Y38836
X26086Y38836
T09
X15743Y22891
X15743Y24663
T10
X18224Y24761
X18224Y22005
X22672Y22005
X22672Y24761
X27121Y24761
X27121Y22005
X31570Y22005
X31570Y24761
X36019Y24761
X36019Y22005
X16747Y45450
X13991Y45450
T11
X17515Y54978
X14365Y28993
X36413Y29387
X36413Y54978
M30
