G75*
%MOIN*%
%OFA0B0*%
%FSLAX24Y24*%
%IPPOS*%
%LPD*%
%AMOC8*
5,1,8,0,0,1.08239X$1,22.5*
%
%ADD10C,0.0134*%
%ADD11C,0.0364*%
%ADD12C,0.0108*%
%ADD13C,0.0084*%
%ADD14C,0.0098*%
%ADD15C,0.0079*%
%ADD16C,0.0118*%
%ADD17C,0.0069*%
%ADD18R,0.0945X0.1260*%
%ADD19C,0.0133*%
%ADD20C,0.0839*%
%ADD21R,0.0779X0.0779*%
%ADD22C,0.0779*%
%ADD23R,0.0639X0.0639*%
%ADD24C,0.0639*%
%ADD25C,0.0217*%
%ADD26C,0.0049*%
%ADD27C,0.0083*%
%ADD28C,0.0270*%
%ADD29C,0.0089*%
%ADD30C,0.0128*%
%ADD31C,0.0148*%
%ADD32C,0.0146*%
%ADD33C,0.0167*%
%ADD34R,0.0787X0.0787*%
%ADD35C,0.0157*%
%ADD36R,0.0579X0.0579*%
%ADD37C,0.0207*%
%ADD38C,0.0787*%
%ADD39R,0.0551X0.0551*%
%ADD40C,0.0551*%
%ADD41C,0.0739*%
%ADD42C,0.0709*%
%ADD43C,0.0433*%
%ADD44C,0.0472*%
%ADD45C,0.0579*%
%ADD46C,0.2619*%
D10*
X023420Y051533D03*
X023420Y051730D03*
X023420Y051926D03*
X023617Y051926D03*
X023617Y051730D03*
X023814Y051730D03*
X023814Y051926D03*
X023814Y052123D03*
X023617Y052123D03*
X023617Y051533D03*
X023814Y051533D03*
D11*
X033179Y048634D02*
X033179Y047266D01*
X032087Y047266D01*
X032087Y048634D01*
X033179Y048634D01*
X033179Y047629D02*
X032087Y047629D01*
X032087Y047992D02*
X033179Y047992D01*
X033179Y048355D02*
X032087Y048355D01*
X033179Y045760D02*
X033179Y044392D01*
X032087Y044392D01*
X032087Y045760D01*
X033179Y045760D01*
X033179Y044755D02*
X032087Y044755D01*
X032087Y045118D02*
X033179Y045118D01*
X033179Y045481D02*
X032087Y045481D01*
X036762Y044776D02*
X036762Y043408D01*
X035670Y043408D01*
X035670Y044776D01*
X036762Y044776D01*
X036762Y043771D02*
X035670Y043771D01*
X035670Y044134D02*
X036762Y044134D01*
X036762Y044497D02*
X035670Y044497D01*
X036762Y046282D02*
X036762Y047650D01*
X036762Y046282D02*
X035670Y046282D01*
X035670Y047650D01*
X036762Y047650D01*
X036762Y046645D02*
X035670Y046645D01*
X035670Y047008D02*
X036762Y047008D01*
X036762Y047371D02*
X035670Y047371D01*
X018455Y028359D02*
X018455Y026991D01*
X017363Y026991D01*
X017363Y028359D01*
X018455Y028359D01*
X018455Y027354D02*
X017363Y027354D01*
X017363Y027717D02*
X018455Y027717D01*
X018455Y028080D02*
X017363Y028080D01*
X018455Y025484D02*
X018455Y024116D01*
X017363Y024116D01*
X017363Y025484D01*
X018455Y025484D01*
X018455Y024479D02*
X017363Y024479D01*
X017363Y024842D02*
X018455Y024842D01*
X018455Y025205D02*
X017363Y025205D01*
D12*
X021102Y036105D02*
X021102Y036449D01*
X021102Y036105D02*
X020778Y036105D01*
X020778Y036449D01*
X021102Y036449D01*
X021102Y036212D02*
X020778Y036212D01*
X020778Y036319D02*
X021102Y036319D01*
X021102Y036426D02*
X020778Y036426D01*
X021732Y036449D02*
X021732Y036105D01*
X021408Y036105D01*
X021408Y036449D01*
X021732Y036449D01*
X021732Y036212D02*
X021408Y036212D01*
X021408Y036319D02*
X021732Y036319D01*
X021732Y036426D02*
X021408Y036426D01*
X021732Y037286D02*
X021732Y037630D01*
X021732Y037286D02*
X021408Y037286D01*
X021408Y037630D01*
X021732Y037630D01*
X021732Y037393D02*
X021408Y037393D01*
X021408Y037500D02*
X021732Y037500D01*
X021732Y037607D02*
X021408Y037607D01*
X021102Y037630D02*
X021102Y037286D01*
X020778Y037286D01*
X020778Y037630D01*
X021102Y037630D01*
X021102Y037393D02*
X020778Y037393D01*
X020778Y037500D02*
X021102Y037500D01*
X021102Y037607D02*
X020778Y037607D01*
X017392Y040356D02*
X017048Y040356D01*
X017392Y040356D02*
X017392Y040032D01*
X017048Y040032D01*
X017048Y040356D01*
X017048Y040139D02*
X017392Y040139D01*
X017392Y040246D02*
X017048Y040246D01*
X017048Y040353D02*
X017392Y040353D01*
X017392Y040986D02*
X017048Y040986D01*
X017392Y040986D02*
X017392Y040662D01*
X017048Y040662D01*
X017048Y040986D01*
X017048Y040769D02*
X017392Y040769D01*
X017392Y040876D02*
X017048Y040876D01*
X017048Y040983D02*
X017392Y040983D01*
X014734Y040888D02*
X014390Y040888D01*
X014734Y040888D02*
X014734Y040564D01*
X014390Y040564D01*
X014390Y040888D01*
X014390Y040671D02*
X014734Y040671D01*
X014734Y040778D02*
X014390Y040778D01*
X014390Y040885D02*
X014734Y040885D01*
X014734Y040258D02*
X014390Y040258D01*
X014734Y040258D02*
X014734Y039934D01*
X014390Y039934D01*
X014390Y040258D01*
X014390Y040041D02*
X014734Y040041D01*
X014734Y040148D02*
X014390Y040148D01*
X014390Y040255D02*
X014734Y040255D01*
X021605Y042010D02*
X021605Y042354D01*
X021929Y042354D01*
X021929Y042010D01*
X021605Y042010D01*
X021605Y042117D02*
X021929Y042117D01*
X021929Y042224D02*
X021605Y042224D01*
X021605Y042331D02*
X021929Y042331D01*
X022235Y042354D02*
X022235Y042010D01*
X022235Y042354D02*
X022559Y042354D01*
X022559Y042010D01*
X022235Y042010D01*
X022235Y042117D02*
X022559Y042117D01*
X022559Y042224D02*
X022235Y042224D01*
X022235Y042331D02*
X022559Y042331D01*
X024951Y042601D02*
X024951Y042945D01*
X025275Y042945D01*
X025275Y042601D01*
X024951Y042601D01*
X024951Y042708D02*
X025275Y042708D01*
X025275Y042815D02*
X024951Y042815D01*
X024951Y042922D02*
X025275Y042922D01*
X025581Y042945D02*
X025581Y042601D01*
X025581Y042945D02*
X025905Y042945D01*
X025905Y042601D01*
X025581Y042601D01*
X025581Y042708D02*
X025905Y042708D01*
X025905Y042815D02*
X025581Y042815D01*
X025581Y042922D02*
X025905Y042922D01*
X026496Y042945D02*
X026496Y042601D01*
X026172Y042601D01*
X026172Y042945D01*
X026496Y042945D01*
X026496Y042708D02*
X026172Y042708D01*
X026172Y042815D02*
X026496Y042815D01*
X026496Y042922D02*
X026172Y042922D01*
X027126Y042945D02*
X027126Y042601D01*
X026802Y042601D01*
X026802Y042945D01*
X027126Y042945D01*
X027126Y042708D02*
X026802Y042708D01*
X026802Y042815D02*
X027126Y042815D01*
X027126Y042922D02*
X026802Y042922D01*
X029370Y048447D02*
X029370Y048791D01*
X029370Y048447D02*
X029046Y048447D01*
X029046Y048791D01*
X029370Y048791D01*
X029370Y048554D02*
X029046Y048554D01*
X029046Y048661D02*
X029370Y048661D01*
X029370Y048768D02*
X029046Y048768D01*
X030000Y048791D02*
X030000Y048447D01*
X029676Y048447D01*
X029676Y048791D01*
X030000Y048791D01*
X030000Y048554D02*
X029676Y048554D01*
X029676Y048661D02*
X030000Y048661D01*
X030000Y048768D02*
X029676Y048768D01*
X032894Y042856D02*
X033238Y042856D01*
X033238Y042532D01*
X032894Y042532D01*
X032894Y042856D01*
X032894Y042639D02*
X033238Y042639D01*
X033238Y042746D02*
X032894Y042746D01*
X032894Y042853D02*
X033238Y042853D01*
X033238Y042226D02*
X032894Y042226D01*
X033238Y042226D02*
X033238Y041902D01*
X032894Y041902D01*
X032894Y042226D01*
X032894Y042009D02*
X033238Y042009D01*
X033238Y042116D02*
X032894Y042116D01*
X032894Y042223D02*
X033238Y042223D01*
X032451Y038989D02*
X032107Y038989D01*
X032107Y039313D01*
X032451Y039313D01*
X032451Y038989D01*
X032451Y039096D02*
X032107Y039096D01*
X032107Y039203D02*
X032451Y039203D01*
X032451Y039310D02*
X032107Y039310D01*
X032107Y038359D02*
X032451Y038359D01*
X032107Y038359D02*
X032107Y038683D01*
X032451Y038683D01*
X032451Y038359D01*
X032451Y038466D02*
X032107Y038466D01*
X032107Y038573D02*
X032451Y038573D01*
X032451Y038680D02*
X032107Y038680D01*
X036634Y032620D02*
X036978Y032620D01*
X036978Y032296D01*
X036634Y032296D01*
X036634Y032620D01*
X036634Y032403D02*
X036978Y032403D01*
X036978Y032510D02*
X036634Y032510D01*
X036634Y032617D02*
X036978Y032617D01*
X036978Y031990D02*
X036634Y031990D01*
X036978Y031990D02*
X036978Y031666D01*
X036634Y031666D01*
X036634Y031990D01*
X036634Y031773D02*
X036978Y031773D01*
X036978Y031880D02*
X036634Y031880D01*
X036634Y031987D02*
X036978Y031987D01*
X021211Y050908D02*
X021211Y051252D01*
X021535Y051252D01*
X021535Y050908D01*
X021211Y050908D01*
X021211Y051015D02*
X021535Y051015D01*
X021535Y051122D02*
X021211Y051122D01*
X021211Y051229D02*
X021535Y051229D01*
X020581Y051252D02*
X020581Y050908D01*
X020581Y051252D02*
X020905Y051252D01*
X020905Y050908D01*
X020581Y050908D01*
X020581Y051015D02*
X020905Y051015D01*
X020905Y051122D02*
X020581Y051122D01*
X020581Y051229D02*
X020905Y051229D01*
D13*
X020835Y050555D02*
X021085Y050555D01*
X021085Y050305D01*
X020835Y050305D01*
X020835Y050555D01*
X020835Y050388D02*
X021085Y050388D01*
X021085Y050471D02*
X020835Y050471D01*
X020835Y050554D02*
X021085Y050554D01*
X021085Y050201D02*
X020835Y050201D01*
X021085Y050201D02*
X021085Y049951D01*
X020835Y049951D01*
X020835Y050201D01*
X020835Y050034D02*
X021085Y050034D01*
X021085Y050117D02*
X020835Y050117D01*
X020835Y050200D02*
X021085Y050200D01*
X020297Y050201D02*
X020047Y050201D01*
X020297Y050201D02*
X020297Y049951D01*
X020047Y049951D01*
X020047Y050201D01*
X020047Y050034D02*
X020297Y050034D01*
X020297Y050117D02*
X020047Y050117D01*
X020047Y050200D02*
X020297Y050200D01*
X020297Y050555D02*
X020047Y050555D01*
X020297Y050555D02*
X020297Y050305D01*
X020047Y050305D01*
X020047Y050555D01*
X020047Y050388D02*
X020297Y050388D01*
X020297Y050471D02*
X020047Y050471D01*
X020047Y050554D02*
X020297Y050554D01*
X018748Y048213D02*
X018748Y047963D01*
X018748Y048213D02*
X018998Y048213D01*
X018998Y047963D01*
X018748Y047963D01*
X018748Y048046D02*
X018998Y048046D01*
X018998Y048129D02*
X018748Y048129D01*
X018748Y048212D02*
X018998Y048212D01*
X018394Y048213D02*
X018394Y047963D01*
X018394Y048213D02*
X018644Y048213D01*
X018644Y047963D01*
X018394Y047963D01*
X018394Y048046D02*
X018644Y048046D01*
X018644Y048129D02*
X018394Y048129D01*
X018394Y048212D02*
X018644Y048212D01*
X020284Y044020D02*
X020284Y043770D01*
X020284Y044020D02*
X020534Y044020D01*
X020534Y043770D01*
X020284Y043770D01*
X020284Y043853D02*
X020534Y043853D01*
X020534Y043936D02*
X020284Y043936D01*
X020284Y044019D02*
X020534Y044019D01*
X020638Y044020D02*
X020638Y043770D01*
X020638Y044020D02*
X020888Y044020D01*
X020888Y043770D01*
X020638Y043770D01*
X020638Y043853D02*
X020888Y043853D01*
X020888Y043936D02*
X020638Y043936D01*
X020638Y044019D02*
X020888Y044019D01*
X020638Y043429D02*
X020638Y043179D01*
X020638Y043429D02*
X020888Y043429D01*
X020888Y043179D01*
X020638Y043179D01*
X020638Y043262D02*
X020888Y043262D01*
X020888Y043345D02*
X020638Y043345D01*
X020638Y043428D02*
X020888Y043428D01*
X020284Y043429D02*
X020284Y043179D01*
X020284Y043429D02*
X020534Y043429D01*
X020534Y043179D01*
X020284Y043179D01*
X020284Y043262D02*
X020534Y043262D01*
X020534Y043345D02*
X020284Y043345D01*
X020284Y043428D02*
X020534Y043428D01*
X020534Y041914D02*
X020534Y041664D01*
X020284Y041664D01*
X020284Y041914D01*
X020534Y041914D01*
X020534Y041747D02*
X020284Y041747D01*
X020284Y041830D02*
X020534Y041830D01*
X020534Y041913D02*
X020284Y041913D01*
X020888Y041914D02*
X020888Y041664D01*
X020638Y041664D01*
X020638Y041914D01*
X020888Y041914D01*
X020888Y041747D02*
X020638Y041747D01*
X020638Y041830D02*
X020888Y041830D01*
X020888Y041913D02*
X020638Y041913D01*
X022469Y041447D02*
X022719Y041447D01*
X022469Y041447D02*
X022469Y041697D01*
X022719Y041697D01*
X022719Y041447D01*
X022719Y041530D02*
X022469Y041530D01*
X022469Y041613D02*
X022719Y041613D01*
X022719Y041696D02*
X022469Y041696D01*
X022469Y041093D02*
X022719Y041093D01*
X022469Y041093D02*
X022469Y041343D01*
X022719Y041343D01*
X022719Y041093D01*
X022719Y041176D02*
X022469Y041176D01*
X022469Y041259D02*
X022719Y041259D01*
X022719Y041342D02*
X022469Y041342D01*
X025264Y041500D02*
X025514Y041500D01*
X025514Y041250D01*
X025264Y041250D01*
X025264Y041500D01*
X025264Y041333D02*
X025514Y041333D01*
X025514Y041416D02*
X025264Y041416D01*
X025264Y041499D02*
X025514Y041499D01*
X025514Y041146D02*
X025264Y041146D01*
X025514Y041146D02*
X025514Y040896D01*
X025264Y040896D01*
X025264Y041146D01*
X025264Y040979D02*
X025514Y040979D01*
X025514Y041062D02*
X025264Y041062D01*
X025264Y041145D02*
X025514Y041145D01*
X025441Y043238D02*
X025441Y043488D01*
X025691Y043488D01*
X025691Y043238D01*
X025441Y043238D01*
X025441Y043321D02*
X025691Y043321D01*
X025691Y043404D02*
X025441Y043404D01*
X025441Y043487D02*
X025691Y043487D01*
X025087Y043488D02*
X025087Y043238D01*
X025087Y043488D02*
X025337Y043488D01*
X025337Y043238D01*
X025087Y043238D01*
X025087Y043321D02*
X025337Y043321D01*
X025337Y043404D02*
X025087Y043404D01*
X025087Y043487D02*
X025337Y043487D01*
X026321Y043488D02*
X026321Y043238D01*
X026071Y043238D01*
X026071Y043488D01*
X026321Y043488D01*
X026321Y043321D02*
X026071Y043321D01*
X026071Y043404D02*
X026321Y043404D01*
X026321Y043487D02*
X026071Y043487D01*
X026675Y043488D02*
X026675Y043238D01*
X026425Y043238D01*
X026425Y043488D01*
X026675Y043488D01*
X026675Y043321D02*
X026425Y043321D01*
X026425Y043404D02*
X026675Y043404D01*
X026675Y043487D02*
X026425Y043487D01*
X027252Y043731D02*
X027252Y043981D01*
X027502Y043981D01*
X027502Y043731D01*
X027252Y043731D01*
X027252Y043814D02*
X027502Y043814D01*
X027502Y043897D02*
X027252Y043897D01*
X027252Y043980D02*
X027502Y043980D01*
X027606Y043981D02*
X027606Y043731D01*
X027606Y043981D02*
X027856Y043981D01*
X027856Y043731D01*
X027606Y043731D01*
X027606Y043814D02*
X027856Y043814D01*
X027856Y043897D02*
X027606Y043897D01*
X027606Y043980D02*
X027856Y043980D01*
X027606Y044321D02*
X027606Y044571D01*
X027856Y044571D01*
X027856Y044321D01*
X027606Y044321D01*
X027606Y044404D02*
X027856Y044404D01*
X027856Y044487D02*
X027606Y044487D01*
X027606Y044570D02*
X027856Y044570D01*
X027252Y044571D02*
X027252Y044321D01*
X027252Y044571D02*
X027502Y044571D01*
X027502Y044321D01*
X027252Y044321D01*
X027252Y044404D02*
X027502Y044404D01*
X027502Y044487D02*
X027252Y044487D01*
X027252Y044570D02*
X027502Y044570D01*
X027856Y043095D02*
X027856Y042845D01*
X027606Y042845D01*
X027606Y043095D01*
X027856Y043095D01*
X027856Y042928D02*
X027606Y042928D01*
X027606Y043011D02*
X027856Y043011D01*
X027856Y043094D02*
X027606Y043094D01*
X028211Y043095D02*
X028211Y042845D01*
X027961Y042845D01*
X027961Y043095D01*
X028211Y043095D01*
X028211Y042928D02*
X027961Y042928D01*
X027961Y043011D02*
X028211Y043011D01*
X028211Y043094D02*
X027961Y043094D01*
X028211Y042229D02*
X028211Y041979D01*
X027961Y041979D01*
X027961Y042229D01*
X028211Y042229D01*
X028211Y042062D02*
X027961Y042062D01*
X027961Y042145D02*
X028211Y042145D01*
X028211Y042228D02*
X027961Y042228D01*
X027856Y042229D02*
X027856Y041979D01*
X027606Y041979D01*
X027606Y042229D01*
X027856Y042229D01*
X027856Y042062D02*
X027606Y042062D01*
X027606Y042145D02*
X027856Y042145D01*
X027856Y042228D02*
X027606Y042228D01*
X030973Y038888D02*
X031223Y038888D01*
X030973Y038888D02*
X030973Y039138D01*
X031223Y039138D01*
X031223Y038888D01*
X031223Y038971D02*
X030973Y038971D01*
X030973Y039054D02*
X031223Y039054D01*
X031223Y039137D02*
X030973Y039137D01*
X030973Y038534D02*
X031223Y038534D01*
X030973Y038534D02*
X030973Y038784D01*
X031223Y038784D01*
X031223Y038534D01*
X031223Y038617D02*
X030973Y038617D01*
X030973Y038700D02*
X031223Y038700D01*
X031223Y038783D02*
X030973Y038783D01*
X033335Y038927D02*
X033585Y038927D01*
X033335Y038927D02*
X033335Y039177D01*
X033585Y039177D01*
X033585Y038927D01*
X033585Y039010D02*
X033335Y039010D01*
X033335Y039093D02*
X033585Y039093D01*
X033585Y039176D02*
X033335Y039176D01*
X033335Y039282D02*
X033585Y039282D01*
X033335Y039282D02*
X033335Y039532D01*
X033585Y039532D01*
X033585Y039282D01*
X033585Y039365D02*
X033335Y039365D01*
X033335Y039448D02*
X033585Y039448D01*
X033585Y039531D02*
X033335Y039531D01*
X033925Y042327D02*
X034175Y042327D01*
X034175Y042077D01*
X033925Y042077D01*
X033925Y042327D01*
X033925Y042160D02*
X034175Y042160D01*
X034175Y042243D02*
X033925Y042243D01*
X033925Y042326D02*
X034175Y042326D01*
X034175Y042681D02*
X033925Y042681D01*
X034175Y042681D02*
X034175Y042431D01*
X033925Y042431D01*
X033925Y042681D01*
X033925Y042514D02*
X034175Y042514D01*
X034175Y042597D02*
X033925Y042597D01*
X033925Y042680D02*
X034175Y042680D01*
X035303Y037760D02*
X035553Y037760D01*
X035553Y037510D01*
X035303Y037510D01*
X035303Y037760D01*
X035303Y037593D02*
X035553Y037593D01*
X035553Y037676D02*
X035303Y037676D01*
X035303Y037759D02*
X035553Y037759D01*
X035553Y037406D02*
X035303Y037406D01*
X035553Y037406D02*
X035553Y037156D01*
X035303Y037156D01*
X035303Y037406D01*
X035303Y037239D02*
X035553Y037239D01*
X035553Y037322D02*
X035303Y037322D01*
X035303Y037405D02*
X035553Y037405D01*
X037272Y037563D02*
X037522Y037563D01*
X037522Y037313D01*
X037272Y037313D01*
X037272Y037563D01*
X037272Y037396D02*
X037522Y037396D01*
X037522Y037479D02*
X037272Y037479D01*
X037272Y037562D02*
X037522Y037562D01*
X037522Y037209D02*
X037272Y037209D01*
X037522Y037209D02*
X037522Y036959D01*
X037272Y036959D01*
X037272Y037209D01*
X037272Y037042D02*
X037522Y037042D01*
X037522Y037125D02*
X037272Y037125D01*
X037272Y037208D02*
X037522Y037208D01*
X037522Y035738D02*
X037272Y035738D01*
X037272Y035988D01*
X037522Y035988D01*
X037522Y035738D01*
X037522Y035821D02*
X037272Y035821D01*
X037272Y035904D02*
X037522Y035904D01*
X037522Y035987D02*
X037272Y035987D01*
X037272Y035384D02*
X037522Y035384D01*
X037272Y035384D02*
X037272Y035634D01*
X037522Y035634D01*
X037522Y035384D01*
X037522Y035467D02*
X037272Y035467D01*
X037272Y035550D02*
X037522Y035550D01*
X037522Y035633D02*
X037272Y035633D01*
X035750Y032445D02*
X035500Y032445D01*
X035750Y032445D02*
X035750Y032195D01*
X035500Y032195D01*
X035500Y032445D01*
X035500Y032278D02*
X035750Y032278D01*
X035750Y032361D02*
X035500Y032361D01*
X035500Y032444D02*
X035750Y032444D01*
X035750Y032091D02*
X035500Y032091D01*
X035750Y032091D02*
X035750Y031841D01*
X035500Y031841D01*
X035500Y032091D01*
X035500Y031924D02*
X035750Y031924D01*
X035750Y032007D02*
X035500Y032007D01*
X035500Y032090D02*
X035750Y032090D01*
X034175Y033863D02*
X033925Y033863D01*
X034175Y033863D02*
X034175Y033613D01*
X033925Y033613D01*
X033925Y033863D01*
X033925Y033696D02*
X034175Y033696D01*
X034175Y033779D02*
X033925Y033779D01*
X033925Y033862D02*
X034175Y033862D01*
X034175Y034217D02*
X033925Y034217D01*
X034175Y034217D02*
X034175Y033967D01*
X033925Y033967D01*
X033925Y034217D01*
X033925Y034050D02*
X034175Y034050D01*
X034175Y034133D02*
X033925Y034133D01*
X033925Y034216D02*
X034175Y034216D01*
X033585Y035384D02*
X033335Y035384D01*
X033335Y035634D01*
X033585Y035634D01*
X033585Y035384D01*
X033585Y035467D02*
X033335Y035467D01*
X033335Y035550D02*
X033585Y035550D01*
X033585Y035633D02*
X033335Y035633D01*
X033335Y035738D02*
X033585Y035738D01*
X033335Y035738D02*
X033335Y035988D01*
X033585Y035988D01*
X033585Y035738D01*
X033585Y035821D02*
X033335Y035821D01*
X033335Y035904D02*
X033585Y035904D01*
X033585Y035987D02*
X033335Y035987D01*
X033729Y029242D02*
X033979Y029242D01*
X033729Y029242D02*
X033729Y029492D01*
X033979Y029492D01*
X033979Y029242D01*
X033979Y029325D02*
X033729Y029325D01*
X033729Y029408D02*
X033979Y029408D01*
X033979Y029491D02*
X033729Y029491D01*
X033729Y028888D02*
X033979Y028888D01*
X033729Y028888D02*
X033729Y029138D01*
X033979Y029138D01*
X033979Y028888D01*
X033979Y028971D02*
X033729Y028971D01*
X033729Y029054D02*
X033979Y029054D01*
X033979Y029137D02*
X033729Y029137D01*
X033388Y026683D02*
X033138Y026683D01*
X033138Y026933D01*
X033388Y026933D01*
X033388Y026683D01*
X033388Y026766D02*
X033138Y026766D01*
X033138Y026849D02*
X033388Y026849D01*
X033388Y026932D02*
X033138Y026932D01*
X033138Y026329D02*
X033388Y026329D01*
X033138Y026329D02*
X033138Y026579D01*
X033388Y026579D01*
X033388Y026329D01*
X033388Y026412D02*
X033138Y026412D01*
X033138Y026495D02*
X033388Y026495D01*
X033388Y026578D02*
X033138Y026578D01*
X030042Y027904D02*
X029792Y027904D01*
X029792Y028154D01*
X030042Y028154D01*
X030042Y027904D01*
X030042Y027987D02*
X029792Y027987D01*
X029792Y028070D02*
X030042Y028070D01*
X030042Y028153D02*
X029792Y028153D01*
X029792Y028258D02*
X030042Y028258D01*
X029792Y028258D02*
X029792Y028508D01*
X030042Y028508D01*
X030042Y028258D01*
X030042Y028341D02*
X029792Y028341D01*
X029792Y028424D02*
X030042Y028424D01*
X030042Y028507D02*
X029792Y028507D01*
X024727Y031644D02*
X024477Y031644D01*
X024477Y031894D01*
X024727Y031894D01*
X024727Y031644D01*
X024727Y031727D02*
X024477Y031727D01*
X024477Y031810D02*
X024727Y031810D01*
X024727Y031893D02*
X024477Y031893D01*
X024477Y031998D02*
X024727Y031998D01*
X024477Y031998D02*
X024477Y032248D01*
X024727Y032248D01*
X024727Y031998D01*
X024727Y032081D02*
X024477Y032081D01*
X024477Y032164D02*
X024727Y032164D01*
X024727Y032247D02*
X024477Y032247D01*
X021307Y034971D02*
X021307Y035221D01*
X021557Y035221D01*
X021557Y034971D01*
X021307Y034971D01*
X021307Y035054D02*
X021557Y035054D01*
X021557Y035137D02*
X021307Y035137D01*
X021307Y035220D02*
X021557Y035220D01*
X020953Y035221D02*
X020953Y034971D01*
X020953Y035221D02*
X021203Y035221D01*
X021203Y034971D01*
X020953Y034971D01*
X020953Y035054D02*
X021203Y035054D01*
X021203Y035137D02*
X020953Y035137D01*
X020953Y035220D02*
X021203Y035220D01*
X018132Y040457D02*
X017882Y040457D01*
X018132Y040457D02*
X018132Y040207D01*
X017882Y040207D01*
X017882Y040457D01*
X017882Y040290D02*
X018132Y040290D01*
X018132Y040373D02*
X017882Y040373D01*
X017882Y040456D02*
X018132Y040456D01*
X018132Y040811D02*
X017882Y040811D01*
X018132Y040811D02*
X018132Y040561D01*
X017882Y040561D01*
X017882Y040811D01*
X017882Y040644D02*
X018132Y040644D01*
X018132Y040727D02*
X017882Y040727D01*
X017882Y040810D02*
X018132Y040810D01*
X016656Y040910D02*
X016406Y040910D01*
X016656Y040910D02*
X016656Y040660D01*
X016406Y040660D01*
X016406Y040910D01*
X016406Y040743D02*
X016656Y040743D01*
X016656Y040826D02*
X016406Y040826D01*
X016406Y040909D02*
X016656Y040909D01*
X016656Y040555D02*
X016406Y040555D01*
X016656Y040555D02*
X016656Y040305D01*
X016406Y040305D01*
X016406Y040555D01*
X016406Y040388D02*
X016656Y040388D01*
X016656Y040471D02*
X016406Y040471D01*
X016406Y040554D02*
X016656Y040554D01*
X015671Y040713D02*
X015421Y040713D01*
X015671Y040713D02*
X015671Y040463D01*
X015421Y040463D01*
X015421Y040713D01*
X015421Y040546D02*
X015671Y040546D01*
X015671Y040629D02*
X015421Y040629D01*
X015421Y040712D02*
X015671Y040712D01*
X015671Y040359D02*
X015421Y040359D01*
X015671Y040359D02*
X015671Y040109D01*
X015421Y040109D01*
X015421Y040359D01*
X015421Y040192D02*
X015671Y040192D01*
X015671Y040275D02*
X015421Y040275D01*
X015421Y040358D02*
X015671Y040358D01*
X014392Y039000D02*
X014392Y038750D01*
X014142Y038750D01*
X014142Y039000D01*
X014392Y039000D01*
X014392Y038833D02*
X014142Y038833D01*
X014142Y038916D02*
X014392Y038916D01*
X014392Y038999D02*
X014142Y038999D01*
X014038Y039000D02*
X014038Y038750D01*
X013788Y038750D01*
X013788Y039000D01*
X014038Y039000D01*
X014038Y038833D02*
X013788Y038833D01*
X013788Y038916D02*
X014038Y038916D01*
X014038Y038999D02*
X013788Y038999D01*
X013965Y038351D02*
X013965Y038101D01*
X013965Y038351D02*
X014215Y038351D01*
X014215Y038101D01*
X013965Y038101D01*
X013965Y038184D02*
X014215Y038184D01*
X014215Y038267D02*
X013965Y038267D01*
X013965Y038350D02*
X014215Y038350D01*
X014319Y038351D02*
X014319Y038101D01*
X014319Y038351D02*
X014569Y038351D01*
X014569Y038101D01*
X014319Y038101D01*
X014319Y038184D02*
X014569Y038184D01*
X014569Y038267D02*
X014319Y038267D01*
X014319Y038350D02*
X014569Y038350D01*
X015835Y037386D02*
X015835Y037136D01*
X015835Y037386D02*
X016085Y037386D01*
X016085Y037136D01*
X015835Y037136D01*
X015835Y037219D02*
X016085Y037219D01*
X016085Y037302D02*
X015835Y037302D01*
X015835Y037385D02*
X016085Y037385D01*
X016189Y037386D02*
X016189Y037136D01*
X016189Y037386D02*
X016439Y037386D01*
X016439Y037136D01*
X016189Y037136D01*
X016189Y037219D02*
X016439Y037219D01*
X016439Y037302D02*
X016189Y037302D01*
X016189Y037385D02*
X016439Y037385D01*
X016636Y024197D02*
X016636Y023947D01*
X016386Y023947D01*
X016386Y024197D01*
X016636Y024197D01*
X016636Y024030D02*
X016386Y024030D01*
X016386Y024113D02*
X016636Y024113D01*
X016636Y024196D02*
X016386Y024196D01*
X016282Y024197D02*
X016282Y023947D01*
X016032Y023947D01*
X016032Y024197D01*
X016282Y024197D01*
X016282Y024030D02*
X016032Y024030D01*
X016032Y024113D02*
X016282Y024113D01*
X016282Y024196D02*
X016032Y024196D01*
X032744Y049361D02*
X032994Y049361D01*
X032744Y049361D02*
X032744Y049611D01*
X032994Y049611D01*
X032994Y049361D01*
X032994Y049444D02*
X032744Y049444D01*
X032744Y049527D02*
X032994Y049527D01*
X032994Y049610D02*
X032744Y049610D01*
X032744Y049715D02*
X032994Y049715D01*
X032744Y049715D02*
X032744Y049965D01*
X032994Y049965D01*
X032994Y049715D01*
X032994Y049798D02*
X032744Y049798D01*
X032744Y049881D02*
X032994Y049881D01*
X032994Y049964D02*
X032744Y049964D01*
X034417Y051973D02*
X034667Y051973D01*
X034667Y051723D01*
X034417Y051723D01*
X034417Y051973D01*
X034417Y051806D02*
X034667Y051806D01*
X034667Y051889D02*
X034417Y051889D01*
X034417Y051972D02*
X034667Y051972D01*
X034667Y052327D02*
X034417Y052327D01*
X034667Y052327D02*
X034667Y052077D01*
X034417Y052077D01*
X034417Y052327D01*
X034417Y052160D02*
X034667Y052160D01*
X034667Y052243D02*
X034417Y052243D01*
X034417Y052326D02*
X034667Y052326D01*
X036386Y049518D02*
X036636Y049518D01*
X036386Y049518D02*
X036386Y049768D01*
X036636Y049768D01*
X036636Y049518D01*
X036636Y049601D02*
X036386Y049601D01*
X036386Y049684D02*
X036636Y049684D01*
X036636Y049767D02*
X036386Y049767D01*
X036386Y049164D02*
X036636Y049164D01*
X036386Y049164D02*
X036386Y049414D01*
X036636Y049414D01*
X036636Y049164D01*
X036636Y049247D02*
X036386Y049247D01*
X036386Y049330D02*
X036636Y049330D01*
X036636Y049413D02*
X036386Y049413D01*
X032108Y054872D02*
X031858Y054872D01*
X031858Y055122D01*
X032108Y055122D01*
X032108Y054872D01*
X032108Y054955D02*
X031858Y054955D01*
X031858Y055038D02*
X032108Y055038D01*
X032108Y055121D02*
X031858Y055121D01*
X031858Y055227D02*
X032108Y055227D01*
X031858Y055227D02*
X031858Y055477D01*
X032108Y055477D01*
X032108Y055227D01*
X032108Y055310D02*
X031858Y055310D01*
X031858Y055393D02*
X032108Y055393D01*
X032108Y055476D02*
X031858Y055476D01*
X027660Y050575D02*
X027660Y050325D01*
X027410Y050325D01*
X027410Y050575D01*
X027660Y050575D01*
X027660Y050408D02*
X027410Y050408D01*
X027410Y050491D02*
X027660Y050491D01*
X027660Y050574D02*
X027410Y050574D01*
X027305Y050575D02*
X027305Y050325D01*
X027055Y050325D01*
X027055Y050575D01*
X027305Y050575D01*
X027305Y050408D02*
X027055Y050408D01*
X027055Y050491D02*
X027305Y050491D01*
X027305Y050574D02*
X027055Y050574D01*
X027305Y049985D02*
X027305Y049735D01*
X027055Y049735D01*
X027055Y049985D01*
X027305Y049985D01*
X027305Y049818D02*
X027055Y049818D01*
X027055Y049901D02*
X027305Y049901D01*
X027305Y049984D02*
X027055Y049984D01*
X027660Y049985D02*
X027660Y049735D01*
X027410Y049735D01*
X027410Y049985D01*
X027660Y049985D01*
X027660Y049818D02*
X027410Y049818D01*
X027410Y049901D02*
X027660Y049901D01*
X027660Y049984D02*
X027410Y049984D01*
D14*
X025408Y051562D02*
X025054Y051562D01*
X025054Y051858D01*
X025408Y051858D01*
X025408Y051562D01*
X025408Y051659D02*
X025054Y051659D01*
X025054Y051756D02*
X025408Y051756D01*
X025408Y051853D02*
X025054Y051853D01*
X025054Y052192D02*
X025408Y052192D01*
X025054Y052192D02*
X025054Y052488D01*
X025408Y052488D01*
X025408Y052192D01*
X025408Y052289D02*
X025054Y052289D01*
X025054Y052386D02*
X025408Y052386D01*
X025408Y052483D02*
X025054Y052483D01*
X021225Y052044D02*
X021225Y051690D01*
X021225Y052044D02*
X021521Y052044D01*
X021521Y051690D01*
X021225Y051690D01*
X021225Y051787D02*
X021521Y051787D01*
X021521Y051884D02*
X021225Y051884D01*
X021225Y051981D02*
X021521Y051981D01*
X020595Y052044D02*
X020595Y051690D01*
X020595Y052044D02*
X020891Y052044D01*
X020891Y051690D01*
X020595Y051690D01*
X020595Y051787D02*
X020891Y051787D01*
X020891Y051884D02*
X020595Y051884D01*
X020595Y051981D02*
X020891Y051981D01*
X019267Y053236D02*
X018913Y053236D01*
X019267Y053236D02*
X019267Y052940D01*
X018913Y052940D01*
X018913Y053236D01*
X018913Y053037D02*
X019267Y053037D01*
X019267Y053134D02*
X018913Y053134D01*
X018913Y053231D02*
X019267Y053231D01*
X019267Y053866D02*
X018913Y053866D01*
X019267Y053866D02*
X019267Y053570D01*
X018913Y053570D01*
X018913Y053866D01*
X018913Y053667D02*
X019267Y053667D01*
X019267Y053764D02*
X018913Y053764D01*
X018913Y053861D02*
X019267Y053861D01*
X018863Y049446D02*
X018863Y049092D01*
X018863Y049446D02*
X019159Y049446D01*
X019159Y049092D01*
X018863Y049092D01*
X018863Y049189D02*
X019159Y049189D01*
X019159Y049286D02*
X018863Y049286D01*
X018863Y049383D02*
X019159Y049383D01*
X018233Y049446D02*
X018233Y049092D01*
X018233Y049446D02*
X018529Y049446D01*
X018529Y049092D01*
X018233Y049092D01*
X018233Y049189D02*
X018529Y049189D01*
X018529Y049286D02*
X018233Y049286D01*
X018233Y049383D02*
X018529Y049383D01*
X019572Y042546D02*
X019946Y042546D01*
X019572Y042546D02*
X019572Y042842D01*
X019946Y042842D01*
X019946Y042546D01*
X019946Y042643D02*
X019572Y042643D01*
X019572Y042740D02*
X019946Y042740D01*
X019946Y042837D02*
X019572Y042837D01*
X019572Y041365D02*
X019946Y041365D01*
X019572Y041365D02*
X019572Y041661D01*
X019946Y041661D01*
X019946Y041365D01*
X019946Y041462D02*
X019572Y041462D01*
X019572Y041559D02*
X019946Y041559D01*
X019946Y041656D02*
X019572Y041656D01*
X019553Y040548D02*
X019553Y040194D01*
X019257Y040194D01*
X019257Y040548D01*
X019553Y040548D01*
X019553Y040291D02*
X019257Y040291D01*
X019257Y040388D02*
X019553Y040388D01*
X019553Y040485D02*
X019257Y040485D01*
X018923Y040548D02*
X018923Y040194D01*
X018627Y040194D01*
X018627Y040548D01*
X018923Y040548D01*
X018923Y040291D02*
X018627Y040291D01*
X018627Y040388D02*
X018923Y040388D01*
X018923Y040485D02*
X018627Y040485D01*
X017111Y041365D02*
X016737Y041365D01*
X016737Y041661D01*
X017111Y041661D01*
X017111Y041365D01*
X017111Y041462D02*
X016737Y041462D01*
X016737Y041559D02*
X017111Y041559D01*
X017111Y041656D02*
X016737Y041656D01*
X016737Y042546D02*
X017111Y042546D01*
X016737Y042546D02*
X016737Y042842D01*
X017111Y042842D01*
X017111Y042546D01*
X017111Y042643D02*
X016737Y042643D01*
X016737Y042740D02*
X017111Y042740D01*
X017111Y042837D02*
X016737Y042837D01*
X021876Y042793D02*
X021876Y043147D01*
X021876Y042793D02*
X021580Y042793D01*
X021580Y043147D01*
X021876Y043147D01*
X021876Y042890D02*
X021580Y042890D01*
X021580Y042987D02*
X021876Y042987D01*
X021876Y043084D02*
X021580Y043084D01*
X022505Y043147D02*
X022505Y042793D01*
X022209Y042793D01*
X022209Y043147D01*
X022505Y043147D01*
X022505Y042890D02*
X022209Y042890D01*
X022209Y042987D02*
X022505Y042987D01*
X022505Y043084D02*
X022209Y043084D01*
X022347Y040067D02*
X022643Y040067D01*
X022643Y039771D01*
X022347Y039771D01*
X022347Y040067D01*
X022347Y039868D02*
X022643Y039868D01*
X022643Y039965D02*
X022347Y039965D01*
X022347Y040062D02*
X022643Y040062D01*
X022053Y040067D02*
X021757Y040067D01*
X022053Y040067D02*
X022053Y039771D01*
X021757Y039771D01*
X021757Y040067D01*
X021757Y039868D02*
X022053Y039868D01*
X022053Y039965D02*
X021757Y039965D01*
X021757Y040062D02*
X022053Y040062D01*
X025852Y041966D02*
X025852Y042320D01*
X025852Y041966D02*
X025556Y041966D01*
X025556Y042320D01*
X025852Y042320D01*
X025852Y042063D02*
X025556Y042063D01*
X025556Y042160D02*
X025852Y042160D01*
X025852Y042257D02*
X025556Y042257D01*
X026482Y042320D02*
X026482Y041966D01*
X026186Y041966D01*
X026186Y042320D01*
X026482Y042320D01*
X026482Y042063D02*
X026186Y042063D01*
X026186Y042160D02*
X026482Y042160D01*
X026482Y042257D02*
X026186Y042257D01*
X027564Y039475D02*
X028490Y039475D01*
X027564Y039475D02*
X027564Y039771D01*
X028490Y039771D01*
X028490Y039475D01*
X028490Y039572D02*
X027564Y039572D01*
X027564Y039669D02*
X028490Y039669D01*
X028490Y039766D02*
X027564Y039766D01*
X028755Y037882D02*
X029109Y037882D01*
X029109Y037586D01*
X028755Y037586D01*
X028755Y037882D01*
X028755Y037683D02*
X029109Y037683D01*
X029109Y037780D02*
X028755Y037780D01*
X028755Y037877D02*
X029109Y037877D01*
X029109Y037252D02*
X028755Y037252D01*
X029109Y037252D02*
X029109Y036956D01*
X028755Y036956D01*
X028755Y037252D01*
X028755Y037053D02*
X029109Y037053D01*
X029109Y037150D02*
X028755Y037150D01*
X028755Y037247D02*
X029109Y037247D01*
X029936Y037252D02*
X030290Y037252D01*
X030290Y036956D01*
X029936Y036956D01*
X029936Y037252D01*
X029936Y037053D02*
X030290Y037053D01*
X030290Y037150D02*
X029936Y037150D01*
X029936Y037247D02*
X030290Y037247D01*
X030290Y037882D02*
X029936Y037882D01*
X030290Y037882D02*
X030290Y037586D01*
X029936Y037586D01*
X029936Y037882D01*
X029936Y037683D02*
X030290Y037683D01*
X030290Y037780D02*
X029936Y037780D01*
X029936Y037877D02*
X030290Y037877D01*
X030301Y039475D02*
X029375Y039475D01*
X029375Y039771D01*
X030301Y039771D01*
X030301Y039475D01*
X030301Y039572D02*
X029375Y039572D01*
X029375Y039669D02*
X030301Y039669D01*
X030301Y039766D02*
X029375Y039766D01*
X029356Y044958D02*
X029356Y045312D01*
X029356Y044958D02*
X029060Y044958D01*
X029060Y045312D01*
X029356Y045312D01*
X029356Y045055D02*
X029060Y045055D01*
X029060Y045152D02*
X029356Y045152D01*
X029356Y045249D02*
X029060Y045249D01*
X029986Y045312D02*
X029986Y044958D01*
X029690Y044958D01*
X029690Y045312D01*
X029986Y045312D01*
X029986Y045055D02*
X029690Y045055D01*
X029690Y045152D02*
X029986Y045152D01*
X029986Y045249D02*
X029690Y045249D01*
X029986Y045942D02*
X029986Y046296D01*
X029986Y045942D02*
X029690Y045942D01*
X029690Y046296D01*
X029986Y046296D01*
X029986Y046039D02*
X029690Y046039D01*
X029690Y046136D02*
X029986Y046136D01*
X029986Y046233D02*
X029690Y046233D01*
X029356Y046296D02*
X029356Y045942D01*
X029060Y045942D01*
X029060Y046296D01*
X029356Y046296D01*
X029356Y046039D02*
X029060Y046039D01*
X029060Y046136D02*
X029356Y046136D01*
X029356Y046233D02*
X029060Y046233D01*
X033873Y049003D02*
X034227Y049003D01*
X033873Y049003D02*
X033873Y049299D01*
X034227Y049299D01*
X034227Y049003D01*
X034227Y049100D02*
X033873Y049100D01*
X033873Y049197D02*
X034227Y049197D01*
X034227Y049294D02*
X033873Y049294D01*
X033873Y049633D02*
X034227Y049633D01*
X033873Y049633D02*
X033873Y049929D01*
X034227Y049929D01*
X034227Y049633D01*
X034227Y049730D02*
X033873Y049730D01*
X033873Y049827D02*
X034227Y049827D01*
X034227Y049924D02*
X033873Y049924D01*
X035153Y049633D02*
X035507Y049633D01*
X035153Y049633D02*
X035153Y049929D01*
X035507Y049929D01*
X035507Y049633D01*
X035507Y049730D02*
X035153Y049730D01*
X035153Y049827D02*
X035507Y049827D01*
X035507Y049924D02*
X035153Y049924D01*
X035153Y049003D02*
X035507Y049003D01*
X035153Y049003D02*
X035153Y049299D01*
X035507Y049299D01*
X035507Y049003D01*
X035507Y049100D02*
X035153Y049100D01*
X035153Y049197D02*
X035507Y049197D01*
X035507Y049294D02*
X035153Y049294D01*
X036364Y041189D02*
X036364Y040263D01*
X036068Y040263D01*
X036068Y041189D01*
X036364Y041189D01*
X036364Y040360D02*
X036068Y040360D01*
X036068Y040457D02*
X036364Y040457D01*
X036364Y040554D02*
X036068Y040554D01*
X036068Y040651D02*
X036364Y040651D01*
X036364Y040748D02*
X036068Y040748D01*
X036068Y040845D02*
X036364Y040845D01*
X036364Y040942D02*
X036068Y040942D01*
X036068Y041039D02*
X036364Y041039D01*
X036364Y041136D02*
X036068Y041136D01*
X036364Y039378D02*
X036364Y038452D01*
X036068Y038452D01*
X036068Y039378D01*
X036364Y039378D01*
X036364Y038549D02*
X036068Y038549D01*
X036068Y038646D02*
X036364Y038646D01*
X036364Y038743D02*
X036068Y038743D01*
X036068Y038840D02*
X036364Y038840D01*
X036364Y038937D02*
X036068Y038937D01*
X036068Y039034D02*
X036364Y039034D01*
X036364Y039131D02*
X036068Y039131D01*
X036068Y039228D02*
X036364Y039228D01*
X036364Y039325D02*
X036068Y039325D01*
X020734Y032911D02*
X020734Y032557D01*
X020438Y032557D01*
X020438Y032911D01*
X020734Y032911D01*
X020734Y032654D02*
X020438Y032654D01*
X020438Y032751D02*
X020734Y032751D01*
X020734Y032848D02*
X020438Y032848D01*
X020104Y032911D02*
X020104Y032557D01*
X019808Y032557D01*
X019808Y032911D01*
X020104Y032911D01*
X020104Y032654D02*
X019808Y032654D01*
X019808Y032751D02*
X020104Y032751D01*
X020104Y032848D02*
X019808Y032848D01*
X020182Y033708D02*
X020182Y034122D01*
X020478Y034122D01*
X020478Y033708D01*
X020182Y033708D01*
X020182Y033805D02*
X020478Y033805D01*
X020478Y033902D02*
X020182Y033902D01*
X020182Y033999D02*
X020478Y033999D01*
X020478Y034096D02*
X020182Y034096D01*
X017957Y032783D02*
X017957Y032487D01*
X017957Y032783D02*
X018253Y032783D01*
X018253Y032487D01*
X017957Y032487D01*
X017957Y032584D02*
X018253Y032584D01*
X018253Y032681D02*
X017957Y032681D01*
X017957Y032778D02*
X018253Y032778D01*
X017957Y032193D02*
X017957Y031897D01*
X017957Y032193D02*
X018253Y032193D01*
X018253Y031897D01*
X017957Y031897D01*
X017957Y031994D02*
X018253Y031994D01*
X018253Y032091D02*
X017957Y032091D01*
X017957Y032188D02*
X018253Y032188D01*
D15*
X018233Y031474D02*
X017977Y031474D01*
X018233Y031474D02*
X018233Y031238D01*
X017977Y031238D01*
X017977Y031474D01*
X017977Y031316D02*
X018233Y031316D01*
X018233Y031394D02*
X017977Y031394D01*
X017977Y031472D02*
X018233Y031472D01*
X018233Y031080D02*
X017977Y031080D01*
X018233Y031080D02*
X018233Y030844D01*
X017977Y030844D01*
X017977Y031080D01*
X017977Y030922D02*
X018233Y030922D01*
X018233Y031000D02*
X017977Y031000D01*
X017977Y031078D02*
X018233Y031078D01*
X021373Y031031D02*
X021373Y031287D01*
X021373Y031031D02*
X021137Y031031D01*
X021137Y031287D01*
X021373Y031287D01*
X021373Y031109D02*
X021137Y031109D01*
X021137Y031187D02*
X021373Y031187D01*
X021373Y031265D02*
X021137Y031265D01*
X021767Y031287D02*
X021767Y031031D01*
X021531Y031031D01*
X021531Y031287D01*
X021767Y031287D01*
X021767Y031109D02*
X021531Y031109D01*
X021531Y031187D02*
X021767Y031187D01*
X021767Y031265D02*
X021531Y031265D01*
X021334Y034377D02*
X021334Y034633D01*
X021570Y034633D01*
X021570Y034377D01*
X021334Y034377D01*
X021334Y034455D02*
X021570Y034455D01*
X021570Y034533D02*
X021334Y034533D01*
X021334Y034611D02*
X021570Y034611D01*
X020940Y034633D02*
X020940Y034377D01*
X020940Y034633D02*
X021176Y034633D01*
X021176Y034377D01*
X020940Y034377D01*
X020940Y034455D02*
X021176Y034455D01*
X021176Y034533D02*
X020940Y034533D01*
X020940Y034611D02*
X021176Y034611D01*
X021176Y035558D02*
X021176Y035814D01*
X021176Y035558D02*
X020940Y035558D01*
X020940Y035814D01*
X021176Y035814D01*
X021176Y035636D02*
X020940Y035636D01*
X020940Y035714D02*
X021176Y035714D01*
X021176Y035792D02*
X020940Y035792D01*
X021570Y035814D02*
X021570Y035558D01*
X021334Y035558D01*
X021334Y035814D01*
X021570Y035814D01*
X021570Y035636D02*
X021334Y035636D01*
X021334Y035714D02*
X021570Y035714D01*
X021570Y035792D02*
X021334Y035792D01*
X021334Y036739D02*
X021334Y036995D01*
X021570Y036995D01*
X021570Y036739D01*
X021334Y036739D01*
X021334Y036817D02*
X021570Y036817D01*
X021570Y036895D02*
X021334Y036895D01*
X021334Y036973D02*
X021570Y036973D01*
X020940Y036995D02*
X020940Y036739D01*
X020940Y036995D02*
X021176Y036995D01*
X021176Y036739D01*
X020940Y036739D01*
X020940Y036817D02*
X021176Y036817D01*
X021176Y036895D02*
X020940Y036895D01*
X020940Y036973D02*
X021176Y036973D01*
X020822Y039624D02*
X020822Y040096D01*
X021058Y040096D01*
X021058Y039624D01*
X020822Y039624D01*
X020822Y039702D02*
X021058Y039702D01*
X021058Y039780D02*
X020822Y039780D01*
X020822Y039858D02*
X021058Y039858D01*
X021058Y039936D02*
X020822Y039936D01*
X020822Y040014D02*
X021058Y040014D01*
X021058Y040092D02*
X020822Y040092D01*
X020448Y040096D02*
X020448Y039624D01*
X020448Y040096D02*
X020684Y040096D01*
X020684Y039624D01*
X020448Y039624D01*
X020448Y039702D02*
X020684Y039702D01*
X020684Y039780D02*
X020448Y039780D01*
X020448Y039858D02*
X020684Y039858D01*
X020684Y039936D02*
X020448Y039936D01*
X020448Y040014D02*
X020684Y040014D01*
X020684Y040092D02*
X020448Y040092D01*
X020074Y040096D02*
X020074Y039624D01*
X020074Y040096D02*
X020310Y040096D01*
X020310Y039624D01*
X020074Y039624D01*
X020074Y039702D02*
X020310Y039702D01*
X020310Y039780D02*
X020074Y039780D01*
X020074Y039858D02*
X020310Y039858D01*
X020310Y039936D02*
X020074Y039936D01*
X020074Y040014D02*
X020310Y040014D01*
X020310Y040092D02*
X020074Y040092D01*
X020074Y040529D02*
X020074Y041001D01*
X020310Y041001D01*
X020310Y040529D01*
X020074Y040529D01*
X020074Y040607D02*
X020310Y040607D01*
X020310Y040685D02*
X020074Y040685D01*
X020074Y040763D02*
X020310Y040763D01*
X020310Y040841D02*
X020074Y040841D01*
X020074Y040919D02*
X020310Y040919D01*
X020310Y040997D02*
X020074Y040997D01*
X020822Y041001D02*
X020822Y040529D01*
X020822Y041001D02*
X021058Y041001D01*
X021058Y040529D01*
X020822Y040529D01*
X020822Y040607D02*
X021058Y040607D01*
X021058Y040685D02*
X020822Y040685D01*
X020822Y040763D02*
X021058Y040763D01*
X021058Y040841D02*
X020822Y040841D01*
X020822Y040919D02*
X021058Y040919D01*
X021058Y040997D02*
X020822Y040997D01*
X021531Y041050D02*
X021531Y041306D01*
X021767Y041306D01*
X021767Y041050D01*
X021531Y041050D01*
X021531Y041128D02*
X021767Y041128D01*
X021767Y041206D02*
X021531Y041206D01*
X021531Y041284D02*
X021767Y041284D01*
X021924Y041306D02*
X021924Y041050D01*
X021924Y041306D02*
X022160Y041306D01*
X022160Y041050D01*
X021924Y041050D01*
X021924Y041128D02*
X022160Y041128D01*
X022160Y041206D02*
X021924Y041206D01*
X021924Y041284D02*
X022160Y041284D01*
X020861Y042527D02*
X020861Y042783D01*
X020861Y042527D02*
X020625Y042527D01*
X020625Y042783D01*
X020861Y042783D01*
X020861Y042605D02*
X020625Y042605D01*
X020625Y042683D02*
X020861Y042683D01*
X020861Y042761D02*
X020625Y042761D01*
X020468Y042783D02*
X020468Y042527D01*
X020232Y042527D01*
X020232Y042783D01*
X020468Y042783D01*
X020468Y042605D02*
X020232Y042605D01*
X020232Y042683D02*
X020468Y042683D01*
X020468Y042761D02*
X020232Y042761D01*
X019523Y045676D02*
X019523Y045932D01*
X019759Y045932D01*
X019759Y045676D01*
X019523Y045676D01*
X019523Y045754D02*
X019759Y045754D01*
X019759Y045832D02*
X019523Y045832D01*
X019523Y045910D02*
X019759Y045910D01*
X019129Y045932D02*
X019129Y045676D01*
X019129Y045932D02*
X019365Y045932D01*
X019365Y045676D01*
X019129Y045676D01*
X019129Y045754D02*
X019365Y045754D01*
X019365Y045832D02*
X019129Y045832D01*
X019129Y045910D02*
X019365Y045910D01*
X019011Y046779D02*
X019011Y047035D01*
X019011Y046779D02*
X018775Y046779D01*
X018775Y047035D01*
X019011Y047035D01*
X019011Y046857D02*
X018775Y046857D01*
X018775Y046935D02*
X019011Y046935D01*
X019011Y047013D02*
X018775Y047013D01*
X018617Y047035D02*
X018617Y046779D01*
X018381Y046779D01*
X018381Y047035D01*
X018617Y047035D01*
X018617Y046857D02*
X018381Y046857D01*
X018381Y046935D02*
X018617Y046935D01*
X018617Y047013D02*
X018381Y047013D01*
X018617Y047369D02*
X018617Y047625D01*
X018617Y047369D02*
X018381Y047369D01*
X018381Y047625D01*
X018617Y047625D01*
X018617Y047447D02*
X018381Y047447D01*
X018381Y047525D02*
X018617Y047525D01*
X018617Y047603D02*
X018381Y047603D01*
X019011Y047625D02*
X019011Y047369D01*
X018775Y047369D01*
X018775Y047625D01*
X019011Y047625D01*
X019011Y047447D02*
X018775Y047447D01*
X018775Y047525D02*
X019011Y047525D01*
X019011Y047603D02*
X018775Y047603D01*
X019011Y048550D02*
X019011Y048806D01*
X019011Y048550D02*
X018775Y048550D01*
X018775Y048806D01*
X019011Y048806D01*
X019011Y048628D02*
X018775Y048628D01*
X018775Y048706D02*
X019011Y048706D01*
X019011Y048784D02*
X018775Y048784D01*
X018617Y048806D02*
X018617Y048550D01*
X018381Y048550D01*
X018381Y048806D01*
X018617Y048806D01*
X018617Y048628D02*
X018381Y048628D01*
X018381Y048706D02*
X018617Y048706D01*
X018617Y048784D02*
X018381Y048784D01*
X016649Y045460D02*
X016649Y045204D01*
X016413Y045204D01*
X016413Y045460D01*
X016649Y045460D01*
X016649Y045282D02*
X016413Y045282D01*
X016413Y045360D02*
X016649Y045360D01*
X016649Y045438D02*
X016413Y045438D01*
X016255Y045460D02*
X016255Y045204D01*
X016019Y045204D01*
X016019Y045460D01*
X016255Y045460D01*
X016255Y045282D02*
X016019Y045282D01*
X016019Y045360D02*
X016255Y045360D01*
X016255Y045438D02*
X016019Y045438D01*
X015084Y045489D02*
X014828Y045489D01*
X015084Y045489D02*
X015084Y045253D01*
X014828Y045253D01*
X014828Y045489D01*
X014828Y045331D02*
X015084Y045331D01*
X015084Y045409D02*
X014828Y045409D01*
X014828Y045487D02*
X015084Y045487D01*
X015084Y045883D02*
X014828Y045883D01*
X015084Y045883D02*
X015084Y045647D01*
X014828Y045647D01*
X014828Y045883D01*
X014828Y045725D02*
X015084Y045725D01*
X015084Y045803D02*
X014828Y045803D01*
X014828Y045881D02*
X015084Y045881D01*
X016206Y053088D02*
X016462Y053088D01*
X016206Y053088D02*
X016206Y053324D01*
X016462Y053324D01*
X016462Y053088D01*
X016462Y053166D02*
X016206Y053166D01*
X016206Y053244D02*
X016462Y053244D01*
X016462Y053322D02*
X016206Y053322D01*
X016206Y053482D02*
X016462Y053482D01*
X016206Y053482D02*
X016206Y053718D01*
X016462Y053718D01*
X016462Y053482D01*
X016462Y053560D02*
X016206Y053560D01*
X016206Y053638D02*
X016462Y053638D01*
X016462Y053716D02*
X016206Y053716D01*
X016796Y053482D02*
X017052Y053482D01*
X016796Y053482D02*
X016796Y053718D01*
X017052Y053718D01*
X017052Y053482D01*
X017052Y053560D02*
X016796Y053560D01*
X016796Y053638D02*
X017052Y053638D01*
X017052Y053716D02*
X016796Y053716D01*
X016796Y053088D02*
X017052Y053088D01*
X016796Y053088D02*
X016796Y053324D01*
X017052Y053324D01*
X017052Y053088D01*
X017052Y053166D02*
X016796Y053166D01*
X016796Y053244D02*
X017052Y053244D01*
X017052Y053322D02*
X016796Y053322D01*
X017387Y053088D02*
X017643Y053088D01*
X017387Y053088D02*
X017387Y053324D01*
X017643Y053324D01*
X017643Y053088D01*
X017643Y053166D02*
X017387Y053166D01*
X017387Y053244D02*
X017643Y053244D01*
X017643Y053322D02*
X017387Y053322D01*
X017387Y053482D02*
X017643Y053482D01*
X017387Y053482D02*
X017387Y053718D01*
X017643Y053718D01*
X017643Y053482D01*
X017643Y053560D02*
X017387Y053560D01*
X017387Y053638D02*
X017643Y053638D01*
X017643Y053716D02*
X017387Y053716D01*
X017977Y053482D02*
X018233Y053482D01*
X017977Y053482D02*
X017977Y053718D01*
X018233Y053718D01*
X018233Y053482D01*
X018233Y053560D02*
X017977Y053560D01*
X017977Y053638D02*
X018233Y053638D01*
X018233Y053716D02*
X017977Y053716D01*
X017977Y053088D02*
X018233Y053088D01*
X017977Y053088D02*
X017977Y053324D01*
X018233Y053324D01*
X018233Y053088D01*
X018233Y053166D02*
X017977Y053166D01*
X017977Y053244D02*
X018233Y053244D01*
X018233Y053322D02*
X017977Y053322D01*
X019779Y052911D02*
X020251Y052911D01*
X019779Y052911D02*
X019779Y053147D01*
X020251Y053147D01*
X020251Y052911D01*
X020251Y052989D02*
X019779Y052989D01*
X019779Y053067D02*
X020251Y053067D01*
X020251Y053145D02*
X019779Y053145D01*
X019779Y053659D02*
X020251Y053659D01*
X019779Y053659D02*
X019779Y053895D01*
X020251Y053895D01*
X020251Y053659D01*
X020251Y053737D02*
X019779Y053737D01*
X019779Y053815D02*
X020251Y053815D01*
X020251Y053893D02*
X019779Y053893D01*
X020684Y053659D02*
X021156Y053659D01*
X020684Y053659D02*
X020684Y053895D01*
X021156Y053895D01*
X021156Y053659D01*
X021156Y053737D02*
X020684Y053737D01*
X020684Y053815D02*
X021156Y053815D01*
X021156Y053893D02*
X020684Y053893D01*
X020684Y053285D02*
X021156Y053285D01*
X020684Y053285D02*
X020684Y053521D01*
X021156Y053521D01*
X021156Y053285D01*
X021156Y053363D02*
X020684Y053363D01*
X020684Y053441D02*
X021156Y053441D01*
X021156Y053519D02*
X020684Y053519D01*
X020684Y052911D02*
X021156Y052911D01*
X020684Y052911D02*
X020684Y053147D01*
X021156Y053147D01*
X021156Y052911D01*
X021156Y052989D02*
X020684Y052989D01*
X020684Y053067D02*
X021156Y053067D01*
X021156Y053145D02*
X020684Y053145D01*
X022308Y052458D02*
X022564Y052458D01*
X022564Y052222D01*
X022308Y052222D01*
X022308Y052458D01*
X022308Y052300D02*
X022564Y052300D01*
X022564Y052378D02*
X022308Y052378D01*
X022308Y052456D02*
X022564Y052456D01*
X022564Y052064D02*
X022308Y052064D01*
X022564Y052064D02*
X022564Y051828D01*
X022308Y051828D01*
X022308Y052064D01*
X022308Y051906D02*
X022564Y051906D01*
X022564Y051984D02*
X022308Y051984D01*
X022308Y052062D02*
X022564Y052062D01*
X022564Y051316D02*
X022308Y051316D01*
X022308Y051552D01*
X022564Y051552D01*
X022564Y051316D01*
X022564Y051394D02*
X022308Y051394D01*
X022308Y051472D02*
X022564Y051472D01*
X022564Y051550D02*
X022308Y051550D01*
X022308Y050923D02*
X022564Y050923D01*
X022308Y050923D02*
X022308Y051159D01*
X022564Y051159D01*
X022564Y050923D01*
X022564Y051001D02*
X022308Y051001D01*
X022308Y051079D02*
X022564Y051079D01*
X022564Y051157D02*
X022308Y051157D01*
X023145Y054850D02*
X023145Y055106D01*
X023145Y054850D02*
X022909Y054850D01*
X022909Y055106D01*
X023145Y055106D01*
X023145Y054928D02*
X022909Y054928D01*
X022909Y055006D02*
X023145Y055006D01*
X023145Y055084D02*
X022909Y055084D01*
X023538Y055106D02*
X023538Y054850D01*
X023302Y054850D01*
X023302Y055106D01*
X023538Y055106D01*
X023538Y054928D02*
X023302Y054928D01*
X023302Y055006D02*
X023538Y055006D01*
X023538Y055084D02*
X023302Y055084D01*
X024916Y055106D02*
X024916Y054850D01*
X024680Y054850D01*
X024680Y055106D01*
X024916Y055106D01*
X024916Y054928D02*
X024680Y054928D01*
X024680Y055006D02*
X024916Y055006D01*
X024916Y055084D02*
X024680Y055084D01*
X025310Y055106D02*
X025310Y054850D01*
X025074Y054850D01*
X025074Y055106D01*
X025310Y055106D01*
X025310Y054928D02*
X025074Y054928D01*
X025074Y055006D02*
X025310Y055006D01*
X025310Y055084D02*
X025074Y055084D01*
X027475Y055106D02*
X027475Y054850D01*
X027239Y054850D01*
X027239Y055106D01*
X027475Y055106D01*
X027475Y054928D02*
X027239Y054928D01*
X027239Y055006D02*
X027475Y055006D01*
X027475Y055084D02*
X027239Y055084D01*
X027869Y055106D02*
X027869Y054850D01*
X027633Y054850D01*
X027633Y055106D01*
X027869Y055106D01*
X027869Y054928D02*
X027633Y054928D01*
X027633Y055006D02*
X027869Y055006D01*
X027869Y055084D02*
X027633Y055084D01*
X029641Y055106D02*
X029641Y054850D01*
X029405Y054850D01*
X029405Y055106D01*
X029641Y055106D01*
X029641Y054928D02*
X029405Y054928D01*
X029405Y055006D02*
X029641Y055006D01*
X029641Y055084D02*
X029405Y055084D01*
X030035Y055106D02*
X030035Y054850D01*
X029799Y054850D01*
X029799Y055106D01*
X030035Y055106D01*
X030035Y054928D02*
X029799Y054928D01*
X029799Y055006D02*
X030035Y055006D01*
X030035Y055084D02*
X029799Y055084D01*
X031804Y052517D02*
X032040Y052517D01*
X031804Y052517D02*
X031804Y053383D01*
X032040Y053383D01*
X032040Y052517D01*
X032040Y052595D02*
X031804Y052595D01*
X031804Y052673D02*
X032040Y052673D01*
X032040Y052751D02*
X031804Y052751D01*
X031804Y052829D02*
X032040Y052829D01*
X032040Y052907D02*
X031804Y052907D01*
X031804Y052985D02*
X032040Y052985D01*
X032040Y053063D02*
X031804Y053063D01*
X031804Y053141D02*
X032040Y053141D01*
X032040Y053219D02*
X031804Y053219D01*
X031804Y053297D02*
X032040Y053297D01*
X032040Y053375D02*
X031804Y053375D01*
X032304Y052517D02*
X032540Y052517D01*
X032304Y052517D02*
X032304Y053383D01*
X032540Y053383D01*
X032540Y052517D01*
X032540Y052595D02*
X032304Y052595D01*
X032304Y052673D02*
X032540Y052673D01*
X032540Y052751D02*
X032304Y052751D01*
X032304Y052829D02*
X032540Y052829D01*
X032540Y052907D02*
X032304Y052907D01*
X032304Y052985D02*
X032540Y052985D01*
X032540Y053063D02*
X032304Y053063D01*
X032304Y053141D02*
X032540Y053141D01*
X032540Y053219D02*
X032304Y053219D01*
X032304Y053297D02*
X032540Y053297D01*
X032540Y053375D02*
X032304Y053375D01*
X032804Y052517D02*
X033040Y052517D01*
X032804Y052517D02*
X032804Y053383D01*
X033040Y053383D01*
X033040Y052517D01*
X033040Y052595D02*
X032804Y052595D01*
X032804Y052673D02*
X033040Y052673D01*
X033040Y052751D02*
X032804Y052751D01*
X032804Y052829D02*
X033040Y052829D01*
X033040Y052907D02*
X032804Y052907D01*
X032804Y052985D02*
X033040Y052985D01*
X033040Y053063D02*
X032804Y053063D01*
X032804Y053141D02*
X033040Y053141D01*
X033040Y053219D02*
X032804Y053219D01*
X032804Y053297D02*
X033040Y053297D01*
X033040Y053375D02*
X032804Y053375D01*
X033304Y052517D02*
X033540Y052517D01*
X033304Y052517D02*
X033304Y053383D01*
X033540Y053383D01*
X033540Y052517D01*
X033540Y052595D02*
X033304Y052595D01*
X033304Y052673D02*
X033540Y052673D01*
X033540Y052751D02*
X033304Y052751D01*
X033304Y052829D02*
X033540Y052829D01*
X033540Y052907D02*
X033304Y052907D01*
X033304Y052985D02*
X033540Y052985D01*
X033540Y053063D02*
X033304Y053063D01*
X033304Y053141D02*
X033540Y053141D01*
X033540Y053219D02*
X033304Y053219D01*
X033304Y053297D02*
X033540Y053297D01*
X033540Y053375D02*
X033304Y053375D01*
X033304Y050470D02*
X033540Y050470D01*
X033304Y050470D02*
X033304Y051336D01*
X033540Y051336D01*
X033540Y050470D01*
X033540Y050548D02*
X033304Y050548D01*
X033304Y050626D02*
X033540Y050626D01*
X033540Y050704D02*
X033304Y050704D01*
X033304Y050782D02*
X033540Y050782D01*
X033540Y050860D02*
X033304Y050860D01*
X033304Y050938D02*
X033540Y050938D01*
X033540Y051016D02*
X033304Y051016D01*
X033304Y051094D02*
X033540Y051094D01*
X033540Y051172D02*
X033304Y051172D01*
X033304Y051250D02*
X033540Y051250D01*
X033540Y051328D02*
X033304Y051328D01*
X033040Y050470D02*
X032804Y050470D01*
X032804Y051336D01*
X033040Y051336D01*
X033040Y050470D01*
X033040Y050548D02*
X032804Y050548D01*
X032804Y050626D02*
X033040Y050626D01*
X033040Y050704D02*
X032804Y050704D01*
X032804Y050782D02*
X033040Y050782D01*
X033040Y050860D02*
X032804Y050860D01*
X032804Y050938D02*
X033040Y050938D01*
X033040Y051016D02*
X032804Y051016D01*
X032804Y051094D02*
X033040Y051094D01*
X033040Y051172D02*
X032804Y051172D01*
X032804Y051250D02*
X033040Y051250D01*
X033040Y051328D02*
X032804Y051328D01*
X032540Y050470D02*
X032304Y050470D01*
X032304Y051336D01*
X032540Y051336D01*
X032540Y050470D01*
X032540Y050548D02*
X032304Y050548D01*
X032304Y050626D02*
X032540Y050626D01*
X032540Y050704D02*
X032304Y050704D01*
X032304Y050782D02*
X032540Y050782D01*
X032540Y050860D02*
X032304Y050860D01*
X032304Y050938D02*
X032540Y050938D01*
X032540Y051016D02*
X032304Y051016D01*
X032304Y051094D02*
X032540Y051094D01*
X032540Y051172D02*
X032304Y051172D01*
X032304Y051250D02*
X032540Y051250D01*
X032540Y051328D02*
X032304Y051328D01*
X032040Y050470D02*
X031804Y050470D01*
X031804Y051336D01*
X032040Y051336D01*
X032040Y050470D01*
X032040Y050548D02*
X031804Y050548D01*
X031804Y050626D02*
X032040Y050626D01*
X032040Y050704D02*
X031804Y050704D01*
X031804Y050782D02*
X032040Y050782D01*
X032040Y050860D02*
X031804Y050860D01*
X031804Y050938D02*
X032040Y050938D01*
X032040Y051016D02*
X031804Y051016D01*
X031804Y051094D02*
X032040Y051094D01*
X032040Y051172D02*
X031804Y051172D01*
X031804Y051250D02*
X032040Y051250D01*
X032040Y051328D02*
X031804Y051328D01*
X029956Y047921D02*
X029956Y047665D01*
X029720Y047665D01*
X029720Y047921D01*
X029956Y047921D01*
X029956Y047743D02*
X029720Y047743D01*
X029720Y047821D02*
X029956Y047821D01*
X029956Y047899D02*
X029720Y047899D01*
X029562Y047921D02*
X029562Y047665D01*
X029326Y047665D01*
X029326Y047921D01*
X029562Y047921D01*
X029562Y047743D02*
X029326Y047743D01*
X029326Y047821D02*
X029562Y047821D01*
X029562Y047899D02*
X029326Y047899D01*
X027672Y050913D02*
X027672Y051169D01*
X027672Y050913D02*
X027436Y050913D01*
X027436Y051169D01*
X027672Y051169D01*
X027672Y050991D02*
X027436Y050991D01*
X027436Y051069D02*
X027672Y051069D01*
X027672Y051147D02*
X027436Y051147D01*
X027279Y051169D02*
X027279Y050913D01*
X027043Y050913D01*
X027043Y051169D01*
X027279Y051169D01*
X027279Y050991D02*
X027043Y050991D01*
X027043Y051069D02*
X027279Y051069D01*
X027279Y051147D02*
X027043Y051147D01*
X023942Y043245D02*
X023686Y043245D01*
X023686Y043481D01*
X023942Y043481D01*
X023942Y043245D01*
X023942Y043323D02*
X023686Y043323D01*
X023686Y043401D02*
X023942Y043401D01*
X023942Y043479D02*
X023686Y043479D01*
X023686Y042852D02*
X023942Y042852D01*
X023686Y042852D02*
X023686Y043088D01*
X023942Y043088D01*
X023942Y042852D01*
X023942Y042930D02*
X023686Y042930D01*
X023686Y043008D02*
X023942Y043008D01*
X023942Y043086D02*
X023686Y043086D01*
X030025Y036001D02*
X030281Y036001D01*
X030281Y035765D01*
X030025Y035765D01*
X030025Y036001D01*
X030025Y035843D02*
X030281Y035843D01*
X030281Y035921D02*
X030025Y035921D01*
X030025Y035999D02*
X030281Y035999D01*
X030281Y035607D02*
X030025Y035607D01*
X030281Y035607D02*
X030281Y035371D01*
X030025Y035371D01*
X030025Y035607D01*
X030025Y035449D02*
X030281Y035449D01*
X030281Y035527D02*
X030025Y035527D01*
X030025Y035605D02*
X030281Y035605D01*
X032348Y034230D02*
X032604Y034230D01*
X032604Y033994D01*
X032348Y033994D01*
X032348Y034230D01*
X032348Y034072D02*
X032604Y034072D01*
X032604Y034150D02*
X032348Y034150D01*
X032348Y034228D02*
X032604Y034228D01*
X032604Y033836D02*
X032348Y033836D01*
X032604Y033836D02*
X032604Y033600D01*
X032348Y033600D01*
X032348Y033836D01*
X032348Y033678D02*
X032604Y033678D01*
X032604Y033756D02*
X032348Y033756D01*
X032348Y033834D02*
X032604Y033834D01*
X032604Y032064D02*
X032348Y032064D01*
X032604Y032064D02*
X032604Y031828D01*
X032348Y031828D01*
X032348Y032064D01*
X032348Y031906D02*
X032604Y031906D01*
X032604Y031984D02*
X032348Y031984D01*
X032348Y032062D02*
X032604Y032062D01*
X032604Y031670D02*
X032348Y031670D01*
X032604Y031670D02*
X032604Y031434D01*
X032348Y031434D01*
X032348Y031670D01*
X032348Y031512D02*
X032604Y031512D01*
X032604Y031590D02*
X032348Y031590D01*
X032348Y031668D02*
X032604Y031668D01*
X031422Y031434D02*
X031166Y031434D01*
X031166Y031670D01*
X031422Y031670D01*
X031422Y031434D01*
X031422Y031512D02*
X031166Y031512D01*
X031166Y031590D02*
X031422Y031590D01*
X031422Y031668D02*
X031166Y031668D01*
X031166Y031828D02*
X031422Y031828D01*
X031166Y031828D02*
X031166Y032064D01*
X031422Y032064D01*
X031422Y031828D01*
X031422Y031906D02*
X031166Y031906D01*
X031166Y031984D02*
X031422Y031984D01*
X031422Y032062D02*
X031166Y032062D01*
X031226Y028285D02*
X030970Y028285D01*
X030970Y028521D01*
X031226Y028521D01*
X031226Y028285D01*
X031226Y028363D02*
X030970Y028363D01*
X030970Y028441D02*
X031226Y028441D01*
X031226Y028519D02*
X030970Y028519D01*
X030635Y028285D02*
X030379Y028285D01*
X030379Y028521D01*
X030635Y028521D01*
X030635Y028285D01*
X030635Y028363D02*
X030379Y028363D01*
X030379Y028441D02*
X030635Y028441D01*
X030635Y028519D02*
X030379Y028519D01*
X030379Y027891D02*
X030635Y027891D01*
X030379Y027891D02*
X030379Y028127D01*
X030635Y028127D01*
X030635Y027891D01*
X030635Y027969D02*
X030379Y027969D01*
X030379Y028047D02*
X030635Y028047D01*
X030635Y028125D02*
X030379Y028125D01*
X030970Y027891D02*
X031226Y027891D01*
X030970Y027891D02*
X030970Y028127D01*
X031226Y028127D01*
X031226Y027891D01*
X031226Y027969D02*
X030970Y027969D01*
X030970Y028047D02*
X031226Y028047D01*
X031226Y028125D02*
X030970Y028125D01*
X035103Y033836D02*
X035359Y033836D01*
X035359Y033600D01*
X035103Y033600D01*
X035103Y033836D01*
X035103Y033678D02*
X035359Y033678D01*
X035359Y033756D02*
X035103Y033756D01*
X035103Y033834D02*
X035359Y033834D01*
X035359Y034230D02*
X035103Y034230D01*
X035359Y034230D02*
X035359Y033994D01*
X035103Y033994D01*
X035103Y034230D01*
X035103Y034072D02*
X035359Y034072D01*
X035359Y034150D02*
X035103Y034150D01*
X035103Y034228D02*
X035359Y034228D01*
X036285Y034230D02*
X036541Y034230D01*
X036541Y033994D01*
X036285Y033994D01*
X036285Y034230D01*
X036285Y034072D02*
X036541Y034072D01*
X036541Y034150D02*
X036285Y034150D01*
X036285Y034228D02*
X036541Y034228D01*
X036541Y033836D02*
X036285Y033836D01*
X036541Y033836D02*
X036541Y033600D01*
X036285Y033600D01*
X036285Y033836D01*
X036285Y033678D02*
X036541Y033678D01*
X036541Y033756D02*
X036285Y033756D01*
X036285Y033834D02*
X036541Y033834D01*
X036541Y035607D02*
X036285Y035607D01*
X036541Y035607D02*
X036541Y035371D01*
X036285Y035371D01*
X036285Y035607D01*
X036285Y035449D02*
X036541Y035449D01*
X036541Y035527D02*
X036285Y035527D01*
X036285Y035605D02*
X036541Y035605D01*
X036541Y036001D02*
X036285Y036001D01*
X036541Y036001D02*
X036541Y035765D01*
X036285Y035765D01*
X036285Y036001D01*
X036285Y035843D02*
X036541Y035843D01*
X036541Y035921D02*
X036285Y035921D01*
X036285Y035999D02*
X036541Y035999D01*
X036541Y036946D02*
X036285Y036946D01*
X036285Y037182D01*
X036541Y037182D01*
X036541Y036946D01*
X036541Y037024D02*
X036285Y037024D01*
X036285Y037102D02*
X036541Y037102D01*
X036541Y037180D02*
X036285Y037180D01*
X036285Y037340D02*
X036541Y037340D01*
X036285Y037340D02*
X036285Y037576D01*
X036541Y037576D01*
X036541Y037340D01*
X036541Y037418D02*
X036285Y037418D01*
X036285Y037496D02*
X036541Y037496D01*
X036541Y037574D02*
X036285Y037574D01*
X035517Y035765D02*
X035261Y035765D01*
X035261Y036001D01*
X035517Y036001D01*
X035517Y035765D01*
X035517Y035843D02*
X035261Y035843D01*
X035261Y035921D02*
X035517Y035921D01*
X035517Y035999D02*
X035261Y035999D01*
X035261Y035371D02*
X035517Y035371D01*
X035261Y035371D02*
X035261Y035607D01*
X035517Y035607D01*
X035517Y035371D01*
X035517Y035449D02*
X035261Y035449D01*
X035261Y035527D02*
X035517Y035527D01*
X035517Y035605D02*
X035261Y035605D01*
X034572Y035371D02*
X034316Y035371D01*
X034316Y035607D01*
X034572Y035607D01*
X034572Y035371D01*
X034572Y035449D02*
X034316Y035449D01*
X034316Y035527D02*
X034572Y035527D01*
X034572Y035605D02*
X034316Y035605D01*
X034316Y035765D02*
X034572Y035765D01*
X034316Y035765D02*
X034316Y036001D01*
X034572Y036001D01*
X034572Y035765D01*
X034572Y035843D02*
X034316Y035843D01*
X034316Y035921D02*
X034572Y035921D01*
X034572Y035999D02*
X034316Y035999D01*
X034277Y039151D02*
X034533Y039151D01*
X034533Y038915D01*
X034277Y038915D01*
X034277Y039151D01*
X034277Y038993D02*
X034533Y038993D01*
X034533Y039071D02*
X034277Y039071D01*
X034277Y039149D02*
X034533Y039149D01*
X034533Y039544D02*
X034277Y039544D01*
X034533Y039544D02*
X034533Y039308D01*
X034277Y039308D01*
X034277Y039544D01*
X034277Y039386D02*
X034533Y039386D01*
X034533Y039464D02*
X034277Y039464D01*
X034277Y039542D02*
X034533Y039542D01*
X013302Y028384D02*
X013302Y028068D01*
X013302Y028384D02*
X013538Y028384D01*
X013538Y028068D01*
X013302Y028068D01*
X013302Y028146D02*
X013538Y028146D01*
X013538Y028224D02*
X013302Y028224D01*
X013302Y028302D02*
X013538Y028302D01*
X013538Y028380D02*
X013302Y028380D01*
X013302Y027399D02*
X013302Y027083D01*
X013302Y027399D02*
X013538Y027399D01*
X013538Y027083D01*
X013302Y027083D01*
X013302Y027161D02*
X013538Y027161D01*
X013538Y027239D02*
X013302Y027239D01*
X013302Y027317D02*
X013538Y027317D01*
X013538Y027395D02*
X013302Y027395D01*
D16*
X022260Y055785D02*
X022810Y055785D01*
X022260Y055785D02*
X022260Y056139D01*
X022810Y056139D01*
X022810Y055785D01*
X022810Y055902D02*
X022260Y055902D01*
X022260Y056019D02*
X022810Y056019D01*
X022810Y056136D02*
X022260Y056136D01*
X023244Y055785D02*
X023794Y055785D01*
X023244Y055785D02*
X023244Y056139D01*
X023794Y056139D01*
X023794Y055785D01*
X023794Y055902D02*
X023244Y055902D01*
X023244Y056019D02*
X023794Y056019D01*
X023794Y056136D02*
X023244Y056136D01*
X024425Y055785D02*
X024975Y055785D01*
X024425Y055785D02*
X024425Y056139D01*
X024975Y056139D01*
X024975Y055785D01*
X024975Y055902D02*
X024425Y055902D01*
X024425Y056019D02*
X024975Y056019D01*
X024975Y056136D02*
X024425Y056136D01*
X025409Y055785D02*
X025959Y055785D01*
X025409Y055785D02*
X025409Y056139D01*
X025959Y056139D01*
X025959Y055785D01*
X025959Y055902D02*
X025409Y055902D01*
X025409Y056019D02*
X025959Y056019D01*
X025959Y056136D02*
X025409Y056136D01*
X026590Y055785D02*
X027140Y055785D01*
X026590Y055785D02*
X026590Y056139D01*
X027140Y056139D01*
X027140Y055785D01*
X027140Y055902D02*
X026590Y055902D01*
X026590Y056019D02*
X027140Y056019D01*
X027140Y056136D02*
X026590Y056136D01*
X027575Y055785D02*
X028125Y055785D01*
X027575Y055785D02*
X027575Y056139D01*
X028125Y056139D01*
X028125Y055785D01*
X028125Y055902D02*
X027575Y055902D01*
X027575Y056019D02*
X028125Y056019D01*
X028125Y056136D02*
X027575Y056136D01*
X028756Y055785D02*
X029306Y055785D01*
X028756Y055785D02*
X028756Y056139D01*
X029306Y056139D01*
X029306Y055785D01*
X029306Y055902D02*
X028756Y055902D01*
X028756Y056019D02*
X029306Y056019D01*
X029306Y056136D02*
X028756Y056136D01*
X029740Y055785D02*
X030290Y055785D01*
X029740Y055785D02*
X029740Y056139D01*
X030290Y056139D01*
X030290Y055785D01*
X030290Y055902D02*
X029740Y055902D01*
X029740Y056019D02*
X030290Y056019D01*
X030290Y056136D02*
X029740Y056136D01*
D17*
X020069Y036923D02*
X019193Y036923D01*
X019193Y037131D01*
X020069Y037131D01*
X020069Y036923D01*
X020069Y036991D02*
X019193Y036991D01*
X019193Y037059D02*
X020069Y037059D01*
X020069Y037127D02*
X019193Y037127D01*
X019193Y036423D02*
X020069Y036423D01*
X019193Y036423D02*
X019193Y036631D01*
X020069Y036631D01*
X020069Y036423D01*
X020069Y036491D02*
X019193Y036491D01*
X019193Y036559D02*
X020069Y036559D01*
X020069Y036627D02*
X019193Y036627D01*
X019193Y035923D02*
X020069Y035923D01*
X019193Y035923D02*
X019193Y036131D01*
X020069Y036131D01*
X020069Y035923D01*
X020069Y035991D02*
X019193Y035991D01*
X019193Y036059D02*
X020069Y036059D01*
X020069Y036127D02*
X019193Y036127D01*
X019193Y035423D02*
X020069Y035423D01*
X019193Y035423D02*
X019193Y035631D01*
X020069Y035631D01*
X020069Y035423D01*
X020069Y035491D02*
X019193Y035491D01*
X019193Y035559D02*
X020069Y035559D01*
X020069Y035627D02*
X019193Y035627D01*
X017805Y035423D02*
X016929Y035423D01*
X016929Y035631D01*
X017805Y035631D01*
X017805Y035423D01*
X017805Y035491D02*
X016929Y035491D01*
X016929Y035559D02*
X017805Y035559D01*
X017805Y035627D02*
X016929Y035627D01*
X016929Y035923D02*
X017805Y035923D01*
X016929Y035923D02*
X016929Y036131D01*
X017805Y036131D01*
X017805Y035923D01*
X017805Y035991D02*
X016929Y035991D01*
X016929Y036059D02*
X017805Y036059D01*
X017805Y036127D02*
X016929Y036127D01*
X016929Y036423D02*
X017805Y036423D01*
X016929Y036423D02*
X016929Y036631D01*
X017805Y036631D01*
X017805Y036423D01*
X017805Y036491D02*
X016929Y036491D01*
X016929Y036559D02*
X017805Y036559D01*
X017805Y036627D02*
X016929Y036627D01*
X016929Y036923D02*
X017805Y036923D01*
X016929Y036923D02*
X016929Y037131D01*
X017805Y037131D01*
X017805Y036923D01*
X017805Y036991D02*
X016929Y036991D01*
X016929Y037059D02*
X017805Y037059D01*
X017805Y037127D02*
X016929Y037127D01*
D18*
X018499Y036277D03*
D19*
X017528Y032047D02*
X016518Y032047D01*
X017528Y032047D02*
X017528Y031649D01*
X016518Y031649D01*
X016518Y032047D01*
X016518Y031781D02*
X017528Y031781D01*
X017528Y031913D02*
X016518Y031913D01*
X016518Y032045D02*
X017528Y032045D01*
X017528Y030866D02*
X016518Y030866D01*
X017528Y030866D02*
X017528Y030468D01*
X016518Y030468D01*
X016518Y030866D01*
X016518Y030600D02*
X017528Y030600D01*
X017528Y030732D02*
X016518Y030732D01*
X016518Y030864D02*
X017528Y030864D01*
X014363Y035024D02*
X014363Y036034D01*
X014761Y036034D01*
X014761Y035024D01*
X014363Y035024D01*
X014363Y035156D02*
X014761Y035156D01*
X014761Y035288D02*
X014363Y035288D01*
X014363Y035420D02*
X014761Y035420D01*
X014761Y035552D02*
X014363Y035552D01*
X014363Y035684D02*
X014761Y035684D01*
X014761Y035816D02*
X014363Y035816D01*
X014363Y035948D02*
X014761Y035948D01*
X014363Y036559D02*
X014363Y037569D01*
X014761Y037569D01*
X014761Y036559D01*
X014363Y036559D01*
X014363Y036691D02*
X014761Y036691D01*
X014761Y036823D02*
X014363Y036823D01*
X014363Y036955D02*
X014761Y036955D01*
X014761Y037087D02*
X014363Y037087D01*
X014363Y037219D02*
X014761Y037219D01*
X014761Y037351D02*
X014363Y037351D01*
X014363Y037483D02*
X014761Y037483D01*
X013182Y037569D02*
X013182Y036559D01*
X013182Y037569D02*
X013580Y037569D01*
X013580Y036559D01*
X013182Y036559D01*
X013182Y036691D02*
X013580Y036691D01*
X013580Y036823D02*
X013182Y036823D01*
X013182Y036955D02*
X013580Y036955D01*
X013580Y037087D02*
X013182Y037087D01*
X013182Y037219D02*
X013580Y037219D01*
X013580Y037351D02*
X013182Y037351D01*
X013182Y037483D02*
X013580Y037483D01*
X013182Y036034D02*
X013182Y035024D01*
X013182Y036034D02*
X013580Y036034D01*
X013580Y035024D01*
X013182Y035024D01*
X013182Y035156D02*
X013580Y035156D01*
X013580Y035288D02*
X013182Y035288D01*
X013182Y035420D02*
X013580Y035420D01*
X013580Y035552D02*
X013182Y035552D01*
X013182Y035684D02*
X013580Y035684D01*
X013580Y035816D02*
X013182Y035816D01*
X013182Y035948D02*
X013580Y035948D01*
X027025Y051825D02*
X027025Y052421D01*
X027025Y051825D02*
X026627Y051825D01*
X026627Y052421D01*
X027025Y052421D01*
X027025Y051957D02*
X026627Y051957D01*
X026627Y052089D02*
X027025Y052089D01*
X027025Y052221D02*
X026627Y052221D01*
X026627Y052353D02*
X027025Y052353D01*
X028206Y052421D02*
X028206Y051825D01*
X027808Y051825D01*
X027808Y052421D01*
X028206Y052421D01*
X028206Y051957D02*
X027808Y051957D01*
X027808Y052089D02*
X028206Y052089D01*
X028206Y052221D02*
X027808Y052221D01*
X027808Y052353D02*
X028206Y052353D01*
X031183Y043366D02*
X032193Y043366D01*
X032193Y042968D01*
X031183Y042968D01*
X031183Y043366D01*
X031183Y043100D02*
X032193Y043100D01*
X032193Y043232D02*
X031183Y043232D01*
X031183Y043364D02*
X032193Y043364D01*
X032193Y042185D02*
X031183Y042185D01*
X032193Y042185D02*
X032193Y041787D01*
X031183Y041787D01*
X031183Y042185D01*
X031183Y041919D02*
X032193Y041919D01*
X032193Y042051D02*
X031183Y042051D01*
X031183Y042183D02*
X032193Y042183D01*
X031248Y033716D02*
X030238Y033716D01*
X030238Y034114D01*
X031248Y034114D01*
X031248Y033716D01*
X031248Y033848D02*
X030238Y033848D01*
X030238Y033980D02*
X031248Y033980D01*
X031248Y034112D02*
X030238Y034112D01*
X030238Y032535D02*
X031248Y032535D01*
X030238Y032535D02*
X030238Y032933D01*
X031248Y032933D01*
X031248Y032535D01*
X031248Y032667D02*
X030238Y032667D01*
X030238Y032799D02*
X031248Y032799D01*
X031248Y032931D02*
X030238Y032931D01*
X029805Y029976D02*
X030815Y029976D01*
X029805Y029976D02*
X029805Y030374D01*
X030815Y030374D01*
X030815Y029976D01*
X030815Y030108D02*
X029805Y030108D01*
X029805Y030240D02*
X030815Y030240D01*
X030815Y030372D02*
X029805Y030372D01*
X029805Y028794D02*
X030815Y028794D01*
X029805Y028794D02*
X029805Y029192D01*
X030815Y029192D01*
X030815Y028794D01*
X030815Y028926D02*
X029805Y028926D01*
X029805Y029058D02*
X030815Y029058D01*
X030815Y029190D02*
X029805Y029190D01*
X036301Y029385D02*
X037311Y029385D01*
X036301Y029385D02*
X036301Y029783D01*
X037311Y029783D01*
X037311Y029385D01*
X037311Y029517D02*
X036301Y029517D01*
X036301Y029649D02*
X037311Y029649D01*
X037311Y029781D02*
X036301Y029781D01*
X036301Y028204D02*
X037311Y028204D01*
X036301Y028204D02*
X036301Y028602D01*
X037311Y028602D01*
X037311Y028204D01*
X037311Y028336D02*
X036301Y028336D01*
X036301Y028468D02*
X037311Y028468D01*
X037311Y028600D02*
X036301Y028600D01*
D20*
X026086Y035489D03*
X033417Y054615D03*
X034417Y054615D03*
X035417Y054615D03*
D21*
X015448Y050056D03*
D22*
X014464Y050056D03*
X014464Y049072D03*
X015448Y049072D03*
X015448Y048088D03*
X014464Y048088D03*
D23*
X017318Y047300D03*
X028224Y048088D03*
X029405Y050753D03*
X031228Y040214D03*
X023684Y031552D03*
D24*
X022684Y031552D03*
X032228Y040214D03*
X028224Y046088D03*
X028224Y047088D03*
X029405Y049753D03*
X017318Y049300D03*
X017318Y048300D03*
D25*
X014100Y019870D02*
X013056Y019870D01*
X014100Y019870D02*
X014100Y019220D01*
X013056Y019220D01*
X013056Y019870D01*
X013056Y019436D02*
X014100Y019436D01*
X014100Y019652D02*
X013056Y019652D01*
X013056Y019868D02*
X014100Y019868D01*
X014100Y022232D02*
X013056Y022232D01*
X014100Y022232D02*
X014100Y021582D01*
X013056Y021582D01*
X013056Y022232D01*
X013056Y021798D02*
X014100Y021798D01*
X014100Y022014D02*
X013056Y022014D01*
X013056Y022230D02*
X014100Y022230D01*
X017387Y022232D02*
X018431Y022232D01*
X018431Y021582D01*
X017387Y021582D01*
X017387Y022232D01*
X017387Y021798D02*
X018431Y021798D01*
X018431Y022014D02*
X017387Y022014D01*
X017387Y022230D02*
X018431Y022230D01*
X018431Y019870D02*
X017387Y019870D01*
X018431Y019870D02*
X018431Y019220D01*
X017387Y019220D01*
X017387Y019870D01*
X017387Y019436D02*
X018431Y019436D01*
X018431Y019652D02*
X017387Y019652D01*
X017387Y019868D02*
X018431Y019868D01*
X021029Y028668D02*
X021875Y028668D01*
X021029Y028668D02*
X021029Y029318D01*
X021875Y029318D01*
X021875Y028668D01*
X021875Y028884D02*
X021029Y028884D01*
X021029Y029100D02*
X021875Y029100D01*
X021875Y029316D02*
X021029Y029316D01*
X021029Y029850D02*
X021875Y029850D01*
X021029Y029850D02*
X021029Y030500D01*
X021875Y030500D01*
X021875Y029850D01*
X021875Y030066D02*
X021029Y030066D01*
X021029Y030282D02*
X021875Y030282D01*
X021875Y030498D02*
X021029Y030498D01*
X024966Y029850D02*
X025812Y029850D01*
X024966Y029850D02*
X024966Y030500D01*
X025812Y030500D01*
X025812Y029850D01*
X025812Y030066D02*
X024966Y030066D01*
X024966Y030282D02*
X025812Y030282D01*
X025812Y030498D02*
X024966Y030498D01*
X024966Y028668D02*
X025812Y028668D01*
X024966Y028668D02*
X024966Y029318D01*
X025812Y029318D01*
X025812Y028668D01*
X025812Y028884D02*
X024966Y028884D01*
X024966Y029100D02*
X025812Y029100D01*
X025812Y029316D02*
X024966Y029316D01*
D26*
X025069Y043801D02*
X025069Y044303D01*
X025069Y043801D02*
X024921Y043801D01*
X024921Y044303D01*
X025069Y044303D01*
X025069Y043849D02*
X024921Y043849D01*
X024921Y043897D02*
X025069Y043897D01*
X025069Y043945D02*
X024921Y043945D01*
X024921Y043993D02*
X025069Y043993D01*
X025069Y044041D02*
X024921Y044041D01*
X024921Y044089D02*
X025069Y044089D01*
X025069Y044137D02*
X024921Y044137D01*
X024921Y044185D02*
X025069Y044185D01*
X025069Y044233D02*
X024921Y044233D01*
X024921Y044281D02*
X025069Y044281D01*
X025266Y044303D02*
X025266Y043801D01*
X025118Y043801D01*
X025118Y044303D01*
X025266Y044303D01*
X025266Y043849D02*
X025118Y043849D01*
X025118Y043897D02*
X025266Y043897D01*
X025266Y043945D02*
X025118Y043945D01*
X025118Y043993D02*
X025266Y043993D01*
X025266Y044041D02*
X025118Y044041D01*
X025118Y044089D02*
X025266Y044089D01*
X025266Y044137D02*
X025118Y044137D01*
X025118Y044185D02*
X025266Y044185D01*
X025266Y044233D02*
X025118Y044233D01*
X025118Y044281D02*
X025266Y044281D01*
X025463Y044303D02*
X025463Y043801D01*
X025315Y043801D01*
X025315Y044303D01*
X025463Y044303D01*
X025463Y043849D02*
X025315Y043849D01*
X025315Y043897D02*
X025463Y043897D01*
X025463Y043945D02*
X025315Y043945D01*
X025315Y043993D02*
X025463Y043993D01*
X025463Y044041D02*
X025315Y044041D01*
X025315Y044089D02*
X025463Y044089D01*
X025463Y044137D02*
X025315Y044137D01*
X025315Y044185D02*
X025463Y044185D01*
X025463Y044233D02*
X025315Y044233D01*
X025315Y044281D02*
X025463Y044281D01*
X025660Y044303D02*
X025660Y043801D01*
X025512Y043801D01*
X025512Y044303D01*
X025660Y044303D01*
X025660Y043849D02*
X025512Y043849D01*
X025512Y043897D02*
X025660Y043897D01*
X025660Y043945D02*
X025512Y043945D01*
X025512Y043993D02*
X025660Y043993D01*
X025660Y044041D02*
X025512Y044041D01*
X025512Y044089D02*
X025660Y044089D01*
X025660Y044137D02*
X025512Y044137D01*
X025512Y044185D02*
X025660Y044185D01*
X025660Y044233D02*
X025512Y044233D01*
X025512Y044281D02*
X025660Y044281D01*
X025857Y044303D02*
X025857Y043801D01*
X025709Y043801D01*
X025709Y044303D01*
X025857Y044303D01*
X025857Y043849D02*
X025709Y043849D01*
X025709Y043897D02*
X025857Y043897D01*
X025857Y043945D02*
X025709Y043945D01*
X025709Y043993D02*
X025857Y043993D01*
X025857Y044041D02*
X025709Y044041D01*
X025709Y044089D02*
X025857Y044089D01*
X025857Y044137D02*
X025709Y044137D01*
X025709Y044185D02*
X025857Y044185D01*
X025857Y044233D02*
X025709Y044233D01*
X025709Y044281D02*
X025857Y044281D01*
X026054Y044303D02*
X026054Y043801D01*
X025906Y043801D01*
X025906Y044303D01*
X026054Y044303D01*
X026054Y043849D02*
X025906Y043849D01*
X025906Y043897D02*
X026054Y043897D01*
X026054Y043945D02*
X025906Y043945D01*
X025906Y043993D02*
X026054Y043993D01*
X026054Y044041D02*
X025906Y044041D01*
X025906Y044089D02*
X026054Y044089D01*
X026054Y044137D02*
X025906Y044137D01*
X025906Y044185D02*
X026054Y044185D01*
X026054Y044233D02*
X025906Y044233D01*
X025906Y044281D02*
X026054Y044281D01*
X026250Y044303D02*
X026250Y043801D01*
X026102Y043801D01*
X026102Y044303D01*
X026250Y044303D01*
X026250Y043849D02*
X026102Y043849D01*
X026102Y043897D02*
X026250Y043897D01*
X026250Y043945D02*
X026102Y043945D01*
X026102Y043993D02*
X026250Y043993D01*
X026250Y044041D02*
X026102Y044041D01*
X026102Y044089D02*
X026250Y044089D01*
X026250Y044137D02*
X026102Y044137D01*
X026102Y044185D02*
X026250Y044185D01*
X026250Y044233D02*
X026102Y044233D01*
X026102Y044281D02*
X026250Y044281D01*
X026516Y044717D02*
X027018Y044717D01*
X027018Y044569D01*
X026516Y044569D01*
X026516Y044717D01*
X026516Y044617D02*
X027018Y044617D01*
X027018Y044665D02*
X026516Y044665D01*
X026516Y044713D02*
X027018Y044713D01*
X027018Y044914D02*
X026516Y044914D01*
X027018Y044914D02*
X027018Y044766D01*
X026516Y044766D01*
X026516Y044914D01*
X026516Y044814D02*
X027018Y044814D01*
X027018Y044862D02*
X026516Y044862D01*
X026516Y044910D02*
X027018Y044910D01*
X027018Y045111D02*
X026516Y045111D01*
X027018Y045111D02*
X027018Y044963D01*
X026516Y044963D01*
X026516Y045111D01*
X026516Y045011D02*
X027018Y045011D01*
X027018Y045059D02*
X026516Y045059D01*
X026516Y045107D02*
X027018Y045107D01*
X027018Y045308D02*
X026516Y045308D01*
X027018Y045308D02*
X027018Y045160D01*
X026516Y045160D01*
X026516Y045308D01*
X026516Y045208D02*
X027018Y045208D01*
X027018Y045256D02*
X026516Y045256D01*
X026516Y045304D02*
X027018Y045304D01*
X027018Y045504D02*
X026516Y045504D01*
X027018Y045504D02*
X027018Y045356D01*
X026516Y045356D01*
X026516Y045504D01*
X026516Y045404D02*
X027018Y045404D01*
X027018Y045452D02*
X026516Y045452D01*
X026516Y045500D02*
X027018Y045500D01*
X027018Y045701D02*
X026516Y045701D01*
X027018Y045701D02*
X027018Y045553D01*
X026516Y045553D01*
X026516Y045701D01*
X026516Y045601D02*
X027018Y045601D01*
X027018Y045649D02*
X026516Y045649D01*
X026516Y045697D02*
X027018Y045697D01*
X027018Y045898D02*
X026516Y045898D01*
X027018Y045898D02*
X027018Y045750D01*
X026516Y045750D01*
X026516Y045898D01*
X026516Y045798D02*
X027018Y045798D01*
X027018Y045846D02*
X026516Y045846D01*
X026516Y045894D02*
X027018Y045894D01*
X027018Y046095D02*
X026516Y046095D01*
X027018Y046095D02*
X027018Y045947D01*
X026516Y045947D01*
X026516Y046095D01*
X026516Y045995D02*
X027018Y045995D01*
X027018Y046043D02*
X026516Y046043D01*
X026516Y046091D02*
X027018Y046091D01*
X027018Y046292D02*
X026516Y046292D01*
X027018Y046292D02*
X027018Y046144D01*
X026516Y046144D01*
X026516Y046292D01*
X026516Y046192D02*
X027018Y046192D01*
X027018Y046240D02*
X026516Y046240D01*
X026516Y046288D02*
X027018Y046288D01*
X027018Y046489D02*
X026516Y046489D01*
X027018Y046489D02*
X027018Y046341D01*
X026516Y046341D01*
X026516Y046489D01*
X026516Y046389D02*
X027018Y046389D01*
X027018Y046437D02*
X026516Y046437D01*
X026516Y046485D02*
X027018Y046485D01*
X027018Y046686D02*
X026516Y046686D01*
X027018Y046686D02*
X027018Y046538D01*
X026516Y046538D01*
X026516Y046686D01*
X026516Y046586D02*
X027018Y046586D01*
X027018Y046634D02*
X026516Y046634D01*
X026516Y046682D02*
X027018Y046682D01*
X027018Y046882D02*
X026516Y046882D01*
X027018Y046882D02*
X027018Y046734D01*
X026516Y046734D01*
X026516Y046882D01*
X026516Y046782D02*
X027018Y046782D01*
X027018Y046830D02*
X026516Y046830D01*
X026516Y046878D02*
X027018Y046878D01*
X027018Y047079D02*
X026516Y047079D01*
X027018Y047079D02*
X027018Y046931D01*
X026516Y046931D01*
X026516Y047079D01*
X026516Y046979D02*
X027018Y046979D01*
X027018Y047027D02*
X026516Y047027D01*
X026516Y047075D02*
X027018Y047075D01*
X027018Y047276D02*
X026516Y047276D01*
X027018Y047276D02*
X027018Y047128D01*
X026516Y047128D01*
X026516Y047276D01*
X026516Y047176D02*
X027018Y047176D01*
X027018Y047224D02*
X026516Y047224D01*
X026516Y047272D02*
X027018Y047272D01*
X027018Y047473D02*
X026516Y047473D01*
X027018Y047473D02*
X027018Y047325D01*
X026516Y047325D01*
X026516Y047473D01*
X026516Y047373D02*
X027018Y047373D01*
X027018Y047421D02*
X026516Y047421D01*
X026516Y047469D02*
X027018Y047469D01*
X027018Y047670D02*
X026516Y047670D01*
X027018Y047670D02*
X027018Y047522D01*
X026516Y047522D01*
X026516Y047670D01*
X026516Y047570D02*
X027018Y047570D01*
X027018Y047618D02*
X026516Y047618D01*
X026516Y047666D02*
X027018Y047666D01*
X027018Y047867D02*
X026516Y047867D01*
X027018Y047867D02*
X027018Y047719D01*
X026516Y047719D01*
X026516Y047867D01*
X026516Y047767D02*
X027018Y047767D01*
X027018Y047815D02*
X026516Y047815D01*
X026516Y047863D02*
X027018Y047863D01*
X027018Y048063D02*
X026516Y048063D01*
X027018Y048063D02*
X027018Y047915D01*
X026516Y047915D01*
X026516Y048063D01*
X026516Y047963D02*
X027018Y047963D01*
X027018Y048011D02*
X026516Y048011D01*
X026516Y048059D02*
X027018Y048059D01*
X027018Y048260D02*
X026516Y048260D01*
X027018Y048260D02*
X027018Y048112D01*
X026516Y048112D01*
X026516Y048260D01*
X026516Y048160D02*
X027018Y048160D01*
X027018Y048208D02*
X026516Y048208D01*
X026516Y048256D02*
X027018Y048256D01*
X027018Y048457D02*
X026516Y048457D01*
X027018Y048457D02*
X027018Y048309D01*
X026516Y048309D01*
X026516Y048457D01*
X026516Y048357D02*
X027018Y048357D01*
X027018Y048405D02*
X026516Y048405D01*
X026516Y048453D02*
X027018Y048453D01*
X027018Y048654D02*
X026516Y048654D01*
X027018Y048654D02*
X027018Y048506D01*
X026516Y048506D01*
X026516Y048654D01*
X026516Y048554D02*
X027018Y048554D01*
X027018Y048602D02*
X026516Y048602D01*
X026516Y048650D02*
X027018Y048650D01*
X027018Y048851D02*
X026516Y048851D01*
X027018Y048851D02*
X027018Y048703D01*
X026516Y048703D01*
X026516Y048851D01*
X026516Y048751D02*
X027018Y048751D01*
X027018Y048799D02*
X026516Y048799D01*
X026516Y048847D02*
X027018Y048847D01*
X027018Y049048D02*
X026516Y049048D01*
X027018Y049048D02*
X027018Y048900D01*
X026516Y048900D01*
X026516Y049048D01*
X026516Y048948D02*
X027018Y048948D01*
X027018Y048996D02*
X026516Y048996D01*
X026516Y049044D02*
X027018Y049044D01*
X027018Y049245D02*
X026516Y049245D01*
X027018Y049245D02*
X027018Y049097D01*
X026516Y049097D01*
X026516Y049245D01*
X026516Y049145D02*
X027018Y049145D01*
X027018Y049193D02*
X026516Y049193D01*
X026516Y049241D02*
X027018Y049241D01*
X027018Y049441D02*
X026516Y049441D01*
X027018Y049441D02*
X027018Y049293D01*
X026516Y049293D01*
X026516Y049441D01*
X026516Y049341D02*
X027018Y049341D01*
X027018Y049389D02*
X026516Y049389D01*
X026516Y049437D02*
X027018Y049437D01*
X026102Y049707D02*
X026102Y050209D01*
X026250Y050209D01*
X026250Y049707D01*
X026102Y049707D01*
X026102Y049755D02*
X026250Y049755D01*
X026250Y049803D02*
X026102Y049803D01*
X026102Y049851D02*
X026250Y049851D01*
X026250Y049899D02*
X026102Y049899D01*
X026102Y049947D02*
X026250Y049947D01*
X026250Y049995D02*
X026102Y049995D01*
X026102Y050043D02*
X026250Y050043D01*
X026250Y050091D02*
X026102Y050091D01*
X026102Y050139D02*
X026250Y050139D01*
X026250Y050187D02*
X026102Y050187D01*
X025906Y050209D02*
X025906Y049707D01*
X025906Y050209D02*
X026054Y050209D01*
X026054Y049707D01*
X025906Y049707D01*
X025906Y049755D02*
X026054Y049755D01*
X026054Y049803D02*
X025906Y049803D01*
X025906Y049851D02*
X026054Y049851D01*
X026054Y049899D02*
X025906Y049899D01*
X025906Y049947D02*
X026054Y049947D01*
X026054Y049995D02*
X025906Y049995D01*
X025906Y050043D02*
X026054Y050043D01*
X026054Y050091D02*
X025906Y050091D01*
X025906Y050139D02*
X026054Y050139D01*
X026054Y050187D02*
X025906Y050187D01*
X025709Y050209D02*
X025709Y049707D01*
X025709Y050209D02*
X025857Y050209D01*
X025857Y049707D01*
X025709Y049707D01*
X025709Y049755D02*
X025857Y049755D01*
X025857Y049803D02*
X025709Y049803D01*
X025709Y049851D02*
X025857Y049851D01*
X025857Y049899D02*
X025709Y049899D01*
X025709Y049947D02*
X025857Y049947D01*
X025857Y049995D02*
X025709Y049995D01*
X025709Y050043D02*
X025857Y050043D01*
X025857Y050091D02*
X025709Y050091D01*
X025709Y050139D02*
X025857Y050139D01*
X025857Y050187D02*
X025709Y050187D01*
X025512Y050209D02*
X025512Y049707D01*
X025512Y050209D02*
X025660Y050209D01*
X025660Y049707D01*
X025512Y049707D01*
X025512Y049755D02*
X025660Y049755D01*
X025660Y049803D02*
X025512Y049803D01*
X025512Y049851D02*
X025660Y049851D01*
X025660Y049899D02*
X025512Y049899D01*
X025512Y049947D02*
X025660Y049947D01*
X025660Y049995D02*
X025512Y049995D01*
X025512Y050043D02*
X025660Y050043D01*
X025660Y050091D02*
X025512Y050091D01*
X025512Y050139D02*
X025660Y050139D01*
X025660Y050187D02*
X025512Y050187D01*
X025315Y050209D02*
X025315Y049707D01*
X025315Y050209D02*
X025463Y050209D01*
X025463Y049707D01*
X025315Y049707D01*
X025315Y049755D02*
X025463Y049755D01*
X025463Y049803D02*
X025315Y049803D01*
X025315Y049851D02*
X025463Y049851D01*
X025463Y049899D02*
X025315Y049899D01*
X025315Y049947D02*
X025463Y049947D01*
X025463Y049995D02*
X025315Y049995D01*
X025315Y050043D02*
X025463Y050043D01*
X025463Y050091D02*
X025315Y050091D01*
X025315Y050139D02*
X025463Y050139D01*
X025463Y050187D02*
X025315Y050187D01*
X025118Y050209D02*
X025118Y049707D01*
X025118Y050209D02*
X025266Y050209D01*
X025266Y049707D01*
X025118Y049707D01*
X025118Y049755D02*
X025266Y049755D01*
X025266Y049803D02*
X025118Y049803D01*
X025118Y049851D02*
X025266Y049851D01*
X025266Y049899D02*
X025118Y049899D01*
X025118Y049947D02*
X025266Y049947D01*
X025266Y049995D02*
X025118Y049995D01*
X025118Y050043D02*
X025266Y050043D01*
X025266Y050091D02*
X025118Y050091D01*
X025118Y050139D02*
X025266Y050139D01*
X025266Y050187D02*
X025118Y050187D01*
X024921Y050209D02*
X024921Y049707D01*
X024921Y050209D02*
X025069Y050209D01*
X025069Y049707D01*
X024921Y049707D01*
X024921Y049755D02*
X025069Y049755D01*
X025069Y049803D02*
X024921Y049803D01*
X024921Y049851D02*
X025069Y049851D01*
X025069Y049899D02*
X024921Y049899D01*
X024921Y049947D02*
X025069Y049947D01*
X025069Y049995D02*
X024921Y049995D01*
X024921Y050043D02*
X025069Y050043D01*
X025069Y050091D02*
X024921Y050091D01*
X024921Y050139D02*
X025069Y050139D01*
X025069Y050187D02*
X024921Y050187D01*
X024724Y050209D02*
X024724Y049707D01*
X024724Y050209D02*
X024872Y050209D01*
X024872Y049707D01*
X024724Y049707D01*
X024724Y049755D02*
X024872Y049755D01*
X024872Y049803D02*
X024724Y049803D01*
X024724Y049851D02*
X024872Y049851D01*
X024872Y049899D02*
X024724Y049899D01*
X024724Y049947D02*
X024872Y049947D01*
X024872Y049995D02*
X024724Y049995D01*
X024724Y050043D02*
X024872Y050043D01*
X024872Y050091D02*
X024724Y050091D01*
X024724Y050139D02*
X024872Y050139D01*
X024872Y050187D02*
X024724Y050187D01*
X024528Y050209D02*
X024528Y049707D01*
X024528Y050209D02*
X024676Y050209D01*
X024676Y049707D01*
X024528Y049707D01*
X024528Y049755D02*
X024676Y049755D01*
X024676Y049803D02*
X024528Y049803D01*
X024528Y049851D02*
X024676Y049851D01*
X024676Y049899D02*
X024528Y049899D01*
X024528Y049947D02*
X024676Y049947D01*
X024676Y049995D02*
X024528Y049995D01*
X024528Y050043D02*
X024676Y050043D01*
X024676Y050091D02*
X024528Y050091D01*
X024528Y050139D02*
X024676Y050139D01*
X024676Y050187D02*
X024528Y050187D01*
X024331Y050209D02*
X024331Y049707D01*
X024331Y050209D02*
X024479Y050209D01*
X024479Y049707D01*
X024331Y049707D01*
X024331Y049755D02*
X024479Y049755D01*
X024479Y049803D02*
X024331Y049803D01*
X024331Y049851D02*
X024479Y049851D01*
X024479Y049899D02*
X024331Y049899D01*
X024331Y049947D02*
X024479Y049947D01*
X024479Y049995D02*
X024331Y049995D01*
X024331Y050043D02*
X024479Y050043D01*
X024479Y050091D02*
X024331Y050091D01*
X024331Y050139D02*
X024479Y050139D01*
X024479Y050187D02*
X024331Y050187D01*
X024134Y050209D02*
X024134Y049707D01*
X024134Y050209D02*
X024282Y050209D01*
X024282Y049707D01*
X024134Y049707D01*
X024134Y049755D02*
X024282Y049755D01*
X024282Y049803D02*
X024134Y049803D01*
X024134Y049851D02*
X024282Y049851D01*
X024282Y049899D02*
X024134Y049899D01*
X024134Y049947D02*
X024282Y049947D01*
X024282Y049995D02*
X024134Y049995D01*
X024134Y050043D02*
X024282Y050043D01*
X024282Y050091D02*
X024134Y050091D01*
X024134Y050139D02*
X024282Y050139D01*
X024282Y050187D02*
X024134Y050187D01*
X023937Y050209D02*
X023937Y049707D01*
X023937Y050209D02*
X024085Y050209D01*
X024085Y049707D01*
X023937Y049707D01*
X023937Y049755D02*
X024085Y049755D01*
X024085Y049803D02*
X023937Y049803D01*
X023937Y049851D02*
X024085Y049851D01*
X024085Y049899D02*
X023937Y049899D01*
X023937Y049947D02*
X024085Y049947D01*
X024085Y049995D02*
X023937Y049995D01*
X023937Y050043D02*
X024085Y050043D01*
X024085Y050091D02*
X023937Y050091D01*
X023937Y050139D02*
X024085Y050139D01*
X024085Y050187D02*
X023937Y050187D01*
X023740Y050209D02*
X023740Y049707D01*
X023740Y050209D02*
X023888Y050209D01*
X023888Y049707D01*
X023740Y049707D01*
X023740Y049755D02*
X023888Y049755D01*
X023888Y049803D02*
X023740Y049803D01*
X023740Y049851D02*
X023888Y049851D01*
X023888Y049899D02*
X023740Y049899D01*
X023740Y049947D02*
X023888Y049947D01*
X023888Y049995D02*
X023740Y049995D01*
X023740Y050043D02*
X023888Y050043D01*
X023888Y050091D02*
X023740Y050091D01*
X023740Y050139D02*
X023888Y050139D01*
X023888Y050187D02*
X023740Y050187D01*
X023543Y050209D02*
X023543Y049707D01*
X023543Y050209D02*
X023691Y050209D01*
X023691Y049707D01*
X023543Y049707D01*
X023543Y049755D02*
X023691Y049755D01*
X023691Y049803D02*
X023543Y049803D01*
X023543Y049851D02*
X023691Y049851D01*
X023691Y049899D02*
X023543Y049899D01*
X023543Y049947D02*
X023691Y049947D01*
X023691Y049995D02*
X023543Y049995D01*
X023543Y050043D02*
X023691Y050043D01*
X023691Y050091D02*
X023543Y050091D01*
X023543Y050139D02*
X023691Y050139D01*
X023691Y050187D02*
X023543Y050187D01*
X023346Y050209D02*
X023346Y049707D01*
X023346Y050209D02*
X023494Y050209D01*
X023494Y049707D01*
X023346Y049707D01*
X023346Y049755D02*
X023494Y049755D01*
X023494Y049803D02*
X023346Y049803D01*
X023346Y049851D02*
X023494Y049851D01*
X023494Y049899D02*
X023346Y049899D01*
X023346Y049947D02*
X023494Y049947D01*
X023494Y049995D02*
X023346Y049995D01*
X023346Y050043D02*
X023494Y050043D01*
X023494Y050091D02*
X023346Y050091D01*
X023346Y050139D02*
X023494Y050139D01*
X023494Y050187D02*
X023346Y050187D01*
X023150Y050209D02*
X023150Y049707D01*
X023150Y050209D02*
X023298Y050209D01*
X023298Y049707D01*
X023150Y049707D01*
X023150Y049755D02*
X023298Y049755D01*
X023298Y049803D02*
X023150Y049803D01*
X023150Y049851D02*
X023298Y049851D01*
X023298Y049899D02*
X023150Y049899D01*
X023150Y049947D02*
X023298Y049947D01*
X023298Y049995D02*
X023150Y049995D01*
X023150Y050043D02*
X023298Y050043D01*
X023298Y050091D02*
X023150Y050091D01*
X023150Y050139D02*
X023298Y050139D01*
X023298Y050187D02*
X023150Y050187D01*
X022953Y050209D02*
X022953Y049707D01*
X022953Y050209D02*
X023101Y050209D01*
X023101Y049707D01*
X022953Y049707D01*
X022953Y049755D02*
X023101Y049755D01*
X023101Y049803D02*
X022953Y049803D01*
X022953Y049851D02*
X023101Y049851D01*
X023101Y049899D02*
X022953Y049899D01*
X022953Y049947D02*
X023101Y049947D01*
X023101Y049995D02*
X022953Y049995D01*
X022953Y050043D02*
X023101Y050043D01*
X023101Y050091D02*
X022953Y050091D01*
X022953Y050139D02*
X023101Y050139D01*
X023101Y050187D02*
X022953Y050187D01*
X022756Y050209D02*
X022756Y049707D01*
X022756Y050209D02*
X022904Y050209D01*
X022904Y049707D01*
X022756Y049707D01*
X022756Y049755D02*
X022904Y049755D01*
X022904Y049803D02*
X022756Y049803D01*
X022756Y049851D02*
X022904Y049851D01*
X022904Y049899D02*
X022756Y049899D01*
X022756Y049947D02*
X022904Y049947D01*
X022904Y049995D02*
X022756Y049995D01*
X022756Y050043D02*
X022904Y050043D01*
X022904Y050091D02*
X022756Y050091D01*
X022756Y050139D02*
X022904Y050139D01*
X022904Y050187D02*
X022756Y050187D01*
X022559Y050209D02*
X022559Y049707D01*
X022559Y050209D02*
X022707Y050209D01*
X022707Y049707D01*
X022559Y049707D01*
X022559Y049755D02*
X022707Y049755D01*
X022707Y049803D02*
X022559Y049803D01*
X022559Y049851D02*
X022707Y049851D01*
X022707Y049899D02*
X022559Y049899D01*
X022559Y049947D02*
X022707Y049947D01*
X022707Y049995D02*
X022559Y049995D01*
X022559Y050043D02*
X022707Y050043D01*
X022707Y050091D02*
X022559Y050091D01*
X022559Y050139D02*
X022707Y050139D01*
X022707Y050187D02*
X022559Y050187D01*
X022362Y050209D02*
X022362Y049707D01*
X022362Y050209D02*
X022510Y050209D01*
X022510Y049707D01*
X022362Y049707D01*
X022362Y049755D02*
X022510Y049755D01*
X022510Y049803D02*
X022362Y049803D01*
X022362Y049851D02*
X022510Y049851D01*
X022510Y049899D02*
X022362Y049899D01*
X022362Y049947D02*
X022510Y049947D01*
X022510Y049995D02*
X022362Y049995D01*
X022362Y050043D02*
X022510Y050043D01*
X022510Y050091D02*
X022362Y050091D01*
X022362Y050139D02*
X022510Y050139D01*
X022510Y050187D02*
X022362Y050187D01*
X022165Y050209D02*
X022165Y049707D01*
X022165Y050209D02*
X022313Y050209D01*
X022313Y049707D01*
X022165Y049707D01*
X022165Y049755D02*
X022313Y049755D01*
X022313Y049803D02*
X022165Y049803D01*
X022165Y049851D02*
X022313Y049851D01*
X022313Y049899D02*
X022165Y049899D01*
X022165Y049947D02*
X022313Y049947D01*
X022313Y049995D02*
X022165Y049995D01*
X022165Y050043D02*
X022313Y050043D01*
X022313Y050091D02*
X022165Y050091D01*
X022165Y050139D02*
X022313Y050139D01*
X022313Y050187D02*
X022165Y050187D01*
X021968Y050209D02*
X021968Y049707D01*
X021968Y050209D02*
X022116Y050209D01*
X022116Y049707D01*
X021968Y049707D01*
X021968Y049755D02*
X022116Y049755D01*
X022116Y049803D02*
X021968Y049803D01*
X021968Y049851D02*
X022116Y049851D01*
X022116Y049899D02*
X021968Y049899D01*
X021968Y049947D02*
X022116Y049947D01*
X022116Y049995D02*
X021968Y049995D01*
X021968Y050043D02*
X022116Y050043D01*
X022116Y050091D02*
X021968Y050091D01*
X021968Y050139D02*
X022116Y050139D01*
X022116Y050187D02*
X021968Y050187D01*
X021772Y050209D02*
X021772Y049707D01*
X021772Y050209D02*
X021920Y050209D01*
X021920Y049707D01*
X021772Y049707D01*
X021772Y049755D02*
X021920Y049755D01*
X021920Y049803D02*
X021772Y049803D01*
X021772Y049851D02*
X021920Y049851D01*
X021920Y049899D02*
X021772Y049899D01*
X021772Y049947D02*
X021920Y049947D01*
X021920Y049995D02*
X021772Y049995D01*
X021772Y050043D02*
X021920Y050043D01*
X021920Y050091D02*
X021772Y050091D01*
X021772Y050139D02*
X021920Y050139D01*
X021920Y050187D02*
X021772Y050187D01*
X021575Y050209D02*
X021575Y049707D01*
X021575Y050209D02*
X021723Y050209D01*
X021723Y049707D01*
X021575Y049707D01*
X021575Y049755D02*
X021723Y049755D01*
X021723Y049803D02*
X021575Y049803D01*
X021575Y049851D02*
X021723Y049851D01*
X021723Y049899D02*
X021575Y049899D01*
X021575Y049947D02*
X021723Y049947D01*
X021723Y049995D02*
X021575Y049995D01*
X021575Y050043D02*
X021723Y050043D01*
X021723Y050091D02*
X021575Y050091D01*
X021575Y050139D02*
X021723Y050139D01*
X021723Y050187D02*
X021575Y050187D01*
X021378Y050209D02*
X021378Y049707D01*
X021378Y050209D02*
X021526Y050209D01*
X021526Y049707D01*
X021378Y049707D01*
X021378Y049755D02*
X021526Y049755D01*
X021526Y049803D02*
X021378Y049803D01*
X021378Y049851D02*
X021526Y049851D01*
X021526Y049899D02*
X021378Y049899D01*
X021378Y049947D02*
X021526Y049947D01*
X021526Y049995D02*
X021378Y049995D01*
X021378Y050043D02*
X021526Y050043D01*
X021526Y050091D02*
X021378Y050091D01*
X021378Y050139D02*
X021526Y050139D01*
X021526Y050187D02*
X021378Y050187D01*
X021112Y049293D02*
X020610Y049293D01*
X020610Y049441D01*
X021112Y049441D01*
X021112Y049293D01*
X021112Y049341D02*
X020610Y049341D01*
X020610Y049389D02*
X021112Y049389D01*
X021112Y049437D02*
X020610Y049437D01*
X020610Y049097D02*
X021112Y049097D01*
X020610Y049097D02*
X020610Y049245D01*
X021112Y049245D01*
X021112Y049097D01*
X021112Y049145D02*
X020610Y049145D01*
X020610Y049193D02*
X021112Y049193D01*
X021112Y049241D02*
X020610Y049241D01*
X020610Y048900D02*
X021112Y048900D01*
X020610Y048900D02*
X020610Y049048D01*
X021112Y049048D01*
X021112Y048900D01*
X021112Y048948D02*
X020610Y048948D01*
X020610Y048996D02*
X021112Y048996D01*
X021112Y049044D02*
X020610Y049044D01*
X020610Y048703D02*
X021112Y048703D01*
X020610Y048703D02*
X020610Y048851D01*
X021112Y048851D01*
X021112Y048703D01*
X021112Y048751D02*
X020610Y048751D01*
X020610Y048799D02*
X021112Y048799D01*
X021112Y048847D02*
X020610Y048847D01*
X020610Y048506D02*
X021112Y048506D01*
X020610Y048506D02*
X020610Y048654D01*
X021112Y048654D01*
X021112Y048506D01*
X021112Y048554D02*
X020610Y048554D01*
X020610Y048602D02*
X021112Y048602D01*
X021112Y048650D02*
X020610Y048650D01*
X020610Y048309D02*
X021112Y048309D01*
X020610Y048309D02*
X020610Y048457D01*
X021112Y048457D01*
X021112Y048309D01*
X021112Y048357D02*
X020610Y048357D01*
X020610Y048405D02*
X021112Y048405D01*
X021112Y048453D02*
X020610Y048453D01*
X020610Y048112D02*
X021112Y048112D01*
X020610Y048112D02*
X020610Y048260D01*
X021112Y048260D01*
X021112Y048112D01*
X021112Y048160D02*
X020610Y048160D01*
X020610Y048208D02*
X021112Y048208D01*
X021112Y048256D02*
X020610Y048256D01*
X020610Y047915D02*
X021112Y047915D01*
X020610Y047915D02*
X020610Y048063D01*
X021112Y048063D01*
X021112Y047915D01*
X021112Y047963D02*
X020610Y047963D01*
X020610Y048011D02*
X021112Y048011D01*
X021112Y048059D02*
X020610Y048059D01*
X020610Y047719D02*
X021112Y047719D01*
X020610Y047719D02*
X020610Y047867D01*
X021112Y047867D01*
X021112Y047719D01*
X021112Y047767D02*
X020610Y047767D01*
X020610Y047815D02*
X021112Y047815D01*
X021112Y047863D02*
X020610Y047863D01*
X020610Y047522D02*
X021112Y047522D01*
X020610Y047522D02*
X020610Y047670D01*
X021112Y047670D01*
X021112Y047522D01*
X021112Y047570D02*
X020610Y047570D01*
X020610Y047618D02*
X021112Y047618D01*
X021112Y047666D02*
X020610Y047666D01*
X020610Y047325D02*
X021112Y047325D01*
X020610Y047325D02*
X020610Y047473D01*
X021112Y047473D01*
X021112Y047325D01*
X021112Y047373D02*
X020610Y047373D01*
X020610Y047421D02*
X021112Y047421D01*
X021112Y047469D02*
X020610Y047469D01*
X020610Y047128D02*
X021112Y047128D01*
X020610Y047128D02*
X020610Y047276D01*
X021112Y047276D01*
X021112Y047128D01*
X021112Y047176D02*
X020610Y047176D01*
X020610Y047224D02*
X021112Y047224D01*
X021112Y047272D02*
X020610Y047272D01*
X020610Y046931D02*
X021112Y046931D01*
X020610Y046931D02*
X020610Y047079D01*
X021112Y047079D01*
X021112Y046931D01*
X021112Y046979D02*
X020610Y046979D01*
X020610Y047027D02*
X021112Y047027D01*
X021112Y047075D02*
X020610Y047075D01*
X020610Y046734D02*
X021112Y046734D01*
X020610Y046734D02*
X020610Y046882D01*
X021112Y046882D01*
X021112Y046734D01*
X021112Y046782D02*
X020610Y046782D01*
X020610Y046830D02*
X021112Y046830D01*
X021112Y046878D02*
X020610Y046878D01*
X020610Y046538D02*
X021112Y046538D01*
X020610Y046538D02*
X020610Y046686D01*
X021112Y046686D01*
X021112Y046538D01*
X021112Y046586D02*
X020610Y046586D01*
X020610Y046634D02*
X021112Y046634D01*
X021112Y046682D02*
X020610Y046682D01*
X020610Y046341D02*
X021112Y046341D01*
X020610Y046341D02*
X020610Y046489D01*
X021112Y046489D01*
X021112Y046341D01*
X021112Y046389D02*
X020610Y046389D01*
X020610Y046437D02*
X021112Y046437D01*
X021112Y046485D02*
X020610Y046485D01*
X020610Y046144D02*
X021112Y046144D01*
X020610Y046144D02*
X020610Y046292D01*
X021112Y046292D01*
X021112Y046144D01*
X021112Y046192D02*
X020610Y046192D01*
X020610Y046240D02*
X021112Y046240D01*
X021112Y046288D02*
X020610Y046288D01*
X020610Y045947D02*
X021112Y045947D01*
X020610Y045947D02*
X020610Y046095D01*
X021112Y046095D01*
X021112Y045947D01*
X021112Y045995D02*
X020610Y045995D01*
X020610Y046043D02*
X021112Y046043D01*
X021112Y046091D02*
X020610Y046091D01*
X020610Y045750D02*
X021112Y045750D01*
X020610Y045750D02*
X020610Y045898D01*
X021112Y045898D01*
X021112Y045750D01*
X021112Y045798D02*
X020610Y045798D01*
X020610Y045846D02*
X021112Y045846D01*
X021112Y045894D02*
X020610Y045894D01*
X020610Y045553D02*
X021112Y045553D01*
X020610Y045553D02*
X020610Y045701D01*
X021112Y045701D01*
X021112Y045553D01*
X021112Y045601D02*
X020610Y045601D01*
X020610Y045649D02*
X021112Y045649D01*
X021112Y045697D02*
X020610Y045697D01*
X020610Y045356D02*
X021112Y045356D01*
X020610Y045356D02*
X020610Y045504D01*
X021112Y045504D01*
X021112Y045356D01*
X021112Y045404D02*
X020610Y045404D01*
X020610Y045452D02*
X021112Y045452D01*
X021112Y045500D02*
X020610Y045500D01*
X020610Y045160D02*
X021112Y045160D01*
X020610Y045160D02*
X020610Y045308D01*
X021112Y045308D01*
X021112Y045160D01*
X021112Y045208D02*
X020610Y045208D01*
X020610Y045256D02*
X021112Y045256D01*
X021112Y045304D02*
X020610Y045304D01*
X020610Y044963D02*
X021112Y044963D01*
X020610Y044963D02*
X020610Y045111D01*
X021112Y045111D01*
X021112Y044963D01*
X021112Y045011D02*
X020610Y045011D01*
X020610Y045059D02*
X021112Y045059D01*
X021112Y045107D02*
X020610Y045107D01*
X020610Y044766D02*
X021112Y044766D01*
X020610Y044766D02*
X020610Y044914D01*
X021112Y044914D01*
X021112Y044766D01*
X021112Y044814D02*
X020610Y044814D01*
X020610Y044862D02*
X021112Y044862D01*
X021112Y044910D02*
X020610Y044910D01*
X020610Y044569D02*
X021112Y044569D01*
X020610Y044569D02*
X020610Y044717D01*
X021112Y044717D01*
X021112Y044569D01*
X021112Y044617D02*
X020610Y044617D01*
X020610Y044665D02*
X021112Y044665D01*
X021112Y044713D02*
X020610Y044713D01*
X021526Y044303D02*
X021526Y043801D01*
X021378Y043801D01*
X021378Y044303D01*
X021526Y044303D01*
X021526Y043849D02*
X021378Y043849D01*
X021378Y043897D02*
X021526Y043897D01*
X021526Y043945D02*
X021378Y043945D01*
X021378Y043993D02*
X021526Y043993D01*
X021526Y044041D02*
X021378Y044041D01*
X021378Y044089D02*
X021526Y044089D01*
X021526Y044137D02*
X021378Y044137D01*
X021378Y044185D02*
X021526Y044185D01*
X021526Y044233D02*
X021378Y044233D01*
X021378Y044281D02*
X021526Y044281D01*
X021723Y044303D02*
X021723Y043801D01*
X021575Y043801D01*
X021575Y044303D01*
X021723Y044303D01*
X021723Y043849D02*
X021575Y043849D01*
X021575Y043897D02*
X021723Y043897D01*
X021723Y043945D02*
X021575Y043945D01*
X021575Y043993D02*
X021723Y043993D01*
X021723Y044041D02*
X021575Y044041D01*
X021575Y044089D02*
X021723Y044089D01*
X021723Y044137D02*
X021575Y044137D01*
X021575Y044185D02*
X021723Y044185D01*
X021723Y044233D02*
X021575Y044233D01*
X021575Y044281D02*
X021723Y044281D01*
X021920Y044303D02*
X021920Y043801D01*
X021772Y043801D01*
X021772Y044303D01*
X021920Y044303D01*
X021920Y043849D02*
X021772Y043849D01*
X021772Y043897D02*
X021920Y043897D01*
X021920Y043945D02*
X021772Y043945D01*
X021772Y043993D02*
X021920Y043993D01*
X021920Y044041D02*
X021772Y044041D01*
X021772Y044089D02*
X021920Y044089D01*
X021920Y044137D02*
X021772Y044137D01*
X021772Y044185D02*
X021920Y044185D01*
X021920Y044233D02*
X021772Y044233D01*
X021772Y044281D02*
X021920Y044281D01*
X022116Y044303D02*
X022116Y043801D01*
X021968Y043801D01*
X021968Y044303D01*
X022116Y044303D01*
X022116Y043849D02*
X021968Y043849D01*
X021968Y043897D02*
X022116Y043897D01*
X022116Y043945D02*
X021968Y043945D01*
X021968Y043993D02*
X022116Y043993D01*
X022116Y044041D02*
X021968Y044041D01*
X021968Y044089D02*
X022116Y044089D01*
X022116Y044137D02*
X021968Y044137D01*
X021968Y044185D02*
X022116Y044185D01*
X022116Y044233D02*
X021968Y044233D01*
X021968Y044281D02*
X022116Y044281D01*
X022313Y044303D02*
X022313Y043801D01*
X022165Y043801D01*
X022165Y044303D01*
X022313Y044303D01*
X022313Y043849D02*
X022165Y043849D01*
X022165Y043897D02*
X022313Y043897D01*
X022313Y043945D02*
X022165Y043945D01*
X022165Y043993D02*
X022313Y043993D01*
X022313Y044041D02*
X022165Y044041D01*
X022165Y044089D02*
X022313Y044089D01*
X022313Y044137D02*
X022165Y044137D01*
X022165Y044185D02*
X022313Y044185D01*
X022313Y044233D02*
X022165Y044233D01*
X022165Y044281D02*
X022313Y044281D01*
X022510Y044303D02*
X022510Y043801D01*
X022362Y043801D01*
X022362Y044303D01*
X022510Y044303D01*
X022510Y043849D02*
X022362Y043849D01*
X022362Y043897D02*
X022510Y043897D01*
X022510Y043945D02*
X022362Y043945D01*
X022362Y043993D02*
X022510Y043993D01*
X022510Y044041D02*
X022362Y044041D01*
X022362Y044089D02*
X022510Y044089D01*
X022510Y044137D02*
X022362Y044137D01*
X022362Y044185D02*
X022510Y044185D01*
X022510Y044233D02*
X022362Y044233D01*
X022362Y044281D02*
X022510Y044281D01*
X022707Y044303D02*
X022707Y043801D01*
X022559Y043801D01*
X022559Y044303D01*
X022707Y044303D01*
X022707Y043849D02*
X022559Y043849D01*
X022559Y043897D02*
X022707Y043897D01*
X022707Y043945D02*
X022559Y043945D01*
X022559Y043993D02*
X022707Y043993D01*
X022707Y044041D02*
X022559Y044041D01*
X022559Y044089D02*
X022707Y044089D01*
X022707Y044137D02*
X022559Y044137D01*
X022559Y044185D02*
X022707Y044185D01*
X022707Y044233D02*
X022559Y044233D01*
X022559Y044281D02*
X022707Y044281D01*
X022904Y044303D02*
X022904Y043801D01*
X022756Y043801D01*
X022756Y044303D01*
X022904Y044303D01*
X022904Y043849D02*
X022756Y043849D01*
X022756Y043897D02*
X022904Y043897D01*
X022904Y043945D02*
X022756Y043945D01*
X022756Y043993D02*
X022904Y043993D01*
X022904Y044041D02*
X022756Y044041D01*
X022756Y044089D02*
X022904Y044089D01*
X022904Y044137D02*
X022756Y044137D01*
X022756Y044185D02*
X022904Y044185D01*
X022904Y044233D02*
X022756Y044233D01*
X022756Y044281D02*
X022904Y044281D01*
X023101Y044303D02*
X023101Y043801D01*
X022953Y043801D01*
X022953Y044303D01*
X023101Y044303D01*
X023101Y043849D02*
X022953Y043849D01*
X022953Y043897D02*
X023101Y043897D01*
X023101Y043945D02*
X022953Y043945D01*
X022953Y043993D02*
X023101Y043993D01*
X023101Y044041D02*
X022953Y044041D01*
X022953Y044089D02*
X023101Y044089D01*
X023101Y044137D02*
X022953Y044137D01*
X022953Y044185D02*
X023101Y044185D01*
X023101Y044233D02*
X022953Y044233D01*
X022953Y044281D02*
X023101Y044281D01*
X023298Y044303D02*
X023298Y043801D01*
X023150Y043801D01*
X023150Y044303D01*
X023298Y044303D01*
X023298Y043849D02*
X023150Y043849D01*
X023150Y043897D02*
X023298Y043897D01*
X023298Y043945D02*
X023150Y043945D01*
X023150Y043993D02*
X023298Y043993D01*
X023298Y044041D02*
X023150Y044041D01*
X023150Y044089D02*
X023298Y044089D01*
X023298Y044137D02*
X023150Y044137D01*
X023150Y044185D02*
X023298Y044185D01*
X023298Y044233D02*
X023150Y044233D01*
X023150Y044281D02*
X023298Y044281D01*
X023494Y044303D02*
X023494Y043801D01*
X023346Y043801D01*
X023346Y044303D01*
X023494Y044303D01*
X023494Y043849D02*
X023346Y043849D01*
X023346Y043897D02*
X023494Y043897D01*
X023494Y043945D02*
X023346Y043945D01*
X023346Y043993D02*
X023494Y043993D01*
X023494Y044041D02*
X023346Y044041D01*
X023346Y044089D02*
X023494Y044089D01*
X023494Y044137D02*
X023346Y044137D01*
X023346Y044185D02*
X023494Y044185D01*
X023494Y044233D02*
X023346Y044233D01*
X023346Y044281D02*
X023494Y044281D01*
X023691Y044303D02*
X023691Y043801D01*
X023543Y043801D01*
X023543Y044303D01*
X023691Y044303D01*
X023691Y043849D02*
X023543Y043849D01*
X023543Y043897D02*
X023691Y043897D01*
X023691Y043945D02*
X023543Y043945D01*
X023543Y043993D02*
X023691Y043993D01*
X023691Y044041D02*
X023543Y044041D01*
X023543Y044089D02*
X023691Y044089D01*
X023691Y044137D02*
X023543Y044137D01*
X023543Y044185D02*
X023691Y044185D01*
X023691Y044233D02*
X023543Y044233D01*
X023543Y044281D02*
X023691Y044281D01*
X023888Y044303D02*
X023888Y043801D01*
X023740Y043801D01*
X023740Y044303D01*
X023888Y044303D01*
X023888Y043849D02*
X023740Y043849D01*
X023740Y043897D02*
X023888Y043897D01*
X023888Y043945D02*
X023740Y043945D01*
X023740Y043993D02*
X023888Y043993D01*
X023888Y044041D02*
X023740Y044041D01*
X023740Y044089D02*
X023888Y044089D01*
X023888Y044137D02*
X023740Y044137D01*
X023740Y044185D02*
X023888Y044185D01*
X023888Y044233D02*
X023740Y044233D01*
X023740Y044281D02*
X023888Y044281D01*
X024085Y044303D02*
X024085Y043801D01*
X023937Y043801D01*
X023937Y044303D01*
X024085Y044303D01*
X024085Y043849D02*
X023937Y043849D01*
X023937Y043897D02*
X024085Y043897D01*
X024085Y043945D02*
X023937Y043945D01*
X023937Y043993D02*
X024085Y043993D01*
X024085Y044041D02*
X023937Y044041D01*
X023937Y044089D02*
X024085Y044089D01*
X024085Y044137D02*
X023937Y044137D01*
X023937Y044185D02*
X024085Y044185D01*
X024085Y044233D02*
X023937Y044233D01*
X023937Y044281D02*
X024085Y044281D01*
X024282Y044303D02*
X024282Y043801D01*
X024134Y043801D01*
X024134Y044303D01*
X024282Y044303D01*
X024282Y043849D02*
X024134Y043849D01*
X024134Y043897D02*
X024282Y043897D01*
X024282Y043945D02*
X024134Y043945D01*
X024134Y043993D02*
X024282Y043993D01*
X024282Y044041D02*
X024134Y044041D01*
X024134Y044089D02*
X024282Y044089D01*
X024282Y044137D02*
X024134Y044137D01*
X024134Y044185D02*
X024282Y044185D01*
X024282Y044233D02*
X024134Y044233D01*
X024134Y044281D02*
X024282Y044281D01*
X024479Y044303D02*
X024479Y043801D01*
X024331Y043801D01*
X024331Y044303D01*
X024479Y044303D01*
X024479Y043849D02*
X024331Y043849D01*
X024331Y043897D02*
X024479Y043897D01*
X024479Y043945D02*
X024331Y043945D01*
X024331Y043993D02*
X024479Y043993D01*
X024479Y044041D02*
X024331Y044041D01*
X024331Y044089D02*
X024479Y044089D01*
X024479Y044137D02*
X024331Y044137D01*
X024331Y044185D02*
X024479Y044185D01*
X024479Y044233D02*
X024331Y044233D01*
X024331Y044281D02*
X024479Y044281D01*
X024676Y044303D02*
X024676Y043801D01*
X024528Y043801D01*
X024528Y044303D01*
X024676Y044303D01*
X024676Y043849D02*
X024528Y043849D01*
X024528Y043897D02*
X024676Y043897D01*
X024676Y043945D02*
X024528Y043945D01*
X024528Y043993D02*
X024676Y043993D01*
X024676Y044041D02*
X024528Y044041D01*
X024528Y044089D02*
X024676Y044089D01*
X024676Y044137D02*
X024528Y044137D01*
X024528Y044185D02*
X024676Y044185D01*
X024676Y044233D02*
X024528Y044233D01*
X024528Y044281D02*
X024676Y044281D01*
X024872Y044303D02*
X024872Y043801D01*
X024724Y043801D01*
X024724Y044303D01*
X024872Y044303D01*
X024872Y043849D02*
X024724Y043849D01*
X024724Y043897D02*
X024872Y043897D01*
X024872Y043945D02*
X024724Y043945D01*
X024724Y043993D02*
X024872Y043993D01*
X024872Y044041D02*
X024724Y044041D01*
X024724Y044089D02*
X024872Y044089D01*
X024872Y044137D02*
X024724Y044137D01*
X024724Y044185D02*
X024872Y044185D01*
X024872Y044233D02*
X024724Y044233D01*
X024724Y044281D02*
X024872Y044281D01*
D27*
X024794Y024767D02*
X024794Y023771D01*
X024546Y023771D01*
X024546Y024767D01*
X024794Y024767D01*
X024794Y023853D02*
X024546Y023853D01*
X024546Y023935D02*
X024794Y023935D01*
X024794Y024017D02*
X024546Y024017D01*
X024546Y024099D02*
X024794Y024099D01*
X024794Y024181D02*
X024546Y024181D01*
X024546Y024263D02*
X024794Y024263D01*
X024794Y024345D02*
X024546Y024345D01*
X024546Y024427D02*
X024794Y024427D01*
X024794Y024509D02*
X024546Y024509D01*
X024546Y024591D02*
X024794Y024591D01*
X024794Y024673D02*
X024546Y024673D01*
X024546Y024755D02*
X024794Y024755D01*
X025294Y024767D02*
X025294Y023771D01*
X025046Y023771D01*
X025046Y024767D01*
X025294Y024767D01*
X025294Y023853D02*
X025046Y023853D01*
X025046Y023935D02*
X025294Y023935D01*
X025294Y024017D02*
X025046Y024017D01*
X025046Y024099D02*
X025294Y024099D01*
X025294Y024181D02*
X025046Y024181D01*
X025046Y024263D02*
X025294Y024263D01*
X025294Y024345D02*
X025046Y024345D01*
X025046Y024427D02*
X025294Y024427D01*
X025294Y024509D02*
X025046Y024509D01*
X025046Y024591D02*
X025294Y024591D01*
X025294Y024673D02*
X025046Y024673D01*
X025046Y024755D02*
X025294Y024755D01*
X024294Y024767D02*
X024294Y023771D01*
X024046Y023771D01*
X024046Y024767D01*
X024294Y024767D01*
X024294Y023853D02*
X024046Y023853D01*
X024046Y023935D02*
X024294Y023935D01*
X024294Y024017D02*
X024046Y024017D01*
X024046Y024099D02*
X024294Y024099D01*
X024294Y024181D02*
X024046Y024181D01*
X024046Y024263D02*
X024294Y024263D01*
X024294Y024345D02*
X024046Y024345D01*
X024046Y024427D02*
X024294Y024427D01*
X024294Y024509D02*
X024046Y024509D01*
X024046Y024591D02*
X024294Y024591D01*
X024294Y024673D02*
X024046Y024673D01*
X024046Y024755D02*
X024294Y024755D01*
X023794Y024767D02*
X023794Y023771D01*
X023546Y023771D01*
X023546Y024767D01*
X023794Y024767D01*
X023794Y023853D02*
X023546Y023853D01*
X023546Y023935D02*
X023794Y023935D01*
X023794Y024017D02*
X023546Y024017D01*
X023546Y024099D02*
X023794Y024099D01*
X023794Y024181D02*
X023546Y024181D01*
X023546Y024263D02*
X023794Y024263D01*
X023794Y024345D02*
X023546Y024345D01*
X023546Y024427D02*
X023794Y024427D01*
X023794Y024509D02*
X023546Y024509D01*
X023546Y024591D02*
X023794Y024591D01*
X023794Y024673D02*
X023546Y024673D01*
X023546Y024755D02*
X023794Y024755D01*
X023294Y024767D02*
X023294Y023771D01*
X023046Y023771D01*
X023046Y024767D01*
X023294Y024767D01*
X023294Y023853D02*
X023046Y023853D01*
X023046Y023935D02*
X023294Y023935D01*
X023294Y024017D02*
X023046Y024017D01*
X023046Y024099D02*
X023294Y024099D01*
X023294Y024181D02*
X023046Y024181D01*
X023046Y024263D02*
X023294Y024263D01*
X023294Y024345D02*
X023046Y024345D01*
X023046Y024427D02*
X023294Y024427D01*
X023294Y024509D02*
X023046Y024509D01*
X023046Y024591D02*
X023294Y024591D01*
X023294Y024673D02*
X023046Y024673D01*
X023046Y024755D02*
X023294Y024755D01*
X022794Y024767D02*
X022794Y023771D01*
X022546Y023771D01*
X022546Y024767D01*
X022794Y024767D01*
X022794Y023853D02*
X022546Y023853D01*
X022546Y023935D02*
X022794Y023935D01*
X022794Y024017D02*
X022546Y024017D01*
X022546Y024099D02*
X022794Y024099D01*
X022794Y024181D02*
X022546Y024181D01*
X022546Y024263D02*
X022794Y024263D01*
X022794Y024345D02*
X022546Y024345D01*
X022546Y024427D02*
X022794Y024427D01*
X022794Y024509D02*
X022546Y024509D01*
X022546Y024591D02*
X022794Y024591D01*
X022794Y024673D02*
X022546Y024673D01*
X022546Y024755D02*
X022794Y024755D01*
X022294Y024767D02*
X022294Y023771D01*
X022046Y023771D01*
X022046Y024767D01*
X022294Y024767D01*
X022294Y023853D02*
X022046Y023853D01*
X022046Y023935D02*
X022294Y023935D01*
X022294Y024017D02*
X022046Y024017D01*
X022046Y024099D02*
X022294Y024099D01*
X022294Y024181D02*
X022046Y024181D01*
X022046Y024263D02*
X022294Y024263D01*
X022294Y024345D02*
X022046Y024345D01*
X022046Y024427D02*
X022294Y024427D01*
X022294Y024509D02*
X022046Y024509D01*
X022046Y024591D02*
X022294Y024591D01*
X022294Y024673D02*
X022046Y024673D01*
X022046Y024755D02*
X022294Y024755D01*
X021794Y024767D02*
X021794Y023771D01*
X021546Y023771D01*
X021546Y024767D01*
X021794Y024767D01*
X021794Y023853D02*
X021546Y023853D01*
X021546Y023935D02*
X021794Y023935D01*
X021794Y024017D02*
X021546Y024017D01*
X021546Y024099D02*
X021794Y024099D01*
X021794Y024181D02*
X021546Y024181D01*
X021546Y024263D02*
X021794Y024263D01*
X021794Y024345D02*
X021546Y024345D01*
X021546Y024427D02*
X021794Y024427D01*
X021794Y024509D02*
X021546Y024509D01*
X021546Y024591D02*
X021794Y024591D01*
X021794Y024673D02*
X021546Y024673D01*
X021546Y024755D02*
X021794Y024755D01*
D28*
X021324Y020557D02*
X021324Y018697D01*
X020516Y018697D01*
X020516Y020557D01*
X021324Y020557D01*
X021324Y018966D02*
X020516Y018966D01*
X020516Y019235D02*
X021324Y019235D01*
X021324Y019504D02*
X020516Y019504D01*
X020516Y019773D02*
X021324Y019773D01*
X021324Y020042D02*
X020516Y020042D01*
X020516Y020311D02*
X021324Y020311D01*
X026324Y020557D02*
X026324Y018697D01*
X025516Y018697D01*
X025516Y020557D01*
X026324Y020557D01*
X026324Y018966D02*
X025516Y018966D01*
X025516Y019235D02*
X026324Y019235D01*
X026324Y019504D02*
X025516Y019504D01*
X025516Y019773D02*
X026324Y019773D01*
X026324Y020042D02*
X025516Y020042D01*
X025516Y020311D02*
X026324Y020311D01*
D29*
X034794Y028290D02*
X034794Y028752D01*
X034794Y028290D02*
X034528Y028290D01*
X034528Y028752D01*
X034794Y028752D01*
X034794Y028378D02*
X034528Y028378D01*
X034528Y028466D02*
X034794Y028466D01*
X034794Y028554D02*
X034528Y028554D01*
X034528Y028642D02*
X034794Y028642D01*
X034794Y028730D02*
X034528Y028730D01*
X035168Y028752D02*
X035168Y028290D01*
X034902Y028290D01*
X034902Y028752D01*
X035168Y028752D01*
X035168Y028378D02*
X034902Y028378D01*
X034902Y028466D02*
X035168Y028466D01*
X035168Y028554D02*
X034902Y028554D01*
X034902Y028642D02*
X035168Y028642D01*
X035168Y028730D02*
X034902Y028730D01*
X035542Y028752D02*
X035542Y028290D01*
X035276Y028290D01*
X035276Y028752D01*
X035542Y028752D01*
X035542Y028378D02*
X035276Y028378D01*
X035276Y028466D02*
X035542Y028466D01*
X035542Y028554D02*
X035276Y028554D01*
X035276Y028642D02*
X035542Y028642D01*
X035542Y028730D02*
X035276Y028730D01*
X035542Y029235D02*
X035542Y029697D01*
X035542Y029235D02*
X035276Y029235D01*
X035276Y029697D01*
X035542Y029697D01*
X035542Y029323D02*
X035276Y029323D01*
X035276Y029411D02*
X035542Y029411D01*
X035542Y029499D02*
X035276Y029499D01*
X035276Y029587D02*
X035542Y029587D01*
X035542Y029675D02*
X035276Y029675D01*
X035168Y029697D02*
X035168Y029235D01*
X034902Y029235D01*
X034902Y029697D01*
X035168Y029697D01*
X035168Y029323D02*
X034902Y029323D01*
X034902Y029411D02*
X035168Y029411D01*
X035168Y029499D02*
X034902Y029499D01*
X034902Y029587D02*
X035168Y029587D01*
X035168Y029675D02*
X034902Y029675D01*
X034794Y029697D02*
X034794Y029235D01*
X034528Y029235D01*
X034528Y029697D01*
X034794Y029697D01*
X034794Y029323D02*
X034528Y029323D01*
X034528Y029411D02*
X034794Y029411D01*
X034794Y029499D02*
X034528Y029499D01*
X034528Y029587D02*
X034794Y029587D01*
X034794Y029675D02*
X034528Y029675D01*
X033898Y031636D02*
X033898Y032098D01*
X034164Y032098D01*
X034164Y031636D01*
X033898Y031636D01*
X033898Y031724D02*
X034164Y031724D01*
X034164Y031812D02*
X033898Y031812D01*
X033898Y031900D02*
X034164Y031900D01*
X034164Y031988D02*
X033898Y031988D01*
X033898Y032076D02*
X034164Y032076D01*
X033524Y032098D02*
X033524Y031636D01*
X033524Y032098D02*
X033790Y032098D01*
X033790Y031636D01*
X033524Y031636D01*
X033524Y031724D02*
X033790Y031724D01*
X033790Y031812D02*
X033524Y031812D01*
X033524Y031900D02*
X033790Y031900D01*
X033790Y031988D02*
X033524Y031988D01*
X033524Y032076D02*
X033790Y032076D01*
X033150Y032098D02*
X033150Y031636D01*
X033150Y032098D02*
X033416Y032098D01*
X033416Y031636D01*
X033150Y031636D01*
X033150Y031724D02*
X033416Y031724D01*
X033416Y031812D02*
X033150Y031812D01*
X033150Y031900D02*
X033416Y031900D01*
X033416Y031988D02*
X033150Y031988D01*
X033150Y032076D02*
X033416Y032076D01*
X033150Y032581D02*
X033150Y033043D01*
X033416Y033043D01*
X033416Y032581D01*
X033150Y032581D01*
X033150Y032669D02*
X033416Y032669D01*
X033416Y032757D02*
X033150Y032757D01*
X033150Y032845D02*
X033416Y032845D01*
X033416Y032933D02*
X033150Y032933D01*
X033150Y033021D02*
X033416Y033021D01*
X033524Y033043D02*
X033524Y032581D01*
X033524Y033043D02*
X033790Y033043D01*
X033790Y032581D01*
X033524Y032581D01*
X033524Y032669D02*
X033790Y032669D01*
X033790Y032757D02*
X033524Y032757D01*
X033524Y032845D02*
X033790Y032845D01*
X033790Y032933D02*
X033524Y032933D01*
X033524Y033021D02*
X033790Y033021D01*
X033898Y033043D02*
X033898Y032581D01*
X033898Y033043D02*
X034164Y033043D01*
X034164Y032581D01*
X033898Y032581D01*
X033898Y032669D02*
X034164Y032669D01*
X034164Y032757D02*
X033898Y032757D01*
X033898Y032845D02*
X034164Y032845D01*
X034164Y032933D02*
X033898Y032933D01*
X033898Y033021D02*
X034164Y033021D01*
X034095Y036755D02*
X034095Y037217D01*
X034361Y037217D01*
X034361Y036755D01*
X034095Y036755D01*
X034095Y036843D02*
X034361Y036843D01*
X034361Y036931D02*
X034095Y036931D01*
X034095Y037019D02*
X034361Y037019D01*
X034361Y037107D02*
X034095Y037107D01*
X034095Y037195D02*
X034361Y037195D01*
X033721Y037217D02*
X033721Y036755D01*
X033721Y037217D02*
X033987Y037217D01*
X033987Y036755D01*
X033721Y036755D01*
X033721Y036843D02*
X033987Y036843D01*
X033987Y036931D02*
X033721Y036931D01*
X033721Y037019D02*
X033987Y037019D01*
X033987Y037107D02*
X033721Y037107D01*
X033721Y037195D02*
X033987Y037195D01*
X033347Y037217D02*
X033347Y036755D01*
X033347Y037217D02*
X033613Y037217D01*
X033613Y036755D01*
X033347Y036755D01*
X033347Y036843D02*
X033613Y036843D01*
X033613Y036931D02*
X033347Y036931D01*
X033347Y037019D02*
X033613Y037019D01*
X033613Y037107D02*
X033347Y037107D01*
X033347Y037195D02*
X033613Y037195D01*
X033347Y037699D02*
X033347Y038161D01*
X033613Y038161D01*
X033613Y037699D01*
X033347Y037699D01*
X033347Y037787D02*
X033613Y037787D01*
X033613Y037875D02*
X033347Y037875D01*
X033347Y037963D02*
X033613Y037963D01*
X033613Y038051D02*
X033347Y038051D01*
X033347Y038139D02*
X033613Y038139D01*
X033721Y038161D02*
X033721Y037699D01*
X033721Y038161D02*
X033987Y038161D01*
X033987Y037699D01*
X033721Y037699D01*
X033721Y037787D02*
X033987Y037787D01*
X033987Y037875D02*
X033721Y037875D01*
X033721Y037963D02*
X033987Y037963D01*
X033987Y038051D02*
X033721Y038051D01*
X033721Y038139D02*
X033987Y038139D01*
X034095Y038161D02*
X034095Y037699D01*
X034095Y038161D02*
X034361Y038161D01*
X034361Y037699D01*
X034095Y037699D01*
X034095Y037787D02*
X034361Y037787D01*
X034361Y037875D02*
X034095Y037875D01*
X034095Y037963D02*
X034361Y037963D01*
X034361Y038051D02*
X034095Y038051D01*
X034095Y038139D02*
X034361Y038139D01*
D30*
X032136Y037049D02*
X031240Y037049D01*
X031240Y037433D01*
X032136Y037433D01*
X032136Y037049D01*
X032136Y037176D02*
X031240Y037176D01*
X031240Y037303D02*
X032136Y037303D01*
X032136Y037430D02*
X031240Y037430D01*
X029380Y033900D02*
X028484Y033900D01*
X028484Y034284D01*
X029380Y034284D01*
X029380Y033900D01*
X029380Y034027D02*
X028484Y034027D01*
X028484Y034154D02*
X029380Y034154D01*
X029380Y034281D02*
X028484Y034281D01*
X032028Y029766D02*
X032924Y029766D01*
X032028Y029766D02*
X032028Y030150D01*
X032924Y030150D01*
X032924Y029766D01*
X032924Y029893D02*
X032028Y029893D01*
X032028Y030020D02*
X032924Y030020D01*
X032924Y030147D02*
X032028Y030147D01*
X020709Y033723D02*
X020709Y034107D01*
X021447Y034107D01*
X021447Y033723D01*
X020709Y033723D01*
X020709Y033850D02*
X021447Y033850D01*
X021447Y033977D02*
X020709Y033977D01*
X020709Y034104D02*
X021447Y034104D01*
X030984Y054018D02*
X031604Y054018D01*
X030984Y054018D02*
X030984Y054402D01*
X031604Y054402D01*
X031604Y054018D01*
X031604Y054145D02*
X030984Y054145D01*
X030984Y054272D02*
X031604Y054272D01*
X031604Y054399D02*
X030984Y054399D01*
X030984Y055160D02*
X031604Y055160D01*
X030984Y055160D02*
X030984Y055544D01*
X031604Y055544D01*
X031604Y055160D01*
X031604Y055287D02*
X030984Y055287D01*
X030984Y055414D02*
X031604Y055414D01*
X031604Y055541D02*
X030984Y055541D01*
D31*
X031338Y036005D02*
X031338Y035485D01*
X030896Y035485D01*
X030896Y036005D01*
X031338Y036005D01*
X031338Y035632D02*
X030896Y035632D01*
X030896Y035779D02*
X031338Y035779D01*
X031338Y035926D02*
X030896Y035926D01*
X032480Y036005D02*
X032480Y035485D01*
X032038Y035485D01*
X032038Y036005D01*
X032480Y036005D01*
X032480Y035632D02*
X032038Y035632D01*
X032038Y035779D02*
X032480Y035779D01*
X032480Y035926D02*
X032038Y035926D01*
X029724Y032856D02*
X029724Y032336D01*
X029282Y032336D01*
X029282Y032856D01*
X029724Y032856D01*
X029724Y032483D02*
X029282Y032483D01*
X029282Y032630D02*
X029724Y032630D01*
X029724Y032777D02*
X029282Y032777D01*
X028582Y032856D02*
X028582Y032336D01*
X028140Y032336D01*
X028140Y032856D01*
X028582Y032856D01*
X028582Y032483D02*
X028140Y032483D01*
X028140Y032630D02*
X028582Y032630D01*
X028582Y032777D02*
X028140Y032777D01*
X032126Y028722D02*
X032126Y028202D01*
X031684Y028202D01*
X031684Y028722D01*
X032126Y028722D01*
X032126Y028349D02*
X031684Y028349D01*
X031684Y028496D02*
X032126Y028496D01*
X032126Y028643D02*
X031684Y028643D01*
X033267Y028722D02*
X033267Y028202D01*
X032825Y028202D01*
X032825Y028722D01*
X033267Y028722D01*
X033267Y028349D02*
X032825Y028349D01*
X032825Y028496D02*
X033267Y028496D01*
X033267Y028643D02*
X032825Y028643D01*
D32*
X033992Y026600D02*
X034502Y026600D01*
X033992Y026600D02*
X033992Y027036D01*
X034502Y027036D01*
X034502Y026600D01*
X034502Y026745D02*
X033992Y026745D01*
X033992Y026890D02*
X034502Y026890D01*
X034502Y027035D02*
X033992Y027035D01*
X033992Y025832D02*
X034502Y025832D01*
X033992Y025832D02*
X033992Y026268D01*
X034502Y026268D01*
X034502Y025832D01*
X034502Y025977D02*
X033992Y025977D01*
X033992Y026122D02*
X034502Y026122D01*
X034502Y026267D02*
X033992Y026267D01*
X029384Y027998D02*
X028874Y027998D01*
X028874Y028434D01*
X029384Y028434D01*
X029384Y027998D01*
X029384Y028143D02*
X028874Y028143D01*
X028874Y028288D02*
X029384Y028288D01*
X029384Y028433D02*
X028874Y028433D01*
X028874Y028766D02*
X029384Y028766D01*
X028874Y028766D02*
X028874Y029202D01*
X029384Y029202D01*
X029384Y028766D01*
X029384Y028911D02*
X028874Y028911D01*
X028874Y029056D02*
X029384Y029056D01*
X029384Y029201D02*
X028874Y029201D01*
X028400Y028766D02*
X027890Y028766D01*
X027890Y029202D01*
X028400Y029202D01*
X028400Y028766D01*
X028400Y028911D02*
X027890Y028911D01*
X027890Y029056D02*
X028400Y029056D01*
X028400Y029201D02*
X027890Y029201D01*
X027890Y027998D02*
X028400Y027998D01*
X027890Y027998D02*
X027890Y028434D01*
X028400Y028434D01*
X028400Y027998D01*
X028400Y028143D02*
X027890Y028143D01*
X027890Y028288D02*
X028400Y028288D01*
X028400Y028433D02*
X027890Y028433D01*
X026581Y031888D02*
X026581Y032398D01*
X026581Y031888D02*
X026145Y031888D01*
X026145Y032398D01*
X026581Y032398D01*
X026581Y032033D02*
X026145Y032033D01*
X026145Y032178D02*
X026581Y032178D01*
X026581Y032323D02*
X026145Y032323D01*
X025814Y032398D02*
X025814Y031888D01*
X025378Y031888D01*
X025378Y032398D01*
X025814Y032398D01*
X025814Y032033D02*
X025378Y032033D01*
X025378Y032178D02*
X025814Y032178D01*
X025814Y032323D02*
X025378Y032323D01*
X028677Y035560D02*
X029187Y035560D01*
X029187Y035124D01*
X028677Y035124D01*
X028677Y035560D01*
X028677Y035269D02*
X029187Y035269D01*
X029187Y035414D02*
X028677Y035414D01*
X028677Y035559D02*
X029187Y035559D01*
X029187Y036328D02*
X028677Y036328D01*
X029187Y036328D02*
X029187Y035892D01*
X028677Y035892D01*
X028677Y036328D01*
X028677Y036037D02*
X029187Y036037D01*
X029187Y036182D02*
X028677Y036182D01*
X028677Y036327D02*
X029187Y036327D01*
X026385Y038738D02*
X026385Y039248D01*
X026385Y038738D02*
X025949Y038738D01*
X025949Y039248D01*
X026385Y039248D01*
X026385Y038883D02*
X025949Y038883D01*
X025949Y039028D02*
X026385Y039028D01*
X026385Y039173D02*
X025949Y039173D01*
X025617Y039248D02*
X025617Y038738D01*
X025181Y038738D01*
X025181Y039248D01*
X025617Y039248D01*
X025617Y038883D02*
X025181Y038883D01*
X025181Y039028D02*
X025617Y039028D01*
X025617Y039173D02*
X025181Y039173D01*
X025617Y039762D02*
X025617Y040272D01*
X025617Y039762D02*
X025181Y039762D01*
X025181Y040272D01*
X025617Y040272D01*
X025617Y039907D02*
X025181Y039907D01*
X025181Y040052D02*
X025617Y040052D01*
X025617Y040197D02*
X025181Y040197D01*
X026385Y040272D02*
X026385Y039762D01*
X025949Y039762D01*
X025949Y040272D01*
X026385Y040272D01*
X026385Y039907D02*
X025949Y039907D01*
X025949Y040052D02*
X026385Y040052D01*
X026385Y040197D02*
X025949Y040197D01*
X015319Y027870D02*
X015319Y027360D01*
X015319Y027870D02*
X015755Y027870D01*
X015755Y027360D01*
X015319Y027360D01*
X015319Y027505D02*
X015755Y027505D01*
X015755Y027650D02*
X015319Y027650D01*
X015319Y027795D02*
X015755Y027795D01*
X014551Y027870D02*
X014551Y027360D01*
X014551Y027870D02*
X014987Y027870D01*
X014987Y027360D01*
X014551Y027360D01*
X014551Y027505D02*
X014987Y027505D01*
X014987Y027650D02*
X014551Y027650D01*
X014551Y027795D02*
X014987Y027795D01*
D33*
X028173Y024815D02*
X028173Y023919D01*
X028173Y024815D02*
X028675Y024815D01*
X028675Y023919D01*
X028173Y023919D01*
X028173Y024085D02*
X028675Y024085D01*
X028675Y024251D02*
X028173Y024251D01*
X028173Y024417D02*
X028675Y024417D01*
X028675Y024583D02*
X028173Y024583D01*
X028173Y024749D02*
X028675Y024749D01*
X029173Y024815D02*
X029173Y023919D01*
X029173Y024815D02*
X029675Y024815D01*
X029675Y023919D01*
X029173Y023919D01*
X029173Y024085D02*
X029675Y024085D01*
X029675Y024251D02*
X029173Y024251D01*
X029173Y024417D02*
X029675Y024417D01*
X029675Y024583D02*
X029173Y024583D01*
X029173Y024749D02*
X029675Y024749D01*
X030173Y024815D02*
X030173Y023919D01*
X030173Y024815D02*
X030675Y024815D01*
X030675Y023919D01*
X030173Y023919D01*
X030173Y024085D02*
X030675Y024085D01*
X030675Y024251D02*
X030173Y024251D01*
X030173Y024417D02*
X030675Y024417D01*
X030675Y024583D02*
X030173Y024583D01*
X030173Y024749D02*
X030675Y024749D01*
X032504Y024815D02*
X032504Y023919D01*
X032504Y024815D02*
X033006Y024815D01*
X033006Y023919D01*
X032504Y023919D01*
X032504Y024085D02*
X033006Y024085D01*
X033006Y024251D02*
X032504Y024251D01*
X032504Y024417D02*
X033006Y024417D01*
X033006Y024583D02*
X032504Y024583D01*
X032504Y024749D02*
X033006Y024749D01*
X033504Y024815D02*
X033504Y023919D01*
X033504Y024815D02*
X034006Y024815D01*
X034006Y023919D01*
X033504Y023919D01*
X033504Y024085D02*
X034006Y024085D01*
X034006Y024251D02*
X033504Y024251D01*
X033504Y024417D02*
X034006Y024417D01*
X034006Y024583D02*
X033504Y024583D01*
X033504Y024749D02*
X034006Y024749D01*
X034504Y024815D02*
X034504Y023919D01*
X034504Y024815D02*
X035006Y024815D01*
X035006Y023919D01*
X034504Y023919D01*
X034504Y024085D02*
X035006Y024085D01*
X035006Y024251D02*
X034504Y024251D01*
X034504Y024417D02*
X035006Y024417D01*
X035006Y024583D02*
X034504Y024583D01*
X034504Y024749D02*
X035006Y024749D01*
X034504Y019894D02*
X034504Y018998D01*
X034504Y019894D02*
X035006Y019894D01*
X035006Y018998D01*
X034504Y018998D01*
X034504Y019164D02*
X035006Y019164D01*
X035006Y019330D02*
X034504Y019330D01*
X034504Y019496D02*
X035006Y019496D01*
X035006Y019662D02*
X034504Y019662D01*
X034504Y019828D02*
X035006Y019828D01*
X033504Y019894D02*
X033504Y018998D01*
X033504Y019894D02*
X034006Y019894D01*
X034006Y018998D01*
X033504Y018998D01*
X033504Y019164D02*
X034006Y019164D01*
X034006Y019330D02*
X033504Y019330D01*
X033504Y019496D02*
X034006Y019496D01*
X034006Y019662D02*
X033504Y019662D01*
X033504Y019828D02*
X034006Y019828D01*
X032504Y019894D02*
X032504Y018998D01*
X032504Y019894D02*
X033006Y019894D01*
X033006Y018998D01*
X032504Y018998D01*
X032504Y019164D02*
X033006Y019164D01*
X033006Y019330D02*
X032504Y019330D01*
X032504Y019496D02*
X033006Y019496D01*
X033006Y019662D02*
X032504Y019662D01*
X032504Y019828D02*
X033006Y019828D01*
X030173Y019894D02*
X030173Y018998D01*
X030173Y019894D02*
X030675Y019894D01*
X030675Y018998D01*
X030173Y018998D01*
X030173Y019164D02*
X030675Y019164D01*
X030675Y019330D02*
X030173Y019330D01*
X030173Y019496D02*
X030675Y019496D01*
X030675Y019662D02*
X030173Y019662D01*
X030173Y019828D02*
X030675Y019828D01*
X029173Y019894D02*
X029173Y018998D01*
X029173Y019894D02*
X029675Y019894D01*
X029675Y018998D01*
X029173Y018998D01*
X029173Y019164D02*
X029675Y019164D01*
X029675Y019330D02*
X029173Y019330D01*
X029173Y019496D02*
X029675Y019496D01*
X029675Y019662D02*
X029173Y019662D01*
X029173Y019828D02*
X029675Y019828D01*
X028173Y019894D02*
X028173Y018998D01*
X028173Y019894D02*
X028675Y019894D01*
X028675Y018998D01*
X028173Y018998D01*
X028173Y019164D02*
X028675Y019164D01*
X028675Y019330D02*
X028173Y019330D01*
X028173Y019496D02*
X028675Y019496D01*
X028675Y019662D02*
X028173Y019662D01*
X028173Y019828D02*
X028675Y019828D01*
D34*
X025086Y035489D03*
D35*
X024524Y040292D02*
X024524Y040844D01*
X024524Y040292D02*
X024050Y040292D01*
X024050Y040844D01*
X024524Y040844D01*
X024524Y040448D02*
X024050Y040448D01*
X024050Y040604D02*
X024524Y040604D01*
X024524Y040760D02*
X024050Y040760D01*
X023579Y040844D02*
X023579Y040292D01*
X023105Y040292D01*
X023105Y040844D01*
X023579Y040844D01*
X023579Y040448D02*
X023105Y040448D01*
X023105Y040604D02*
X023579Y040604D01*
X023579Y040760D02*
X023105Y040760D01*
X023579Y041946D02*
X023579Y042498D01*
X023579Y041946D02*
X023105Y041946D01*
X023105Y042498D01*
X023579Y042498D01*
X023579Y042102D02*
X023105Y042102D01*
X023105Y042258D02*
X023579Y042258D01*
X023579Y042414D02*
X023105Y042414D01*
X024524Y042498D02*
X024524Y041946D01*
X024050Y041946D01*
X024050Y042498D01*
X024524Y042498D01*
X024524Y042102D02*
X024050Y042102D01*
X024050Y042258D02*
X024524Y042258D01*
X024524Y042414D02*
X024050Y042414D01*
D36*
X023027Y045726D03*
X022042Y045726D03*
X022042Y046930D03*
X023027Y046907D03*
X023224Y048088D03*
X024011Y048088D03*
X024798Y048088D03*
X025980Y046907D03*
X025783Y046119D03*
X022436Y048088D03*
X014956Y053678D03*
X013972Y054112D03*
X013936Y053072D03*
X013972Y055175D03*
X022582Y033761D03*
X030507Y045135D03*
X030507Y046119D03*
X037279Y023442D03*
D37*
X015738Y029825D02*
X013386Y029825D01*
X013386Y030445D01*
X015738Y030445D01*
X015738Y029825D01*
X015738Y030031D02*
X013386Y030031D01*
X013386Y030237D02*
X015738Y030237D01*
X015738Y030443D02*
X013386Y030443D01*
X013386Y032266D02*
X015738Y032266D01*
X013386Y032266D02*
X013386Y032886D01*
X015738Y032886D01*
X015738Y032266D01*
X015738Y032472D02*
X013386Y032472D01*
X013386Y032678D02*
X015738Y032678D01*
X015738Y032884D02*
X013386Y032884D01*
D38*
X013991Y042104D03*
X016747Y042104D03*
X018224Y021415D03*
X018224Y018659D03*
X022672Y018659D03*
X022672Y021415D03*
X027121Y021415D03*
X027121Y018659D03*
X031570Y018659D03*
X031570Y021415D03*
X036019Y021415D03*
X036019Y018659D03*
D39*
X020665Y025844D03*
D40*
X020665Y026631D03*
X021452Y026631D03*
X021452Y025844D03*
X022239Y025844D03*
X022239Y026631D03*
X023027Y026631D03*
X023027Y025844D03*
X023814Y025844D03*
X023814Y026631D03*
X024602Y026631D03*
X024602Y025844D03*
X025389Y025844D03*
X025389Y026631D03*
X026176Y026631D03*
X026176Y025844D03*
D41*
X013214Y044525D03*
X013942Y045135D03*
X013214Y045745D03*
X017318Y055204D03*
X016708Y055932D03*
X017928Y055932D03*
X019464Y055932D03*
X020074Y055204D03*
X020684Y055932D03*
D42*
X015743Y021316D03*
X015743Y019545D03*
D43*
X021255Y041789D03*
X022751Y054367D03*
X024483Y054367D03*
D44*
X025743Y054781D03*
X027948Y052812D03*
X030507Y055175D03*
X032003Y054466D03*
X026058Y049269D03*
X024602Y044741D03*
X023224Y044938D03*
X024995Y042182D03*
X024798Y041395D03*
X022594Y040608D03*
X022042Y038049D03*
X023420Y038049D03*
X027239Y042182D03*
X028617Y042970D03*
X028342Y044466D03*
X026885Y044269D03*
X021649Y054781D03*
X016137Y044741D03*
X018184Y036867D03*
X018184Y036277D03*
X018184Y035647D03*
X018854Y035686D03*
X018854Y036277D03*
X018854Y036867D03*
X016294Y035175D03*
X015625Y035175D03*
X015940Y035804D03*
X015743Y033521D03*
X014956Y033521D03*
X014168Y033521D03*
X016531Y029781D03*
X015743Y028797D03*
X015153Y028797D03*
X014050Y028797D03*
X013381Y028797D03*
X017318Y029781D03*
X018105Y029781D03*
X018893Y029781D03*
D45*
X024168Y038797D03*
X024011Y039466D03*
X027161Y039230D03*
X030743Y043285D03*
X032476Y043757D03*
X033066Y043363D03*
X033066Y041395D03*
X031885Y041395D03*
X033854Y038521D03*
X034917Y036631D03*
X036019Y038049D03*
X032279Y037930D03*
X034838Y032734D03*
X034641Y031356D03*
X034641Y030175D03*
X035035Y027812D03*
X032672Y025253D03*
X028539Y023482D03*
X029287Y018403D03*
X033735Y018403D03*
X024602Y019741D03*
X022239Y019741D03*
X028342Y031749D03*
X019680Y041001D03*
X015940Y041592D03*
X015546Y039623D03*
X020546Y052497D03*
D46*
X017515Y051631D03*
X036413Y051631D03*
X036413Y026041D03*
X014365Y025647D03*
M02*
