G75*
%MOIN*%
%OFA0B0*%
%FSLAX24Y24*%
%IPPOS*%
%LPD*%
%AMOC8*
5,1,8,0,0,1.08239X$1,22.5*
%
%ADD10C,0.0000*%
D10*
X012594Y017182D02*
X012594Y021119D01*
X012594Y056552D01*
X038184Y056552D01*
X038184Y017182D01*
X012594Y017182D01*
X015428Y019545D02*
X015430Y019580D01*
X015436Y019615D01*
X015446Y019649D01*
X015459Y019682D01*
X015476Y019713D01*
X015497Y019741D01*
X015520Y019768D01*
X015547Y019791D01*
X015575Y019812D01*
X015606Y019829D01*
X015639Y019842D01*
X015673Y019852D01*
X015708Y019858D01*
X015743Y019860D01*
X015778Y019858D01*
X015813Y019852D01*
X015847Y019842D01*
X015880Y019829D01*
X015911Y019812D01*
X015939Y019791D01*
X015966Y019768D01*
X015989Y019741D01*
X016010Y019713D01*
X016027Y019682D01*
X016040Y019649D01*
X016050Y019615D01*
X016056Y019580D01*
X016058Y019545D01*
X016056Y019510D01*
X016050Y019475D01*
X016040Y019441D01*
X016027Y019408D01*
X016010Y019377D01*
X015989Y019349D01*
X015966Y019322D01*
X015939Y019299D01*
X015911Y019278D01*
X015880Y019261D01*
X015847Y019248D01*
X015813Y019238D01*
X015778Y019232D01*
X015743Y019230D01*
X015708Y019232D01*
X015673Y019238D01*
X015639Y019248D01*
X015606Y019261D01*
X015575Y019278D01*
X015547Y019299D01*
X015520Y019322D01*
X015497Y019349D01*
X015476Y019377D01*
X015459Y019408D01*
X015446Y019441D01*
X015436Y019475D01*
X015430Y019510D01*
X015428Y019545D01*
X015428Y021316D02*
X015430Y021351D01*
X015436Y021386D01*
X015446Y021420D01*
X015459Y021453D01*
X015476Y021484D01*
X015497Y021512D01*
X015520Y021539D01*
X015547Y021562D01*
X015575Y021583D01*
X015606Y021600D01*
X015639Y021613D01*
X015673Y021623D01*
X015708Y021629D01*
X015743Y021631D01*
X015778Y021629D01*
X015813Y021623D01*
X015847Y021613D01*
X015880Y021600D01*
X015911Y021583D01*
X015939Y021562D01*
X015966Y021539D01*
X015989Y021512D01*
X016010Y021484D01*
X016027Y021453D01*
X016040Y021420D01*
X016050Y021386D01*
X016056Y021351D01*
X016058Y021316D01*
X016056Y021281D01*
X016050Y021246D01*
X016040Y021212D01*
X016027Y021179D01*
X016010Y021148D01*
X015989Y021120D01*
X015966Y021093D01*
X015939Y021070D01*
X015911Y021049D01*
X015880Y021032D01*
X015847Y021019D01*
X015813Y021009D01*
X015778Y021003D01*
X015743Y021001D01*
X015708Y021003D01*
X015673Y021009D01*
X015639Y021019D01*
X015606Y021032D01*
X015575Y021049D01*
X015547Y021070D01*
X015520Y021093D01*
X015497Y021120D01*
X015476Y021148D01*
X015459Y021179D01*
X015446Y021212D01*
X015436Y021246D01*
X015430Y021281D01*
X015428Y021316D01*
X017870Y021415D02*
X017872Y021452D01*
X017878Y021489D01*
X017887Y021524D01*
X017901Y021559D01*
X017917Y021592D01*
X017938Y021623D01*
X017961Y021652D01*
X017987Y021678D01*
X018016Y021701D01*
X018047Y021722D01*
X018080Y021738D01*
X018115Y021752D01*
X018150Y021761D01*
X018187Y021767D01*
X018224Y021769D01*
X018261Y021767D01*
X018298Y021761D01*
X018333Y021752D01*
X018368Y021738D01*
X018401Y021722D01*
X018432Y021701D01*
X018461Y021678D01*
X018487Y021652D01*
X018510Y021623D01*
X018531Y021592D01*
X018547Y021559D01*
X018561Y021524D01*
X018570Y021489D01*
X018576Y021452D01*
X018578Y021415D01*
X018576Y021378D01*
X018570Y021341D01*
X018561Y021306D01*
X018547Y021271D01*
X018531Y021238D01*
X018510Y021207D01*
X018487Y021178D01*
X018461Y021152D01*
X018432Y021129D01*
X018401Y021108D01*
X018368Y021092D01*
X018333Y021078D01*
X018298Y021069D01*
X018261Y021063D01*
X018224Y021061D01*
X018187Y021063D01*
X018150Y021069D01*
X018115Y021078D01*
X018080Y021092D01*
X018047Y021108D01*
X018016Y021129D01*
X017987Y021152D01*
X017961Y021178D01*
X017938Y021207D01*
X017917Y021238D01*
X017901Y021271D01*
X017887Y021306D01*
X017878Y021341D01*
X017872Y021378D01*
X017870Y021415D01*
X017870Y018659D02*
X017872Y018696D01*
X017878Y018733D01*
X017887Y018768D01*
X017901Y018803D01*
X017917Y018836D01*
X017938Y018867D01*
X017961Y018896D01*
X017987Y018922D01*
X018016Y018945D01*
X018047Y018966D01*
X018080Y018982D01*
X018115Y018996D01*
X018150Y019005D01*
X018187Y019011D01*
X018224Y019013D01*
X018261Y019011D01*
X018298Y019005D01*
X018333Y018996D01*
X018368Y018982D01*
X018401Y018966D01*
X018432Y018945D01*
X018461Y018922D01*
X018487Y018896D01*
X018510Y018867D01*
X018531Y018836D01*
X018547Y018803D01*
X018561Y018768D01*
X018570Y018733D01*
X018576Y018696D01*
X018578Y018659D01*
X018576Y018622D01*
X018570Y018585D01*
X018561Y018550D01*
X018547Y018515D01*
X018531Y018482D01*
X018510Y018451D01*
X018487Y018422D01*
X018461Y018396D01*
X018432Y018373D01*
X018401Y018352D01*
X018368Y018336D01*
X018333Y018322D01*
X018298Y018313D01*
X018261Y018307D01*
X018224Y018305D01*
X018187Y018307D01*
X018150Y018313D01*
X018115Y018322D01*
X018080Y018336D01*
X018047Y018352D01*
X018016Y018373D01*
X017987Y018396D01*
X017961Y018422D01*
X017938Y018451D01*
X017917Y018482D01*
X017901Y018515D01*
X017887Y018550D01*
X017878Y018585D01*
X017872Y018622D01*
X017870Y018659D01*
X022318Y018659D02*
X022320Y018696D01*
X022326Y018733D01*
X022335Y018768D01*
X022349Y018803D01*
X022365Y018836D01*
X022386Y018867D01*
X022409Y018896D01*
X022435Y018922D01*
X022464Y018945D01*
X022495Y018966D01*
X022528Y018982D01*
X022563Y018996D01*
X022598Y019005D01*
X022635Y019011D01*
X022672Y019013D01*
X022709Y019011D01*
X022746Y019005D01*
X022781Y018996D01*
X022816Y018982D01*
X022849Y018966D01*
X022880Y018945D01*
X022909Y018922D01*
X022935Y018896D01*
X022958Y018867D01*
X022979Y018836D01*
X022995Y018803D01*
X023009Y018768D01*
X023018Y018733D01*
X023024Y018696D01*
X023026Y018659D01*
X023024Y018622D01*
X023018Y018585D01*
X023009Y018550D01*
X022995Y018515D01*
X022979Y018482D01*
X022958Y018451D01*
X022935Y018422D01*
X022909Y018396D01*
X022880Y018373D01*
X022849Y018352D01*
X022816Y018336D01*
X022781Y018322D01*
X022746Y018313D01*
X022709Y018307D01*
X022672Y018305D01*
X022635Y018307D01*
X022598Y018313D01*
X022563Y018322D01*
X022528Y018336D01*
X022495Y018352D01*
X022464Y018373D01*
X022435Y018396D01*
X022409Y018422D01*
X022386Y018451D01*
X022365Y018482D01*
X022349Y018515D01*
X022335Y018550D01*
X022326Y018585D01*
X022320Y018622D01*
X022318Y018659D01*
X022318Y021415D02*
X022320Y021452D01*
X022326Y021489D01*
X022335Y021524D01*
X022349Y021559D01*
X022365Y021592D01*
X022386Y021623D01*
X022409Y021652D01*
X022435Y021678D01*
X022464Y021701D01*
X022495Y021722D01*
X022528Y021738D01*
X022563Y021752D01*
X022598Y021761D01*
X022635Y021767D01*
X022672Y021769D01*
X022709Y021767D01*
X022746Y021761D01*
X022781Y021752D01*
X022816Y021738D01*
X022849Y021722D01*
X022880Y021701D01*
X022909Y021678D01*
X022935Y021652D01*
X022958Y021623D01*
X022979Y021592D01*
X022995Y021559D01*
X023009Y021524D01*
X023018Y021489D01*
X023024Y021452D01*
X023026Y021415D01*
X023024Y021378D01*
X023018Y021341D01*
X023009Y021306D01*
X022995Y021271D01*
X022979Y021238D01*
X022958Y021207D01*
X022935Y021178D01*
X022909Y021152D01*
X022880Y021129D01*
X022849Y021108D01*
X022816Y021092D01*
X022781Y021078D01*
X022746Y021069D01*
X022709Y021063D01*
X022672Y021061D01*
X022635Y021063D01*
X022598Y021069D01*
X022563Y021078D01*
X022528Y021092D01*
X022495Y021108D01*
X022464Y021129D01*
X022435Y021152D01*
X022409Y021178D01*
X022386Y021207D01*
X022365Y021238D01*
X022349Y021271D01*
X022335Y021306D01*
X022326Y021341D01*
X022320Y021378D01*
X022318Y021415D01*
X026767Y021415D02*
X026769Y021452D01*
X026775Y021489D01*
X026784Y021524D01*
X026798Y021559D01*
X026814Y021592D01*
X026835Y021623D01*
X026858Y021652D01*
X026884Y021678D01*
X026913Y021701D01*
X026944Y021722D01*
X026977Y021738D01*
X027012Y021752D01*
X027047Y021761D01*
X027084Y021767D01*
X027121Y021769D01*
X027158Y021767D01*
X027195Y021761D01*
X027230Y021752D01*
X027265Y021738D01*
X027298Y021722D01*
X027329Y021701D01*
X027358Y021678D01*
X027384Y021652D01*
X027407Y021623D01*
X027428Y021592D01*
X027444Y021559D01*
X027458Y021524D01*
X027467Y021489D01*
X027473Y021452D01*
X027475Y021415D01*
X027473Y021378D01*
X027467Y021341D01*
X027458Y021306D01*
X027444Y021271D01*
X027428Y021238D01*
X027407Y021207D01*
X027384Y021178D01*
X027358Y021152D01*
X027329Y021129D01*
X027298Y021108D01*
X027265Y021092D01*
X027230Y021078D01*
X027195Y021069D01*
X027158Y021063D01*
X027121Y021061D01*
X027084Y021063D01*
X027047Y021069D01*
X027012Y021078D01*
X026977Y021092D01*
X026944Y021108D01*
X026913Y021129D01*
X026884Y021152D01*
X026858Y021178D01*
X026835Y021207D01*
X026814Y021238D01*
X026798Y021271D01*
X026784Y021306D01*
X026775Y021341D01*
X026769Y021378D01*
X026767Y021415D01*
X026767Y018659D02*
X026769Y018696D01*
X026775Y018733D01*
X026784Y018768D01*
X026798Y018803D01*
X026814Y018836D01*
X026835Y018867D01*
X026858Y018896D01*
X026884Y018922D01*
X026913Y018945D01*
X026944Y018966D01*
X026977Y018982D01*
X027012Y018996D01*
X027047Y019005D01*
X027084Y019011D01*
X027121Y019013D01*
X027158Y019011D01*
X027195Y019005D01*
X027230Y018996D01*
X027265Y018982D01*
X027298Y018966D01*
X027329Y018945D01*
X027358Y018922D01*
X027384Y018896D01*
X027407Y018867D01*
X027428Y018836D01*
X027444Y018803D01*
X027458Y018768D01*
X027467Y018733D01*
X027473Y018696D01*
X027475Y018659D01*
X027473Y018622D01*
X027467Y018585D01*
X027458Y018550D01*
X027444Y018515D01*
X027428Y018482D01*
X027407Y018451D01*
X027384Y018422D01*
X027358Y018396D01*
X027329Y018373D01*
X027298Y018352D01*
X027265Y018336D01*
X027230Y018322D01*
X027195Y018313D01*
X027158Y018307D01*
X027121Y018305D01*
X027084Y018307D01*
X027047Y018313D01*
X027012Y018322D01*
X026977Y018336D01*
X026944Y018352D01*
X026913Y018373D01*
X026884Y018396D01*
X026858Y018422D01*
X026835Y018451D01*
X026814Y018482D01*
X026798Y018515D01*
X026784Y018550D01*
X026775Y018585D01*
X026769Y018622D01*
X026767Y018659D01*
X031216Y018659D02*
X031218Y018696D01*
X031224Y018733D01*
X031233Y018768D01*
X031247Y018803D01*
X031263Y018836D01*
X031284Y018867D01*
X031307Y018896D01*
X031333Y018922D01*
X031362Y018945D01*
X031393Y018966D01*
X031426Y018982D01*
X031461Y018996D01*
X031496Y019005D01*
X031533Y019011D01*
X031570Y019013D01*
X031607Y019011D01*
X031644Y019005D01*
X031679Y018996D01*
X031714Y018982D01*
X031747Y018966D01*
X031778Y018945D01*
X031807Y018922D01*
X031833Y018896D01*
X031856Y018867D01*
X031877Y018836D01*
X031893Y018803D01*
X031907Y018768D01*
X031916Y018733D01*
X031922Y018696D01*
X031924Y018659D01*
X031922Y018622D01*
X031916Y018585D01*
X031907Y018550D01*
X031893Y018515D01*
X031877Y018482D01*
X031856Y018451D01*
X031833Y018422D01*
X031807Y018396D01*
X031778Y018373D01*
X031747Y018352D01*
X031714Y018336D01*
X031679Y018322D01*
X031644Y018313D01*
X031607Y018307D01*
X031570Y018305D01*
X031533Y018307D01*
X031496Y018313D01*
X031461Y018322D01*
X031426Y018336D01*
X031393Y018352D01*
X031362Y018373D01*
X031333Y018396D01*
X031307Y018422D01*
X031284Y018451D01*
X031263Y018482D01*
X031247Y018515D01*
X031233Y018550D01*
X031224Y018585D01*
X031218Y018622D01*
X031216Y018659D01*
X031216Y021415D02*
X031218Y021452D01*
X031224Y021489D01*
X031233Y021524D01*
X031247Y021559D01*
X031263Y021592D01*
X031284Y021623D01*
X031307Y021652D01*
X031333Y021678D01*
X031362Y021701D01*
X031393Y021722D01*
X031426Y021738D01*
X031461Y021752D01*
X031496Y021761D01*
X031533Y021767D01*
X031570Y021769D01*
X031607Y021767D01*
X031644Y021761D01*
X031679Y021752D01*
X031714Y021738D01*
X031747Y021722D01*
X031778Y021701D01*
X031807Y021678D01*
X031833Y021652D01*
X031856Y021623D01*
X031877Y021592D01*
X031893Y021559D01*
X031907Y021524D01*
X031916Y021489D01*
X031922Y021452D01*
X031924Y021415D01*
X031922Y021378D01*
X031916Y021341D01*
X031907Y021306D01*
X031893Y021271D01*
X031877Y021238D01*
X031856Y021207D01*
X031833Y021178D01*
X031807Y021152D01*
X031778Y021129D01*
X031747Y021108D01*
X031714Y021092D01*
X031679Y021078D01*
X031644Y021069D01*
X031607Y021063D01*
X031570Y021061D01*
X031533Y021063D01*
X031496Y021069D01*
X031461Y021078D01*
X031426Y021092D01*
X031393Y021108D01*
X031362Y021129D01*
X031333Y021152D01*
X031307Y021178D01*
X031284Y021207D01*
X031263Y021238D01*
X031247Y021271D01*
X031233Y021306D01*
X031224Y021341D01*
X031218Y021378D01*
X031216Y021415D01*
X035665Y021415D02*
X035667Y021452D01*
X035673Y021489D01*
X035682Y021524D01*
X035696Y021559D01*
X035712Y021592D01*
X035733Y021623D01*
X035756Y021652D01*
X035782Y021678D01*
X035811Y021701D01*
X035842Y021722D01*
X035875Y021738D01*
X035910Y021752D01*
X035945Y021761D01*
X035982Y021767D01*
X036019Y021769D01*
X036056Y021767D01*
X036093Y021761D01*
X036128Y021752D01*
X036163Y021738D01*
X036196Y021722D01*
X036227Y021701D01*
X036256Y021678D01*
X036282Y021652D01*
X036305Y021623D01*
X036326Y021592D01*
X036342Y021559D01*
X036356Y021524D01*
X036365Y021489D01*
X036371Y021452D01*
X036373Y021415D01*
X036371Y021378D01*
X036365Y021341D01*
X036356Y021306D01*
X036342Y021271D01*
X036326Y021238D01*
X036305Y021207D01*
X036282Y021178D01*
X036256Y021152D01*
X036227Y021129D01*
X036196Y021108D01*
X036163Y021092D01*
X036128Y021078D01*
X036093Y021069D01*
X036056Y021063D01*
X036019Y021061D01*
X035982Y021063D01*
X035945Y021069D01*
X035910Y021078D01*
X035875Y021092D01*
X035842Y021108D01*
X035811Y021129D01*
X035782Y021152D01*
X035756Y021178D01*
X035733Y021207D01*
X035712Y021238D01*
X035696Y021271D01*
X035682Y021306D01*
X035673Y021341D01*
X035667Y021378D01*
X035665Y021415D01*
X035665Y018659D02*
X035667Y018696D01*
X035673Y018733D01*
X035682Y018768D01*
X035696Y018803D01*
X035712Y018836D01*
X035733Y018867D01*
X035756Y018896D01*
X035782Y018922D01*
X035811Y018945D01*
X035842Y018966D01*
X035875Y018982D01*
X035910Y018996D01*
X035945Y019005D01*
X035982Y019011D01*
X036019Y019013D01*
X036056Y019011D01*
X036093Y019005D01*
X036128Y018996D01*
X036163Y018982D01*
X036196Y018966D01*
X036227Y018945D01*
X036256Y018922D01*
X036282Y018896D01*
X036305Y018867D01*
X036326Y018836D01*
X036342Y018803D01*
X036356Y018768D01*
X036365Y018733D01*
X036371Y018696D01*
X036373Y018659D01*
X036371Y018622D01*
X036365Y018585D01*
X036356Y018550D01*
X036342Y018515D01*
X036326Y018482D01*
X036305Y018451D01*
X036282Y018422D01*
X036256Y018396D01*
X036227Y018373D01*
X036196Y018352D01*
X036163Y018336D01*
X036128Y018322D01*
X036093Y018313D01*
X036056Y018307D01*
X036019Y018305D01*
X035982Y018307D01*
X035945Y018313D01*
X035910Y018322D01*
X035875Y018336D01*
X035842Y018352D01*
X035811Y018373D01*
X035782Y018396D01*
X035756Y018422D01*
X035733Y018451D01*
X035712Y018482D01*
X035696Y018515D01*
X035682Y018550D01*
X035673Y018585D01*
X035667Y018622D01*
X035665Y018659D01*
X016393Y042104D02*
X016395Y042141D01*
X016401Y042178D01*
X016410Y042213D01*
X016424Y042248D01*
X016440Y042281D01*
X016461Y042312D01*
X016484Y042341D01*
X016510Y042367D01*
X016539Y042390D01*
X016570Y042411D01*
X016603Y042427D01*
X016638Y042441D01*
X016673Y042450D01*
X016710Y042456D01*
X016747Y042458D01*
X016784Y042456D01*
X016821Y042450D01*
X016856Y042441D01*
X016891Y042427D01*
X016924Y042411D01*
X016955Y042390D01*
X016984Y042367D01*
X017010Y042341D01*
X017033Y042312D01*
X017054Y042281D01*
X017070Y042248D01*
X017084Y042213D01*
X017093Y042178D01*
X017099Y042141D01*
X017101Y042104D01*
X017099Y042067D01*
X017093Y042030D01*
X017084Y041995D01*
X017070Y041960D01*
X017054Y041927D01*
X017033Y041896D01*
X017010Y041867D01*
X016984Y041841D01*
X016955Y041818D01*
X016924Y041797D01*
X016891Y041781D01*
X016856Y041767D01*
X016821Y041758D01*
X016784Y041752D01*
X016747Y041750D01*
X016710Y041752D01*
X016673Y041758D01*
X016638Y041767D01*
X016603Y041781D01*
X016570Y041797D01*
X016539Y041818D01*
X016510Y041841D01*
X016484Y041867D01*
X016461Y041896D01*
X016440Y041927D01*
X016424Y041960D01*
X016410Y041995D01*
X016401Y042030D01*
X016395Y042067D01*
X016393Y042104D01*
X013637Y042104D02*
X013639Y042141D01*
X013645Y042178D01*
X013654Y042213D01*
X013668Y042248D01*
X013684Y042281D01*
X013705Y042312D01*
X013728Y042341D01*
X013754Y042367D01*
X013783Y042390D01*
X013814Y042411D01*
X013847Y042427D01*
X013882Y042441D01*
X013917Y042450D01*
X013954Y042456D01*
X013991Y042458D01*
X014028Y042456D01*
X014065Y042450D01*
X014100Y042441D01*
X014135Y042427D01*
X014168Y042411D01*
X014199Y042390D01*
X014228Y042367D01*
X014254Y042341D01*
X014277Y042312D01*
X014298Y042281D01*
X014314Y042248D01*
X014328Y042213D01*
X014337Y042178D01*
X014343Y042141D01*
X014345Y042104D01*
X014343Y042067D01*
X014337Y042030D01*
X014328Y041995D01*
X014314Y041960D01*
X014298Y041927D01*
X014277Y041896D01*
X014254Y041867D01*
X014228Y041841D01*
X014199Y041818D01*
X014168Y041797D01*
X014135Y041781D01*
X014100Y041767D01*
X014065Y041758D01*
X014028Y041752D01*
X013991Y041750D01*
X013954Y041752D01*
X013917Y041758D01*
X013882Y041767D01*
X013847Y041781D01*
X013814Y041797D01*
X013783Y041818D01*
X013754Y041841D01*
X013728Y041867D01*
X013705Y041896D01*
X013684Y041927D01*
X013668Y041960D01*
X013654Y041995D01*
X013645Y042030D01*
X013639Y042067D01*
X013637Y042104D01*
X022574Y054367D02*
X022576Y054393D01*
X022582Y054419D01*
X022592Y054444D01*
X022605Y054467D01*
X022621Y054487D01*
X022641Y054505D01*
X022663Y054520D01*
X022686Y054532D01*
X022712Y054540D01*
X022738Y054544D01*
X022764Y054544D01*
X022790Y054540D01*
X022816Y054532D01*
X022840Y054520D01*
X022861Y054505D01*
X022881Y054487D01*
X022897Y054467D01*
X022910Y054444D01*
X022920Y054419D01*
X022926Y054393D01*
X022928Y054367D01*
X022926Y054341D01*
X022920Y054315D01*
X022910Y054290D01*
X022897Y054267D01*
X022881Y054247D01*
X022861Y054229D01*
X022839Y054214D01*
X022816Y054202D01*
X022790Y054194D01*
X022764Y054190D01*
X022738Y054190D01*
X022712Y054194D01*
X022686Y054202D01*
X022662Y054214D01*
X022641Y054229D01*
X022621Y054247D01*
X022605Y054267D01*
X022592Y054290D01*
X022582Y054315D01*
X022576Y054341D01*
X022574Y054367D01*
X024306Y054367D02*
X024308Y054393D01*
X024314Y054419D01*
X024324Y054444D01*
X024337Y054467D01*
X024353Y054487D01*
X024373Y054505D01*
X024395Y054520D01*
X024418Y054532D01*
X024444Y054540D01*
X024470Y054544D01*
X024496Y054544D01*
X024522Y054540D01*
X024548Y054532D01*
X024572Y054520D01*
X024593Y054505D01*
X024613Y054487D01*
X024629Y054467D01*
X024642Y054444D01*
X024652Y054419D01*
X024658Y054393D01*
X024660Y054367D01*
X024658Y054341D01*
X024652Y054315D01*
X024642Y054290D01*
X024629Y054267D01*
X024613Y054247D01*
X024593Y054229D01*
X024571Y054214D01*
X024548Y054202D01*
X024522Y054194D01*
X024496Y054190D01*
X024470Y054190D01*
X024444Y054194D01*
X024418Y054202D01*
X024394Y054214D01*
X024373Y054229D01*
X024353Y054247D01*
X024337Y054267D01*
X024324Y054290D01*
X024314Y054315D01*
X024308Y054341D01*
X024306Y054367D01*
M02*
