G75*
%MOIN*%
%OFA0B0*%
%FSLAX24Y24*%
%IPPOS*%
%LPD*%
%AMOC8*
5,1,8,0,0,1.08239X$1,22.5*
%
%ADD10C,0.0839*%
%ADD11R,0.0779X0.0779*%
%ADD12C,0.0779*%
%ADD13R,0.0639X0.0639*%
%ADD14C,0.0639*%
%ADD15R,0.0787X0.0787*%
%ADD16R,0.0579X0.0579*%
%ADD17C,0.0217*%
%ADD18C,0.0167*%
%ADD19C,0.0787*%
%ADD20R,0.0551X0.0551*%
%ADD21C,0.0551*%
%ADD22C,0.0739*%
%ADD23C,0.0709*%
%ADD24C,0.0069*%
%ADD25C,0.0433*%
%ADD26C,0.0472*%
%ADD27C,0.0579*%
%ADD28C,0.2619*%
D10*
X026086Y035489D03*
X033417Y054615D03*
X034417Y054615D03*
X035417Y054615D03*
D11*
X015448Y050056D03*
D12*
X014464Y050056D03*
X014464Y049072D03*
X015448Y049072D03*
X015448Y048088D03*
X014464Y048088D03*
D13*
X017318Y047300D03*
X028224Y048088D03*
X029405Y050753D03*
X031228Y040214D03*
X023684Y031552D03*
D14*
X022684Y031552D03*
X032228Y040214D03*
X028224Y046088D03*
X028224Y047088D03*
X029405Y049753D03*
X017318Y049300D03*
X017318Y048300D03*
D15*
X025086Y035489D03*
D16*
X022582Y033761D03*
X030507Y045135D03*
X030507Y046119D03*
X025980Y046907D03*
X025783Y046119D03*
X024798Y048088D03*
X024011Y048088D03*
X023224Y048088D03*
X023027Y046907D03*
X022042Y046930D03*
X022436Y048088D03*
X022042Y045726D03*
X023027Y045726D03*
X014956Y053678D03*
X013972Y054112D03*
X013936Y053072D03*
X013972Y055175D03*
X037279Y023442D03*
D17*
X036639Y023059D02*
X036639Y023905D01*
X036639Y023059D02*
X035989Y023059D01*
X035989Y023905D01*
X036639Y023905D01*
X036639Y023275D02*
X035989Y023275D01*
X035989Y023491D02*
X036639Y023491D01*
X036639Y023707D02*
X035989Y023707D01*
X035084Y021582D02*
X034238Y021582D01*
X034238Y022232D01*
X035084Y022232D01*
X035084Y021582D01*
X035084Y021798D02*
X034238Y021798D01*
X034238Y022014D02*
X035084Y022014D01*
X035084Y022230D02*
X034238Y022230D01*
X032190Y023059D02*
X032190Y023905D01*
X032190Y023059D02*
X031540Y023059D01*
X031540Y023905D01*
X032190Y023905D01*
X032190Y023275D02*
X031540Y023275D01*
X031540Y023491D02*
X032190Y023491D01*
X032190Y023707D02*
X031540Y023707D01*
X030635Y021582D02*
X029789Y021582D01*
X029789Y022232D01*
X030635Y022232D01*
X030635Y021582D01*
X030635Y021798D02*
X029789Y021798D01*
X029789Y022014D02*
X030635Y022014D01*
X030635Y022230D02*
X029789Y022230D01*
X027742Y023059D02*
X027742Y023905D01*
X027742Y023059D02*
X027092Y023059D01*
X027092Y023905D01*
X027742Y023905D01*
X027742Y023275D02*
X027092Y023275D01*
X027092Y023491D02*
X027742Y023491D01*
X027742Y023707D02*
X027092Y023707D01*
X026186Y021582D02*
X025340Y021582D01*
X025340Y022232D01*
X026186Y022232D01*
X026186Y021582D01*
X026186Y021798D02*
X025340Y021798D01*
X025340Y022014D02*
X026186Y022014D01*
X026186Y022230D02*
X025340Y022230D01*
X023293Y023059D02*
X023293Y023905D01*
X023293Y023059D02*
X022643Y023059D01*
X022643Y023905D01*
X023293Y023905D01*
X023293Y023275D02*
X022643Y023275D01*
X022643Y023491D02*
X023293Y023491D01*
X023293Y023707D02*
X022643Y023707D01*
X021737Y021582D02*
X020891Y021582D01*
X020891Y022232D01*
X021737Y022232D01*
X021737Y021582D01*
X021737Y021798D02*
X020891Y021798D01*
X020891Y022014D02*
X021737Y022014D01*
X021737Y022230D02*
X020891Y022230D01*
X018844Y023059D02*
X018844Y023905D01*
X018844Y023059D02*
X018194Y023059D01*
X018194Y023905D01*
X018844Y023905D01*
X018844Y023275D02*
X018194Y023275D01*
X018194Y023491D02*
X018844Y023491D01*
X018844Y023707D02*
X018194Y023707D01*
X017288Y021582D02*
X016442Y021582D01*
X016442Y022232D01*
X017288Y022232D01*
X017288Y021582D01*
X017288Y021798D02*
X016442Y021798D01*
X016442Y022014D02*
X017288Y022014D01*
X017288Y022230D02*
X016442Y022230D01*
X016442Y017940D02*
X017288Y017940D01*
X016442Y017940D02*
X016442Y018590D01*
X017288Y018590D01*
X017288Y017940D01*
X017288Y018156D02*
X016442Y018156D01*
X016442Y018372D02*
X017288Y018372D01*
X017288Y018588D02*
X016442Y018588D01*
X019159Y018649D02*
X020005Y018649D01*
X019159Y018649D02*
X019159Y019299D01*
X020005Y019299D01*
X020005Y018649D01*
X020005Y018865D02*
X019159Y018865D01*
X019159Y019081D02*
X020005Y019081D01*
X020005Y019297D02*
X019159Y019297D01*
X020891Y017940D02*
X021737Y017940D01*
X020891Y017940D02*
X020891Y018590D01*
X021737Y018590D01*
X021737Y017940D01*
X021737Y018156D02*
X020891Y018156D01*
X020891Y018372D02*
X021737Y018372D01*
X021737Y018588D02*
X020891Y018588D01*
X023608Y018649D02*
X024454Y018649D01*
X023608Y018649D02*
X023608Y019299D01*
X024454Y019299D01*
X024454Y018649D01*
X024454Y018865D02*
X023608Y018865D01*
X023608Y019081D02*
X024454Y019081D01*
X024454Y019297D02*
X023608Y019297D01*
X025340Y017940D02*
X026186Y017940D01*
X025340Y017940D02*
X025340Y018590D01*
X026186Y018590D01*
X026186Y017940D01*
X026186Y018156D02*
X025340Y018156D01*
X025340Y018372D02*
X026186Y018372D01*
X026186Y018588D02*
X025340Y018588D01*
X028057Y018649D02*
X028903Y018649D01*
X028057Y018649D02*
X028057Y019299D01*
X028903Y019299D01*
X028903Y018649D01*
X028903Y018865D02*
X028057Y018865D01*
X028057Y019081D02*
X028903Y019081D01*
X028903Y019297D02*
X028057Y019297D01*
X029789Y017940D02*
X030635Y017940D01*
X029789Y017940D02*
X029789Y018590D01*
X030635Y018590D01*
X030635Y017940D01*
X030635Y018156D02*
X029789Y018156D01*
X029789Y018372D02*
X030635Y018372D01*
X030635Y018588D02*
X029789Y018588D01*
X032505Y018649D02*
X033351Y018649D01*
X032505Y018649D02*
X032505Y019299D01*
X033351Y019299D01*
X033351Y018649D01*
X033351Y018865D02*
X032505Y018865D01*
X032505Y019081D02*
X033351Y019081D01*
X033351Y019297D02*
X032505Y019297D01*
X034238Y017940D02*
X035084Y017940D01*
X034238Y017940D02*
X034238Y018590D01*
X035084Y018590D01*
X035084Y017940D01*
X035084Y018156D02*
X034238Y018156D01*
X034238Y018372D02*
X035084Y018372D01*
X035084Y018588D02*
X034238Y018588D01*
X036954Y018649D02*
X037800Y018649D01*
X036954Y018649D02*
X036954Y019299D01*
X037800Y019299D01*
X037800Y018649D01*
X037800Y018865D02*
X036954Y018865D01*
X036954Y019081D02*
X037800Y019081D01*
X037800Y019297D02*
X036954Y019297D01*
X019237Y041483D02*
X018391Y041483D01*
X018391Y042133D01*
X019237Y042133D01*
X019237Y041483D01*
X019237Y041699D02*
X018391Y041699D01*
X018391Y041915D02*
X019237Y041915D01*
X019237Y042131D02*
X018391Y042131D01*
X016914Y043039D02*
X016914Y043885D01*
X017564Y043885D01*
X017564Y043039D01*
X016914Y043039D01*
X016914Y043255D02*
X017564Y043255D01*
X017564Y043471D02*
X016914Y043471D01*
X016914Y043687D02*
X017564Y043687D01*
X013981Y041168D02*
X013981Y040322D01*
X013981Y041168D02*
X014631Y041168D01*
X014631Y040322D01*
X013981Y040322D01*
X013981Y040538D02*
X014631Y040538D01*
X014631Y040754D02*
X013981Y040754D01*
X013981Y040970D02*
X014631Y040970D01*
X013273Y043039D02*
X013273Y043885D01*
X013923Y043885D01*
X013923Y043039D01*
X013273Y043039D01*
X013273Y043255D02*
X013923Y043255D01*
X013923Y043471D02*
X013273Y043471D01*
X013273Y043687D02*
X013923Y043687D01*
X022190Y052960D02*
X022190Y053806D01*
X022190Y052960D02*
X021540Y052960D01*
X021540Y053806D01*
X022190Y053806D01*
X022190Y053176D02*
X021540Y053176D01*
X021540Y053392D02*
X022190Y053392D01*
X022190Y053608D02*
X021540Y053608D01*
X022190Y055126D02*
X022190Y055972D01*
X022190Y055126D02*
X021540Y055126D01*
X021540Y055972D01*
X022190Y055972D01*
X022190Y055342D02*
X021540Y055342D01*
X021540Y055558D02*
X022190Y055558D01*
X022190Y055774D02*
X021540Y055774D01*
X025694Y055972D02*
X025694Y055126D01*
X025044Y055126D01*
X025044Y055972D01*
X025694Y055972D01*
X025694Y055342D02*
X025044Y055342D01*
X025044Y055558D02*
X025694Y055558D01*
X025694Y055774D02*
X025044Y055774D01*
X025694Y053806D02*
X025694Y052960D01*
X025044Y052960D01*
X025044Y053806D01*
X025694Y053806D01*
X025694Y053176D02*
X025044Y053176D01*
X025044Y053392D02*
X025694Y053392D01*
X025694Y053608D02*
X025044Y053608D01*
D18*
X013494Y041193D02*
X013494Y040297D01*
X012992Y040297D01*
X012992Y041193D01*
X013494Y041193D01*
X013494Y040463D02*
X012992Y040463D01*
X012992Y040629D02*
X013494Y040629D01*
X013494Y040795D02*
X012992Y040795D01*
X012992Y040961D02*
X013494Y040961D01*
X013494Y041127D02*
X012992Y041127D01*
X019134Y018162D02*
X020030Y018162D01*
X020030Y017660D01*
X019134Y017660D01*
X019134Y018162D01*
X019134Y017826D02*
X020030Y017826D01*
X020030Y017992D02*
X019134Y017992D01*
X019134Y018158D02*
X020030Y018158D01*
X023583Y018162D02*
X024479Y018162D01*
X024479Y017660D01*
X023583Y017660D01*
X023583Y018162D01*
X023583Y017826D02*
X024479Y017826D01*
X024479Y017992D02*
X023583Y017992D01*
X023583Y018158D02*
X024479Y018158D01*
X028032Y018162D02*
X028928Y018162D01*
X028928Y017660D01*
X028032Y017660D01*
X028032Y018162D01*
X028032Y017826D02*
X028928Y017826D01*
X028928Y017992D02*
X028032Y017992D01*
X028032Y018158D02*
X028928Y018158D01*
X032480Y018162D02*
X033376Y018162D01*
X033376Y017660D01*
X032480Y017660D01*
X032480Y018162D01*
X032480Y017826D02*
X033376Y017826D01*
X033376Y017992D02*
X032480Y017992D01*
X032480Y018158D02*
X033376Y018158D01*
X036929Y018162D02*
X037825Y018162D01*
X037825Y017660D01*
X036929Y017660D01*
X036929Y018162D01*
X036929Y017826D02*
X037825Y017826D01*
X037825Y017992D02*
X036929Y017992D01*
X036929Y018158D02*
X037825Y018158D01*
D19*
X036019Y018659D03*
X036019Y021415D03*
X031570Y021415D03*
X031570Y018659D03*
X027121Y018659D03*
X027121Y021415D03*
X022672Y021415D03*
X022672Y018659D03*
X018224Y018659D03*
X018224Y021415D03*
X016747Y042104D03*
X013991Y042104D03*
D20*
X020665Y025844D03*
D21*
X020665Y026631D03*
X021452Y026631D03*
X021452Y025844D03*
X022239Y025844D03*
X022239Y026631D03*
X023027Y026631D03*
X023027Y025844D03*
X023814Y025844D03*
X023814Y026631D03*
X024602Y026631D03*
X024602Y025844D03*
X025389Y025844D03*
X025389Y026631D03*
X026176Y026631D03*
X026176Y025844D03*
D22*
X013214Y044525D03*
X013942Y045135D03*
X013214Y045745D03*
X017318Y055204D03*
X016708Y055932D03*
X017928Y055932D03*
X019464Y055932D03*
X020074Y055204D03*
X020684Y055932D03*
D23*
X015743Y019545D03*
X015743Y021316D03*
D24*
X023091Y052886D02*
X023091Y053802D01*
X023091Y052886D02*
X022883Y052886D01*
X022883Y053802D01*
X023091Y053802D01*
X023091Y052954D02*
X022883Y052954D01*
X022883Y053022D02*
X023091Y053022D01*
X023091Y053090D02*
X022883Y053090D01*
X022883Y053158D02*
X023091Y053158D01*
X023091Y053226D02*
X022883Y053226D01*
X022883Y053294D02*
X023091Y053294D01*
X023091Y053362D02*
X022883Y053362D01*
X022883Y053430D02*
X023091Y053430D01*
X023091Y053498D02*
X022883Y053498D01*
X022883Y053566D02*
X023091Y053566D01*
X023091Y053634D02*
X022883Y053634D01*
X022883Y053702D02*
X023091Y053702D01*
X023091Y053770D02*
X022883Y053770D01*
X023406Y053802D02*
X023406Y052886D01*
X023198Y052886D01*
X023198Y053802D01*
X023406Y053802D01*
X023406Y052954D02*
X023198Y052954D01*
X023198Y053022D02*
X023406Y053022D01*
X023406Y053090D02*
X023198Y053090D01*
X023198Y053158D02*
X023406Y053158D01*
X023406Y053226D02*
X023198Y053226D01*
X023198Y053294D02*
X023406Y053294D01*
X023406Y053362D02*
X023198Y053362D01*
X023198Y053430D02*
X023406Y053430D01*
X023406Y053498D02*
X023198Y053498D01*
X023198Y053566D02*
X023406Y053566D01*
X023406Y053634D02*
X023198Y053634D01*
X023198Y053702D02*
X023406Y053702D01*
X023406Y053770D02*
X023198Y053770D01*
X023721Y053802D02*
X023721Y052886D01*
X023513Y052886D01*
X023513Y053802D01*
X023721Y053802D01*
X023721Y052954D02*
X023513Y052954D01*
X023513Y053022D02*
X023721Y053022D01*
X023721Y053090D02*
X023513Y053090D01*
X023513Y053158D02*
X023721Y053158D01*
X023721Y053226D02*
X023513Y053226D01*
X023513Y053294D02*
X023721Y053294D01*
X023721Y053362D02*
X023513Y053362D01*
X023513Y053430D02*
X023721Y053430D01*
X023721Y053498D02*
X023513Y053498D01*
X023513Y053566D02*
X023721Y053566D01*
X023721Y053634D02*
X023513Y053634D01*
X023513Y053702D02*
X023721Y053702D01*
X023721Y053770D02*
X023513Y053770D01*
X024036Y053802D02*
X024036Y052886D01*
X023828Y052886D01*
X023828Y053802D01*
X024036Y053802D01*
X024036Y052954D02*
X023828Y052954D01*
X023828Y053022D02*
X024036Y053022D01*
X024036Y053090D02*
X023828Y053090D01*
X023828Y053158D02*
X024036Y053158D01*
X024036Y053226D02*
X023828Y053226D01*
X023828Y053294D02*
X024036Y053294D01*
X024036Y053362D02*
X023828Y053362D01*
X023828Y053430D02*
X024036Y053430D01*
X024036Y053498D02*
X023828Y053498D01*
X023828Y053566D02*
X024036Y053566D01*
X024036Y053634D02*
X023828Y053634D01*
X023828Y053702D02*
X024036Y053702D01*
X024036Y053770D02*
X023828Y053770D01*
X024351Y053802D02*
X024351Y052886D01*
X024143Y052886D01*
X024143Y053802D01*
X024351Y053802D01*
X024351Y052954D02*
X024143Y052954D01*
X024143Y053022D02*
X024351Y053022D01*
X024351Y053090D02*
X024143Y053090D01*
X024143Y053158D02*
X024351Y053158D01*
X024351Y053226D02*
X024143Y053226D01*
X024143Y053294D02*
X024351Y053294D01*
X024351Y053362D02*
X024143Y053362D01*
X024143Y053430D02*
X024351Y053430D01*
X024351Y053498D02*
X024143Y053498D01*
X024143Y053566D02*
X024351Y053566D01*
X024351Y053634D02*
X024143Y053634D01*
X024143Y053702D02*
X024351Y053702D01*
X024351Y053770D02*
X024143Y053770D01*
D25*
X024483Y054367D03*
X022751Y054367D03*
X021255Y041789D03*
D26*
X022594Y040608D03*
X024798Y041395D03*
X024995Y042182D03*
X027239Y042182D03*
X028617Y042970D03*
X028342Y044466D03*
X026885Y044269D03*
X024602Y044741D03*
X023224Y044938D03*
X026058Y049269D03*
X027948Y052812D03*
X025743Y054781D03*
X021649Y054781D03*
X016137Y044741D03*
X018184Y036867D03*
X018184Y036277D03*
X018184Y035647D03*
X018854Y035686D03*
X018854Y036277D03*
X018854Y036867D03*
X016294Y035175D03*
X015625Y035175D03*
X015940Y035804D03*
X015743Y033521D03*
X014956Y033521D03*
X014168Y033521D03*
X016531Y029781D03*
X015743Y028797D03*
X015153Y028797D03*
X014050Y028797D03*
X013381Y028797D03*
X017318Y029781D03*
X018105Y029781D03*
X018893Y029781D03*
X022042Y038049D03*
X023420Y038049D03*
X032003Y054466D03*
X030507Y055175D03*
D27*
X032476Y043757D03*
X033066Y043363D03*
X033066Y041395D03*
X031885Y041395D03*
X030743Y043285D03*
X027161Y039230D03*
X024168Y038797D03*
X024011Y039466D03*
X019680Y041001D03*
X015940Y041592D03*
X015546Y039623D03*
X020546Y052497D03*
X032279Y037930D03*
X033854Y038521D03*
X034917Y036631D03*
X036019Y038049D03*
X034838Y032734D03*
X034641Y031356D03*
X034641Y030175D03*
X035035Y027812D03*
X032672Y025253D03*
X028539Y023482D03*
X029287Y018403D03*
X033735Y018403D03*
X024602Y019741D03*
X022239Y019741D03*
X028342Y031749D03*
D28*
X036413Y026041D03*
X036413Y051631D03*
X017515Y051631D03*
X014365Y025647D03*
M02*
