%
M48
M72
T01C0.0157
T02C0.0197
T03C0.0236
T04C0.0276
T05C0.0315
T06C0.0354
T07C0.0394
T08C0.0472
T09C0.0630
T10C0.0709
T11C0.1260
%
T01
X23027Y22694
X24011Y21907
X25586Y22891
X25586Y24663
X27161Y24466
X28145Y25844
X27357Y26828
X26964Y26238
X27357Y29190
X28145Y29781
X29917Y31356
X31688Y32537
X33460Y31159
X34444Y28009
X32672Y26434
X32279Y26041
X31885Y26828
X32279Y27025
X31491Y27419
X29523Y26238
X31885Y24663
X34641Y25253
X34444Y22694
X36609Y27812
X37397Y30568
X35822Y34505
X34641Y34505
X34956Y35923
X35822Y36277
X36413Y36474
X34050Y36474
X32869Y36277
X31294Y36474
X30507Y35096
X28145Y34702
X28342Y37852
X30861Y38206
X33145Y40608
X33460Y40017
X34405Y40017
X29129Y41592
X28145Y41198
X27751Y41592
X26767Y41986
X25546Y44741
X24995Y45135
X25389Y45529
X25192Y46710
X23814Y44741
X22830Y44741
X21649Y43560
X21058Y44348
X20389Y44466
X20074Y44741
X19680Y43127
X19680Y42182
X20586Y40371
X21452Y40411
X23420Y38639
X22042Y36671
X22042Y36277
X21846Y31749
X16531Y36671
X15350Y37104
X16019Y40096
X16334Y42773
X17515Y44348
X16924Y45332
X15546Y45765
X18499Y46513
X18696Y45726
X19483Y46907
X20271Y48678
X19562Y48875
X20940Y49663
X21452Y50450
X22239Y50647
X22830Y51434
X23184Y51119
X23617Y50450
X24208Y51434
X24602Y51631
X24602Y52025
X24208Y52222
X24602Y52615
X22830Y52615
X22909Y51946
X22633Y55489
X24602Y55489
X26767Y55489
X26334Y52025
X25389Y49269
X27357Y48915
X27948Y49466
X27357Y46119
X23420Y47576
X21531Y47891
X21570Y48285
X19602Y52655
X18539Y53403
X15940Y53403
X28932Y55489
X32476Y51631
X33066Y52222
X33460Y51631
X34168Y52615
X34050Y50450
X35231Y50450
X34641Y48875
X32672Y49072
X27948Y22300
T02
X21255Y41789
T03
X19680Y41001
X22042Y38049
X23420Y38049
X24168Y38797
X24011Y39466
X22594Y40608
X24798Y41395
X24995Y42182
X27239Y42182
X28617Y42970
X28342Y44466
X26885Y44269
X25783Y46119
X25980Y46907
X24798Y48088
X24011Y48088
X23224Y48088
X23027Y46907
X22042Y46930
X22436Y48088
X22042Y45726
X23027Y45726
X23224Y44938
X24602Y44741
X26058Y49269
X27948Y52812
X25743Y54781
X21649Y54781
X20546Y52497
X16137Y44741
X15940Y41592
X15546Y39623
X18184Y36867
X18184Y36277
X18184Y35647
X18854Y35686
X18854Y36277
X18854Y36867
X16294Y35175
X15625Y35175
X15940Y35804
X15743Y33521
X14956Y33521
X14168Y33521
X16531Y29781
X15743Y28797
X15153Y28797
X14050Y28797
X13381Y28797
X17318Y29781
X18105Y29781
X18893Y29781
X22582Y33761
X27161Y39230
X30743Y43285
X30507Y45135
X30507Y46119
X32476Y43757
X33066Y43363
X33066Y41395
X31885Y41395
X33854Y38521
X34917Y36631
X36019Y38049
X32279Y37930
X34838Y32734
X34641Y31356
X34641Y30175
X35035Y27812
X32672Y25253
X28539Y23482
X29287Y18403
X33735Y18403
X37279Y23442
X28342Y31749
X24602Y19741
X22239Y19741
X13936Y53072
X13972Y54112
X14956Y53678
X13972Y55175
X30507Y55175
X32003Y54466
T04
X26176Y26631
X25389Y26631
X25389Y25844
X26176Y25844
X24602Y25844
X24602Y26631
X23814Y26631
X23814Y25844
X23027Y25844
X23027Y26631
X22239Y26631
X21452Y26631
X21452Y25844
X22239Y25844
X20665Y25844
X20665Y26631
T05
X22684Y31552
X23684Y31552
X31228Y40214
X32228Y40214
X28224Y46088
X28224Y47088
X28224Y48088
X29405Y49753
X29405Y50753
X33417Y54615
X34417Y54615
X35417Y54615
X20684Y55932
X20074Y55204
X19464Y55932
X17928Y55932
X17318Y55204
X16708Y55932
X17318Y49300
X17318Y48300
X17318Y47300
X13942Y45135
X13214Y44525
X13214Y45745
T06
X22751Y54367
X24483Y54367
T07
X15448Y50056
X14464Y50056
X14464Y49072
X15448Y49072
X15448Y48088
X14464Y48088
T08
X25086Y35489
X26086Y35489
T09
X15743Y19545
X15743Y21316
T10
X18224Y21415
X18224Y18659
X22672Y18659
X22672Y21415
X27121Y21415
X27121Y18659
X31570Y18659
X31570Y21415
X36019Y21415
X36019Y18659
X16747Y42104
X13991Y42104
T11
X17515Y51631
X36413Y51631
X36413Y26041
X14365Y25647
M30
