%
M48
M72
T01C0.0157
T02C0.0197
T03C0.0236
T04C0.0276
T05C0.0315
T06C0.0354
T07C0.0472
T08C0.0787
T09C0.1260
%
T01
X19680Y21299
X22042Y21890
X22436Y21299
X25389Y23268
X26570Y22087
X26964Y21496
X26885Y20315
X26885Y19528
X26885Y18740
X26885Y17953
X29917Y21103
X29917Y21890
X27751Y22874
X28735Y24449
X30310Y24449
X31688Y24449
X31688Y25040
X33657Y26811
X34050Y28465
X32869Y28583
X30310Y28977
X27948Y29567
X26964Y28977
X26491Y27953
X27948Y26811
X26767Y25236
X22830Y27992
X19897Y27953
X19208Y26890
X18617Y26890
X16846Y26890
X16255Y26890
X18499Y30945
X18893Y30945
X19287Y30945
X19287Y32126
X19287Y32520
X19287Y32914
X18893Y32914
X18499Y32914
X18499Y32520
X18499Y32126
X18893Y32126
X18893Y32520
X18893Y34292
X19287Y34292
X18499Y34292
X16531Y34095
X16531Y32323
X16924Y32323
X16137Y32323
X16137Y31142
X15350Y31142
X14562Y31142
X13775Y31142
X13578Y34764
X14168Y34882
X15743Y37441
X15743Y39607
X15546Y40000
X15546Y41772
X17909Y41772
X17909Y42559
X17909Y40985
X17909Y40197
X18105Y39213
X19011Y39685
X19680Y40000
X19287Y40591
X20074Y40591
X20074Y40985
X21255Y39410
X22436Y39410
X23224Y39410
X24208Y39410
X24798Y39410
X25192Y39213
X25586Y39016
X26373Y39410
X27476Y40591
X27869Y41496
X27515Y41772
X28460Y42402
X28539Y43544
X29523Y42402
X30704Y42166
X30901Y41772
X31098Y41378
X31294Y40985
X31491Y40591
X30743Y40197
X30153Y40394
X32279Y40197
X32082Y41575
X34050Y42362
X33991Y43229
X34444Y44134
X34050Y44331
X33657Y44528
X32279Y44528
X31688Y44528
X31294Y44134
X34444Y46496
X35822Y44134
X36216Y44134
X36905Y42933
X37397Y41575
X33854Y36654
X33263Y35079
X32672Y34095
X32082Y35079
X30901Y35079
X30310Y35276
X30310Y36260
X29523Y36851
X30704Y37835
X28539Y35276
X27948Y34095
X26767Y35276
X25783Y35079
X23814Y35079
X24798Y38229
X24208Y40788
X23420Y40788
X24995Y43347
X25389Y43544
X24011Y45315
X22633Y45315
X22042Y45315
X21058Y45906
X21255Y46693
X20212Y46949
X19287Y46496
X19090Y44528
X19877Y44134
X20074Y43150
X23027Y46496
X23105Y48425
X22239Y48465
X21452Y48465
X20271Y48465
X19287Y49173
X19877Y50236
X19287Y51221
X17082Y51063
X16728Y50827
X22712Y49567
X23224Y49843
X25231Y50551
X25389Y48859
X25980Y47717
X25724Y47323
X26058Y46811
X26373Y46496
X26767Y47284
X27357Y47284
X27909Y47599
X27436Y47953
X27751Y48268
X29129Y48662
X29523Y48465
X29523Y48071
X29129Y47874
X26964Y50040
X28460Y50650
X25192Y46949
X27357Y45512
X32672Y49843
X34444Y49843
X21452Y37638
X20271Y38622
X18105Y37441
X18578Y36457
X20861Y32717
X20724Y31240
X21747Y31221
X29326Y33701
X29720Y34095
X33854Y33898
X37200Y33110
X36019Y28977
T02
X30507Y29961
X27161Y29961
X15448Y44134
X14464Y44134
X14464Y45118
X15448Y45118
X15448Y46103
X14464Y46103
T03
X13775Y50827
X13775Y51811
X21838Y44146
X22649Y44138
X23436Y44150
X24212Y44162
X23027Y42953
X22042Y42977
X22042Y41772
X23027Y41772
X24995Y42362
X25783Y42362
X25783Y40985
X24995Y40985
X23527Y34296
X15472Y40733
X26964Y52008
X33417Y50662
X34417Y50662
X35417Y50662
X37200Y50236
X37200Y51418
X33657Y33110
X36806Y19922
X36806Y18740
T04
X36822Y29551
X35822Y29551
X34822Y29551
X34822Y34079
X35822Y34079
X36822Y34079
X36822Y38607
X35822Y38607
X34822Y38607
X29562Y40709
X29562Y41496
X28499Y41496
X28499Y40709
X29326Y49449
X26964Y49449
X29326Y52008
T05
X29798Y46693
X29798Y45693
X29798Y44693
X28539Y45701
X28539Y46701
X31976Y39114
X32976Y39114
X24011Y29477
X24011Y28477
X23810Y26957
X23023Y26957
X23023Y26170
X23810Y26170
X24598Y26170
X24598Y26957
X25385Y26957
X25385Y26170
X26172Y26170
X26172Y26957
X22235Y26957
X21448Y26957
X20661Y26957
X20661Y26170
X21448Y26170
X22235Y26170
X16924Y19528
X15350Y24095
X21944Y34874
X21944Y35874
X17318Y42528
X17318Y43528
X17318Y44528
X18688Y43544
X19688Y43544
X13775Y38729
X13775Y37729
T06
X27279Y50729
X29011Y50729
T07
X26086Y31536
X25086Y31536
T08
X16334Y18150
T09
X14365Y25827
X17515Y47677
X36413Y47677
X36413Y25827
M30
