G75*
%MOIN*%
%OFA0B0*%
%FSLAX24Y24*%
%IPPOS*%
%LPD*%
%AMOC8*
5,1,8,0,0,1.08239X$1,22.5*
%
%ADD10C,0.0059*%
%ADD11C,0.0040*%
%ADD12R,0.0354X0.0236*%
D10*
X016924Y017166D02*
X021058Y017166D01*
X021255Y017166D02*
X021255Y017362D01*
X021255Y017166D02*
X023617Y017166D01*
X023617Y023465D01*
X023420Y023465D01*
X024798Y023465D02*
X024798Y022677D01*
X024798Y023465D02*
X025389Y023465D01*
X026964Y023465D02*
X027161Y023465D01*
X027161Y017166D01*
X024798Y017166D01*
X024798Y017362D01*
X024602Y017166D02*
X020468Y017166D01*
X020074Y017166D02*
X017712Y017166D01*
X017712Y017362D01*
X017712Y018937D02*
X017712Y020906D01*
X017712Y022677D02*
X017712Y023465D01*
X018302Y023465D01*
X019877Y023465D02*
X020074Y023465D01*
X020074Y017166D01*
X021255Y018937D02*
X021255Y020906D01*
X021255Y022677D02*
X021255Y023465D01*
X021846Y023465D01*
X024798Y020906D02*
X024798Y018937D01*
X024011Y017166D02*
X028145Y017166D01*
X028342Y017166D02*
X028342Y017362D01*
X028342Y017166D02*
X030704Y017166D01*
X030704Y023465D01*
X030507Y023465D01*
X028932Y023465D02*
X028342Y023465D01*
X028342Y022677D01*
X028342Y020906D02*
X028342Y018937D01*
X027554Y017166D02*
X031688Y017166D01*
X031885Y017166D02*
X031885Y017362D01*
X031885Y017166D02*
X034247Y017166D01*
X034247Y023465D01*
X034050Y023465D01*
X035428Y023465D02*
X035428Y022677D01*
X035428Y023465D02*
X036019Y023465D01*
X037594Y023465D02*
X037791Y023465D01*
X037791Y017166D01*
X035428Y017166D01*
X035428Y017362D01*
X035231Y017166D02*
X031098Y017166D01*
X031885Y018937D02*
X031885Y020906D01*
X031885Y022677D02*
X031885Y023465D01*
X032476Y023465D01*
X035428Y020906D02*
X035428Y018937D01*
X034641Y017166D02*
X038775Y017166D01*
X029720Y049055D02*
X026570Y049055D01*
X026570Y052402D01*
X025389Y052402D02*
X030901Y052402D01*
X029720Y052402D02*
X029720Y049055D01*
X021649Y050595D02*
X021649Y052634D01*
X019680Y052634D01*
X019680Y050595D01*
X021649Y050595D01*
X019090Y050595D02*
X019090Y052634D01*
X017121Y052634D01*
X017121Y050595D01*
X019090Y050595D01*
D11*
X017382Y016398D02*
X017146Y016398D01*
X017264Y016575D02*
X017382Y016575D01*
X017508Y016575D02*
X017508Y016457D01*
X017567Y016398D01*
X017685Y016398D01*
X017744Y016457D01*
X017744Y016693D01*
X017685Y016752D01*
X017567Y016752D01*
X017508Y016693D01*
X017508Y016575D02*
X017626Y016575D01*
X017871Y016457D02*
X017871Y016693D01*
X017930Y016752D01*
X018107Y016752D01*
X018107Y016398D01*
X017930Y016398D01*
X017871Y016457D01*
X018233Y016398D02*
X018469Y016398D01*
X018469Y016752D01*
X018233Y016752D01*
X018351Y016575D02*
X018469Y016575D01*
X018958Y016457D02*
X018958Y016693D01*
X019017Y016752D01*
X019194Y016752D01*
X019194Y016398D01*
X019017Y016398D01*
X018958Y016457D01*
X019321Y016398D02*
X019439Y016516D01*
X019380Y016516D02*
X019557Y016516D01*
X019557Y016398D02*
X019557Y016752D01*
X019380Y016752D01*
X019321Y016693D01*
X019321Y016575D01*
X019380Y016516D01*
X019684Y016575D02*
X019920Y016575D01*
X019920Y016634D02*
X019802Y016752D01*
X019684Y016634D01*
X019684Y016398D01*
X019920Y016398D02*
X019920Y016634D01*
X020046Y016693D02*
X020046Y016457D01*
X020105Y016398D01*
X020223Y016398D01*
X020282Y016457D01*
X020282Y016693D01*
X020223Y016752D01*
X020105Y016752D01*
X020046Y016693D01*
X020409Y016693D02*
X020409Y016634D01*
X020468Y016575D01*
X020645Y016575D01*
X020807Y016575D02*
X020925Y016575D01*
X021052Y016575D02*
X021170Y016575D01*
X021052Y016575D02*
X021052Y016457D01*
X021111Y016398D01*
X021229Y016398D01*
X021288Y016457D01*
X021288Y016693D01*
X021229Y016752D01*
X021111Y016752D01*
X021052Y016693D01*
X020925Y016752D02*
X020925Y016398D01*
X020689Y016398D01*
X020645Y016398D02*
X020468Y016398D01*
X020409Y016457D01*
X020409Y016516D01*
X020468Y016575D01*
X020409Y016693D02*
X020468Y016752D01*
X020645Y016752D01*
X020645Y016398D01*
X020689Y016752D02*
X020925Y016752D01*
X021414Y016693D02*
X021414Y016457D01*
X021473Y016398D01*
X021650Y016398D01*
X021650Y016752D01*
X021473Y016752D01*
X021414Y016693D01*
X021777Y016752D02*
X022013Y016752D01*
X022013Y016398D01*
X021777Y016398D01*
X021895Y016575D02*
X022013Y016575D01*
X022502Y016457D02*
X022502Y016693D01*
X022561Y016752D01*
X022738Y016752D01*
X022738Y016398D01*
X022561Y016398D01*
X022502Y016457D01*
X022864Y016398D02*
X022982Y016516D01*
X022923Y016516D02*
X023100Y016516D01*
X023100Y016398D02*
X023100Y016752D01*
X022923Y016752D01*
X022864Y016693D01*
X022864Y016575D01*
X022923Y016516D01*
X023227Y016575D02*
X023463Y016575D01*
X023463Y016634D02*
X023345Y016752D01*
X023227Y016634D01*
X023227Y016398D01*
X023463Y016398D02*
X023463Y016634D01*
X023589Y016693D02*
X023648Y016752D01*
X023766Y016752D01*
X023825Y016693D01*
X023825Y016457D01*
X023766Y016398D01*
X023648Y016398D01*
X023589Y016457D01*
X023589Y016693D01*
X023952Y016693D02*
X023952Y016634D01*
X024011Y016575D01*
X024188Y016575D01*
X024351Y016575D02*
X024469Y016575D01*
X024595Y016575D02*
X024713Y016575D01*
X024595Y016575D02*
X024595Y016457D01*
X024654Y016398D01*
X024772Y016398D01*
X024831Y016457D01*
X024831Y016693D01*
X024772Y016752D01*
X024654Y016752D01*
X024595Y016693D01*
X024469Y016752D02*
X024469Y016398D01*
X024233Y016398D01*
X024188Y016398D02*
X024011Y016398D01*
X023952Y016457D01*
X023952Y016516D01*
X024011Y016575D01*
X023952Y016693D02*
X024011Y016752D01*
X024188Y016752D01*
X024188Y016398D01*
X024233Y016752D02*
X024469Y016752D01*
X024958Y016693D02*
X024958Y016457D01*
X025017Y016398D01*
X025194Y016398D01*
X025194Y016752D01*
X025017Y016752D01*
X024958Y016693D01*
X025320Y016752D02*
X025556Y016752D01*
X025556Y016398D01*
X025320Y016398D01*
X025438Y016575D02*
X025556Y016575D01*
X026045Y016457D02*
X026045Y016693D01*
X026104Y016752D01*
X026281Y016752D01*
X026281Y016398D01*
X026104Y016398D01*
X026045Y016457D01*
X026408Y016398D02*
X026526Y016516D01*
X026467Y016516D02*
X026644Y016516D01*
X026644Y016398D02*
X026644Y016752D01*
X026467Y016752D01*
X026408Y016693D01*
X026408Y016575D01*
X026467Y016516D01*
X026770Y016575D02*
X027006Y016575D01*
X027006Y016634D02*
X026888Y016752D01*
X026770Y016634D01*
X026770Y016398D01*
X027006Y016398D02*
X027006Y016634D01*
X027133Y016693D02*
X027192Y016752D01*
X027310Y016752D01*
X027369Y016693D01*
X027369Y016457D01*
X027310Y016398D01*
X027192Y016398D01*
X027133Y016457D01*
X027133Y016693D01*
X027495Y016693D02*
X027495Y016634D01*
X027554Y016575D01*
X027731Y016575D01*
X027894Y016575D02*
X028012Y016575D01*
X028138Y016575D02*
X028138Y016457D01*
X028197Y016398D01*
X028315Y016398D01*
X028374Y016457D01*
X028374Y016693D01*
X028315Y016752D01*
X028197Y016752D01*
X028138Y016693D01*
X028138Y016575D02*
X028256Y016575D01*
X028501Y016457D02*
X028501Y016693D01*
X028560Y016752D01*
X028737Y016752D01*
X028737Y016398D01*
X028560Y016398D01*
X028501Y016457D01*
X028863Y016398D02*
X029099Y016398D01*
X029099Y016752D01*
X028863Y016752D01*
X028981Y016575D02*
X029099Y016575D01*
X029588Y016457D02*
X029588Y016693D01*
X029647Y016752D01*
X029824Y016752D01*
X029824Y016398D01*
X029647Y016398D01*
X029588Y016457D01*
X029951Y016398D02*
X030069Y016516D01*
X030010Y016516D02*
X030187Y016516D01*
X030187Y016398D02*
X030187Y016752D01*
X030010Y016752D01*
X029951Y016693D01*
X029951Y016575D01*
X030010Y016516D01*
X030313Y016575D02*
X030549Y016575D01*
X030549Y016634D02*
X030431Y016752D01*
X030313Y016634D01*
X030313Y016398D01*
X030549Y016398D02*
X030549Y016634D01*
X030676Y016693D02*
X030735Y016752D01*
X030853Y016752D01*
X030912Y016693D01*
X030912Y016457D01*
X030853Y016398D01*
X030735Y016398D01*
X030676Y016457D01*
X030676Y016693D01*
X031038Y016693D02*
X031038Y016634D01*
X031097Y016575D01*
X031274Y016575D01*
X031437Y016575D02*
X031555Y016575D01*
X031682Y016575D02*
X031800Y016575D01*
X031682Y016575D02*
X031682Y016457D01*
X031741Y016398D01*
X031859Y016398D01*
X031918Y016457D01*
X031918Y016693D01*
X031859Y016752D01*
X031741Y016752D01*
X031682Y016693D01*
X031555Y016752D02*
X031555Y016398D01*
X031319Y016398D01*
X031274Y016398D02*
X031097Y016398D01*
X031038Y016457D01*
X031038Y016516D01*
X031097Y016575D01*
X031038Y016693D02*
X031097Y016752D01*
X031274Y016752D01*
X031274Y016398D01*
X031319Y016752D02*
X031555Y016752D01*
X032044Y016693D02*
X032044Y016457D01*
X032103Y016398D01*
X032280Y016398D01*
X032280Y016752D01*
X032103Y016752D01*
X032044Y016693D01*
X032407Y016752D02*
X032643Y016752D01*
X032643Y016398D01*
X032407Y016398D01*
X032525Y016575D02*
X032643Y016575D01*
X033132Y016457D02*
X033132Y016693D01*
X033191Y016752D01*
X033368Y016752D01*
X033368Y016398D01*
X033191Y016398D01*
X033132Y016457D01*
X033494Y016398D02*
X033612Y016516D01*
X033553Y016516D02*
X033730Y016516D01*
X033730Y016398D02*
X033730Y016752D01*
X033553Y016752D01*
X033494Y016693D01*
X033494Y016575D01*
X033553Y016516D01*
X033857Y016575D02*
X034093Y016575D01*
X034093Y016634D02*
X033975Y016752D01*
X033857Y016634D01*
X033857Y016398D01*
X034093Y016398D02*
X034093Y016634D01*
X034219Y016693D02*
X034278Y016752D01*
X034396Y016752D01*
X034455Y016693D01*
X034455Y016457D01*
X034396Y016398D01*
X034278Y016398D01*
X034219Y016457D01*
X034219Y016693D01*
X034582Y016693D02*
X034582Y016634D01*
X034641Y016575D01*
X034818Y016575D01*
X034980Y016575D02*
X035098Y016575D01*
X035225Y016575D02*
X035343Y016575D01*
X035225Y016575D02*
X035225Y016457D01*
X035284Y016398D01*
X035402Y016398D01*
X035461Y016457D01*
X035461Y016693D01*
X035402Y016752D01*
X035284Y016752D01*
X035225Y016693D01*
X035098Y016752D02*
X035098Y016398D01*
X034862Y016398D01*
X034818Y016398D02*
X034641Y016398D01*
X034582Y016457D01*
X034582Y016516D01*
X034641Y016575D01*
X034582Y016693D02*
X034641Y016752D01*
X034818Y016752D01*
X034818Y016398D01*
X034862Y016752D02*
X035098Y016752D01*
X035587Y016693D02*
X035587Y016457D01*
X035646Y016398D01*
X035823Y016398D01*
X035823Y016752D01*
X035646Y016752D01*
X035587Y016693D01*
X035950Y016752D02*
X036186Y016752D01*
X036186Y016398D01*
X035950Y016398D01*
X036068Y016575D02*
X036186Y016575D01*
X036675Y016457D02*
X036675Y016693D01*
X036734Y016752D01*
X036911Y016752D01*
X036911Y016398D01*
X036734Y016398D01*
X036675Y016457D01*
X037038Y016398D02*
X037156Y016516D01*
X037097Y016516D02*
X037274Y016516D01*
X037274Y016398D02*
X037274Y016752D01*
X037097Y016752D01*
X037038Y016693D01*
X037038Y016575D01*
X037097Y016516D01*
X037400Y016575D02*
X037636Y016575D01*
X037636Y016634D02*
X037518Y016752D01*
X037400Y016634D01*
X037400Y016398D01*
X037636Y016398D02*
X037636Y016634D01*
X037763Y016693D02*
X037822Y016752D01*
X037940Y016752D01*
X037999Y016693D01*
X037999Y016457D01*
X037940Y016398D01*
X037822Y016398D01*
X037763Y016457D01*
X037763Y016693D01*
X038125Y016693D02*
X038125Y016634D01*
X038184Y016575D01*
X038361Y016575D01*
X038361Y016398D02*
X038361Y016752D01*
X038184Y016752D01*
X038125Y016693D01*
X038184Y016575D02*
X038125Y016516D01*
X038125Y016457D01*
X038184Y016398D01*
X038361Y016398D01*
X035212Y019213D02*
X035153Y019154D01*
X034917Y019154D01*
X034858Y019213D01*
X034858Y019331D01*
X034917Y019390D01*
X034858Y019517D02*
X035212Y019517D01*
X034858Y019753D01*
X035212Y019753D01*
X035035Y019879D02*
X035035Y020056D01*
X034976Y020115D01*
X034917Y020115D01*
X034858Y020056D01*
X034858Y019938D01*
X034917Y019879D01*
X035035Y019879D01*
X035153Y019997D01*
X035212Y020115D01*
X035153Y019390D02*
X035212Y019331D01*
X035212Y019213D01*
X031668Y019213D02*
X031609Y019154D01*
X031373Y019154D01*
X031314Y019213D01*
X031314Y019331D01*
X031373Y019390D01*
X031314Y019517D02*
X031668Y019517D01*
X031314Y019753D01*
X031668Y019753D01*
X031668Y019879D02*
X031668Y020115D01*
X031609Y020115D01*
X031373Y019879D01*
X031314Y019879D01*
X031609Y019390D02*
X031668Y019331D01*
X031668Y019213D01*
X028125Y019213D02*
X028066Y019154D01*
X027830Y019154D01*
X027771Y019213D01*
X027771Y019331D01*
X027830Y019390D01*
X027771Y019517D02*
X028125Y019517D01*
X027771Y019753D01*
X028125Y019753D01*
X028066Y019879D02*
X028007Y019879D01*
X027948Y019938D01*
X027948Y020115D01*
X027830Y020115D02*
X028066Y020115D01*
X028125Y020056D01*
X028125Y019938D01*
X028066Y019879D01*
X027830Y019879D02*
X027771Y019938D01*
X027771Y020056D01*
X027830Y020115D01*
X028066Y019390D02*
X028125Y019331D01*
X028125Y019213D01*
X028012Y016752D02*
X028012Y016398D01*
X027776Y016398D01*
X027731Y016398D02*
X027554Y016398D01*
X027495Y016457D01*
X027495Y016516D01*
X027554Y016575D01*
X027495Y016693D02*
X027554Y016752D01*
X027731Y016752D01*
X027731Y016398D01*
X027776Y016752D02*
X028012Y016752D01*
X024582Y019213D02*
X024523Y019154D01*
X024287Y019154D01*
X024228Y019213D01*
X024228Y019331D01*
X024287Y019390D01*
X024228Y019517D02*
X024582Y019517D01*
X024228Y019753D01*
X024582Y019753D01*
X024523Y019879D02*
X024464Y019879D01*
X024405Y019938D01*
X024405Y020056D01*
X024346Y020115D01*
X024287Y020115D01*
X024228Y020056D01*
X024228Y019938D01*
X024287Y019879D01*
X024346Y019879D01*
X024405Y019938D01*
X024405Y020056D02*
X024464Y020115D01*
X024523Y020115D01*
X024582Y020056D01*
X024582Y019938D01*
X024523Y019879D01*
X024523Y019390D02*
X024582Y019331D01*
X024582Y019213D01*
X021039Y019213D02*
X020980Y019154D01*
X020744Y019154D01*
X020685Y019213D01*
X020685Y019331D01*
X020744Y019390D01*
X020685Y019517D02*
X021039Y019517D01*
X020685Y019753D01*
X021039Y019753D01*
X021039Y019879D02*
X020862Y019879D01*
X020921Y019997D01*
X020921Y020056D01*
X020862Y020115D01*
X020744Y020115D01*
X020685Y020056D01*
X020685Y019938D01*
X020744Y019879D01*
X021039Y019879D02*
X021039Y020115D01*
X020980Y019390D02*
X021039Y019331D01*
X021039Y019213D01*
X017298Y020394D02*
X017239Y020335D01*
X017121Y020335D01*
X017062Y020394D01*
X016936Y020335D02*
X016936Y020689D01*
X016700Y020335D01*
X016700Y020689D01*
X016573Y020571D02*
X016455Y020689D01*
X016455Y020335D01*
X016573Y020335D02*
X016337Y020335D01*
X016211Y020394D02*
X015975Y020630D01*
X015975Y020394D01*
X016034Y020335D01*
X016152Y020335D01*
X016211Y020394D01*
X016211Y020630D01*
X016152Y020689D01*
X016034Y020689D01*
X015975Y020630D01*
X017062Y020630D02*
X017121Y020689D01*
X017239Y020689D01*
X017298Y020630D01*
X017298Y020394D01*
X017382Y016752D02*
X017382Y016398D01*
X017382Y016752D02*
X017146Y016752D01*
X030023Y048583D02*
X030259Y048583D01*
X030023Y048819D01*
X030023Y048878D01*
X030082Y048937D01*
X030200Y048937D01*
X030259Y048878D01*
X030386Y048937D02*
X030386Y048583D01*
X030622Y048937D01*
X030622Y048583D01*
X030748Y048642D02*
X030807Y048583D01*
X030925Y048583D01*
X030984Y048642D01*
X030984Y048878D01*
X030925Y048937D01*
X030807Y048937D01*
X030748Y048878D01*
X029978Y052816D02*
X029801Y052816D01*
X029742Y052875D01*
X029742Y052934D01*
X029801Y052993D01*
X029978Y052993D01*
X029978Y053170D02*
X029801Y053170D01*
X029742Y053111D01*
X029742Y053052D01*
X029801Y052993D01*
X029616Y053111D02*
X029616Y052875D01*
X029557Y052816D01*
X029439Y052816D01*
X029380Y052875D01*
X029380Y053111D01*
X029439Y053170D01*
X029557Y053170D01*
X029616Y053111D01*
X029978Y053170D02*
X029978Y052816D01*
X029253Y052816D02*
X029253Y053052D01*
X029135Y053170D01*
X029017Y053052D01*
X029017Y052816D01*
X028891Y052816D02*
X028891Y053170D01*
X028714Y053170D01*
X028655Y053111D01*
X028655Y052993D01*
X028714Y052934D01*
X028891Y052934D01*
X028773Y052934D02*
X028655Y052816D01*
X028528Y052816D02*
X028351Y052816D01*
X028292Y052875D01*
X028292Y053111D01*
X028351Y053170D01*
X028528Y053170D01*
X028528Y052816D01*
X029017Y052993D02*
X029253Y052993D01*
X027803Y052993D02*
X027685Y052993D01*
X027567Y053170D02*
X027803Y053170D01*
X027803Y052816D01*
X027567Y052816D01*
X027441Y052816D02*
X027264Y052816D01*
X027205Y052875D01*
X027205Y053111D01*
X027264Y053170D01*
X027441Y053170D01*
X027441Y052816D01*
X027078Y052875D02*
X027019Y052816D01*
X026901Y052816D01*
X026842Y052875D01*
X026842Y052993D01*
X026960Y052993D01*
X026842Y053111D02*
X026901Y053170D01*
X027019Y053170D01*
X027078Y053111D01*
X027078Y052875D01*
X026716Y052816D02*
X026480Y052816D01*
X026598Y052993D02*
X026716Y052993D01*
X026716Y053170D02*
X026716Y052816D01*
X026716Y053170D02*
X026480Y053170D01*
X015133Y052422D02*
X015133Y052363D01*
X015074Y052304D01*
X014956Y052304D01*
X014897Y052245D01*
X014897Y052186D01*
X014956Y052127D01*
X015074Y052127D01*
X015133Y052186D01*
X015133Y052422D02*
X015074Y052481D01*
X014956Y052481D01*
X014897Y052422D01*
X014770Y052481D02*
X014770Y052127D01*
X014652Y052245D01*
X014534Y052127D01*
X014534Y052481D01*
X014408Y052422D02*
X014349Y052481D01*
X014231Y052481D01*
X014172Y052422D01*
X014172Y052363D01*
X014408Y052127D01*
X014172Y052127D01*
X014191Y051496D02*
X014368Y051319D01*
X014132Y051319D01*
X014191Y051142D02*
X014191Y051496D01*
X014495Y051496D02*
X014495Y051142D01*
X014613Y051260D01*
X014731Y051142D01*
X014731Y051496D01*
X014857Y051437D02*
X014916Y051496D01*
X015034Y051496D01*
X015093Y051437D01*
X015093Y051378D01*
X015034Y051319D01*
X014916Y051319D01*
X014857Y051260D01*
X014857Y051201D01*
X014916Y051142D01*
X015034Y051142D01*
X015093Y051201D01*
D12*
X018913Y052520D03*
X021472Y052520D03*
M02*
