G75*
%MOIN*%
%OFA0B0*%
%FSLAX24Y24*%
%IPPOS*%
%LPD*%
%AMOC8*
5,1,8,0,0,1.08239X$1,22.5*
%
%ADD10C,0.0217*%
%ADD11C,0.0276*%
%ADD12R,0.0560X0.0560*%
%ADD13C,0.0560*%
%ADD14R,0.0394X0.0394*%
%ADD15C,0.0394*%
%ADD16R,0.0512X0.0512*%
%ADD17C,0.0512*%
%ADD18C,0.0049*%
%ADD19C,0.0202*%
%ADD20C,0.0500*%
%ADD21R,0.0709X0.0709*%
%ADD22C,0.0760*%
%ADD23C,0.0123*%
%ADD24C,0.0315*%
%ADD25C,0.0079*%
%ADD26C,0.0500*%
%ADD27C,0.0559*%
%ADD28C,0.0236*%
%ADD29C,0.0157*%
%ADD30C,0.0118*%
%ADD31C,0.2540*%
%ADD32C,0.0354*%
%ADD33C,0.0197*%
%ADD34C,0.0472*%
D10*
X017958Y017785D02*
X017958Y018435D01*
X017958Y017785D02*
X016994Y017785D01*
X016994Y018435D01*
X017958Y018435D01*
X017958Y018001D02*
X016994Y018001D01*
X016994Y018217D02*
X017958Y018217D01*
X017958Y018433D02*
X016994Y018433D01*
X021501Y018435D02*
X021501Y017785D01*
X020537Y017785D01*
X020537Y018435D01*
X021501Y018435D01*
X021501Y018001D02*
X020537Y018001D01*
X020537Y018217D02*
X021501Y018217D01*
X021501Y018433D02*
X020537Y018433D01*
X025044Y018435D02*
X025044Y017785D01*
X024080Y017785D01*
X024080Y018435D01*
X025044Y018435D01*
X025044Y018001D02*
X024080Y018001D01*
X024080Y018217D02*
X025044Y018217D01*
X025044Y018433D02*
X024080Y018433D01*
X028587Y018435D02*
X028587Y017785D01*
X027623Y017785D01*
X027623Y018435D01*
X028587Y018435D01*
X028587Y018001D02*
X027623Y018001D01*
X027623Y018217D02*
X028587Y018217D01*
X028587Y018433D02*
X027623Y018433D01*
X032131Y018435D02*
X032131Y017785D01*
X031167Y017785D01*
X031167Y018435D01*
X032131Y018435D01*
X032131Y018001D02*
X031167Y018001D01*
X031167Y018217D02*
X032131Y018217D01*
X032131Y018433D02*
X031167Y018433D01*
X035674Y018435D02*
X035674Y017785D01*
X034710Y017785D01*
X034710Y018435D01*
X035674Y018435D01*
X035674Y018001D02*
X034710Y018001D01*
X034710Y018217D02*
X035674Y018217D01*
X035674Y018433D02*
X034710Y018433D01*
D11*
X034740Y021398D02*
X034740Y022224D01*
X035644Y022224D01*
X035644Y021398D01*
X034740Y021398D01*
X034740Y021673D02*
X035644Y021673D01*
X035644Y021948D02*
X034740Y021948D01*
X034740Y022223D02*
X035644Y022223D01*
X036492Y023838D02*
X037318Y023838D01*
X037318Y022934D01*
X036492Y022934D01*
X036492Y023838D01*
X036492Y023209D02*
X037318Y023209D01*
X037318Y023484D02*
X036492Y023484D01*
X036492Y023759D02*
X037318Y023759D01*
X033774Y023838D02*
X032948Y023838D01*
X033774Y023838D02*
X033774Y022934D01*
X032948Y022934D01*
X032948Y023838D01*
X032948Y023209D02*
X033774Y023209D01*
X033774Y023484D02*
X032948Y023484D01*
X032948Y023759D02*
X033774Y023759D01*
X031197Y022224D02*
X031197Y021398D01*
X031197Y022224D02*
X032101Y022224D01*
X032101Y021398D01*
X031197Y021398D01*
X031197Y021673D02*
X032101Y021673D01*
X032101Y021948D02*
X031197Y021948D01*
X031197Y022223D02*
X032101Y022223D01*
X030231Y023838D02*
X029405Y023838D01*
X030231Y023838D02*
X030231Y022934D01*
X029405Y022934D01*
X029405Y023838D01*
X029405Y023209D02*
X030231Y023209D01*
X030231Y023484D02*
X029405Y023484D01*
X029405Y023759D02*
X030231Y023759D01*
X027653Y022224D02*
X027653Y021398D01*
X027653Y022224D02*
X028557Y022224D01*
X028557Y021398D01*
X027653Y021398D01*
X027653Y021673D02*
X028557Y021673D01*
X028557Y021948D02*
X027653Y021948D01*
X027653Y022223D02*
X028557Y022223D01*
X026688Y023838D02*
X025862Y023838D01*
X026688Y023838D02*
X026688Y022934D01*
X025862Y022934D01*
X025862Y023838D01*
X025862Y023209D02*
X026688Y023209D01*
X026688Y023484D02*
X025862Y023484D01*
X025862Y023759D02*
X026688Y023759D01*
X024110Y022224D02*
X024110Y021398D01*
X024110Y022224D02*
X025014Y022224D01*
X025014Y021398D01*
X024110Y021398D01*
X024110Y021673D02*
X025014Y021673D01*
X025014Y021948D02*
X024110Y021948D01*
X024110Y022223D02*
X025014Y022223D01*
X023144Y023838D02*
X022318Y023838D01*
X023144Y023838D02*
X023144Y022934D01*
X022318Y022934D01*
X022318Y023838D01*
X022318Y023209D02*
X023144Y023209D01*
X023144Y023484D02*
X022318Y023484D01*
X022318Y023759D02*
X023144Y023759D01*
X020567Y022224D02*
X020567Y021398D01*
X020567Y022224D02*
X021471Y022224D01*
X021471Y021398D01*
X020567Y021398D01*
X020567Y021673D02*
X021471Y021673D01*
X021471Y021948D02*
X020567Y021948D01*
X020567Y022223D02*
X021471Y022223D01*
X019601Y023838D02*
X018775Y023838D01*
X019601Y023838D02*
X019601Y022934D01*
X018775Y022934D01*
X018775Y023838D01*
X018775Y023209D02*
X019601Y023209D01*
X019601Y023484D02*
X018775Y023484D01*
X018775Y023759D02*
X019601Y023759D01*
X017024Y022224D02*
X017024Y021398D01*
X017024Y022224D02*
X017928Y022224D01*
X017928Y021398D01*
X017024Y021398D01*
X017024Y021673D02*
X017928Y021673D01*
X017928Y021948D02*
X017024Y021948D01*
X017024Y022223D02*
X017928Y022223D01*
X015448Y044134D02*
X014464Y044134D01*
X014464Y045118D02*
X015448Y045118D01*
D12*
X017318Y044528D03*
X018688Y043544D03*
X013775Y037729D03*
X021944Y035874D03*
X024011Y028477D03*
X031976Y039114D03*
X028539Y045701D03*
X029798Y046693D03*
D13*
X029798Y045693D03*
X029798Y044693D03*
X028539Y046701D03*
X033417Y050662D03*
X034417Y050662D03*
X035417Y050662D03*
X032976Y039114D03*
X024011Y029477D03*
X021944Y034874D03*
X017318Y042528D03*
X017318Y043528D03*
X019688Y043544D03*
X013775Y038729D03*
D14*
X015448Y046103D03*
D15*
X014464Y046103D03*
X014464Y045118D03*
X015448Y045118D03*
X015448Y044134D03*
X014464Y044134D03*
X033657Y032717D03*
D16*
X020661Y026170D03*
D17*
X020661Y026957D03*
X021448Y026957D03*
X022235Y026957D03*
X022235Y026170D03*
X021448Y026170D03*
X023023Y026170D03*
X023023Y026957D03*
X023810Y026957D03*
X023810Y026170D03*
X024598Y026170D03*
X024598Y026957D03*
X025385Y026957D03*
X026172Y026957D03*
X026172Y026170D03*
X025385Y026170D03*
D18*
X027441Y049532D02*
X027441Y050370D01*
X027589Y050370D01*
X027589Y049532D01*
X027441Y049532D01*
X027441Y049580D02*
X027589Y049580D01*
X027589Y049628D02*
X027441Y049628D01*
X027441Y049676D02*
X027589Y049676D01*
X027589Y049724D02*
X027441Y049724D01*
X027441Y049772D02*
X027589Y049772D01*
X027589Y049820D02*
X027441Y049820D01*
X027441Y049868D02*
X027589Y049868D01*
X027589Y049916D02*
X027441Y049916D01*
X027441Y049964D02*
X027589Y049964D01*
X027589Y050012D02*
X027441Y050012D01*
X027441Y050060D02*
X027589Y050060D01*
X027589Y050108D02*
X027441Y050108D01*
X027441Y050156D02*
X027589Y050156D01*
X027589Y050204D02*
X027441Y050204D01*
X027441Y050252D02*
X027589Y050252D01*
X027589Y050300D02*
X027441Y050300D01*
X027441Y050348D02*
X027589Y050348D01*
X027756Y050370D02*
X027756Y049532D01*
X027756Y050370D02*
X027904Y050370D01*
X027904Y049532D01*
X027756Y049532D01*
X027756Y049580D02*
X027904Y049580D01*
X027904Y049628D02*
X027756Y049628D01*
X027756Y049676D02*
X027904Y049676D01*
X027904Y049724D02*
X027756Y049724D01*
X027756Y049772D02*
X027904Y049772D01*
X027904Y049820D02*
X027756Y049820D01*
X027756Y049868D02*
X027904Y049868D01*
X027904Y049916D02*
X027756Y049916D01*
X027756Y049964D02*
X027904Y049964D01*
X027904Y050012D02*
X027756Y050012D01*
X027756Y050060D02*
X027904Y050060D01*
X027904Y050108D02*
X027756Y050108D01*
X027756Y050156D02*
X027904Y050156D01*
X027904Y050204D02*
X027756Y050204D01*
X027756Y050252D02*
X027904Y050252D01*
X027904Y050300D02*
X027756Y050300D01*
X027756Y050348D02*
X027904Y050348D01*
X028071Y050370D02*
X028071Y049532D01*
X028071Y050370D02*
X028219Y050370D01*
X028219Y049532D01*
X028071Y049532D01*
X028071Y049580D02*
X028219Y049580D01*
X028219Y049628D02*
X028071Y049628D01*
X028071Y049676D02*
X028219Y049676D01*
X028219Y049724D02*
X028071Y049724D01*
X028071Y049772D02*
X028219Y049772D01*
X028219Y049820D02*
X028071Y049820D01*
X028071Y049868D02*
X028219Y049868D01*
X028219Y049916D02*
X028071Y049916D01*
X028071Y049964D02*
X028219Y049964D01*
X028219Y050012D02*
X028071Y050012D01*
X028071Y050060D02*
X028219Y050060D01*
X028219Y050108D02*
X028071Y050108D01*
X028071Y050156D02*
X028219Y050156D01*
X028219Y050204D02*
X028071Y050204D01*
X028071Y050252D02*
X028219Y050252D01*
X028219Y050300D02*
X028071Y050300D01*
X028071Y050348D02*
X028219Y050348D01*
X028386Y050370D02*
X028386Y049532D01*
X028386Y050370D02*
X028534Y050370D01*
X028534Y049532D01*
X028386Y049532D01*
X028386Y049580D02*
X028534Y049580D01*
X028534Y049628D02*
X028386Y049628D01*
X028386Y049676D02*
X028534Y049676D01*
X028534Y049724D02*
X028386Y049724D01*
X028386Y049772D02*
X028534Y049772D01*
X028534Y049820D02*
X028386Y049820D01*
X028386Y049868D02*
X028534Y049868D01*
X028534Y049916D02*
X028386Y049916D01*
X028386Y049964D02*
X028534Y049964D01*
X028534Y050012D02*
X028386Y050012D01*
X028386Y050060D02*
X028534Y050060D01*
X028534Y050108D02*
X028386Y050108D01*
X028386Y050156D02*
X028534Y050156D01*
X028534Y050204D02*
X028386Y050204D01*
X028386Y050252D02*
X028534Y050252D01*
X028534Y050300D02*
X028386Y050300D01*
X028386Y050348D02*
X028534Y050348D01*
X028701Y050370D02*
X028701Y049532D01*
X028701Y050370D02*
X028849Y050370D01*
X028849Y049532D01*
X028701Y049532D01*
X028701Y049580D02*
X028849Y049580D01*
X028849Y049628D02*
X028701Y049628D01*
X028701Y049676D02*
X028849Y049676D01*
X028849Y049724D02*
X028701Y049724D01*
X028701Y049772D02*
X028849Y049772D01*
X028849Y049820D02*
X028701Y049820D01*
X028701Y049868D02*
X028849Y049868D01*
X028849Y049916D02*
X028701Y049916D01*
X028701Y049964D02*
X028849Y049964D01*
X028849Y050012D02*
X028701Y050012D01*
X028701Y050060D02*
X028849Y050060D01*
X028849Y050108D02*
X028701Y050108D01*
X028701Y050156D02*
X028849Y050156D01*
X028849Y050204D02*
X028701Y050204D01*
X028701Y050252D02*
X028849Y050252D01*
X028849Y050300D02*
X028701Y050300D01*
X028701Y050348D02*
X028849Y050348D01*
D19*
X030008Y050529D02*
X030008Y049353D01*
X030008Y050529D02*
X030612Y050529D01*
X030612Y049353D01*
X030008Y049353D01*
X030008Y049554D02*
X030612Y049554D01*
X030612Y049755D02*
X030008Y049755D01*
X030008Y049956D02*
X030612Y049956D01*
X030612Y050157D02*
X030008Y050157D01*
X030008Y050358D02*
X030612Y050358D01*
X030008Y050928D02*
X030008Y052300D01*
X030612Y052300D01*
X030612Y050928D01*
X030008Y050928D01*
X030008Y051129D02*
X030612Y051129D01*
X030612Y051330D02*
X030008Y051330D01*
X030008Y051531D02*
X030612Y051531D01*
X030612Y051732D02*
X030008Y051732D01*
X030008Y051933D02*
X030612Y051933D01*
X030612Y052134D02*
X030008Y052134D01*
X025678Y052300D02*
X025678Y050928D01*
X025678Y052300D02*
X026282Y052300D01*
X026282Y050928D01*
X025678Y050928D01*
X025678Y051129D02*
X026282Y051129D01*
X026282Y051330D02*
X025678Y051330D01*
X025678Y051531D02*
X026282Y051531D01*
X026282Y051732D02*
X025678Y051732D01*
X025678Y051933D02*
X026282Y051933D01*
X026282Y052134D02*
X025678Y052134D01*
X025678Y050529D02*
X025678Y049353D01*
X025678Y050529D02*
X026282Y050529D01*
X026282Y049353D01*
X025678Y049353D01*
X025678Y049554D02*
X026282Y049554D01*
X026282Y049755D02*
X025678Y049755D01*
X025678Y049956D02*
X026282Y049956D01*
X026282Y050157D02*
X025678Y050157D01*
X025678Y050358D02*
X026282Y050358D01*
D20*
X026964Y049449D03*
X029326Y049449D03*
X029326Y052008D03*
X026964Y052008D03*
X034822Y038607D03*
X035822Y038607D03*
X036822Y038607D03*
X036822Y034079D03*
X035822Y034079D03*
X034822Y034079D03*
X034822Y029551D03*
X035822Y029551D03*
X036822Y029551D03*
D21*
X025086Y031536D03*
D22*
X026086Y031536D03*
D23*
X021360Y051343D02*
X020970Y051343D01*
X021360Y051343D02*
X021360Y050973D01*
X020970Y050973D01*
X020970Y051343D01*
X020970Y051095D02*
X021360Y051095D01*
X021360Y051217D02*
X020970Y051217D01*
X020970Y051339D02*
X021360Y051339D01*
X021360Y052256D02*
X020970Y052256D01*
X021360Y052256D02*
X021360Y051886D01*
X020970Y051886D01*
X020970Y052256D01*
X020970Y052008D02*
X021360Y052008D01*
X021360Y052130D02*
X020970Y052130D01*
X020970Y052252D02*
X021360Y052252D01*
X020360Y052256D02*
X019970Y052256D01*
X020360Y052256D02*
X020360Y051886D01*
X019970Y051886D01*
X019970Y052256D01*
X019970Y052008D02*
X020360Y052008D01*
X020360Y052130D02*
X019970Y052130D01*
X019970Y052252D02*
X020360Y052252D01*
X020360Y051343D02*
X019970Y051343D01*
X020360Y051343D02*
X020360Y050973D01*
X019970Y050973D01*
X019970Y051343D01*
X019970Y051095D02*
X020360Y051095D01*
X020360Y051217D02*
X019970Y051217D01*
X019970Y051339D02*
X020360Y051339D01*
X018800Y051343D02*
X018410Y051343D01*
X018800Y051343D02*
X018800Y050973D01*
X018410Y050973D01*
X018410Y051343D01*
X018410Y051095D02*
X018800Y051095D01*
X018800Y051217D02*
X018410Y051217D01*
X018410Y051339D02*
X018800Y051339D01*
X018800Y052256D02*
X018410Y052256D01*
X018800Y052256D02*
X018800Y051886D01*
X018410Y051886D01*
X018410Y052256D01*
X018410Y052008D02*
X018800Y052008D01*
X018800Y052130D02*
X018410Y052130D01*
X018410Y052252D02*
X018800Y052252D01*
X017800Y052256D02*
X017410Y052256D01*
X017800Y052256D02*
X017800Y051886D01*
X017410Y051886D01*
X017410Y052256D01*
X017410Y052008D02*
X017800Y052008D01*
X017800Y052130D02*
X017410Y052130D01*
X017410Y052252D02*
X017800Y052252D01*
X017800Y051343D02*
X017410Y051343D01*
X017800Y051343D02*
X017800Y050973D01*
X017410Y050973D01*
X017410Y051343D01*
X017410Y051095D02*
X017800Y051095D01*
X017800Y051217D02*
X017410Y051217D01*
X017410Y051339D02*
X017800Y051339D01*
D24*
X017515Y050630D03*
X016924Y050709D03*
X016924Y051221D03*
X016924Y052008D03*
X017515Y049843D03*
X018105Y050040D03*
X019483Y049449D03*
X019090Y048662D03*
X019877Y048465D03*
X020271Y048465D03*
X021452Y048465D03*
X022239Y048465D03*
X021649Y049449D03*
X022633Y050040D03*
X023420Y050040D03*
X023420Y049449D03*
X023105Y048425D03*
X023027Y046496D03*
X022239Y045315D03*
X022633Y045118D03*
X024011Y045315D03*
X025192Y046949D03*
X025724Y047323D03*
X025980Y047717D03*
X026767Y047284D03*
X027357Y047284D03*
X027909Y047599D03*
X027436Y047953D03*
X027751Y048268D03*
X029129Y048662D03*
X029523Y048465D03*
X029523Y048071D03*
X029129Y047874D03*
X026964Y050040D03*
X028460Y050650D03*
X025231Y050551D03*
X025389Y049055D03*
X026058Y046811D03*
X026373Y046496D03*
X027357Y045512D03*
X028539Y043544D03*
X028539Y042362D03*
X027554Y041772D03*
X027751Y041378D03*
X027554Y040591D03*
X026373Y039410D03*
X025586Y039016D03*
X025192Y039213D03*
X024798Y039410D03*
X024208Y039410D03*
X023224Y039410D03*
X022436Y039410D03*
X021255Y039410D03*
X020271Y038622D03*
X019680Y040000D03*
X019287Y040591D03*
X019011Y039685D03*
X018105Y039213D03*
X017909Y040197D03*
X017909Y040985D03*
X017909Y041772D03*
X017909Y042559D03*
X019090Y044528D03*
X019877Y044134D03*
X020074Y043150D03*
X020074Y040985D03*
X020074Y040591D03*
X021452Y037638D03*
X019483Y035670D03*
X018499Y035473D03*
X018499Y034292D03*
X018893Y034292D03*
X019287Y034292D03*
X019287Y032914D03*
X019287Y032520D03*
X019287Y032126D03*
X018893Y032126D03*
X018499Y032126D03*
X018499Y032520D03*
X018499Y032914D03*
X018893Y032914D03*
X018893Y032520D03*
X018893Y030945D03*
X019287Y030945D03*
X018499Y030945D03*
X016924Y032323D03*
X016531Y032323D03*
X016137Y032323D03*
X016137Y031142D03*
X015350Y031142D03*
X014562Y031142D03*
X013775Y031142D03*
X016531Y034095D03*
X017239Y035788D03*
X018105Y037441D03*
X015743Y037441D03*
X015743Y039607D03*
X015546Y040000D03*
X015546Y041772D03*
X019287Y045709D03*
X020212Y046949D03*
X021255Y046693D03*
X021058Y046103D03*
X020271Y050040D03*
X020074Y050433D03*
X019739Y050709D03*
X019129Y051221D03*
X021058Y050630D03*
X023027Y051221D03*
X025389Y043544D03*
X024995Y042756D03*
X024995Y040788D03*
X024208Y040788D03*
X023420Y040788D03*
X024798Y038229D03*
X025980Y038622D03*
X026373Y035276D03*
X025783Y035079D03*
X023814Y035079D03*
X020861Y032717D03*
X020724Y031240D03*
X021747Y031221D03*
X022830Y027992D03*
X019897Y027953D03*
X022042Y021890D03*
X022436Y021299D03*
X019680Y021299D03*
X025389Y023268D03*
X026570Y022087D03*
X026964Y021496D03*
X026885Y020315D03*
X026885Y019528D03*
X026885Y018740D03*
X026885Y017953D03*
X029917Y021103D03*
X029917Y021890D03*
X027751Y022874D03*
X028735Y024449D03*
X027948Y026811D03*
X026491Y027953D03*
X026964Y028977D03*
X027948Y029567D03*
X030310Y028977D03*
X032869Y028583D03*
X033263Y028977D03*
X034050Y028780D03*
X033657Y026811D03*
X031688Y025040D03*
X031688Y024449D03*
X026767Y025236D03*
X033657Y033307D03*
X033854Y033898D03*
X032672Y034095D03*
X032082Y035079D03*
X033263Y035079D03*
X033854Y036654D03*
X036413Y037244D03*
X033657Y040197D03*
X032672Y041969D03*
X034050Y042362D03*
X033991Y043229D03*
X034444Y044134D03*
X034050Y044331D03*
X033657Y044528D03*
X032279Y044528D03*
X031688Y044528D03*
X031294Y044134D03*
X030704Y042166D03*
X030901Y041772D03*
X031098Y041378D03*
X031294Y040985D03*
X031491Y040591D03*
X029523Y042362D03*
X029326Y038622D03*
X030704Y037835D03*
X030310Y036260D03*
X030310Y035276D03*
X030901Y035079D03*
X029720Y034095D03*
X028539Y035276D03*
X027948Y034095D03*
X037003Y033110D03*
X036806Y041969D03*
X036905Y042933D03*
X037200Y044134D03*
X036216Y044134D03*
X035822Y044134D03*
X034444Y046496D03*
X034444Y049843D03*
X032672Y049843D03*
X014956Y051811D03*
X014365Y034882D03*
X013578Y034685D03*
D25*
X013806Y034467D02*
X019592Y034467D01*
X019669Y034390D02*
X016640Y034390D01*
X016593Y034410D02*
X016468Y034410D01*
X016352Y034362D01*
X016264Y034273D01*
X016216Y034157D01*
X016216Y034032D01*
X016264Y033916D01*
X016294Y033886D01*
X016294Y032914D01*
X015662Y032914D01*
X015546Y032798D01*
X015546Y031929D01*
X013300Y031929D01*
X013184Y031814D01*
X013184Y030667D01*
X013300Y030551D01*
X017400Y030551D01*
X017515Y030667D01*
X017515Y032798D01*
X017400Y032914D01*
X017237Y032914D01*
X016767Y032914D01*
X016767Y033886D01*
X016798Y033916D01*
X016846Y034032D01*
X016846Y034157D01*
X016798Y034273D01*
X016709Y034362D01*
X016593Y034410D01*
X016421Y034390D02*
X013689Y034390D01*
X013641Y034370D02*
X013756Y034418D01*
X013845Y034507D01*
X013893Y034623D01*
X013893Y034748D01*
X013845Y034864D01*
X013756Y034952D01*
X013641Y035000D01*
X013515Y035000D01*
X013400Y034952D01*
X013311Y034864D01*
X013263Y034748D01*
X013263Y034623D01*
X013311Y034507D01*
X013400Y034418D01*
X013515Y034370D01*
X013641Y034370D01*
X013467Y034390D02*
X012987Y034390D01*
X012987Y034313D02*
X016303Y034313D01*
X016248Y034236D02*
X012987Y034236D01*
X012987Y034159D02*
X016216Y034159D01*
X016216Y034081D02*
X012987Y034081D01*
X012987Y034004D02*
X016227Y034004D01*
X016259Y033927D02*
X012987Y033927D01*
X012987Y033850D02*
X016294Y033850D01*
X016294Y033772D02*
X012987Y033772D01*
X012987Y033695D02*
X016294Y033695D01*
X016294Y033618D02*
X012987Y033618D01*
X012987Y033541D02*
X016294Y033541D01*
X016294Y033463D02*
X012987Y033463D01*
X012987Y033386D02*
X016294Y033386D01*
X016294Y033309D02*
X012987Y033309D01*
X012987Y033232D02*
X016294Y033232D01*
X016294Y033154D02*
X012987Y033154D01*
X012987Y033077D02*
X016294Y033077D01*
X016294Y033000D02*
X012987Y033000D01*
X012987Y032923D02*
X016294Y032923D01*
X016223Y032607D02*
X016166Y032618D01*
X016137Y032618D01*
X016108Y032618D01*
X016051Y032607D01*
X015997Y032585D01*
X015949Y032552D01*
X015908Y032511D01*
X015875Y032463D01*
X015853Y032409D01*
X015842Y032352D01*
X015842Y032323D01*
X015842Y032294D01*
X015853Y032237D01*
X015875Y032183D01*
X015908Y032135D01*
X015949Y032094D01*
X015997Y032061D01*
X016051Y032039D01*
X016108Y032028D01*
X016137Y032028D01*
X016166Y032028D01*
X016223Y032039D01*
X016277Y032061D01*
X016325Y032094D01*
X016334Y032102D01*
X016342Y032094D01*
X016391Y032061D01*
X016445Y032039D01*
X016502Y032028D01*
X016531Y032028D01*
X016560Y032028D01*
X016617Y032039D01*
X016671Y032061D01*
X016719Y032094D01*
X016728Y032102D01*
X016736Y032094D01*
X016785Y032061D01*
X016838Y032039D01*
X016895Y032028D01*
X016924Y032028D01*
X016924Y032323D01*
X016531Y032323D01*
X016531Y032323D01*
X016826Y032323D01*
X016924Y032323D01*
X016924Y032323D01*
X016924Y032323D01*
X016924Y032618D01*
X016895Y032618D01*
X016838Y032607D01*
X016785Y032585D01*
X016736Y032552D01*
X016728Y032544D01*
X016719Y032552D01*
X016671Y032585D01*
X016617Y032607D01*
X016560Y032618D01*
X016531Y032618D01*
X016531Y032323D01*
X016531Y032028D01*
X016531Y032323D01*
X016531Y032323D01*
X016531Y032323D01*
X016531Y032618D01*
X016502Y032618D01*
X016445Y032607D01*
X016391Y032585D01*
X016342Y032552D01*
X016334Y032544D01*
X016325Y032552D01*
X016277Y032585D01*
X016223Y032607D01*
X016190Y032614D02*
X016478Y032614D01*
X016531Y032614D02*
X016531Y032614D01*
X016583Y032614D02*
X016872Y032614D01*
X016924Y032614D02*
X016924Y032614D01*
X016924Y032618D02*
X016924Y032323D01*
X016924Y032323D01*
X016924Y032028D01*
X016953Y032028D01*
X017011Y032039D01*
X017064Y032061D01*
X017113Y032094D01*
X017154Y032135D01*
X017186Y032183D01*
X017208Y032237D01*
X017220Y032294D01*
X017220Y032323D01*
X016924Y032323D01*
X016924Y032323D01*
X017220Y032323D01*
X017220Y032352D01*
X017208Y032409D01*
X017186Y032463D01*
X017154Y032511D01*
X017113Y032552D01*
X017064Y032585D01*
X017011Y032607D01*
X016953Y032618D01*
X016924Y032618D01*
X016977Y032614D02*
X017318Y032614D01*
X017318Y032691D02*
X015743Y032691D01*
X015743Y032717D02*
X015743Y031733D01*
X013381Y031733D01*
X013381Y030748D01*
X017318Y030748D01*
X017318Y032717D01*
X015743Y032717D01*
X015743Y032614D02*
X016084Y032614D01*
X016137Y032614D02*
X016137Y032614D01*
X016137Y032618D02*
X016137Y032323D01*
X016137Y032028D01*
X016137Y032323D01*
X016137Y032323D01*
X016137Y032323D01*
X016531Y032323D01*
X016531Y032323D01*
X016432Y032323D01*
X016137Y032323D01*
X015842Y032323D01*
X016137Y032323D01*
X016137Y032323D01*
X016137Y032323D01*
X016137Y032618D01*
X016137Y032536D02*
X016137Y032536D01*
X016137Y032459D02*
X016137Y032459D01*
X016137Y032382D02*
X016137Y032382D01*
X016137Y032305D02*
X016137Y032305D01*
X016137Y032227D02*
X016137Y032227D01*
X016137Y032150D02*
X016137Y032150D01*
X016137Y032073D02*
X016137Y032073D01*
X016294Y032073D02*
X016373Y032073D01*
X016531Y032073D02*
X016531Y032073D01*
X016531Y032150D02*
X016531Y032150D01*
X016531Y032227D02*
X016531Y032227D01*
X016531Y032305D02*
X016531Y032305D01*
X016531Y032382D02*
X016531Y032382D01*
X016531Y032459D02*
X016531Y032459D01*
X016531Y032536D02*
X016531Y032536D01*
X016924Y032536D02*
X016924Y032536D01*
X016924Y032459D02*
X016924Y032459D01*
X016924Y032382D02*
X016924Y032382D01*
X016924Y032305D02*
X016924Y032305D01*
X016924Y032227D02*
X016924Y032227D01*
X016924Y032150D02*
X016924Y032150D01*
X016924Y032073D02*
X016924Y032073D01*
X016767Y032073D02*
X016688Y032073D01*
X017082Y032073D02*
X017318Y032073D01*
X017318Y031996D02*
X015743Y031996D01*
X015743Y032073D02*
X015980Y032073D01*
X015897Y032150D02*
X015743Y032150D01*
X015743Y032227D02*
X015857Y032227D01*
X015842Y032305D02*
X015743Y032305D01*
X015743Y032382D02*
X015848Y032382D01*
X015874Y032459D02*
X015743Y032459D01*
X015743Y032536D02*
X015933Y032536D01*
X015546Y032536D02*
X012987Y032536D01*
X012987Y032459D02*
X015546Y032459D01*
X015546Y032382D02*
X012987Y032382D01*
X012987Y032305D02*
X015546Y032305D01*
X015546Y032227D02*
X012987Y032227D01*
X012987Y032150D02*
X015546Y032150D01*
X015546Y032073D02*
X012987Y032073D01*
X012987Y031996D02*
X015546Y031996D01*
X015743Y031919D02*
X017318Y031919D01*
X017318Y031841D02*
X015743Y031841D01*
X015743Y031764D02*
X017318Y031764D01*
X017318Y031687D02*
X013381Y031687D01*
X013381Y031610D02*
X017318Y031610D01*
X017318Y031532D02*
X013381Y031532D01*
X013381Y031455D02*
X017318Y031455D01*
X017318Y031378D02*
X016315Y031378D01*
X016325Y031371D02*
X016277Y031404D01*
X016223Y031426D01*
X016166Y031437D01*
X016137Y031437D01*
X016108Y031437D01*
X016051Y031426D01*
X015997Y031404D01*
X015949Y031371D01*
X015908Y031330D01*
X015875Y031282D01*
X015853Y031228D01*
X015842Y031171D01*
X015842Y031142D01*
X015842Y031113D01*
X015853Y031056D01*
X015875Y031002D01*
X015908Y030954D01*
X015949Y030913D01*
X015997Y030880D01*
X016051Y030858D01*
X016108Y030847D01*
X016137Y030847D01*
X016166Y030847D01*
X016223Y030858D01*
X016277Y030880D01*
X016325Y030913D01*
X016366Y030954D01*
X016399Y031002D01*
X016421Y031056D01*
X016432Y031113D01*
X016432Y031142D01*
X016432Y031171D01*
X016421Y031228D01*
X016399Y031282D01*
X016366Y031330D01*
X016325Y031371D01*
X016386Y031301D02*
X017318Y031301D01*
X017318Y031223D02*
X016422Y031223D01*
X016432Y031146D02*
X017318Y031146D01*
X017318Y031069D02*
X016424Y031069D01*
X016432Y031142D02*
X016137Y031142D01*
X016432Y031142D01*
X016392Y030992D02*
X017318Y030992D01*
X017318Y030914D02*
X016327Y030914D01*
X016137Y030914D02*
X016137Y030914D01*
X016137Y030847D02*
X016137Y031142D01*
X016137Y031142D01*
X016137Y031142D01*
X016137Y031437D01*
X016137Y031142D01*
X016137Y031142D01*
X016137Y030847D01*
X016137Y030992D02*
X016137Y030992D01*
X016137Y031069D02*
X016137Y031069D01*
X016137Y031142D02*
X015842Y031142D01*
X016137Y031142D01*
X016137Y031142D01*
X016137Y031146D02*
X016137Y031146D01*
X016137Y031223D02*
X016137Y031223D01*
X016137Y031301D02*
X016137Y031301D01*
X016137Y031378D02*
X016137Y031378D01*
X015958Y031378D02*
X015528Y031378D01*
X015538Y031371D02*
X015489Y031404D01*
X015436Y031426D01*
X015379Y031437D01*
X015350Y031437D01*
X015350Y031142D01*
X015645Y031142D01*
X015645Y031171D01*
X015634Y031228D01*
X015611Y031282D01*
X015579Y031330D01*
X015538Y031371D01*
X015599Y031301D02*
X015888Y031301D01*
X015852Y031223D02*
X015634Y031223D01*
X015645Y031146D02*
X015842Y031146D01*
X015850Y031069D02*
X015636Y031069D01*
X015634Y031056D02*
X015645Y031113D01*
X015645Y031142D01*
X015350Y031142D01*
X015350Y031142D01*
X015350Y030847D01*
X015379Y030847D01*
X015436Y030858D01*
X015489Y030880D01*
X015538Y030913D01*
X015579Y030954D01*
X015611Y031002D01*
X015634Y031056D01*
X015604Y030992D02*
X015882Y030992D01*
X015947Y030914D02*
X015540Y030914D01*
X015350Y030914D02*
X015350Y030914D01*
X015350Y030847D02*
X015350Y031142D01*
X015350Y031142D01*
X015350Y031142D01*
X015350Y031437D01*
X015320Y031437D01*
X015263Y031426D01*
X015210Y031404D01*
X015161Y031371D01*
X015120Y031330D01*
X015088Y031282D01*
X015066Y031228D01*
X015054Y031171D01*
X015054Y031142D01*
X015054Y031113D01*
X015066Y031056D01*
X015088Y031002D01*
X015120Y030954D01*
X015161Y030913D01*
X015210Y030880D01*
X015263Y030858D01*
X015320Y030847D01*
X015350Y030847D01*
X015350Y030992D02*
X015350Y030992D01*
X015350Y031069D02*
X015350Y031069D01*
X015350Y031142D02*
X015054Y031142D01*
X015350Y031142D01*
X015350Y031142D01*
X015350Y031146D02*
X015350Y031146D01*
X015350Y031223D02*
X015350Y031223D01*
X015350Y031301D02*
X015350Y031301D01*
X015350Y031378D02*
X015350Y031378D01*
X015171Y031378D02*
X014741Y031378D01*
X014750Y031371D02*
X014702Y031404D01*
X014648Y031426D01*
X014591Y031437D01*
X014562Y031437D01*
X014533Y031437D01*
X014476Y031426D01*
X014422Y031404D01*
X014374Y031371D01*
X014333Y031330D01*
X014301Y031282D01*
X014278Y031228D01*
X014267Y031171D01*
X014267Y031142D01*
X014267Y031113D01*
X014278Y031056D01*
X014301Y031002D01*
X014333Y030954D01*
X014374Y030913D01*
X014422Y030880D01*
X014476Y030858D01*
X014533Y030847D01*
X014562Y030847D01*
X014562Y031142D01*
X014267Y031142D01*
X014562Y031142D01*
X014562Y031142D01*
X014562Y031142D01*
X014562Y031437D01*
X014562Y031142D01*
X014562Y031142D01*
X014562Y030847D01*
X014591Y030847D01*
X014648Y030858D01*
X014702Y030880D01*
X014750Y030913D01*
X014792Y030954D01*
X014824Y031002D01*
X014846Y031056D01*
X014857Y031113D01*
X014857Y031142D01*
X014857Y031171D01*
X014846Y031228D01*
X014824Y031282D01*
X014792Y031330D01*
X014750Y031371D01*
X014811Y031301D02*
X015100Y031301D01*
X015065Y031223D02*
X014847Y031223D01*
X014857Y031146D02*
X015054Y031146D01*
X015063Y031069D02*
X014849Y031069D01*
X014857Y031142D02*
X014562Y031142D01*
X014857Y031142D01*
X014817Y030992D02*
X015095Y030992D01*
X015160Y030914D02*
X014752Y030914D01*
X014562Y030914D02*
X014562Y030914D01*
X014562Y030992D02*
X014562Y030992D01*
X014562Y031069D02*
X014562Y031069D01*
X014562Y031142D02*
X014562Y031142D01*
X014562Y031146D02*
X014562Y031146D01*
X014562Y031223D02*
X014562Y031223D01*
X014562Y031301D02*
X014562Y031301D01*
X014562Y031378D02*
X014562Y031378D01*
X014384Y031378D02*
X013953Y031378D01*
X013963Y031371D02*
X013915Y031404D01*
X013861Y031426D01*
X013804Y031437D01*
X013775Y031437D01*
X013775Y031142D01*
X014070Y031142D01*
X014070Y031171D01*
X014059Y031228D01*
X014036Y031282D01*
X014004Y031330D01*
X013963Y031371D01*
X014024Y031301D02*
X014313Y031301D01*
X014277Y031223D02*
X014060Y031223D01*
X014070Y031146D02*
X014267Y031146D01*
X014276Y031069D02*
X014061Y031069D01*
X014059Y031056D02*
X014070Y031113D01*
X014070Y031142D01*
X013775Y031142D01*
X013775Y031142D01*
X013775Y030847D01*
X013804Y030847D01*
X013861Y030858D01*
X013915Y030880D01*
X013963Y030913D01*
X014004Y030954D01*
X014036Y031002D01*
X014059Y031056D01*
X014029Y030992D02*
X014308Y030992D01*
X014372Y030914D02*
X013965Y030914D01*
X013775Y030914D02*
X013775Y030914D01*
X013775Y030847D02*
X013775Y031142D01*
X013775Y031142D01*
X013775Y031142D01*
X013775Y031437D01*
X013746Y031437D01*
X013689Y031426D01*
X013635Y031404D01*
X013587Y031371D01*
X013545Y031330D01*
X013513Y031282D01*
X013491Y031228D01*
X013480Y031171D01*
X013480Y031142D01*
X013480Y031113D01*
X013491Y031056D01*
X013513Y031002D01*
X013545Y030954D01*
X013587Y030913D01*
X013635Y030880D01*
X013689Y030858D01*
X013746Y030847D01*
X013775Y030847D01*
X013775Y030992D02*
X013775Y030992D01*
X013775Y031069D02*
X013775Y031069D01*
X013775Y031142D02*
X013480Y031142D01*
X013775Y031142D01*
X013775Y031142D01*
X013775Y031146D02*
X013775Y031146D01*
X013775Y031223D02*
X013775Y031223D01*
X013775Y031301D02*
X013775Y031301D01*
X013775Y031378D02*
X013775Y031378D01*
X013596Y031378D02*
X013381Y031378D01*
X013381Y031301D02*
X013526Y031301D01*
X013490Y031223D02*
X013381Y031223D01*
X013381Y031146D02*
X013480Y031146D01*
X013488Y031069D02*
X013381Y031069D01*
X013381Y030992D02*
X013520Y030992D01*
X013585Y030914D02*
X013381Y030914D01*
X013381Y030837D02*
X017318Y030837D01*
X017318Y030760D02*
X013381Y030760D01*
X013184Y030760D02*
X012987Y030760D01*
X012987Y030837D02*
X013184Y030837D01*
X013184Y030914D02*
X012987Y030914D01*
X012987Y030992D02*
X013184Y030992D01*
X013184Y031069D02*
X012987Y031069D01*
X012987Y031146D02*
X013184Y031146D01*
X013184Y031223D02*
X012987Y031223D01*
X012987Y031301D02*
X013184Y031301D01*
X013184Y031378D02*
X012987Y031378D01*
X012987Y031455D02*
X013184Y031455D01*
X013184Y031532D02*
X012987Y031532D01*
X012987Y031610D02*
X013184Y031610D01*
X013184Y031687D02*
X012987Y031687D01*
X012987Y031764D02*
X013184Y031764D01*
X013211Y031841D02*
X012987Y031841D01*
X012987Y031919D02*
X013289Y031919D01*
X012987Y032614D02*
X015546Y032614D01*
X015546Y032691D02*
X012987Y032691D01*
X012987Y032768D02*
X015546Y032768D01*
X015594Y032845D02*
X012987Y032845D01*
X012987Y034467D02*
X013350Y034467D01*
X013295Y034545D02*
X012987Y034545D01*
X012987Y034622D02*
X013263Y034622D01*
X013263Y034699D02*
X012987Y034699D01*
X012987Y034776D02*
X013275Y034776D01*
X013307Y034854D02*
X012987Y034854D01*
X012987Y034931D02*
X013378Y034931D01*
X012987Y035008D02*
X014077Y035008D01*
X014098Y035061D02*
X014050Y034945D01*
X014050Y034820D01*
X014098Y034704D01*
X014187Y034615D01*
X014303Y034567D01*
X014374Y034567D01*
X014472Y034469D01*
X017998Y034469D01*
X018195Y034666D01*
X019394Y034666D01*
X020645Y033415D01*
X020645Y032946D01*
X020594Y032895D01*
X020546Y032779D01*
X020546Y032654D01*
X020594Y032538D01*
X020683Y032450D01*
X020799Y032402D01*
X020924Y032402D01*
X021040Y032450D01*
X021128Y032538D01*
X021176Y032654D01*
X021176Y032779D01*
X021128Y032895D01*
X021078Y032946D01*
X021078Y033594D01*
X020951Y033721D01*
X019573Y035099D01*
X018016Y035099D01*
X017889Y034972D01*
X017819Y034902D01*
X014680Y034902D01*
X014680Y034945D01*
X014632Y035061D01*
X014544Y035149D01*
X014428Y035197D01*
X014303Y035197D01*
X014187Y035149D01*
X014098Y035061D01*
X014123Y035085D02*
X012987Y035085D01*
X012987Y035163D02*
X014219Y035163D01*
X014050Y034931D02*
X013778Y034931D01*
X013849Y034854D02*
X014050Y034854D01*
X014068Y034776D02*
X013881Y034776D01*
X013893Y034699D02*
X014103Y034699D01*
X014180Y034622D02*
X013893Y034622D01*
X013861Y034545D02*
X014397Y034545D01*
X014680Y034931D02*
X017848Y034931D01*
X017925Y035008D02*
X014654Y035008D01*
X014608Y035085D02*
X018002Y035085D01*
X018270Y035256D02*
X017465Y035256D01*
X017338Y035383D01*
X017248Y035473D01*
X017177Y035473D01*
X017061Y035521D01*
X016972Y035609D01*
X016924Y035725D01*
X016924Y035850D01*
X016972Y035966D01*
X017061Y036055D01*
X017177Y036103D01*
X017302Y036103D01*
X017418Y036055D01*
X017506Y035966D01*
X017554Y035850D01*
X017554Y035779D01*
X017644Y035689D01*
X018270Y035689D01*
X018321Y035740D01*
X018437Y035788D01*
X018562Y035788D01*
X018678Y035740D01*
X018766Y035651D01*
X018814Y035535D01*
X018814Y035410D01*
X018766Y035294D01*
X018678Y035206D01*
X018562Y035158D01*
X018437Y035158D01*
X018321Y035206D01*
X018270Y035256D01*
X018287Y035240D02*
X012987Y035240D01*
X012987Y035317D02*
X017404Y035317D01*
X017326Y035394D02*
X012987Y035394D01*
X012987Y035472D02*
X017249Y035472D01*
X017033Y035549D02*
X012987Y035549D01*
X012987Y035626D02*
X016965Y035626D01*
X016933Y035703D02*
X012987Y035703D01*
X012987Y035781D02*
X016924Y035781D01*
X016927Y035858D02*
X012987Y035858D01*
X012987Y035935D02*
X016959Y035935D01*
X017019Y036012D02*
X012987Y036012D01*
X012987Y036090D02*
X017145Y036090D01*
X017334Y036090D02*
X021507Y036090D01*
X021507Y036167D02*
X012987Y036167D01*
X012987Y036244D02*
X021531Y036244D01*
X021507Y036220D02*
X021507Y035529D01*
X021599Y035437D01*
X022289Y035437D01*
X022382Y035529D01*
X022382Y036220D01*
X022289Y036312D01*
X021599Y036312D01*
X021507Y036220D01*
X021507Y036012D02*
X017460Y036012D01*
X017519Y035935D02*
X021507Y035935D01*
X021507Y035858D02*
X017551Y035858D01*
X017554Y035781D02*
X018419Y035781D01*
X018284Y035703D02*
X017630Y035703D01*
X018579Y035781D02*
X021507Y035781D01*
X021507Y035703D02*
X018714Y035703D01*
X018777Y035626D02*
X021507Y035626D01*
X021507Y035549D02*
X018809Y035549D01*
X018814Y035472D02*
X021564Y035472D01*
X021696Y035245D02*
X021573Y035122D01*
X021507Y034961D01*
X021507Y034787D01*
X021573Y034626D01*
X021696Y034503D01*
X021857Y034437D01*
X022031Y034437D01*
X022192Y034503D01*
X022315Y034626D01*
X022382Y034787D01*
X022382Y034961D01*
X022315Y035122D01*
X022192Y035245D01*
X022031Y035312D01*
X021857Y035312D01*
X021696Y035245D01*
X021691Y035240D02*
X018712Y035240D01*
X018776Y035317D02*
X023027Y035317D01*
X023027Y035240D02*
X022197Y035240D01*
X022274Y035163D02*
X023027Y035163D01*
X023027Y035085D02*
X022330Y035085D01*
X022362Y035008D02*
X023027Y035008D01*
X023027Y034931D02*
X022382Y034931D01*
X022382Y034854D02*
X023027Y034854D01*
X023027Y034776D02*
X022377Y034776D01*
X022345Y034699D02*
X023027Y034699D01*
X023027Y034622D02*
X022310Y034622D01*
X022233Y034545D02*
X023027Y034545D01*
X023027Y034467D02*
X022105Y034467D01*
X021783Y034467D02*
X020204Y034467D01*
X020282Y034390D02*
X023027Y034390D01*
X023027Y034313D02*
X020359Y034313D01*
X020436Y034236D02*
X023027Y034236D01*
X023027Y034159D02*
X020513Y034159D01*
X020591Y034081D02*
X023027Y034081D01*
X023027Y034004D02*
X020668Y034004D01*
X020745Y033927D02*
X023027Y033927D01*
X023027Y033850D02*
X020822Y033850D01*
X020900Y033772D02*
X023027Y033772D01*
X023027Y033695D02*
X020977Y033695D01*
X021054Y033618D02*
X023027Y033618D01*
X023027Y033541D02*
X021078Y033541D01*
X021078Y033463D02*
X023027Y033463D01*
X023027Y033386D02*
X021078Y033386D01*
X021078Y033309D02*
X023027Y033309D01*
X023027Y033232D02*
X021078Y033232D01*
X021078Y033154D02*
X023027Y033154D01*
X023027Y033077D02*
X021078Y033077D01*
X021078Y033000D02*
X023027Y033000D01*
X023027Y032923D02*
X021101Y032923D01*
X021149Y032845D02*
X023027Y032845D01*
X023027Y032768D02*
X021176Y032768D01*
X021176Y032691D02*
X023027Y032691D01*
X023027Y032614D02*
X021160Y032614D01*
X021126Y032536D02*
X023027Y032536D01*
X023027Y032459D02*
X021049Y032459D01*
X020674Y032459D02*
X017515Y032459D01*
X017515Y032382D02*
X023027Y032382D01*
X023027Y032305D02*
X017515Y032305D01*
X017515Y032227D02*
X023027Y032227D01*
X023027Y032150D02*
X017515Y032150D01*
X017515Y032073D02*
X023027Y032073D01*
X023027Y031996D02*
X017515Y031996D01*
X017515Y031919D02*
X023027Y031919D01*
X023027Y031841D02*
X017515Y031841D01*
X017515Y031764D02*
X023027Y031764D01*
X023027Y031687D02*
X017515Y031687D01*
X017515Y031610D02*
X023027Y031610D01*
X023027Y031532D02*
X017515Y031532D01*
X017515Y031455D02*
X023027Y031455D01*
X023027Y031378D02*
X017515Y031378D01*
X017515Y031301D02*
X023027Y031301D01*
X023027Y031223D02*
X017515Y031223D01*
X017515Y031146D02*
X023027Y031146D01*
X023027Y031069D02*
X017515Y031069D01*
X017515Y030992D02*
X023027Y030992D01*
X023027Y030914D02*
X017515Y030914D01*
X017515Y030837D02*
X023027Y030837D01*
X023027Y030760D02*
X017515Y030760D01*
X017515Y030683D02*
X023027Y030683D01*
X023027Y030605D02*
X017454Y030605D01*
X017318Y032150D02*
X017164Y032150D01*
X017204Y032227D02*
X017318Y032227D01*
X017318Y032305D02*
X017220Y032305D01*
X017214Y032382D02*
X017318Y032382D01*
X017318Y032459D02*
X017188Y032459D01*
X017129Y032536D02*
X017318Y032536D01*
X017515Y032536D02*
X020596Y032536D01*
X020563Y032614D02*
X017515Y032614D01*
X017515Y032691D02*
X020546Y032691D01*
X020546Y032768D02*
X017515Y032768D01*
X017468Y032845D02*
X020574Y032845D01*
X020622Y032923D02*
X016767Y032923D01*
X016767Y033000D02*
X020645Y033000D01*
X020645Y033077D02*
X016767Y033077D01*
X016767Y033154D02*
X020645Y033154D01*
X020645Y033232D02*
X016767Y033232D01*
X016767Y033309D02*
X020645Y033309D01*
X020645Y033386D02*
X016767Y033386D01*
X016767Y033463D02*
X020596Y033463D01*
X020519Y033541D02*
X016767Y033541D01*
X016767Y033618D02*
X020442Y033618D01*
X020364Y033695D02*
X016767Y033695D01*
X016767Y033772D02*
X020287Y033772D01*
X020210Y033850D02*
X016767Y033850D01*
X016802Y033927D02*
X020133Y033927D01*
X020055Y034004D02*
X016834Y034004D01*
X016846Y034081D02*
X019978Y034081D01*
X019901Y034159D02*
X016845Y034159D01*
X016813Y034236D02*
X019824Y034236D01*
X019746Y034313D02*
X016758Y034313D01*
X018074Y034545D02*
X019515Y034545D01*
X019437Y034622D02*
X018152Y034622D01*
X018425Y035163D02*
X014511Y035163D01*
X014358Y036811D02*
X014319Y036851D01*
X012987Y036851D01*
X012987Y026200D01*
X013035Y026378D01*
X013223Y026704D01*
X013489Y026969D01*
X013814Y027157D01*
X014177Y027255D01*
X014553Y027255D01*
X014916Y027157D01*
X015242Y026969D01*
X015508Y026704D01*
X015696Y026378D01*
X015793Y026015D01*
X015793Y025639D01*
X015696Y025276D01*
X015673Y025236D01*
X019483Y025236D01*
X019483Y028130D01*
X019393Y028130D01*
X018716Y027454D01*
X018644Y027382D01*
X018550Y027343D01*
X018013Y027343D01*
X017935Y027265D01*
X017790Y027205D01*
X017633Y027205D01*
X017489Y027265D01*
X017378Y027376D01*
X017318Y027520D01*
X017318Y027677D01*
X017378Y027822D01*
X017489Y027932D01*
X017633Y027992D01*
X017790Y027992D01*
X017935Y027932D01*
X018013Y027855D01*
X018393Y027855D01*
X019142Y028603D01*
X019236Y028642D01*
X019483Y028642D01*
X019483Y029370D01*
X023027Y029370D01*
X023027Y036851D01*
X022180Y036851D01*
X022140Y036811D01*
X014358Y036811D01*
X012987Y036785D02*
X023027Y036785D01*
X023027Y036707D02*
X012987Y036707D01*
X012987Y036630D02*
X023027Y036630D01*
X023027Y036553D02*
X012987Y036553D01*
X012987Y036476D02*
X023027Y036476D01*
X023027Y036398D02*
X012987Y036398D01*
X012987Y036321D02*
X023027Y036321D01*
X023027Y036244D02*
X022357Y036244D01*
X022382Y036167D02*
X023027Y036167D01*
X023027Y036090D02*
X022382Y036090D01*
X022382Y036012D02*
X023027Y036012D01*
X023027Y035935D02*
X022382Y035935D01*
X022382Y035858D02*
X023027Y035858D01*
X023027Y035781D02*
X022382Y035781D01*
X022382Y035703D02*
X023027Y035703D01*
X023027Y035626D02*
X022382Y035626D01*
X022382Y035549D02*
X023027Y035549D01*
X023027Y035472D02*
X022324Y035472D01*
X023027Y035394D02*
X018808Y035394D01*
X018574Y035163D02*
X021614Y035163D01*
X021558Y035085D02*
X019586Y035085D01*
X019664Y035008D02*
X021526Y035008D01*
X021507Y034931D02*
X019741Y034931D01*
X019818Y034854D02*
X021507Y034854D01*
X021511Y034776D02*
X019895Y034776D01*
X019973Y034699D02*
X021543Y034699D01*
X021578Y034622D02*
X020050Y034622D01*
X020127Y034545D02*
X021655Y034545D01*
X023027Y030528D02*
X012987Y030528D01*
X012987Y030451D02*
X023027Y030451D01*
X023027Y030374D02*
X012987Y030374D01*
X012987Y030296D02*
X023027Y030296D01*
X023027Y030219D02*
X012987Y030219D01*
X012987Y030142D02*
X023027Y030142D01*
X023027Y030065D02*
X012987Y030065D01*
X012987Y029988D02*
X023027Y029988D01*
X023027Y029910D02*
X012987Y029910D01*
X012987Y029833D02*
X023027Y029833D01*
X023027Y029756D02*
X012987Y029756D01*
X012987Y029679D02*
X023027Y029679D01*
X023027Y029601D02*
X012987Y029601D01*
X012987Y029524D02*
X023027Y029524D01*
X023027Y029447D02*
X012987Y029447D01*
X012987Y029370D02*
X019483Y029370D01*
X019483Y029292D02*
X012987Y029292D01*
X012987Y029215D02*
X019483Y029215D01*
X019483Y029138D02*
X012987Y029138D01*
X012987Y029061D02*
X019483Y029061D01*
X019483Y028983D02*
X012987Y028983D01*
X012987Y028906D02*
X019483Y028906D01*
X019483Y028829D02*
X012987Y028829D01*
X012987Y028752D02*
X019483Y028752D01*
X019483Y028674D02*
X012987Y028674D01*
X012987Y028597D02*
X019136Y028597D01*
X019059Y028520D02*
X012987Y028520D01*
X012987Y028443D02*
X018981Y028443D01*
X018904Y028365D02*
X012987Y028365D01*
X012987Y028288D02*
X018827Y028288D01*
X018750Y028211D02*
X012987Y028211D01*
X012987Y028134D02*
X018672Y028134D01*
X018595Y028057D02*
X012987Y028057D01*
X012987Y027979D02*
X017602Y027979D01*
X017458Y027902D02*
X012987Y027902D01*
X012987Y027825D02*
X017381Y027825D01*
X017347Y027748D02*
X012987Y027748D01*
X012987Y027670D02*
X017318Y027670D01*
X017318Y027593D02*
X012987Y027593D01*
X012987Y027516D02*
X017320Y027516D01*
X017352Y027439D02*
X012987Y027439D01*
X012987Y027361D02*
X017392Y027361D01*
X017470Y027284D02*
X012987Y027284D01*
X012987Y027207D02*
X014000Y027207D01*
X013767Y027130D02*
X012987Y027130D01*
X012987Y027052D02*
X013633Y027052D01*
X013499Y026975D02*
X012987Y026975D01*
X012987Y026898D02*
X013417Y026898D01*
X013340Y026821D02*
X012987Y026821D01*
X012987Y026743D02*
X013263Y026743D01*
X013202Y026666D02*
X012987Y026666D01*
X012987Y026589D02*
X013157Y026589D01*
X013112Y026512D02*
X012987Y026512D01*
X012987Y026434D02*
X013068Y026434D01*
X013030Y026357D02*
X012987Y026357D01*
X012987Y026280D02*
X013009Y026280D01*
X012988Y026203D02*
X012987Y026203D01*
X014731Y027207D02*
X017629Y027207D01*
X017795Y027207D02*
X019483Y027207D01*
X019483Y027284D02*
X017954Y027284D01*
X017965Y027902D02*
X018441Y027902D01*
X018518Y027979D02*
X017822Y027979D01*
X018595Y027361D02*
X019483Y027361D01*
X019483Y027439D02*
X018701Y027439D01*
X018778Y027516D02*
X019483Y027516D01*
X019483Y027593D02*
X018855Y027593D01*
X018933Y027670D02*
X019483Y027670D01*
X019483Y027748D02*
X019010Y027748D01*
X019087Y027825D02*
X019483Y027825D01*
X019483Y027902D02*
X019164Y027902D01*
X019242Y027979D02*
X019483Y027979D01*
X019483Y028057D02*
X019319Y028057D01*
X019897Y027953D02*
X020487Y027362D01*
X020507Y027362D01*
X020861Y027362D01*
X021042Y027362D01*
X021448Y026957D01*
X022830Y027992D02*
X022830Y028189D01*
X023617Y028977D01*
X026964Y028977D01*
X026491Y027953D02*
X024535Y027953D01*
X024011Y028477D01*
X026767Y025236D02*
X026767Y024843D01*
X026275Y024351D01*
X026275Y023386D01*
X027161Y023465D02*
X027161Y022874D01*
X026767Y022481D01*
X025586Y022481D01*
X025389Y022677D01*
X020468Y022677D01*
X019602Y021811D01*
X018814Y021811D01*
X017476Y021811D01*
X019680Y021299D02*
X019877Y021103D01*
X021649Y021103D01*
X021846Y021299D01*
X022042Y021496D01*
X022141Y021595D01*
X022712Y021595D01*
X022731Y021595D01*
X023027Y021299D01*
X023617Y020709D01*
X026531Y020709D01*
X026728Y020906D01*
X027003Y020906D01*
X027200Y020709D01*
X027239Y020709D01*
X032672Y020709D01*
X033361Y021398D01*
X033361Y023386D01*
X034523Y022796D02*
X034523Y024213D01*
X034287Y024449D01*
X031688Y024449D01*
X031098Y024449D02*
X031688Y025040D01*
X031373Y025315D02*
X031491Y025433D01*
X033263Y025433D01*
X034050Y026221D01*
X034050Y028780D01*
X034050Y029173D02*
X033657Y029567D01*
X027948Y029567D01*
X030310Y028977D02*
X033263Y028977D01*
X034050Y029173D02*
X035444Y029173D01*
X035822Y029551D01*
X033657Y026811D02*
X027948Y026811D01*
X028539Y024843D02*
X030901Y024843D01*
X031294Y025236D01*
X031373Y025315D01*
X031098Y024449D02*
X028735Y024449D01*
X028539Y024843D02*
X027161Y023465D01*
X027751Y022874D02*
X028105Y022520D01*
X028105Y021811D01*
X028145Y020906D02*
X027279Y020906D01*
X027082Y021103D01*
X026767Y021103D01*
X026570Y021103D01*
X026373Y020906D01*
X024011Y020906D01*
X023676Y020906D01*
X023302Y021280D01*
X022692Y021890D01*
X022042Y021890D01*
X022436Y021299D02*
X023224Y020512D01*
X026609Y020512D01*
X026767Y020670D01*
X026964Y020670D01*
X027121Y020512D01*
X036216Y020512D01*
X036905Y021201D01*
X036905Y023386D01*
X035192Y022126D02*
X034523Y022796D01*
X035192Y022126D02*
X035192Y021811D01*
X036019Y019528D02*
X036019Y017520D01*
X026570Y017520D01*
X026570Y020315D01*
X026691Y020315D01*
X026691Y020315D01*
X026885Y020315D01*
X026885Y020020D01*
X026885Y020315D01*
X026885Y020315D01*
X026590Y020315D01*
X026590Y020286D01*
X026601Y020229D01*
X026623Y020175D01*
X026656Y020127D01*
X026697Y020086D01*
X026745Y020054D01*
X026799Y020031D01*
X026856Y020020D01*
X026885Y020020D01*
X026914Y020020D01*
X026971Y020031D01*
X027025Y020054D01*
X027073Y020086D01*
X027114Y020127D01*
X027147Y020175D01*
X027169Y020229D01*
X027180Y020286D01*
X027180Y020315D01*
X026885Y020315D01*
X026885Y020315D01*
X026885Y020315D01*
X027040Y020315D01*
X027751Y020315D01*
X027751Y019528D01*
X036019Y019528D01*
X036019Y019483D02*
X027177Y019483D01*
X027180Y019499D02*
X027180Y019528D01*
X027180Y019557D01*
X027169Y019614D01*
X027147Y019668D01*
X027114Y019716D01*
X027073Y019757D01*
X027025Y019789D01*
X026971Y019812D01*
X026914Y019823D01*
X026885Y019823D01*
X026856Y019823D01*
X026799Y019812D01*
X026745Y019789D01*
X026697Y019757D01*
X026656Y019716D01*
X026623Y019668D01*
X026601Y019614D01*
X026590Y019557D01*
X026590Y019528D01*
X026885Y019528D01*
X026885Y019823D01*
X026885Y019528D01*
X026885Y019528D01*
X026885Y019528D01*
X027180Y019528D01*
X026885Y019528D01*
X026885Y019528D01*
X026590Y019528D01*
X026590Y019499D01*
X026601Y019442D01*
X026623Y019388D01*
X026656Y019340D01*
X026697Y019298D01*
X026745Y019266D01*
X026799Y019244D01*
X026856Y019233D01*
X026885Y019233D01*
X026914Y019233D01*
X026971Y019244D01*
X027025Y019266D01*
X027073Y019298D01*
X027114Y019340D01*
X027147Y019388D01*
X027169Y019442D01*
X027180Y019499D01*
X027180Y019560D02*
X027751Y019560D01*
X027751Y019637D02*
X027159Y019637D01*
X027115Y019715D02*
X027751Y019715D01*
X027751Y019792D02*
X027019Y019792D01*
X026885Y019792D02*
X026885Y019792D01*
X026885Y019715D02*
X026885Y019715D01*
X026885Y019637D02*
X026885Y019637D01*
X026885Y019560D02*
X026885Y019560D01*
X026885Y019528D02*
X026885Y019233D01*
X026885Y019528D01*
X026885Y019528D01*
X026885Y019483D02*
X026885Y019483D01*
X026885Y019406D02*
X026885Y019406D01*
X026885Y019328D02*
X026885Y019328D01*
X026885Y019251D02*
X026885Y019251D01*
X026781Y019251D02*
X026570Y019251D01*
X026570Y019174D02*
X036019Y019174D01*
X036019Y019251D02*
X026989Y019251D01*
X027103Y019328D02*
X036019Y019328D01*
X036019Y019406D02*
X027154Y019406D01*
X026983Y019019D02*
X036019Y019019D01*
X036019Y018942D02*
X027101Y018942D01*
X027114Y018929D02*
X027073Y018970D01*
X027025Y019002D01*
X026971Y019024D01*
X026914Y019036D01*
X026885Y019036D01*
X026856Y019036D01*
X026799Y019024D01*
X026745Y019002D01*
X026697Y018970D01*
X026656Y018929D01*
X026623Y018880D01*
X026601Y018827D01*
X026590Y018770D01*
X026590Y018740D01*
X026590Y018711D01*
X026601Y018654D01*
X026623Y018601D01*
X026656Y018552D01*
X026697Y018511D01*
X026745Y018479D01*
X026799Y018456D01*
X026856Y018445D01*
X026885Y018445D01*
X026885Y018740D01*
X026885Y018445D01*
X026914Y018445D01*
X026971Y018456D01*
X027025Y018479D01*
X027073Y018511D01*
X027114Y018552D01*
X027147Y018601D01*
X027169Y018654D01*
X027180Y018711D01*
X027180Y018740D01*
X026885Y018740D01*
X026885Y018740D01*
X026885Y018740D01*
X026590Y018740D01*
X026885Y018740D01*
X026885Y018740D01*
X027180Y018740D01*
X027180Y018770D01*
X027169Y018827D01*
X027147Y018880D01*
X027114Y018929D01*
X027153Y018865D02*
X036019Y018865D01*
X036019Y018788D02*
X027177Y018788D01*
X027180Y018710D02*
X036019Y018710D01*
X036019Y018633D02*
X035821Y018633D01*
X035831Y018626D02*
X035791Y018653D01*
X035746Y018672D01*
X035699Y018681D01*
X035231Y018681D01*
X035231Y018150D01*
X035153Y018150D01*
X035153Y018681D01*
X034686Y018681D01*
X034638Y018672D01*
X034593Y018653D01*
X034553Y018626D01*
X034519Y018592D01*
X034492Y018552D01*
X034473Y018507D01*
X034464Y018460D01*
X034464Y018150D01*
X035153Y018150D01*
X035153Y018071D01*
X035231Y018071D01*
X035231Y017540D01*
X035699Y017540D01*
X035746Y017549D01*
X035791Y017568D01*
X035831Y017595D01*
X035866Y017629D01*
X036019Y017629D01*
X036019Y017552D02*
X035753Y017552D01*
X035866Y017629D02*
X035892Y017669D01*
X035911Y017714D01*
X035920Y017761D01*
X035920Y018071D01*
X035231Y018071D01*
X035231Y018150D01*
X035920Y018150D01*
X035920Y018460D01*
X035911Y018507D01*
X035892Y018552D01*
X035866Y018592D01*
X035831Y018626D01*
X035890Y018556D02*
X036019Y018556D01*
X036019Y018479D02*
X035917Y018479D01*
X035920Y018401D02*
X036019Y018401D01*
X036019Y018324D02*
X035920Y018324D01*
X035920Y018247D02*
X036019Y018247D01*
X036019Y018170D02*
X035920Y018170D01*
X036019Y018093D02*
X035231Y018093D01*
X035231Y018170D02*
X035153Y018170D01*
X035153Y018247D02*
X035231Y018247D01*
X035231Y018324D02*
X035153Y018324D01*
X035153Y018401D02*
X035231Y018401D01*
X035231Y018479D02*
X035153Y018479D01*
X035153Y018556D02*
X035231Y018556D01*
X035231Y018633D02*
X035153Y018633D01*
X035153Y018093D02*
X031688Y018093D01*
X031688Y018071D02*
X031688Y018150D01*
X031609Y018150D01*
X031609Y018071D01*
X030920Y018071D01*
X030920Y017761D01*
X030930Y017714D01*
X030948Y017669D01*
X030975Y017629D01*
X028779Y017629D01*
X028806Y017669D01*
X028824Y017714D01*
X028834Y017761D01*
X028834Y018071D01*
X028145Y018071D01*
X028145Y018150D01*
X028834Y018150D01*
X028834Y018460D01*
X028824Y018507D01*
X028806Y018552D01*
X028779Y018592D01*
X028745Y018626D01*
X028704Y018653D01*
X028660Y018672D01*
X028612Y018681D01*
X028145Y018681D01*
X028145Y018150D01*
X028066Y018150D01*
X028066Y018681D01*
X027599Y018681D01*
X027551Y018672D01*
X027507Y018653D01*
X027466Y018626D01*
X027432Y018592D01*
X027405Y018552D01*
X027387Y018507D01*
X027377Y018460D01*
X027377Y018150D01*
X028066Y018150D01*
X028066Y018071D01*
X028145Y018071D01*
X028145Y017540D01*
X028612Y017540D01*
X028660Y017549D01*
X028704Y017568D01*
X028745Y017595D01*
X028779Y017629D01*
X028821Y017706D02*
X030933Y017706D01*
X030920Y017784D02*
X028834Y017784D01*
X028834Y017861D02*
X030920Y017861D01*
X030920Y017938D02*
X028834Y017938D01*
X028834Y018015D02*
X030920Y018015D01*
X030920Y018150D02*
X030920Y018460D01*
X030930Y018507D01*
X030948Y018552D01*
X030975Y018592D01*
X031010Y018626D01*
X031050Y018653D01*
X031095Y018672D01*
X031142Y018681D01*
X031609Y018681D01*
X031609Y018150D01*
X030920Y018150D01*
X030920Y018170D02*
X028834Y018170D01*
X028834Y018247D02*
X030920Y018247D01*
X030920Y018324D02*
X028834Y018324D01*
X028834Y018401D02*
X030920Y018401D01*
X030924Y018479D02*
X028830Y018479D01*
X028803Y018556D02*
X030951Y018556D01*
X031020Y018633D02*
X028735Y018633D01*
X028145Y018633D02*
X028066Y018633D01*
X028066Y018556D02*
X028145Y018556D01*
X028145Y018479D02*
X028066Y018479D01*
X028066Y018401D02*
X028145Y018401D01*
X028145Y018324D02*
X028066Y018324D01*
X028066Y018247D02*
X028145Y018247D01*
X028145Y018170D02*
X028066Y018170D01*
X028066Y018093D02*
X027147Y018093D01*
X027114Y018141D01*
X027073Y018182D01*
X027025Y018215D01*
X026971Y018237D01*
X026914Y018248D01*
X026885Y018248D01*
X026856Y018248D01*
X026799Y018237D01*
X026745Y018215D01*
X026697Y018182D01*
X026656Y018141D01*
X026623Y018093D01*
X026601Y018039D01*
X026590Y017982D01*
X026590Y017953D01*
X026590Y017924D01*
X026601Y017867D01*
X026623Y017813D01*
X026656Y017765D01*
X026697Y017724D01*
X026745Y017691D01*
X026799Y017669D01*
X026856Y017658D01*
X026885Y017658D01*
X026914Y017658D01*
X026971Y017669D01*
X027025Y017691D01*
X027073Y017724D01*
X027114Y017765D01*
X027147Y017813D01*
X027169Y017867D01*
X027180Y017924D01*
X027180Y017953D01*
X027180Y017982D01*
X027169Y018039D01*
X027147Y018093D01*
X027174Y018015D02*
X027377Y018015D01*
X027377Y018071D02*
X027377Y017761D01*
X027387Y017714D01*
X027405Y017669D01*
X027432Y017629D01*
X026570Y017629D01*
X026570Y017552D02*
X027545Y017552D01*
X027551Y017549D02*
X027599Y017540D01*
X028066Y017540D01*
X028066Y018071D01*
X027377Y018071D01*
X027377Y018170D02*
X027086Y018170D01*
X026921Y018247D02*
X027377Y018247D01*
X027377Y018324D02*
X026570Y018324D01*
X026570Y018247D02*
X026849Y018247D01*
X026885Y018247D02*
X026885Y018247D01*
X026885Y018248D02*
X026885Y017953D01*
X026885Y017953D01*
X026885Y017658D01*
X026885Y017953D01*
X026590Y017953D01*
X026885Y017953D01*
X026885Y017953D01*
X026885Y017953D01*
X027180Y017953D01*
X026885Y017953D01*
X026885Y017953D01*
X026885Y018248D01*
X026885Y018170D02*
X026885Y018170D01*
X026885Y018093D02*
X026885Y018093D01*
X026885Y018015D02*
X026885Y018015D01*
X026885Y017938D02*
X026885Y017938D01*
X026885Y017861D02*
X026885Y017861D01*
X026885Y017784D02*
X026885Y017784D01*
X026885Y017706D02*
X026885Y017706D01*
X026723Y017706D02*
X026570Y017706D01*
X026570Y017784D02*
X026643Y017784D01*
X026604Y017861D02*
X026570Y017861D01*
X026570Y017938D02*
X026590Y017938D01*
X026596Y018015D02*
X026570Y018015D01*
X026570Y018093D02*
X026623Y018093D01*
X026570Y018170D02*
X026684Y018170D01*
X026570Y018401D02*
X027377Y018401D01*
X027381Y018479D02*
X027025Y018479D01*
X027117Y018556D02*
X027408Y018556D01*
X027476Y018633D02*
X027160Y018633D01*
X026885Y018633D02*
X026885Y018633D01*
X026885Y018556D02*
X026885Y018556D01*
X026885Y018479D02*
X026885Y018479D01*
X026745Y018479D02*
X026570Y018479D01*
X026570Y018556D02*
X026653Y018556D01*
X026610Y018633D02*
X026570Y018633D01*
X026570Y018710D02*
X026590Y018710D01*
X026593Y018788D02*
X026570Y018788D01*
X026570Y018865D02*
X026617Y018865D01*
X026570Y018942D02*
X026669Y018942D01*
X026570Y019019D02*
X026787Y019019D01*
X026885Y019019D02*
X026885Y019019D01*
X026885Y019036D02*
X026885Y018740D01*
X026885Y018740D01*
X026885Y019036D01*
X026885Y018942D02*
X026885Y018942D01*
X026885Y018865D02*
X026885Y018865D01*
X026885Y018788D02*
X026885Y018788D01*
X026885Y018710D02*
X026885Y018710D01*
X026570Y019097D02*
X036019Y019097D01*
X036019Y018015D02*
X035920Y018015D01*
X035920Y017938D02*
X036019Y017938D01*
X036019Y017861D02*
X035920Y017861D01*
X035920Y017784D02*
X036019Y017784D01*
X036019Y017706D02*
X035908Y017706D01*
X035231Y017706D02*
X035153Y017706D01*
X035153Y017629D02*
X035231Y017629D01*
X035231Y017552D02*
X035153Y017552D01*
X035153Y017540D02*
X035153Y018071D01*
X034464Y018071D01*
X034464Y017761D01*
X034473Y017714D01*
X034492Y017669D01*
X034519Y017629D01*
X034553Y017595D01*
X034593Y017568D01*
X034638Y017549D01*
X034686Y017540D01*
X035153Y017540D01*
X035153Y017784D02*
X035231Y017784D01*
X035231Y017861D02*
X035153Y017861D01*
X035153Y017938D02*
X035231Y017938D01*
X035231Y018015D02*
X035153Y018015D01*
X034464Y018015D02*
X032377Y018015D01*
X032377Y018071D02*
X031688Y018071D01*
X031688Y017540D01*
X032155Y017540D01*
X032203Y017549D01*
X032248Y017568D01*
X032288Y017595D01*
X032322Y017629D01*
X032349Y017669D01*
X032368Y017714D01*
X032377Y017761D01*
X032377Y018071D01*
X032377Y018150D02*
X032377Y018460D01*
X032368Y018507D01*
X032349Y018552D01*
X032322Y018592D01*
X032288Y018626D01*
X032248Y018653D01*
X032203Y018672D01*
X032155Y018681D01*
X031688Y018681D01*
X031688Y018150D01*
X032377Y018150D01*
X032377Y018170D02*
X034464Y018170D01*
X034464Y018247D02*
X032377Y018247D01*
X032377Y018324D02*
X034464Y018324D01*
X034464Y018401D02*
X032377Y018401D01*
X032373Y018479D02*
X034468Y018479D01*
X034494Y018556D02*
X032346Y018556D01*
X032278Y018633D02*
X034563Y018633D01*
X034464Y017938D02*
X032377Y017938D01*
X032377Y017861D02*
X034464Y017861D01*
X034464Y017784D02*
X032377Y017784D01*
X032365Y017706D02*
X034476Y017706D01*
X034519Y017629D02*
X032322Y017629D01*
X032209Y017552D02*
X034631Y017552D01*
X031688Y017552D02*
X031609Y017552D01*
X031609Y017540D02*
X031609Y018071D01*
X031688Y018071D01*
X031688Y018015D02*
X031609Y018015D01*
X031609Y017938D02*
X031688Y017938D01*
X031688Y017861D02*
X031609Y017861D01*
X031609Y017784D02*
X031688Y017784D01*
X031688Y017706D02*
X031609Y017706D01*
X031609Y017629D02*
X031688Y017629D01*
X031609Y017540D02*
X031142Y017540D01*
X031095Y017549D01*
X031050Y017568D01*
X031010Y017595D01*
X030975Y017629D01*
X031088Y017552D02*
X028666Y017552D01*
X028145Y017552D02*
X028066Y017552D01*
X028066Y017629D02*
X028145Y017629D01*
X028145Y017706D02*
X028066Y017706D01*
X028066Y017784D02*
X028145Y017784D01*
X028145Y017861D02*
X028066Y017861D01*
X028066Y017938D02*
X028145Y017938D01*
X028145Y018015D02*
X028066Y018015D01*
X028145Y018093D02*
X031609Y018093D01*
X031609Y018170D02*
X031688Y018170D01*
X031688Y018247D02*
X031609Y018247D01*
X031609Y018324D02*
X031688Y018324D01*
X031688Y018401D02*
X031609Y018401D01*
X031609Y018479D02*
X031688Y018479D01*
X031688Y018556D02*
X031609Y018556D01*
X031609Y018633D02*
X031688Y018633D01*
X029720Y020906D02*
X029917Y021103D01*
X029720Y020906D02*
X028145Y020906D01*
X027751Y020255D02*
X027174Y020255D01*
X027148Y020178D02*
X027751Y020178D01*
X027751Y020101D02*
X027088Y020101D01*
X026932Y020024D02*
X027751Y020024D01*
X027751Y019946D02*
X026570Y019946D01*
X026570Y019869D02*
X027751Y019869D01*
X027040Y020315D02*
X027040Y020315D01*
X026885Y020255D02*
X026885Y020255D01*
X026885Y020178D02*
X026885Y020178D01*
X026885Y020101D02*
X026885Y020101D01*
X026885Y020024D02*
X026885Y020024D01*
X026838Y020024D02*
X026570Y020024D01*
X026570Y020101D02*
X026682Y020101D01*
X026622Y020178D02*
X026570Y020178D01*
X026570Y020255D02*
X026596Y020255D01*
X026570Y019792D02*
X026751Y019792D01*
X026655Y019715D02*
X026570Y019715D01*
X026570Y019637D02*
X026611Y019637D01*
X026590Y019560D02*
X026570Y019560D01*
X026570Y019483D02*
X026593Y019483D01*
X026570Y019406D02*
X026616Y019406D01*
X026570Y019328D02*
X026667Y019328D01*
X027180Y017938D02*
X027377Y017938D01*
X027377Y017861D02*
X027166Y017861D01*
X027127Y017784D02*
X027377Y017784D01*
X027390Y017706D02*
X027047Y017706D01*
X027432Y017629D02*
X027466Y017595D01*
X027507Y017568D01*
X027551Y017549D01*
X027357Y021103D02*
X027161Y021299D01*
X026964Y021496D01*
X027357Y021103D02*
X029326Y021103D01*
X029523Y021299D01*
X029523Y021890D01*
X029818Y022185D01*
X029818Y023386D01*
X029917Y021890D02*
X031570Y021890D01*
X031649Y021811D01*
X026570Y022087D02*
X026294Y021811D01*
X024562Y021811D01*
X025389Y023268D02*
X025192Y023465D01*
X022653Y023465D01*
X022731Y023386D01*
X019483Y025276D02*
X015695Y025276D01*
X015716Y025353D02*
X019483Y025353D01*
X019483Y025430D02*
X015737Y025430D01*
X015758Y025508D02*
X019483Y025508D01*
X019483Y025585D02*
X015778Y025585D01*
X015793Y025662D02*
X019483Y025662D01*
X019483Y025739D02*
X015793Y025739D01*
X015793Y025817D02*
X019483Y025817D01*
X019483Y025894D02*
X015793Y025894D01*
X015793Y025971D02*
X019483Y025971D01*
X019483Y026048D02*
X015784Y026048D01*
X015763Y026126D02*
X019483Y026126D01*
X019483Y026203D02*
X015742Y026203D01*
X015722Y026280D02*
X019483Y026280D01*
X019483Y026357D02*
X015701Y026357D01*
X015663Y026434D02*
X019483Y026434D01*
X019483Y026512D02*
X015618Y026512D01*
X015574Y026589D02*
X019483Y026589D01*
X019483Y026666D02*
X015529Y026666D01*
X015468Y026743D02*
X019483Y026743D01*
X019483Y026821D02*
X015390Y026821D01*
X015313Y026898D02*
X019483Y026898D01*
X019483Y026975D02*
X015232Y026975D01*
X015098Y027052D02*
X019483Y027052D01*
X019483Y027130D02*
X014964Y027130D01*
X013246Y030605D02*
X012987Y030605D01*
X012987Y030683D02*
X013184Y030683D01*
X020271Y038622D02*
X025192Y038622D01*
X025586Y039016D01*
X025192Y039213D02*
X024995Y039016D01*
X021058Y039016D01*
X018302Y039016D01*
X018105Y039213D01*
X019011Y039685D02*
X015822Y039685D01*
X015743Y039607D01*
X019011Y039685D02*
X022161Y039685D01*
X022436Y039410D01*
X023617Y040000D02*
X019680Y040000D01*
X019680Y043536D01*
X019688Y043544D01*
X019208Y043740D02*
X019208Y042835D01*
X019287Y042756D01*
X019483Y042559D01*
X019483Y040788D01*
X019287Y040591D01*
X020074Y040985D02*
X020271Y041181D01*
X024011Y041181D01*
X024208Y040985D01*
X024208Y040788D01*
X023617Y040000D02*
X024208Y039410D01*
X025980Y038622D02*
X029326Y038622D01*
X030507Y037638D02*
X030507Y037441D01*
X030507Y036457D01*
X030310Y036260D01*
X030507Y037638D02*
X030704Y037835D01*
X031294Y038622D02*
X031294Y039803D01*
X031491Y040000D01*
X031491Y040591D01*
X031098Y041378D02*
X027751Y041378D01*
X027554Y041772D02*
X030901Y041772D01*
X029523Y042362D02*
X029247Y042638D01*
X028342Y042638D01*
X025113Y042638D01*
X024995Y042756D01*
X025389Y043544D02*
X028539Y043544D01*
X027357Y044528D02*
X022830Y044528D01*
X022239Y045118D01*
X022239Y045315D01*
X022633Y045118D02*
X023027Y044725D01*
X025310Y044725D01*
X027200Y044725D01*
X027712Y045236D01*
X027712Y046929D01*
X028027Y047244D01*
X028263Y047481D01*
X028539Y047481D01*
X028735Y047481D01*
X029129Y047874D01*
X029523Y048071D02*
X029523Y047284D01*
X029326Y047087D01*
X028932Y047087D01*
X028735Y047284D01*
X028342Y047284D01*
X028145Y047087D01*
X027948Y046890D01*
X027948Y045118D01*
X027751Y044922D01*
X027357Y044528D01*
X026373Y046496D02*
X023027Y046496D01*
X023243Y046811D02*
X023381Y046673D01*
X025920Y046673D01*
X026058Y046811D01*
X025901Y047048D02*
X025802Y046949D01*
X025192Y046949D01*
X025901Y047048D02*
X026432Y047579D01*
X026944Y047579D01*
X027042Y047481D01*
X027239Y047284D01*
X027357Y047284D01*
X027554Y047284D01*
X027357Y047284D01*
X027161Y047677D02*
X026767Y048071D01*
X026570Y048071D01*
X022633Y048071D01*
X022239Y048465D01*
X021452Y048465D02*
X021058Y048859D01*
X020074Y048859D01*
X019287Y048859D01*
X019090Y048662D01*
X019090Y048268D02*
X019090Y046103D01*
X018893Y045906D01*
X018893Y045512D01*
X019090Y045315D01*
X019090Y044528D01*
X019483Y044725D02*
X019287Y044922D01*
X019287Y045709D01*
X019483Y044725D02*
X019483Y044134D01*
X019287Y043937D01*
X019208Y043859D01*
X019208Y043740D01*
X019877Y044134D02*
X019877Y048465D01*
X019090Y048268D02*
X017515Y049843D01*
X017397Y050315D02*
X017791Y050315D01*
X017909Y050433D01*
X020074Y050433D01*
X020165Y050524D01*
X020165Y050721D01*
X020165Y051158D01*
X020165Y052071D01*
X021165Y052071D02*
X021165Y051158D01*
X021165Y050736D01*
X021058Y050630D01*
X021165Y051130D02*
X021165Y051158D01*
X020665Y049843D02*
X020468Y049646D01*
X020271Y049646D01*
X019877Y050040D01*
X018105Y050040D01*
X017515Y050630D02*
X017605Y050721D01*
X017605Y051158D01*
X016987Y051158D01*
X016924Y051221D01*
X016924Y050709D02*
X017003Y050709D01*
X017200Y050512D01*
X017397Y050315D01*
X017605Y051158D02*
X017605Y052071D01*
X018605Y052071D02*
X018605Y051158D01*
X019066Y051158D01*
X019129Y051221D01*
X019483Y049449D02*
X021649Y049449D01*
X022042Y049843D02*
X020665Y049843D01*
X022042Y049843D02*
X022239Y049646D01*
X022633Y049646D01*
X022830Y049646D01*
X023027Y049449D01*
X023224Y049449D01*
X023420Y049449D01*
X023539Y049764D02*
X024680Y049764D01*
X024798Y049646D01*
X025389Y049055D01*
X025231Y050551D02*
X023932Y050551D01*
X023420Y050040D01*
X023539Y049764D02*
X023105Y049764D01*
X022830Y050040D01*
X022633Y050040D01*
X023105Y048425D02*
X027318Y048425D01*
X027357Y048465D01*
X027830Y048937D01*
X027830Y049951D01*
X028145Y049951D02*
X028145Y048662D01*
X027751Y048268D01*
X027751Y047874D01*
X027554Y047677D01*
X027161Y047677D01*
X027436Y047953D02*
X027357Y048032D01*
X027357Y048071D01*
X027357Y048465D01*
X028460Y049331D02*
X028460Y049951D01*
X028460Y050650D01*
X027515Y049951D02*
X027052Y049951D01*
X026964Y050040D01*
X028460Y049331D02*
X029129Y048662D01*
X032672Y049843D02*
X034444Y049843D01*
X033657Y044528D02*
X032279Y044528D01*
X031294Y044134D02*
X033854Y044134D01*
X034050Y044331D01*
X034444Y044134D02*
X035822Y044134D01*
X036806Y041969D02*
X032672Y041969D01*
X033657Y040197D02*
X033657Y038229D01*
X034247Y037638D01*
X034247Y036457D01*
X033854Y036063D01*
X033854Y033898D01*
X033657Y033307D02*
X033854Y033110D01*
X037003Y033110D01*
X037200Y033307D01*
X037200Y036457D01*
X036413Y037244D01*
X032476Y036457D02*
X032476Y034292D01*
X032672Y034095D01*
X032476Y036457D02*
X032082Y036851D01*
X032082Y037835D01*
X031294Y038622D01*
X028539Y035276D02*
X026373Y035276D01*
X027948Y034095D02*
X029720Y034095D01*
X020271Y043347D02*
X020172Y043248D01*
X020074Y043150D01*
X020271Y043347D02*
X020271Y046890D01*
X020212Y046949D01*
X020251Y046988D01*
X021511Y046988D01*
X021688Y046811D01*
X023243Y046811D01*
D26*
X017476Y018977D02*
X017476Y018110D01*
X021019Y018110D01*
X022830Y018110D01*
X022830Y018150D01*
X022869Y018110D01*
X024562Y018110D01*
X017476Y018977D02*
X016924Y019528D01*
X013775Y038729D02*
X013775Y039122D01*
X014956Y040303D01*
X014956Y042362D01*
X014464Y042855D01*
X014464Y044134D01*
D27*
X015350Y023307D03*
X016924Y019528D03*
D28*
X026964Y049449D02*
X026472Y049941D01*
X025980Y049941D01*
X025980Y051614D02*
X026570Y051614D01*
X026964Y052008D01*
X029326Y052008D02*
X029720Y051614D01*
X030310Y051614D01*
X030310Y049941D02*
X029818Y049941D01*
X029326Y049449D01*
D29*
X029326Y049646D01*
X029021Y049951D01*
X028775Y049951D01*
X031294Y040985D02*
X030901Y040591D01*
X030901Y039607D01*
X029523Y038229D01*
X025783Y038229D01*
X025389Y037835D01*
X022830Y037835D01*
X022042Y037048D01*
X014956Y037048D01*
X014456Y037048D01*
X013775Y037729D01*
X016531Y034095D02*
X016531Y032323D01*
X021098Y021890D02*
X022042Y021890D01*
X021098Y021890D02*
X021019Y021811D01*
X027161Y029961D02*
X030507Y029961D01*
X033657Y032717D02*
X037397Y032717D01*
X037397Y042166D01*
X037791Y042559D01*
X037791Y043937D01*
X037594Y044134D01*
X037200Y044134D01*
D30*
X020861Y033504D02*
X020861Y032717D01*
X020861Y033504D02*
X019483Y034882D01*
X018105Y034882D01*
X017909Y034685D01*
X014562Y034685D01*
X014365Y034882D01*
X017239Y035788D02*
X017554Y035473D01*
X018499Y035473D01*
D31*
X014365Y025827D03*
X017515Y047677D03*
X036413Y047677D03*
X036413Y025827D03*
D32*
X030507Y029961D03*
X027161Y029961D03*
D33*
X024743Y027599D02*
X025385Y026957D01*
X026172Y026957D01*
X024743Y027599D02*
X020763Y027599D01*
X020665Y027599D01*
X020271Y027992D01*
X020271Y028189D01*
X020074Y028386D01*
X019877Y028386D01*
X019287Y028386D01*
X018499Y027599D01*
X017712Y027599D01*
D34*
X017712Y027599D03*
M02*
