G75*
%MOIN*%
%OFA0B0*%
%FSLAX24Y24*%
%IPPOS*%
%LPD*%
%AMOC8*
5,1,8,0,0,1.08239X$1,22.5*
%
%ADD10C,0.0050*%
%ADD11C,0.0059*%
%ADD12C,0.0760*%
%ADD13R,0.0560X0.0560*%
%ADD14C,0.0560*%
%ADD15R,0.0709X0.0709*%
%ADD16R,0.0500X0.0500*%
%ADD17C,0.0197*%
%ADD18C,0.0148*%
%ADD19C,0.0660*%
%ADD20C,0.0049*%
%ADD21R,0.0700X0.0700*%
%ADD22C,0.0700*%
%ADD23C,0.1000*%
%ADD24C,0.0860*%
%ADD25R,0.0660X0.0660*%
%ADD26C,0.0138*%
%ADD27C,0.0079*%
%ADD28C,0.0315*%
%ADD29C,0.0394*%
%ADD30C,0.0500*%
%ADD31C,0.0098*%
%ADD32C,0.0157*%
%ADD33C,0.0500*%
%ADD34C,0.0354*%
%ADD35C,0.0276*%
%ADD36C,0.0315*%
%ADD37C,0.0709*%
%ADD38C,0.2540*%
%ADD39C,0.0118*%
%ADD40C,0.0394*%
%ADD41C,0.0236*%
D10*
X033879Y016026D02*
X034179Y016026D01*
X034339Y016251D02*
X034639Y016251D01*
X034799Y016251D02*
X035100Y016251D01*
X035260Y016251D02*
X035485Y016251D01*
X035560Y016176D01*
X035560Y016101D01*
X035485Y016026D01*
X035260Y016026D01*
X035260Y016477D01*
X035485Y016477D01*
X035560Y016402D01*
X035560Y016327D01*
X035485Y016251D01*
X035720Y016101D02*
X035795Y016026D01*
X035945Y016026D01*
X036020Y016101D01*
X036020Y016402D01*
X035945Y016477D01*
X035795Y016477D01*
X035720Y016402D01*
X035720Y016101D01*
X036180Y016477D02*
X036481Y016477D01*
X036331Y016477D02*
X036331Y016026D01*
X036791Y016026D02*
X036791Y016477D01*
X036641Y016477D02*
X036941Y016477D01*
X037101Y016402D02*
X037101Y016101D01*
X037176Y016026D01*
X037326Y016026D01*
X037402Y016101D01*
X037402Y016402D01*
X037326Y016477D01*
X037176Y016477D01*
X037101Y016402D01*
X037562Y016477D02*
X037712Y016327D01*
X037862Y016477D01*
X037862Y016026D01*
X037562Y016026D02*
X037562Y016477D01*
X034564Y016477D02*
X034339Y016251D01*
X034564Y016026D02*
X034564Y016477D01*
X033879Y016477D02*
X033879Y016026D01*
X033889Y045948D02*
X033889Y046248D01*
X033739Y046398D01*
X033589Y046248D01*
X033589Y045948D01*
X033589Y046173D02*
X033889Y046173D01*
X034049Y046398D02*
X034049Y045948D01*
X034349Y045948D02*
X034349Y046398D01*
X034199Y046248D01*
X034049Y046398D01*
X034509Y046323D02*
X034509Y046248D01*
X034584Y046173D01*
X034810Y046173D01*
X034970Y046248D02*
X035045Y046173D01*
X035195Y046173D01*
X035270Y046248D01*
X035270Y046323D01*
X035195Y046398D01*
X035045Y046398D01*
X034970Y046323D01*
X034970Y046248D01*
X035045Y046173D02*
X034970Y046098D01*
X034970Y046023D01*
X035045Y045948D01*
X035195Y045948D01*
X035270Y046023D01*
X035270Y046098D01*
X035195Y046173D01*
X035430Y046173D02*
X035730Y046173D01*
X035730Y046248D02*
X035580Y046398D01*
X035430Y046248D01*
X035430Y045948D01*
X035730Y045948D02*
X035730Y046248D01*
X035890Y046398D02*
X036191Y046098D01*
X036116Y046173D02*
X035890Y045948D01*
X036191Y045948D02*
X036191Y046398D01*
X036041Y046932D02*
X035890Y047082D01*
X035890Y047382D01*
X035730Y047382D02*
X035730Y046932D01*
X035730Y047082D02*
X035430Y047382D01*
X035270Y047382D02*
X035270Y047157D01*
X035120Y047232D01*
X035045Y047232D01*
X034970Y047157D01*
X034970Y047007D01*
X035045Y046932D01*
X035195Y046932D01*
X035270Y047007D01*
X035430Y046932D02*
X035655Y047157D01*
X035270Y047382D02*
X034970Y047382D01*
X034810Y047382D02*
X034584Y047382D01*
X034509Y047307D01*
X034509Y047007D01*
X034584Y046932D01*
X034810Y046932D01*
X034810Y047382D01*
X034349Y047307D02*
X034349Y047007D01*
X034274Y046932D01*
X034124Y046932D01*
X034049Y047007D01*
X034049Y047157D01*
X034199Y047157D01*
X034049Y047307D02*
X034124Y047382D01*
X034274Y047382D01*
X034349Y047307D01*
X033889Y047382D02*
X033664Y047382D01*
X033589Y047307D01*
X033589Y047157D01*
X033664Y047082D01*
X033889Y047082D01*
X033889Y046932D02*
X033889Y047382D01*
X033739Y047082D02*
X033589Y046932D01*
X034509Y046323D02*
X034584Y046398D01*
X034810Y046398D01*
X034810Y045948D01*
X034584Y045948D01*
X034509Y046023D01*
X034509Y046098D01*
X034584Y046173D01*
X036041Y046932D02*
X036191Y047082D01*
X036191Y047382D01*
X023019Y056577D02*
X022944Y056577D01*
X022944Y056653D01*
X023019Y056653D01*
X023019Y056577D01*
X022784Y056653D02*
X022709Y056577D01*
X022484Y056577D01*
X022484Y057028D01*
X022709Y057028D01*
X022784Y056953D01*
X022784Y056878D01*
X022709Y056803D01*
X022484Y056803D01*
X022324Y056803D02*
X022174Y056803D01*
X022324Y056803D02*
X022324Y056653D01*
X022249Y056577D01*
X022098Y056577D01*
X022023Y056653D01*
X022023Y056953D01*
X022098Y057028D01*
X022249Y057028D01*
X022324Y056953D01*
X022709Y056803D02*
X022784Y056728D01*
X022784Y056653D01*
X021863Y056577D02*
X021713Y056728D01*
X021788Y056728D02*
X021563Y056728D01*
X021563Y056577D02*
X021563Y057028D01*
X021788Y057028D01*
X021863Y056953D01*
X021863Y056803D01*
X021788Y056728D01*
X020942Y056803D02*
X020942Y056653D01*
X020867Y056577D01*
X020717Y056577D01*
X020642Y056653D01*
X020642Y056803D02*
X020792Y056878D01*
X020867Y056878D01*
X020942Y056803D01*
X020942Y057028D02*
X020642Y057028D01*
X020642Y056803D01*
X020482Y056577D02*
X020182Y056577D01*
X020332Y056577D02*
X020332Y057028D01*
X020182Y056878D01*
X020022Y057028D02*
X019721Y056577D01*
X019561Y056653D02*
X019486Y056577D01*
X019336Y056577D01*
X019261Y056653D01*
X019101Y056653D02*
X019026Y056577D01*
X018876Y056577D01*
X018801Y056653D01*
X019101Y056953D01*
X019101Y056653D01*
X019101Y056953D02*
X019026Y057028D01*
X018876Y057028D01*
X018801Y056953D01*
X018801Y056653D01*
X018640Y057028D02*
X018340Y056577D01*
X018180Y056653D02*
X018105Y056577D01*
X017955Y056577D01*
X017880Y056653D01*
X018180Y056953D01*
X018180Y056653D01*
X018180Y056953D02*
X018105Y057028D01*
X017955Y057028D01*
X017880Y056953D01*
X017880Y056653D01*
X017720Y056577D02*
X017419Y056577D01*
X017570Y056577D02*
X017570Y057028D01*
X017419Y056878D01*
X016339Y057028D02*
X016038Y057028D01*
X016038Y056577D01*
X016038Y056803D02*
X016188Y056803D01*
X015878Y056803D02*
X015578Y056803D01*
X015418Y056953D02*
X015117Y056653D01*
X015193Y056577D01*
X015343Y056577D01*
X015418Y056653D01*
X015418Y056953D01*
X015343Y057028D01*
X015193Y057028D01*
X015117Y056953D01*
X015117Y056653D01*
X014957Y056653D02*
X014882Y056577D01*
X014732Y056577D01*
X014657Y056653D01*
X014957Y056953D01*
X014957Y056653D01*
X014957Y056953D02*
X014882Y057028D01*
X014732Y057028D01*
X014657Y056953D01*
X014657Y056653D01*
X014497Y056653D02*
X014422Y056577D01*
X014272Y056577D01*
X014197Y056653D01*
X014497Y056953D01*
X014497Y056653D01*
X014497Y056953D02*
X014422Y057028D01*
X014272Y057028D01*
X014197Y056953D01*
X014197Y056653D01*
X014037Y056577D02*
X013736Y056577D01*
X013886Y056577D02*
X013886Y057028D01*
X013736Y056878D01*
X013576Y057028D02*
X013576Y056577D01*
X013276Y056577D02*
X013276Y057028D01*
X013426Y056878D01*
X013576Y057028D01*
X013116Y056953D02*
X013041Y057028D01*
X012891Y057028D01*
X012816Y056953D01*
X012816Y056878D01*
X012891Y056803D01*
X013041Y056803D01*
X013116Y056728D01*
X013116Y056653D01*
X013041Y056577D01*
X012891Y056577D01*
X012816Y056653D01*
X019261Y056953D02*
X019336Y057028D01*
X019486Y057028D01*
X019561Y056953D01*
X019561Y056878D01*
X019486Y056803D01*
X019561Y056728D01*
X019561Y056653D01*
X019486Y056803D02*
X019411Y056803D01*
D11*
X012594Y056159D02*
X012594Y016789D01*
X038184Y016789D01*
X038184Y056159D01*
X012594Y056159D01*
D12*
X025086Y035096D03*
X033417Y054222D03*
X034417Y054222D03*
X035417Y054222D03*
D13*
X030192Y050360D03*
X028617Y047694D03*
X031661Y040017D03*
X029629Y025293D03*
X020271Y030068D03*
X017318Y046907D03*
D14*
X017318Y047907D03*
X017318Y048907D03*
X028617Y046694D03*
X028617Y045694D03*
X030192Y049360D03*
X032661Y040017D03*
X028629Y025293D03*
X020271Y031068D03*
D15*
X026086Y035096D03*
D16*
X019877Y034308D03*
X022436Y045332D03*
X022436Y046537D03*
X023420Y046513D03*
X023420Y045332D03*
X023617Y047694D03*
X022830Y047694D03*
X024405Y047694D03*
X025192Y047694D03*
X026373Y046513D03*
X026373Y045726D03*
X030507Y045726D03*
X030507Y044741D03*
X014956Y054190D03*
X014956Y054938D03*
X013696Y054978D03*
X013696Y054190D03*
X013381Y022694D03*
X013420Y017812D03*
X029326Y022891D03*
X037279Y023049D03*
D17*
X036609Y022694D02*
X036609Y023482D01*
X036609Y022694D02*
X036019Y022694D01*
X036019Y023482D01*
X036609Y023482D01*
X036609Y022890D02*
X036019Y022890D01*
X036019Y023086D02*
X036609Y023086D01*
X036609Y023282D02*
X036019Y023282D01*
X036019Y023478D02*
X036609Y023478D01*
X035055Y021218D02*
X034267Y021218D01*
X034267Y021808D01*
X035055Y021808D01*
X035055Y021218D01*
X035055Y021414D02*
X034267Y021414D01*
X034267Y021610D02*
X035055Y021610D01*
X035055Y021806D02*
X034267Y021806D01*
X032160Y022694D02*
X032160Y023482D01*
X032160Y022694D02*
X031570Y022694D01*
X031570Y023482D01*
X032160Y023482D01*
X032160Y022890D02*
X031570Y022890D01*
X031570Y023086D02*
X032160Y023086D01*
X032160Y023282D02*
X031570Y023282D01*
X031570Y023478D02*
X032160Y023478D01*
X030606Y021218D02*
X029818Y021218D01*
X029818Y021808D01*
X030606Y021808D01*
X030606Y021218D01*
X030606Y021414D02*
X029818Y021414D01*
X029818Y021610D02*
X030606Y021610D01*
X030606Y021806D02*
X029818Y021806D01*
X027712Y022694D02*
X027712Y023482D01*
X027712Y022694D02*
X027122Y022694D01*
X027122Y023482D01*
X027712Y023482D01*
X027712Y022890D02*
X027122Y022890D01*
X027122Y023086D02*
X027712Y023086D01*
X027712Y023282D02*
X027122Y023282D01*
X027122Y023478D02*
X027712Y023478D01*
X027417Y023088D02*
X026767Y023088D01*
X026216Y023088D01*
X025704Y023088D02*
X025704Y022891D01*
X026491Y022104D01*
X026491Y019505D01*
X025901Y018915D01*
X025763Y018777D01*
X025763Y017871D01*
X026157Y017576D02*
X025369Y017576D01*
X025369Y018166D01*
X026157Y018166D01*
X026157Y017576D01*
X026157Y017772D02*
X025369Y017772D01*
X025369Y017968D02*
X026157Y017968D01*
X026157Y018164D02*
X025369Y018164D01*
X024425Y018285D02*
X023637Y018285D01*
X023637Y018875D01*
X024425Y018875D01*
X024425Y018285D01*
X024425Y018481D02*
X023637Y018481D01*
X023637Y018677D02*
X024425Y018677D01*
X024425Y018873D02*
X023637Y018873D01*
X021708Y017576D02*
X020920Y017576D01*
X020920Y018166D01*
X021708Y018166D01*
X021708Y017576D01*
X021708Y017772D02*
X020920Y017772D01*
X020920Y017968D02*
X021708Y017968D01*
X021708Y018164D02*
X020920Y018164D01*
X019976Y018285D02*
X019188Y018285D01*
X019188Y018875D01*
X019976Y018875D01*
X019976Y018285D01*
X019976Y018481D02*
X019188Y018481D01*
X019188Y018677D02*
X019976Y018677D01*
X019976Y018873D02*
X019188Y018873D01*
X020920Y021218D02*
X021708Y021218D01*
X020920Y021218D02*
X020920Y021808D01*
X021708Y021808D01*
X021708Y021218D01*
X021708Y021414D02*
X020920Y021414D01*
X020920Y021610D02*
X021708Y021610D01*
X021708Y021806D02*
X020920Y021806D01*
X023263Y022694D02*
X023263Y023482D01*
X023263Y022694D02*
X022673Y022694D01*
X022673Y023482D01*
X023263Y023482D01*
X023263Y022890D02*
X022673Y022890D01*
X022673Y023086D02*
X023263Y023086D01*
X023263Y023282D02*
X022673Y023282D01*
X022673Y023478D02*
X023263Y023478D01*
X025369Y021218D02*
X026157Y021218D01*
X025369Y021218D02*
X025369Y021808D01*
X026157Y021808D01*
X026157Y021218D01*
X026157Y021414D02*
X025369Y021414D01*
X025369Y021610D02*
X026157Y021610D01*
X026157Y021806D02*
X025369Y021806D01*
X028086Y018285D02*
X028874Y018285D01*
X028086Y018285D02*
X028086Y018875D01*
X028874Y018875D01*
X028874Y018285D01*
X028874Y018481D02*
X028086Y018481D01*
X028086Y018677D02*
X028874Y018677D01*
X028874Y018873D02*
X028086Y018873D01*
X029818Y017576D02*
X030606Y017576D01*
X029818Y017576D02*
X029818Y018166D01*
X030606Y018166D01*
X030606Y017576D01*
X030606Y017772D02*
X029818Y017772D01*
X029818Y017968D02*
X030606Y017968D01*
X030606Y018164D02*
X029818Y018164D01*
X032534Y018285D02*
X033322Y018285D01*
X032534Y018285D02*
X032534Y018875D01*
X033322Y018875D01*
X033322Y018285D01*
X033322Y018481D02*
X032534Y018481D01*
X032534Y018677D02*
X033322Y018677D01*
X033322Y018873D02*
X032534Y018873D01*
X034267Y017576D02*
X035055Y017576D01*
X034267Y017576D02*
X034267Y018166D01*
X035055Y018166D01*
X035055Y017576D01*
X035055Y017772D02*
X034267Y017772D01*
X034267Y017968D02*
X035055Y017968D01*
X035055Y018164D02*
X034267Y018164D01*
X036983Y018285D02*
X037771Y018285D01*
X036983Y018285D02*
X036983Y018875D01*
X037771Y018875D01*
X037771Y018285D01*
X037771Y018481D02*
X036983Y018481D01*
X036983Y018677D02*
X037771Y018677D01*
X037771Y018873D02*
X036983Y018873D01*
X019208Y041120D02*
X018420Y041120D01*
X018420Y041710D01*
X019208Y041710D01*
X019208Y041120D01*
X019208Y041316D02*
X018420Y041316D01*
X018420Y041512D02*
X019208Y041512D01*
X019208Y041708D02*
X018420Y041708D01*
X016944Y042674D02*
X016944Y043462D01*
X017534Y043462D01*
X017534Y042674D01*
X016944Y042674D01*
X016944Y042870D02*
X017534Y042870D01*
X017534Y043066D02*
X016944Y043066D01*
X016944Y043262D02*
X017534Y043262D01*
X017534Y043458D02*
X016944Y043458D01*
X017239Y043068D02*
X016137Y043068D01*
X015251Y043068D01*
X014838Y043482D01*
X014602Y043482D01*
X014602Y043993D02*
X014031Y043993D01*
X013598Y043560D01*
X013303Y043462D02*
X013303Y042674D01*
X013303Y043462D02*
X013893Y043462D01*
X013893Y042674D01*
X013303Y042674D01*
X013303Y042870D02*
X013893Y042870D01*
X013893Y043066D02*
X013303Y043066D01*
X013303Y043262D02*
X013893Y043262D01*
X013893Y043458D02*
X013303Y043458D01*
X014011Y040746D02*
X014011Y039958D01*
X014011Y040746D02*
X014601Y040746D01*
X014601Y039958D01*
X014011Y039958D01*
X014011Y040154D02*
X014601Y040154D01*
X014601Y040350D02*
X014011Y040350D01*
X014011Y040546D02*
X014601Y040546D01*
X014601Y040742D02*
X014011Y040742D01*
X022160Y052989D02*
X022160Y053777D01*
X022160Y052989D02*
X021570Y052989D01*
X021570Y053777D01*
X022160Y053777D01*
X022160Y053185D02*
X021570Y053185D01*
X021570Y053381D02*
X022160Y053381D01*
X022160Y053577D02*
X021570Y053577D01*
X021570Y053773D02*
X022160Y053773D01*
X022160Y055155D02*
X022160Y055943D01*
X022160Y055155D02*
X021570Y055155D01*
X021570Y055943D01*
X022160Y055943D01*
X022160Y055351D02*
X021570Y055351D01*
X021570Y055547D02*
X022160Y055547D01*
X022160Y055743D02*
X021570Y055743D01*
X021570Y055939D02*
X022160Y055939D01*
X024247Y053344D02*
X024582Y053344D01*
X024621Y053383D01*
X025369Y053383D01*
X025664Y053777D02*
X025664Y052989D01*
X025074Y052989D01*
X025074Y053777D01*
X025664Y053777D01*
X025664Y053185D02*
X025074Y053185D01*
X025074Y053381D02*
X025664Y053381D01*
X025664Y053577D02*
X025074Y053577D01*
X025074Y053773D02*
X025664Y053773D01*
X025664Y055155D02*
X025664Y055943D01*
X025664Y055155D02*
X025074Y055155D01*
X025074Y055943D01*
X025664Y055943D01*
X025664Y055351D02*
X025074Y055351D01*
X025074Y055547D02*
X025664Y055547D01*
X025664Y055743D02*
X025074Y055743D01*
X025074Y055939D02*
X025664Y055939D01*
X018814Y023482D02*
X018814Y022694D01*
X018224Y022694D01*
X018224Y023482D01*
X018814Y023482D01*
X018814Y022890D02*
X018224Y022890D01*
X018224Y023086D02*
X018814Y023086D01*
X018814Y023282D02*
X018224Y023282D01*
X018224Y023478D02*
X018814Y023478D01*
X017259Y021218D02*
X016471Y021218D01*
X016471Y021808D01*
X017259Y021808D01*
X017259Y021218D01*
X017259Y021414D02*
X016471Y021414D01*
X016471Y021610D02*
X017259Y021610D01*
X017259Y021806D02*
X016471Y021806D01*
X016865Y021513D02*
X016865Y021139D01*
X016452Y020726D01*
X016452Y020529D01*
X016471Y017576D02*
X017259Y017576D01*
X016471Y017576D02*
X016471Y018166D01*
X017259Y018166D01*
X017259Y017576D01*
X017259Y017772D02*
X016471Y017772D01*
X016471Y017968D02*
X017259Y017968D01*
X017259Y018164D02*
X016471Y018164D01*
D18*
X019164Y017738D02*
X020000Y017738D01*
X020000Y017296D01*
X019164Y017296D01*
X019164Y017738D01*
X019164Y017443D02*
X020000Y017443D01*
X020000Y017590D02*
X019164Y017590D01*
X019164Y017737D02*
X020000Y017737D01*
X023613Y017738D02*
X024449Y017738D01*
X024449Y017296D01*
X023613Y017296D01*
X023613Y017738D01*
X023613Y017443D02*
X024449Y017443D01*
X024449Y017590D02*
X023613Y017590D01*
X023613Y017737D02*
X024449Y017737D01*
X028062Y017738D02*
X028898Y017738D01*
X028898Y017296D01*
X028062Y017296D01*
X028062Y017738D01*
X028062Y017443D02*
X028898Y017443D01*
X028898Y017590D02*
X028062Y017590D01*
X028062Y017737D02*
X028898Y017737D01*
X032510Y017738D02*
X033346Y017738D01*
X033346Y017296D01*
X032510Y017296D01*
X032510Y017738D01*
X032510Y017443D02*
X033346Y017443D01*
X033346Y017590D02*
X032510Y017590D01*
X032510Y017737D02*
X033346Y017737D01*
X036959Y017738D02*
X037795Y017738D01*
X037795Y017296D01*
X036959Y017296D01*
X036959Y017738D01*
X036959Y017443D02*
X037795Y017443D01*
X037795Y017590D02*
X036959Y017590D01*
X036959Y017737D02*
X037795Y017737D01*
X013464Y039934D02*
X013464Y040770D01*
X013464Y039934D02*
X013022Y039934D01*
X013022Y040770D01*
X013464Y040770D01*
X013464Y040081D02*
X013022Y040081D01*
X013022Y040228D02*
X013464Y040228D01*
X013464Y040375D02*
X013022Y040375D01*
X013022Y040522D02*
X013464Y040522D01*
X013464Y040669D02*
X013022Y040669D01*
D19*
X020314Y028328D03*
X021314Y028328D03*
X022314Y028328D03*
X023314Y028328D03*
X024314Y028328D03*
X025314Y028328D03*
X026314Y028328D03*
X027314Y028328D03*
X027314Y025328D03*
X026314Y025328D03*
X025314Y025328D03*
X024314Y025328D03*
X023314Y025328D03*
X022314Y025328D03*
X021314Y025328D03*
X022731Y032537D03*
X020684Y054988D03*
X020074Y055755D03*
X019464Y054988D03*
X017928Y054988D03*
X017318Y055755D03*
X016708Y054988D03*
D20*
X023061Y053773D02*
X023061Y052915D01*
X022913Y052915D01*
X022913Y053773D01*
X023061Y053773D01*
X023061Y052963D02*
X022913Y052963D01*
X022913Y053011D02*
X023061Y053011D01*
X023061Y053059D02*
X022913Y053059D01*
X022913Y053107D02*
X023061Y053107D01*
X023061Y053155D02*
X022913Y053155D01*
X022913Y053203D02*
X023061Y053203D01*
X023061Y053251D02*
X022913Y053251D01*
X022913Y053299D02*
X023061Y053299D01*
X023061Y053347D02*
X022913Y053347D01*
X022913Y053395D02*
X023061Y053395D01*
X023061Y053443D02*
X022913Y053443D01*
X022913Y053491D02*
X023061Y053491D01*
X023061Y053539D02*
X022913Y053539D01*
X022913Y053587D02*
X023061Y053587D01*
X023061Y053635D02*
X022913Y053635D01*
X022913Y053683D02*
X023061Y053683D01*
X023061Y053731D02*
X022913Y053731D01*
X023376Y053773D02*
X023376Y052915D01*
X023228Y052915D01*
X023228Y053773D01*
X023376Y053773D01*
X023376Y052963D02*
X023228Y052963D01*
X023228Y053011D02*
X023376Y053011D01*
X023376Y053059D02*
X023228Y053059D01*
X023228Y053107D02*
X023376Y053107D01*
X023376Y053155D02*
X023228Y053155D01*
X023228Y053203D02*
X023376Y053203D01*
X023376Y053251D02*
X023228Y053251D01*
X023228Y053299D02*
X023376Y053299D01*
X023376Y053347D02*
X023228Y053347D01*
X023228Y053395D02*
X023376Y053395D01*
X023376Y053443D02*
X023228Y053443D01*
X023228Y053491D02*
X023376Y053491D01*
X023376Y053539D02*
X023228Y053539D01*
X023228Y053587D02*
X023376Y053587D01*
X023376Y053635D02*
X023228Y053635D01*
X023228Y053683D02*
X023376Y053683D01*
X023376Y053731D02*
X023228Y053731D01*
X023691Y053773D02*
X023691Y052915D01*
X023543Y052915D01*
X023543Y053773D01*
X023691Y053773D01*
X023691Y052963D02*
X023543Y052963D01*
X023543Y053011D02*
X023691Y053011D01*
X023691Y053059D02*
X023543Y053059D01*
X023543Y053107D02*
X023691Y053107D01*
X023691Y053155D02*
X023543Y053155D01*
X023543Y053203D02*
X023691Y053203D01*
X023691Y053251D02*
X023543Y053251D01*
X023543Y053299D02*
X023691Y053299D01*
X023691Y053347D02*
X023543Y053347D01*
X023543Y053395D02*
X023691Y053395D01*
X023691Y053443D02*
X023543Y053443D01*
X023543Y053491D02*
X023691Y053491D01*
X023691Y053539D02*
X023543Y053539D01*
X023543Y053587D02*
X023691Y053587D01*
X023691Y053635D02*
X023543Y053635D01*
X023543Y053683D02*
X023691Y053683D01*
X023691Y053731D02*
X023543Y053731D01*
X024006Y053773D02*
X024006Y052915D01*
X023858Y052915D01*
X023858Y053773D01*
X024006Y053773D01*
X024006Y052963D02*
X023858Y052963D01*
X023858Y053011D02*
X024006Y053011D01*
X024006Y053059D02*
X023858Y053059D01*
X023858Y053107D02*
X024006Y053107D01*
X024006Y053155D02*
X023858Y053155D01*
X023858Y053203D02*
X024006Y053203D01*
X024006Y053251D02*
X023858Y053251D01*
X023858Y053299D02*
X024006Y053299D01*
X024006Y053347D02*
X023858Y053347D01*
X023858Y053395D02*
X024006Y053395D01*
X024006Y053443D02*
X023858Y053443D01*
X023858Y053491D02*
X024006Y053491D01*
X024006Y053539D02*
X023858Y053539D01*
X023858Y053587D02*
X024006Y053587D01*
X024006Y053635D02*
X023858Y053635D01*
X023858Y053683D02*
X024006Y053683D01*
X024006Y053731D02*
X023858Y053731D01*
X024321Y053773D02*
X024321Y052915D01*
X024173Y052915D01*
X024173Y053773D01*
X024321Y053773D01*
X024321Y052963D02*
X024173Y052963D01*
X024173Y053011D02*
X024321Y053011D01*
X024321Y053059D02*
X024173Y053059D01*
X024173Y053107D02*
X024321Y053107D01*
X024321Y053155D02*
X024173Y053155D01*
X024173Y053203D02*
X024321Y053203D01*
X024321Y053251D02*
X024173Y053251D01*
X024173Y053299D02*
X024321Y053299D01*
X024321Y053347D02*
X024173Y053347D01*
X024173Y053395D02*
X024321Y053395D01*
X024321Y053443D02*
X024173Y053443D01*
X024173Y053491D02*
X024321Y053491D01*
X024321Y053539D02*
X024173Y053539D01*
X024173Y053587D02*
X024321Y053587D01*
X024321Y053635D02*
X024173Y053635D01*
X024173Y053683D02*
X024321Y053683D01*
X024321Y053731D02*
X024173Y053731D01*
X028425Y053693D02*
X028573Y053693D01*
X028425Y053693D02*
X028425Y054531D01*
X028573Y054531D01*
X028573Y053693D01*
X028573Y053741D02*
X028425Y053741D01*
X028425Y053789D02*
X028573Y053789D01*
X028573Y053837D02*
X028425Y053837D01*
X028425Y053885D02*
X028573Y053885D01*
X028573Y053933D02*
X028425Y053933D01*
X028425Y053981D02*
X028573Y053981D01*
X028573Y054029D02*
X028425Y054029D01*
X028425Y054077D02*
X028573Y054077D01*
X028573Y054125D02*
X028425Y054125D01*
X028425Y054173D02*
X028573Y054173D01*
X028573Y054221D02*
X028425Y054221D01*
X028425Y054269D02*
X028573Y054269D01*
X028573Y054317D02*
X028425Y054317D01*
X028425Y054365D02*
X028573Y054365D01*
X028573Y054413D02*
X028425Y054413D01*
X028425Y054461D02*
X028573Y054461D01*
X028573Y054509D02*
X028425Y054509D01*
X028925Y053693D02*
X029073Y053693D01*
X028925Y053693D02*
X028925Y054531D01*
X029073Y054531D01*
X029073Y053693D01*
X029073Y053741D02*
X028925Y053741D01*
X028925Y053789D02*
X029073Y053789D01*
X029073Y053837D02*
X028925Y053837D01*
X028925Y053885D02*
X029073Y053885D01*
X029073Y053933D02*
X028925Y053933D01*
X028925Y053981D02*
X029073Y053981D01*
X029073Y054029D02*
X028925Y054029D01*
X028925Y054077D02*
X029073Y054077D01*
X029073Y054125D02*
X028925Y054125D01*
X028925Y054173D02*
X029073Y054173D01*
X029073Y054221D02*
X028925Y054221D01*
X028925Y054269D02*
X029073Y054269D01*
X029073Y054317D02*
X028925Y054317D01*
X028925Y054365D02*
X029073Y054365D01*
X029073Y054413D02*
X028925Y054413D01*
X028925Y054461D02*
X029073Y054461D01*
X029073Y054509D02*
X028925Y054509D01*
X029425Y053693D02*
X029573Y053693D01*
X029425Y053693D02*
X029425Y054531D01*
X029573Y054531D01*
X029573Y053693D01*
X029573Y053741D02*
X029425Y053741D01*
X029425Y053789D02*
X029573Y053789D01*
X029573Y053837D02*
X029425Y053837D01*
X029425Y053885D02*
X029573Y053885D01*
X029573Y053933D02*
X029425Y053933D01*
X029425Y053981D02*
X029573Y053981D01*
X029573Y054029D02*
X029425Y054029D01*
X029425Y054077D02*
X029573Y054077D01*
X029573Y054125D02*
X029425Y054125D01*
X029425Y054173D02*
X029573Y054173D01*
X029573Y054221D02*
X029425Y054221D01*
X029425Y054269D02*
X029573Y054269D01*
X029573Y054317D02*
X029425Y054317D01*
X029425Y054365D02*
X029573Y054365D01*
X029573Y054413D02*
X029425Y054413D01*
X029425Y054461D02*
X029573Y054461D01*
X029573Y054509D02*
X029425Y054509D01*
X029925Y053693D02*
X030073Y053693D01*
X029925Y053693D02*
X029925Y054531D01*
X030073Y054531D01*
X030073Y053693D01*
X030073Y053741D02*
X029925Y053741D01*
X029925Y053789D02*
X030073Y053789D01*
X030073Y053837D02*
X029925Y053837D01*
X029925Y053885D02*
X030073Y053885D01*
X030073Y053933D02*
X029925Y053933D01*
X029925Y053981D02*
X030073Y053981D01*
X030073Y054029D02*
X029925Y054029D01*
X029925Y054077D02*
X030073Y054077D01*
X030073Y054125D02*
X029925Y054125D01*
X029925Y054173D02*
X030073Y054173D01*
X030073Y054221D02*
X029925Y054221D01*
X029925Y054269D02*
X030073Y054269D01*
X030073Y054317D02*
X029925Y054317D01*
X029925Y054365D02*
X030073Y054365D01*
X030073Y054413D02*
X029925Y054413D01*
X029925Y054461D02*
X030073Y054461D01*
X030073Y054509D02*
X029925Y054509D01*
X029925Y051881D02*
X030073Y051881D01*
X029925Y051881D02*
X029925Y052719D01*
X030073Y052719D01*
X030073Y051881D01*
X030073Y051929D02*
X029925Y051929D01*
X029925Y051977D02*
X030073Y051977D01*
X030073Y052025D02*
X029925Y052025D01*
X029925Y052073D02*
X030073Y052073D01*
X030073Y052121D02*
X029925Y052121D01*
X029925Y052169D02*
X030073Y052169D01*
X030073Y052217D02*
X029925Y052217D01*
X029925Y052265D02*
X030073Y052265D01*
X030073Y052313D02*
X029925Y052313D01*
X029925Y052361D02*
X030073Y052361D01*
X030073Y052409D02*
X029925Y052409D01*
X029925Y052457D02*
X030073Y052457D01*
X030073Y052505D02*
X029925Y052505D01*
X029925Y052553D02*
X030073Y052553D01*
X030073Y052601D02*
X029925Y052601D01*
X029925Y052649D02*
X030073Y052649D01*
X030073Y052697D02*
X029925Y052697D01*
X029573Y051881D02*
X029425Y051881D01*
X029425Y052719D01*
X029573Y052719D01*
X029573Y051881D01*
X029573Y051929D02*
X029425Y051929D01*
X029425Y051977D02*
X029573Y051977D01*
X029573Y052025D02*
X029425Y052025D01*
X029425Y052073D02*
X029573Y052073D01*
X029573Y052121D02*
X029425Y052121D01*
X029425Y052169D02*
X029573Y052169D01*
X029573Y052217D02*
X029425Y052217D01*
X029425Y052265D02*
X029573Y052265D01*
X029573Y052313D02*
X029425Y052313D01*
X029425Y052361D02*
X029573Y052361D01*
X029573Y052409D02*
X029425Y052409D01*
X029425Y052457D02*
X029573Y052457D01*
X029573Y052505D02*
X029425Y052505D01*
X029425Y052553D02*
X029573Y052553D01*
X029573Y052601D02*
X029425Y052601D01*
X029425Y052649D02*
X029573Y052649D01*
X029573Y052697D02*
X029425Y052697D01*
X029073Y051881D02*
X028925Y051881D01*
X028925Y052719D01*
X029073Y052719D01*
X029073Y051881D01*
X029073Y051929D02*
X028925Y051929D01*
X028925Y051977D02*
X029073Y051977D01*
X029073Y052025D02*
X028925Y052025D01*
X028925Y052073D02*
X029073Y052073D01*
X029073Y052121D02*
X028925Y052121D01*
X028925Y052169D02*
X029073Y052169D01*
X029073Y052217D02*
X028925Y052217D01*
X028925Y052265D02*
X029073Y052265D01*
X029073Y052313D02*
X028925Y052313D01*
X028925Y052361D02*
X029073Y052361D01*
X029073Y052409D02*
X028925Y052409D01*
X028925Y052457D02*
X029073Y052457D01*
X029073Y052505D02*
X028925Y052505D01*
X028925Y052553D02*
X029073Y052553D01*
X029073Y052601D02*
X028925Y052601D01*
X028925Y052649D02*
X029073Y052649D01*
X029073Y052697D02*
X028925Y052697D01*
X028573Y051881D02*
X028425Y051881D01*
X028425Y052719D01*
X028573Y052719D01*
X028573Y051881D01*
X028573Y051929D02*
X028425Y051929D01*
X028425Y051977D02*
X028573Y051977D01*
X028573Y052025D02*
X028425Y052025D01*
X028425Y052073D02*
X028573Y052073D01*
X028573Y052121D02*
X028425Y052121D01*
X028425Y052169D02*
X028573Y052169D01*
X028573Y052217D02*
X028425Y052217D01*
X028425Y052265D02*
X028573Y052265D01*
X028573Y052313D02*
X028425Y052313D01*
X028425Y052361D02*
X028573Y052361D01*
X028573Y052409D02*
X028425Y052409D01*
X028425Y052457D02*
X028573Y052457D01*
X028573Y052505D02*
X028425Y052505D01*
X028425Y052553D02*
X028573Y052553D01*
X028573Y052601D02*
X028425Y052601D01*
X028425Y052649D02*
X028573Y052649D01*
X028573Y052697D02*
X028425Y052697D01*
X014676Y044107D02*
X014676Y043879D01*
X014528Y043879D01*
X014528Y044107D01*
X014676Y044107D01*
X014676Y043927D02*
X014528Y043927D01*
X014528Y043975D02*
X014676Y043975D01*
X014676Y044023D02*
X014528Y044023D01*
X014528Y044071D02*
X014676Y044071D01*
X014676Y043596D02*
X014676Y043368D01*
X014528Y043368D01*
X014528Y043596D01*
X014676Y043596D01*
X014676Y043416D02*
X014528Y043416D01*
X014528Y043464D02*
X014676Y043464D01*
X014676Y043512D02*
X014528Y043512D01*
X014528Y043560D02*
X014676Y043560D01*
X025590Y023162D02*
X025818Y023162D01*
X025818Y023014D01*
X025590Y023014D01*
X025590Y023162D01*
X025590Y023062D02*
X025818Y023062D01*
X025818Y023110D02*
X025590Y023110D01*
X025590Y023158D02*
X025818Y023158D01*
X026102Y023162D02*
X026330Y023162D01*
X026330Y023014D01*
X026102Y023014D01*
X026102Y023162D01*
X026102Y023062D02*
X026330Y023062D01*
X026330Y023110D02*
X026102Y023110D01*
X026102Y023158D02*
X026330Y023158D01*
X029646Y020092D02*
X029646Y019864D01*
X029646Y020092D02*
X029794Y020092D01*
X029794Y019864D01*
X029646Y019864D01*
X029646Y019912D02*
X029794Y019912D01*
X029794Y019960D02*
X029646Y019960D01*
X029646Y020008D02*
X029794Y020008D01*
X029794Y020056D02*
X029646Y020056D01*
X029646Y019580D02*
X029646Y019352D01*
X029646Y019580D02*
X029794Y019580D01*
X029794Y019352D01*
X029646Y019352D01*
X029646Y019400D02*
X029794Y019400D01*
X029794Y019448D02*
X029646Y019448D01*
X029646Y019496D02*
X029794Y019496D01*
X029794Y019544D02*
X029646Y019544D01*
X033976Y019580D02*
X033976Y019352D01*
X033976Y019580D02*
X034124Y019580D01*
X034124Y019352D01*
X033976Y019352D01*
X033976Y019400D02*
X034124Y019400D01*
X034124Y019448D02*
X033976Y019448D01*
X033976Y019496D02*
X034124Y019496D01*
X034124Y019544D02*
X033976Y019544D01*
X033976Y019864D02*
X033976Y020092D01*
X034124Y020092D01*
X034124Y019864D01*
X033976Y019864D01*
X033976Y019912D02*
X034124Y019912D01*
X034124Y019960D02*
X033976Y019960D01*
X033976Y020008D02*
X034124Y020008D01*
X034124Y020056D02*
X033976Y020056D01*
X016378Y019903D02*
X016378Y020131D01*
X016526Y020131D01*
X016526Y019903D01*
X016378Y019903D01*
X016378Y019951D02*
X016526Y019951D01*
X016526Y019999D02*
X016378Y019999D01*
X016378Y020047D02*
X016526Y020047D01*
X016526Y020095D02*
X016378Y020095D01*
X016378Y020415D02*
X016378Y020643D01*
X016526Y020643D01*
X016526Y020415D01*
X016378Y020415D01*
X016378Y020463D02*
X016526Y020463D01*
X016526Y020511D02*
X016378Y020511D01*
X016378Y020559D02*
X016526Y020559D01*
X016526Y020607D02*
X016378Y020607D01*
D21*
X018696Y044249D03*
X014464Y050056D03*
D22*
X015448Y050056D03*
X015448Y051041D03*
X015448Y052025D03*
X014464Y052025D03*
X014464Y051041D03*
X016728Y045234D03*
X017712Y045234D03*
X018696Y045234D03*
X017712Y044249D03*
X016728Y044249D03*
D23*
X015468Y043915D03*
X014129Y053285D03*
D24*
X015783Y048797D03*
X019956Y045568D03*
D25*
X023716Y032537D03*
X020314Y025328D03*
D26*
X024946Y021995D02*
X024946Y021583D01*
X024258Y021583D01*
X024258Y021995D01*
X024946Y021995D01*
X024946Y021720D02*
X024258Y021720D01*
X024258Y021857D02*
X024946Y021857D01*
X024946Y021994D02*
X024258Y021994D01*
X024946Y020262D02*
X024946Y019850D01*
X024258Y019850D01*
X024258Y020262D01*
X024946Y020262D01*
X024946Y019987D02*
X024258Y019987D01*
X024258Y020124D02*
X024946Y020124D01*
X024946Y020261D02*
X024258Y020261D01*
X015103Y019869D02*
X015103Y019457D01*
X014415Y019457D01*
X014415Y019869D01*
X015103Y019869D01*
X015103Y019594D02*
X014415Y019594D01*
X014415Y019731D02*
X015103Y019731D01*
X015103Y019868D02*
X014415Y019868D01*
X015103Y021189D02*
X015103Y021601D01*
X015103Y021189D02*
X014415Y021189D01*
X014415Y021601D01*
X015103Y021601D01*
X015103Y021326D02*
X014415Y021326D01*
X014415Y021463D02*
X015103Y021463D01*
X015103Y021600D02*
X014415Y021600D01*
D27*
X014387Y020076D02*
X014335Y020062D01*
X014288Y020035D01*
X014249Y019996D01*
X014222Y019949D01*
X014208Y019897D01*
X014208Y019702D01*
X014720Y019702D01*
X014720Y020076D01*
X014387Y020076D01*
X014286Y020033D02*
X012987Y020033D01*
X012987Y020110D02*
X016216Y020110D01*
X016216Y020135D02*
X016216Y020027D01*
X016442Y020027D01*
X016442Y020007D01*
X016462Y020007D01*
X016462Y020027D01*
X016688Y020027D01*
X016688Y020135D01*
X024050Y020135D01*
X024050Y020096D01*
X024562Y020096D01*
X024562Y020017D01*
X024050Y020017D01*
X024050Y019823D01*
X024064Y019770D01*
X024092Y019723D01*
X024130Y019684D01*
X024177Y019657D01*
X024230Y019643D01*
X024562Y019643D01*
X024562Y020017D01*
X024641Y020017D01*
X024641Y020096D01*
X025153Y020096D01*
X025153Y020135D01*
X025389Y020135D01*
X025389Y018423D01*
X025318Y018423D01*
X025224Y018384D01*
X025152Y018312D01*
X025113Y018218D01*
X025113Y017525D01*
X025152Y017431D01*
X025224Y017359D01*
X025318Y017320D01*
X025389Y017320D01*
X025389Y017182D01*
X024663Y017182D01*
X024680Y017200D01*
X024680Y017834D01*
X024545Y017970D01*
X023517Y017970D01*
X023381Y017834D01*
X023381Y017200D01*
X023398Y017182D01*
X020214Y017182D01*
X020231Y017200D01*
X020231Y017834D01*
X020096Y017970D01*
X019068Y017970D01*
X018932Y017834D01*
X018932Y017200D01*
X018950Y017182D01*
X012987Y017182D01*
X012987Y020135D01*
X016216Y020135D01*
X016216Y020033D02*
X015232Y020033D01*
X015230Y020035D02*
X015183Y020062D01*
X015131Y020076D01*
X014798Y020076D01*
X014798Y019702D01*
X014720Y019702D01*
X014720Y019623D01*
X014798Y019623D01*
X014798Y019249D01*
X015131Y019249D01*
X015183Y019263D01*
X015224Y019287D01*
X015212Y019257D01*
X015212Y019045D01*
X015293Y018850D01*
X015442Y018700D01*
X015638Y018619D01*
X015849Y018619D01*
X016044Y018700D01*
X016194Y018850D01*
X016275Y019045D01*
X016275Y019257D01*
X016194Y019452D01*
X016044Y019601D01*
X015849Y019682D01*
X015638Y019682D01*
X015442Y019601D01*
X015310Y019469D01*
X015310Y019623D01*
X014798Y019623D01*
X014798Y019702D01*
X015310Y019702D01*
X015310Y019897D01*
X015296Y019949D01*
X015269Y019996D01*
X015230Y020035D01*
X015292Y019956D02*
X016216Y019956D01*
X016216Y020007D02*
X016216Y019882D01*
X016227Y019841D01*
X016248Y019804D01*
X016278Y019774D01*
X016315Y019753D01*
X016357Y019741D01*
X016442Y019741D01*
X016442Y020007D01*
X016216Y020007D01*
X016217Y019878D02*
X015310Y019878D01*
X015310Y019801D02*
X016251Y019801D01*
X016442Y019801D02*
X016462Y019801D01*
X016462Y019741D02*
X016547Y019741D01*
X016588Y019753D01*
X016625Y019774D01*
X016656Y019804D01*
X016677Y019841D01*
X016688Y019882D01*
X016688Y020007D01*
X016462Y020007D01*
X016462Y019741D01*
X016462Y019878D02*
X016442Y019878D01*
X016442Y019956D02*
X016462Y019956D01*
X016688Y019956D02*
X024050Y019956D01*
X024050Y019878D02*
X016687Y019878D01*
X016653Y019801D02*
X024056Y019801D01*
X024091Y019724D02*
X023124Y019724D01*
X023140Y019721D02*
X023065Y019736D01*
X023046Y019736D01*
X023046Y019367D01*
X023415Y019367D01*
X023415Y019386D01*
X023400Y019461D01*
X023370Y019531D01*
X023328Y019595D01*
X023274Y019649D01*
X023210Y019691D01*
X023140Y019721D01*
X023046Y019724D02*
X023007Y019724D01*
X023007Y019736D02*
X022989Y019736D01*
X022914Y019721D01*
X022843Y019691D01*
X022780Y019649D01*
X022726Y019595D01*
X022683Y019531D01*
X022654Y019461D01*
X022639Y019386D01*
X022639Y019367D01*
X023007Y019367D01*
X023007Y019328D01*
X022639Y019328D01*
X022639Y019310D01*
X022654Y019235D01*
X022683Y019164D01*
X022726Y019101D01*
X022780Y019047D01*
X022843Y019004D01*
X022914Y018975D01*
X022989Y018960D01*
X023007Y018960D01*
X023007Y019328D01*
X023046Y019328D01*
X023046Y018960D01*
X023065Y018960D01*
X023140Y018975D01*
X023210Y019004D01*
X023274Y019047D01*
X023328Y019101D01*
X023370Y019164D01*
X023400Y019235D01*
X023415Y019310D01*
X023415Y019328D01*
X023046Y019328D01*
X023046Y019367D01*
X023007Y019367D01*
X023007Y019736D01*
X022930Y019724D02*
X022140Y019724D01*
X022156Y019721D02*
X022081Y019736D01*
X022062Y019736D01*
X022062Y019367D01*
X022430Y019367D01*
X022430Y019386D01*
X022415Y019461D01*
X022386Y019531D01*
X022344Y019595D01*
X022290Y019649D01*
X022226Y019691D01*
X022156Y019721D01*
X022062Y019724D02*
X022023Y019724D01*
X022023Y019736D02*
X022004Y019736D01*
X021929Y019721D01*
X021859Y019691D01*
X021795Y019649D01*
X021741Y019595D01*
X021699Y019531D01*
X021670Y019461D01*
X021655Y019386D01*
X021655Y019367D01*
X022023Y019367D01*
X022023Y019328D01*
X022062Y019328D01*
X022062Y018960D01*
X022081Y018960D01*
X022156Y018975D01*
X022226Y019004D01*
X022290Y019047D01*
X022344Y019101D01*
X022386Y019164D01*
X022415Y019235D01*
X022430Y019310D01*
X022430Y019328D01*
X022062Y019328D01*
X022062Y019367D01*
X022023Y019367D01*
X022023Y019736D01*
X021945Y019724D02*
X015310Y019724D01*
X015310Y019569D02*
X015410Y019569D01*
X015333Y019492D02*
X015310Y019492D01*
X015213Y019260D02*
X015172Y019260D01*
X015212Y019183D02*
X012987Y019183D01*
X012987Y019106D02*
X015212Y019106D01*
X015219Y019029D02*
X012987Y019029D01*
X012987Y018951D02*
X015251Y018951D01*
X015283Y018874D02*
X012987Y018874D01*
X012987Y018797D02*
X015346Y018797D01*
X015423Y018720D02*
X012987Y018720D01*
X012987Y018642D02*
X015582Y018642D01*
X015905Y018642D02*
X017794Y018642D01*
X017740Y018588D02*
X017653Y018379D01*
X017653Y018152D01*
X017740Y017942D01*
X017900Y017781D01*
X018110Y017694D01*
X018337Y017694D01*
X018547Y017781D01*
X018708Y017942D01*
X018794Y018152D01*
X018794Y018379D01*
X018708Y018588D01*
X018547Y018749D01*
X018337Y018836D01*
X018110Y018836D01*
X017900Y018749D01*
X017740Y018588D01*
X017730Y018565D02*
X012987Y018565D01*
X012987Y018488D02*
X017698Y018488D01*
X017666Y018411D02*
X012987Y018411D01*
X012987Y018333D02*
X016304Y018333D01*
X016288Y018317D02*
X016262Y018279D01*
X016244Y018236D01*
X016235Y018190D01*
X016235Y017911D01*
X016826Y017911D01*
X016826Y018403D01*
X016448Y018403D01*
X016403Y018394D01*
X016360Y018376D01*
X016321Y018350D01*
X016288Y018317D01*
X016253Y018256D02*
X012987Y018256D01*
X012987Y018179D02*
X013097Y018179D01*
X013086Y018173D02*
X013060Y018147D01*
X013042Y018115D01*
X013033Y018080D01*
X013033Y017832D01*
X013401Y017832D01*
X013401Y018200D01*
X013152Y018200D01*
X013117Y018191D01*
X013086Y018173D01*
X013038Y018102D02*
X012987Y018102D01*
X012987Y018025D02*
X013033Y018025D01*
X013033Y017947D02*
X012987Y017947D01*
X012987Y017870D02*
X013033Y017870D01*
X013033Y017793D02*
X013033Y017544D01*
X013042Y017509D01*
X013060Y017478D01*
X013086Y017452D01*
X013117Y017434D01*
X013152Y017425D01*
X013401Y017425D01*
X013401Y017793D01*
X012987Y017793D01*
X013033Y017793D02*
X013401Y017793D01*
X013401Y017832D01*
X013440Y017832D01*
X013440Y018200D01*
X013689Y018200D01*
X013724Y018191D01*
X013755Y018173D01*
X013781Y018147D01*
X013799Y018115D01*
X013808Y018080D01*
X013808Y017832D01*
X013440Y017832D01*
X013440Y017793D01*
X016235Y017793D01*
X016235Y017832D02*
X016235Y017553D01*
X016244Y017507D01*
X016262Y017464D01*
X016288Y017426D01*
X016321Y017393D01*
X016360Y017367D01*
X016403Y017349D01*
X016448Y017340D01*
X016826Y017340D01*
X016826Y017832D01*
X016905Y017832D01*
X016905Y017911D01*
X017495Y017911D01*
X017495Y018190D01*
X017486Y018236D01*
X017468Y018279D01*
X017443Y018317D01*
X017410Y018350D01*
X017371Y018376D01*
X017328Y018394D01*
X017282Y018403D01*
X016905Y018403D01*
X016905Y017911D01*
X016826Y017911D01*
X016826Y017832D01*
X016235Y017832D01*
X016235Y017947D02*
X013808Y017947D01*
X013808Y017870D02*
X016826Y017870D01*
X016826Y017793D02*
X016905Y017793D01*
X016905Y017832D02*
X016905Y017340D01*
X017282Y017340D01*
X017328Y017349D01*
X017371Y017367D01*
X017410Y017393D01*
X017443Y017426D01*
X017468Y017464D01*
X017486Y017507D01*
X017495Y017553D01*
X017495Y017832D01*
X016905Y017832D01*
X016905Y017870D02*
X017811Y017870D01*
X017737Y017947D02*
X017495Y017947D01*
X017495Y018025D02*
X017705Y018025D01*
X017673Y018102D02*
X017495Y018102D01*
X017495Y018179D02*
X017653Y018179D01*
X017653Y018256D02*
X017478Y018256D01*
X017426Y018333D02*
X017653Y018333D01*
X017871Y018720D02*
X016064Y018720D01*
X016141Y018797D02*
X018016Y018797D01*
X018431Y018797D02*
X018932Y018797D01*
X018932Y018874D02*
X016204Y018874D01*
X016236Y018951D02*
X018943Y018951D01*
X018932Y018926D02*
X018932Y018234D01*
X018971Y018140D01*
X019043Y018068D01*
X019137Y018029D01*
X020026Y018029D01*
X020121Y018068D01*
X020193Y018140D01*
X020231Y018234D01*
X020231Y018926D01*
X020193Y019020D01*
X020121Y019092D01*
X020026Y019131D01*
X019137Y019131D01*
X019043Y019092D01*
X018971Y019020D01*
X018932Y018926D01*
X018980Y019029D02*
X016268Y019029D01*
X016275Y019106D02*
X019076Y019106D01*
X018932Y018720D02*
X018576Y018720D01*
X018654Y018642D02*
X018932Y018642D01*
X018932Y018565D02*
X018717Y018565D01*
X018749Y018488D02*
X018932Y018488D01*
X018932Y018411D02*
X018781Y018411D01*
X018794Y018333D02*
X018932Y018333D01*
X018932Y018256D02*
X018794Y018256D01*
X018794Y018179D02*
X018955Y018179D01*
X019009Y018102D02*
X018774Y018102D01*
X018742Y018025D02*
X020684Y018025D01*
X020684Y018102D02*
X020154Y018102D01*
X020209Y018179D02*
X020684Y018179D01*
X020684Y018190D02*
X020684Y017911D01*
X021275Y017911D01*
X021275Y018403D01*
X020897Y018403D01*
X020852Y018394D01*
X020809Y018376D01*
X020770Y018350D01*
X020737Y018317D01*
X020711Y018279D01*
X020693Y018236D01*
X020684Y018190D01*
X020702Y018256D02*
X020231Y018256D01*
X020231Y018333D02*
X020753Y018333D01*
X020684Y017947D02*
X020118Y017947D01*
X020196Y017870D02*
X021275Y017870D01*
X021275Y017832D02*
X020684Y017832D01*
X020684Y017553D01*
X020693Y017507D01*
X020711Y017464D01*
X020737Y017426D01*
X020770Y017393D01*
X020809Y017367D01*
X020852Y017349D01*
X020897Y017340D01*
X021275Y017340D01*
X021275Y017832D01*
X021354Y017832D01*
X021354Y017911D01*
X021944Y017911D01*
X021944Y018190D01*
X021935Y018236D01*
X021917Y018279D01*
X021891Y018317D01*
X021858Y018350D01*
X021820Y018376D01*
X021777Y018394D01*
X021731Y018403D01*
X021354Y018403D01*
X021354Y017911D01*
X021275Y017911D01*
X021275Y017832D01*
X021275Y017793D02*
X021354Y017793D01*
X021354Y017832D02*
X021354Y017340D01*
X021731Y017340D01*
X021777Y017349D01*
X021820Y017367D01*
X021858Y017393D01*
X021891Y017426D01*
X021917Y017464D01*
X021935Y017507D01*
X021944Y017553D01*
X021944Y017832D01*
X021354Y017832D01*
X021354Y017870D02*
X022260Y017870D01*
X022188Y017942D02*
X022349Y017781D01*
X022559Y017694D01*
X022786Y017694D01*
X022996Y017781D01*
X023156Y017942D01*
X023243Y018152D01*
X023243Y018379D01*
X023156Y018588D01*
X022996Y018749D01*
X022786Y018836D01*
X022559Y018836D01*
X022349Y018749D01*
X022188Y018588D01*
X022102Y018379D01*
X022102Y018152D01*
X022188Y017942D01*
X022186Y017947D02*
X021944Y017947D01*
X021944Y018025D02*
X022154Y018025D01*
X022122Y018102D02*
X021944Y018102D01*
X021944Y018179D02*
X022102Y018179D01*
X022102Y018256D02*
X021926Y018256D01*
X021875Y018333D02*
X022102Y018333D01*
X022115Y018411D02*
X020231Y018411D01*
X020231Y018488D02*
X022147Y018488D01*
X022179Y018565D02*
X020231Y018565D01*
X020231Y018642D02*
X022242Y018642D01*
X022320Y018720D02*
X020231Y018720D01*
X020231Y018797D02*
X022465Y018797D01*
X022263Y019029D02*
X022806Y019029D01*
X022722Y019106D02*
X022347Y019106D01*
X022394Y019183D02*
X022675Y019183D01*
X022649Y019260D02*
X022421Y019260D01*
X022425Y019415D02*
X022645Y019415D01*
X022667Y019492D02*
X022402Y019492D01*
X022361Y019569D02*
X022708Y019569D01*
X022777Y019647D02*
X022292Y019647D01*
X022062Y019647D02*
X022023Y019647D01*
X022023Y019569D02*
X022062Y019569D01*
X022062Y019492D02*
X022023Y019492D01*
X022023Y019415D02*
X022062Y019415D01*
X022062Y019338D02*
X023007Y019338D01*
X023046Y019338D02*
X023935Y019338D01*
X023932Y019332D02*
X023932Y019232D01*
X023834Y019134D01*
X023834Y019131D01*
X023586Y019131D01*
X023492Y019092D01*
X023420Y019020D01*
X023381Y018926D01*
X023381Y018234D01*
X023420Y018140D01*
X023492Y018068D01*
X023586Y018029D01*
X024475Y018029D01*
X024569Y018068D01*
X024641Y018140D01*
X024680Y018234D01*
X024680Y018926D01*
X024641Y019020D01*
X024569Y019092D01*
X024523Y019111D01*
X024562Y019206D01*
X024562Y019332D01*
X024514Y019447D01*
X024426Y019536D01*
X024310Y019584D01*
X024185Y019584D01*
X024069Y019536D01*
X023980Y019447D01*
X023932Y019332D01*
X023932Y019260D02*
X023405Y019260D01*
X023378Y019183D02*
X023883Y019183D01*
X024031Y019052D02*
X024247Y019269D01*
X024031Y019052D02*
X024031Y018580D01*
X024680Y018565D02*
X025389Y018565D01*
X025389Y018488D02*
X024680Y018488D01*
X024680Y018411D02*
X025290Y018411D01*
X025174Y018333D02*
X024680Y018333D01*
X024680Y018256D02*
X025129Y018256D01*
X025113Y018179D02*
X024658Y018179D01*
X024603Y018102D02*
X025113Y018102D01*
X025113Y018025D02*
X023191Y018025D01*
X023223Y018102D02*
X023458Y018102D01*
X023404Y018179D02*
X023243Y018179D01*
X023243Y018256D02*
X023381Y018256D01*
X023381Y018333D02*
X023243Y018333D01*
X023230Y018411D02*
X023381Y018411D01*
X023381Y018488D02*
X023198Y018488D01*
X023166Y018565D02*
X023381Y018565D01*
X023381Y018642D02*
X023102Y018642D01*
X023025Y018720D02*
X023381Y018720D01*
X023381Y018797D02*
X022880Y018797D01*
X023007Y019029D02*
X023046Y019029D01*
X023046Y019106D02*
X023007Y019106D01*
X023007Y019183D02*
X023046Y019183D01*
X023046Y019260D02*
X023007Y019260D01*
X023007Y019415D02*
X023046Y019415D01*
X023046Y019492D02*
X023007Y019492D01*
X023007Y019569D02*
X023046Y019569D01*
X023046Y019647D02*
X023007Y019647D01*
X023276Y019647D02*
X024217Y019647D01*
X024149Y019569D02*
X023345Y019569D01*
X023387Y019492D02*
X024025Y019492D01*
X023967Y019415D02*
X023409Y019415D01*
X023332Y019106D02*
X023525Y019106D01*
X023428Y019029D02*
X023247Y019029D01*
X023392Y018951D02*
X020221Y018951D01*
X020231Y018874D02*
X023381Y018874D01*
X024050Y020110D02*
X016688Y020110D01*
X016688Y020033D02*
X024562Y020033D01*
X024562Y019956D02*
X024641Y019956D01*
X024641Y020017D02*
X024641Y019643D01*
X024973Y019643D01*
X025026Y019657D01*
X025073Y019684D01*
X025111Y019723D01*
X025139Y019770D01*
X025153Y019823D01*
X025153Y020017D01*
X024641Y020017D01*
X024641Y020033D02*
X025389Y020033D01*
X025389Y020110D02*
X025153Y020110D01*
X025153Y019956D02*
X025389Y019956D01*
X025389Y019878D02*
X025153Y019878D01*
X025147Y019801D02*
X025389Y019801D01*
X025389Y019724D02*
X025112Y019724D01*
X024987Y019647D02*
X025389Y019647D01*
X025389Y019569D02*
X024345Y019569D01*
X024470Y019492D02*
X025389Y019492D01*
X025389Y019415D02*
X024528Y019415D01*
X024560Y019338D02*
X025389Y019338D01*
X025389Y019260D02*
X024562Y019260D01*
X024553Y019183D02*
X025389Y019183D01*
X025389Y019106D02*
X024536Y019106D01*
X024633Y019029D02*
X025389Y019029D01*
X025389Y018951D02*
X024670Y018951D01*
X024680Y018874D02*
X025389Y018874D01*
X025389Y018797D02*
X024680Y018797D01*
X024680Y018720D02*
X025389Y018720D01*
X025389Y018642D02*
X024680Y018642D01*
X024567Y017947D02*
X025113Y017947D01*
X025113Y017870D02*
X024645Y017870D01*
X024680Y017793D02*
X025113Y017793D01*
X025113Y017716D02*
X024680Y017716D01*
X024680Y017638D02*
X025113Y017638D01*
X025113Y017561D02*
X024680Y017561D01*
X024680Y017484D02*
X025130Y017484D01*
X025177Y017407D02*
X024680Y017407D01*
X024680Y017329D02*
X025296Y017329D01*
X025389Y017252D02*
X024680Y017252D01*
X023381Y017252D02*
X020231Y017252D01*
X020231Y017329D02*
X023381Y017329D01*
X023381Y017407D02*
X021872Y017407D01*
X021925Y017484D02*
X023381Y017484D01*
X023381Y017561D02*
X021944Y017561D01*
X021944Y017638D02*
X023381Y017638D01*
X023381Y017716D02*
X022838Y017716D01*
X023007Y017793D02*
X023381Y017793D01*
X023417Y017870D02*
X023085Y017870D01*
X023159Y017947D02*
X023494Y017947D01*
X022507Y017716D02*
X021944Y017716D01*
X021944Y017793D02*
X022337Y017793D01*
X021354Y017716D02*
X021275Y017716D01*
X021275Y017638D02*
X021354Y017638D01*
X021354Y017561D02*
X021275Y017561D01*
X021275Y017484D02*
X021354Y017484D01*
X021354Y017407D02*
X021275Y017407D01*
X020756Y017407D02*
X020231Y017407D01*
X020231Y017484D02*
X020703Y017484D01*
X020684Y017561D02*
X020231Y017561D01*
X020231Y017638D02*
X020684Y017638D01*
X020684Y017716D02*
X020231Y017716D01*
X020231Y017793D02*
X020684Y017793D01*
X021275Y017947D02*
X021354Y017947D01*
X021354Y018025D02*
X021275Y018025D01*
X021275Y018102D02*
X021354Y018102D01*
X021354Y018179D02*
X021275Y018179D01*
X021275Y018256D02*
X021354Y018256D01*
X021354Y018333D02*
X021275Y018333D01*
X021795Y019047D02*
X021859Y019004D01*
X021929Y018975D01*
X022004Y018960D01*
X022023Y018960D01*
X022023Y019328D01*
X021655Y019328D01*
X021655Y019310D01*
X021670Y019235D01*
X021699Y019164D01*
X021741Y019101D01*
X021795Y019047D01*
X021822Y019029D02*
X020184Y019029D01*
X020088Y019106D02*
X021738Y019106D01*
X021691Y019183D02*
X016275Y019183D01*
X016273Y019260D02*
X021664Y019260D01*
X021660Y019415D02*
X016209Y019415D01*
X016241Y019338D02*
X022023Y019338D01*
X022023Y019260D02*
X022062Y019260D01*
X022062Y019183D02*
X022023Y019183D01*
X022023Y019106D02*
X022062Y019106D01*
X022062Y019029D02*
X022023Y019029D01*
X021683Y019492D02*
X016154Y019492D01*
X016076Y019569D02*
X021724Y019569D01*
X021793Y019647D02*
X015935Y019647D01*
X015551Y019647D02*
X014798Y019647D01*
X014798Y019724D02*
X014720Y019724D01*
X014720Y019801D02*
X014798Y019801D01*
X014798Y019878D02*
X014720Y019878D01*
X014720Y019956D02*
X014798Y019956D01*
X014798Y020033D02*
X014720Y020033D01*
X014720Y019647D02*
X012987Y019647D01*
X012987Y019724D02*
X014208Y019724D01*
X014208Y019801D02*
X012987Y019801D01*
X012987Y019878D02*
X014208Y019878D01*
X014226Y019956D02*
X012987Y019956D01*
X012987Y019569D02*
X014208Y019569D01*
X014208Y019623D02*
X014208Y019429D01*
X014222Y019376D01*
X014249Y019329D01*
X014288Y019291D01*
X014335Y019263D01*
X014387Y019249D01*
X014720Y019249D01*
X014720Y019623D01*
X014208Y019623D01*
X014208Y019492D02*
X012987Y019492D01*
X012987Y019415D02*
X014212Y019415D01*
X014244Y019338D02*
X012987Y019338D01*
X012987Y019260D02*
X014346Y019260D01*
X014720Y019260D02*
X014798Y019260D01*
X014798Y019338D02*
X014720Y019338D01*
X014720Y019415D02*
X014798Y019415D01*
X014798Y019492D02*
X014720Y019492D01*
X014720Y019569D02*
X014798Y019569D01*
X013744Y018179D02*
X016235Y018179D01*
X016235Y018102D02*
X013803Y018102D01*
X013808Y018025D02*
X016235Y018025D01*
X016235Y017716D02*
X013808Y017716D01*
X013808Y017793D02*
X013440Y017793D01*
X013440Y017425D01*
X013689Y017425D01*
X013724Y017434D01*
X013755Y017452D01*
X013781Y017478D01*
X013799Y017509D01*
X013808Y017544D01*
X013808Y017793D01*
X013808Y017638D02*
X016235Y017638D01*
X016235Y017561D02*
X013808Y017561D01*
X013784Y017484D02*
X016254Y017484D01*
X016307Y017407D02*
X012987Y017407D01*
X012987Y017484D02*
X013057Y017484D01*
X013033Y017561D02*
X012987Y017561D01*
X012987Y017638D02*
X013033Y017638D01*
X013033Y017716D02*
X012987Y017716D01*
X012987Y017329D02*
X018932Y017329D01*
X018932Y017252D02*
X012987Y017252D01*
X013401Y017484D02*
X013440Y017484D01*
X013440Y017561D02*
X013401Y017561D01*
X013401Y017638D02*
X013440Y017638D01*
X013440Y017716D02*
X013401Y017716D01*
X013401Y017793D02*
X013440Y017793D01*
X013440Y017870D02*
X013401Y017870D01*
X013401Y017947D02*
X013440Y017947D01*
X013440Y018025D02*
X013401Y018025D01*
X013401Y018102D02*
X013440Y018102D01*
X013440Y018179D02*
X013401Y018179D01*
X016826Y018179D02*
X016905Y018179D01*
X016905Y018102D02*
X016826Y018102D01*
X016826Y018025D02*
X016905Y018025D01*
X016905Y017947D02*
X016826Y017947D01*
X016826Y017716D02*
X016905Y017716D01*
X016905Y017638D02*
X016826Y017638D01*
X016826Y017561D02*
X016905Y017561D01*
X016905Y017484D02*
X016826Y017484D01*
X016826Y017407D02*
X016905Y017407D01*
X017424Y017407D02*
X018932Y017407D01*
X018932Y017484D02*
X017477Y017484D01*
X017495Y017561D02*
X018932Y017561D01*
X018932Y017638D02*
X017495Y017638D01*
X017495Y017716D02*
X018058Y017716D01*
X017889Y017793D02*
X017495Y017793D01*
X016905Y018256D02*
X016826Y018256D01*
X016826Y018333D02*
X016905Y018333D01*
X018389Y017716D02*
X018932Y017716D01*
X018932Y017793D02*
X018559Y017793D01*
X018636Y017870D02*
X018968Y017870D01*
X019045Y017947D02*
X018710Y017947D01*
X017515Y021513D02*
X016865Y021513D01*
X017515Y021513D02*
X017712Y021710D01*
X018893Y021710D01*
X020074Y022891D01*
X020074Y023482D01*
X020822Y024230D01*
X020822Y025883D01*
X021176Y026238D01*
X023617Y026238D01*
X024011Y026041D02*
X024011Y025844D01*
X023814Y025647D01*
X023814Y023560D01*
X024483Y022891D01*
X025704Y022891D01*
X025586Y022497D02*
X025763Y022320D01*
X025763Y021513D01*
X024602Y021789D02*
X024602Y022300D01*
X024483Y022419D01*
X021137Y022419D01*
X021058Y022497D01*
X021314Y022241D01*
X021314Y021513D01*
X022968Y023088D02*
X022968Y024525D01*
X022830Y024663D01*
X022830Y025844D01*
X022617Y027025D02*
X021314Y028328D01*
X020314Y028328D02*
X021814Y026828D01*
X026176Y026828D01*
X026294Y026710D01*
X026728Y026710D01*
X027239Y027222D01*
X029247Y027222D01*
X030153Y026316D01*
X031413Y026316D01*
X031649Y026080D01*
X032436Y026080D01*
X032082Y026356D02*
X031924Y026513D01*
X030231Y026513D01*
X029326Y027419D01*
X027161Y027419D01*
X026649Y026907D01*
X026334Y026907D01*
X026216Y027025D01*
X022617Y027025D01*
X024798Y026041D02*
X024838Y026001D01*
X024838Y024702D01*
X025507Y024033D01*
X026452Y024033D01*
X027948Y022300D02*
X028735Y021513D01*
X030212Y021513D01*
X031865Y023088D02*
X031885Y023088D01*
X031885Y024190D01*
X031964Y024269D01*
X032712Y025253D02*
X034641Y025253D01*
X036314Y023580D01*
X036314Y023088D01*
X034661Y022084D02*
X034661Y021513D01*
X034641Y021533D01*
X034661Y022084D02*
X034444Y022300D01*
X032712Y025253D02*
X032436Y025529D01*
X032791Y025804D02*
X031609Y025804D01*
X031294Y026119D01*
X030035Y026119D01*
X029129Y027025D01*
X027554Y027025D01*
X026964Y026434D01*
X025783Y027615D02*
X029444Y027615D01*
X030350Y026710D01*
X031570Y026710D01*
X032279Y027419D01*
X034247Y027419D01*
X034444Y027615D01*
X034641Y027222D02*
X034838Y027025D01*
X035231Y027025D01*
X035625Y027419D01*
X036609Y027419D01*
X034641Y027222D02*
X032476Y027222D01*
X032357Y027104D01*
X030507Y025450D02*
X030153Y025804D01*
X029141Y025804D01*
X028629Y025293D01*
X024798Y029190D02*
X024798Y029781D01*
X024405Y030175D01*
X023027Y032931D02*
X023008Y032950D01*
X022828Y033024D01*
X022635Y033024D01*
X022455Y032950D01*
X022436Y032930D01*
X019483Y032930D01*
X019483Y030962D01*
X016334Y030962D01*
X016334Y031749D01*
X016809Y031749D01*
X016924Y031865D01*
X016924Y036043D01*
X016819Y036149D01*
X016846Y036214D01*
X016846Y036340D01*
X016798Y036455D01*
X016709Y036544D01*
X016593Y036592D01*
X016468Y036592D01*
X016352Y036544D01*
X016264Y036455D01*
X016216Y036340D01*
X016216Y036214D01*
X016239Y036159D01*
X015665Y036159D01*
X015665Y036773D01*
X015617Y036888D01*
X015528Y036977D01*
X015412Y037025D01*
X015287Y037025D01*
X015171Y036977D01*
X015083Y036888D01*
X015035Y036773D01*
X015035Y036083D01*
X014995Y036043D01*
X014995Y033915D01*
X012987Y033915D01*
X012987Y039702D01*
X013561Y039702D01*
X013696Y039838D01*
X013696Y040411D01*
X013755Y040411D01*
X013755Y039907D01*
X013794Y039813D01*
X013866Y039741D01*
X013960Y039702D01*
X014652Y039702D01*
X014747Y039741D01*
X014818Y039813D01*
X014857Y039907D01*
X014857Y040411D01*
X015231Y040411D01*
X015231Y039491D01*
X015201Y039460D01*
X015139Y039311D01*
X015139Y039149D01*
X015201Y038999D01*
X015316Y038884D01*
X015465Y038822D01*
X015627Y038822D01*
X015777Y038884D01*
X015892Y038999D01*
X015954Y039149D01*
X015954Y039311D01*
X015926Y039378D01*
X015952Y039367D01*
X016085Y039367D01*
X016208Y039418D01*
X016303Y039513D01*
X016354Y039636D01*
X016354Y039769D01*
X016303Y039892D01*
X016216Y039978D01*
X016216Y040211D01*
X016415Y040411D01*
X019008Y040411D01*
X019287Y040132D01*
X019402Y040017D01*
X020156Y040017D01*
X020352Y040214D01*
X020977Y040214D01*
X021117Y040073D01*
X021117Y039950D01*
X021168Y039827D01*
X021262Y039733D01*
X021385Y039682D01*
X021519Y039682D01*
X021642Y039733D01*
X021736Y039827D01*
X021787Y039950D01*
X021787Y040084D01*
X021736Y040207D01*
X021642Y040301D01*
X021519Y040352D01*
X021396Y040352D01*
X021337Y040411D01*
X023027Y040411D01*
X023027Y037970D01*
X022208Y037970D01*
X022113Y038009D01*
X021972Y038009D01*
X021842Y037955D01*
X021742Y037856D01*
X021688Y037725D01*
X021688Y037584D01*
X021742Y037454D01*
X021767Y037429D01*
X021767Y036435D01*
X021728Y036340D01*
X021728Y036214D01*
X021775Y036098D01*
X021864Y036010D01*
X021980Y035962D01*
X022105Y035962D01*
X022221Y036010D01*
X022310Y036098D01*
X022357Y036214D01*
X022357Y036340D01*
X022318Y036435D01*
X022318Y037340D01*
X023027Y037340D01*
X023027Y032931D01*
X023026Y032932D02*
X023027Y032932D01*
X023027Y033009D02*
X022865Y033009D01*
X023027Y033086D02*
X016924Y033086D01*
X016924Y033009D02*
X022598Y033009D01*
X022437Y032932D02*
X016924Y032932D01*
X016924Y032855D02*
X019483Y032855D01*
X019483Y032777D02*
X016924Y032777D01*
X016924Y032700D02*
X019483Y032700D01*
X019483Y032623D02*
X016924Y032623D01*
X016924Y032546D02*
X019483Y032546D01*
X019483Y032468D02*
X016924Y032468D01*
X016924Y032391D02*
X019483Y032391D01*
X019483Y032314D02*
X016924Y032314D01*
X016924Y032237D02*
X019483Y032237D01*
X019483Y032160D02*
X016924Y032160D01*
X016924Y032082D02*
X019483Y032082D01*
X019483Y032005D02*
X016924Y032005D01*
X016924Y031928D02*
X019483Y031928D01*
X019483Y031851D02*
X016910Y031851D01*
X016833Y031773D02*
X019483Y031773D01*
X019483Y031696D02*
X016334Y031696D01*
X016334Y031619D02*
X019483Y031619D01*
X019483Y031542D02*
X016334Y031542D01*
X016334Y031464D02*
X019483Y031464D01*
X019483Y031387D02*
X016334Y031387D01*
X016334Y031310D02*
X019483Y031310D01*
X019483Y031233D02*
X016334Y031233D01*
X016334Y031155D02*
X019483Y031155D01*
X019483Y031078D02*
X016334Y031078D01*
X016334Y031001D02*
X019483Y031001D01*
X019483Y030765D02*
X012987Y030765D01*
X012987Y028517D01*
X013036Y028634D01*
X013150Y028748D01*
X013300Y028810D01*
X013462Y028810D01*
X013612Y028748D01*
X013727Y028634D01*
X013789Y028484D01*
X013789Y028322D01*
X013727Y028172D01*
X013612Y028057D01*
X013462Y027995D01*
X013300Y027995D01*
X013150Y028057D01*
X013036Y028172D01*
X012987Y028289D01*
X012987Y025626D01*
X013035Y025804D01*
X013223Y026130D01*
X013489Y026396D01*
X013814Y026583D01*
X014177Y026681D01*
X014553Y026681D01*
X014916Y026583D01*
X015242Y026396D01*
X015508Y026130D01*
X015626Y025924D01*
X017515Y027812D01*
X019365Y027812D01*
X019365Y030441D01*
X019483Y030559D01*
X019483Y030765D01*
X019483Y030692D02*
X012987Y030692D01*
X012987Y030615D02*
X019483Y030615D01*
X019462Y030537D02*
X012987Y030537D01*
X012987Y030460D02*
X019384Y030460D01*
X019365Y030383D02*
X012987Y030383D01*
X012987Y030306D02*
X019365Y030306D01*
X019365Y030229D02*
X012987Y030229D01*
X012987Y030151D02*
X019365Y030151D01*
X019365Y030074D02*
X012987Y030074D01*
X012987Y029997D02*
X019365Y029997D01*
X019365Y029920D02*
X012987Y029920D01*
X012987Y029842D02*
X019365Y029842D01*
X019365Y029765D02*
X012987Y029765D01*
X012987Y029688D02*
X016382Y029688D01*
X016372Y029684D02*
X016317Y029647D01*
X016271Y029600D01*
X016234Y029546D01*
X016209Y029485D01*
X016196Y029420D01*
X016196Y029407D01*
X016511Y029407D01*
X016511Y029722D01*
X016498Y029722D01*
X016433Y029709D01*
X016372Y029684D01*
X016281Y029611D02*
X012987Y029611D01*
X012987Y029533D02*
X016229Y029533D01*
X016203Y029456D02*
X012987Y029456D01*
X012987Y029379D02*
X016511Y029379D01*
X016511Y029367D02*
X016196Y029367D01*
X016196Y029354D01*
X016209Y029290D01*
X016234Y029229D01*
X016271Y029174D01*
X016317Y029127D01*
X016372Y029091D01*
X016433Y029065D01*
X016498Y029052D01*
X016511Y029052D01*
X016511Y029367D01*
X016550Y029367D01*
X016550Y029052D01*
X016564Y029052D01*
X016628Y029065D01*
X016689Y029091D01*
X016744Y029127D01*
X016791Y029174D01*
X016827Y029229D01*
X016852Y029290D01*
X016865Y029354D01*
X016865Y029367D01*
X016550Y029367D01*
X016550Y029407D01*
X016511Y029407D01*
X016511Y029367D01*
X016550Y029379D02*
X017298Y029379D01*
X017298Y029367D02*
X016983Y029367D01*
X016983Y029354D01*
X016996Y029290D01*
X017022Y029229D01*
X017058Y029174D01*
X017105Y029127D01*
X017160Y029091D01*
X017220Y029065D01*
X017285Y029052D01*
X017298Y029052D01*
X017298Y029367D01*
X017338Y029367D01*
X017338Y029052D01*
X017351Y029052D01*
X017416Y029065D01*
X017477Y029091D01*
X017531Y029127D01*
X017578Y029174D01*
X017615Y029229D01*
X017640Y029290D01*
X017653Y029354D01*
X017653Y029367D01*
X017338Y029367D01*
X017338Y029407D01*
X017653Y029407D01*
X017653Y029420D01*
X017640Y029485D01*
X017615Y029546D01*
X017578Y029600D01*
X017531Y029647D01*
X017477Y029684D01*
X017416Y029709D01*
X017351Y029722D01*
X017338Y029722D01*
X017338Y029407D01*
X017298Y029407D01*
X017298Y029367D01*
X017298Y029407D02*
X016983Y029407D01*
X016983Y029420D01*
X016996Y029485D01*
X017022Y029546D01*
X017058Y029600D01*
X017105Y029647D01*
X017160Y029684D01*
X017220Y029709D01*
X017285Y029722D01*
X017298Y029722D01*
X017298Y029407D01*
X017338Y029379D02*
X018086Y029379D01*
X018086Y029367D02*
X017771Y029367D01*
X017771Y029354D01*
X017784Y029290D01*
X017809Y029229D01*
X017846Y029174D01*
X017892Y029127D01*
X017947Y029091D01*
X018008Y029065D01*
X018073Y029052D01*
X018086Y029052D01*
X018086Y029367D01*
X018125Y029367D01*
X018125Y029052D01*
X018138Y029052D01*
X018203Y029065D01*
X018264Y029091D01*
X018319Y029127D01*
X018365Y029174D01*
X018402Y029229D01*
X018427Y029290D01*
X018440Y029354D01*
X018440Y029367D01*
X018125Y029367D01*
X018125Y029407D01*
X018086Y029407D01*
X018086Y029722D01*
X018073Y029722D01*
X018008Y029709D01*
X017947Y029684D01*
X017892Y029647D01*
X017846Y029600D01*
X017809Y029546D01*
X017784Y029485D01*
X017771Y029420D01*
X017771Y029407D01*
X018086Y029407D01*
X018086Y029367D01*
X018125Y029379D02*
X018873Y029379D01*
X018873Y029367D02*
X018558Y029367D01*
X018558Y029354D01*
X018571Y029290D01*
X018596Y029229D01*
X018633Y029174D01*
X018680Y029127D01*
X018734Y029091D01*
X018795Y029065D01*
X018860Y029052D01*
X018873Y029052D01*
X018873Y029367D01*
X018913Y029367D01*
X018913Y029407D01*
X019228Y029407D01*
X019228Y029420D01*
X019215Y029485D01*
X019189Y029546D01*
X019153Y029600D01*
X019106Y029647D01*
X019051Y029684D01*
X018991Y029709D01*
X018926Y029722D01*
X018913Y029722D01*
X018913Y029407D01*
X018873Y029407D01*
X018873Y029722D01*
X018860Y029722D01*
X018795Y029709D01*
X018734Y029684D01*
X018680Y029647D01*
X018633Y029600D01*
X018596Y029546D01*
X018571Y029485D01*
X018558Y029420D01*
X018558Y029407D01*
X018873Y029407D01*
X018873Y029367D01*
X018913Y029367D02*
X018913Y029052D01*
X018926Y029052D01*
X018991Y029065D01*
X019051Y029091D01*
X019106Y029127D01*
X019153Y029174D01*
X019189Y029229D01*
X019215Y029290D01*
X019228Y029354D01*
X019228Y029367D01*
X018913Y029367D01*
X018913Y029379D02*
X019365Y029379D01*
X019365Y029456D02*
X019220Y029456D01*
X019195Y029533D02*
X019365Y029533D01*
X019365Y029611D02*
X019143Y029611D01*
X019041Y029688D02*
X019365Y029688D01*
X019365Y029302D02*
X019217Y029302D01*
X019187Y029224D02*
X019365Y029224D01*
X019365Y029147D02*
X019126Y029147D01*
X019002Y029070D02*
X019365Y029070D01*
X019365Y028993D02*
X012987Y028993D01*
X012987Y029070D02*
X016422Y029070D01*
X016511Y029070D02*
X016550Y029070D01*
X016550Y029147D02*
X016511Y029147D01*
X016511Y029224D02*
X016550Y029224D01*
X016550Y029302D02*
X016511Y029302D01*
X016550Y029407D02*
X016865Y029407D01*
X016865Y029420D01*
X016852Y029485D01*
X016827Y029546D01*
X016791Y029600D01*
X016744Y029647D01*
X016689Y029684D01*
X016628Y029709D01*
X016564Y029722D01*
X016550Y029722D01*
X016550Y029407D01*
X016550Y029456D02*
X016511Y029456D01*
X016511Y029533D02*
X016550Y029533D01*
X016550Y029611D02*
X016511Y029611D01*
X016511Y029688D02*
X016550Y029688D01*
X016679Y029688D02*
X017170Y029688D01*
X017068Y029611D02*
X016780Y029611D01*
X016832Y029533D02*
X017016Y029533D01*
X016991Y029456D02*
X016858Y029456D01*
X016855Y029302D02*
X016994Y029302D01*
X017024Y029224D02*
X016824Y029224D01*
X016764Y029147D02*
X017085Y029147D01*
X017209Y029070D02*
X016639Y029070D01*
X016297Y029147D02*
X012987Y029147D01*
X012987Y029224D02*
X016237Y029224D01*
X016206Y029302D02*
X012987Y029302D01*
X012987Y028915D02*
X019365Y028915D01*
X019365Y028838D02*
X012987Y028838D01*
X012987Y028761D02*
X013181Y028761D01*
X013086Y028684D02*
X012987Y028684D01*
X012987Y028606D02*
X013024Y028606D01*
X012992Y028529D02*
X012987Y028529D01*
X012987Y028220D02*
X013016Y028220D01*
X012987Y028143D02*
X013065Y028143D01*
X013142Y028066D02*
X012987Y028066D01*
X012987Y027989D02*
X019365Y027989D01*
X019365Y028066D02*
X015855Y028066D01*
X015814Y028049D02*
X015944Y028102D01*
X016044Y028202D01*
X016098Y028332D01*
X016098Y028473D01*
X016044Y028604D01*
X015944Y028703D01*
X015814Y028757D01*
X015673Y028757D01*
X015543Y028703D01*
X015448Y028609D01*
X015353Y028703D01*
X015223Y028757D01*
X015082Y028757D01*
X014952Y028703D01*
X014852Y028604D01*
X014798Y028473D01*
X014798Y028332D01*
X014852Y028202D01*
X014952Y028102D01*
X015082Y028049D01*
X015223Y028049D01*
X015353Y028102D01*
X015448Y028197D01*
X015543Y028102D01*
X015673Y028049D01*
X015814Y028049D01*
X015631Y028066D02*
X015265Y028066D01*
X015394Y028143D02*
X015502Y028143D01*
X015041Y028066D02*
X013620Y028066D01*
X013698Y028143D02*
X014911Y028143D01*
X014845Y028220D02*
X013746Y028220D01*
X013778Y028298D02*
X014813Y028298D01*
X014798Y028375D02*
X013789Y028375D01*
X013789Y028452D02*
X014798Y028452D01*
X014822Y028529D02*
X013770Y028529D01*
X013738Y028606D02*
X014855Y028606D01*
X014932Y028684D02*
X013676Y028684D01*
X013581Y028761D02*
X019365Y028761D01*
X019365Y028684D02*
X015964Y028684D01*
X016041Y028606D02*
X019365Y028606D01*
X019365Y028529D02*
X016074Y028529D01*
X016098Y028452D02*
X019365Y028452D01*
X019365Y028375D02*
X016098Y028375D01*
X016083Y028298D02*
X019365Y028298D01*
X019365Y028220D02*
X016051Y028220D01*
X015985Y028143D02*
X019365Y028143D01*
X019365Y027911D02*
X012987Y027911D01*
X012987Y027834D02*
X019365Y027834D01*
X018913Y029070D02*
X018873Y029070D01*
X018873Y029147D02*
X018913Y029147D01*
X018913Y029224D02*
X018873Y029224D01*
X018873Y029302D02*
X018913Y029302D01*
X018913Y029456D02*
X018873Y029456D01*
X018873Y029533D02*
X018913Y029533D01*
X018913Y029611D02*
X018873Y029611D01*
X018873Y029688D02*
X018913Y029688D01*
X018744Y029688D02*
X018254Y029688D01*
X018264Y029684D02*
X018203Y029709D01*
X018138Y029722D01*
X018125Y029722D01*
X018125Y029407D01*
X018440Y029407D01*
X018440Y029420D01*
X018427Y029485D01*
X018402Y029546D01*
X018365Y029600D01*
X018319Y029647D01*
X018264Y029684D01*
X018355Y029611D02*
X018643Y029611D01*
X018591Y029533D02*
X018407Y029533D01*
X018433Y029456D02*
X018565Y029456D01*
X018569Y029302D02*
X018430Y029302D01*
X018399Y029224D02*
X018599Y029224D01*
X018660Y029147D02*
X018339Y029147D01*
X018214Y029070D02*
X018784Y029070D01*
X018125Y029070D02*
X018086Y029070D01*
X018086Y029147D02*
X018125Y029147D01*
X018125Y029224D02*
X018086Y029224D01*
X018086Y029302D02*
X018125Y029302D01*
X018125Y029456D02*
X018086Y029456D01*
X018086Y029533D02*
X018125Y029533D01*
X018125Y029611D02*
X018086Y029611D01*
X018086Y029688D02*
X018125Y029688D01*
X017957Y029688D02*
X017467Y029688D01*
X017568Y029611D02*
X017856Y029611D01*
X017804Y029533D02*
X017620Y029533D01*
X017646Y029456D02*
X017778Y029456D01*
X017781Y029302D02*
X017642Y029302D01*
X017612Y029224D02*
X017812Y029224D01*
X017872Y029147D02*
X017551Y029147D01*
X017427Y029070D02*
X017997Y029070D01*
X017338Y029070D02*
X017298Y029070D01*
X017298Y029147D02*
X017338Y029147D01*
X017338Y029224D02*
X017298Y029224D01*
X017298Y029302D02*
X017338Y029302D01*
X017338Y029456D02*
X017298Y029456D01*
X017298Y029533D02*
X017338Y029533D01*
X017338Y029611D02*
X017298Y029611D01*
X017298Y029688D02*
X017338Y029688D01*
X016137Y030962D02*
X012987Y030962D01*
X012987Y033718D01*
X015192Y033718D01*
X015192Y035962D01*
X016728Y035962D01*
X016728Y031946D01*
X016137Y031946D01*
X016137Y030962D01*
X016137Y031001D02*
X012987Y031001D01*
X012987Y031078D02*
X016137Y031078D01*
X016137Y031155D02*
X012987Y031155D01*
X012987Y031233D02*
X016137Y031233D01*
X016137Y031310D02*
X012987Y031310D01*
X012987Y031387D02*
X016137Y031387D01*
X016137Y031464D02*
X012987Y031464D01*
X012987Y031542D02*
X016137Y031542D01*
X016137Y031619D02*
X012987Y031619D01*
X012987Y031696D02*
X016137Y031696D01*
X016137Y031773D02*
X012987Y031773D01*
X012987Y031851D02*
X016137Y031851D01*
X016137Y031928D02*
X012987Y031928D01*
X012987Y032005D02*
X016728Y032005D01*
X016728Y032082D02*
X012987Y032082D01*
X012987Y032160D02*
X016728Y032160D01*
X016728Y032237D02*
X012987Y032237D01*
X012987Y032314D02*
X016728Y032314D01*
X016728Y032391D02*
X012987Y032391D01*
X012987Y032468D02*
X016728Y032468D01*
X016728Y032546D02*
X012987Y032546D01*
X012987Y032623D02*
X016728Y032623D01*
X016728Y032700D02*
X012987Y032700D01*
X012987Y032777D02*
X016728Y032777D01*
X016728Y032855D02*
X015938Y032855D01*
X015957Y032867D02*
X016003Y032914D01*
X016040Y032969D01*
X016065Y033030D01*
X016078Y033094D01*
X016078Y033108D01*
X015763Y033108D01*
X015763Y033147D01*
X015724Y033147D01*
X015724Y033462D01*
X015710Y033462D01*
X015646Y033449D01*
X015585Y033424D01*
X015530Y033387D01*
X015483Y033341D01*
X015447Y033286D01*
X015421Y033225D01*
X015409Y033160D01*
X015409Y033147D01*
X015724Y033147D01*
X015724Y033108D01*
X015763Y033108D01*
X015763Y032793D01*
X015776Y032793D01*
X015841Y032805D01*
X015902Y032831D01*
X015957Y032867D01*
X016015Y032932D02*
X016728Y032932D01*
X016728Y033009D02*
X016057Y033009D01*
X016076Y033086D02*
X016728Y033086D01*
X016728Y033164D02*
X016077Y033164D01*
X016078Y033160D02*
X016065Y033225D01*
X016040Y033286D01*
X016003Y033341D01*
X015957Y033387D01*
X015902Y033424D01*
X015841Y033449D01*
X015776Y033462D01*
X015763Y033462D01*
X015763Y033147D01*
X016078Y033147D01*
X016078Y033160D01*
X016058Y033241D02*
X016728Y033241D01*
X016728Y033318D02*
X016018Y033318D01*
X015944Y033395D02*
X016728Y033395D01*
X016728Y033473D02*
X012987Y033473D01*
X012987Y033550D02*
X016728Y033550D01*
X016728Y033627D02*
X012987Y033627D01*
X012987Y033704D02*
X016728Y033704D01*
X016728Y033782D02*
X015192Y033782D01*
X015192Y033859D02*
X016728Y033859D01*
X016728Y033936D02*
X015192Y033936D01*
X015192Y034013D02*
X016728Y034013D01*
X016728Y034091D02*
X015192Y034091D01*
X015192Y034168D02*
X016728Y034168D01*
X016728Y034245D02*
X015192Y034245D01*
X015192Y034322D02*
X016728Y034322D01*
X016728Y034400D02*
X015192Y034400D01*
X015192Y034477D02*
X015485Y034477D01*
X015467Y034484D02*
X015528Y034459D01*
X015592Y034446D01*
X015605Y034446D01*
X015605Y034761D01*
X015291Y034761D01*
X015291Y034748D01*
X015303Y034683D01*
X015329Y034622D01*
X015365Y034567D01*
X015412Y034521D01*
X015467Y034484D01*
X015379Y034554D02*
X015192Y034554D01*
X015192Y034631D02*
X015325Y034631D01*
X015298Y034708D02*
X015192Y034708D01*
X015192Y034786D02*
X015605Y034786D01*
X015605Y034800D02*
X015605Y034761D01*
X015645Y034761D01*
X015645Y034800D01*
X015960Y034800D01*
X016275Y034800D01*
X016275Y034761D01*
X016314Y034761D01*
X016314Y034446D01*
X016327Y034446D01*
X016392Y034459D01*
X016453Y034484D01*
X016508Y034521D01*
X016554Y034567D01*
X016591Y034622D01*
X016616Y034683D01*
X016629Y034748D01*
X016629Y034761D01*
X016314Y034761D01*
X016314Y034800D01*
X016629Y034800D01*
X016629Y034814D01*
X016616Y034878D01*
X016591Y034939D01*
X016554Y034994D01*
X016508Y035041D01*
X016453Y035077D01*
X016392Y035103D01*
X016327Y035115D01*
X016314Y035115D01*
X016314Y034801D01*
X016275Y034801D01*
X016275Y035115D01*
X016262Y035115D01*
X016197Y035103D01*
X016136Y035077D01*
X016081Y035041D01*
X016035Y034994D01*
X015998Y034939D01*
X015973Y034878D01*
X015960Y034814D01*
X015960Y034800D01*
X015960Y034814D01*
X015947Y034878D01*
X015922Y034939D01*
X015885Y034994D01*
X015838Y035041D01*
X015784Y035077D01*
X015723Y035103D01*
X015658Y035115D01*
X015645Y035115D01*
X015645Y034801D01*
X015605Y034801D01*
X015605Y035115D01*
X015592Y035115D01*
X015528Y035103D01*
X015467Y035077D01*
X015412Y035041D01*
X015365Y034994D01*
X015329Y034939D01*
X015303Y034878D01*
X015291Y034814D01*
X015291Y034800D01*
X015605Y034800D01*
X015645Y034786D02*
X016275Y034786D01*
X016275Y034761D02*
X015960Y034761D01*
X015960Y034748D01*
X015973Y034683D01*
X015998Y034622D01*
X016035Y034567D01*
X016081Y034521D01*
X016136Y034484D01*
X016197Y034459D01*
X016262Y034446D01*
X016275Y034446D01*
X016275Y034761D01*
X016314Y034786D02*
X016728Y034786D01*
X016728Y034863D02*
X016619Y034863D01*
X016590Y034940D02*
X016728Y034940D01*
X016728Y035017D02*
X016531Y035017D01*
X016411Y035095D02*
X016728Y035095D01*
X016728Y035172D02*
X016175Y035172D01*
X016153Y035151D02*
X016200Y035197D01*
X016237Y035252D01*
X016262Y035313D01*
X016275Y035378D01*
X016275Y035391D01*
X015960Y035391D01*
X015960Y035430D01*
X016275Y035430D01*
X016275Y035444D01*
X016262Y035508D01*
X016237Y035569D01*
X016200Y035624D01*
X016153Y035671D01*
X016099Y035707D01*
X016038Y035733D01*
X015973Y035745D01*
X015960Y035745D01*
X015960Y035430D01*
X015920Y035430D01*
X015920Y035391D01*
X015605Y035391D01*
X015605Y035378D01*
X015618Y035313D01*
X015644Y035252D01*
X015680Y035197D01*
X015727Y035151D01*
X015782Y035114D01*
X015843Y035089D01*
X015907Y035076D01*
X015920Y035076D01*
X015920Y035391D01*
X015960Y035391D01*
X015960Y035076D01*
X015973Y035076D01*
X016038Y035089D01*
X016099Y035114D01*
X016153Y035151D01*
X016178Y035095D02*
X016052Y035095D01*
X016058Y035017D02*
X015862Y035017D01*
X015829Y035095D02*
X015742Y035095D01*
X015706Y035172D02*
X015192Y035172D01*
X015192Y035249D02*
X015646Y035249D01*
X015616Y035326D02*
X015192Y035326D01*
X015192Y035404D02*
X015920Y035404D01*
X015920Y035430D02*
X015605Y035430D01*
X015605Y035444D01*
X015618Y035508D01*
X015644Y035569D01*
X015680Y035624D01*
X015727Y035671D01*
X015782Y035707D01*
X015843Y035733D01*
X015907Y035745D01*
X015920Y035745D01*
X015920Y035430D01*
X015960Y035404D02*
X016728Y035404D01*
X016728Y035481D02*
X016267Y035481D01*
X016241Y035558D02*
X016728Y035558D01*
X016728Y035635D02*
X016189Y035635D01*
X016086Y035713D02*
X016728Y035713D01*
X016728Y035790D02*
X015192Y035790D01*
X015192Y035867D02*
X016728Y035867D01*
X016728Y035944D02*
X015192Y035944D01*
X014995Y035944D02*
X012987Y035944D01*
X012987Y035867D02*
X014995Y035867D01*
X014995Y035790D02*
X012987Y035790D01*
X012987Y035713D02*
X014995Y035713D01*
X014995Y035635D02*
X012987Y035635D01*
X012987Y035558D02*
X014995Y035558D01*
X014995Y035481D02*
X012987Y035481D01*
X012987Y035404D02*
X014995Y035404D01*
X014995Y035326D02*
X012987Y035326D01*
X012987Y035249D02*
X014995Y035249D01*
X014995Y035172D02*
X012987Y035172D01*
X012987Y035095D02*
X014995Y035095D01*
X014995Y035017D02*
X012987Y035017D01*
X012987Y034940D02*
X014995Y034940D01*
X014995Y034863D02*
X012987Y034863D01*
X012987Y034786D02*
X014995Y034786D01*
X014995Y034708D02*
X012987Y034708D01*
X012987Y034631D02*
X014995Y034631D01*
X014995Y034554D02*
X012987Y034554D01*
X012987Y034477D02*
X014995Y034477D01*
X014995Y034400D02*
X012987Y034400D01*
X012987Y034322D02*
X014995Y034322D01*
X014995Y034245D02*
X012987Y034245D01*
X012987Y034168D02*
X014995Y034168D01*
X014995Y034091D02*
X012987Y034091D01*
X012987Y034013D02*
X014995Y034013D01*
X014995Y033936D02*
X012987Y033936D01*
X012987Y033395D02*
X013967Y033395D01*
X013955Y033387D02*
X013909Y033341D01*
X013872Y033286D01*
X013847Y033225D01*
X013834Y033160D01*
X013834Y033147D01*
X014149Y033147D01*
X014149Y033462D01*
X014136Y033462D01*
X014071Y033449D01*
X014010Y033424D01*
X013955Y033387D01*
X013894Y033318D02*
X012987Y033318D01*
X012987Y033241D02*
X013853Y033241D01*
X013835Y033164D02*
X012987Y033164D01*
X012987Y033086D02*
X013835Y033086D01*
X013834Y033094D02*
X013847Y033030D01*
X013872Y032969D01*
X013909Y032914D01*
X013955Y032867D01*
X014010Y032831D01*
X014071Y032805D01*
X014136Y032793D01*
X014149Y032793D01*
X014149Y033108D01*
X013834Y033108D01*
X013834Y033094D01*
X013855Y033009D02*
X012987Y033009D01*
X012987Y032932D02*
X013897Y032932D01*
X013974Y032855D02*
X012987Y032855D01*
X014149Y032855D02*
X014188Y032855D01*
X014188Y032793D02*
X014201Y032793D01*
X014266Y032805D01*
X014327Y032831D01*
X014382Y032867D01*
X014428Y032914D01*
X014465Y032969D01*
X014490Y033030D01*
X014503Y033094D01*
X014503Y033108D01*
X014188Y033108D01*
X014188Y033147D01*
X014149Y033147D01*
X014149Y033108D01*
X014188Y033108D01*
X014188Y032793D01*
X014188Y032932D02*
X014149Y032932D01*
X014149Y033009D02*
X014188Y033009D01*
X014188Y033086D02*
X014149Y033086D01*
X014188Y033147D02*
X014503Y033147D01*
X014503Y033160D01*
X014490Y033225D01*
X014465Y033286D01*
X014428Y033341D01*
X014382Y033387D01*
X014327Y033424D01*
X014266Y033449D01*
X014201Y033462D01*
X014188Y033462D01*
X014188Y033147D01*
X014188Y033164D02*
X014149Y033164D01*
X014149Y033241D02*
X014188Y033241D01*
X014188Y033318D02*
X014149Y033318D01*
X014149Y033395D02*
X014188Y033395D01*
X014370Y033395D02*
X014755Y033395D01*
X014743Y033387D02*
X014696Y033341D01*
X014659Y033286D01*
X014634Y033225D01*
X014621Y033160D01*
X014621Y033147D01*
X014936Y033147D01*
X014936Y033108D01*
X014621Y033108D01*
X014621Y033094D01*
X014634Y033030D01*
X014659Y032969D01*
X014696Y032914D01*
X014743Y032867D01*
X014797Y032831D01*
X014858Y032805D01*
X014923Y032793D01*
X014936Y032793D01*
X014936Y033108D01*
X014976Y033108D01*
X014976Y033147D01*
X015291Y033147D01*
X015291Y033160D01*
X015278Y033225D01*
X015252Y033286D01*
X015216Y033341D01*
X015169Y033387D01*
X015114Y033424D01*
X015053Y033449D01*
X014989Y033462D01*
X014976Y033462D01*
X014976Y033147D01*
X014936Y033147D01*
X014936Y033462D01*
X014923Y033462D01*
X014858Y033449D01*
X014797Y033424D01*
X014743Y033387D01*
X014681Y033318D02*
X014443Y033318D01*
X014484Y033241D02*
X014641Y033241D01*
X014622Y033164D02*
X014502Y033164D01*
X014502Y033086D02*
X014623Y033086D01*
X014643Y033009D02*
X014482Y033009D01*
X014440Y032932D02*
X014684Y032932D01*
X014761Y032855D02*
X014363Y032855D01*
X014936Y032855D02*
X014976Y032855D01*
X014976Y032793D02*
X014989Y032793D01*
X015053Y032805D01*
X015114Y032831D01*
X015169Y032867D01*
X015216Y032914D01*
X015252Y032969D01*
X015278Y033030D01*
X015291Y033094D01*
X015291Y033108D01*
X014976Y033108D01*
X014976Y032793D01*
X014976Y032932D02*
X014936Y032932D01*
X014936Y033009D02*
X014976Y033009D01*
X014976Y033086D02*
X014936Y033086D01*
X014936Y033164D02*
X014976Y033164D01*
X014976Y033241D02*
X014936Y033241D01*
X014936Y033318D02*
X014976Y033318D01*
X014976Y033395D02*
X014936Y033395D01*
X015157Y033395D02*
X015542Y033395D01*
X015468Y033318D02*
X015231Y033318D01*
X015271Y033241D02*
X015428Y033241D01*
X015409Y033164D02*
X015290Y033164D01*
X015289Y033086D02*
X015410Y033086D01*
X015409Y033094D02*
X015421Y033030D01*
X015447Y032969D01*
X015483Y032914D01*
X015530Y032867D01*
X015585Y032831D01*
X015646Y032805D01*
X015710Y032793D01*
X015724Y032793D01*
X015724Y033108D01*
X015409Y033108D01*
X015409Y033094D01*
X015430Y033009D02*
X015269Y033009D01*
X015228Y032932D02*
X015471Y032932D01*
X015549Y032855D02*
X015150Y032855D01*
X015724Y032855D02*
X015763Y032855D01*
X015763Y032932D02*
X015724Y032932D01*
X015724Y033009D02*
X015763Y033009D01*
X015763Y033086D02*
X015724Y033086D01*
X015724Y033164D02*
X015763Y033164D01*
X015763Y033241D02*
X015724Y033241D01*
X015724Y033318D02*
X015763Y033318D01*
X015763Y033395D02*
X015724Y033395D01*
X015658Y034446D02*
X015723Y034459D01*
X015784Y034484D01*
X015838Y034521D01*
X015885Y034567D01*
X015922Y034622D01*
X015947Y034683D01*
X015960Y034748D01*
X015960Y034761D01*
X015645Y034761D01*
X015645Y034446D01*
X015658Y034446D01*
X015645Y034477D02*
X015605Y034477D01*
X015605Y034554D02*
X015645Y034554D01*
X015645Y034631D02*
X015605Y034631D01*
X015605Y034708D02*
X015645Y034708D01*
X015645Y034863D02*
X015605Y034863D01*
X015605Y034940D02*
X015645Y034940D01*
X015645Y035017D02*
X015605Y035017D01*
X015605Y035095D02*
X015645Y035095D01*
X015508Y035095D02*
X015192Y035095D01*
X015192Y035017D02*
X015389Y035017D01*
X015329Y034940D02*
X015192Y034940D01*
X015192Y034863D02*
X015300Y034863D01*
X015766Y034477D02*
X016154Y034477D01*
X016275Y034477D02*
X016314Y034477D01*
X016314Y034554D02*
X016275Y034554D01*
X016275Y034631D02*
X016314Y034631D01*
X016314Y034708D02*
X016275Y034708D01*
X016275Y034863D02*
X016314Y034863D01*
X016314Y034940D02*
X016275Y034940D01*
X016275Y035017D02*
X016314Y035017D01*
X016314Y035095D02*
X016275Y035095D01*
X016235Y035249D02*
X016728Y035249D01*
X016728Y035326D02*
X016265Y035326D01*
X015960Y035326D02*
X015920Y035326D01*
X015920Y035249D02*
X015960Y035249D01*
X015960Y035172D02*
X015920Y035172D01*
X015920Y035095D02*
X015960Y035095D01*
X015921Y034940D02*
X015998Y034940D01*
X015970Y034863D02*
X015950Y034863D01*
X015952Y034708D02*
X015968Y034708D01*
X015994Y034631D02*
X015925Y034631D01*
X015872Y034554D02*
X016048Y034554D01*
X016435Y034477D02*
X016728Y034477D01*
X016728Y034554D02*
X016541Y034554D01*
X016595Y034631D02*
X016728Y034631D01*
X016728Y034708D02*
X016621Y034708D01*
X016924Y034708D02*
X019555Y034708D01*
X019562Y034716D02*
X019470Y034624D01*
X019470Y033993D01*
X019562Y033901D01*
X020192Y033901D01*
X020285Y033993D01*
X020285Y034624D01*
X020192Y034716D01*
X019562Y034716D01*
X019477Y034631D02*
X016924Y034631D01*
X016924Y034554D02*
X019470Y034554D01*
X019470Y034477D02*
X016924Y034477D01*
X016924Y034400D02*
X019470Y034400D01*
X019470Y034322D02*
X016924Y034322D01*
X016924Y034245D02*
X019470Y034245D01*
X019470Y034168D02*
X016924Y034168D01*
X016924Y034091D02*
X019470Y034091D01*
X019470Y034013D02*
X016924Y034013D01*
X016924Y033936D02*
X019527Y033936D01*
X020228Y033936D02*
X023027Y033936D01*
X023027Y033859D02*
X016924Y033859D01*
X016924Y033782D02*
X023027Y033782D01*
X023027Y033704D02*
X016924Y033704D01*
X016924Y033627D02*
X023027Y033627D01*
X023027Y033550D02*
X016924Y033550D01*
X016924Y033473D02*
X023027Y033473D01*
X023027Y033395D02*
X016924Y033395D01*
X016924Y033318D02*
X023027Y033318D01*
X023027Y033241D02*
X016924Y033241D01*
X016924Y033164D02*
X023027Y033164D01*
X023027Y034013D02*
X020285Y034013D01*
X020285Y034091D02*
X023027Y034091D01*
X023027Y034168D02*
X020285Y034168D01*
X020285Y034245D02*
X023027Y034245D01*
X023027Y034322D02*
X020285Y034322D01*
X020285Y034400D02*
X023027Y034400D01*
X023027Y034477D02*
X020285Y034477D01*
X020285Y034554D02*
X023027Y034554D01*
X023027Y034631D02*
X020277Y034631D01*
X020200Y034708D02*
X023027Y034708D01*
X023027Y034786D02*
X016924Y034786D01*
X016924Y034863D02*
X023027Y034863D01*
X023027Y034940D02*
X016924Y034940D01*
X016924Y035017D02*
X023027Y035017D01*
X023027Y035095D02*
X016924Y035095D01*
X016924Y035172D02*
X023027Y035172D01*
X023027Y035249D02*
X016924Y035249D01*
X016924Y035326D02*
X023027Y035326D01*
X023027Y035404D02*
X016924Y035404D01*
X016924Y035481D02*
X023027Y035481D01*
X023027Y035558D02*
X016924Y035558D01*
X016924Y035635D02*
X023027Y035635D01*
X023027Y035713D02*
X016924Y035713D01*
X016924Y035790D02*
X023027Y035790D01*
X023027Y035867D02*
X016924Y035867D01*
X016924Y035944D02*
X023027Y035944D01*
X023027Y036022D02*
X022233Y036022D01*
X022310Y036099D02*
X023027Y036099D01*
X023027Y036176D02*
X022342Y036176D01*
X022357Y036253D02*
X023027Y036253D01*
X023027Y036331D02*
X022357Y036331D01*
X022329Y036408D02*
X023027Y036408D01*
X023027Y036485D02*
X022318Y036485D01*
X022318Y036562D02*
X023027Y036562D01*
X023027Y036639D02*
X022318Y036639D01*
X022318Y036717D02*
X023027Y036717D01*
X023027Y036794D02*
X022318Y036794D01*
X022318Y036871D02*
X023027Y036871D01*
X023027Y036948D02*
X022318Y036948D01*
X022318Y037026D02*
X023027Y037026D01*
X023027Y037103D02*
X022318Y037103D01*
X022318Y037180D02*
X023027Y037180D01*
X023027Y037257D02*
X022318Y037257D01*
X022318Y037335D02*
X023027Y037335D01*
X023027Y038030D02*
X012987Y038030D01*
X012987Y038107D02*
X023027Y038107D01*
X023027Y038184D02*
X012987Y038184D01*
X012987Y038262D02*
X023027Y038262D01*
X023027Y038339D02*
X012987Y038339D01*
X012987Y038416D02*
X023027Y038416D01*
X023027Y038493D02*
X012987Y038493D01*
X012987Y038570D02*
X023027Y038570D01*
X023027Y038648D02*
X012987Y038648D01*
X012987Y038725D02*
X023027Y038725D01*
X023027Y038802D02*
X012987Y038802D01*
X012987Y038879D02*
X015327Y038879D01*
X015243Y038957D02*
X012987Y038957D01*
X012987Y039034D02*
X015186Y039034D01*
X015154Y039111D02*
X012987Y039111D01*
X012987Y039188D02*
X015139Y039188D01*
X015139Y039266D02*
X012987Y039266D01*
X012987Y039343D02*
X015152Y039343D01*
X015184Y039420D02*
X012987Y039420D01*
X012987Y039497D02*
X015231Y039497D01*
X015231Y039575D02*
X012987Y039575D01*
X012987Y039652D02*
X015231Y039652D01*
X015231Y039729D02*
X014718Y039729D01*
X014812Y039806D02*
X015231Y039806D01*
X015231Y039884D02*
X014848Y039884D01*
X014857Y039961D02*
X015231Y039961D01*
X015231Y040038D02*
X014857Y040038D01*
X014857Y040115D02*
X015231Y040115D01*
X015231Y040193D02*
X014857Y040193D01*
X014857Y040270D02*
X015231Y040270D01*
X015231Y040347D02*
X014857Y040347D01*
X013755Y040347D02*
X013696Y040347D01*
X013696Y040270D02*
X013755Y040270D01*
X013755Y040193D02*
X013696Y040193D01*
X013696Y040115D02*
X013755Y040115D01*
X013755Y040038D02*
X013696Y040038D01*
X013696Y039961D02*
X013755Y039961D01*
X013765Y039884D02*
X013696Y039884D01*
X013665Y039806D02*
X013801Y039806D01*
X013895Y039729D02*
X013588Y039729D01*
X012987Y037953D02*
X021839Y037953D01*
X021762Y037875D02*
X012987Y037875D01*
X012987Y037798D02*
X021718Y037798D01*
X021688Y037721D02*
X012987Y037721D01*
X012987Y037644D02*
X021688Y037644D01*
X021696Y037566D02*
X012987Y037566D01*
X012987Y037489D02*
X021728Y037489D01*
X021767Y037412D02*
X012987Y037412D01*
X012987Y037335D02*
X021767Y037335D01*
X021767Y037257D02*
X012987Y037257D01*
X012987Y037180D02*
X021767Y037180D01*
X021767Y037103D02*
X012987Y037103D01*
X012987Y037026D02*
X021767Y037026D01*
X021767Y036948D02*
X015557Y036948D01*
X015624Y036871D02*
X021767Y036871D01*
X021767Y036794D02*
X015656Y036794D01*
X015665Y036717D02*
X021767Y036717D01*
X021767Y036639D02*
X015665Y036639D01*
X015665Y036562D02*
X016397Y036562D01*
X016293Y036485D02*
X015665Y036485D01*
X015665Y036408D02*
X016244Y036408D01*
X016216Y036331D02*
X015665Y036331D01*
X015665Y036253D02*
X016216Y036253D01*
X016232Y036176D02*
X015665Y036176D01*
X015794Y035713D02*
X015192Y035713D01*
X015192Y035635D02*
X015691Y035635D01*
X015639Y035558D02*
X015192Y035558D01*
X015192Y035481D02*
X015613Y035481D01*
X015920Y035481D02*
X015960Y035481D01*
X015960Y035558D02*
X015920Y035558D01*
X015920Y035635D02*
X015960Y035635D01*
X015960Y035713D02*
X015920Y035713D01*
X015035Y036099D02*
X012987Y036099D01*
X012987Y036176D02*
X015035Y036176D01*
X015035Y036253D02*
X012987Y036253D01*
X012987Y036331D02*
X015035Y036331D01*
X015035Y036408D02*
X012987Y036408D01*
X012987Y036485D02*
X015035Y036485D01*
X015035Y036562D02*
X012987Y036562D01*
X012987Y036639D02*
X015035Y036639D01*
X015035Y036717D02*
X012987Y036717D01*
X012987Y036794D02*
X015043Y036794D01*
X015075Y036871D02*
X012987Y036871D01*
X012987Y036948D02*
X015143Y036948D01*
X014995Y036022D02*
X012987Y036022D01*
X015766Y038879D02*
X023027Y038879D01*
X023027Y038957D02*
X015850Y038957D01*
X015906Y039034D02*
X023027Y039034D01*
X023027Y039111D02*
X015938Y039111D01*
X015954Y039188D02*
X023027Y039188D01*
X023027Y039266D02*
X015954Y039266D01*
X015941Y039343D02*
X023027Y039343D01*
X023027Y039420D02*
X016210Y039420D01*
X016287Y039497D02*
X023027Y039497D01*
X023027Y039575D02*
X016328Y039575D01*
X016354Y039652D02*
X023027Y039652D01*
X023027Y039729D02*
X021631Y039729D01*
X021714Y039806D02*
X023027Y039806D01*
X023027Y039884D02*
X021759Y039884D01*
X021787Y039961D02*
X023027Y039961D01*
X023027Y040038D02*
X021787Y040038D01*
X021773Y040115D02*
X023027Y040115D01*
X023027Y040193D02*
X021741Y040193D01*
X021672Y040270D02*
X023027Y040270D01*
X023027Y040347D02*
X021530Y040347D01*
X021452Y040017D02*
X021058Y040411D01*
X020271Y040411D01*
X020074Y040214D01*
X019483Y040214D01*
X019090Y040608D01*
X016334Y040608D01*
X016019Y040293D01*
X016019Y039702D01*
X016338Y039806D02*
X021189Y039806D01*
X021145Y039884D02*
X016306Y039884D01*
X016233Y039961D02*
X021117Y039961D01*
X021117Y040038D02*
X020177Y040038D01*
X020254Y040115D02*
X021075Y040115D01*
X020998Y040193D02*
X020331Y040193D01*
X019381Y040038D02*
X016216Y040038D01*
X016216Y040115D02*
X019304Y040115D01*
X019226Y040193D02*
X016216Y040193D01*
X016274Y040270D02*
X019149Y040270D01*
X019072Y040347D02*
X016352Y040347D01*
X016354Y039729D02*
X021273Y039729D01*
X023420Y038245D02*
X023696Y037970D01*
X024365Y037970D01*
X024838Y038442D01*
X024838Y044269D01*
X024917Y044348D01*
X024208Y044308D02*
X023854Y043954D01*
X021452Y043954D01*
X020665Y046119D02*
X020271Y046513D01*
X019680Y046513D01*
X020665Y046119D02*
X025389Y046119D01*
X025586Y046316D01*
X025192Y046907D02*
X025783Y047497D01*
X025783Y048875D01*
X024798Y049466D02*
X024405Y049466D01*
X023814Y048875D01*
X023814Y048285D02*
X024011Y048088D01*
X024011Y047300D01*
X024129Y047182D01*
X024405Y047182D01*
X024011Y046907D02*
X023696Y047222D01*
X021570Y047222D01*
X020625Y048167D01*
X019995Y048167D01*
X019680Y048482D01*
X019562Y048482D01*
X019759Y048836D02*
X020113Y048482D01*
X019759Y048836D02*
X019759Y051238D01*
X018539Y052458D01*
X018539Y053009D01*
X018893Y053403D02*
X018027Y054269D01*
X017239Y054269D01*
X016708Y054800D01*
X016708Y054988D01*
X018893Y053403D02*
X018893Y052340D01*
X019956Y051277D01*
X019956Y049072D01*
X021531Y047497D01*
X021924Y047497D01*
X021964Y047891D02*
X021373Y047891D01*
X020133Y049131D01*
X020133Y051336D01*
X019287Y052182D01*
X019287Y054810D01*
X019464Y054988D01*
X019602Y052261D02*
X020310Y051552D01*
X020310Y049190D01*
X021216Y048285D01*
X023814Y048285D01*
X023224Y048875D02*
X023224Y049072D01*
X023814Y049663D01*
X024602Y049663D01*
X026176Y051238D01*
X028932Y051238D01*
X029499Y051804D01*
X029499Y052300D01*
X029499Y052789D01*
X029720Y053009D01*
X030507Y053009D01*
X031019Y052497D01*
X031294Y052497D01*
X031146Y052615D02*
X031442Y052615D01*
X031442Y052379D01*
X031146Y052379D01*
X031146Y052615D01*
X031146Y052457D02*
X031442Y052457D01*
X031442Y052535D02*
X031146Y052535D01*
X031146Y052613D02*
X031442Y052613D01*
X031442Y053245D02*
X031146Y053245D01*
X031442Y053245D02*
X031442Y053009D01*
X031146Y053009D01*
X031146Y053245D01*
X031146Y053087D02*
X031442Y053087D01*
X031442Y053165D02*
X031146Y053165D01*
X031146Y053243D02*
X031442Y053243D01*
X032328Y053245D02*
X032624Y053245D01*
X032624Y053009D01*
X032328Y053009D01*
X032328Y053245D01*
X032328Y053087D02*
X032624Y053087D01*
X032624Y053165D02*
X032328Y053165D01*
X032328Y053243D02*
X032624Y053243D01*
X032624Y052615D02*
X032328Y052615D01*
X032624Y052615D02*
X032624Y052379D01*
X032328Y052379D01*
X032328Y052615D01*
X032328Y052457D02*
X032624Y052457D01*
X032624Y052535D02*
X032328Y052535D01*
X032328Y052613D02*
X032624Y052613D01*
X032476Y052497D02*
X032476Y052222D01*
X032279Y052025D01*
X030901Y052025D01*
X030625Y052300D01*
X029999Y052300D01*
X029999Y051714D01*
X029326Y051041D01*
X026373Y051041D01*
X024798Y049466D01*
X024680Y050135D02*
X024995Y050450D01*
X024995Y051631D01*
X024602Y051631D01*
X024602Y052222D01*
X024208Y051828D02*
X023932Y052104D01*
X023932Y053344D01*
X023617Y053344D02*
X023617Y051828D01*
X023342Y051552D01*
X022909Y051552D01*
X022633Y051710D02*
X022830Y051907D01*
X023105Y051907D01*
X023302Y052104D01*
X023302Y053344D01*
X022987Y053344D02*
X022987Y052379D01*
X022830Y052222D01*
X022633Y051710D02*
X022633Y051238D01*
X022830Y051041D01*
X022712Y051159D01*
X022791Y050411D02*
X022633Y050253D01*
X022397Y050253D01*
X022042Y050608D01*
X022042Y051946D01*
X022791Y050411D02*
X024326Y050411D01*
X024602Y050686D01*
X024602Y051238D01*
X024995Y051631D02*
X026334Y051631D01*
X024680Y050135D02*
X023617Y050135D01*
X024011Y046907D02*
X025192Y046907D01*
X027830Y045726D02*
X027830Y048521D01*
X033066Y051828D02*
X033775Y051828D01*
X034168Y052222D01*
X034050Y050056D02*
X035231Y050056D01*
X029129Y041198D02*
X029720Y040608D01*
X032869Y040608D01*
X033066Y040411D01*
X033657Y040411D01*
X032869Y038245D02*
X032869Y036789D01*
X033460Y036198D01*
X034050Y036198D01*
X034720Y035529D01*
X034956Y035529D01*
X035822Y035293D02*
X035035Y034505D01*
X034444Y034505D01*
X034050Y034112D01*
X030310Y034112D01*
X029917Y034702D02*
X029917Y031749D01*
X030113Y030568D02*
X033460Y030568D01*
X035822Y035293D02*
X035822Y035883D01*
X033854Y035883D02*
X033499Y035883D01*
X033184Y036198D01*
X031373Y036198D01*
X031294Y036277D01*
X030507Y035883D02*
X030310Y036080D01*
X030507Y035883D02*
X033066Y035883D01*
X029917Y034702D02*
X029129Y035489D01*
X029129Y040608D01*
X028539Y041198D01*
X028145Y041198D01*
X028145Y040804D02*
X027751Y040411D01*
X027751Y038245D01*
X027554Y038049D01*
X027554Y037458D01*
X026767Y033324D02*
X025980Y033324D01*
X021852Y036022D02*
X016924Y036022D01*
X016869Y036099D02*
X021775Y036099D01*
X021743Y036176D02*
X016830Y036176D01*
X016846Y036253D02*
X021728Y036253D01*
X021728Y036331D02*
X016846Y036331D01*
X016817Y036408D02*
X021756Y036408D01*
X021767Y036485D02*
X016768Y036485D01*
X016665Y036562D02*
X021767Y036562D01*
X020271Y031068D02*
X019562Y030360D01*
X019562Y023403D01*
X019759Y023206D01*
X016533Y026830D02*
X012987Y026830D01*
X012987Y026907D02*
X016610Y026907D01*
X016687Y026984D02*
X012987Y026984D01*
X012987Y027062D02*
X016764Y027062D01*
X016842Y027139D02*
X012987Y027139D01*
X012987Y027216D02*
X016919Y027216D01*
X016996Y027293D02*
X012987Y027293D01*
X012987Y027371D02*
X017073Y027371D01*
X017150Y027448D02*
X012987Y027448D01*
X012987Y027525D02*
X017228Y027525D01*
X017305Y027602D02*
X012987Y027602D01*
X012987Y027680D02*
X017382Y027680D01*
X017459Y027757D02*
X012987Y027757D01*
X012987Y026753D02*
X016455Y026753D01*
X016378Y026675D02*
X014573Y026675D01*
X014861Y026598D02*
X016301Y026598D01*
X016224Y026521D02*
X015025Y026521D01*
X015158Y026444D02*
X016146Y026444D01*
X016069Y026366D02*
X015271Y026366D01*
X015348Y026289D02*
X015992Y026289D01*
X015915Y026212D02*
X015425Y026212D01*
X015503Y026135D02*
X015837Y026135D01*
X015760Y026058D02*
X015549Y026058D01*
X015594Y025980D02*
X015683Y025980D01*
X014158Y026675D02*
X012987Y026675D01*
X012987Y026598D02*
X013869Y026598D01*
X013706Y026521D02*
X012987Y026521D01*
X012987Y026444D02*
X013572Y026444D01*
X013460Y026366D02*
X012987Y026366D01*
X012987Y026289D02*
X013383Y026289D01*
X013305Y026212D02*
X012987Y026212D01*
X012987Y026135D02*
X013228Y026135D01*
X013181Y026058D02*
X012987Y026058D01*
X012987Y025980D02*
X013137Y025980D01*
X013092Y025903D02*
X012987Y025903D01*
X012987Y025826D02*
X013048Y025826D01*
X013020Y025749D02*
X012987Y025749D01*
X012987Y025671D02*
X013000Y025671D01*
X015373Y028684D02*
X015523Y028684D01*
X024562Y019878D02*
X024641Y019878D01*
X024641Y019801D02*
X024562Y019801D01*
X024562Y019724D02*
X024641Y019724D01*
X024641Y019647D02*
X024562Y019647D01*
D28*
X024247Y019269D03*
X024011Y017537D03*
X024602Y021789D03*
X025586Y022497D03*
X026452Y024033D03*
X026964Y024269D03*
X027948Y022300D03*
X028381Y026238D03*
X029168Y026198D03*
X030507Y025450D03*
X032082Y026356D03*
X032436Y026080D03*
X032791Y025804D03*
X032436Y025529D03*
X031964Y024269D03*
X032357Y027104D03*
X034444Y027615D03*
X033460Y030568D03*
X034641Y034112D03*
X035822Y034112D03*
X034956Y035529D03*
X035822Y035883D03*
X036413Y036080D03*
X033854Y035883D03*
X033066Y035883D03*
X032869Y038245D03*
X033460Y039623D03*
X034405Y039623D03*
X033657Y040411D03*
X031294Y036277D03*
X030310Y036080D03*
X030310Y034112D03*
X029917Y031749D03*
X030113Y030568D03*
X027357Y029387D03*
X026570Y027222D03*
X025783Y027615D03*
X025389Y026041D03*
X024798Y026041D03*
X024011Y026041D03*
X023617Y026238D03*
X022830Y025844D03*
X023617Y029190D03*
X024405Y030175D03*
X024798Y029190D03*
X026964Y026434D03*
X023420Y022104D03*
X021058Y022497D03*
X019759Y023206D03*
X019877Y026828D03*
X019090Y027025D03*
X020665Y029190D03*
X021373Y031710D03*
X022042Y035883D03*
X022042Y036277D03*
X023420Y038245D03*
X020586Y039978D03*
X021649Y042773D03*
X021452Y043954D03*
X020980Y043875D03*
X020350Y044466D03*
X019680Y042930D03*
X018696Y042970D03*
X016334Y042379D03*
X018184Y046513D03*
X018105Y047970D03*
X019562Y048049D03*
X019562Y048482D03*
X020113Y048482D03*
X020940Y049269D03*
X021452Y050056D03*
X022633Y050253D03*
X022830Y051041D03*
X023184Y050765D03*
X023617Y050135D03*
X024208Y051041D03*
X024602Y051238D03*
X024602Y051631D03*
X024208Y051828D03*
X024602Y052222D03*
X022830Y052222D03*
X022909Y051552D03*
X022042Y051946D03*
X019602Y052261D03*
X018539Y053009D03*
X022633Y055096D03*
X024602Y055096D03*
X026767Y055096D03*
X028539Y053009D03*
X030113Y053403D03*
X028932Y055096D03*
X026334Y051631D03*
X025783Y048875D03*
X024405Y047182D03*
X025586Y046316D03*
X025783Y045332D03*
X025586Y044545D03*
X025980Y044308D03*
X024917Y044348D03*
X024208Y044308D03*
X023420Y044348D03*
X021924Y047497D03*
X021964Y047891D03*
X023224Y048875D03*
X023814Y048875D03*
X027830Y048521D03*
X029129Y048875D03*
X028814Y050056D03*
X027830Y045726D03*
X028145Y041198D03*
X028145Y040804D03*
X029129Y041198D03*
X026964Y040608D03*
X027554Y037458D03*
X026767Y033324D03*
X025980Y033324D03*
X034444Y022300D03*
X036609Y027419D03*
X037397Y030175D03*
X034641Y048482D03*
X035231Y050056D03*
X034050Y050056D03*
X033460Y051238D03*
X033066Y051828D03*
X032476Y051238D03*
X034168Y052222D03*
X032672Y048678D03*
X019680Y046513D03*
X016531Y036277D03*
X015350Y036710D03*
X013381Y023482D03*
D29*
X015153Y028403D03*
X015743Y028403D03*
X016531Y029387D03*
X017318Y029387D03*
X018105Y029387D03*
X018893Y029387D03*
X015743Y033127D03*
X014956Y033127D03*
X014168Y033127D03*
X015625Y034781D03*
X016294Y034781D03*
X015940Y035411D03*
X018184Y035253D03*
X018184Y035883D03*
X018184Y036474D03*
X018854Y036474D03*
X018854Y035883D03*
X018854Y035293D03*
X022042Y037655D03*
X023420Y037655D03*
X022594Y040214D03*
X025428Y041710D03*
X027554Y041395D03*
X029208Y042576D03*
X028932Y044269D03*
X027279Y043875D03*
X025389Y045017D03*
X023814Y044545D03*
X026452Y048875D03*
X027554Y052222D03*
X025743Y054387D03*
X021649Y054387D03*
X030507Y054781D03*
X032003Y054072D03*
D30*
X032476Y043363D03*
X033066Y042970D03*
X033066Y041001D03*
X031885Y041001D03*
X030743Y042891D03*
X028342Y038442D03*
X032082Y037143D03*
X033854Y038127D03*
X034917Y036238D03*
X035428Y038521D03*
X034838Y032340D03*
X034641Y030962D03*
X034641Y029978D03*
X035035Y027419D03*
X032869Y024860D03*
X028539Y023088D03*
X029287Y018009D03*
X033735Y018009D03*
X026964Y029978D03*
X024168Y038403D03*
X024011Y039072D03*
X019641Y040608D03*
X015940Y041198D03*
X015546Y039230D03*
X013381Y028403D03*
X013972Y023482D03*
X014562Y023482D03*
X022042Y019348D03*
X023027Y019348D03*
X020546Y052104D03*
D31*
X019562Y048049D02*
X019365Y047852D01*
X019365Y045903D01*
X018696Y045234D01*
X018696Y044249D01*
X018696Y042970D01*
X016137Y043068D02*
X016137Y044741D01*
X015940Y044938D01*
X015940Y045332D01*
X016728Y046119D01*
X017515Y046119D01*
X017830Y046434D01*
X017830Y047694D01*
X018105Y047970D01*
X025389Y045017D02*
X025861Y045017D01*
X026216Y044663D01*
X028539Y044663D01*
X028932Y044269D01*
X026964Y043560D02*
X026216Y044308D01*
X025980Y044308D01*
X026964Y043560D02*
X026964Y040608D01*
X028617Y047694D02*
X028617Y048363D01*
X029129Y048875D01*
X020271Y030068D02*
X019798Y029596D01*
X019798Y026907D01*
X019877Y026828D01*
X019090Y027025D02*
X019090Y024269D01*
X018519Y023698D01*
X018519Y023088D01*
X023420Y027222D02*
X022314Y028328D01*
X023617Y029190D02*
X020665Y029190D01*
X023420Y027222D02*
X026570Y027222D01*
X027239Y026119D02*
X025468Y026119D01*
X025389Y026041D01*
X027239Y026119D02*
X027751Y026631D01*
X028735Y026631D01*
X029168Y026198D01*
X029050Y026316D01*
X026964Y024269D02*
X026767Y024072D01*
X026767Y023088D01*
X029720Y020332D02*
X029720Y019978D01*
X029720Y020332D02*
X030212Y020824D01*
X030212Y021513D01*
X029720Y019466D02*
X029720Y019151D01*
X030212Y018659D01*
X030212Y017871D01*
X034050Y019151D02*
X034661Y018541D01*
X034661Y017871D01*
X034050Y019151D02*
X034050Y019466D01*
X034050Y019978D02*
X034050Y020332D01*
X034661Y020942D01*
X034661Y021513D01*
D32*
X027314Y028328D02*
X026314Y028328D01*
X024314Y028328D02*
X023314Y028328D01*
X017239Y043068D02*
X017239Y043285D01*
X013598Y043285D02*
X013598Y043068D01*
X021865Y053383D02*
X021865Y054171D01*
X021649Y054387D01*
X021865Y054604D01*
X021865Y055549D01*
X025369Y055549D02*
X025369Y054387D01*
X025743Y054387D01*
X025369Y054387D02*
X025369Y053383D01*
X028499Y052970D02*
X028499Y052300D01*
X028999Y052300D02*
X028999Y054112D01*
X029499Y054112D01*
X029999Y054112D01*
X030113Y053403D02*
X030704Y053403D01*
X030980Y053127D01*
X031294Y053127D01*
X032476Y053127D01*
X028999Y054112D02*
X028499Y054112D01*
X028499Y054663D01*
X028932Y055096D01*
X028539Y053009D02*
X028499Y052970D01*
D33*
X016924Y017930D02*
X016865Y017871D01*
D34*
X016019Y039702D03*
X021452Y040017D03*
X021649Y041986D03*
D35*
X015468Y043915D02*
X015468Y044230D01*
X015153Y044545D01*
X013972Y044545D01*
X013598Y044171D01*
X013598Y043560D01*
X013598Y043068D01*
D36*
X015546Y040804D02*
X015546Y039230D01*
X015546Y040804D02*
X015940Y041198D01*
X015350Y036710D02*
X015350Y035883D01*
X022042Y037655D02*
X023420Y037655D01*
X029287Y018009D02*
X029424Y017871D01*
X030212Y017871D01*
X033735Y017871D02*
X033735Y018009D01*
X033735Y017871D02*
X034661Y017871D01*
D37*
X015448Y050056D02*
X014464Y050056D01*
X014464Y051041D02*
X014464Y052025D01*
X014464Y051041D02*
X015448Y051041D01*
X015448Y052025D01*
D38*
X017515Y051238D03*
X036413Y051238D03*
X036413Y025647D03*
X014365Y025253D03*
D39*
X027357Y029387D02*
X028145Y030175D01*
X034050Y030175D01*
X034365Y030489D01*
X034917Y030489D01*
X035231Y030175D01*
X037397Y030175D01*
D40*
X014759Y023285D02*
X014759Y021395D01*
X014759Y023285D02*
X014562Y023482D01*
X013972Y023482D01*
X013381Y023482D02*
X013381Y022694D01*
D41*
X022042Y036277D02*
X022042Y037655D01*
M02*
