G75*
%MOIN*%
%OFA0B0*%
%FSLAX24Y24*%
%IPPOS*%
%LPD*%
%AMOC8*
5,1,8,0,0,1.08239X$1,22.5*
%
%ADD10C,0.0050*%
%ADD11C,0.0040*%
%ADD12C,0.0059*%
%ADD13C,0.0079*%
%ADD14C,0.0030*%
%ADD15C,0.0070*%
%ADD16C,0.0080*%
%ADD17C,0.0049*%
%ADD18R,0.0276X0.0236*%
%ADD19C,0.0573*%
%ADD20R,0.0197X0.0197*%
%ADD21C,0.0249*%
%ADD22C,0.0591*%
%ADD23C,0.0060*%
%ADD24R,0.1063X0.0217*%
%ADD25C,0.0118*%
%ADD26C,0.0325*%
%ADD27C,0.0000*%
%ADD28C,0.0001*%
%ADD29C,0.0315*%
D10*
X017812Y024066D02*
X017962Y024066D01*
X018037Y024141D01*
X018197Y024066D02*
X018197Y024516D01*
X018497Y024066D01*
X018497Y024516D01*
X018658Y024441D02*
X018733Y024516D01*
X018883Y024516D01*
X018958Y024441D01*
X018958Y024366D01*
X018883Y024291D01*
X018958Y024216D01*
X018958Y024141D01*
X018883Y024066D01*
X018733Y024066D01*
X018658Y024141D01*
X018808Y024291D02*
X018883Y024291D01*
X018037Y024441D02*
X017962Y024516D01*
X017812Y024516D01*
X017737Y024441D01*
X017737Y024141D01*
X017812Y024066D01*
X020099Y025716D02*
X020174Y025641D01*
X020324Y025641D01*
X020399Y025716D01*
X020559Y025641D02*
X020559Y026091D01*
X020860Y025641D01*
X020860Y026091D01*
X021020Y025866D02*
X021320Y025866D01*
X021245Y025641D02*
X021245Y026091D01*
X021020Y025866D01*
X020399Y026016D02*
X020324Y026091D01*
X020174Y026091D01*
X020099Y026016D01*
X020099Y025716D01*
X021395Y028515D02*
X021545Y028515D01*
X021620Y028590D01*
X021780Y028515D02*
X021780Y028965D01*
X022080Y028515D01*
X022080Y028965D01*
X022240Y028815D02*
X022390Y028965D01*
X022390Y028515D01*
X022240Y028515D02*
X022541Y028515D01*
X022701Y028515D02*
X023001Y028815D01*
X023001Y028890D01*
X022926Y028965D01*
X022776Y028965D01*
X022701Y028890D01*
X022701Y028515D02*
X023001Y028515D01*
X021620Y028890D02*
X021545Y028965D01*
X021395Y028965D01*
X021319Y028890D01*
X021319Y028590D01*
X021395Y028515D01*
X020968Y031702D02*
X019968Y031702D01*
X019968Y033702D01*
X020968Y033702D01*
X020968Y031702D01*
X017554Y032407D02*
X017554Y032801D01*
X016491Y032801D02*
X016491Y032407D01*
X014168Y036344D02*
X013775Y036344D01*
X013775Y037407D02*
X014168Y037407D01*
X014168Y037880D02*
X013775Y037880D01*
X013775Y038943D02*
X014168Y038943D01*
X014017Y044735D02*
X014017Y045186D01*
X014167Y045186D02*
X013866Y045186D01*
X013706Y045111D02*
X013706Y044961D01*
X013631Y044885D01*
X013406Y044885D01*
X013406Y044735D02*
X013406Y045186D01*
X013631Y045186D01*
X013706Y045111D01*
X014327Y045186D02*
X014627Y045186D01*
X014477Y045186D02*
X014477Y044735D01*
X016753Y044799D02*
X016828Y044724D01*
X016978Y044724D01*
X017053Y044649D01*
X017053Y044574D01*
X016978Y044499D01*
X016828Y044499D01*
X016753Y044574D01*
X016753Y044799D02*
X016753Y044874D01*
X016828Y044950D01*
X016978Y044950D01*
X017053Y044874D01*
X017213Y044950D02*
X017213Y044499D01*
X017363Y044649D01*
X017513Y044499D01*
X017513Y044950D01*
X017673Y044950D02*
X017673Y044724D01*
X017823Y044799D01*
X017899Y044799D01*
X017974Y044724D01*
X017974Y044574D01*
X017899Y044499D01*
X017748Y044499D01*
X017673Y044574D01*
X017673Y044950D02*
X017974Y044950D01*
X015351Y049066D02*
X015201Y049216D01*
X015276Y049216D02*
X015051Y049216D01*
X015051Y049066D02*
X015051Y049516D01*
X015276Y049516D01*
X015351Y049441D01*
X015351Y049291D01*
X015276Y049216D01*
X014891Y049066D02*
X014590Y049066D01*
X014590Y049516D01*
X014891Y049516D01*
X014741Y049291D02*
X014590Y049291D01*
X014430Y049066D02*
X014430Y049516D01*
X014130Y049516D02*
X014130Y049066D01*
X014280Y049216D01*
X014430Y049066D01*
X013970Y049141D02*
X013970Y049441D01*
X013895Y049516D01*
X013745Y049516D01*
X013670Y049441D01*
X013670Y049141D01*
X013745Y049066D01*
X013895Y049066D01*
X013970Y049141D01*
X013509Y049291D02*
X013434Y049216D01*
X013209Y049216D01*
X013209Y049066D02*
X013209Y049516D01*
X013434Y049516D01*
X013509Y049441D01*
X013509Y049291D01*
X019505Y055680D02*
X019430Y055755D01*
X019505Y055680D02*
X019655Y055680D01*
X019730Y055755D01*
X019730Y055830D01*
X019655Y055905D01*
X019505Y055905D01*
X019430Y055980D01*
X019430Y056056D01*
X019505Y056131D01*
X019655Y056131D01*
X019730Y056056D01*
X019890Y056131D02*
X019890Y055680D01*
X020040Y055830D01*
X020190Y055680D01*
X020190Y056131D01*
X020350Y055905D02*
X020651Y055905D01*
X020576Y055680D02*
X020576Y056131D01*
X020350Y055905D01*
X021528Y056543D02*
X021603Y056468D01*
X021678Y056468D01*
X021753Y056543D01*
X021753Y056693D01*
X021828Y056768D01*
X021903Y056768D01*
X021978Y056693D01*
X021978Y056543D01*
X021903Y056468D01*
X021528Y056543D02*
X021528Y056693D01*
X021603Y056768D01*
X021528Y056928D02*
X021978Y056928D01*
X021828Y057078D01*
X021978Y057228D01*
X021528Y057228D01*
X021603Y057388D02*
X021528Y057463D01*
X021528Y057614D01*
X021603Y057689D01*
X021678Y057689D01*
X021978Y057388D01*
X021978Y057689D01*
X029692Y052600D02*
X029692Y050600D01*
X030692Y050600D01*
X030692Y052600D01*
X029692Y052600D01*
X030980Y055931D02*
X030980Y056325D01*
X031609Y056325D02*
X031609Y055931D01*
X035233Y055174D02*
X035458Y055174D01*
X035533Y055099D01*
X035533Y054949D01*
X035458Y054874D01*
X035233Y054874D01*
X035383Y054874D02*
X035533Y054724D01*
X035693Y054949D02*
X035993Y054949D01*
X036154Y054949D02*
X036379Y054949D01*
X036454Y054874D01*
X036454Y054799D01*
X036379Y054724D01*
X036229Y054724D01*
X036154Y054799D01*
X036154Y054949D01*
X036304Y055099D01*
X036454Y055174D01*
X036721Y055523D02*
X036796Y055523D01*
X036871Y055598D01*
X036871Y055748D01*
X036946Y055823D01*
X037021Y055823D01*
X037096Y055748D01*
X037096Y055598D01*
X037021Y055523D01*
X036721Y055523D02*
X036646Y055598D01*
X036646Y055748D01*
X036721Y055823D01*
X036646Y055983D02*
X036646Y056208D01*
X036721Y056283D01*
X036871Y056283D01*
X036946Y056208D01*
X036946Y055983D01*
X037096Y055983D02*
X036646Y055983D01*
X036646Y056444D02*
X037096Y056444D01*
X036946Y056444D02*
X036646Y056744D01*
X036646Y056904D02*
X036646Y057129D01*
X036721Y057204D01*
X036871Y057204D01*
X036946Y057129D01*
X036946Y056904D01*
X036946Y057054D02*
X037096Y057204D01*
X037096Y056904D02*
X036646Y056904D01*
X036871Y056519D02*
X037096Y056744D01*
X037315Y056783D02*
X037315Y056483D01*
X037315Y056633D02*
X037766Y056633D01*
X037690Y056323D02*
X037315Y056323D01*
X037315Y056023D02*
X037690Y056023D01*
X037766Y056098D01*
X037766Y056248D01*
X037690Y056323D01*
X037690Y055862D02*
X037390Y055862D01*
X037315Y055787D01*
X037315Y055637D01*
X037390Y055562D01*
X037690Y055562D01*
X037766Y055637D01*
X037766Y055787D01*
X037690Y055862D01*
X035918Y055174D02*
X035693Y054949D01*
X035918Y054724D02*
X035918Y055174D01*
X035233Y055174D02*
X035233Y054724D01*
X032220Y044120D02*
X032220Y043726D01*
X031157Y043726D02*
X031157Y044120D01*
X031161Y042258D02*
X033161Y042258D01*
X033161Y041258D01*
X031161Y041258D01*
X031161Y042258D01*
X029852Y038082D02*
X029852Y037782D01*
X029552Y038082D01*
X029477Y038082D01*
X029402Y038007D01*
X029402Y037857D01*
X029477Y037782D01*
X029627Y037622D02*
X029627Y037322D01*
X029402Y037547D01*
X029852Y037547D01*
X029852Y037162D02*
X029702Y037011D01*
X029702Y037087D02*
X029702Y036861D01*
X029852Y036861D02*
X029402Y036861D01*
X029402Y037087D01*
X029477Y037162D01*
X029627Y037162D01*
X029702Y037087D01*
X030690Y036288D02*
X030840Y036138D01*
X030990Y036288D01*
X030990Y035838D01*
X031150Y035838D02*
X031300Y035838D01*
X031225Y035838D02*
X031225Y036288D01*
X031150Y036288D02*
X031300Y036288D01*
X031457Y036213D02*
X031457Y035913D01*
X031532Y035838D01*
X031682Y035838D01*
X031757Y035913D01*
X031757Y036213D02*
X031682Y036288D01*
X031532Y036288D01*
X031457Y036213D01*
X030690Y036288D02*
X030690Y035838D01*
X030212Y034868D02*
X030212Y034474D01*
X031275Y034474D02*
X031275Y034868D01*
X032658Y035952D02*
X032733Y035877D01*
X032883Y035877D01*
X032958Y035952D01*
X032958Y036102D01*
X032808Y036102D01*
X032658Y036252D02*
X032658Y035952D01*
X032658Y036252D02*
X032733Y036327D01*
X032883Y036327D01*
X032958Y036252D01*
X033118Y036177D02*
X033269Y036327D01*
X033419Y036177D01*
X033419Y035877D01*
X033579Y035877D02*
X033729Y035877D01*
X033654Y035877D02*
X033654Y036327D01*
X033579Y036327D02*
X033729Y036327D01*
X033886Y036327D02*
X034186Y035877D01*
X034186Y036327D01*
X033886Y036327D02*
X033886Y035877D01*
X033419Y036102D02*
X033118Y036102D01*
X033118Y036177D02*
X033118Y035877D01*
X031635Y032548D02*
X031335Y032548D01*
X031100Y032548D02*
X030874Y032323D01*
X031175Y032323D01*
X031335Y032173D02*
X031335Y032098D01*
X031335Y032173D02*
X031635Y032473D01*
X031635Y032548D01*
X031100Y032548D02*
X031100Y032098D01*
X030714Y032098D02*
X030564Y032248D01*
X030639Y032248D02*
X030414Y032248D01*
X030414Y032098D02*
X030414Y032548D01*
X030639Y032548D01*
X030714Y032473D01*
X030714Y032323D01*
X030639Y032248D01*
X030369Y031128D02*
X030369Y030734D01*
X029306Y030734D02*
X029306Y031128D01*
X028985Y031389D02*
X028835Y031539D01*
X028910Y031539D02*
X028685Y031539D01*
X028685Y031389D02*
X028685Y031839D01*
X028910Y031839D01*
X028985Y031764D01*
X028985Y031614D01*
X028910Y031539D01*
X028525Y031389D02*
X028300Y031614D01*
X028225Y031539D02*
X028525Y031839D01*
X028619Y031940D02*
X028769Y031940D01*
X028844Y032015D01*
X028844Y032165D01*
X028694Y032165D01*
X028844Y032315D02*
X028769Y032390D01*
X028619Y032390D01*
X028543Y032315D01*
X028543Y032015D01*
X028619Y031940D01*
X028387Y031940D02*
X028237Y031940D01*
X028312Y031940D02*
X028312Y032390D01*
X028237Y032390D02*
X028387Y032390D01*
X028076Y032315D02*
X028076Y032165D01*
X028001Y032090D01*
X027776Y032090D01*
X027776Y031940D02*
X027776Y032390D01*
X028001Y032390D01*
X028076Y032315D01*
X027926Y032090D02*
X028076Y031940D01*
X027989Y031839D02*
X028064Y031764D01*
X028064Y031614D01*
X027989Y031539D01*
X027764Y031539D01*
X027764Y031389D02*
X027764Y031839D01*
X027989Y031839D01*
X028225Y031839D02*
X028225Y031389D01*
X027604Y031464D02*
X027529Y031389D01*
X027379Y031389D01*
X027304Y031464D01*
X027379Y031614D02*
X027304Y031689D01*
X027304Y031764D01*
X027379Y031839D01*
X027529Y031839D01*
X027604Y031764D01*
X027529Y031614D02*
X027604Y031539D01*
X027604Y031464D01*
X027529Y031614D02*
X027379Y031614D01*
X026848Y033905D02*
X026398Y033905D01*
X026398Y034131D01*
X026473Y034206D01*
X026623Y034206D01*
X026698Y034131D01*
X026698Y033905D01*
X026698Y034055D02*
X026848Y034206D01*
X026773Y034366D02*
X026848Y034441D01*
X026848Y034591D01*
X026773Y034666D01*
X026623Y034666D01*
X026548Y034591D01*
X026548Y034516D01*
X026623Y034366D01*
X026398Y034366D01*
X026398Y034666D01*
X026473Y034826D02*
X026398Y034901D01*
X026398Y035051D01*
X026473Y035126D01*
X026548Y035126D01*
X026848Y034826D01*
X026848Y035126D01*
X021255Y037447D02*
X021255Y037801D01*
X021255Y038628D02*
X021255Y038982D01*
X028957Y026879D02*
X029258Y026879D01*
X029107Y026879D02*
X029107Y026428D01*
X029418Y026428D02*
X029718Y026729D01*
X029718Y026804D01*
X029643Y026879D01*
X029493Y026879D01*
X029418Y026804D01*
X029418Y026428D02*
X029718Y026428D01*
X033012Y026879D02*
X033313Y026879D01*
X033163Y026879D02*
X033163Y026428D01*
X033473Y026428D02*
X033773Y026428D01*
X033623Y026428D02*
X033623Y026879D01*
X033473Y026729D01*
X036275Y030143D02*
X036275Y030537D01*
X037338Y030537D02*
X037338Y030143D01*
X037362Y032255D02*
X037362Y032705D01*
X037287Y032705D02*
X037437Y032705D01*
X037594Y032630D02*
X037594Y032330D01*
X037669Y032255D01*
X037819Y032255D01*
X037894Y032330D01*
X037894Y032630D02*
X037819Y032705D01*
X037669Y032705D01*
X037594Y032630D01*
X037437Y032255D02*
X037287Y032255D01*
X037127Y032255D02*
X037127Y032705D01*
X036977Y032555D01*
X036826Y032705D01*
X036826Y032255D01*
X036206Y032330D02*
X036206Y032480D01*
X036056Y032480D01*
X036206Y032330D02*
X036131Y032255D01*
X035981Y032255D01*
X035906Y032330D01*
X035906Y032630D01*
X035981Y032705D01*
X036131Y032705D01*
X036206Y032630D01*
X035749Y032705D02*
X035599Y032705D01*
X035674Y032705D02*
X035674Y032255D01*
X035599Y032255D02*
X035749Y032255D01*
X035439Y032255D02*
X035288Y032405D01*
X035364Y032405D02*
X035138Y032405D01*
X035138Y032255D02*
X035138Y032705D01*
X035364Y032705D01*
X035439Y032630D01*
X035439Y032480D01*
X035364Y032405D01*
X035276Y019298D02*
X035451Y019298D01*
X035509Y019240D01*
X035509Y019123D01*
X035451Y019065D01*
X035276Y019065D01*
X035392Y019065D02*
X035509Y018948D01*
X035644Y019006D02*
X035644Y019123D01*
X035702Y019181D01*
X035819Y019181D01*
X035877Y019123D01*
X035877Y019065D01*
X035644Y019065D01*
X035644Y019006D02*
X035702Y018948D01*
X035819Y018948D01*
X036012Y019181D02*
X036129Y018948D01*
X036246Y019181D01*
X036749Y019123D02*
X036866Y019123D01*
X036982Y018948D02*
X036749Y018948D01*
X036749Y019298D01*
X036982Y019298D01*
X035276Y019298D02*
X035276Y018948D01*
X034773Y019006D02*
X034714Y018948D01*
X034597Y018948D01*
X034539Y019006D01*
X034773Y019240D01*
X034773Y019006D01*
X034773Y019240D02*
X034714Y019298D01*
X034597Y019298D01*
X034539Y019240D01*
X034539Y019006D01*
X034404Y019006D02*
X034346Y018948D01*
X034229Y018948D01*
X034171Y019006D01*
X034404Y019240D01*
X034404Y019006D01*
X034171Y019006D02*
X034171Y019240D01*
X034229Y019298D01*
X034346Y019298D01*
X034404Y019240D01*
X034036Y019240D02*
X033802Y019006D01*
X033861Y018948D01*
X033978Y018948D01*
X034036Y019006D01*
X034036Y019240D01*
X033978Y019298D01*
X033861Y019298D01*
X033802Y019240D01*
X033802Y019006D01*
X033668Y018948D02*
X033434Y018948D01*
X033551Y018948D02*
X033551Y019298D01*
X033434Y019181D01*
X033299Y019298D02*
X033299Y018948D01*
X033066Y018948D02*
X033066Y019298D01*
X033182Y019181D01*
X033299Y019298D01*
X032931Y019240D02*
X032873Y019298D01*
X032756Y019298D01*
X032697Y019240D01*
X032697Y019181D01*
X032756Y019123D01*
X032873Y019123D01*
X032931Y019065D01*
X032931Y019006D01*
X032873Y018948D01*
X032756Y018948D01*
X032697Y019006D01*
D11*
X026334Y026218D02*
X026275Y026218D01*
X026216Y026277D01*
X026216Y026395D01*
X026275Y026454D01*
X026334Y026454D01*
X026393Y026395D01*
X026393Y026277D01*
X026334Y026218D01*
X026216Y026277D02*
X026157Y026218D01*
X026098Y026218D01*
X026039Y026277D01*
X026039Y026395D01*
X026098Y026454D01*
X026157Y026454D01*
X026216Y026395D01*
X026294Y028580D02*
X026353Y028639D01*
X026353Y028757D01*
X026294Y028816D01*
X026058Y028816D01*
X025999Y028757D01*
X025999Y028639D01*
X026058Y028580D01*
X026117Y028580D01*
X026176Y028639D01*
X026176Y028816D01*
X023389Y034100D02*
X023389Y034454D01*
X023212Y034277D01*
X023448Y034277D01*
X023086Y034454D02*
X022968Y034454D01*
X023027Y034454D02*
X023027Y034159D01*
X022968Y034100D01*
X022909Y034100D01*
X022850Y034159D01*
X021554Y033766D02*
X021554Y033459D01*
X021247Y033766D01*
X021170Y033766D01*
X021094Y033689D01*
X021094Y033536D01*
X021170Y033459D01*
X021094Y033305D02*
X021094Y033152D01*
X021094Y033229D02*
X021477Y033229D01*
X021554Y033152D01*
X021554Y033075D01*
X021477Y032999D01*
X020782Y029108D02*
X020723Y029108D01*
X020664Y029049D01*
X020664Y028872D01*
X020782Y028872D01*
X020841Y028931D01*
X020841Y029049D01*
X020782Y029108D01*
X020546Y028990D02*
X020487Y029108D01*
X020546Y028990D02*
X020664Y028872D01*
X020841Y028746D02*
X020841Y028510D01*
X020841Y028628D02*
X020487Y028628D01*
X020605Y028510D01*
X020841Y026581D02*
X020841Y026345D01*
X020841Y026463D02*
X020487Y026463D01*
X020605Y026345D01*
X013637Y028844D02*
X013204Y028844D01*
X013204Y029317D01*
X013637Y029317D02*
X013637Y028844D01*
X013657Y047683D02*
X013598Y047742D01*
X013657Y047683D02*
X013775Y047683D01*
X013834Y047742D01*
X013834Y047801D01*
X013775Y047860D01*
X013657Y047860D01*
X013598Y047919D01*
X013598Y047978D01*
X013657Y048037D01*
X013775Y048037D01*
X013834Y047978D01*
X013960Y048037D02*
X013960Y047683D01*
X014078Y047801D01*
X014196Y047683D01*
X014196Y048037D01*
X014323Y047919D02*
X014441Y048037D01*
X014441Y047683D01*
X014323Y047683D02*
X014559Y047683D01*
X013302Y050636D02*
X013361Y050695D01*
X013361Y050813D01*
X013302Y050872D01*
X013243Y050872D01*
X013184Y050813D01*
X013184Y050695D01*
X013125Y050636D01*
X013066Y050636D01*
X013007Y050695D01*
X013007Y050813D01*
X013066Y050872D01*
X013007Y050998D02*
X013361Y050998D01*
X013243Y051116D01*
X013361Y051234D01*
X013007Y051234D01*
X013066Y051361D02*
X013007Y051420D01*
X013007Y051538D01*
X013066Y051597D01*
X013125Y051597D01*
X013184Y051538D01*
X013243Y051597D01*
X013302Y051597D01*
X013361Y051538D01*
X013361Y051420D01*
X013302Y051361D01*
X013184Y051479D02*
X013184Y051538D01*
X022456Y055026D02*
X022515Y054967D01*
X022633Y054967D01*
X022692Y055026D01*
X022819Y054967D02*
X023055Y054967D01*
X023181Y054967D02*
X023299Y054967D01*
X023240Y054967D02*
X023240Y055321D01*
X023181Y055321D02*
X023299Y055321D01*
X023423Y055321D02*
X023600Y055321D01*
X023659Y055262D01*
X023659Y055144D01*
X023600Y055085D01*
X023423Y055085D01*
X023423Y054967D02*
X023423Y055321D01*
X022819Y055321D02*
X022819Y054967D01*
X022692Y055262D02*
X022633Y055321D01*
X022515Y055321D01*
X022456Y055262D01*
X022456Y055026D01*
X024622Y055026D02*
X024681Y054967D01*
X024799Y054967D01*
X024858Y055026D01*
X024858Y055085D01*
X024799Y055144D01*
X024681Y055144D01*
X024622Y055203D01*
X024622Y055262D01*
X024681Y055321D01*
X024799Y055321D01*
X024858Y055262D01*
X024984Y055262D02*
X025102Y055144D01*
X025102Y054967D01*
X025102Y055144D02*
X025220Y055262D01*
X025220Y055321D01*
X025347Y055321D02*
X025583Y054967D01*
X025583Y055321D01*
X025709Y055262D02*
X025709Y055026D01*
X025768Y054967D01*
X025886Y054967D01*
X025945Y055026D01*
X025945Y055262D02*
X025886Y055321D01*
X025768Y055321D01*
X025709Y055262D01*
X025347Y055321D02*
X025347Y054967D01*
X024984Y055262D02*
X024984Y055321D01*
X026984Y055321D02*
X026984Y054967D01*
X026984Y055085D02*
X027161Y055085D01*
X027220Y055144D01*
X027220Y055262D01*
X027161Y055321D01*
X026984Y055321D01*
X027346Y055321D02*
X027582Y055321D01*
X027464Y055321D02*
X027464Y054967D01*
X027827Y054967D02*
X027827Y055321D01*
X027709Y055321D02*
X027945Y055321D01*
X028559Y055321D02*
X028559Y054967D01*
X028559Y055085D02*
X028736Y055085D01*
X028795Y055144D01*
X028795Y055262D01*
X028736Y055321D01*
X028559Y055321D01*
X028921Y055262D02*
X028921Y055026D01*
X028980Y054967D01*
X029098Y054967D01*
X029157Y055026D01*
X029157Y055262D01*
X029098Y055321D01*
X028980Y055321D01*
X028921Y055262D01*
X029284Y055321D02*
X029284Y054967D01*
X029402Y055085D01*
X029520Y054967D01*
X029520Y055321D01*
X029646Y055321D02*
X029646Y054967D01*
X029882Y054967D01*
X030009Y054967D02*
X030009Y055321D01*
X030186Y055321D01*
X030245Y055262D01*
X030245Y055144D01*
X030186Y055085D01*
X030009Y055085D01*
X030127Y055085D02*
X030245Y054967D01*
X029882Y055321D02*
X029646Y055321D01*
X029646Y055144D02*
X029764Y055144D01*
D12*
X012594Y057899D02*
X012594Y018529D01*
X038184Y018529D01*
X038184Y057899D01*
X012594Y057899D01*
X014011Y057506D02*
X014011Y055734D01*
X014759Y055143D02*
X015901Y055143D01*
X015901Y057506D01*
X015507Y057506D01*
X014405Y057506D01*
X014011Y057506D01*
X014365Y057899D02*
X015546Y057899D01*
X016137Y057506D02*
X016137Y056325D01*
X016924Y056325D01*
X017712Y056325D02*
X018499Y056325D01*
X018499Y057506D01*
X017751Y057506D01*
X016885Y057506D02*
X016137Y057506D01*
X016255Y055143D02*
X015901Y055143D01*
X016255Y055143D02*
X016255Y051049D01*
X016255Y051010D01*
X015153Y050419D02*
X013657Y050419D01*
X013657Y054553D01*
X015350Y047781D02*
X019444Y047781D01*
X019483Y047781D01*
X020074Y046679D02*
X020074Y045183D01*
X015940Y045183D01*
X014759Y045537D02*
X012987Y045537D01*
X012987Y045931D01*
X012987Y047033D01*
X012987Y047427D01*
X015350Y047427D01*
X015350Y046285D01*
X015350Y047427D02*
X015350Y047781D01*
X012594Y047073D02*
X012594Y045891D01*
X017456Y044336D02*
X017456Y042565D01*
X019228Y042565D01*
X019228Y044336D01*
X017456Y044336D01*
X019897Y042525D02*
X019897Y040793D01*
X021235Y040793D01*
X021235Y042525D01*
X019897Y042525D01*
X021708Y041541D02*
X021708Y040990D01*
X021964Y040990D01*
X021964Y041541D02*
X021708Y041541D01*
X022594Y041541D02*
X022850Y041541D01*
X022850Y040990D01*
X022594Y040990D01*
X023578Y042348D02*
X023578Y043136D01*
X024129Y043726D02*
X024287Y043726D01*
X024838Y043136D02*
X024838Y042348D01*
X025054Y042151D02*
X025054Y041502D01*
X024405Y041502D01*
X024287Y041758D02*
X024129Y041758D01*
X023696Y037624D02*
X023698Y037711D01*
X023704Y037797D01*
X023714Y037883D01*
X023728Y037969D01*
X023745Y038054D01*
X023767Y038138D01*
X023793Y038220D01*
X023822Y038302D01*
X023855Y038382D01*
X023891Y038461D01*
X023931Y038538D01*
X023975Y038612D01*
X024022Y038685D01*
X024072Y038756D01*
X024126Y038824D01*
X024182Y038890D01*
X024242Y038953D01*
X024304Y039013D01*
X024369Y039070D01*
X024437Y039125D01*
X024507Y039176D01*
X024579Y039223D01*
X024654Y039268D01*
X024730Y039309D01*
X024808Y039346D01*
X024888Y039380D01*
X024969Y039410D01*
X025052Y039437D01*
X025135Y039459D01*
X025220Y039478D01*
X025305Y039493D01*
X025391Y039504D01*
X025478Y039511D01*
X025564Y039514D01*
X025651Y039513D01*
X025738Y039508D01*
X025824Y039499D01*
X025909Y039486D01*
X025994Y039469D01*
X026079Y039449D01*
X026162Y039424D01*
X026244Y039396D01*
X026324Y039364D01*
X026403Y039328D01*
X026481Y039289D01*
X026556Y039246D01*
X026629Y039200D01*
X026700Y039150D01*
X026769Y039098D01*
X026836Y039042D01*
X026899Y038983D01*
X026960Y038922D01*
X027018Y038857D01*
X027073Y038790D01*
X027125Y038721D01*
X027174Y038649D01*
X027219Y038575D01*
X027261Y038499D01*
X027299Y038422D01*
X027334Y038342D01*
X027365Y038261D01*
X027393Y038179D01*
X027416Y038096D01*
X027436Y038011D01*
X027452Y037926D01*
X027464Y037840D01*
X027472Y037754D01*
X027476Y037667D01*
X027476Y037581D01*
X027472Y037494D01*
X027464Y037408D01*
X027452Y037322D01*
X027436Y037237D01*
X027416Y037152D01*
X027393Y037069D01*
X027365Y036987D01*
X027334Y036906D01*
X027299Y036826D01*
X027261Y036749D01*
X027219Y036673D01*
X027174Y036599D01*
X027125Y036527D01*
X027073Y036458D01*
X027018Y036391D01*
X026960Y036326D01*
X026899Y036265D01*
X026836Y036206D01*
X026769Y036150D01*
X026700Y036098D01*
X026629Y036048D01*
X026556Y036002D01*
X026481Y035959D01*
X026403Y035920D01*
X026324Y035884D01*
X026244Y035852D01*
X026162Y035824D01*
X026079Y035799D01*
X025994Y035779D01*
X025909Y035762D01*
X025824Y035749D01*
X025738Y035740D01*
X025651Y035735D01*
X025564Y035734D01*
X025478Y035737D01*
X025391Y035744D01*
X025305Y035755D01*
X025220Y035770D01*
X025135Y035789D01*
X025052Y035811D01*
X024969Y035838D01*
X024888Y035868D01*
X024808Y035902D01*
X024730Y035939D01*
X024654Y035980D01*
X024579Y036025D01*
X024507Y036072D01*
X024437Y036123D01*
X024369Y036178D01*
X024304Y036235D01*
X024242Y036295D01*
X024182Y036358D01*
X024126Y036424D01*
X024072Y036492D01*
X024022Y036563D01*
X023975Y036636D01*
X023931Y036710D01*
X023891Y036787D01*
X023855Y036866D01*
X023822Y036946D01*
X023793Y037028D01*
X023767Y037110D01*
X023745Y037194D01*
X023728Y037279D01*
X023714Y037365D01*
X023704Y037451D01*
X023698Y037537D01*
X023696Y037624D01*
X024680Y033844D02*
X021767Y033844D01*
X021767Y031561D01*
X024680Y031561D01*
X024680Y033844D01*
X027023Y033687D02*
X027023Y035458D01*
X027042Y035458D02*
X027948Y035458D01*
X028775Y035458D02*
X029641Y035458D01*
X029661Y035458D02*
X029661Y033746D01*
X028932Y032695D02*
X027751Y032695D01*
X026570Y028372D02*
X026570Y026797D01*
X020271Y026797D01*
X020271Y028372D01*
X026570Y028372D01*
X024208Y029159D02*
X021846Y029159D01*
X021846Y031128D01*
X024208Y031128D01*
X024208Y029159D01*
X025586Y025419D02*
X026570Y025419D01*
X026570Y022073D01*
X026570Y018726D01*
X020271Y018726D01*
X020271Y022073D01*
X020271Y025419D01*
X021255Y025419D01*
X019542Y025950D02*
X018893Y025950D01*
X019542Y025950D02*
X019542Y028962D01*
X019287Y029218D01*
X018893Y029218D01*
X016924Y029218D02*
X016531Y029218D01*
X016275Y028962D01*
X016275Y025950D01*
X016924Y025950D01*
X017515Y024710D02*
X017515Y023844D01*
X017515Y022663D02*
X017515Y021482D01*
X017515Y020301D02*
X017515Y018923D01*
X013972Y018923D01*
X013972Y020301D01*
X013972Y021482D02*
X013972Y022663D01*
X013972Y023844D02*
X013972Y024710D01*
X017515Y024710D01*
X013617Y029199D02*
X013224Y029199D01*
X013224Y029238D02*
X013617Y029238D01*
X013617Y029277D02*
X013224Y029277D01*
X013381Y032348D02*
X013381Y033057D01*
X014168Y032702D02*
X014170Y032741D01*
X014176Y032780D01*
X014186Y032818D01*
X014199Y032855D01*
X014216Y032890D01*
X014236Y032924D01*
X014260Y032955D01*
X014287Y032984D01*
X014316Y033010D01*
X014348Y033033D01*
X014382Y033053D01*
X014418Y033069D01*
X014455Y033081D01*
X014494Y033090D01*
X014533Y033095D01*
X014572Y033096D01*
X014611Y033093D01*
X014650Y033086D01*
X014687Y033075D01*
X014724Y033061D01*
X014759Y033043D01*
X014792Y033022D01*
X014823Y032997D01*
X014851Y032970D01*
X014876Y032940D01*
X014898Y032907D01*
X014917Y032873D01*
X014932Y032837D01*
X014944Y032799D01*
X014952Y032761D01*
X014956Y032722D01*
X014956Y032682D01*
X014952Y032643D01*
X014944Y032605D01*
X014932Y032567D01*
X014917Y032531D01*
X014898Y032497D01*
X014876Y032464D01*
X014851Y032434D01*
X014823Y032407D01*
X014792Y032382D01*
X014759Y032361D01*
X014724Y032343D01*
X014687Y032329D01*
X014650Y032318D01*
X014611Y032311D01*
X014572Y032308D01*
X014533Y032309D01*
X014494Y032314D01*
X014455Y032323D01*
X014418Y032335D01*
X014382Y032351D01*
X014348Y032371D01*
X014316Y032394D01*
X014287Y032420D01*
X014260Y032449D01*
X014236Y032480D01*
X014216Y032514D01*
X014199Y032549D01*
X014186Y032586D01*
X014176Y032624D01*
X014170Y032663D01*
X014168Y032702D01*
X015743Y033057D02*
X015743Y032348D01*
X017731Y033411D02*
X017987Y033411D01*
X017731Y033411D02*
X017731Y033962D01*
X017987Y033962D01*
X018617Y033962D02*
X018873Y033962D01*
X018873Y033411D01*
X018617Y033411D01*
X019129Y036482D02*
X017869Y036482D01*
X017869Y036561D01*
X019129Y036561D02*
X019129Y036482D01*
X019129Y038687D02*
X017869Y038687D01*
X017869Y038726D01*
X019129Y038726D01*
X019129Y038687D01*
X019129Y038726D02*
X019129Y038765D01*
X017869Y038765D01*
X017869Y038726D01*
X022042Y045793D02*
X021649Y046187D01*
X021649Y050911D01*
X026767Y050911D01*
X026767Y045793D01*
X022042Y045793D01*
X022042Y046384D02*
X022044Y046411D01*
X022050Y046438D01*
X022059Y046464D01*
X022072Y046488D01*
X022088Y046511D01*
X022107Y046530D01*
X022129Y046547D01*
X022153Y046561D01*
X022178Y046571D01*
X022205Y046578D01*
X022232Y046581D01*
X022260Y046580D01*
X022287Y046575D01*
X022313Y046567D01*
X022337Y046555D01*
X022360Y046539D01*
X022381Y046521D01*
X022398Y046500D01*
X022413Y046476D01*
X022424Y046451D01*
X022432Y046425D01*
X022436Y046398D01*
X022436Y046370D01*
X022432Y046343D01*
X022424Y046317D01*
X022413Y046292D01*
X022398Y046268D01*
X022381Y046247D01*
X022360Y046229D01*
X022338Y046213D01*
X022313Y046201D01*
X022287Y046193D01*
X022260Y046188D01*
X022232Y046187D01*
X022205Y046190D01*
X022178Y046197D01*
X022153Y046207D01*
X022129Y046221D01*
X022107Y046238D01*
X022088Y046257D01*
X022072Y046280D01*
X022059Y046304D01*
X022050Y046330D01*
X022044Y046357D01*
X022042Y046384D01*
X023263Y052742D02*
X023972Y052742D01*
X023972Y053608D01*
X023263Y053608D01*
X023263Y052742D01*
X021334Y054199D02*
X021334Y055537D01*
X019602Y055537D01*
X019602Y054199D01*
X021334Y054199D01*
X021255Y056325D02*
X020468Y056325D01*
X021255Y056325D02*
X021255Y057506D01*
X020507Y057506D01*
X019641Y057506D02*
X018893Y057506D01*
X018893Y056325D01*
X019680Y056325D01*
X022791Y056915D02*
X022830Y056915D01*
X022968Y056915D01*
X022968Y057702D01*
X023007Y057702D01*
X023007Y056915D01*
X022968Y056915D01*
X022968Y057702D01*
X022830Y057702D01*
X022791Y057702D01*
X022830Y057702D01*
X022968Y057702D01*
X023007Y057702D01*
X023046Y057702D01*
X023046Y056915D01*
X023007Y056915D01*
X023007Y057702D01*
X023046Y057702D01*
X023046Y056915D01*
X023007Y056915D01*
X022968Y056915D01*
X022830Y056915D01*
X022791Y056915D01*
X022436Y057663D02*
X022438Y057689D01*
X022443Y057714D01*
X022451Y057738D01*
X022462Y057762D01*
X022477Y057783D01*
X022494Y057802D01*
X022513Y057819D01*
X022535Y057834D01*
X022558Y057845D01*
X022582Y057853D01*
X022607Y057858D01*
X022633Y057860D01*
X023420Y057860D01*
X023421Y057860D02*
X023449Y057852D01*
X023476Y057840D01*
X023502Y057826D01*
X023526Y057809D01*
X023547Y057789D01*
X023567Y057768D01*
X023584Y057744D01*
X023598Y057718D01*
X023610Y057691D01*
X023618Y057663D01*
X024601Y057663D02*
X024603Y057689D01*
X024608Y057714D01*
X024616Y057738D01*
X024627Y057762D01*
X024642Y057783D01*
X024659Y057802D01*
X024678Y057819D01*
X024700Y057834D01*
X024723Y057845D01*
X024747Y057853D01*
X024772Y057858D01*
X024798Y057860D01*
X025586Y057860D01*
X025614Y057852D01*
X025641Y057840D01*
X025667Y057826D01*
X025691Y057809D01*
X025712Y057789D01*
X025732Y057768D01*
X025749Y057744D01*
X025763Y057718D01*
X025775Y057691D01*
X025783Y057663D01*
X025212Y057702D02*
X025212Y056915D01*
X025172Y056915D01*
X025172Y057702D01*
X025212Y057702D01*
X025212Y056915D01*
X025172Y056915D01*
X025133Y056915D01*
X025133Y057702D01*
X025172Y057702D01*
X025172Y056915D01*
X025133Y056915D01*
X024995Y056915D01*
X024956Y056915D01*
X024995Y056915D01*
X025133Y056915D01*
X025133Y057702D01*
X024995Y057702D01*
X024956Y057702D01*
X024995Y057702D01*
X025133Y057702D01*
X025172Y057702D01*
X025212Y057702D01*
X026767Y057663D02*
X026769Y057689D01*
X026774Y057714D01*
X026782Y057738D01*
X026793Y057762D01*
X026808Y057783D01*
X026825Y057802D01*
X026844Y057819D01*
X026866Y057834D01*
X026889Y057845D01*
X026913Y057853D01*
X026938Y057858D01*
X026964Y057860D01*
X027751Y057860D01*
X027779Y057852D01*
X027806Y057840D01*
X027832Y057826D01*
X027856Y057809D01*
X027877Y057789D01*
X027897Y057768D01*
X027914Y057744D01*
X027928Y057718D01*
X027940Y057691D01*
X027948Y057663D01*
X027377Y057702D02*
X027377Y056915D01*
X027338Y056915D01*
X027338Y057702D01*
X027377Y057702D01*
X027377Y056915D01*
X027338Y056915D01*
X027298Y056915D01*
X027298Y057702D01*
X027338Y057702D01*
X027338Y056915D01*
X027298Y056915D01*
X027161Y056915D01*
X027121Y056915D01*
X027161Y056915D01*
X027298Y056915D01*
X027298Y057702D01*
X027161Y057702D01*
X027121Y057702D01*
X027161Y057702D01*
X027298Y057702D01*
X027338Y057702D01*
X027377Y057702D01*
X028932Y057663D02*
X028934Y057689D01*
X028939Y057714D01*
X028947Y057738D01*
X028958Y057762D01*
X028973Y057783D01*
X028990Y057802D01*
X029009Y057819D01*
X029031Y057834D01*
X029054Y057845D01*
X029078Y057853D01*
X029103Y057858D01*
X029129Y057860D01*
X029917Y057860D01*
X029945Y057852D01*
X029972Y057840D01*
X029998Y057826D01*
X030022Y057809D01*
X030043Y057789D01*
X030063Y057768D01*
X030080Y057744D01*
X030094Y057718D01*
X030106Y057691D01*
X030114Y057663D01*
X029542Y057702D02*
X029542Y056915D01*
X029503Y056915D01*
X029503Y057702D01*
X029542Y057702D01*
X029542Y056915D01*
X029503Y056915D01*
X029464Y056915D01*
X029464Y057702D01*
X029503Y057702D01*
X029503Y056915D01*
X029464Y056915D01*
X029326Y056915D01*
X029287Y056915D01*
X029326Y056915D01*
X029464Y056915D01*
X029464Y057702D01*
X029326Y057702D01*
X029287Y057702D01*
X029326Y057702D01*
X029464Y057702D01*
X029503Y057702D01*
X029542Y057702D01*
X032448Y057502D02*
X032448Y055336D01*
X036385Y055336D01*
X036385Y057502D01*
X032448Y057502D01*
X031688Y053667D02*
X031688Y052880D01*
X033657Y052880D01*
X033657Y053667D01*
X031688Y053667D01*
X031649Y049494D02*
X031255Y049494D01*
X030999Y049238D01*
X030999Y046226D01*
X031649Y046226D01*
X033617Y046226D02*
X034267Y046226D01*
X034267Y049238D01*
X034011Y049494D01*
X033617Y049494D01*
X034838Y048510D02*
X034582Y048254D01*
X034582Y045242D01*
X035231Y045242D01*
X037200Y045242D02*
X037850Y045242D01*
X037850Y048254D01*
X037594Y048510D01*
X037200Y048510D01*
X035231Y048510D02*
X034838Y048510D01*
X035428Y042466D02*
X034917Y041954D01*
X034917Y039868D01*
X035743Y039868D01*
X036688Y039868D02*
X037515Y039868D01*
X037515Y041954D01*
X037003Y042466D01*
X036688Y042466D01*
X035743Y042466D02*
X035428Y042466D01*
X032613Y039395D02*
X032613Y037683D01*
X031885Y036632D02*
X030704Y036632D01*
X029976Y037624D02*
X029976Y039395D01*
X029995Y039395D02*
X030901Y039395D01*
X030428Y040183D02*
X029917Y039671D01*
X027830Y039671D01*
X027830Y040498D01*
X027830Y041443D02*
X027830Y042269D01*
X029917Y042269D01*
X030428Y041758D01*
X030428Y041443D01*
X030428Y040498D02*
X030428Y040183D01*
X031728Y039395D02*
X032594Y039395D01*
X032515Y031915D02*
X033381Y031915D01*
X033401Y031915D02*
X033401Y030202D01*
X032672Y029151D02*
X031491Y029151D01*
X030763Y030143D02*
X030763Y031915D01*
X030783Y031915D02*
X031688Y031915D01*
X031865Y025773D02*
X031865Y020734D01*
X032180Y020734D01*
X031314Y020734D02*
X031314Y025773D01*
X031078Y025773D01*
X031865Y025773D02*
X032180Y025773D01*
X035409Y025773D02*
X035645Y025773D01*
X035645Y020734D01*
X035330Y020734D01*
X031314Y020734D02*
X030999Y020734D01*
X027850Y020734D02*
X027535Y020734D01*
X027535Y025773D01*
X027850Y025773D01*
X027653Y053155D02*
X027298Y053155D01*
X027298Y053785D01*
X027653Y053785D01*
X027298Y053785D02*
X027259Y053785D01*
X027259Y053155D01*
X027298Y053155D01*
X027259Y053155D02*
X027220Y053155D01*
X027220Y053785D01*
X027259Y053785D01*
D13*
X027200Y043490D02*
X027200Y042939D01*
D14*
X027392Y042745D02*
X027440Y042793D01*
X027634Y042600D01*
X027682Y042648D01*
X027682Y042745D01*
X027634Y042793D01*
X027440Y042793D01*
X027392Y042745D02*
X027392Y042648D01*
X027440Y042600D01*
X027634Y042600D01*
X027682Y042499D02*
X027682Y042305D01*
X027682Y042402D02*
X027392Y042402D01*
X027489Y042305D01*
X027440Y042204D02*
X027392Y042156D01*
X027392Y042059D01*
X027440Y042011D01*
X027634Y042011D01*
X027682Y042059D01*
X027682Y042156D01*
X027634Y042204D01*
X026620Y042254D02*
X026571Y042206D01*
X026475Y042206D01*
X026426Y042254D01*
X026620Y042448D01*
X026620Y042254D01*
X026620Y042448D02*
X026571Y042496D01*
X026475Y042496D01*
X026426Y042448D01*
X026426Y042254D01*
X026325Y042206D02*
X026132Y042206D01*
X026228Y042206D02*
X026228Y042496D01*
X026132Y042399D01*
X026031Y042351D02*
X025982Y042302D01*
X025837Y042302D01*
X025837Y042206D02*
X025837Y042496D01*
X025982Y042496D01*
X026031Y042448D01*
X026031Y042351D01*
X025934Y042302D02*
X026031Y042206D01*
X025224Y041074D02*
X025224Y041025D01*
X025031Y040832D01*
X025031Y040783D01*
X024929Y040832D02*
X024881Y040783D01*
X024736Y040783D01*
X024736Y041074D01*
X024881Y041074D01*
X024929Y041025D01*
X024929Y040977D01*
X024881Y040928D01*
X024736Y040928D01*
X024881Y040928D02*
X024929Y040880D01*
X024929Y040832D01*
X024881Y040680D02*
X024929Y040631D01*
X024929Y040583D01*
X024881Y040535D01*
X024736Y040535D01*
X024736Y040680D02*
X024881Y040680D01*
X024736Y040680D02*
X024736Y040390D01*
X024881Y040390D01*
X024929Y040438D01*
X024929Y040486D01*
X024881Y040535D01*
X025031Y040583D02*
X025031Y040631D01*
X025079Y040680D01*
X025176Y040680D01*
X025224Y040631D01*
X025224Y040583D01*
X025176Y040535D01*
X025079Y040535D01*
X025031Y040583D01*
X025079Y040535D02*
X025031Y040486D01*
X025031Y040438D01*
X025079Y040390D01*
X025176Y040390D01*
X025224Y040438D01*
X025224Y040486D01*
X025176Y040535D01*
X025224Y041074D02*
X025031Y041074D01*
X024635Y041074D02*
X024441Y041074D01*
X024441Y040783D01*
X024441Y040680D02*
X024635Y040680D01*
X024538Y040535D02*
X024441Y040535D01*
X024441Y040390D02*
X024441Y040680D01*
X024441Y040928D02*
X024538Y040928D01*
X024514Y041143D02*
X024514Y041433D01*
X024417Y041336D01*
X024417Y041143D02*
X024611Y041143D01*
X024316Y041143D02*
X024123Y041143D01*
X024123Y041433D01*
X024021Y041336D02*
X024021Y041143D01*
X024021Y041288D02*
X023828Y041288D01*
X023828Y041336D02*
X023925Y041433D01*
X024021Y041336D01*
X023828Y041336D02*
X023828Y041143D01*
X023630Y041143D02*
X023630Y041433D01*
X023533Y041433D02*
X023727Y041433D01*
X023432Y041433D02*
X023239Y041143D01*
X023432Y041143D02*
X023239Y041433D01*
X023160Y041576D02*
X023209Y041624D01*
X023209Y041721D01*
X023160Y041769D01*
X023160Y041870D02*
X023209Y041919D01*
X023209Y042016D01*
X023160Y042064D01*
X023112Y042064D01*
X023063Y042016D01*
X023063Y041967D01*
X023063Y042016D02*
X023015Y042064D01*
X022967Y042064D01*
X022918Y042016D01*
X022918Y041919D01*
X022967Y041870D01*
X022967Y041769D02*
X022918Y041721D01*
X022918Y041624D01*
X022967Y041576D01*
X023160Y041576D01*
X022783Y040857D02*
X022590Y040857D01*
X022590Y040712D01*
X022686Y040760D01*
X022735Y040760D01*
X022783Y040712D01*
X022783Y040615D01*
X022735Y040567D01*
X022638Y040567D01*
X022590Y040615D01*
X022488Y040615D02*
X022488Y040809D01*
X022440Y040857D01*
X022295Y040857D01*
X022295Y040567D01*
X022440Y040567D01*
X022488Y040615D01*
X022194Y040567D02*
X022000Y040567D01*
X022000Y040857D01*
X022194Y040857D01*
X022097Y040712D02*
X022000Y040712D01*
X021899Y040567D02*
X021706Y040567D01*
X021706Y040857D01*
X021071Y040730D02*
X021022Y040778D01*
X020925Y040778D01*
X020877Y040730D01*
X020776Y040778D02*
X020776Y040536D01*
X020727Y040488D01*
X020631Y040488D01*
X020582Y040536D01*
X020582Y040778D01*
X020877Y040488D02*
X021071Y040682D01*
X021071Y040730D01*
X021071Y040488D02*
X020877Y040488D01*
X021422Y042206D02*
X021422Y042351D01*
X021471Y042399D01*
X021567Y042399D01*
X021616Y042351D01*
X021616Y042206D01*
X021616Y042302D02*
X021713Y042399D01*
X021713Y042500D02*
X021713Y042694D01*
X021713Y042597D02*
X021422Y042597D01*
X021519Y042500D01*
X021422Y042206D02*
X021713Y042206D01*
X021713Y042795D02*
X021664Y042795D01*
X021471Y042988D01*
X021422Y042988D01*
X021422Y042795D01*
X021049Y043186D02*
X021049Y043380D01*
X021001Y043428D01*
X020904Y043428D01*
X020855Y043380D01*
X020855Y043331D01*
X020904Y043283D01*
X021049Y043283D01*
X021049Y043186D02*
X021001Y043138D01*
X020904Y043138D01*
X020855Y043186D01*
X020754Y043283D02*
X020561Y043283D01*
X020706Y043428D01*
X020706Y043138D01*
X020460Y043186D02*
X020411Y043138D01*
X020315Y043138D01*
X020266Y043186D01*
X020266Y043380D01*
X020315Y043428D01*
X020411Y043428D01*
X020460Y043380D01*
X021034Y044036D02*
X021034Y044327D01*
X021179Y044327D01*
X021227Y044278D01*
X021227Y044181D01*
X021179Y044133D01*
X021034Y044133D01*
X021131Y044133D02*
X021227Y044036D01*
X021329Y044085D02*
X021377Y044036D01*
X021474Y044036D01*
X021522Y044085D01*
X021522Y044133D01*
X021474Y044181D01*
X021425Y044181D01*
X021474Y044181D02*
X021522Y044230D01*
X021522Y044278D01*
X021474Y044327D01*
X021377Y044327D01*
X021329Y044278D01*
X021286Y044942D02*
X021092Y044942D01*
X021189Y044942D02*
X021189Y045232D01*
X021092Y045135D01*
X020991Y045184D02*
X020943Y045232D01*
X020846Y045232D01*
X020798Y045184D01*
X020798Y044990D01*
X020846Y044942D01*
X020943Y044942D01*
X020991Y044990D01*
X021387Y044990D02*
X021435Y044942D01*
X021532Y044942D01*
X021580Y044990D01*
X021580Y045039D01*
X021532Y045087D01*
X021387Y045087D01*
X021387Y044990D01*
X021387Y045087D02*
X021484Y045184D01*
X021580Y045232D01*
X022224Y043323D02*
X022176Y043274D01*
X022176Y043081D01*
X022224Y043032D01*
X022321Y043032D01*
X022369Y043081D01*
X022470Y043032D02*
X022664Y043226D01*
X022664Y043274D01*
X022615Y043323D01*
X022519Y043323D01*
X022470Y043274D01*
X022369Y043274D02*
X022321Y043323D01*
X022224Y043323D01*
X022470Y043032D02*
X022664Y043032D01*
X022765Y043178D02*
X022958Y043178D01*
X022910Y043323D02*
X022765Y043178D01*
X022910Y043032D02*
X022910Y043323D01*
X023239Y044095D02*
X023239Y044386D01*
X023384Y044386D01*
X023432Y044337D01*
X023432Y044241D01*
X023384Y044192D01*
X023239Y044192D01*
X023335Y044192D02*
X023432Y044095D01*
X023533Y044144D02*
X023582Y044095D01*
X023678Y044095D01*
X023727Y044144D01*
X023727Y044192D01*
X023678Y044241D01*
X023630Y044241D01*
X023678Y044241D02*
X023727Y044289D01*
X023727Y044337D01*
X023678Y044386D01*
X023582Y044386D01*
X023533Y044337D01*
X023828Y044289D02*
X023925Y044386D01*
X023925Y044095D01*
X024021Y044095D02*
X023828Y044095D01*
X023727Y044647D02*
X023533Y044647D01*
X023630Y044647D02*
X023630Y044937D01*
X023533Y044840D01*
X023432Y044792D02*
X023384Y044743D01*
X023239Y044743D01*
X023335Y044743D02*
X023432Y044647D01*
X023432Y044792D02*
X023432Y044888D01*
X023384Y044937D01*
X023239Y044937D01*
X023239Y044647D01*
X023828Y044792D02*
X024021Y044792D01*
X023973Y044937D02*
X023828Y044792D01*
X023973Y044647D02*
X023973Y044937D01*
X024481Y044883D02*
X024481Y044690D01*
X024529Y044642D01*
X024626Y044642D01*
X024674Y044690D01*
X024775Y044642D02*
X024969Y044642D01*
X024872Y044642D02*
X024872Y044932D01*
X024775Y044835D01*
X024674Y044883D02*
X024626Y044932D01*
X024529Y044932D01*
X024481Y044883D01*
X024488Y044307D02*
X024439Y044259D01*
X024439Y044065D01*
X024488Y044017D01*
X024585Y044017D01*
X024633Y044065D01*
X024734Y044017D02*
X024928Y044017D01*
X024831Y044017D02*
X024831Y044307D01*
X024734Y044210D01*
X024633Y044259D02*
X024585Y044307D01*
X024488Y044307D01*
X025029Y044259D02*
X025077Y044307D01*
X025174Y044307D01*
X025222Y044259D01*
X025222Y044210D01*
X025029Y044017D01*
X025222Y044017D01*
X025215Y044642D02*
X025118Y044642D01*
X025070Y044690D01*
X025167Y044787D02*
X025215Y044787D01*
X025263Y044738D01*
X025263Y044690D01*
X025215Y044642D01*
X025215Y044787D02*
X025263Y044835D01*
X025263Y044883D01*
X025215Y044932D01*
X025118Y044932D01*
X025070Y044883D01*
X025807Y043598D02*
X025758Y043550D01*
X025758Y043356D01*
X025807Y043308D01*
X025903Y043308D01*
X025952Y043356D01*
X026053Y043308D02*
X026246Y043502D01*
X026246Y043550D01*
X026198Y043598D01*
X026101Y043598D01*
X026053Y043550D01*
X025952Y043550D02*
X025903Y043598D01*
X025807Y043598D01*
X026053Y043308D02*
X026246Y043308D01*
X027068Y044799D02*
X027165Y044799D01*
X027213Y044847D01*
X027315Y044799D02*
X027508Y044799D01*
X027411Y044799D02*
X027411Y045089D01*
X027315Y044993D01*
X027213Y045041D02*
X027165Y045089D01*
X027068Y045089D01*
X027020Y045041D01*
X027020Y044847D01*
X027068Y044799D01*
X027609Y044799D02*
X027803Y044799D01*
X027706Y044799D02*
X027706Y045089D01*
X027609Y044993D01*
X028170Y044841D02*
X028170Y044647D01*
X028218Y044599D01*
X028315Y044599D01*
X028363Y044647D01*
X028464Y044647D02*
X028513Y044599D01*
X028609Y044599D01*
X028658Y044647D01*
X028658Y044744D01*
X028609Y044792D01*
X028561Y044792D01*
X028464Y044744D01*
X028464Y044889D01*
X028658Y044889D01*
X028759Y044889D02*
X028759Y044744D01*
X028856Y044792D01*
X028904Y044792D01*
X028953Y044744D01*
X028953Y044647D01*
X028904Y044599D01*
X028807Y044599D01*
X028759Y044647D01*
X028759Y044889D02*
X028953Y044889D01*
X028966Y045080D02*
X029160Y045273D01*
X029160Y045322D01*
X029111Y045370D01*
X029015Y045370D01*
X028966Y045322D01*
X028865Y045322D02*
X028817Y045370D01*
X028720Y045370D01*
X028672Y045322D01*
X028672Y045128D01*
X028720Y045080D01*
X028817Y045080D01*
X028865Y045128D01*
X028966Y045080D02*
X029160Y045080D01*
X029261Y045128D02*
X029454Y045322D01*
X029406Y045370D01*
X029309Y045370D01*
X029261Y045322D01*
X029261Y045128D01*
X029309Y045080D01*
X029406Y045080D01*
X029454Y045128D01*
X029454Y045322D01*
X030138Y045716D02*
X030138Y046007D01*
X030283Y046007D01*
X030332Y045958D01*
X030332Y045862D01*
X030283Y045813D01*
X030138Y045813D01*
X030235Y045813D02*
X030332Y045716D01*
X030433Y045765D02*
X030481Y045716D01*
X030578Y045716D01*
X030626Y045765D01*
X030626Y045862D01*
X030578Y045910D01*
X030530Y045910D01*
X030433Y045862D01*
X030433Y046007D01*
X030626Y046007D01*
X030728Y046007D02*
X030728Y045862D01*
X030824Y045910D01*
X030873Y045910D01*
X030921Y045862D01*
X030921Y045765D01*
X030873Y045716D01*
X030776Y045716D01*
X030728Y045765D01*
X030728Y046007D02*
X030921Y046007D01*
X031289Y045200D02*
X031241Y045151D01*
X031241Y044958D01*
X031289Y044909D01*
X031386Y044909D01*
X031434Y044958D01*
X031535Y044958D02*
X031584Y044909D01*
X031680Y044909D01*
X031729Y044958D01*
X031729Y045006D01*
X031680Y045055D01*
X031535Y045055D01*
X031535Y044958D01*
X031535Y045055D02*
X031632Y045151D01*
X031729Y045200D01*
X031830Y045055D02*
X032023Y045055D01*
X031975Y045200D02*
X031830Y045055D01*
X031975Y044909D02*
X031975Y045200D01*
X031434Y045151D02*
X031386Y045200D01*
X031289Y045200D01*
X032380Y043953D02*
X032380Y043760D01*
X032525Y043760D01*
X032477Y043856D01*
X032477Y043905D01*
X032525Y043953D01*
X032622Y043953D01*
X032670Y043905D01*
X032670Y043808D01*
X032622Y043760D01*
X032622Y043658D02*
X032573Y043658D01*
X032525Y043610D01*
X032525Y043465D01*
X032622Y043465D01*
X032670Y043513D01*
X032670Y043610D01*
X032622Y043658D01*
X032428Y043562D02*
X032525Y043465D01*
X032428Y043562D02*
X032380Y043658D01*
X032428Y043364D02*
X032380Y043315D01*
X032380Y043219D01*
X032428Y043170D01*
X032622Y043170D01*
X032670Y043219D01*
X032670Y043315D01*
X032622Y043364D01*
X033443Y043394D02*
X033443Y043297D01*
X033491Y043249D01*
X033685Y043249D01*
X033733Y043297D01*
X033733Y043394D01*
X033685Y043442D01*
X033685Y043544D02*
X033733Y043592D01*
X033733Y043689D01*
X033685Y043737D01*
X033636Y043737D01*
X033588Y043689D01*
X033588Y043544D01*
X033685Y043544D01*
X033588Y043544D02*
X033491Y043640D01*
X033443Y043737D01*
X033588Y043838D02*
X033588Y043983D01*
X033636Y044032D01*
X033685Y044032D01*
X033733Y043983D01*
X033733Y043887D01*
X033685Y043838D01*
X033588Y043838D01*
X033491Y043935D01*
X033443Y044032D01*
X033491Y043442D02*
X033443Y043394D01*
X033090Y041059D02*
X033090Y040866D01*
X032897Y041059D01*
X032849Y041059D01*
X032800Y041011D01*
X032800Y040914D01*
X032849Y040866D01*
X032849Y040765D02*
X032800Y040716D01*
X032800Y040620D01*
X032849Y040571D01*
X032849Y040470D02*
X032800Y040422D01*
X032800Y040325D01*
X032849Y040277D01*
X033042Y040277D01*
X033090Y040325D01*
X033090Y040422D01*
X033042Y040470D01*
X033090Y040571D02*
X032897Y040765D01*
X032849Y040765D01*
X033090Y040765D02*
X033090Y040571D01*
X032988Y039664D02*
X032795Y039664D01*
X032746Y039615D01*
X032746Y039518D01*
X032795Y039470D01*
X032843Y039470D01*
X032891Y039518D01*
X032891Y039664D01*
X032988Y039664D02*
X033036Y039615D01*
X033036Y039518D01*
X032988Y039470D01*
X032988Y039369D02*
X032746Y039369D01*
X032746Y039175D02*
X032988Y039175D01*
X033036Y039224D01*
X033036Y039321D01*
X032988Y039369D01*
X031949Y039577D02*
X031900Y039528D01*
X031707Y039528D01*
X031659Y039577D01*
X031659Y039674D01*
X031707Y039722D01*
X031707Y039823D02*
X031659Y039872D01*
X031659Y039968D01*
X031707Y040017D01*
X031755Y040017D01*
X031804Y039968D01*
X031852Y040017D01*
X031900Y040017D01*
X031949Y039968D01*
X031949Y039872D01*
X031900Y039823D01*
X031900Y039722D02*
X031949Y039674D01*
X031949Y039577D01*
X031804Y039920D02*
X031804Y039968D01*
X031804Y040118D02*
X031755Y040215D01*
X031755Y040263D01*
X031804Y040311D01*
X031900Y040311D01*
X031949Y040263D01*
X031949Y040166D01*
X031900Y040118D01*
X031804Y040118D02*
X031659Y040118D01*
X031659Y040311D01*
X031756Y040385D02*
X031804Y040433D01*
X031804Y040530D01*
X031756Y040578D01*
X031756Y040679D02*
X031804Y040728D01*
X031804Y040825D01*
X031756Y040873D01*
X031707Y040873D01*
X031659Y040825D01*
X031659Y040679D01*
X031756Y040679D01*
X031659Y040679D02*
X031562Y040776D01*
X031514Y040873D01*
X031562Y040974D02*
X031514Y041022D01*
X031514Y041119D01*
X031562Y041168D01*
X031611Y041168D01*
X031804Y040974D01*
X031804Y041168D01*
X031562Y040578D02*
X031514Y040530D01*
X031514Y040433D01*
X031562Y040385D01*
X031756Y040385D01*
X030931Y039895D02*
X030882Y039944D01*
X030786Y039944D01*
X030737Y039895D01*
X030636Y039895D02*
X030636Y039847D01*
X030588Y039799D01*
X030636Y039750D01*
X030636Y039702D01*
X030588Y039653D01*
X030491Y039653D01*
X030443Y039702D01*
X030342Y039653D02*
X030245Y039750D01*
X030293Y039750D02*
X030148Y039750D01*
X030148Y039653D02*
X030148Y039944D01*
X030293Y039944D01*
X030342Y039895D01*
X030342Y039799D01*
X030293Y039750D01*
X030443Y039895D02*
X030491Y039944D01*
X030588Y039944D01*
X030636Y039895D01*
X030588Y039799D02*
X030539Y039799D01*
X030737Y039653D02*
X030931Y039847D01*
X030931Y039895D01*
X030931Y039653D02*
X030737Y039653D01*
X030948Y042359D02*
X030997Y042359D01*
X031045Y042408D01*
X031045Y042649D01*
X030997Y042649D02*
X031094Y042649D01*
X031195Y042601D02*
X031243Y042649D01*
X031340Y042649D01*
X031388Y042601D01*
X031388Y042553D01*
X031340Y042504D01*
X031388Y042456D01*
X031388Y042408D01*
X031340Y042359D01*
X031243Y042359D01*
X031195Y042408D01*
X031291Y042504D02*
X031340Y042504D01*
X030948Y042359D02*
X030900Y042408D01*
X029691Y042403D02*
X029497Y042403D01*
X029691Y042596D01*
X029691Y042644D01*
X029642Y042693D01*
X029546Y042693D01*
X029497Y042644D01*
X029396Y042644D02*
X029396Y042596D01*
X029348Y042548D01*
X029396Y042499D01*
X029396Y042451D01*
X029348Y042403D01*
X029251Y042403D01*
X029203Y042451D01*
X029101Y042451D02*
X029053Y042403D01*
X028956Y042403D01*
X028908Y042451D01*
X028908Y042644D01*
X028956Y042693D01*
X029053Y042693D01*
X029101Y042644D01*
X029203Y042644D02*
X029251Y042693D01*
X029348Y042693D01*
X029396Y042644D01*
X029348Y042548D02*
X029299Y042548D01*
X029300Y043497D02*
X029252Y043545D01*
X029300Y043497D02*
X029397Y043497D01*
X029445Y043545D01*
X029445Y043642D01*
X029397Y043690D01*
X029349Y043690D01*
X029252Y043642D01*
X029252Y043787D01*
X029445Y043787D01*
X029546Y043642D02*
X029692Y043642D01*
X029740Y043593D01*
X029740Y043545D01*
X029692Y043497D01*
X029595Y043497D01*
X029546Y043545D01*
X029546Y043642D01*
X029643Y043738D01*
X029740Y043787D01*
X029151Y043738D02*
X029102Y043787D01*
X029005Y043787D01*
X028957Y043738D01*
X028957Y043545D01*
X029005Y043497D01*
X029102Y043497D01*
X029151Y043545D01*
X028363Y044841D02*
X028315Y044889D01*
X028218Y044889D01*
X028170Y044841D01*
X028218Y046300D02*
X028412Y046494D01*
X028412Y046542D01*
X028363Y046590D01*
X028267Y046590D01*
X028218Y046542D01*
X028117Y046542D02*
X028069Y046590D01*
X027972Y046590D01*
X027924Y046542D01*
X027924Y046349D01*
X027972Y046300D01*
X028069Y046300D01*
X028117Y046349D01*
X028218Y046300D02*
X028412Y046300D01*
X028513Y046300D02*
X028706Y046300D01*
X028610Y046300D02*
X028610Y046590D01*
X028513Y046494D01*
X029014Y047097D02*
X029014Y047243D01*
X029062Y047291D01*
X029159Y047291D01*
X029207Y047243D01*
X029207Y047097D01*
X029304Y047097D02*
X029014Y047097D01*
X029207Y047194D02*
X029304Y047291D01*
X029256Y047392D02*
X029304Y047440D01*
X029304Y047537D01*
X029256Y047586D01*
X029159Y047586D01*
X029111Y047537D01*
X029111Y047489D01*
X029159Y047392D01*
X029014Y047392D01*
X029014Y047586D01*
X029159Y047687D02*
X029159Y047880D01*
X029304Y047832D02*
X029014Y047832D01*
X029159Y047687D01*
X027972Y048014D02*
X027972Y048136D01*
X027912Y048196D01*
X027972Y048316D02*
X027608Y048316D01*
X027972Y048559D01*
X027608Y048559D01*
X027730Y048679D02*
X027608Y048800D01*
X027972Y048800D01*
X027972Y048679D02*
X027972Y048921D01*
X027972Y049041D02*
X027972Y049284D01*
X027972Y049163D02*
X027608Y049163D01*
X027730Y049041D01*
X027669Y048196D02*
X027608Y048136D01*
X027608Y048014D01*
X027669Y047954D01*
X027912Y047954D01*
X027972Y048014D01*
X027911Y050591D02*
X027815Y050591D01*
X027766Y050640D01*
X027766Y050833D01*
X027815Y050882D01*
X027911Y050882D01*
X027960Y050833D01*
X028061Y050882D02*
X028061Y050737D01*
X028158Y050785D01*
X028206Y050785D01*
X028254Y050737D01*
X028254Y050640D01*
X028206Y050591D01*
X028109Y050591D01*
X028061Y050640D01*
X027960Y050640D02*
X027911Y050591D01*
X028061Y050882D02*
X028254Y050882D01*
X028355Y050833D02*
X028404Y050882D01*
X028501Y050882D01*
X028549Y050833D01*
X028549Y050785D01*
X028355Y050591D01*
X028549Y050591D01*
X029065Y051497D02*
X029065Y051787D01*
X029210Y051787D01*
X029259Y051739D01*
X029259Y051642D01*
X029210Y051594D01*
X029065Y051594D01*
X029162Y051594D02*
X029259Y051497D01*
X029360Y051545D02*
X029408Y051497D01*
X029505Y051497D01*
X029554Y051545D01*
X029554Y051642D01*
X029505Y051690D01*
X029457Y051690D01*
X029360Y051642D01*
X029360Y051787D01*
X029554Y051787D01*
X029445Y052048D02*
X029494Y052097D01*
X029494Y052145D01*
X029445Y052193D01*
X029397Y052193D01*
X029445Y052193D02*
X029494Y052242D01*
X029494Y052290D01*
X029445Y052338D01*
X029349Y052338D01*
X029300Y052290D01*
X029199Y052338D02*
X029006Y052338D01*
X029006Y052193D01*
X029102Y052242D01*
X029151Y052242D01*
X029199Y052193D01*
X029199Y052097D01*
X029151Y052048D01*
X029054Y052048D01*
X029006Y052097D01*
X028905Y052097D02*
X028856Y052048D01*
X028759Y052048D01*
X028711Y052097D01*
X028711Y052290D01*
X028759Y052338D01*
X028856Y052338D01*
X028905Y052290D01*
X028865Y052442D02*
X028768Y052539D01*
X028817Y052539D02*
X028672Y052539D01*
X028672Y052442D02*
X028672Y052732D01*
X028817Y052732D01*
X028865Y052684D01*
X028865Y052587D01*
X028817Y052539D01*
X028966Y052587D02*
X029160Y052587D01*
X029111Y052442D02*
X029111Y052732D01*
X028966Y052587D01*
X029300Y052097D02*
X029349Y052048D01*
X029445Y052048D01*
X030027Y052780D02*
X029979Y052829D01*
X030027Y052780D02*
X030076Y052780D01*
X030124Y052829D01*
X030124Y053071D01*
X030076Y053071D02*
X030172Y053071D01*
X030273Y052974D02*
X030370Y053071D01*
X030370Y052780D01*
X030273Y052780D02*
X030467Y052780D01*
X030989Y052793D02*
X031231Y052793D01*
X031279Y052744D01*
X031279Y052648D01*
X031231Y052599D01*
X030989Y052599D01*
X031038Y052894D02*
X031086Y052894D01*
X031134Y052942D01*
X031134Y053039D01*
X031183Y053088D01*
X031231Y053088D01*
X031279Y053039D01*
X031279Y052942D01*
X031231Y052894D01*
X031183Y052894D01*
X031134Y052942D01*
X031134Y053039D02*
X031086Y053088D01*
X031038Y053088D01*
X030989Y053039D01*
X030989Y052942D01*
X031038Y052894D01*
X032139Y051502D02*
X032139Y051309D01*
X032139Y051208D02*
X032139Y051014D01*
X032284Y051014D01*
X032236Y051111D01*
X032236Y051159D01*
X032284Y051208D01*
X032381Y051208D01*
X032429Y051159D01*
X032429Y051062D01*
X032381Y051014D01*
X032381Y050913D02*
X032429Y050865D01*
X032429Y050768D01*
X032381Y050719D01*
X032188Y050719D01*
X032139Y050768D01*
X032139Y050865D01*
X032188Y050913D01*
X032381Y051309D02*
X032429Y051309D01*
X032381Y051309D02*
X032188Y051502D01*
X032139Y051502D01*
X033226Y051070D02*
X033226Y050973D01*
X033275Y050925D01*
X033275Y050824D02*
X033226Y050775D01*
X033226Y050679D01*
X033275Y050630D01*
X033275Y050529D02*
X033372Y050529D01*
X033420Y050481D01*
X033420Y050336D01*
X033420Y050432D02*
X033517Y050529D01*
X033517Y050630D02*
X033323Y050824D01*
X033275Y050824D01*
X033517Y050824D02*
X033517Y050630D01*
X033275Y050529D02*
X033226Y050481D01*
X033226Y050336D01*
X033517Y050336D01*
X033681Y049937D02*
X033632Y049888D01*
X033632Y049695D01*
X033681Y049647D01*
X033777Y049647D01*
X033826Y049695D01*
X033927Y049695D02*
X033975Y049647D01*
X034072Y049647D01*
X034120Y049695D01*
X034120Y049743D01*
X034072Y049792D01*
X033927Y049792D01*
X033927Y049695D01*
X033927Y049792D02*
X034024Y049888D01*
X034120Y049937D01*
X034222Y049888D02*
X034270Y049937D01*
X034367Y049937D01*
X034415Y049888D01*
X034222Y049695D01*
X034270Y049647D01*
X034367Y049647D01*
X034415Y049695D01*
X034415Y049888D01*
X034222Y049888D02*
X034222Y049695D01*
X033826Y049888D02*
X033777Y049937D01*
X033681Y049937D01*
X033517Y050925D02*
X033323Y051118D01*
X033275Y051118D01*
X033226Y051070D01*
X033517Y051118D02*
X033517Y050925D01*
X034533Y050933D02*
X034581Y050982D01*
X034678Y050982D01*
X034726Y050933D01*
X034726Y050788D01*
X034823Y050788D02*
X034533Y050788D01*
X034533Y050933D01*
X034533Y051083D02*
X034678Y051083D01*
X034629Y051180D01*
X034629Y051228D01*
X034678Y051276D01*
X034774Y051276D01*
X034823Y051228D01*
X034823Y051131D01*
X034774Y051083D01*
X034823Y050982D02*
X034726Y050885D01*
X034533Y051083D02*
X034533Y051276D01*
X034581Y051378D02*
X034533Y051426D01*
X034533Y051523D01*
X034581Y051571D01*
X034774Y051378D01*
X034823Y051426D01*
X034823Y051523D01*
X034774Y051571D01*
X034581Y051571D01*
X034581Y051378D02*
X034774Y051378D01*
X035832Y051129D02*
X035880Y051177D01*
X036074Y050984D01*
X036122Y051032D01*
X036122Y051129D01*
X036074Y051177D01*
X035880Y051177D01*
X035832Y051129D02*
X035832Y051032D01*
X035880Y050984D01*
X036074Y050984D01*
X035977Y050883D02*
X035977Y050689D01*
X035832Y050834D01*
X036122Y050834D01*
X036074Y050588D02*
X036122Y050540D01*
X036122Y050443D01*
X036074Y050395D01*
X035880Y050395D01*
X035832Y050443D01*
X035832Y050540D01*
X035880Y050588D01*
X035292Y049051D02*
X035195Y049051D01*
X035147Y049003D01*
X035147Y048954D01*
X035195Y048906D01*
X035340Y048906D01*
X035340Y049003D02*
X035292Y049051D01*
X035340Y049003D02*
X035340Y048809D01*
X035292Y048761D01*
X035195Y048761D01*
X035147Y048809D01*
X035046Y048809D02*
X034997Y048761D01*
X034901Y048761D01*
X034852Y048809D01*
X034751Y048809D02*
X034703Y048761D01*
X034606Y048761D01*
X034557Y048809D01*
X034557Y049003D01*
X034606Y049051D01*
X034703Y049051D01*
X034751Y049003D01*
X034852Y049003D02*
X034901Y049051D01*
X034997Y049051D01*
X035046Y049003D01*
X035046Y048954D01*
X034997Y048906D01*
X035046Y048858D01*
X035046Y048809D01*
X034997Y048906D02*
X034949Y048906D01*
X031403Y049833D02*
X031355Y049784D01*
X031258Y049784D01*
X031210Y049833D01*
X031210Y049930D02*
X031307Y049978D01*
X031355Y049978D01*
X031403Y049930D01*
X031403Y049833D01*
X031210Y049930D02*
X031210Y050075D01*
X031403Y050075D01*
X031012Y050075D02*
X031012Y049784D01*
X030915Y049784D02*
X031109Y049784D01*
X030915Y049978D02*
X031012Y050075D01*
X030814Y050026D02*
X030766Y050075D01*
X030669Y050075D01*
X030620Y050026D01*
X030620Y049833D01*
X030669Y049784D01*
X030766Y049784D01*
X030814Y049833D01*
X030656Y048716D02*
X030559Y048668D01*
X030462Y048571D01*
X030608Y048571D01*
X030656Y048523D01*
X030656Y048475D01*
X030608Y048426D01*
X030511Y048426D01*
X030462Y048475D01*
X030462Y048571D01*
X030361Y048571D02*
X030313Y048523D01*
X030168Y048523D01*
X030264Y048523D02*
X030361Y048426D01*
X030361Y048571D02*
X030361Y048668D01*
X030313Y048716D01*
X030168Y048716D01*
X030168Y048426D01*
X027270Y051320D02*
X027077Y051320D01*
X027173Y051320D02*
X027173Y051610D01*
X027077Y051513D01*
X026975Y051610D02*
X026975Y051368D01*
X026927Y051320D01*
X026830Y051320D01*
X026782Y051368D01*
X026782Y051610D01*
X025714Y052392D02*
X025666Y052343D01*
X025569Y052343D01*
X025521Y052392D01*
X025714Y052585D01*
X025714Y052392D01*
X025521Y052392D02*
X025521Y052585D01*
X025569Y052634D01*
X025666Y052634D01*
X025714Y052585D01*
X025420Y052585D02*
X025420Y052537D01*
X025371Y052489D01*
X025420Y052440D01*
X025420Y052392D01*
X025371Y052343D01*
X025275Y052343D01*
X025226Y052392D01*
X025125Y052343D02*
X025028Y052440D01*
X025077Y052440D02*
X024932Y052440D01*
X024932Y052343D02*
X024932Y052634D01*
X025077Y052634D01*
X025125Y052585D01*
X025125Y052489D01*
X025077Y052440D01*
X025226Y052585D02*
X025275Y052634D01*
X025371Y052634D01*
X025420Y052585D01*
X025371Y052489D02*
X025323Y052489D01*
X023777Y053780D02*
X023777Y054071D01*
X023632Y053926D01*
X023825Y053926D01*
X023531Y053829D02*
X023531Y054071D01*
X023337Y054071D02*
X023337Y053829D01*
X023385Y053780D01*
X023482Y053780D01*
X023531Y053829D01*
X022880Y054262D02*
X022831Y054214D01*
X022735Y054214D01*
X022686Y054262D01*
X022686Y054310D01*
X022735Y054359D01*
X022831Y054359D01*
X022880Y054310D01*
X022880Y054262D01*
X022831Y054359D02*
X022880Y054407D01*
X022880Y054455D01*
X022831Y054504D01*
X022735Y054504D01*
X022686Y054455D01*
X022686Y054407D01*
X022735Y054359D01*
X022585Y054407D02*
X022585Y054455D01*
X022537Y054504D01*
X022440Y054504D01*
X022392Y054455D01*
X022290Y054455D02*
X022290Y054359D01*
X022242Y054310D01*
X022097Y054310D01*
X022097Y054214D02*
X022097Y054504D01*
X022242Y054504D01*
X022290Y054455D01*
X022194Y054310D02*
X022290Y054214D01*
X022392Y054214D02*
X022585Y054407D01*
X022585Y054214D02*
X022392Y054214D01*
X021985Y054804D02*
X021889Y054804D01*
X021840Y054852D01*
X021739Y054852D02*
X021739Y055094D01*
X021840Y055046D02*
X021889Y055094D01*
X021985Y055094D01*
X022034Y055046D01*
X022034Y054998D01*
X021985Y054949D01*
X022034Y054901D01*
X022034Y054852D01*
X021985Y054804D01*
X021985Y054949D02*
X021937Y054949D01*
X021739Y054852D02*
X021691Y054804D01*
X021594Y054804D01*
X021546Y054852D01*
X021546Y055094D01*
X020312Y053441D02*
X020360Y053392D01*
X020166Y053199D01*
X020215Y053151D01*
X020312Y053151D01*
X020360Y053199D01*
X020360Y053392D01*
X020312Y053441D02*
X020215Y053441D01*
X020166Y053392D01*
X020166Y053199D01*
X020065Y053151D02*
X019872Y053151D01*
X020065Y053344D01*
X020065Y053392D01*
X020017Y053441D01*
X019920Y053441D01*
X019872Y053392D01*
X019771Y053392D02*
X019771Y053296D01*
X019722Y053247D01*
X019577Y053247D01*
X019577Y053151D02*
X019577Y053441D01*
X019722Y053441D01*
X019771Y053392D01*
X019674Y053247D02*
X019771Y053151D01*
X019762Y052614D02*
X019665Y052614D01*
X019617Y052566D01*
X019617Y052372D01*
X019665Y052324D01*
X019762Y052324D01*
X019810Y052372D01*
X019911Y052324D02*
X020105Y052324D01*
X020008Y052324D02*
X020008Y052614D01*
X019911Y052517D01*
X019810Y052566D02*
X019762Y052614D01*
X020206Y052469D02*
X020399Y052469D01*
X020351Y052614D02*
X020206Y052469D01*
X020351Y052324D02*
X020351Y052614D01*
X020905Y052026D02*
X020856Y051977D01*
X020856Y051881D01*
X020905Y051832D01*
X020953Y051832D01*
X021002Y051881D01*
X021002Y051977D01*
X021050Y052026D01*
X021098Y052026D01*
X021147Y051977D01*
X021147Y051881D01*
X021098Y051832D01*
X021050Y051832D01*
X021002Y051881D01*
X021002Y051977D02*
X020953Y052026D01*
X020905Y052026D01*
X021147Y051731D02*
X021147Y051538D01*
X021147Y051634D02*
X020856Y051634D01*
X020953Y051538D01*
X020905Y051436D02*
X020856Y051388D01*
X020856Y051291D01*
X020905Y051243D01*
X021098Y051243D01*
X021147Y051291D01*
X021147Y051388D01*
X021098Y051436D01*
X021816Y052166D02*
X021816Y052311D01*
X021864Y052360D01*
X021961Y052360D01*
X022009Y052311D01*
X022009Y052166D01*
X022009Y052263D02*
X022106Y052360D01*
X022106Y052461D02*
X021913Y052654D01*
X021864Y052654D01*
X021816Y052606D01*
X021816Y052509D01*
X021864Y052461D01*
X022106Y052461D02*
X022106Y052654D01*
X022106Y052756D02*
X022058Y052756D01*
X021864Y052949D01*
X021816Y052949D01*
X021816Y052756D01*
X021816Y052166D02*
X022106Y052166D01*
X022287Y050366D02*
X022239Y050318D01*
X022239Y050269D01*
X022287Y050221D01*
X022384Y050221D01*
X022432Y050172D01*
X022432Y050124D01*
X022384Y050076D01*
X022287Y050076D01*
X022239Y050124D01*
X022287Y050366D02*
X022384Y050366D01*
X022432Y050318D01*
X022533Y050366D02*
X022727Y050366D01*
X022630Y050366D02*
X022630Y050076D01*
X022828Y050076D02*
X022828Y050366D01*
X022925Y050269D01*
X023021Y050366D01*
X023021Y050076D01*
X023123Y050124D02*
X023171Y050076D01*
X023268Y050076D01*
X023316Y050124D01*
X023316Y050172D01*
X023268Y050221D01*
X023219Y050221D01*
X023268Y050221D02*
X023316Y050269D01*
X023316Y050318D01*
X023268Y050366D01*
X023171Y050366D01*
X023123Y050318D01*
X023417Y050318D02*
X023466Y050366D01*
X023562Y050366D01*
X023611Y050318D01*
X023611Y050269D01*
X023417Y050076D01*
X023611Y050076D01*
X023712Y050076D02*
X023712Y050366D01*
X023905Y050366D01*
X023809Y050221D02*
X023712Y050221D01*
X024007Y050221D02*
X024200Y050221D01*
X024301Y050318D02*
X024350Y050366D01*
X024446Y050366D01*
X024495Y050318D01*
X024301Y050124D01*
X024350Y050076D01*
X024446Y050076D01*
X024495Y050124D01*
X024495Y050318D01*
X024596Y050366D02*
X024596Y050221D01*
X024693Y050269D01*
X024741Y050269D01*
X024789Y050221D01*
X024789Y050124D01*
X024741Y050076D01*
X024644Y050076D01*
X024596Y050124D01*
X024596Y050366D02*
X024789Y050366D01*
X024890Y050366D02*
X024890Y050172D01*
X024987Y050076D01*
X025084Y050172D01*
X025084Y050366D01*
X025185Y050318D02*
X025185Y050124D01*
X025233Y050076D01*
X025330Y050076D01*
X025379Y050124D01*
X025379Y050221D01*
X025282Y050221D01*
X025379Y050318D02*
X025330Y050366D01*
X025233Y050366D01*
X025185Y050318D01*
X025480Y050366D02*
X025673Y050366D01*
X025577Y050366D02*
X025577Y050076D01*
X025774Y050124D02*
X025823Y050076D01*
X025920Y050076D01*
X025968Y050124D01*
X025968Y050172D01*
X025920Y050221D01*
X025774Y050221D01*
X025774Y050124D01*
X025774Y050221D02*
X025871Y050318D01*
X025968Y050366D01*
X024301Y050318D02*
X024301Y050124D01*
X024152Y050076D02*
X024152Y050366D01*
X024007Y050221D01*
X020636Y050176D02*
X020587Y050225D01*
X020442Y050225D01*
X020442Y050128D01*
X020490Y050080D01*
X020587Y050080D01*
X020636Y050128D01*
X020636Y050176D01*
X020539Y050322D02*
X020442Y050225D01*
X020341Y050225D02*
X020341Y050128D01*
X020293Y050080D01*
X020196Y050080D01*
X020147Y050128D01*
X020147Y050225D02*
X020244Y050273D01*
X020293Y050273D01*
X020341Y050225D01*
X020341Y050370D02*
X020147Y050370D01*
X020147Y050225D01*
X020046Y050225D02*
X019998Y050176D01*
X019853Y050176D01*
X019853Y050080D02*
X019853Y050370D01*
X019998Y050370D01*
X020046Y050322D01*
X020046Y050225D01*
X019950Y050176D02*
X020046Y050080D01*
X019998Y049937D02*
X019901Y049937D01*
X019853Y049888D01*
X019853Y049695D01*
X019901Y049647D01*
X019998Y049647D01*
X020046Y049695D01*
X020147Y049695D02*
X020196Y049647D01*
X020293Y049647D01*
X020341Y049695D01*
X020341Y049792D01*
X020293Y049840D01*
X020244Y049840D01*
X020147Y049792D01*
X020147Y049937D01*
X020341Y049937D01*
X020442Y049840D02*
X020539Y049937D01*
X020539Y049647D01*
X020442Y049647D02*
X020636Y049647D01*
X020485Y049350D02*
X020437Y049350D01*
X020243Y049544D01*
X020195Y049544D01*
X020195Y049350D01*
X020195Y049249D02*
X020195Y049055D01*
X020340Y049055D01*
X020292Y049152D01*
X020292Y049201D01*
X020340Y049249D01*
X020437Y049249D01*
X020485Y049201D01*
X020485Y049104D01*
X020437Y049055D01*
X020485Y048954D02*
X020388Y048858D01*
X020388Y048906D02*
X020388Y048761D01*
X020485Y048761D02*
X020195Y048761D01*
X020195Y048906D01*
X020243Y048954D01*
X020340Y048954D01*
X020388Y048906D01*
X020353Y048520D02*
X020305Y048471D01*
X020353Y048520D02*
X020450Y048520D01*
X020498Y048471D01*
X020498Y048423D01*
X020305Y048229D01*
X020498Y048229D01*
X020204Y048229D02*
X020107Y048326D01*
X020155Y048326D02*
X020010Y048326D01*
X020010Y048229D02*
X020010Y048520D01*
X020155Y048520D01*
X020204Y048471D01*
X020204Y048374D01*
X020155Y048326D01*
X020046Y049888D02*
X019998Y049937D01*
X020539Y050322D02*
X020636Y050370D01*
X019606Y051270D02*
X019606Y051367D01*
X019558Y051415D01*
X019606Y051516D02*
X019606Y051710D01*
X019606Y051613D02*
X019316Y051613D01*
X019413Y051516D01*
X019364Y051415D02*
X019316Y051367D01*
X019316Y051270D01*
X019364Y051221D01*
X019558Y051221D01*
X019606Y051270D01*
X019140Y051266D02*
X019091Y051315D01*
X018994Y051315D01*
X018946Y051266D01*
X018946Y051218D01*
X018994Y051170D01*
X019140Y051170D01*
X019140Y051266D02*
X019140Y051073D01*
X019091Y051025D01*
X018994Y051025D01*
X018946Y051073D01*
X018845Y051025D02*
X018651Y051025D01*
X018748Y051025D02*
X018748Y051315D01*
X018651Y051218D01*
X018550Y051170D02*
X018502Y051121D01*
X018357Y051121D01*
X018357Y051025D02*
X018357Y051315D01*
X018502Y051315D01*
X018550Y051266D01*
X018550Y051170D01*
X018453Y051121D02*
X018550Y051025D01*
X019364Y051811D02*
X019413Y051811D01*
X019461Y051859D01*
X019461Y052004D01*
X019364Y052004D02*
X019316Y051956D01*
X019316Y051859D01*
X019364Y051811D01*
X019364Y052004D02*
X019558Y052004D01*
X019606Y051956D01*
X019606Y051859D01*
X019558Y051811D01*
X019135Y053148D02*
X018844Y053148D01*
X018844Y053293D01*
X018893Y053342D01*
X018989Y053342D01*
X019038Y053293D01*
X019038Y053148D01*
X019038Y053245D02*
X019135Y053342D01*
X019135Y053443D02*
X018941Y053636D01*
X018893Y053636D01*
X018844Y053588D01*
X018844Y053491D01*
X018893Y053443D01*
X019135Y053443D02*
X019135Y053636D01*
X019086Y053737D02*
X019135Y053786D01*
X019135Y053883D01*
X019086Y053931D01*
X019038Y053931D01*
X018989Y053883D01*
X018989Y053737D01*
X019086Y053737D01*
X018989Y053737D02*
X018893Y053834D01*
X018844Y053931D01*
X018884Y055749D02*
X018691Y055749D01*
X018884Y055942D01*
X018884Y055991D01*
X018836Y056039D01*
X018739Y056039D01*
X018691Y055991D01*
X018590Y055991D02*
X018590Y055894D01*
X018541Y055846D01*
X018396Y055846D01*
X018493Y055846D02*
X018590Y055749D01*
X018396Y055749D02*
X018396Y056039D01*
X018541Y056039D01*
X018590Y055991D01*
X018985Y055894D02*
X019179Y055894D01*
X019131Y055749D02*
X019131Y056039D01*
X018985Y055894D01*
X018155Y055894D02*
X018155Y055797D01*
X018107Y055749D01*
X018010Y055749D01*
X017962Y055797D01*
X017962Y055894D02*
X018059Y055942D01*
X018107Y055942D01*
X018155Y055894D01*
X018155Y056039D02*
X017962Y056039D01*
X017962Y055894D01*
X017861Y055942D02*
X017861Y055991D01*
X017812Y056039D01*
X017715Y056039D01*
X017667Y055991D01*
X017566Y055991D02*
X017566Y055894D01*
X017518Y055846D01*
X017372Y055846D01*
X017372Y055749D02*
X017372Y056039D01*
X017518Y056039D01*
X017566Y055991D01*
X017469Y055846D02*
X017566Y055749D01*
X017667Y055749D02*
X017861Y055942D01*
X017861Y055749D02*
X017667Y055749D01*
X017231Y055991D02*
X017037Y055797D01*
X017037Y055749D01*
X016936Y055749D02*
X016839Y055846D01*
X016888Y055846D02*
X016743Y055846D01*
X016743Y055749D02*
X016743Y056039D01*
X016888Y056039D01*
X016936Y055991D01*
X016936Y055894D01*
X016888Y055846D01*
X017037Y056039D02*
X017231Y056039D01*
X017231Y055991D01*
X016867Y054583D02*
X016916Y054534D01*
X016916Y054486D01*
X016867Y054437D01*
X016771Y054437D01*
X016722Y054486D01*
X016722Y054534D01*
X016771Y054583D01*
X016867Y054583D01*
X016867Y054437D02*
X016916Y054389D01*
X016916Y054341D01*
X016867Y054292D01*
X016771Y054292D01*
X016722Y054341D01*
X016722Y054389D01*
X016771Y054437D01*
X016621Y054437D02*
X016573Y054389D01*
X016428Y054389D01*
X016524Y054389D02*
X016621Y054292D01*
X016621Y054437D02*
X016621Y054534D01*
X016573Y054583D01*
X016428Y054583D01*
X016428Y054292D01*
X015705Y055237D02*
X015754Y055286D01*
X015754Y055334D01*
X015705Y055382D01*
X015560Y055382D01*
X015560Y055286D01*
X015609Y055237D01*
X015705Y055237D01*
X015560Y055382D02*
X015657Y055479D01*
X015754Y055527D01*
X015362Y055527D02*
X015362Y055237D01*
X015266Y055237D02*
X015459Y055237D01*
X015266Y055431D02*
X015362Y055527D01*
X015164Y055479D02*
X015164Y055382D01*
X015116Y055334D01*
X014971Y055334D01*
X014971Y055237D02*
X014971Y055527D01*
X015116Y055527D01*
X015164Y055479D01*
X015404Y056282D02*
X015404Y056427D01*
X015452Y056476D01*
X015549Y056476D01*
X015597Y056427D01*
X015597Y056282D01*
X015694Y056282D02*
X015404Y056282D01*
X015452Y056577D02*
X015404Y056625D01*
X015404Y056722D01*
X015452Y056770D01*
X015500Y056770D01*
X015694Y056577D01*
X015694Y056770D01*
X015646Y056872D02*
X015452Y057065D01*
X015646Y057065D01*
X015694Y057017D01*
X015694Y056920D01*
X015646Y056872D01*
X015452Y056872D01*
X015404Y056920D01*
X015404Y057017D01*
X015452Y057065D01*
X013287Y057067D02*
X013287Y057261D01*
X013287Y057164D02*
X012997Y057164D01*
X013094Y057067D01*
X013142Y056966D02*
X013191Y056918D01*
X013191Y056773D01*
X013287Y056773D02*
X012997Y056773D01*
X012997Y056918D01*
X013045Y056966D01*
X013142Y056966D01*
X013045Y057362D02*
X012997Y057410D01*
X012997Y057507D01*
X013045Y057555D01*
X013094Y057555D01*
X013142Y057507D01*
X013191Y057555D01*
X013239Y057555D01*
X013287Y057507D01*
X013287Y057410D01*
X013239Y057362D01*
X013142Y057459D02*
X013142Y057507D01*
X013142Y056335D02*
X013142Y056141D01*
X012997Y056287D01*
X013287Y056287D01*
X013287Y056040D02*
X013287Y055847D01*
X013287Y055944D02*
X012997Y055944D01*
X013094Y055847D01*
X013142Y055746D02*
X013191Y055697D01*
X013191Y055552D01*
X013287Y055552D02*
X012997Y055552D01*
X012997Y055697D01*
X013045Y055746D01*
X013142Y055746D01*
X018036Y049445D02*
X018085Y049445D01*
X018278Y049252D01*
X018327Y049252D01*
X018278Y049150D02*
X018327Y049102D01*
X018327Y049005D01*
X018278Y048957D01*
X018327Y048856D02*
X018230Y048759D01*
X018230Y048807D02*
X018230Y048662D01*
X018327Y048662D02*
X018036Y048662D01*
X018036Y048807D01*
X018085Y048856D01*
X018182Y048856D01*
X018230Y048807D01*
X018085Y048957D02*
X018036Y049005D01*
X018036Y049102D01*
X018085Y049150D01*
X018133Y049150D01*
X018182Y049102D01*
X018230Y049150D01*
X018278Y049150D01*
X018182Y049102D02*
X018182Y049054D01*
X018036Y049252D02*
X018036Y049445D01*
X017596Y047790D02*
X017596Y047500D01*
X017499Y047500D02*
X017693Y047500D01*
X017499Y047693D02*
X017596Y047790D01*
X017398Y047790D02*
X017398Y047500D01*
X017204Y047790D01*
X017204Y047500D01*
X017103Y047548D02*
X017055Y047500D01*
X016958Y047500D01*
X016910Y047548D01*
X016910Y047742D01*
X016958Y047790D01*
X017055Y047790D01*
X017103Y047742D01*
X018956Y045075D02*
X018908Y045026D01*
X018908Y044833D01*
X018956Y044784D01*
X019053Y044784D01*
X019101Y044833D01*
X019203Y044784D02*
X019396Y044784D01*
X019299Y044784D02*
X019299Y045075D01*
X019203Y044978D01*
X019101Y045026D02*
X019053Y045075D01*
X018956Y045075D01*
X019497Y045075D02*
X019691Y045075D01*
X019691Y045026D01*
X019497Y044833D01*
X019497Y044784D01*
X019258Y042385D02*
X019307Y042336D01*
X019307Y042288D01*
X019258Y042240D01*
X019162Y042240D01*
X019113Y042288D01*
X019113Y042336D01*
X019162Y042385D01*
X019258Y042385D01*
X019258Y042240D02*
X019307Y042191D01*
X019307Y042143D01*
X019258Y042094D01*
X019162Y042094D01*
X019113Y042143D01*
X019113Y042191D01*
X019162Y042240D01*
X019012Y042094D02*
X018819Y042094D01*
X018915Y042094D02*
X018915Y042385D01*
X018819Y042288D01*
X018718Y042336D02*
X018718Y042240D01*
X018669Y042191D01*
X018524Y042191D01*
X018524Y042094D02*
X018524Y042385D01*
X018669Y042385D01*
X018718Y042336D01*
X018621Y042191D02*
X018718Y042094D01*
X018187Y041172D02*
X018042Y041027D01*
X018236Y041027D01*
X018187Y040882D02*
X018187Y041172D01*
X017941Y041124D02*
X017893Y041172D01*
X017796Y041172D01*
X017748Y041124D01*
X017748Y040930D01*
X017796Y040882D01*
X017893Y040882D01*
X017941Y040930D01*
X017367Y040995D02*
X017367Y041092D01*
X017319Y041140D01*
X017222Y041140D01*
X017174Y041092D01*
X017174Y041043D01*
X017222Y040946D01*
X017077Y040946D01*
X017077Y041140D01*
X017125Y040845D02*
X017077Y040797D01*
X017077Y040700D01*
X017125Y040652D01*
X017319Y040652D01*
X017367Y040700D01*
X017367Y040797D01*
X017319Y040845D01*
X017319Y040946D02*
X017367Y040995D01*
X016673Y040955D02*
X016673Y041052D01*
X016625Y041100D01*
X016625Y041201D02*
X016576Y041201D01*
X016528Y041249D01*
X016528Y041346D01*
X016576Y041395D01*
X016625Y041395D01*
X016673Y041346D01*
X016673Y041249D01*
X016625Y041201D01*
X016528Y041249D02*
X016480Y041201D01*
X016431Y041201D01*
X016383Y041249D01*
X016383Y041346D01*
X016431Y041395D01*
X016480Y041395D01*
X016528Y041346D01*
X016431Y041100D02*
X016383Y041052D01*
X016383Y040955D01*
X016431Y040906D01*
X016625Y040906D01*
X016673Y040955D01*
X015620Y042245D02*
X015620Y042293D01*
X015813Y042487D01*
X015813Y042535D01*
X015620Y042535D01*
X015519Y042487D02*
X015470Y042535D01*
X015374Y042535D01*
X015325Y042487D01*
X015325Y042293D01*
X015374Y042245D01*
X015470Y042245D01*
X015519Y042293D01*
X014752Y041074D02*
X014655Y041025D01*
X014558Y040928D01*
X014703Y040928D01*
X014752Y040880D01*
X014752Y040832D01*
X014703Y040783D01*
X014606Y040783D01*
X014558Y040832D01*
X014558Y040928D01*
X014457Y040832D02*
X014409Y040783D01*
X014312Y040783D01*
X014263Y040832D01*
X014263Y041025D01*
X014312Y041074D01*
X014409Y041074D01*
X014457Y041025D01*
X013394Y040370D02*
X013394Y040080D01*
X013297Y040080D02*
X013491Y040080D01*
X013297Y040273D02*
X013394Y040370D01*
X013196Y040322D02*
X013148Y040370D01*
X013051Y040370D01*
X013002Y040322D01*
X013002Y040128D01*
X013051Y040080D01*
X013148Y040080D01*
X013196Y040128D01*
X013112Y039638D02*
X013015Y039638D01*
X012967Y039589D01*
X012967Y039396D01*
X013015Y039347D01*
X013112Y039347D01*
X013160Y039396D01*
X013262Y039493D02*
X013455Y039493D01*
X013556Y039493D02*
X013701Y039493D01*
X013750Y039444D01*
X013750Y039396D01*
X013701Y039347D01*
X013605Y039347D01*
X013556Y039396D01*
X013556Y039493D01*
X013653Y039589D01*
X013750Y039638D01*
X013407Y039638D02*
X013262Y039493D01*
X013160Y039589D02*
X013112Y039638D01*
X013407Y039638D02*
X013407Y039347D01*
X015018Y039278D02*
X015066Y039278D01*
X015260Y039085D01*
X015308Y039085D01*
X015260Y038984D02*
X015308Y038935D01*
X015308Y038839D01*
X015260Y038790D01*
X015066Y038790D01*
X015018Y038839D01*
X015018Y038935D01*
X015066Y038984D01*
X015018Y039085D02*
X015018Y039278D01*
X015066Y039380D02*
X015018Y039428D01*
X015018Y039525D01*
X015066Y039573D01*
X015260Y039380D01*
X015308Y039428D01*
X015308Y039525D01*
X015260Y039573D01*
X015066Y039573D01*
X015066Y039380D02*
X015260Y039380D01*
X016235Y039227D02*
X016235Y039034D01*
X016283Y038985D01*
X016380Y038985D01*
X016428Y039034D01*
X016529Y038985D02*
X016723Y039179D01*
X016723Y039227D01*
X016674Y039275D01*
X016578Y039275D01*
X016529Y039227D01*
X016428Y039227D02*
X016380Y039275D01*
X016283Y039275D01*
X016235Y039227D01*
X016529Y038985D02*
X016723Y038985D01*
X016824Y039034D02*
X016872Y038985D01*
X016969Y038985D01*
X017017Y039034D01*
X017017Y039082D01*
X016969Y039130D01*
X016824Y039130D01*
X016824Y039034D01*
X016824Y039130D02*
X016921Y039227D01*
X017017Y039275D01*
X018317Y039149D02*
X018317Y038908D01*
X018366Y038859D01*
X018462Y038859D01*
X018511Y038908D01*
X018511Y039149D01*
X018612Y039149D02*
X018612Y039004D01*
X018709Y039053D01*
X018757Y039053D01*
X018805Y039004D01*
X018805Y038908D01*
X018757Y038859D01*
X018660Y038859D01*
X018612Y038908D01*
X018612Y039149D02*
X018805Y039149D01*
X021939Y038944D02*
X021939Y038750D01*
X021988Y038702D01*
X022085Y038702D01*
X022133Y038750D01*
X022234Y038750D02*
X022282Y038702D01*
X022379Y038702D01*
X022428Y038750D01*
X022428Y038798D01*
X022379Y038847D01*
X022331Y038847D01*
X022379Y038847D02*
X022428Y038895D01*
X022428Y038944D01*
X022379Y038992D01*
X022282Y038992D01*
X022234Y038944D01*
X022133Y038944D02*
X022085Y038992D01*
X021988Y038992D01*
X021939Y038944D01*
X021939Y038520D02*
X022085Y038520D01*
X022133Y038471D01*
X022133Y038374D01*
X022085Y038326D01*
X021939Y038326D01*
X021939Y038229D02*
X021939Y038520D01*
X022036Y038326D02*
X022133Y038229D01*
X022234Y038278D02*
X022282Y038229D01*
X022379Y038229D01*
X022428Y038278D01*
X022428Y038326D01*
X022379Y038374D01*
X022331Y038374D01*
X022379Y038374D02*
X022428Y038423D01*
X022428Y038471D01*
X022379Y038520D01*
X022282Y038520D01*
X022234Y038471D01*
X022529Y038374D02*
X022722Y038374D01*
X022674Y038229D02*
X022674Y038520D01*
X022529Y038374D01*
X022529Y038702D02*
X022722Y038702D01*
X022625Y038702D02*
X022625Y038992D01*
X022529Y038895D01*
X022439Y037732D02*
X022342Y037732D01*
X022294Y037684D01*
X022294Y037490D01*
X022342Y037442D01*
X022439Y037442D01*
X022487Y037490D01*
X022588Y037587D02*
X022782Y037587D01*
X022883Y037635D02*
X022883Y037684D01*
X022931Y037732D01*
X023028Y037732D01*
X023077Y037684D01*
X023077Y037635D01*
X023028Y037587D01*
X022931Y037587D01*
X022883Y037635D01*
X022931Y037587D02*
X022883Y037539D01*
X022883Y037490D01*
X022931Y037442D01*
X023028Y037442D01*
X023077Y037490D01*
X023077Y037539D01*
X023028Y037587D01*
X022733Y037732D02*
X022588Y037587D01*
X022487Y037684D02*
X022439Y037732D01*
X022733Y037732D02*
X022733Y037442D01*
X022840Y037142D02*
X022744Y037093D01*
X022647Y036996D01*
X022792Y036996D01*
X022840Y036948D01*
X022840Y036900D01*
X022792Y036851D01*
X022695Y036851D01*
X022647Y036900D01*
X022647Y036996D01*
X022546Y036948D02*
X022546Y036900D01*
X022497Y036851D01*
X022401Y036851D01*
X022352Y036900D01*
X022251Y036851D02*
X022154Y036948D01*
X022203Y036948D02*
X022057Y036948D01*
X022057Y036851D02*
X022057Y037142D01*
X022203Y037142D01*
X022251Y037093D01*
X022251Y036996D01*
X022203Y036948D01*
X022352Y037093D02*
X022401Y037142D01*
X022497Y037142D01*
X022546Y037093D01*
X022546Y037045D01*
X022497Y036996D01*
X022546Y036948D01*
X022497Y036996D02*
X022449Y036996D01*
X022497Y036551D02*
X022401Y036551D01*
X022352Y036503D01*
X022251Y036503D02*
X022203Y036551D01*
X022106Y036551D01*
X022057Y036503D01*
X022057Y036309D01*
X022106Y036261D01*
X022203Y036261D01*
X022251Y036309D01*
X022352Y036261D02*
X022546Y036454D01*
X022546Y036503D01*
X022497Y036551D01*
X022647Y036551D02*
X022840Y036551D01*
X022840Y036503D01*
X022647Y036309D01*
X022647Y036261D01*
X022546Y036261D02*
X022352Y036261D01*
X022401Y035960D02*
X022497Y035960D01*
X022546Y035912D01*
X022546Y035864D01*
X022497Y035815D01*
X022546Y035767D01*
X022546Y035719D01*
X022497Y035670D01*
X022401Y035670D01*
X022352Y035719D01*
X022251Y035670D02*
X022154Y035767D01*
X022203Y035767D02*
X022057Y035767D01*
X022057Y035670D02*
X022057Y035960D01*
X022203Y035960D01*
X022251Y035912D01*
X022251Y035815D01*
X022203Y035767D01*
X022352Y035912D02*
X022401Y035960D01*
X022449Y035815D02*
X022497Y035815D01*
X022647Y035815D02*
X022744Y035864D01*
X022792Y035864D01*
X022840Y035815D01*
X022840Y035719D01*
X022792Y035670D01*
X022695Y035670D01*
X022647Y035719D01*
X022647Y035815D02*
X022647Y035960D01*
X022840Y035960D01*
X023536Y035916D02*
X023536Y035626D01*
X023730Y035626D02*
X023730Y035916D01*
X023633Y035819D01*
X023536Y035916D01*
X023831Y035916D02*
X023928Y035916D01*
X023879Y035916D02*
X023879Y035626D01*
X023831Y035626D02*
X023928Y035626D01*
X024027Y035674D02*
X024076Y035626D01*
X024172Y035626D01*
X024221Y035674D01*
X024322Y035626D02*
X024515Y035626D01*
X024419Y035626D02*
X024419Y035916D01*
X024322Y035819D01*
X024221Y035868D02*
X024172Y035916D01*
X024076Y035916D01*
X024027Y035868D01*
X024027Y035674D01*
X023788Y035287D02*
X023691Y035287D01*
X023643Y035239D01*
X023643Y035190D01*
X023691Y035142D01*
X023836Y035142D01*
X023836Y035045D02*
X023836Y035239D01*
X023788Y035287D01*
X023836Y035045D02*
X023788Y034997D01*
X023691Y034997D01*
X023643Y035045D01*
X023542Y034997D02*
X023348Y034997D01*
X023445Y034997D02*
X023445Y035287D01*
X023348Y035190D01*
X023247Y035142D02*
X023199Y035094D01*
X023054Y035094D01*
X023054Y034997D02*
X023054Y035287D01*
X023199Y035287D01*
X023247Y035239D01*
X023247Y035142D01*
X024813Y035277D02*
X024813Y035567D01*
X025007Y035567D01*
X025108Y035567D02*
X025253Y035567D01*
X025302Y035518D01*
X025302Y035470D01*
X025253Y035422D01*
X025108Y035422D01*
X025108Y035277D02*
X025108Y035567D01*
X025253Y035422D02*
X025302Y035373D01*
X025302Y035325D01*
X025253Y035277D01*
X025108Y035277D01*
X024910Y035422D02*
X024813Y035422D01*
X025403Y035422D02*
X025548Y035422D01*
X025596Y035373D01*
X025596Y035325D01*
X025548Y035277D01*
X025451Y035277D01*
X025403Y035325D01*
X025403Y035422D01*
X025499Y035518D01*
X025596Y035567D01*
X027564Y036477D02*
X027564Y036671D01*
X027564Y036772D02*
X027564Y036917D01*
X027612Y036965D01*
X027661Y036965D01*
X027709Y036917D01*
X027709Y036772D01*
X027854Y036772D02*
X027564Y036772D01*
X027709Y036917D02*
X027758Y036965D01*
X027806Y036965D01*
X027854Y036917D01*
X027854Y036772D01*
X027709Y036574D02*
X027709Y036477D01*
X027854Y036477D02*
X027564Y036477D01*
X027709Y037067D02*
X027709Y037260D01*
X027564Y037212D02*
X027709Y037067D01*
X027854Y037212D02*
X027564Y037212D01*
X027368Y039450D02*
X027174Y039450D01*
X027271Y039450D02*
X027271Y039740D01*
X027174Y039643D01*
X027073Y039450D02*
X026880Y039450D01*
X026976Y039450D02*
X026976Y039740D01*
X026880Y039643D01*
X026779Y039595D02*
X026730Y039546D01*
X026585Y039546D01*
X026585Y039450D02*
X026585Y039740D01*
X026730Y039740D01*
X026779Y039692D01*
X026779Y039595D01*
X026682Y039546D02*
X026779Y039450D01*
X029670Y036582D02*
X029670Y036485D01*
X029719Y036437D01*
X029767Y036437D01*
X029815Y036485D01*
X029815Y036582D01*
X029864Y036630D01*
X029912Y036630D01*
X029961Y036582D01*
X029961Y036485D01*
X029912Y036437D01*
X029864Y036437D01*
X029815Y036485D01*
X029815Y036582D02*
X029767Y036630D01*
X029719Y036630D01*
X029670Y036582D01*
X029670Y036336D02*
X029670Y036142D01*
X029815Y036142D01*
X029767Y036239D01*
X029767Y036287D01*
X029815Y036336D01*
X029912Y036336D01*
X029961Y036287D01*
X029961Y036190D01*
X029912Y036142D01*
X029961Y036041D02*
X029864Y035944D01*
X029864Y035993D02*
X029864Y035847D01*
X029961Y035847D02*
X029670Y035847D01*
X029670Y035993D01*
X029719Y036041D01*
X029815Y036041D01*
X029864Y035993D01*
X031462Y034642D02*
X031510Y034545D01*
X031607Y034449D01*
X031607Y034594D01*
X031655Y034642D01*
X031704Y034642D01*
X031752Y034594D01*
X031752Y034497D01*
X031704Y034449D01*
X031607Y034449D01*
X031655Y034347D02*
X031704Y034347D01*
X031752Y034299D01*
X031752Y034202D01*
X031704Y034154D01*
X031704Y034053D02*
X031752Y034004D01*
X031752Y033908D01*
X031704Y033859D01*
X031510Y033859D01*
X031462Y033908D01*
X031462Y034004D01*
X031510Y034053D01*
X031510Y034154D02*
X031462Y034202D01*
X031462Y034299D01*
X031510Y034347D01*
X031558Y034347D01*
X031607Y034299D01*
X031655Y034347D01*
X031607Y034299D02*
X031607Y034251D01*
X031777Y034706D02*
X031777Y034851D01*
X031825Y034899D01*
X031922Y034899D01*
X031970Y034851D01*
X031970Y034706D01*
X031970Y034802D02*
X032067Y034899D01*
X031922Y035000D02*
X031922Y035194D01*
X032018Y035295D02*
X032067Y035343D01*
X032067Y035440D01*
X032018Y035488D01*
X031970Y035488D01*
X031922Y035440D01*
X031922Y035392D01*
X031922Y035440D02*
X031873Y035488D01*
X031825Y035488D01*
X031777Y035440D01*
X031777Y035343D01*
X031825Y035295D01*
X031777Y035145D02*
X031922Y035000D01*
X032067Y035145D02*
X031777Y035145D01*
X031777Y034706D02*
X032067Y034706D01*
X032446Y034308D02*
X032494Y034211D01*
X032591Y034114D01*
X032591Y034260D01*
X032639Y034308D01*
X032688Y034308D01*
X032736Y034260D01*
X032736Y034163D01*
X032688Y034114D01*
X032591Y034114D01*
X032688Y034013D02*
X032446Y034013D01*
X032446Y033820D02*
X032688Y033820D01*
X032736Y033868D01*
X032736Y033965D01*
X032688Y034013D01*
X033419Y034883D02*
X033613Y034883D01*
X033661Y034931D01*
X033661Y035028D01*
X033613Y035076D01*
X033613Y035177D02*
X033661Y035226D01*
X033661Y035323D01*
X033613Y035371D01*
X033565Y035371D01*
X033516Y035323D01*
X033516Y035177D01*
X033613Y035177D01*
X033516Y035177D02*
X033419Y035274D01*
X033371Y035371D01*
X033468Y035472D02*
X033371Y035569D01*
X033661Y035569D01*
X033661Y035472D02*
X033661Y035666D01*
X033419Y035076D02*
X033371Y035028D01*
X033371Y034931D01*
X033419Y034883D01*
X034533Y034831D02*
X034581Y034879D01*
X034678Y034879D01*
X034726Y034831D01*
X034726Y034686D01*
X034726Y034783D02*
X034823Y034879D01*
X034678Y034981D02*
X034678Y035174D01*
X034678Y035275D02*
X034629Y035372D01*
X034629Y035420D01*
X034678Y035469D01*
X034774Y035469D01*
X034823Y035420D01*
X034823Y035324D01*
X034774Y035275D01*
X034678Y035275D02*
X034533Y035275D01*
X034533Y035469D01*
X034533Y035126D02*
X034678Y034981D01*
X034823Y035126D02*
X034533Y035126D01*
X034533Y034831D02*
X034533Y034686D01*
X034823Y034686D01*
X035714Y034686D02*
X035714Y034831D01*
X035762Y034879D01*
X035859Y034879D01*
X035907Y034831D01*
X035907Y034686D01*
X035907Y034783D02*
X036004Y034879D01*
X035859Y034981D02*
X035859Y035174D01*
X035859Y035275D02*
X035859Y035469D01*
X036004Y035420D02*
X035714Y035420D01*
X035859Y035275D01*
X036004Y035126D02*
X035714Y035126D01*
X035859Y034981D01*
X036004Y034686D02*
X035714Y034686D01*
X035236Y033815D02*
X035236Y033622D01*
X035236Y033718D02*
X034946Y033718D01*
X035043Y033622D01*
X035091Y033521D02*
X035091Y033327D01*
X034946Y033472D01*
X035236Y033472D01*
X035188Y033226D02*
X035236Y033178D01*
X035236Y033081D01*
X035188Y033032D01*
X034994Y033032D01*
X034946Y033081D01*
X034946Y033178D01*
X034994Y033226D01*
X036029Y033209D02*
X036174Y033209D01*
X036125Y033306D01*
X036125Y033354D01*
X036174Y033402D01*
X036270Y033402D01*
X036319Y033354D01*
X036319Y033257D01*
X036270Y033209D01*
X036270Y033108D02*
X036319Y033059D01*
X036319Y032963D01*
X036270Y032914D01*
X036077Y032914D01*
X036029Y032963D01*
X036029Y033059D01*
X036077Y033108D01*
X036029Y033209D02*
X036029Y033402D01*
X036077Y033504D02*
X036029Y033552D01*
X036029Y033649D01*
X036077Y033697D01*
X036270Y033504D01*
X036319Y033552D01*
X036319Y033649D01*
X036270Y033697D01*
X036077Y033697D01*
X036077Y033504D02*
X036270Y033504D01*
X036240Y031728D02*
X036191Y031680D01*
X036191Y031486D01*
X036240Y031438D01*
X036336Y031438D01*
X036385Y031486D01*
X036486Y031486D02*
X036534Y031438D01*
X036631Y031438D01*
X036680Y031486D01*
X036680Y031535D01*
X036631Y031583D01*
X036583Y031583D01*
X036631Y031583D02*
X036680Y031631D01*
X036680Y031680D01*
X036631Y031728D01*
X036534Y031728D01*
X036486Y031680D01*
X036385Y031680D02*
X036336Y031728D01*
X036240Y031728D01*
X036781Y031680D02*
X036781Y031631D01*
X036829Y031583D01*
X036926Y031583D01*
X036974Y031535D01*
X036974Y031486D01*
X036926Y031438D01*
X036829Y031438D01*
X036781Y031486D01*
X036781Y031535D01*
X036829Y031583D01*
X036926Y031583D02*
X036974Y031631D01*
X036974Y031680D01*
X036926Y031728D01*
X036829Y031728D01*
X036781Y031680D01*
X035617Y031669D02*
X035617Y031621D01*
X035423Y031427D01*
X035423Y031379D01*
X035322Y031427D02*
X035322Y031669D01*
X035423Y031669D02*
X035617Y031669D01*
X035322Y031427D02*
X035273Y031379D01*
X035177Y031379D01*
X035128Y031427D01*
X035128Y031669D01*
X034327Y029819D02*
X034231Y029819D01*
X034182Y029770D01*
X034081Y029674D02*
X033888Y029674D01*
X034033Y029819D01*
X034033Y029528D01*
X034182Y029528D02*
X034376Y029722D01*
X034376Y029770D01*
X034327Y029819D01*
X034376Y029528D02*
X034182Y029528D01*
X033786Y029577D02*
X033738Y029528D01*
X033641Y029528D01*
X033593Y029577D01*
X033593Y029770D01*
X033641Y029819D01*
X033738Y029819D01*
X033786Y029770D01*
X033829Y029110D02*
X034023Y029110D01*
X034124Y029110D02*
X034269Y029110D01*
X034317Y029062D01*
X034317Y029013D01*
X034269Y028965D01*
X034124Y028965D01*
X034269Y028965D02*
X034317Y028917D01*
X034317Y028868D01*
X034269Y028820D01*
X034124Y028820D01*
X034124Y029110D01*
X033926Y028965D02*
X033829Y028965D01*
X033829Y028820D02*
X033829Y029110D01*
X034418Y029013D02*
X034515Y029110D01*
X034515Y028820D01*
X034418Y028820D02*
X034612Y028820D01*
X033520Y027444D02*
X033375Y027299D01*
X033569Y027299D01*
X033520Y027444D02*
X033520Y027153D01*
X033274Y027299D02*
X033080Y027299D01*
X033226Y027444D01*
X033226Y027153D01*
X032979Y027202D02*
X032931Y027153D01*
X032834Y027153D01*
X032786Y027202D01*
X032786Y027395D01*
X032834Y027444D01*
X032931Y027444D01*
X032979Y027395D01*
X030733Y029196D02*
X030443Y029196D01*
X030443Y029341D01*
X030491Y029389D01*
X030588Y029389D01*
X030637Y029341D01*
X030637Y029196D01*
X030637Y029292D02*
X030733Y029389D01*
X030588Y029490D02*
X030588Y029684D01*
X030540Y029785D02*
X030588Y029833D01*
X030588Y029979D01*
X030685Y029979D02*
X030491Y029979D01*
X030443Y029930D01*
X030443Y029833D01*
X030491Y029785D01*
X030540Y029785D01*
X030685Y029785D02*
X030733Y029833D01*
X030733Y029930D01*
X030685Y029979D01*
X030733Y029635D02*
X030443Y029635D01*
X030588Y029490D01*
X029670Y028946D02*
X029670Y028849D01*
X029622Y028801D01*
X029525Y028898D02*
X029525Y028946D01*
X029574Y028994D01*
X029622Y028994D01*
X029670Y028946D01*
X029525Y028946D02*
X029477Y028994D01*
X029428Y028994D01*
X029380Y028946D01*
X029380Y028849D01*
X029428Y028801D01*
X029525Y028700D02*
X029525Y028506D01*
X029380Y028651D01*
X029670Y028651D01*
X029622Y028405D02*
X029670Y028357D01*
X029670Y028260D01*
X029622Y028211D01*
X029428Y028211D01*
X029380Y028260D01*
X029380Y028357D01*
X029428Y028405D01*
X028943Y028662D02*
X028749Y028662D01*
X028943Y028856D01*
X028943Y028904D01*
X028894Y028953D01*
X028798Y028953D01*
X028749Y028904D01*
X028648Y028904D02*
X028648Y028856D01*
X028600Y028807D01*
X028455Y028807D01*
X028600Y028807D02*
X028648Y028759D01*
X028648Y028711D01*
X028600Y028662D01*
X028455Y028662D01*
X028455Y028953D01*
X028600Y028953D01*
X028648Y028904D01*
X028353Y028953D02*
X028160Y028953D01*
X028160Y028662D01*
X028160Y028807D02*
X028257Y028807D01*
X027665Y028851D02*
X027617Y028802D01*
X027665Y028754D01*
X027665Y028706D01*
X027617Y028657D01*
X027520Y028657D01*
X027472Y028706D01*
X027370Y028706D02*
X027322Y028657D01*
X027177Y028657D01*
X027177Y028948D01*
X027322Y028948D01*
X027370Y028899D01*
X027370Y028851D01*
X027322Y028802D01*
X027177Y028802D01*
X027322Y028802D02*
X027370Y028754D01*
X027370Y028706D01*
X027472Y028899D02*
X027520Y028948D01*
X027617Y028948D01*
X027665Y028899D01*
X027665Y028851D01*
X027617Y028802D02*
X027568Y028802D01*
X027076Y028948D02*
X026882Y028948D01*
X026882Y028657D01*
X026882Y028802D02*
X026979Y028802D01*
X028387Y030941D02*
X028339Y030989D01*
X028339Y031183D01*
X028387Y031231D01*
X028484Y031231D01*
X028532Y031183D01*
X028634Y031086D02*
X028827Y031086D01*
X028928Y030989D02*
X028928Y030941D01*
X028928Y030989D02*
X029122Y031183D01*
X029122Y031231D01*
X028928Y031231D01*
X028779Y031231D02*
X028634Y031086D01*
X028532Y030989D02*
X028484Y030941D01*
X028387Y030941D01*
X028779Y030941D02*
X028779Y031231D01*
X026580Y031978D02*
X026532Y031930D01*
X026435Y031930D01*
X026387Y031978D01*
X026387Y032075D02*
X026484Y032124D01*
X026532Y032124D01*
X026580Y032075D01*
X026580Y031978D01*
X026387Y032075D02*
X026387Y032220D01*
X026580Y032220D01*
X026286Y032075D02*
X026092Y032075D01*
X026237Y032220D01*
X026237Y031930D01*
X025991Y031978D02*
X025943Y031930D01*
X025846Y031930D01*
X025798Y031978D01*
X025798Y032172D01*
X025846Y032220D01*
X025943Y032220D01*
X025991Y032172D01*
X024367Y028953D02*
X024270Y028953D01*
X024222Y028904D01*
X024120Y028904D02*
X024072Y028953D01*
X023927Y028953D01*
X023927Y028662D01*
X024072Y028662D01*
X024120Y028711D01*
X024120Y028904D01*
X024367Y028953D02*
X024415Y028904D01*
X024415Y028856D01*
X024222Y028662D01*
X024415Y028662D01*
X023826Y028662D02*
X023632Y028662D01*
X023632Y028953D01*
X021720Y031295D02*
X021527Y031295D01*
X021623Y031295D02*
X021623Y031585D01*
X021527Y031489D01*
X021425Y031440D02*
X021425Y031343D01*
X021377Y031295D01*
X021280Y031295D01*
X021232Y031343D01*
X021232Y031440D02*
X021329Y031489D01*
X021377Y031489D01*
X021425Y031440D01*
X021425Y031585D02*
X021232Y031585D01*
X021232Y031440D01*
X021131Y031440D02*
X021082Y031392D01*
X020937Y031392D01*
X020937Y031295D02*
X020937Y031585D01*
X021082Y031585D01*
X021131Y031537D01*
X021131Y031440D01*
X021034Y031392D02*
X021131Y031295D01*
X019642Y029661D02*
X019691Y029613D01*
X019691Y029565D01*
X019642Y029516D01*
X019691Y029468D01*
X019691Y029419D01*
X019642Y029371D01*
X019546Y029371D01*
X019497Y029419D01*
X019396Y029419D02*
X019396Y029468D01*
X019348Y029516D01*
X019203Y029516D01*
X019203Y029419D01*
X019251Y029371D01*
X019348Y029371D01*
X019396Y029419D01*
X019299Y029613D02*
X019203Y029516D01*
X019299Y029613D02*
X019396Y029661D01*
X019497Y029613D02*
X019546Y029661D01*
X019642Y029661D01*
X019642Y029516D02*
X019594Y029516D01*
X019101Y029419D02*
X019053Y029371D01*
X018956Y029371D01*
X018908Y029419D01*
X018908Y029613D01*
X018956Y029661D01*
X019053Y029661D01*
X019101Y029613D01*
X018658Y031654D02*
X018561Y031654D01*
X018513Y031703D01*
X018412Y031703D02*
X018363Y031654D01*
X018267Y031654D01*
X018218Y031703D01*
X018117Y031654D02*
X018020Y031751D01*
X018069Y031751D02*
X017924Y031751D01*
X017924Y031654D02*
X017924Y031945D01*
X018069Y031945D01*
X018117Y031896D01*
X018117Y031800D01*
X018069Y031751D01*
X018218Y031896D02*
X018267Y031945D01*
X018363Y031945D01*
X018412Y031896D01*
X018412Y031848D01*
X018363Y031800D01*
X018412Y031751D01*
X018412Y031703D01*
X018363Y031800D02*
X018315Y031800D01*
X018513Y031896D02*
X018561Y031945D01*
X018658Y031945D01*
X018706Y031896D01*
X018706Y031848D01*
X018658Y031800D01*
X018706Y031751D01*
X018706Y031703D01*
X018658Y031654D01*
X018658Y031800D02*
X018610Y031800D01*
X017428Y033630D02*
X017476Y033678D01*
X017476Y033872D01*
X017428Y033920D01*
X017331Y033920D01*
X017283Y033872D01*
X017283Y033823D01*
X017331Y033775D01*
X017476Y033775D01*
X017428Y033630D02*
X017331Y033630D01*
X017283Y033678D01*
X017181Y033630D02*
X016988Y033630D01*
X017181Y033823D01*
X017181Y033872D01*
X017133Y033920D01*
X017036Y033920D01*
X016988Y033872D01*
X016887Y033872D02*
X016838Y033920D01*
X016742Y033920D01*
X016693Y033872D01*
X016693Y033678D01*
X016742Y033630D01*
X016838Y033630D01*
X016887Y033678D01*
X017727Y034095D02*
X017920Y034095D01*
X018021Y034095D02*
X018215Y034095D01*
X018316Y034095D02*
X018461Y034095D01*
X018510Y034144D01*
X018510Y034337D01*
X018461Y034386D01*
X018316Y034386D01*
X018316Y034095D01*
X018118Y034241D02*
X018021Y034241D01*
X018021Y034386D02*
X018021Y034095D01*
X018021Y034386D02*
X018215Y034386D01*
X018611Y034337D02*
X018611Y034289D01*
X018659Y034241D01*
X018756Y034241D01*
X018804Y034192D01*
X018804Y034144D01*
X018756Y034095D01*
X018659Y034095D01*
X018611Y034144D01*
X018611Y034192D01*
X018659Y034241D01*
X018756Y034241D02*
X018804Y034289D01*
X018804Y034337D01*
X018756Y034386D01*
X018659Y034386D01*
X018611Y034337D01*
X017727Y034386D02*
X017727Y034095D01*
X019902Y034890D02*
X019902Y035180D01*
X020047Y035180D01*
X020095Y035132D01*
X020095Y035035D01*
X020047Y034986D01*
X019902Y034986D01*
X019999Y034986D02*
X020095Y034890D01*
X020197Y034890D02*
X020390Y035083D01*
X020390Y035132D01*
X020342Y035180D01*
X020245Y035180D01*
X020197Y035132D01*
X020197Y034890D02*
X020390Y034890D01*
X020491Y034890D02*
X020685Y034890D01*
X020588Y034890D02*
X020588Y035180D01*
X020491Y035083D01*
X015300Y036685D02*
X015300Y036782D01*
X015252Y036830D01*
X015300Y036931D02*
X015107Y037125D01*
X015058Y037125D01*
X015010Y037076D01*
X015010Y036980D01*
X015058Y036931D01*
X015058Y036830D02*
X015010Y036782D01*
X015010Y036685D01*
X015058Y036637D01*
X015252Y036637D01*
X015300Y036685D01*
X015300Y036931D02*
X015300Y037125D01*
X015252Y037226D02*
X015300Y037274D01*
X015300Y037371D01*
X015252Y037419D01*
X015155Y037419D01*
X015107Y037371D01*
X015107Y037323D01*
X015155Y037226D01*
X015010Y037226D01*
X015010Y037419D01*
X013591Y034976D02*
X013591Y034686D01*
X013687Y034686D02*
X013494Y034686D01*
X013393Y034686D02*
X013199Y034686D01*
X013199Y034976D01*
X013494Y034879D02*
X013591Y034976D01*
X014617Y029819D02*
X014810Y029819D01*
X014911Y029819D02*
X015056Y029819D01*
X015105Y029770D01*
X015105Y029722D01*
X015056Y029674D01*
X014911Y029674D01*
X014911Y029819D02*
X014911Y029528D01*
X015056Y029528D01*
X015105Y029577D01*
X015105Y029625D01*
X015056Y029674D01*
X015206Y029674D02*
X015303Y029722D01*
X015351Y029722D01*
X015399Y029674D01*
X015399Y029577D01*
X015351Y029528D01*
X015254Y029528D01*
X015206Y029577D01*
X015206Y029674D02*
X015206Y029819D01*
X015399Y029819D01*
X014713Y029674D02*
X014617Y029674D01*
X014617Y029819D02*
X014617Y029528D01*
X014060Y029250D02*
X014060Y029057D01*
X013867Y029250D01*
X013818Y029250D01*
X013770Y029202D01*
X013770Y029105D01*
X013818Y029057D01*
X013818Y028956D02*
X013770Y028907D01*
X013770Y028762D01*
X014060Y028762D01*
X014060Y028907D01*
X014012Y028956D01*
X013818Y028956D01*
X015986Y025129D02*
X015937Y025080D01*
X015937Y024887D01*
X015986Y024838D01*
X016082Y024838D01*
X016131Y024887D01*
X016232Y024887D02*
X016280Y024838D01*
X016377Y024838D01*
X016425Y024887D01*
X016425Y024935D01*
X016377Y024984D01*
X016329Y024984D01*
X016377Y024984D02*
X016425Y025032D01*
X016425Y025080D01*
X016377Y025129D01*
X016280Y025129D01*
X016232Y025080D01*
X016131Y025080D02*
X016082Y025129D01*
X015986Y025129D01*
X016527Y025080D02*
X016575Y025129D01*
X016672Y025129D01*
X016720Y025080D01*
X016527Y024887D01*
X016575Y024838D01*
X016672Y024838D01*
X016720Y024887D01*
X016720Y025080D01*
X016527Y025080D02*
X016527Y024887D01*
X016122Y043938D02*
X015832Y043938D01*
X015832Y044083D01*
X015880Y044131D01*
X015977Y044131D01*
X016025Y044083D01*
X016025Y043938D01*
X016025Y044035D02*
X016122Y044131D01*
X016122Y044233D02*
X016122Y044426D01*
X016122Y044329D02*
X015832Y044329D01*
X015928Y044233D01*
X023711Y055473D02*
X023711Y055764D01*
X023856Y055764D01*
X023905Y055715D01*
X023905Y055618D01*
X023856Y055570D01*
X023711Y055570D01*
X023808Y055570D02*
X023905Y055473D01*
X024006Y055473D02*
X024199Y055473D01*
X024102Y055473D02*
X024102Y055764D01*
X024006Y055667D01*
X024300Y055618D02*
X024445Y055618D01*
X024494Y055570D01*
X024494Y055522D01*
X024445Y055473D01*
X024349Y055473D01*
X024300Y055522D01*
X024300Y055618D01*
X024397Y055715D01*
X024494Y055764D01*
X024287Y056773D02*
X024287Y057063D01*
X024142Y056918D01*
X024336Y056918D01*
X024041Y057014D02*
X023993Y057063D01*
X023848Y057063D01*
X023848Y056773D01*
X023993Y056773D01*
X024041Y056821D01*
X024041Y057014D01*
X023746Y057063D02*
X023553Y057063D01*
X023553Y056773D01*
X023746Y056773D01*
X023650Y056918D02*
X023553Y056918D01*
X023452Y056773D02*
X023258Y056773D01*
X023258Y057063D01*
X025365Y057023D02*
X025365Y056733D01*
X025558Y056733D01*
X025659Y056733D02*
X025853Y056733D01*
X025954Y056733D02*
X026099Y056733D01*
X026147Y056782D01*
X026147Y056975D01*
X026099Y057023D01*
X025954Y057023D01*
X025954Y056733D01*
X025756Y056878D02*
X025659Y056878D01*
X025659Y057023D02*
X025659Y056733D01*
X025659Y057023D02*
X025853Y057023D01*
X026249Y056975D02*
X026297Y057023D01*
X026394Y057023D01*
X026442Y056975D01*
X026442Y056927D01*
X026394Y056878D01*
X026442Y056830D01*
X026442Y056782D01*
X026394Y056733D01*
X026297Y056733D01*
X026249Y056782D01*
X026345Y056878D02*
X026394Y056878D01*
X026384Y055823D02*
X026190Y055823D01*
X026190Y055678D01*
X026287Y055726D01*
X026335Y055726D01*
X026384Y055678D01*
X026384Y055581D01*
X026335Y055532D01*
X026238Y055532D01*
X026190Y055581D01*
X026089Y055532D02*
X025895Y055532D01*
X025992Y055532D02*
X025992Y055823D01*
X025895Y055726D01*
X025794Y055774D02*
X025794Y055678D01*
X025746Y055629D01*
X025601Y055629D01*
X025698Y055629D02*
X025794Y055532D01*
X025601Y055532D02*
X025601Y055823D01*
X025746Y055823D01*
X025794Y055774D01*
X027081Y054446D02*
X027033Y054397D01*
X027033Y054301D01*
X027081Y054252D01*
X027129Y054252D01*
X027178Y054301D01*
X027178Y054446D01*
X027274Y054446D02*
X027081Y054446D01*
X027274Y054446D02*
X027323Y054397D01*
X027323Y054301D01*
X027274Y054252D01*
X027274Y054151D02*
X027323Y054103D01*
X027323Y054006D01*
X027274Y053958D01*
X027081Y053958D01*
X027033Y054006D01*
X027033Y054103D01*
X027081Y054151D01*
X028160Y056143D02*
X028160Y056433D01*
X028305Y056433D01*
X028353Y056385D01*
X028353Y056288D01*
X028305Y056239D01*
X028160Y056239D01*
X028257Y056239D02*
X028353Y056143D01*
X028455Y056143D02*
X028648Y056143D01*
X028551Y056143D02*
X028551Y056433D01*
X028455Y056336D01*
X028749Y056385D02*
X028798Y056433D01*
X028894Y056433D01*
X028943Y056385D01*
X028943Y056336D01*
X028894Y056288D01*
X028943Y056239D01*
X028943Y056191D01*
X028894Y056143D01*
X028798Y056143D01*
X028749Y056191D01*
X028846Y056288D02*
X028894Y056288D01*
X029341Y056039D02*
X029341Y055749D01*
X029341Y055846D02*
X029486Y055846D01*
X029534Y055894D01*
X029534Y055991D01*
X029486Y056039D01*
X029341Y056039D01*
X029438Y055846D02*
X029534Y055749D01*
X029636Y055749D02*
X029829Y055749D01*
X029732Y055749D02*
X029732Y056039D01*
X029636Y055942D01*
X029930Y055991D02*
X029979Y056039D01*
X030075Y056039D01*
X030124Y055991D01*
X030124Y055942D01*
X029930Y055749D01*
X030124Y055749D01*
X030561Y055062D02*
X030707Y055062D01*
X030755Y055013D01*
X030755Y054917D01*
X030707Y054868D01*
X030561Y054868D01*
X030561Y054772D02*
X030561Y055062D01*
X030658Y054868D02*
X030755Y054772D01*
X030856Y054820D02*
X030904Y054772D01*
X031001Y054772D01*
X031050Y054820D01*
X031050Y054868D01*
X031001Y054917D01*
X030953Y054917D01*
X031001Y054917D02*
X031050Y054965D01*
X031050Y055013D01*
X031001Y055062D01*
X030904Y055062D01*
X030856Y055013D01*
X031151Y055013D02*
X031151Y054965D01*
X031199Y054917D01*
X031344Y054917D01*
X031344Y055013D02*
X031296Y055062D01*
X031199Y055062D01*
X031151Y055013D01*
X031151Y054820D02*
X031199Y054772D01*
X031296Y054772D01*
X031344Y054820D01*
X031344Y055013D01*
X032480Y056694D02*
X032577Y056694D01*
X032625Y056742D01*
X032726Y056694D02*
X032920Y056887D01*
X032920Y056936D01*
X032871Y056984D01*
X032775Y056984D01*
X032726Y056936D01*
X032625Y056936D02*
X032577Y056984D01*
X032480Y056984D01*
X032432Y056936D01*
X032432Y056742D01*
X032480Y056694D01*
X032726Y056694D02*
X032920Y056694D01*
X033021Y056742D02*
X033069Y056694D01*
X033166Y056694D01*
X033214Y056742D01*
X033214Y056791D01*
X033166Y056839D01*
X033118Y056839D01*
X033166Y056839D02*
X033214Y056887D01*
X033214Y056936D01*
X033166Y056984D01*
X033069Y056984D01*
X033021Y056936D01*
X031560Y057363D02*
X031367Y057363D01*
X031463Y057363D02*
X031463Y057653D01*
X031367Y057557D01*
X031265Y057605D02*
X031217Y057653D01*
X031072Y057653D01*
X031072Y057363D01*
X031217Y057363D01*
X031265Y057412D01*
X031265Y057605D01*
X030971Y057653D02*
X030777Y057653D01*
X030777Y057363D01*
X030971Y057363D01*
X030874Y057508D02*
X030777Y057508D01*
X030676Y057363D02*
X030483Y057363D01*
X030483Y057653D01*
X028568Y056975D02*
X028520Y057023D01*
X028423Y057023D01*
X028375Y056975D01*
X028273Y056975D02*
X028225Y057023D01*
X028080Y057023D01*
X028080Y056733D01*
X028225Y056733D01*
X028273Y056782D01*
X028273Y056975D01*
X028375Y056733D02*
X028568Y056927D01*
X028568Y056975D01*
X028568Y056733D02*
X028375Y056733D01*
X027979Y056733D02*
X027785Y056733D01*
X027785Y057023D01*
X027979Y057023D01*
X027882Y056878D02*
X027785Y056878D01*
X027684Y056733D02*
X027491Y056733D01*
X027491Y057023D01*
X034139Y054957D02*
X034187Y054957D01*
X034381Y054763D01*
X034429Y054763D01*
X034381Y054662D02*
X034429Y054614D01*
X034429Y054517D01*
X034381Y054469D01*
X034381Y054368D02*
X034429Y054319D01*
X034429Y054223D01*
X034381Y054174D01*
X034187Y054174D01*
X034139Y054223D01*
X034139Y054319D01*
X034187Y054368D01*
X034187Y054469D02*
X034139Y054517D01*
X034139Y054614D01*
X034187Y054662D01*
X034236Y054662D01*
X034284Y054614D01*
X034332Y054662D01*
X034381Y054662D01*
X034284Y054614D02*
X034284Y054566D01*
X034139Y054763D02*
X034139Y054957D01*
X035452Y043362D02*
X035404Y043314D01*
X035404Y043120D01*
X035452Y043072D01*
X035549Y043072D01*
X035597Y043120D01*
X035699Y043120D02*
X035747Y043072D01*
X035844Y043072D01*
X035892Y043120D01*
X035892Y043217D01*
X035844Y043265D01*
X035795Y043265D01*
X035699Y043217D01*
X035699Y043362D01*
X035892Y043362D01*
X035993Y043314D02*
X035993Y043265D01*
X036042Y043217D01*
X036187Y043217D01*
X036187Y043120D02*
X036187Y043314D01*
X036138Y043362D01*
X036042Y043362D01*
X035993Y043314D01*
X035993Y043120D02*
X036042Y043072D01*
X036138Y043072D01*
X036187Y043120D01*
X035597Y043314D02*
X035549Y043362D01*
X035452Y043362D01*
X034026Y041059D02*
X034075Y041011D01*
X034075Y040914D01*
X034026Y040866D01*
X033978Y040866D01*
X033930Y040914D01*
X033930Y041011D01*
X033978Y041059D01*
X034026Y041059D01*
X033930Y041011D02*
X033881Y041059D01*
X033833Y041059D01*
X033784Y041011D01*
X033784Y040914D01*
X033833Y040866D01*
X033881Y040866D01*
X033930Y040914D01*
X033978Y040765D02*
X034026Y040765D01*
X034075Y040716D01*
X034075Y040620D01*
X034026Y040571D01*
X034075Y040470D02*
X033978Y040373D01*
X033978Y040422D02*
X033978Y040277D01*
X034075Y040277D02*
X033784Y040277D01*
X033784Y040422D01*
X033833Y040470D01*
X033930Y040470D01*
X033978Y040422D01*
X033833Y040571D02*
X033784Y040620D01*
X033784Y040716D01*
X033833Y040765D01*
X033881Y040765D01*
X033930Y040716D01*
X033978Y040765D01*
X033930Y040716D02*
X033930Y040668D01*
X034867Y039180D02*
X035012Y039035D01*
X035012Y039229D01*
X035157Y039180D02*
X034867Y039180D01*
X034916Y038934D02*
X034964Y038934D01*
X035012Y038886D01*
X035061Y038934D01*
X035109Y038934D01*
X035157Y038886D01*
X035157Y038789D01*
X035109Y038740D01*
X035109Y038639D02*
X035157Y038591D01*
X035157Y038494D01*
X035109Y038446D01*
X034916Y038446D01*
X034867Y038494D01*
X034867Y038591D01*
X034916Y038639D01*
X034916Y038740D02*
X034867Y038789D01*
X034867Y038886D01*
X034916Y038934D01*
X035012Y038886D02*
X035012Y038837D01*
X035714Y038767D02*
X035762Y038815D01*
X035955Y038622D01*
X036004Y038670D01*
X036004Y038767D01*
X035955Y038815D01*
X035762Y038815D01*
X035714Y038767D02*
X035714Y038670D01*
X035762Y038622D01*
X035955Y038622D01*
X035859Y038521D02*
X035859Y038327D01*
X035714Y038472D01*
X036004Y038472D01*
X036004Y038226D02*
X035907Y038129D01*
X035907Y038178D02*
X035907Y038032D01*
X036004Y038032D02*
X035714Y038032D01*
X035714Y038178D01*
X035762Y038226D01*
X035859Y038226D01*
X035907Y038178D01*
X036083Y037437D02*
X036083Y037244D01*
X036083Y037341D02*
X035792Y037341D01*
X035889Y037244D01*
X035937Y037143D02*
X035937Y036949D01*
X035792Y037094D01*
X036083Y037094D01*
X036083Y036848D02*
X035986Y036751D01*
X035986Y036800D02*
X035986Y036654D01*
X036083Y036654D02*
X035792Y036654D01*
X035792Y036800D01*
X035841Y036848D01*
X035937Y036848D01*
X035986Y036800D01*
X036777Y036839D02*
X036777Y036742D01*
X036825Y036694D01*
X037018Y036694D01*
X037067Y036742D01*
X037067Y036839D01*
X037018Y036887D01*
X037018Y036988D02*
X037067Y037037D01*
X037067Y037134D01*
X037018Y037182D01*
X036970Y037182D01*
X036922Y037134D01*
X036922Y037085D01*
X036922Y037134D02*
X036873Y037182D01*
X036825Y037182D01*
X036777Y037134D01*
X036777Y037037D01*
X036825Y036988D01*
X036825Y036887D02*
X036777Y036839D01*
X036825Y037283D02*
X036777Y037332D01*
X036777Y037428D01*
X036825Y037477D01*
X036873Y037477D01*
X036922Y037428D01*
X036970Y037477D01*
X037018Y037477D01*
X037067Y037428D01*
X037067Y037332D01*
X037018Y037283D01*
X036922Y037380D02*
X036922Y037428D01*
X036864Y038032D02*
X037058Y038032D01*
X037106Y038081D01*
X037106Y038178D01*
X037058Y038226D01*
X037058Y038327D02*
X037106Y038375D01*
X037106Y038472D01*
X037058Y038521D01*
X036961Y038521D01*
X036913Y038472D01*
X036913Y038424D01*
X036961Y038327D01*
X036816Y038327D01*
X036816Y038521D01*
X036864Y038622D02*
X036913Y038622D01*
X036961Y038670D01*
X036961Y038767D01*
X037009Y038815D01*
X037058Y038815D01*
X037106Y038767D01*
X037106Y038670D01*
X037058Y038622D01*
X037009Y038622D01*
X036961Y038670D01*
X036961Y038767D02*
X036913Y038815D01*
X036864Y038815D01*
X036816Y038767D01*
X036816Y038670D01*
X036864Y038622D01*
X036864Y038226D02*
X036816Y038178D01*
X036816Y038081D01*
X036864Y038032D01*
X035098Y036956D02*
X035050Y037004D01*
X034856Y037004D01*
X034808Y036956D01*
X034808Y036859D01*
X034856Y036811D01*
X034905Y036811D01*
X034953Y036859D01*
X034953Y037004D01*
X035098Y036956D02*
X035098Y036859D01*
X035050Y036811D01*
X035098Y036710D02*
X035098Y036516D01*
X034905Y036710D01*
X034856Y036710D01*
X034808Y036661D01*
X034808Y036564D01*
X034856Y036516D01*
X034856Y036415D02*
X034953Y036415D01*
X035002Y036367D01*
X035002Y036221D01*
X035098Y036221D02*
X034808Y036221D01*
X034808Y036367D01*
X034856Y036415D01*
X035002Y036318D02*
X035098Y036415D01*
X034114Y036635D02*
X033824Y036635D01*
X033824Y036780D01*
X033872Y036828D01*
X033969Y036828D01*
X034017Y036780D01*
X034017Y036635D01*
X034017Y036732D02*
X034114Y036828D01*
X034066Y036929D02*
X034114Y036978D01*
X034114Y037075D01*
X034066Y037123D01*
X033969Y037123D01*
X033921Y037075D01*
X033921Y037026D01*
X033969Y036929D01*
X033824Y036929D01*
X033824Y037123D01*
X033872Y037224D02*
X033824Y037272D01*
X033824Y037369D01*
X033872Y037418D01*
X033921Y037418D01*
X033969Y037369D01*
X034017Y037418D01*
X034066Y037418D01*
X034114Y037369D01*
X034114Y037272D01*
X034066Y037224D01*
X033969Y037321D02*
X033969Y037369D01*
X033130Y037389D02*
X032840Y037389D01*
X032985Y037244D01*
X032985Y037437D01*
X032985Y037143D02*
X033081Y037143D01*
X033130Y037094D01*
X033130Y036998D01*
X033081Y036949D01*
X032985Y036949D02*
X032936Y037046D01*
X032936Y037094D01*
X032985Y037143D01*
X032840Y037143D02*
X032840Y036949D01*
X032985Y036949D01*
X033081Y036848D02*
X033130Y036800D01*
X033130Y036703D01*
X033081Y036654D01*
X032888Y036654D01*
X032840Y036703D01*
X032840Y036800D01*
X032888Y036848D01*
X032018Y033500D02*
X032067Y033452D01*
X032067Y033355D01*
X032018Y033307D01*
X032067Y033206D02*
X032067Y033012D01*
X031873Y033206D01*
X031825Y033206D01*
X031777Y033157D01*
X031777Y033060D01*
X031825Y033012D01*
X031825Y032911D02*
X031922Y032911D01*
X031970Y032863D01*
X031970Y032717D01*
X032067Y032717D02*
X031777Y032717D01*
X031777Y032863D01*
X031825Y032911D01*
X031970Y032814D02*
X032067Y032911D01*
X031825Y033307D02*
X031777Y033355D01*
X031777Y033452D01*
X031825Y033500D01*
X031873Y033500D01*
X031922Y033452D01*
X031970Y033500D01*
X032018Y033500D01*
X031922Y033452D02*
X031922Y033404D01*
X030886Y033354D02*
X030837Y033402D01*
X030644Y033402D01*
X030596Y033354D01*
X030596Y033257D01*
X030644Y033209D01*
X030692Y033209D01*
X030741Y033257D01*
X030741Y033402D01*
X030886Y033354D02*
X030886Y033257D01*
X030837Y033209D01*
X030886Y033108D02*
X030789Y033011D01*
X030789Y033059D02*
X030789Y032914D01*
X030886Y032914D02*
X030596Y032914D01*
X030596Y033059D01*
X030644Y033108D01*
X030741Y033108D01*
X030789Y033059D01*
X030252Y027774D02*
X030300Y027725D01*
X030300Y027629D01*
X030252Y027580D01*
X030204Y027580D01*
X030155Y027629D01*
X030155Y027725D01*
X030204Y027774D01*
X030252Y027774D01*
X030155Y027725D02*
X030107Y027774D01*
X030058Y027774D01*
X030010Y027725D01*
X030010Y027629D01*
X030058Y027580D01*
X030107Y027580D01*
X030155Y027629D01*
X030155Y027479D02*
X030155Y027286D01*
X030010Y027431D01*
X030300Y027431D01*
X030300Y027184D02*
X030204Y027088D01*
X030204Y027136D02*
X030204Y026991D01*
X030300Y026991D02*
X030010Y026991D01*
X030010Y027136D01*
X030058Y027184D01*
X030155Y027184D01*
X030204Y027136D01*
X037132Y025930D02*
X037180Y025979D01*
X037229Y025979D01*
X037277Y025930D01*
X037277Y025833D01*
X037229Y025785D01*
X037180Y025785D01*
X037132Y025833D01*
X037132Y025930D01*
X037277Y025930D02*
X037326Y025979D01*
X037374Y025979D01*
X037422Y025930D01*
X037422Y025833D01*
X037374Y025785D01*
X037326Y025785D01*
X037277Y025833D01*
X037422Y025684D02*
X037422Y025490D01*
X037422Y025587D02*
X037132Y025587D01*
X037229Y025490D01*
X037277Y025389D02*
X037326Y025341D01*
X037326Y025196D01*
X037422Y025196D02*
X037132Y025196D01*
X037132Y025341D01*
X037180Y025389D01*
X037277Y025389D01*
D15*
X034886Y047606D02*
X034886Y048027D01*
X034676Y047817D02*
X035096Y047817D01*
X031514Y048801D02*
X031093Y048801D01*
X031303Y049011D02*
X031303Y048591D01*
X016789Y028525D02*
X016369Y028525D01*
X016579Y028735D02*
X016579Y028315D01*
D16*
X016531Y026390D02*
X016985Y026390D01*
X031256Y046665D02*
X031709Y046665D01*
X034838Y045681D02*
X035292Y045681D01*
D17*
X034247Y044120D02*
X034247Y043923D01*
X034247Y044120D02*
X033854Y044120D01*
X033854Y043923D01*
X033854Y043529D02*
X033854Y043332D01*
X034247Y043332D01*
X034247Y043529D01*
X033361Y043411D02*
X033361Y043136D01*
X032771Y043136D01*
X032771Y043411D01*
X032771Y044041D02*
X032771Y044317D01*
X033361Y044317D01*
X033361Y044041D01*
X031413Y041088D02*
X031019Y041088D01*
X031019Y040891D01*
X031019Y040498D02*
X031019Y040301D01*
X031413Y040301D01*
X031413Y040498D01*
X031413Y040891D02*
X031413Y041088D01*
X031983Y040970D02*
X032574Y040970D01*
X032574Y040695D01*
X031983Y040695D02*
X031983Y040970D01*
X031983Y040065D02*
X031983Y039789D01*
X032574Y039789D01*
X032574Y040065D01*
X033263Y040183D02*
X033263Y040380D01*
X033263Y040183D02*
X033657Y040183D01*
X033657Y040380D01*
X033657Y040773D02*
X033657Y040970D01*
X033263Y040970D01*
X033263Y040773D01*
X034208Y040773D02*
X034208Y040970D01*
X034602Y040970D01*
X034602Y040773D01*
X034602Y040380D02*
X034602Y040183D01*
X034208Y040183D01*
X034208Y040380D01*
X034385Y038962D02*
X033322Y038962D01*
X033322Y038647D01*
X034385Y038647D01*
X034385Y038962D01*
X035231Y039002D02*
X035231Y039199D01*
X035625Y039199D01*
X035625Y039002D01*
X035625Y038608D02*
X035625Y038411D01*
X035231Y038411D01*
X035231Y038608D01*
X035192Y037427D02*
X035192Y037230D01*
X035192Y037427D02*
X035586Y037427D01*
X035586Y037230D01*
X035586Y036836D02*
X035586Y036639D01*
X035192Y036639D01*
X035192Y036836D01*
X034641Y036836D02*
X034641Y036639D01*
X034247Y036639D01*
X034247Y036836D01*
X034247Y037230D02*
X034247Y037427D01*
X034641Y037427D01*
X034641Y037230D01*
X033657Y037230D02*
X033657Y037427D01*
X033263Y037427D01*
X033263Y037230D01*
X033263Y036836D02*
X033263Y036639D01*
X033657Y036639D01*
X033657Y036836D01*
X033854Y035655D02*
X034247Y035655D01*
X034247Y035458D01*
X034247Y035065D02*
X034247Y034868D01*
X033854Y034868D01*
X033854Y035065D01*
X033854Y035458D02*
X033854Y035655D01*
X035035Y035655D02*
X035428Y035655D01*
X035428Y035458D01*
X035428Y035065D02*
X035428Y034868D01*
X035035Y034868D01*
X035035Y035065D01*
X035035Y035458D02*
X035035Y035655D01*
X036216Y035655D02*
X036609Y035655D01*
X036609Y035458D01*
X036216Y035458D02*
X036216Y035655D01*
X036216Y035065D02*
X036216Y034868D01*
X036609Y034868D01*
X036609Y035065D01*
X036511Y034080D02*
X037102Y034080D01*
X037102Y033805D01*
X036511Y033805D02*
X036511Y034080D01*
X036511Y033175D02*
X036511Y032899D01*
X037102Y032899D01*
X037102Y033175D01*
X035822Y033096D02*
X035428Y033096D01*
X035428Y033293D01*
X035428Y033687D02*
X035428Y033884D01*
X035822Y033884D01*
X035822Y033687D01*
X035822Y033293D02*
X035822Y033096D01*
X034188Y033529D02*
X033125Y033529D01*
X033125Y033844D01*
X034188Y033844D01*
X034188Y033529D01*
X032672Y033490D02*
X032672Y033293D01*
X032672Y033490D02*
X032279Y033490D01*
X032279Y033293D01*
X032279Y032899D02*
X032279Y032702D01*
X032672Y032702D01*
X032672Y032899D01*
X032672Y034868D02*
X032279Y034868D01*
X032279Y035065D01*
X032279Y035458D02*
X032279Y035655D01*
X032672Y035655D01*
X032672Y035458D01*
X032672Y035065D02*
X032672Y034868D01*
X031491Y033490D02*
X031491Y033293D01*
X031491Y033490D02*
X031098Y033490D01*
X031098Y033293D01*
X031098Y032899D02*
X031098Y032702D01*
X031491Y032702D01*
X031491Y032899D01*
X033696Y030931D02*
X034090Y030931D01*
X034090Y030734D01*
X034090Y030340D02*
X034090Y030143D01*
X033696Y030143D01*
X033696Y030340D01*
X033696Y030734D02*
X033696Y030931D01*
X034503Y030498D02*
X035566Y030498D01*
X035566Y030183D01*
X034503Y030183D01*
X034503Y030498D01*
X034720Y028647D02*
X033775Y028647D01*
X033775Y026915D01*
X034720Y026915D01*
X034720Y028647D01*
X033460Y028372D02*
X033460Y028175D01*
X033460Y028372D02*
X033066Y028372D01*
X033066Y028175D01*
X033066Y027781D02*
X033066Y027584D01*
X033460Y027584D01*
X033460Y027781D01*
X030310Y027978D02*
X029917Y027978D01*
X029917Y028175D01*
X030310Y028175D02*
X030310Y027978D01*
X030310Y028569D02*
X030310Y028765D01*
X029917Y028765D01*
X029917Y028569D01*
X029917Y029159D02*
X029917Y029356D01*
X029917Y029159D02*
X030310Y029159D01*
X030310Y029356D01*
X030310Y029750D02*
X030310Y029947D01*
X029917Y029947D01*
X029917Y029750D01*
X029720Y029750D02*
X029720Y029947D01*
X029326Y029947D01*
X029326Y029750D01*
X029326Y029356D02*
X029326Y029159D01*
X029720Y029159D01*
X029720Y029356D01*
X029011Y029080D02*
X028066Y029080D01*
X028066Y030813D01*
X029011Y030813D01*
X029011Y029080D01*
X027830Y029080D02*
X027830Y030813D01*
X026885Y030813D01*
X026885Y029080D01*
X027830Y029080D01*
X025586Y031521D02*
X025192Y031521D01*
X025192Y031718D01*
X025586Y031718D02*
X025586Y031521D01*
X025586Y032112D02*
X025586Y032309D01*
X025192Y032309D01*
X025192Y032112D01*
X025861Y034199D02*
X024129Y034199D01*
X024129Y035143D01*
X025861Y035143D01*
X025861Y034199D01*
X027869Y036206D02*
X028814Y036206D01*
X028814Y037939D01*
X027869Y037939D01*
X027869Y036206D01*
X029168Y036049D02*
X029168Y035852D01*
X029562Y035852D01*
X029562Y036049D01*
X029562Y036443D02*
X029562Y036639D01*
X029168Y036639D01*
X029168Y036443D01*
X029424Y038175D02*
X028834Y038175D01*
X028834Y038411D01*
X028440Y038411D02*
X028440Y038175D01*
X027850Y038175D01*
X027850Y038411D01*
X027850Y039120D02*
X027850Y039356D01*
X028440Y039356D01*
X028440Y039120D01*
X028834Y039120D02*
X028834Y039356D01*
X029424Y039356D01*
X029424Y039120D01*
X029424Y038411D02*
X029424Y038175D01*
X027042Y039868D02*
X025310Y039868D01*
X025310Y040813D01*
X027042Y040813D01*
X027042Y039868D01*
X027042Y041088D02*
X025310Y041088D01*
X025310Y042033D01*
X027042Y042033D01*
X027042Y041088D01*
X026964Y042604D02*
X027200Y042604D01*
X027200Y043195D01*
X026964Y043195D01*
X026924Y043431D02*
X026649Y043431D01*
X026649Y044021D01*
X026924Y044021D01*
X026767Y044317D02*
X026570Y044317D01*
X026570Y044710D01*
X026767Y044710D01*
X027161Y044710D02*
X027357Y044710D01*
X027357Y044317D01*
X027161Y044317D01*
X027554Y044021D02*
X027830Y044021D01*
X027830Y043431D01*
X027554Y043431D01*
X028105Y043450D02*
X028105Y043844D01*
X028302Y043844D01*
X028302Y044120D02*
X028105Y044120D01*
X028105Y044513D01*
X028302Y044513D01*
X028696Y044513D02*
X028893Y044513D01*
X028893Y044120D01*
X028696Y044120D01*
X028696Y043844D02*
X028893Y043844D01*
X028893Y043450D01*
X028696Y043450D01*
X028302Y043450D02*
X028105Y043450D01*
X027948Y045202D02*
X027751Y045202D01*
X027751Y045596D01*
X027948Y045596D01*
X027948Y045793D02*
X027751Y045793D01*
X027751Y046187D01*
X027948Y046187D01*
X028342Y046187D02*
X028539Y046187D01*
X028539Y045793D01*
X028342Y045793D01*
X028342Y045596D02*
X028539Y045596D01*
X028539Y045202D01*
X028342Y045202D01*
X029424Y045498D02*
X029424Y045734D01*
X029424Y045498D02*
X030015Y045498D01*
X030015Y045734D01*
X030015Y046443D02*
X030015Y046679D01*
X029424Y046679D01*
X029424Y046443D01*
X029424Y047073D02*
X030015Y047073D01*
X030015Y047309D01*
X030015Y048017D02*
X030015Y048254D01*
X029424Y048254D01*
X029424Y048017D01*
X029424Y047309D02*
X029424Y047073D01*
X029641Y048943D02*
X029838Y048943D01*
X029641Y048943D02*
X029641Y049336D01*
X029838Y049336D01*
X030231Y049336D02*
X030428Y049336D01*
X030428Y048943D01*
X030231Y048943D01*
X030231Y049671D02*
X030507Y049671D01*
X030507Y050262D01*
X030231Y050262D01*
X029602Y050262D02*
X029326Y050262D01*
X029326Y049671D01*
X029602Y049671D01*
X029405Y051010D02*
X029208Y051010D01*
X029405Y051010D02*
X029405Y051403D01*
X029208Y051403D01*
X028814Y051403D02*
X028617Y051403D01*
X028617Y051010D01*
X028814Y051010D01*
X028539Y051010D02*
X028342Y051010D01*
X028539Y051010D02*
X028539Y051403D01*
X028342Y051403D01*
X028342Y051600D02*
X028539Y051600D01*
X028539Y051994D01*
X028342Y051994D01*
X028342Y052191D02*
X028539Y052191D01*
X028539Y052584D01*
X028342Y052584D01*
X027948Y052584D02*
X027751Y052584D01*
X027751Y052191D01*
X027948Y052191D01*
X027948Y051994D02*
X027751Y051994D01*
X027751Y051600D01*
X027948Y051600D01*
X027948Y051403D02*
X027751Y051403D01*
X027751Y051010D01*
X027948Y051010D01*
X025527Y052781D02*
X024936Y052781D01*
X024936Y053017D01*
X025527Y053017D02*
X025527Y052781D01*
X025527Y053726D02*
X025527Y053962D01*
X024936Y053962D01*
X024936Y053726D01*
X024956Y055734D02*
X024956Y055931D01*
X024956Y055734D02*
X025350Y055734D01*
X025350Y055931D01*
X025350Y056325D02*
X025350Y056521D01*
X024956Y056521D01*
X024956Y056325D01*
X023617Y056443D02*
X023617Y056639D01*
X023224Y056639D01*
X023224Y056443D01*
X023224Y056049D02*
X023224Y055852D01*
X023617Y055852D01*
X023617Y056049D01*
X022633Y053884D02*
X022239Y053884D01*
X022239Y053687D01*
X022239Y053293D02*
X022239Y053096D01*
X022633Y053096D01*
X022633Y053293D01*
X022633Y052978D02*
X022633Y052781D01*
X022633Y052978D02*
X022239Y052978D01*
X022239Y052781D01*
X022239Y052388D02*
X022239Y052191D01*
X022633Y052191D01*
X022633Y052388D01*
X022633Y053687D02*
X022633Y053884D01*
X021649Y053510D02*
X021649Y052919D01*
X021413Y052919D01*
X021373Y052722D02*
X021649Y052722D01*
X021649Y052132D01*
X021373Y052132D01*
X020743Y052132D02*
X020468Y052132D01*
X020468Y052722D01*
X020743Y052722D01*
X020704Y052919D02*
X020468Y052919D01*
X020468Y053510D01*
X020704Y053510D01*
X021413Y053510D02*
X021649Y053510D01*
X020724Y051994D02*
X020724Y051797D01*
X020724Y051994D02*
X020330Y051994D01*
X020330Y051797D01*
X020133Y051797D02*
X020133Y051994D01*
X019739Y051994D01*
X019739Y051797D01*
X019739Y051403D02*
X019739Y051206D01*
X020133Y051206D01*
X020133Y051403D01*
X020330Y051403D02*
X020330Y051206D01*
X020724Y051206D01*
X020724Y051403D01*
X019287Y050911D02*
X019287Y050321D01*
X019050Y050321D01*
X019090Y050222D02*
X019090Y049828D01*
X018893Y049828D01*
X019090Y049632D02*
X019287Y049632D01*
X019287Y049238D01*
X019090Y049238D01*
X019090Y049041D02*
X019287Y049041D01*
X019287Y048647D01*
X019090Y048647D01*
X019090Y048450D02*
X019287Y048450D01*
X019287Y048057D01*
X019090Y048057D01*
X018696Y048057D02*
X018499Y048057D01*
X018499Y048450D01*
X018696Y048450D01*
X018696Y048647D02*
X018499Y048647D01*
X018499Y049041D01*
X018696Y049041D01*
X018696Y049238D02*
X018499Y049238D01*
X018499Y049632D01*
X018696Y049632D01*
X018499Y049828D02*
X018302Y049828D01*
X018302Y050222D01*
X018499Y050222D01*
X018342Y050321D02*
X018105Y050321D01*
X018105Y050911D01*
X018342Y050911D01*
X019050Y050911D02*
X019287Y050911D01*
X019090Y050222D02*
X018893Y050222D01*
X019562Y049474D02*
X019956Y049474D01*
X019956Y049277D01*
X019956Y048884D02*
X019956Y048687D01*
X019562Y048687D01*
X019562Y048884D01*
X019562Y049277D02*
X019562Y049474D01*
X020271Y045891D02*
X020665Y045891D01*
X020665Y045695D01*
X020665Y045301D02*
X020665Y045104D01*
X020271Y045104D01*
X020271Y045301D01*
X020271Y045695D02*
X020271Y045891D01*
X020310Y044828D02*
X020113Y044828D01*
X020113Y044435D01*
X020310Y044435D01*
X020704Y044435D02*
X020901Y044435D01*
X020901Y044828D01*
X020704Y044828D01*
X020861Y043923D02*
X021058Y043923D01*
X021058Y043529D01*
X020861Y043529D01*
X020468Y043529D02*
X020271Y043529D01*
X020271Y043923D01*
X020468Y043923D01*
X020468Y043057D02*
X020271Y043057D01*
X020271Y042663D01*
X020468Y042663D01*
X020861Y042663D02*
X021058Y042663D01*
X021058Y043057D01*
X020861Y043057D01*
X021846Y042939D02*
X022239Y042939D01*
X022239Y042742D01*
X021846Y042742D02*
X021846Y042939D01*
X022003Y043431D02*
X022003Y044021D01*
X022279Y044021D01*
X022239Y044218D02*
X022003Y044218D01*
X022003Y044809D01*
X022239Y044809D01*
X022948Y044809D02*
X023184Y044809D01*
X023184Y044218D01*
X022948Y044218D01*
X022909Y044021D02*
X023184Y044021D01*
X023184Y043431D01*
X022909Y043431D01*
X022791Y042939D02*
X023184Y042939D01*
X023184Y042742D01*
X022791Y042742D02*
X022791Y042939D01*
X022791Y042348D02*
X022791Y042151D01*
X023184Y042151D01*
X023184Y042348D01*
X022239Y042348D02*
X022239Y042151D01*
X021846Y042151D01*
X021846Y042348D01*
X022003Y043431D02*
X022279Y043431D01*
X024011Y044120D02*
X024011Y044317D01*
X024011Y044120D02*
X024405Y044120D01*
X024405Y044317D01*
X024405Y044710D02*
X024405Y044907D01*
X024011Y044907D01*
X024011Y044710D01*
X025231Y044376D02*
X025231Y043785D01*
X025507Y043785D01*
X025507Y044376D02*
X025231Y044376D01*
X025389Y044474D02*
X025389Y044868D01*
X025586Y044868D01*
X025980Y044868D02*
X026176Y044868D01*
X026176Y044474D01*
X025980Y044474D01*
X026137Y044376D02*
X026413Y044376D01*
X026413Y043785D01*
X026137Y043785D01*
X026255Y043195D02*
X026019Y043195D01*
X026019Y042604D01*
X026255Y042604D01*
X025625Y042545D02*
X025625Y042348D01*
X025231Y042348D01*
X025231Y042545D01*
X025231Y042939D02*
X025231Y043136D01*
X025625Y043136D01*
X025625Y042939D01*
X025586Y044474D02*
X025389Y044474D01*
X021649Y038411D02*
X021452Y038411D01*
X021649Y038411D02*
X021649Y038017D01*
X021452Y038017D01*
X021058Y038017D02*
X020861Y038017D01*
X020861Y038411D01*
X021058Y038411D01*
X021058Y037230D02*
X020861Y037230D01*
X020861Y036836D01*
X021058Y036836D01*
X021058Y036639D02*
X020861Y036639D01*
X020861Y036246D01*
X021058Y036246D01*
X021058Y036049D02*
X020861Y036049D01*
X020861Y035655D01*
X021058Y035655D01*
X021452Y035655D02*
X021649Y035655D01*
X021649Y036049D01*
X021452Y036049D01*
X021452Y036246D02*
X021649Y036246D01*
X021649Y036639D01*
X021452Y036639D01*
X021452Y036836D02*
X021649Y036836D01*
X021649Y037230D01*
X021452Y037230D01*
X020861Y034769D02*
X020861Y034179D01*
X020625Y034179D01*
X020625Y034769D02*
X020861Y034769D01*
X019917Y034769D02*
X019680Y034769D01*
X019680Y034179D01*
X019917Y034179D01*
X021255Y032545D02*
X021649Y032545D01*
X021649Y032348D01*
X021649Y031954D02*
X021649Y031758D01*
X021255Y031758D01*
X021255Y031954D01*
X021255Y032348D02*
X021255Y032545D01*
X018302Y032702D02*
X018302Y032899D01*
X017909Y032899D01*
X017909Y032702D01*
X017909Y032309D02*
X017909Y032112D01*
X018302Y032112D01*
X018302Y032309D01*
X016019Y029435D02*
X016019Y028490D01*
X014287Y028490D01*
X014287Y029435D01*
X016019Y029435D01*
X015940Y025616D02*
X015940Y025222D01*
X016137Y025222D01*
X016531Y025222D02*
X016728Y025222D01*
X016728Y025616D01*
X016531Y025616D01*
X016137Y025616D02*
X015940Y025616D01*
X015940Y038411D02*
X015743Y038411D01*
X015743Y038805D01*
X015940Y038805D01*
X016334Y038805D02*
X016531Y038805D01*
X016531Y038411D01*
X016334Y038411D01*
X014661Y039376D02*
X014661Y039769D01*
X014464Y039769D01*
X014483Y040025D02*
X014287Y040025D01*
X014483Y040025D02*
X014483Y040419D01*
X014287Y040419D01*
X013893Y040419D02*
X013696Y040419D01*
X013696Y040025D01*
X013893Y040025D01*
X013873Y039769D02*
X014070Y039769D01*
X013873Y039769D02*
X013873Y039376D01*
X014070Y039376D01*
X014464Y039376D02*
X014661Y039376D01*
X014857Y041167D02*
X014267Y041167D01*
X014267Y041443D01*
X014857Y041443D02*
X014857Y041167D01*
X015350Y041364D02*
X015743Y041364D01*
X015743Y041561D01*
X015350Y041561D02*
X015350Y041364D01*
X015350Y041954D02*
X015350Y042151D01*
X015743Y042151D01*
X015743Y041954D01*
X016334Y041758D02*
X016334Y041561D01*
X016728Y041561D01*
X016728Y041758D01*
X016924Y041541D02*
X016924Y041265D01*
X017515Y041265D01*
X017515Y041541D01*
X017810Y041462D02*
X018204Y041462D01*
X018204Y041659D01*
X018499Y041423D02*
X018499Y042013D01*
X018735Y042013D01*
X018204Y042053D02*
X018204Y042250D01*
X017810Y042250D01*
X017810Y042053D01*
X017515Y042171D02*
X017515Y042447D01*
X016924Y042447D01*
X016924Y042171D01*
X016728Y042151D02*
X016728Y042348D01*
X016334Y042348D01*
X016334Y042151D01*
X015743Y043765D02*
X015350Y043765D01*
X015350Y043962D01*
X015743Y043962D02*
X015743Y043765D01*
X015743Y044356D02*
X015743Y044553D01*
X015350Y044553D01*
X015350Y044356D01*
X014857Y042348D02*
X014267Y042348D01*
X014267Y042073D01*
X014857Y042073D02*
X014857Y042348D01*
X017810Y041659D02*
X017810Y041462D01*
X018499Y041423D02*
X018735Y041423D01*
X019444Y041423D02*
X019680Y041423D01*
X019680Y042013D01*
X019444Y042013D01*
X019385Y054159D02*
X018794Y054159D01*
X018794Y054395D01*
X019385Y054395D02*
X019385Y054159D01*
X019385Y055104D02*
X019385Y055340D01*
X018794Y055340D01*
X018794Y055104D01*
X018302Y054947D02*
X018302Y054750D01*
X017909Y054750D01*
X017909Y054947D01*
X017712Y054947D02*
X017712Y054750D01*
X017318Y054750D01*
X017318Y054947D01*
X017121Y054947D02*
X017121Y054750D01*
X016728Y054750D01*
X016728Y054947D01*
X016728Y055340D02*
X016728Y055537D01*
X017121Y055537D01*
X017121Y055340D01*
X017318Y055340D02*
X017318Y055537D01*
X017712Y055537D01*
X017712Y055340D01*
X017909Y055340D02*
X017909Y055537D01*
X018302Y055537D01*
X018302Y055340D01*
X016531Y055301D02*
X016137Y055301D01*
X016137Y055498D01*
X016137Y055891D02*
X016137Y056088D01*
X016531Y056088D01*
X016531Y055891D01*
X016531Y055498D02*
X016531Y055301D01*
X027161Y056128D02*
X027357Y056128D01*
X027161Y056128D02*
X027161Y056521D01*
X027357Y056521D01*
X027751Y056521D02*
X027948Y056521D01*
X027948Y056128D01*
X027751Y056128D01*
X029326Y056128D02*
X029523Y056128D01*
X029326Y056128D02*
X029326Y056521D01*
X029523Y056521D01*
X029917Y056521D02*
X030113Y056521D01*
X030113Y056128D01*
X029917Y056128D01*
X031787Y056128D02*
X031787Y056325D01*
X031787Y056128D02*
X032180Y056128D01*
X032180Y056325D01*
X032180Y056718D02*
X032180Y056915D01*
X031787Y056915D01*
X031787Y056718D01*
X034346Y053765D02*
X034346Y053569D01*
X034346Y053765D02*
X034739Y053765D01*
X034739Y053569D01*
X034739Y053175D02*
X034739Y052978D01*
X034346Y052978D01*
X034346Y053175D01*
X034346Y051403D02*
X033755Y051403D01*
X033755Y051167D01*
X034346Y051167D02*
X034346Y051403D01*
X035035Y051403D02*
X035035Y051167D01*
X035035Y051403D02*
X035625Y051403D01*
X035625Y051167D01*
X036314Y051206D02*
X036708Y051206D01*
X036708Y051010D01*
X036314Y051010D02*
X036314Y051206D01*
X036314Y050616D02*
X036314Y050419D01*
X036708Y050419D01*
X036708Y050616D01*
X035625Y050458D02*
X035625Y050222D01*
X035035Y050222D01*
X035035Y050458D01*
X034346Y050458D02*
X034346Y050222D01*
X033755Y050222D01*
X033755Y050458D01*
X033066Y050616D02*
X032672Y050616D01*
X032672Y050813D01*
X032672Y051206D02*
X032672Y051403D01*
X033066Y051403D01*
X033066Y051206D01*
X033066Y050813D02*
X033066Y050616D01*
X036216Y039002D02*
X036216Y038805D01*
X036216Y039002D02*
X036609Y039002D01*
X036609Y038805D01*
X036609Y038411D02*
X036609Y038214D01*
X036216Y038214D01*
X036216Y038411D01*
X036216Y037427D02*
X036609Y037427D01*
X036609Y037230D01*
X036216Y037230D02*
X036216Y037427D01*
X036216Y036836D02*
X036216Y036639D01*
X036609Y036639D01*
X036609Y036836D01*
X037200Y036836D02*
X037200Y036639D01*
X037594Y036639D01*
X037594Y036836D01*
X037594Y037230D02*
X037594Y037427D01*
X037200Y037427D01*
X037200Y037230D01*
X037200Y038214D02*
X037594Y038214D01*
X037594Y038411D01*
X037594Y038805D02*
X037594Y039002D01*
X037200Y039002D01*
X037200Y038805D01*
X037200Y038411D02*
X037200Y038214D01*
D18*
X018007Y038884D03*
D19*
X022239Y030734D03*
D20*
X034090Y033746D03*
X034602Y030281D03*
X034287Y038864D03*
D21*
X031885Y053076D03*
D22*
X030409Y024632D03*
X034739Y024632D03*
D23*
X029117Y046919D02*
X028117Y046919D01*
X028117Y049935D01*
X029117Y049935D01*
X029117Y046919D01*
X017818Y048147D02*
X016818Y048147D01*
X016818Y051163D01*
X017818Y051163D01*
X017818Y048147D01*
D24*
X017318Y048047D03*
X028617Y050035D03*
D25*
X014838Y032447D02*
X014956Y032328D01*
X014287Y032958D02*
X014168Y033076D01*
D26*
X017751Y044041D03*
D27*
X022259Y041462D02*
X022259Y041325D01*
X022200Y041325D01*
X022200Y041206D01*
X022259Y041206D01*
X022259Y041069D01*
X022338Y041069D01*
X022338Y041462D01*
X022259Y041462D01*
X018322Y033884D02*
X018243Y033884D01*
X018243Y033490D01*
X018322Y033490D01*
X018322Y033628D01*
X018381Y033628D01*
X018381Y033746D01*
X018322Y033746D01*
X018322Y033884D01*
D28*
X018322Y033883D02*
X018243Y033883D01*
X018243Y033882D02*
X018322Y033882D01*
X018322Y033881D02*
X018243Y033881D01*
X018243Y033880D02*
X018322Y033880D01*
X018322Y033879D02*
X018243Y033879D01*
X018243Y033878D02*
X018322Y033878D01*
X018322Y033877D02*
X018243Y033877D01*
X018243Y033876D02*
X018322Y033876D01*
X018322Y033875D02*
X018243Y033875D01*
X018243Y033874D02*
X018322Y033874D01*
X018322Y033873D02*
X018243Y033873D01*
X018243Y033872D02*
X018322Y033872D01*
X018322Y033871D02*
X018243Y033871D01*
X018243Y033870D02*
X018322Y033870D01*
X018322Y033869D02*
X018243Y033869D01*
X018243Y033868D02*
X018322Y033868D01*
X018322Y033867D02*
X018243Y033867D01*
X018243Y033866D02*
X018322Y033866D01*
X018322Y033865D02*
X018243Y033865D01*
X018243Y033864D02*
X018322Y033864D01*
X018322Y033863D02*
X018243Y033863D01*
X018243Y033862D02*
X018322Y033862D01*
X018322Y033861D02*
X018243Y033861D01*
X018243Y033860D02*
X018322Y033860D01*
X018322Y033859D02*
X018243Y033859D01*
X018243Y033858D02*
X018322Y033858D01*
X018322Y033857D02*
X018243Y033857D01*
X018243Y033856D02*
X018322Y033856D01*
X018322Y033855D02*
X018243Y033855D01*
X018243Y033854D02*
X018322Y033854D01*
X018322Y033853D02*
X018243Y033853D01*
X018243Y033852D02*
X018322Y033852D01*
X018322Y033851D02*
X018243Y033851D01*
X018243Y033850D02*
X018322Y033850D01*
X018322Y033849D02*
X018243Y033849D01*
X018243Y033848D02*
X018322Y033848D01*
X018322Y033847D02*
X018243Y033847D01*
X018243Y033846D02*
X018322Y033846D01*
X018322Y033845D02*
X018243Y033845D01*
X018243Y033844D02*
X018322Y033844D01*
X018322Y033843D02*
X018243Y033843D01*
X018243Y033842D02*
X018322Y033842D01*
X018322Y033841D02*
X018243Y033841D01*
X018243Y033840D02*
X018322Y033840D01*
X018322Y033839D02*
X018243Y033839D01*
X018243Y033838D02*
X018322Y033838D01*
X018322Y033837D02*
X018243Y033837D01*
X018243Y033836D02*
X018322Y033836D01*
X018322Y033835D02*
X018243Y033835D01*
X018243Y033834D02*
X018322Y033834D01*
X018322Y033833D02*
X018243Y033833D01*
X018243Y033832D02*
X018322Y033832D01*
X018322Y033831D02*
X018243Y033831D01*
X018243Y033830D02*
X018322Y033830D01*
X018322Y033829D02*
X018243Y033829D01*
X018243Y033828D02*
X018322Y033828D01*
X018322Y033827D02*
X018243Y033827D01*
X018243Y033826D02*
X018322Y033826D01*
X018322Y033825D02*
X018243Y033825D01*
X018243Y033824D02*
X018322Y033824D01*
X018322Y033823D02*
X018243Y033823D01*
X018243Y033822D02*
X018322Y033822D01*
X018322Y033821D02*
X018243Y033821D01*
X018243Y033820D02*
X018322Y033820D01*
X018322Y033819D02*
X018243Y033819D01*
X018243Y033818D02*
X018322Y033818D01*
X018322Y033817D02*
X018243Y033817D01*
X018243Y033816D02*
X018322Y033816D01*
X018322Y033815D02*
X018243Y033815D01*
X018243Y033814D02*
X018322Y033814D01*
X018322Y033813D02*
X018243Y033813D01*
X018243Y033812D02*
X018322Y033812D01*
X018322Y033811D02*
X018243Y033811D01*
X018243Y033810D02*
X018322Y033810D01*
X018322Y033809D02*
X018243Y033809D01*
X018243Y033808D02*
X018322Y033808D01*
X018322Y033807D02*
X018243Y033807D01*
X018243Y033806D02*
X018322Y033806D01*
X018322Y033805D02*
X018243Y033805D01*
X018243Y033804D02*
X018322Y033804D01*
X018322Y033803D02*
X018243Y033803D01*
X018243Y033802D02*
X018322Y033802D01*
X018322Y033801D02*
X018243Y033801D01*
X018243Y033800D02*
X018322Y033800D01*
X018322Y033799D02*
X018243Y033799D01*
X018243Y033798D02*
X018322Y033798D01*
X018322Y033797D02*
X018243Y033797D01*
X018243Y033796D02*
X018322Y033796D01*
X018322Y033795D02*
X018243Y033795D01*
X018243Y033794D02*
X018322Y033794D01*
X018322Y033793D02*
X018243Y033793D01*
X018243Y033792D02*
X018322Y033792D01*
X018322Y033791D02*
X018243Y033791D01*
X018243Y033790D02*
X018322Y033790D01*
X018322Y033789D02*
X018243Y033789D01*
X018243Y033788D02*
X018322Y033788D01*
X018322Y033787D02*
X018243Y033787D01*
X018243Y033786D02*
X018322Y033786D01*
X018322Y033785D02*
X018243Y033785D01*
X018243Y033784D02*
X018322Y033784D01*
X018322Y033783D02*
X018243Y033783D01*
X018243Y033782D02*
X018322Y033782D01*
X018322Y033781D02*
X018243Y033781D01*
X018243Y033780D02*
X018322Y033780D01*
X018322Y033779D02*
X018243Y033779D01*
X018243Y033778D02*
X018322Y033778D01*
X018322Y033777D02*
X018243Y033777D01*
X018243Y033776D02*
X018322Y033776D01*
X018322Y033775D02*
X018243Y033775D01*
X018243Y033774D02*
X018322Y033774D01*
X018322Y033773D02*
X018243Y033773D01*
X018243Y033772D02*
X018322Y033772D01*
X018322Y033771D02*
X018243Y033771D01*
X018243Y033770D02*
X018322Y033770D01*
X018322Y033769D02*
X018243Y033769D01*
X018243Y033768D02*
X018322Y033768D01*
X018322Y033767D02*
X018243Y033767D01*
X018243Y033766D02*
X018322Y033766D01*
X018322Y033765D02*
X018243Y033765D01*
X018243Y033764D02*
X018322Y033764D01*
X018322Y033763D02*
X018243Y033763D01*
X018243Y033762D02*
X018322Y033762D01*
X018322Y033761D02*
X018243Y033761D01*
X018243Y033760D02*
X018322Y033760D01*
X018322Y033759D02*
X018243Y033759D01*
X018243Y033758D02*
X018322Y033758D01*
X018322Y033757D02*
X018243Y033757D01*
X018243Y033756D02*
X018322Y033756D01*
X018322Y033755D02*
X018243Y033755D01*
X018243Y033754D02*
X018322Y033754D01*
X018322Y033753D02*
X018243Y033753D01*
X018243Y033752D02*
X018322Y033752D01*
X018322Y033751D02*
X018243Y033751D01*
X018243Y033750D02*
X018322Y033750D01*
X018322Y033749D02*
X018243Y033749D01*
X018243Y033748D02*
X018322Y033748D01*
X018322Y033747D02*
X018243Y033747D01*
X018243Y033746D02*
X018322Y033746D01*
X018381Y033745D02*
X018243Y033745D01*
X018243Y033744D02*
X018381Y033744D01*
X018381Y033743D02*
X018243Y033743D01*
X018243Y033742D02*
X018381Y033742D01*
X018381Y033741D02*
X018243Y033741D01*
X018243Y033740D02*
X018381Y033740D01*
X018381Y033739D02*
X018243Y033739D01*
X018243Y033738D02*
X018381Y033738D01*
X018381Y033737D02*
X018243Y033737D01*
X018243Y033736D02*
X018381Y033736D01*
X018381Y033735D02*
X018243Y033735D01*
X018243Y033734D02*
X018381Y033734D01*
X018381Y033733D02*
X018243Y033733D01*
X018243Y033732D02*
X018381Y033732D01*
X018381Y033731D02*
X018243Y033731D01*
X018243Y033730D02*
X018381Y033730D01*
X018381Y033729D02*
X018243Y033729D01*
X018243Y033728D02*
X018381Y033728D01*
X018381Y033727D02*
X018243Y033727D01*
X018243Y033726D02*
X018381Y033726D01*
X018381Y033725D02*
X018243Y033725D01*
X018243Y033724D02*
X018381Y033724D01*
X018381Y033723D02*
X018243Y033723D01*
X018243Y033722D02*
X018381Y033722D01*
X018381Y033721D02*
X018243Y033721D01*
X018243Y033720D02*
X018381Y033720D01*
X018381Y033719D02*
X018243Y033719D01*
X018243Y033718D02*
X018381Y033718D01*
X018381Y033717D02*
X018243Y033717D01*
X018243Y033716D02*
X018381Y033716D01*
X018381Y033715D02*
X018243Y033715D01*
X018243Y033714D02*
X018381Y033714D01*
X018381Y033713D02*
X018243Y033713D01*
X018243Y033712D02*
X018381Y033712D01*
X018381Y033711D02*
X018243Y033711D01*
X018243Y033710D02*
X018381Y033710D01*
X018381Y033709D02*
X018243Y033709D01*
X018243Y033708D02*
X018381Y033708D01*
X018381Y033707D02*
X018243Y033707D01*
X018243Y033706D02*
X018381Y033706D01*
X018381Y033705D02*
X018243Y033705D01*
X018243Y033704D02*
X018381Y033704D01*
X018381Y033703D02*
X018243Y033703D01*
X018243Y033702D02*
X018381Y033702D01*
X018381Y033701D02*
X018243Y033701D01*
X018243Y033700D02*
X018381Y033700D01*
X018381Y033699D02*
X018243Y033699D01*
X018243Y033698D02*
X018381Y033698D01*
X018381Y033697D02*
X018243Y033697D01*
X018243Y033696D02*
X018381Y033696D01*
X018381Y033695D02*
X018243Y033695D01*
X018243Y033694D02*
X018381Y033694D01*
X018381Y033693D02*
X018243Y033693D01*
X018243Y033692D02*
X018381Y033692D01*
X018381Y033691D02*
X018243Y033691D01*
X018243Y033690D02*
X018381Y033690D01*
X018381Y033689D02*
X018243Y033689D01*
X018243Y033688D02*
X018381Y033688D01*
X018381Y033687D02*
X018243Y033687D01*
X018243Y033686D02*
X018381Y033686D01*
X018381Y033685D02*
X018243Y033685D01*
X018243Y033684D02*
X018381Y033684D01*
X018381Y033683D02*
X018243Y033683D01*
X018243Y033682D02*
X018381Y033682D01*
X018381Y033681D02*
X018243Y033681D01*
X018243Y033680D02*
X018381Y033680D01*
X018381Y033679D02*
X018243Y033679D01*
X018243Y033678D02*
X018381Y033678D01*
X018381Y033677D02*
X018243Y033677D01*
X018243Y033676D02*
X018381Y033676D01*
X018381Y033675D02*
X018243Y033675D01*
X018243Y033674D02*
X018381Y033674D01*
X018381Y033673D02*
X018243Y033673D01*
X018243Y033672D02*
X018381Y033672D01*
X018381Y033671D02*
X018243Y033671D01*
X018243Y033670D02*
X018381Y033670D01*
X018381Y033669D02*
X018243Y033669D01*
X018243Y033668D02*
X018381Y033668D01*
X018381Y033667D02*
X018243Y033667D01*
X018243Y033666D02*
X018381Y033666D01*
X018381Y033665D02*
X018243Y033665D01*
X018243Y033664D02*
X018381Y033664D01*
X018381Y033663D02*
X018243Y033663D01*
X018243Y033662D02*
X018381Y033662D01*
X018381Y033661D02*
X018243Y033661D01*
X018243Y033660D02*
X018381Y033660D01*
X018381Y033659D02*
X018243Y033659D01*
X018243Y033658D02*
X018381Y033658D01*
X018381Y033657D02*
X018243Y033657D01*
X018243Y033656D02*
X018381Y033656D01*
X018381Y033655D02*
X018243Y033655D01*
X018243Y033654D02*
X018381Y033654D01*
X018381Y033653D02*
X018243Y033653D01*
X018243Y033652D02*
X018381Y033652D01*
X018381Y033651D02*
X018243Y033651D01*
X018243Y033650D02*
X018381Y033650D01*
X018381Y033649D02*
X018243Y033649D01*
X018243Y033648D02*
X018381Y033648D01*
X018381Y033647D02*
X018243Y033647D01*
X018243Y033646D02*
X018381Y033646D01*
X018381Y033645D02*
X018243Y033645D01*
X018243Y033644D02*
X018381Y033644D01*
X018381Y033643D02*
X018243Y033643D01*
X018243Y033642D02*
X018381Y033642D01*
X018381Y033641D02*
X018243Y033641D01*
X018243Y033640D02*
X018381Y033640D01*
X018381Y033639D02*
X018243Y033639D01*
X018243Y033638D02*
X018381Y033638D01*
X018381Y033637D02*
X018243Y033637D01*
X018243Y033636D02*
X018381Y033636D01*
X018381Y033635D02*
X018243Y033635D01*
X018243Y033634D02*
X018381Y033634D01*
X018381Y033633D02*
X018243Y033633D01*
X018243Y033632D02*
X018381Y033632D01*
X018381Y033631D02*
X018243Y033631D01*
X018243Y033630D02*
X018381Y033630D01*
X018381Y033629D02*
X018243Y033629D01*
X018243Y033628D02*
X018381Y033628D01*
X018322Y033627D02*
X018243Y033627D01*
X018243Y033626D02*
X018322Y033626D01*
X018322Y033625D02*
X018243Y033625D01*
X018243Y033624D02*
X018322Y033624D01*
X018322Y033623D02*
X018243Y033623D01*
X018243Y033622D02*
X018322Y033622D01*
X018322Y033621D02*
X018243Y033621D01*
X018243Y033620D02*
X018322Y033620D01*
X018322Y033619D02*
X018243Y033619D01*
X018243Y033618D02*
X018322Y033618D01*
X018322Y033617D02*
X018243Y033617D01*
X018243Y033616D02*
X018322Y033616D01*
X018322Y033615D02*
X018243Y033615D01*
X018243Y033614D02*
X018322Y033614D01*
X018322Y033613D02*
X018243Y033613D01*
X018243Y033612D02*
X018322Y033612D01*
X018322Y033611D02*
X018243Y033611D01*
X018243Y033610D02*
X018322Y033610D01*
X018322Y033609D02*
X018243Y033609D01*
X018243Y033608D02*
X018322Y033608D01*
X018322Y033607D02*
X018243Y033607D01*
X018243Y033606D02*
X018322Y033606D01*
X018322Y033605D02*
X018243Y033605D01*
X018243Y033604D02*
X018322Y033604D01*
X018322Y033603D02*
X018243Y033603D01*
X018243Y033602D02*
X018322Y033602D01*
X018322Y033601D02*
X018243Y033601D01*
X018243Y033600D02*
X018322Y033600D01*
X018322Y033599D02*
X018243Y033599D01*
X018243Y033598D02*
X018322Y033598D01*
X018322Y033597D02*
X018243Y033597D01*
X018243Y033596D02*
X018322Y033596D01*
X018322Y033595D02*
X018243Y033595D01*
X018243Y033594D02*
X018322Y033594D01*
X018322Y033593D02*
X018243Y033593D01*
X018243Y033592D02*
X018322Y033592D01*
X018322Y033591D02*
X018243Y033591D01*
X018243Y033590D02*
X018322Y033590D01*
X018322Y033589D02*
X018243Y033589D01*
X018243Y033588D02*
X018322Y033588D01*
X018322Y033587D02*
X018243Y033587D01*
X018243Y033586D02*
X018322Y033586D01*
X018322Y033585D02*
X018243Y033585D01*
X018243Y033584D02*
X018322Y033584D01*
X018322Y033583D02*
X018243Y033583D01*
X018243Y033582D02*
X018322Y033582D01*
X018322Y033581D02*
X018243Y033581D01*
X018243Y033580D02*
X018322Y033580D01*
X018322Y033579D02*
X018243Y033579D01*
X018243Y033578D02*
X018322Y033578D01*
X018322Y033577D02*
X018243Y033577D01*
X018243Y033576D02*
X018322Y033576D01*
X018322Y033575D02*
X018243Y033575D01*
X018243Y033574D02*
X018322Y033574D01*
X018322Y033573D02*
X018243Y033573D01*
X018243Y033572D02*
X018322Y033572D01*
X018322Y033571D02*
X018243Y033571D01*
X018243Y033570D02*
X018322Y033570D01*
X018322Y033569D02*
X018243Y033569D01*
X018243Y033568D02*
X018322Y033568D01*
X018322Y033567D02*
X018243Y033567D01*
X018243Y033566D02*
X018322Y033566D01*
X018322Y033565D02*
X018243Y033565D01*
X018243Y033564D02*
X018322Y033564D01*
X018322Y033563D02*
X018243Y033563D01*
X018243Y033562D02*
X018322Y033562D01*
X018322Y033561D02*
X018243Y033561D01*
X018243Y033560D02*
X018322Y033560D01*
X018322Y033559D02*
X018243Y033559D01*
X018243Y033558D02*
X018322Y033558D01*
X018322Y033557D02*
X018243Y033557D01*
X018243Y033556D02*
X018322Y033556D01*
X018322Y033555D02*
X018243Y033555D01*
X018243Y033554D02*
X018322Y033554D01*
X018322Y033553D02*
X018243Y033553D01*
X018243Y033552D02*
X018322Y033552D01*
X018322Y033551D02*
X018243Y033551D01*
X018243Y033550D02*
X018322Y033550D01*
X018322Y033549D02*
X018243Y033549D01*
X018243Y033548D02*
X018322Y033548D01*
X018322Y033547D02*
X018243Y033547D01*
X018243Y033546D02*
X018322Y033546D01*
X018322Y033545D02*
X018243Y033545D01*
X018243Y033544D02*
X018322Y033544D01*
X018322Y033543D02*
X018243Y033543D01*
X018243Y033542D02*
X018322Y033542D01*
X018322Y033541D02*
X018243Y033541D01*
X018243Y033540D02*
X018322Y033540D01*
X018322Y033539D02*
X018243Y033539D01*
X018243Y033538D02*
X018322Y033538D01*
X018322Y033537D02*
X018243Y033537D01*
X018243Y033536D02*
X018322Y033536D01*
X018322Y033535D02*
X018243Y033535D01*
X018243Y033534D02*
X018322Y033534D01*
X018322Y033533D02*
X018243Y033533D01*
X018243Y033532D02*
X018322Y033532D01*
X018322Y033531D02*
X018243Y033531D01*
X018243Y033530D02*
X018322Y033530D01*
X018322Y033529D02*
X018243Y033529D01*
X018243Y033528D02*
X018322Y033528D01*
X018322Y033527D02*
X018243Y033527D01*
X018243Y033526D02*
X018322Y033526D01*
X018322Y033525D02*
X018243Y033525D01*
X018243Y033524D02*
X018322Y033524D01*
X018322Y033523D02*
X018243Y033523D01*
X018243Y033522D02*
X018322Y033522D01*
X018322Y033521D02*
X018243Y033521D01*
X018243Y033520D02*
X018322Y033520D01*
X018322Y033519D02*
X018243Y033519D01*
X018243Y033518D02*
X018322Y033518D01*
X018322Y033517D02*
X018243Y033517D01*
X018243Y033516D02*
X018322Y033516D01*
X018322Y033515D02*
X018243Y033515D01*
X018243Y033514D02*
X018322Y033514D01*
X018322Y033513D02*
X018243Y033513D01*
X018243Y033512D02*
X018322Y033512D01*
X018322Y033511D02*
X018243Y033511D01*
X018243Y033510D02*
X018322Y033510D01*
X018322Y033509D02*
X018243Y033509D01*
X018243Y033508D02*
X018322Y033508D01*
X018322Y033507D02*
X018243Y033507D01*
X018243Y033506D02*
X018322Y033506D01*
X018322Y033505D02*
X018243Y033505D01*
X018243Y033504D02*
X018322Y033504D01*
X018322Y033503D02*
X018243Y033503D01*
X018243Y033502D02*
X018322Y033502D01*
X018322Y033501D02*
X018243Y033501D01*
X018243Y033500D02*
X018322Y033500D01*
X018322Y033499D02*
X018243Y033499D01*
X018243Y033498D02*
X018322Y033498D01*
X018322Y033497D02*
X018243Y033497D01*
X018243Y033496D02*
X018322Y033496D01*
X018322Y033495D02*
X018243Y033495D01*
X018243Y033494D02*
X018322Y033494D01*
X018322Y033493D02*
X018243Y033493D01*
X018243Y033492D02*
X018322Y033492D01*
X018322Y033491D02*
X018243Y033491D01*
X018243Y033490D02*
X018322Y033490D01*
X022259Y041069D02*
X022338Y041069D01*
X022338Y041070D02*
X022259Y041070D01*
X022259Y041071D02*
X022338Y041071D01*
X022338Y041072D02*
X022259Y041072D01*
X022259Y041073D02*
X022338Y041073D01*
X022338Y041074D02*
X022259Y041074D01*
X022259Y041075D02*
X022338Y041075D01*
X022338Y041076D02*
X022259Y041076D01*
X022259Y041077D02*
X022338Y041077D01*
X022338Y041078D02*
X022259Y041078D01*
X022259Y041079D02*
X022338Y041079D01*
X022338Y041080D02*
X022259Y041080D01*
X022259Y041081D02*
X022338Y041081D01*
X022338Y041082D02*
X022259Y041082D01*
X022259Y041083D02*
X022338Y041083D01*
X022338Y041084D02*
X022259Y041084D01*
X022259Y041085D02*
X022338Y041085D01*
X022338Y041086D02*
X022259Y041086D01*
X022259Y041087D02*
X022338Y041087D01*
X022338Y041088D02*
X022259Y041088D01*
X022259Y041089D02*
X022338Y041089D01*
X022338Y041090D02*
X022259Y041090D01*
X022259Y041091D02*
X022338Y041091D01*
X022338Y041092D02*
X022259Y041092D01*
X022259Y041093D02*
X022338Y041093D01*
X022338Y041094D02*
X022259Y041094D01*
X022259Y041095D02*
X022338Y041095D01*
X022338Y041096D02*
X022259Y041096D01*
X022259Y041097D02*
X022338Y041097D01*
X022338Y041098D02*
X022259Y041098D01*
X022259Y041099D02*
X022338Y041099D01*
X022338Y041100D02*
X022259Y041100D01*
X022259Y041101D02*
X022338Y041101D01*
X022338Y041102D02*
X022259Y041102D01*
X022259Y041103D02*
X022338Y041103D01*
X022338Y041104D02*
X022259Y041104D01*
X022259Y041105D02*
X022338Y041105D01*
X022338Y041106D02*
X022259Y041106D01*
X022259Y041107D02*
X022338Y041107D01*
X022338Y041108D02*
X022259Y041108D01*
X022259Y041109D02*
X022338Y041109D01*
X022338Y041110D02*
X022259Y041110D01*
X022259Y041111D02*
X022338Y041111D01*
X022338Y041112D02*
X022259Y041112D01*
X022259Y041113D02*
X022338Y041113D01*
X022338Y041114D02*
X022259Y041114D01*
X022259Y041115D02*
X022338Y041115D01*
X022338Y041116D02*
X022259Y041116D01*
X022259Y041117D02*
X022338Y041117D01*
X022338Y041118D02*
X022259Y041118D01*
X022259Y041119D02*
X022338Y041119D01*
X022338Y041120D02*
X022259Y041120D01*
X022259Y041121D02*
X022338Y041121D01*
X022338Y041122D02*
X022259Y041122D01*
X022259Y041123D02*
X022338Y041123D01*
X022338Y041124D02*
X022259Y041124D01*
X022259Y041125D02*
X022338Y041125D01*
X022338Y041126D02*
X022259Y041126D01*
X022259Y041127D02*
X022338Y041127D01*
X022338Y041128D02*
X022259Y041128D01*
X022259Y041129D02*
X022338Y041129D01*
X022338Y041130D02*
X022259Y041130D01*
X022259Y041131D02*
X022338Y041131D01*
X022338Y041132D02*
X022259Y041132D01*
X022259Y041133D02*
X022338Y041133D01*
X022338Y041134D02*
X022259Y041134D01*
X022259Y041135D02*
X022338Y041135D01*
X022338Y041136D02*
X022259Y041136D01*
X022259Y041137D02*
X022338Y041137D01*
X022338Y041138D02*
X022259Y041138D01*
X022259Y041139D02*
X022338Y041139D01*
X022338Y041140D02*
X022259Y041140D01*
X022259Y041141D02*
X022338Y041141D01*
X022338Y041142D02*
X022259Y041142D01*
X022259Y041143D02*
X022338Y041143D01*
X022338Y041144D02*
X022259Y041144D01*
X022259Y041145D02*
X022338Y041145D01*
X022338Y041146D02*
X022259Y041146D01*
X022259Y041147D02*
X022338Y041147D01*
X022338Y041148D02*
X022259Y041148D01*
X022259Y041149D02*
X022338Y041149D01*
X022338Y041150D02*
X022259Y041150D01*
X022259Y041151D02*
X022338Y041151D01*
X022338Y041152D02*
X022259Y041152D01*
X022259Y041153D02*
X022338Y041153D01*
X022338Y041154D02*
X022259Y041154D01*
X022259Y041155D02*
X022338Y041155D01*
X022338Y041156D02*
X022259Y041156D01*
X022259Y041157D02*
X022338Y041157D01*
X022338Y041158D02*
X022259Y041158D01*
X022259Y041159D02*
X022338Y041159D01*
X022338Y041160D02*
X022259Y041160D01*
X022259Y041161D02*
X022338Y041161D01*
X022338Y041162D02*
X022259Y041162D01*
X022259Y041163D02*
X022338Y041163D01*
X022338Y041164D02*
X022259Y041164D01*
X022259Y041165D02*
X022338Y041165D01*
X022338Y041166D02*
X022259Y041166D01*
X022259Y041167D02*
X022338Y041167D01*
X022338Y041168D02*
X022259Y041168D01*
X022259Y041169D02*
X022338Y041169D01*
X022338Y041170D02*
X022259Y041170D01*
X022259Y041171D02*
X022338Y041171D01*
X022338Y041172D02*
X022259Y041172D01*
X022259Y041173D02*
X022338Y041173D01*
X022338Y041174D02*
X022259Y041174D01*
X022259Y041175D02*
X022338Y041175D01*
X022338Y041176D02*
X022259Y041176D01*
X022259Y041177D02*
X022338Y041177D01*
X022338Y041178D02*
X022259Y041178D01*
X022259Y041179D02*
X022338Y041179D01*
X022338Y041180D02*
X022259Y041180D01*
X022259Y041181D02*
X022338Y041181D01*
X022338Y041182D02*
X022259Y041182D01*
X022259Y041183D02*
X022338Y041183D01*
X022338Y041184D02*
X022259Y041184D01*
X022259Y041185D02*
X022338Y041185D01*
X022338Y041186D02*
X022259Y041186D01*
X022259Y041187D02*
X022338Y041187D01*
X022338Y041188D02*
X022259Y041188D01*
X022259Y041189D02*
X022338Y041189D01*
X022338Y041190D02*
X022259Y041190D01*
X022259Y041191D02*
X022338Y041191D01*
X022338Y041192D02*
X022259Y041192D01*
X022259Y041193D02*
X022338Y041193D01*
X022338Y041194D02*
X022259Y041194D01*
X022259Y041195D02*
X022338Y041195D01*
X022338Y041196D02*
X022259Y041196D01*
X022259Y041197D02*
X022338Y041197D01*
X022338Y041198D02*
X022259Y041198D01*
X022259Y041199D02*
X022338Y041199D01*
X022338Y041200D02*
X022259Y041200D01*
X022259Y041201D02*
X022338Y041201D01*
X022338Y041202D02*
X022259Y041202D01*
X022259Y041203D02*
X022338Y041203D01*
X022338Y041204D02*
X022259Y041204D01*
X022259Y041205D02*
X022338Y041205D01*
X022338Y041206D02*
X022259Y041206D01*
X022200Y041207D02*
X022338Y041207D01*
X022338Y041208D02*
X022200Y041208D01*
X022200Y041209D02*
X022338Y041209D01*
X022338Y041210D02*
X022200Y041210D01*
X022200Y041211D02*
X022338Y041211D01*
X022338Y041212D02*
X022200Y041212D01*
X022200Y041213D02*
X022338Y041213D01*
X022338Y041214D02*
X022200Y041214D01*
X022200Y041215D02*
X022338Y041215D01*
X022338Y041216D02*
X022200Y041216D01*
X022200Y041217D02*
X022338Y041217D01*
X022338Y041218D02*
X022200Y041218D01*
X022200Y041219D02*
X022338Y041219D01*
X022338Y041220D02*
X022200Y041220D01*
X022200Y041221D02*
X022338Y041221D01*
X022338Y041222D02*
X022200Y041222D01*
X022200Y041223D02*
X022338Y041223D01*
X022338Y041224D02*
X022200Y041224D01*
X022200Y041225D02*
X022338Y041225D01*
X022338Y041226D02*
X022200Y041226D01*
X022200Y041227D02*
X022338Y041227D01*
X022338Y041228D02*
X022200Y041228D01*
X022200Y041229D02*
X022338Y041229D01*
X022338Y041230D02*
X022200Y041230D01*
X022200Y041231D02*
X022338Y041231D01*
X022338Y041232D02*
X022200Y041232D01*
X022200Y041233D02*
X022338Y041233D01*
X022338Y041234D02*
X022200Y041234D01*
X022200Y041235D02*
X022338Y041235D01*
X022338Y041236D02*
X022200Y041236D01*
X022200Y041237D02*
X022338Y041237D01*
X022338Y041238D02*
X022200Y041238D01*
X022200Y041239D02*
X022338Y041239D01*
X022338Y041240D02*
X022200Y041240D01*
X022200Y041241D02*
X022338Y041241D01*
X022338Y041242D02*
X022200Y041242D01*
X022200Y041243D02*
X022338Y041243D01*
X022338Y041244D02*
X022200Y041244D01*
X022200Y041245D02*
X022338Y041245D01*
X022338Y041246D02*
X022200Y041246D01*
X022200Y041247D02*
X022338Y041247D01*
X022338Y041248D02*
X022200Y041248D01*
X022200Y041249D02*
X022338Y041249D01*
X022338Y041250D02*
X022200Y041250D01*
X022200Y041251D02*
X022338Y041251D01*
X022338Y041252D02*
X022200Y041252D01*
X022200Y041253D02*
X022338Y041253D01*
X022338Y041254D02*
X022200Y041254D01*
X022200Y041255D02*
X022338Y041255D01*
X022338Y041256D02*
X022200Y041256D01*
X022200Y041257D02*
X022338Y041257D01*
X022338Y041258D02*
X022200Y041258D01*
X022200Y041259D02*
X022338Y041259D01*
X022338Y041260D02*
X022200Y041260D01*
X022200Y041261D02*
X022338Y041261D01*
X022338Y041262D02*
X022200Y041262D01*
X022200Y041263D02*
X022338Y041263D01*
X022338Y041264D02*
X022200Y041264D01*
X022200Y041265D02*
X022338Y041265D01*
X022338Y041266D02*
X022200Y041266D01*
X022200Y041267D02*
X022338Y041267D01*
X022338Y041268D02*
X022200Y041268D01*
X022200Y041269D02*
X022338Y041269D01*
X022338Y041270D02*
X022200Y041270D01*
X022200Y041271D02*
X022338Y041271D01*
X022338Y041272D02*
X022200Y041272D01*
X022200Y041273D02*
X022338Y041273D01*
X022338Y041274D02*
X022200Y041274D01*
X022200Y041275D02*
X022338Y041275D01*
X022338Y041276D02*
X022200Y041276D01*
X022200Y041277D02*
X022338Y041277D01*
X022338Y041278D02*
X022200Y041278D01*
X022200Y041279D02*
X022338Y041279D01*
X022338Y041280D02*
X022200Y041280D01*
X022200Y041281D02*
X022338Y041281D01*
X022338Y041282D02*
X022200Y041282D01*
X022200Y041283D02*
X022338Y041283D01*
X022338Y041284D02*
X022200Y041284D01*
X022200Y041285D02*
X022338Y041285D01*
X022338Y041286D02*
X022200Y041286D01*
X022200Y041287D02*
X022338Y041287D01*
X022338Y041288D02*
X022200Y041288D01*
X022200Y041289D02*
X022338Y041289D01*
X022338Y041290D02*
X022200Y041290D01*
X022200Y041291D02*
X022338Y041291D01*
X022338Y041292D02*
X022200Y041292D01*
X022200Y041293D02*
X022338Y041293D01*
X022338Y041294D02*
X022200Y041294D01*
X022200Y041295D02*
X022338Y041295D01*
X022338Y041296D02*
X022200Y041296D01*
X022200Y041297D02*
X022338Y041297D01*
X022338Y041298D02*
X022200Y041298D01*
X022200Y041299D02*
X022338Y041299D01*
X022338Y041300D02*
X022200Y041300D01*
X022200Y041301D02*
X022338Y041301D01*
X022338Y041302D02*
X022200Y041302D01*
X022200Y041303D02*
X022338Y041303D01*
X022338Y041304D02*
X022200Y041304D01*
X022200Y041305D02*
X022338Y041305D01*
X022338Y041306D02*
X022200Y041306D01*
X022200Y041307D02*
X022338Y041307D01*
X022338Y041308D02*
X022200Y041308D01*
X022200Y041309D02*
X022338Y041309D01*
X022338Y041310D02*
X022200Y041310D01*
X022200Y041311D02*
X022338Y041311D01*
X022338Y041312D02*
X022200Y041312D01*
X022200Y041313D02*
X022338Y041313D01*
X022338Y041314D02*
X022200Y041314D01*
X022200Y041315D02*
X022338Y041315D01*
X022338Y041316D02*
X022200Y041316D01*
X022200Y041317D02*
X022338Y041317D01*
X022338Y041318D02*
X022200Y041318D01*
X022200Y041319D02*
X022338Y041319D01*
X022338Y041320D02*
X022200Y041320D01*
X022200Y041321D02*
X022338Y041321D01*
X022338Y041322D02*
X022200Y041322D01*
X022200Y041323D02*
X022338Y041323D01*
X022338Y041324D02*
X022200Y041324D01*
X022259Y041325D02*
X022338Y041325D01*
X022338Y041326D02*
X022259Y041326D01*
X022259Y041327D02*
X022338Y041327D01*
X022338Y041328D02*
X022259Y041328D01*
X022259Y041329D02*
X022338Y041329D01*
X022338Y041330D02*
X022259Y041330D01*
X022259Y041331D02*
X022338Y041331D01*
X022338Y041332D02*
X022259Y041332D01*
X022259Y041333D02*
X022338Y041333D01*
X022338Y041334D02*
X022259Y041334D01*
X022259Y041335D02*
X022338Y041335D01*
X022338Y041336D02*
X022259Y041336D01*
X022259Y041337D02*
X022338Y041337D01*
X022338Y041338D02*
X022259Y041338D01*
X022259Y041339D02*
X022338Y041339D01*
X022338Y041340D02*
X022259Y041340D01*
X022259Y041341D02*
X022338Y041341D01*
X022338Y041342D02*
X022259Y041342D01*
X022259Y041343D02*
X022338Y041343D01*
X022338Y041344D02*
X022259Y041344D01*
X022259Y041345D02*
X022338Y041345D01*
X022338Y041346D02*
X022259Y041346D01*
X022259Y041347D02*
X022338Y041347D01*
X022338Y041348D02*
X022259Y041348D01*
X022259Y041349D02*
X022338Y041349D01*
X022338Y041350D02*
X022259Y041350D01*
X022259Y041351D02*
X022338Y041351D01*
X022338Y041352D02*
X022259Y041352D01*
X022259Y041353D02*
X022338Y041353D01*
X022338Y041354D02*
X022259Y041354D01*
X022259Y041355D02*
X022338Y041355D01*
X022338Y041356D02*
X022259Y041356D01*
X022259Y041357D02*
X022338Y041357D01*
X022338Y041358D02*
X022259Y041358D01*
X022259Y041359D02*
X022338Y041359D01*
X022338Y041360D02*
X022259Y041360D01*
X022259Y041361D02*
X022338Y041361D01*
X022338Y041362D02*
X022259Y041362D01*
X022259Y041363D02*
X022338Y041363D01*
X022338Y041364D02*
X022259Y041364D01*
X022259Y041365D02*
X022338Y041365D01*
X022338Y041366D02*
X022259Y041366D01*
X022259Y041367D02*
X022338Y041367D01*
X022338Y041368D02*
X022259Y041368D01*
X022259Y041369D02*
X022338Y041369D01*
X022338Y041370D02*
X022259Y041370D01*
X022259Y041371D02*
X022338Y041371D01*
X022338Y041372D02*
X022259Y041372D01*
X022259Y041373D02*
X022338Y041373D01*
X022338Y041374D02*
X022259Y041374D01*
X022259Y041375D02*
X022338Y041375D01*
X022338Y041376D02*
X022259Y041376D01*
X022259Y041377D02*
X022338Y041377D01*
X022338Y041378D02*
X022259Y041378D01*
X022259Y041379D02*
X022338Y041379D01*
X022338Y041380D02*
X022259Y041380D01*
X022259Y041381D02*
X022338Y041381D01*
X022338Y041382D02*
X022259Y041382D01*
X022259Y041383D02*
X022338Y041383D01*
X022338Y041384D02*
X022259Y041384D01*
X022259Y041385D02*
X022338Y041385D01*
X022338Y041386D02*
X022259Y041386D01*
X022259Y041387D02*
X022338Y041387D01*
X022338Y041388D02*
X022259Y041388D01*
X022259Y041389D02*
X022338Y041389D01*
X022338Y041390D02*
X022259Y041390D01*
X022259Y041391D02*
X022338Y041391D01*
X022338Y041392D02*
X022259Y041392D01*
X022259Y041393D02*
X022338Y041393D01*
X022338Y041394D02*
X022259Y041394D01*
X022259Y041395D02*
X022338Y041395D01*
X022338Y041396D02*
X022259Y041396D01*
X022259Y041397D02*
X022338Y041397D01*
X022338Y041398D02*
X022259Y041398D01*
X022259Y041399D02*
X022338Y041399D01*
X022338Y041400D02*
X022259Y041400D01*
X022259Y041401D02*
X022338Y041401D01*
X022338Y041402D02*
X022259Y041402D01*
X022259Y041403D02*
X022338Y041403D01*
X022338Y041404D02*
X022259Y041404D01*
X022259Y041405D02*
X022338Y041405D01*
X022338Y041406D02*
X022259Y041406D01*
X022259Y041407D02*
X022338Y041407D01*
X022338Y041408D02*
X022259Y041408D01*
X022259Y041409D02*
X022338Y041409D01*
X022338Y041410D02*
X022259Y041410D01*
X022259Y041411D02*
X022338Y041411D01*
X022338Y041412D02*
X022259Y041412D01*
X022259Y041413D02*
X022338Y041413D01*
X022338Y041414D02*
X022259Y041414D01*
X022259Y041415D02*
X022338Y041415D01*
X022338Y041416D02*
X022259Y041416D01*
X022259Y041417D02*
X022338Y041417D01*
X022338Y041418D02*
X022259Y041418D01*
X022259Y041419D02*
X022338Y041419D01*
X022338Y041420D02*
X022259Y041420D01*
X022259Y041421D02*
X022338Y041421D01*
X022338Y041422D02*
X022259Y041422D01*
X022259Y041423D02*
X022338Y041423D01*
X022338Y041424D02*
X022259Y041424D01*
X022259Y041425D02*
X022338Y041425D01*
X022338Y041426D02*
X022259Y041426D01*
X022259Y041427D02*
X022338Y041427D01*
X022338Y041428D02*
X022259Y041428D01*
X022259Y041429D02*
X022338Y041429D01*
X022338Y041430D02*
X022259Y041430D01*
X022259Y041431D02*
X022338Y041431D01*
X022338Y041432D02*
X022259Y041432D01*
X022259Y041433D02*
X022338Y041433D01*
X022338Y041434D02*
X022259Y041434D01*
X022259Y041435D02*
X022338Y041435D01*
X022338Y041436D02*
X022259Y041436D01*
X022259Y041437D02*
X022338Y041437D01*
X022338Y041438D02*
X022259Y041438D01*
X022259Y041439D02*
X022338Y041439D01*
X022338Y041440D02*
X022259Y041440D01*
X022259Y041441D02*
X022338Y041441D01*
X022338Y041442D02*
X022259Y041442D01*
X022259Y041443D02*
X022338Y041443D01*
X022338Y041444D02*
X022259Y041444D01*
X022259Y041445D02*
X022338Y041445D01*
X022338Y041446D02*
X022259Y041446D01*
X022259Y041447D02*
X022338Y041447D01*
X022338Y041448D02*
X022259Y041448D01*
X022259Y041449D02*
X022338Y041449D01*
X022338Y041450D02*
X022259Y041450D01*
X022259Y041451D02*
X022338Y041451D01*
X022338Y041452D02*
X022259Y041452D01*
X022259Y041453D02*
X022338Y041453D01*
X022338Y041454D02*
X022259Y041454D01*
X022259Y041455D02*
X022338Y041455D01*
X022338Y041456D02*
X022259Y041456D01*
X022259Y041457D02*
X022338Y041457D01*
X022338Y041458D02*
X022259Y041458D01*
X022259Y041459D02*
X022338Y041459D01*
X022338Y041460D02*
X022259Y041460D01*
X022259Y041461D02*
X022338Y041461D01*
X022338Y041462D02*
X022259Y041462D01*
D29*
X021452Y041069D03*
X019129Y033884D03*
M02*
