G75*
%MOIN*%
%OFA0B0*%
%FSLAX24Y24*%
%IPPOS*%
%LPD*%
%AMOC8*
5,1,8,0,0,1.08239X$1,22.5*
%
%ADD10C,0.0059*%
%ADD11C,0.0839*%
%ADD12R,0.0639X0.0639*%
%ADD13C,0.0639*%
%ADD14R,0.0787X0.0787*%
%ADD15R,0.0579X0.0579*%
%ADD16C,0.0217*%
%ADD17C,0.0167*%
%ADD18C,0.0787*%
%ADD19R,0.0551X0.0551*%
%ADD20C,0.0551*%
%ADD21C,0.0739*%
%ADD22C,0.0709*%
%ADD23C,0.0069*%
%ADD24C,0.0433*%
%ADD25R,0.0779X0.0779*%
%ADD26C,0.0779*%
%ADD27C,0.0939*%
%ADD28R,0.0739X0.0739*%
%ADD29C,0.0157*%
%ADD30C,0.0472*%
%ADD31C,0.0579*%
%ADD32C,0.2619*%
D10*
X012594Y018529D02*
X012594Y057899D01*
X038184Y057899D01*
X038184Y018529D01*
X012594Y018529D01*
D11*
X025086Y036836D03*
X033417Y055962D03*
X034417Y055962D03*
X035417Y055962D03*
D12*
X030192Y052100D03*
X028617Y049435D03*
X031661Y041758D03*
X020468Y032202D03*
X017318Y048647D03*
D13*
X017318Y049647D03*
X017318Y050647D03*
X028617Y048435D03*
X028617Y047435D03*
X030192Y051100D03*
X032661Y041758D03*
X020468Y033202D03*
D14*
X026086Y036836D03*
D15*
X022582Y035108D03*
X030507Y046482D03*
X030507Y047466D03*
X026373Y047466D03*
X026373Y048254D03*
X025192Y049435D03*
X024405Y049435D03*
X023617Y049435D03*
X022830Y049435D03*
X022436Y048277D03*
X022436Y047073D03*
X023420Y047073D03*
X023420Y048254D03*
X014956Y055931D03*
X014956Y056679D03*
X013696Y056718D03*
X013696Y055931D03*
X037279Y024789D03*
D16*
X036639Y024405D02*
X036639Y025251D01*
X036639Y024405D02*
X035989Y024405D01*
X035989Y025251D01*
X036639Y025251D01*
X036639Y024621D02*
X035989Y024621D01*
X035989Y024837D02*
X036639Y024837D01*
X036639Y025053D02*
X035989Y025053D01*
X035084Y022929D02*
X034238Y022929D01*
X034238Y023579D01*
X035084Y023579D01*
X035084Y022929D01*
X035084Y023145D02*
X034238Y023145D01*
X034238Y023361D02*
X035084Y023361D01*
X035084Y023577D02*
X034238Y023577D01*
X032190Y024405D02*
X032190Y025251D01*
X032190Y024405D02*
X031540Y024405D01*
X031540Y025251D01*
X032190Y025251D01*
X032190Y024621D02*
X031540Y024621D01*
X031540Y024837D02*
X032190Y024837D01*
X032190Y025053D02*
X031540Y025053D01*
X030635Y022929D02*
X029789Y022929D01*
X029789Y023579D01*
X030635Y023579D01*
X030635Y022929D01*
X030635Y023145D02*
X029789Y023145D01*
X029789Y023361D02*
X030635Y023361D01*
X030635Y023577D02*
X029789Y023577D01*
X027742Y024405D02*
X027742Y025251D01*
X027742Y024405D02*
X027092Y024405D01*
X027092Y025251D01*
X027742Y025251D01*
X027742Y024621D02*
X027092Y024621D01*
X027092Y024837D02*
X027742Y024837D01*
X027742Y025053D02*
X027092Y025053D01*
X026186Y022929D02*
X025340Y022929D01*
X025340Y023579D01*
X026186Y023579D01*
X026186Y022929D01*
X026186Y023145D02*
X025340Y023145D01*
X025340Y023361D02*
X026186Y023361D01*
X026186Y023577D02*
X025340Y023577D01*
X024454Y019996D02*
X023608Y019996D01*
X023608Y020646D01*
X024454Y020646D01*
X024454Y019996D01*
X024454Y020212D02*
X023608Y020212D01*
X023608Y020428D02*
X024454Y020428D01*
X024454Y020644D02*
X023608Y020644D01*
X025340Y019287D02*
X026186Y019287D01*
X025340Y019287D02*
X025340Y019937D01*
X026186Y019937D01*
X026186Y019287D01*
X026186Y019503D02*
X025340Y019503D01*
X025340Y019719D02*
X026186Y019719D01*
X026186Y019935D02*
X025340Y019935D01*
X028057Y019996D02*
X028903Y019996D01*
X028057Y019996D02*
X028057Y020646D01*
X028903Y020646D01*
X028903Y019996D01*
X028903Y020212D02*
X028057Y020212D01*
X028057Y020428D02*
X028903Y020428D01*
X028903Y020644D02*
X028057Y020644D01*
X029789Y019287D02*
X030635Y019287D01*
X029789Y019287D02*
X029789Y019937D01*
X030635Y019937D01*
X030635Y019287D01*
X030635Y019503D02*
X029789Y019503D01*
X029789Y019719D02*
X030635Y019719D01*
X030635Y019935D02*
X029789Y019935D01*
X032505Y019996D02*
X033351Y019996D01*
X032505Y019996D02*
X032505Y020646D01*
X033351Y020646D01*
X033351Y019996D01*
X033351Y020212D02*
X032505Y020212D01*
X032505Y020428D02*
X033351Y020428D01*
X033351Y020644D02*
X032505Y020644D01*
X034238Y019287D02*
X035084Y019287D01*
X034238Y019287D02*
X034238Y019937D01*
X035084Y019937D01*
X035084Y019287D01*
X035084Y019503D02*
X034238Y019503D01*
X034238Y019719D02*
X035084Y019719D01*
X035084Y019935D02*
X034238Y019935D01*
X036954Y019996D02*
X037800Y019996D01*
X036954Y019996D02*
X036954Y020646D01*
X037800Y020646D01*
X037800Y019996D01*
X037800Y020212D02*
X036954Y020212D01*
X036954Y020428D02*
X037800Y020428D01*
X037800Y020644D02*
X036954Y020644D01*
X023293Y024405D02*
X023293Y025251D01*
X023293Y024405D02*
X022643Y024405D01*
X022643Y025251D01*
X023293Y025251D01*
X023293Y024621D02*
X022643Y024621D01*
X022643Y024837D02*
X023293Y024837D01*
X023293Y025053D02*
X022643Y025053D01*
X021737Y022929D02*
X020891Y022929D01*
X020891Y023579D01*
X021737Y023579D01*
X021737Y022929D01*
X021737Y023145D02*
X020891Y023145D01*
X020891Y023361D02*
X021737Y023361D01*
X021737Y023577D02*
X020891Y023577D01*
X020005Y019996D02*
X019159Y019996D01*
X019159Y020646D01*
X020005Y020646D01*
X020005Y019996D01*
X020005Y020212D02*
X019159Y020212D01*
X019159Y020428D02*
X020005Y020428D01*
X020005Y020644D02*
X019159Y020644D01*
X020891Y019287D02*
X021737Y019287D01*
X020891Y019287D02*
X020891Y019937D01*
X021737Y019937D01*
X021737Y019287D01*
X021737Y019503D02*
X020891Y019503D01*
X020891Y019719D02*
X021737Y019719D01*
X021737Y019935D02*
X020891Y019935D01*
X018844Y024405D02*
X018844Y025251D01*
X018844Y024405D02*
X018194Y024405D01*
X018194Y025251D01*
X018844Y025251D01*
X018844Y024621D02*
X018194Y024621D01*
X018194Y024837D02*
X018844Y024837D01*
X018844Y025053D02*
X018194Y025053D01*
X017288Y022929D02*
X016442Y022929D01*
X016442Y023579D01*
X017288Y023579D01*
X017288Y022929D01*
X017288Y023145D02*
X016442Y023145D01*
X016442Y023361D02*
X017288Y023361D01*
X017288Y023577D02*
X016442Y023577D01*
X016442Y019287D02*
X017288Y019287D01*
X016442Y019287D02*
X016442Y019937D01*
X017288Y019937D01*
X017288Y019287D01*
X017288Y019503D02*
X016442Y019503D01*
X016442Y019719D02*
X017288Y019719D01*
X017288Y019935D02*
X016442Y019935D01*
X013981Y041669D02*
X013981Y042515D01*
X014631Y042515D01*
X014631Y041669D01*
X013981Y041669D01*
X013981Y041885D02*
X014631Y041885D01*
X014631Y042101D02*
X013981Y042101D01*
X013981Y042317D02*
X014631Y042317D01*
X013273Y044386D02*
X013273Y045232D01*
X013923Y045232D01*
X013923Y044386D01*
X013273Y044386D01*
X013273Y044602D02*
X013923Y044602D01*
X013923Y044818D02*
X013273Y044818D01*
X013273Y045034D02*
X013923Y045034D01*
X016914Y045232D02*
X016914Y044386D01*
X016914Y045232D02*
X017564Y045232D01*
X017564Y044386D01*
X016914Y044386D01*
X016914Y044602D02*
X017564Y044602D01*
X017564Y044818D02*
X016914Y044818D01*
X016914Y045034D02*
X017564Y045034D01*
X018391Y042830D02*
X019237Y042830D01*
X018391Y042830D02*
X018391Y043480D01*
X019237Y043480D01*
X019237Y042830D01*
X019237Y043046D02*
X018391Y043046D01*
X018391Y043262D02*
X019237Y043262D01*
X019237Y043478D02*
X018391Y043478D01*
X022190Y054701D02*
X022190Y055547D01*
X022190Y054701D02*
X021540Y054701D01*
X021540Y055547D01*
X022190Y055547D01*
X022190Y054917D02*
X021540Y054917D01*
X021540Y055133D02*
X022190Y055133D01*
X022190Y055349D02*
X021540Y055349D01*
X022190Y056866D02*
X022190Y057712D01*
X022190Y056866D02*
X021540Y056866D01*
X021540Y057712D01*
X022190Y057712D01*
X022190Y057082D02*
X021540Y057082D01*
X021540Y057298D02*
X022190Y057298D01*
X022190Y057514D02*
X021540Y057514D01*
X025694Y057712D02*
X025694Y056866D01*
X025044Y056866D01*
X025044Y057712D01*
X025694Y057712D01*
X025694Y057082D02*
X025044Y057082D01*
X025044Y057298D02*
X025694Y057298D01*
X025694Y057514D02*
X025044Y057514D01*
X025694Y055547D02*
X025694Y054701D01*
X025044Y054701D01*
X025044Y055547D01*
X025694Y055547D01*
X025694Y054917D02*
X025044Y054917D01*
X025044Y055133D02*
X025694Y055133D01*
X025694Y055349D02*
X025044Y055349D01*
D17*
X013494Y042540D02*
X013494Y041644D01*
X012992Y041644D01*
X012992Y042540D01*
X013494Y042540D01*
X013494Y041810D02*
X012992Y041810D01*
X012992Y041976D02*
X013494Y041976D01*
X013494Y042142D02*
X012992Y042142D01*
X012992Y042308D02*
X013494Y042308D01*
X013494Y042474D02*
X012992Y042474D01*
X019134Y019509D02*
X020030Y019509D01*
X020030Y019007D01*
X019134Y019007D01*
X019134Y019509D01*
X019134Y019173D02*
X020030Y019173D01*
X020030Y019339D02*
X019134Y019339D01*
X019134Y019505D02*
X020030Y019505D01*
X023583Y019509D02*
X024479Y019509D01*
X024479Y019007D01*
X023583Y019007D01*
X023583Y019509D01*
X023583Y019173D02*
X024479Y019173D01*
X024479Y019339D02*
X023583Y019339D01*
X023583Y019505D02*
X024479Y019505D01*
X028032Y019509D02*
X028928Y019509D01*
X028928Y019007D01*
X028032Y019007D01*
X028032Y019509D01*
X028032Y019173D02*
X028928Y019173D01*
X028928Y019339D02*
X028032Y019339D01*
X028032Y019505D02*
X028928Y019505D01*
X032480Y019509D02*
X033376Y019509D01*
X033376Y019007D01*
X032480Y019007D01*
X032480Y019509D01*
X032480Y019173D02*
X033376Y019173D01*
X033376Y019339D02*
X032480Y019339D01*
X032480Y019505D02*
X033376Y019505D01*
X036929Y019509D02*
X037825Y019509D01*
X037825Y019007D01*
X036929Y019007D01*
X036929Y019509D01*
X036929Y019173D02*
X037825Y019173D01*
X037825Y019339D02*
X036929Y019339D01*
X036929Y019505D02*
X037825Y019505D01*
D18*
X036019Y020006D03*
X036019Y022762D03*
X031570Y022762D03*
X031570Y020006D03*
X027121Y020006D03*
X027121Y022762D03*
X022672Y022762D03*
X022672Y020006D03*
X018224Y020006D03*
X018224Y022762D03*
X016747Y043450D03*
X013991Y043450D03*
D19*
X020665Y027191D03*
D20*
X020665Y027978D03*
X021452Y027978D03*
X021452Y027191D03*
X022239Y027191D03*
X022239Y027978D03*
X023027Y027978D03*
X023027Y027191D03*
X023814Y027191D03*
X023814Y027978D03*
X024602Y027978D03*
X024602Y027191D03*
X025389Y027191D03*
X025389Y027978D03*
X026176Y027978D03*
X026176Y027191D03*
D21*
X022731Y032506D03*
X020684Y056728D03*
X020074Y057496D03*
X019464Y056728D03*
X017928Y056728D03*
X017318Y057496D03*
X016708Y056728D03*
D22*
X015743Y022663D03*
X015743Y020891D03*
D23*
X016348Y021615D02*
X016348Y021901D01*
X016556Y021901D01*
X016556Y021615D01*
X016348Y021615D01*
X016348Y021683D02*
X016556Y021683D01*
X016556Y021751D02*
X016348Y021751D01*
X016348Y021819D02*
X016556Y021819D01*
X016556Y021887D02*
X016348Y021887D01*
X016348Y022126D02*
X016348Y022412D01*
X016556Y022412D01*
X016556Y022126D01*
X016348Y022126D01*
X016348Y022194D02*
X016556Y022194D01*
X016556Y022262D02*
X016348Y022262D01*
X016348Y022330D02*
X016556Y022330D01*
X016556Y022398D02*
X016348Y022398D01*
X025561Y024932D02*
X025847Y024932D01*
X025847Y024724D01*
X025561Y024724D01*
X025561Y024932D01*
X025561Y024792D02*
X025847Y024792D01*
X025847Y024860D02*
X025561Y024860D01*
X025561Y024928D02*
X025847Y024928D01*
X026073Y024932D02*
X026359Y024932D01*
X026359Y024724D01*
X026073Y024724D01*
X026073Y024932D01*
X026073Y024792D02*
X026359Y024792D01*
X026359Y024860D02*
X026073Y024860D01*
X026073Y024928D02*
X026359Y024928D01*
X029616Y021861D02*
X029616Y021575D01*
X029616Y021861D02*
X029824Y021861D01*
X029824Y021575D01*
X029616Y021575D01*
X029616Y021643D02*
X029824Y021643D01*
X029824Y021711D02*
X029616Y021711D01*
X029616Y021779D02*
X029824Y021779D01*
X029824Y021847D02*
X029616Y021847D01*
X029616Y021349D02*
X029616Y021063D01*
X029616Y021349D02*
X029824Y021349D01*
X029824Y021063D01*
X029616Y021063D01*
X029616Y021131D02*
X029824Y021131D01*
X029824Y021199D02*
X029616Y021199D01*
X029616Y021267D02*
X029824Y021267D01*
X029824Y021335D02*
X029616Y021335D01*
X033946Y021349D02*
X033946Y021063D01*
X033946Y021349D02*
X034154Y021349D01*
X034154Y021063D01*
X033946Y021063D01*
X033946Y021131D02*
X034154Y021131D01*
X034154Y021199D02*
X033946Y021199D01*
X033946Y021267D02*
X034154Y021267D01*
X034154Y021335D02*
X033946Y021335D01*
X033946Y021575D02*
X033946Y021861D01*
X034154Y021861D01*
X034154Y021575D01*
X033946Y021575D01*
X033946Y021643D02*
X034154Y021643D01*
X034154Y021711D02*
X033946Y021711D01*
X033946Y021779D02*
X034154Y021779D01*
X034154Y021847D02*
X033946Y021847D01*
X014706Y045079D02*
X014706Y045365D01*
X014706Y045079D02*
X014498Y045079D01*
X014498Y045365D01*
X014706Y045365D01*
X014706Y045147D02*
X014498Y045147D01*
X014498Y045215D02*
X014706Y045215D01*
X014706Y045283D02*
X014498Y045283D01*
X014498Y045351D02*
X014706Y045351D01*
X014706Y045591D02*
X014706Y045877D01*
X014706Y045591D02*
X014498Y045591D01*
X014498Y045877D01*
X014706Y045877D01*
X014706Y045659D02*
X014498Y045659D01*
X014498Y045727D02*
X014706Y045727D01*
X014706Y045795D02*
X014498Y045795D01*
X014498Y045863D02*
X014706Y045863D01*
X023091Y054626D02*
X023091Y055542D01*
X023091Y054626D02*
X022883Y054626D01*
X022883Y055542D01*
X023091Y055542D01*
X023091Y054694D02*
X022883Y054694D01*
X022883Y054762D02*
X023091Y054762D01*
X023091Y054830D02*
X022883Y054830D01*
X022883Y054898D02*
X023091Y054898D01*
X023091Y054966D02*
X022883Y054966D01*
X022883Y055034D02*
X023091Y055034D01*
X023091Y055102D02*
X022883Y055102D01*
X022883Y055170D02*
X023091Y055170D01*
X023091Y055238D02*
X022883Y055238D01*
X022883Y055306D02*
X023091Y055306D01*
X023091Y055374D02*
X022883Y055374D01*
X022883Y055442D02*
X023091Y055442D01*
X023091Y055510D02*
X022883Y055510D01*
X023406Y055542D02*
X023406Y054626D01*
X023198Y054626D01*
X023198Y055542D01*
X023406Y055542D01*
X023406Y054694D02*
X023198Y054694D01*
X023198Y054762D02*
X023406Y054762D01*
X023406Y054830D02*
X023198Y054830D01*
X023198Y054898D02*
X023406Y054898D01*
X023406Y054966D02*
X023198Y054966D01*
X023198Y055034D02*
X023406Y055034D01*
X023406Y055102D02*
X023198Y055102D01*
X023198Y055170D02*
X023406Y055170D01*
X023406Y055238D02*
X023198Y055238D01*
X023198Y055306D02*
X023406Y055306D01*
X023406Y055374D02*
X023198Y055374D01*
X023198Y055442D02*
X023406Y055442D01*
X023406Y055510D02*
X023198Y055510D01*
X023721Y055542D02*
X023721Y054626D01*
X023513Y054626D01*
X023513Y055542D01*
X023721Y055542D01*
X023721Y054694D02*
X023513Y054694D01*
X023513Y054762D02*
X023721Y054762D01*
X023721Y054830D02*
X023513Y054830D01*
X023513Y054898D02*
X023721Y054898D01*
X023721Y054966D02*
X023513Y054966D01*
X023513Y055034D02*
X023721Y055034D01*
X023721Y055102D02*
X023513Y055102D01*
X023513Y055170D02*
X023721Y055170D01*
X023721Y055238D02*
X023513Y055238D01*
X023513Y055306D02*
X023721Y055306D01*
X023721Y055374D02*
X023513Y055374D01*
X023513Y055442D02*
X023721Y055442D01*
X023721Y055510D02*
X023513Y055510D01*
X024036Y055542D02*
X024036Y054626D01*
X023828Y054626D01*
X023828Y055542D01*
X024036Y055542D01*
X024036Y054694D02*
X023828Y054694D01*
X023828Y054762D02*
X024036Y054762D01*
X024036Y054830D02*
X023828Y054830D01*
X023828Y054898D02*
X024036Y054898D01*
X024036Y054966D02*
X023828Y054966D01*
X023828Y055034D02*
X024036Y055034D01*
X024036Y055102D02*
X023828Y055102D01*
X023828Y055170D02*
X024036Y055170D01*
X024036Y055238D02*
X023828Y055238D01*
X023828Y055306D02*
X024036Y055306D01*
X024036Y055374D02*
X023828Y055374D01*
X023828Y055442D02*
X024036Y055442D01*
X024036Y055510D02*
X023828Y055510D01*
X024351Y055542D02*
X024351Y054626D01*
X024143Y054626D01*
X024143Y055542D01*
X024351Y055542D01*
X024351Y054694D02*
X024143Y054694D01*
X024143Y054762D02*
X024351Y054762D01*
X024351Y054830D02*
X024143Y054830D01*
X024143Y054898D02*
X024351Y054898D01*
X024351Y054966D02*
X024143Y054966D01*
X024143Y055034D02*
X024351Y055034D01*
X024351Y055102D02*
X024143Y055102D01*
X024143Y055170D02*
X024351Y055170D01*
X024351Y055238D02*
X024143Y055238D01*
X024143Y055306D02*
X024351Y055306D01*
X024351Y055374D02*
X024143Y055374D01*
X024143Y055442D02*
X024351Y055442D01*
X024351Y055510D02*
X024143Y055510D01*
D24*
X024483Y056108D03*
X022751Y056108D03*
X021649Y043726D03*
D25*
X018696Y045990D03*
X014464Y051797D03*
D26*
X015448Y051797D03*
X015448Y052781D03*
X014464Y052781D03*
X014464Y053765D03*
X015448Y053765D03*
X016728Y046974D03*
X016728Y045990D03*
X017712Y045990D03*
X017712Y046974D03*
X018696Y046974D03*
D27*
X019956Y047309D03*
X015783Y050537D03*
X014129Y055025D03*
X015468Y045655D03*
D28*
X023716Y032506D03*
D29*
X024977Y023766D02*
X024977Y023292D01*
X024227Y023292D01*
X024227Y023766D01*
X024977Y023766D01*
X024977Y023448D02*
X024227Y023448D01*
X024227Y023604D02*
X024977Y023604D01*
X024977Y023760D02*
X024227Y023760D01*
X024977Y022034D02*
X024977Y021560D01*
X024227Y021560D01*
X024227Y022034D01*
X024977Y022034D01*
X024977Y021716D02*
X024227Y021716D01*
X024227Y021872D02*
X024977Y021872D01*
X024977Y022028D02*
X024227Y022028D01*
X015134Y021640D02*
X015134Y021166D01*
X014384Y021166D01*
X014384Y021640D01*
X015134Y021640D01*
X015134Y021322D02*
X014384Y021322D01*
X014384Y021478D02*
X015134Y021478D01*
X015134Y021634D02*
X014384Y021634D01*
X015134Y022899D02*
X015134Y023373D01*
X015134Y022899D02*
X014384Y022899D01*
X014384Y023373D01*
X015134Y023373D01*
X015134Y023055D02*
X014384Y023055D01*
X014384Y023211D02*
X015134Y023211D01*
X015134Y023367D02*
X014384Y023367D01*
D30*
X015153Y030143D03*
X015743Y030143D03*
X016531Y031128D03*
X017318Y031128D03*
X018105Y031128D03*
X018893Y031128D03*
X015743Y034868D03*
X014956Y034868D03*
X014168Y034868D03*
X015625Y036521D03*
X016294Y036521D03*
X015940Y037151D03*
X018184Y036994D03*
X018184Y037624D03*
X018184Y038214D03*
X018854Y038214D03*
X018854Y037624D03*
X018854Y037033D03*
X022042Y039395D03*
X023420Y039395D03*
X022594Y041954D03*
X025428Y043450D03*
X027279Y045616D03*
X025389Y046758D03*
X023814Y046285D03*
X026452Y050616D03*
X027948Y054159D03*
X025743Y056128D03*
X021649Y056128D03*
X028932Y046010D03*
X029208Y044317D03*
X027554Y043136D03*
X032003Y055813D03*
X030507Y056521D03*
D31*
X032476Y045104D03*
X033066Y044710D03*
X033066Y042742D03*
X031885Y042742D03*
X030743Y044632D03*
X028342Y040183D03*
X032082Y038884D03*
X033854Y039868D03*
X035428Y040262D03*
X034917Y037978D03*
X034838Y034080D03*
X034641Y032702D03*
X034641Y031718D03*
X035035Y029159D03*
X032672Y026600D03*
X028539Y024828D03*
X029287Y019750D03*
X033735Y019750D03*
X026964Y031718D03*
X024168Y040143D03*
X024011Y040813D03*
X019680Y042348D03*
X015940Y042939D03*
X015546Y040970D03*
X013381Y030143D03*
X022042Y021088D03*
X023027Y021088D03*
X020546Y053844D03*
D32*
X017515Y052978D03*
X036413Y052978D03*
X036413Y027388D03*
X014365Y026994D03*
M02*
