%
M48
M72
T01C0.0157
T02C0.0197
T03C0.0236
T04C0.0276
T05C0.0315
T06C0.0354
T07C0.0394
T08C0.0472
T09C0.0551
T10C0.0630
T11C0.0709
T12C0.1260
%
T01
X13972Y25616
X14562Y25616
X21058Y24632
X22239Y25222
X23420Y24238
X24602Y23923
X25586Y24632
X25586Y26403
X27161Y26206
X27751Y27584
X26964Y27978
X27357Y28569
X26570Y29553
X26649Y29947
X27357Y31521
X29523Y27978
X31885Y28569
X32279Y28765
X32357Y29238
X32672Y28175
X32279Y27781
X31885Y26403
X34444Y24435
X34641Y26994
X34444Y29750
X33460Y32702
X34641Y36246
X35822Y36246
X34956Y37663
X34050Y38214
X32869Y38017
X30310Y38214
X30310Y36246
X29917Y33884
X30113Y32702
X27554Y39592
X26964Y42742
X28145Y42939
X28145Y43332
X29129Y43332
X25980Y46443
X25586Y46679
X24917Y46482
X24208Y46443
X23420Y46482
X21649Y44907
X21452Y46088
X20980Y46010
X20350Y46600
X19680Y45065
X18696Y45104
X20586Y42112
X21452Y42151
X23420Y40380
X22042Y38411
X22042Y38017
X21452Y33293
X16531Y38411
X15350Y38844
X16019Y41836
X16334Y44513
X18184Y48647
X18105Y50104
X19562Y50183
X19562Y50616
X20113Y50616
X20940Y51403
X21452Y52191
X22633Y52388
X22830Y53175
X23184Y52899
X23617Y52269
X24208Y53175
X24602Y53372
X24602Y53765
X24208Y53962
X24602Y54356
X22830Y54356
X22909Y53687
X22042Y54080
X19602Y54395
X18539Y55143
X22633Y57230
X24602Y57230
X26767Y57230
X28932Y57230
X26334Y53765
X25783Y51010
X24405Y49317
X25586Y48450
X25783Y47466
X27830Y47860
X27830Y50655
X29129Y51010
X28814Y52191
X32476Y53372
X33066Y53962
X33460Y53372
X34168Y54356
X34050Y52191
X35231Y52191
X34641Y50616
X32672Y50813
X33657Y42545
X33460Y41758
X34405Y41758
X35822Y38017
X36413Y38214
X37397Y32309
X36609Y29553
X27948Y24041
X24247Y21403
X24011Y19671
X19680Y48647
X21924Y49632
X21964Y50025
T02
X21649Y44120
T03
X22594Y42348
X24011Y41206
X24168Y40537
X23420Y39789
X22042Y39789
X19680Y42742
X18854Y38608
X18854Y38017
X18854Y37427
X18184Y37388
X18184Y38017
X18184Y38608
X16294Y36915
X15625Y36915
X15940Y37545
X15743Y35262
X14956Y35262
X14168Y35262
X16531Y31521
X17318Y31521
X18105Y31521
X18893Y31521
X15743Y30537
X15153Y30537
X13381Y30537
X15546Y41364
X15940Y43332
X22436Y47466
X22436Y48671
X23420Y48647
X23420Y47466
X23814Y46679
X25389Y47151
X26373Y47860
X26373Y48647
X25192Y49828
X24405Y49828
X23617Y49828
X22830Y49828
X20546Y54238
X21649Y56521
X25743Y56521
X27948Y54553
X30507Y56915
X32003Y56206
X26452Y51010
X27279Y46010
X25428Y43844
X27554Y43529
X29208Y44710
X28932Y46403
X30507Y46876
X30507Y47860
X30743Y45025
X31885Y43136
X33066Y43136
X33066Y45104
X32476Y45498
X33854Y40262
X35428Y40655
X34917Y38372
X32082Y39277
X34838Y34474
X34641Y33096
X34641Y32112
X35035Y29553
X32672Y26994
X28539Y25222
X29287Y20143
X33735Y20143
X37279Y25183
X26964Y32112
X22582Y35502
X28342Y40576
X14956Y56325
X14956Y57073
X13696Y57112
X13696Y56325
X22042Y21482
X23027Y21482
T04
X23027Y27584
X22239Y27584
X22239Y28372
X23027Y28372
X23814Y28372
X24602Y28372
X24602Y27584
X23814Y27584
X25389Y27584
X26176Y27584
X26176Y28372
X25389Y28372
X21452Y28372
X20665Y28372
X20665Y27584
X21452Y27584
T05
X20468Y32596
X20468Y33596
X28617Y47828
X28617Y48828
X28617Y49828
X30192Y51494
X30192Y52494
X33417Y56356
X34417Y56356
X35417Y56356
X32661Y42151
X31661Y42151
X20684Y57122
X20074Y57889
X19464Y57122
X17928Y57122
X17318Y57889
X16708Y57122
X17318Y51041
X17318Y50041
X17318Y49041
T06
X22751Y56502
X24483Y56502
T07
X18696Y47368
X17712Y47368
X17712Y46384
X18696Y46384
X16728Y46384
X16728Y47368
X15448Y52191
X15448Y53175
X15448Y54159
X14464Y54159
X14464Y53175
X14464Y52191
X22731Y32899
X23716Y32899
T08
X25086Y37230
X26086Y37230
T09
X19956Y47702
X15468Y46049
X15783Y50931
X14129Y55419
T10
X15743Y21285
X15743Y23057
T11
X18224Y23155
X18224Y20399
X22672Y20399
X22672Y23155
X27121Y23155
X27121Y20399
X31570Y20399
X31570Y23155
X36019Y23155
X36019Y20399
X16747Y43844
X13991Y43844
T12
X17515Y53372
X36413Y53372
X36413Y27781
X14365Y27388
M30
