%
M48
M72
T01C0.0157
T02C0.0197
T03C0.0236
T04C0.0276
T05C0.0315
T06C0.0354
T07C0.0394
T08C0.0472
T09C0.0551
T10C0.0630
T11C0.0709
T12C0.1260
%
T01
X13972Y25222
X14562Y25222
X21255Y24041
X24011Y20301
X24011Y19277
X24602Y23529
X24208Y24435
X25586Y24238
X25586Y26010
X27161Y25813
X27751Y27191
X26964Y27584
X27357Y28175
X26570Y29159
X26649Y29553
X27357Y31128
X29917Y33490
X30113Y32309
X30310Y35852
X30310Y37821
X32869Y37624
X34050Y37821
X34956Y37269
X35822Y37624
X36413Y37821
X35822Y35852
X34641Y35852
X33460Y32309
X34444Y29356
X32672Y27781
X32279Y27388
X31885Y28175
X32279Y28372
X32357Y28844
X31885Y26010
X29523Y27584
X27948Y23647
X34444Y24041
X34641Y26600
X36609Y29159
X37397Y31915
X34405Y41364
X33460Y41364
X33657Y42151
X29129Y42939
X28145Y42939
X28145Y42545
X26964Y42348
X27554Y39199
X23420Y39986
X22042Y38017
X22042Y37624
X21452Y41758
X20586Y41718
X21649Y44513
X21452Y45695
X20980Y45616
X20350Y46206
X19680Y44671
X18696Y44710
X16334Y44120
X16019Y41443
X15350Y38450
X16531Y38017
X21452Y32899
X23420Y46088
X24208Y46049
X24917Y46088
X25586Y46285
X25980Y46049
X25783Y47073
X25586Y48057
X24405Y48923
X25783Y50616
X27830Y50262
X28814Y51797
X29129Y50616
X27830Y47466
X23617Y51876
X23184Y52506
X22830Y52781
X22909Y53293
X22830Y53962
X22042Y53687
X22633Y51994
X21452Y51797
X20940Y51010
X20113Y50222
X19562Y50222
X19562Y49789
X19680Y48254
X18184Y48254
X18105Y49710
X19602Y54002
X18539Y54750
X21964Y49632
X21924Y49238
X24208Y52781
X24602Y52978
X24602Y53372
X24208Y53569
X24602Y53962
X26334Y53372
X26767Y56836
X24602Y56836
X22633Y56836
X28932Y56836
X32476Y52978
X33066Y53569
X33460Y52978
X34168Y53962
X34050Y51797
X35231Y51797
X34641Y50222
X32672Y50419
T02
X21649Y43726
T03
X22594Y41954
X24011Y40813
X24168Y40143
X23420Y39395
X22042Y39395
X19680Y42348
X18854Y38214
X18854Y37624
X18854Y37033
X18184Y36994
X18184Y37624
X18184Y38214
X16294Y36521
X15625Y36521
X15940Y37151
X15743Y34868
X14956Y34868
X14168Y34868
X16531Y31128
X15743Y30143
X15153Y30143
X13381Y30143
X17318Y31128
X18105Y31128
X18893Y31128
X22582Y35108
X26964Y31718
X28539Y24828
X29287Y19750
X33735Y19750
X37279Y24789
X35035Y29159
X34641Y31718
X34641Y32702
X34838Y34080
X34917Y37978
X33854Y39868
X35428Y40262
X33066Y42742
X31885Y42742
X30743Y44632
X29208Y44317
X28932Y46010
X30507Y46482
X30507Y47466
X32476Y45104
X33066Y44710
X32082Y38884
X28342Y40183
X27554Y43136
X25428Y43450
X27279Y45616
X26373Y47466
X26373Y48254
X25192Y49435
X24405Y49435
X23617Y49435
X22830Y49435
X22436Y48277
X22436Y47073
X23420Y47073
X23814Y46285
X23420Y48254
X25389Y46758
X26452Y50616
X27948Y54159
X25743Y56128
X21649Y56128
X20546Y53844
X14956Y55931
X14956Y56679
X13696Y56718
X13696Y55931
X15940Y42939
X15546Y40970
X22042Y21088
X23027Y21088
X32672Y26600
X32003Y55813
X30507Y56521
T04
X26176Y27978
X25389Y27978
X25389Y27191
X26176Y27191
X24602Y27191
X24602Y27978
X23814Y27978
X23814Y27191
X23027Y27191
X23027Y27978
X22239Y27978
X21452Y27978
X21452Y27191
X22239Y27191
X20665Y27191
X20665Y27978
T05
X20468Y32202
X20468Y33202
X28617Y47435
X28617Y48435
X28617Y49435
X30192Y51100
X30192Y52100
X33417Y55962
X34417Y55962
X35417Y55962
X32661Y41758
X31661Y41758
X20684Y56728
X20074Y57496
X19464Y56728
X17928Y56728
X17318Y57496
X16708Y56728
X17318Y50647
X17318Y49647
X17318Y48647
T06
X22751Y56108
X24483Y56108
T07
X18696Y46974
X18696Y45990
X17712Y45990
X17712Y46974
X16728Y46974
X16728Y45990
X15448Y51797
X15448Y52781
X14464Y52781
X14464Y51797
X14464Y53765
X15448Y53765
X22731Y32506
X23716Y32506
T08
X25086Y36836
X26086Y36836
T09
X19956Y47309
X15783Y50537
X14129Y55025
X15468Y45655
T10
X15743Y20891
X15743Y22663
T11
X18224Y22762
X18224Y20006
X22672Y20006
X22672Y22762
X27121Y22762
X27121Y20006
X31570Y20006
X31570Y22762
X36019Y22762
X36019Y20006
X16747Y43450
X13991Y43450
T12
X17515Y52978
X36413Y52978
X36413Y27388
X14365Y26994
M30
