G75*
%MOIN*%
%OFA0B0*%
%FSLAX24Y24*%
%IPPOS*%
%LPD*%
%AMOC8*
5,1,8,0,0,1.08239X$1,22.5*
%
%ADD10C,0.0059*%
%ADD11C,0.0134*%
%ADD12C,0.0364*%
%ADD13C,0.0108*%
%ADD14C,0.0084*%
%ADD15C,0.0098*%
%ADD16C,0.0079*%
%ADD17C,0.0069*%
%ADD18R,0.0945X0.1260*%
%ADD19C,0.0133*%
%ADD20C,0.0839*%
%ADD21R,0.0639X0.0639*%
%ADD22C,0.0639*%
%ADD23C,0.0217*%
%ADD24C,0.0049*%
%ADD25C,0.0083*%
%ADD26C,0.0270*%
%ADD27C,0.0089*%
%ADD28C,0.0137*%
%ADD29C,0.0146*%
%ADD30C,0.0167*%
%ADD31R,0.0787X0.0787*%
%ADD32C,0.0157*%
%ADD33R,0.0579X0.0579*%
%ADD34C,0.0207*%
%ADD35C,0.0177*%
%ADD36C,0.0128*%
%ADD37C,0.0787*%
%ADD38R,0.0551X0.0551*%
%ADD39C,0.0551*%
%ADD40C,0.0739*%
%ADD41C,0.0709*%
%ADD42C,0.0433*%
%ADD43R,0.0779X0.0779*%
%ADD44C,0.0779*%
%ADD45C,0.1079*%
%ADD46C,0.0939*%
%ADD47R,0.0739X0.0739*%
%ADD48C,0.0472*%
%ADD49C,0.0579*%
%ADD50C,0.2619*%
D10*
X012594Y018726D02*
X012594Y058096D01*
X038184Y058096D01*
X038184Y018726D01*
X012594Y018726D01*
D11*
X023420Y053076D03*
X023617Y053076D03*
X023814Y053076D03*
X023814Y053273D03*
X023617Y053273D03*
X023420Y053273D03*
X023420Y053470D03*
X023617Y053470D03*
X023617Y053667D03*
X023814Y053667D03*
X023814Y053470D03*
D12*
X033179Y050178D02*
X033179Y048810D01*
X032087Y048810D01*
X032087Y050178D01*
X033179Y050178D01*
X033179Y049173D02*
X032087Y049173D01*
X032087Y049536D02*
X033179Y049536D01*
X033179Y049899D02*
X032087Y049899D01*
X033179Y047304D02*
X033179Y045936D01*
X032087Y045936D01*
X032087Y047304D01*
X033179Y047304D01*
X033179Y046299D02*
X032087Y046299D01*
X032087Y046662D02*
X033179Y046662D01*
X033179Y047025D02*
X032087Y047025D01*
X036762Y046320D02*
X036762Y044952D01*
X035670Y044952D01*
X035670Y046320D01*
X036762Y046320D01*
X036762Y045315D02*
X035670Y045315D01*
X035670Y045678D02*
X036762Y045678D01*
X036762Y046041D02*
X035670Y046041D01*
X036762Y047826D02*
X036762Y049194D01*
X036762Y047826D02*
X035670Y047826D01*
X035670Y049194D01*
X036762Y049194D01*
X036762Y048189D02*
X035670Y048189D01*
X035670Y048552D02*
X036762Y048552D01*
X036762Y048915D02*
X035670Y048915D01*
X018455Y029902D02*
X018455Y028534D01*
X017363Y028534D01*
X017363Y029902D01*
X018455Y029902D01*
X018455Y028897D02*
X017363Y028897D01*
X017363Y029260D02*
X018455Y029260D01*
X018455Y029623D02*
X017363Y029623D01*
X018455Y027028D02*
X018455Y025660D01*
X017363Y025660D01*
X017363Y027028D01*
X018455Y027028D01*
X018455Y026023D02*
X017363Y026023D01*
X017363Y026386D02*
X018455Y026386D01*
X018455Y026749D02*
X017363Y026749D01*
D13*
X021102Y037649D02*
X021102Y037993D01*
X021102Y037649D02*
X020778Y037649D01*
X020778Y037993D01*
X021102Y037993D01*
X021102Y037756D02*
X020778Y037756D01*
X020778Y037863D02*
X021102Y037863D01*
X021102Y037970D02*
X020778Y037970D01*
X021732Y037993D02*
X021732Y037649D01*
X021408Y037649D01*
X021408Y037993D01*
X021732Y037993D01*
X021732Y037756D02*
X021408Y037756D01*
X021408Y037863D02*
X021732Y037863D01*
X021732Y037970D02*
X021408Y037970D01*
X021732Y038830D02*
X021732Y039174D01*
X021732Y038830D02*
X021408Y038830D01*
X021408Y039174D01*
X021732Y039174D01*
X021732Y038937D02*
X021408Y038937D01*
X021408Y039044D02*
X021732Y039044D01*
X021732Y039151D02*
X021408Y039151D01*
X021102Y039174D02*
X021102Y038830D01*
X020778Y038830D01*
X020778Y039174D01*
X021102Y039174D01*
X021102Y038937D02*
X020778Y038937D01*
X020778Y039044D02*
X021102Y039044D01*
X021102Y039151D02*
X020778Y039151D01*
X019901Y042895D02*
X019341Y042895D01*
X019341Y043219D01*
X019901Y043219D01*
X019901Y042895D01*
X019901Y043002D02*
X019341Y043002D01*
X019341Y043109D02*
X019901Y043109D01*
X019901Y043216D02*
X019341Y043216D01*
X019341Y044076D02*
X019901Y044076D01*
X019341Y044076D02*
X019341Y044400D01*
X019901Y044400D01*
X019901Y044076D01*
X019901Y044183D02*
X019341Y044183D01*
X019341Y044290D02*
X019901Y044290D01*
X019901Y044397D02*
X019341Y044397D01*
X017342Y044076D02*
X016782Y044076D01*
X016782Y044400D01*
X017342Y044400D01*
X017342Y044076D01*
X017342Y044183D02*
X016782Y044183D01*
X016782Y044290D02*
X017342Y044290D01*
X017342Y044397D02*
X016782Y044397D01*
X016782Y042895D02*
X017342Y042895D01*
X016782Y042895D02*
X016782Y043219D01*
X017342Y043219D01*
X017342Y042895D01*
X017342Y043002D02*
X016782Y043002D01*
X016782Y043109D02*
X017342Y043109D01*
X017342Y043216D02*
X016782Y043216D01*
X017048Y042530D02*
X017392Y042530D01*
X017392Y042206D01*
X017048Y042206D01*
X017048Y042530D01*
X017048Y042313D02*
X017392Y042313D01*
X017392Y042420D02*
X017048Y042420D01*
X017048Y042527D02*
X017392Y042527D01*
X017392Y041900D02*
X017048Y041900D01*
X017392Y041900D02*
X017392Y041576D01*
X017048Y041576D01*
X017048Y041900D01*
X017048Y041683D02*
X017392Y041683D01*
X017392Y041790D02*
X017048Y041790D01*
X017048Y041897D02*
X017392Y041897D01*
X014734Y041801D02*
X014390Y041801D01*
X014734Y041801D02*
X014734Y041477D01*
X014390Y041477D01*
X014390Y041801D01*
X014390Y041584D02*
X014734Y041584D01*
X014734Y041691D02*
X014390Y041691D01*
X014390Y041798D02*
X014734Y041798D01*
X014734Y042431D02*
X014390Y042431D01*
X014734Y042431D02*
X014734Y042107D01*
X014390Y042107D01*
X014390Y042431D01*
X014390Y042214D02*
X014734Y042214D01*
X014734Y042321D02*
X014390Y042321D01*
X014390Y042428D02*
X014734Y042428D01*
X020581Y052452D02*
X020581Y052796D01*
X020905Y052796D01*
X020905Y052452D01*
X020581Y052452D01*
X020581Y052559D02*
X020905Y052559D01*
X020905Y052666D02*
X020581Y052666D01*
X020581Y052773D02*
X020905Y052773D01*
X021211Y052796D02*
X021211Y052452D01*
X021211Y052796D02*
X021535Y052796D01*
X021535Y052452D01*
X021211Y052452D01*
X021211Y052559D02*
X021535Y052559D01*
X021535Y052666D02*
X021211Y052666D01*
X021211Y052773D02*
X021535Y052773D01*
X022117Y044095D02*
X022117Y043751D01*
X022117Y044095D02*
X022441Y044095D01*
X022441Y043751D01*
X022117Y043751D01*
X022117Y043858D02*
X022441Y043858D01*
X022441Y043965D02*
X022117Y043965D01*
X022117Y044072D02*
X022441Y044072D01*
X022747Y044095D02*
X022747Y043751D01*
X022747Y044095D02*
X023071Y044095D01*
X023071Y043751D01*
X022747Y043751D01*
X022747Y043858D02*
X023071Y043858D01*
X023071Y043965D02*
X022747Y043965D01*
X022747Y044072D02*
X023071Y044072D01*
X025345Y044105D02*
X025345Y044449D01*
X025669Y044449D01*
X025669Y044105D01*
X025345Y044105D01*
X025345Y044212D02*
X025669Y044212D01*
X025669Y044319D02*
X025345Y044319D01*
X025345Y044426D02*
X025669Y044426D01*
X025975Y044449D02*
X025975Y044105D01*
X025975Y044449D02*
X026299Y044449D01*
X026299Y044105D01*
X025975Y044105D01*
X025975Y044212D02*
X026299Y044212D01*
X026299Y044319D02*
X025975Y044319D01*
X025975Y044426D02*
X026299Y044426D01*
X027086Y044095D02*
X027086Y043751D01*
X026762Y043751D01*
X026762Y044095D01*
X027086Y044095D01*
X027086Y043858D02*
X026762Y043858D01*
X026762Y043965D02*
X027086Y043965D01*
X027086Y044072D02*
X026762Y044072D01*
X027716Y044095D02*
X027716Y043751D01*
X027392Y043751D01*
X027392Y044095D01*
X027716Y044095D01*
X027716Y043858D02*
X027392Y043858D01*
X027392Y043965D02*
X027716Y043965D01*
X027716Y044072D02*
X027392Y044072D01*
X032107Y040729D02*
X032451Y040729D01*
X032107Y040729D02*
X032107Y041053D01*
X032451Y041053D01*
X032451Y040729D01*
X032451Y040836D02*
X032107Y040836D01*
X032107Y040943D02*
X032451Y040943D01*
X032451Y041050D02*
X032107Y041050D01*
X032107Y040100D02*
X032451Y040100D01*
X032107Y040100D02*
X032107Y040424D01*
X032451Y040424D01*
X032451Y040100D01*
X032451Y040207D02*
X032107Y040207D01*
X032107Y040314D02*
X032451Y040314D01*
X032451Y040421D02*
X032107Y040421D01*
X032894Y043770D02*
X033238Y043770D01*
X033238Y043446D01*
X032894Y043446D01*
X032894Y043770D01*
X032894Y043553D02*
X033238Y043553D01*
X033238Y043660D02*
X032894Y043660D01*
X032894Y043767D02*
X033238Y043767D01*
X033238Y044400D02*
X032894Y044400D01*
X033238Y044400D02*
X033238Y044076D01*
X032894Y044076D01*
X032894Y044400D01*
X032894Y044183D02*
X033238Y044183D01*
X033238Y044290D02*
X032894Y044290D01*
X032894Y044397D02*
X033238Y044397D01*
X030393Y049991D02*
X030393Y050335D01*
X030393Y049991D02*
X030069Y049991D01*
X030069Y050335D01*
X030393Y050335D01*
X030393Y050098D02*
X030069Y050098D01*
X030069Y050205D02*
X030393Y050205D01*
X030393Y050312D02*
X030069Y050312D01*
X029764Y050335D02*
X029764Y049991D01*
X029440Y049991D01*
X029440Y050335D01*
X029764Y050335D01*
X029764Y050098D02*
X029440Y050098D01*
X029440Y050205D02*
X029764Y050205D01*
X029764Y050312D02*
X029440Y050312D01*
X036634Y034164D02*
X036978Y034164D01*
X036978Y033840D01*
X036634Y033840D01*
X036634Y034164D01*
X036634Y033947D02*
X036978Y033947D01*
X036978Y034054D02*
X036634Y034054D01*
X036634Y034161D02*
X036978Y034161D01*
X036978Y033534D02*
X036634Y033534D01*
X036978Y033534D02*
X036978Y033210D01*
X036634Y033210D01*
X036634Y033534D01*
X036634Y033317D02*
X036978Y033317D01*
X036978Y033424D02*
X036634Y033424D01*
X036634Y033531D02*
X036978Y033531D01*
D14*
X035750Y033635D02*
X035500Y033635D01*
X035750Y033635D02*
X035750Y033385D01*
X035500Y033385D01*
X035500Y033635D01*
X035500Y033468D02*
X035750Y033468D01*
X035750Y033551D02*
X035500Y033551D01*
X035500Y033634D02*
X035750Y033634D01*
X035750Y033989D02*
X035500Y033989D01*
X035750Y033989D02*
X035750Y033739D01*
X035500Y033739D01*
X035500Y033989D01*
X035500Y033822D02*
X035750Y033822D01*
X035750Y033905D02*
X035500Y033905D01*
X035500Y033988D02*
X035750Y033988D01*
X034175Y035406D02*
X033925Y035406D01*
X034175Y035406D02*
X034175Y035156D01*
X033925Y035156D01*
X033925Y035406D01*
X033925Y035239D02*
X034175Y035239D01*
X034175Y035322D02*
X033925Y035322D01*
X033925Y035405D02*
X034175Y035405D01*
X034175Y035761D02*
X033925Y035761D01*
X034175Y035761D02*
X034175Y035511D01*
X033925Y035511D01*
X033925Y035761D01*
X033925Y035594D02*
X034175Y035594D01*
X034175Y035677D02*
X033925Y035677D01*
X033925Y035760D02*
X034175Y035760D01*
X033585Y036928D02*
X033335Y036928D01*
X033335Y037178D01*
X033585Y037178D01*
X033585Y036928D01*
X033585Y037011D02*
X033335Y037011D01*
X033335Y037094D02*
X033585Y037094D01*
X033585Y037177D02*
X033335Y037177D01*
X033335Y037282D02*
X033585Y037282D01*
X033335Y037282D02*
X033335Y037532D01*
X033585Y037532D01*
X033585Y037282D01*
X033585Y037365D02*
X033335Y037365D01*
X033335Y037448D02*
X033585Y037448D01*
X033585Y037531D02*
X033335Y037531D01*
X035303Y038950D02*
X035553Y038950D01*
X035553Y038700D01*
X035303Y038700D01*
X035303Y038950D01*
X035303Y038783D02*
X035553Y038783D01*
X035553Y038866D02*
X035303Y038866D01*
X035303Y038949D02*
X035553Y038949D01*
X035553Y039304D02*
X035303Y039304D01*
X035553Y039304D02*
X035553Y039054D01*
X035303Y039054D01*
X035303Y039304D01*
X035303Y039137D02*
X035553Y039137D01*
X035553Y039220D02*
X035303Y039220D01*
X035303Y039303D02*
X035553Y039303D01*
X037272Y039107D02*
X037522Y039107D01*
X037522Y038857D01*
X037272Y038857D01*
X037272Y039107D01*
X037272Y038940D02*
X037522Y038940D01*
X037522Y039023D02*
X037272Y039023D01*
X037272Y039106D02*
X037522Y039106D01*
X037522Y038753D02*
X037272Y038753D01*
X037522Y038753D02*
X037522Y038503D01*
X037272Y038503D01*
X037272Y038753D01*
X037272Y038586D02*
X037522Y038586D01*
X037522Y038669D02*
X037272Y038669D01*
X037272Y038752D02*
X037522Y038752D01*
X037522Y037282D02*
X037272Y037282D01*
X037272Y037532D01*
X037522Y037532D01*
X037522Y037282D01*
X037522Y037365D02*
X037272Y037365D01*
X037272Y037448D02*
X037522Y037448D01*
X037522Y037531D02*
X037272Y037531D01*
X037272Y036928D02*
X037522Y036928D01*
X037272Y036928D02*
X037272Y037178D01*
X037522Y037178D01*
X037522Y036928D01*
X037522Y037011D02*
X037272Y037011D01*
X037272Y037094D02*
X037522Y037094D01*
X037522Y037177D02*
X037272Y037177D01*
X033585Y040471D02*
X033335Y040471D01*
X033335Y040721D01*
X033585Y040721D01*
X033585Y040471D01*
X033585Y040554D02*
X033335Y040554D01*
X033335Y040637D02*
X033585Y040637D01*
X033585Y040720D02*
X033335Y040720D01*
X033335Y040825D02*
X033585Y040825D01*
X033335Y040825D02*
X033335Y041075D01*
X033585Y041075D01*
X033585Y040825D01*
X033585Y040908D02*
X033335Y040908D01*
X033335Y040991D02*
X033585Y040991D01*
X033585Y041074D02*
X033335Y041074D01*
X031341Y040944D02*
X031091Y040944D01*
X031091Y041194D01*
X031341Y041194D01*
X031341Y040944D01*
X031341Y041027D02*
X031091Y041027D01*
X031091Y041110D02*
X031341Y041110D01*
X031341Y041193D02*
X031091Y041193D01*
X031091Y040589D02*
X031341Y040589D01*
X031091Y040589D02*
X031091Y040839D01*
X031341Y040839D01*
X031341Y040589D01*
X031341Y040672D02*
X031091Y040672D01*
X031091Y040755D02*
X031341Y040755D01*
X031341Y040838D02*
X031091Y040838D01*
X028801Y043719D02*
X028801Y043969D01*
X028801Y043719D02*
X028551Y043719D01*
X028551Y043969D01*
X028801Y043969D01*
X028801Y043802D02*
X028551Y043802D01*
X028551Y043885D02*
X028801Y043885D01*
X028801Y043968D02*
X028551Y043968D01*
X028447Y043969D02*
X028447Y043719D01*
X028197Y043719D01*
X028197Y043969D01*
X028447Y043969D01*
X028447Y043802D02*
X028197Y043802D01*
X028197Y043885D02*
X028447Y043885D01*
X028447Y043968D02*
X028197Y043968D01*
X028447Y044388D02*
X028447Y044638D01*
X028447Y044388D02*
X028197Y044388D01*
X028197Y044638D01*
X028447Y044638D01*
X028447Y044471D02*
X028197Y044471D01*
X028197Y044554D02*
X028447Y044554D01*
X028447Y044637D02*
X028197Y044637D01*
X028801Y044638D02*
X028801Y044388D01*
X028551Y044388D01*
X028551Y044638D01*
X028801Y044638D01*
X028801Y044471D02*
X028551Y044471D01*
X028551Y044554D02*
X028801Y044554D01*
X028801Y044637D02*
X028551Y044637D01*
X028197Y045471D02*
X028197Y045721D01*
X028447Y045721D01*
X028447Y045471D01*
X028197Y045471D01*
X028197Y045554D02*
X028447Y045554D01*
X028447Y045637D02*
X028197Y045637D01*
X028197Y045720D02*
X028447Y045720D01*
X028197Y046062D02*
X028197Y046312D01*
X028447Y046312D01*
X028447Y046062D01*
X028197Y046062D01*
X028197Y046145D02*
X028447Y046145D01*
X028447Y046228D02*
X028197Y046228D01*
X028197Y046311D02*
X028447Y046311D01*
X027843Y046312D02*
X027843Y046062D01*
X027843Y046312D02*
X028093Y046312D01*
X028093Y046062D01*
X027843Y046062D01*
X027843Y046145D02*
X028093Y046145D01*
X028093Y046228D02*
X027843Y046228D01*
X027843Y046311D02*
X028093Y046311D01*
X027843Y045721D02*
X027843Y045471D01*
X027843Y045721D02*
X028093Y045721D01*
X028093Y045471D01*
X027843Y045471D01*
X027843Y045554D02*
X028093Y045554D01*
X028093Y045637D02*
X027843Y045637D01*
X027843Y045720D02*
X028093Y045720D01*
X027266Y044835D02*
X027266Y044585D01*
X027016Y044585D01*
X027016Y044835D01*
X027266Y044835D01*
X027266Y044668D02*
X027016Y044668D01*
X027016Y044751D02*
X027266Y044751D01*
X027266Y044834D02*
X027016Y044834D01*
X026912Y044835D02*
X026912Y044585D01*
X026662Y044585D01*
X026662Y044835D01*
X026912Y044835D01*
X026912Y044668D02*
X026662Y044668D01*
X026662Y044751D02*
X026912Y044751D01*
X026912Y044834D02*
X026662Y044834D01*
X025835Y044743D02*
X025835Y044993D01*
X026085Y044993D01*
X026085Y044743D01*
X025835Y044743D01*
X025835Y044826D02*
X026085Y044826D01*
X026085Y044909D02*
X025835Y044909D01*
X025835Y044992D02*
X026085Y044992D01*
X025480Y044993D02*
X025480Y044743D01*
X025480Y044993D02*
X025730Y044993D01*
X025730Y044743D01*
X025480Y044743D01*
X025480Y044826D02*
X025730Y044826D01*
X025730Y044909D02*
X025480Y044909D01*
X025480Y044992D02*
X025730Y044992D01*
X025553Y043241D02*
X025303Y043241D01*
X025553Y043241D02*
X025553Y042991D01*
X025303Y042991D01*
X025303Y043241D01*
X025303Y043074D02*
X025553Y043074D01*
X025553Y043157D02*
X025303Y043157D01*
X025303Y043240D02*
X025553Y043240D01*
X025553Y042887D02*
X025303Y042887D01*
X025553Y042887D02*
X025553Y042637D01*
X025303Y042637D01*
X025303Y042887D01*
X025303Y042720D02*
X025553Y042720D01*
X025553Y042803D02*
X025303Y042803D01*
X025303Y042886D02*
X025553Y042886D01*
X023112Y042794D02*
X022862Y042794D01*
X022862Y043044D01*
X023112Y043044D01*
X023112Y042794D01*
X023112Y042877D02*
X022862Y042877D01*
X022862Y042960D02*
X023112Y042960D01*
X023112Y043043D02*
X022862Y043043D01*
X022862Y042440D02*
X023112Y042440D01*
X022862Y042440D02*
X022862Y042690D01*
X023112Y042690D01*
X023112Y042440D01*
X023112Y042523D02*
X022862Y042523D01*
X022862Y042606D02*
X023112Y042606D01*
X023112Y042689D02*
X022862Y042689D01*
X020967Y042932D02*
X020967Y043182D01*
X020967Y042932D02*
X020717Y042932D01*
X020717Y043182D01*
X020967Y043182D01*
X020967Y043015D02*
X020717Y043015D01*
X020717Y043098D02*
X020967Y043098D01*
X020967Y043181D02*
X020717Y043181D01*
X020612Y043182D02*
X020612Y042932D01*
X020362Y042932D01*
X020362Y043182D01*
X020612Y043182D01*
X020612Y043015D02*
X020362Y043015D01*
X020362Y043098D02*
X020612Y043098D01*
X020612Y043181D02*
X020362Y043181D01*
X020205Y044703D02*
X020205Y044953D01*
X020455Y044953D01*
X020455Y044703D01*
X020205Y044703D01*
X020205Y044786D02*
X020455Y044786D01*
X020455Y044869D02*
X020205Y044869D01*
X020205Y044952D02*
X020455Y044952D01*
X020559Y044953D02*
X020559Y044703D01*
X020559Y044953D02*
X020809Y044953D01*
X020809Y044703D01*
X020559Y044703D01*
X020559Y044786D02*
X020809Y044786D01*
X020809Y044869D02*
X020559Y044869D01*
X020559Y044952D02*
X020809Y044952D01*
X020593Y045642D02*
X020343Y045642D01*
X020593Y045642D02*
X020593Y045392D01*
X020343Y045392D01*
X020343Y045642D01*
X020343Y045475D02*
X020593Y045475D01*
X020593Y045558D02*
X020343Y045558D01*
X020343Y045641D02*
X020593Y045641D01*
X020593Y045997D02*
X020343Y045997D01*
X020593Y045997D02*
X020593Y045747D01*
X020343Y045747D01*
X020343Y045997D01*
X020343Y045830D02*
X020593Y045830D01*
X020593Y045913D02*
X020343Y045913D01*
X020343Y045996D02*
X020593Y045996D01*
X018945Y049507D02*
X018945Y049757D01*
X019195Y049757D01*
X019195Y049507D01*
X018945Y049507D01*
X018945Y049590D02*
X019195Y049590D01*
X019195Y049673D02*
X018945Y049673D01*
X018945Y049756D02*
X019195Y049756D01*
X018591Y049757D02*
X018591Y049507D01*
X018591Y049757D02*
X018841Y049757D01*
X018841Y049507D01*
X018591Y049507D01*
X018591Y049590D02*
X018841Y049590D01*
X018841Y049673D02*
X018591Y049673D01*
X018591Y049756D02*
X018841Y049756D01*
X019811Y051745D02*
X020061Y051745D01*
X020061Y051495D01*
X019811Y051495D01*
X019811Y051745D01*
X019811Y051578D02*
X020061Y051578D01*
X020061Y051661D02*
X019811Y051661D01*
X019811Y051744D02*
X020061Y051744D01*
X020061Y052099D02*
X019811Y052099D01*
X020061Y052099D02*
X020061Y051849D01*
X019811Y051849D01*
X019811Y052099D01*
X019811Y051932D02*
X020061Y051932D01*
X020061Y052015D02*
X019811Y052015D01*
X019811Y052098D02*
X020061Y052098D01*
X020402Y052099D02*
X020652Y052099D01*
X020652Y051849D01*
X020402Y051849D01*
X020402Y052099D01*
X020402Y051932D02*
X020652Y051932D01*
X020652Y052015D02*
X020402Y052015D01*
X020402Y052098D02*
X020652Y052098D01*
X020652Y051745D02*
X020402Y051745D01*
X020652Y051745D02*
X020652Y051495D01*
X020402Y051495D01*
X020402Y051745D01*
X020402Y051578D02*
X020652Y051578D01*
X020652Y051661D02*
X020402Y051661D01*
X020402Y051744D02*
X020652Y051744D01*
X018132Y042355D02*
X017882Y042355D01*
X018132Y042355D02*
X018132Y042105D01*
X017882Y042105D01*
X017882Y042355D01*
X017882Y042188D02*
X018132Y042188D01*
X018132Y042271D02*
X017882Y042271D01*
X017882Y042354D02*
X018132Y042354D01*
X018132Y042001D02*
X017882Y042001D01*
X018132Y042001D02*
X018132Y041751D01*
X017882Y041751D01*
X017882Y042001D01*
X017882Y041834D02*
X018132Y041834D01*
X018132Y041917D02*
X017882Y041917D01*
X017882Y042000D02*
X018132Y042000D01*
X016656Y042099D02*
X016406Y042099D01*
X016656Y042099D02*
X016656Y041849D01*
X016406Y041849D01*
X016406Y042099D01*
X016406Y041932D02*
X016656Y041932D01*
X016656Y042015D02*
X016406Y042015D01*
X016406Y042098D02*
X016656Y042098D01*
X016656Y042453D02*
X016406Y042453D01*
X016656Y042453D02*
X016656Y042203D01*
X016406Y042203D01*
X016406Y042453D01*
X016406Y042286D02*
X016656Y042286D01*
X016656Y042369D02*
X016406Y042369D01*
X016406Y042452D02*
X016656Y042452D01*
X015671Y042257D02*
X015421Y042257D01*
X015671Y042257D02*
X015671Y042007D01*
X015421Y042007D01*
X015421Y042257D01*
X015421Y042090D02*
X015671Y042090D01*
X015671Y042173D02*
X015421Y042173D01*
X015421Y042256D02*
X015671Y042256D01*
X015671Y041902D02*
X015421Y041902D01*
X015671Y041902D02*
X015671Y041652D01*
X015421Y041652D01*
X015421Y041902D01*
X015421Y041735D02*
X015671Y041735D01*
X015671Y041818D02*
X015421Y041818D01*
X015421Y041901D02*
X015671Y041901D01*
X014392Y040544D02*
X014392Y040294D01*
X014142Y040294D01*
X014142Y040544D01*
X014392Y040544D01*
X014392Y040377D02*
X014142Y040377D01*
X014142Y040460D02*
X014392Y040460D01*
X014392Y040543D02*
X014142Y040543D01*
X014038Y040544D02*
X014038Y040294D01*
X013788Y040294D01*
X013788Y040544D01*
X014038Y040544D01*
X014038Y040377D02*
X013788Y040377D01*
X013788Y040460D02*
X014038Y040460D01*
X014038Y040543D02*
X013788Y040543D01*
X013965Y039894D02*
X013965Y039644D01*
X013965Y039894D02*
X014215Y039894D01*
X014215Y039644D01*
X013965Y039644D01*
X013965Y039727D02*
X014215Y039727D01*
X014215Y039810D02*
X013965Y039810D01*
X013965Y039893D02*
X014215Y039893D01*
X014319Y039894D02*
X014319Y039644D01*
X014319Y039894D02*
X014569Y039894D01*
X014569Y039644D01*
X014319Y039644D01*
X014319Y039727D02*
X014569Y039727D01*
X014569Y039810D02*
X014319Y039810D01*
X014319Y039893D02*
X014569Y039893D01*
X015835Y038930D02*
X015835Y038680D01*
X015835Y038930D02*
X016085Y038930D01*
X016085Y038680D01*
X015835Y038680D01*
X015835Y038763D02*
X016085Y038763D01*
X016085Y038846D02*
X015835Y038846D01*
X015835Y038929D02*
X016085Y038929D01*
X016189Y038930D02*
X016189Y038680D01*
X016189Y038930D02*
X016439Y038930D01*
X016439Y038680D01*
X016189Y038680D01*
X016189Y038763D02*
X016439Y038763D01*
X016439Y038846D02*
X016189Y038846D01*
X016189Y038929D02*
X016439Y038929D01*
X020953Y036764D02*
X020953Y036514D01*
X020953Y036764D02*
X021203Y036764D01*
X021203Y036514D01*
X020953Y036514D01*
X020953Y036597D02*
X021203Y036597D01*
X021203Y036680D02*
X020953Y036680D01*
X020953Y036763D02*
X021203Y036763D01*
X021307Y036764D02*
X021307Y036514D01*
X021307Y036764D02*
X021557Y036764D01*
X021557Y036514D01*
X021307Y036514D01*
X021307Y036597D02*
X021557Y036597D01*
X021557Y036680D02*
X021307Y036680D01*
X021307Y036763D02*
X021557Y036763D01*
X025264Y032164D02*
X025514Y032164D01*
X025264Y032164D02*
X025264Y032414D01*
X025514Y032414D01*
X025514Y032164D01*
X025514Y032247D02*
X025264Y032247D01*
X025264Y032330D02*
X025514Y032330D01*
X025514Y032413D02*
X025264Y032413D01*
X025264Y031810D02*
X025514Y031810D01*
X025264Y031810D02*
X025264Y032060D01*
X025514Y032060D01*
X025514Y031810D01*
X025514Y031893D02*
X025264Y031893D01*
X025264Y031976D02*
X025514Y031976D01*
X025514Y032059D02*
X025264Y032059D01*
X029398Y029802D02*
X029648Y029802D01*
X029398Y029802D02*
X029398Y030052D01*
X029648Y030052D01*
X029648Y029802D01*
X029648Y029885D02*
X029398Y029885D01*
X029398Y029968D02*
X029648Y029968D01*
X029648Y030051D02*
X029398Y030051D01*
X029398Y029448D02*
X029648Y029448D01*
X029398Y029448D02*
X029398Y029698D01*
X029648Y029698D01*
X029648Y029448D01*
X029648Y029531D02*
X029398Y029531D01*
X029398Y029614D02*
X029648Y029614D01*
X029648Y029697D02*
X029398Y029697D01*
X033138Y028227D02*
X033388Y028227D01*
X033138Y028227D02*
X033138Y028477D01*
X033388Y028477D01*
X033388Y028227D01*
X033388Y028310D02*
X033138Y028310D01*
X033138Y028393D02*
X033388Y028393D01*
X033388Y028476D02*
X033138Y028476D01*
X033138Y027873D02*
X033388Y027873D01*
X033138Y027873D02*
X033138Y028123D01*
X033388Y028123D01*
X033388Y027873D01*
X033388Y027956D02*
X033138Y027956D01*
X033138Y028039D02*
X033388Y028039D01*
X033388Y028122D02*
X033138Y028122D01*
X033768Y030432D02*
X034018Y030432D01*
X033768Y030432D02*
X033768Y030682D01*
X034018Y030682D01*
X034018Y030432D01*
X034018Y030515D02*
X033768Y030515D01*
X033768Y030598D02*
X034018Y030598D01*
X034018Y030681D02*
X033768Y030681D01*
X033768Y030786D02*
X034018Y030786D01*
X033768Y030786D02*
X033768Y031036D01*
X034018Y031036D01*
X034018Y030786D01*
X034018Y030869D02*
X033768Y030869D01*
X033768Y030952D02*
X034018Y030952D01*
X034018Y031035D02*
X033768Y031035D01*
X033925Y043871D02*
X034175Y043871D01*
X034175Y043621D01*
X033925Y043621D01*
X033925Y043871D01*
X033925Y043704D02*
X034175Y043704D01*
X034175Y043787D02*
X033925Y043787D01*
X033925Y043870D02*
X034175Y043870D01*
X034175Y044225D02*
X033925Y044225D01*
X034175Y044225D02*
X034175Y043975D01*
X033925Y043975D01*
X033925Y044225D01*
X033925Y044058D02*
X034175Y044058D01*
X034175Y044141D02*
X033925Y044141D01*
X033925Y044224D02*
X034175Y044224D01*
X032994Y050904D02*
X032744Y050904D01*
X032744Y051154D01*
X032994Y051154D01*
X032994Y050904D01*
X032994Y050987D02*
X032744Y050987D01*
X032744Y051070D02*
X032994Y051070D01*
X032994Y051153D02*
X032744Y051153D01*
X032744Y051259D02*
X032994Y051259D01*
X032744Y051259D02*
X032744Y051509D01*
X032994Y051509D01*
X032994Y051259D01*
X032994Y051342D02*
X032744Y051342D01*
X032744Y051425D02*
X032994Y051425D01*
X032994Y051508D02*
X032744Y051508D01*
X034417Y053516D02*
X034667Y053516D01*
X034667Y053266D01*
X034417Y053266D01*
X034417Y053516D01*
X034417Y053349D02*
X034667Y053349D01*
X034667Y053432D02*
X034417Y053432D01*
X034417Y053515D02*
X034667Y053515D01*
X034667Y053871D02*
X034417Y053871D01*
X034667Y053871D02*
X034667Y053621D01*
X034417Y053621D01*
X034417Y053871D01*
X034417Y053704D02*
X034667Y053704D01*
X034667Y053787D02*
X034417Y053787D01*
X034417Y053870D02*
X034667Y053870D01*
X036386Y051062D02*
X036636Y051062D01*
X036386Y051062D02*
X036386Y051312D01*
X036636Y051312D01*
X036636Y051062D01*
X036636Y051145D02*
X036386Y051145D01*
X036386Y051228D02*
X036636Y051228D01*
X036636Y051311D02*
X036386Y051311D01*
X036386Y050707D02*
X036636Y050707D01*
X036386Y050707D02*
X036386Y050957D01*
X036636Y050957D01*
X036636Y050707D01*
X036636Y050790D02*
X036386Y050790D01*
X036386Y050873D02*
X036636Y050873D01*
X036636Y050956D02*
X036386Y050956D01*
X032108Y056416D02*
X031858Y056416D01*
X031858Y056666D01*
X032108Y056666D01*
X032108Y056416D01*
X032108Y056499D02*
X031858Y056499D01*
X031858Y056582D02*
X032108Y056582D01*
X032108Y056665D02*
X031858Y056665D01*
X031858Y056770D02*
X032108Y056770D01*
X031858Y056770D02*
X031858Y057020D01*
X032108Y057020D01*
X032108Y056770D01*
X032108Y056853D02*
X031858Y056853D01*
X031858Y056936D02*
X032108Y056936D01*
X032108Y057019D02*
X031858Y057019D01*
X028447Y052119D02*
X028447Y051869D01*
X028197Y051869D01*
X028197Y052119D01*
X028447Y052119D01*
X028447Y051952D02*
X028197Y051952D01*
X028197Y052035D02*
X028447Y052035D01*
X028447Y052118D02*
X028197Y052118D01*
X028093Y052119D02*
X028093Y051869D01*
X027843Y051869D01*
X027843Y052119D01*
X028093Y052119D01*
X028093Y051952D02*
X027843Y051952D01*
X027843Y052035D02*
X028093Y052035D01*
X028093Y052118D02*
X027843Y052118D01*
X028093Y051528D02*
X028093Y051278D01*
X027843Y051278D01*
X027843Y051528D01*
X028093Y051528D01*
X028093Y051361D02*
X027843Y051361D01*
X027843Y051444D02*
X028093Y051444D01*
X028093Y051527D02*
X027843Y051527D01*
X028447Y051528D02*
X028447Y051278D01*
X028197Y051278D01*
X028197Y051528D01*
X028447Y051528D01*
X028447Y051361D02*
X028197Y051361D01*
X028197Y051444D02*
X028447Y051444D01*
X028447Y051527D02*
X028197Y051527D01*
X016636Y025741D02*
X016636Y025491D01*
X016386Y025491D01*
X016386Y025741D01*
X016636Y025741D01*
X016636Y025574D02*
X016386Y025574D01*
X016386Y025657D02*
X016636Y025657D01*
X016636Y025740D02*
X016386Y025740D01*
X016282Y025741D02*
X016282Y025491D01*
X016032Y025491D01*
X016032Y025741D01*
X016282Y025741D01*
X016282Y025574D02*
X016032Y025574D01*
X016032Y025657D02*
X016282Y025657D01*
X016282Y025740D02*
X016032Y025740D01*
D15*
X017859Y033736D02*
X018155Y033736D01*
X017859Y033736D02*
X017859Y034032D01*
X018155Y034032D01*
X018155Y033736D01*
X018155Y033833D02*
X017859Y033833D01*
X017859Y033930D02*
X018155Y033930D01*
X018155Y034027D02*
X017859Y034027D01*
X018450Y033736D02*
X018746Y033736D01*
X018450Y033736D02*
X018450Y034032D01*
X018746Y034032D01*
X018746Y033736D01*
X018746Y033833D02*
X018450Y033833D01*
X018450Y033930D02*
X018746Y033930D01*
X018746Y034027D02*
X018450Y034027D01*
X020104Y034494D02*
X020104Y034848D01*
X020104Y034494D02*
X019808Y034494D01*
X019808Y034848D01*
X020104Y034848D01*
X020104Y034591D02*
X019808Y034591D01*
X019808Y034688D02*
X020104Y034688D01*
X020104Y034785D02*
X019808Y034785D01*
X020734Y034848D02*
X020734Y034494D01*
X020438Y034494D01*
X020438Y034848D01*
X020734Y034848D01*
X020734Y034591D02*
X020438Y034591D01*
X020438Y034688D02*
X020734Y034688D01*
X020734Y034785D02*
X020438Y034785D01*
X021835Y041610D02*
X022131Y041610D01*
X022131Y041314D01*
X021835Y041314D01*
X021835Y041610D01*
X021835Y041411D02*
X022131Y041411D01*
X022131Y041508D02*
X021835Y041508D01*
X021835Y041605D02*
X022131Y041605D01*
X022426Y041610D02*
X022722Y041610D01*
X022722Y041314D01*
X022426Y041314D01*
X022426Y041610D01*
X022426Y041411D02*
X022722Y041411D01*
X022722Y041508D02*
X022426Y041508D01*
X022426Y041605D02*
X022722Y041605D01*
X023057Y044533D02*
X023057Y044887D01*
X023057Y044533D02*
X022761Y044533D01*
X022761Y044887D01*
X023057Y044887D01*
X023057Y044630D02*
X022761Y044630D01*
X022761Y044727D02*
X023057Y044727D01*
X023057Y044824D02*
X022761Y044824D01*
X022427Y044887D02*
X022427Y044533D01*
X022131Y044533D01*
X022131Y044887D01*
X022427Y044887D01*
X022427Y044630D02*
X022131Y044630D01*
X022131Y044727D02*
X022427Y044727D01*
X022427Y044824D02*
X022131Y044824D01*
X019553Y042092D02*
X019553Y041738D01*
X019257Y041738D01*
X019257Y042092D01*
X019553Y042092D01*
X019553Y041835D02*
X019257Y041835D01*
X019257Y041932D02*
X019553Y041932D01*
X019553Y042029D02*
X019257Y042029D01*
X018923Y042092D02*
X018923Y041738D01*
X018627Y041738D01*
X018627Y042092D01*
X018923Y042092D01*
X018923Y041835D02*
X018627Y041835D01*
X018627Y041932D02*
X018923Y041932D01*
X018923Y042029D02*
X018627Y042029D01*
X018233Y050636D02*
X018233Y050990D01*
X018529Y050990D01*
X018529Y050636D01*
X018233Y050636D01*
X018233Y050733D02*
X018529Y050733D01*
X018529Y050830D02*
X018233Y050830D01*
X018233Y050927D02*
X018529Y050927D01*
X018863Y050990D02*
X018863Y050636D01*
X018863Y050990D02*
X019159Y050990D01*
X019159Y050636D01*
X018863Y050636D01*
X018863Y050733D02*
X019159Y050733D01*
X019159Y050830D02*
X018863Y050830D01*
X018863Y050927D02*
X019159Y050927D01*
X020595Y053234D02*
X020595Y053588D01*
X020891Y053588D01*
X020891Y053234D01*
X020595Y053234D01*
X020595Y053331D02*
X020891Y053331D01*
X020891Y053428D02*
X020595Y053428D01*
X020595Y053525D02*
X020891Y053525D01*
X021225Y053588D02*
X021225Y053234D01*
X021225Y053588D02*
X021521Y053588D01*
X021521Y053234D01*
X021225Y053234D01*
X021225Y053331D02*
X021521Y053331D01*
X021521Y053428D02*
X021225Y053428D01*
X021225Y053525D02*
X021521Y053525D01*
X019267Y054780D02*
X018913Y054780D01*
X019267Y054780D02*
X019267Y054484D01*
X018913Y054484D01*
X018913Y054780D01*
X018913Y054581D02*
X019267Y054581D01*
X019267Y054678D02*
X018913Y054678D01*
X018913Y054775D02*
X019267Y054775D01*
X019267Y055410D02*
X018913Y055410D01*
X019267Y055410D02*
X019267Y055114D01*
X018913Y055114D01*
X018913Y055410D01*
X018913Y055211D02*
X019267Y055211D01*
X019267Y055308D02*
X018913Y055308D01*
X018913Y055405D02*
X019267Y055405D01*
X022505Y057339D02*
X022505Y057673D01*
X022801Y057673D01*
X022801Y057339D01*
X022505Y057339D01*
X022505Y057436D02*
X022801Y057436D01*
X022801Y057533D02*
X022505Y057533D01*
X022505Y057630D02*
X022801Y057630D01*
X023253Y057673D02*
X023253Y057339D01*
X023253Y057673D02*
X023549Y057673D01*
X023549Y057339D01*
X023253Y057339D01*
X023253Y057436D02*
X023549Y057436D01*
X023549Y057533D02*
X023253Y057533D01*
X023253Y057630D02*
X023549Y057630D01*
X024670Y057673D02*
X024670Y057339D01*
X024670Y057673D02*
X024966Y057673D01*
X024966Y057339D01*
X024670Y057339D01*
X024670Y057436D02*
X024966Y057436D01*
X024966Y057533D02*
X024670Y057533D01*
X024670Y057630D02*
X024966Y057630D01*
X025418Y057673D02*
X025418Y057339D01*
X025418Y057673D02*
X025714Y057673D01*
X025714Y057339D01*
X025418Y057339D01*
X025418Y057436D02*
X025714Y057436D01*
X025714Y057533D02*
X025418Y057533D01*
X025418Y057630D02*
X025714Y057630D01*
X026835Y057673D02*
X026835Y057339D01*
X026835Y057673D02*
X027131Y057673D01*
X027131Y057339D01*
X026835Y057339D01*
X026835Y057436D02*
X027131Y057436D01*
X027131Y057533D02*
X026835Y057533D01*
X026835Y057630D02*
X027131Y057630D01*
X027583Y057673D02*
X027583Y057339D01*
X027583Y057673D02*
X027879Y057673D01*
X027879Y057339D01*
X027583Y057339D01*
X027583Y057436D02*
X027879Y057436D01*
X027879Y057533D02*
X027583Y057533D01*
X027583Y057630D02*
X027879Y057630D01*
X029001Y057673D02*
X029001Y057339D01*
X029001Y057673D02*
X029297Y057673D01*
X029297Y057339D01*
X029001Y057339D01*
X029001Y057436D02*
X029297Y057436D01*
X029297Y057533D02*
X029001Y057533D01*
X029001Y057630D02*
X029297Y057630D01*
X029749Y057673D02*
X029749Y057339D01*
X029749Y057673D02*
X030045Y057673D01*
X030045Y057339D01*
X029749Y057339D01*
X029749Y057436D02*
X030045Y057436D01*
X030045Y057533D02*
X029749Y057533D01*
X029749Y057630D02*
X030045Y057630D01*
X025408Y053736D02*
X025054Y053736D01*
X025054Y054032D01*
X025408Y054032D01*
X025408Y053736D01*
X025408Y053833D02*
X025054Y053833D01*
X025054Y053930D02*
X025408Y053930D01*
X025408Y054027D02*
X025054Y054027D01*
X025054Y053106D02*
X025408Y053106D01*
X025054Y053106D02*
X025054Y053402D01*
X025408Y053402D01*
X025408Y053106D01*
X025408Y053203D02*
X025054Y053203D01*
X025054Y053300D02*
X025408Y053300D01*
X025408Y053397D02*
X025054Y053397D01*
X029543Y048323D02*
X029897Y048323D01*
X029897Y048027D01*
X029543Y048027D01*
X029543Y048323D01*
X029543Y048124D02*
X029897Y048124D01*
X029897Y048221D02*
X029543Y048221D01*
X029543Y048318D02*
X029897Y048318D01*
X029897Y047693D02*
X029543Y047693D01*
X029897Y047693D02*
X029897Y047397D01*
X029543Y047397D01*
X029543Y047693D01*
X029543Y047494D02*
X029897Y047494D01*
X029897Y047591D02*
X029543Y047591D01*
X029543Y047688D02*
X029897Y047688D01*
X029897Y046452D02*
X029543Y046452D01*
X029543Y046748D01*
X029897Y046748D01*
X029897Y046452D01*
X029897Y046549D02*
X029543Y046549D01*
X029543Y046646D02*
X029897Y046646D01*
X029897Y046743D02*
X029543Y046743D01*
X029543Y045822D02*
X029897Y045822D01*
X029543Y045822D02*
X029543Y046118D01*
X029897Y046118D01*
X029897Y045822D01*
X029897Y045919D02*
X029543Y045919D01*
X029543Y046016D02*
X029897Y046016D01*
X029897Y046113D02*
X029543Y046113D01*
X027072Y043273D02*
X027072Y042919D01*
X026776Y042919D01*
X026776Y043273D01*
X027072Y043273D01*
X027072Y043016D02*
X026776Y043016D01*
X026776Y043113D02*
X027072Y043113D01*
X027072Y043210D02*
X026776Y043210D01*
X026442Y043273D02*
X026442Y042919D01*
X026146Y042919D01*
X026146Y043273D01*
X026442Y043273D01*
X026442Y043016D02*
X026146Y043016D01*
X026146Y043113D02*
X026442Y043113D01*
X026442Y043210D02*
X026146Y043210D01*
X027968Y039425D02*
X028322Y039425D01*
X028322Y039129D01*
X027968Y039129D01*
X027968Y039425D01*
X027968Y039226D02*
X028322Y039226D01*
X028322Y039323D02*
X027968Y039323D01*
X027968Y039420D02*
X028322Y039420D01*
X028322Y038795D02*
X027968Y038795D01*
X028322Y038795D02*
X028322Y038499D01*
X027968Y038499D01*
X027968Y038795D01*
X027968Y038596D02*
X028322Y038596D01*
X028322Y038693D02*
X027968Y038693D01*
X027968Y038790D02*
X028322Y038790D01*
X028952Y038795D02*
X029306Y038795D01*
X029306Y038499D01*
X028952Y038499D01*
X028952Y038795D01*
X028952Y038596D02*
X029306Y038596D01*
X029306Y038693D02*
X028952Y038693D01*
X028952Y038790D02*
X029306Y038790D01*
X029306Y039425D02*
X028952Y039425D01*
X029306Y039425D02*
X029306Y039129D01*
X028952Y039129D01*
X028952Y039425D01*
X028952Y039226D02*
X029306Y039226D01*
X029306Y039323D02*
X028952Y039323D01*
X028952Y039420D02*
X029306Y039420D01*
X033873Y050547D02*
X034227Y050547D01*
X033873Y050547D02*
X033873Y050843D01*
X034227Y050843D01*
X034227Y050547D01*
X034227Y050644D02*
X033873Y050644D01*
X033873Y050741D02*
X034227Y050741D01*
X034227Y050838D02*
X033873Y050838D01*
X033873Y051177D02*
X034227Y051177D01*
X033873Y051177D02*
X033873Y051473D01*
X034227Y051473D01*
X034227Y051177D01*
X034227Y051274D02*
X033873Y051274D01*
X033873Y051371D02*
X034227Y051371D01*
X034227Y051468D02*
X033873Y051468D01*
X035153Y051177D02*
X035507Y051177D01*
X035153Y051177D02*
X035153Y051473D01*
X035507Y051473D01*
X035507Y051177D01*
X035507Y051274D02*
X035153Y051274D01*
X035153Y051371D02*
X035507Y051371D01*
X035507Y051468D02*
X035153Y051468D01*
X035153Y050547D02*
X035507Y050547D01*
X035153Y050547D02*
X035153Y050843D01*
X035507Y050843D01*
X035507Y050547D01*
X035507Y050644D02*
X035153Y050644D01*
X035153Y050741D02*
X035507Y050741D01*
X035507Y050838D02*
X035153Y050838D01*
D16*
X033540Y052014D02*
X033304Y052014D01*
X033304Y052880D01*
X033540Y052880D01*
X033540Y052014D01*
X033540Y052092D02*
X033304Y052092D01*
X033304Y052170D02*
X033540Y052170D01*
X033540Y052248D02*
X033304Y052248D01*
X033304Y052326D02*
X033540Y052326D01*
X033540Y052404D02*
X033304Y052404D01*
X033304Y052482D02*
X033540Y052482D01*
X033540Y052560D02*
X033304Y052560D01*
X033304Y052638D02*
X033540Y052638D01*
X033540Y052716D02*
X033304Y052716D01*
X033304Y052794D02*
X033540Y052794D01*
X033540Y052872D02*
X033304Y052872D01*
X033040Y052014D02*
X032804Y052014D01*
X032804Y052880D01*
X033040Y052880D01*
X033040Y052014D01*
X033040Y052092D02*
X032804Y052092D01*
X032804Y052170D02*
X033040Y052170D01*
X033040Y052248D02*
X032804Y052248D01*
X032804Y052326D02*
X033040Y052326D01*
X033040Y052404D02*
X032804Y052404D01*
X032804Y052482D02*
X033040Y052482D01*
X033040Y052560D02*
X032804Y052560D01*
X032804Y052638D02*
X033040Y052638D01*
X033040Y052716D02*
X032804Y052716D01*
X032804Y052794D02*
X033040Y052794D01*
X033040Y052872D02*
X032804Y052872D01*
X032540Y052014D02*
X032304Y052014D01*
X032304Y052880D01*
X032540Y052880D01*
X032540Y052014D01*
X032540Y052092D02*
X032304Y052092D01*
X032304Y052170D02*
X032540Y052170D01*
X032540Y052248D02*
X032304Y052248D01*
X032304Y052326D02*
X032540Y052326D01*
X032540Y052404D02*
X032304Y052404D01*
X032304Y052482D02*
X032540Y052482D01*
X032540Y052560D02*
X032304Y052560D01*
X032304Y052638D02*
X032540Y052638D01*
X032540Y052716D02*
X032304Y052716D01*
X032304Y052794D02*
X032540Y052794D01*
X032540Y052872D02*
X032304Y052872D01*
X032040Y052014D02*
X031804Y052014D01*
X031804Y052880D01*
X032040Y052880D01*
X032040Y052014D01*
X032040Y052092D02*
X031804Y052092D01*
X031804Y052170D02*
X032040Y052170D01*
X032040Y052248D02*
X031804Y052248D01*
X031804Y052326D02*
X032040Y052326D01*
X032040Y052404D02*
X031804Y052404D01*
X031804Y052482D02*
X032040Y052482D01*
X032040Y052560D02*
X031804Y052560D01*
X031804Y052638D02*
X032040Y052638D01*
X032040Y052716D02*
X031804Y052716D01*
X031804Y052794D02*
X032040Y052794D01*
X032040Y052872D02*
X031804Y052872D01*
X031804Y054061D02*
X032040Y054061D01*
X031804Y054061D02*
X031804Y054927D01*
X032040Y054927D01*
X032040Y054061D01*
X032040Y054139D02*
X031804Y054139D01*
X031804Y054217D02*
X032040Y054217D01*
X032040Y054295D02*
X031804Y054295D01*
X031804Y054373D02*
X032040Y054373D01*
X032040Y054451D02*
X031804Y054451D01*
X031804Y054529D02*
X032040Y054529D01*
X032040Y054607D02*
X031804Y054607D01*
X031804Y054685D02*
X032040Y054685D01*
X032040Y054763D02*
X031804Y054763D01*
X031804Y054841D02*
X032040Y054841D01*
X032040Y054919D02*
X031804Y054919D01*
X032304Y054061D02*
X032540Y054061D01*
X032304Y054061D02*
X032304Y054927D01*
X032540Y054927D01*
X032540Y054061D01*
X032540Y054139D02*
X032304Y054139D01*
X032304Y054217D02*
X032540Y054217D01*
X032540Y054295D02*
X032304Y054295D01*
X032304Y054373D02*
X032540Y054373D01*
X032540Y054451D02*
X032304Y054451D01*
X032304Y054529D02*
X032540Y054529D01*
X032540Y054607D02*
X032304Y054607D01*
X032304Y054685D02*
X032540Y054685D01*
X032540Y054763D02*
X032304Y054763D01*
X032304Y054841D02*
X032540Y054841D01*
X032540Y054919D02*
X032304Y054919D01*
X032804Y054061D02*
X033040Y054061D01*
X032804Y054061D02*
X032804Y054927D01*
X033040Y054927D01*
X033040Y054061D01*
X033040Y054139D02*
X032804Y054139D01*
X032804Y054217D02*
X033040Y054217D01*
X033040Y054295D02*
X032804Y054295D01*
X032804Y054373D02*
X033040Y054373D01*
X033040Y054451D02*
X032804Y054451D01*
X032804Y054529D02*
X033040Y054529D01*
X033040Y054607D02*
X032804Y054607D01*
X032804Y054685D02*
X033040Y054685D01*
X033040Y054763D02*
X032804Y054763D01*
X032804Y054841D02*
X033040Y054841D01*
X033040Y054919D02*
X032804Y054919D01*
X033304Y054061D02*
X033540Y054061D01*
X033304Y054061D02*
X033304Y054927D01*
X033540Y054927D01*
X033540Y054061D01*
X033540Y054139D02*
X033304Y054139D01*
X033304Y054217D02*
X033540Y054217D01*
X033540Y054295D02*
X033304Y054295D01*
X033304Y054373D02*
X033540Y054373D01*
X033540Y054451D02*
X033304Y054451D01*
X033304Y054529D02*
X033540Y054529D01*
X033540Y054607D02*
X033304Y054607D01*
X033304Y054685D02*
X033540Y054685D01*
X033540Y054763D02*
X033304Y054763D01*
X033304Y054841D02*
X033540Y054841D01*
X033540Y054919D02*
X033304Y054919D01*
X030035Y056393D02*
X030035Y056649D01*
X030035Y056393D02*
X029799Y056393D01*
X029799Y056649D01*
X030035Y056649D01*
X030035Y056471D02*
X029799Y056471D01*
X029799Y056549D02*
X030035Y056549D01*
X030035Y056627D02*
X029799Y056627D01*
X029641Y056649D02*
X029641Y056393D01*
X029405Y056393D01*
X029405Y056649D01*
X029641Y056649D01*
X029641Y056471D02*
X029405Y056471D01*
X029405Y056549D02*
X029641Y056549D01*
X029641Y056627D02*
X029405Y056627D01*
X027869Y056649D02*
X027869Y056393D01*
X027633Y056393D01*
X027633Y056649D01*
X027869Y056649D01*
X027869Y056471D02*
X027633Y056471D01*
X027633Y056549D02*
X027869Y056549D01*
X027869Y056627D02*
X027633Y056627D01*
X027475Y056649D02*
X027475Y056393D01*
X027239Y056393D01*
X027239Y056649D01*
X027475Y056649D01*
X027475Y056471D02*
X027239Y056471D01*
X027239Y056549D02*
X027475Y056549D01*
X027475Y056627D02*
X027239Y056627D01*
X025281Y056639D02*
X025025Y056639D01*
X025281Y056639D02*
X025281Y056403D01*
X025025Y056403D01*
X025025Y056639D01*
X025025Y056481D02*
X025281Y056481D01*
X025281Y056559D02*
X025025Y056559D01*
X025025Y056637D02*
X025281Y056637D01*
X025281Y056246D02*
X025025Y056246D01*
X025281Y056246D02*
X025281Y056010D01*
X025025Y056010D01*
X025025Y056246D01*
X025025Y056088D02*
X025281Y056088D01*
X025281Y056166D02*
X025025Y056166D01*
X025025Y056244D02*
X025281Y056244D01*
X023548Y056364D02*
X023292Y056364D01*
X023548Y056364D02*
X023548Y056128D01*
X023292Y056128D01*
X023292Y056364D01*
X023292Y056206D02*
X023548Y056206D01*
X023548Y056284D02*
X023292Y056284D01*
X023292Y056362D02*
X023548Y056362D01*
X023548Y056757D02*
X023292Y056757D01*
X023548Y056757D02*
X023548Y056521D01*
X023292Y056521D01*
X023292Y056757D01*
X023292Y056599D02*
X023548Y056599D01*
X023548Y056677D02*
X023292Y056677D01*
X023292Y056755D02*
X023548Y056755D01*
X022564Y054002D02*
X022308Y054002D01*
X022564Y054002D02*
X022564Y053766D01*
X022308Y053766D01*
X022308Y054002D01*
X022308Y053844D02*
X022564Y053844D01*
X022564Y053922D02*
X022308Y053922D01*
X022308Y054000D02*
X022564Y054000D01*
X022564Y053608D02*
X022308Y053608D01*
X022564Y053608D02*
X022564Y053372D01*
X022308Y053372D01*
X022308Y053608D01*
X022308Y053450D02*
X022564Y053450D01*
X022564Y053528D02*
X022308Y053528D01*
X022308Y053606D02*
X022564Y053606D01*
X022564Y052860D02*
X022308Y052860D01*
X022308Y053096D01*
X022564Y053096D01*
X022564Y052860D01*
X022564Y052938D02*
X022308Y052938D01*
X022308Y053016D02*
X022564Y053016D01*
X022564Y053094D02*
X022308Y053094D01*
X022308Y052466D02*
X022564Y052466D01*
X022308Y052466D02*
X022308Y052702D01*
X022564Y052702D01*
X022564Y052466D01*
X022564Y052544D02*
X022308Y052544D01*
X022308Y052622D02*
X022564Y052622D01*
X022564Y052700D02*
X022308Y052700D01*
X021156Y054573D02*
X020684Y054573D01*
X020684Y054809D01*
X021156Y054809D01*
X021156Y054573D01*
X021156Y054651D02*
X020684Y054651D01*
X020684Y054729D02*
X021156Y054729D01*
X021156Y054807D02*
X020684Y054807D01*
X020684Y054947D02*
X021156Y054947D01*
X020684Y054947D02*
X020684Y055183D01*
X021156Y055183D01*
X021156Y054947D01*
X021156Y055025D02*
X020684Y055025D01*
X020684Y055103D02*
X021156Y055103D01*
X021156Y055181D02*
X020684Y055181D01*
X020684Y055321D02*
X021156Y055321D01*
X020684Y055321D02*
X020684Y055557D01*
X021156Y055557D01*
X021156Y055321D01*
X021156Y055399D02*
X020684Y055399D01*
X020684Y055477D02*
X021156Y055477D01*
X021156Y055555D02*
X020684Y055555D01*
X020251Y055321D02*
X019779Y055321D01*
X019779Y055557D01*
X020251Y055557D01*
X020251Y055321D01*
X020251Y055399D02*
X019779Y055399D01*
X019779Y055477D02*
X020251Y055477D01*
X020251Y055555D02*
X019779Y055555D01*
X019779Y054573D02*
X020251Y054573D01*
X019779Y054573D02*
X019779Y054809D01*
X020251Y054809D01*
X020251Y054573D01*
X020251Y054651D02*
X019779Y054651D01*
X019779Y054729D02*
X020251Y054729D01*
X020251Y054807D02*
X019779Y054807D01*
X018233Y055025D02*
X017977Y055025D01*
X017977Y055261D01*
X018233Y055261D01*
X018233Y055025D01*
X018233Y055103D02*
X017977Y055103D01*
X017977Y055181D02*
X018233Y055181D01*
X018233Y055259D02*
X017977Y055259D01*
X017977Y055419D02*
X018233Y055419D01*
X017977Y055419D02*
X017977Y055655D01*
X018233Y055655D01*
X018233Y055419D01*
X018233Y055497D02*
X017977Y055497D01*
X017977Y055575D02*
X018233Y055575D01*
X018233Y055653D02*
X017977Y055653D01*
X017643Y055419D02*
X017387Y055419D01*
X017387Y055655D01*
X017643Y055655D01*
X017643Y055419D01*
X017643Y055497D02*
X017387Y055497D01*
X017387Y055575D02*
X017643Y055575D01*
X017643Y055653D02*
X017387Y055653D01*
X017052Y055419D02*
X016796Y055419D01*
X016796Y055655D01*
X017052Y055655D01*
X017052Y055419D01*
X017052Y055497D02*
X016796Y055497D01*
X016796Y055575D02*
X017052Y055575D01*
X017052Y055653D02*
X016796Y055653D01*
X016462Y055577D02*
X016206Y055577D01*
X016206Y055813D01*
X016462Y055813D01*
X016462Y055577D01*
X016462Y055655D02*
X016206Y055655D01*
X016206Y055733D02*
X016462Y055733D01*
X016462Y055811D02*
X016206Y055811D01*
X016206Y055970D02*
X016462Y055970D01*
X016206Y055970D02*
X016206Y056206D01*
X016462Y056206D01*
X016462Y055970D01*
X016462Y056048D02*
X016206Y056048D01*
X016206Y056126D02*
X016462Y056126D01*
X016462Y056204D02*
X016206Y056204D01*
X016796Y055025D02*
X017052Y055025D01*
X016796Y055025D02*
X016796Y055261D01*
X017052Y055261D01*
X017052Y055025D01*
X017052Y055103D02*
X016796Y055103D01*
X016796Y055181D02*
X017052Y055181D01*
X017052Y055259D02*
X016796Y055259D01*
X017387Y055025D02*
X017643Y055025D01*
X017387Y055025D02*
X017387Y055261D01*
X017643Y055261D01*
X017643Y055025D01*
X017643Y055103D02*
X017387Y055103D01*
X017387Y055181D02*
X017643Y055181D01*
X017643Y055259D02*
X017387Y055259D01*
X018617Y050350D02*
X018617Y050094D01*
X018381Y050094D01*
X018381Y050350D01*
X018617Y050350D01*
X018617Y050172D02*
X018381Y050172D01*
X018381Y050250D02*
X018617Y050250D01*
X018617Y050328D02*
X018381Y050328D01*
X019011Y050350D02*
X019011Y050094D01*
X018775Y050094D01*
X018775Y050350D01*
X019011Y050350D01*
X019011Y050172D02*
X018775Y050172D01*
X018775Y050250D02*
X019011Y050250D01*
X019011Y050328D02*
X018775Y050328D01*
X018814Y049169D02*
X018814Y048913D01*
X018578Y048913D01*
X018578Y049169D01*
X018814Y049169D01*
X018814Y048991D02*
X018578Y048991D01*
X018578Y049069D02*
X018814Y049069D01*
X018814Y049147D02*
X018578Y049147D01*
X019208Y049169D02*
X019208Y048913D01*
X018972Y048913D01*
X018972Y049169D01*
X019208Y049169D01*
X019208Y048991D02*
X018972Y048991D01*
X018972Y049069D02*
X019208Y049069D01*
X019208Y049147D02*
X018972Y049147D01*
X019208Y048578D02*
X019208Y048322D01*
X018972Y048322D01*
X018972Y048578D01*
X019208Y048578D01*
X019208Y048400D02*
X018972Y048400D01*
X018972Y048478D02*
X019208Y048478D01*
X019208Y048556D02*
X018972Y048556D01*
X018814Y048578D02*
X018814Y048322D01*
X018578Y048322D01*
X018578Y048578D01*
X018814Y048578D01*
X018814Y048400D02*
X018578Y048400D01*
X018578Y048478D02*
X018814Y048478D01*
X018814Y048556D02*
X018578Y048556D01*
X019631Y049198D02*
X019887Y049198D01*
X019887Y048962D01*
X019631Y048962D01*
X019631Y049198D01*
X019631Y049040D02*
X019887Y049040D01*
X019887Y049118D02*
X019631Y049118D01*
X019631Y049196D02*
X019887Y049196D01*
X019887Y049592D02*
X019631Y049592D01*
X019887Y049592D02*
X019887Y049356D01*
X019631Y049356D01*
X019631Y049592D01*
X019631Y049434D02*
X019887Y049434D01*
X019887Y049512D02*
X019631Y049512D01*
X019631Y049590D02*
X019887Y049590D01*
X020586Y044051D02*
X020586Y043795D01*
X020350Y043795D01*
X020350Y044051D01*
X020586Y044051D01*
X020586Y043873D02*
X020350Y043873D01*
X020350Y043951D02*
X020586Y043951D01*
X020586Y044029D02*
X020350Y044029D01*
X020979Y044051D02*
X020979Y043795D01*
X020743Y043795D01*
X020743Y044051D01*
X020979Y044051D01*
X020979Y043873D02*
X020743Y043873D01*
X020743Y043951D02*
X020979Y043951D01*
X020979Y044029D02*
X020743Y044029D01*
X021914Y043057D02*
X022170Y043057D01*
X022170Y042821D01*
X021914Y042821D01*
X021914Y043057D01*
X021914Y042899D02*
X022170Y042899D01*
X022170Y042977D02*
X021914Y042977D01*
X021914Y043055D02*
X022170Y043055D01*
X022170Y042663D02*
X021914Y042663D01*
X022170Y042663D02*
X022170Y042427D01*
X021914Y042427D01*
X021914Y042663D01*
X021914Y042505D02*
X022170Y042505D01*
X022170Y042583D02*
X021914Y042583D01*
X021914Y042661D02*
X022170Y042661D01*
X020822Y042545D02*
X020822Y042073D01*
X020822Y042545D02*
X021058Y042545D01*
X021058Y042073D01*
X020822Y042073D01*
X020822Y042151D02*
X021058Y042151D01*
X021058Y042229D02*
X020822Y042229D01*
X020822Y042307D02*
X021058Y042307D01*
X021058Y042385D02*
X020822Y042385D01*
X020822Y042463D02*
X021058Y042463D01*
X021058Y042541D02*
X020822Y042541D01*
X020074Y042545D02*
X020074Y042073D01*
X020074Y042545D02*
X020310Y042545D01*
X020310Y042073D01*
X020074Y042073D01*
X020074Y042151D02*
X020310Y042151D01*
X020310Y042229D02*
X020074Y042229D01*
X020074Y042307D02*
X020310Y042307D01*
X020310Y042385D02*
X020074Y042385D01*
X020074Y042463D02*
X020310Y042463D01*
X020310Y042541D02*
X020074Y042541D01*
X020074Y041639D02*
X020074Y041167D01*
X020074Y041639D02*
X020310Y041639D01*
X020310Y041167D01*
X020074Y041167D01*
X020074Y041245D02*
X020310Y041245D01*
X020310Y041323D02*
X020074Y041323D01*
X020074Y041401D02*
X020310Y041401D01*
X020310Y041479D02*
X020074Y041479D01*
X020074Y041557D02*
X020310Y041557D01*
X020310Y041635D02*
X020074Y041635D01*
X020448Y041639D02*
X020448Y041167D01*
X020448Y041639D02*
X020684Y041639D01*
X020684Y041167D01*
X020448Y041167D01*
X020448Y041245D02*
X020684Y041245D01*
X020684Y041323D02*
X020448Y041323D01*
X020448Y041401D02*
X020684Y041401D01*
X020684Y041479D02*
X020448Y041479D01*
X020448Y041557D02*
X020684Y041557D01*
X020684Y041635D02*
X020448Y041635D01*
X020822Y041639D02*
X020822Y041167D01*
X020822Y041639D02*
X021058Y041639D01*
X021058Y041167D01*
X020822Y041167D01*
X020822Y041245D02*
X021058Y041245D01*
X021058Y041323D02*
X020822Y041323D01*
X020822Y041401D02*
X021058Y041401D01*
X021058Y041479D02*
X020822Y041479D01*
X020822Y041557D02*
X021058Y041557D01*
X021058Y041635D02*
X020822Y041635D01*
X020940Y038539D02*
X020940Y038283D01*
X020940Y038539D02*
X021176Y038539D01*
X021176Y038283D01*
X020940Y038283D01*
X020940Y038361D02*
X021176Y038361D01*
X021176Y038439D02*
X020940Y038439D01*
X020940Y038517D02*
X021176Y038517D01*
X021334Y038539D02*
X021334Y038283D01*
X021334Y038539D02*
X021570Y038539D01*
X021570Y038283D01*
X021334Y038283D01*
X021334Y038361D02*
X021570Y038361D01*
X021570Y038439D02*
X021334Y038439D01*
X021334Y038517D02*
X021570Y038517D01*
X021570Y037358D02*
X021570Y037102D01*
X021334Y037102D01*
X021334Y037358D01*
X021570Y037358D01*
X021570Y037180D02*
X021334Y037180D01*
X021334Y037258D02*
X021570Y037258D01*
X021570Y037336D02*
X021334Y037336D01*
X021176Y037358D02*
X021176Y037102D01*
X020940Y037102D01*
X020940Y037358D01*
X021176Y037358D01*
X021176Y037180D02*
X020940Y037180D01*
X020940Y037258D02*
X021176Y037258D01*
X021176Y037336D02*
X020940Y037336D01*
X020940Y036177D02*
X020940Y035921D01*
X020940Y036177D02*
X021176Y036177D01*
X021176Y035921D01*
X020940Y035921D01*
X020940Y035999D02*
X021176Y035999D01*
X021176Y036077D02*
X020940Y036077D01*
X020940Y036155D02*
X021176Y036155D01*
X021334Y036177D02*
X021334Y035921D01*
X021334Y036177D02*
X021570Y036177D01*
X021570Y035921D01*
X021334Y035921D01*
X021334Y035999D02*
X021570Y035999D01*
X021570Y036077D02*
X021334Y036077D01*
X021334Y036155D02*
X021570Y036155D01*
X021580Y032663D02*
X021324Y032663D01*
X021580Y032663D02*
X021580Y032427D01*
X021324Y032427D01*
X021324Y032663D01*
X021324Y032505D02*
X021580Y032505D01*
X021580Y032583D02*
X021324Y032583D01*
X021324Y032661D02*
X021580Y032661D01*
X021580Y032269D02*
X021324Y032269D01*
X021580Y032269D02*
X021580Y032033D01*
X021324Y032033D01*
X021324Y032269D01*
X021324Y032111D02*
X021580Y032111D01*
X021580Y032189D02*
X021324Y032189D01*
X021324Y032267D02*
X021580Y032267D01*
X018233Y032624D02*
X017977Y032624D01*
X018233Y032624D02*
X018233Y032388D01*
X017977Y032388D01*
X017977Y032624D01*
X017977Y032466D02*
X018233Y032466D01*
X018233Y032544D02*
X017977Y032544D01*
X017977Y032622D02*
X018233Y032622D01*
X018233Y033017D02*
X017977Y033017D01*
X018233Y033017D02*
X018233Y032781D01*
X017977Y032781D01*
X017977Y033017D01*
X017977Y032859D02*
X018233Y032859D01*
X018233Y032937D02*
X017977Y032937D01*
X017977Y033015D02*
X018233Y033015D01*
X013302Y029927D02*
X013302Y029611D01*
X013302Y029927D02*
X013538Y029927D01*
X013538Y029611D01*
X013302Y029611D01*
X013302Y029689D02*
X013538Y029689D01*
X013538Y029767D02*
X013302Y029767D01*
X013302Y029845D02*
X013538Y029845D01*
X013538Y029923D02*
X013302Y029923D01*
X013302Y028943D02*
X013302Y028627D01*
X013302Y028943D02*
X013538Y028943D01*
X013538Y028627D01*
X013302Y028627D01*
X013302Y028705D02*
X013538Y028705D01*
X013538Y028783D02*
X013302Y028783D01*
X013302Y028861D02*
X013538Y028861D01*
X013538Y028939D02*
X013302Y028939D01*
X015418Y044277D02*
X015674Y044277D01*
X015674Y044041D01*
X015418Y044041D01*
X015418Y044277D01*
X015418Y044119D02*
X015674Y044119D01*
X015674Y044197D02*
X015418Y044197D01*
X015418Y044275D02*
X015674Y044275D01*
X015674Y044671D02*
X015418Y044671D01*
X015674Y044671D02*
X015674Y044435D01*
X015418Y044435D01*
X015418Y044671D01*
X015418Y044513D02*
X015674Y044513D01*
X015674Y044591D02*
X015418Y044591D01*
X015418Y044669D02*
X015674Y044669D01*
X024080Y044395D02*
X024336Y044395D01*
X024080Y044395D02*
X024080Y044631D01*
X024336Y044631D01*
X024336Y044395D01*
X024336Y044473D02*
X024080Y044473D01*
X024080Y044551D02*
X024336Y044551D01*
X024336Y044629D02*
X024080Y044629D01*
X024080Y044789D02*
X024336Y044789D01*
X024080Y044789D02*
X024080Y045025D01*
X024336Y045025D01*
X024336Y044789D01*
X024336Y044867D02*
X024080Y044867D01*
X024080Y044945D02*
X024336Y044945D01*
X024336Y045023D02*
X024080Y045023D01*
X028932Y051275D02*
X028932Y051531D01*
X028932Y051275D02*
X028696Y051275D01*
X028696Y051531D01*
X028932Y051531D01*
X028932Y051353D02*
X028696Y051353D01*
X028696Y051431D02*
X028932Y051431D01*
X028932Y051509D02*
X028696Y051509D01*
X029326Y051531D02*
X029326Y051275D01*
X029090Y051275D01*
X029090Y051531D01*
X029326Y051531D01*
X029326Y051353D02*
X029090Y051353D01*
X029090Y051431D02*
X029326Y051431D01*
X029326Y051509D02*
X029090Y051509D01*
X028460Y052456D02*
X028460Y052712D01*
X028460Y052456D02*
X028224Y052456D01*
X028224Y052712D01*
X028460Y052712D01*
X028460Y052534D02*
X028224Y052534D01*
X028224Y052612D02*
X028460Y052612D01*
X028460Y052690D02*
X028224Y052690D01*
X028066Y052712D02*
X028066Y052456D01*
X027830Y052456D01*
X027830Y052712D01*
X028066Y052712D01*
X028066Y052534D02*
X027830Y052534D01*
X027830Y052612D02*
X028066Y052612D01*
X028066Y052690D02*
X027830Y052690D01*
X029956Y049464D02*
X029956Y049208D01*
X029720Y049208D01*
X029720Y049464D01*
X029956Y049464D01*
X029956Y049286D02*
X029720Y049286D01*
X029720Y049364D02*
X029956Y049364D01*
X029956Y049442D02*
X029720Y049442D01*
X030349Y049464D02*
X030349Y049208D01*
X030113Y049208D01*
X030113Y049464D01*
X030349Y049464D01*
X030349Y049286D02*
X030113Y049286D01*
X030113Y049364D02*
X030349Y049364D01*
X030349Y049442D02*
X030113Y049442D01*
X034277Y041088D02*
X034533Y041088D01*
X034533Y040852D01*
X034277Y040852D01*
X034277Y041088D01*
X034277Y040930D02*
X034533Y040930D01*
X034533Y041008D02*
X034277Y041008D01*
X034277Y041086D02*
X034533Y041086D01*
X034533Y040694D02*
X034277Y040694D01*
X034533Y040694D02*
X034533Y040458D01*
X034277Y040458D01*
X034277Y040694D01*
X034277Y040536D02*
X034533Y040536D01*
X034533Y040614D02*
X034277Y040614D01*
X034277Y040692D02*
X034533Y040692D01*
X036285Y038884D02*
X036541Y038884D01*
X036285Y038884D02*
X036285Y039120D01*
X036541Y039120D01*
X036541Y038884D01*
X036541Y038962D02*
X036285Y038962D01*
X036285Y039040D02*
X036541Y039040D01*
X036541Y039118D02*
X036285Y039118D01*
X036285Y038490D02*
X036541Y038490D01*
X036285Y038490D02*
X036285Y038726D01*
X036541Y038726D01*
X036541Y038490D01*
X036541Y038568D02*
X036285Y038568D01*
X036285Y038646D02*
X036541Y038646D01*
X036541Y038724D02*
X036285Y038724D01*
X036285Y037545D02*
X036541Y037545D01*
X036541Y037309D01*
X036285Y037309D01*
X036285Y037545D01*
X036285Y037387D02*
X036541Y037387D01*
X036541Y037465D02*
X036285Y037465D01*
X036285Y037543D02*
X036541Y037543D01*
X036541Y037151D02*
X036285Y037151D01*
X036541Y037151D02*
X036541Y036915D01*
X036285Y036915D01*
X036285Y037151D01*
X036285Y036993D02*
X036541Y036993D01*
X036541Y037071D02*
X036285Y037071D01*
X036285Y037149D02*
X036541Y037149D01*
X035517Y036915D02*
X035261Y036915D01*
X035261Y037151D01*
X035517Y037151D01*
X035517Y036915D01*
X035517Y036993D02*
X035261Y036993D01*
X035261Y037071D02*
X035517Y037071D01*
X035517Y037149D02*
X035261Y037149D01*
X035261Y037309D02*
X035517Y037309D01*
X035261Y037309D02*
X035261Y037545D01*
X035517Y037545D01*
X035517Y037309D01*
X035517Y037387D02*
X035261Y037387D01*
X035261Y037465D02*
X035517Y037465D01*
X035517Y037543D02*
X035261Y037543D01*
X034572Y037309D02*
X034316Y037309D01*
X034316Y037545D01*
X034572Y037545D01*
X034572Y037309D01*
X034572Y037387D02*
X034316Y037387D01*
X034316Y037465D02*
X034572Y037465D01*
X034572Y037543D02*
X034316Y037543D01*
X034316Y036915D02*
X034572Y036915D01*
X034316Y036915D02*
X034316Y037151D01*
X034572Y037151D01*
X034572Y036915D01*
X034572Y036993D02*
X034316Y036993D01*
X034316Y037071D02*
X034572Y037071D01*
X034572Y037149D02*
X034316Y037149D01*
X035103Y035773D02*
X035359Y035773D01*
X035359Y035537D01*
X035103Y035537D01*
X035103Y035773D01*
X035103Y035615D02*
X035359Y035615D01*
X035359Y035693D02*
X035103Y035693D01*
X035103Y035771D02*
X035359Y035771D01*
X035359Y035380D02*
X035103Y035380D01*
X035359Y035380D02*
X035359Y035144D01*
X035103Y035144D01*
X035103Y035380D01*
X035103Y035222D02*
X035359Y035222D01*
X035359Y035300D02*
X035103Y035300D01*
X035103Y035378D02*
X035359Y035378D01*
X036285Y035380D02*
X036541Y035380D01*
X036541Y035144D01*
X036285Y035144D01*
X036285Y035380D01*
X036285Y035222D02*
X036541Y035222D01*
X036541Y035300D02*
X036285Y035300D01*
X036285Y035378D02*
X036541Y035378D01*
X036541Y035773D02*
X036285Y035773D01*
X036541Y035773D02*
X036541Y035537D01*
X036285Y035537D01*
X036285Y035773D01*
X036285Y035615D02*
X036541Y035615D01*
X036541Y035693D02*
X036285Y035693D01*
X036285Y035771D02*
X036541Y035771D01*
X032604Y035773D02*
X032348Y035773D01*
X032604Y035773D02*
X032604Y035537D01*
X032348Y035537D01*
X032348Y035773D01*
X032348Y035615D02*
X032604Y035615D01*
X032604Y035693D02*
X032348Y035693D01*
X032348Y035771D02*
X032604Y035771D01*
X032604Y035380D02*
X032348Y035380D01*
X032604Y035380D02*
X032604Y035144D01*
X032348Y035144D01*
X032348Y035380D01*
X032348Y035222D02*
X032604Y035222D01*
X032604Y035300D02*
X032348Y035300D01*
X032348Y035378D02*
X032604Y035378D01*
X032604Y033608D02*
X032348Y033608D01*
X032604Y033608D02*
X032604Y033372D01*
X032348Y033372D01*
X032348Y033608D01*
X032348Y033450D02*
X032604Y033450D01*
X032604Y033528D02*
X032348Y033528D01*
X032348Y033606D02*
X032604Y033606D01*
X032604Y033214D02*
X032348Y033214D01*
X032604Y033214D02*
X032604Y032978D01*
X032348Y032978D01*
X032348Y033214D01*
X032348Y033056D02*
X032604Y033056D01*
X032604Y033134D02*
X032348Y033134D01*
X032348Y033212D02*
X032604Y033212D01*
X031422Y032978D02*
X031166Y032978D01*
X031166Y033214D01*
X031422Y033214D01*
X031422Y032978D01*
X031422Y033056D02*
X031166Y033056D01*
X031166Y033134D02*
X031422Y033134D01*
X031422Y033212D02*
X031166Y033212D01*
X031166Y033372D02*
X031422Y033372D01*
X031166Y033372D02*
X031166Y033608D01*
X031422Y033608D01*
X031422Y033372D01*
X031422Y033450D02*
X031166Y033450D01*
X031166Y033528D02*
X031422Y033528D01*
X031422Y033606D02*
X031166Y033606D01*
X029493Y036364D02*
X029237Y036364D01*
X029493Y036364D02*
X029493Y036128D01*
X029237Y036128D01*
X029237Y036364D01*
X029237Y036206D02*
X029493Y036206D01*
X029493Y036284D02*
X029237Y036284D01*
X029237Y036362D02*
X029493Y036362D01*
X029493Y036757D02*
X029237Y036757D01*
X029493Y036757D02*
X029493Y036521D01*
X029237Y036521D01*
X029237Y036757D01*
X029237Y036599D02*
X029493Y036599D01*
X029493Y036677D02*
X029237Y036677D01*
X029237Y036755D02*
X029493Y036755D01*
X029985Y029829D02*
X030241Y029829D01*
X029985Y029829D02*
X029985Y030065D01*
X030241Y030065D01*
X030241Y029829D01*
X030241Y029907D02*
X029985Y029907D01*
X029985Y029985D02*
X030241Y029985D01*
X030241Y030063D02*
X029985Y030063D01*
X029985Y029435D02*
X030241Y029435D01*
X029985Y029435D02*
X029985Y029671D01*
X030241Y029671D01*
X030241Y029435D01*
X030241Y029513D02*
X029985Y029513D01*
X029985Y029591D02*
X030241Y029591D01*
X030241Y029669D02*
X029985Y029669D01*
X029985Y028647D02*
X030241Y028647D01*
X029985Y028647D02*
X029985Y028883D01*
X030241Y028883D01*
X030241Y028647D01*
X030241Y028725D02*
X029985Y028725D01*
X029985Y028803D02*
X030241Y028803D01*
X030241Y028881D02*
X029985Y028881D01*
X029985Y028254D02*
X030241Y028254D01*
X029985Y028254D02*
X029985Y028490D01*
X030241Y028490D01*
X030241Y028254D01*
X030241Y028332D02*
X029985Y028332D01*
X029985Y028410D02*
X030241Y028410D01*
X030241Y028488D02*
X029985Y028488D01*
D17*
X020069Y036967D02*
X019193Y036967D01*
X019193Y037175D01*
X020069Y037175D01*
X020069Y036967D01*
X020069Y037035D02*
X019193Y037035D01*
X019193Y037103D02*
X020069Y037103D01*
X020069Y037171D02*
X019193Y037171D01*
X019193Y037467D02*
X020069Y037467D01*
X019193Y037467D02*
X019193Y037675D01*
X020069Y037675D01*
X020069Y037467D01*
X020069Y037535D02*
X019193Y037535D01*
X019193Y037603D02*
X020069Y037603D01*
X020069Y037671D02*
X019193Y037671D01*
X019193Y037967D02*
X020069Y037967D01*
X019193Y037967D02*
X019193Y038175D01*
X020069Y038175D01*
X020069Y037967D01*
X020069Y038035D02*
X019193Y038035D01*
X019193Y038103D02*
X020069Y038103D01*
X020069Y038171D02*
X019193Y038171D01*
X019193Y038467D02*
X020069Y038467D01*
X019193Y038467D02*
X019193Y038675D01*
X020069Y038675D01*
X020069Y038467D01*
X020069Y038535D02*
X019193Y038535D01*
X019193Y038603D02*
X020069Y038603D01*
X020069Y038671D02*
X019193Y038671D01*
X017805Y038467D02*
X016929Y038467D01*
X016929Y038675D01*
X017805Y038675D01*
X017805Y038467D01*
X017805Y038535D02*
X016929Y038535D01*
X016929Y038603D02*
X017805Y038603D01*
X017805Y038671D02*
X016929Y038671D01*
X016929Y037967D02*
X017805Y037967D01*
X016929Y037967D02*
X016929Y038175D01*
X017805Y038175D01*
X017805Y037967D01*
X017805Y038035D02*
X016929Y038035D01*
X016929Y038103D02*
X017805Y038103D01*
X017805Y038171D02*
X016929Y038171D01*
X016929Y037467D02*
X017805Y037467D01*
X016929Y037467D02*
X016929Y037675D01*
X017805Y037675D01*
X017805Y037467D01*
X017805Y037535D02*
X016929Y037535D01*
X016929Y037603D02*
X017805Y037603D01*
X017805Y037671D02*
X016929Y037671D01*
X016929Y036967D02*
X017805Y036967D01*
X016929Y036967D02*
X016929Y037175D01*
X017805Y037175D01*
X017805Y036967D01*
X017805Y037035D02*
X016929Y037035D01*
X016929Y037103D02*
X017805Y037103D01*
X017805Y037171D02*
X016929Y037171D01*
D18*
X018499Y037821D03*
D19*
X017528Y033590D02*
X016518Y033590D01*
X017528Y033590D02*
X017528Y033192D01*
X016518Y033192D01*
X016518Y033590D01*
X016518Y033324D02*
X017528Y033324D01*
X017528Y033456D02*
X016518Y033456D01*
X016518Y033588D02*
X017528Y033588D01*
X017528Y032409D02*
X016518Y032409D01*
X017528Y032409D02*
X017528Y032011D01*
X016518Y032011D01*
X016518Y032409D01*
X016518Y032143D02*
X017528Y032143D01*
X017528Y032275D02*
X016518Y032275D01*
X016518Y032407D02*
X017528Y032407D01*
X014363Y036568D02*
X014363Y037578D01*
X014761Y037578D01*
X014761Y036568D01*
X014363Y036568D01*
X014363Y036700D02*
X014761Y036700D01*
X014761Y036832D02*
X014363Y036832D01*
X014363Y036964D02*
X014761Y036964D01*
X014761Y037096D02*
X014363Y037096D01*
X014363Y037228D02*
X014761Y037228D01*
X014761Y037360D02*
X014363Y037360D01*
X014363Y037492D02*
X014761Y037492D01*
X014363Y038103D02*
X014363Y039113D01*
X014761Y039113D01*
X014761Y038103D01*
X014363Y038103D01*
X014363Y038235D02*
X014761Y038235D01*
X014761Y038367D02*
X014363Y038367D01*
X014363Y038499D02*
X014761Y038499D01*
X014761Y038631D02*
X014363Y038631D01*
X014363Y038763D02*
X014761Y038763D01*
X014761Y038895D02*
X014363Y038895D01*
X014363Y039027D02*
X014761Y039027D01*
X013182Y039113D02*
X013182Y038103D01*
X013182Y039113D02*
X013580Y039113D01*
X013580Y038103D01*
X013182Y038103D01*
X013182Y038235D02*
X013580Y038235D01*
X013580Y038367D02*
X013182Y038367D01*
X013182Y038499D02*
X013580Y038499D01*
X013580Y038631D02*
X013182Y038631D01*
X013182Y038763D02*
X013580Y038763D01*
X013580Y038895D02*
X013182Y038895D01*
X013182Y039027D02*
X013580Y039027D01*
X013182Y037578D02*
X013182Y036568D01*
X013182Y037578D02*
X013580Y037578D01*
X013580Y036568D01*
X013182Y036568D01*
X013182Y036700D02*
X013580Y036700D01*
X013580Y036832D02*
X013182Y036832D01*
X013182Y036964D02*
X013580Y036964D01*
X013580Y037096D02*
X013182Y037096D01*
X013182Y037228D02*
X013580Y037228D01*
X013580Y037360D02*
X013182Y037360D01*
X013182Y037492D02*
X013580Y037492D01*
X027025Y053369D02*
X027025Y053965D01*
X027025Y053369D02*
X026627Y053369D01*
X026627Y053965D01*
X027025Y053965D01*
X027025Y053501D02*
X026627Y053501D01*
X026627Y053633D02*
X027025Y053633D01*
X027025Y053765D02*
X026627Y053765D01*
X026627Y053897D02*
X027025Y053897D01*
X028206Y053965D02*
X028206Y053369D01*
X027808Y053369D01*
X027808Y053965D01*
X028206Y053965D01*
X028206Y053501D02*
X027808Y053501D01*
X027808Y053633D02*
X028206Y053633D01*
X028206Y053765D02*
X027808Y053765D01*
X027808Y053897D02*
X028206Y053897D01*
X031183Y044909D02*
X032193Y044909D01*
X032193Y044511D01*
X031183Y044511D01*
X031183Y044909D01*
X031183Y044643D02*
X032193Y044643D01*
X032193Y044775D02*
X031183Y044775D01*
X031183Y044907D02*
X032193Y044907D01*
X032193Y043728D02*
X031183Y043728D01*
X032193Y043728D02*
X032193Y043330D01*
X031183Y043330D01*
X031183Y043728D01*
X031183Y043462D02*
X032193Y043462D01*
X032193Y043594D02*
X031183Y043594D01*
X031183Y043726D02*
X032193Y043726D01*
X031248Y035259D02*
X030238Y035259D01*
X030238Y035657D01*
X031248Y035657D01*
X031248Y035259D01*
X031248Y035391D02*
X030238Y035391D01*
X030238Y035523D02*
X031248Y035523D01*
X031248Y035655D02*
X030238Y035655D01*
X030238Y034078D02*
X031248Y034078D01*
X030238Y034078D02*
X030238Y034476D01*
X031248Y034476D01*
X031248Y034078D01*
X031248Y034210D02*
X030238Y034210D01*
X030238Y034342D02*
X031248Y034342D01*
X031248Y034474D02*
X030238Y034474D01*
X030343Y031519D02*
X029333Y031519D01*
X029333Y031917D01*
X030343Y031917D01*
X030343Y031519D01*
X030343Y031651D02*
X029333Y031651D01*
X029333Y031783D02*
X030343Y031783D01*
X030343Y031915D02*
X029333Y031915D01*
X029333Y030338D02*
X030343Y030338D01*
X029333Y030338D02*
X029333Y030736D01*
X030343Y030736D01*
X030343Y030338D01*
X030343Y030470D02*
X029333Y030470D01*
X029333Y030602D02*
X030343Y030602D01*
X030343Y030734D02*
X029333Y030734D01*
X036301Y030929D02*
X037311Y030929D01*
X036301Y030929D02*
X036301Y031327D01*
X037311Y031327D01*
X037311Y030929D01*
X037311Y031061D02*
X036301Y031061D01*
X036301Y031193D02*
X037311Y031193D01*
X037311Y031325D02*
X036301Y031325D01*
X036301Y029748D02*
X037311Y029748D01*
X036301Y029748D02*
X036301Y030146D01*
X037311Y030146D01*
X037311Y029748D01*
X037311Y029880D02*
X036301Y029880D01*
X036301Y030012D02*
X037311Y030012D01*
X037311Y030144D02*
X036301Y030144D01*
D20*
X025086Y037033D03*
X033417Y056159D03*
X034417Y056159D03*
X035417Y056159D03*
D21*
X030192Y052297D03*
X028617Y049632D03*
X031661Y041954D03*
X020468Y032399D03*
X017318Y048844D03*
D22*
X017318Y049844D03*
X017318Y050844D03*
X028617Y048632D03*
X028617Y047632D03*
X030192Y051297D03*
X032661Y041954D03*
X020468Y033399D03*
D23*
X020635Y030606D02*
X021481Y030606D01*
X020635Y030606D02*
X020635Y031256D01*
X021481Y031256D01*
X021481Y030606D01*
X021481Y030822D02*
X020635Y030822D01*
X020635Y031038D02*
X021481Y031038D01*
X021481Y031254D02*
X020635Y031254D01*
X020635Y029425D02*
X021481Y029425D01*
X020635Y029425D02*
X020635Y030075D01*
X021481Y030075D01*
X021481Y029425D01*
X021481Y029641D02*
X020635Y029641D01*
X020635Y029857D02*
X021481Y029857D01*
X021481Y030073D02*
X020635Y030073D01*
X024572Y029425D02*
X025418Y029425D01*
X024572Y029425D02*
X024572Y030075D01*
X025418Y030075D01*
X025418Y029425D01*
X025418Y029641D02*
X024572Y029641D01*
X024572Y029857D02*
X025418Y029857D01*
X025418Y030073D02*
X024572Y030073D01*
X024572Y030606D02*
X025418Y030606D01*
X024572Y030606D02*
X024572Y031256D01*
X025418Y031256D01*
X025418Y030606D01*
X025418Y030822D02*
X024572Y030822D01*
X024572Y031038D02*
X025418Y031038D01*
X025418Y031254D02*
X024572Y031254D01*
X018431Y023775D02*
X017387Y023775D01*
X018431Y023775D02*
X018431Y023125D01*
X017387Y023125D01*
X017387Y023775D01*
X017387Y023341D02*
X018431Y023341D01*
X018431Y023557D02*
X017387Y023557D01*
X017387Y023773D02*
X018431Y023773D01*
X018431Y021413D02*
X017387Y021413D01*
X018431Y021413D02*
X018431Y020763D01*
X017387Y020763D01*
X017387Y021413D01*
X017387Y020979D02*
X018431Y020979D01*
X018431Y021195D02*
X017387Y021195D01*
X017387Y021411D02*
X018431Y021411D01*
X014100Y021413D02*
X013056Y021413D01*
X014100Y021413D02*
X014100Y020763D01*
X013056Y020763D01*
X013056Y021413D01*
X013056Y020979D02*
X014100Y020979D01*
X014100Y021195D02*
X013056Y021195D01*
X013056Y021411D02*
X014100Y021411D01*
X014100Y023775D02*
X013056Y023775D01*
X014100Y023775D02*
X014100Y023125D01*
X013056Y023125D01*
X013056Y023775D01*
X013056Y023341D02*
X014100Y023341D01*
X014100Y023557D02*
X013056Y023557D01*
X013056Y023773D02*
X014100Y023773D01*
D24*
X021920Y045247D02*
X021920Y045749D01*
X021920Y045247D02*
X021772Y045247D01*
X021772Y045749D01*
X021920Y045749D01*
X021920Y045295D02*
X021772Y045295D01*
X021772Y045343D02*
X021920Y045343D01*
X021920Y045391D02*
X021772Y045391D01*
X021772Y045439D02*
X021920Y045439D01*
X021920Y045487D02*
X021772Y045487D01*
X021772Y045535D02*
X021920Y045535D01*
X021920Y045583D02*
X021772Y045583D01*
X021772Y045631D02*
X021920Y045631D01*
X021920Y045679D02*
X021772Y045679D01*
X021772Y045727D02*
X021920Y045727D01*
X022116Y045749D02*
X022116Y045247D01*
X021968Y045247D01*
X021968Y045749D01*
X022116Y045749D01*
X022116Y045295D02*
X021968Y045295D01*
X021968Y045343D02*
X022116Y045343D01*
X022116Y045391D02*
X021968Y045391D01*
X021968Y045439D02*
X022116Y045439D01*
X022116Y045487D02*
X021968Y045487D01*
X021968Y045535D02*
X022116Y045535D01*
X022116Y045583D02*
X021968Y045583D01*
X021968Y045631D02*
X022116Y045631D01*
X022116Y045679D02*
X021968Y045679D01*
X021968Y045727D02*
X022116Y045727D01*
X022313Y045749D02*
X022313Y045247D01*
X022165Y045247D01*
X022165Y045749D01*
X022313Y045749D01*
X022313Y045295D02*
X022165Y045295D01*
X022165Y045343D02*
X022313Y045343D01*
X022313Y045391D02*
X022165Y045391D01*
X022165Y045439D02*
X022313Y045439D01*
X022313Y045487D02*
X022165Y045487D01*
X022165Y045535D02*
X022313Y045535D01*
X022313Y045583D02*
X022165Y045583D01*
X022165Y045631D02*
X022313Y045631D01*
X022313Y045679D02*
X022165Y045679D01*
X022165Y045727D02*
X022313Y045727D01*
X022510Y045749D02*
X022510Y045247D01*
X022362Y045247D01*
X022362Y045749D01*
X022510Y045749D01*
X022510Y045295D02*
X022362Y045295D01*
X022362Y045343D02*
X022510Y045343D01*
X022510Y045391D02*
X022362Y045391D01*
X022362Y045439D02*
X022510Y045439D01*
X022510Y045487D02*
X022362Y045487D01*
X022362Y045535D02*
X022510Y045535D01*
X022510Y045583D02*
X022362Y045583D01*
X022362Y045631D02*
X022510Y045631D01*
X022510Y045679D02*
X022362Y045679D01*
X022362Y045727D02*
X022510Y045727D01*
X022707Y045749D02*
X022707Y045247D01*
X022559Y045247D01*
X022559Y045749D01*
X022707Y045749D01*
X022707Y045295D02*
X022559Y045295D01*
X022559Y045343D02*
X022707Y045343D01*
X022707Y045391D02*
X022559Y045391D01*
X022559Y045439D02*
X022707Y045439D01*
X022707Y045487D02*
X022559Y045487D01*
X022559Y045535D02*
X022707Y045535D01*
X022707Y045583D02*
X022559Y045583D01*
X022559Y045631D02*
X022707Y045631D01*
X022707Y045679D02*
X022559Y045679D01*
X022559Y045727D02*
X022707Y045727D01*
X022904Y045749D02*
X022904Y045247D01*
X022756Y045247D01*
X022756Y045749D01*
X022904Y045749D01*
X022904Y045295D02*
X022756Y045295D01*
X022756Y045343D02*
X022904Y045343D01*
X022904Y045391D02*
X022756Y045391D01*
X022756Y045439D02*
X022904Y045439D01*
X022904Y045487D02*
X022756Y045487D01*
X022756Y045535D02*
X022904Y045535D01*
X022904Y045583D02*
X022756Y045583D01*
X022756Y045631D02*
X022904Y045631D01*
X022904Y045679D02*
X022756Y045679D01*
X022756Y045727D02*
X022904Y045727D01*
X023101Y045749D02*
X023101Y045247D01*
X022953Y045247D01*
X022953Y045749D01*
X023101Y045749D01*
X023101Y045295D02*
X022953Y045295D01*
X022953Y045343D02*
X023101Y045343D01*
X023101Y045391D02*
X022953Y045391D01*
X022953Y045439D02*
X023101Y045439D01*
X023101Y045487D02*
X022953Y045487D01*
X022953Y045535D02*
X023101Y045535D01*
X023101Y045583D02*
X022953Y045583D01*
X022953Y045631D02*
X023101Y045631D01*
X023101Y045679D02*
X022953Y045679D01*
X022953Y045727D02*
X023101Y045727D01*
X023298Y045749D02*
X023298Y045247D01*
X023150Y045247D01*
X023150Y045749D01*
X023298Y045749D01*
X023298Y045295D02*
X023150Y045295D01*
X023150Y045343D02*
X023298Y045343D01*
X023298Y045391D02*
X023150Y045391D01*
X023150Y045439D02*
X023298Y045439D01*
X023298Y045487D02*
X023150Y045487D01*
X023150Y045535D02*
X023298Y045535D01*
X023298Y045583D02*
X023150Y045583D01*
X023150Y045631D02*
X023298Y045631D01*
X023298Y045679D02*
X023150Y045679D01*
X023150Y045727D02*
X023298Y045727D01*
X023494Y045749D02*
X023494Y045247D01*
X023346Y045247D01*
X023346Y045749D01*
X023494Y045749D01*
X023494Y045295D02*
X023346Y045295D01*
X023346Y045343D02*
X023494Y045343D01*
X023494Y045391D02*
X023346Y045391D01*
X023346Y045439D02*
X023494Y045439D01*
X023494Y045487D02*
X023346Y045487D01*
X023346Y045535D02*
X023494Y045535D01*
X023494Y045583D02*
X023346Y045583D01*
X023346Y045631D02*
X023494Y045631D01*
X023494Y045679D02*
X023346Y045679D01*
X023346Y045727D02*
X023494Y045727D01*
X023691Y045749D02*
X023691Y045247D01*
X023543Y045247D01*
X023543Y045749D01*
X023691Y045749D01*
X023691Y045295D02*
X023543Y045295D01*
X023543Y045343D02*
X023691Y045343D01*
X023691Y045391D02*
X023543Y045391D01*
X023543Y045439D02*
X023691Y045439D01*
X023691Y045487D02*
X023543Y045487D01*
X023543Y045535D02*
X023691Y045535D01*
X023691Y045583D02*
X023543Y045583D01*
X023543Y045631D02*
X023691Y045631D01*
X023691Y045679D02*
X023543Y045679D01*
X023543Y045727D02*
X023691Y045727D01*
X023888Y045749D02*
X023888Y045247D01*
X023740Y045247D01*
X023740Y045749D01*
X023888Y045749D01*
X023888Y045295D02*
X023740Y045295D01*
X023740Y045343D02*
X023888Y045343D01*
X023888Y045391D02*
X023740Y045391D01*
X023740Y045439D02*
X023888Y045439D01*
X023888Y045487D02*
X023740Y045487D01*
X023740Y045535D02*
X023888Y045535D01*
X023888Y045583D02*
X023740Y045583D01*
X023740Y045631D02*
X023888Y045631D01*
X023888Y045679D02*
X023740Y045679D01*
X023740Y045727D02*
X023888Y045727D01*
X024085Y045749D02*
X024085Y045247D01*
X023937Y045247D01*
X023937Y045749D01*
X024085Y045749D01*
X024085Y045295D02*
X023937Y045295D01*
X023937Y045343D02*
X024085Y045343D01*
X024085Y045391D02*
X023937Y045391D01*
X023937Y045439D02*
X024085Y045439D01*
X024085Y045487D02*
X023937Y045487D01*
X023937Y045535D02*
X024085Y045535D01*
X024085Y045583D02*
X023937Y045583D01*
X023937Y045631D02*
X024085Y045631D01*
X024085Y045679D02*
X023937Y045679D01*
X023937Y045727D02*
X024085Y045727D01*
X024282Y045749D02*
X024282Y045247D01*
X024134Y045247D01*
X024134Y045749D01*
X024282Y045749D01*
X024282Y045295D02*
X024134Y045295D01*
X024134Y045343D02*
X024282Y045343D01*
X024282Y045391D02*
X024134Y045391D01*
X024134Y045439D02*
X024282Y045439D01*
X024282Y045487D02*
X024134Y045487D01*
X024134Y045535D02*
X024282Y045535D01*
X024282Y045583D02*
X024134Y045583D01*
X024134Y045631D02*
X024282Y045631D01*
X024282Y045679D02*
X024134Y045679D01*
X024134Y045727D02*
X024282Y045727D01*
X024479Y045749D02*
X024479Y045247D01*
X024331Y045247D01*
X024331Y045749D01*
X024479Y045749D01*
X024479Y045295D02*
X024331Y045295D01*
X024331Y045343D02*
X024479Y045343D01*
X024479Y045391D02*
X024331Y045391D01*
X024331Y045439D02*
X024479Y045439D01*
X024479Y045487D02*
X024331Y045487D01*
X024331Y045535D02*
X024479Y045535D01*
X024479Y045583D02*
X024331Y045583D01*
X024331Y045631D02*
X024479Y045631D01*
X024479Y045679D02*
X024331Y045679D01*
X024331Y045727D02*
X024479Y045727D01*
X024676Y045749D02*
X024676Y045247D01*
X024528Y045247D01*
X024528Y045749D01*
X024676Y045749D01*
X024676Y045295D02*
X024528Y045295D01*
X024528Y045343D02*
X024676Y045343D01*
X024676Y045391D02*
X024528Y045391D01*
X024528Y045439D02*
X024676Y045439D01*
X024676Y045487D02*
X024528Y045487D01*
X024528Y045535D02*
X024676Y045535D01*
X024676Y045583D02*
X024528Y045583D01*
X024528Y045631D02*
X024676Y045631D01*
X024676Y045679D02*
X024528Y045679D01*
X024528Y045727D02*
X024676Y045727D01*
X024872Y045749D02*
X024872Y045247D01*
X024724Y045247D01*
X024724Y045749D01*
X024872Y045749D01*
X024872Y045295D02*
X024724Y045295D01*
X024724Y045343D02*
X024872Y045343D01*
X024872Y045391D02*
X024724Y045391D01*
X024724Y045439D02*
X024872Y045439D01*
X024872Y045487D02*
X024724Y045487D01*
X024724Y045535D02*
X024872Y045535D01*
X024872Y045583D02*
X024724Y045583D01*
X024724Y045631D02*
X024872Y045631D01*
X024872Y045679D02*
X024724Y045679D01*
X024724Y045727D02*
X024872Y045727D01*
X025069Y045749D02*
X025069Y045247D01*
X024921Y045247D01*
X024921Y045749D01*
X025069Y045749D01*
X025069Y045295D02*
X024921Y045295D01*
X024921Y045343D02*
X025069Y045343D01*
X025069Y045391D02*
X024921Y045391D01*
X024921Y045439D02*
X025069Y045439D01*
X025069Y045487D02*
X024921Y045487D01*
X024921Y045535D02*
X025069Y045535D01*
X025069Y045583D02*
X024921Y045583D01*
X024921Y045631D02*
X025069Y045631D01*
X025069Y045679D02*
X024921Y045679D01*
X024921Y045727D02*
X025069Y045727D01*
X025266Y045749D02*
X025266Y045247D01*
X025118Y045247D01*
X025118Y045749D01*
X025266Y045749D01*
X025266Y045295D02*
X025118Y045295D01*
X025118Y045343D02*
X025266Y045343D01*
X025266Y045391D02*
X025118Y045391D01*
X025118Y045439D02*
X025266Y045439D01*
X025266Y045487D02*
X025118Y045487D01*
X025118Y045535D02*
X025266Y045535D01*
X025266Y045583D02*
X025118Y045583D01*
X025118Y045631D02*
X025266Y045631D01*
X025266Y045679D02*
X025118Y045679D01*
X025118Y045727D02*
X025266Y045727D01*
X025463Y045749D02*
X025463Y045247D01*
X025315Y045247D01*
X025315Y045749D01*
X025463Y045749D01*
X025463Y045295D02*
X025315Y045295D01*
X025315Y045343D02*
X025463Y045343D01*
X025463Y045391D02*
X025315Y045391D01*
X025315Y045439D02*
X025463Y045439D01*
X025463Y045487D02*
X025315Y045487D01*
X025315Y045535D02*
X025463Y045535D01*
X025463Y045583D02*
X025315Y045583D01*
X025315Y045631D02*
X025463Y045631D01*
X025463Y045679D02*
X025315Y045679D01*
X025315Y045727D02*
X025463Y045727D01*
X025660Y045749D02*
X025660Y045247D01*
X025512Y045247D01*
X025512Y045749D01*
X025660Y045749D01*
X025660Y045295D02*
X025512Y045295D01*
X025512Y045343D02*
X025660Y045343D01*
X025660Y045391D02*
X025512Y045391D01*
X025512Y045439D02*
X025660Y045439D01*
X025660Y045487D02*
X025512Y045487D01*
X025512Y045535D02*
X025660Y045535D01*
X025660Y045583D02*
X025512Y045583D01*
X025512Y045631D02*
X025660Y045631D01*
X025660Y045679D02*
X025512Y045679D01*
X025512Y045727D02*
X025660Y045727D01*
X025857Y045749D02*
X025857Y045247D01*
X025709Y045247D01*
X025709Y045749D01*
X025857Y045749D01*
X025857Y045295D02*
X025709Y045295D01*
X025709Y045343D02*
X025857Y045343D01*
X025857Y045391D02*
X025709Y045391D01*
X025709Y045439D02*
X025857Y045439D01*
X025857Y045487D02*
X025709Y045487D01*
X025709Y045535D02*
X025857Y045535D01*
X025857Y045583D02*
X025709Y045583D01*
X025709Y045631D02*
X025857Y045631D01*
X025857Y045679D02*
X025709Y045679D01*
X025709Y045727D02*
X025857Y045727D01*
X026054Y045749D02*
X026054Y045247D01*
X025906Y045247D01*
X025906Y045749D01*
X026054Y045749D01*
X026054Y045295D02*
X025906Y045295D01*
X025906Y045343D02*
X026054Y045343D01*
X026054Y045391D02*
X025906Y045391D01*
X025906Y045439D02*
X026054Y045439D01*
X026054Y045487D02*
X025906Y045487D01*
X025906Y045535D02*
X026054Y045535D01*
X026054Y045583D02*
X025906Y045583D01*
X025906Y045631D02*
X026054Y045631D01*
X026054Y045679D02*
X025906Y045679D01*
X025906Y045727D02*
X026054Y045727D01*
X026250Y045749D02*
X026250Y045247D01*
X026102Y045247D01*
X026102Y045749D01*
X026250Y045749D01*
X026250Y045295D02*
X026102Y045295D01*
X026102Y045343D02*
X026250Y045343D01*
X026250Y045391D02*
X026102Y045391D01*
X026102Y045439D02*
X026250Y045439D01*
X026250Y045487D02*
X026102Y045487D01*
X026102Y045535D02*
X026250Y045535D01*
X026250Y045583D02*
X026102Y045583D01*
X026102Y045631D02*
X026250Y045631D01*
X026250Y045679D02*
X026102Y045679D01*
X026102Y045727D02*
X026250Y045727D01*
X026447Y045749D02*
X026447Y045247D01*
X026299Y045247D01*
X026299Y045749D01*
X026447Y045749D01*
X026447Y045295D02*
X026299Y045295D01*
X026299Y045343D02*
X026447Y045343D01*
X026447Y045391D02*
X026299Y045391D01*
X026299Y045439D02*
X026447Y045439D01*
X026447Y045487D02*
X026299Y045487D01*
X026299Y045535D02*
X026447Y045535D01*
X026447Y045583D02*
X026299Y045583D01*
X026299Y045631D02*
X026447Y045631D01*
X026447Y045679D02*
X026299Y045679D01*
X026299Y045727D02*
X026447Y045727D01*
X026644Y045749D02*
X026644Y045247D01*
X026496Y045247D01*
X026496Y045749D01*
X026644Y045749D01*
X026644Y045295D02*
X026496Y045295D01*
X026496Y045343D02*
X026644Y045343D01*
X026644Y045391D02*
X026496Y045391D01*
X026496Y045439D02*
X026644Y045439D01*
X026644Y045487D02*
X026496Y045487D01*
X026496Y045535D02*
X026644Y045535D01*
X026644Y045583D02*
X026496Y045583D01*
X026496Y045631D02*
X026644Y045631D01*
X026644Y045679D02*
X026496Y045679D01*
X026496Y045727D02*
X026644Y045727D01*
X027008Y046261D02*
X027510Y046261D01*
X027510Y046113D01*
X027008Y046113D01*
X027008Y046261D01*
X027008Y046161D02*
X027510Y046161D01*
X027510Y046209D02*
X027008Y046209D01*
X027008Y046257D02*
X027510Y046257D01*
X027510Y046458D02*
X027008Y046458D01*
X027510Y046458D02*
X027510Y046310D01*
X027008Y046310D01*
X027008Y046458D01*
X027008Y046358D02*
X027510Y046358D01*
X027510Y046406D02*
X027008Y046406D01*
X027008Y046454D02*
X027510Y046454D01*
X027510Y046654D02*
X027008Y046654D01*
X027510Y046654D02*
X027510Y046506D01*
X027008Y046506D01*
X027008Y046654D01*
X027008Y046554D02*
X027510Y046554D01*
X027510Y046602D02*
X027008Y046602D01*
X027008Y046650D02*
X027510Y046650D01*
X027510Y046851D02*
X027008Y046851D01*
X027510Y046851D02*
X027510Y046703D01*
X027008Y046703D01*
X027008Y046851D01*
X027008Y046751D02*
X027510Y046751D01*
X027510Y046799D02*
X027008Y046799D01*
X027008Y046847D02*
X027510Y046847D01*
X027510Y047048D02*
X027008Y047048D01*
X027510Y047048D02*
X027510Y046900D01*
X027008Y046900D01*
X027008Y047048D01*
X027008Y046948D02*
X027510Y046948D01*
X027510Y046996D02*
X027008Y046996D01*
X027008Y047044D02*
X027510Y047044D01*
X027510Y047245D02*
X027008Y047245D01*
X027510Y047245D02*
X027510Y047097D01*
X027008Y047097D01*
X027008Y047245D01*
X027008Y047145D02*
X027510Y047145D01*
X027510Y047193D02*
X027008Y047193D01*
X027008Y047241D02*
X027510Y047241D01*
X027510Y047442D02*
X027008Y047442D01*
X027510Y047442D02*
X027510Y047294D01*
X027008Y047294D01*
X027008Y047442D01*
X027008Y047342D02*
X027510Y047342D01*
X027510Y047390D02*
X027008Y047390D01*
X027008Y047438D02*
X027510Y047438D01*
X027510Y047639D02*
X027008Y047639D01*
X027510Y047639D02*
X027510Y047491D01*
X027008Y047491D01*
X027008Y047639D01*
X027008Y047539D02*
X027510Y047539D01*
X027510Y047587D02*
X027008Y047587D01*
X027008Y047635D02*
X027510Y047635D01*
X027510Y047836D02*
X027008Y047836D01*
X027510Y047836D02*
X027510Y047688D01*
X027008Y047688D01*
X027008Y047836D01*
X027008Y047736D02*
X027510Y047736D01*
X027510Y047784D02*
X027008Y047784D01*
X027008Y047832D02*
X027510Y047832D01*
X027510Y048032D02*
X027008Y048032D01*
X027510Y048032D02*
X027510Y047884D01*
X027008Y047884D01*
X027008Y048032D01*
X027008Y047932D02*
X027510Y047932D01*
X027510Y047980D02*
X027008Y047980D01*
X027008Y048028D02*
X027510Y048028D01*
X027510Y048229D02*
X027008Y048229D01*
X027510Y048229D02*
X027510Y048081D01*
X027008Y048081D01*
X027008Y048229D01*
X027008Y048129D02*
X027510Y048129D01*
X027510Y048177D02*
X027008Y048177D01*
X027008Y048225D02*
X027510Y048225D01*
X027510Y048426D02*
X027008Y048426D01*
X027510Y048426D02*
X027510Y048278D01*
X027008Y048278D01*
X027008Y048426D01*
X027008Y048326D02*
X027510Y048326D01*
X027510Y048374D02*
X027008Y048374D01*
X027008Y048422D02*
X027510Y048422D01*
X027510Y048623D02*
X027008Y048623D01*
X027510Y048623D02*
X027510Y048475D01*
X027008Y048475D01*
X027008Y048623D01*
X027008Y048523D02*
X027510Y048523D01*
X027510Y048571D02*
X027008Y048571D01*
X027008Y048619D02*
X027510Y048619D01*
X027510Y048820D02*
X027008Y048820D01*
X027510Y048820D02*
X027510Y048672D01*
X027008Y048672D01*
X027008Y048820D01*
X027008Y048720D02*
X027510Y048720D01*
X027510Y048768D02*
X027008Y048768D01*
X027008Y048816D02*
X027510Y048816D01*
X027510Y049017D02*
X027008Y049017D01*
X027510Y049017D02*
X027510Y048869D01*
X027008Y048869D01*
X027008Y049017D01*
X027008Y048917D02*
X027510Y048917D01*
X027510Y048965D02*
X027008Y048965D01*
X027008Y049013D02*
X027510Y049013D01*
X027510Y049213D02*
X027008Y049213D01*
X027510Y049213D02*
X027510Y049065D01*
X027008Y049065D01*
X027008Y049213D01*
X027008Y049113D02*
X027510Y049113D01*
X027510Y049161D02*
X027008Y049161D01*
X027008Y049209D02*
X027510Y049209D01*
X027510Y049410D02*
X027008Y049410D01*
X027510Y049410D02*
X027510Y049262D01*
X027008Y049262D01*
X027008Y049410D01*
X027008Y049310D02*
X027510Y049310D01*
X027510Y049358D02*
X027008Y049358D01*
X027008Y049406D02*
X027510Y049406D01*
X027510Y049607D02*
X027008Y049607D01*
X027510Y049607D02*
X027510Y049459D01*
X027008Y049459D01*
X027008Y049607D01*
X027008Y049507D02*
X027510Y049507D01*
X027510Y049555D02*
X027008Y049555D01*
X027008Y049603D02*
X027510Y049603D01*
X027510Y049804D02*
X027008Y049804D01*
X027510Y049804D02*
X027510Y049656D01*
X027008Y049656D01*
X027008Y049804D01*
X027008Y049704D02*
X027510Y049704D01*
X027510Y049752D02*
X027008Y049752D01*
X027008Y049800D02*
X027510Y049800D01*
X027510Y050001D02*
X027008Y050001D01*
X027510Y050001D02*
X027510Y049853D01*
X027008Y049853D01*
X027008Y050001D01*
X027008Y049901D02*
X027510Y049901D01*
X027510Y049949D02*
X027008Y049949D01*
X027008Y049997D02*
X027510Y049997D01*
X027510Y050198D02*
X027008Y050198D01*
X027510Y050198D02*
X027510Y050050D01*
X027008Y050050D01*
X027008Y050198D01*
X027008Y050098D02*
X027510Y050098D01*
X027510Y050146D02*
X027008Y050146D01*
X027008Y050194D02*
X027510Y050194D01*
X027510Y050395D02*
X027008Y050395D01*
X027510Y050395D02*
X027510Y050247D01*
X027008Y050247D01*
X027008Y050395D01*
X027008Y050295D02*
X027510Y050295D01*
X027510Y050343D02*
X027008Y050343D01*
X027008Y050391D02*
X027510Y050391D01*
X027510Y050591D02*
X027008Y050591D01*
X027510Y050591D02*
X027510Y050443D01*
X027008Y050443D01*
X027008Y050591D01*
X027008Y050491D02*
X027510Y050491D01*
X027510Y050539D02*
X027008Y050539D01*
X027008Y050587D02*
X027510Y050587D01*
X027510Y050788D02*
X027008Y050788D01*
X027510Y050788D02*
X027510Y050640D01*
X027008Y050640D01*
X027008Y050788D01*
X027008Y050688D02*
X027510Y050688D01*
X027510Y050736D02*
X027008Y050736D01*
X027008Y050784D02*
X027510Y050784D01*
X027510Y050985D02*
X027008Y050985D01*
X027510Y050985D02*
X027510Y050837D01*
X027008Y050837D01*
X027008Y050985D01*
X027008Y050885D02*
X027510Y050885D01*
X027510Y050933D02*
X027008Y050933D01*
X027008Y050981D02*
X027510Y050981D01*
X026496Y051349D02*
X026496Y051851D01*
X026644Y051851D01*
X026644Y051349D01*
X026496Y051349D01*
X026496Y051397D02*
X026644Y051397D01*
X026644Y051445D02*
X026496Y051445D01*
X026496Y051493D02*
X026644Y051493D01*
X026644Y051541D02*
X026496Y051541D01*
X026496Y051589D02*
X026644Y051589D01*
X026644Y051637D02*
X026496Y051637D01*
X026496Y051685D02*
X026644Y051685D01*
X026644Y051733D02*
X026496Y051733D01*
X026496Y051781D02*
X026644Y051781D01*
X026644Y051829D02*
X026496Y051829D01*
X026299Y051851D02*
X026299Y051349D01*
X026299Y051851D02*
X026447Y051851D01*
X026447Y051349D01*
X026299Y051349D01*
X026299Y051397D02*
X026447Y051397D01*
X026447Y051445D02*
X026299Y051445D01*
X026299Y051493D02*
X026447Y051493D01*
X026447Y051541D02*
X026299Y051541D01*
X026299Y051589D02*
X026447Y051589D01*
X026447Y051637D02*
X026299Y051637D01*
X026299Y051685D02*
X026447Y051685D01*
X026447Y051733D02*
X026299Y051733D01*
X026299Y051781D02*
X026447Y051781D01*
X026447Y051829D02*
X026299Y051829D01*
X026102Y051851D02*
X026102Y051349D01*
X026102Y051851D02*
X026250Y051851D01*
X026250Y051349D01*
X026102Y051349D01*
X026102Y051397D02*
X026250Y051397D01*
X026250Y051445D02*
X026102Y051445D01*
X026102Y051493D02*
X026250Y051493D01*
X026250Y051541D02*
X026102Y051541D01*
X026102Y051589D02*
X026250Y051589D01*
X026250Y051637D02*
X026102Y051637D01*
X026102Y051685D02*
X026250Y051685D01*
X026250Y051733D02*
X026102Y051733D01*
X026102Y051781D02*
X026250Y051781D01*
X026250Y051829D02*
X026102Y051829D01*
X025906Y051851D02*
X025906Y051349D01*
X025906Y051851D02*
X026054Y051851D01*
X026054Y051349D01*
X025906Y051349D01*
X025906Y051397D02*
X026054Y051397D01*
X026054Y051445D02*
X025906Y051445D01*
X025906Y051493D02*
X026054Y051493D01*
X026054Y051541D02*
X025906Y051541D01*
X025906Y051589D02*
X026054Y051589D01*
X026054Y051637D02*
X025906Y051637D01*
X025906Y051685D02*
X026054Y051685D01*
X026054Y051733D02*
X025906Y051733D01*
X025906Y051781D02*
X026054Y051781D01*
X026054Y051829D02*
X025906Y051829D01*
X025709Y051851D02*
X025709Y051349D01*
X025709Y051851D02*
X025857Y051851D01*
X025857Y051349D01*
X025709Y051349D01*
X025709Y051397D02*
X025857Y051397D01*
X025857Y051445D02*
X025709Y051445D01*
X025709Y051493D02*
X025857Y051493D01*
X025857Y051541D02*
X025709Y051541D01*
X025709Y051589D02*
X025857Y051589D01*
X025857Y051637D02*
X025709Y051637D01*
X025709Y051685D02*
X025857Y051685D01*
X025857Y051733D02*
X025709Y051733D01*
X025709Y051781D02*
X025857Y051781D01*
X025857Y051829D02*
X025709Y051829D01*
X025512Y051851D02*
X025512Y051349D01*
X025512Y051851D02*
X025660Y051851D01*
X025660Y051349D01*
X025512Y051349D01*
X025512Y051397D02*
X025660Y051397D01*
X025660Y051445D02*
X025512Y051445D01*
X025512Y051493D02*
X025660Y051493D01*
X025660Y051541D02*
X025512Y051541D01*
X025512Y051589D02*
X025660Y051589D01*
X025660Y051637D02*
X025512Y051637D01*
X025512Y051685D02*
X025660Y051685D01*
X025660Y051733D02*
X025512Y051733D01*
X025512Y051781D02*
X025660Y051781D01*
X025660Y051829D02*
X025512Y051829D01*
X025315Y051851D02*
X025315Y051349D01*
X025315Y051851D02*
X025463Y051851D01*
X025463Y051349D01*
X025315Y051349D01*
X025315Y051397D02*
X025463Y051397D01*
X025463Y051445D02*
X025315Y051445D01*
X025315Y051493D02*
X025463Y051493D01*
X025463Y051541D02*
X025315Y051541D01*
X025315Y051589D02*
X025463Y051589D01*
X025463Y051637D02*
X025315Y051637D01*
X025315Y051685D02*
X025463Y051685D01*
X025463Y051733D02*
X025315Y051733D01*
X025315Y051781D02*
X025463Y051781D01*
X025463Y051829D02*
X025315Y051829D01*
X025118Y051851D02*
X025118Y051349D01*
X025118Y051851D02*
X025266Y051851D01*
X025266Y051349D01*
X025118Y051349D01*
X025118Y051397D02*
X025266Y051397D01*
X025266Y051445D02*
X025118Y051445D01*
X025118Y051493D02*
X025266Y051493D01*
X025266Y051541D02*
X025118Y051541D01*
X025118Y051589D02*
X025266Y051589D01*
X025266Y051637D02*
X025118Y051637D01*
X025118Y051685D02*
X025266Y051685D01*
X025266Y051733D02*
X025118Y051733D01*
X025118Y051781D02*
X025266Y051781D01*
X025266Y051829D02*
X025118Y051829D01*
X024921Y051851D02*
X024921Y051349D01*
X024921Y051851D02*
X025069Y051851D01*
X025069Y051349D01*
X024921Y051349D01*
X024921Y051397D02*
X025069Y051397D01*
X025069Y051445D02*
X024921Y051445D01*
X024921Y051493D02*
X025069Y051493D01*
X025069Y051541D02*
X024921Y051541D01*
X024921Y051589D02*
X025069Y051589D01*
X025069Y051637D02*
X024921Y051637D01*
X024921Y051685D02*
X025069Y051685D01*
X025069Y051733D02*
X024921Y051733D01*
X024921Y051781D02*
X025069Y051781D01*
X025069Y051829D02*
X024921Y051829D01*
X024724Y051851D02*
X024724Y051349D01*
X024724Y051851D02*
X024872Y051851D01*
X024872Y051349D01*
X024724Y051349D01*
X024724Y051397D02*
X024872Y051397D01*
X024872Y051445D02*
X024724Y051445D01*
X024724Y051493D02*
X024872Y051493D01*
X024872Y051541D02*
X024724Y051541D01*
X024724Y051589D02*
X024872Y051589D01*
X024872Y051637D02*
X024724Y051637D01*
X024724Y051685D02*
X024872Y051685D01*
X024872Y051733D02*
X024724Y051733D01*
X024724Y051781D02*
X024872Y051781D01*
X024872Y051829D02*
X024724Y051829D01*
X024528Y051851D02*
X024528Y051349D01*
X024528Y051851D02*
X024676Y051851D01*
X024676Y051349D01*
X024528Y051349D01*
X024528Y051397D02*
X024676Y051397D01*
X024676Y051445D02*
X024528Y051445D01*
X024528Y051493D02*
X024676Y051493D01*
X024676Y051541D02*
X024528Y051541D01*
X024528Y051589D02*
X024676Y051589D01*
X024676Y051637D02*
X024528Y051637D01*
X024528Y051685D02*
X024676Y051685D01*
X024676Y051733D02*
X024528Y051733D01*
X024528Y051781D02*
X024676Y051781D01*
X024676Y051829D02*
X024528Y051829D01*
X024331Y051851D02*
X024331Y051349D01*
X024331Y051851D02*
X024479Y051851D01*
X024479Y051349D01*
X024331Y051349D01*
X024331Y051397D02*
X024479Y051397D01*
X024479Y051445D02*
X024331Y051445D01*
X024331Y051493D02*
X024479Y051493D01*
X024479Y051541D02*
X024331Y051541D01*
X024331Y051589D02*
X024479Y051589D01*
X024479Y051637D02*
X024331Y051637D01*
X024331Y051685D02*
X024479Y051685D01*
X024479Y051733D02*
X024331Y051733D01*
X024331Y051781D02*
X024479Y051781D01*
X024479Y051829D02*
X024331Y051829D01*
X024134Y051851D02*
X024134Y051349D01*
X024134Y051851D02*
X024282Y051851D01*
X024282Y051349D01*
X024134Y051349D01*
X024134Y051397D02*
X024282Y051397D01*
X024282Y051445D02*
X024134Y051445D01*
X024134Y051493D02*
X024282Y051493D01*
X024282Y051541D02*
X024134Y051541D01*
X024134Y051589D02*
X024282Y051589D01*
X024282Y051637D02*
X024134Y051637D01*
X024134Y051685D02*
X024282Y051685D01*
X024282Y051733D02*
X024134Y051733D01*
X024134Y051781D02*
X024282Y051781D01*
X024282Y051829D02*
X024134Y051829D01*
X023937Y051851D02*
X023937Y051349D01*
X023937Y051851D02*
X024085Y051851D01*
X024085Y051349D01*
X023937Y051349D01*
X023937Y051397D02*
X024085Y051397D01*
X024085Y051445D02*
X023937Y051445D01*
X023937Y051493D02*
X024085Y051493D01*
X024085Y051541D02*
X023937Y051541D01*
X023937Y051589D02*
X024085Y051589D01*
X024085Y051637D02*
X023937Y051637D01*
X023937Y051685D02*
X024085Y051685D01*
X024085Y051733D02*
X023937Y051733D01*
X023937Y051781D02*
X024085Y051781D01*
X024085Y051829D02*
X023937Y051829D01*
X023740Y051851D02*
X023740Y051349D01*
X023740Y051851D02*
X023888Y051851D01*
X023888Y051349D01*
X023740Y051349D01*
X023740Y051397D02*
X023888Y051397D01*
X023888Y051445D02*
X023740Y051445D01*
X023740Y051493D02*
X023888Y051493D01*
X023888Y051541D02*
X023740Y051541D01*
X023740Y051589D02*
X023888Y051589D01*
X023888Y051637D02*
X023740Y051637D01*
X023740Y051685D02*
X023888Y051685D01*
X023888Y051733D02*
X023740Y051733D01*
X023740Y051781D02*
X023888Y051781D01*
X023888Y051829D02*
X023740Y051829D01*
X023543Y051851D02*
X023543Y051349D01*
X023543Y051851D02*
X023691Y051851D01*
X023691Y051349D01*
X023543Y051349D01*
X023543Y051397D02*
X023691Y051397D01*
X023691Y051445D02*
X023543Y051445D01*
X023543Y051493D02*
X023691Y051493D01*
X023691Y051541D02*
X023543Y051541D01*
X023543Y051589D02*
X023691Y051589D01*
X023691Y051637D02*
X023543Y051637D01*
X023543Y051685D02*
X023691Y051685D01*
X023691Y051733D02*
X023543Y051733D01*
X023543Y051781D02*
X023691Y051781D01*
X023691Y051829D02*
X023543Y051829D01*
X023346Y051851D02*
X023346Y051349D01*
X023346Y051851D02*
X023494Y051851D01*
X023494Y051349D01*
X023346Y051349D01*
X023346Y051397D02*
X023494Y051397D01*
X023494Y051445D02*
X023346Y051445D01*
X023346Y051493D02*
X023494Y051493D01*
X023494Y051541D02*
X023346Y051541D01*
X023346Y051589D02*
X023494Y051589D01*
X023494Y051637D02*
X023346Y051637D01*
X023346Y051685D02*
X023494Y051685D01*
X023494Y051733D02*
X023346Y051733D01*
X023346Y051781D02*
X023494Y051781D01*
X023494Y051829D02*
X023346Y051829D01*
X023150Y051851D02*
X023150Y051349D01*
X023150Y051851D02*
X023298Y051851D01*
X023298Y051349D01*
X023150Y051349D01*
X023150Y051397D02*
X023298Y051397D01*
X023298Y051445D02*
X023150Y051445D01*
X023150Y051493D02*
X023298Y051493D01*
X023298Y051541D02*
X023150Y051541D01*
X023150Y051589D02*
X023298Y051589D01*
X023298Y051637D02*
X023150Y051637D01*
X023150Y051685D02*
X023298Y051685D01*
X023298Y051733D02*
X023150Y051733D01*
X023150Y051781D02*
X023298Y051781D01*
X023298Y051829D02*
X023150Y051829D01*
X022953Y051851D02*
X022953Y051349D01*
X022953Y051851D02*
X023101Y051851D01*
X023101Y051349D01*
X022953Y051349D01*
X022953Y051397D02*
X023101Y051397D01*
X023101Y051445D02*
X022953Y051445D01*
X022953Y051493D02*
X023101Y051493D01*
X023101Y051541D02*
X022953Y051541D01*
X022953Y051589D02*
X023101Y051589D01*
X023101Y051637D02*
X022953Y051637D01*
X022953Y051685D02*
X023101Y051685D01*
X023101Y051733D02*
X022953Y051733D01*
X022953Y051781D02*
X023101Y051781D01*
X023101Y051829D02*
X022953Y051829D01*
X022756Y051851D02*
X022756Y051349D01*
X022756Y051851D02*
X022904Y051851D01*
X022904Y051349D01*
X022756Y051349D01*
X022756Y051397D02*
X022904Y051397D01*
X022904Y051445D02*
X022756Y051445D01*
X022756Y051493D02*
X022904Y051493D01*
X022904Y051541D02*
X022756Y051541D01*
X022756Y051589D02*
X022904Y051589D01*
X022904Y051637D02*
X022756Y051637D01*
X022756Y051685D02*
X022904Y051685D01*
X022904Y051733D02*
X022756Y051733D01*
X022756Y051781D02*
X022904Y051781D01*
X022904Y051829D02*
X022756Y051829D01*
X022559Y051851D02*
X022559Y051349D01*
X022559Y051851D02*
X022707Y051851D01*
X022707Y051349D01*
X022559Y051349D01*
X022559Y051397D02*
X022707Y051397D01*
X022707Y051445D02*
X022559Y051445D01*
X022559Y051493D02*
X022707Y051493D01*
X022707Y051541D02*
X022559Y051541D01*
X022559Y051589D02*
X022707Y051589D01*
X022707Y051637D02*
X022559Y051637D01*
X022559Y051685D02*
X022707Y051685D01*
X022707Y051733D02*
X022559Y051733D01*
X022559Y051781D02*
X022707Y051781D01*
X022707Y051829D02*
X022559Y051829D01*
X022362Y051851D02*
X022362Y051349D01*
X022362Y051851D02*
X022510Y051851D01*
X022510Y051349D01*
X022362Y051349D01*
X022362Y051397D02*
X022510Y051397D01*
X022510Y051445D02*
X022362Y051445D01*
X022362Y051493D02*
X022510Y051493D01*
X022510Y051541D02*
X022362Y051541D01*
X022362Y051589D02*
X022510Y051589D01*
X022510Y051637D02*
X022362Y051637D01*
X022362Y051685D02*
X022510Y051685D01*
X022510Y051733D02*
X022362Y051733D01*
X022362Y051781D02*
X022510Y051781D01*
X022510Y051829D02*
X022362Y051829D01*
X022165Y051851D02*
X022165Y051349D01*
X022165Y051851D02*
X022313Y051851D01*
X022313Y051349D01*
X022165Y051349D01*
X022165Y051397D02*
X022313Y051397D01*
X022313Y051445D02*
X022165Y051445D01*
X022165Y051493D02*
X022313Y051493D01*
X022313Y051541D02*
X022165Y051541D01*
X022165Y051589D02*
X022313Y051589D01*
X022313Y051637D02*
X022165Y051637D01*
X022165Y051685D02*
X022313Y051685D01*
X022313Y051733D02*
X022165Y051733D01*
X022165Y051781D02*
X022313Y051781D01*
X022313Y051829D02*
X022165Y051829D01*
X021968Y051851D02*
X021968Y051349D01*
X021968Y051851D02*
X022116Y051851D01*
X022116Y051349D01*
X021968Y051349D01*
X021968Y051397D02*
X022116Y051397D01*
X022116Y051445D02*
X021968Y051445D01*
X021968Y051493D02*
X022116Y051493D01*
X022116Y051541D02*
X021968Y051541D01*
X021968Y051589D02*
X022116Y051589D01*
X022116Y051637D02*
X021968Y051637D01*
X021968Y051685D02*
X022116Y051685D01*
X022116Y051733D02*
X021968Y051733D01*
X021968Y051781D02*
X022116Y051781D01*
X022116Y051829D02*
X021968Y051829D01*
X021772Y051851D02*
X021772Y051349D01*
X021772Y051851D02*
X021920Y051851D01*
X021920Y051349D01*
X021772Y051349D01*
X021772Y051397D02*
X021920Y051397D01*
X021920Y051445D02*
X021772Y051445D01*
X021772Y051493D02*
X021920Y051493D01*
X021920Y051541D02*
X021772Y051541D01*
X021772Y051589D02*
X021920Y051589D01*
X021920Y051637D02*
X021772Y051637D01*
X021772Y051685D02*
X021920Y051685D01*
X021920Y051733D02*
X021772Y051733D01*
X021772Y051781D02*
X021920Y051781D01*
X021920Y051829D02*
X021772Y051829D01*
X021408Y050837D02*
X020906Y050837D01*
X020906Y050985D01*
X021408Y050985D01*
X021408Y050837D01*
X021408Y050885D02*
X020906Y050885D01*
X020906Y050933D02*
X021408Y050933D01*
X021408Y050981D02*
X020906Y050981D01*
X020906Y050640D02*
X021408Y050640D01*
X020906Y050640D02*
X020906Y050788D01*
X021408Y050788D01*
X021408Y050640D01*
X021408Y050688D02*
X020906Y050688D01*
X020906Y050736D02*
X021408Y050736D01*
X021408Y050784D02*
X020906Y050784D01*
X020906Y050443D02*
X021408Y050443D01*
X020906Y050443D02*
X020906Y050591D01*
X021408Y050591D01*
X021408Y050443D01*
X021408Y050491D02*
X020906Y050491D01*
X020906Y050539D02*
X021408Y050539D01*
X021408Y050587D02*
X020906Y050587D01*
X020906Y050247D02*
X021408Y050247D01*
X020906Y050247D02*
X020906Y050395D01*
X021408Y050395D01*
X021408Y050247D01*
X021408Y050295D02*
X020906Y050295D01*
X020906Y050343D02*
X021408Y050343D01*
X021408Y050391D02*
X020906Y050391D01*
X020906Y050050D02*
X021408Y050050D01*
X020906Y050050D02*
X020906Y050198D01*
X021408Y050198D01*
X021408Y050050D01*
X021408Y050098D02*
X020906Y050098D01*
X020906Y050146D02*
X021408Y050146D01*
X021408Y050194D02*
X020906Y050194D01*
X020906Y049853D02*
X021408Y049853D01*
X020906Y049853D02*
X020906Y050001D01*
X021408Y050001D01*
X021408Y049853D01*
X021408Y049901D02*
X020906Y049901D01*
X020906Y049949D02*
X021408Y049949D01*
X021408Y049997D02*
X020906Y049997D01*
X020906Y049656D02*
X021408Y049656D01*
X020906Y049656D02*
X020906Y049804D01*
X021408Y049804D01*
X021408Y049656D01*
X021408Y049704D02*
X020906Y049704D01*
X020906Y049752D02*
X021408Y049752D01*
X021408Y049800D02*
X020906Y049800D01*
X020906Y049459D02*
X021408Y049459D01*
X020906Y049459D02*
X020906Y049607D01*
X021408Y049607D01*
X021408Y049459D01*
X021408Y049507D02*
X020906Y049507D01*
X020906Y049555D02*
X021408Y049555D01*
X021408Y049603D02*
X020906Y049603D01*
X020906Y049262D02*
X021408Y049262D01*
X020906Y049262D02*
X020906Y049410D01*
X021408Y049410D01*
X021408Y049262D01*
X021408Y049310D02*
X020906Y049310D01*
X020906Y049358D02*
X021408Y049358D01*
X021408Y049406D02*
X020906Y049406D01*
X020906Y049065D02*
X021408Y049065D01*
X020906Y049065D02*
X020906Y049213D01*
X021408Y049213D01*
X021408Y049065D01*
X021408Y049113D02*
X020906Y049113D01*
X020906Y049161D02*
X021408Y049161D01*
X021408Y049209D02*
X020906Y049209D01*
X020906Y048869D02*
X021408Y048869D01*
X020906Y048869D02*
X020906Y049017D01*
X021408Y049017D01*
X021408Y048869D01*
X021408Y048917D02*
X020906Y048917D01*
X020906Y048965D02*
X021408Y048965D01*
X021408Y049013D02*
X020906Y049013D01*
X020906Y048672D02*
X021408Y048672D01*
X020906Y048672D02*
X020906Y048820D01*
X021408Y048820D01*
X021408Y048672D01*
X021408Y048720D02*
X020906Y048720D01*
X020906Y048768D02*
X021408Y048768D01*
X021408Y048816D02*
X020906Y048816D01*
X020906Y048475D02*
X021408Y048475D01*
X020906Y048475D02*
X020906Y048623D01*
X021408Y048623D01*
X021408Y048475D01*
X021408Y048523D02*
X020906Y048523D01*
X020906Y048571D02*
X021408Y048571D01*
X021408Y048619D02*
X020906Y048619D01*
X020906Y048278D02*
X021408Y048278D01*
X020906Y048278D02*
X020906Y048426D01*
X021408Y048426D01*
X021408Y048278D01*
X021408Y048326D02*
X020906Y048326D01*
X020906Y048374D02*
X021408Y048374D01*
X021408Y048422D02*
X020906Y048422D01*
X020906Y048081D02*
X021408Y048081D01*
X020906Y048081D02*
X020906Y048229D01*
X021408Y048229D01*
X021408Y048081D01*
X021408Y048129D02*
X020906Y048129D01*
X020906Y048177D02*
X021408Y048177D01*
X021408Y048225D02*
X020906Y048225D01*
X020906Y047884D02*
X021408Y047884D01*
X020906Y047884D02*
X020906Y048032D01*
X021408Y048032D01*
X021408Y047884D01*
X021408Y047932D02*
X020906Y047932D01*
X020906Y047980D02*
X021408Y047980D01*
X021408Y048028D02*
X020906Y048028D01*
X020906Y047688D02*
X021408Y047688D01*
X020906Y047688D02*
X020906Y047836D01*
X021408Y047836D01*
X021408Y047688D01*
X021408Y047736D02*
X020906Y047736D01*
X020906Y047784D02*
X021408Y047784D01*
X021408Y047832D02*
X020906Y047832D01*
X020906Y047491D02*
X021408Y047491D01*
X020906Y047491D02*
X020906Y047639D01*
X021408Y047639D01*
X021408Y047491D01*
X021408Y047539D02*
X020906Y047539D01*
X020906Y047587D02*
X021408Y047587D01*
X021408Y047635D02*
X020906Y047635D01*
X020906Y047294D02*
X021408Y047294D01*
X020906Y047294D02*
X020906Y047442D01*
X021408Y047442D01*
X021408Y047294D01*
X021408Y047342D02*
X020906Y047342D01*
X020906Y047390D02*
X021408Y047390D01*
X021408Y047438D02*
X020906Y047438D01*
X020906Y047097D02*
X021408Y047097D01*
X020906Y047097D02*
X020906Y047245D01*
X021408Y047245D01*
X021408Y047097D01*
X021408Y047145D02*
X020906Y047145D01*
X020906Y047193D02*
X021408Y047193D01*
X021408Y047241D02*
X020906Y047241D01*
X020906Y046900D02*
X021408Y046900D01*
X020906Y046900D02*
X020906Y047048D01*
X021408Y047048D01*
X021408Y046900D01*
X021408Y046948D02*
X020906Y046948D01*
X020906Y046996D02*
X021408Y046996D01*
X021408Y047044D02*
X020906Y047044D01*
X020906Y046703D02*
X021408Y046703D01*
X020906Y046703D02*
X020906Y046851D01*
X021408Y046851D01*
X021408Y046703D01*
X021408Y046751D02*
X020906Y046751D01*
X020906Y046799D02*
X021408Y046799D01*
X021408Y046847D02*
X020906Y046847D01*
X020906Y046506D02*
X021408Y046506D01*
X020906Y046506D02*
X020906Y046654D01*
X021408Y046654D01*
X021408Y046506D01*
X021408Y046554D02*
X020906Y046554D01*
X020906Y046602D02*
X021408Y046602D01*
X021408Y046650D02*
X020906Y046650D01*
X020906Y046310D02*
X021408Y046310D01*
X020906Y046310D02*
X020906Y046458D01*
X021408Y046458D01*
X021408Y046310D01*
X021408Y046358D02*
X020906Y046358D01*
X020906Y046406D02*
X021408Y046406D01*
X021408Y046454D02*
X020906Y046454D01*
X020906Y046113D02*
X021408Y046113D01*
X020906Y046113D02*
X020906Y046261D01*
X021408Y046261D01*
X021408Y046113D01*
X021408Y046161D02*
X020906Y046161D01*
X020906Y046209D02*
X021408Y046209D01*
X021408Y046257D02*
X020906Y046257D01*
D25*
X021794Y026311D02*
X021794Y025315D01*
X021546Y025315D01*
X021546Y026311D01*
X021794Y026311D01*
X021794Y025397D02*
X021546Y025397D01*
X021546Y025479D02*
X021794Y025479D01*
X021794Y025561D02*
X021546Y025561D01*
X021546Y025643D02*
X021794Y025643D01*
X021794Y025725D02*
X021546Y025725D01*
X021546Y025807D02*
X021794Y025807D01*
X021794Y025889D02*
X021546Y025889D01*
X021546Y025971D02*
X021794Y025971D01*
X021794Y026053D02*
X021546Y026053D01*
X021546Y026135D02*
X021794Y026135D01*
X021794Y026217D02*
X021546Y026217D01*
X021546Y026299D02*
X021794Y026299D01*
X022294Y026311D02*
X022294Y025315D01*
X022046Y025315D01*
X022046Y026311D01*
X022294Y026311D01*
X022294Y025397D02*
X022046Y025397D01*
X022046Y025479D02*
X022294Y025479D01*
X022294Y025561D02*
X022046Y025561D01*
X022046Y025643D02*
X022294Y025643D01*
X022294Y025725D02*
X022046Y025725D01*
X022046Y025807D02*
X022294Y025807D01*
X022294Y025889D02*
X022046Y025889D01*
X022046Y025971D02*
X022294Y025971D01*
X022294Y026053D02*
X022046Y026053D01*
X022046Y026135D02*
X022294Y026135D01*
X022294Y026217D02*
X022046Y026217D01*
X022046Y026299D02*
X022294Y026299D01*
X022794Y026311D02*
X022794Y025315D01*
X022546Y025315D01*
X022546Y026311D01*
X022794Y026311D01*
X022794Y025397D02*
X022546Y025397D01*
X022546Y025479D02*
X022794Y025479D01*
X022794Y025561D02*
X022546Y025561D01*
X022546Y025643D02*
X022794Y025643D01*
X022794Y025725D02*
X022546Y025725D01*
X022546Y025807D02*
X022794Y025807D01*
X022794Y025889D02*
X022546Y025889D01*
X022546Y025971D02*
X022794Y025971D01*
X022794Y026053D02*
X022546Y026053D01*
X022546Y026135D02*
X022794Y026135D01*
X022794Y026217D02*
X022546Y026217D01*
X022546Y026299D02*
X022794Y026299D01*
X023294Y026311D02*
X023294Y025315D01*
X023046Y025315D01*
X023046Y026311D01*
X023294Y026311D01*
X023294Y025397D02*
X023046Y025397D01*
X023046Y025479D02*
X023294Y025479D01*
X023294Y025561D02*
X023046Y025561D01*
X023046Y025643D02*
X023294Y025643D01*
X023294Y025725D02*
X023046Y025725D01*
X023046Y025807D02*
X023294Y025807D01*
X023294Y025889D02*
X023046Y025889D01*
X023046Y025971D02*
X023294Y025971D01*
X023294Y026053D02*
X023046Y026053D01*
X023046Y026135D02*
X023294Y026135D01*
X023294Y026217D02*
X023046Y026217D01*
X023046Y026299D02*
X023294Y026299D01*
X023794Y026311D02*
X023794Y025315D01*
X023546Y025315D01*
X023546Y026311D01*
X023794Y026311D01*
X023794Y025397D02*
X023546Y025397D01*
X023546Y025479D02*
X023794Y025479D01*
X023794Y025561D02*
X023546Y025561D01*
X023546Y025643D02*
X023794Y025643D01*
X023794Y025725D02*
X023546Y025725D01*
X023546Y025807D02*
X023794Y025807D01*
X023794Y025889D02*
X023546Y025889D01*
X023546Y025971D02*
X023794Y025971D01*
X023794Y026053D02*
X023546Y026053D01*
X023546Y026135D02*
X023794Y026135D01*
X023794Y026217D02*
X023546Y026217D01*
X023546Y026299D02*
X023794Y026299D01*
X024294Y026311D02*
X024294Y025315D01*
X024046Y025315D01*
X024046Y026311D01*
X024294Y026311D01*
X024294Y025397D02*
X024046Y025397D01*
X024046Y025479D02*
X024294Y025479D01*
X024294Y025561D02*
X024046Y025561D01*
X024046Y025643D02*
X024294Y025643D01*
X024294Y025725D02*
X024046Y025725D01*
X024046Y025807D02*
X024294Y025807D01*
X024294Y025889D02*
X024046Y025889D01*
X024046Y025971D02*
X024294Y025971D01*
X024294Y026053D02*
X024046Y026053D01*
X024046Y026135D02*
X024294Y026135D01*
X024294Y026217D02*
X024046Y026217D01*
X024046Y026299D02*
X024294Y026299D01*
X024794Y026311D02*
X024794Y025315D01*
X024546Y025315D01*
X024546Y026311D01*
X024794Y026311D01*
X024794Y025397D02*
X024546Y025397D01*
X024546Y025479D02*
X024794Y025479D01*
X024794Y025561D02*
X024546Y025561D01*
X024546Y025643D02*
X024794Y025643D01*
X024794Y025725D02*
X024546Y025725D01*
X024546Y025807D02*
X024794Y025807D01*
X024794Y025889D02*
X024546Y025889D01*
X024546Y025971D02*
X024794Y025971D01*
X024794Y026053D02*
X024546Y026053D01*
X024546Y026135D02*
X024794Y026135D01*
X024794Y026217D02*
X024546Y026217D01*
X024546Y026299D02*
X024794Y026299D01*
X025294Y026311D02*
X025294Y025315D01*
X025046Y025315D01*
X025046Y026311D01*
X025294Y026311D01*
X025294Y025397D02*
X025046Y025397D01*
X025046Y025479D02*
X025294Y025479D01*
X025294Y025561D02*
X025046Y025561D01*
X025046Y025643D02*
X025294Y025643D01*
X025294Y025725D02*
X025046Y025725D01*
X025046Y025807D02*
X025294Y025807D01*
X025294Y025889D02*
X025046Y025889D01*
X025046Y025971D02*
X025294Y025971D01*
X025294Y026053D02*
X025046Y026053D01*
X025046Y026135D02*
X025294Y026135D01*
X025294Y026217D02*
X025046Y026217D01*
X025046Y026299D02*
X025294Y026299D01*
D26*
X026324Y022101D02*
X026324Y020241D01*
X025516Y020241D01*
X025516Y022101D01*
X026324Y022101D01*
X026324Y020510D02*
X025516Y020510D01*
X025516Y020779D02*
X026324Y020779D01*
X026324Y021048D02*
X025516Y021048D01*
X025516Y021317D02*
X026324Y021317D01*
X026324Y021586D02*
X025516Y021586D01*
X025516Y021855D02*
X026324Y021855D01*
X021324Y022101D02*
X021324Y020241D01*
X020516Y020241D01*
X020516Y022101D01*
X021324Y022101D01*
X021324Y020510D02*
X020516Y020510D01*
X020516Y020779D02*
X021324Y020779D01*
X021324Y021048D02*
X020516Y021048D01*
X020516Y021317D02*
X021324Y021317D01*
X021324Y021586D02*
X020516Y021586D01*
X020516Y021855D02*
X021324Y021855D01*
D27*
X033150Y033180D02*
X033150Y033642D01*
X033416Y033642D01*
X033416Y033180D01*
X033150Y033180D01*
X033150Y033268D02*
X033416Y033268D01*
X033416Y033356D02*
X033150Y033356D01*
X033150Y033444D02*
X033416Y033444D01*
X033416Y033532D02*
X033150Y033532D01*
X033150Y033620D02*
X033416Y033620D01*
X033524Y033642D02*
X033524Y033180D01*
X033524Y033642D02*
X033790Y033642D01*
X033790Y033180D01*
X033524Y033180D01*
X033524Y033268D02*
X033790Y033268D01*
X033790Y033356D02*
X033524Y033356D01*
X033524Y033444D02*
X033790Y033444D01*
X033790Y033532D02*
X033524Y033532D01*
X033524Y033620D02*
X033790Y033620D01*
X033898Y033642D02*
X033898Y033180D01*
X033898Y033642D02*
X034164Y033642D01*
X034164Y033180D01*
X033898Y033180D01*
X033898Y033268D02*
X034164Y033268D01*
X034164Y033356D02*
X033898Y033356D01*
X033898Y033444D02*
X034164Y033444D01*
X034164Y033532D02*
X033898Y033532D01*
X033898Y033620D02*
X034164Y033620D01*
X033898Y034125D02*
X033898Y034587D01*
X034164Y034587D01*
X034164Y034125D01*
X033898Y034125D01*
X033898Y034213D02*
X034164Y034213D01*
X034164Y034301D02*
X033898Y034301D01*
X033898Y034389D02*
X034164Y034389D01*
X034164Y034477D02*
X033898Y034477D01*
X033898Y034565D02*
X034164Y034565D01*
X033524Y034587D02*
X033524Y034125D01*
X033524Y034587D02*
X033790Y034587D01*
X033790Y034125D01*
X033524Y034125D01*
X033524Y034213D02*
X033790Y034213D01*
X033790Y034301D02*
X033524Y034301D01*
X033524Y034389D02*
X033790Y034389D01*
X033790Y034477D02*
X033524Y034477D01*
X033524Y034565D02*
X033790Y034565D01*
X033150Y034587D02*
X033150Y034125D01*
X033150Y034587D02*
X033416Y034587D01*
X033416Y034125D01*
X033150Y034125D01*
X033150Y034213D02*
X033416Y034213D01*
X033416Y034301D02*
X033150Y034301D01*
X033150Y034389D02*
X033416Y034389D01*
X033416Y034477D02*
X033150Y034477D01*
X033150Y034565D02*
X033416Y034565D01*
X034794Y031241D02*
X034794Y030779D01*
X034528Y030779D01*
X034528Y031241D01*
X034794Y031241D01*
X034794Y030867D02*
X034528Y030867D01*
X034528Y030955D02*
X034794Y030955D01*
X034794Y031043D02*
X034528Y031043D01*
X034528Y031131D02*
X034794Y031131D01*
X034794Y031219D02*
X034528Y031219D01*
X035168Y031241D02*
X035168Y030779D01*
X034902Y030779D01*
X034902Y031241D01*
X035168Y031241D01*
X035168Y030867D02*
X034902Y030867D01*
X034902Y030955D02*
X035168Y030955D01*
X035168Y031043D02*
X034902Y031043D01*
X034902Y031131D02*
X035168Y031131D01*
X035168Y031219D02*
X034902Y031219D01*
X035542Y031241D02*
X035542Y030779D01*
X035276Y030779D01*
X035276Y031241D01*
X035542Y031241D01*
X035542Y030867D02*
X035276Y030867D01*
X035276Y030955D02*
X035542Y030955D01*
X035542Y031043D02*
X035276Y031043D01*
X035276Y031131D02*
X035542Y031131D01*
X035542Y031219D02*
X035276Y031219D01*
X035542Y030296D02*
X035542Y029834D01*
X035276Y029834D01*
X035276Y030296D01*
X035542Y030296D01*
X035542Y029922D02*
X035276Y029922D01*
X035276Y030010D02*
X035542Y030010D01*
X035542Y030098D02*
X035276Y030098D01*
X035276Y030186D02*
X035542Y030186D01*
X035542Y030274D02*
X035276Y030274D01*
X035168Y030296D02*
X035168Y029834D01*
X034902Y029834D01*
X034902Y030296D01*
X035168Y030296D01*
X035168Y029922D02*
X034902Y029922D01*
X034902Y030010D02*
X035168Y030010D01*
X035168Y030098D02*
X034902Y030098D01*
X034902Y030186D02*
X035168Y030186D01*
X035168Y030274D02*
X034902Y030274D01*
X034794Y030296D02*
X034794Y029834D01*
X034528Y029834D01*
X034528Y030296D01*
X034794Y030296D01*
X034794Y029922D02*
X034528Y029922D01*
X034528Y030010D02*
X034794Y030010D01*
X034794Y030098D02*
X034528Y030098D01*
X034528Y030186D02*
X034794Y030186D01*
X034794Y030274D02*
X034528Y030274D01*
X034095Y038298D02*
X034095Y038760D01*
X034361Y038760D01*
X034361Y038298D01*
X034095Y038298D01*
X034095Y038386D02*
X034361Y038386D01*
X034361Y038474D02*
X034095Y038474D01*
X034095Y038562D02*
X034361Y038562D01*
X034361Y038650D02*
X034095Y038650D01*
X034095Y038738D02*
X034361Y038738D01*
X033721Y038760D02*
X033721Y038298D01*
X033721Y038760D02*
X033987Y038760D01*
X033987Y038298D01*
X033721Y038298D01*
X033721Y038386D02*
X033987Y038386D01*
X033987Y038474D02*
X033721Y038474D01*
X033721Y038562D02*
X033987Y038562D01*
X033987Y038650D02*
X033721Y038650D01*
X033721Y038738D02*
X033987Y038738D01*
X033347Y038760D02*
X033347Y038298D01*
X033347Y038760D02*
X033613Y038760D01*
X033613Y038298D01*
X033347Y038298D01*
X033347Y038386D02*
X033613Y038386D01*
X033613Y038474D02*
X033347Y038474D01*
X033347Y038562D02*
X033613Y038562D01*
X033613Y038650D02*
X033347Y038650D01*
X033347Y038738D02*
X033613Y038738D01*
X033347Y039243D02*
X033347Y039705D01*
X033613Y039705D01*
X033613Y039243D01*
X033347Y039243D01*
X033347Y039331D02*
X033613Y039331D01*
X033613Y039419D02*
X033347Y039419D01*
X033347Y039507D02*
X033613Y039507D01*
X033613Y039595D02*
X033347Y039595D01*
X033347Y039683D02*
X033613Y039683D01*
X033721Y039705D02*
X033721Y039243D01*
X033721Y039705D02*
X033987Y039705D01*
X033987Y039243D01*
X033721Y039243D01*
X033721Y039331D02*
X033987Y039331D01*
X033987Y039419D02*
X033721Y039419D01*
X033721Y039507D02*
X033987Y039507D01*
X033987Y039595D02*
X033721Y039595D01*
X033721Y039683D02*
X033987Y039683D01*
X034095Y039705D02*
X034095Y039243D01*
X034095Y039705D02*
X034361Y039705D01*
X034361Y039243D01*
X034095Y039243D01*
X034095Y039331D02*
X034361Y039331D01*
X034361Y039419D02*
X034095Y039419D01*
X034095Y039507D02*
X034361Y039507D01*
X034361Y039595D02*
X034095Y039595D01*
X034095Y039683D02*
X034361Y039683D01*
D28*
X032499Y037575D02*
X032499Y036333D01*
X032089Y036333D01*
X032089Y037575D01*
X032499Y037575D01*
X032499Y036469D02*
X032089Y036469D01*
X032089Y036605D02*
X032499Y036605D01*
X032499Y036741D02*
X032089Y036741D01*
X032089Y036877D02*
X032499Y036877D01*
X032499Y037013D02*
X032089Y037013D01*
X032089Y037149D02*
X032499Y037149D01*
X032499Y037285D02*
X032089Y037285D01*
X032089Y037421D02*
X032499Y037421D01*
X032499Y037557D02*
X032089Y037557D01*
X031499Y038853D02*
X031499Y040095D01*
X031499Y038853D02*
X031089Y038853D01*
X031089Y040095D01*
X031499Y040095D01*
X031499Y038989D02*
X031089Y038989D01*
X031089Y039125D02*
X031499Y039125D01*
X031499Y039261D02*
X031089Y039261D01*
X031089Y039397D02*
X031499Y039397D01*
X031499Y039533D02*
X031089Y039533D01*
X031089Y039669D02*
X031499Y039669D01*
X031499Y039805D02*
X031089Y039805D01*
X031089Y039941D02*
X031499Y039941D01*
X031499Y040077D02*
X031089Y040077D01*
X030499Y037575D02*
X030499Y036333D01*
X030089Y036333D01*
X030089Y037575D01*
X030499Y037575D01*
X030499Y036469D02*
X030089Y036469D01*
X030089Y036605D02*
X030499Y036605D01*
X030499Y036741D02*
X030089Y036741D01*
X030089Y036877D02*
X030499Y036877D01*
X030499Y037013D02*
X030089Y037013D01*
X030089Y037149D02*
X030499Y037149D01*
X030499Y037285D02*
X030089Y037285D01*
X030089Y037421D02*
X030499Y037421D01*
X030499Y037557D02*
X030089Y037557D01*
X028547Y036158D02*
X028547Y034916D01*
X028137Y034916D01*
X028137Y036158D01*
X028547Y036158D01*
X028547Y035052D02*
X028137Y035052D01*
X028137Y035188D02*
X028547Y035188D01*
X028547Y035324D02*
X028137Y035324D01*
X028137Y035460D02*
X028547Y035460D01*
X028547Y035596D02*
X028137Y035596D01*
X028137Y035732D02*
X028547Y035732D01*
X028547Y035868D02*
X028137Y035868D01*
X028137Y036004D02*
X028547Y036004D01*
X028547Y036140D02*
X028137Y036140D01*
X027547Y033638D02*
X027547Y032396D01*
X027137Y032396D01*
X027137Y033638D01*
X027547Y033638D01*
X027547Y032532D02*
X027137Y032532D01*
X027137Y032668D02*
X027547Y032668D01*
X027547Y032804D02*
X027137Y032804D01*
X027137Y032940D02*
X027547Y032940D01*
X027547Y033076D02*
X027137Y033076D01*
X027137Y033212D02*
X027547Y033212D01*
X027547Y033348D02*
X027137Y033348D01*
X027137Y033484D02*
X027547Y033484D01*
X027547Y033620D02*
X027137Y033620D01*
X029547Y033638D02*
X029547Y032396D01*
X029137Y032396D01*
X029137Y033638D01*
X029547Y033638D01*
X029547Y032532D02*
X029137Y032532D01*
X029137Y032668D02*
X029547Y032668D01*
X029547Y032804D02*
X029137Y032804D01*
X029137Y032940D02*
X029547Y032940D01*
X029547Y033076D02*
X029137Y033076D01*
X029137Y033212D02*
X029547Y033212D01*
X029547Y033348D02*
X029137Y033348D01*
X029137Y033484D02*
X029547Y033484D01*
X029547Y033620D02*
X029137Y033620D01*
X032287Y032615D02*
X032287Y031373D01*
X031877Y031373D01*
X031877Y032615D01*
X032287Y032615D01*
X032287Y031509D02*
X031877Y031509D01*
X031877Y031645D02*
X032287Y031645D01*
X032287Y031781D02*
X031877Y031781D01*
X031877Y031917D02*
X032287Y031917D01*
X032287Y032053D02*
X031877Y032053D01*
X031877Y032189D02*
X032287Y032189D01*
X032287Y032325D02*
X031877Y032325D01*
X031877Y032461D02*
X032287Y032461D01*
X032287Y032597D02*
X031877Y032597D01*
X031287Y030095D02*
X031287Y028853D01*
X030877Y028853D01*
X030877Y030095D01*
X031287Y030095D01*
X031287Y028989D02*
X030877Y028989D01*
X030877Y029125D02*
X031287Y029125D01*
X031287Y029261D02*
X030877Y029261D01*
X030877Y029397D02*
X031287Y029397D01*
X031287Y029533D02*
X030877Y029533D01*
X030877Y029669D02*
X031287Y029669D01*
X031287Y029805D02*
X030877Y029805D01*
X030877Y029941D02*
X031287Y029941D01*
X031287Y030077D02*
X030877Y030077D01*
X033287Y030095D02*
X033287Y028853D01*
X032877Y028853D01*
X032877Y030095D01*
X033287Y030095D01*
X033287Y028989D02*
X032877Y028989D01*
X032877Y029125D02*
X033287Y029125D01*
X033287Y029261D02*
X032877Y029261D01*
X032877Y029397D02*
X033287Y029397D01*
X033287Y029533D02*
X032877Y029533D01*
X032877Y029669D02*
X033287Y029669D01*
X033287Y029805D02*
X032877Y029805D01*
X032877Y029941D02*
X033287Y029941D01*
X033287Y030077D02*
X032877Y030077D01*
D29*
X033992Y028144D02*
X034502Y028144D01*
X033992Y028144D02*
X033992Y028580D01*
X034502Y028580D01*
X034502Y028144D01*
X034502Y028289D02*
X033992Y028289D01*
X033992Y028434D02*
X034502Y028434D01*
X034502Y028579D02*
X033992Y028579D01*
X033992Y027376D02*
X034502Y027376D01*
X033992Y027376D02*
X033992Y027812D01*
X034502Y027812D01*
X034502Y027376D01*
X034502Y027521D02*
X033992Y027521D01*
X033992Y027666D02*
X034502Y027666D01*
X034502Y027811D02*
X033992Y027811D01*
X028794Y029542D02*
X028284Y029542D01*
X028284Y029978D01*
X028794Y029978D01*
X028794Y029542D01*
X028794Y029687D02*
X028284Y029687D01*
X028284Y029832D02*
X028794Y029832D01*
X028794Y029977D02*
X028284Y029977D01*
X028284Y030309D02*
X028794Y030309D01*
X028284Y030309D02*
X028284Y030745D01*
X028794Y030745D01*
X028794Y030309D01*
X028794Y030454D02*
X028284Y030454D01*
X028284Y030599D02*
X028794Y030599D01*
X028794Y030744D02*
X028284Y030744D01*
X027612Y030309D02*
X027102Y030309D01*
X027102Y030745D01*
X027612Y030745D01*
X027612Y030309D01*
X027612Y030454D02*
X027102Y030454D01*
X027102Y030599D02*
X027612Y030599D01*
X027612Y030744D02*
X027102Y030744D01*
X027102Y029542D02*
X027612Y029542D01*
X027102Y029542D02*
X027102Y029978D01*
X027612Y029978D01*
X027612Y029542D01*
X027612Y029687D02*
X027102Y029687D01*
X027102Y029832D02*
X027612Y029832D01*
X027612Y029977D02*
X027102Y029977D01*
X025597Y034613D02*
X025597Y035123D01*
X025597Y034613D02*
X025161Y034613D01*
X025161Y035123D01*
X025597Y035123D01*
X025597Y034758D02*
X025161Y034758D01*
X025161Y034903D02*
X025597Y034903D01*
X025597Y035048D02*
X025161Y035048D01*
X024829Y035123D02*
X024829Y034613D01*
X024393Y034613D01*
X024393Y035123D01*
X024829Y035123D01*
X024829Y034758D02*
X024393Y034758D01*
X024393Y034903D02*
X024829Y034903D01*
X024829Y035048D02*
X024393Y035048D01*
X026010Y040282D02*
X026010Y040792D01*
X026010Y040282D02*
X025574Y040282D01*
X025574Y040792D01*
X026010Y040792D01*
X026010Y040427D02*
X025574Y040427D01*
X025574Y040572D02*
X026010Y040572D01*
X026010Y040717D02*
X025574Y040717D01*
X026778Y040792D02*
X026778Y040282D01*
X026342Y040282D01*
X026342Y040792D01*
X026778Y040792D01*
X026778Y040427D02*
X026342Y040427D01*
X026342Y040572D02*
X026778Y040572D01*
X026778Y040717D02*
X026342Y040717D01*
X026778Y041503D02*
X026778Y042013D01*
X026778Y041503D02*
X026342Y041503D01*
X026342Y042013D01*
X026778Y042013D01*
X026778Y041648D02*
X026342Y041648D01*
X026342Y041793D02*
X026778Y041793D01*
X026778Y041938D02*
X026342Y041938D01*
X026010Y042013D02*
X026010Y041503D01*
X025574Y041503D01*
X025574Y042013D01*
X026010Y042013D01*
X026010Y041648D02*
X025574Y041648D01*
X025574Y041793D02*
X026010Y041793D01*
X026010Y041938D02*
X025574Y041938D01*
X028087Y037871D02*
X028597Y037871D01*
X028597Y037435D01*
X028087Y037435D01*
X028087Y037871D01*
X028087Y037580D02*
X028597Y037580D01*
X028597Y037725D02*
X028087Y037725D01*
X028087Y037870D02*
X028597Y037870D01*
X028597Y037104D02*
X028087Y037104D01*
X028597Y037104D02*
X028597Y036668D01*
X028087Y036668D01*
X028087Y037104D01*
X028087Y036813D02*
X028597Y036813D01*
X028597Y036958D02*
X028087Y036958D01*
X028087Y037103D02*
X028597Y037103D01*
X015319Y029414D02*
X015319Y028904D01*
X015319Y029414D02*
X015755Y029414D01*
X015755Y028904D01*
X015319Y028904D01*
X015319Y029049D02*
X015755Y029049D01*
X015755Y029194D02*
X015319Y029194D01*
X015319Y029339D02*
X015755Y029339D01*
X014551Y029414D02*
X014551Y028904D01*
X014551Y029414D02*
X014987Y029414D01*
X014987Y028904D01*
X014551Y028904D01*
X014551Y029049D02*
X014987Y029049D01*
X014987Y029194D02*
X014551Y029194D01*
X014551Y029339D02*
X014987Y029339D01*
D30*
X028173Y026359D02*
X028173Y025463D01*
X028173Y026359D02*
X028675Y026359D01*
X028675Y025463D01*
X028173Y025463D01*
X028173Y025629D02*
X028675Y025629D01*
X028675Y025795D02*
X028173Y025795D01*
X028173Y025961D02*
X028675Y025961D01*
X028675Y026127D02*
X028173Y026127D01*
X028173Y026293D02*
X028675Y026293D01*
X029173Y026359D02*
X029173Y025463D01*
X029173Y026359D02*
X029675Y026359D01*
X029675Y025463D01*
X029173Y025463D01*
X029173Y025629D02*
X029675Y025629D01*
X029675Y025795D02*
X029173Y025795D01*
X029173Y025961D02*
X029675Y025961D01*
X029675Y026127D02*
X029173Y026127D01*
X029173Y026293D02*
X029675Y026293D01*
X030173Y026359D02*
X030173Y025463D01*
X030173Y026359D02*
X030675Y026359D01*
X030675Y025463D01*
X030173Y025463D01*
X030173Y025629D02*
X030675Y025629D01*
X030675Y025795D02*
X030173Y025795D01*
X030173Y025961D02*
X030675Y025961D01*
X030675Y026127D02*
X030173Y026127D01*
X030173Y026293D02*
X030675Y026293D01*
X032504Y026359D02*
X032504Y025463D01*
X032504Y026359D02*
X033006Y026359D01*
X033006Y025463D01*
X032504Y025463D01*
X032504Y025629D02*
X033006Y025629D01*
X033006Y025795D02*
X032504Y025795D01*
X032504Y025961D02*
X033006Y025961D01*
X033006Y026127D02*
X032504Y026127D01*
X032504Y026293D02*
X033006Y026293D01*
X033504Y026359D02*
X033504Y025463D01*
X033504Y026359D02*
X034006Y026359D01*
X034006Y025463D01*
X033504Y025463D01*
X033504Y025629D02*
X034006Y025629D01*
X034006Y025795D02*
X033504Y025795D01*
X033504Y025961D02*
X034006Y025961D01*
X034006Y026127D02*
X033504Y026127D01*
X033504Y026293D02*
X034006Y026293D01*
X034504Y026359D02*
X034504Y025463D01*
X034504Y026359D02*
X035006Y026359D01*
X035006Y025463D01*
X034504Y025463D01*
X034504Y025629D02*
X035006Y025629D01*
X035006Y025795D02*
X034504Y025795D01*
X034504Y025961D02*
X035006Y025961D01*
X035006Y026127D02*
X034504Y026127D01*
X034504Y026293D02*
X035006Y026293D01*
X034504Y021438D02*
X034504Y020542D01*
X034504Y021438D02*
X035006Y021438D01*
X035006Y020542D01*
X034504Y020542D01*
X034504Y020708D02*
X035006Y020708D01*
X035006Y020874D02*
X034504Y020874D01*
X034504Y021040D02*
X035006Y021040D01*
X035006Y021206D02*
X034504Y021206D01*
X034504Y021372D02*
X035006Y021372D01*
X033504Y021438D02*
X033504Y020542D01*
X033504Y021438D02*
X034006Y021438D01*
X034006Y020542D01*
X033504Y020542D01*
X033504Y020708D02*
X034006Y020708D01*
X034006Y020874D02*
X033504Y020874D01*
X033504Y021040D02*
X034006Y021040D01*
X034006Y021206D02*
X033504Y021206D01*
X033504Y021372D02*
X034006Y021372D01*
X032504Y021438D02*
X032504Y020542D01*
X032504Y021438D02*
X033006Y021438D01*
X033006Y020542D01*
X032504Y020542D01*
X032504Y020708D02*
X033006Y020708D01*
X033006Y020874D02*
X032504Y020874D01*
X032504Y021040D02*
X033006Y021040D01*
X033006Y021206D02*
X032504Y021206D01*
X032504Y021372D02*
X033006Y021372D01*
X030173Y021438D02*
X030173Y020542D01*
X030173Y021438D02*
X030675Y021438D01*
X030675Y020542D01*
X030173Y020542D01*
X030173Y020708D02*
X030675Y020708D01*
X030675Y020874D02*
X030173Y020874D01*
X030173Y021040D02*
X030675Y021040D01*
X030675Y021206D02*
X030173Y021206D01*
X030173Y021372D02*
X030675Y021372D01*
X029173Y021438D02*
X029173Y020542D01*
X029173Y021438D02*
X029675Y021438D01*
X029675Y020542D01*
X029173Y020542D01*
X029173Y020708D02*
X029675Y020708D01*
X029675Y020874D02*
X029173Y020874D01*
X029173Y021040D02*
X029675Y021040D01*
X029675Y021206D02*
X029173Y021206D01*
X029173Y021372D02*
X029675Y021372D01*
X028173Y021438D02*
X028173Y020542D01*
X028173Y021438D02*
X028675Y021438D01*
X028675Y020542D01*
X028173Y020542D01*
X028173Y020708D02*
X028675Y020708D01*
X028675Y020874D02*
X028173Y020874D01*
X028173Y021040D02*
X028675Y021040D01*
X028675Y021206D02*
X028173Y021206D01*
X028173Y021372D02*
X028675Y021372D01*
D31*
X026086Y037033D03*
D32*
X024917Y041836D02*
X024917Y042388D01*
X024917Y041836D02*
X024443Y041836D01*
X024443Y042388D01*
X024917Y042388D01*
X024917Y041992D02*
X024443Y041992D01*
X024443Y042148D02*
X024917Y042148D01*
X024917Y042304D02*
X024443Y042304D01*
X023972Y042388D02*
X023972Y041836D01*
X023498Y041836D01*
X023498Y042388D01*
X023972Y042388D01*
X023972Y041992D02*
X023498Y041992D01*
X023498Y042148D02*
X023972Y042148D01*
X023972Y042304D02*
X023498Y042304D01*
X023972Y043489D02*
X023972Y044041D01*
X023972Y043489D02*
X023498Y043489D01*
X023498Y044041D01*
X023972Y044041D01*
X023972Y043645D02*
X023498Y043645D01*
X023498Y043801D02*
X023972Y043801D01*
X023972Y043957D02*
X023498Y043957D01*
X024917Y044041D02*
X024917Y043489D01*
X024443Y043489D01*
X024443Y044041D01*
X024917Y044041D01*
X024917Y043645D02*
X024443Y043645D01*
X024443Y043801D02*
X024917Y043801D01*
X024917Y043957D02*
X024443Y043957D01*
D33*
X023420Y047269D03*
X023420Y048450D03*
X022436Y048474D03*
X022436Y047269D03*
X022830Y049632D03*
X023617Y049632D03*
X024405Y049632D03*
X025192Y049632D03*
X026373Y048450D03*
X026373Y047663D03*
X030507Y047663D03*
X030507Y046679D03*
X022582Y035305D03*
X037279Y024986D03*
X014956Y056128D03*
X014956Y056876D03*
X013696Y056915D03*
X013696Y056128D03*
D34*
X013386Y033455D02*
X015738Y033455D01*
X013386Y033455D02*
X013386Y034075D01*
X015738Y034075D01*
X015738Y033455D01*
X015738Y033661D02*
X013386Y033661D01*
X013386Y033867D02*
X015738Y033867D01*
X015738Y034073D02*
X013386Y034073D01*
X013386Y031723D02*
X015738Y031723D01*
X013386Y031723D02*
X013386Y032343D01*
X015738Y032343D01*
X015738Y031723D01*
X015738Y031929D02*
X013386Y031929D01*
X013386Y032135D02*
X015738Y032135D01*
X015738Y032341D02*
X013386Y032341D01*
D35*
X027426Y040901D02*
X028706Y040901D01*
X027426Y040901D02*
X027426Y041433D01*
X028706Y041433D01*
X028706Y040901D01*
X028706Y041077D02*
X027426Y041077D01*
X027426Y041253D02*
X028706Y041253D01*
X028706Y041429D02*
X027426Y041429D01*
X029552Y040901D02*
X030832Y040901D01*
X029552Y040901D02*
X029552Y041433D01*
X030832Y041433D01*
X030832Y040901D01*
X030832Y041077D02*
X029552Y041077D01*
X029552Y041253D02*
X030832Y041253D01*
X030832Y041429D02*
X029552Y041429D01*
X036482Y041787D02*
X036482Y043067D01*
X036482Y041787D02*
X035950Y041787D01*
X035950Y043067D01*
X036482Y043067D01*
X036482Y041963D02*
X035950Y041963D01*
X035950Y042139D02*
X036482Y042139D01*
X036482Y042315D02*
X035950Y042315D01*
X035950Y042491D02*
X036482Y042491D01*
X036482Y042667D02*
X035950Y042667D01*
X035950Y042843D02*
X036482Y042843D01*
X036482Y043019D02*
X035950Y043019D01*
X036482Y040941D02*
X036482Y039661D01*
X035950Y039661D01*
X035950Y040941D01*
X036482Y040941D01*
X036482Y039837D02*
X035950Y039837D01*
X035950Y040013D02*
X036482Y040013D01*
X036482Y040189D02*
X035950Y040189D01*
X035950Y040365D02*
X036482Y040365D01*
X036482Y040541D02*
X035950Y040541D01*
X035950Y040717D02*
X036482Y040717D01*
X036482Y040893D02*
X035950Y040893D01*
D36*
X031604Y055562D02*
X030984Y055562D01*
X030984Y055946D01*
X031604Y055946D01*
X031604Y055562D01*
X031604Y055689D02*
X030984Y055689D01*
X030984Y055816D02*
X031604Y055816D01*
X031604Y055943D02*
X030984Y055943D01*
X030984Y056703D02*
X031604Y056703D01*
X030984Y056703D02*
X030984Y057087D01*
X031604Y057087D01*
X031604Y056703D01*
X031604Y056830D02*
X030984Y056830D01*
X030984Y056957D02*
X031604Y056957D01*
X031604Y057084D02*
X030984Y057084D01*
D37*
X016747Y043647D03*
X013991Y043647D03*
X018224Y022958D03*
X018224Y020202D03*
X022672Y020202D03*
X022672Y022958D03*
X027121Y022958D03*
X027121Y020202D03*
X031570Y020202D03*
X031570Y022958D03*
X036019Y022958D03*
X036019Y020202D03*
D38*
X020665Y027388D03*
D39*
X020665Y028175D03*
X021452Y028175D03*
X021452Y027388D03*
X022239Y027388D03*
X022239Y028175D03*
X023027Y028175D03*
X023027Y027388D03*
X023814Y027388D03*
X023814Y028175D03*
X024602Y028175D03*
X024602Y027388D03*
X025389Y027388D03*
X025389Y028175D03*
X026176Y028175D03*
X026176Y027388D03*
D40*
X022731Y032702D03*
X020684Y056925D03*
X020074Y057693D03*
X019464Y056925D03*
X017928Y056925D03*
X017318Y057693D03*
X016708Y056925D03*
D41*
X015743Y022860D03*
X015743Y021088D03*
D42*
X021649Y043923D03*
X022751Y056305D03*
X024483Y056305D03*
D43*
X018696Y046187D03*
X014464Y051994D03*
D44*
X015448Y051994D03*
X015448Y052978D03*
X015448Y053962D03*
X014464Y053962D03*
X014464Y052978D03*
X016728Y047171D03*
X016728Y046187D03*
X017712Y046187D03*
X017712Y047171D03*
X018696Y047171D03*
D45*
X015468Y045852D03*
X014129Y055222D03*
D46*
X015783Y050734D03*
X019956Y047506D03*
D47*
X023716Y032702D03*
D48*
X018893Y031325D03*
X018105Y031325D03*
X017318Y031325D03*
X016531Y031325D03*
X015743Y030340D03*
X015153Y030340D03*
X014956Y035065D03*
X015743Y035065D03*
X015625Y036718D03*
X016294Y036718D03*
X015940Y037348D03*
X014168Y035065D03*
X018184Y037191D03*
X018184Y037821D03*
X018184Y038411D03*
X018854Y038411D03*
X018854Y037821D03*
X018854Y037230D03*
X022042Y039592D03*
X023420Y039592D03*
X022594Y042151D03*
X025428Y043647D03*
X027279Y045813D03*
X025389Y046954D03*
X023814Y046482D03*
X027554Y043332D03*
X029208Y044513D03*
X028932Y046206D03*
X026452Y050813D03*
X027948Y054356D03*
X025743Y056325D03*
X021649Y056325D03*
X030507Y056718D03*
X032003Y056010D03*
D49*
X032476Y045301D03*
X033066Y044907D03*
X033066Y042939D03*
X031885Y042939D03*
X030743Y044828D03*
X028342Y040380D03*
X032082Y039080D03*
X033854Y040065D03*
X035428Y040458D03*
X034917Y038175D03*
X034838Y034277D03*
X034641Y032899D03*
X034641Y031915D03*
X035035Y029356D03*
X032672Y026797D03*
X028539Y025025D03*
X029287Y019947D03*
X033735Y019947D03*
X026964Y031915D03*
X024168Y040340D03*
X024011Y041010D03*
X019680Y042545D03*
X015940Y043136D03*
X015546Y041167D03*
X013381Y030340D03*
X022042Y021285D03*
X023027Y021285D03*
X020546Y054041D03*
D50*
X017515Y053175D03*
X036413Y053175D03*
X036413Y027584D03*
X014365Y027191D03*
M02*
