G75*
%MOIN*%
%OFA0B0*%
%FSLAX24Y24*%
%IPPOS*%
%LPD*%
%AMOC8*
5,1,8,0,0,1.08239X$1,22.5*
%
%ADD10C,0.0050*%
%ADD11C,0.0059*%
%ADD12C,0.0760*%
%ADD13R,0.0560X0.0560*%
%ADD14C,0.0560*%
%ADD15R,0.0709X0.0709*%
%ADD16R,0.0500X0.0500*%
%ADD17C,0.0197*%
%ADD18C,0.0148*%
%ADD19R,0.0472X0.0472*%
%ADD20C,0.0472*%
%ADD21C,0.0660*%
%ADD22C,0.0049*%
%ADD23R,0.0700X0.0700*%
%ADD24C,0.0700*%
%ADD25C,0.0860*%
%ADD26R,0.0660X0.0660*%
%ADD27C,0.0138*%
%ADD28C,0.0315*%
%ADD29C,0.0394*%
%ADD30C,0.0500*%
%ADD31C,0.0098*%
%ADD32C,0.0079*%
%ADD33C,0.0500*%
%ADD34C,0.0157*%
%ADD35C,0.0354*%
%ADD36C,0.0276*%
%ADD37C,0.0315*%
%ADD38C,0.0709*%
%ADD39C,0.2540*%
%ADD40C,0.0118*%
%ADD41C,0.0394*%
%ADD42C,0.0236*%
D10*
X033879Y018161D02*
X034179Y018161D01*
X034339Y018386D02*
X034639Y018386D01*
X034799Y018386D02*
X035100Y018386D01*
X035260Y018386D02*
X035485Y018386D01*
X035560Y018311D01*
X035560Y018236D01*
X035485Y018161D01*
X035260Y018161D01*
X035260Y018611D01*
X035485Y018611D01*
X035560Y018536D01*
X035560Y018461D01*
X035485Y018386D01*
X035720Y018536D02*
X035720Y018236D01*
X035795Y018161D01*
X035945Y018161D01*
X036020Y018236D01*
X036020Y018536D01*
X035945Y018611D01*
X035795Y018611D01*
X035720Y018536D01*
X036180Y018611D02*
X036481Y018611D01*
X036331Y018611D02*
X036331Y018161D01*
X036791Y018161D02*
X036791Y018611D01*
X036641Y018611D02*
X036941Y018611D01*
X037101Y018536D02*
X037101Y018236D01*
X037176Y018161D01*
X037326Y018161D01*
X037402Y018236D01*
X037402Y018536D01*
X037326Y018611D01*
X037176Y018611D01*
X037101Y018536D01*
X037562Y018611D02*
X037712Y018461D01*
X037862Y018611D01*
X037862Y018161D01*
X037562Y018161D02*
X037562Y018611D01*
X034564Y018611D02*
X034339Y018386D01*
X034564Y018161D02*
X034564Y018611D01*
X033879Y018611D02*
X033879Y018161D01*
X033889Y048082D02*
X033889Y048382D01*
X033739Y048532D01*
X033589Y048382D01*
X033589Y048082D01*
X033589Y048307D02*
X033889Y048307D01*
X034049Y048532D02*
X034049Y048082D01*
X034349Y048082D02*
X034349Y048532D01*
X034199Y048382D01*
X034049Y048532D01*
X034509Y048457D02*
X034509Y048382D01*
X034584Y048307D01*
X034810Y048307D01*
X034970Y048382D02*
X035045Y048307D01*
X035195Y048307D01*
X035270Y048382D01*
X035270Y048457D01*
X035195Y048532D01*
X035045Y048532D01*
X034970Y048457D01*
X034970Y048382D01*
X035045Y048307D02*
X034970Y048232D01*
X034970Y048157D01*
X035045Y048082D01*
X035195Y048082D01*
X035270Y048157D01*
X035270Y048232D01*
X035195Y048307D01*
X035430Y048307D02*
X035730Y048307D01*
X035730Y048382D02*
X035580Y048532D01*
X035430Y048382D01*
X035430Y048082D01*
X035730Y048082D02*
X035730Y048382D01*
X035890Y048532D02*
X036191Y048232D01*
X036116Y048307D02*
X035890Y048082D01*
X036191Y048082D02*
X036191Y048532D01*
X036041Y049066D02*
X035890Y049216D01*
X035890Y049516D01*
X035730Y049516D02*
X035730Y049066D01*
X035730Y049216D02*
X035430Y049516D01*
X035270Y049516D02*
X035270Y049291D01*
X035120Y049366D01*
X035045Y049366D01*
X034970Y049291D01*
X034970Y049141D01*
X035045Y049066D01*
X035195Y049066D01*
X035270Y049141D01*
X035430Y049066D02*
X035655Y049291D01*
X035270Y049516D02*
X034970Y049516D01*
X034810Y049516D02*
X034584Y049516D01*
X034509Y049441D01*
X034509Y049141D01*
X034584Y049066D01*
X034810Y049066D01*
X034810Y049516D01*
X034349Y049441D02*
X034349Y049141D01*
X034274Y049066D01*
X034124Y049066D01*
X034049Y049141D01*
X034049Y049291D01*
X034199Y049291D01*
X034049Y049441D02*
X034124Y049516D01*
X034274Y049516D01*
X034349Y049441D01*
X033889Y049516D02*
X033664Y049516D01*
X033589Y049441D01*
X033589Y049291D01*
X033664Y049216D01*
X033889Y049216D01*
X033889Y049066D02*
X033889Y049516D01*
X033739Y049216D02*
X033589Y049066D01*
X034509Y048457D02*
X034584Y048532D01*
X034810Y048532D01*
X034810Y048082D01*
X034584Y048082D01*
X034509Y048157D01*
X034509Y048232D01*
X034584Y048307D01*
X036041Y049066D02*
X036191Y049216D01*
X036191Y049516D01*
D11*
X012594Y058293D02*
X012594Y018923D01*
X038184Y018923D01*
X038184Y058293D01*
X012594Y058293D01*
D12*
X025086Y037230D03*
X033417Y056356D03*
X034417Y056356D03*
X035417Y056356D03*
D13*
X030192Y052494D03*
X028617Y049828D03*
X031661Y042151D03*
X020468Y032596D03*
X017318Y049041D03*
D14*
X017318Y050041D03*
X017318Y051041D03*
X028617Y048828D03*
X028617Y047828D03*
X030192Y051494D03*
X032661Y042151D03*
X020468Y033596D03*
D15*
X026086Y037230D03*
D16*
X022582Y035502D03*
X030507Y046876D03*
X030507Y047860D03*
X026373Y047860D03*
X026373Y048647D03*
X025192Y049828D03*
X024405Y049828D03*
X023617Y049828D03*
X022830Y049828D03*
X022436Y048671D03*
X022436Y047466D03*
X023420Y047466D03*
X023420Y048647D03*
X014956Y056325D03*
X014956Y057073D03*
X013696Y057112D03*
X013696Y056325D03*
X037279Y025183D03*
D17*
X036609Y024828D02*
X036609Y025616D01*
X036609Y024828D02*
X036019Y024828D01*
X036019Y025616D01*
X036609Y025616D01*
X036609Y025024D02*
X036019Y025024D01*
X036019Y025220D02*
X036609Y025220D01*
X036609Y025416D02*
X036019Y025416D01*
X036019Y025612D02*
X036609Y025612D01*
X035055Y023352D02*
X034267Y023352D01*
X034267Y023942D01*
X035055Y023942D01*
X035055Y023352D01*
X035055Y023548D02*
X034267Y023548D01*
X034267Y023744D02*
X035055Y023744D01*
X035055Y023940D02*
X034267Y023940D01*
X032160Y024828D02*
X032160Y025616D01*
X032160Y024828D02*
X031570Y024828D01*
X031570Y025616D01*
X032160Y025616D01*
X032160Y025024D02*
X031570Y025024D01*
X031570Y025220D02*
X032160Y025220D01*
X032160Y025416D02*
X031570Y025416D01*
X031570Y025612D02*
X032160Y025612D01*
X030606Y023352D02*
X029818Y023352D01*
X029818Y023942D01*
X030606Y023942D01*
X030606Y023352D01*
X030606Y023548D02*
X029818Y023548D01*
X029818Y023744D02*
X030606Y023744D01*
X030606Y023940D02*
X029818Y023940D01*
X027712Y024828D02*
X027712Y025616D01*
X027712Y024828D02*
X027122Y024828D01*
X027122Y025616D01*
X027712Y025616D01*
X027712Y025024D02*
X027122Y025024D01*
X027122Y025220D02*
X027712Y025220D01*
X027712Y025416D02*
X027122Y025416D01*
X027122Y025612D02*
X027712Y025612D01*
X027417Y025222D02*
X026216Y025222D01*
X025704Y025222D02*
X025704Y025025D01*
X025783Y024947D01*
X026491Y024238D01*
X026491Y024120D01*
X026491Y022506D01*
X026491Y021639D01*
X025901Y021049D01*
X025763Y020911D02*
X025763Y020006D01*
X026157Y019711D02*
X025369Y019711D01*
X025369Y020301D01*
X026157Y020301D01*
X026157Y019711D01*
X026157Y019907D02*
X025369Y019907D01*
X025369Y020103D02*
X026157Y020103D01*
X026157Y020299D02*
X025369Y020299D01*
X024425Y020419D02*
X023637Y020419D01*
X023637Y021009D01*
X024425Y021009D01*
X024425Y020419D01*
X024425Y020615D02*
X023637Y020615D01*
X023637Y020811D02*
X024425Y020811D01*
X024425Y021007D02*
X023637Y021007D01*
X021708Y019711D02*
X020920Y019711D01*
X020920Y020301D01*
X021708Y020301D01*
X021708Y019711D01*
X021708Y019907D02*
X020920Y019907D01*
X020920Y020103D02*
X021708Y020103D01*
X021708Y020299D02*
X020920Y020299D01*
X019976Y020419D02*
X019188Y020419D01*
X019188Y021009D01*
X019976Y021009D01*
X019976Y020419D01*
X019976Y020615D02*
X019188Y020615D01*
X019188Y020811D02*
X019976Y020811D01*
X019976Y021007D02*
X019188Y021007D01*
X020920Y023352D02*
X021708Y023352D01*
X020920Y023352D02*
X020920Y023942D01*
X021708Y023942D01*
X021708Y023352D01*
X021708Y023548D02*
X020920Y023548D01*
X020920Y023744D02*
X021708Y023744D01*
X021708Y023940D02*
X020920Y023940D01*
X023263Y024828D02*
X023263Y025616D01*
X023263Y024828D02*
X022673Y024828D01*
X022673Y025616D01*
X023263Y025616D01*
X023263Y025024D02*
X022673Y025024D01*
X022673Y025220D02*
X023263Y025220D01*
X023263Y025416D02*
X022673Y025416D01*
X022673Y025612D02*
X023263Y025612D01*
X025369Y023352D02*
X026157Y023352D01*
X025369Y023352D02*
X025369Y023942D01*
X026157Y023942D01*
X026157Y023352D01*
X026157Y023548D02*
X025369Y023548D01*
X025369Y023744D02*
X026157Y023744D01*
X026157Y023940D02*
X025369Y023940D01*
X028086Y020419D02*
X028874Y020419D01*
X028086Y020419D02*
X028086Y021009D01*
X028874Y021009D01*
X028874Y020419D01*
X028874Y020615D02*
X028086Y020615D01*
X028086Y020811D02*
X028874Y020811D01*
X028874Y021007D02*
X028086Y021007D01*
X029818Y019711D02*
X030606Y019711D01*
X029818Y019711D02*
X029818Y020301D01*
X030606Y020301D01*
X030606Y019711D01*
X030606Y019907D02*
X029818Y019907D01*
X029818Y020103D02*
X030606Y020103D01*
X030606Y020299D02*
X029818Y020299D01*
X032534Y020419D02*
X033322Y020419D01*
X032534Y020419D02*
X032534Y021009D01*
X033322Y021009D01*
X033322Y020419D01*
X033322Y020615D02*
X032534Y020615D01*
X032534Y020811D02*
X033322Y020811D01*
X033322Y021007D02*
X032534Y021007D01*
X034267Y019711D02*
X035055Y019711D01*
X034267Y019711D02*
X034267Y020301D01*
X035055Y020301D01*
X035055Y019711D01*
X035055Y019907D02*
X034267Y019907D01*
X034267Y020103D02*
X035055Y020103D01*
X035055Y020299D02*
X034267Y020299D01*
X036983Y020419D02*
X037771Y020419D01*
X036983Y020419D02*
X036983Y021009D01*
X037771Y021009D01*
X037771Y020419D01*
X037771Y020615D02*
X036983Y020615D01*
X036983Y020811D02*
X037771Y020811D01*
X037771Y021007D02*
X036983Y021007D01*
X019208Y043254D02*
X018420Y043254D01*
X018420Y043844D01*
X019208Y043844D01*
X019208Y043254D01*
X019208Y043450D02*
X018420Y043450D01*
X018420Y043646D02*
X019208Y043646D01*
X019208Y043842D02*
X018420Y043842D01*
X016944Y044808D02*
X016944Y045596D01*
X017534Y045596D01*
X017534Y044808D01*
X016944Y044808D01*
X016944Y045004D02*
X017534Y045004D01*
X017534Y045200D02*
X016944Y045200D01*
X016944Y045396D02*
X017534Y045396D01*
X017534Y045592D02*
X016944Y045592D01*
X017239Y045202D02*
X016354Y045202D01*
X016137Y045419D01*
X015113Y045419D01*
X014995Y045537D01*
X014917Y045616D01*
X014602Y045616D01*
X014602Y046128D02*
X014031Y046128D01*
X013598Y045695D01*
X013303Y045596D02*
X013303Y044808D01*
X013303Y045596D02*
X013893Y045596D01*
X013893Y044808D01*
X013303Y044808D01*
X013303Y045004D02*
X013893Y045004D01*
X013893Y045200D02*
X013303Y045200D01*
X013303Y045396D02*
X013893Y045396D01*
X013893Y045592D02*
X013303Y045592D01*
X014011Y042880D02*
X014011Y042092D01*
X014011Y042880D02*
X014601Y042880D01*
X014601Y042092D01*
X014011Y042092D01*
X014011Y042288D02*
X014601Y042288D01*
X014601Y042484D02*
X014011Y042484D01*
X014011Y042680D02*
X014601Y042680D01*
X014601Y042876D02*
X014011Y042876D01*
X022160Y055123D02*
X022160Y055911D01*
X022160Y055123D02*
X021570Y055123D01*
X021570Y055911D01*
X022160Y055911D01*
X022160Y055319D02*
X021570Y055319D01*
X021570Y055515D02*
X022160Y055515D01*
X022160Y055711D02*
X021570Y055711D01*
X021570Y055907D02*
X022160Y055907D01*
X022160Y057289D02*
X022160Y058077D01*
X022160Y057289D02*
X021570Y057289D01*
X021570Y058077D01*
X022160Y058077D01*
X022160Y057485D02*
X021570Y057485D01*
X021570Y057681D02*
X022160Y057681D01*
X022160Y057877D02*
X021570Y057877D01*
X021570Y058073D02*
X022160Y058073D01*
X024247Y055478D02*
X024582Y055478D01*
X024621Y055517D01*
X024818Y055517D01*
X025369Y055517D01*
X025664Y055911D02*
X025664Y055123D01*
X025074Y055123D01*
X025074Y055911D01*
X025664Y055911D01*
X025664Y055319D02*
X025074Y055319D01*
X025074Y055515D02*
X025664Y055515D01*
X025664Y055711D02*
X025074Y055711D01*
X025074Y055907D02*
X025664Y055907D01*
X025664Y057289D02*
X025664Y058077D01*
X025664Y057289D02*
X025074Y057289D01*
X025074Y058077D01*
X025664Y058077D01*
X025664Y057485D02*
X025074Y057485D01*
X025074Y057681D02*
X025664Y057681D01*
X025664Y057877D02*
X025074Y057877D01*
X025074Y058073D02*
X025664Y058073D01*
X018814Y025616D02*
X018814Y024828D01*
X018224Y024828D01*
X018224Y025616D01*
X018814Y025616D01*
X018814Y025024D02*
X018224Y025024D01*
X018224Y025220D02*
X018814Y025220D01*
X018814Y025416D02*
X018224Y025416D01*
X018224Y025612D02*
X018814Y025612D01*
X017259Y023352D02*
X016471Y023352D01*
X016471Y023942D01*
X017259Y023942D01*
X017259Y023352D01*
X017259Y023548D02*
X016471Y023548D01*
X016471Y023744D02*
X017259Y023744D01*
X017259Y023940D02*
X016471Y023940D01*
X016865Y023647D02*
X016865Y023273D01*
X016452Y022860D01*
X016452Y022663D01*
X016471Y019711D02*
X017259Y019711D01*
X016471Y019711D02*
X016471Y020301D01*
X017259Y020301D01*
X017259Y019711D01*
X017259Y019907D02*
X016471Y019907D01*
X016471Y020103D02*
X017259Y020103D01*
X017259Y020299D02*
X016471Y020299D01*
D18*
X019164Y019872D02*
X020000Y019872D01*
X020000Y019430D01*
X019164Y019430D01*
X019164Y019872D01*
X019164Y019577D02*
X020000Y019577D01*
X020000Y019724D02*
X019164Y019724D01*
X019164Y019871D02*
X020000Y019871D01*
X023613Y019872D02*
X024449Y019872D01*
X024449Y019430D01*
X023613Y019430D01*
X023613Y019872D01*
X023613Y019577D02*
X024449Y019577D01*
X024449Y019724D02*
X023613Y019724D01*
X023613Y019871D02*
X024449Y019871D01*
X028062Y019872D02*
X028898Y019872D01*
X028898Y019430D01*
X028062Y019430D01*
X028062Y019872D01*
X028062Y019577D02*
X028898Y019577D01*
X028898Y019724D02*
X028062Y019724D01*
X028062Y019871D02*
X028898Y019871D01*
X032510Y019872D02*
X033346Y019872D01*
X033346Y019430D01*
X032510Y019430D01*
X032510Y019872D01*
X032510Y019577D02*
X033346Y019577D01*
X033346Y019724D02*
X032510Y019724D01*
X032510Y019871D02*
X033346Y019871D01*
X036959Y019872D02*
X037795Y019872D01*
X037795Y019430D01*
X036959Y019430D01*
X036959Y019872D01*
X036959Y019577D02*
X037795Y019577D01*
X037795Y019724D02*
X036959Y019724D01*
X036959Y019871D02*
X037795Y019871D01*
X013464Y042068D02*
X013464Y042904D01*
X013464Y042068D02*
X013022Y042068D01*
X013022Y042904D01*
X013464Y042904D01*
X013464Y042215D02*
X013022Y042215D01*
X013022Y042362D02*
X013464Y042362D01*
X013464Y042509D02*
X013022Y042509D01*
X013022Y042656D02*
X013464Y042656D01*
X013464Y042803D02*
X013022Y042803D01*
D19*
X020665Y027584D03*
D20*
X021452Y027584D03*
X021452Y028372D03*
X020665Y028372D03*
X022239Y028372D03*
X022239Y027584D03*
X023027Y027584D03*
X023027Y028372D03*
X023814Y028372D03*
X024602Y028372D03*
X024602Y027584D03*
X023814Y027584D03*
X025389Y027584D03*
X026176Y027584D03*
X026176Y028372D03*
X025389Y028372D03*
D21*
X022731Y032899D03*
X020684Y057122D03*
X020074Y057889D03*
X019464Y057122D03*
X017928Y057122D03*
X017318Y057889D03*
X016708Y057122D03*
D22*
X023061Y055907D02*
X023061Y055049D01*
X022913Y055049D01*
X022913Y055907D01*
X023061Y055907D01*
X023061Y055097D02*
X022913Y055097D01*
X022913Y055145D02*
X023061Y055145D01*
X023061Y055193D02*
X022913Y055193D01*
X022913Y055241D02*
X023061Y055241D01*
X023061Y055289D02*
X022913Y055289D01*
X022913Y055337D02*
X023061Y055337D01*
X023061Y055385D02*
X022913Y055385D01*
X022913Y055433D02*
X023061Y055433D01*
X023061Y055481D02*
X022913Y055481D01*
X022913Y055529D02*
X023061Y055529D01*
X023061Y055577D02*
X022913Y055577D01*
X022913Y055625D02*
X023061Y055625D01*
X023061Y055673D02*
X022913Y055673D01*
X022913Y055721D02*
X023061Y055721D01*
X023061Y055769D02*
X022913Y055769D01*
X022913Y055817D02*
X023061Y055817D01*
X023061Y055865D02*
X022913Y055865D01*
X023376Y055907D02*
X023376Y055049D01*
X023228Y055049D01*
X023228Y055907D01*
X023376Y055907D01*
X023376Y055097D02*
X023228Y055097D01*
X023228Y055145D02*
X023376Y055145D01*
X023376Y055193D02*
X023228Y055193D01*
X023228Y055241D02*
X023376Y055241D01*
X023376Y055289D02*
X023228Y055289D01*
X023228Y055337D02*
X023376Y055337D01*
X023376Y055385D02*
X023228Y055385D01*
X023228Y055433D02*
X023376Y055433D01*
X023376Y055481D02*
X023228Y055481D01*
X023228Y055529D02*
X023376Y055529D01*
X023376Y055577D02*
X023228Y055577D01*
X023228Y055625D02*
X023376Y055625D01*
X023376Y055673D02*
X023228Y055673D01*
X023228Y055721D02*
X023376Y055721D01*
X023376Y055769D02*
X023228Y055769D01*
X023228Y055817D02*
X023376Y055817D01*
X023376Y055865D02*
X023228Y055865D01*
X023691Y055907D02*
X023691Y055049D01*
X023543Y055049D01*
X023543Y055907D01*
X023691Y055907D01*
X023691Y055097D02*
X023543Y055097D01*
X023543Y055145D02*
X023691Y055145D01*
X023691Y055193D02*
X023543Y055193D01*
X023543Y055241D02*
X023691Y055241D01*
X023691Y055289D02*
X023543Y055289D01*
X023543Y055337D02*
X023691Y055337D01*
X023691Y055385D02*
X023543Y055385D01*
X023543Y055433D02*
X023691Y055433D01*
X023691Y055481D02*
X023543Y055481D01*
X023543Y055529D02*
X023691Y055529D01*
X023691Y055577D02*
X023543Y055577D01*
X023543Y055625D02*
X023691Y055625D01*
X023691Y055673D02*
X023543Y055673D01*
X023543Y055721D02*
X023691Y055721D01*
X023691Y055769D02*
X023543Y055769D01*
X023543Y055817D02*
X023691Y055817D01*
X023691Y055865D02*
X023543Y055865D01*
X024006Y055907D02*
X024006Y055049D01*
X023858Y055049D01*
X023858Y055907D01*
X024006Y055907D01*
X024006Y055097D02*
X023858Y055097D01*
X023858Y055145D02*
X024006Y055145D01*
X024006Y055193D02*
X023858Y055193D01*
X023858Y055241D02*
X024006Y055241D01*
X024006Y055289D02*
X023858Y055289D01*
X023858Y055337D02*
X024006Y055337D01*
X024006Y055385D02*
X023858Y055385D01*
X023858Y055433D02*
X024006Y055433D01*
X024006Y055481D02*
X023858Y055481D01*
X023858Y055529D02*
X024006Y055529D01*
X024006Y055577D02*
X023858Y055577D01*
X023858Y055625D02*
X024006Y055625D01*
X024006Y055673D02*
X023858Y055673D01*
X023858Y055721D02*
X024006Y055721D01*
X024006Y055769D02*
X023858Y055769D01*
X023858Y055817D02*
X024006Y055817D01*
X024006Y055865D02*
X023858Y055865D01*
X024321Y055907D02*
X024321Y055049D01*
X024173Y055049D01*
X024173Y055907D01*
X024321Y055907D01*
X024321Y055097D02*
X024173Y055097D01*
X024173Y055145D02*
X024321Y055145D01*
X024321Y055193D02*
X024173Y055193D01*
X024173Y055241D02*
X024321Y055241D01*
X024321Y055289D02*
X024173Y055289D01*
X024173Y055337D02*
X024321Y055337D01*
X024321Y055385D02*
X024173Y055385D01*
X024173Y055433D02*
X024321Y055433D01*
X024321Y055481D02*
X024173Y055481D01*
X024173Y055529D02*
X024321Y055529D01*
X024321Y055577D02*
X024173Y055577D01*
X024173Y055625D02*
X024321Y055625D01*
X024321Y055673D02*
X024173Y055673D01*
X024173Y055721D02*
X024321Y055721D01*
X024321Y055769D02*
X024173Y055769D01*
X024173Y055817D02*
X024321Y055817D01*
X024321Y055865D02*
X024173Y055865D01*
X014676Y046242D02*
X014676Y046014D01*
X014528Y046014D01*
X014528Y046242D01*
X014676Y046242D01*
X014676Y046062D02*
X014528Y046062D01*
X014528Y046110D02*
X014676Y046110D01*
X014676Y046158D02*
X014528Y046158D01*
X014528Y046206D02*
X014676Y046206D01*
X014676Y045730D02*
X014676Y045502D01*
X014528Y045502D01*
X014528Y045730D01*
X014676Y045730D01*
X014676Y045550D02*
X014528Y045550D01*
X014528Y045598D02*
X014676Y045598D01*
X014676Y045646D02*
X014528Y045646D01*
X014528Y045694D02*
X014676Y045694D01*
X025590Y025296D02*
X025818Y025296D01*
X025818Y025148D01*
X025590Y025148D01*
X025590Y025296D01*
X025590Y025196D02*
X025818Y025196D01*
X025818Y025244D02*
X025590Y025244D01*
X025590Y025292D02*
X025818Y025292D01*
X026102Y025296D02*
X026330Y025296D01*
X026330Y025148D01*
X026102Y025148D01*
X026102Y025296D01*
X026102Y025196D02*
X026330Y025196D01*
X026330Y025244D02*
X026102Y025244D01*
X026102Y025292D02*
X026330Y025292D01*
X029646Y022226D02*
X029646Y021998D01*
X029646Y022226D02*
X029794Y022226D01*
X029794Y021998D01*
X029646Y021998D01*
X029646Y022046D02*
X029794Y022046D01*
X029794Y022094D02*
X029646Y022094D01*
X029646Y022142D02*
X029794Y022142D01*
X029794Y022190D02*
X029646Y022190D01*
X029646Y021714D02*
X029646Y021486D01*
X029646Y021714D02*
X029794Y021714D01*
X029794Y021486D01*
X029646Y021486D01*
X029646Y021534D02*
X029794Y021534D01*
X029794Y021582D02*
X029646Y021582D01*
X029646Y021630D02*
X029794Y021630D01*
X029794Y021678D02*
X029646Y021678D01*
X033976Y021714D02*
X033976Y021486D01*
X033976Y021714D02*
X034124Y021714D01*
X034124Y021486D01*
X033976Y021486D01*
X033976Y021534D02*
X034124Y021534D01*
X034124Y021582D02*
X033976Y021582D01*
X033976Y021630D02*
X034124Y021630D01*
X034124Y021678D02*
X033976Y021678D01*
X033976Y021998D02*
X033976Y022226D01*
X034124Y022226D01*
X034124Y021998D01*
X033976Y021998D01*
X033976Y022046D02*
X034124Y022046D01*
X034124Y022094D02*
X033976Y022094D01*
X033976Y022142D02*
X034124Y022142D01*
X034124Y022190D02*
X033976Y022190D01*
X016378Y022037D02*
X016378Y022265D01*
X016526Y022265D01*
X016526Y022037D01*
X016378Y022037D01*
X016378Y022085D02*
X016526Y022085D01*
X016526Y022133D02*
X016378Y022133D01*
X016378Y022181D02*
X016526Y022181D01*
X016526Y022229D02*
X016378Y022229D01*
X016378Y022549D02*
X016378Y022777D01*
X016526Y022777D01*
X016526Y022549D01*
X016378Y022549D01*
X016378Y022597D02*
X016526Y022597D01*
X016526Y022645D02*
X016378Y022645D01*
X016378Y022693D02*
X016526Y022693D01*
X016526Y022741D02*
X016378Y022741D01*
D23*
X018696Y046384D03*
X014464Y052191D03*
D24*
X014464Y053175D03*
X014464Y054159D03*
X015448Y054159D03*
X015448Y053175D03*
X015448Y052191D03*
X016728Y047368D03*
X017712Y047368D03*
X018696Y047368D03*
X017712Y046384D03*
X016728Y046384D03*
D25*
X015468Y046049D03*
X015783Y050931D03*
X014129Y055419D03*
X019956Y047702D03*
D26*
X023716Y032899D03*
D27*
X024946Y024129D02*
X024946Y023717D01*
X024258Y023717D01*
X024258Y024129D01*
X024946Y024129D01*
X024946Y023854D02*
X024258Y023854D01*
X024258Y023991D02*
X024946Y023991D01*
X024946Y024128D02*
X024258Y024128D01*
X024946Y022397D02*
X024946Y021985D01*
X024258Y021985D01*
X024258Y022397D01*
X024946Y022397D01*
X024946Y022122D02*
X024258Y022122D01*
X024258Y022259D02*
X024946Y022259D01*
X024946Y022396D02*
X024258Y022396D01*
X015103Y022003D02*
X015103Y021591D01*
X014415Y021591D01*
X014415Y022003D01*
X015103Y022003D01*
X015103Y021728D02*
X014415Y021728D01*
X014415Y021865D02*
X015103Y021865D01*
X015103Y022002D02*
X014415Y022002D01*
X015103Y023323D02*
X015103Y023735D01*
X015103Y023323D02*
X014415Y023323D01*
X014415Y023735D01*
X015103Y023735D01*
X015103Y023460D02*
X014415Y023460D01*
X014415Y023597D02*
X015103Y023597D01*
X015103Y023734D02*
X014415Y023734D01*
D28*
X021058Y024632D03*
X022239Y025222D03*
X023420Y024238D03*
X024602Y023923D03*
X025586Y024632D03*
X025586Y026403D03*
X027161Y026206D03*
X027751Y027584D03*
X026964Y027978D03*
X027357Y028569D03*
X026570Y029553D03*
X026649Y029947D03*
X027357Y031521D03*
X029523Y027978D03*
X031885Y028569D03*
X032279Y028765D03*
X032357Y029238D03*
X032672Y028175D03*
X032279Y027781D03*
X031885Y026403D03*
X034444Y024435D03*
X034641Y026994D03*
X034444Y029750D03*
X033460Y032702D03*
X034641Y036246D03*
X035822Y036246D03*
X034956Y037663D03*
X034050Y038214D03*
X032869Y038017D03*
X030310Y038214D03*
X030310Y036246D03*
X029917Y033884D03*
X030113Y032702D03*
X027554Y039592D03*
X026964Y042742D03*
X028145Y042939D03*
X028145Y043332D03*
X029129Y043332D03*
X025980Y046443D03*
X025586Y046679D03*
X024917Y046482D03*
X024208Y046443D03*
X023420Y046482D03*
X021649Y044907D03*
X021452Y046088D03*
X020980Y046010D03*
X020350Y046600D03*
X019680Y045065D03*
X018696Y045104D03*
X020586Y042112D03*
X022042Y038411D03*
X022042Y038017D03*
X023420Y040380D03*
X021452Y033293D03*
X016531Y038411D03*
X015350Y038844D03*
X016334Y044513D03*
X018184Y048647D03*
X018105Y050104D03*
X019562Y050183D03*
X019562Y050616D03*
X020113Y050616D03*
X020940Y051403D03*
X021452Y052191D03*
X022633Y052388D03*
X022830Y053175D03*
X023184Y052899D03*
X023617Y052269D03*
X024208Y053175D03*
X024602Y053372D03*
X024602Y053765D03*
X024208Y053962D03*
X024602Y054356D03*
X022830Y054356D03*
X022909Y053687D03*
X022042Y054080D03*
X019602Y054395D03*
X018539Y055143D03*
X022633Y057230D03*
X024602Y057230D03*
X026767Y057230D03*
X028932Y057230D03*
X026334Y053765D03*
X025783Y051010D03*
X024405Y049317D03*
X025586Y048450D03*
X025783Y047466D03*
X027830Y047860D03*
X027830Y050655D03*
X029129Y051010D03*
X028814Y052191D03*
X032476Y053372D03*
X033066Y053962D03*
X033460Y053372D03*
X034168Y054356D03*
X034050Y052191D03*
X035231Y052191D03*
X034641Y050616D03*
X032672Y050813D03*
X033657Y042545D03*
X033460Y041758D03*
X034405Y041758D03*
X035822Y038017D03*
X036413Y038214D03*
X037397Y032309D03*
X036609Y029553D03*
X027948Y024041D03*
X024247Y021403D03*
X024011Y019671D03*
X019680Y048647D03*
X021924Y049632D03*
X021964Y050025D03*
D29*
X023814Y046679D03*
X025389Y047151D03*
X027279Y046010D03*
X025428Y043844D03*
X027554Y043529D03*
X029208Y044710D03*
X028932Y046403D03*
X026452Y051010D03*
X027948Y054553D03*
X025743Y056521D03*
X021649Y056521D03*
X030507Y056915D03*
X032003Y056206D03*
X022594Y042348D03*
X022042Y039789D03*
X023420Y039789D03*
X018854Y038608D03*
X018854Y038017D03*
X018854Y037427D03*
X018184Y037388D03*
X018184Y038017D03*
X018184Y038608D03*
X016294Y036915D03*
X015625Y036915D03*
X015940Y037545D03*
X015743Y035262D03*
X014956Y035262D03*
X014168Y035262D03*
X016531Y031521D03*
X017318Y031521D03*
X018105Y031521D03*
X018893Y031521D03*
X015743Y030537D03*
X015153Y030537D03*
D30*
X013381Y030537D03*
X013972Y025616D03*
X014562Y025616D03*
X022042Y021482D03*
X023027Y021482D03*
X028539Y025222D03*
X029287Y020143D03*
X033735Y020143D03*
X032672Y026994D03*
X035035Y029553D03*
X034641Y032112D03*
X034641Y033096D03*
X034838Y034474D03*
X034917Y038372D03*
X033854Y040262D03*
X035428Y040655D03*
X033066Y043136D03*
X033066Y045104D03*
X032476Y045498D03*
X031885Y043136D03*
X030743Y045025D03*
X028342Y040576D03*
X032082Y039277D03*
X026964Y032112D03*
X024168Y040537D03*
X024011Y041206D03*
X019680Y042742D03*
X015940Y043332D03*
X015546Y041364D03*
X020546Y054238D03*
D31*
X019562Y050183D02*
X019365Y049986D01*
X019365Y049828D01*
X019365Y049868D01*
X019365Y049828D01*
X019365Y049002D01*
X019365Y048037D01*
X018696Y047368D01*
X018696Y046384D01*
X018696Y045104D01*
X016137Y045419D02*
X016137Y046876D01*
X015940Y047073D01*
X015940Y047466D01*
X016728Y048254D01*
X017515Y048254D01*
X017712Y048450D01*
X017830Y048569D01*
X017830Y049238D01*
X017830Y049356D01*
X017830Y049671D01*
X017830Y049828D01*
X018105Y050104D01*
X025389Y047151D02*
X025861Y047151D01*
X026216Y046797D01*
X028539Y046797D01*
X028932Y046403D01*
X026964Y045695D02*
X026216Y046443D01*
X025980Y046443D01*
X026964Y045695D02*
X026964Y042742D01*
X028617Y049828D02*
X028617Y050498D01*
X029129Y051010D01*
X022968Y025222D02*
X022239Y025222D01*
X025901Y021049D02*
X025763Y020911D01*
X029720Y021285D02*
X030212Y020793D01*
X030212Y020006D01*
X029720Y021285D02*
X029720Y021600D01*
X029720Y022112D02*
X029720Y022466D01*
X030212Y022958D01*
X030212Y023647D01*
X034050Y022466D02*
X034050Y022112D01*
X034050Y022466D02*
X034444Y022860D01*
X034661Y023076D01*
X034661Y023647D01*
X034050Y021600D02*
X034050Y021285D01*
X034444Y020891D01*
X034661Y020675D01*
X034661Y020006D01*
D32*
X034661Y023647D02*
X034661Y024218D01*
X034444Y024435D01*
X034641Y023667D02*
X034661Y023647D01*
X036314Y025222D02*
X036314Y025714D01*
X036216Y025813D01*
X034641Y027388D01*
X034247Y027388D01*
X032672Y027388D01*
X032279Y027781D01*
X032672Y028175D02*
X029917Y028175D01*
X029720Y028372D01*
X029326Y028372D01*
X029129Y028175D01*
X027279Y028175D01*
X027082Y028372D01*
X026176Y028372D01*
X025389Y028372D01*
X024995Y027978D02*
X026964Y027978D01*
X029523Y027978D01*
X028145Y028765D02*
X027751Y029159D01*
X021452Y029159D01*
X020665Y028372D01*
X020074Y028569D02*
X020861Y029356D01*
X025783Y029356D01*
X026373Y029947D01*
X026649Y029947D01*
X026570Y029553D02*
X026767Y029356D01*
X027948Y029356D01*
X031294Y029356D01*
X031491Y029553D01*
X034247Y029553D01*
X034444Y029750D01*
X034641Y029356D02*
X034838Y029159D01*
X035231Y029159D01*
X035625Y029553D01*
X036609Y029553D01*
X034641Y029356D02*
X032476Y029356D01*
X032357Y029238D01*
X032161Y028884D02*
X032279Y028765D01*
X032161Y028884D02*
X032042Y028884D01*
X031609Y028884D01*
X031491Y028765D01*
X028145Y028765D01*
X027948Y028569D02*
X027554Y028962D01*
X022042Y028962D01*
X021452Y028372D01*
X022239Y028372D02*
X022633Y028765D01*
X026767Y028765D01*
X026964Y028569D01*
X027357Y028569D01*
X027948Y028569D02*
X031885Y028569D01*
X031885Y026403D02*
X031885Y025832D01*
X031885Y025222D01*
X031865Y025222D01*
X030212Y023647D02*
X028342Y023647D01*
X027948Y024041D01*
X027417Y025222D02*
X027417Y025950D01*
X027161Y026206D01*
X026767Y027584D02*
X025586Y026403D01*
X025704Y025025D02*
X024483Y025025D01*
X024287Y025222D01*
X022633Y026876D01*
X022633Y027978D01*
X023027Y028372D01*
X023814Y028372D02*
X024602Y028372D01*
X024995Y027978D01*
X023814Y029553D02*
X025086Y030825D01*
X025086Y037230D01*
X023027Y037229D02*
X016924Y037229D01*
X016924Y037306D02*
X023027Y037306D01*
X023027Y037383D02*
X016924Y037383D01*
X016924Y037461D02*
X023027Y037461D01*
X023027Y037538D02*
X016924Y037538D01*
X016924Y037615D02*
X023027Y037615D01*
X023027Y037692D02*
X016924Y037692D01*
X016924Y037770D02*
X023027Y037770D01*
X023027Y037847D02*
X016924Y037847D01*
X016924Y037924D02*
X023027Y037924D01*
X023027Y038001D02*
X016924Y038001D01*
X016924Y038079D02*
X023027Y038079D01*
X023027Y038156D02*
X022233Y038156D01*
X022221Y038144D02*
X022310Y038233D01*
X023027Y038233D01*
X023027Y038310D02*
X022342Y038310D01*
X022357Y038348D02*
X022357Y038474D01*
X022318Y038569D01*
X022318Y039474D01*
X023027Y039474D01*
X023027Y035065D01*
X019483Y035065D01*
X019483Y033096D01*
X016334Y033096D01*
X016334Y033884D01*
X016809Y033884D01*
X016924Y033999D01*
X016924Y038178D01*
X016819Y038283D01*
X016846Y038348D01*
X016846Y038474D01*
X016798Y038590D01*
X016709Y038678D01*
X016593Y038726D01*
X016468Y038726D01*
X016352Y038678D01*
X016264Y038590D01*
X016216Y038474D01*
X016216Y038348D01*
X016239Y038293D01*
X015665Y038293D01*
X015665Y038907D01*
X015617Y039023D01*
X015528Y039111D01*
X015412Y039159D01*
X015287Y039159D01*
X015171Y039111D01*
X015083Y039023D01*
X015035Y038907D01*
X015035Y038217D01*
X014995Y038178D01*
X014995Y036049D01*
X012987Y036049D01*
X012987Y041836D01*
X013561Y041836D01*
X013696Y041972D01*
X013696Y042545D01*
X013755Y042545D01*
X013755Y042041D01*
X013794Y041947D01*
X013866Y041875D01*
X013960Y041836D01*
X014652Y041836D01*
X014747Y041875D01*
X014818Y041947D01*
X014857Y042041D01*
X014857Y042545D01*
X015231Y042545D01*
X015231Y041625D01*
X015201Y041595D01*
X015139Y041445D01*
X015139Y041283D01*
X015201Y041133D01*
X015316Y041018D01*
X015465Y040956D01*
X015627Y040956D01*
X015777Y041018D01*
X015892Y041133D01*
X015954Y041283D01*
X015954Y041445D01*
X015926Y041513D01*
X015952Y041502D01*
X016085Y041502D01*
X016208Y041553D01*
X016303Y041647D01*
X016354Y041770D01*
X016354Y041903D01*
X016303Y042026D01*
X016216Y042113D01*
X016216Y042345D01*
X016415Y042545D01*
X019008Y042545D01*
X019287Y042267D01*
X019402Y042151D01*
X020156Y042151D01*
X020352Y042348D01*
X020977Y042348D01*
X021117Y042208D01*
X021117Y042085D01*
X021168Y041962D01*
X021262Y041868D01*
X021385Y041817D01*
X021519Y041817D01*
X021642Y041868D01*
X021736Y041962D01*
X021787Y042085D01*
X021787Y042218D01*
X021736Y042341D01*
X021642Y042435D01*
X021519Y042486D01*
X021396Y042486D01*
X021337Y042545D01*
X023027Y042545D01*
X023027Y040104D01*
X022208Y040104D01*
X022113Y040143D01*
X021972Y040143D01*
X021842Y040089D01*
X021742Y039990D01*
X021688Y039860D01*
X021688Y039719D01*
X021742Y039588D01*
X021767Y039564D01*
X021767Y038569D01*
X021728Y038474D01*
X021728Y038348D01*
X021775Y038233D01*
X016869Y038233D01*
X016830Y038310D02*
X021743Y038310D01*
X021728Y038388D02*
X016846Y038388D01*
X016846Y038465D02*
X021728Y038465D01*
X021756Y038542D02*
X016817Y038542D01*
X016768Y038619D02*
X021767Y038619D01*
X021767Y038696D02*
X016665Y038696D01*
X016397Y038696D02*
X015665Y038696D01*
X015665Y038619D02*
X016293Y038619D01*
X016244Y038542D02*
X015665Y038542D01*
X015665Y038465D02*
X016216Y038465D01*
X016216Y038388D02*
X015665Y038388D01*
X015665Y038310D02*
X016232Y038310D01*
X016038Y037867D02*
X015973Y037880D01*
X015960Y037880D01*
X015960Y037565D01*
X015920Y037565D01*
X015920Y037525D01*
X015605Y037525D01*
X015605Y037512D01*
X015618Y037447D01*
X015644Y037386D01*
X015680Y037332D01*
X015727Y037285D01*
X015782Y037248D01*
X015843Y037223D01*
X015907Y037210D01*
X015920Y037210D01*
X015920Y037525D01*
X015960Y037525D01*
X015960Y037210D01*
X015973Y037210D01*
X016038Y037223D01*
X016099Y037248D01*
X016153Y037285D01*
X016200Y037332D01*
X016237Y037386D01*
X016262Y037447D01*
X016275Y037512D01*
X016275Y037525D01*
X015960Y037525D01*
X015960Y037565D01*
X016275Y037565D01*
X016275Y037578D01*
X016262Y037643D01*
X016237Y037704D01*
X016200Y037758D01*
X016153Y037805D01*
X016099Y037842D01*
X016038Y037867D01*
X016086Y037847D02*
X016728Y037847D01*
X016728Y037924D02*
X015192Y037924D01*
X015192Y037847D02*
X015794Y037847D01*
X015782Y037842D02*
X015727Y037805D01*
X015680Y037758D01*
X015644Y037704D01*
X015618Y037643D01*
X015605Y037578D01*
X015605Y037565D01*
X015920Y037565D01*
X015920Y037880D01*
X015907Y037880D01*
X015843Y037867D01*
X015782Y037842D01*
X015691Y037770D02*
X015192Y037770D01*
X015192Y037692D02*
X015639Y037692D01*
X015613Y037615D02*
X015192Y037615D01*
X015192Y037538D02*
X015920Y037538D01*
X015960Y037538D02*
X016728Y037538D01*
X016728Y037615D02*
X016267Y037615D01*
X016241Y037692D02*
X016728Y037692D01*
X016728Y037770D02*
X016189Y037770D01*
X015960Y037770D02*
X015920Y037770D01*
X015920Y037847D02*
X015960Y037847D01*
X015960Y037692D02*
X015920Y037692D01*
X015920Y037615D02*
X015960Y037615D01*
X015960Y037461D02*
X015920Y037461D01*
X015920Y037383D02*
X015960Y037383D01*
X015960Y037306D02*
X015920Y037306D01*
X015920Y037229D02*
X015960Y037229D01*
X016052Y037229D02*
X016178Y037229D01*
X016197Y037237D02*
X016136Y037212D01*
X016081Y037175D01*
X016035Y037128D01*
X015998Y037074D01*
X015973Y037013D01*
X015960Y036948D01*
X015960Y036935D01*
X016275Y036935D01*
X016275Y037250D01*
X016262Y037250D01*
X016197Y037237D01*
X016175Y037306D02*
X016728Y037306D01*
X016728Y037229D02*
X016411Y037229D01*
X016392Y037237D02*
X016327Y037250D01*
X016314Y037250D01*
X016314Y036935D01*
X016275Y036935D01*
X016275Y036895D01*
X016314Y036895D01*
X016314Y036580D01*
X016327Y036580D01*
X016392Y036593D01*
X016453Y036619D01*
X016508Y036655D01*
X016554Y036702D01*
X016591Y036757D01*
X016616Y036817D01*
X016629Y036882D01*
X016629Y036895D01*
X016314Y036895D01*
X016314Y036935D01*
X016629Y036935D01*
X016629Y036948D01*
X016616Y037013D01*
X016591Y037074D01*
X016554Y037128D01*
X016508Y037175D01*
X016453Y037212D01*
X016392Y037237D01*
X016314Y037229D02*
X016275Y037229D01*
X016275Y037152D02*
X016314Y037152D01*
X016314Y037074D02*
X016275Y037074D01*
X016275Y036997D02*
X016314Y036997D01*
X016314Y036920D02*
X016728Y036920D01*
X016728Y036997D02*
X016619Y036997D01*
X016590Y037074D02*
X016728Y037074D01*
X016728Y037152D02*
X016531Y037152D01*
X016728Y037383D02*
X016235Y037383D01*
X016265Y037461D02*
X016728Y037461D01*
X016924Y037152D02*
X023027Y037152D01*
X023027Y037074D02*
X016924Y037074D01*
X016924Y036997D02*
X023027Y036997D01*
X023027Y036920D02*
X016924Y036920D01*
X016924Y036843D02*
X023027Y036843D01*
X023027Y036765D02*
X016924Y036765D01*
X016924Y036688D02*
X023027Y036688D01*
X023027Y036611D02*
X016924Y036611D01*
X016924Y036534D02*
X023027Y036534D01*
X023027Y036457D02*
X016924Y036457D01*
X016924Y036379D02*
X023027Y036379D01*
X023027Y036302D02*
X016924Y036302D01*
X016924Y036225D02*
X023027Y036225D01*
X023027Y036148D02*
X016924Y036148D01*
X016924Y036070D02*
X023027Y036070D01*
X023027Y035993D02*
X016924Y035993D01*
X016924Y035916D02*
X023027Y035916D01*
X023027Y035839D02*
X022968Y035839D01*
X022989Y035817D02*
X022897Y035909D01*
X022267Y035909D01*
X022174Y035817D01*
X022174Y035186D01*
X022267Y035094D01*
X022897Y035094D01*
X022989Y035186D01*
X022989Y035817D01*
X022989Y035761D02*
X023027Y035761D01*
X023027Y035684D02*
X022989Y035684D01*
X022989Y035607D02*
X023027Y035607D01*
X023027Y035530D02*
X022989Y035530D01*
X022989Y035452D02*
X023027Y035452D01*
X023027Y035375D02*
X022989Y035375D01*
X022989Y035298D02*
X023027Y035298D01*
X023027Y035221D02*
X022989Y035221D01*
X023027Y035143D02*
X022946Y035143D01*
X023027Y035066D02*
X016924Y035066D01*
X016924Y034989D02*
X019483Y034989D01*
X019483Y034912D02*
X016924Y034912D01*
X016924Y034834D02*
X019483Y034834D01*
X019483Y034757D02*
X016924Y034757D01*
X016924Y034680D02*
X019483Y034680D01*
X019483Y034603D02*
X016924Y034603D01*
X016924Y034526D02*
X019483Y034526D01*
X019483Y034448D02*
X016924Y034448D01*
X016924Y034371D02*
X019483Y034371D01*
X019483Y034294D02*
X016924Y034294D01*
X016924Y034217D02*
X019483Y034217D01*
X019483Y034139D02*
X016924Y034139D01*
X016924Y034062D02*
X019483Y034062D01*
X019483Y033985D02*
X016910Y033985D01*
X016833Y033908D02*
X019483Y033908D01*
X019483Y033830D02*
X016334Y033830D01*
X016334Y033753D02*
X019483Y033753D01*
X019483Y033676D02*
X016334Y033676D01*
X016334Y033599D02*
X019483Y033599D01*
X019483Y033521D02*
X016334Y033521D01*
X016334Y033444D02*
X019483Y033444D01*
X019483Y033367D02*
X016334Y033367D01*
X016334Y033290D02*
X019483Y033290D01*
X019483Y033212D02*
X016334Y033212D01*
X016334Y033135D02*
X019483Y033135D01*
X019483Y032899D02*
X012987Y032899D01*
X012987Y030651D01*
X013036Y030768D01*
X013150Y030883D01*
X013300Y030945D01*
X013462Y030945D01*
X013612Y030883D01*
X013727Y030768D01*
X013789Y030618D01*
X013789Y030456D01*
X013727Y030306D01*
X013612Y030192D01*
X013462Y030130D01*
X013300Y030130D01*
X013150Y030192D01*
X013036Y030306D01*
X012987Y030423D01*
X012987Y027760D01*
X013035Y027938D01*
X013223Y028264D01*
X013489Y028530D01*
X013814Y028718D01*
X014177Y028815D01*
X014553Y028815D01*
X014916Y028718D01*
X015242Y028530D01*
X015508Y028264D01*
X015626Y028058D01*
X017515Y029947D01*
X019483Y029947D01*
X019483Y032899D01*
X019483Y032826D02*
X012987Y032826D01*
X012987Y032749D02*
X019483Y032749D01*
X019483Y032672D02*
X012987Y032672D01*
X012987Y032594D02*
X019483Y032594D01*
X019483Y032517D02*
X012987Y032517D01*
X012987Y032440D02*
X019483Y032440D01*
X019483Y032363D02*
X012987Y032363D01*
X012987Y032286D02*
X019483Y032286D01*
X019483Y032208D02*
X012987Y032208D01*
X012987Y032131D02*
X019483Y032131D01*
X019483Y032054D02*
X012987Y032054D01*
X012987Y031977D02*
X019483Y031977D01*
X019483Y031899D02*
X012987Y031899D01*
X012987Y031822D02*
X016382Y031822D01*
X016372Y031818D02*
X016317Y031781D01*
X016271Y031735D01*
X016234Y031680D01*
X016209Y031619D01*
X016196Y031554D01*
X016196Y031541D01*
X016511Y031541D01*
X016511Y031502D01*
X016196Y031502D01*
X016196Y031488D01*
X016209Y031424D01*
X016234Y031363D01*
X016271Y031308D01*
X016317Y031261D01*
X016372Y031225D01*
X016433Y031200D01*
X016498Y031187D01*
X016511Y031187D01*
X016511Y031502D01*
X016550Y031502D01*
X016550Y031187D01*
X016564Y031187D01*
X016628Y031200D01*
X016689Y031225D01*
X016744Y031261D01*
X016791Y031308D01*
X016827Y031363D01*
X016852Y031424D01*
X016865Y031488D01*
X016865Y031502D01*
X016550Y031502D01*
X016550Y031541D01*
X016511Y031541D01*
X016511Y031856D01*
X016498Y031856D01*
X016433Y031843D01*
X016372Y031818D01*
X016281Y031745D02*
X012987Y031745D01*
X012987Y031668D02*
X016229Y031668D01*
X016203Y031590D02*
X012987Y031590D01*
X012987Y031513D02*
X016511Y031513D01*
X016550Y031513D02*
X017298Y031513D01*
X017298Y031502D02*
X016983Y031502D01*
X016983Y031488D01*
X016996Y031424D01*
X017022Y031363D01*
X017058Y031308D01*
X017105Y031261D01*
X017160Y031225D01*
X017220Y031200D01*
X017285Y031187D01*
X017298Y031187D01*
X017298Y031502D01*
X017298Y031541D01*
X016983Y031541D01*
X016983Y031554D01*
X016996Y031619D01*
X017022Y031680D01*
X017058Y031735D01*
X017105Y031781D01*
X017160Y031818D01*
X017220Y031843D01*
X017285Y031856D01*
X017298Y031856D01*
X017298Y031541D01*
X017338Y031541D01*
X017653Y031541D01*
X017653Y031554D01*
X017640Y031619D01*
X017615Y031680D01*
X017578Y031735D01*
X017531Y031781D01*
X017477Y031818D01*
X017416Y031843D01*
X017351Y031856D01*
X017338Y031856D01*
X017338Y031541D01*
X017338Y031502D01*
X017653Y031502D01*
X017653Y031488D01*
X017640Y031424D01*
X017615Y031363D01*
X017578Y031308D01*
X017531Y031261D01*
X017477Y031225D01*
X017416Y031200D01*
X017351Y031187D01*
X017338Y031187D01*
X017338Y031502D01*
X017298Y031502D01*
X017338Y031513D02*
X018086Y031513D01*
X018086Y031502D02*
X017771Y031502D01*
X017771Y031488D01*
X017784Y031424D01*
X017809Y031363D01*
X017846Y031308D01*
X017892Y031261D01*
X017947Y031225D01*
X018008Y031200D01*
X018073Y031187D01*
X018086Y031187D01*
X018086Y031502D01*
X018086Y031541D01*
X018086Y031856D01*
X018073Y031856D01*
X018008Y031843D01*
X017947Y031818D01*
X017892Y031781D01*
X017846Y031735D01*
X017809Y031680D01*
X017784Y031619D01*
X017771Y031554D01*
X017771Y031541D01*
X018086Y031541D01*
X018125Y031541D01*
X018125Y031856D01*
X018138Y031856D01*
X018203Y031843D01*
X018264Y031818D01*
X018319Y031781D01*
X018365Y031735D01*
X018402Y031680D01*
X018427Y031619D01*
X018440Y031554D01*
X018440Y031541D01*
X018125Y031541D01*
X018125Y031502D01*
X018440Y031502D01*
X018440Y031488D01*
X018427Y031424D01*
X018402Y031363D01*
X018365Y031308D01*
X018319Y031261D01*
X018264Y031225D01*
X018203Y031200D01*
X018138Y031187D01*
X018125Y031187D01*
X018125Y031502D01*
X018086Y031502D01*
X018125Y031513D02*
X018873Y031513D01*
X018873Y031502D02*
X018558Y031502D01*
X018558Y031488D01*
X018571Y031424D01*
X018596Y031363D01*
X018633Y031308D01*
X018680Y031261D01*
X018734Y031225D01*
X018795Y031200D01*
X018860Y031187D01*
X018873Y031187D01*
X018873Y031502D01*
X018873Y031541D01*
X018558Y031541D01*
X018558Y031554D01*
X018571Y031619D01*
X018596Y031680D01*
X018633Y031735D01*
X018680Y031781D01*
X018734Y031818D01*
X018795Y031843D01*
X018860Y031856D01*
X018873Y031856D01*
X018873Y031541D01*
X018913Y031541D01*
X019228Y031541D01*
X019228Y031554D01*
X019215Y031619D01*
X019189Y031680D01*
X019153Y031735D01*
X019106Y031781D01*
X019051Y031818D01*
X018991Y031843D01*
X018926Y031856D01*
X018913Y031856D01*
X018913Y031541D01*
X018913Y031502D01*
X019228Y031502D01*
X019228Y031488D01*
X019215Y031424D01*
X019189Y031363D01*
X019153Y031308D01*
X019106Y031261D01*
X019051Y031225D01*
X018991Y031200D01*
X018926Y031187D01*
X018913Y031187D01*
X018913Y031502D01*
X018873Y031502D01*
X018913Y031513D02*
X019483Y031513D01*
X019483Y031436D02*
X019217Y031436D01*
X019187Y031359D02*
X019483Y031359D01*
X019483Y031281D02*
X019126Y031281D01*
X019002Y031204D02*
X019483Y031204D01*
X019483Y031127D02*
X012987Y031127D01*
X012987Y031204D02*
X016422Y031204D01*
X016511Y031204D02*
X016550Y031204D01*
X016550Y031281D02*
X016511Y031281D01*
X016511Y031359D02*
X016550Y031359D01*
X016550Y031436D02*
X016511Y031436D01*
X016550Y031541D02*
X016865Y031541D01*
X016865Y031554D01*
X016852Y031619D01*
X016827Y031680D01*
X016791Y031735D01*
X016744Y031781D01*
X016689Y031818D01*
X016628Y031843D01*
X016564Y031856D01*
X016550Y031856D01*
X016550Y031541D01*
X016550Y031590D02*
X016511Y031590D01*
X016511Y031668D02*
X016550Y031668D01*
X016550Y031745D02*
X016511Y031745D01*
X016511Y031822D02*
X016550Y031822D01*
X016679Y031822D02*
X017170Y031822D01*
X017068Y031745D02*
X016780Y031745D01*
X016832Y031668D02*
X017016Y031668D01*
X016991Y031590D02*
X016858Y031590D01*
X016855Y031436D02*
X016994Y031436D01*
X017024Y031359D02*
X016824Y031359D01*
X016764Y031281D02*
X017085Y031281D01*
X017209Y031204D02*
X016639Y031204D01*
X016297Y031281D02*
X012987Y031281D01*
X012987Y031359D02*
X016237Y031359D01*
X016206Y031436D02*
X012987Y031436D01*
X012987Y031050D02*
X019483Y031050D01*
X019483Y030972D02*
X012987Y030972D01*
X012987Y030895D02*
X013181Y030895D01*
X013086Y030818D02*
X012987Y030818D01*
X012987Y030741D02*
X013024Y030741D01*
X012992Y030663D02*
X012987Y030663D01*
X012987Y030355D02*
X013016Y030355D01*
X012987Y030277D02*
X013065Y030277D01*
X013142Y030200D02*
X012987Y030200D01*
X012987Y030123D02*
X019483Y030123D01*
X019483Y030200D02*
X015855Y030200D01*
X015814Y030183D02*
X015944Y030237D01*
X016044Y030336D01*
X016098Y030467D01*
X016098Y030608D01*
X016044Y030738D01*
X015944Y030838D01*
X015814Y030891D01*
X015673Y030891D01*
X015543Y030838D01*
X015448Y030743D01*
X015353Y030838D01*
X015223Y030891D01*
X015082Y030891D01*
X014952Y030838D01*
X014852Y030738D01*
X014798Y030608D01*
X014798Y030467D01*
X014852Y030336D01*
X014952Y030237D01*
X015082Y030183D01*
X015223Y030183D01*
X015353Y030237D01*
X015448Y030331D01*
X015543Y030237D01*
X015673Y030183D01*
X015814Y030183D01*
X015631Y030200D02*
X015265Y030200D01*
X015394Y030277D02*
X015502Y030277D01*
X015041Y030200D02*
X013620Y030200D01*
X013698Y030277D02*
X014911Y030277D01*
X014845Y030355D02*
X013746Y030355D01*
X013778Y030432D02*
X014813Y030432D01*
X014798Y030509D02*
X013789Y030509D01*
X013789Y030586D02*
X014798Y030586D01*
X014822Y030663D02*
X013770Y030663D01*
X013738Y030741D02*
X014855Y030741D01*
X014932Y030818D02*
X013676Y030818D01*
X013581Y030895D02*
X019483Y030895D01*
X019483Y030818D02*
X015964Y030818D01*
X016041Y030741D02*
X019483Y030741D01*
X019483Y030663D02*
X016074Y030663D01*
X016098Y030586D02*
X019483Y030586D01*
X019483Y030509D02*
X016098Y030509D01*
X016083Y030432D02*
X019483Y030432D01*
X019483Y030355D02*
X016051Y030355D01*
X015985Y030277D02*
X019483Y030277D01*
X019483Y030046D02*
X012987Y030046D01*
X012987Y029968D02*
X019483Y029968D01*
X020665Y029553D02*
X019877Y028765D01*
X019877Y026206D01*
X019680Y026010D01*
X018696Y026010D01*
X018499Y025813D01*
X018519Y025793D01*
X018519Y025222D01*
X018893Y023844D02*
X017712Y023844D01*
X017515Y023647D01*
X016865Y023647D01*
X016688Y022269D02*
X024050Y022269D01*
X024050Y022230D01*
X024562Y022230D01*
X024562Y022151D01*
X024641Y022151D01*
X024641Y021777D01*
X024973Y021777D01*
X025026Y021791D01*
X025073Y021819D01*
X025111Y021857D01*
X025139Y021904D01*
X025153Y021957D01*
X025153Y022151D01*
X024641Y022151D01*
X024641Y022230D01*
X025153Y022230D01*
X025153Y022269D01*
X025389Y022269D01*
X025389Y020557D01*
X025318Y020557D01*
X025224Y020518D01*
X025152Y020446D01*
X025113Y020352D01*
X025113Y019659D01*
X025152Y019565D01*
X025224Y019493D01*
X025318Y019454D01*
X025389Y019454D01*
X025389Y019317D01*
X024663Y019317D01*
X024680Y019334D01*
X024680Y019969D01*
X024545Y020104D01*
X023517Y020104D01*
X023381Y019969D01*
X023381Y019334D01*
X023398Y019317D01*
X020214Y019317D01*
X020231Y019334D01*
X020231Y019969D01*
X020096Y020104D01*
X019068Y020104D01*
X018932Y019969D01*
X018932Y019334D01*
X018950Y019317D01*
X012987Y019317D01*
X012987Y022269D01*
X016216Y022269D01*
X016216Y022161D01*
X016442Y022161D01*
X016442Y022141D01*
X016462Y022141D01*
X016462Y021876D01*
X016547Y021876D01*
X016588Y021887D01*
X016625Y021908D01*
X016656Y021938D01*
X016677Y021975D01*
X016688Y022017D01*
X016688Y022141D01*
X016462Y022141D01*
X016462Y022161D01*
X016688Y022161D01*
X016688Y022269D01*
X016688Y022244D02*
X024050Y022244D01*
X024050Y022151D02*
X024050Y021957D01*
X024064Y021904D01*
X024092Y021857D01*
X024130Y021819D01*
X024177Y021791D01*
X024230Y021777D01*
X024562Y021777D01*
X024562Y022151D01*
X024050Y022151D01*
X024050Y022090D02*
X016688Y022090D01*
X016688Y022167D02*
X024562Y022167D01*
X024562Y022090D02*
X024641Y022090D01*
X024641Y022167D02*
X025389Y022167D01*
X025389Y022090D02*
X025153Y022090D01*
X025153Y022013D02*
X025389Y022013D01*
X025389Y021935D02*
X025147Y021935D01*
X025112Y021858D02*
X025389Y021858D01*
X025389Y021781D02*
X024987Y021781D01*
X024641Y021781D02*
X024562Y021781D01*
X024562Y021858D02*
X024641Y021858D01*
X024641Y021935D02*
X024562Y021935D01*
X024562Y022013D02*
X024641Y022013D01*
X024426Y021670D02*
X024310Y021718D01*
X024185Y021718D01*
X024069Y021670D01*
X023980Y021582D01*
X023932Y021466D01*
X023932Y021367D01*
X023834Y021268D01*
X023834Y021265D01*
X023586Y021265D01*
X023492Y021226D01*
X023420Y021155D01*
X023381Y021060D01*
X023381Y020368D01*
X023420Y020274D01*
X023492Y020202D01*
X023586Y020163D01*
X024475Y020163D01*
X024569Y020202D01*
X024641Y020274D01*
X024680Y020368D01*
X024680Y021060D01*
X024641Y021155D01*
X024569Y021226D01*
X024523Y021246D01*
X024562Y021341D01*
X024562Y021466D01*
X024514Y021582D01*
X024426Y021670D01*
X024470Y021626D02*
X025389Y021626D01*
X025389Y021549D02*
X024528Y021549D01*
X024560Y021472D02*
X025389Y021472D01*
X025389Y021395D02*
X024562Y021395D01*
X024553Y021317D02*
X025389Y021317D01*
X025389Y021240D02*
X024536Y021240D01*
X024633Y021163D02*
X025389Y021163D01*
X025389Y021086D02*
X024670Y021086D01*
X024680Y021008D02*
X025389Y021008D01*
X025389Y020931D02*
X024680Y020931D01*
X024680Y020854D02*
X025389Y020854D01*
X025389Y020777D02*
X024680Y020777D01*
X024680Y020699D02*
X025389Y020699D01*
X025389Y020622D02*
X024680Y020622D01*
X024680Y020545D02*
X025290Y020545D01*
X025174Y020468D02*
X024680Y020468D01*
X024680Y020391D02*
X025129Y020391D01*
X025113Y020313D02*
X024658Y020313D01*
X024603Y020236D02*
X025113Y020236D01*
X025113Y020159D02*
X023191Y020159D01*
X023223Y020236D02*
X023458Y020236D01*
X023404Y020313D02*
X023243Y020313D01*
X023243Y020286D02*
X023156Y020076D01*
X022996Y019915D01*
X022786Y019828D01*
X022559Y019828D01*
X022349Y019915D01*
X022188Y020076D01*
X022102Y020286D01*
X022102Y020513D01*
X022188Y020723D01*
X022349Y020883D01*
X022559Y020970D01*
X022786Y020970D01*
X022996Y020883D01*
X023156Y020723D01*
X023243Y020513D01*
X023243Y020286D01*
X023243Y020391D02*
X023381Y020391D01*
X023381Y020468D02*
X023243Y020468D01*
X023230Y020545D02*
X023381Y020545D01*
X023381Y020622D02*
X023198Y020622D01*
X023166Y020699D02*
X023381Y020699D01*
X023381Y020777D02*
X023102Y020777D01*
X023025Y020854D02*
X023381Y020854D01*
X023381Y020931D02*
X022880Y020931D01*
X022914Y021109D02*
X022989Y021094D01*
X023007Y021094D01*
X023007Y021462D01*
X023046Y021462D01*
X023046Y021094D01*
X023065Y021094D01*
X023140Y021109D01*
X023210Y021138D01*
X023274Y021181D01*
X023328Y021235D01*
X023370Y021298D01*
X023400Y021369D01*
X023415Y021444D01*
X023415Y021462D01*
X023046Y021462D01*
X023046Y021502D01*
X023007Y021502D01*
X023007Y021870D01*
X022989Y021870D01*
X022914Y021855D01*
X022843Y021826D01*
X022780Y021783D01*
X022726Y021729D01*
X022683Y021666D01*
X022654Y021595D01*
X022639Y021520D01*
X022639Y021502D01*
X023007Y021502D01*
X023007Y021462D01*
X022639Y021462D01*
X022639Y021444D01*
X022654Y021369D01*
X022683Y021298D01*
X022726Y021235D01*
X022780Y021181D01*
X022843Y021138D01*
X022914Y021109D01*
X023007Y021163D02*
X023046Y021163D01*
X023046Y021240D02*
X023007Y021240D01*
X023007Y021317D02*
X023046Y021317D01*
X023046Y021395D02*
X023007Y021395D01*
X023007Y021472D02*
X022062Y021472D01*
X022062Y021462D02*
X022062Y021502D01*
X022023Y021502D01*
X022023Y021870D01*
X022004Y021870D01*
X021929Y021855D01*
X021859Y021826D01*
X021795Y021783D01*
X021741Y021729D01*
X021699Y021666D01*
X021670Y021595D01*
X021655Y021520D01*
X021655Y021502D01*
X022023Y021502D01*
X022023Y021462D01*
X022062Y021462D01*
X022062Y021094D01*
X022081Y021094D01*
X022156Y021109D01*
X022226Y021138D01*
X022290Y021181D01*
X022344Y021235D01*
X022386Y021298D01*
X022415Y021369D01*
X022430Y021444D01*
X022430Y021462D01*
X022062Y021462D01*
X022023Y021462D02*
X022023Y021094D01*
X022004Y021094D01*
X021929Y021109D01*
X021859Y021138D01*
X021795Y021181D01*
X021741Y021235D01*
X021699Y021298D01*
X021670Y021369D01*
X021655Y021444D01*
X021655Y021462D01*
X022023Y021462D01*
X022023Y021472D02*
X016241Y021472D01*
X016209Y021549D02*
X021660Y021549D01*
X021683Y021626D02*
X016154Y021626D01*
X016194Y021586D02*
X016044Y021736D01*
X015849Y021817D01*
X015638Y021817D01*
X015442Y021736D01*
X015310Y021604D01*
X015310Y021758D01*
X014798Y021758D01*
X014798Y021384D01*
X015131Y021384D01*
X015183Y021398D01*
X015224Y021421D01*
X015212Y021391D01*
X015212Y021179D01*
X015293Y020984D01*
X015442Y020835D01*
X015638Y020754D01*
X015849Y020754D01*
X016044Y020835D01*
X016194Y020984D01*
X016275Y021179D01*
X016275Y021391D01*
X016194Y021586D01*
X016076Y021704D02*
X021724Y021704D01*
X021793Y021781D02*
X015935Y021781D01*
X016248Y021938D02*
X016278Y021908D01*
X016315Y021887D01*
X016357Y021876D01*
X016442Y021876D01*
X016442Y022141D01*
X016216Y022141D01*
X016216Y022017D01*
X016227Y021975D01*
X016248Y021938D01*
X016251Y021935D02*
X015310Y021935D01*
X015310Y021858D02*
X021945Y021858D01*
X022023Y021858D02*
X022062Y021858D01*
X022062Y021870D02*
X022081Y021870D01*
X022156Y021855D01*
X022226Y021826D01*
X022290Y021783D01*
X022344Y021729D01*
X022386Y021666D01*
X022415Y021595D01*
X022430Y021520D01*
X022430Y021502D01*
X022062Y021502D01*
X022062Y021870D01*
X022140Y021858D02*
X022930Y021858D01*
X023007Y021858D02*
X023046Y021858D01*
X023046Y021870D02*
X023065Y021870D01*
X023140Y021855D01*
X023210Y021826D01*
X023274Y021783D01*
X023328Y021729D01*
X023370Y021666D01*
X023400Y021595D01*
X023415Y021520D01*
X023415Y021502D01*
X023046Y021502D01*
X023046Y021870D01*
X023124Y021858D02*
X024091Y021858D01*
X024056Y021935D02*
X016653Y021935D01*
X016687Y022013D02*
X024050Y022013D01*
X024217Y021781D02*
X023276Y021781D01*
X023345Y021704D02*
X024149Y021704D01*
X024025Y021626D02*
X023387Y021626D01*
X023409Y021549D02*
X023967Y021549D01*
X023935Y021472D02*
X023046Y021472D01*
X023046Y021549D02*
X023007Y021549D01*
X023007Y021626D02*
X023046Y021626D01*
X023046Y021704D02*
X023007Y021704D01*
X023007Y021781D02*
X023046Y021781D01*
X022777Y021781D02*
X022292Y021781D01*
X022361Y021704D02*
X022708Y021704D01*
X022667Y021626D02*
X022402Y021626D01*
X022425Y021549D02*
X022645Y021549D01*
X022649Y021395D02*
X022421Y021395D01*
X022394Y021317D02*
X022675Y021317D01*
X022722Y021240D02*
X022347Y021240D01*
X022263Y021163D02*
X022806Y021163D01*
X022465Y020931D02*
X020231Y020931D01*
X020231Y020854D02*
X022320Y020854D01*
X022242Y020777D02*
X020231Y020777D01*
X020231Y020699D02*
X022179Y020699D01*
X022147Y020622D02*
X020231Y020622D01*
X020231Y020545D02*
X022115Y020545D01*
X022102Y020468D02*
X021875Y020468D01*
X021891Y020451D02*
X021858Y020484D01*
X021820Y020510D01*
X021777Y020528D01*
X021731Y020537D01*
X021354Y020537D01*
X021354Y020045D01*
X021944Y020045D01*
X021944Y020324D01*
X021935Y020370D01*
X021917Y020413D01*
X021891Y020451D01*
X021926Y020391D02*
X022102Y020391D01*
X022102Y020313D02*
X021944Y020313D01*
X021944Y020236D02*
X022122Y020236D01*
X022154Y020159D02*
X021944Y020159D01*
X021944Y020082D02*
X022186Y020082D01*
X022260Y020004D02*
X021354Y020004D01*
X021354Y019966D02*
X021354Y020045D01*
X021275Y020045D01*
X021275Y020537D01*
X020897Y020537D01*
X020852Y020528D01*
X020809Y020510D01*
X020770Y020484D01*
X020737Y020451D01*
X020711Y020413D01*
X020693Y020370D01*
X020684Y020324D01*
X020684Y020045D01*
X021275Y020045D01*
X021275Y019966D01*
X021354Y019966D01*
X021944Y019966D01*
X021944Y019687D01*
X021935Y019641D01*
X021917Y019598D01*
X021891Y019560D01*
X021858Y019527D01*
X021820Y019501D01*
X021777Y019483D01*
X021731Y019474D01*
X021354Y019474D01*
X021354Y019966D01*
X021354Y019927D02*
X021275Y019927D01*
X021275Y019966D02*
X021275Y019474D01*
X020897Y019474D01*
X020852Y019483D01*
X020809Y019501D01*
X020770Y019527D01*
X020737Y019560D01*
X020711Y019598D01*
X020693Y019641D01*
X020684Y019687D01*
X020684Y019966D01*
X021275Y019966D01*
X021275Y020004D02*
X020196Y020004D01*
X020231Y019927D02*
X020684Y019927D01*
X020684Y019850D02*
X020231Y019850D01*
X020231Y019773D02*
X020684Y019773D01*
X020684Y019695D02*
X020231Y019695D01*
X020231Y019618D02*
X020703Y019618D01*
X020756Y019541D02*
X020231Y019541D01*
X020231Y019464D02*
X023381Y019464D01*
X023381Y019541D02*
X021872Y019541D01*
X021925Y019618D02*
X023381Y019618D01*
X023381Y019695D02*
X021944Y019695D01*
X021944Y019773D02*
X023381Y019773D01*
X023381Y019850D02*
X022838Y019850D01*
X023007Y019927D02*
X023381Y019927D01*
X023417Y020004D02*
X023085Y020004D01*
X023159Y020082D02*
X023494Y020082D01*
X023381Y019386D02*
X020231Y019386D01*
X020118Y020082D02*
X020684Y020082D01*
X020684Y020159D02*
X018742Y020159D01*
X018774Y020236D02*
X019009Y020236D01*
X019043Y020202D02*
X019137Y020163D01*
X020026Y020163D01*
X020121Y020202D01*
X020193Y020274D01*
X020231Y020368D01*
X020231Y021060D01*
X020193Y021155D01*
X020121Y021226D01*
X020026Y021265D01*
X019137Y021265D01*
X019043Y021226D01*
X018971Y021155D01*
X018932Y021060D01*
X018932Y020368D01*
X018971Y020274D01*
X019043Y020202D01*
X019045Y020082D02*
X018710Y020082D01*
X018708Y020076D02*
X018794Y020286D01*
X018794Y020513D01*
X018708Y020723D01*
X018547Y020883D01*
X018337Y020970D01*
X018110Y020970D01*
X017900Y020883D01*
X017740Y020723D01*
X017653Y020513D01*
X017653Y020286D01*
X017740Y020076D01*
X017900Y019915D01*
X018110Y019828D01*
X018337Y019828D01*
X018547Y019915D01*
X018708Y020076D01*
X018636Y020004D02*
X018968Y020004D01*
X018932Y019927D02*
X018559Y019927D01*
X018389Y019850D02*
X018932Y019850D01*
X018932Y019773D02*
X017495Y019773D01*
X017495Y019850D02*
X018058Y019850D01*
X017889Y019927D02*
X017495Y019927D01*
X017495Y019966D02*
X016905Y019966D01*
X016905Y020045D01*
X017495Y020045D01*
X017495Y020324D01*
X017486Y020370D01*
X017468Y020413D01*
X017443Y020451D01*
X017410Y020484D01*
X017371Y020510D01*
X017328Y020528D01*
X017282Y020537D01*
X016905Y020537D01*
X016905Y020045D01*
X016826Y020045D01*
X016826Y020537D01*
X016448Y020537D01*
X016403Y020528D01*
X016360Y020510D01*
X016321Y020484D01*
X016288Y020451D01*
X016262Y020413D01*
X016244Y020370D01*
X016235Y020324D01*
X016235Y020045D01*
X016826Y020045D01*
X016826Y019966D01*
X016905Y019966D01*
X016905Y019474D01*
X017282Y019474D01*
X017328Y019483D01*
X017371Y019501D01*
X017410Y019527D01*
X017443Y019560D01*
X017468Y019598D01*
X017486Y019641D01*
X017495Y019687D01*
X017495Y019966D01*
X017495Y020082D02*
X017737Y020082D01*
X017705Y020159D02*
X017495Y020159D01*
X017495Y020236D02*
X017673Y020236D01*
X017653Y020313D02*
X017495Y020313D01*
X017478Y020391D02*
X017653Y020391D01*
X017653Y020468D02*
X017426Y020468D01*
X017666Y020545D02*
X012987Y020545D01*
X012987Y020622D02*
X017698Y020622D01*
X017730Y020699D02*
X012987Y020699D01*
X012987Y020777D02*
X015582Y020777D01*
X015423Y020854D02*
X012987Y020854D01*
X012987Y020931D02*
X015346Y020931D01*
X015283Y021008D02*
X012987Y021008D01*
X012987Y021086D02*
X015251Y021086D01*
X015219Y021163D02*
X012987Y021163D01*
X012987Y021240D02*
X015212Y021240D01*
X015212Y021317D02*
X012987Y021317D01*
X012987Y021395D02*
X014346Y021395D01*
X014335Y021398D02*
X014387Y021384D01*
X014720Y021384D01*
X014720Y021758D01*
X014208Y021758D01*
X014208Y021563D01*
X014222Y021510D01*
X014249Y021463D01*
X014288Y021425D01*
X014335Y021398D01*
X014244Y021472D02*
X012987Y021472D01*
X012987Y021549D02*
X014212Y021549D01*
X014208Y021626D02*
X012987Y021626D01*
X012987Y021704D02*
X014208Y021704D01*
X014208Y021836D02*
X014208Y022031D01*
X014222Y022083D01*
X014249Y022131D01*
X014288Y022169D01*
X014335Y022196D01*
X014387Y022210D01*
X014720Y022210D01*
X014720Y021836D01*
X014798Y021836D01*
X014798Y022210D01*
X015131Y022210D01*
X015183Y022196D01*
X015230Y022169D01*
X015269Y022131D01*
X015296Y022083D01*
X015310Y022031D01*
X015310Y021836D01*
X014798Y021836D01*
X014798Y021758D01*
X014720Y021758D01*
X014720Y021836D01*
X014208Y021836D01*
X014208Y021858D02*
X012987Y021858D01*
X012987Y021781D02*
X014720Y021781D01*
X014720Y021858D02*
X014798Y021858D01*
X014798Y021781D02*
X015551Y021781D01*
X015410Y021704D02*
X015310Y021704D01*
X015310Y021626D02*
X015333Y021626D01*
X015213Y021395D02*
X015172Y021395D01*
X014798Y021395D02*
X014720Y021395D01*
X014720Y021472D02*
X014798Y021472D01*
X014798Y021549D02*
X014720Y021549D01*
X014720Y021626D02*
X014798Y021626D01*
X014798Y021704D02*
X014720Y021704D01*
X014720Y021935D02*
X014798Y021935D01*
X014798Y022013D02*
X014720Y022013D01*
X014720Y022090D02*
X014798Y022090D01*
X014798Y022167D02*
X014720Y022167D01*
X014286Y022167D02*
X012987Y022167D01*
X012987Y022090D02*
X014226Y022090D01*
X014208Y022013D02*
X012987Y022013D01*
X012987Y021935D02*
X014208Y021935D01*
X015232Y022167D02*
X016216Y022167D01*
X016216Y022090D02*
X015292Y022090D01*
X015310Y022013D02*
X016217Y022013D01*
X016442Y022013D02*
X016462Y022013D01*
X016462Y022090D02*
X016442Y022090D01*
X016442Y021935D02*
X016462Y021935D01*
X016216Y022244D02*
X012987Y022244D01*
X012987Y020468D02*
X016304Y020468D01*
X016253Y020391D02*
X012987Y020391D01*
X012987Y020313D02*
X016235Y020313D01*
X016235Y020236D02*
X012987Y020236D01*
X012987Y020159D02*
X016235Y020159D01*
X016235Y020082D02*
X012987Y020082D01*
X012987Y020004D02*
X016826Y020004D01*
X016826Y019966D02*
X016235Y019966D01*
X016235Y019687D01*
X016244Y019641D01*
X016262Y019598D01*
X016288Y019560D01*
X016321Y019527D01*
X016360Y019501D01*
X016403Y019483D01*
X016448Y019474D01*
X016826Y019474D01*
X016826Y019966D01*
X016826Y019927D02*
X016905Y019927D01*
X016905Y019850D02*
X016826Y019850D01*
X016826Y019773D02*
X016905Y019773D01*
X016905Y019695D02*
X016826Y019695D01*
X016826Y019618D02*
X016905Y019618D01*
X016905Y019541D02*
X016826Y019541D01*
X016905Y020004D02*
X017811Y020004D01*
X017495Y019695D02*
X018932Y019695D01*
X018932Y019618D02*
X017477Y019618D01*
X017424Y019541D02*
X018932Y019541D01*
X018932Y019464D02*
X012987Y019464D01*
X012987Y019541D02*
X016307Y019541D01*
X016254Y019618D02*
X012987Y019618D01*
X012987Y019695D02*
X016235Y019695D01*
X016235Y019773D02*
X012987Y019773D01*
X012987Y019850D02*
X016235Y019850D01*
X016235Y019927D02*
X012987Y019927D01*
X012987Y019386D02*
X018932Y019386D01*
X018955Y020313D02*
X018794Y020313D01*
X018794Y020391D02*
X018932Y020391D01*
X018932Y020468D02*
X018794Y020468D01*
X018781Y020545D02*
X018932Y020545D01*
X018932Y020622D02*
X018749Y020622D01*
X018717Y020699D02*
X018932Y020699D01*
X018932Y020777D02*
X018654Y020777D01*
X018576Y020854D02*
X018932Y020854D01*
X018932Y020931D02*
X018431Y020931D01*
X018016Y020931D02*
X016141Y020931D01*
X016204Y021008D02*
X018932Y021008D01*
X018943Y021086D02*
X016236Y021086D01*
X016268Y021163D02*
X018980Y021163D01*
X019076Y021240D02*
X016275Y021240D01*
X016275Y021317D02*
X021691Y021317D01*
X021664Y021395D02*
X016273Y021395D01*
X016064Y020854D02*
X017871Y020854D01*
X017794Y020777D02*
X015905Y020777D01*
X016826Y020468D02*
X016905Y020468D01*
X016905Y020391D02*
X016826Y020391D01*
X016826Y020313D02*
X016905Y020313D01*
X016905Y020236D02*
X016826Y020236D01*
X016826Y020159D02*
X016905Y020159D01*
X016905Y020082D02*
X016826Y020082D01*
X018893Y023844D02*
X020074Y025025D01*
X020074Y028569D01*
X020665Y029553D02*
X023814Y029553D01*
X026767Y027584D02*
X027751Y027584D01*
X025586Y024632D02*
X025763Y024454D01*
X025763Y023647D01*
X025389Y022244D02*
X025153Y022244D01*
X025389Y021704D02*
X024345Y021704D01*
X024247Y021403D02*
X024031Y021187D01*
X024031Y020714D01*
X023883Y021317D02*
X023378Y021317D01*
X023405Y021395D02*
X023932Y021395D01*
X023525Y021240D02*
X023332Y021240D01*
X023247Y021163D02*
X023428Y021163D01*
X023392Y021086D02*
X020221Y021086D01*
X020231Y021008D02*
X023381Y021008D01*
X022507Y019850D02*
X021944Y019850D01*
X021944Y019927D02*
X022337Y019927D01*
X021354Y019850D02*
X021275Y019850D01*
X021275Y019773D02*
X021354Y019773D01*
X021354Y019695D02*
X021275Y019695D01*
X021275Y019618D02*
X021354Y019618D01*
X021354Y019541D02*
X021275Y019541D01*
X021275Y020082D02*
X021354Y020082D01*
X021354Y020159D02*
X021275Y020159D01*
X021275Y020236D02*
X021354Y020236D01*
X021354Y020313D02*
X021275Y020313D01*
X021275Y020391D02*
X021354Y020391D01*
X021354Y020468D02*
X021275Y020468D01*
X020753Y020468D02*
X020231Y020468D01*
X020231Y020391D02*
X020702Y020391D01*
X020684Y020313D02*
X020209Y020313D01*
X020154Y020236D02*
X020684Y020236D01*
X020184Y021163D02*
X021822Y021163D01*
X021738Y021240D02*
X020088Y021240D01*
X022023Y021240D02*
X022062Y021240D01*
X022062Y021163D02*
X022023Y021163D01*
X022023Y021317D02*
X022062Y021317D01*
X022062Y021395D02*
X022023Y021395D01*
X022023Y021549D02*
X022062Y021549D01*
X022062Y021626D02*
X022023Y021626D01*
X022023Y021704D02*
X022062Y021704D01*
X022062Y021781D02*
X022023Y021781D01*
X021314Y023647D02*
X021314Y024376D01*
X021058Y024632D01*
X021137Y024553D01*
X023420Y024553D01*
X024483Y024553D01*
X024602Y024435D01*
X024602Y023923D01*
X024567Y020082D02*
X025113Y020082D01*
X025113Y020004D02*
X024645Y020004D01*
X024680Y019927D02*
X025113Y019927D01*
X025113Y019850D02*
X024680Y019850D01*
X024680Y019773D02*
X025113Y019773D01*
X025113Y019695D02*
X024680Y019695D01*
X024680Y019618D02*
X025130Y019618D01*
X025177Y019541D02*
X024680Y019541D01*
X024680Y019464D02*
X025296Y019464D01*
X025389Y019386D02*
X024680Y019386D01*
X016996Y029428D02*
X012987Y029428D01*
X012987Y029505D02*
X017073Y029505D01*
X017150Y029582D02*
X012987Y029582D01*
X012987Y029659D02*
X017228Y029659D01*
X017305Y029737D02*
X012987Y029737D01*
X012987Y029814D02*
X017382Y029814D01*
X017459Y029891D02*
X012987Y029891D01*
X012987Y029350D02*
X016919Y029350D01*
X016842Y029273D02*
X012987Y029273D01*
X012987Y029196D02*
X016764Y029196D01*
X016687Y029119D02*
X012987Y029119D01*
X012987Y029041D02*
X016610Y029041D01*
X016533Y028964D02*
X012987Y028964D01*
X012987Y028887D02*
X016455Y028887D01*
X016378Y028810D02*
X014573Y028810D01*
X014861Y028732D02*
X016301Y028732D01*
X016224Y028655D02*
X015025Y028655D01*
X015158Y028578D02*
X016146Y028578D01*
X016069Y028501D02*
X015271Y028501D01*
X015348Y028424D02*
X015992Y028424D01*
X015915Y028346D02*
X015425Y028346D01*
X015503Y028269D02*
X015837Y028269D01*
X015760Y028192D02*
X015549Y028192D01*
X015594Y028115D02*
X015683Y028115D01*
X014158Y028810D02*
X012987Y028810D01*
X012987Y028732D02*
X013869Y028732D01*
X013706Y028655D02*
X012987Y028655D01*
X012987Y028578D02*
X013572Y028578D01*
X013460Y028501D02*
X012987Y028501D01*
X012987Y028424D02*
X013383Y028424D01*
X013305Y028346D02*
X012987Y028346D01*
X012987Y028269D02*
X013228Y028269D01*
X013181Y028192D02*
X012987Y028192D01*
X012987Y028115D02*
X013137Y028115D01*
X013092Y028037D02*
X012987Y028037D01*
X012987Y027960D02*
X013048Y027960D01*
X013020Y027883D02*
X012987Y027883D01*
X012987Y027806D02*
X013000Y027806D01*
X015373Y030818D02*
X015523Y030818D01*
X017298Y031204D02*
X017338Y031204D01*
X017338Y031281D02*
X017298Y031281D01*
X017298Y031359D02*
X017338Y031359D01*
X017338Y031436D02*
X017298Y031436D01*
X017298Y031590D02*
X017338Y031590D01*
X017338Y031668D02*
X017298Y031668D01*
X017298Y031745D02*
X017338Y031745D01*
X017338Y031822D02*
X017298Y031822D01*
X017467Y031822D02*
X017957Y031822D01*
X017856Y031745D02*
X017568Y031745D01*
X017620Y031668D02*
X017804Y031668D01*
X017778Y031590D02*
X017646Y031590D01*
X017642Y031436D02*
X017781Y031436D01*
X017812Y031359D02*
X017612Y031359D01*
X017551Y031281D02*
X017872Y031281D01*
X017997Y031204D02*
X017427Y031204D01*
X018086Y031204D02*
X018125Y031204D01*
X018125Y031281D02*
X018086Y031281D01*
X018086Y031359D02*
X018125Y031359D01*
X018125Y031436D02*
X018086Y031436D01*
X018086Y031590D02*
X018125Y031590D01*
X018125Y031668D02*
X018086Y031668D01*
X018086Y031745D02*
X018125Y031745D01*
X018125Y031822D02*
X018086Y031822D01*
X018254Y031822D02*
X018744Y031822D01*
X018643Y031745D02*
X018355Y031745D01*
X018407Y031668D02*
X018591Y031668D01*
X018565Y031590D02*
X018433Y031590D01*
X018430Y031436D02*
X018569Y031436D01*
X018599Y031359D02*
X018399Y031359D01*
X018339Y031281D02*
X018660Y031281D01*
X018784Y031204D02*
X018214Y031204D01*
X018873Y031204D02*
X018913Y031204D01*
X018913Y031281D02*
X018873Y031281D01*
X018873Y031359D02*
X018913Y031359D01*
X018913Y031436D02*
X018873Y031436D01*
X018873Y031590D02*
X018913Y031590D01*
X018913Y031668D02*
X018873Y031668D01*
X018873Y031745D02*
X018913Y031745D01*
X018913Y031822D02*
X018873Y031822D01*
X019041Y031822D02*
X019483Y031822D01*
X019483Y031745D02*
X019143Y031745D01*
X019195Y031668D02*
X019483Y031668D01*
X019483Y031590D02*
X019220Y031590D01*
X016728Y034080D02*
X016137Y034080D01*
X016137Y033096D01*
X012987Y033096D01*
X012987Y035852D01*
X015192Y035852D01*
X015192Y038096D01*
X016728Y038096D01*
X016728Y034080D01*
X016728Y034139D02*
X012987Y034139D01*
X012987Y034062D02*
X016137Y034062D01*
X016137Y033985D02*
X012987Y033985D01*
X012987Y033908D02*
X016137Y033908D01*
X016137Y033830D02*
X012987Y033830D01*
X012987Y033753D02*
X016137Y033753D01*
X016137Y033676D02*
X012987Y033676D01*
X012987Y033599D02*
X016137Y033599D01*
X016137Y033521D02*
X012987Y033521D01*
X012987Y033444D02*
X016137Y033444D01*
X016137Y033367D02*
X012987Y033367D01*
X012987Y033290D02*
X016137Y033290D01*
X016137Y033212D02*
X012987Y033212D01*
X012987Y033135D02*
X016137Y033135D01*
X016728Y034217D02*
X012987Y034217D01*
X012987Y034294D02*
X016728Y034294D01*
X016728Y034371D02*
X012987Y034371D01*
X012987Y034448D02*
X016728Y034448D01*
X016728Y034526D02*
X012987Y034526D01*
X012987Y034603D02*
X016728Y034603D01*
X016728Y034680D02*
X012987Y034680D01*
X012987Y034757D02*
X016728Y034757D01*
X016728Y034834D02*
X012987Y034834D01*
X012987Y034912D02*
X016728Y034912D01*
X016728Y034989D02*
X015938Y034989D01*
X015957Y035002D02*
X016003Y035048D01*
X016040Y035103D01*
X016065Y035164D01*
X016078Y035229D01*
X016078Y035242D01*
X015763Y035242D01*
X015763Y035281D01*
X016078Y035281D01*
X016078Y035294D01*
X016065Y035359D01*
X016040Y035420D01*
X016003Y035475D01*
X015957Y035521D01*
X015902Y035558D01*
X015841Y035583D01*
X015776Y035596D01*
X015763Y035596D01*
X015763Y035281D01*
X015724Y035281D01*
X015724Y035596D01*
X015710Y035596D01*
X015646Y035583D01*
X015585Y035558D01*
X015530Y035521D01*
X015483Y035475D01*
X015447Y035420D01*
X015421Y035359D01*
X015409Y035294D01*
X015409Y035281D01*
X015724Y035281D01*
X015724Y035242D01*
X015763Y035242D01*
X015763Y034927D01*
X015776Y034927D01*
X015841Y034940D01*
X015902Y034965D01*
X015957Y035002D01*
X016015Y035066D02*
X016728Y035066D01*
X016728Y035143D02*
X016057Y035143D01*
X016076Y035221D02*
X016728Y035221D01*
X016728Y035298D02*
X016077Y035298D01*
X016058Y035375D02*
X016728Y035375D01*
X016728Y035452D02*
X016018Y035452D01*
X015944Y035530D02*
X016728Y035530D01*
X016728Y035607D02*
X012987Y035607D01*
X012987Y035684D02*
X016728Y035684D01*
X016728Y035761D02*
X012987Y035761D01*
X012987Y035839D02*
X016728Y035839D01*
X016728Y035916D02*
X015192Y035916D01*
X015192Y035993D02*
X016728Y035993D01*
X016728Y036070D02*
X015192Y036070D01*
X015192Y036148D02*
X016728Y036148D01*
X016728Y036225D02*
X015192Y036225D01*
X015192Y036302D02*
X016728Y036302D01*
X016728Y036379D02*
X015192Y036379D01*
X015192Y036457D02*
X016728Y036457D01*
X016728Y036534D02*
X015192Y036534D01*
X015192Y036611D02*
X015485Y036611D01*
X015467Y036619D02*
X015528Y036593D01*
X015592Y036580D01*
X015605Y036580D01*
X015605Y036895D01*
X015291Y036895D01*
X015291Y036882D01*
X015303Y036817D01*
X015329Y036757D01*
X015365Y036702D01*
X015412Y036655D01*
X015467Y036619D01*
X015379Y036688D02*
X015192Y036688D01*
X015192Y036765D02*
X015325Y036765D01*
X015298Y036843D02*
X015192Y036843D01*
X015192Y036920D02*
X015605Y036920D01*
X015605Y036935D02*
X015605Y036895D01*
X015645Y036895D01*
X015645Y036580D01*
X015658Y036580D01*
X015723Y036593D01*
X015784Y036619D01*
X015838Y036655D01*
X015885Y036702D01*
X015922Y036757D01*
X015947Y036817D01*
X015960Y036882D01*
X015973Y036817D01*
X015998Y036757D01*
X016035Y036702D01*
X016081Y036655D01*
X016136Y036619D01*
X016197Y036593D01*
X016262Y036580D01*
X016275Y036580D01*
X016275Y036895D01*
X015960Y036895D01*
X015960Y036882D01*
X015960Y036895D01*
X015645Y036895D01*
X015645Y036935D01*
X015605Y036935D01*
X015291Y036935D01*
X015291Y036948D01*
X015303Y037013D01*
X015329Y037074D01*
X015192Y037074D01*
X015192Y036997D02*
X015300Y036997D01*
X015329Y037074D02*
X015365Y037128D01*
X015412Y037175D01*
X015467Y037212D01*
X015528Y037237D01*
X015592Y037250D01*
X015605Y037250D01*
X015605Y036935D01*
X015645Y036935D02*
X015645Y037250D01*
X015658Y037250D01*
X015723Y037237D01*
X015784Y037212D01*
X015838Y037175D01*
X015885Y037128D01*
X015922Y037074D01*
X015947Y037013D01*
X015960Y036948D01*
X015960Y036935D01*
X015645Y036935D01*
X015645Y036920D02*
X016275Y036920D01*
X016275Y036843D02*
X016314Y036843D01*
X016314Y036765D02*
X016275Y036765D01*
X016275Y036688D02*
X016314Y036688D01*
X016314Y036611D02*
X016275Y036611D01*
X016154Y036611D02*
X015766Y036611D01*
X015645Y036611D02*
X015605Y036611D01*
X015605Y036688D02*
X015645Y036688D01*
X015645Y036765D02*
X015605Y036765D01*
X015605Y036843D02*
X015645Y036843D01*
X015645Y036997D02*
X015605Y036997D01*
X015605Y037074D02*
X015645Y037074D01*
X015645Y037152D02*
X015605Y037152D01*
X015605Y037229D02*
X015645Y037229D01*
X015742Y037229D02*
X015829Y037229D01*
X015862Y037152D02*
X016058Y037152D01*
X015998Y037074D02*
X015921Y037074D01*
X015950Y036997D02*
X015970Y036997D01*
X015968Y036843D02*
X015952Y036843D01*
X015925Y036765D02*
X015994Y036765D01*
X016048Y036688D02*
X015872Y036688D01*
X016435Y036611D02*
X016728Y036611D01*
X016728Y036688D02*
X016541Y036688D01*
X016595Y036765D02*
X016728Y036765D01*
X016728Y036843D02*
X016621Y036843D01*
X016728Y038001D02*
X015192Y038001D01*
X015192Y038079D02*
X016728Y038079D01*
X016924Y038156D02*
X021852Y038156D01*
X021864Y038144D02*
X021980Y038096D01*
X022105Y038096D01*
X022221Y038144D01*
X022310Y038233D02*
X022357Y038348D01*
X022357Y038388D02*
X023027Y038388D01*
X023027Y038465D02*
X022357Y038465D01*
X022329Y038542D02*
X023027Y038542D01*
X023027Y038619D02*
X022318Y038619D01*
X022318Y038696D02*
X023027Y038696D01*
X023027Y038774D02*
X022318Y038774D01*
X022318Y038851D02*
X023027Y038851D01*
X023027Y038928D02*
X022318Y038928D01*
X022318Y039005D02*
X023027Y039005D01*
X023027Y039083D02*
X022318Y039083D01*
X022318Y039160D02*
X023027Y039160D01*
X023027Y039237D02*
X022318Y039237D01*
X022318Y039314D02*
X023027Y039314D01*
X023027Y039392D02*
X022318Y039392D01*
X022318Y039469D02*
X023027Y039469D01*
X023027Y040164D02*
X012987Y040164D01*
X012987Y040087D02*
X021839Y040087D01*
X021762Y040010D02*
X012987Y040010D01*
X012987Y039932D02*
X021718Y039932D01*
X021688Y039855D02*
X012987Y039855D01*
X012987Y039778D02*
X021688Y039778D01*
X021696Y039701D02*
X012987Y039701D01*
X012987Y039623D02*
X021728Y039623D01*
X021767Y039546D02*
X012987Y039546D01*
X012987Y039469D02*
X021767Y039469D01*
X021767Y039392D02*
X012987Y039392D01*
X012987Y039314D02*
X021767Y039314D01*
X021767Y039237D02*
X012987Y039237D01*
X012987Y039160D02*
X021767Y039160D01*
X021767Y039083D02*
X015557Y039083D01*
X015624Y039005D02*
X021767Y039005D01*
X021767Y038928D02*
X015656Y038928D01*
X015665Y038851D02*
X021767Y038851D01*
X021767Y038774D02*
X015665Y038774D01*
X015143Y039083D02*
X012987Y039083D01*
X012987Y039005D02*
X015075Y039005D01*
X015043Y038928D02*
X012987Y038928D01*
X012987Y038851D02*
X015035Y038851D01*
X015035Y038774D02*
X012987Y038774D01*
X012987Y038696D02*
X015035Y038696D01*
X015035Y038619D02*
X012987Y038619D01*
X012987Y038542D02*
X015035Y038542D01*
X015035Y038465D02*
X012987Y038465D01*
X012987Y038388D02*
X015035Y038388D01*
X015035Y038310D02*
X012987Y038310D01*
X012987Y038233D02*
X015035Y038233D01*
X014995Y038156D02*
X012987Y038156D01*
X012987Y038079D02*
X014995Y038079D01*
X014995Y038001D02*
X012987Y038001D01*
X012987Y037924D02*
X014995Y037924D01*
X014995Y037847D02*
X012987Y037847D01*
X012987Y037770D02*
X014995Y037770D01*
X014995Y037692D02*
X012987Y037692D01*
X012987Y037615D02*
X014995Y037615D01*
X014995Y037538D02*
X012987Y037538D01*
X012987Y037461D02*
X014995Y037461D01*
X014995Y037383D02*
X012987Y037383D01*
X012987Y037306D02*
X014995Y037306D01*
X014995Y037229D02*
X012987Y037229D01*
X012987Y037152D02*
X014995Y037152D01*
X014995Y037074D02*
X012987Y037074D01*
X012987Y036997D02*
X014995Y036997D01*
X014995Y036920D02*
X012987Y036920D01*
X012987Y036843D02*
X014995Y036843D01*
X014995Y036765D02*
X012987Y036765D01*
X012987Y036688D02*
X014995Y036688D01*
X014995Y036611D02*
X012987Y036611D01*
X012987Y036534D02*
X014995Y036534D01*
X014995Y036457D02*
X012987Y036457D01*
X012987Y036379D02*
X014995Y036379D01*
X014995Y036302D02*
X012987Y036302D01*
X012987Y036225D02*
X014995Y036225D01*
X014995Y036148D02*
X012987Y036148D01*
X012987Y036070D02*
X014995Y036070D01*
X014989Y035596D02*
X014976Y035596D01*
X014976Y035281D01*
X015291Y035281D01*
X015291Y035294D01*
X015278Y035359D01*
X015252Y035420D01*
X015216Y035475D01*
X015169Y035521D01*
X015114Y035558D01*
X015053Y035583D01*
X014989Y035596D01*
X014936Y035596D02*
X014923Y035596D01*
X014858Y035583D01*
X014797Y035558D01*
X014743Y035521D01*
X014696Y035475D01*
X014659Y035420D01*
X014634Y035359D01*
X014621Y035294D01*
X014621Y035281D01*
X014936Y035281D01*
X014936Y035242D01*
X014621Y035242D01*
X014621Y035229D01*
X014634Y035164D01*
X014659Y035103D01*
X014696Y035048D01*
X014743Y035002D01*
X014797Y034965D01*
X014858Y034940D01*
X014923Y034927D01*
X014936Y034927D01*
X014936Y035242D01*
X014976Y035242D01*
X014976Y035281D01*
X014936Y035281D01*
X014936Y035596D01*
X014936Y035530D02*
X014976Y035530D01*
X014976Y035452D02*
X014936Y035452D01*
X014936Y035375D02*
X014976Y035375D01*
X014976Y035298D02*
X014936Y035298D01*
X014976Y035242D02*
X015291Y035242D01*
X015291Y035229D01*
X015278Y035164D01*
X015252Y035103D01*
X015216Y035048D01*
X015169Y035002D01*
X015114Y034965D01*
X015053Y034940D01*
X014989Y034927D01*
X014976Y034927D01*
X014976Y035242D01*
X014976Y035221D02*
X014936Y035221D01*
X014936Y035143D02*
X014976Y035143D01*
X014976Y035066D02*
X014936Y035066D01*
X014936Y034989D02*
X014976Y034989D01*
X015150Y034989D02*
X015549Y034989D01*
X015530Y035002D02*
X015585Y034965D01*
X015646Y034940D01*
X015710Y034927D01*
X015724Y034927D01*
X015724Y035242D01*
X015409Y035242D01*
X015409Y035229D01*
X015421Y035164D01*
X015447Y035103D01*
X015483Y035048D01*
X015530Y035002D01*
X015471Y035066D02*
X015228Y035066D01*
X015269Y035143D02*
X015430Y035143D01*
X015410Y035221D02*
X015289Y035221D01*
X015290Y035298D02*
X015409Y035298D01*
X015428Y035375D02*
X015271Y035375D01*
X015231Y035452D02*
X015468Y035452D01*
X015542Y035530D02*
X015157Y035530D01*
X014755Y035530D02*
X014370Y035530D01*
X014382Y035521D02*
X014327Y035558D01*
X014266Y035583D01*
X014201Y035596D01*
X014188Y035596D01*
X014188Y035281D01*
X014503Y035281D01*
X014503Y035294D01*
X014490Y035359D01*
X014465Y035420D01*
X014428Y035475D01*
X014382Y035521D01*
X014443Y035452D02*
X014681Y035452D01*
X014641Y035375D02*
X014484Y035375D01*
X014502Y035298D02*
X014622Y035298D01*
X014623Y035221D02*
X014502Y035221D01*
X014503Y035229D02*
X014503Y035242D01*
X014188Y035242D01*
X014188Y035281D01*
X014149Y035281D01*
X014149Y035242D01*
X014188Y035242D01*
X014188Y034927D01*
X014201Y034927D01*
X014266Y034940D01*
X014327Y034965D01*
X014382Y035002D01*
X014428Y035048D01*
X014465Y035103D01*
X014490Y035164D01*
X014503Y035229D01*
X014482Y035143D02*
X014643Y035143D01*
X014684Y035066D02*
X014440Y035066D01*
X014363Y034989D02*
X014761Y034989D01*
X014188Y034989D02*
X014149Y034989D01*
X014149Y034927D02*
X014149Y035242D01*
X013834Y035242D01*
X013834Y035229D01*
X013847Y035164D01*
X013872Y035103D01*
X013909Y035048D01*
X013955Y035002D01*
X014010Y034965D01*
X014071Y034940D01*
X014136Y034927D01*
X014149Y034927D01*
X014149Y035066D02*
X014188Y035066D01*
X014188Y035143D02*
X014149Y035143D01*
X014149Y035221D02*
X014188Y035221D01*
X014149Y035281D02*
X013834Y035281D01*
X013834Y035294D01*
X013847Y035359D01*
X013872Y035420D01*
X013909Y035475D01*
X013955Y035521D01*
X014010Y035558D01*
X014071Y035583D01*
X014136Y035596D01*
X014149Y035596D01*
X014149Y035281D01*
X014149Y035298D02*
X014188Y035298D01*
X014188Y035375D02*
X014149Y035375D01*
X014149Y035452D02*
X014188Y035452D01*
X014188Y035530D02*
X014149Y035530D01*
X013967Y035530D02*
X012987Y035530D01*
X012987Y035452D02*
X013894Y035452D01*
X013853Y035375D02*
X012987Y035375D01*
X012987Y035298D02*
X013835Y035298D01*
X013835Y035221D02*
X012987Y035221D01*
X012987Y035143D02*
X013855Y035143D01*
X013897Y035066D02*
X012987Y035066D01*
X012987Y034989D02*
X013974Y034989D01*
X015724Y034989D02*
X015763Y034989D01*
X015763Y035066D02*
X015724Y035066D01*
X015724Y035143D02*
X015763Y035143D01*
X015763Y035221D02*
X015724Y035221D01*
X015724Y035298D02*
X015763Y035298D01*
X015763Y035375D02*
X015724Y035375D01*
X015724Y035452D02*
X015763Y035452D01*
X015763Y035530D02*
X015724Y035530D01*
X016924Y035530D02*
X022174Y035530D01*
X022174Y035607D02*
X016924Y035607D01*
X016924Y035684D02*
X022174Y035684D01*
X022174Y035761D02*
X016924Y035761D01*
X016924Y035839D02*
X022196Y035839D01*
X022174Y035452D02*
X016924Y035452D01*
X016924Y035375D02*
X022174Y035375D01*
X022174Y035298D02*
X016924Y035298D01*
X016924Y035221D02*
X022174Y035221D01*
X022217Y035143D02*
X016924Y035143D01*
X015508Y037229D02*
X015192Y037229D01*
X015192Y037306D02*
X015706Y037306D01*
X015646Y037383D02*
X015192Y037383D01*
X015192Y037461D02*
X015616Y037461D01*
X015389Y037152D02*
X015192Y037152D01*
X012987Y040241D02*
X023027Y040241D01*
X023027Y040319D02*
X012987Y040319D01*
X012987Y040396D02*
X023027Y040396D01*
X023027Y040473D02*
X012987Y040473D01*
X012987Y040550D02*
X023027Y040550D01*
X023027Y040627D02*
X012987Y040627D01*
X012987Y040705D02*
X023027Y040705D01*
X023027Y040782D02*
X012987Y040782D01*
X012987Y040859D02*
X023027Y040859D01*
X023027Y040936D02*
X012987Y040936D01*
X012987Y041014D02*
X015327Y041014D01*
X015243Y041091D02*
X012987Y041091D01*
X012987Y041168D02*
X015186Y041168D01*
X015154Y041245D02*
X012987Y041245D01*
X012987Y041323D02*
X015139Y041323D01*
X015139Y041400D02*
X012987Y041400D01*
X012987Y041477D02*
X015152Y041477D01*
X015184Y041554D02*
X012987Y041554D01*
X012987Y041632D02*
X015231Y041632D01*
X015231Y041709D02*
X012987Y041709D01*
X012987Y041786D02*
X015231Y041786D01*
X015231Y041863D02*
X014718Y041863D01*
X014812Y041941D02*
X015231Y041941D01*
X015231Y042018D02*
X014848Y042018D01*
X014857Y042095D02*
X015231Y042095D01*
X015231Y042172D02*
X014857Y042172D01*
X014857Y042250D02*
X015231Y042250D01*
X015231Y042327D02*
X014857Y042327D01*
X014857Y042404D02*
X015231Y042404D01*
X015231Y042481D02*
X014857Y042481D01*
X013755Y042481D02*
X013696Y042481D01*
X013696Y042404D02*
X013755Y042404D01*
X013755Y042327D02*
X013696Y042327D01*
X013696Y042250D02*
X013755Y042250D01*
X013755Y042172D02*
X013696Y042172D01*
X013696Y042095D02*
X013755Y042095D01*
X013765Y042018D02*
X013696Y042018D01*
X013665Y041941D02*
X013801Y041941D01*
X013895Y041863D02*
X013588Y041863D01*
X015766Y041014D02*
X023027Y041014D01*
X023027Y041091D02*
X015850Y041091D01*
X015906Y041168D02*
X023027Y041168D01*
X023027Y041245D02*
X015938Y041245D01*
X015954Y041323D02*
X023027Y041323D01*
X023027Y041400D02*
X015954Y041400D01*
X015941Y041477D02*
X023027Y041477D01*
X023027Y041554D02*
X016210Y041554D01*
X016287Y041632D02*
X023027Y041632D01*
X023027Y041709D02*
X016328Y041709D01*
X016354Y041786D02*
X023027Y041786D01*
X023027Y041863D02*
X021631Y041863D01*
X021714Y041941D02*
X023027Y041941D01*
X023027Y042018D02*
X021759Y042018D01*
X021787Y042095D02*
X023027Y042095D01*
X023027Y042172D02*
X021787Y042172D01*
X021773Y042250D02*
X023027Y042250D01*
X023027Y042327D02*
X021741Y042327D01*
X021672Y042404D02*
X023027Y042404D01*
X023027Y042481D02*
X021530Y042481D01*
X021452Y042151D02*
X021058Y042545D01*
X020665Y042545D01*
X020271Y042545D01*
X020074Y042348D01*
X019483Y042348D01*
X019090Y042742D01*
X016334Y042742D01*
X016019Y042427D01*
X016019Y041836D01*
X016338Y041941D02*
X021189Y041941D01*
X021145Y042018D02*
X016306Y042018D01*
X016233Y042095D02*
X021117Y042095D01*
X021117Y042172D02*
X020177Y042172D01*
X020254Y042250D02*
X021075Y042250D01*
X020998Y042327D02*
X020331Y042327D01*
X019381Y042172D02*
X016216Y042172D01*
X016216Y042250D02*
X019304Y042250D01*
X019226Y042327D02*
X016216Y042327D01*
X016274Y042404D02*
X019149Y042404D01*
X019072Y042481D02*
X016352Y042481D01*
X016354Y041863D02*
X021273Y041863D01*
X023420Y040380D02*
X023696Y040104D01*
X024287Y040104D01*
X024365Y040104D01*
X024838Y040576D01*
X024838Y041167D01*
X024838Y042584D01*
X024838Y046403D01*
X024917Y046482D01*
X024208Y046443D02*
X023854Y046088D01*
X023420Y046088D01*
X021452Y046088D01*
X020665Y048254D02*
X020271Y048647D01*
X019680Y048647D01*
X020665Y048254D02*
X025389Y048254D01*
X025586Y048450D01*
X025192Y049041D02*
X025783Y049632D01*
X025783Y051010D01*
X024680Y052269D02*
X024995Y052584D01*
X024995Y053372D01*
X024995Y053765D01*
X024602Y053765D01*
X024602Y054356D01*
X024208Y053962D02*
X023932Y054238D01*
X023932Y054435D01*
X023932Y055478D01*
X023617Y055478D02*
X023617Y053962D01*
X023342Y053687D01*
X022909Y053687D01*
X022633Y053844D02*
X022633Y053372D01*
X022830Y053175D01*
X022712Y053293D01*
X022633Y053844D02*
X022830Y054041D01*
X022909Y054041D01*
X023105Y054041D01*
X023224Y054159D01*
X023302Y054238D01*
X023302Y054435D01*
X023302Y054632D01*
X023302Y055478D01*
X022987Y055478D02*
X022987Y054513D01*
X022830Y054356D01*
X022042Y054080D02*
X022042Y052742D01*
X022161Y052624D01*
X022397Y052388D01*
X022633Y052388D01*
X022791Y052545D01*
X023972Y052545D01*
X024326Y052545D01*
X024602Y052821D01*
X024602Y053372D01*
X024995Y053765D02*
X026334Y053765D01*
X024680Y052269D02*
X023617Y052269D01*
X023814Y050419D02*
X024011Y050222D01*
X024011Y049435D01*
X024129Y049317D01*
X024405Y049317D01*
X024956Y049041D02*
X023696Y049041D01*
X023224Y049041D01*
X023145Y049120D01*
X023066Y049120D01*
X021176Y049120D01*
X021058Y049238D01*
X019877Y050419D01*
X019680Y050616D01*
X019562Y050616D01*
X019759Y050970D02*
X020113Y050616D01*
X020113Y051049D02*
X019956Y051206D01*
X019956Y051482D01*
X019956Y053096D01*
X019956Y053372D01*
X019956Y053411D01*
X019444Y053923D01*
X019129Y054238D01*
X018893Y054474D01*
X018893Y055537D01*
X018066Y056364D01*
X018027Y056403D01*
X017239Y056403D01*
X016728Y056915D01*
X016708Y056935D01*
X016708Y057122D01*
X018539Y055143D02*
X018539Y054592D01*
X018972Y054159D01*
X019365Y053765D01*
X019759Y053372D01*
X019759Y053332D01*
X019759Y052899D01*
X019759Y051482D01*
X019759Y051167D01*
X019759Y050970D01*
X020113Y051049D02*
X021531Y049632D01*
X021924Y049632D01*
X021964Y050025D02*
X021373Y050025D01*
X020133Y051265D01*
X020133Y053155D01*
X020133Y053431D01*
X020133Y053470D01*
X019523Y054080D01*
X019287Y054317D01*
X019287Y056945D01*
X019464Y057122D01*
X019602Y054395D02*
X020310Y053687D01*
X020310Y053529D01*
X020310Y053332D01*
X020310Y051325D01*
X020350Y051285D01*
X021216Y050419D01*
X023814Y050419D01*
X024956Y049041D02*
X025192Y049041D01*
X025783Y047466D02*
X024208Y047466D01*
X023814Y047073D01*
X028145Y042939D02*
X027751Y042545D01*
X027751Y040380D01*
X027554Y040183D01*
X027554Y039592D01*
X029129Y040380D02*
X029129Y037624D01*
X029720Y037033D01*
X029917Y036836D01*
X029917Y033884D01*
X030113Y032702D02*
X033460Y032702D01*
X034050Y036246D02*
X034247Y036443D01*
X034444Y036639D01*
X035035Y036639D01*
X035231Y036836D01*
X035822Y037427D01*
X035822Y038017D01*
X034956Y037663D02*
X033224Y037663D01*
X033066Y037821D01*
X032869Y038017D01*
X033854Y038411D02*
X030507Y038411D01*
X030310Y038214D01*
X029523Y037230D02*
X029720Y037033D01*
X030310Y036246D02*
X034050Y036246D01*
X034050Y038214D02*
X033854Y038411D01*
X033657Y042545D02*
X033066Y042545D01*
X032869Y042742D01*
X029720Y042742D01*
X029129Y043332D01*
X029129Y042742D02*
X028539Y043332D01*
X028145Y043332D01*
X029129Y042742D02*
X029129Y040380D01*
X027830Y047860D02*
X027830Y050655D01*
X033066Y053962D02*
X033775Y053962D01*
X034168Y054356D01*
X034050Y052191D02*
X035231Y052191D01*
X021775Y038233D02*
X021864Y038144D01*
D33*
X016924Y020065D02*
X016865Y020006D01*
D34*
X017239Y045202D02*
X017239Y045419D01*
X013598Y045419D02*
X013598Y045202D01*
X021865Y055517D02*
X021865Y056305D01*
X021649Y056521D01*
X021865Y056738D01*
X021865Y057683D01*
X025369Y057683D02*
X025369Y056738D01*
X025369Y056521D01*
X025743Y056521D01*
X025369Y056521D02*
X025369Y056305D01*
X025369Y055517D01*
D35*
X021649Y044120D03*
X021452Y042151D03*
X016019Y041836D03*
D36*
X013598Y045202D02*
X013598Y045695D01*
X013598Y046049D01*
X013598Y046305D01*
X013972Y046679D01*
X015153Y046679D01*
X015350Y046482D01*
X015468Y046364D01*
X015468Y046049D01*
D37*
X015940Y043332D02*
X015546Y042939D01*
X015546Y041364D01*
X015350Y038844D02*
X015350Y038017D01*
X022042Y039789D02*
X023420Y039789D01*
X029287Y020143D02*
X029424Y020006D01*
X030212Y020006D01*
X033735Y020006D02*
X033735Y020143D01*
X033735Y020006D02*
X034661Y020006D01*
D38*
X015448Y052191D02*
X014464Y052191D01*
X014464Y053175D02*
X014464Y054159D01*
X014464Y053175D02*
X015448Y053175D01*
X015448Y054159D01*
D39*
X017515Y053372D03*
X036413Y053372D03*
X036413Y027781D03*
X014365Y027388D03*
D40*
X027357Y031521D02*
X028145Y032309D01*
X031294Y032309D01*
X034050Y032309D01*
X034247Y032506D01*
X034365Y032624D01*
X034838Y032624D01*
X034917Y032624D01*
X035231Y032309D01*
X037397Y032309D01*
D41*
X014759Y025419D02*
X014759Y023529D01*
X014759Y025419D02*
X014562Y025616D01*
X013972Y025616D01*
D42*
X022042Y038411D02*
X022042Y039789D01*
M02*
