G75*
%MOIN*%
%OFA0B0*%
%FSLAX24Y24*%
%IPPOS*%
%LPD*%
%AMOC8*
5,1,8,0,0,1.08239X$1,22.5*
%
%ADD10C,0.0059*%
%ADD11C,0.0839*%
%ADD12R,0.0639X0.0639*%
%ADD13C,0.0639*%
%ADD14R,0.0787X0.0787*%
%ADD15R,0.0579X0.0579*%
%ADD16C,0.0217*%
%ADD17C,0.0167*%
%ADD18C,0.0787*%
%ADD19R,0.0551X0.0551*%
%ADD20C,0.0551*%
%ADD21C,0.0739*%
%ADD22C,0.0709*%
%ADD23C,0.0069*%
%ADD24C,0.0433*%
%ADD25R,0.0779X0.0779*%
%ADD26C,0.0779*%
%ADD27C,0.1079*%
%ADD28C,0.0939*%
%ADD29R,0.0739X0.0739*%
%ADD30C,0.0157*%
%ADD31C,0.0472*%
%ADD32C,0.0579*%
%ADD33C,0.2619*%
D10*
X012594Y018726D02*
X012594Y058096D01*
X038184Y058096D01*
X038184Y018726D01*
X012594Y018726D01*
D11*
X025086Y037033D03*
X033417Y056159D03*
X034417Y056159D03*
X035417Y056159D03*
D12*
X030192Y052297D03*
X028617Y049632D03*
X031661Y041954D03*
X020468Y032399D03*
X017318Y048844D03*
D13*
X017318Y049844D03*
X017318Y050844D03*
X028617Y048632D03*
X028617Y047632D03*
X030192Y051297D03*
X032661Y041954D03*
X020468Y033399D03*
D14*
X026086Y037033D03*
D15*
X022582Y035305D03*
X030507Y046679D03*
X030507Y047663D03*
X026373Y047663D03*
X026373Y048450D03*
X025192Y049632D03*
X024405Y049632D03*
X023617Y049632D03*
X022830Y049632D03*
X022436Y048474D03*
X022436Y047269D03*
X023420Y047269D03*
X023420Y048450D03*
X014956Y056128D03*
X014956Y056876D03*
X013696Y056915D03*
X013696Y056128D03*
X037279Y024986D03*
D16*
X036639Y024602D02*
X036639Y025448D01*
X036639Y024602D02*
X035989Y024602D01*
X035989Y025448D01*
X036639Y025448D01*
X036639Y024818D02*
X035989Y024818D01*
X035989Y025034D02*
X036639Y025034D01*
X036639Y025250D02*
X035989Y025250D01*
X035084Y023125D02*
X034238Y023125D01*
X034238Y023775D01*
X035084Y023775D01*
X035084Y023125D01*
X035084Y023341D02*
X034238Y023341D01*
X034238Y023557D02*
X035084Y023557D01*
X035084Y023773D02*
X034238Y023773D01*
X032190Y024602D02*
X032190Y025448D01*
X032190Y024602D02*
X031540Y024602D01*
X031540Y025448D01*
X032190Y025448D01*
X032190Y024818D02*
X031540Y024818D01*
X031540Y025034D02*
X032190Y025034D01*
X032190Y025250D02*
X031540Y025250D01*
X030635Y023125D02*
X029789Y023125D01*
X029789Y023775D01*
X030635Y023775D01*
X030635Y023125D01*
X030635Y023341D02*
X029789Y023341D01*
X029789Y023557D02*
X030635Y023557D01*
X030635Y023773D02*
X029789Y023773D01*
X027742Y024602D02*
X027742Y025448D01*
X027742Y024602D02*
X027092Y024602D01*
X027092Y025448D01*
X027742Y025448D01*
X027742Y024818D02*
X027092Y024818D01*
X027092Y025034D02*
X027742Y025034D01*
X027742Y025250D02*
X027092Y025250D01*
X026186Y023125D02*
X025340Y023125D01*
X025340Y023775D01*
X026186Y023775D01*
X026186Y023125D01*
X026186Y023341D02*
X025340Y023341D01*
X025340Y023557D02*
X026186Y023557D01*
X026186Y023773D02*
X025340Y023773D01*
X023293Y024602D02*
X023293Y025448D01*
X023293Y024602D02*
X022643Y024602D01*
X022643Y025448D01*
X023293Y025448D01*
X023293Y024818D02*
X022643Y024818D01*
X022643Y025034D02*
X023293Y025034D01*
X023293Y025250D02*
X022643Y025250D01*
X021737Y023125D02*
X020891Y023125D01*
X020891Y023775D01*
X021737Y023775D01*
X021737Y023125D01*
X021737Y023341D02*
X020891Y023341D01*
X020891Y023557D02*
X021737Y023557D01*
X021737Y023773D02*
X020891Y023773D01*
X018844Y024602D02*
X018844Y025448D01*
X018844Y024602D02*
X018194Y024602D01*
X018194Y025448D01*
X018844Y025448D01*
X018844Y024818D02*
X018194Y024818D01*
X018194Y025034D02*
X018844Y025034D01*
X018844Y025250D02*
X018194Y025250D01*
X017288Y023125D02*
X016442Y023125D01*
X016442Y023775D01*
X017288Y023775D01*
X017288Y023125D01*
X017288Y023341D02*
X016442Y023341D01*
X016442Y023557D02*
X017288Y023557D01*
X017288Y023773D02*
X016442Y023773D01*
X016442Y019484D02*
X017288Y019484D01*
X016442Y019484D02*
X016442Y020134D01*
X017288Y020134D01*
X017288Y019484D01*
X017288Y019700D02*
X016442Y019700D01*
X016442Y019916D02*
X017288Y019916D01*
X017288Y020132D02*
X016442Y020132D01*
X019159Y020192D02*
X020005Y020192D01*
X019159Y020192D02*
X019159Y020842D01*
X020005Y020842D01*
X020005Y020192D01*
X020005Y020408D02*
X019159Y020408D01*
X019159Y020624D02*
X020005Y020624D01*
X020005Y020840D02*
X019159Y020840D01*
X020891Y019484D02*
X021737Y019484D01*
X020891Y019484D02*
X020891Y020134D01*
X021737Y020134D01*
X021737Y019484D01*
X021737Y019700D02*
X020891Y019700D01*
X020891Y019916D02*
X021737Y019916D01*
X021737Y020132D02*
X020891Y020132D01*
X023608Y020192D02*
X024454Y020192D01*
X023608Y020192D02*
X023608Y020842D01*
X024454Y020842D01*
X024454Y020192D01*
X024454Y020408D02*
X023608Y020408D01*
X023608Y020624D02*
X024454Y020624D01*
X024454Y020840D02*
X023608Y020840D01*
X025340Y019484D02*
X026186Y019484D01*
X025340Y019484D02*
X025340Y020134D01*
X026186Y020134D01*
X026186Y019484D01*
X026186Y019700D02*
X025340Y019700D01*
X025340Y019916D02*
X026186Y019916D01*
X026186Y020132D02*
X025340Y020132D01*
X028057Y020192D02*
X028903Y020192D01*
X028057Y020192D02*
X028057Y020842D01*
X028903Y020842D01*
X028903Y020192D01*
X028903Y020408D02*
X028057Y020408D01*
X028057Y020624D02*
X028903Y020624D01*
X028903Y020840D02*
X028057Y020840D01*
X029789Y019484D02*
X030635Y019484D01*
X029789Y019484D02*
X029789Y020134D01*
X030635Y020134D01*
X030635Y019484D01*
X030635Y019700D02*
X029789Y019700D01*
X029789Y019916D02*
X030635Y019916D01*
X030635Y020132D02*
X029789Y020132D01*
X032505Y020192D02*
X033351Y020192D01*
X032505Y020192D02*
X032505Y020842D01*
X033351Y020842D01*
X033351Y020192D01*
X033351Y020408D02*
X032505Y020408D01*
X032505Y020624D02*
X033351Y020624D01*
X033351Y020840D02*
X032505Y020840D01*
X034238Y019484D02*
X035084Y019484D01*
X034238Y019484D02*
X034238Y020134D01*
X035084Y020134D01*
X035084Y019484D01*
X035084Y019700D02*
X034238Y019700D01*
X034238Y019916D02*
X035084Y019916D01*
X035084Y020132D02*
X034238Y020132D01*
X036954Y020192D02*
X037800Y020192D01*
X036954Y020192D02*
X036954Y020842D01*
X037800Y020842D01*
X037800Y020192D01*
X037800Y020408D02*
X036954Y020408D01*
X036954Y020624D02*
X037800Y020624D01*
X037800Y020840D02*
X036954Y020840D01*
X019237Y043027D02*
X018391Y043027D01*
X018391Y043677D01*
X019237Y043677D01*
X019237Y043027D01*
X019237Y043243D02*
X018391Y043243D01*
X018391Y043459D02*
X019237Y043459D01*
X019237Y043675D02*
X018391Y043675D01*
X016914Y044583D02*
X016914Y045429D01*
X017564Y045429D01*
X017564Y044583D01*
X016914Y044583D01*
X016914Y044799D02*
X017564Y044799D01*
X017564Y045015D02*
X016914Y045015D01*
X016914Y045231D02*
X017564Y045231D01*
X013981Y042712D02*
X013981Y041866D01*
X013981Y042712D02*
X014631Y042712D01*
X014631Y041866D01*
X013981Y041866D01*
X013981Y042082D02*
X014631Y042082D01*
X014631Y042298D02*
X013981Y042298D01*
X013981Y042514D02*
X014631Y042514D01*
X013273Y044583D02*
X013273Y045429D01*
X013923Y045429D01*
X013923Y044583D01*
X013273Y044583D01*
X013273Y044799D02*
X013923Y044799D01*
X013923Y045015D02*
X013273Y045015D01*
X013273Y045231D02*
X013923Y045231D01*
X022190Y054898D02*
X022190Y055744D01*
X022190Y054898D02*
X021540Y054898D01*
X021540Y055744D01*
X022190Y055744D01*
X022190Y055114D02*
X021540Y055114D01*
X021540Y055330D02*
X022190Y055330D01*
X022190Y055546D02*
X021540Y055546D01*
X022190Y057063D02*
X022190Y057909D01*
X022190Y057063D02*
X021540Y057063D01*
X021540Y057909D01*
X022190Y057909D01*
X022190Y057279D02*
X021540Y057279D01*
X021540Y057495D02*
X022190Y057495D01*
X022190Y057711D02*
X021540Y057711D01*
X025694Y057909D02*
X025694Y057063D01*
X025044Y057063D01*
X025044Y057909D01*
X025694Y057909D01*
X025694Y057279D02*
X025044Y057279D01*
X025044Y057495D02*
X025694Y057495D01*
X025694Y057711D02*
X025044Y057711D01*
X025694Y055744D02*
X025694Y054898D01*
X025044Y054898D01*
X025044Y055744D01*
X025694Y055744D01*
X025694Y055114D02*
X025044Y055114D01*
X025044Y055330D02*
X025694Y055330D01*
X025694Y055546D02*
X025044Y055546D01*
D17*
X013494Y042737D02*
X013494Y041841D01*
X012992Y041841D01*
X012992Y042737D01*
X013494Y042737D01*
X013494Y042007D02*
X012992Y042007D01*
X012992Y042173D02*
X013494Y042173D01*
X013494Y042339D02*
X012992Y042339D01*
X012992Y042505D02*
X013494Y042505D01*
X013494Y042671D02*
X012992Y042671D01*
X019134Y019705D02*
X020030Y019705D01*
X020030Y019203D01*
X019134Y019203D01*
X019134Y019705D01*
X019134Y019369D02*
X020030Y019369D01*
X020030Y019535D02*
X019134Y019535D01*
X019134Y019701D02*
X020030Y019701D01*
X023583Y019705D02*
X024479Y019705D01*
X024479Y019203D01*
X023583Y019203D01*
X023583Y019705D01*
X023583Y019369D02*
X024479Y019369D01*
X024479Y019535D02*
X023583Y019535D01*
X023583Y019701D02*
X024479Y019701D01*
X028032Y019705D02*
X028928Y019705D01*
X028928Y019203D01*
X028032Y019203D01*
X028032Y019705D01*
X028032Y019369D02*
X028928Y019369D01*
X028928Y019535D02*
X028032Y019535D01*
X028032Y019701D02*
X028928Y019701D01*
X032480Y019705D02*
X033376Y019705D01*
X033376Y019203D01*
X032480Y019203D01*
X032480Y019705D01*
X032480Y019369D02*
X033376Y019369D01*
X033376Y019535D02*
X032480Y019535D01*
X032480Y019701D02*
X033376Y019701D01*
X036929Y019705D02*
X037825Y019705D01*
X037825Y019203D01*
X036929Y019203D01*
X036929Y019705D01*
X036929Y019369D02*
X037825Y019369D01*
X037825Y019535D02*
X036929Y019535D01*
X036929Y019701D02*
X037825Y019701D01*
D18*
X036019Y020202D03*
X036019Y022958D03*
X031570Y022958D03*
X031570Y020202D03*
X027121Y020202D03*
X027121Y022958D03*
X022672Y022958D03*
X022672Y020202D03*
X018224Y020202D03*
X018224Y022958D03*
X016747Y043647D03*
X013991Y043647D03*
D19*
X020665Y027388D03*
D20*
X020665Y028175D03*
X021452Y028175D03*
X021452Y027388D03*
X022239Y027388D03*
X022239Y028175D03*
X023027Y028175D03*
X023027Y027388D03*
X023814Y027388D03*
X023814Y028175D03*
X024602Y028175D03*
X024602Y027388D03*
X025389Y027388D03*
X025389Y028175D03*
X026176Y028175D03*
X026176Y027388D03*
D21*
X022731Y032702D03*
X020684Y056925D03*
X020074Y057693D03*
X019464Y056925D03*
X017928Y056925D03*
X017318Y057693D03*
X016708Y056925D03*
D22*
X015743Y022860D03*
X015743Y021088D03*
D23*
X016348Y021811D02*
X016348Y022097D01*
X016556Y022097D01*
X016556Y021811D01*
X016348Y021811D01*
X016348Y021879D02*
X016556Y021879D01*
X016556Y021947D02*
X016348Y021947D01*
X016348Y022015D02*
X016556Y022015D01*
X016556Y022083D02*
X016348Y022083D01*
X016348Y022323D02*
X016348Y022609D01*
X016556Y022609D01*
X016556Y022323D01*
X016348Y022323D01*
X016348Y022391D02*
X016556Y022391D01*
X016556Y022459D02*
X016348Y022459D01*
X016348Y022527D02*
X016556Y022527D01*
X016556Y022595D02*
X016348Y022595D01*
X025561Y025129D02*
X025847Y025129D01*
X025847Y024921D01*
X025561Y024921D01*
X025561Y025129D01*
X025561Y024989D02*
X025847Y024989D01*
X025847Y025057D02*
X025561Y025057D01*
X025561Y025125D02*
X025847Y025125D01*
X026073Y025129D02*
X026359Y025129D01*
X026359Y024921D01*
X026073Y024921D01*
X026073Y025129D01*
X026073Y024989D02*
X026359Y024989D01*
X026359Y025057D02*
X026073Y025057D01*
X026073Y025125D02*
X026359Y025125D01*
X029616Y022058D02*
X029616Y021772D01*
X029616Y022058D02*
X029824Y022058D01*
X029824Y021772D01*
X029616Y021772D01*
X029616Y021840D02*
X029824Y021840D01*
X029824Y021908D02*
X029616Y021908D01*
X029616Y021976D02*
X029824Y021976D01*
X029824Y022044D02*
X029616Y022044D01*
X029616Y021546D02*
X029616Y021260D01*
X029616Y021546D02*
X029824Y021546D01*
X029824Y021260D01*
X029616Y021260D01*
X029616Y021328D02*
X029824Y021328D01*
X029824Y021396D02*
X029616Y021396D01*
X029616Y021464D02*
X029824Y021464D01*
X029824Y021532D02*
X029616Y021532D01*
X033946Y021546D02*
X033946Y021260D01*
X033946Y021546D02*
X034154Y021546D01*
X034154Y021260D01*
X033946Y021260D01*
X033946Y021328D02*
X034154Y021328D01*
X034154Y021396D02*
X033946Y021396D01*
X033946Y021464D02*
X034154Y021464D01*
X034154Y021532D02*
X033946Y021532D01*
X033946Y021772D02*
X033946Y022058D01*
X034154Y022058D01*
X034154Y021772D01*
X033946Y021772D01*
X033946Y021840D02*
X034154Y021840D01*
X034154Y021908D02*
X033946Y021908D01*
X033946Y021976D02*
X034154Y021976D01*
X034154Y022044D02*
X033946Y022044D01*
X014706Y045276D02*
X014706Y045562D01*
X014706Y045276D02*
X014498Y045276D01*
X014498Y045562D01*
X014706Y045562D01*
X014706Y045344D02*
X014498Y045344D01*
X014498Y045412D02*
X014706Y045412D01*
X014706Y045480D02*
X014498Y045480D01*
X014498Y045548D02*
X014706Y045548D01*
X014706Y045788D02*
X014706Y046074D01*
X014706Y045788D02*
X014498Y045788D01*
X014498Y046074D01*
X014706Y046074D01*
X014706Y045856D02*
X014498Y045856D01*
X014498Y045924D02*
X014706Y045924D01*
X014706Y045992D02*
X014498Y045992D01*
X014498Y046060D02*
X014706Y046060D01*
X023091Y054823D02*
X023091Y055739D01*
X023091Y054823D02*
X022883Y054823D01*
X022883Y055739D01*
X023091Y055739D01*
X023091Y054891D02*
X022883Y054891D01*
X022883Y054959D02*
X023091Y054959D01*
X023091Y055027D02*
X022883Y055027D01*
X022883Y055095D02*
X023091Y055095D01*
X023091Y055163D02*
X022883Y055163D01*
X022883Y055231D02*
X023091Y055231D01*
X023091Y055299D02*
X022883Y055299D01*
X022883Y055367D02*
X023091Y055367D01*
X023091Y055435D02*
X022883Y055435D01*
X022883Y055503D02*
X023091Y055503D01*
X023091Y055571D02*
X022883Y055571D01*
X022883Y055639D02*
X023091Y055639D01*
X023091Y055707D02*
X022883Y055707D01*
X023406Y055739D02*
X023406Y054823D01*
X023198Y054823D01*
X023198Y055739D01*
X023406Y055739D01*
X023406Y054891D02*
X023198Y054891D01*
X023198Y054959D02*
X023406Y054959D01*
X023406Y055027D02*
X023198Y055027D01*
X023198Y055095D02*
X023406Y055095D01*
X023406Y055163D02*
X023198Y055163D01*
X023198Y055231D02*
X023406Y055231D01*
X023406Y055299D02*
X023198Y055299D01*
X023198Y055367D02*
X023406Y055367D01*
X023406Y055435D02*
X023198Y055435D01*
X023198Y055503D02*
X023406Y055503D01*
X023406Y055571D02*
X023198Y055571D01*
X023198Y055639D02*
X023406Y055639D01*
X023406Y055707D02*
X023198Y055707D01*
X023721Y055739D02*
X023721Y054823D01*
X023513Y054823D01*
X023513Y055739D01*
X023721Y055739D01*
X023721Y054891D02*
X023513Y054891D01*
X023513Y054959D02*
X023721Y054959D01*
X023721Y055027D02*
X023513Y055027D01*
X023513Y055095D02*
X023721Y055095D01*
X023721Y055163D02*
X023513Y055163D01*
X023513Y055231D02*
X023721Y055231D01*
X023721Y055299D02*
X023513Y055299D01*
X023513Y055367D02*
X023721Y055367D01*
X023721Y055435D02*
X023513Y055435D01*
X023513Y055503D02*
X023721Y055503D01*
X023721Y055571D02*
X023513Y055571D01*
X023513Y055639D02*
X023721Y055639D01*
X023721Y055707D02*
X023513Y055707D01*
X024036Y055739D02*
X024036Y054823D01*
X023828Y054823D01*
X023828Y055739D01*
X024036Y055739D01*
X024036Y054891D02*
X023828Y054891D01*
X023828Y054959D02*
X024036Y054959D01*
X024036Y055027D02*
X023828Y055027D01*
X023828Y055095D02*
X024036Y055095D01*
X024036Y055163D02*
X023828Y055163D01*
X023828Y055231D02*
X024036Y055231D01*
X024036Y055299D02*
X023828Y055299D01*
X023828Y055367D02*
X024036Y055367D01*
X024036Y055435D02*
X023828Y055435D01*
X023828Y055503D02*
X024036Y055503D01*
X024036Y055571D02*
X023828Y055571D01*
X023828Y055639D02*
X024036Y055639D01*
X024036Y055707D02*
X023828Y055707D01*
X024351Y055739D02*
X024351Y054823D01*
X024143Y054823D01*
X024143Y055739D01*
X024351Y055739D01*
X024351Y054891D02*
X024143Y054891D01*
X024143Y054959D02*
X024351Y054959D01*
X024351Y055027D02*
X024143Y055027D01*
X024143Y055095D02*
X024351Y055095D01*
X024351Y055163D02*
X024143Y055163D01*
X024143Y055231D02*
X024351Y055231D01*
X024351Y055299D02*
X024143Y055299D01*
X024143Y055367D02*
X024351Y055367D01*
X024351Y055435D02*
X024143Y055435D01*
X024143Y055503D02*
X024351Y055503D01*
X024351Y055571D02*
X024143Y055571D01*
X024143Y055639D02*
X024351Y055639D01*
X024351Y055707D02*
X024143Y055707D01*
D24*
X024483Y056305D03*
X022751Y056305D03*
X021649Y043923D03*
D25*
X018696Y046187D03*
X014464Y051994D03*
D26*
X015448Y051994D03*
X015448Y052978D03*
X015448Y053962D03*
X014464Y053962D03*
X014464Y052978D03*
X016728Y047171D03*
X016728Y046187D03*
X017712Y046187D03*
X017712Y047171D03*
X018696Y047171D03*
D27*
X015468Y045852D03*
X014129Y055222D03*
D28*
X015783Y050734D03*
X019956Y047506D03*
D29*
X023716Y032702D03*
D30*
X024977Y023963D02*
X024977Y023489D01*
X024227Y023489D01*
X024227Y023963D01*
X024977Y023963D01*
X024977Y023645D02*
X024227Y023645D01*
X024227Y023801D02*
X024977Y023801D01*
X024977Y023957D02*
X024227Y023957D01*
X024977Y022231D02*
X024977Y021757D01*
X024227Y021757D01*
X024227Y022231D01*
X024977Y022231D01*
X024977Y021913D02*
X024227Y021913D01*
X024227Y022069D02*
X024977Y022069D01*
X024977Y022225D02*
X024227Y022225D01*
X015134Y021837D02*
X015134Y021363D01*
X014384Y021363D01*
X014384Y021837D01*
X015134Y021837D01*
X015134Y021519D02*
X014384Y021519D01*
X014384Y021675D02*
X015134Y021675D01*
X015134Y021831D02*
X014384Y021831D01*
X015134Y023095D02*
X015134Y023569D01*
X015134Y023095D02*
X014384Y023095D01*
X014384Y023569D01*
X015134Y023569D01*
X015134Y023251D02*
X014384Y023251D01*
X014384Y023407D02*
X015134Y023407D01*
X015134Y023563D02*
X014384Y023563D01*
D31*
X015153Y030340D03*
X015743Y030340D03*
X016531Y031325D03*
X017318Y031325D03*
X018105Y031325D03*
X018893Y031325D03*
X015743Y035065D03*
X014956Y035065D03*
X014168Y035065D03*
X015625Y036718D03*
X016294Y036718D03*
X015940Y037348D03*
X018184Y037191D03*
X018184Y037821D03*
X018184Y038411D03*
X018854Y038411D03*
X018854Y037821D03*
X018854Y037230D03*
X022042Y039592D03*
X023420Y039592D03*
X022594Y042151D03*
X025428Y043647D03*
X027279Y045813D03*
X025389Y046954D03*
X023814Y046482D03*
X027554Y043332D03*
X029208Y044513D03*
X028932Y046206D03*
X026452Y050813D03*
X027948Y054356D03*
X025743Y056325D03*
X021649Y056325D03*
X030507Y056718D03*
X032003Y056010D03*
D32*
X032476Y045301D03*
X033066Y044907D03*
X033066Y042939D03*
X031885Y042939D03*
X030743Y044828D03*
X028342Y040380D03*
X032082Y039080D03*
X033854Y040065D03*
X035428Y040458D03*
X034917Y038175D03*
X034838Y034277D03*
X034641Y032899D03*
X034641Y031915D03*
X035035Y029356D03*
X032672Y026797D03*
X028539Y025025D03*
X029287Y019947D03*
X033735Y019947D03*
X026964Y031915D03*
X024168Y040340D03*
X024011Y041010D03*
X019680Y042545D03*
X015940Y043136D03*
X015546Y041167D03*
X013381Y030340D03*
X022042Y021285D03*
X023027Y021285D03*
X020546Y054041D03*
D33*
X017515Y053175D03*
X036413Y053175D03*
X036413Y027584D03*
X014365Y027191D03*
M02*
