G75*
%MOIN*%
%OFA0B0*%
%FSLAX24Y24*%
%IPPOS*%
%LPD*%
%AMOC8*
5,1,8,0,0,1.08239X$1,22.5*
%
%ADD10C,0.0059*%
%ADD11C,0.0030*%
%ADD12C,0.0070*%
%ADD13C,0.0080*%
%ADD14C,0.0050*%
%ADD15R,0.0315X0.0150*%
%ADD16R,0.0150X0.0315*%
%ADD17R,0.0118X0.0335*%
%ADD18R,0.0591X0.0199*%
%ADD19R,0.0335X0.0118*%
%ADD20C,0.0049*%
%ADD21C,0.0000*%
%ADD22C,0.0001*%
%ADD23R,0.0276X0.0236*%
%ADD24R,0.0984X0.0199*%
%ADD25R,0.0394X0.0394*%
%ADD26C,0.0060*%
%ADD27R,0.0285X0.0300*%
%ADD28C,0.0040*%
%ADD29R,0.0197X0.0157*%
%ADD30R,0.0193X0.0433*%
%ADD31C,0.0352*%
%ADD32C,0.0591*%
%ADD33R,0.0177X0.0118*%
%ADD34R,0.0118X0.0177*%
%ADD35R,0.1063X0.0217*%
%ADD36R,0.0236X0.0354*%
D10*
X012987Y016969D02*
X019680Y016969D01*
X020271Y017362D02*
X020271Y020709D01*
X020271Y024055D01*
X021255Y024055D01*
X019873Y025579D02*
X019873Y027548D01*
X026960Y027548D01*
X026960Y025579D01*
X019873Y025579D01*
X018302Y022874D02*
X017712Y022874D01*
X018302Y022874D02*
X018302Y021103D01*
X018302Y018150D02*
X018302Y017166D01*
X016531Y017166D02*
X014562Y017166D01*
X014562Y018150D01*
X014562Y021103D02*
X014562Y022874D01*
X015546Y022874D01*
X014562Y023662D02*
X014562Y024055D01*
X014523Y024055D02*
X014523Y023662D01*
X014483Y023662D02*
X014483Y024055D01*
X014542Y027756D02*
X013361Y027756D01*
X013361Y030906D01*
X014542Y030906D01*
X014739Y030709D01*
X015133Y030709D01*
X015330Y030906D01*
X016511Y030906D01*
X016511Y027756D01*
X015330Y027756D01*
X015133Y027953D01*
X014739Y027953D01*
X014542Y027756D01*
X018263Y031378D02*
X018263Y031457D01*
X018263Y031378D02*
X019523Y031378D01*
X019523Y031457D01*
X019523Y033583D02*
X018263Y033583D01*
X018263Y033622D01*
X019523Y033622D01*
X019523Y033583D01*
X019523Y033622D02*
X019523Y033662D01*
X018263Y033662D01*
X018263Y033622D01*
X021472Y034390D02*
X021472Y036359D01*
X022417Y036359D01*
X022417Y034390D01*
X021472Y034390D01*
X023578Y036260D02*
X023578Y037048D01*
X023814Y037048D02*
X024208Y037048D01*
X024208Y037441D01*
X024109Y037441D01*
X024129Y037638D02*
X024287Y037638D01*
X024208Y037048D02*
X024602Y037048D01*
X024602Y036851D02*
X023814Y036851D01*
X023814Y036457D01*
X024602Y036457D01*
X024602Y036851D01*
X024838Y037048D02*
X024838Y036260D01*
X024602Y036260D02*
X024208Y036260D01*
X024208Y035866D01*
X024287Y035866D01*
X024287Y035670D02*
X024129Y035670D01*
X024405Y035414D02*
X025054Y035414D01*
X025054Y036063D01*
X024208Y036260D02*
X023814Y036260D01*
X020310Y037520D02*
X020310Y038150D01*
X019838Y038150D02*
X019838Y037520D01*
X019129Y037796D02*
X019129Y038150D01*
X018499Y038150D01*
X018499Y037796D01*
X018499Y038150D02*
X018499Y038189D01*
X019129Y038189D01*
X019129Y038150D01*
X019129Y038189D02*
X019129Y038229D01*
X018499Y038229D01*
X018499Y038189D01*
X016728Y038189D02*
X016098Y038189D01*
X016098Y038150D01*
X016728Y038150D01*
X016728Y037796D01*
X016728Y038150D02*
X016728Y038189D01*
X016728Y038229D01*
X016098Y038229D01*
X016098Y038189D01*
X016098Y038150D02*
X016098Y037796D01*
X014247Y037244D02*
X014247Y039213D01*
X013302Y039213D01*
X013302Y037244D01*
X014247Y037244D01*
X014598Y040197D02*
X012558Y040197D01*
X012558Y042166D01*
X014598Y042166D01*
X014598Y040197D01*
X013775Y042756D02*
X013775Y043544D01*
X013775Y047087D01*
X013775Y048544D01*
X016137Y048544D01*
X016137Y047087D01*
X016137Y043347D01*
X016137Y042756D01*
X013775Y042756D01*
X018204Y043071D02*
X020172Y043071D01*
X020172Y044016D01*
X018204Y044016D01*
X018204Y043071D01*
X021255Y040886D02*
X021255Y045610D01*
X026373Y045610D01*
X026373Y040492D01*
X021649Y040492D01*
X021255Y040886D01*
X021649Y041083D02*
X021651Y041110D01*
X021657Y041137D01*
X021666Y041163D01*
X021679Y041187D01*
X021695Y041210D01*
X021714Y041229D01*
X021736Y041246D01*
X021760Y041260D01*
X021785Y041270D01*
X021812Y041277D01*
X021839Y041280D01*
X021867Y041279D01*
X021894Y041274D01*
X021920Y041266D01*
X021944Y041254D01*
X021967Y041238D01*
X021988Y041220D01*
X022005Y041199D01*
X022020Y041175D01*
X022031Y041150D01*
X022039Y041124D01*
X022043Y041097D01*
X022043Y041069D01*
X022039Y041042D01*
X022031Y041016D01*
X022020Y040991D01*
X022005Y040967D01*
X021988Y040946D01*
X021967Y040928D01*
X021945Y040912D01*
X021920Y040900D01*
X021894Y040892D01*
X021867Y040887D01*
X021839Y040886D01*
X021812Y040889D01*
X021785Y040896D01*
X021760Y040906D01*
X021736Y040920D01*
X021714Y040937D01*
X021695Y040956D01*
X021679Y040979D01*
X021666Y041003D01*
X021657Y041029D01*
X021651Y041056D01*
X021649Y041083D01*
X028066Y045217D02*
X028066Y047185D01*
X029011Y047185D01*
X029011Y045217D01*
X028066Y045217D01*
X030507Y043032D02*
X030901Y043032D01*
X030901Y042992D02*
X030507Y042992D01*
X030507Y042953D02*
X030901Y042953D01*
X030901Y045807D02*
X031098Y045807D01*
X030901Y045807D02*
X030901Y046988D01*
X031098Y046988D01*
X028794Y047835D02*
X028086Y047835D01*
X028086Y048701D01*
X028794Y048701D01*
X028794Y047835D01*
X025015Y049351D02*
X025015Y049705D01*
X024385Y049705D01*
X024385Y049351D01*
X024385Y049705D02*
X024385Y049744D01*
X025015Y049744D01*
X025015Y049705D01*
X025015Y049744D02*
X025015Y049784D01*
X024385Y049784D01*
X024385Y049744D01*
X024129Y051614D02*
X024090Y051614D01*
X024090Y052402D01*
X024129Y052402D01*
X024129Y051614D01*
X024090Y051614D02*
X024050Y051614D01*
X024050Y052402D01*
X024090Y052402D01*
X024050Y052402D02*
X023932Y052402D01*
X023893Y052402D01*
X023735Y052559D02*
X023709Y052557D01*
X023684Y052552D01*
X023660Y052544D01*
X023637Y052533D01*
X023615Y052518D01*
X023596Y052501D01*
X023579Y052482D01*
X023564Y052461D01*
X023553Y052437D01*
X023545Y052413D01*
X023540Y052388D01*
X023538Y052362D01*
X023735Y052559D02*
X024523Y052559D01*
X024523Y052560D02*
X024551Y052552D01*
X024578Y052540D01*
X024604Y052526D01*
X024628Y052509D01*
X024649Y052489D01*
X024669Y052468D01*
X024686Y052444D01*
X024700Y052418D01*
X024712Y052391D01*
X024720Y052363D01*
X024050Y051614D02*
X023932Y051614D01*
X023893Y051614D01*
X022712Y052363D02*
X022704Y052391D01*
X022692Y052418D01*
X022678Y052444D01*
X022661Y052468D01*
X022641Y052489D01*
X022620Y052509D01*
X022596Y052526D01*
X022570Y052540D01*
X022543Y052552D01*
X022515Y052560D01*
X022515Y052559D02*
X021728Y052559D01*
X021702Y052557D01*
X021677Y052552D01*
X021653Y052544D01*
X021630Y052533D01*
X021608Y052518D01*
X021589Y052501D01*
X021572Y052482D01*
X021557Y052461D01*
X021546Y052437D01*
X021538Y052413D01*
X021533Y052388D01*
X021531Y052362D01*
X021885Y052402D02*
X021924Y052402D01*
X022042Y052402D01*
X022042Y051614D01*
X021924Y051614D01*
X021885Y051614D01*
X022042Y051614D02*
X022082Y051614D01*
X022082Y052402D01*
X022121Y052402D01*
X022121Y051614D01*
X022082Y051614D01*
X022082Y052402D02*
X022042Y052402D01*
X020507Y052559D02*
X019720Y052559D01*
X019694Y052557D01*
X019669Y052552D01*
X019645Y052544D01*
X019622Y052533D01*
X019600Y052518D01*
X019581Y052501D01*
X019564Y052482D01*
X019549Y052461D01*
X019538Y052437D01*
X019530Y052413D01*
X019525Y052388D01*
X019523Y052362D01*
X019877Y052402D02*
X019917Y052402D01*
X020035Y052402D01*
X020035Y051614D01*
X019917Y051614D01*
X019877Y051614D01*
X020035Y051614D02*
X020074Y051614D01*
X020074Y052402D01*
X020113Y052402D01*
X020113Y051614D01*
X020074Y051614D01*
X020704Y052363D02*
X020696Y052391D01*
X020684Y052418D01*
X020670Y052444D01*
X020653Y052468D01*
X020633Y052489D01*
X020612Y052509D01*
X020588Y052526D01*
X020562Y052540D01*
X020535Y052552D01*
X020507Y052560D01*
X020074Y052402D02*
X020035Y052402D01*
X018499Y052559D02*
X017712Y052559D01*
X017686Y052557D01*
X017661Y052552D01*
X017637Y052544D01*
X017614Y052533D01*
X017592Y052518D01*
X017573Y052501D01*
X017556Y052482D01*
X017541Y052461D01*
X017530Y052437D01*
X017522Y052413D01*
X017517Y052388D01*
X017515Y052362D01*
X017869Y052402D02*
X017909Y052402D01*
X018027Y052402D01*
X018027Y051614D01*
X017909Y051614D01*
X017869Y051614D01*
X018027Y051614D02*
X018066Y051614D01*
X018066Y052402D01*
X018105Y052402D01*
X018105Y051614D01*
X018066Y051614D01*
X018696Y052363D02*
X018688Y052391D01*
X018676Y052418D01*
X018662Y052444D01*
X018645Y052468D01*
X018625Y052489D01*
X018604Y052509D01*
X018580Y052526D01*
X018554Y052540D01*
X018527Y052552D01*
X018499Y052560D01*
X018066Y052402D02*
X018027Y052402D01*
X031491Y039587D02*
X031491Y038642D01*
X033460Y038642D01*
X033460Y039587D01*
X031491Y039587D01*
X033932Y039607D02*
X033934Y039694D01*
X033940Y039780D01*
X033950Y039866D01*
X033964Y039952D01*
X033981Y040037D01*
X034003Y040121D01*
X034029Y040203D01*
X034058Y040285D01*
X034091Y040365D01*
X034127Y040444D01*
X034167Y040521D01*
X034211Y040595D01*
X034258Y040668D01*
X034308Y040739D01*
X034362Y040807D01*
X034418Y040873D01*
X034478Y040936D01*
X034540Y040996D01*
X034605Y041053D01*
X034673Y041108D01*
X034743Y041159D01*
X034815Y041206D01*
X034890Y041251D01*
X034966Y041292D01*
X035044Y041329D01*
X035124Y041363D01*
X035205Y041393D01*
X035288Y041420D01*
X035371Y041442D01*
X035456Y041461D01*
X035541Y041476D01*
X035627Y041487D01*
X035714Y041494D01*
X035800Y041497D01*
X035887Y041496D01*
X035974Y041491D01*
X036060Y041482D01*
X036145Y041469D01*
X036230Y041452D01*
X036315Y041432D01*
X036398Y041407D01*
X036480Y041379D01*
X036560Y041347D01*
X036639Y041311D01*
X036717Y041272D01*
X036792Y041229D01*
X036865Y041183D01*
X036936Y041133D01*
X037005Y041081D01*
X037072Y041025D01*
X037135Y040966D01*
X037196Y040905D01*
X037254Y040840D01*
X037309Y040773D01*
X037361Y040704D01*
X037410Y040632D01*
X037455Y040558D01*
X037497Y040482D01*
X037535Y040405D01*
X037570Y040325D01*
X037601Y040244D01*
X037629Y040162D01*
X037652Y040079D01*
X037672Y039994D01*
X037688Y039909D01*
X037700Y039823D01*
X037708Y039737D01*
X037712Y039650D01*
X037712Y039564D01*
X037708Y039477D01*
X037700Y039391D01*
X037688Y039305D01*
X037672Y039220D01*
X037652Y039135D01*
X037629Y039052D01*
X037601Y038970D01*
X037570Y038889D01*
X037535Y038809D01*
X037497Y038732D01*
X037455Y038656D01*
X037410Y038582D01*
X037361Y038510D01*
X037309Y038441D01*
X037254Y038374D01*
X037196Y038309D01*
X037135Y038248D01*
X037072Y038189D01*
X037005Y038133D01*
X036936Y038081D01*
X036865Y038031D01*
X036792Y037985D01*
X036717Y037942D01*
X036639Y037903D01*
X036560Y037867D01*
X036480Y037835D01*
X036398Y037807D01*
X036315Y037782D01*
X036230Y037762D01*
X036145Y037745D01*
X036060Y037732D01*
X035974Y037723D01*
X035887Y037718D01*
X035800Y037717D01*
X035714Y037720D01*
X035627Y037727D01*
X035541Y037738D01*
X035456Y037753D01*
X035371Y037772D01*
X035288Y037794D01*
X035205Y037821D01*
X035124Y037851D01*
X035044Y037885D01*
X034966Y037922D01*
X034890Y037963D01*
X034815Y038008D01*
X034743Y038055D01*
X034673Y038106D01*
X034605Y038161D01*
X034540Y038218D01*
X034478Y038278D01*
X034418Y038341D01*
X034362Y038407D01*
X034308Y038475D01*
X034258Y038546D01*
X034211Y038619D01*
X034167Y038693D01*
X034127Y038770D01*
X034091Y038849D01*
X034058Y038929D01*
X034029Y039011D01*
X034003Y039093D01*
X033981Y039177D01*
X033964Y039262D01*
X033950Y039348D01*
X033940Y039434D01*
X033934Y039520D01*
X033932Y039607D01*
X033932Y035079D02*
X033934Y035166D01*
X033940Y035252D01*
X033950Y035338D01*
X033964Y035424D01*
X033981Y035509D01*
X034003Y035593D01*
X034029Y035675D01*
X034058Y035757D01*
X034091Y035837D01*
X034127Y035916D01*
X034167Y035993D01*
X034211Y036067D01*
X034258Y036140D01*
X034308Y036211D01*
X034362Y036279D01*
X034418Y036345D01*
X034478Y036408D01*
X034540Y036468D01*
X034605Y036525D01*
X034673Y036580D01*
X034743Y036631D01*
X034815Y036678D01*
X034890Y036723D01*
X034966Y036764D01*
X035044Y036801D01*
X035124Y036835D01*
X035205Y036865D01*
X035288Y036892D01*
X035371Y036914D01*
X035456Y036933D01*
X035541Y036948D01*
X035627Y036959D01*
X035714Y036966D01*
X035800Y036969D01*
X035887Y036968D01*
X035974Y036963D01*
X036060Y036954D01*
X036145Y036941D01*
X036230Y036924D01*
X036315Y036904D01*
X036398Y036879D01*
X036480Y036851D01*
X036560Y036819D01*
X036639Y036783D01*
X036717Y036744D01*
X036792Y036701D01*
X036865Y036655D01*
X036936Y036605D01*
X037005Y036553D01*
X037072Y036497D01*
X037135Y036438D01*
X037196Y036377D01*
X037254Y036312D01*
X037309Y036245D01*
X037361Y036176D01*
X037410Y036104D01*
X037455Y036030D01*
X037497Y035954D01*
X037535Y035877D01*
X037570Y035797D01*
X037601Y035716D01*
X037629Y035634D01*
X037652Y035551D01*
X037672Y035466D01*
X037688Y035381D01*
X037700Y035295D01*
X037708Y035209D01*
X037712Y035122D01*
X037712Y035036D01*
X037708Y034949D01*
X037700Y034863D01*
X037688Y034777D01*
X037672Y034692D01*
X037652Y034607D01*
X037629Y034524D01*
X037601Y034442D01*
X037570Y034361D01*
X037535Y034281D01*
X037497Y034204D01*
X037455Y034128D01*
X037410Y034054D01*
X037361Y033982D01*
X037309Y033913D01*
X037254Y033846D01*
X037196Y033781D01*
X037135Y033720D01*
X037072Y033661D01*
X037005Y033605D01*
X036936Y033553D01*
X036865Y033503D01*
X036792Y033457D01*
X036717Y033414D01*
X036639Y033375D01*
X036560Y033339D01*
X036480Y033307D01*
X036398Y033279D01*
X036315Y033254D01*
X036230Y033234D01*
X036145Y033217D01*
X036060Y033204D01*
X035974Y033195D01*
X035887Y033190D01*
X035800Y033189D01*
X035714Y033192D01*
X035627Y033199D01*
X035541Y033210D01*
X035456Y033225D01*
X035371Y033244D01*
X035288Y033266D01*
X035205Y033293D01*
X035124Y033323D01*
X035044Y033357D01*
X034966Y033394D01*
X034890Y033435D01*
X034815Y033480D01*
X034743Y033527D01*
X034673Y033578D01*
X034605Y033633D01*
X034540Y033690D01*
X034478Y033750D01*
X034418Y033813D01*
X034362Y033879D01*
X034308Y033947D01*
X034258Y034018D01*
X034211Y034091D01*
X034167Y034165D01*
X034127Y034242D01*
X034091Y034321D01*
X034058Y034401D01*
X034029Y034483D01*
X034003Y034565D01*
X033981Y034649D01*
X033964Y034734D01*
X033950Y034820D01*
X033940Y034906D01*
X033934Y034992D01*
X033932Y035079D01*
X032940Y033799D02*
X032546Y033799D01*
X032940Y033799D02*
X033334Y033406D01*
X033334Y030256D01*
X032546Y030256D01*
X030578Y030256D02*
X029791Y030256D01*
X029791Y033406D01*
X030184Y033799D01*
X030578Y033799D01*
X023696Y032323D02*
X023698Y032410D01*
X023704Y032496D01*
X023714Y032582D01*
X023728Y032668D01*
X023745Y032753D01*
X023767Y032837D01*
X023793Y032919D01*
X023822Y033001D01*
X023855Y033081D01*
X023891Y033160D01*
X023931Y033237D01*
X023975Y033311D01*
X024022Y033384D01*
X024072Y033455D01*
X024126Y033523D01*
X024182Y033589D01*
X024242Y033652D01*
X024304Y033712D01*
X024369Y033769D01*
X024437Y033824D01*
X024507Y033875D01*
X024579Y033922D01*
X024654Y033967D01*
X024730Y034008D01*
X024808Y034045D01*
X024888Y034079D01*
X024969Y034109D01*
X025052Y034136D01*
X025135Y034158D01*
X025220Y034177D01*
X025305Y034192D01*
X025391Y034203D01*
X025478Y034210D01*
X025564Y034213D01*
X025651Y034212D01*
X025738Y034207D01*
X025824Y034198D01*
X025909Y034185D01*
X025994Y034168D01*
X026079Y034148D01*
X026162Y034123D01*
X026244Y034095D01*
X026324Y034063D01*
X026403Y034027D01*
X026481Y033988D01*
X026556Y033945D01*
X026629Y033899D01*
X026700Y033849D01*
X026769Y033797D01*
X026836Y033741D01*
X026899Y033682D01*
X026960Y033621D01*
X027018Y033556D01*
X027073Y033489D01*
X027125Y033420D01*
X027174Y033348D01*
X027219Y033274D01*
X027261Y033198D01*
X027299Y033121D01*
X027334Y033041D01*
X027365Y032960D01*
X027393Y032878D01*
X027416Y032795D01*
X027436Y032710D01*
X027452Y032625D01*
X027464Y032539D01*
X027472Y032453D01*
X027476Y032366D01*
X027476Y032280D01*
X027472Y032193D01*
X027464Y032107D01*
X027452Y032021D01*
X027436Y031936D01*
X027416Y031851D01*
X027393Y031768D01*
X027365Y031686D01*
X027334Y031605D01*
X027299Y031525D01*
X027261Y031448D01*
X027219Y031372D01*
X027174Y031298D01*
X027125Y031226D01*
X027073Y031157D01*
X027018Y031090D01*
X026960Y031025D01*
X026899Y030964D01*
X026836Y030905D01*
X026769Y030849D01*
X026700Y030797D01*
X026629Y030747D01*
X026556Y030701D01*
X026481Y030658D01*
X026403Y030619D01*
X026324Y030583D01*
X026244Y030551D01*
X026162Y030523D01*
X026079Y030498D01*
X025994Y030478D01*
X025909Y030461D01*
X025824Y030448D01*
X025738Y030439D01*
X025651Y030434D01*
X025564Y030433D01*
X025478Y030436D01*
X025391Y030443D01*
X025305Y030454D01*
X025220Y030469D01*
X025135Y030488D01*
X025052Y030510D01*
X024969Y030537D01*
X024888Y030567D01*
X024808Y030601D01*
X024730Y030638D01*
X024654Y030679D01*
X024579Y030724D01*
X024507Y030771D01*
X024437Y030822D01*
X024369Y030877D01*
X024304Y030934D01*
X024242Y030994D01*
X024182Y031057D01*
X024126Y031123D01*
X024072Y031191D01*
X024022Y031262D01*
X023975Y031335D01*
X023931Y031409D01*
X023891Y031486D01*
X023855Y031565D01*
X023822Y031645D01*
X023793Y031727D01*
X023767Y031809D01*
X023745Y031893D01*
X023728Y031978D01*
X023714Y032064D01*
X023704Y032150D01*
X023698Y032236D01*
X023696Y032323D01*
X023539Y029961D02*
X024483Y029961D01*
X024483Y027992D01*
X023539Y027992D01*
X023539Y029961D01*
X025586Y024055D02*
X026570Y024055D01*
X026570Y020709D01*
X026570Y017362D01*
X020271Y017362D01*
X027436Y018583D02*
X027751Y018583D01*
X027436Y018583D02*
X027436Y023622D01*
X027751Y023622D01*
X030980Y023622D02*
X031216Y023622D01*
X031216Y018583D01*
X030901Y018583D01*
X032161Y018583D02*
X032476Y018583D01*
X032161Y018583D02*
X032161Y023622D01*
X032476Y023622D01*
X035704Y023622D02*
X035940Y023622D01*
X035940Y018583D01*
X035625Y018583D01*
X033932Y030551D02*
X033934Y030638D01*
X033940Y030724D01*
X033950Y030810D01*
X033964Y030896D01*
X033981Y030981D01*
X034003Y031065D01*
X034029Y031147D01*
X034058Y031229D01*
X034091Y031309D01*
X034127Y031388D01*
X034167Y031465D01*
X034211Y031539D01*
X034258Y031612D01*
X034308Y031683D01*
X034362Y031751D01*
X034418Y031817D01*
X034478Y031880D01*
X034540Y031940D01*
X034605Y031997D01*
X034673Y032052D01*
X034743Y032103D01*
X034815Y032150D01*
X034890Y032195D01*
X034966Y032236D01*
X035044Y032273D01*
X035124Y032307D01*
X035205Y032337D01*
X035288Y032364D01*
X035371Y032386D01*
X035456Y032405D01*
X035541Y032420D01*
X035627Y032431D01*
X035714Y032438D01*
X035800Y032441D01*
X035887Y032440D01*
X035974Y032435D01*
X036060Y032426D01*
X036145Y032413D01*
X036230Y032396D01*
X036315Y032376D01*
X036398Y032351D01*
X036480Y032323D01*
X036560Y032291D01*
X036639Y032255D01*
X036717Y032216D01*
X036792Y032173D01*
X036865Y032127D01*
X036936Y032077D01*
X037005Y032025D01*
X037072Y031969D01*
X037135Y031910D01*
X037196Y031849D01*
X037254Y031784D01*
X037309Y031717D01*
X037361Y031648D01*
X037410Y031576D01*
X037455Y031502D01*
X037497Y031426D01*
X037535Y031349D01*
X037570Y031269D01*
X037601Y031188D01*
X037629Y031106D01*
X037652Y031023D01*
X037672Y030938D01*
X037688Y030853D01*
X037700Y030767D01*
X037708Y030681D01*
X037712Y030594D01*
X037712Y030508D01*
X037708Y030421D01*
X037700Y030335D01*
X037688Y030249D01*
X037672Y030164D01*
X037652Y030079D01*
X037629Y029996D01*
X037601Y029914D01*
X037570Y029833D01*
X037535Y029753D01*
X037497Y029676D01*
X037455Y029600D01*
X037410Y029526D01*
X037361Y029454D01*
X037309Y029385D01*
X037254Y029318D01*
X037196Y029253D01*
X037135Y029192D01*
X037072Y029133D01*
X037005Y029077D01*
X036936Y029025D01*
X036865Y028975D01*
X036792Y028929D01*
X036717Y028886D01*
X036639Y028847D01*
X036560Y028811D01*
X036480Y028779D01*
X036398Y028751D01*
X036315Y028726D01*
X036230Y028706D01*
X036145Y028689D01*
X036060Y028676D01*
X035974Y028667D01*
X035887Y028662D01*
X035800Y028661D01*
X035714Y028664D01*
X035627Y028671D01*
X035541Y028682D01*
X035456Y028697D01*
X035371Y028716D01*
X035288Y028738D01*
X035205Y028765D01*
X035124Y028795D01*
X035044Y028829D01*
X034966Y028866D01*
X034890Y028907D01*
X034815Y028952D01*
X034743Y028999D01*
X034673Y029050D01*
X034605Y029105D01*
X034540Y029162D01*
X034478Y029222D01*
X034418Y029285D01*
X034362Y029351D01*
X034308Y029419D01*
X034258Y029490D01*
X034211Y029563D01*
X034167Y029637D01*
X034127Y029714D01*
X034091Y029793D01*
X034058Y029873D01*
X034029Y029955D01*
X034003Y030037D01*
X033981Y030121D01*
X033964Y030206D01*
X033950Y030292D01*
X033940Y030378D01*
X033934Y030464D01*
X033932Y030551D01*
X033263Y045807D02*
X033066Y045807D01*
X033263Y045807D02*
X033263Y046988D01*
X033066Y046988D01*
X032448Y050036D02*
X032448Y052201D01*
X036385Y052201D01*
X036385Y050036D01*
X032448Y050036D01*
D11*
X032264Y050012D02*
X032167Y049915D01*
X032167Y049964D02*
X032167Y049818D01*
X032264Y049818D02*
X031973Y049818D01*
X031973Y049964D01*
X032022Y050012D01*
X032119Y050012D01*
X032167Y049964D01*
X032215Y050113D02*
X032264Y050161D01*
X032264Y050258D01*
X032215Y050307D01*
X032119Y050307D01*
X032070Y050258D01*
X032070Y050210D01*
X032119Y050113D01*
X031973Y050113D01*
X031973Y050307D01*
X032022Y050408D02*
X031973Y050456D01*
X031973Y050553D01*
X032022Y050601D01*
X032215Y050408D01*
X032264Y050456D01*
X032264Y050553D01*
X032215Y050601D01*
X032022Y050601D01*
X032022Y050408D02*
X032215Y050408D01*
X031476Y050447D02*
X031428Y050447D01*
X031234Y050641D01*
X031186Y050641D01*
X031186Y050447D01*
X031234Y050346D02*
X031283Y050346D01*
X031331Y050298D01*
X031380Y050346D01*
X031428Y050346D01*
X031476Y050298D01*
X031476Y050201D01*
X031428Y050152D01*
X031428Y050051D02*
X031476Y050003D01*
X031476Y049906D01*
X031428Y049858D01*
X031234Y049858D01*
X031186Y049906D01*
X031186Y050003D01*
X031234Y050051D01*
X031234Y050152D02*
X031186Y050201D01*
X031186Y050298D01*
X031234Y050346D01*
X031331Y050298D02*
X031331Y050249D01*
X031561Y051893D02*
X031561Y052183D01*
X031707Y052183D01*
X031755Y052135D01*
X031755Y052038D01*
X031707Y051990D01*
X031561Y051990D01*
X031658Y051990D02*
X031755Y051893D01*
X031856Y052038D02*
X032001Y052183D01*
X032001Y051893D01*
X032050Y052038D02*
X031856Y052038D01*
X032151Y052038D02*
X032296Y052038D01*
X032344Y051990D01*
X032344Y051942D01*
X032296Y051893D01*
X032199Y051893D01*
X032151Y051942D01*
X032151Y052038D01*
X032247Y052135D01*
X032344Y052183D01*
X034980Y049402D02*
X035173Y049209D01*
X035222Y049257D01*
X035222Y049354D01*
X035173Y049402D01*
X034980Y049402D01*
X034931Y049354D01*
X034931Y049257D01*
X034980Y049209D01*
X035173Y049209D01*
X035076Y049108D02*
X035076Y048914D01*
X034931Y049059D01*
X035222Y049059D01*
X035173Y048813D02*
X035222Y048765D01*
X035222Y048668D01*
X035173Y048619D01*
X034980Y048619D01*
X034931Y048668D01*
X034931Y048765D01*
X034980Y048813D01*
X034238Y048289D02*
X034238Y048240D01*
X034190Y048192D01*
X034238Y048144D01*
X034238Y048095D01*
X034190Y048047D01*
X034093Y048047D01*
X034044Y048095D01*
X033943Y048047D02*
X033750Y048047D01*
X033943Y048240D01*
X033943Y048289D01*
X033895Y048337D01*
X033798Y048337D01*
X033750Y048289D01*
X033649Y048289D02*
X033600Y048337D01*
X033504Y048337D01*
X033455Y048289D01*
X033455Y048095D01*
X033504Y048047D01*
X033600Y048047D01*
X033649Y048095D01*
X034044Y048289D02*
X034093Y048337D01*
X034190Y048337D01*
X034238Y048289D01*
X034190Y048192D02*
X034141Y048192D01*
X034754Y046585D02*
X034754Y046343D01*
X034803Y046295D01*
X034899Y046295D01*
X034948Y046343D01*
X034948Y046585D01*
X035049Y046585D02*
X035242Y046585D01*
X035242Y046537D01*
X035049Y046343D01*
X035049Y046295D01*
X035544Y046079D02*
X035544Y045885D01*
X035592Y045837D01*
X035689Y045837D01*
X035737Y045885D01*
X035838Y045885D02*
X035887Y045837D01*
X035983Y045837D01*
X036032Y045885D01*
X036032Y045934D01*
X035983Y045982D01*
X035935Y045982D01*
X035983Y045982D02*
X036032Y046030D01*
X036032Y046079D01*
X035983Y046127D01*
X035887Y046127D01*
X035838Y046079D01*
X035737Y046079D02*
X035689Y046127D01*
X035592Y046127D01*
X035544Y046079D01*
X036133Y046079D02*
X036133Y046030D01*
X036181Y045982D01*
X036278Y045982D01*
X036326Y045934D01*
X036326Y045885D01*
X036278Y045837D01*
X036181Y045837D01*
X036133Y045885D01*
X036133Y045934D01*
X036181Y045982D01*
X036278Y045982D02*
X036326Y046030D01*
X036326Y046079D01*
X036278Y046127D01*
X036181Y046127D01*
X036133Y046079D01*
X035432Y044297D02*
X035335Y044297D01*
X035286Y044248D01*
X035185Y044151D02*
X034992Y044151D01*
X035137Y044297D01*
X035137Y044006D01*
X035286Y044006D02*
X035480Y044200D01*
X035480Y044248D01*
X035432Y044297D01*
X035480Y044006D02*
X035286Y044006D01*
X034891Y044055D02*
X034842Y044006D01*
X034746Y044006D01*
X034697Y044055D01*
X034697Y044248D01*
X034746Y044297D01*
X034842Y044297D01*
X034891Y044248D01*
X035036Y042569D02*
X034891Y042424D01*
X035084Y042424D01*
X035036Y042279D02*
X035036Y042569D01*
X034790Y042424D02*
X034596Y042424D01*
X034741Y042569D01*
X034741Y042279D01*
X034495Y042279D02*
X034398Y042376D01*
X034447Y042376D02*
X034302Y042376D01*
X034302Y042279D02*
X034302Y042569D01*
X034447Y042569D01*
X034495Y042521D01*
X034495Y042424D01*
X034447Y042376D01*
X035325Y042376D02*
X035470Y042376D01*
X035519Y042424D01*
X035519Y042521D01*
X035470Y042569D01*
X035325Y042569D01*
X035325Y042279D01*
X035422Y042376D02*
X035519Y042279D01*
X035620Y042424D02*
X035813Y042424D01*
X035915Y042424D02*
X036011Y042473D01*
X036060Y042473D01*
X036108Y042424D01*
X036108Y042327D01*
X036060Y042279D01*
X035963Y042279D01*
X035915Y042327D01*
X035915Y042424D02*
X035915Y042569D01*
X036108Y042569D01*
X036270Y042521D02*
X036270Y042327D01*
X036318Y042279D01*
X036415Y042279D01*
X036464Y042327D01*
X036565Y042424D02*
X036758Y042424D01*
X036859Y042473D02*
X036956Y042569D01*
X036956Y042279D01*
X036859Y042279D02*
X037053Y042279D01*
X036710Y042279D02*
X036710Y042569D01*
X036565Y042424D01*
X036464Y042521D02*
X036415Y042569D01*
X036318Y042569D01*
X036270Y042521D01*
X035765Y042569D02*
X035620Y042424D01*
X035765Y042279D02*
X035765Y042569D01*
X036789Y043223D02*
X036838Y043175D01*
X037031Y043175D01*
X037080Y043223D01*
X037080Y043320D01*
X037031Y043368D01*
X037031Y043469D02*
X037080Y043518D01*
X037080Y043614D01*
X037031Y043663D01*
X036935Y043663D01*
X036886Y043614D01*
X036886Y043566D01*
X036935Y043469D01*
X036789Y043469D01*
X036789Y043663D01*
X036838Y043764D02*
X036789Y043812D01*
X036789Y043909D01*
X036838Y043958D01*
X037031Y043764D01*
X037080Y043812D01*
X037080Y043909D01*
X037031Y043958D01*
X036838Y043958D01*
X036838Y043764D02*
X037031Y043764D01*
X036838Y043368D02*
X036789Y043320D01*
X036789Y043223D01*
X037215Y041683D02*
X037360Y041683D01*
X037408Y041635D01*
X037408Y041538D01*
X037360Y041490D01*
X037215Y041490D01*
X037312Y041490D02*
X037408Y041393D01*
X037510Y041442D02*
X037558Y041393D01*
X037655Y041393D01*
X037703Y041442D01*
X037703Y041538D01*
X037655Y041587D01*
X037606Y041587D01*
X037510Y041538D01*
X037510Y041683D01*
X037703Y041683D01*
X037804Y041635D02*
X037853Y041683D01*
X037949Y041683D01*
X037998Y041635D01*
X037998Y041587D01*
X037804Y041393D01*
X037998Y041393D01*
X037215Y041393D02*
X037215Y041683D01*
X033452Y041673D02*
X033452Y041721D01*
X033404Y041770D01*
X033259Y041770D01*
X033259Y041673D01*
X033307Y041624D01*
X033404Y041624D01*
X033452Y041673D01*
X033356Y041866D02*
X033259Y041770D01*
X033356Y041866D02*
X033452Y041915D01*
X033158Y041915D02*
X033158Y041673D01*
X033109Y041624D01*
X033013Y041624D01*
X032964Y041673D01*
X032964Y041915D01*
X031673Y042889D02*
X031383Y042889D01*
X031383Y043034D01*
X031431Y043083D01*
X031528Y043083D01*
X031576Y043034D01*
X031576Y042889D01*
X031576Y042986D02*
X031673Y043083D01*
X031528Y043184D02*
X031528Y043377D01*
X031431Y043479D02*
X031383Y043527D01*
X031383Y043624D01*
X031431Y043672D01*
X031480Y043672D01*
X031528Y043624D01*
X031576Y043672D01*
X031625Y043672D01*
X031673Y043624D01*
X031673Y043527D01*
X031625Y043479D01*
X031528Y043575D02*
X031528Y043624D01*
X031383Y043329D02*
X031528Y043184D01*
X031673Y043329D02*
X031383Y043329D01*
X030411Y042313D02*
X030459Y042265D01*
X030459Y042217D01*
X030411Y042168D01*
X030459Y042120D01*
X030459Y042072D01*
X030411Y042023D01*
X030314Y042023D01*
X030266Y042072D01*
X030164Y042072D02*
X030164Y042265D01*
X030116Y042313D01*
X029971Y042313D01*
X029971Y042023D01*
X030116Y042023D01*
X030164Y042072D01*
X030196Y041880D02*
X030293Y041880D01*
X030341Y041832D01*
X030341Y041784D01*
X030293Y041735D01*
X030341Y041687D01*
X030341Y041638D01*
X030293Y041590D01*
X030196Y041590D01*
X030147Y041638D01*
X030046Y041590D02*
X029950Y041687D01*
X029998Y041687D02*
X029853Y041687D01*
X029853Y041590D02*
X029853Y041880D01*
X029998Y041880D01*
X030046Y041832D01*
X030046Y041735D01*
X029998Y041687D01*
X030147Y041832D02*
X030196Y041880D01*
X030244Y041735D02*
X030293Y041735D01*
X030442Y041638D02*
X030442Y041590D01*
X030442Y041638D02*
X030636Y041832D01*
X030636Y041880D01*
X030442Y041880D01*
X030411Y042168D02*
X030362Y042168D01*
X030266Y042265D02*
X030314Y042313D01*
X030411Y042313D01*
X029436Y042077D02*
X029436Y041787D01*
X029340Y041787D02*
X029533Y041787D01*
X029340Y041980D02*
X029436Y042077D01*
X029239Y042077D02*
X029045Y042077D01*
X029045Y041932D01*
X029142Y041980D01*
X029190Y041980D01*
X029239Y041932D01*
X029239Y041835D01*
X029190Y041787D01*
X029093Y041787D01*
X029045Y041835D01*
X028944Y041835D02*
X028896Y041787D01*
X028799Y041787D01*
X028750Y041835D01*
X028750Y042029D01*
X028799Y042077D01*
X028896Y042077D01*
X028944Y042029D01*
X028176Y042190D02*
X028176Y042238D01*
X028127Y042286D01*
X027982Y042286D01*
X027982Y042190D01*
X028030Y042141D01*
X028127Y042141D01*
X028176Y042190D01*
X028079Y042383D02*
X027982Y042286D01*
X027881Y042286D02*
X027833Y042238D01*
X027687Y042238D01*
X027687Y042141D02*
X027687Y042431D01*
X027833Y042431D01*
X027881Y042383D01*
X027881Y042286D01*
X027784Y042238D02*
X027881Y042141D01*
X028079Y042383D02*
X028176Y042431D01*
X027742Y043696D02*
X027549Y043696D01*
X027646Y043696D02*
X027646Y043987D01*
X027549Y043890D01*
X027448Y043987D02*
X027448Y043745D01*
X027399Y043696D01*
X027303Y043696D01*
X027254Y043745D01*
X027254Y043987D01*
X027342Y044328D02*
X027535Y044328D01*
X027584Y044377D01*
X027584Y044473D01*
X027535Y044522D01*
X027535Y044623D02*
X027584Y044671D01*
X027584Y044768D01*
X027535Y044816D01*
X027439Y044816D01*
X027390Y044768D01*
X027390Y044720D01*
X027439Y044623D01*
X027293Y044623D01*
X027293Y044816D01*
X027342Y044917D02*
X027293Y044966D01*
X027293Y045063D01*
X027342Y045111D01*
X027390Y045111D01*
X027584Y044917D01*
X027584Y045111D01*
X027342Y044522D02*
X027293Y044473D01*
X027293Y044377D01*
X027342Y044328D01*
X028120Y044253D02*
X028120Y044060D01*
X028169Y044011D01*
X028266Y044011D01*
X028314Y044060D01*
X028415Y044011D02*
X028609Y044011D01*
X028512Y044011D02*
X028512Y044302D01*
X028415Y044205D01*
X028314Y044253D02*
X028266Y044302D01*
X028169Y044302D01*
X028120Y044253D01*
X028710Y044302D02*
X028710Y044156D01*
X028807Y044205D01*
X028855Y044205D01*
X028903Y044156D01*
X028903Y044060D01*
X028855Y044011D01*
X028758Y044011D01*
X028710Y044060D01*
X028710Y044302D02*
X028903Y044302D01*
X030399Y045724D02*
X030641Y045724D01*
X030689Y045772D01*
X030689Y045869D01*
X030641Y045917D01*
X030399Y045917D01*
X030447Y046019D02*
X030495Y046019D01*
X030544Y046067D01*
X030544Y046164D01*
X030592Y046212D01*
X030641Y046212D01*
X030689Y046164D01*
X030689Y046067D01*
X030641Y046019D01*
X030592Y046019D01*
X030544Y046067D01*
X030544Y046164D02*
X030495Y046212D01*
X030447Y046212D01*
X030399Y046164D01*
X030399Y046067D01*
X030447Y046019D01*
X028735Y047342D02*
X028541Y047342D01*
X028638Y047342D02*
X028638Y047632D01*
X028541Y047536D01*
X028440Y047632D02*
X028343Y047632D01*
X028392Y047632D02*
X028392Y047390D01*
X028343Y047342D01*
X028295Y047342D01*
X028246Y047390D01*
X027368Y047544D02*
X027319Y047496D01*
X027223Y047496D01*
X027174Y047544D01*
X027073Y047544D02*
X027025Y047496D01*
X026928Y047496D01*
X026880Y047544D01*
X026880Y047641D02*
X026976Y047689D01*
X027025Y047689D01*
X027073Y047641D01*
X027073Y047544D01*
X026880Y047641D02*
X026880Y047786D01*
X027073Y047786D01*
X027174Y047737D02*
X027223Y047786D01*
X027319Y047786D01*
X027368Y047737D01*
X027368Y047689D01*
X027319Y047641D01*
X027368Y047592D01*
X027368Y047544D01*
X027319Y047641D02*
X027271Y047641D01*
X026779Y047737D02*
X026730Y047786D01*
X026633Y047786D01*
X026585Y047737D01*
X026585Y047544D01*
X026633Y047496D01*
X026730Y047496D01*
X026779Y047544D01*
X026395Y049188D02*
X026298Y049188D01*
X026250Y049237D01*
X026149Y049237D02*
X026149Y049479D01*
X026250Y049430D02*
X026298Y049479D01*
X026395Y049479D01*
X026443Y049430D01*
X026443Y049382D01*
X026395Y049334D01*
X026443Y049285D01*
X026443Y049237D01*
X026395Y049188D01*
X026395Y049334D02*
X026347Y049334D01*
X026149Y049237D02*
X026100Y049188D01*
X026004Y049188D01*
X025955Y049237D01*
X025955Y049479D01*
X025676Y049729D02*
X025676Y049922D01*
X025627Y049971D01*
X025530Y049971D01*
X025482Y049922D01*
X025482Y049874D01*
X025530Y049826D01*
X025676Y049826D01*
X025676Y049729D02*
X025627Y049681D01*
X025530Y049681D01*
X025482Y049729D01*
X025381Y049729D02*
X025333Y049681D01*
X025236Y049681D01*
X025187Y049729D01*
X025187Y049922D01*
X025236Y049971D01*
X025333Y049971D01*
X025381Y049922D01*
X025403Y051039D02*
X025596Y051232D01*
X025596Y051281D01*
X025548Y051329D01*
X025451Y051329D01*
X025403Y051281D01*
X025205Y051329D02*
X025205Y051039D01*
X025108Y051039D02*
X025302Y051039D01*
X025403Y051039D02*
X025596Y051039D01*
X025205Y051329D02*
X025108Y051232D01*
X025007Y051184D02*
X024959Y051136D01*
X024813Y051136D01*
X024813Y051039D02*
X024813Y051329D01*
X024959Y051329D01*
X025007Y051281D01*
X025007Y051184D01*
X024910Y051136D02*
X025007Y051039D01*
X024062Y050817D02*
X024062Y050527D01*
X023965Y050527D02*
X024159Y050527D01*
X023965Y050721D02*
X024062Y050817D01*
X023864Y050769D02*
X023816Y050817D01*
X023670Y050817D01*
X023670Y050527D01*
X023816Y050527D01*
X023864Y050575D01*
X023864Y050769D01*
X023569Y050817D02*
X023376Y050817D01*
X023376Y050527D01*
X023569Y050527D01*
X023473Y050672D02*
X023376Y050672D01*
X023275Y050527D02*
X023081Y050527D01*
X023081Y050817D01*
X022426Y050690D02*
X022378Y050739D01*
X022281Y050739D01*
X022233Y050690D01*
X022132Y050690D02*
X022083Y050739D01*
X021938Y050739D01*
X021938Y050448D01*
X022083Y050448D01*
X022132Y050497D01*
X022132Y050690D01*
X022233Y050448D02*
X022426Y050642D01*
X022426Y050690D01*
X022426Y050448D02*
X022233Y050448D01*
X022203Y050345D02*
X022300Y050345D01*
X022348Y050297D01*
X022348Y050248D01*
X022300Y050200D01*
X022348Y050151D01*
X022348Y050103D01*
X022300Y050055D01*
X022203Y050055D01*
X022155Y050103D01*
X022054Y050055D02*
X021860Y050055D01*
X021957Y050055D02*
X021957Y050345D01*
X021860Y050248D01*
X021759Y050200D02*
X021710Y050151D01*
X021565Y050151D01*
X021565Y050055D02*
X021565Y050345D01*
X021710Y050345D01*
X021759Y050297D01*
X021759Y050200D01*
X021662Y050151D02*
X021759Y050055D01*
X021919Y049917D02*
X021967Y049820D01*
X022064Y049723D01*
X022064Y049868D01*
X022112Y049917D01*
X022161Y049917D01*
X022209Y049868D01*
X022209Y049771D01*
X022161Y049723D01*
X022064Y049723D01*
X022015Y049622D02*
X021967Y049622D01*
X021919Y049574D01*
X021919Y049477D01*
X021967Y049428D01*
X021967Y049327D02*
X022064Y049327D01*
X022112Y049279D01*
X022112Y049134D01*
X022112Y049231D02*
X022209Y049327D01*
X022209Y049428D02*
X022015Y049622D01*
X022209Y049622D02*
X022209Y049428D01*
X021967Y049327D02*
X021919Y049279D01*
X021919Y049134D01*
X022209Y049134D01*
X021935Y049037D02*
X021741Y048843D01*
X021790Y048795D01*
X021886Y048795D01*
X021935Y048843D01*
X021935Y049037D01*
X021886Y049085D01*
X021790Y049085D01*
X021741Y049037D01*
X021741Y048843D01*
X021640Y048795D02*
X021447Y048795D01*
X021640Y048988D01*
X021640Y049037D01*
X021592Y049085D01*
X021495Y049085D01*
X021447Y049037D01*
X021345Y049037D02*
X021345Y048940D01*
X021297Y048892D01*
X021152Y048892D01*
X021249Y048892D02*
X021345Y048795D01*
X021152Y048795D02*
X021152Y049085D01*
X021297Y049085D01*
X021345Y049037D01*
X021004Y049096D02*
X020714Y049096D01*
X020859Y048951D01*
X020859Y049145D01*
X021004Y048850D02*
X021004Y048656D01*
X021004Y048753D02*
X020714Y048753D01*
X020810Y048656D01*
X020762Y048555D02*
X020714Y048507D01*
X020714Y048410D01*
X020762Y048362D01*
X020955Y048362D01*
X021004Y048410D01*
X021004Y048507D01*
X020955Y048555D01*
X019752Y048937D02*
X019703Y048888D01*
X019606Y048888D01*
X019558Y048937D01*
X019558Y049033D02*
X019655Y049082D01*
X019703Y049082D01*
X019752Y049033D01*
X019752Y048937D01*
X019558Y049033D02*
X019558Y049178D01*
X019752Y049178D01*
X019457Y049130D02*
X019409Y049178D01*
X019312Y049178D01*
X019263Y049130D01*
X019162Y049130D02*
X019162Y049033D01*
X019114Y048985D01*
X018969Y048985D01*
X019066Y048985D02*
X019162Y048888D01*
X019263Y048888D02*
X019457Y049082D01*
X019457Y049130D01*
X019457Y048888D02*
X019263Y048888D01*
X019162Y049130D02*
X019114Y049178D01*
X018969Y049178D01*
X018969Y048888D01*
X018983Y049740D02*
X018790Y049740D01*
X018790Y050030D01*
X018769Y050173D02*
X018963Y050173D01*
X018866Y050173D02*
X018866Y050463D01*
X018769Y050366D01*
X018668Y050318D02*
X018620Y050269D01*
X018475Y050269D01*
X018475Y050173D02*
X018475Y050463D01*
X018620Y050463D01*
X018668Y050415D01*
X018668Y050318D01*
X018572Y050269D02*
X018668Y050173D01*
X019064Y050221D02*
X019112Y050173D01*
X019209Y050173D01*
X019258Y050221D01*
X019258Y050269D01*
X019209Y050318D01*
X019064Y050318D01*
X019064Y050221D01*
X019064Y050318D02*
X019161Y050415D01*
X019258Y050463D01*
X019278Y050030D02*
X019084Y050030D01*
X019084Y049740D01*
X019278Y049740D01*
X019379Y049740D02*
X019524Y049740D01*
X019573Y049788D01*
X019573Y049982D01*
X019524Y050030D01*
X019379Y050030D01*
X019379Y049740D01*
X019181Y049885D02*
X019084Y049885D01*
X019674Y049982D02*
X019722Y050030D01*
X019819Y050030D01*
X019867Y049982D01*
X019867Y049933D01*
X019819Y049885D01*
X019867Y049836D01*
X019867Y049788D01*
X019819Y049740D01*
X019722Y049740D01*
X019674Y049788D01*
X019770Y049885D02*
X019819Y049885D01*
X020483Y050055D02*
X020483Y050345D01*
X020628Y050345D01*
X020676Y050297D01*
X020676Y050200D01*
X020628Y050151D01*
X020483Y050151D01*
X020579Y050151D02*
X020676Y050055D01*
X020777Y050055D02*
X020971Y050055D01*
X020874Y050055D02*
X020874Y050345D01*
X020777Y050248D01*
X021072Y050200D02*
X021169Y050248D01*
X021217Y050248D01*
X021265Y050200D01*
X021265Y050103D01*
X021217Y050055D01*
X021120Y050055D01*
X021072Y050103D01*
X021072Y050200D02*
X021072Y050345D01*
X021265Y050345D01*
X021349Y050448D02*
X021542Y050448D01*
X021643Y050448D02*
X021837Y050448D01*
X021740Y050593D02*
X021643Y050593D01*
X021643Y050448D02*
X021643Y050739D01*
X021837Y050739D01*
X021349Y050739D02*
X021349Y050448D01*
X022155Y050297D02*
X022203Y050345D01*
X022251Y050200D02*
X022300Y050200D01*
X024493Y048132D02*
X024638Y047987D01*
X024638Y048181D01*
X024783Y048132D02*
X024493Y048132D01*
X024542Y047886D02*
X024638Y047886D01*
X024687Y047838D01*
X024687Y047692D01*
X024783Y047692D02*
X024493Y047692D01*
X024493Y047838D01*
X024542Y047886D01*
X024687Y047789D02*
X024783Y047886D01*
X024406Y047018D02*
X024309Y047018D01*
X024261Y046970D01*
X024261Y046776D01*
X024454Y046970D01*
X024454Y046776D01*
X024406Y046728D01*
X024309Y046728D01*
X024261Y046776D01*
X024160Y046776D02*
X024111Y046728D01*
X024015Y046728D01*
X023966Y046776D01*
X023865Y046728D02*
X023768Y046825D01*
X023817Y046825D02*
X023672Y046825D01*
X023672Y046728D02*
X023672Y047018D01*
X023817Y047018D01*
X023865Y046970D01*
X023865Y046873D01*
X023817Y046825D01*
X023966Y046970D02*
X024015Y047018D01*
X024111Y047018D01*
X024160Y046970D01*
X024160Y046921D01*
X024111Y046873D01*
X024160Y046825D01*
X024160Y046776D01*
X024111Y046873D02*
X024063Y046873D01*
X024406Y047018D02*
X024454Y046970D01*
X023470Y046970D02*
X023277Y046776D01*
X023277Y046728D01*
X023176Y046728D02*
X022982Y046728D01*
X023176Y046921D01*
X023176Y046970D01*
X023127Y047018D01*
X023030Y047018D01*
X022982Y046970D01*
X022881Y046970D02*
X022881Y046873D01*
X022833Y046825D01*
X022687Y046825D01*
X022687Y046728D02*
X022687Y047018D01*
X022833Y047018D01*
X022881Y046970D01*
X022784Y046825D02*
X022881Y046728D01*
X022429Y046732D02*
X022380Y046683D01*
X022284Y046683D01*
X022235Y046732D01*
X022235Y046780D01*
X022284Y046829D01*
X022380Y046829D01*
X022429Y046780D01*
X022429Y046732D01*
X022380Y046829D02*
X022429Y046877D01*
X022429Y046925D01*
X022380Y046974D01*
X022284Y046974D01*
X022235Y046925D01*
X022235Y046877D01*
X022284Y046829D01*
X022134Y046877D02*
X021941Y046683D01*
X022134Y046683D01*
X022134Y046877D02*
X022134Y046925D01*
X022086Y046974D01*
X021989Y046974D01*
X021941Y046925D01*
X021839Y046925D02*
X021839Y046829D01*
X021791Y046780D01*
X021646Y046780D01*
X021646Y046683D02*
X021646Y046974D01*
X021791Y046974D01*
X021839Y046925D01*
X021743Y046780D02*
X021839Y046683D01*
X023277Y047018D02*
X023470Y047018D01*
X023470Y046970D01*
X023481Y044341D02*
X023433Y044293D01*
X023481Y044341D02*
X023578Y044341D01*
X023626Y044293D01*
X023626Y044244D01*
X023433Y044051D01*
X023626Y044051D01*
X023728Y044051D02*
X023728Y044341D01*
X023921Y044341D01*
X023824Y044196D02*
X023728Y044196D01*
X024022Y044196D02*
X024216Y044196D01*
X024317Y044293D02*
X024365Y044341D01*
X024462Y044341D01*
X024510Y044293D01*
X024317Y044099D01*
X024365Y044051D01*
X024462Y044051D01*
X024510Y044099D01*
X024510Y044293D01*
X024612Y044341D02*
X024612Y044196D01*
X024708Y044244D01*
X024757Y044244D01*
X024805Y044196D01*
X024805Y044099D01*
X024757Y044051D01*
X024660Y044051D01*
X024612Y044099D01*
X024612Y044341D02*
X024805Y044341D01*
X024317Y044293D02*
X024317Y044099D01*
X024167Y044051D02*
X024167Y044341D01*
X024022Y044196D01*
X023332Y044244D02*
X023283Y044196D01*
X023332Y044147D01*
X023332Y044099D01*
X023283Y044051D01*
X023187Y044051D01*
X023138Y044099D01*
X023037Y044051D02*
X023037Y044341D01*
X022940Y044244D01*
X022844Y044341D01*
X022844Y044051D01*
X022646Y044051D02*
X022646Y044341D01*
X022742Y044341D02*
X022549Y044341D01*
X022448Y044293D02*
X022399Y044341D01*
X022303Y044341D01*
X022254Y044293D01*
X022254Y044244D01*
X022303Y044196D01*
X022399Y044196D01*
X022448Y044147D01*
X022448Y044099D01*
X022399Y044051D01*
X022303Y044051D01*
X022254Y044099D01*
X023138Y044293D02*
X023187Y044341D01*
X023283Y044341D01*
X023332Y044293D01*
X023332Y044244D01*
X023283Y044196D02*
X023235Y044196D01*
X020382Y045000D02*
X020333Y044951D01*
X020236Y044951D01*
X020188Y045000D01*
X020188Y045048D01*
X020236Y045096D01*
X020333Y045096D01*
X020382Y045048D01*
X020382Y045000D01*
X020333Y045096D02*
X020382Y045145D01*
X020382Y045193D01*
X020333Y045241D01*
X020236Y045241D01*
X020188Y045193D01*
X020188Y045145D01*
X020236Y045096D01*
X020087Y044951D02*
X019893Y044951D01*
X019990Y044951D02*
X019990Y045241D01*
X019893Y045145D01*
X019792Y045193D02*
X019744Y045241D01*
X019647Y045241D01*
X019599Y045193D01*
X019599Y045000D01*
X019647Y044951D01*
X019744Y044951D01*
X019792Y045000D01*
X019754Y045350D02*
X019947Y045350D01*
X019850Y045350D02*
X019850Y045640D01*
X019754Y045543D01*
X019653Y045592D02*
X019604Y045640D01*
X019507Y045640D01*
X019459Y045592D01*
X019459Y045398D01*
X019507Y045350D01*
X019604Y045350D01*
X019653Y045398D01*
X020048Y045398D02*
X020097Y045350D01*
X020193Y045350D01*
X020242Y045398D01*
X020242Y045592D01*
X020193Y045640D01*
X020097Y045640D01*
X020048Y045592D01*
X020048Y045543D01*
X020097Y045495D01*
X020242Y045495D01*
X019061Y045733D02*
X019061Y045926D01*
X019012Y045975D01*
X018916Y045975D01*
X018867Y045926D01*
X018867Y045878D01*
X018916Y045830D01*
X019061Y045830D01*
X019061Y045733D02*
X019012Y045685D01*
X018916Y045685D01*
X018867Y045733D01*
X018766Y045685D02*
X018573Y045685D01*
X018669Y045685D02*
X018669Y045975D01*
X018573Y045878D01*
X018471Y045830D02*
X018423Y045781D01*
X018278Y045781D01*
X018278Y045685D02*
X018278Y045975D01*
X018423Y045975D01*
X018471Y045926D01*
X018471Y045830D01*
X018375Y045781D02*
X018471Y045685D01*
X017655Y045385D02*
X017462Y045385D01*
X017559Y045385D02*
X017559Y045676D01*
X017462Y045579D01*
X017361Y045676D02*
X017361Y045385D01*
X017167Y045676D01*
X017167Y045385D01*
X017066Y045434D02*
X017018Y045385D01*
X016921Y045385D01*
X016872Y045434D01*
X016872Y045627D01*
X016921Y045676D01*
X017018Y045676D01*
X017066Y045627D01*
X018274Y044517D02*
X018370Y044517D01*
X018322Y044517D02*
X018322Y044275D01*
X018274Y044227D01*
X018225Y044227D01*
X018177Y044275D01*
X018472Y044275D02*
X018520Y044227D01*
X018617Y044227D01*
X018665Y044275D01*
X018665Y044372D01*
X018617Y044420D01*
X018568Y044420D01*
X018472Y044372D01*
X018472Y044517D01*
X018665Y044517D01*
X019498Y042865D02*
X019644Y042865D01*
X019692Y042816D01*
X019692Y042719D01*
X019644Y042671D01*
X019498Y042671D01*
X019498Y042574D02*
X019498Y042865D01*
X019595Y042671D02*
X019692Y042574D01*
X019793Y042574D02*
X019987Y042574D01*
X019890Y042574D02*
X019890Y042865D01*
X019793Y042768D01*
X019841Y042077D02*
X019793Y042029D01*
X019841Y042077D02*
X019938Y042077D01*
X019987Y042029D01*
X019987Y041980D01*
X019793Y041787D01*
X019987Y041787D01*
X019692Y041787D02*
X019595Y041884D01*
X019644Y041884D02*
X019498Y041884D01*
X019498Y041787D02*
X019498Y042077D01*
X019644Y042077D01*
X019692Y042029D01*
X019692Y041932D01*
X019644Y041884D01*
X019644Y041290D02*
X019692Y041241D01*
X019692Y041145D01*
X019644Y041096D01*
X019498Y041096D01*
X019498Y041000D02*
X019498Y041290D01*
X019644Y041290D01*
X019793Y041290D02*
X019793Y041145D01*
X019890Y041193D01*
X019938Y041193D01*
X019987Y041145D01*
X019987Y041048D01*
X019938Y041000D01*
X019841Y041000D01*
X019793Y041048D01*
X019692Y041000D02*
X019595Y041096D01*
X019793Y041290D02*
X019987Y041290D01*
X019229Y039321D02*
X019132Y039321D01*
X019084Y039273D01*
X019229Y039321D02*
X019277Y039273D01*
X019277Y039225D01*
X019084Y039031D01*
X019277Y039031D01*
X019303Y038804D02*
X019303Y038514D01*
X019496Y038514D01*
X019597Y038514D02*
X019791Y038514D01*
X019694Y038514D02*
X019694Y038804D01*
X019597Y038708D01*
X018983Y039031D02*
X018789Y039031D01*
X018886Y039031D02*
X018886Y039321D01*
X018789Y039225D01*
X018688Y039273D02*
X018640Y039321D01*
X018543Y039321D01*
X018495Y039273D01*
X018495Y039079D01*
X018543Y039031D01*
X018640Y039031D01*
X018688Y039079D01*
X017722Y039788D02*
X017674Y039740D01*
X017577Y039740D01*
X017529Y039788D01*
X017722Y039982D01*
X017722Y039788D01*
X017529Y039788D02*
X017529Y039982D01*
X017577Y040030D01*
X017674Y040030D01*
X017722Y039982D01*
X017722Y040212D02*
X017529Y040212D01*
X017625Y040212D02*
X017625Y040502D01*
X017529Y040406D01*
X017428Y040406D02*
X017379Y040357D01*
X017428Y040309D01*
X017428Y040260D01*
X017379Y040212D01*
X017282Y040212D01*
X017234Y040260D01*
X017133Y040212D02*
X017036Y040309D01*
X017085Y040309D02*
X016939Y040309D01*
X016939Y040212D02*
X016939Y040502D01*
X017085Y040502D01*
X017133Y040454D01*
X017133Y040357D01*
X017085Y040309D01*
X017234Y040454D02*
X017282Y040502D01*
X017379Y040502D01*
X017428Y040454D01*
X017428Y040406D01*
X017379Y040357D02*
X017331Y040357D01*
X017331Y040030D02*
X017331Y039740D01*
X017234Y039740D02*
X017428Y039740D01*
X017234Y039933D02*
X017331Y040030D01*
X017133Y039982D02*
X017133Y039885D01*
X017085Y039836D01*
X016939Y039836D01*
X016939Y039740D02*
X016939Y040030D01*
X017085Y040030D01*
X017133Y039982D01*
X017036Y039836D02*
X017133Y039740D01*
X016749Y039380D02*
X016797Y039332D01*
X016603Y039138D01*
X016652Y039090D01*
X016749Y039090D01*
X016797Y039138D01*
X016797Y039332D01*
X016749Y039380D02*
X016652Y039380D01*
X016603Y039332D01*
X016603Y039138D01*
X016502Y039090D02*
X016309Y039090D01*
X016406Y039090D02*
X016406Y039380D01*
X016309Y039284D01*
X016208Y039332D02*
X016159Y039380D01*
X016063Y039380D01*
X016014Y039332D01*
X016014Y039138D01*
X016063Y039090D01*
X016159Y039090D01*
X016208Y039138D01*
X014882Y039129D02*
X014688Y039322D01*
X014640Y039322D01*
X014592Y039274D01*
X014592Y039177D01*
X014640Y039129D01*
X014640Y039028D02*
X014592Y038979D01*
X014592Y038883D01*
X014640Y038834D01*
X014833Y038834D01*
X014882Y038883D01*
X014882Y038979D01*
X014833Y039028D01*
X014882Y039129D02*
X014882Y039322D01*
X014737Y039423D02*
X014737Y039617D01*
X014882Y039569D02*
X014592Y039569D01*
X014737Y039423D01*
X014164Y039623D02*
X013970Y039430D01*
X013970Y039381D01*
X013821Y039430D02*
X013821Y039672D01*
X013869Y039672D02*
X013772Y039672D01*
X013970Y039672D02*
X014164Y039672D01*
X014164Y039623D01*
X013821Y039430D02*
X013772Y039381D01*
X013724Y039381D01*
X013676Y039430D01*
X014552Y038162D02*
X014842Y038162D01*
X014842Y038065D02*
X014842Y038259D01*
X014649Y038065D02*
X014552Y038162D01*
X014552Y037867D02*
X014842Y037867D01*
X014842Y037771D02*
X014842Y037964D01*
X014649Y037771D02*
X014552Y037867D01*
X014601Y037669D02*
X014552Y037621D01*
X014552Y037524D01*
X014601Y037476D01*
X014794Y037476D01*
X014842Y037524D01*
X014842Y037621D01*
X014794Y037669D01*
X014821Y037038D02*
X014918Y037038D01*
X014966Y036989D01*
X014966Y036941D01*
X014918Y036893D01*
X014966Y036844D01*
X014966Y036796D01*
X014918Y036748D01*
X014821Y036748D01*
X014773Y036796D01*
X014672Y036796D02*
X014623Y036748D01*
X014527Y036748D01*
X014478Y036796D01*
X014377Y036748D02*
X014280Y036844D01*
X014329Y036844D02*
X014183Y036844D01*
X014183Y036748D02*
X014183Y037038D01*
X014329Y037038D01*
X014377Y036989D01*
X014377Y036893D01*
X014329Y036844D01*
X014478Y036989D02*
X014527Y037038D01*
X014623Y037038D01*
X014672Y036989D01*
X014672Y036941D01*
X014623Y036893D01*
X014672Y036844D01*
X014672Y036796D01*
X014623Y036893D02*
X014575Y036893D01*
X014773Y036989D02*
X014821Y037038D01*
X014870Y036893D02*
X014918Y036893D01*
X015286Y036989D02*
X015286Y036796D01*
X015334Y036748D01*
X015431Y036748D01*
X015479Y036796D01*
X015580Y036796D02*
X015629Y036748D01*
X015726Y036748D01*
X015774Y036796D01*
X015774Y036844D01*
X015726Y036893D01*
X015580Y036893D01*
X015580Y036796D01*
X015580Y036893D02*
X015677Y036989D01*
X015774Y037038D01*
X015479Y036989D02*
X015431Y037038D01*
X015334Y037038D01*
X015286Y036989D01*
X016113Y036989D02*
X016113Y036796D01*
X016161Y036748D01*
X016258Y036748D01*
X016306Y036796D01*
X016407Y036796D02*
X016407Y036748D01*
X016407Y036796D02*
X016601Y036989D01*
X016601Y037038D01*
X016407Y037038D01*
X016306Y036989D02*
X016258Y037038D01*
X016161Y037038D01*
X016113Y036989D01*
X017038Y036939D02*
X017038Y036697D01*
X017086Y036649D01*
X017183Y036649D01*
X017231Y036697D01*
X017231Y036939D01*
X017332Y036891D02*
X017381Y036939D01*
X017478Y036939D01*
X017526Y036891D01*
X017526Y036843D01*
X017332Y036649D01*
X017526Y036649D01*
X017806Y036757D02*
X017854Y036708D01*
X017951Y036708D01*
X017999Y036757D01*
X018100Y036708D02*
X018294Y036708D01*
X018197Y036708D02*
X018197Y036998D01*
X018100Y036902D01*
X017999Y036950D02*
X017951Y036998D01*
X017854Y036998D01*
X017806Y036950D01*
X017806Y036757D01*
X018395Y036757D02*
X018443Y036708D01*
X018540Y036708D01*
X018588Y036757D01*
X018588Y036805D01*
X018540Y036853D01*
X018492Y036853D01*
X018540Y036853D02*
X018588Y036902D01*
X018588Y036950D01*
X018540Y036998D01*
X018443Y036998D01*
X018395Y036950D01*
X019715Y036891D02*
X019715Y036697D01*
X019763Y036649D01*
X019860Y036649D01*
X019908Y036697D01*
X020010Y036697D02*
X020058Y036649D01*
X020155Y036649D01*
X020203Y036697D01*
X020203Y036794D01*
X020155Y036843D01*
X020106Y036843D01*
X020010Y036794D01*
X020010Y036939D01*
X020203Y036939D01*
X019908Y036891D02*
X019860Y036939D01*
X019763Y036939D01*
X019715Y036891D01*
X020660Y036891D02*
X020660Y036697D01*
X020708Y036649D01*
X020805Y036649D01*
X020853Y036697D01*
X020955Y036794D02*
X021148Y036794D01*
X021100Y036649D02*
X021100Y036939D01*
X020955Y036794D01*
X020853Y036891D02*
X020805Y036939D01*
X020708Y036939D01*
X020660Y036891D01*
X021467Y037063D02*
X021467Y037353D01*
X021612Y037353D01*
X021660Y037304D01*
X021660Y037208D01*
X021612Y037159D01*
X021467Y037159D01*
X021564Y037159D02*
X021660Y037063D01*
X021762Y037111D02*
X021810Y037063D01*
X021907Y037063D01*
X021955Y037111D01*
X021955Y037159D01*
X021907Y037208D01*
X021858Y037208D01*
X021907Y037208D02*
X021955Y037256D01*
X021955Y037304D01*
X021907Y037353D01*
X021810Y037353D01*
X021762Y037304D01*
X021759Y036861D02*
X021662Y036861D01*
X021710Y036861D02*
X021710Y036619D01*
X021662Y036570D01*
X021614Y036570D01*
X021565Y036619D01*
X021860Y036570D02*
X022054Y036764D01*
X022054Y036812D01*
X022005Y036861D01*
X021908Y036861D01*
X021860Y036812D01*
X021860Y036570D02*
X022054Y036570D01*
X022421Y038125D02*
X022518Y038125D01*
X022566Y038174D01*
X022667Y038174D02*
X022715Y038125D01*
X022812Y038125D01*
X022861Y038174D01*
X022861Y038222D01*
X022812Y038271D01*
X022764Y038271D01*
X022812Y038271D02*
X022861Y038319D01*
X022861Y038367D01*
X022812Y038416D01*
X022715Y038416D01*
X022667Y038367D01*
X022566Y038367D02*
X022518Y038416D01*
X022421Y038416D01*
X022372Y038367D01*
X022372Y038174D01*
X022421Y038125D01*
X022083Y038440D02*
X022132Y038489D01*
X022132Y038537D01*
X022083Y038586D01*
X021938Y038586D01*
X021938Y038489D01*
X021987Y038440D01*
X022083Y038440D01*
X021938Y038586D02*
X022035Y038682D01*
X022132Y038731D01*
X021859Y038834D02*
X021859Y038883D01*
X022053Y039076D01*
X022053Y039124D01*
X021859Y039124D01*
X021661Y039124D02*
X021661Y038834D01*
X021565Y038834D02*
X021758Y038834D01*
X021740Y038731D02*
X021740Y038440D01*
X021643Y038440D02*
X021837Y038440D01*
X021643Y038634D02*
X021740Y038731D01*
X021542Y038682D02*
X021494Y038731D01*
X021397Y038731D01*
X021349Y038682D01*
X021349Y038489D01*
X021397Y038440D01*
X021494Y038440D01*
X021542Y038489D01*
X021415Y038834D02*
X021464Y038883D01*
X021415Y038834D02*
X021318Y038834D01*
X021270Y038883D01*
X021270Y039076D01*
X021318Y039124D01*
X021415Y039124D01*
X021464Y039076D01*
X021565Y039028D02*
X021661Y039124D01*
X023199Y038376D02*
X023393Y038086D01*
X023199Y038086D02*
X023393Y038376D01*
X023494Y038376D02*
X023687Y038376D01*
X023591Y038376D02*
X023591Y038086D01*
X023789Y038086D02*
X023789Y038280D01*
X023885Y038376D01*
X023982Y038280D01*
X023982Y038086D01*
X024083Y038086D02*
X024277Y038086D01*
X024378Y038086D02*
X024571Y038086D01*
X024475Y038086D02*
X024475Y038376D01*
X024378Y038280D01*
X024083Y038376D02*
X024083Y038086D01*
X023982Y038231D02*
X023789Y038231D01*
X026152Y037779D02*
X026297Y037634D01*
X026297Y037827D01*
X026442Y037779D02*
X026152Y037779D01*
X026152Y037436D02*
X026442Y037436D01*
X026442Y037339D02*
X026442Y037533D01*
X026248Y037339D02*
X026152Y037436D01*
X026200Y037238D02*
X026152Y037190D01*
X026152Y037045D01*
X026442Y037045D01*
X026345Y037045D02*
X026345Y037190D01*
X026297Y037238D01*
X026200Y037238D01*
X026345Y037141D02*
X026442Y037238D01*
X027072Y037168D02*
X027072Y037072D01*
X027120Y037023D01*
X027314Y037023D01*
X027362Y037072D01*
X027362Y037168D01*
X027314Y037217D01*
X027314Y037318D02*
X027362Y037366D01*
X027362Y037463D01*
X027314Y037511D01*
X027265Y037511D01*
X027217Y037463D01*
X027217Y037415D01*
X027217Y037463D02*
X027169Y037511D01*
X027120Y037511D01*
X027072Y037463D01*
X027072Y037366D01*
X027120Y037318D01*
X027120Y037217D02*
X027072Y037168D01*
X027120Y037612D02*
X027072Y037661D01*
X027072Y037758D01*
X027120Y037806D01*
X027169Y037806D01*
X027217Y037758D01*
X027265Y037806D01*
X027314Y037806D01*
X027362Y037758D01*
X027362Y037661D01*
X027314Y037612D01*
X027217Y037709D02*
X027217Y037758D01*
X028214Y037768D02*
X028504Y037768D01*
X028504Y037671D02*
X028504Y037865D01*
X028310Y037671D02*
X028214Y037768D01*
X028359Y037570D02*
X028359Y037377D01*
X028214Y037522D01*
X028504Y037522D01*
X028504Y037276D02*
X028407Y037179D01*
X028407Y037227D02*
X028407Y037082D01*
X028504Y037082D02*
X028214Y037082D01*
X028214Y037227D01*
X028262Y037276D01*
X028359Y037276D01*
X028407Y037227D01*
X029434Y037227D02*
X029434Y037131D01*
X029482Y037082D01*
X029676Y037082D01*
X029724Y037131D01*
X029724Y037227D01*
X029676Y037276D01*
X029676Y037377D02*
X029724Y037425D01*
X029724Y037522D01*
X029676Y037570D01*
X029628Y037570D01*
X029579Y037522D01*
X029579Y037474D01*
X029579Y037522D02*
X029531Y037570D01*
X029482Y037570D01*
X029434Y037522D01*
X029434Y037425D01*
X029482Y037377D01*
X029482Y037276D02*
X029434Y037227D01*
X029579Y037671D02*
X029579Y037865D01*
X029434Y037817D02*
X029579Y037671D01*
X029724Y037817D02*
X029434Y037817D01*
X030615Y037580D02*
X030664Y037629D01*
X030857Y037435D01*
X030905Y037484D01*
X030905Y037580D01*
X030857Y037629D01*
X030664Y037629D01*
X030615Y037580D02*
X030615Y037484D01*
X030664Y037435D01*
X030857Y037435D01*
X030760Y037334D02*
X030760Y037141D01*
X030615Y037286D01*
X030905Y037286D01*
X030905Y037039D02*
X030809Y036943D01*
X030809Y036991D02*
X030809Y036846D01*
X030905Y036846D02*
X030615Y036846D01*
X030615Y036991D01*
X030664Y037039D01*
X030760Y037039D01*
X030809Y036991D01*
X031412Y036271D02*
X031363Y036222D01*
X031363Y036125D01*
X031412Y036077D01*
X031412Y035976D02*
X031363Y035927D01*
X031363Y035831D01*
X031412Y035782D01*
X031412Y035681D02*
X031363Y035633D01*
X031363Y035536D01*
X031412Y035488D01*
X031605Y035488D01*
X031653Y035536D01*
X031653Y035633D01*
X031605Y035681D01*
X031653Y035782D02*
X031460Y035976D01*
X031412Y035976D01*
X031653Y035976D02*
X031653Y035782D01*
X031653Y036077D02*
X031460Y036271D01*
X031412Y036271D01*
X031653Y036271D02*
X031653Y036077D01*
X031796Y037003D02*
X031796Y037149D01*
X031845Y037197D01*
X031941Y037197D01*
X031990Y037149D01*
X031990Y037003D01*
X032087Y037003D02*
X031796Y037003D01*
X031990Y037100D02*
X032087Y037197D01*
X032038Y037298D02*
X032087Y037346D01*
X032087Y037443D01*
X032038Y037492D01*
X031990Y037492D01*
X031941Y037443D01*
X031941Y037395D01*
X031941Y037443D02*
X031893Y037492D01*
X031845Y037492D01*
X031796Y037443D01*
X031796Y037346D01*
X031845Y037298D01*
X031845Y037593D02*
X031893Y037593D01*
X031941Y037641D01*
X031941Y037786D01*
X031845Y037786D02*
X031796Y037738D01*
X031796Y037641D01*
X031845Y037593D01*
X032038Y037593D02*
X032087Y037641D01*
X032087Y037738D01*
X032038Y037786D01*
X031845Y037786D01*
X033010Y037787D02*
X033010Y037690D01*
X033058Y037642D01*
X033058Y037541D02*
X033010Y037492D01*
X033010Y037396D01*
X033058Y037347D01*
X033058Y037246D02*
X033010Y037198D01*
X033010Y037101D01*
X033058Y037053D01*
X033252Y037053D01*
X033300Y037101D01*
X033300Y037198D01*
X033252Y037246D01*
X033252Y037347D02*
X033300Y037396D01*
X033300Y037492D01*
X033252Y037541D01*
X033203Y037541D01*
X033155Y037492D01*
X033155Y037444D01*
X033155Y037492D02*
X033107Y037541D01*
X033058Y037541D01*
X033010Y037787D02*
X033058Y037835D01*
X033107Y037835D01*
X033300Y037642D01*
X033300Y037835D01*
X032897Y036280D02*
X032946Y036232D01*
X032946Y036135D01*
X032897Y036087D01*
X032801Y036087D02*
X032752Y036184D01*
X032752Y036232D01*
X032801Y036280D01*
X032897Y036280D01*
X032801Y036087D02*
X032656Y036087D01*
X032656Y036280D01*
X032704Y035986D02*
X032752Y035986D01*
X032801Y035937D01*
X032849Y035986D01*
X032897Y035986D01*
X032946Y035937D01*
X032946Y035841D01*
X032897Y035792D01*
X032897Y035691D02*
X032946Y035643D01*
X032946Y035546D01*
X032897Y035498D01*
X032704Y035498D01*
X032656Y035546D01*
X032656Y035643D01*
X032704Y035691D01*
X032704Y035792D02*
X032656Y035841D01*
X032656Y035937D01*
X032704Y035986D01*
X032801Y035937D02*
X032801Y035889D01*
X031265Y034765D02*
X031265Y034717D01*
X031217Y034668D01*
X031120Y034668D01*
X031072Y034717D01*
X031072Y034765D01*
X031120Y034813D01*
X031217Y034813D01*
X031265Y034765D01*
X031217Y034668D02*
X031265Y034620D01*
X031265Y034572D01*
X031217Y034523D01*
X031120Y034523D01*
X031072Y034572D01*
X031072Y034620D01*
X031120Y034668D01*
X030971Y034620D02*
X030971Y034572D01*
X030922Y034523D01*
X030826Y034523D01*
X030777Y034572D01*
X030676Y034523D02*
X030579Y034620D01*
X030628Y034620D02*
X030483Y034620D01*
X030483Y034523D02*
X030483Y034813D01*
X030628Y034813D01*
X030676Y034765D01*
X030676Y034668D01*
X030628Y034620D01*
X030777Y034765D02*
X030826Y034813D01*
X030922Y034813D01*
X030971Y034765D01*
X030971Y034717D01*
X030922Y034668D01*
X030971Y034620D01*
X030922Y034668D02*
X030874Y034668D01*
X028509Y035596D02*
X028509Y035693D01*
X028461Y035742D01*
X028219Y035742D01*
X028267Y035843D02*
X028315Y035843D01*
X028364Y035891D01*
X028364Y036036D01*
X028461Y036036D02*
X028267Y036036D01*
X028219Y035988D01*
X028219Y035891D01*
X028267Y035843D01*
X028461Y035843D02*
X028509Y035891D01*
X028509Y035988D01*
X028461Y036036D01*
X028509Y035596D02*
X028461Y035548D01*
X028219Y035548D01*
X027386Y035531D02*
X027096Y035531D01*
X027096Y035677D01*
X027144Y035725D01*
X027241Y035725D01*
X027289Y035677D01*
X027289Y035531D01*
X027289Y035628D02*
X027386Y035725D01*
X027338Y035826D02*
X027386Y035874D01*
X027386Y035971D01*
X027338Y036020D01*
X027241Y036020D01*
X027193Y035971D01*
X027193Y035923D01*
X027241Y035826D01*
X027096Y035826D01*
X027096Y036020D01*
X027144Y036121D02*
X027096Y036169D01*
X027096Y036266D01*
X027144Y036314D01*
X027193Y036314D01*
X027241Y036266D01*
X027289Y036314D01*
X027338Y036314D01*
X027386Y036266D01*
X027386Y036169D01*
X027338Y036121D01*
X027241Y036217D02*
X027241Y036266D01*
X026442Y036177D02*
X026248Y036371D01*
X026200Y036371D01*
X026152Y036322D01*
X026152Y036226D01*
X026200Y036177D01*
X026200Y036076D02*
X026152Y036028D01*
X026152Y035931D01*
X026200Y035883D01*
X026394Y035883D01*
X026442Y035931D01*
X026442Y036028D01*
X026394Y036076D01*
X026442Y036177D02*
X026442Y036371D01*
X027933Y039149D02*
X028029Y039149D01*
X028078Y039197D01*
X028179Y039149D02*
X028372Y039343D01*
X028372Y039391D01*
X028324Y039439D01*
X028227Y039439D01*
X028179Y039391D01*
X028078Y039391D02*
X028029Y039439D01*
X027933Y039439D01*
X027884Y039391D01*
X027884Y039197D01*
X027933Y039149D01*
X028179Y039149D02*
X028372Y039149D01*
X028474Y039149D02*
X028667Y039149D01*
X028570Y039149D02*
X028570Y039439D01*
X028474Y039343D01*
X028522Y039937D02*
X028474Y039985D01*
X028667Y040178D01*
X028667Y039985D01*
X028619Y039937D01*
X028522Y039937D01*
X028474Y039985D02*
X028474Y040178D01*
X028522Y040227D01*
X028619Y040227D01*
X028667Y040178D01*
X028372Y040178D02*
X028324Y040227D01*
X028227Y040227D01*
X028179Y040178D01*
X028078Y040178D02*
X028029Y040227D01*
X027933Y040227D01*
X027884Y040178D01*
X027884Y039985D01*
X027933Y039937D01*
X028029Y039937D01*
X028078Y039985D01*
X028179Y039937D02*
X028372Y040130D01*
X028372Y040178D01*
X028372Y039937D02*
X028179Y039937D01*
X031491Y039883D02*
X031539Y039834D01*
X031587Y039834D01*
X031636Y039883D01*
X031636Y040124D01*
X031684Y040124D02*
X031587Y040124D01*
X031785Y040076D02*
X031834Y040124D01*
X031930Y040124D01*
X031979Y040076D01*
X031979Y040028D01*
X031930Y039979D01*
X031979Y039931D01*
X031979Y039883D01*
X031930Y039834D01*
X031834Y039834D01*
X031785Y039883D01*
X031882Y039979D02*
X031930Y039979D01*
X037018Y037156D02*
X037018Y036866D01*
X037018Y036962D02*
X037163Y036962D01*
X037212Y037011D01*
X037212Y037108D01*
X037163Y037156D01*
X037018Y037156D01*
X037115Y036962D02*
X037212Y036866D01*
X037313Y037011D02*
X037506Y037011D01*
X037607Y037108D02*
X037656Y037156D01*
X037753Y037156D01*
X037801Y037108D01*
X037801Y037059D01*
X037607Y036866D01*
X037801Y036866D01*
X037458Y036866D02*
X037458Y037156D01*
X037313Y037011D01*
X037458Y032628D02*
X037313Y032483D01*
X037506Y032483D01*
X037607Y032386D02*
X037607Y032338D01*
X037607Y032386D02*
X037801Y032580D01*
X037801Y032628D01*
X037607Y032628D01*
X037458Y032628D02*
X037458Y032338D01*
X037212Y032338D02*
X037115Y032435D01*
X037163Y032435D02*
X037018Y032435D01*
X037018Y032338D02*
X037018Y032628D01*
X037163Y032628D01*
X037212Y032580D01*
X037212Y032483D01*
X037163Y032435D01*
X034997Y028691D02*
X034900Y028691D01*
X034852Y028643D01*
X034852Y028595D01*
X034900Y028546D01*
X034997Y028546D01*
X035045Y028498D01*
X035045Y028449D01*
X034997Y028401D01*
X034900Y028401D01*
X034852Y028449D01*
X034852Y028498D01*
X034900Y028546D01*
X034997Y028546D02*
X035045Y028595D01*
X035045Y028643D01*
X034997Y028691D01*
X034750Y028546D02*
X034557Y028546D01*
X034702Y028691D01*
X034702Y028401D01*
X034456Y028401D02*
X034359Y028498D01*
X034407Y028498D02*
X034262Y028498D01*
X034262Y028401D02*
X034262Y028691D01*
X034407Y028691D01*
X034456Y028643D01*
X034456Y028546D01*
X034407Y028498D01*
X032683Y028401D02*
X032489Y028401D01*
X032586Y028401D02*
X032586Y028691D01*
X032489Y028595D01*
X032388Y028546D02*
X032388Y028449D01*
X032340Y028401D01*
X032243Y028401D01*
X032195Y028449D01*
X032195Y028546D02*
X032291Y028595D01*
X032340Y028595D01*
X032388Y028546D01*
X032388Y028691D02*
X032195Y028691D01*
X032195Y028546D01*
X032094Y028546D02*
X032045Y028498D01*
X031900Y028498D01*
X031997Y028498D02*
X032094Y028401D01*
X032094Y028546D02*
X032094Y028643D01*
X032045Y028691D01*
X031900Y028691D01*
X031900Y028401D01*
X031256Y028598D02*
X031256Y028888D01*
X031111Y028743D01*
X031305Y028743D01*
X031010Y028743D02*
X031010Y028646D01*
X030962Y028598D01*
X030865Y028598D01*
X030817Y028646D01*
X030817Y028743D02*
X030913Y028791D01*
X030962Y028791D01*
X031010Y028743D01*
X031010Y028888D02*
X030817Y028888D01*
X030817Y028743D01*
X030716Y028743D02*
X030667Y028695D01*
X030522Y028695D01*
X030619Y028695D02*
X030716Y028598D01*
X030716Y028743D02*
X030716Y028840D01*
X030667Y028888D01*
X030522Y028888D01*
X030522Y028598D01*
X029603Y029563D02*
X029651Y029611D01*
X029651Y029659D01*
X029603Y029708D01*
X029458Y029708D01*
X029458Y029611D01*
X029506Y029563D01*
X029603Y029563D01*
X029458Y029708D02*
X029555Y029804D01*
X029651Y029853D01*
X029357Y029804D02*
X029357Y029756D01*
X029308Y029708D01*
X029357Y029659D01*
X029357Y029611D01*
X029308Y029563D01*
X029212Y029563D01*
X029163Y029611D01*
X029062Y029611D02*
X029014Y029563D01*
X028917Y029563D01*
X028869Y029611D01*
X028869Y029804D01*
X028917Y029853D01*
X029014Y029853D01*
X029062Y029804D01*
X029163Y029804D02*
X029212Y029853D01*
X029308Y029853D01*
X029357Y029804D01*
X029308Y029708D02*
X029260Y029708D01*
X028431Y030060D02*
X028237Y029867D01*
X028237Y029818D01*
X028088Y029818D02*
X028088Y030109D01*
X027943Y029964D01*
X028136Y029964D01*
X028237Y030109D02*
X028431Y030109D01*
X028431Y030060D01*
X028455Y030566D02*
X028600Y030566D01*
X028648Y030615D01*
X028648Y030663D01*
X028600Y030712D01*
X028455Y030712D01*
X028600Y030712D02*
X028648Y030760D01*
X028648Y030808D01*
X028600Y030857D01*
X028455Y030857D01*
X028455Y030566D01*
X028257Y030712D02*
X028160Y030712D01*
X028160Y030857D02*
X028353Y030857D01*
X028160Y030857D02*
X028160Y030566D01*
X027793Y030109D02*
X027696Y030109D01*
X027648Y030060D01*
X027648Y029867D01*
X027696Y029818D01*
X027793Y029818D01*
X027842Y029867D01*
X027842Y030060D02*
X027793Y030109D01*
X028749Y030712D02*
X028943Y030712D01*
X028894Y030857D02*
X028749Y030712D01*
X028894Y030566D02*
X028894Y030857D01*
X031676Y029430D02*
X031676Y029237D01*
X031724Y029188D01*
X031821Y029188D01*
X031869Y029237D01*
X031970Y029237D02*
X032019Y029188D01*
X032115Y029188D01*
X032164Y029237D01*
X032164Y029285D01*
X032115Y029334D01*
X032067Y029334D01*
X032115Y029334D02*
X032164Y029382D01*
X032164Y029430D01*
X032115Y029479D01*
X032019Y029479D01*
X031970Y029430D01*
X031869Y029430D02*
X031821Y029479D01*
X031724Y029479D01*
X031676Y029430D01*
X032265Y029430D02*
X032265Y029382D01*
X032313Y029334D01*
X032458Y029334D01*
X032458Y029430D02*
X032410Y029479D01*
X032313Y029479D01*
X032265Y029430D01*
X032265Y029237D02*
X032313Y029188D01*
X032410Y029188D01*
X032458Y029237D01*
X032458Y029430D01*
X036428Y028101D02*
X036573Y028101D01*
X036621Y028052D01*
X036621Y027956D01*
X036573Y027907D01*
X036428Y027907D01*
X036524Y027907D02*
X036621Y027811D01*
X036722Y027956D02*
X036916Y027956D01*
X037017Y028004D02*
X037065Y027956D01*
X037210Y027956D01*
X037210Y028052D02*
X037162Y028101D01*
X037065Y028101D01*
X037017Y028052D01*
X037017Y028004D01*
X037017Y027859D02*
X037065Y027811D01*
X037162Y027811D01*
X037210Y027859D01*
X037210Y028052D01*
X036867Y028101D02*
X036722Y027956D01*
X036867Y027811D02*
X036867Y028101D01*
X036428Y028101D02*
X036428Y027811D01*
X033610Y025095D02*
X033610Y025046D01*
X033416Y024853D01*
X033610Y024853D01*
X033610Y025095D02*
X033562Y025143D01*
X033465Y025143D01*
X033416Y025095D01*
X033315Y025095D02*
X033267Y025143D01*
X033122Y025143D01*
X033122Y024853D01*
X033267Y024853D01*
X033315Y024901D01*
X033315Y025095D01*
X033021Y024853D02*
X032827Y024853D01*
X032827Y025143D01*
X032537Y024754D02*
X032440Y024754D01*
X032392Y024706D01*
X032290Y024754D02*
X032097Y024754D01*
X032194Y024754D02*
X032194Y024464D01*
X032392Y024464D02*
X032585Y024658D01*
X032585Y024706D01*
X032537Y024754D01*
X032585Y024464D02*
X032392Y024464D01*
X031404Y024464D02*
X031210Y024464D01*
X031307Y024464D02*
X031307Y024754D01*
X031210Y024658D01*
X031109Y024754D02*
X030916Y024754D01*
X031013Y024754D02*
X031013Y024464D01*
X030911Y025055D02*
X030718Y025055D01*
X030814Y025055D02*
X030814Y025345D01*
X030718Y025248D01*
X030617Y025248D02*
X030568Y025200D01*
X030423Y025200D01*
X030423Y025345D02*
X030568Y025345D01*
X030617Y025297D01*
X030617Y025248D01*
X030568Y025200D02*
X030617Y025151D01*
X030617Y025103D01*
X030568Y025055D01*
X030423Y025055D01*
X030423Y025345D01*
X030322Y025345D02*
X030128Y025345D01*
X030128Y025055D01*
X030128Y025200D02*
X030225Y025200D01*
X028720Y025152D02*
X028720Y025298D01*
X028672Y025346D01*
X028624Y025346D01*
X028575Y025298D01*
X028575Y025152D01*
X028430Y025152D02*
X028430Y025298D01*
X028479Y025346D01*
X028527Y025346D01*
X028575Y025298D01*
X028575Y025447D02*
X028575Y025592D01*
X028624Y025641D01*
X028672Y025641D01*
X028720Y025592D01*
X028720Y025495D01*
X028672Y025447D01*
X028575Y025447D01*
X028479Y025544D01*
X028430Y025641D01*
X028509Y025921D02*
X028509Y026114D01*
X028509Y026215D02*
X028509Y026361D01*
X028557Y026409D01*
X028606Y026409D01*
X028654Y026361D01*
X028654Y026215D01*
X028799Y026215D02*
X028509Y026215D01*
X028654Y026361D02*
X028702Y026409D01*
X028751Y026409D01*
X028799Y026361D01*
X028799Y026215D01*
X028654Y026018D02*
X028654Y025921D01*
X028799Y025921D02*
X028509Y025921D01*
X028557Y026510D02*
X028509Y026558D01*
X028509Y026655D01*
X028557Y026704D01*
X028606Y026704D01*
X028799Y026510D01*
X028799Y026704D01*
X028720Y025152D02*
X028430Y025152D01*
X028430Y025051D02*
X028430Y024858D01*
X028720Y024858D01*
X028575Y024858D02*
X028575Y024955D01*
X026532Y027811D02*
X026435Y027811D01*
X026387Y027859D01*
X026286Y027859D02*
X026237Y027811D01*
X026092Y027811D01*
X026092Y028101D01*
X026237Y028101D01*
X026286Y028052D01*
X026286Y028004D01*
X026237Y027956D01*
X026092Y027956D01*
X026237Y027956D02*
X026286Y027907D01*
X026286Y027859D01*
X026387Y028052D02*
X026435Y028101D01*
X026532Y028101D01*
X026580Y028052D01*
X026580Y028004D01*
X026532Y027956D01*
X026580Y027907D01*
X026580Y027859D01*
X026532Y027811D01*
X026532Y027956D02*
X026484Y027956D01*
X025991Y028101D02*
X025798Y028101D01*
X025798Y027811D01*
X025798Y027956D02*
X025894Y027956D01*
X024925Y027817D02*
X024731Y027817D01*
X024876Y027962D01*
X024876Y027672D01*
X024582Y027720D02*
X024582Y027962D01*
X024630Y027962D02*
X024533Y027962D01*
X024582Y027720D02*
X024533Y027672D01*
X024485Y027672D01*
X024437Y027720D01*
X023382Y029491D02*
X023286Y029491D01*
X023237Y029539D01*
X023237Y029636D02*
X023334Y029684D01*
X023382Y029684D01*
X023431Y029636D01*
X023431Y029539D01*
X023382Y029491D01*
X023237Y029636D02*
X023237Y029781D01*
X023431Y029781D01*
X023136Y029636D02*
X022943Y029636D01*
X023088Y029781D01*
X023088Y029491D01*
X022842Y029539D02*
X022793Y029491D01*
X022696Y029491D01*
X022648Y029539D01*
X022648Y029733D01*
X022696Y029781D01*
X022793Y029781D01*
X022842Y029733D01*
X022841Y029919D02*
X022841Y030064D01*
X022793Y030112D01*
X022696Y030112D01*
X022648Y030064D01*
X022648Y029919D01*
X022938Y029919D01*
X022841Y030015D02*
X022938Y030112D01*
X022890Y030213D02*
X022938Y030262D01*
X022938Y030358D01*
X022890Y030407D01*
X022841Y030407D01*
X022793Y030358D01*
X022793Y030310D01*
X022793Y030358D02*
X022745Y030407D01*
X022696Y030407D01*
X022648Y030358D01*
X022648Y030262D01*
X022696Y030213D01*
X022793Y030508D02*
X022793Y030653D01*
X022841Y030702D01*
X022890Y030702D01*
X022938Y030653D01*
X022938Y030556D01*
X022890Y030508D01*
X022793Y030508D01*
X022696Y030605D01*
X022648Y030702D01*
X023142Y030615D02*
X023142Y030325D01*
X023336Y030325D02*
X023336Y030615D01*
X023239Y030519D01*
X023142Y030615D01*
X023437Y030615D02*
X023534Y030615D01*
X023485Y030615D02*
X023485Y030325D01*
X023437Y030325D02*
X023534Y030325D01*
X023634Y030374D02*
X023682Y030325D01*
X023779Y030325D01*
X023827Y030374D01*
X023928Y030325D02*
X024122Y030325D01*
X024025Y030325D02*
X024025Y030615D01*
X023928Y030519D01*
X023827Y030567D02*
X023779Y030615D01*
X023682Y030615D01*
X023634Y030567D01*
X023634Y030374D01*
X022890Y031454D02*
X022938Y031503D01*
X022938Y031599D01*
X022890Y031648D01*
X022890Y031749D02*
X022938Y031797D01*
X022938Y031894D01*
X022890Y031942D01*
X022841Y031942D01*
X022793Y031894D01*
X022793Y031846D01*
X022793Y031894D02*
X022745Y031942D01*
X022696Y031942D01*
X022648Y031894D01*
X022648Y031797D01*
X022696Y031749D01*
X022696Y031648D02*
X022648Y031599D01*
X022648Y031503D01*
X022696Y031454D01*
X022890Y031454D01*
X022938Y032043D02*
X022938Y032237D01*
X022938Y032140D02*
X022648Y032140D01*
X022745Y032043D01*
X021915Y032649D02*
X021867Y032601D01*
X021770Y032601D01*
X021722Y032649D01*
X021722Y032698D01*
X021770Y032746D01*
X021867Y032746D01*
X021915Y032698D01*
X021915Y032649D01*
X021867Y032746D02*
X021915Y032794D01*
X021915Y032843D01*
X021867Y032891D01*
X021770Y032891D01*
X021722Y032843D01*
X021722Y032794D01*
X021770Y032746D01*
X021620Y032746D02*
X021427Y032746D01*
X021572Y032891D01*
X021572Y032601D01*
X021326Y032649D02*
X021277Y032601D01*
X021181Y032601D01*
X021132Y032649D01*
X021132Y032843D01*
X021181Y032891D01*
X021277Y032891D01*
X021326Y032843D01*
X021385Y033736D02*
X021191Y033736D01*
X021191Y034026D01*
X021486Y034026D02*
X021486Y033736D01*
X021680Y033736D01*
X021781Y033736D02*
X021926Y033736D01*
X021974Y033784D01*
X021974Y033978D01*
X021926Y034026D01*
X021781Y034026D01*
X021781Y033736D01*
X021583Y033881D02*
X021486Y033881D01*
X021486Y034026D02*
X021680Y034026D01*
X022075Y034026D02*
X022075Y033881D01*
X022172Y033929D01*
X022220Y033929D01*
X022269Y033881D01*
X022269Y033784D01*
X022220Y033736D01*
X022124Y033736D01*
X022075Y033784D01*
X022075Y034026D02*
X022269Y034026D01*
X020303Y034021D02*
X020303Y033973D01*
X020109Y033779D01*
X020109Y033731D01*
X020008Y033731D02*
X019815Y033731D01*
X019911Y033731D02*
X019911Y034021D01*
X019815Y033924D01*
X019713Y033876D02*
X019665Y033827D01*
X019520Y033827D01*
X019520Y033731D02*
X019520Y034021D01*
X019665Y034021D01*
X019713Y033973D01*
X019713Y033876D01*
X019617Y033827D02*
X019713Y033731D01*
X020109Y034021D02*
X020303Y034021D01*
X019199Y034046D02*
X019006Y034046D01*
X019006Y033901D01*
X019102Y033949D01*
X019151Y033949D01*
X019199Y033901D01*
X019199Y033804D01*
X019151Y033755D01*
X019054Y033755D01*
X019006Y033804D01*
X018905Y033804D02*
X018905Y034046D01*
X018711Y034046D02*
X018711Y033804D01*
X018759Y033755D01*
X018856Y033755D01*
X018905Y033804D01*
X017643Y034512D02*
X017643Y034561D01*
X017595Y034609D01*
X017450Y034609D01*
X017450Y034512D01*
X017498Y034464D01*
X017595Y034464D01*
X017643Y034512D01*
X017547Y034706D02*
X017450Y034609D01*
X017349Y034658D02*
X017349Y034706D01*
X017300Y034754D01*
X017204Y034754D01*
X017155Y034706D01*
X017054Y034706D02*
X017006Y034754D01*
X016909Y034754D01*
X016861Y034706D01*
X016861Y034512D01*
X016909Y034464D01*
X017006Y034464D01*
X017054Y034512D01*
X017155Y034464D02*
X017349Y034658D01*
X017349Y034464D02*
X017155Y034464D01*
X017547Y034706D02*
X017643Y034754D01*
X016521Y033554D02*
X016425Y033505D01*
X016328Y033408D01*
X016473Y033408D01*
X016521Y033360D01*
X016521Y033312D01*
X016473Y033263D01*
X016376Y033263D01*
X016328Y033312D01*
X016328Y033408D01*
X016227Y033408D02*
X016033Y033408D01*
X016178Y033554D01*
X016178Y033263D01*
X015932Y033312D02*
X015884Y033263D01*
X015787Y033263D01*
X015739Y033312D01*
X015739Y033505D01*
X015787Y033554D01*
X015884Y033554D01*
X015932Y033505D01*
X016020Y033893D02*
X016020Y034183D01*
X015875Y034038D01*
X016069Y034038D01*
X015774Y033990D02*
X015774Y033942D01*
X015726Y033893D01*
X015629Y033893D01*
X015580Y033942D01*
X015479Y033893D02*
X015383Y033990D01*
X015431Y033990D02*
X015286Y033990D01*
X015286Y033893D02*
X015286Y034183D01*
X015431Y034183D01*
X015479Y034135D01*
X015479Y034038D01*
X015431Y033990D01*
X015580Y034135D02*
X015629Y034183D01*
X015726Y034183D01*
X015774Y034135D01*
X015774Y034087D01*
X015726Y034038D01*
X015774Y033990D01*
X015726Y034038D02*
X015677Y034038D01*
X015650Y034420D02*
X015747Y034420D01*
X015796Y034468D01*
X015897Y034468D02*
X015897Y034516D01*
X015945Y034565D01*
X016042Y034565D01*
X016090Y034516D01*
X016090Y034468D01*
X016042Y034420D01*
X015945Y034420D01*
X015897Y034468D01*
X015945Y034565D02*
X015897Y034613D01*
X015897Y034662D01*
X015945Y034710D01*
X016042Y034710D01*
X016090Y034662D01*
X016090Y034613D01*
X016042Y034565D01*
X015796Y034662D02*
X015747Y034710D01*
X015650Y034710D01*
X015602Y034662D01*
X015602Y034468D01*
X015650Y034420D01*
X014454Y034243D02*
X014261Y034243D01*
X014261Y034097D01*
X014358Y034146D01*
X014406Y034146D01*
X014454Y034097D01*
X014454Y034001D01*
X014406Y033952D01*
X014309Y033952D01*
X014261Y034001D01*
X014160Y033952D02*
X013966Y033952D01*
X014160Y034146D01*
X014160Y034194D01*
X014111Y034243D01*
X014015Y034243D01*
X013966Y034194D01*
X013865Y034194D02*
X013817Y034243D01*
X013720Y034243D01*
X013672Y034194D01*
X013672Y034001D01*
X013720Y033952D01*
X013817Y033952D01*
X013865Y034001D01*
X013816Y035094D02*
X013670Y035094D01*
X013670Y035384D01*
X013816Y035384D01*
X013864Y035336D01*
X013864Y035142D01*
X013816Y035094D01*
X013965Y035142D02*
X013965Y035191D01*
X014013Y035239D01*
X014110Y035239D01*
X014159Y035191D01*
X014159Y035142D01*
X014110Y035094D01*
X014013Y035094D01*
X013965Y035142D01*
X014013Y035239D02*
X013965Y035288D01*
X013965Y035336D01*
X014013Y035384D01*
X014110Y035384D01*
X014159Y035336D01*
X014159Y035288D01*
X014110Y035239D01*
X013569Y035094D02*
X013376Y035094D01*
X013376Y035384D01*
X013569Y035384D01*
X013473Y035239D02*
X013376Y035239D01*
X013275Y035094D02*
X013081Y035094D01*
X013081Y035384D01*
X016920Y030817D02*
X016920Y030527D01*
X017113Y030527D01*
X017214Y030527D02*
X017408Y030721D01*
X017408Y030769D01*
X017359Y030817D01*
X017263Y030817D01*
X017214Y030769D01*
X017214Y030527D02*
X017408Y030527D01*
X017430Y030194D02*
X017382Y030146D01*
X017430Y030194D02*
X017527Y030194D01*
X017575Y030146D01*
X017575Y030098D01*
X017382Y029904D01*
X017575Y029904D01*
X017676Y029952D02*
X017725Y029904D01*
X017821Y029904D01*
X017870Y029952D01*
X017870Y030146D01*
X017821Y030194D01*
X017725Y030194D01*
X017676Y030146D01*
X017676Y030098D01*
X017725Y030049D01*
X017870Y030049D01*
X018268Y029952D02*
X018316Y029904D01*
X018413Y029904D01*
X018462Y029952D01*
X018563Y029904D02*
X018756Y030098D01*
X018756Y030146D01*
X018708Y030194D01*
X018611Y030194D01*
X018563Y030146D01*
X018462Y030146D02*
X018413Y030194D01*
X018316Y030194D01*
X018268Y030146D01*
X018268Y029952D01*
X018563Y029904D02*
X018756Y029904D01*
X018857Y029952D02*
X018857Y030001D01*
X018906Y030049D01*
X019003Y030049D01*
X019051Y030001D01*
X019051Y029952D01*
X019003Y029904D01*
X018906Y029904D01*
X018857Y029952D01*
X018906Y030049D02*
X018857Y030098D01*
X018857Y030146D01*
X018906Y030194D01*
X019003Y030194D01*
X019051Y030146D01*
X019051Y030098D01*
X019003Y030049D01*
X019533Y030110D02*
X019581Y030062D01*
X019533Y030110D02*
X019533Y030207D01*
X019581Y030255D01*
X019629Y030255D01*
X019823Y030062D01*
X019823Y030255D01*
X019823Y030357D02*
X019774Y030357D01*
X019581Y030550D01*
X019533Y030550D01*
X019533Y030357D01*
X019581Y029961D02*
X019533Y029912D01*
X019533Y029816D01*
X019581Y029767D01*
X019774Y029767D01*
X019823Y029816D01*
X019823Y029912D01*
X019774Y029961D01*
X020561Y029919D02*
X020561Y030064D01*
X020610Y030112D01*
X020706Y030112D01*
X020755Y030064D01*
X020755Y029919D01*
X020851Y029919D02*
X020561Y029919D01*
X020755Y030015D02*
X020851Y030112D01*
X020803Y030213D02*
X020851Y030262D01*
X020851Y030358D01*
X020803Y030407D01*
X020755Y030407D01*
X020706Y030358D01*
X020706Y030310D01*
X020706Y030358D02*
X020658Y030407D01*
X020610Y030407D01*
X020561Y030358D01*
X020561Y030262D01*
X020610Y030213D01*
X020561Y030508D02*
X020706Y030508D01*
X020658Y030605D01*
X020658Y030653D01*
X020706Y030702D01*
X020803Y030702D01*
X020851Y030653D01*
X020851Y030556D01*
X020803Y030508D01*
X020561Y030508D02*
X020561Y030702D01*
X020531Y028109D02*
X020386Y027963D01*
X020579Y027963D01*
X020680Y027867D02*
X020729Y027818D01*
X020825Y027818D01*
X020874Y027867D01*
X020874Y027915D01*
X020825Y027963D01*
X020777Y027963D01*
X020825Y027963D02*
X020874Y028012D01*
X020874Y028060D01*
X020825Y028109D01*
X020729Y028109D01*
X020680Y028060D01*
X020531Y028109D02*
X020531Y027818D01*
X020284Y027867D02*
X020236Y027818D01*
X020139Y027818D01*
X020091Y027867D01*
X020091Y028060D01*
X020139Y028109D01*
X020236Y028109D01*
X020284Y028060D01*
X021233Y028021D02*
X021233Y027827D01*
X021281Y027779D01*
X021378Y027779D01*
X021426Y027827D01*
X021527Y027924D02*
X021721Y027924D01*
X021822Y027924D02*
X022015Y027924D01*
X021967Y027779D02*
X021967Y028069D01*
X021822Y027924D01*
X021672Y027779D02*
X021672Y028069D01*
X021527Y027924D01*
X021426Y028021D02*
X021378Y028069D01*
X021281Y028069D01*
X021233Y028021D01*
X019475Y025992D02*
X019475Y025702D01*
X019378Y025702D02*
X019572Y025702D01*
X019378Y025895D02*
X019475Y025992D01*
X019277Y025943D02*
X019229Y025992D01*
X019132Y025992D01*
X019084Y025943D01*
X019084Y025750D01*
X019132Y025702D01*
X019229Y025702D01*
X019277Y025750D01*
X018984Y025702D02*
X018887Y025702D01*
X018935Y025702D02*
X018935Y025992D01*
X018887Y025992D02*
X018984Y025992D01*
X020295Y024676D02*
X020246Y024627D01*
X020246Y024434D01*
X020295Y024385D01*
X020392Y024385D01*
X020440Y024434D01*
X020541Y024385D02*
X020541Y024676D01*
X020735Y024385D01*
X020735Y024676D01*
X020836Y024530D02*
X021029Y024530D01*
X020981Y024385D02*
X020981Y024676D01*
X020836Y024530D01*
X020440Y024627D02*
X020392Y024676D01*
X020295Y024676D01*
X016935Y024509D02*
X016935Y024461D01*
X016886Y024412D01*
X016935Y024364D01*
X016935Y024316D01*
X016886Y024267D01*
X016790Y024267D01*
X016741Y024316D01*
X016640Y024267D02*
X016640Y024557D01*
X016741Y024509D02*
X016790Y024557D01*
X016886Y024557D01*
X016935Y024509D01*
X016886Y024412D02*
X016838Y024412D01*
X016640Y024267D02*
X016447Y024557D01*
X016447Y024267D01*
X016345Y024316D02*
X016297Y024267D01*
X016200Y024267D01*
X016152Y024316D01*
X016152Y024509D01*
X016200Y024557D01*
X016297Y024557D01*
X016345Y024509D01*
X014159Y022431D02*
X013966Y022431D01*
X013966Y022286D01*
X014062Y022335D01*
X014111Y022335D01*
X014159Y022286D01*
X014159Y022190D01*
X014111Y022141D01*
X014014Y022141D01*
X013966Y022190D01*
X013865Y022190D02*
X013816Y022141D01*
X013671Y022141D01*
X013671Y022431D01*
X013816Y022431D01*
X013865Y022383D01*
X013865Y022335D01*
X013816Y022286D01*
X013671Y022286D01*
X013816Y022286D02*
X013865Y022238D01*
X013865Y022190D01*
X013570Y022431D02*
X013376Y022431D01*
X013376Y022141D01*
X013376Y022286D02*
X013473Y022286D01*
X013433Y023731D02*
X013239Y023731D01*
X013433Y023924D01*
X013433Y023973D01*
X013384Y024021D01*
X013288Y024021D01*
X013239Y023973D01*
X013138Y023973D02*
X013090Y024021D01*
X012945Y024021D01*
X012945Y023731D01*
X013090Y023731D01*
X013138Y023779D01*
X013138Y023973D01*
X017135Y029904D02*
X017232Y029904D01*
X017281Y029952D01*
X017135Y029904D02*
X017087Y029952D01*
X017087Y030146D01*
X017135Y030194D01*
X017232Y030194D01*
X017281Y030146D01*
X013864Y042299D02*
X013670Y042299D01*
X013767Y042299D02*
X013767Y042589D01*
X013670Y042492D01*
X013569Y042589D02*
X013569Y042299D01*
X013473Y042395D01*
X013376Y042299D01*
X013376Y042589D01*
X013275Y042541D02*
X013226Y042589D01*
X013129Y042589D01*
X013081Y042541D01*
X013081Y042492D01*
X013129Y042444D01*
X013226Y042444D01*
X013275Y042395D01*
X013275Y042347D01*
X013226Y042299D01*
X013129Y042299D01*
X013081Y042347D01*
X013917Y048755D02*
X013869Y048804D01*
X013917Y048755D02*
X014014Y048755D01*
X014062Y048804D01*
X014062Y048852D01*
X014014Y048901D01*
X013917Y048901D01*
X013869Y048949D01*
X013869Y048997D01*
X013917Y049046D01*
X014014Y049046D01*
X014062Y048997D01*
X014163Y049046D02*
X014163Y048755D01*
X014260Y048852D01*
X014357Y048755D01*
X014357Y049046D01*
X014458Y048997D02*
X014506Y049046D01*
X014603Y049046D01*
X014651Y048997D01*
X014651Y048949D01*
X014603Y048901D01*
X014651Y048852D01*
X014651Y048804D01*
X014603Y048755D01*
X014506Y048755D01*
X014458Y048804D01*
X014555Y048901D02*
X014603Y048901D01*
X015480Y050034D02*
X015480Y050324D01*
X015625Y050324D01*
X015673Y050276D01*
X015673Y050179D01*
X015625Y050131D01*
X015480Y050131D01*
X015576Y050131D02*
X015673Y050034D01*
X015774Y050083D02*
X015774Y050131D01*
X015823Y050179D01*
X015919Y050179D01*
X015968Y050131D01*
X015968Y050083D01*
X015919Y050034D01*
X015823Y050034D01*
X015774Y050083D01*
X015823Y050179D02*
X015774Y050228D01*
X015774Y050276D01*
X015823Y050324D01*
X015919Y050324D01*
X015968Y050276D01*
X015968Y050228D01*
X015919Y050179D01*
X015995Y052117D02*
X015899Y052214D01*
X015947Y052214D02*
X015802Y052214D01*
X015802Y052117D02*
X015802Y052407D01*
X015947Y052407D01*
X015995Y052359D01*
X015995Y052262D01*
X015947Y052214D01*
X016097Y052166D02*
X016097Y052117D01*
X016097Y052166D02*
X016290Y052359D01*
X016290Y052407D01*
X016097Y052407D01*
X017766Y050857D02*
X017766Y050566D01*
X017960Y050566D01*
X018061Y050566D02*
X018254Y050566D01*
X018355Y050566D02*
X018501Y050566D01*
X018549Y050615D01*
X018549Y050808D01*
X018501Y050857D01*
X018355Y050857D01*
X018355Y050566D01*
X018158Y050712D02*
X018061Y050712D01*
X018061Y050857D02*
X018061Y050566D01*
X018061Y050857D02*
X018254Y050857D01*
X018650Y050712D02*
X018844Y050712D01*
X018795Y050857D02*
X018795Y050566D01*
X018650Y050712D02*
X018795Y050857D01*
X019026Y047766D02*
X019171Y047766D01*
X019219Y047718D01*
X019219Y047621D01*
X019171Y047573D01*
X019026Y047573D01*
X019123Y047573D02*
X019219Y047476D01*
X019321Y047476D02*
X019514Y047669D01*
X019514Y047718D01*
X019466Y047766D01*
X019369Y047766D01*
X019321Y047718D01*
X019321Y047476D02*
X019514Y047476D01*
X019615Y047621D02*
X019809Y047621D01*
X019760Y047476D02*
X019760Y047766D01*
X019615Y047621D01*
X019026Y047476D02*
X019026Y047766D01*
X028160Y048922D02*
X028208Y048874D01*
X028305Y048874D01*
X028353Y048922D01*
X028353Y049164D01*
X028455Y049019D02*
X028648Y049019D01*
X028600Y049164D02*
X028455Y049019D01*
X028600Y048874D02*
X028600Y049164D01*
X028160Y049164D02*
X028160Y048922D01*
X029617Y047816D02*
X029617Y047623D01*
X029665Y047574D01*
X029762Y047574D01*
X029810Y047623D01*
X029911Y047574D02*
X029911Y047865D01*
X030105Y047574D01*
X030105Y047865D01*
X030206Y047768D02*
X030303Y047865D01*
X030303Y047574D01*
X030399Y047574D02*
X030206Y047574D01*
X030501Y047574D02*
X030694Y047574D01*
X030597Y047574D02*
X030597Y047865D01*
X030501Y047768D01*
X029810Y047816D02*
X029762Y047865D01*
X029665Y047865D01*
X029617Y047816D01*
D12*
X030272Y033179D02*
X030272Y032758D01*
X030062Y032969D02*
X030482Y032969D01*
D13*
X030639Y030833D02*
X030185Y030833D01*
X031137Y045650D02*
X031137Y045847D01*
X033027Y045847D01*
X033027Y045650D01*
X031137Y045650D01*
X031137Y045847D02*
X031137Y047146D01*
X033027Y047146D01*
X033027Y045847D01*
D14*
X033913Y045492D02*
X034976Y045492D01*
X034976Y045138D01*
X033913Y045138D01*
X033913Y045492D01*
X035665Y045335D02*
X035665Y044705D01*
X035980Y044705D01*
X035980Y045335D01*
X035665Y045335D01*
X035645Y045020D02*
X035999Y045020D01*
X036570Y045118D02*
X036570Y045512D01*
X036609Y045945D02*
X036609Y044685D01*
X037594Y044685D01*
X037594Y045945D01*
X036609Y045945D01*
X037633Y045512D02*
X037633Y045118D01*
X037554Y043563D02*
X037239Y043563D01*
X037239Y042933D01*
X037554Y042933D01*
X037554Y043563D01*
X037574Y043248D02*
X037220Y043248D01*
X036590Y043248D02*
X036235Y043248D01*
X036255Y042933D02*
X036255Y043563D01*
X036570Y043563D01*
X036570Y042933D01*
X036255Y042933D01*
X035596Y042933D02*
X035261Y042933D01*
X035261Y043563D01*
X035596Y043563D01*
X035596Y042933D01*
X035625Y043248D02*
X035231Y043248D01*
X034641Y043248D02*
X034247Y043248D01*
X034277Y042933D02*
X034277Y043563D01*
X034611Y043563D01*
X034611Y042933D01*
X034277Y042933D01*
X033598Y042776D02*
X032535Y042776D01*
X032535Y043130D01*
X033598Y043130D01*
X033598Y042776D01*
X032249Y042933D02*
X031915Y042933D01*
X031915Y043563D01*
X032249Y043563D01*
X032249Y042933D01*
X032279Y043248D02*
X031885Y043248D01*
X030113Y043150D02*
X029720Y043150D01*
X029749Y043465D02*
X030084Y043465D01*
X030084Y042835D01*
X029749Y042835D01*
X029749Y043465D01*
X029287Y043465D02*
X029287Y042835D01*
X028972Y042835D01*
X028972Y043465D01*
X029287Y043465D01*
X029306Y043150D02*
X028952Y043150D01*
X028460Y043022D02*
X028460Y042687D01*
X027830Y042687D01*
X027830Y043022D01*
X028460Y043022D01*
X028145Y043051D02*
X028145Y042658D01*
X028224Y044508D02*
X028854Y044508D01*
X028854Y044823D01*
X028224Y044823D01*
X028224Y044508D01*
X028539Y044488D02*
X028539Y044843D01*
X029039Y045201D02*
X028039Y045201D01*
X028039Y047201D01*
X029039Y047201D01*
X029039Y045201D01*
X027476Y045847D02*
X026846Y045847D01*
X026846Y046162D01*
X027476Y046162D01*
X027476Y045847D01*
X027161Y045827D02*
X027161Y046181D01*
X027161Y046614D02*
X027161Y046969D01*
X026846Y046949D02*
X027476Y046949D01*
X027476Y046634D01*
X026846Y046634D01*
X026846Y046949D01*
X025359Y047362D02*
X025025Y047362D01*
X025025Y047992D01*
X025359Y047992D01*
X025359Y047362D01*
X025389Y047677D02*
X024995Y047677D01*
X024995Y048957D02*
X024405Y048957D01*
X024405Y050217D01*
X024995Y050217D01*
X024995Y048957D01*
X023627Y047992D02*
X023627Y047362D01*
X023292Y047362D01*
X023292Y047992D01*
X023627Y047992D01*
X023657Y047677D02*
X023263Y047677D01*
X023027Y047677D02*
X022633Y047677D01*
X022397Y047677D02*
X022003Y047677D01*
X021767Y047677D02*
X021373Y047677D01*
X021403Y047362D02*
X021403Y047992D01*
X021737Y047992D01*
X021737Y047362D01*
X021403Y047362D01*
X021019Y047362D02*
X021019Y047992D01*
X020704Y047992D01*
X020704Y047362D01*
X021019Y047362D01*
X021039Y047677D02*
X020684Y047677D01*
X020428Y047677D02*
X020035Y047677D01*
X020064Y047362D02*
X020064Y047992D01*
X020399Y047992D01*
X020399Y047362D01*
X020064Y047362D01*
X019936Y046614D02*
X019936Y045985D01*
X019621Y045985D01*
X019621Y046614D01*
X019936Y046614D01*
X019956Y046299D02*
X019602Y046299D01*
X020389Y046299D02*
X020743Y046299D01*
X020724Y045985D02*
X020724Y046614D01*
X020409Y046614D01*
X020409Y045985D01*
X020724Y045985D01*
X022033Y047362D02*
X022033Y047992D01*
X022367Y047992D01*
X022367Y047362D01*
X022033Y047362D01*
X022663Y047362D02*
X022663Y047992D01*
X022997Y047992D01*
X022997Y047362D01*
X022663Y047362D01*
X022800Y048937D02*
X022800Y049567D01*
X022466Y049567D01*
X022466Y048937D01*
X022800Y048937D01*
X022830Y049252D02*
X022436Y049252D01*
X022357Y051053D02*
X021728Y051053D01*
X021728Y051388D01*
X022357Y051388D01*
X022357Y051053D01*
X022042Y051024D02*
X022042Y051418D01*
X020389Y051388D02*
X020389Y051053D01*
X019759Y051053D01*
X019759Y051388D01*
X020389Y051388D01*
X020074Y051418D02*
X020074Y051024D01*
X020104Y049567D02*
X020104Y048937D01*
X020438Y048937D01*
X020438Y049567D01*
X020104Y049567D01*
X020074Y049252D02*
X020468Y049252D01*
X018420Y051053D02*
X017791Y051053D01*
X017791Y051388D01*
X018420Y051388D01*
X018420Y051053D01*
X018105Y051024D02*
X018105Y051418D01*
X016354Y051546D02*
X015724Y051546D01*
X015724Y051880D01*
X016354Y051880D01*
X016354Y051546D01*
X016039Y051516D02*
X016039Y051910D01*
X016039Y050925D02*
X016039Y050532D01*
X016354Y050561D02*
X015724Y050561D01*
X015724Y050896D01*
X016354Y050896D01*
X016354Y050561D01*
X018381Y045483D02*
X019011Y045483D01*
X019011Y045148D01*
X018381Y045148D01*
X018381Y045483D01*
X018696Y045512D02*
X018696Y045118D01*
X018188Y044044D02*
X020188Y044044D01*
X020188Y043044D01*
X018188Y043044D01*
X018188Y044044D01*
X018381Y042727D02*
X019011Y042727D01*
X019011Y042392D01*
X018381Y042392D01*
X018381Y042727D01*
X018696Y042756D02*
X018696Y042362D01*
X018696Y041969D02*
X018696Y041575D01*
X019011Y041605D02*
X018381Y041605D01*
X018381Y041939D01*
X019011Y041939D01*
X019011Y041605D01*
X019011Y041152D02*
X018381Y041152D01*
X018381Y040817D01*
X019011Y040817D01*
X019011Y041152D01*
X018696Y041181D02*
X018696Y040788D01*
X018696Y040394D02*
X018696Y040000D01*
X019011Y040030D02*
X018381Y040030D01*
X018381Y040364D01*
X019011Y040364D01*
X019011Y040030D01*
X020153Y039941D02*
X020153Y040256D01*
X020783Y040256D01*
X020783Y039941D01*
X020153Y039941D01*
X020468Y039922D02*
X020468Y040276D01*
X020468Y039488D02*
X020468Y039134D01*
X020783Y039154D02*
X020153Y039154D01*
X020153Y039469D01*
X020783Y039469D01*
X020783Y039154D01*
X020792Y038150D02*
X021127Y038150D01*
X021127Y037520D01*
X020792Y037520D01*
X020792Y038150D01*
X020763Y037835D02*
X021157Y037835D01*
X021444Y036374D02*
X021444Y034374D01*
X022444Y034374D01*
X022444Y036374D01*
X021444Y036374D01*
X021117Y036280D02*
X021117Y035650D01*
X020802Y035650D01*
X020802Y036280D01*
X021117Y036280D01*
X021137Y035965D02*
X020783Y035965D01*
X020153Y035965D02*
X019798Y035965D01*
X019818Y035650D02*
X019818Y036280D01*
X020133Y036280D01*
X020133Y035650D01*
X019818Y035650D01*
X019808Y035000D02*
X020143Y035000D01*
X020143Y034370D01*
X019808Y034370D01*
X019808Y035000D01*
X019779Y034685D02*
X020172Y034685D01*
X017633Y034252D02*
X017003Y034252D01*
X017003Y033937D01*
X017633Y033937D01*
X017633Y034252D01*
X017318Y034272D02*
X017318Y033918D01*
X016255Y034922D02*
X015625Y034922D01*
X015625Y035236D01*
X016255Y035236D01*
X016255Y034922D01*
X015940Y034902D02*
X015940Y035256D01*
X015704Y035748D02*
X015389Y035748D01*
X015389Y036378D01*
X015704Y036378D01*
X015704Y035748D01*
X015724Y036063D02*
X015369Y036063D01*
X014759Y036063D02*
X014365Y036063D01*
X014395Y035748D02*
X014395Y036378D01*
X014730Y036378D01*
X014730Y035748D01*
X014395Y035748D01*
X014690Y034764D02*
X015025Y034764D01*
X015025Y034134D01*
X014690Y034134D01*
X014690Y034764D01*
X014661Y034449D02*
X015054Y034449D01*
X014464Y033544D02*
X014464Y032284D01*
X013480Y032284D01*
X013480Y033544D01*
X014464Y033544D01*
X014503Y033110D02*
X014503Y032717D01*
X015094Y032697D02*
X015094Y033327D01*
X015409Y033327D01*
X015409Y032697D01*
X015094Y032697D01*
X015074Y033012D02*
X015428Y033012D01*
X013440Y033110D02*
X013440Y032717D01*
X016176Y035748D02*
X016176Y036378D01*
X016491Y036378D01*
X016491Y035748D01*
X016176Y035748D01*
X016157Y036063D02*
X016511Y036063D01*
X016708Y037402D02*
X016117Y037402D01*
X016117Y038662D01*
X016708Y038662D01*
X016708Y037402D01*
X017397Y037520D02*
X017397Y038150D01*
X017712Y038150D01*
X017712Y037520D01*
X017397Y037520D01*
X017377Y037835D02*
X017731Y037835D01*
X018519Y037402D02*
X018519Y038662D01*
X019109Y038662D01*
X019109Y037402D01*
X018519Y037402D01*
X017722Y038740D02*
X017387Y038740D01*
X017387Y039370D01*
X017722Y039370D01*
X017722Y038740D01*
X017751Y039055D02*
X017357Y039055D01*
X015448Y039213D02*
X015094Y039213D01*
X015113Y039528D02*
X015428Y039528D01*
X015428Y038898D01*
X015113Y038898D01*
X015113Y039528D01*
X015094Y038307D02*
X015094Y037677D01*
X015409Y037677D01*
X015409Y038307D01*
X015094Y038307D01*
X015074Y037992D02*
X015428Y037992D01*
X014275Y037229D02*
X014275Y039229D01*
X013275Y039229D01*
X013275Y037229D01*
X014275Y037229D01*
X020015Y030670D02*
X020330Y030670D01*
X020330Y030040D01*
X020015Y030040D01*
X020015Y030670D01*
X019995Y030355D02*
X020350Y030355D01*
X021058Y030355D02*
X021452Y030355D01*
X021422Y030670D02*
X021422Y030040D01*
X021088Y030040D01*
X021088Y030670D01*
X021422Y030670D01*
X022072Y030670D02*
X022072Y030040D01*
X022407Y030040D01*
X022407Y030670D01*
X022072Y030670D01*
X022042Y030355D02*
X022436Y030355D01*
X022672Y029095D02*
X022987Y029095D01*
X022987Y028465D01*
X022672Y028465D01*
X022672Y029095D01*
X022653Y028780D02*
X023007Y028780D01*
X023511Y027977D02*
X023511Y029977D01*
X024511Y029977D01*
X024511Y027977D01*
X023511Y027977D01*
X022003Y028465D02*
X022003Y029095D01*
X021688Y029095D01*
X021688Y028465D01*
X022003Y028465D01*
X022023Y028780D02*
X021668Y028780D01*
X021039Y028780D02*
X020684Y028780D01*
X020704Y028465D02*
X020704Y029095D01*
X021019Y029095D01*
X021019Y028465D01*
X020704Y028465D01*
X018913Y028681D02*
X018913Y029075D01*
X018893Y029508D02*
X018893Y028248D01*
X018302Y028248D01*
X018302Y029508D01*
X018893Y029508D01*
X018283Y029075D02*
X018283Y028681D01*
X017731Y028681D02*
X017731Y029075D01*
X017712Y029508D02*
X017712Y028248D01*
X017121Y028248D01*
X017121Y029508D01*
X017712Y029508D01*
X017102Y029075D02*
X017102Y028681D01*
X021098Y031614D02*
X021098Y032244D01*
X021413Y032244D01*
X021413Y031614D01*
X021098Y031614D01*
X021078Y031929D02*
X021432Y031929D01*
X022062Y031929D02*
X022417Y031929D01*
X022397Y032244D02*
X022397Y031614D01*
X022082Y031614D01*
X022082Y032244D01*
X022397Y032244D01*
X025625Y035551D02*
X025625Y036181D01*
X025940Y036181D01*
X025940Y035551D01*
X025625Y035551D01*
X025605Y035866D02*
X025960Y035866D01*
X025950Y037126D02*
X025615Y037126D01*
X025615Y037756D01*
X025950Y037756D01*
X025950Y037126D01*
X025980Y037441D02*
X025586Y037441D01*
X027574Y037441D02*
X027928Y037441D01*
X027909Y037126D02*
X027594Y037126D01*
X027594Y037756D01*
X027909Y037756D01*
X027909Y037126D01*
X027918Y036280D02*
X027918Y035650D01*
X027584Y035650D01*
X027584Y036280D01*
X027918Y036280D01*
X027948Y035965D02*
X027554Y035965D01*
X028794Y035945D02*
X028794Y035591D01*
X029857Y035591D01*
X029857Y035945D01*
X028794Y035945D01*
X028765Y037126D02*
X028765Y037756D01*
X029100Y037756D01*
X029100Y037126D01*
X028765Y037126D01*
X028735Y037441D02*
X029129Y037441D01*
X029936Y037441D02*
X030291Y037441D01*
X030271Y037126D02*
X029956Y037126D01*
X029956Y037756D01*
X030271Y037756D01*
X030271Y037126D01*
X031127Y037126D02*
X031127Y037756D01*
X031462Y037756D01*
X031462Y037126D01*
X031127Y037126D01*
X031098Y037441D02*
X031491Y037441D01*
X032279Y037441D02*
X032672Y037441D01*
X032643Y037126D02*
X032308Y037126D01*
X032308Y037756D01*
X032643Y037756D01*
X032643Y037126D01*
X033499Y037126D02*
X033499Y037756D01*
X033814Y037756D01*
X033814Y037126D01*
X033499Y037126D01*
X033480Y037441D02*
X033834Y037441D01*
X033476Y038614D02*
X031476Y038614D01*
X031476Y039614D01*
X033476Y039614D01*
X033476Y038614D01*
X033420Y036280D02*
X033420Y035650D01*
X033105Y035650D01*
X033105Y036280D01*
X033420Y036280D01*
X033440Y035965D02*
X033086Y035965D01*
X032259Y035965D02*
X031905Y035965D01*
X031924Y036280D02*
X032239Y036280D01*
X032239Y035650D01*
X031924Y035650D01*
X031924Y036280D01*
X031068Y036280D02*
X031068Y035650D01*
X030733Y035650D01*
X030733Y036280D01*
X031068Y036280D01*
X031098Y035965D02*
X030704Y035965D01*
X027476Y039154D02*
X026846Y039154D01*
X026846Y039469D01*
X027476Y039469D01*
X027476Y039154D01*
X027161Y039134D02*
X027161Y039488D01*
X027161Y039922D02*
X027161Y040276D01*
X026846Y040256D02*
X027476Y040256D01*
X027476Y039941D01*
X026846Y039941D01*
X026846Y040256D01*
X022791Y037756D02*
X022791Y037126D01*
X022476Y037126D01*
X022476Y037756D01*
X022791Y037756D01*
X022810Y037441D02*
X022456Y037441D01*
X027338Y029016D02*
X027338Y027756D01*
X028322Y027756D01*
X028322Y029016D01*
X027338Y029016D01*
X027298Y028583D02*
X027298Y028189D01*
X028361Y028189D02*
X028361Y028583D01*
X028834Y028583D02*
X028834Y028189D01*
X028873Y027756D02*
X028873Y029016D01*
X029857Y029016D01*
X029857Y027756D01*
X028873Y027756D01*
X029897Y028189D02*
X029897Y028583D01*
X030586Y028160D02*
X031216Y028160D01*
X031216Y027825D01*
X030586Y027825D01*
X030586Y028160D01*
X030901Y028189D02*
X030901Y027796D01*
X032161Y027825D02*
X032791Y027825D01*
X032791Y028160D01*
X032161Y028160D01*
X032161Y027825D01*
X032476Y027796D02*
X032476Y028189D01*
X033735Y028160D02*
X034365Y028160D01*
X034365Y027825D01*
X033735Y027825D01*
X033735Y028160D01*
X034050Y028189D02*
X034050Y027796D01*
X035310Y027825D02*
X035940Y027825D01*
X035940Y028160D01*
X035310Y028160D01*
X035310Y027825D01*
X035625Y027796D02*
X035625Y028189D01*
X034700Y048740D02*
X034700Y049370D01*
X034385Y049370D01*
X034385Y048740D01*
X034700Y048740D01*
X034720Y049055D02*
X034365Y049055D01*
X033735Y049055D02*
X033381Y049055D01*
X033401Y048740D02*
X033401Y049370D01*
X033716Y049370D01*
X033716Y048740D01*
X033401Y048740D01*
X032741Y048740D02*
X032741Y049370D01*
X032407Y049370D01*
X032407Y048740D01*
X032741Y048740D01*
X032771Y049055D02*
X032377Y049055D01*
X031767Y049055D02*
X031413Y049055D01*
X031432Y048740D02*
X031432Y049370D01*
X031747Y049370D01*
X031747Y048740D01*
X031432Y048740D01*
X024326Y051053D02*
X023696Y051053D01*
X023696Y051388D01*
X024326Y051388D01*
X024326Y051053D01*
X024011Y051024D02*
X024011Y051418D01*
D15*
X020861Y047918D03*
X020861Y047437D03*
X020566Y046540D03*
X020566Y046059D03*
X019779Y046059D03*
X019779Y046540D03*
X015271Y039453D03*
X015271Y038973D03*
X015251Y038233D03*
X015251Y037752D03*
X015546Y036303D03*
X015546Y035823D03*
X016334Y035823D03*
X016334Y036303D03*
X017554Y037595D03*
X017554Y038075D03*
X019976Y036205D03*
X019976Y035725D03*
X020960Y035725D03*
X020960Y036205D03*
X022633Y037201D03*
X022633Y037681D03*
X025783Y036107D03*
X025783Y035626D03*
X027751Y037201D03*
X027751Y037681D03*
X030113Y037681D03*
X030113Y037201D03*
X032082Y036205D03*
X032082Y035725D03*
X033263Y035725D03*
X033263Y036205D03*
X033657Y037201D03*
X033657Y037681D03*
X029129Y042910D03*
X029129Y043390D03*
X031590Y048815D03*
X031590Y049296D03*
X033558Y049296D03*
X033558Y048815D03*
X034542Y048815D03*
X034542Y049296D03*
X035822Y045260D03*
X035822Y044780D03*
X036413Y043488D03*
X036413Y043008D03*
X037397Y043008D03*
X037397Y043488D03*
X022830Y029020D03*
X022830Y028540D03*
X021846Y028540D03*
X021846Y029020D03*
X020861Y029020D03*
X020861Y028540D03*
X020172Y030114D03*
X020172Y030595D03*
X021255Y031689D03*
X021255Y032170D03*
X022239Y032170D03*
X022239Y031689D03*
X015251Y032772D03*
X015251Y033252D03*
D16*
X015700Y035079D03*
X016180Y035079D03*
X017078Y034095D03*
X017558Y034095D03*
X020228Y039311D03*
X020708Y039311D03*
X020708Y040099D03*
X020228Y040099D03*
X026920Y040099D03*
X027401Y040099D03*
X027401Y039311D03*
X026920Y039311D03*
X028298Y044666D03*
X028779Y044666D03*
X027401Y046004D03*
X026920Y046004D03*
X026920Y046792D03*
X027401Y046792D03*
D17*
X027889Y042855D03*
X028401Y042855D03*
X024267Y051221D03*
X023755Y051221D03*
X022298Y051221D03*
X021787Y051221D03*
X020330Y051221D03*
X019818Y051221D03*
X018361Y051221D03*
X017850Y051221D03*
X016294Y051713D03*
X015783Y051713D03*
X015783Y050729D03*
X016294Y050729D03*
X018440Y045315D03*
X018952Y045315D03*
X018952Y042559D03*
X018440Y042559D03*
X018440Y041772D03*
X018952Y041772D03*
X018952Y040985D03*
X018440Y040985D03*
X018440Y040197D03*
X018952Y040197D03*
X030645Y027992D03*
X031157Y027992D03*
X032220Y027992D03*
X032731Y027992D03*
X033794Y027992D03*
X034306Y027992D03*
X035369Y027992D03*
X035881Y027992D03*
D18*
X018814Y037501D03*
X018814Y038562D03*
X016413Y038562D03*
X016413Y037501D03*
X017417Y029409D03*
X017417Y028348D03*
X018598Y028348D03*
X018598Y029409D03*
X024700Y049056D03*
X024700Y050117D03*
D19*
X022633Y049508D03*
X022633Y048996D03*
X022830Y047933D03*
X022830Y047422D03*
X023460Y047422D03*
X023460Y047933D03*
X022200Y047933D03*
X022200Y047422D03*
X021570Y047422D03*
X021570Y047933D03*
X020231Y047933D03*
X020231Y047422D03*
X020271Y048996D03*
X020271Y049508D03*
X025192Y047933D03*
X025192Y047422D03*
X029917Y043406D03*
X029917Y042894D03*
X032082Y042992D03*
X032082Y043504D03*
X034444Y043504D03*
X034444Y042992D03*
X035428Y042992D03*
X035428Y043504D03*
X032574Y048799D03*
X032574Y049311D03*
X032476Y037697D03*
X032476Y037185D03*
X031294Y037185D03*
X031294Y037697D03*
X030901Y036221D03*
X030901Y035709D03*
X028932Y037185D03*
X028932Y037697D03*
X027751Y036221D03*
X027751Y035709D03*
X025783Y037185D03*
X025783Y037697D03*
X020960Y037579D03*
X020960Y038091D03*
X019976Y034941D03*
X019976Y034429D03*
X021255Y030610D03*
X021255Y030099D03*
X022239Y030099D03*
X022239Y030610D03*
X014857Y034193D03*
X014857Y034705D03*
X014562Y035807D03*
X014562Y036319D03*
X017554Y038799D03*
X017554Y039311D03*
D20*
X013775Y036103D02*
X013578Y036103D01*
X013381Y036103D01*
X020763Y034725D02*
X020960Y034725D01*
X021157Y034725D01*
D21*
X021078Y034607D02*
X020842Y034607D01*
X020960Y034725D01*
X021078Y034607D01*
X013696Y035985D02*
X013460Y035985D01*
X013578Y036103D01*
X013696Y035985D01*
D22*
X013695Y035985D02*
X013460Y035985D01*
X013461Y035986D02*
X013694Y035986D01*
X013693Y035987D02*
X013462Y035987D01*
X013463Y035988D02*
X013692Y035988D01*
X013691Y035989D02*
X013464Y035989D01*
X013465Y035990D02*
X013690Y035990D01*
X013689Y035991D02*
X013466Y035991D01*
X013467Y035992D02*
X013688Y035992D01*
X013687Y035993D02*
X013468Y035993D01*
X013469Y035994D02*
X013686Y035994D01*
X013685Y035995D02*
X013470Y035995D01*
X013471Y035996D02*
X013684Y035996D01*
X013683Y035997D02*
X013472Y035997D01*
X013473Y035998D02*
X013682Y035998D01*
X013681Y035999D02*
X013474Y035999D01*
X013475Y036000D02*
X013680Y036000D01*
X013679Y036001D02*
X013476Y036001D01*
X013477Y036002D02*
X013678Y036002D01*
X013677Y036003D02*
X013478Y036003D01*
X013479Y036004D02*
X013676Y036004D01*
X013675Y036005D02*
X013480Y036005D01*
X013481Y036006D02*
X013674Y036006D01*
X013673Y036007D02*
X013482Y036007D01*
X013483Y036008D02*
X013673Y036008D01*
X013672Y036009D02*
X013484Y036009D01*
X013485Y036010D02*
X013671Y036010D01*
X013670Y036011D02*
X013486Y036011D01*
X013487Y036012D02*
X013669Y036012D01*
X013668Y036013D02*
X013488Y036013D01*
X013489Y036014D02*
X013667Y036014D01*
X013666Y036015D02*
X013490Y036015D01*
X013491Y036016D02*
X013665Y036016D01*
X013664Y036017D02*
X013492Y036017D01*
X013493Y036018D02*
X013663Y036018D01*
X013662Y036019D02*
X013494Y036019D01*
X013495Y036020D02*
X013661Y036020D01*
X013660Y036021D02*
X013496Y036021D01*
X013497Y036022D02*
X013659Y036022D01*
X013658Y036023D02*
X013498Y036023D01*
X013499Y036024D02*
X013657Y036024D01*
X013656Y036025D02*
X013500Y036025D01*
X013501Y036026D02*
X013655Y036026D01*
X013654Y036027D02*
X013502Y036027D01*
X013503Y036028D02*
X013653Y036028D01*
X013652Y036029D02*
X013504Y036029D01*
X013505Y036030D02*
X013651Y036030D01*
X013650Y036031D02*
X013506Y036031D01*
X013507Y036032D02*
X013649Y036032D01*
X013648Y036033D02*
X013508Y036033D01*
X013509Y036034D02*
X013647Y036034D01*
X013646Y036035D02*
X013510Y036035D01*
X013511Y036036D02*
X013645Y036036D01*
X013644Y036037D02*
X013512Y036037D01*
X013513Y036038D02*
X013643Y036038D01*
X013642Y036039D02*
X013514Y036039D01*
X013515Y036040D02*
X013641Y036040D01*
X013640Y036041D02*
X013516Y036041D01*
X013517Y036042D02*
X013639Y036042D01*
X013638Y036043D02*
X013518Y036043D01*
X013519Y036044D02*
X013637Y036044D01*
X013636Y036045D02*
X013520Y036045D01*
X013521Y036046D02*
X013635Y036046D01*
X013634Y036047D02*
X013522Y036047D01*
X013523Y036048D02*
X013633Y036048D01*
X013632Y036049D02*
X013524Y036049D01*
X013525Y036050D02*
X013631Y036050D01*
X013630Y036051D02*
X013526Y036051D01*
X013527Y036052D02*
X013629Y036052D01*
X013628Y036053D02*
X013528Y036053D01*
X013529Y036054D02*
X013627Y036054D01*
X013626Y036055D02*
X013530Y036055D01*
X013531Y036056D02*
X013625Y036056D01*
X013624Y036057D02*
X013532Y036057D01*
X013533Y036058D02*
X013623Y036058D01*
X013622Y036059D02*
X013534Y036059D01*
X013535Y036060D02*
X013621Y036060D01*
X013620Y036061D02*
X013536Y036061D01*
X013537Y036062D02*
X013619Y036062D01*
X013618Y036063D02*
X013538Y036063D01*
X013539Y036064D02*
X013617Y036064D01*
X013616Y036065D02*
X013540Y036065D01*
X013541Y036066D02*
X013615Y036066D01*
X013614Y036067D02*
X013542Y036067D01*
X013543Y036068D02*
X013613Y036068D01*
X013612Y036069D02*
X013544Y036069D01*
X013545Y036070D02*
X013611Y036070D01*
X013610Y036071D02*
X013546Y036071D01*
X013547Y036072D02*
X013609Y036072D01*
X013608Y036073D02*
X013548Y036073D01*
X013549Y036074D02*
X013607Y036074D01*
X013606Y036075D02*
X013550Y036075D01*
X013551Y036076D02*
X013605Y036076D01*
X013604Y036077D02*
X013552Y036077D01*
X013553Y036078D02*
X013603Y036078D01*
X013602Y036079D02*
X013554Y036079D01*
X013555Y036080D02*
X013601Y036080D01*
X013600Y036081D02*
X013556Y036081D01*
X013557Y036082D02*
X013599Y036082D01*
X013598Y036083D02*
X013558Y036083D01*
X013559Y036084D02*
X013597Y036084D01*
X013596Y036085D02*
X013560Y036085D01*
X013561Y036086D02*
X013595Y036086D01*
X013594Y036087D02*
X013562Y036087D01*
X013563Y036088D02*
X013593Y036088D01*
X013592Y036089D02*
X013564Y036089D01*
X013565Y036090D02*
X013591Y036090D01*
X013590Y036091D02*
X013566Y036091D01*
X013567Y036092D02*
X013589Y036092D01*
X013588Y036093D02*
X013568Y036093D01*
X013569Y036094D02*
X013587Y036094D01*
X013586Y036095D02*
X013570Y036095D01*
X013571Y036096D02*
X013585Y036096D01*
X013584Y036097D02*
X013572Y036097D01*
X013573Y036098D02*
X013583Y036098D01*
X013582Y036099D02*
X013574Y036099D01*
X013575Y036100D02*
X013581Y036100D01*
X013580Y036101D02*
X013576Y036101D01*
X013577Y036102D02*
X013579Y036102D01*
X020843Y034607D02*
X021077Y034607D01*
X021076Y034608D02*
X020844Y034608D01*
X020845Y034609D02*
X021075Y034609D01*
X021074Y034610D02*
X020846Y034610D01*
X020847Y034611D02*
X021073Y034611D01*
X021072Y034612D02*
X020848Y034612D01*
X020849Y034613D02*
X021071Y034613D01*
X021070Y034614D02*
X020850Y034614D01*
X020851Y034615D02*
X021069Y034615D01*
X021068Y034616D02*
X020852Y034616D01*
X020853Y034617D02*
X021067Y034617D01*
X021066Y034618D02*
X020854Y034618D01*
X020855Y034619D02*
X021065Y034619D01*
X021064Y034620D02*
X020856Y034620D01*
X020857Y034621D02*
X021063Y034621D01*
X021062Y034622D02*
X020858Y034622D01*
X020859Y034623D02*
X021061Y034623D01*
X021060Y034624D02*
X020860Y034624D01*
X020861Y034625D02*
X021059Y034625D01*
X021058Y034626D02*
X020862Y034626D01*
X020863Y034627D02*
X021057Y034627D01*
X021056Y034628D02*
X020864Y034628D01*
X020865Y034629D02*
X021055Y034629D01*
X021054Y034630D02*
X020866Y034630D01*
X020867Y034631D02*
X021053Y034631D01*
X021052Y034632D02*
X020868Y034632D01*
X020869Y034633D02*
X021051Y034633D01*
X021050Y034634D02*
X020870Y034634D01*
X020871Y034635D02*
X021049Y034635D01*
X021048Y034636D02*
X020872Y034636D01*
X020873Y034637D02*
X021047Y034637D01*
X021046Y034638D02*
X020874Y034638D01*
X020875Y034639D02*
X021045Y034639D01*
X021044Y034640D02*
X020876Y034640D01*
X020877Y034641D02*
X021043Y034641D01*
X021042Y034642D02*
X020878Y034642D01*
X020879Y034643D02*
X021041Y034643D01*
X021040Y034644D02*
X020880Y034644D01*
X020881Y034645D02*
X021039Y034645D01*
X021038Y034646D02*
X020882Y034646D01*
X020883Y034647D02*
X021037Y034647D01*
X021036Y034648D02*
X020884Y034648D01*
X020885Y034649D02*
X021035Y034649D01*
X021034Y034650D02*
X020886Y034650D01*
X020887Y034651D02*
X021033Y034651D01*
X021032Y034652D02*
X020888Y034652D01*
X020889Y034653D02*
X021031Y034653D01*
X021030Y034654D02*
X020890Y034654D01*
X020891Y034655D02*
X021029Y034655D01*
X021028Y034656D02*
X020892Y034656D01*
X020893Y034657D02*
X021027Y034657D01*
X021026Y034658D02*
X020894Y034658D01*
X020895Y034659D02*
X021025Y034659D01*
X021024Y034660D02*
X020896Y034660D01*
X020897Y034661D02*
X021023Y034661D01*
X021022Y034662D02*
X020898Y034662D01*
X020899Y034663D02*
X021021Y034663D01*
X021020Y034664D02*
X020900Y034664D01*
X020901Y034665D02*
X021019Y034665D01*
X021018Y034666D02*
X020902Y034666D01*
X020903Y034667D02*
X021017Y034667D01*
X021016Y034668D02*
X020904Y034668D01*
X020905Y034669D02*
X021015Y034669D01*
X021014Y034670D02*
X020906Y034670D01*
X020907Y034671D02*
X021013Y034671D01*
X021012Y034672D02*
X020908Y034672D01*
X020909Y034673D02*
X021011Y034673D01*
X021010Y034674D02*
X020910Y034674D01*
X020911Y034675D02*
X021009Y034675D01*
X021008Y034676D02*
X020912Y034676D01*
X020913Y034677D02*
X021007Y034677D01*
X021006Y034678D02*
X020914Y034678D01*
X020915Y034679D02*
X021005Y034679D01*
X021004Y034680D02*
X020916Y034680D01*
X020917Y034681D02*
X021003Y034681D01*
X021002Y034682D02*
X020918Y034682D01*
X020919Y034683D02*
X021001Y034683D01*
X021000Y034684D02*
X020920Y034684D01*
X020921Y034685D02*
X020999Y034685D01*
X020998Y034686D02*
X020922Y034686D01*
X020923Y034687D02*
X020997Y034687D01*
X020996Y034688D02*
X020923Y034688D01*
X020924Y034689D02*
X020995Y034689D01*
X020994Y034690D02*
X020925Y034690D01*
X020926Y034691D02*
X020993Y034691D01*
X020992Y034692D02*
X020927Y034692D01*
X020928Y034693D02*
X020991Y034693D01*
X020990Y034694D02*
X020929Y034694D01*
X020930Y034695D02*
X020989Y034695D01*
X020988Y034696D02*
X020931Y034696D01*
X020932Y034697D02*
X020987Y034697D01*
X020986Y034698D02*
X020933Y034698D01*
X020934Y034699D02*
X020985Y034699D01*
X020984Y034700D02*
X020935Y034700D01*
X020936Y034701D02*
X020983Y034701D01*
X020982Y034702D02*
X020937Y034702D01*
X020938Y034703D02*
X020981Y034703D01*
X020980Y034704D02*
X020939Y034704D01*
X020940Y034705D02*
X020979Y034705D01*
X020978Y034706D02*
X020941Y034706D01*
X020942Y034707D02*
X020977Y034707D01*
X020976Y034708D02*
X020943Y034708D01*
X020944Y034709D02*
X020975Y034709D01*
X020974Y034710D02*
X020945Y034710D01*
X020946Y034711D02*
X020973Y034711D01*
X020972Y034712D02*
X020947Y034712D01*
X020948Y034713D02*
X020971Y034713D01*
X020970Y034714D02*
X020949Y034714D01*
X020950Y034715D02*
X020969Y034715D01*
X020968Y034716D02*
X020951Y034716D01*
X020952Y034717D02*
X020967Y034717D01*
X020966Y034718D02*
X020953Y034718D01*
X020954Y034719D02*
X020965Y034719D01*
X020964Y034720D02*
X020955Y034720D01*
X020956Y034721D02*
X020963Y034721D01*
X020962Y034722D02*
X020957Y034722D01*
X020958Y034723D02*
X020961Y034723D01*
X020960Y034724D02*
X020959Y034724D01*
D23*
X018401Y033780D03*
D24*
X013972Y033444D03*
X013972Y032383D03*
X027830Y028917D03*
X027830Y027856D03*
X029365Y027856D03*
X029365Y028917D03*
X037102Y044785D03*
X037102Y045846D03*
D25*
X020070Y025776D03*
D26*
X032287Y025309D02*
X032287Y027132D01*
X032424Y027132D01*
X032836Y027132D01*
X033846Y027132D01*
X033846Y025309D01*
X032287Y025309D01*
X032424Y027132D02*
X032426Y027105D01*
X032431Y027079D01*
X032440Y027053D01*
X032452Y027029D01*
X032467Y027007D01*
X032484Y026986D01*
X032505Y026969D01*
X032527Y026954D01*
X032551Y026942D01*
X032577Y026933D01*
X032603Y026928D01*
X032630Y026926D01*
X032657Y026928D01*
X032683Y026933D01*
X032709Y026942D01*
X032733Y026954D01*
X032755Y026969D01*
X032776Y026986D01*
X032793Y027007D01*
X032808Y027029D01*
X032820Y027053D01*
X032829Y027079D01*
X032834Y027105D01*
X032836Y027132D01*
X017818Y042012D02*
X016818Y042012D01*
X016818Y045028D01*
X017818Y045028D01*
X017818Y042012D01*
X029298Y044177D02*
X029298Y047193D01*
X030298Y047193D01*
X030298Y044177D01*
X029298Y044177D01*
D27*
X031860Y026721D03*
X031860Y025721D03*
X034272Y025721D03*
X034272Y026721D03*
D28*
X014759Y016201D02*
X014582Y016201D01*
X014582Y016555D01*
X014759Y016555D01*
X014818Y016496D01*
X014818Y016437D01*
X014759Y016378D01*
X014582Y016378D01*
X014759Y016378D02*
X014818Y016319D01*
X014818Y016260D01*
X014759Y016201D01*
X014945Y016260D02*
X015004Y016201D01*
X015122Y016201D01*
X015181Y016260D01*
X015181Y016496D01*
X015122Y016555D01*
X015004Y016555D01*
X014945Y016496D01*
X014945Y016260D01*
X015307Y016201D02*
X015307Y016437D01*
X015425Y016555D01*
X015543Y016437D01*
X015543Y016201D01*
X015670Y016201D02*
X015670Y016555D01*
X015847Y016555D01*
X015906Y016496D01*
X015906Y016378D01*
X015847Y016319D01*
X015670Y016319D01*
X015788Y016319D02*
X015906Y016201D01*
X016032Y016201D02*
X016209Y016201D01*
X016268Y016260D01*
X016268Y016496D01*
X016209Y016555D01*
X016032Y016555D01*
X016032Y016201D01*
X015543Y016378D02*
X015307Y016378D01*
X016757Y016378D02*
X016875Y016378D01*
X016757Y016201D02*
X016993Y016201D01*
X017120Y016201D02*
X017297Y016201D01*
X017356Y016260D01*
X017356Y016496D01*
X017297Y016555D01*
X017120Y016555D01*
X017120Y016201D01*
X016757Y016201D02*
X016757Y016555D01*
X016993Y016555D01*
X017482Y016496D02*
X017482Y016260D01*
X017541Y016201D01*
X017659Y016201D01*
X017718Y016260D01*
X017718Y016378D01*
X017600Y016378D01*
X017482Y016496D02*
X017541Y016555D01*
X017659Y016555D01*
X017718Y016496D01*
X017845Y016555D02*
X017845Y016201D01*
X018081Y016201D01*
X017963Y016378D02*
X017845Y016378D01*
X017845Y016555D02*
X018081Y016555D01*
X014602Y023642D02*
X014129Y023642D01*
X014129Y024075D01*
X014602Y024075D01*
X014602Y023642D01*
X030487Y042914D02*
X030920Y042914D01*
X030920Y043386D01*
X030487Y043386D01*
X030487Y042914D01*
D29*
X033519Y043032D03*
X033991Y045236D03*
X029779Y035847D03*
D30*
X031332Y045394D03*
X031832Y045394D03*
X032332Y045394D03*
X032832Y045394D03*
X032832Y047402D03*
X032332Y047402D03*
X031832Y047402D03*
X031332Y047402D03*
D31*
X031176Y046122D03*
D32*
X030310Y022481D03*
X035035Y022481D03*
D33*
X014769Y023859D03*
X013962Y023859D03*
D34*
X030704Y042746D03*
X030704Y043553D03*
D35*
X029798Y047294D03*
X017318Y045128D03*
D36*
X012672Y040374D03*
M02*
