%
M48
M72
T01C0.0157
T02C0.0197
T03C0.0236
T04C0.0276
T05C0.0315
T06C0.0354
T07C0.0394
T08C0.0472
T09C0.0551
T10C0.0630
T11C0.0709
T12C0.1260
%
T01
X13972Y25419
X14562Y25419
X21058Y24435
X22239Y25025
X23420Y24041
X24602Y23726
X25586Y24435
X25586Y26206
X27161Y26010
X27751Y27388
X26964Y27781
X27357Y28372
X26570Y29356
X26649Y29750
X27357Y31325
X30113Y32506
X29917Y33687
X30310Y36049
X30310Y38017
X32869Y37821
X34050Y38017
X34956Y37466
X35822Y37821
X36413Y38017
X35822Y36049
X34641Y36049
X33460Y32506
X34444Y29553
X32672Y27978
X32279Y27584
X31885Y28372
X32279Y28569
X32357Y29041
X31885Y26206
X29523Y27781
X27948Y23844
X24247Y21206
X24011Y19474
X21452Y33096
X22042Y37821
X22042Y38214
X23420Y40183
X21452Y41954
X20586Y41915
X21649Y44710
X21452Y45891
X20980Y45813
X20350Y46403
X19680Y44868
X18696Y44907
X16334Y44317
X16019Y41639
X15350Y38647
X16531Y38214
X23420Y46285
X24208Y46246
X24917Y46285
X25586Y46482
X25980Y46246
X25783Y47269
X25586Y48254
X24405Y49120
X25783Y50813
X24602Y53175
X24602Y53569
X24208Y53765
X24602Y54159
X24208Y52978
X23184Y52702
X22830Y52978
X22909Y53490
X22830Y54159
X22042Y53884
X22633Y52191
X23617Y52073
X21964Y49828
X21924Y49435
X20940Y51206
X21452Y51994
X20113Y50419
X19562Y50419
X19562Y49986
X19680Y48450
X18184Y48450
X18105Y49907
X19602Y54199
X18539Y54947
X22633Y57033
X24602Y57033
X26767Y57033
X28932Y57033
X26334Y53569
X28814Y51994
X29129Y50813
X27830Y50458
X27830Y47663
X28145Y43136
X28145Y42742
X29129Y43136
X26964Y42545
X27554Y39395
X33460Y41561
X33657Y42348
X34405Y41561
X34641Y50419
X35231Y51994
X34050Y51994
X33460Y53175
X33066Y53765
X32476Y53175
X34168Y54159
X32672Y50616
X37397Y32112
X36609Y29356
X34641Y26797
X34444Y24238
T02
X21649Y43923
T03
X22594Y42151
X24011Y41010
X24168Y40340
X23420Y39592
X22042Y39592
X19680Y42545
X18854Y38411
X18854Y37821
X18854Y37230
X18184Y37191
X18184Y37821
X18184Y38411
X16294Y36718
X15625Y36718
X15940Y37348
X15743Y35065
X14956Y35065
X14168Y35065
X16531Y31325
X17318Y31325
X18105Y31325
X18893Y31325
X15743Y30340
X15153Y30340
X13381Y30340
X15546Y41167
X15940Y43136
X22436Y47269
X22436Y48474
X23420Y48450
X23420Y47269
X23814Y46482
X25389Y46954
X26373Y47663
X26373Y48450
X25192Y49632
X24405Y49632
X23617Y49632
X22830Y49632
X20546Y54041
X21649Y56325
X25743Y56325
X27948Y54356
X30507Y56718
X32003Y56010
X26452Y50813
X27279Y45813
X25428Y43647
X27554Y43332
X29208Y44513
X28932Y46206
X30507Y46679
X30507Y47663
X30743Y44828
X31885Y42939
X33066Y42939
X33066Y44907
X32476Y45301
X33854Y40065
X35428Y40458
X34917Y38175
X32082Y39080
X28342Y40380
X22582Y35305
X26964Y31915
X28539Y25025
X29287Y19947
X33735Y19947
X37279Y24986
X35035Y29356
X34641Y31915
X34641Y32899
X34838Y34277
X32672Y26797
X23027Y21285
X22042Y21285
X14956Y56128
X14956Y56876
X13696Y56915
X13696Y56128
T04
X20665Y28175
X21452Y28175
X21452Y27388
X20665Y27388
X22239Y27388
X22239Y28175
X23027Y28175
X23027Y27388
X23814Y27388
X23814Y28175
X24602Y28175
X24602Y27388
X25389Y27388
X25389Y28175
X26176Y28175
X26176Y27388
T05
X20468Y32399
X20468Y33399
X28617Y47632
X28617Y48632
X28617Y49632
X30192Y51297
X30192Y52297
X33417Y56159
X34417Y56159
X35417Y56159
X32661Y41954
X31661Y41954
X20684Y56925
X20074Y57693
X19464Y56925
X17928Y56925
X17318Y57693
X16708Y56925
X17318Y50844
X17318Y49844
X17318Y48844
T06
X22751Y56305
X24483Y56305
T07
X18696Y47171
X18696Y46187
X17712Y46187
X17712Y47171
X16728Y47171
X16728Y46187
X15448Y51994
X15448Y52978
X15448Y53962
X14464Y53962
X14464Y52978
X14464Y51994
X22731Y32702
X23716Y32702
T08
X25086Y37033
X26086Y37033
T09
X19956Y47506
X15783Y50734
T10
X15743Y21088
X15743Y22860
X15468Y45852
X14129Y55222
T11
X13991Y43647
X16747Y43647
X18224Y22958
X18224Y20202
X22672Y20202
X22672Y22958
X27121Y22958
X27121Y20202
X31570Y20202
X31570Y22958
X36019Y22958
X36019Y20202
T12
X36413Y27584
X36413Y53175
X17515Y53175
X14365Y27191
M30
