G75*
%MOIN*%
%OFA0B0*%
%FSLAX24Y24*%
%IPPOS*%
%LPD*%
%AMOC8*
5,1,8,0,0,1.08239X$1,22.5*
%
%ADD10C,0.0050*%
%ADD11C,0.0059*%
%ADD12C,0.0512*%
%ADD13C,0.0709*%
%ADD14C,0.0433*%
%ADD15C,0.0472*%
%ADD16C,0.0591*%
%ADD17C,0.0945*%
%ADD18C,0.0827*%
%ADD19C,0.0079*%
%ADD20C,0.0315*%
%ADD21C,0.0394*%
%ADD22C,0.0354*%
%ADD23C,0.0500*%
%ADD24C,0.0157*%
%ADD25C,0.1654*%
%ADD26C,0.0098*%
%ADD27C,0.0709*%
D10*
X028564Y017964D02*
X028864Y017964D01*
X029024Y018039D02*
X029099Y017964D01*
X029249Y017964D01*
X029324Y018039D01*
X029324Y018114D01*
X029249Y018189D01*
X029174Y018189D01*
X029249Y018189D02*
X029324Y018264D01*
X029324Y018339D01*
X029249Y018414D01*
X029099Y018414D01*
X029024Y018339D01*
X028564Y018414D02*
X028564Y017964D01*
X029484Y018189D02*
X029785Y018189D01*
X029945Y018114D02*
X030095Y017964D01*
X030245Y018114D01*
X030245Y018414D01*
X030405Y018414D02*
X030630Y018414D01*
X030705Y018339D01*
X030705Y018039D01*
X030630Y017964D01*
X030405Y017964D01*
X030405Y018414D01*
X029945Y018414D02*
X029945Y018114D01*
X030866Y017964D02*
X031091Y017964D01*
X031166Y018039D01*
X031166Y018339D01*
X031091Y018414D01*
X030866Y018414D01*
X030866Y017964D01*
X031326Y018189D02*
X031626Y018189D01*
X031786Y018189D02*
X032087Y018189D01*
X032087Y018264D02*
X032087Y017964D01*
X032247Y018114D02*
X032397Y017964D01*
X032547Y018114D01*
X032547Y018414D01*
X032707Y018414D02*
X032932Y018414D01*
X033007Y018339D01*
X033007Y018039D01*
X032932Y017964D01*
X032707Y017964D01*
X032707Y018414D01*
X032247Y018414D02*
X032247Y018114D01*
X032087Y018264D02*
X031936Y018414D01*
X031786Y018264D01*
X031786Y017964D01*
X033167Y017964D02*
X033393Y017964D01*
X033468Y018039D01*
X033468Y018339D01*
X033393Y018414D01*
X033167Y018414D01*
X033167Y017964D01*
D11*
X012594Y018726D02*
X012594Y058096D01*
X038184Y058096D01*
X038184Y018726D01*
X012594Y018726D01*
D12*
X020468Y032399D03*
X020468Y033399D03*
X028617Y047632D03*
X028617Y048632D03*
X028617Y049632D03*
X030192Y051297D03*
X030192Y052297D03*
X033417Y056159D03*
X034417Y056159D03*
X035417Y056159D03*
X032661Y041954D03*
X031661Y041954D03*
X020684Y056925D03*
X020074Y057693D03*
X019464Y056925D03*
X017928Y056925D03*
X017318Y057693D03*
X016708Y056925D03*
X017318Y050844D03*
X017318Y049844D03*
X017318Y048844D03*
D13*
X025086Y037033D03*
X026086Y037033D03*
D14*
X022582Y035305D03*
X030507Y046679D03*
X030507Y047663D03*
X026373Y047663D03*
X026373Y048450D03*
X025192Y049632D03*
X024405Y049632D03*
X023617Y049632D03*
X022830Y049632D03*
X022436Y048474D03*
X022436Y047269D03*
X023420Y047269D03*
X023420Y048450D03*
X014956Y056128D03*
X014956Y056876D03*
X013696Y056915D03*
X013696Y056128D03*
X037279Y024986D03*
D15*
X026176Y027388D03*
X026176Y028175D03*
X025389Y028175D03*
X025389Y027388D03*
X024602Y027388D03*
X024602Y028175D03*
X023814Y028175D03*
X023814Y027388D03*
X023027Y027388D03*
X023027Y028175D03*
X022239Y028175D03*
X022239Y027388D03*
X021452Y027388D03*
X021452Y028175D03*
X020665Y028175D03*
X020665Y027388D03*
D16*
X022731Y032702D03*
X023716Y032702D03*
X018696Y046187D03*
X018696Y047171D03*
X017712Y047171D03*
X017712Y046187D03*
X016728Y046187D03*
X016728Y047171D03*
X015448Y051994D03*
X015448Y052978D03*
X015448Y053962D03*
X014464Y053962D03*
X014464Y052978D03*
X014464Y051994D03*
D17*
X014129Y055222D03*
X015468Y045852D03*
D18*
X015783Y050734D03*
X019956Y047506D03*
D19*
X020346Y047923D02*
X026104Y047923D01*
X026056Y047875D02*
X026161Y047980D01*
X026299Y048037D01*
X026448Y048037D01*
X026585Y047980D01*
X026690Y047875D01*
X026747Y047737D01*
X026747Y047589D01*
X026690Y047451D01*
X026585Y047346D01*
X026448Y047289D01*
X026299Y047289D01*
X026161Y047346D01*
X026056Y047451D01*
X025999Y047589D01*
X025999Y047737D01*
X026056Y047875D01*
X026044Y047846D02*
X020423Y047846D01*
X020440Y047829D02*
X020279Y047990D01*
X020069Y048076D01*
X019842Y048076D01*
X019633Y047990D01*
X019472Y047829D01*
X019385Y047619D01*
X019385Y047392D01*
X019472Y047182D01*
X019633Y047022D01*
X019842Y046935D01*
X020069Y046935D01*
X020279Y047022D01*
X020440Y047182D01*
X020527Y047392D01*
X020527Y047619D01*
X020440Y047829D01*
X020465Y047768D02*
X026012Y047768D01*
X025999Y047691D02*
X020497Y047691D01*
X020527Y047614D02*
X022291Y047614D01*
X022224Y047586D02*
X022119Y047481D01*
X022062Y047344D01*
X022062Y047195D01*
X022119Y047058D01*
X022224Y046952D01*
X022362Y046895D01*
X022511Y046895D01*
X022648Y046952D01*
X022753Y047058D01*
X022810Y047195D01*
X022810Y047344D01*
X022753Y047481D01*
X022648Y047586D01*
X022511Y047643D01*
X022362Y047643D01*
X022224Y047586D01*
X022175Y047537D02*
X020527Y047537D01*
X020527Y047460D02*
X022110Y047460D01*
X022078Y047382D02*
X020523Y047382D01*
X020491Y047305D02*
X022062Y047305D01*
X022062Y047228D02*
X020459Y047228D01*
X020408Y047151D02*
X022081Y047151D01*
X022113Y047073D02*
X020331Y047073D01*
X020217Y046996D02*
X022181Y046996D01*
X022305Y046919D02*
X019082Y046919D01*
X019080Y046915D02*
X019149Y047081D01*
X019149Y047261D01*
X019080Y047427D01*
X018953Y047555D01*
X018786Y047624D01*
X018606Y047624D01*
X018440Y047555D01*
X018312Y047427D01*
X018243Y047261D01*
X018243Y047081D01*
X018312Y046915D01*
X018440Y046787D01*
X018606Y046718D01*
X018786Y046718D01*
X018953Y046787D01*
X019080Y046915D01*
X019114Y046996D02*
X019694Y046996D01*
X019581Y047073D02*
X019146Y047073D01*
X019149Y047151D02*
X019504Y047151D01*
X019453Y047228D02*
X019149Y047228D01*
X019131Y047305D02*
X019421Y047305D01*
X019389Y047382D02*
X019099Y047382D01*
X019048Y047460D02*
X019385Y047460D01*
X019385Y047537D02*
X018971Y047537D01*
X018810Y047614D02*
X019385Y047614D01*
X019415Y047691D02*
X013893Y047691D01*
X013893Y047614D02*
X016614Y047614D01*
X016637Y047624D02*
X016471Y047555D01*
X016344Y047427D01*
X016275Y047261D01*
X016275Y047081D01*
X016344Y046915D01*
X016471Y046787D01*
X016637Y046718D01*
X016818Y046718D01*
X016984Y046787D01*
X017111Y046915D01*
X017180Y047081D01*
X017180Y047261D01*
X017111Y047427D01*
X016984Y047555D01*
X016818Y047624D01*
X016637Y047624D01*
X016453Y047537D02*
X013893Y047537D01*
X013893Y047460D02*
X016376Y047460D01*
X016325Y047382D02*
X013893Y047382D01*
X013893Y047305D02*
X016293Y047305D01*
X016275Y047228D02*
X013893Y047228D01*
X013893Y047151D02*
X016275Y047151D01*
X016278Y047073D02*
X013893Y047073D01*
X013893Y046996D02*
X016310Y046996D01*
X016342Y046919D02*
X013893Y046919D01*
X013893Y046842D02*
X016417Y046842D01*
X016526Y046764D02*
X013893Y046764D01*
X013893Y046687D02*
X020212Y046687D01*
X020171Y046670D02*
X020083Y046582D01*
X020035Y046466D01*
X020035Y046341D01*
X020083Y046225D01*
X020171Y046136D01*
X020287Y046088D01*
X020412Y046088D01*
X020528Y046136D01*
X020617Y046225D01*
X020665Y046341D01*
X020665Y046466D01*
X020617Y046582D01*
X020528Y046670D01*
X020412Y046718D01*
X020287Y046718D01*
X020171Y046670D01*
X020111Y046610D02*
X018858Y046610D01*
X018786Y046639D02*
X018606Y046639D01*
X018440Y046571D01*
X018312Y046443D01*
X018243Y046277D01*
X018243Y046097D01*
X018312Y045930D01*
X018440Y045803D01*
X018606Y045734D01*
X018786Y045734D01*
X018953Y045803D01*
X019080Y045930D01*
X019149Y046097D01*
X019149Y046277D01*
X019080Y046443D01*
X018953Y046571D01*
X018786Y046639D01*
X018897Y046764D02*
X023634Y046764D01*
X023656Y046779D02*
X023601Y046742D01*
X023554Y046695D01*
X023518Y046641D01*
X023498Y046594D01*
X023483Y046600D01*
X023358Y046600D01*
X023242Y046552D01*
X023153Y046464D01*
X023105Y046348D01*
X023105Y046222D01*
X023153Y046107D01*
X023242Y046018D01*
X023358Y045970D01*
X023483Y045970D01*
X023599Y046018D01*
X023687Y046107D01*
X023711Y046163D01*
X023717Y046160D01*
X023781Y046147D01*
X023794Y046147D01*
X023794Y046462D01*
X023834Y046462D01*
X023834Y046147D01*
X023847Y046147D01*
X023903Y046158D01*
X023941Y046067D01*
X024029Y045979D01*
X024145Y045931D01*
X024270Y045931D01*
X024386Y045979D01*
X024475Y046067D01*
X024523Y046183D01*
X024523Y046308D01*
X024475Y046424D01*
X024386Y046513D01*
X024270Y046561D01*
X024145Y046561D01*
X024140Y046559D01*
X024136Y046580D01*
X024111Y046641D01*
X024074Y046695D01*
X024027Y046742D01*
X023973Y046779D01*
X023912Y046804D01*
X023847Y046817D01*
X023834Y046817D01*
X023834Y046502D01*
X023794Y046502D01*
X023794Y046817D01*
X023781Y046817D01*
X023717Y046804D01*
X023656Y046779D01*
X023794Y046764D02*
X023834Y046764D01*
X023834Y046687D02*
X023794Y046687D01*
X023794Y046610D02*
X023834Y046610D01*
X023834Y046533D02*
X023794Y046533D01*
X023794Y046455D02*
X023834Y046455D01*
X023834Y046378D02*
X023794Y046378D01*
X023794Y046301D02*
X023834Y046301D01*
X023834Y046224D02*
X023794Y046224D01*
X023704Y046146D02*
X023908Y046146D01*
X023940Y046069D02*
X023650Y046069D01*
X023536Y045992D02*
X024016Y045992D01*
X024399Y045992D02*
X024801Y045992D01*
X024854Y045970D02*
X024979Y045970D01*
X025035Y045993D01*
X025035Y045301D01*
X024562Y045301D01*
X024562Y043057D01*
X016291Y043057D01*
X016294Y043065D02*
X016241Y042935D01*
X016141Y042835D01*
X016011Y042781D01*
X015870Y042781D01*
X015739Y042835D01*
X015640Y042935D01*
X015586Y043065D01*
X015586Y043206D01*
X015640Y043336D01*
X015739Y043436D01*
X015870Y043490D01*
X016011Y043490D01*
X016141Y043436D01*
X016241Y043336D01*
X016294Y043206D01*
X016294Y043065D01*
X016294Y043134D02*
X016495Y043134D01*
X016424Y043163D02*
X016634Y043076D01*
X016861Y043076D01*
X017071Y043163D01*
X017231Y043324D01*
X017318Y043534D01*
X017318Y043761D01*
X017231Y043971D01*
X017071Y044131D01*
X016861Y044218D01*
X016634Y044218D01*
X016649Y044254D01*
X016649Y044379D01*
X016601Y044495D01*
X016512Y044584D01*
X016396Y044632D01*
X016271Y044632D01*
X016155Y044584D01*
X016067Y044495D01*
X016019Y044379D01*
X016019Y044254D01*
X016067Y044138D01*
X015468Y044138D01*
X015468Y044061D02*
X016144Y044061D01*
X016155Y044050D02*
X016271Y044002D01*
X016294Y044002D01*
X016263Y043971D01*
X016176Y043761D01*
X016176Y043534D01*
X016263Y043324D01*
X016424Y043163D01*
X016376Y043211D02*
X016292Y043211D01*
X016299Y043289D02*
X016260Y043289D01*
X016246Y043366D02*
X016211Y043366D01*
X016214Y043443D02*
X016124Y043443D01*
X016182Y043520D02*
X015468Y043520D01*
X015468Y043443D02*
X015757Y043443D01*
X015669Y043366D02*
X015468Y043366D01*
X015468Y043289D02*
X015620Y043289D01*
X015588Y043211D02*
X015468Y043211D01*
X015468Y043134D02*
X015586Y043134D01*
X015589Y043057D02*
X015468Y043057D01*
X015468Y042980D02*
X015621Y042980D01*
X015672Y042902D02*
X015468Y042902D01*
X015468Y042825D02*
X015764Y042825D01*
X015468Y042748D02*
X019413Y042748D01*
X019420Y042758D02*
X019384Y042704D01*
X019359Y042643D01*
X019346Y042578D01*
X019346Y042565D01*
X019661Y042565D01*
X019661Y042880D01*
X019647Y042880D01*
X019583Y042867D01*
X019522Y042842D01*
X019467Y042805D01*
X019420Y042758D01*
X019370Y042671D02*
X015468Y042671D01*
X015468Y042640D02*
X015468Y044655D01*
X015390Y044843D01*
X015246Y044987D01*
X015058Y045065D01*
X014854Y045065D01*
X013893Y045065D01*
X018421Y045065D01*
X018429Y045086D02*
X018381Y044970D01*
X018381Y044845D01*
X018429Y044729D01*
X018518Y044640D01*
X018633Y044592D01*
X018759Y044592D01*
X018874Y044640D01*
X018963Y044729D01*
X019011Y044845D01*
X019011Y044970D01*
X018963Y045086D01*
X018874Y045174D01*
X018759Y045222D01*
X018633Y045222D01*
X018518Y045174D01*
X018429Y045086D01*
X018486Y045142D02*
X013893Y045142D01*
X013893Y045065D02*
X013893Y051482D01*
X014566Y051482D01*
X014754Y051560D01*
X014898Y051704D01*
X014976Y051892D01*
X014976Y052096D01*
X014898Y052284D01*
X014754Y052428D01*
X014566Y052506D01*
X013279Y052506D01*
X013091Y052428D01*
X012987Y052324D01*
X012987Y053586D01*
X013064Y053555D01*
X014264Y053555D01*
X014374Y053510D01*
X014554Y053510D01*
X014720Y053578D01*
X014848Y053706D01*
X014917Y053872D01*
X014917Y054052D01*
X014848Y054219D01*
X014720Y054346D01*
X014554Y054415D01*
X014374Y054415D01*
X014264Y054370D01*
X013552Y054370D01*
X013552Y054969D01*
X013595Y054865D01*
X013772Y054688D01*
X014004Y054592D01*
X014254Y054592D01*
X014486Y054688D01*
X014663Y054865D01*
X014759Y055097D01*
X014759Y055347D01*
X014663Y055579D01*
X014486Y055756D01*
X014254Y055852D01*
X014004Y055852D01*
X013911Y055814D01*
X014013Y055916D01*
X014070Y056053D01*
X014070Y056202D01*
X014013Y056340D01*
X013908Y056445D01*
X013770Y056502D01*
X013622Y056502D01*
X013552Y056473D01*
X013552Y056591D01*
X013593Y056574D01*
X013661Y056561D01*
X013676Y056561D01*
X013676Y056895D01*
X013716Y056895D01*
X013716Y056935D01*
X014050Y056935D01*
X014050Y056950D01*
X014037Y057018D01*
X014010Y057083D01*
X014000Y057098D01*
X014649Y057098D01*
X014639Y057088D01*
X014582Y056950D01*
X014582Y056801D01*
X014639Y056664D01*
X014744Y056559D01*
X014881Y056502D01*
X014744Y056445D01*
X014639Y056340D01*
X014582Y056202D01*
X014582Y056053D01*
X014639Y055916D01*
X014744Y055811D01*
X014881Y055754D01*
X015030Y055754D01*
X015168Y055811D01*
X015273Y055916D01*
X015330Y056053D01*
X015330Y056202D01*
X015273Y056340D01*
X015168Y056445D01*
X015030Y056502D01*
X015168Y056559D01*
X015273Y056664D01*
X015330Y056801D01*
X015330Y056950D01*
X015273Y057088D01*
X015262Y057098D01*
X015336Y057098D01*
X015336Y056047D01*
X015398Y055897D01*
X015512Y055782D01*
X015662Y055720D01*
X020693Y055720D01*
X021221Y055192D01*
X021371Y055130D01*
X025864Y055130D01*
X026013Y055192D01*
X026936Y056114D01*
X030391Y056114D01*
X030541Y056176D01*
X030704Y056339D01*
X030704Y048293D01*
X028863Y048293D01*
X028968Y048397D01*
X029031Y048549D01*
X029031Y048714D01*
X028968Y048866D01*
X028851Y048982D01*
X028700Y049045D01*
X028535Y049045D01*
X028383Y048982D01*
X028267Y048866D01*
X028204Y048714D01*
X028204Y048549D01*
X028267Y048397D01*
X028383Y048281D01*
X028535Y048218D01*
X028696Y048218D01*
X028696Y048045D01*
X028535Y048045D01*
X028383Y047982D01*
X028267Y047866D01*
X028204Y047714D01*
X028204Y047549D01*
X028267Y047397D01*
X028383Y047281D01*
X028535Y047218D01*
X028696Y047218D01*
X028696Y047191D01*
X026373Y047191D01*
X026373Y046561D01*
X028696Y046561D01*
X028696Y046443D01*
X028672Y046420D01*
X028636Y046365D01*
X028610Y046304D01*
X028598Y046239D01*
X028598Y046226D01*
X028696Y046226D01*
X028696Y046187D01*
X028598Y046187D01*
X028598Y046173D01*
X028610Y046109D01*
X028636Y046048D01*
X028672Y045993D01*
X028696Y045969D01*
X028696Y045262D01*
X026413Y045262D01*
X026413Y046167D01*
X026288Y046167D01*
X026294Y046183D01*
X026294Y046308D01*
X026255Y046403D01*
X026255Y046836D01*
X025702Y046836D01*
X025711Y046857D01*
X025724Y046921D01*
X025724Y046935D01*
X025409Y046935D01*
X025409Y046974D01*
X025672Y046974D01*
X025720Y046954D01*
X025845Y046954D01*
X025961Y047002D01*
X026050Y047091D01*
X026098Y047207D01*
X026098Y047332D01*
X026050Y047448D01*
X025961Y047536D01*
X025845Y047584D01*
X025720Y047584D01*
X025604Y047536D01*
X025516Y047448D01*
X025468Y047332D01*
X025468Y047280D01*
X025422Y047289D01*
X025409Y047289D01*
X025409Y046974D01*
X025369Y046974D01*
X025369Y046935D01*
X025054Y046935D01*
X025054Y046921D01*
X025067Y046857D01*
X025076Y046836D01*
X025035Y046836D01*
X025035Y046577D01*
X024979Y046600D01*
X024854Y046600D01*
X024738Y046552D01*
X024650Y046464D01*
X024602Y046348D01*
X024602Y046222D01*
X024650Y046107D01*
X024738Y046018D01*
X024854Y045970D01*
X025032Y045992D02*
X025035Y045992D01*
X025035Y045915D02*
X021767Y045915D01*
X021767Y045954D02*
X021719Y046070D01*
X021630Y046158D01*
X021515Y046206D01*
X021389Y046206D01*
X021274Y046158D01*
X021185Y046070D01*
X021172Y046038D01*
X021168Y046042D01*
X021119Y046074D01*
X021066Y046097D01*
X021009Y046108D01*
X020980Y046108D01*
X020980Y045813D01*
X020979Y045813D01*
X020979Y045813D01*
X020684Y045813D01*
X020684Y045842D01*
X020696Y045899D01*
X020718Y045953D01*
X020750Y046001D01*
X020791Y046042D01*
X020840Y046074D01*
X020893Y046097D01*
X020950Y046108D01*
X020979Y046108D01*
X020979Y045813D01*
X020684Y045813D01*
X020684Y045784D01*
X020696Y045727D01*
X020718Y045673D01*
X020750Y045624D01*
X020791Y045583D01*
X020840Y045551D01*
X020893Y045529D01*
X020950Y045517D01*
X020979Y045517D01*
X020979Y045813D01*
X020980Y045813D01*
X020980Y045517D01*
X021009Y045517D01*
X021066Y045529D01*
X021119Y045551D01*
X021168Y045583D01*
X021209Y045624D01*
X021235Y045663D01*
X021274Y045624D01*
X021389Y045576D01*
X021515Y045576D01*
X021630Y045624D01*
X021719Y045713D01*
X021767Y045829D01*
X021767Y045954D01*
X021751Y045992D02*
X023305Y045992D01*
X023191Y046069D02*
X021719Y046069D01*
X021642Y046146D02*
X023137Y046146D01*
X023105Y046224D02*
X020615Y046224D01*
X020648Y046301D02*
X023105Y046301D01*
X023118Y046378D02*
X020665Y046378D01*
X020665Y046455D02*
X023150Y046455D01*
X023223Y046533D02*
X020637Y046533D01*
X020588Y046610D02*
X023505Y046610D01*
X023549Y046687D02*
X020487Y046687D01*
X020062Y046533D02*
X018990Y046533D01*
X019068Y046455D02*
X020035Y046455D01*
X020035Y046378D02*
X019107Y046378D01*
X019139Y046301D02*
X020051Y046301D01*
X020084Y046224D02*
X019149Y046224D01*
X019149Y046146D02*
X020161Y046146D01*
X020538Y046146D02*
X021262Y046146D01*
X021185Y046069D02*
X021127Y046069D01*
X020980Y046069D02*
X020979Y046069D01*
X020979Y045992D02*
X020980Y045992D01*
X020979Y045915D02*
X020980Y045915D01*
X020979Y045837D02*
X020980Y045837D01*
X020979Y045760D02*
X020980Y045760D01*
X020979Y045683D02*
X020980Y045683D01*
X020979Y045606D02*
X020980Y045606D01*
X020979Y045529D02*
X020980Y045529D01*
X021064Y045529D02*
X025035Y045529D01*
X025035Y045606D02*
X021585Y045606D01*
X021689Y045683D02*
X025035Y045683D01*
X025035Y045760D02*
X021739Y045760D01*
X021767Y045837D02*
X025035Y045837D01*
X025231Y045837D02*
X026176Y045837D01*
X026176Y045760D02*
X025231Y045760D01*
X025231Y045683D02*
X026176Y045683D01*
X026176Y045606D02*
X025231Y045606D01*
X025231Y045529D02*
X026176Y045529D01*
X026176Y045451D02*
X025231Y045451D01*
X025231Y045374D02*
X026176Y045374D01*
X026176Y045297D02*
X025231Y045297D01*
X025231Y045220D02*
X026176Y045220D01*
X026176Y045142D02*
X025231Y045142D01*
X025231Y045104D02*
X025231Y046636D01*
X025297Y046609D01*
X025271Y046545D01*
X025271Y046419D01*
X025319Y046304D01*
X025407Y046215D01*
X025523Y046167D01*
X025648Y046167D01*
X025668Y046175D01*
X025712Y046067D01*
X025801Y045979D01*
X025917Y045931D01*
X026042Y045931D01*
X026137Y045970D01*
X026176Y045970D01*
X026176Y045065D01*
X024798Y045065D01*
X024798Y045104D02*
X025231Y045104D01*
X025035Y045374D02*
X015880Y045374D01*
X015825Y045318D02*
X016002Y045495D01*
X016098Y045727D01*
X016098Y045977D01*
X016002Y046209D01*
X015825Y046386D01*
X015593Y046482D01*
X015342Y046482D01*
X015111Y046386D01*
X014934Y046209D01*
X014838Y045977D01*
X014838Y045727D01*
X014934Y045495D01*
X015111Y045318D01*
X015342Y045222D01*
X015593Y045222D01*
X015825Y045318D01*
X015773Y045297D02*
X024562Y045297D01*
X024562Y045220D02*
X018765Y045220D01*
X018627Y045220D02*
X013893Y045220D01*
X013893Y045297D02*
X015162Y045297D01*
X015055Y045374D02*
X013893Y045374D01*
X013893Y045451D02*
X014978Y045451D01*
X014920Y045529D02*
X013893Y045529D01*
X013893Y045606D02*
X014888Y045606D01*
X014856Y045683D02*
X013893Y045683D01*
X013893Y045760D02*
X014838Y045760D01*
X014838Y045837D02*
X013893Y045837D01*
X013893Y045915D02*
X014838Y045915D01*
X014844Y045992D02*
X013893Y045992D01*
X013893Y046069D02*
X014876Y046069D01*
X014908Y046146D02*
X013893Y046146D01*
X013893Y046224D02*
X014948Y046224D01*
X015026Y046301D02*
X013893Y046301D01*
X013893Y046378D02*
X015103Y046378D01*
X015278Y046455D02*
X013893Y046455D01*
X013893Y046533D02*
X016433Y046533D01*
X016471Y046571D02*
X016344Y046443D01*
X016275Y046277D01*
X016275Y046097D01*
X016344Y045930D01*
X016471Y045803D01*
X016637Y045734D01*
X016818Y045734D01*
X016984Y045803D01*
X017111Y045930D01*
X017180Y046097D01*
X017180Y046277D01*
X017111Y046443D01*
X016984Y046571D01*
X016818Y046639D01*
X016637Y046639D01*
X016471Y046571D01*
X016566Y046610D02*
X013893Y046610D01*
X013893Y047768D02*
X019447Y047768D01*
X019489Y047846D02*
X013893Y047846D01*
X013893Y047923D02*
X019566Y047923D01*
X019658Y048000D02*
X013893Y048000D01*
X013893Y048077D02*
X023344Y048077D01*
X023346Y048076D02*
X023495Y048076D01*
X023632Y048133D01*
X023738Y048239D01*
X023794Y048376D01*
X023794Y048525D01*
X023738Y048662D01*
X023632Y048768D01*
X023495Y048825D01*
X023346Y048825D01*
X023209Y048768D01*
X023103Y048662D01*
X023046Y048525D01*
X023046Y048376D01*
X023103Y048239D01*
X023209Y048133D01*
X023346Y048076D01*
X023497Y048077D02*
X025318Y048077D01*
X025319Y048075D02*
X025407Y047987D01*
X025523Y047939D01*
X025648Y047939D01*
X025764Y047987D01*
X025853Y048075D01*
X025901Y048191D01*
X025901Y048316D01*
X025853Y048432D01*
X025764Y048521D01*
X025648Y048569D01*
X025523Y048569D01*
X025407Y048521D01*
X025319Y048432D01*
X025271Y048316D01*
X025271Y048191D01*
X025319Y048075D01*
X025286Y048155D02*
X023654Y048155D01*
X023731Y048232D02*
X025271Y048232D01*
X025271Y048309D02*
X023767Y048309D01*
X023794Y048386D02*
X025300Y048386D01*
X025350Y048464D02*
X023794Y048464D01*
X023788Y048541D02*
X025456Y048541D01*
X025715Y048541D02*
X026006Y048541D01*
X025999Y048525D02*
X025999Y048376D01*
X026056Y048239D01*
X026161Y048133D01*
X026299Y048076D01*
X026448Y048076D01*
X026585Y048133D01*
X026690Y048239D01*
X026747Y048376D01*
X026747Y048525D01*
X026690Y048662D01*
X026585Y048768D01*
X026448Y048825D01*
X026299Y048825D01*
X026161Y048768D01*
X026056Y048662D01*
X025999Y048525D01*
X025999Y048464D02*
X025821Y048464D01*
X025872Y048386D02*
X025999Y048386D01*
X026027Y048309D02*
X025901Y048309D01*
X025901Y048232D02*
X026063Y048232D01*
X026140Y048155D02*
X025886Y048155D01*
X025854Y048077D02*
X026296Y048077D01*
X026210Y048000D02*
X025778Y048000D01*
X025394Y048000D02*
X020254Y048000D01*
X019947Y048272D02*
X019995Y048388D01*
X019995Y048513D01*
X019947Y048629D01*
X019859Y048718D01*
X019743Y048765D01*
X019618Y048765D01*
X019502Y048718D01*
X019413Y048629D01*
X019365Y048513D01*
X019365Y048388D01*
X019413Y048272D01*
X019502Y048183D01*
X019618Y048136D01*
X019743Y048136D01*
X019859Y048183D01*
X019947Y048272D01*
X019963Y048309D02*
X022100Y048309D01*
X022119Y048262D02*
X022224Y048157D01*
X022362Y048100D01*
X022511Y048100D01*
X022648Y048157D01*
X022753Y048262D01*
X022810Y048400D01*
X022810Y048549D01*
X022753Y048686D01*
X022648Y048791D01*
X022511Y048848D01*
X022362Y048848D01*
X022224Y048791D01*
X022119Y048686D01*
X022062Y048549D01*
X022062Y048400D01*
X022119Y048262D01*
X022149Y048232D02*
X019907Y048232D01*
X019789Y048155D02*
X022230Y048155D01*
X022068Y048386D02*
X019995Y048386D01*
X019995Y048464D02*
X022062Y048464D01*
X022062Y048541D02*
X019984Y048541D01*
X019952Y048618D02*
X022091Y048618D01*
X022129Y048695D02*
X019881Y048695D01*
X019480Y048695D02*
X018349Y048695D01*
X018372Y048680D02*
X018324Y048712D01*
X018270Y048734D01*
X018213Y048746D01*
X018184Y048746D01*
X018155Y048746D01*
X018098Y048734D01*
X018044Y048712D01*
X017996Y048680D01*
X017955Y048639D01*
X017923Y048590D01*
X017900Y048537D01*
X017889Y048480D01*
X017889Y048451D01*
X018184Y048451D01*
X018184Y048746D01*
X018184Y048451D01*
X018184Y048451D01*
X018184Y048450D01*
X018184Y048450D01*
X018184Y048155D01*
X018155Y048155D01*
X018098Y048167D01*
X018044Y048189D01*
X017996Y048221D01*
X017955Y048262D01*
X017923Y048311D01*
X017900Y048364D01*
X017889Y048421D01*
X017889Y048450D01*
X018184Y048450D01*
X018184Y048155D01*
X018213Y048155D01*
X018270Y048167D01*
X018324Y048189D01*
X018372Y048221D01*
X018414Y048262D01*
X018446Y048311D01*
X018468Y048364D01*
X018480Y048421D01*
X018480Y048450D01*
X018184Y048450D01*
X018184Y048451D01*
X018480Y048451D01*
X018480Y048480D01*
X018468Y048537D01*
X018446Y048590D01*
X018414Y048639D01*
X018372Y048680D01*
X018427Y048618D02*
X019409Y048618D01*
X019377Y048541D02*
X018466Y048541D01*
X018480Y048464D02*
X019365Y048464D01*
X019366Y048386D02*
X018473Y048386D01*
X018445Y048309D02*
X019398Y048309D01*
X019453Y048232D02*
X018383Y048232D01*
X018184Y048232D02*
X018184Y048232D01*
X018184Y048309D02*
X018184Y048309D01*
X018184Y048386D02*
X018184Y048386D01*
X018184Y048464D02*
X018184Y048464D01*
X018184Y048541D02*
X018184Y048541D01*
X018184Y048618D02*
X018184Y048618D01*
X018184Y048695D02*
X018184Y048695D01*
X018019Y048695D02*
X017704Y048695D01*
X017731Y048762D02*
X017669Y048610D01*
X017552Y048494D01*
X017400Y048431D01*
X017236Y048431D01*
X017084Y048494D01*
X016968Y048610D01*
X016905Y048762D01*
X016905Y048926D01*
X016968Y049078D01*
X017084Y049195D01*
X017236Y049258D01*
X017400Y049258D01*
X017552Y049195D01*
X017669Y049078D01*
X017731Y048926D01*
X017731Y048762D01*
X017731Y048773D02*
X022206Y048773D01*
X022081Y049159D02*
X024090Y049159D01*
X024090Y049182D02*
X024090Y049057D01*
X024138Y048941D01*
X024226Y048853D01*
X024342Y048805D01*
X024467Y048805D01*
X024583Y048853D01*
X024672Y048941D01*
X024720Y049057D01*
X024720Y049182D01*
X024672Y049298D01*
X024636Y049334D01*
X024722Y049420D01*
X024779Y049557D01*
X024779Y049706D01*
X024722Y049843D01*
X024617Y049949D01*
X024479Y050006D01*
X024330Y050006D01*
X024193Y049949D01*
X024088Y049843D01*
X024031Y049706D01*
X024031Y049557D01*
X024088Y049420D01*
X024173Y049334D01*
X024138Y049298D01*
X024090Y049182D01*
X024112Y049236D02*
X022171Y049236D01*
X022191Y049256D02*
X022239Y049372D01*
X022239Y049497D01*
X022192Y049611D01*
X022231Y049650D01*
X022279Y049766D01*
X022279Y049891D01*
X022231Y050007D01*
X022142Y050095D01*
X022026Y050143D01*
X021901Y050143D01*
X021785Y050095D01*
X021697Y050007D01*
X021649Y049891D01*
X021649Y049766D01*
X021696Y049652D01*
X021657Y049613D01*
X021609Y049497D01*
X021609Y049372D01*
X021657Y049256D01*
X021746Y049168D01*
X021862Y049120D01*
X021987Y049120D01*
X022103Y049168D01*
X022191Y049256D01*
X022215Y049313D02*
X022621Y049313D01*
X022618Y049315D02*
X022755Y049258D01*
X022904Y049258D01*
X023042Y049315D01*
X023147Y049420D01*
X023204Y049557D01*
X023204Y049706D01*
X023147Y049843D01*
X023042Y049949D01*
X022904Y050006D01*
X022755Y050006D01*
X022618Y049949D01*
X022513Y049843D01*
X022456Y049706D01*
X022456Y049557D01*
X022513Y049420D01*
X022618Y049315D01*
X022542Y049391D02*
X022239Y049391D01*
X022239Y049468D02*
X022493Y049468D01*
X022461Y049545D02*
X022220Y049545D01*
X022203Y049622D02*
X022456Y049622D01*
X022456Y049699D02*
X022251Y049699D01*
X022279Y049777D02*
X022485Y049777D01*
X022523Y049854D02*
X022279Y049854D01*
X022262Y049931D02*
X022601Y049931D01*
X022229Y050008D02*
X028447Y050008D01*
X028383Y049982D02*
X028267Y049866D01*
X028204Y049714D01*
X028204Y049549D01*
X028267Y049397D01*
X028383Y049281D01*
X028535Y049218D01*
X028700Y049218D01*
X028851Y049281D01*
X028968Y049397D01*
X029031Y049549D01*
X029031Y049714D01*
X028968Y049866D01*
X028851Y049982D01*
X028700Y050045D01*
X028535Y050045D01*
X028383Y049982D01*
X028332Y049931D02*
X025421Y049931D01*
X025404Y049949D02*
X025266Y050006D01*
X025118Y050006D01*
X024980Y049949D01*
X024875Y049843D01*
X024818Y049706D01*
X024818Y049557D01*
X024875Y049420D01*
X024980Y049315D01*
X025118Y049258D01*
X025266Y049258D01*
X025404Y049315D01*
X025509Y049420D01*
X025566Y049557D01*
X025566Y049706D01*
X025509Y049843D01*
X025404Y049949D01*
X025499Y049854D02*
X028262Y049854D01*
X028230Y049777D02*
X025537Y049777D01*
X025566Y049699D02*
X028204Y049699D01*
X028204Y049622D02*
X025566Y049622D01*
X025561Y049545D02*
X028206Y049545D01*
X028238Y049468D02*
X025529Y049468D01*
X025480Y049391D02*
X028274Y049391D01*
X028351Y049313D02*
X025401Y049313D01*
X024983Y049313D02*
X024657Y049313D01*
X024693Y049391D02*
X024904Y049391D01*
X024855Y049468D02*
X024742Y049468D01*
X024774Y049545D02*
X024823Y049545D01*
X024818Y049622D02*
X024779Y049622D01*
X024779Y049699D02*
X024818Y049699D01*
X024847Y049777D02*
X024749Y049777D01*
X024711Y049854D02*
X024886Y049854D01*
X024963Y049931D02*
X024634Y049931D01*
X024175Y049931D02*
X023847Y049931D01*
X023829Y049949D02*
X023692Y050006D01*
X023543Y050006D01*
X023405Y049949D01*
X023300Y049843D01*
X023243Y049706D01*
X023243Y049557D01*
X023300Y049420D01*
X023405Y049315D01*
X023543Y049258D01*
X023692Y049258D01*
X023829Y049315D01*
X023934Y049420D01*
X023991Y049557D01*
X023991Y049706D01*
X023934Y049843D01*
X023829Y049949D01*
X023924Y049854D02*
X024098Y049854D01*
X024060Y049777D02*
X023962Y049777D01*
X023991Y049699D02*
X024031Y049699D01*
X024031Y049622D02*
X023991Y049622D01*
X023986Y049545D02*
X024036Y049545D01*
X024068Y049468D02*
X023954Y049468D01*
X023905Y049391D02*
X024117Y049391D01*
X024153Y049313D02*
X023826Y049313D01*
X024090Y049082D02*
X017665Y049082D01*
X017699Y049004D02*
X024112Y049004D01*
X024152Y048927D02*
X017731Y048927D01*
X017731Y048850D02*
X024233Y048850D01*
X024576Y048850D02*
X028260Y048850D01*
X028228Y048773D02*
X026573Y048773D01*
X026657Y048695D02*
X028204Y048695D01*
X028204Y048618D02*
X026709Y048618D01*
X026741Y048541D02*
X028207Y048541D01*
X028239Y048464D02*
X026747Y048464D01*
X026747Y048386D02*
X028278Y048386D01*
X028355Y048309D02*
X026719Y048309D01*
X026684Y048232D02*
X028502Y048232D01*
X028696Y048155D02*
X026606Y048155D01*
X026537Y048000D02*
X028427Y048000D01*
X028324Y047923D02*
X028015Y047923D01*
X028008Y047930D02*
X027893Y047978D01*
X027767Y047978D01*
X027651Y047930D01*
X027563Y047842D01*
X027515Y047726D01*
X027515Y047600D01*
X027563Y047485D01*
X027651Y047396D01*
X027767Y047348D01*
X027893Y047348D01*
X028008Y047396D01*
X028097Y047485D01*
X028145Y047600D01*
X028145Y047726D01*
X028097Y047842D01*
X028008Y047930D01*
X028093Y047846D02*
X028259Y047846D01*
X028227Y047768D02*
X028127Y047768D01*
X028145Y047691D02*
X028204Y047691D01*
X028204Y047614D02*
X028145Y047614D01*
X028118Y047537D02*
X028209Y047537D01*
X028241Y047460D02*
X028072Y047460D01*
X027975Y047382D02*
X028282Y047382D01*
X028359Y047305D02*
X026486Y047305D01*
X026621Y047382D02*
X027685Y047382D01*
X027588Y047460D02*
X026694Y047460D01*
X026726Y047537D02*
X027541Y047537D01*
X027515Y047614D02*
X026747Y047614D01*
X026747Y047691D02*
X027515Y047691D01*
X027533Y047768D02*
X026734Y047768D01*
X026702Y047846D02*
X027567Y047846D01*
X027644Y047923D02*
X026642Y047923D01*
X026450Y048077D02*
X028696Y048077D01*
X028932Y048057D02*
X028932Y047901D01*
X028968Y047866D01*
X029031Y047714D01*
X029031Y047549D01*
X028968Y047397D01*
X028932Y047362D01*
X028932Y046994D01*
X026609Y046994D01*
X026609Y046758D01*
X028893Y046758D01*
X028893Y046561D01*
X029003Y046561D01*
X029133Y046507D01*
X029233Y046407D01*
X029287Y046277D01*
X029287Y046136D01*
X029233Y046006D01*
X029133Y045906D01*
X029003Y045852D01*
X028893Y045852D01*
X028893Y045065D01*
X030479Y045065D01*
X030443Y045029D02*
X030543Y045129D01*
X030673Y045183D01*
X030814Y045183D01*
X030944Y045129D01*
X031044Y045029D01*
X031098Y044899D01*
X031098Y044758D01*
X031044Y044628D01*
X030944Y044528D01*
X030814Y044474D01*
X030673Y044474D01*
X030543Y044528D01*
X030443Y044628D01*
X030389Y044758D01*
X030389Y044899D01*
X030443Y045029D01*
X030426Y044988D02*
X024798Y044988D01*
X024798Y044911D02*
X030394Y044911D01*
X030389Y044833D02*
X029362Y044833D01*
X029409Y044814D02*
X029278Y044868D01*
X029137Y044868D01*
X029007Y044814D01*
X028907Y044714D01*
X028854Y044584D01*
X028854Y044443D01*
X028907Y044313D01*
X029007Y044213D01*
X029137Y044159D01*
X029278Y044159D01*
X029409Y044213D01*
X029508Y044313D01*
X029562Y044443D01*
X029562Y044584D01*
X029508Y044714D01*
X029409Y044814D01*
X029466Y044756D02*
X030390Y044756D01*
X030422Y044679D02*
X029523Y044679D01*
X029555Y044602D02*
X030469Y044602D01*
X030551Y044524D02*
X029562Y044524D01*
X029562Y044447D02*
X037791Y044447D01*
X037791Y044370D02*
X029532Y044370D01*
X029488Y044293D02*
X037791Y044293D01*
X037791Y044215D02*
X029411Y044215D01*
X029005Y044215D02*
X024798Y044215D01*
X024798Y044138D02*
X037791Y044138D01*
X037791Y044061D02*
X024798Y044061D01*
X024798Y043984D02*
X025314Y043984D01*
X025358Y044002D02*
X025228Y043948D01*
X025128Y043848D01*
X025074Y043718D01*
X025074Y043577D01*
X025128Y043447D01*
X025228Y043347D01*
X025358Y043293D01*
X025499Y043293D01*
X025629Y043347D01*
X025729Y043447D01*
X025783Y043577D01*
X025783Y043718D01*
X025729Y043848D01*
X025629Y043948D01*
X025499Y044002D01*
X025358Y044002D01*
X025542Y043984D02*
X037791Y043984D01*
X037791Y043906D02*
X025670Y043906D01*
X025737Y043829D02*
X037791Y043829D01*
X037791Y043752D02*
X025769Y043752D01*
X025783Y043675D02*
X027455Y043675D01*
X027484Y043687D02*
X027354Y043633D01*
X027254Y043533D01*
X027200Y043403D01*
X027200Y043262D01*
X027254Y043132D01*
X027354Y043032D01*
X027484Y042978D01*
X027625Y042978D01*
X027755Y043032D01*
X027830Y043107D01*
X027830Y043073D01*
X027878Y042957D01*
X027896Y042939D01*
X027878Y042920D01*
X027830Y042804D01*
X027830Y042679D01*
X027878Y042563D01*
X027966Y042475D01*
X028082Y042427D01*
X028208Y042427D01*
X028323Y042475D01*
X028412Y042563D01*
X028460Y042679D01*
X028460Y042804D01*
X028412Y042920D01*
X028393Y042939D01*
X028412Y042957D01*
X028460Y043073D01*
X028460Y043198D01*
X028412Y043314D01*
X028323Y043403D01*
X028208Y043450D01*
X028082Y043450D01*
X027966Y043403D01*
X027909Y043345D01*
X027909Y043403D01*
X027855Y043533D01*
X027755Y043633D01*
X027625Y043687D01*
X027484Y043687D01*
X027654Y043675D02*
X037791Y043675D01*
X037791Y043598D02*
X027790Y043598D01*
X027860Y043520D02*
X037791Y043520D01*
X037791Y043443D02*
X029210Y043443D01*
X029192Y043450D02*
X029066Y043450D01*
X028951Y043403D01*
X028862Y043314D01*
X028814Y043198D01*
X028814Y043073D01*
X028862Y042957D01*
X028951Y042869D01*
X029066Y042821D01*
X029192Y042821D01*
X029308Y042869D01*
X029396Y042957D01*
X029444Y043073D01*
X029444Y043198D01*
X029396Y043314D01*
X029308Y043403D01*
X029192Y043450D01*
X029048Y043443D02*
X028226Y043443D01*
X028360Y043366D02*
X028914Y043366D01*
X028852Y043289D02*
X028422Y043289D01*
X028454Y043211D02*
X028820Y043211D01*
X028814Y043134D02*
X028460Y043134D01*
X028453Y043057D02*
X028821Y043057D01*
X028853Y042980D02*
X028421Y042980D01*
X028419Y042902D02*
X028917Y042902D01*
X029056Y042825D02*
X028451Y042825D01*
X028460Y042748D02*
X031610Y042748D01*
X031625Y042725D02*
X031672Y042679D01*
X031726Y042642D01*
X031787Y042617D01*
X031852Y042604D01*
X031865Y042604D01*
X031865Y042919D01*
X031550Y042919D01*
X031550Y042906D01*
X031563Y042841D01*
X031588Y042780D01*
X031625Y042725D01*
X031684Y042671D02*
X028456Y042671D01*
X028424Y042593D02*
X033456Y042593D01*
X033478Y042615D02*
X033390Y042527D01*
X033342Y042411D01*
X033342Y042285D01*
X033390Y042170D01*
X033478Y042081D01*
X033594Y042033D01*
X033719Y042033D01*
X033835Y042081D01*
X033924Y042170D01*
X033972Y042285D01*
X033972Y042411D01*
X033924Y042527D01*
X033835Y042615D01*
X033719Y042663D01*
X033594Y042663D01*
X033478Y042615D01*
X033385Y042516D02*
X028365Y042516D01*
X028237Y042439D02*
X033353Y042439D01*
X033342Y042362D02*
X031758Y042362D01*
X031743Y042368D02*
X031578Y042368D01*
X031426Y042305D01*
X031310Y042189D01*
X031247Y042037D01*
X031247Y041872D01*
X031310Y041720D01*
X031426Y041604D01*
X031578Y041541D01*
X031743Y041541D01*
X031895Y041604D01*
X032011Y041720D01*
X032074Y041872D01*
X032074Y042037D01*
X032011Y042189D01*
X031895Y042305D01*
X031743Y042368D01*
X031563Y042362D02*
X027226Y042362D01*
X027231Y042367D02*
X027279Y042482D01*
X027279Y042608D01*
X027231Y042723D01*
X027142Y042812D01*
X027026Y042860D01*
X026901Y042860D01*
X026785Y042812D01*
X026697Y042723D01*
X026649Y042608D01*
X026649Y042482D01*
X026697Y042367D01*
X026785Y042278D01*
X026901Y042230D01*
X027026Y042230D01*
X027142Y042278D01*
X027231Y042367D01*
X027261Y042439D02*
X028053Y042439D01*
X027925Y042516D02*
X027279Y042516D01*
X027279Y042593D02*
X027865Y042593D01*
X027833Y042671D02*
X027253Y042671D01*
X027206Y042748D02*
X027830Y042748D01*
X027838Y042825D02*
X027111Y042825D01*
X026817Y042825D02*
X025783Y042825D01*
X025783Y042748D02*
X026721Y042748D01*
X026675Y042671D02*
X025783Y042671D01*
X025783Y042593D02*
X026649Y042593D01*
X026649Y042516D02*
X025783Y042516D01*
X025783Y042439D02*
X026667Y042439D01*
X026702Y042362D02*
X025717Y042362D01*
X025783Y042427D02*
X025783Y043254D01*
X024798Y043254D01*
X024798Y045104D01*
X024562Y045142D02*
X019841Y045142D01*
X019859Y045135D02*
X019743Y045183D01*
X019618Y045183D01*
X019502Y045135D01*
X019413Y045046D01*
X019365Y044930D01*
X019365Y044805D01*
X019413Y044689D01*
X019502Y044601D01*
X019618Y044553D01*
X019743Y044553D01*
X019859Y044601D01*
X019947Y044689D01*
X019995Y044805D01*
X019995Y044930D01*
X019947Y045046D01*
X019859Y045135D01*
X019928Y045065D02*
X024562Y045065D01*
X024562Y044988D02*
X021750Y044988D01*
X021735Y044994D02*
X021678Y045006D01*
X021649Y045006D01*
X021649Y044710D01*
X021649Y044415D01*
X021678Y044415D01*
X021735Y044426D01*
X021789Y044449D01*
X021837Y044481D01*
X021878Y044522D01*
X021910Y044570D01*
X021933Y044624D01*
X021944Y044681D01*
X021944Y044710D01*
X021649Y044710D01*
X021649Y044710D01*
X021649Y044710D01*
X021649Y044415D01*
X021620Y044415D01*
X021563Y044426D01*
X021509Y044449D01*
X021461Y044481D01*
X021419Y044522D01*
X021387Y044570D01*
X021365Y044624D01*
X021354Y044681D01*
X021354Y044710D01*
X021649Y044710D01*
X021944Y044710D01*
X021944Y044739D01*
X021933Y044796D01*
X021910Y044850D01*
X021878Y044899D01*
X021837Y044940D01*
X021789Y044972D01*
X021735Y044994D01*
X021649Y044988D02*
X021649Y044988D01*
X021649Y045006D02*
X021620Y045006D01*
X021563Y044994D01*
X021509Y044972D01*
X021461Y044940D01*
X021419Y044899D01*
X021387Y044850D01*
X021365Y044796D01*
X021354Y044739D01*
X021354Y044710D01*
X021649Y044710D01*
X021649Y044710D01*
X021649Y044710D01*
X021649Y045006D01*
X021649Y044911D02*
X021649Y044911D01*
X021649Y044833D02*
X021649Y044833D01*
X021649Y044756D02*
X021649Y044756D01*
X021649Y044679D02*
X021649Y044679D01*
X021649Y044602D02*
X021649Y044602D01*
X021649Y044524D02*
X021649Y044524D01*
X021649Y044447D02*
X021649Y044447D01*
X021785Y044447D02*
X024562Y044447D01*
X024562Y044370D02*
X016649Y044370D01*
X016649Y044293D02*
X024562Y044293D01*
X024562Y044215D02*
X021817Y044215D01*
X021838Y044207D02*
X021715Y044258D01*
X021582Y044258D01*
X021459Y044207D01*
X021365Y044113D01*
X021314Y043990D01*
X021314Y043856D01*
X021365Y043733D01*
X021459Y043639D01*
X021582Y043588D01*
X021715Y043588D01*
X021838Y043639D01*
X021932Y043733D01*
X021983Y043856D01*
X021983Y043990D01*
X021932Y044113D01*
X021838Y044207D01*
X021907Y044138D02*
X024562Y044138D01*
X024562Y044061D02*
X021954Y044061D01*
X021983Y043984D02*
X024562Y043984D01*
X024562Y043906D02*
X021983Y043906D01*
X021972Y043829D02*
X024562Y043829D01*
X024562Y043752D02*
X021940Y043752D01*
X021874Y043675D02*
X024562Y043675D01*
X024562Y043598D02*
X021738Y043598D01*
X021560Y043598D02*
X017318Y043598D01*
X017318Y043675D02*
X021424Y043675D01*
X021357Y043752D02*
X017318Y043752D01*
X017290Y043829D02*
X021325Y043829D01*
X021314Y043906D02*
X017258Y043906D01*
X017218Y043984D02*
X021314Y043984D01*
X021344Y044061D02*
X017141Y044061D01*
X017054Y044138D02*
X021391Y044138D01*
X021480Y044215D02*
X016868Y044215D01*
X016621Y044447D02*
X021513Y044447D01*
X021418Y044524D02*
X016572Y044524D01*
X016469Y044602D02*
X018611Y044602D01*
X018479Y044679D02*
X015458Y044679D01*
X015468Y044602D02*
X016199Y044602D01*
X016096Y044524D02*
X015468Y044524D01*
X015468Y044447D02*
X016047Y044447D01*
X016019Y044370D02*
X015468Y044370D01*
X015468Y044293D02*
X016019Y044293D01*
X016035Y044215D02*
X015468Y044215D01*
X015468Y043984D02*
X016276Y043984D01*
X016237Y043906D02*
X015468Y043906D01*
X015468Y043829D02*
X016205Y043829D01*
X016176Y043752D02*
X015468Y043752D01*
X015468Y043675D02*
X016176Y043675D01*
X016176Y043598D02*
X015468Y043598D01*
X016067Y044138D02*
X016155Y044050D01*
X016259Y042980D02*
X025586Y042980D01*
X025586Y043057D02*
X025586Y042545D01*
X024562Y041521D01*
X024562Y039986D01*
X027357Y039986D01*
X027357Y039644D01*
X027287Y039574D01*
X027239Y039458D01*
X027239Y039333D01*
X027287Y039217D01*
X027357Y039147D01*
X027357Y031639D01*
X027295Y031639D01*
X027179Y031592D01*
X027090Y031503D01*
X027042Y031387D01*
X027042Y031262D01*
X027090Y031146D01*
X027179Y031058D01*
X027295Y031010D01*
X027357Y031010D01*
X027357Y029356D01*
X026885Y029356D01*
X026885Y029419D01*
X026849Y029505D01*
X026916Y029571D01*
X026964Y029687D01*
X026964Y029812D01*
X026916Y029928D01*
X026827Y030017D01*
X026711Y030065D01*
X026586Y030065D01*
X026470Y030017D01*
X026382Y029928D01*
X026334Y029812D01*
X026334Y029687D01*
X026370Y029601D01*
X026303Y029534D01*
X026255Y029419D01*
X026255Y029356D01*
X012987Y029356D01*
X012987Y030010D01*
X013091Y029906D01*
X013279Y029828D01*
X013483Y029828D01*
X013671Y029906D01*
X013815Y030050D01*
X013893Y030238D01*
X013893Y034839D01*
X013968Y034764D01*
X014098Y034710D01*
X014239Y034710D01*
X014369Y034764D01*
X014469Y034864D01*
X014523Y034994D01*
X014523Y035135D01*
X014469Y035265D01*
X014369Y035365D01*
X014239Y035419D01*
X014098Y035419D01*
X013968Y035365D01*
X013893Y035290D01*
X013893Y042230D01*
X015058Y042230D01*
X015246Y042308D01*
X015390Y042452D01*
X015468Y042640D01*
X015448Y042593D02*
X019349Y042593D01*
X019346Y042525D02*
X019346Y042512D01*
X019359Y042447D01*
X019384Y042386D01*
X019420Y042332D01*
X019467Y042285D01*
X019522Y042248D01*
X019583Y042223D01*
X019647Y042210D01*
X019661Y042210D01*
X019661Y042525D01*
X019700Y042525D01*
X019700Y042210D01*
X019713Y042210D01*
X019778Y042223D01*
X019839Y042248D01*
X019894Y042285D01*
X019940Y042332D01*
X019977Y042386D01*
X020002Y042447D01*
X020015Y042512D01*
X020015Y042525D01*
X019700Y042525D01*
X019700Y042565D01*
X019661Y042565D01*
X019661Y042525D01*
X019346Y042525D01*
X019346Y042516D02*
X015416Y042516D01*
X015377Y042439D02*
X019362Y042439D01*
X019400Y042362D02*
X015300Y042362D01*
X015189Y042284D02*
X019468Y042284D01*
X019661Y042284D02*
X019700Y042284D01*
X019700Y042362D02*
X019661Y042362D01*
X019661Y042439D02*
X019700Y042439D01*
X019700Y042516D02*
X019661Y042516D01*
X019700Y042565D02*
X020015Y042565D01*
X020015Y042578D01*
X020002Y042643D01*
X019977Y042704D01*
X019940Y042758D01*
X019894Y042805D01*
X019839Y042842D01*
X019778Y042867D01*
X019713Y042880D01*
X019700Y042880D01*
X019700Y042565D01*
X019700Y042593D02*
X019661Y042593D01*
X019661Y042671D02*
X019700Y042671D01*
X019700Y042748D02*
X019661Y042748D01*
X019661Y042825D02*
X019700Y042825D01*
X019863Y042825D02*
X025586Y042825D01*
X025586Y042748D02*
X019947Y042748D01*
X019990Y042671D02*
X025586Y042671D01*
X025586Y042593D02*
X020012Y042593D01*
X020015Y042516D02*
X025557Y042516D01*
X025480Y042439D02*
X022807Y042439D01*
X022794Y042452D02*
X022664Y042506D01*
X022523Y042506D01*
X022393Y042452D01*
X022293Y042352D01*
X022239Y042222D01*
X022239Y042081D01*
X022293Y041951D01*
X022393Y041851D01*
X022523Y041797D01*
X022664Y041797D01*
X022794Y041851D01*
X022894Y041951D01*
X022948Y042081D01*
X022948Y042222D01*
X022894Y042352D01*
X022794Y042452D01*
X022884Y042362D02*
X025402Y042362D01*
X025325Y042284D02*
X022922Y042284D01*
X022948Y042207D02*
X025248Y042207D01*
X025171Y042130D02*
X022948Y042130D01*
X022936Y042053D02*
X025094Y042053D01*
X025016Y041975D02*
X022904Y041975D01*
X022842Y041898D02*
X024939Y041898D01*
X024862Y041821D02*
X022722Y041821D01*
X022465Y041821D02*
X021738Y041821D01*
X021719Y041776D02*
X021767Y041892D01*
X021767Y042017D01*
X021719Y042133D01*
X021630Y042221D01*
X021515Y042269D01*
X021389Y042269D01*
X021274Y042221D01*
X021185Y042133D01*
X021137Y042017D01*
X021137Y041892D01*
X021185Y041776D01*
X021274Y041687D01*
X021389Y041639D01*
X021515Y041639D01*
X021630Y041687D01*
X021719Y041776D01*
X021687Y041744D02*
X024785Y041744D01*
X024707Y041666D02*
X021580Y041666D01*
X021324Y041666D02*
X020783Y041666D01*
X020764Y041648D02*
X020853Y041737D01*
X020901Y041852D01*
X020901Y041978D01*
X020853Y042093D01*
X020764Y042182D01*
X020648Y042230D01*
X020523Y042230D01*
X020407Y042182D01*
X020319Y042093D01*
X020271Y041978D01*
X020271Y041852D01*
X020319Y041737D01*
X020407Y041648D01*
X020523Y041600D01*
X020648Y041600D01*
X020764Y041648D01*
X020856Y041744D02*
X021217Y041744D01*
X021166Y041821D02*
X020888Y041821D01*
X020901Y041898D02*
X021137Y041898D01*
X021137Y041975D02*
X020901Y041975D01*
X020870Y042053D02*
X021152Y042053D01*
X021184Y042130D02*
X020816Y042130D01*
X020704Y042207D02*
X021259Y042207D01*
X021645Y042207D02*
X022239Y042207D01*
X022239Y042130D02*
X021720Y042130D01*
X021752Y042053D02*
X022251Y042053D01*
X022283Y041975D02*
X021767Y041975D01*
X021767Y041898D02*
X022346Y041898D01*
X022265Y042284D02*
X019893Y042284D01*
X019960Y042362D02*
X022303Y042362D01*
X022380Y042439D02*
X019999Y042439D01*
X020355Y042130D02*
X013893Y042130D01*
X013893Y042207D02*
X020468Y042207D01*
X020302Y042053D02*
X013893Y042053D01*
X013893Y041975D02*
X020271Y041975D01*
X020271Y041898D02*
X016206Y041898D01*
X016197Y041906D02*
X016082Y041954D01*
X015956Y041954D01*
X015840Y041906D01*
X015752Y041818D01*
X015704Y041702D01*
X015704Y041577D01*
X015751Y041464D01*
X015747Y041467D01*
X015617Y041521D01*
X015476Y041521D01*
X015346Y041467D01*
X015246Y041368D01*
X015192Y041238D01*
X015192Y041097D01*
X015246Y040966D01*
X015346Y040867D01*
X015476Y040813D01*
X015617Y040813D01*
X015747Y040867D01*
X015847Y040966D01*
X015901Y041097D01*
X015901Y041238D01*
X015847Y041368D01*
X015843Y041371D01*
X015956Y041325D01*
X016082Y041325D01*
X016197Y041372D01*
X016286Y041461D01*
X016334Y041577D01*
X016334Y041702D01*
X016286Y041818D01*
X016197Y041906D01*
X016283Y041821D02*
X020284Y041821D01*
X020316Y041744D02*
X016317Y041744D01*
X016334Y041666D02*
X020389Y041666D01*
X019497Y042825D02*
X016117Y042825D01*
X016208Y042902D02*
X025586Y042902D01*
X025586Y043057D02*
X024562Y043057D01*
X024562Y043134D02*
X017000Y043134D01*
X017118Y043211D02*
X024562Y043211D01*
X024562Y043289D02*
X017196Y043289D01*
X017248Y043366D02*
X024562Y043366D01*
X024562Y043443D02*
X017280Y043443D01*
X017312Y043520D02*
X024562Y043520D01*
X024798Y043520D02*
X025097Y043520D01*
X025074Y043598D02*
X024798Y043598D01*
X024798Y043675D02*
X025074Y043675D01*
X025088Y043752D02*
X024798Y043752D01*
X024798Y043829D02*
X025120Y043829D01*
X025186Y043906D02*
X024798Y043906D01*
X024798Y044293D02*
X028928Y044293D01*
X028884Y044370D02*
X024798Y044370D01*
X024798Y044447D02*
X028854Y044447D01*
X028854Y044524D02*
X024798Y044524D01*
X024798Y044602D02*
X028861Y044602D01*
X028893Y044679D02*
X024798Y044679D01*
X024798Y044756D02*
X028949Y044756D01*
X029054Y044833D02*
X024798Y044833D01*
X024562Y044833D02*
X021917Y044833D01*
X021941Y044756D02*
X024562Y044756D01*
X024562Y044679D02*
X021944Y044679D01*
X021923Y044602D02*
X024562Y044602D01*
X024562Y044524D02*
X021880Y044524D01*
X021866Y044911D02*
X024562Y044911D01*
X025035Y045451D02*
X015958Y045451D01*
X016015Y045529D02*
X020895Y045529D01*
X020769Y045606D02*
X016047Y045606D01*
X016079Y045683D02*
X020714Y045683D01*
X020689Y045760D02*
X018850Y045760D01*
X018987Y045837D02*
X020684Y045837D01*
X020702Y045915D02*
X019064Y045915D01*
X019105Y045992D02*
X020744Y045992D01*
X020832Y046069D02*
X019137Y046069D01*
X018543Y045760D02*
X017787Y045760D01*
X017813Y045764D02*
X017878Y045785D01*
X017939Y045816D01*
X017994Y045856D01*
X018042Y045905D01*
X018082Y045960D01*
X018113Y046020D01*
X018134Y046085D01*
X018144Y046147D01*
X017751Y046147D01*
X017751Y045754D01*
X017813Y045764D01*
X017751Y045760D02*
X017672Y045760D01*
X017672Y045754D02*
X017672Y046147D01*
X017280Y046147D01*
X017289Y046085D01*
X017310Y046020D01*
X017341Y045960D01*
X017381Y045905D01*
X017430Y045856D01*
X017485Y045816D01*
X017546Y045785D01*
X017610Y045764D01*
X017672Y045754D01*
X017636Y045760D02*
X016881Y045760D01*
X017019Y045837D02*
X017456Y045837D01*
X017374Y045915D02*
X017096Y045915D01*
X017137Y045992D02*
X017325Y045992D01*
X017295Y046069D02*
X017169Y046069D01*
X017180Y046146D02*
X017280Y046146D01*
X017280Y046226D02*
X017672Y046226D01*
X017672Y046147D01*
X017751Y046147D01*
X017751Y046226D01*
X017672Y046226D01*
X017672Y046619D01*
X017610Y046609D01*
X017546Y046588D01*
X017485Y046557D01*
X017430Y046517D01*
X017381Y046469D01*
X017341Y046414D01*
X017310Y046353D01*
X017289Y046288D01*
X017280Y046226D01*
X017294Y046301D02*
X017170Y046301D01*
X017180Y046224D02*
X017672Y046224D01*
X017672Y046301D02*
X017751Y046301D01*
X017751Y046226D02*
X017751Y046619D01*
X017813Y046609D01*
X017878Y046588D01*
X017939Y046557D01*
X017994Y046517D01*
X018042Y046469D01*
X018082Y046414D01*
X018113Y046353D01*
X018134Y046288D01*
X018144Y046226D01*
X017751Y046226D01*
X017751Y046224D02*
X018243Y046224D01*
X018243Y046146D02*
X018144Y046146D01*
X018129Y046069D02*
X018255Y046069D01*
X018287Y045992D02*
X018099Y045992D01*
X018049Y045915D02*
X018328Y045915D01*
X018405Y045837D02*
X017968Y045837D01*
X017751Y045837D02*
X017672Y045837D01*
X017672Y045915D02*
X017751Y045915D01*
X017751Y045992D02*
X017672Y045992D01*
X017672Y046069D02*
X017751Y046069D01*
X017751Y046146D02*
X017672Y046146D01*
X017672Y046378D02*
X017751Y046378D01*
X017751Y046455D02*
X017672Y046455D01*
X017672Y046533D02*
X017751Y046533D01*
X017751Y046610D02*
X017672Y046610D01*
X017615Y046610D02*
X016889Y046610D01*
X017022Y046533D02*
X017451Y046533D01*
X017372Y046455D02*
X017099Y046455D01*
X017138Y046378D02*
X017323Y046378D01*
X017546Y046770D02*
X017485Y046801D01*
X017430Y046841D01*
X017381Y046889D01*
X017341Y046944D01*
X017310Y047005D01*
X017289Y047070D01*
X017280Y047132D01*
X017672Y047132D01*
X017672Y047210D01*
X017280Y047210D01*
X017289Y047272D01*
X017310Y047337D01*
X017341Y047398D01*
X017381Y047453D01*
X017430Y047501D01*
X017485Y047541D01*
X017546Y047572D01*
X017610Y047593D01*
X017672Y047603D01*
X017672Y047210D01*
X017751Y047210D01*
X018144Y047210D01*
X018134Y047272D01*
X018113Y047337D01*
X018082Y047398D01*
X018042Y047453D01*
X017994Y047501D01*
X017939Y047541D01*
X017878Y047572D01*
X017813Y047593D01*
X017751Y047603D01*
X017751Y047210D01*
X017751Y047132D01*
X018144Y047132D01*
X018134Y047070D01*
X018113Y047005D01*
X018082Y046944D01*
X018042Y046889D01*
X017994Y046841D01*
X017939Y046801D01*
X017878Y046770D01*
X017813Y046749D01*
X017751Y046739D01*
X017751Y047132D01*
X017672Y047132D01*
X017672Y046739D01*
X017610Y046749D01*
X017546Y046770D01*
X017562Y046764D02*
X016929Y046764D01*
X017038Y046842D02*
X017429Y046842D01*
X017360Y046919D02*
X017113Y046919D01*
X017145Y046996D02*
X017315Y046996D01*
X017289Y047073D02*
X017177Y047073D01*
X017180Y047151D02*
X017672Y047151D01*
X017672Y047228D02*
X017751Y047228D01*
X017751Y047305D02*
X017672Y047305D01*
X017672Y047382D02*
X017751Y047382D01*
X017751Y047460D02*
X017672Y047460D01*
X017672Y047537D02*
X017751Y047537D01*
X017945Y047537D02*
X018422Y047537D01*
X018344Y047460D02*
X018036Y047460D01*
X018090Y047382D02*
X018294Y047382D01*
X018262Y047305D02*
X018124Y047305D01*
X018141Y047228D02*
X018243Y047228D01*
X018243Y047151D02*
X017751Y047151D01*
X017751Y047073D02*
X017672Y047073D01*
X017672Y046996D02*
X017751Y046996D01*
X017751Y046919D02*
X017672Y046919D01*
X017672Y046842D02*
X017751Y046842D01*
X017751Y046764D02*
X017672Y046764D01*
X017862Y046764D02*
X018495Y046764D01*
X018385Y046842D02*
X017995Y046842D01*
X018064Y046919D02*
X018310Y046919D01*
X018278Y046996D02*
X018109Y046996D01*
X018135Y047073D02*
X018246Y047073D01*
X018535Y046610D02*
X017808Y046610D01*
X017972Y046533D02*
X018402Y046533D01*
X018324Y046455D02*
X018052Y046455D01*
X018100Y046378D02*
X018285Y046378D01*
X018253Y046301D02*
X018130Y046301D01*
X019007Y046842D02*
X025073Y046842D01*
X025055Y046919D02*
X023551Y046919D01*
X023495Y046895D02*
X023632Y046952D01*
X023738Y047058D01*
X023794Y047195D01*
X023794Y047344D01*
X023738Y047481D01*
X023632Y047586D01*
X023495Y047643D01*
X023346Y047643D01*
X023209Y047586D01*
X023103Y047481D01*
X023046Y047344D01*
X023046Y047195D01*
X023103Y047058D01*
X023209Y046952D01*
X023346Y046895D01*
X023495Y046895D01*
X023289Y046919D02*
X022567Y046919D01*
X022692Y046996D02*
X023165Y046996D01*
X023097Y047073D02*
X022760Y047073D01*
X022792Y047151D02*
X023065Y047151D01*
X023046Y047228D02*
X022810Y047228D01*
X022810Y047305D02*
X023046Y047305D01*
X023062Y047382D02*
X022794Y047382D01*
X022762Y047460D02*
X023094Y047460D01*
X023159Y047537D02*
X022698Y047537D01*
X022582Y047614D02*
X023275Y047614D01*
X023566Y047614D02*
X025999Y047614D01*
X026021Y047537D02*
X025960Y047537D01*
X026038Y047460D02*
X026053Y047460D01*
X026077Y047382D02*
X026125Y047382D01*
X026098Y047305D02*
X026260Y047305D01*
X026098Y047228D02*
X028512Y047228D01*
X028932Y047228D02*
X037791Y047228D01*
X037791Y047305D02*
X030620Y047305D01*
X030581Y047289D02*
X030719Y047346D01*
X030824Y047451D01*
X030881Y047589D01*
X030881Y047737D01*
X030824Y047875D01*
X030719Y047980D01*
X030581Y048037D01*
X030433Y048037D01*
X030295Y047980D01*
X030190Y047875D01*
X030133Y047737D01*
X030133Y047589D01*
X030190Y047451D01*
X030295Y047346D01*
X030433Y047289D01*
X030581Y047289D01*
X030394Y047305D02*
X028932Y047305D01*
X028953Y047382D02*
X030259Y047382D01*
X030187Y047460D02*
X028993Y047460D01*
X029025Y047537D02*
X030155Y047537D01*
X030133Y047614D02*
X029031Y047614D01*
X029031Y047691D02*
X030133Y047691D01*
X030146Y047768D02*
X029008Y047768D01*
X028976Y047846D02*
X030178Y047846D01*
X030238Y047923D02*
X028932Y047923D01*
X028932Y048000D02*
X030344Y048000D01*
X030671Y048000D02*
X037791Y048000D01*
X037791Y047923D02*
X030776Y047923D01*
X030836Y047846D02*
X037791Y047846D01*
X037791Y047768D02*
X030868Y047768D01*
X030881Y047691D02*
X037791Y047691D01*
X037791Y047614D02*
X030881Y047614D01*
X030860Y047537D02*
X037791Y047537D01*
X037791Y047460D02*
X030828Y047460D01*
X030755Y047382D02*
X037791Y047382D01*
X037791Y047151D02*
X028932Y047151D01*
X028932Y047073D02*
X037791Y047073D01*
X037791Y046996D02*
X030719Y046996D01*
X030581Y047053D01*
X030433Y047053D01*
X030295Y046996D01*
X030190Y046891D01*
X030133Y046753D01*
X030133Y046604D01*
X030190Y046467D01*
X030295Y046362D01*
X030433Y046305D01*
X030581Y046305D01*
X030719Y046362D01*
X030824Y046467D01*
X030881Y046604D01*
X030881Y046753D01*
X030824Y046891D01*
X030719Y046996D01*
X030796Y046919D02*
X037791Y046919D01*
X037791Y046842D02*
X030844Y046842D01*
X030876Y046764D02*
X037791Y046764D01*
X037791Y046687D02*
X030881Y046687D01*
X030881Y046610D02*
X037791Y046610D01*
X037791Y046533D02*
X030851Y046533D01*
X030813Y046455D02*
X037791Y046455D01*
X037791Y046378D02*
X030735Y046378D01*
X030279Y046378D02*
X029245Y046378D01*
X029277Y046301D02*
X037791Y046301D01*
X037791Y046224D02*
X029287Y046224D01*
X029287Y046146D02*
X037791Y046146D01*
X037791Y046069D02*
X029259Y046069D01*
X029219Y045992D02*
X037791Y045992D01*
X037791Y045915D02*
X029142Y045915D01*
X028893Y045837D02*
X037791Y045837D01*
X037791Y045760D02*
X028893Y045760D01*
X028893Y045683D02*
X037791Y045683D01*
X037791Y045606D02*
X032665Y045606D01*
X032676Y045601D02*
X032546Y045655D01*
X032405Y045655D01*
X032275Y045601D01*
X032175Y045502D01*
X032121Y045371D01*
X032121Y045230D01*
X032175Y045100D01*
X032275Y045001D01*
X032405Y044947D01*
X032546Y044947D01*
X032676Y045001D01*
X032753Y045077D01*
X032712Y044978D01*
X032712Y044837D01*
X032766Y044706D01*
X032865Y044607D01*
X032996Y044553D01*
X033137Y044553D01*
X033267Y044607D01*
X033367Y044706D01*
X033420Y044837D01*
X033420Y044978D01*
X033367Y045108D01*
X033267Y045208D01*
X033137Y045262D01*
X032996Y045262D01*
X032865Y045208D01*
X032789Y045131D01*
X032830Y045230D01*
X032830Y045371D01*
X032776Y045502D01*
X032676Y045601D01*
X032749Y045529D02*
X037791Y045529D01*
X037791Y045451D02*
X032797Y045451D01*
X032829Y045374D02*
X037791Y045374D01*
X037791Y045297D02*
X032830Y045297D01*
X032825Y045220D02*
X032894Y045220D01*
X032800Y045142D02*
X032793Y045142D01*
X032748Y045065D02*
X032741Y045065D01*
X032716Y044988D02*
X032646Y044988D01*
X032712Y044911D02*
X031093Y044911D01*
X031098Y044833D02*
X032713Y044833D01*
X032745Y044756D02*
X031097Y044756D01*
X031065Y044679D02*
X032793Y044679D01*
X032878Y044602D02*
X031018Y044602D01*
X030935Y044524D02*
X037791Y044524D01*
X037791Y044602D02*
X033254Y044602D01*
X033339Y044679D02*
X037791Y044679D01*
X037791Y044756D02*
X033387Y044756D01*
X033419Y044833D02*
X037791Y044833D01*
X037791Y044911D02*
X033420Y044911D01*
X033416Y044988D02*
X037791Y044988D01*
X037791Y045065D02*
X033384Y045065D01*
X033332Y045142D02*
X037791Y045142D01*
X037791Y045220D02*
X033238Y045220D01*
X032305Y044988D02*
X031061Y044988D01*
X031008Y045065D02*
X032210Y045065D01*
X032158Y045142D02*
X030911Y045142D01*
X030575Y045142D02*
X028893Y045142D01*
X028893Y045065D02*
X026176Y045065D01*
X026413Y045297D02*
X028696Y045297D01*
X028696Y045374D02*
X026413Y045374D01*
X026413Y045451D02*
X028696Y045451D01*
X028696Y045529D02*
X027496Y045529D01*
X027479Y045512D02*
X027579Y045612D01*
X027633Y045742D01*
X027633Y045883D01*
X027579Y046013D01*
X027479Y046113D01*
X027349Y046167D01*
X027208Y046167D01*
X027078Y046113D01*
X026978Y046013D01*
X026924Y045883D01*
X026924Y045742D01*
X026978Y045612D01*
X027078Y045512D01*
X027208Y045458D01*
X027349Y045458D01*
X027479Y045512D01*
X027573Y045606D02*
X028696Y045606D01*
X028696Y045683D02*
X027609Y045683D01*
X027633Y045760D02*
X028696Y045760D01*
X028696Y045837D02*
X027633Y045837D01*
X027620Y045915D02*
X028696Y045915D01*
X028673Y045992D02*
X027588Y045992D01*
X027523Y046069D02*
X028627Y046069D01*
X028603Y046146D02*
X027399Y046146D01*
X027159Y046146D02*
X026413Y046146D01*
X026413Y046069D02*
X027034Y046069D01*
X026969Y045992D02*
X026413Y045992D01*
X026413Y045915D02*
X026937Y045915D01*
X026924Y045837D02*
X026413Y045837D01*
X026413Y045760D02*
X026924Y045760D01*
X026949Y045683D02*
X026413Y045683D01*
X026413Y045606D02*
X026985Y045606D01*
X027062Y045529D02*
X026413Y045529D01*
X026176Y045915D02*
X025231Y045915D01*
X025231Y045992D02*
X025788Y045992D01*
X025712Y046069D02*
X025231Y046069D01*
X025231Y046146D02*
X025680Y046146D01*
X025399Y046224D02*
X025231Y046224D01*
X025231Y046301D02*
X025321Y046301D01*
X025288Y046378D02*
X025231Y046378D01*
X025231Y046455D02*
X025271Y046455D01*
X025271Y046533D02*
X025231Y046533D01*
X025231Y046610D02*
X025295Y046610D01*
X025035Y046610D02*
X024123Y046610D01*
X024080Y046687D02*
X025035Y046687D01*
X025035Y046764D02*
X023994Y046764D01*
X023676Y046996D02*
X025056Y046996D01*
X025054Y046987D02*
X025054Y046974D01*
X025369Y046974D01*
X025369Y047289D01*
X025356Y047289D01*
X025291Y047276D01*
X025230Y047251D01*
X025176Y047214D01*
X025129Y047168D01*
X025092Y047113D01*
X025067Y047052D01*
X025054Y046987D01*
X025076Y047073D02*
X023744Y047073D01*
X023776Y047151D02*
X025118Y047151D01*
X025196Y047228D02*
X023794Y047228D01*
X023794Y047305D02*
X025468Y047305D01*
X025489Y047382D02*
X023779Y047382D01*
X023747Y047460D02*
X025527Y047460D01*
X025605Y047537D02*
X023682Y047537D01*
X023187Y048155D02*
X022642Y048155D01*
X022723Y048232D02*
X023110Y048232D01*
X023074Y048309D02*
X022773Y048309D01*
X022805Y048386D02*
X023046Y048386D01*
X023046Y048464D02*
X022810Y048464D01*
X022810Y048541D02*
X023053Y048541D01*
X023085Y048618D02*
X022781Y048618D01*
X022744Y048695D02*
X023136Y048695D01*
X023221Y048773D02*
X022667Y048773D01*
X023039Y049313D02*
X023408Y049313D01*
X023329Y049391D02*
X023118Y049391D01*
X023167Y049468D02*
X023280Y049468D01*
X023248Y049545D02*
X023199Y049545D01*
X023204Y049622D02*
X023243Y049622D01*
X023243Y049699D02*
X023204Y049699D01*
X023175Y049777D02*
X023273Y049777D01*
X023311Y049854D02*
X023136Y049854D01*
X023059Y049931D02*
X023388Y049931D01*
X023620Y048773D02*
X026173Y048773D01*
X026089Y048695D02*
X023705Y048695D01*
X023756Y048618D02*
X026038Y048618D01*
X025409Y047228D02*
X025369Y047228D01*
X025369Y047151D02*
X025409Y047151D01*
X025409Y047073D02*
X025369Y047073D01*
X025369Y046996D02*
X025409Y046996D01*
X025723Y046919D02*
X026373Y046919D01*
X026373Y046996D02*
X025946Y046996D01*
X026032Y047073D02*
X026373Y047073D01*
X026373Y047151D02*
X026074Y047151D01*
X026255Y046764D02*
X026373Y046764D01*
X026373Y046687D02*
X026255Y046687D01*
X026255Y046610D02*
X026373Y046610D01*
X026255Y046533D02*
X028696Y046533D01*
X028696Y046455D02*
X026255Y046455D01*
X026266Y046378D02*
X028645Y046378D01*
X028610Y046301D02*
X026294Y046301D01*
X026294Y046224D02*
X028696Y046224D01*
X028893Y046610D02*
X030133Y046610D01*
X030133Y046687D02*
X028893Y046687D01*
X029071Y046533D02*
X030163Y046533D01*
X030202Y046455D02*
X029184Y046455D01*
X028932Y046996D02*
X030296Y046996D01*
X030218Y046919D02*
X026609Y046919D01*
X026609Y046842D02*
X030170Y046842D01*
X030138Y046764D02*
X026609Y046764D01*
X026373Y046842D02*
X025704Y046842D01*
X024719Y046533D02*
X024338Y046533D01*
X024444Y046455D02*
X024646Y046455D01*
X024614Y046378D02*
X024494Y046378D01*
X024523Y046301D02*
X024602Y046301D01*
X024602Y046224D02*
X024523Y046224D01*
X024508Y046146D02*
X024633Y046146D01*
X024687Y046069D02*
X024476Y046069D01*
X024798Y043443D02*
X025132Y043443D01*
X025209Y043366D02*
X024798Y043366D01*
X024798Y043289D02*
X027200Y043289D01*
X027200Y043366D02*
X025648Y043366D01*
X025725Y043443D02*
X027217Y043443D01*
X027249Y043520D02*
X025759Y043520D01*
X025783Y043598D02*
X027318Y043598D01*
X027221Y043211D02*
X025783Y043211D01*
X025783Y043134D02*
X027253Y043134D01*
X027329Y043057D02*
X025783Y043057D01*
X025783Y042980D02*
X027480Y042980D01*
X027628Y042980D02*
X027869Y042980D01*
X027870Y042902D02*
X025783Y042902D01*
X025783Y042427D02*
X024798Y041443D01*
X024798Y040183D01*
X027554Y040183D01*
X027554Y039710D01*
X027617Y039710D01*
X027733Y039662D01*
X027821Y039574D01*
X027869Y039458D01*
X027869Y039333D01*
X027821Y039217D01*
X027733Y039128D01*
X027617Y039080D01*
X027554Y039080D01*
X027554Y031573D01*
X027624Y031503D01*
X027672Y031387D01*
X027672Y031262D01*
X027624Y031146D01*
X027554Y031076D01*
X027554Y028620D01*
X027624Y028550D01*
X027672Y028434D01*
X027672Y028309D01*
X027624Y028193D01*
X027554Y028123D01*
X027554Y027636D01*
X027573Y027655D01*
X027689Y027702D01*
X027814Y027702D01*
X027930Y027655D01*
X028018Y027566D01*
X028066Y027450D01*
X028066Y027325D01*
X028018Y027209D01*
X027930Y027120D01*
X027814Y027073D01*
X027689Y027073D01*
X027573Y027120D01*
X027554Y027139D01*
X027554Y026600D01*
X032370Y026600D01*
X032318Y026726D01*
X032318Y026867D01*
X032372Y026998D01*
X032472Y027097D01*
X032602Y027151D01*
X032743Y027151D01*
X032873Y027097D01*
X032973Y026998D01*
X033027Y026867D01*
X033027Y026726D01*
X032974Y026600D01*
X034392Y026600D01*
X034374Y026619D01*
X034326Y026734D01*
X034326Y026860D01*
X034374Y026975D01*
X034463Y027064D01*
X034578Y027112D01*
X034704Y027112D01*
X034819Y027064D01*
X034908Y026975D01*
X034956Y026860D01*
X034956Y026734D01*
X034908Y026619D01*
X034889Y026600D01*
X037791Y026600D01*
X037791Y057702D01*
X030901Y057702D01*
X030901Y056833D01*
X030915Y056799D01*
X030915Y056637D01*
X030901Y056604D01*
X030901Y048057D01*
X028932Y048057D01*
X028879Y048309D02*
X030704Y048309D01*
X030704Y048386D02*
X028957Y048386D01*
X028995Y048464D02*
X030704Y048464D01*
X030704Y048541D02*
X029027Y048541D01*
X029031Y048618D02*
X030704Y048618D01*
X030704Y048695D02*
X029031Y048695D01*
X029006Y048773D02*
X030704Y048773D01*
X030704Y048850D02*
X028974Y048850D01*
X028906Y048927D02*
X030704Y048927D01*
X030704Y049004D02*
X028798Y049004D01*
X028743Y049236D02*
X030704Y049236D01*
X030704Y049159D02*
X024720Y049159D01*
X024720Y049082D02*
X030704Y049082D01*
X030901Y049082D02*
X037791Y049082D01*
X037791Y049159D02*
X030901Y049159D01*
X030901Y049236D02*
X037791Y049236D01*
X037791Y049313D02*
X030901Y049313D01*
X030901Y049391D02*
X037791Y049391D01*
X037791Y049468D02*
X030901Y049468D01*
X030901Y049545D02*
X037791Y049545D01*
X037791Y049622D02*
X030901Y049622D01*
X030901Y049699D02*
X037791Y049699D01*
X037791Y049777D02*
X030901Y049777D01*
X030901Y049854D02*
X037791Y049854D01*
X037791Y049931D02*
X030901Y049931D01*
X030901Y050008D02*
X037791Y050008D01*
X037791Y050086D02*
X030901Y050086D01*
X030901Y050163D02*
X034452Y050163D01*
X034463Y050152D02*
X034578Y050104D01*
X034704Y050104D01*
X034819Y050152D01*
X034908Y050241D01*
X034956Y050356D01*
X034956Y050482D01*
X034908Y050597D01*
X034819Y050686D01*
X034704Y050734D01*
X034578Y050734D01*
X034463Y050686D01*
X034374Y050597D01*
X034326Y050482D01*
X034326Y050356D01*
X034374Y050241D01*
X034463Y050152D01*
X034374Y050240D02*
X030901Y050240D01*
X030901Y050317D02*
X032570Y050317D01*
X032610Y050301D02*
X032735Y050301D01*
X032851Y050349D01*
X032939Y050437D01*
X032987Y050553D01*
X032987Y050679D01*
X032939Y050794D01*
X032851Y050883D01*
X032735Y050931D01*
X032610Y050931D01*
X032494Y050883D01*
X032405Y050794D01*
X032357Y050679D01*
X032357Y050553D01*
X032405Y050437D01*
X032494Y050349D01*
X032610Y050301D01*
X032775Y050317D02*
X034342Y050317D01*
X034326Y050395D02*
X032897Y050395D01*
X032954Y050472D02*
X034326Y050472D01*
X034354Y050549D02*
X032986Y050549D01*
X032987Y050626D02*
X034403Y050626D01*
X034505Y050704D02*
X032977Y050704D01*
X032945Y050781D02*
X037791Y050781D01*
X037791Y050858D02*
X032876Y050858D01*
X032469Y050858D02*
X030901Y050858D01*
X030901Y050781D02*
X032400Y050781D01*
X032368Y050704D02*
X030901Y050704D01*
X030901Y050626D02*
X032357Y050626D01*
X032359Y050549D02*
X030901Y050549D01*
X030901Y050472D02*
X032391Y050472D01*
X032448Y050395D02*
X030901Y050395D01*
X030704Y050395D02*
X028144Y050395D01*
X028145Y050396D02*
X028097Y050280D01*
X028008Y050191D01*
X027893Y050143D01*
X027767Y050143D01*
X027651Y050191D01*
X027563Y050280D01*
X027515Y050396D01*
X027515Y050521D01*
X027563Y050637D01*
X027651Y050725D01*
X027767Y050773D01*
X027893Y050773D01*
X028008Y050725D01*
X028097Y050637D01*
X028145Y050521D01*
X028145Y050396D01*
X028145Y050472D02*
X030704Y050472D01*
X030704Y050549D02*
X029311Y050549D01*
X029308Y050546D02*
X029396Y050634D01*
X029444Y050750D01*
X029444Y050875D01*
X029396Y050991D01*
X029308Y051080D01*
X029192Y051128D01*
X029066Y051128D01*
X028951Y051080D01*
X028862Y050991D01*
X028814Y050875D01*
X028814Y050750D01*
X028862Y050634D01*
X028951Y050546D01*
X029066Y050498D01*
X029192Y050498D01*
X029308Y050546D01*
X029388Y050626D02*
X030704Y050626D01*
X030704Y050704D02*
X029425Y050704D01*
X029444Y050781D02*
X030704Y050781D01*
X030704Y050858D02*
X029444Y050858D01*
X029419Y050935D02*
X029985Y050935D01*
X029958Y050947D02*
X030110Y050884D01*
X030274Y050884D01*
X030426Y050947D01*
X030543Y051063D01*
X030605Y051215D01*
X030605Y051379D01*
X030543Y051531D01*
X030426Y051647D01*
X030274Y051710D01*
X030110Y051710D01*
X029958Y051647D01*
X029842Y051531D01*
X029779Y051379D01*
X029779Y051215D01*
X029842Y051063D01*
X029958Y050947D01*
X029892Y051013D02*
X029375Y051013D01*
X029283Y051090D02*
X029830Y051090D01*
X029798Y051167D02*
X021233Y051167D01*
X021235Y051177D02*
X021235Y051206D01*
X020940Y051206D01*
X020940Y051206D01*
X020940Y050911D01*
X020911Y050911D01*
X020854Y050922D01*
X020800Y050945D01*
X020752Y050977D01*
X020711Y051018D01*
X020678Y051067D01*
X020656Y051120D01*
X020645Y051177D01*
X020645Y051206D01*
X020940Y051206D01*
X020940Y050911D01*
X020969Y050911D01*
X021026Y050922D01*
X021080Y050945D01*
X021128Y050977D01*
X021169Y051018D01*
X021202Y051067D01*
X021224Y051120D01*
X021235Y051177D01*
X021235Y051206D02*
X021235Y051235D01*
X021224Y051293D01*
X021202Y051346D01*
X021169Y051395D01*
X021128Y051436D01*
X021080Y051468D01*
X021026Y051490D01*
X020969Y051502D01*
X020940Y051502D01*
X020911Y051502D01*
X020854Y051490D01*
X020800Y051468D01*
X020752Y051436D01*
X020711Y051395D01*
X020678Y051346D01*
X020656Y051293D01*
X020645Y051235D01*
X020645Y051206D01*
X020940Y051206D01*
X020940Y051206D01*
X020940Y051206D01*
X021235Y051206D01*
X021234Y051244D02*
X029779Y051244D01*
X029779Y051322D02*
X021212Y051322D01*
X021165Y051399D02*
X029787Y051399D01*
X029819Y051476D02*
X021061Y051476D01*
X020940Y051476D02*
X020940Y051476D01*
X020940Y051502D02*
X020940Y051206D01*
X020940Y051206D01*
X020940Y051502D01*
X020940Y051399D02*
X020940Y051399D01*
X020940Y051322D02*
X020940Y051322D01*
X020940Y051244D02*
X020940Y051244D01*
X020940Y051167D02*
X020940Y051167D01*
X020940Y051090D02*
X020940Y051090D01*
X020940Y051013D02*
X020940Y051013D01*
X020940Y050935D02*
X020940Y050935D01*
X020823Y050935D02*
X017728Y050935D01*
X017731Y050926D02*
X017669Y051078D01*
X017552Y051195D01*
X017400Y051258D01*
X017236Y051258D01*
X017084Y051195D01*
X016968Y051078D01*
X016905Y050926D01*
X016905Y050762D01*
X016968Y050610D01*
X017084Y050494D01*
X017236Y050431D01*
X017400Y050431D01*
X017552Y050494D01*
X017669Y050610D01*
X017731Y050762D01*
X017731Y050926D01*
X017731Y050858D02*
X025468Y050858D01*
X025468Y050875D02*
X025468Y050750D01*
X025516Y050634D01*
X025604Y050546D01*
X025720Y050498D01*
X025845Y050498D01*
X025961Y050546D01*
X026050Y050634D01*
X026098Y050750D01*
X026098Y050875D01*
X026050Y050991D01*
X025961Y051080D01*
X025845Y051128D01*
X025720Y051128D01*
X025604Y051080D01*
X025516Y050991D01*
X025468Y050875D01*
X025493Y050935D02*
X021057Y050935D01*
X021164Y051013D02*
X025537Y051013D01*
X025629Y051090D02*
X021211Y051090D01*
X020716Y051013D02*
X017696Y051013D01*
X017657Y051090D02*
X020669Y051090D01*
X020647Y051167D02*
X017580Y051167D01*
X017432Y051244D02*
X020647Y051244D01*
X020668Y051322D02*
X013893Y051322D01*
X013893Y051399D02*
X020715Y051399D01*
X020819Y051476D02*
X013893Y051476D01*
X013893Y051244D02*
X015523Y051244D01*
X015459Y051218D02*
X015299Y051057D01*
X015212Y050848D01*
X015212Y050620D01*
X015299Y050411D01*
X015459Y050250D01*
X015669Y050163D01*
X015896Y050163D01*
X016106Y050250D01*
X016267Y050411D01*
X016354Y050620D01*
X016354Y050848D01*
X016267Y051057D01*
X016106Y051218D01*
X015896Y051305D01*
X015669Y051305D01*
X015459Y051218D01*
X015408Y051167D02*
X013893Y051167D01*
X013893Y051090D02*
X015331Y051090D01*
X015280Y051013D02*
X013893Y051013D01*
X013893Y050935D02*
X015248Y050935D01*
X015216Y050858D02*
X013893Y050858D01*
X013893Y050781D02*
X015212Y050781D01*
X015212Y050704D02*
X013893Y050704D01*
X013893Y050626D02*
X015212Y050626D01*
X015241Y050549D02*
X013893Y050549D01*
X013893Y050472D02*
X015273Y050472D01*
X015315Y050395D02*
X013893Y050395D01*
X013893Y050317D02*
X015392Y050317D01*
X015483Y050240D02*
X013893Y050240D01*
X013893Y050163D02*
X017052Y050163D01*
X017084Y050195D02*
X016968Y050078D01*
X016905Y049926D01*
X016905Y049762D01*
X016968Y049610D01*
X017084Y049494D01*
X017236Y049431D01*
X017400Y049431D01*
X017552Y049494D01*
X017669Y049610D01*
X017731Y049762D01*
X017731Y049926D01*
X017669Y050078D01*
X017552Y050195D01*
X017400Y050258D01*
X017236Y050258D01*
X017084Y050195D01*
X017194Y050240D02*
X016082Y050240D01*
X016173Y050317D02*
X019263Y050317D01*
X019247Y050356D02*
X019295Y050241D01*
X019333Y050202D01*
X019295Y050164D01*
X019247Y050049D01*
X019247Y049923D01*
X019295Y049808D01*
X019384Y049719D01*
X019500Y049671D01*
X019625Y049671D01*
X019741Y049719D01*
X019829Y049808D01*
X019877Y049923D01*
X019877Y050049D01*
X019829Y050164D01*
X019791Y050202D01*
X019829Y050241D01*
X019838Y050261D01*
X019846Y050241D01*
X019935Y050152D01*
X020051Y050104D01*
X020176Y050104D01*
X020292Y050152D01*
X020380Y050241D01*
X020428Y050356D01*
X020428Y050482D01*
X020380Y050597D01*
X020292Y050686D01*
X020176Y050734D01*
X020051Y050734D01*
X019935Y050686D01*
X019846Y050597D01*
X019838Y050577D01*
X019829Y050597D01*
X019741Y050686D01*
X019625Y050734D01*
X019500Y050734D01*
X019384Y050686D01*
X019295Y050597D01*
X019247Y050482D01*
X019247Y050356D01*
X019247Y050395D02*
X016251Y050395D01*
X016292Y050472D02*
X017137Y050472D01*
X017029Y050549D02*
X016324Y050549D01*
X016354Y050626D02*
X016961Y050626D01*
X016929Y050704D02*
X016354Y050704D01*
X016354Y050781D02*
X016905Y050781D01*
X016905Y050858D02*
X016349Y050858D01*
X016317Y050935D02*
X016908Y050935D01*
X016940Y051013D02*
X016285Y051013D01*
X016234Y051090D02*
X016979Y051090D01*
X017056Y051167D02*
X016157Y051167D01*
X016042Y051244D02*
X017204Y051244D01*
X017731Y050781D02*
X025468Y050781D01*
X025487Y050704D02*
X020249Y050704D01*
X020351Y050626D02*
X025524Y050626D01*
X025601Y050549D02*
X020400Y050549D01*
X020428Y050472D02*
X027515Y050472D01*
X027515Y050395D02*
X020428Y050395D01*
X020412Y050317D02*
X027547Y050317D01*
X027603Y050240D02*
X020380Y050240D01*
X020303Y050163D02*
X027720Y050163D01*
X027940Y050163D02*
X030704Y050163D01*
X030704Y050240D02*
X028057Y050240D01*
X028112Y050317D02*
X030704Y050317D01*
X030704Y050086D02*
X022152Y050086D01*
X021776Y050086D02*
X019862Y050086D01*
X019877Y050008D02*
X021698Y050008D01*
X021665Y049931D02*
X019877Y049931D01*
X019848Y049854D02*
X021649Y049854D01*
X021649Y049777D02*
X019798Y049777D01*
X019694Y049699D02*
X021676Y049699D01*
X021666Y049622D02*
X018241Y049622D01*
X018284Y049640D02*
X018372Y049729D01*
X018420Y049845D01*
X018420Y049970D01*
X018372Y050086D01*
X019263Y050086D01*
X019247Y050008D02*
X018404Y050008D01*
X018420Y049931D02*
X019247Y049931D01*
X019276Y049854D02*
X018420Y049854D01*
X018392Y049777D02*
X019326Y049777D01*
X019431Y049699D02*
X018343Y049699D01*
X018284Y049640D02*
X018168Y049592D01*
X018043Y049592D01*
X017927Y049640D01*
X017838Y049729D01*
X017791Y049845D01*
X017791Y049970D01*
X017838Y050086D01*
X017927Y050174D01*
X018043Y050222D01*
X018168Y050222D01*
X018284Y050174D01*
X018372Y050086D01*
X018295Y050163D02*
X019295Y050163D01*
X019296Y050240D02*
X017442Y050240D01*
X017584Y050163D02*
X017916Y050163D01*
X017839Y050086D02*
X017661Y050086D01*
X017697Y050008D02*
X017807Y050008D01*
X017791Y049931D02*
X017729Y049931D01*
X017731Y049854D02*
X017791Y049854D01*
X017819Y049777D02*
X017731Y049777D01*
X017706Y049699D02*
X017868Y049699D01*
X017970Y049622D02*
X017674Y049622D01*
X017604Y049545D02*
X021629Y049545D01*
X021609Y049468D02*
X017490Y049468D01*
X017452Y049236D02*
X021678Y049236D01*
X021634Y049313D02*
X013893Y049313D01*
X013893Y049236D02*
X017184Y049236D01*
X017048Y049159D02*
X013893Y049159D01*
X013893Y049082D02*
X016971Y049082D01*
X016937Y049004D02*
X013893Y049004D01*
X013893Y048927D02*
X016905Y048927D01*
X016905Y048850D02*
X013893Y048850D01*
X013893Y048773D02*
X016905Y048773D01*
X016932Y048695D02*
X013893Y048695D01*
X013893Y048618D02*
X016964Y048618D01*
X017037Y048541D02*
X013893Y048541D01*
X013893Y048464D02*
X017157Y048464D01*
X017480Y048464D02*
X017889Y048464D01*
X017896Y048386D02*
X013893Y048386D01*
X013893Y048309D02*
X017924Y048309D01*
X017985Y048232D02*
X013893Y048232D01*
X013893Y048155D02*
X019571Y048155D01*
X018582Y047614D02*
X016841Y047614D01*
X017002Y047537D02*
X017478Y047537D01*
X017388Y047460D02*
X017079Y047460D01*
X017130Y047382D02*
X017333Y047382D01*
X017300Y047305D02*
X017162Y047305D01*
X017180Y047228D02*
X017282Y047228D01*
X017599Y048541D02*
X017902Y048541D01*
X017941Y048618D02*
X017672Y048618D01*
X017588Y049159D02*
X021768Y049159D01*
X021609Y049391D02*
X013893Y049391D01*
X013893Y049468D02*
X017147Y049468D01*
X017033Y049545D02*
X013893Y049545D01*
X013893Y049622D02*
X016963Y049622D01*
X016931Y049699D02*
X013893Y049699D01*
X013893Y049777D02*
X016905Y049777D01*
X016905Y049854D02*
X013893Y049854D01*
X013893Y049931D02*
X016907Y049931D01*
X016939Y050008D02*
X013893Y050008D01*
X013893Y050086D02*
X016975Y050086D01*
X017499Y050472D02*
X019247Y050472D01*
X019275Y050549D02*
X017608Y050549D01*
X017675Y050626D02*
X019324Y050626D01*
X019426Y050704D02*
X017707Y050704D01*
X017711Y052191D02*
X017319Y052191D01*
X016957Y052341D01*
X016681Y052617D01*
X016531Y052979D01*
X016531Y053371D01*
X016681Y053732D01*
X016957Y054009D01*
X017319Y054159D01*
X017711Y054159D01*
X018072Y054009D01*
X018349Y053732D01*
X018499Y053371D01*
X018499Y052979D01*
X018349Y052617D01*
X018072Y052341D01*
X017711Y052191D01*
X017850Y052248D02*
X021261Y052248D01*
X021274Y052261D02*
X021185Y052172D01*
X021137Y052056D01*
X021137Y051931D01*
X021185Y051815D01*
X021274Y051727D01*
X021389Y051679D01*
X021515Y051679D01*
X021630Y051727D01*
X021719Y051815D01*
X021767Y051931D01*
X021767Y052056D01*
X021719Y052172D01*
X021630Y052261D01*
X021515Y052309D01*
X021389Y052309D01*
X021274Y052261D01*
X021185Y052171D02*
X015865Y052171D01*
X015897Y052094D02*
X021153Y052094D01*
X021137Y052017D02*
X015901Y052017D01*
X015901Y052084D02*
X015832Y052250D01*
X015704Y052378D01*
X015538Y052447D01*
X015358Y052447D01*
X015192Y052378D01*
X015064Y052250D01*
X014995Y052084D01*
X014995Y051904D01*
X015064Y051737D01*
X015192Y051610D01*
X015358Y051541D01*
X015538Y051541D01*
X015704Y051610D01*
X015832Y051737D01*
X015901Y051904D01*
X015901Y052084D01*
X015901Y051939D02*
X021137Y051939D01*
X021166Y051862D02*
X015884Y051862D01*
X015852Y051785D02*
X021215Y051785D01*
X021320Y051708D02*
X015802Y051708D01*
X015725Y051631D02*
X029941Y051631D01*
X029864Y051553D02*
X015568Y051553D01*
X015328Y051553D02*
X014738Y051553D01*
X014824Y051631D02*
X015171Y051631D01*
X015094Y051708D02*
X014899Y051708D01*
X014931Y051785D02*
X015044Y051785D01*
X015012Y051862D02*
X014963Y051862D01*
X014976Y051939D02*
X014995Y051939D01*
X014995Y052017D02*
X014976Y052017D01*
X014976Y052094D02*
X014999Y052094D01*
X015031Y052171D02*
X014944Y052171D01*
X014912Y052248D02*
X015063Y052248D01*
X015140Y052326D02*
X014856Y052326D01*
X014778Y052403D02*
X015253Y052403D01*
X015280Y052557D02*
X014631Y052557D01*
X014627Y052480D02*
X016818Y052480D01*
X016895Y052403D02*
X015643Y052403D01*
X015756Y052326D02*
X016993Y052326D01*
X017180Y052248D02*
X015833Y052248D01*
X015704Y052594D02*
X015832Y052722D01*
X015901Y052888D01*
X015901Y053068D01*
X015832Y053235D01*
X015704Y053362D01*
X015538Y053431D01*
X015358Y053431D01*
X015192Y053362D01*
X015064Y053235D01*
X014995Y053068D01*
X014995Y052888D01*
X015064Y052722D01*
X015192Y052594D01*
X015358Y052525D01*
X015538Y052525D01*
X015704Y052594D01*
X015745Y052635D02*
X016673Y052635D01*
X016641Y052712D02*
X015822Y052712D01*
X015860Y052789D02*
X016609Y052789D01*
X016577Y052866D02*
X015892Y052866D01*
X015901Y052944D02*
X016545Y052944D01*
X016531Y053021D02*
X015901Y053021D01*
X015888Y053098D02*
X016531Y053098D01*
X016531Y053175D02*
X015856Y053175D01*
X015814Y053253D02*
X016531Y053253D01*
X016531Y053330D02*
X015737Y053330D01*
X015595Y053407D02*
X016546Y053407D01*
X016578Y053484D02*
X012987Y053484D01*
X012987Y053407D02*
X014316Y053407D01*
X014374Y053431D02*
X014207Y053362D01*
X014080Y053235D01*
X014011Y053068D01*
X014011Y052888D01*
X014080Y052722D01*
X014207Y052594D01*
X014374Y052525D01*
X014554Y052525D01*
X014720Y052594D01*
X014848Y052722D01*
X014917Y052888D01*
X014917Y053068D01*
X014848Y053235D01*
X014720Y053362D01*
X014554Y053431D01*
X014374Y053431D01*
X014175Y053330D02*
X012987Y053330D01*
X012987Y053253D02*
X014098Y053253D01*
X014055Y053175D02*
X012987Y053175D01*
X012987Y053098D02*
X014023Y053098D01*
X014011Y053021D02*
X012987Y053021D01*
X012987Y052944D02*
X014011Y052944D01*
X014020Y052866D02*
X012987Y052866D01*
X012987Y052789D02*
X014052Y052789D01*
X014090Y052712D02*
X012987Y052712D01*
X012987Y052635D02*
X014167Y052635D01*
X014296Y052557D02*
X012987Y052557D01*
X012987Y052480D02*
X013218Y052480D01*
X013066Y052403D02*
X012987Y052403D01*
X012987Y052326D02*
X012989Y052326D01*
X012987Y053562D02*
X013048Y053562D01*
X013552Y054411D02*
X014364Y054411D01*
X014563Y054411D02*
X015349Y054411D01*
X015358Y054415D02*
X015192Y054346D01*
X015064Y054219D01*
X014995Y054052D01*
X014995Y053872D01*
X015064Y053706D01*
X015192Y053578D01*
X015358Y053510D01*
X015538Y053510D01*
X015704Y053578D01*
X015832Y053706D01*
X015901Y053872D01*
X015901Y054052D01*
X015832Y054219D01*
X015704Y054346D01*
X015538Y054415D01*
X015358Y054415D01*
X015548Y054411D02*
X019369Y054411D01*
X019335Y054377D02*
X019287Y054261D01*
X019287Y054136D01*
X019335Y054020D01*
X019423Y053932D01*
X019539Y053884D01*
X019664Y053884D01*
X019780Y053932D01*
X019869Y054020D01*
X019917Y054136D01*
X019917Y054261D01*
X019869Y054377D01*
X019780Y054466D01*
X019664Y054513D01*
X019539Y054513D01*
X019423Y054466D01*
X019335Y054377D01*
X019317Y054334D02*
X015717Y054334D01*
X015794Y054257D02*
X019287Y054257D01*
X019287Y054179D02*
X015848Y054179D01*
X015880Y054102D02*
X017182Y054102D01*
X016995Y054025D02*
X015901Y054025D01*
X015901Y053948D02*
X016896Y053948D01*
X016819Y053870D02*
X015900Y053870D01*
X015868Y053793D02*
X016741Y053793D01*
X016674Y053716D02*
X015836Y053716D01*
X015765Y053639D02*
X016642Y053639D01*
X016610Y053562D02*
X015664Y053562D01*
X015301Y053407D02*
X014611Y053407D01*
X014752Y053330D02*
X015159Y053330D01*
X015082Y053253D02*
X014830Y053253D01*
X014872Y053175D02*
X015040Y053175D01*
X015008Y053098D02*
X014904Y053098D01*
X014917Y053021D02*
X014995Y053021D01*
X014995Y052944D02*
X014917Y052944D01*
X014908Y052866D02*
X015004Y052866D01*
X015036Y052789D02*
X014876Y052789D01*
X014838Y052712D02*
X015074Y052712D01*
X015151Y052635D02*
X014761Y052635D01*
X014679Y053562D02*
X015233Y053562D01*
X015131Y053639D02*
X014780Y053639D01*
X014852Y053716D02*
X015060Y053716D01*
X015028Y053793D02*
X014884Y053793D01*
X014916Y053870D02*
X014996Y053870D01*
X014995Y053948D02*
X014917Y053948D01*
X014917Y054025D02*
X014995Y054025D01*
X015016Y054102D02*
X014896Y054102D01*
X014864Y054179D02*
X015048Y054179D01*
X015102Y054257D02*
X014810Y054257D01*
X014732Y054334D02*
X015179Y054334D01*
X014667Y054875D02*
X018227Y054875D01*
X018224Y054884D02*
X018272Y054768D01*
X018360Y054680D01*
X018476Y054632D01*
X018601Y054632D01*
X018717Y054680D01*
X018806Y054768D01*
X018854Y054884D01*
X018854Y055009D01*
X018806Y055125D01*
X018717Y055214D01*
X018601Y055262D01*
X018476Y055262D01*
X018360Y055214D01*
X018272Y055125D01*
X018224Y055009D01*
X018224Y054884D01*
X018224Y054952D02*
X014699Y054952D01*
X014731Y055029D02*
X018232Y055029D01*
X018264Y055106D02*
X014759Y055106D01*
X014759Y055184D02*
X018330Y055184D01*
X018474Y055261D02*
X014759Y055261D01*
X014759Y055338D02*
X021075Y055338D01*
X021152Y055261D02*
X018603Y055261D01*
X018747Y055184D02*
X021241Y055184D01*
X020998Y055415D02*
X014731Y055415D01*
X014699Y055493D02*
X020920Y055493D01*
X020843Y055570D02*
X014667Y055570D01*
X014595Y055647D02*
X020766Y055647D01*
X020617Y054395D02*
X020476Y054395D01*
X020346Y054341D01*
X020246Y054242D01*
X020192Y054112D01*
X020192Y053971D01*
X020246Y053840D01*
X020346Y053741D01*
X020476Y053687D01*
X020617Y053687D01*
X020747Y053741D01*
X020847Y053840D01*
X020901Y053971D01*
X020901Y054112D01*
X020847Y054242D01*
X020747Y054341D01*
X020617Y054395D01*
X020755Y054334D02*
X022561Y054334D01*
X022563Y054338D02*
X022515Y054222D01*
X022515Y054097D01*
X022563Y053981D01*
X022651Y053892D01*
X022767Y053844D01*
X022893Y053844D01*
X023008Y053892D01*
X023097Y053981D01*
X023145Y054097D01*
X023145Y054222D01*
X023097Y054338D01*
X023008Y054426D01*
X022893Y054474D01*
X022767Y054474D01*
X022651Y054426D01*
X022563Y054338D01*
X022529Y054257D02*
X020832Y054257D01*
X020873Y054179D02*
X021934Y054179D01*
X021980Y054199D02*
X021864Y054151D01*
X021775Y054062D01*
X021728Y053946D01*
X021728Y053821D01*
X021775Y053705D01*
X021864Y053617D01*
X021980Y053569D01*
X022105Y053569D01*
X022221Y053617D01*
X022310Y053705D01*
X022357Y053821D01*
X022357Y053946D01*
X022310Y054062D01*
X022221Y054151D01*
X022105Y054199D01*
X021980Y054199D01*
X022151Y054179D02*
X022515Y054179D01*
X022515Y054102D02*
X022269Y054102D01*
X022325Y054025D02*
X022545Y054025D01*
X022596Y053948D02*
X022357Y053948D01*
X022357Y053870D02*
X022704Y053870D01*
X022730Y053757D02*
X022642Y053668D01*
X022594Y053553D01*
X022594Y053427D01*
X022642Y053311D01*
X022691Y053262D01*
X022651Y053245D01*
X022563Y053156D01*
X022515Y053041D01*
X022515Y052915D01*
X022563Y052800D01*
X022651Y052711D01*
X022767Y052663D01*
X022869Y052663D01*
X022869Y052640D01*
X022917Y052524D01*
X023006Y052435D01*
X023122Y052388D01*
X023247Y052388D01*
X023363Y052435D01*
X023451Y052524D01*
X023499Y052640D01*
X023499Y052765D01*
X023451Y052881D01*
X023363Y052969D01*
X023247Y053017D01*
X023145Y053017D01*
X023145Y053041D01*
X023097Y053156D01*
X023047Y053206D01*
X023087Y053223D01*
X023176Y053311D01*
X023224Y053427D01*
X023224Y053553D01*
X023176Y053668D01*
X023087Y053757D01*
X022971Y053805D01*
X022846Y053805D01*
X022730Y053757D01*
X022689Y053716D02*
X022314Y053716D01*
X022346Y053793D02*
X022818Y053793D01*
X022956Y053870D02*
X023910Y053870D01*
X023893Y053828D02*
X023893Y053703D01*
X023941Y053587D01*
X024029Y053498D01*
X024145Y053450D01*
X024270Y053450D01*
X024304Y053464D01*
X024335Y053390D01*
X024353Y053372D01*
X024335Y053353D01*
X024304Y053279D01*
X024270Y053293D01*
X024145Y053293D01*
X024029Y053245D01*
X023941Y053156D01*
X023893Y053041D01*
X023893Y052915D01*
X023941Y052800D01*
X024029Y052711D01*
X024145Y052663D01*
X024270Y052663D01*
X024386Y052711D01*
X024475Y052800D01*
X024506Y052874D01*
X024539Y052860D01*
X024664Y052860D01*
X024780Y052908D01*
X024869Y052996D01*
X024917Y053112D01*
X024917Y053238D01*
X024869Y053353D01*
X024850Y053372D01*
X024869Y053390D01*
X024917Y053506D01*
X024917Y053631D01*
X024869Y053747D01*
X024780Y053836D01*
X024712Y053864D01*
X024780Y053892D01*
X024869Y053981D01*
X024917Y054097D01*
X024917Y054222D01*
X024869Y054338D01*
X024780Y054426D01*
X024664Y054474D01*
X024539Y054474D01*
X024423Y054426D01*
X024335Y054338D01*
X024287Y054222D01*
X024287Y054097D01*
X024298Y054069D01*
X024270Y054080D01*
X024145Y054080D01*
X024029Y054032D01*
X023941Y053944D01*
X023893Y053828D01*
X023893Y053793D02*
X022999Y053793D01*
X023128Y053716D02*
X023893Y053716D01*
X023919Y053639D02*
X023188Y053639D01*
X023220Y053562D02*
X023966Y053562D01*
X024064Y053484D02*
X023224Y053484D01*
X023215Y053407D02*
X024328Y053407D01*
X024325Y053330D02*
X023183Y053330D01*
X023117Y053253D02*
X024048Y053253D01*
X023960Y053175D02*
X023078Y053175D01*
X023121Y053098D02*
X023917Y053098D01*
X023893Y053021D02*
X023145Y053021D01*
X023389Y052944D02*
X023893Y052944D01*
X023913Y052866D02*
X023457Y052866D01*
X023489Y052789D02*
X023951Y052789D01*
X024029Y052712D02*
X023499Y052712D01*
X023497Y052635D02*
X029945Y052635D01*
X029958Y052647D02*
X029842Y052531D01*
X029779Y052379D01*
X029779Y052215D01*
X029842Y052063D01*
X029958Y051947D01*
X030110Y051884D01*
X030274Y051884D01*
X030426Y051947D01*
X030543Y052063D01*
X030605Y052215D01*
X030605Y052379D01*
X030543Y052531D01*
X030426Y052647D01*
X030274Y052710D01*
X030110Y052710D01*
X029958Y052647D01*
X029868Y052557D02*
X023465Y052557D01*
X023407Y052480D02*
X029821Y052480D01*
X029789Y052403D02*
X023284Y052403D01*
X023425Y052326D02*
X022918Y052326D01*
X022900Y052369D02*
X022811Y052458D01*
X022696Y052506D01*
X022570Y052506D01*
X022455Y052458D01*
X022366Y052369D01*
X022318Y052253D01*
X022318Y052128D01*
X022366Y052012D01*
X022455Y051924D01*
X022570Y051876D01*
X022696Y051876D01*
X022811Y051924D01*
X022900Y052012D01*
X022948Y052128D01*
X022948Y052253D01*
X022900Y052369D01*
X022866Y052403D02*
X023084Y052403D01*
X022961Y052480D02*
X022757Y052480D01*
X022903Y052557D02*
X018289Y052557D01*
X018356Y052635D02*
X022871Y052635D01*
X022651Y052712D02*
X018388Y052712D01*
X018420Y052789D02*
X022573Y052789D01*
X022535Y052866D02*
X018452Y052866D01*
X018484Y052944D02*
X022515Y052944D01*
X022515Y053021D02*
X018499Y053021D01*
X018499Y053098D02*
X022539Y053098D01*
X022582Y053175D02*
X018499Y053175D01*
X018499Y053253D02*
X022670Y053253D01*
X022634Y053330D02*
X018499Y053330D01*
X018484Y053407D02*
X022602Y053407D01*
X022594Y053484D02*
X018452Y053484D01*
X018420Y053562D02*
X022597Y053562D01*
X022629Y053639D02*
X022243Y053639D01*
X021842Y053639D02*
X018388Y053639D01*
X018356Y053716D02*
X020405Y053716D01*
X020293Y053793D02*
X018289Y053793D01*
X018211Y053870D02*
X020234Y053870D01*
X020202Y053948D02*
X019796Y053948D01*
X019871Y054025D02*
X020192Y054025D01*
X020192Y054102D02*
X019903Y054102D01*
X019917Y054179D02*
X020220Y054179D01*
X020261Y054257D02*
X019917Y054257D01*
X019886Y054334D02*
X020338Y054334D01*
X019834Y054411D02*
X022636Y054411D01*
X023023Y054411D02*
X024408Y054411D01*
X024333Y054334D02*
X023098Y054334D01*
X023130Y054257D02*
X024301Y054257D01*
X024287Y054179D02*
X023145Y054179D01*
X023145Y054102D02*
X024287Y054102D01*
X024022Y054025D02*
X023115Y054025D01*
X023064Y053948D02*
X023945Y053948D01*
X024728Y053870D02*
X026240Y053870D01*
X026271Y053884D02*
X026155Y053836D01*
X026067Y053747D01*
X026019Y053631D01*
X026019Y053506D01*
X026067Y053390D01*
X026155Y053302D01*
X026271Y053254D01*
X026396Y053254D01*
X026512Y053302D01*
X026601Y053390D01*
X026649Y053506D01*
X026649Y053631D01*
X026601Y053747D01*
X026512Y053836D01*
X026396Y053884D01*
X026271Y053884D01*
X026428Y053870D02*
X030704Y053870D01*
X030704Y053793D02*
X026555Y053793D01*
X026614Y053716D02*
X030704Y053716D01*
X030704Y053639D02*
X026646Y053639D01*
X026649Y053562D02*
X030704Y053562D01*
X030704Y053484D02*
X026640Y053484D01*
X026608Y053407D02*
X030704Y053407D01*
X030704Y053330D02*
X026540Y053330D01*
X026127Y053330D02*
X024878Y053330D01*
X024876Y053407D02*
X026060Y053407D01*
X026028Y053484D02*
X024908Y053484D01*
X024917Y053562D02*
X026019Y053562D01*
X026022Y053639D02*
X024913Y053639D01*
X024881Y053716D02*
X026054Y053716D01*
X026113Y053793D02*
X024822Y053793D01*
X024836Y053948D02*
X030704Y053948D01*
X030704Y054025D02*
X028075Y054025D01*
X028018Y054002D02*
X028149Y054056D01*
X028248Y054155D01*
X028302Y054286D01*
X028302Y054426D01*
X028248Y054557D01*
X028149Y054656D01*
X028018Y054710D01*
X027878Y054710D01*
X027747Y054656D01*
X027648Y054557D01*
X027594Y054426D01*
X027594Y054286D01*
X027648Y054155D01*
X027747Y054056D01*
X027878Y054002D01*
X028018Y054002D01*
X027821Y054025D02*
X024887Y054025D01*
X024917Y054102D02*
X027701Y054102D01*
X027638Y054179D02*
X024917Y054179D01*
X024902Y054257D02*
X027606Y054257D01*
X027594Y054334D02*
X024870Y054334D01*
X024795Y054411D02*
X027594Y054411D01*
X027619Y054488D02*
X019725Y054488D01*
X019478Y054488D02*
X013552Y054488D01*
X013552Y054566D02*
X027657Y054566D01*
X027734Y054643D02*
X018628Y054643D01*
X018758Y054720D02*
X030704Y054720D01*
X030704Y054643D02*
X028162Y054643D01*
X028239Y054566D02*
X030704Y054566D01*
X030704Y054488D02*
X028277Y054488D01*
X028302Y054411D02*
X030704Y054411D01*
X030704Y054334D02*
X028302Y054334D01*
X028290Y054257D02*
X030704Y054257D01*
X030704Y054179D02*
X028258Y054179D01*
X028195Y054102D02*
X030704Y054102D01*
X030901Y054102D02*
X033854Y054102D01*
X033854Y054097D02*
X033901Y053981D01*
X033990Y053892D01*
X034106Y053844D01*
X034231Y053844D01*
X034347Y053892D01*
X034435Y053981D01*
X034483Y054097D01*
X034483Y054222D01*
X034435Y054338D01*
X034347Y054426D01*
X034231Y054474D01*
X034106Y054474D01*
X033990Y054426D01*
X033901Y054338D01*
X033854Y054222D01*
X033854Y054097D01*
X033883Y054025D02*
X033252Y054025D01*
X033245Y054032D02*
X033129Y054080D01*
X033003Y054080D01*
X032888Y054032D01*
X032799Y053944D01*
X032751Y053828D01*
X032751Y053703D01*
X032799Y053587D01*
X032888Y053498D01*
X033003Y053450D01*
X033129Y053450D01*
X033245Y053498D01*
X033333Y053587D01*
X033381Y053703D01*
X033381Y053828D01*
X033333Y053944D01*
X033245Y054032D01*
X033329Y053948D02*
X033935Y053948D01*
X034042Y053870D02*
X033364Y053870D01*
X033381Y053793D02*
X035639Y053793D01*
X035578Y053732D02*
X035428Y053371D01*
X035428Y052979D01*
X035578Y052617D01*
X035855Y052341D01*
X036217Y052191D01*
X036608Y052191D01*
X036970Y052341D01*
X037247Y052617D01*
X037397Y052979D01*
X037397Y053371D01*
X037247Y053732D01*
X036970Y054009D01*
X036608Y054159D01*
X036217Y054159D01*
X035855Y054009D01*
X035578Y053732D01*
X035571Y053716D02*
X033381Y053716D01*
X033355Y053639D02*
X035539Y053639D01*
X035507Y053562D02*
X033308Y053562D01*
X033384Y053484D02*
X033210Y053484D01*
X033281Y053442D02*
X033193Y053353D01*
X033145Y053238D01*
X033145Y053112D01*
X033193Y052996D01*
X033281Y052908D01*
X033397Y052860D01*
X033522Y052860D01*
X033638Y052908D01*
X033727Y052996D01*
X033775Y053112D01*
X033775Y053238D01*
X033727Y053353D01*
X033638Y053442D01*
X033522Y053490D01*
X033397Y053490D01*
X033281Y053442D01*
X033247Y053407D02*
X032689Y053407D01*
X032654Y053442D02*
X032538Y053490D01*
X032413Y053490D01*
X032297Y053442D01*
X032209Y053353D01*
X032161Y053238D01*
X032161Y053112D01*
X032209Y052996D01*
X032297Y052908D01*
X032413Y052860D01*
X032538Y052860D01*
X032654Y052908D01*
X032743Y052996D01*
X032791Y053112D01*
X032791Y053238D01*
X032743Y053353D01*
X032654Y053442D01*
X032552Y053484D02*
X032922Y053484D01*
X032825Y053562D02*
X030901Y053562D01*
X030901Y053639D02*
X032778Y053639D01*
X032751Y053716D02*
X030901Y053716D01*
X030901Y053793D02*
X032751Y053793D01*
X032769Y053870D02*
X030901Y053870D01*
X030901Y053948D02*
X032803Y053948D01*
X032880Y054025D02*
X030901Y054025D01*
X030901Y054179D02*
X033854Y054179D01*
X033868Y054257D02*
X030901Y054257D01*
X030901Y054334D02*
X033900Y054334D01*
X033975Y054411D02*
X030901Y054411D01*
X030901Y054488D02*
X037791Y054488D01*
X037791Y054411D02*
X034362Y054411D01*
X034437Y054334D02*
X037791Y054334D01*
X037791Y054257D02*
X034469Y054257D01*
X034483Y054179D02*
X037791Y054179D01*
X037791Y054102D02*
X036746Y054102D01*
X036932Y054025D02*
X037791Y054025D01*
X037791Y053948D02*
X037032Y053948D01*
X037109Y053870D02*
X037791Y053870D01*
X037791Y053793D02*
X037186Y053793D01*
X037254Y053716D02*
X037791Y053716D01*
X037791Y053639D02*
X037286Y053639D01*
X037318Y053562D02*
X037791Y053562D01*
X037791Y053484D02*
X037350Y053484D01*
X037382Y053407D02*
X037791Y053407D01*
X037791Y053330D02*
X037397Y053330D01*
X037397Y053253D02*
X037791Y053253D01*
X037791Y053175D02*
X037397Y053175D01*
X037397Y053098D02*
X037791Y053098D01*
X037791Y053021D02*
X037397Y053021D01*
X037382Y052944D02*
X037791Y052944D01*
X037791Y052866D02*
X037350Y052866D01*
X037318Y052789D02*
X037791Y052789D01*
X037791Y052712D02*
X037286Y052712D01*
X037254Y052635D02*
X037791Y052635D01*
X037791Y052557D02*
X037187Y052557D01*
X037110Y052480D02*
X037791Y052480D01*
X037791Y052403D02*
X037033Y052403D01*
X036934Y052326D02*
X037791Y052326D01*
X037791Y052248D02*
X036748Y052248D01*
X036077Y052248D02*
X035422Y052248D01*
X035410Y052261D02*
X035294Y052309D01*
X035169Y052309D01*
X035053Y052261D01*
X034964Y052172D01*
X034917Y052056D01*
X034917Y051931D01*
X034964Y051815D01*
X035053Y051727D01*
X035169Y051679D01*
X035294Y051679D01*
X035410Y051727D01*
X035498Y051815D01*
X035546Y051931D01*
X035546Y052056D01*
X035498Y052172D01*
X035410Y052261D01*
X035499Y052171D02*
X037791Y052171D01*
X037791Y052094D02*
X035531Y052094D01*
X035546Y052017D02*
X037791Y052017D01*
X037791Y051939D02*
X035546Y051939D01*
X035518Y051862D02*
X037791Y051862D01*
X037791Y051785D02*
X035468Y051785D01*
X035364Y051708D02*
X037791Y051708D01*
X037791Y051631D02*
X030901Y051631D01*
X030901Y051708D02*
X033918Y051708D01*
X033872Y051727D02*
X033988Y051679D01*
X034113Y051679D01*
X034229Y051727D01*
X034317Y051815D01*
X034365Y051931D01*
X034365Y052056D01*
X034317Y052172D01*
X034229Y052261D01*
X034113Y052309D01*
X033988Y052309D01*
X033872Y052261D01*
X033783Y052172D01*
X033735Y052056D01*
X033735Y051931D01*
X033783Y051815D01*
X033872Y051727D01*
X033814Y051785D02*
X030901Y051785D01*
X030901Y051862D02*
X033764Y051862D01*
X033735Y051939D02*
X030901Y051939D01*
X030901Y052017D02*
X033735Y052017D01*
X033751Y052094D02*
X030901Y052094D01*
X030901Y052171D02*
X033783Y052171D01*
X033860Y052248D02*
X030901Y052248D01*
X030901Y052326D02*
X035891Y052326D01*
X035793Y052403D02*
X030901Y052403D01*
X030901Y052480D02*
X035715Y052480D01*
X035638Y052557D02*
X030901Y052557D01*
X030901Y052635D02*
X035571Y052635D01*
X035539Y052712D02*
X030901Y052712D01*
X030901Y052789D02*
X035507Y052789D01*
X035475Y052866D02*
X033538Y052866D01*
X033382Y052866D02*
X032554Y052866D01*
X032690Y052944D02*
X033246Y052944D01*
X033183Y053021D02*
X032753Y053021D01*
X032785Y053098D02*
X033151Y053098D01*
X033145Y053175D02*
X032791Y053175D01*
X032784Y053253D02*
X033151Y053253D01*
X033183Y053330D02*
X032752Y053330D01*
X032399Y053484D02*
X030901Y053484D01*
X030901Y053407D02*
X032262Y053407D01*
X032199Y053330D02*
X030901Y053330D01*
X030901Y053253D02*
X032167Y053253D01*
X032161Y053175D02*
X030901Y053175D01*
X030901Y053098D02*
X032166Y053098D01*
X032198Y053021D02*
X030901Y053021D01*
X030901Y052944D02*
X032261Y052944D01*
X032397Y052866D02*
X030901Y052866D01*
X030704Y052866D02*
X024680Y052866D01*
X024816Y052944D02*
X030704Y052944D01*
X030704Y053021D02*
X024879Y053021D01*
X024911Y053098D02*
X030704Y053098D01*
X030704Y053175D02*
X024917Y053175D01*
X024910Y053253D02*
X030704Y053253D01*
X030704Y052789D02*
X024464Y052789D01*
X024502Y052866D02*
X024523Y052866D01*
X024387Y052712D02*
X030704Y052712D01*
X030704Y052635D02*
X030439Y052635D01*
X030516Y052557D02*
X030704Y052557D01*
X030704Y052480D02*
X030564Y052480D01*
X030596Y052403D02*
X030704Y052403D01*
X030704Y052326D02*
X030605Y052326D01*
X030605Y052248D02*
X030704Y052248D01*
X030704Y052171D02*
X030587Y052171D01*
X030555Y052094D02*
X030704Y052094D01*
X030704Y052017D02*
X030496Y052017D01*
X030409Y051939D02*
X030704Y051939D01*
X030704Y051862D02*
X029101Y051862D01*
X029081Y051815D02*
X029129Y051931D01*
X029129Y052056D01*
X029081Y052172D01*
X028993Y052261D01*
X028877Y052309D01*
X028751Y052309D01*
X028636Y052261D01*
X028547Y052172D01*
X028499Y052056D01*
X028499Y051931D01*
X028547Y051815D01*
X028636Y051727D01*
X028751Y051679D01*
X028877Y051679D01*
X028993Y051727D01*
X029081Y051815D01*
X029051Y051785D02*
X030704Y051785D01*
X030704Y051708D02*
X030281Y051708D01*
X030104Y051708D02*
X028947Y051708D01*
X028682Y051708D02*
X021584Y051708D01*
X021689Y051785D02*
X023489Y051785D01*
X023439Y051806D02*
X023555Y051758D01*
X023680Y051758D01*
X023796Y051806D01*
X023884Y051894D01*
X023932Y052010D01*
X023932Y052135D01*
X023884Y052251D01*
X023796Y052340D01*
X023680Y052388D01*
X023555Y052388D01*
X023439Y052340D01*
X023350Y052251D01*
X023302Y052135D01*
X023302Y052010D01*
X023350Y051894D01*
X023439Y051806D01*
X023382Y051862D02*
X021738Y051862D01*
X021767Y051939D02*
X022439Y051939D01*
X022364Y052017D02*
X021767Y052017D01*
X021751Y052094D02*
X022332Y052094D01*
X022318Y052171D02*
X021719Y052171D01*
X021643Y052248D02*
X022318Y052248D01*
X022348Y052326D02*
X018037Y052326D01*
X018135Y052403D02*
X022400Y052403D01*
X022509Y052480D02*
X018212Y052480D01*
X018134Y053948D02*
X019407Y053948D01*
X019333Y054025D02*
X018035Y054025D01*
X017848Y054102D02*
X019301Y054102D01*
X018818Y054797D02*
X030704Y054797D01*
X030704Y054875D02*
X018850Y054875D01*
X018854Y054952D02*
X030704Y054952D01*
X030704Y055029D02*
X018845Y055029D01*
X018813Y055106D02*
X030704Y055106D01*
X030704Y055184D02*
X025994Y055184D01*
X026083Y055261D02*
X030704Y055261D01*
X030704Y055338D02*
X026160Y055338D01*
X026237Y055415D02*
X030704Y055415D01*
X030704Y055493D02*
X026314Y055493D01*
X026392Y055570D02*
X030704Y055570D01*
X030704Y055647D02*
X026469Y055647D01*
X026546Y055724D02*
X030704Y055724D01*
X030704Y055801D02*
X026623Y055801D01*
X026701Y055879D02*
X030704Y055879D01*
X030704Y055956D02*
X026778Y055956D01*
X026855Y056033D02*
X030704Y056033D01*
X030704Y056110D02*
X026932Y056110D01*
X028623Y052248D02*
X023885Y052248D01*
X023917Y052171D02*
X028547Y052171D01*
X028515Y052094D02*
X023932Y052094D01*
X023932Y052017D02*
X028499Y052017D01*
X028499Y051939D02*
X023903Y051939D01*
X023852Y051862D02*
X028528Y051862D01*
X028578Y051785D02*
X023746Y051785D01*
X023332Y051939D02*
X022827Y051939D01*
X022902Y052017D02*
X023302Y052017D01*
X023302Y052094D02*
X022934Y052094D01*
X022948Y052171D02*
X023317Y052171D01*
X023349Y052248D02*
X022948Y052248D01*
X023810Y052326D02*
X029779Y052326D01*
X029779Y052248D02*
X029005Y052248D01*
X029082Y052171D02*
X029797Y052171D01*
X029829Y052094D02*
X029114Y052094D01*
X029129Y052017D02*
X029888Y052017D01*
X029975Y051939D02*
X029129Y051939D01*
X028975Y051090D02*
X026640Y051090D01*
X026665Y051073D02*
X026610Y051109D01*
X026550Y051134D01*
X026485Y051147D01*
X026472Y051147D01*
X026472Y050832D01*
X026787Y050832D01*
X026787Y050846D01*
X026774Y050910D01*
X026749Y050971D01*
X026712Y051026D01*
X026665Y051073D01*
X026721Y051013D02*
X028884Y051013D01*
X028839Y050935D02*
X026763Y050935D01*
X026784Y050858D02*
X028814Y050858D01*
X028814Y050781D02*
X026787Y050781D01*
X026787Y050780D02*
X026787Y050793D01*
X026472Y050793D01*
X026472Y050832D01*
X026432Y050832D01*
X026432Y050793D01*
X026117Y050793D01*
X026117Y050780D01*
X026130Y050715D01*
X026155Y050654D01*
X026192Y050599D01*
X026239Y050553D01*
X026293Y050516D01*
X026354Y050491D01*
X026419Y050478D01*
X026432Y050478D01*
X026432Y050793D01*
X026472Y050793D01*
X026472Y050478D01*
X026485Y050478D01*
X026550Y050491D01*
X026610Y050516D01*
X026665Y050553D01*
X026712Y050599D01*
X026749Y050654D01*
X026774Y050715D01*
X026787Y050780D01*
X026769Y050704D02*
X027630Y050704D01*
X027559Y050626D02*
X026730Y050626D01*
X026660Y050549D02*
X027527Y050549D01*
X028030Y050704D02*
X028833Y050704D01*
X028870Y050626D02*
X028101Y050626D01*
X028133Y050549D02*
X028947Y050549D01*
X028788Y050008D02*
X030704Y050008D01*
X030704Y049931D02*
X028902Y049931D01*
X028973Y049854D02*
X030704Y049854D01*
X030704Y049777D02*
X029005Y049777D01*
X029031Y049699D02*
X030704Y049699D01*
X030704Y049622D02*
X029031Y049622D01*
X029029Y049545D02*
X030704Y049545D01*
X030704Y049468D02*
X028997Y049468D01*
X028961Y049391D02*
X030704Y049391D01*
X030704Y049313D02*
X028884Y049313D01*
X028492Y049236D02*
X024697Y049236D01*
X024698Y049004D02*
X028437Y049004D01*
X028328Y048927D02*
X024657Y048927D01*
X025965Y050549D02*
X026244Y050549D01*
X026174Y050626D02*
X026042Y050626D01*
X026078Y050704D02*
X026135Y050704D01*
X026117Y050781D02*
X026098Y050781D01*
X026117Y050832D02*
X026432Y050832D01*
X026432Y051147D01*
X026419Y051147D01*
X026354Y051134D01*
X026293Y051109D01*
X026239Y051073D01*
X026192Y051026D01*
X026155Y050971D01*
X026130Y050910D01*
X026117Y050846D01*
X026117Y050832D01*
X026120Y050858D02*
X026098Y050858D01*
X026073Y050935D02*
X026141Y050935D01*
X026183Y051013D02*
X026028Y051013D01*
X025937Y051090D02*
X026264Y051090D01*
X026432Y051090D02*
X026472Y051090D01*
X026472Y051013D02*
X026432Y051013D01*
X026432Y050935D02*
X026472Y050935D01*
X026472Y050858D02*
X026432Y050858D01*
X026432Y050781D02*
X026472Y050781D01*
X026472Y050704D02*
X026432Y050704D01*
X026432Y050626D02*
X026472Y050626D01*
X026472Y050549D02*
X026432Y050549D01*
X028893Y045606D02*
X032286Y045606D01*
X032202Y045529D02*
X028893Y045529D01*
X028893Y045451D02*
X032154Y045451D01*
X032122Y045374D02*
X028893Y045374D01*
X028893Y045297D02*
X032121Y045297D01*
X032126Y045220D02*
X028893Y045220D01*
X029344Y043366D02*
X037791Y043366D01*
X037791Y043289D02*
X029407Y043289D01*
X029439Y043211D02*
X031691Y043211D01*
X031672Y043199D02*
X031625Y043152D01*
X031588Y043097D01*
X031563Y043036D01*
X031550Y042972D01*
X031550Y042958D01*
X031865Y042958D01*
X031865Y042919D01*
X031905Y042919D01*
X031905Y042958D01*
X032220Y042958D01*
X032220Y042972D01*
X032207Y043036D01*
X032182Y043097D01*
X032145Y043152D01*
X032098Y043199D01*
X032044Y043235D01*
X031983Y043260D01*
X031918Y043273D01*
X031905Y043273D01*
X031905Y042958D01*
X031865Y042958D01*
X031865Y043273D01*
X031852Y043273D01*
X031787Y043260D01*
X031726Y043235D01*
X031672Y043199D01*
X031613Y043134D02*
X029444Y043134D01*
X029437Y043057D02*
X031572Y043057D01*
X031552Y042980D02*
X029405Y042980D01*
X029341Y042902D02*
X031551Y042902D01*
X031570Y042825D02*
X029203Y042825D01*
X028064Y043443D02*
X027892Y043443D01*
X027909Y043366D02*
X027930Y043366D01*
X027837Y043057D02*
X027780Y043057D01*
X027149Y042284D02*
X031406Y042284D01*
X031329Y042207D02*
X025563Y042207D01*
X025486Y042130D02*
X031286Y042130D01*
X031254Y042053D02*
X025408Y042053D01*
X025331Y041975D02*
X031247Y041975D01*
X031247Y041898D02*
X025254Y041898D01*
X025177Y041821D02*
X031268Y041821D01*
X031300Y041744D02*
X025100Y041744D01*
X025022Y041666D02*
X031364Y041666D01*
X031462Y041589D02*
X024945Y041589D01*
X024868Y041512D02*
X033168Y041512D01*
X033165Y041532D02*
X033176Y041475D01*
X033198Y041421D01*
X033230Y041373D01*
X033272Y041331D01*
X033320Y041299D01*
X033374Y041277D01*
X033431Y041265D01*
X033460Y041265D01*
X033489Y041265D01*
X033546Y041277D01*
X033600Y041299D01*
X033648Y041331D01*
X033689Y041373D01*
X033721Y041421D01*
X033744Y041475D01*
X033755Y041532D01*
X033755Y041561D01*
X033755Y041590D01*
X033744Y041647D01*
X033721Y041701D01*
X033689Y041749D01*
X033648Y041790D01*
X033600Y041822D01*
X033546Y041845D01*
X033489Y041856D01*
X033460Y041856D01*
X033460Y041561D01*
X033460Y041561D01*
X033755Y041561D01*
X033460Y041561D01*
X033460Y041561D01*
X033460Y041856D01*
X033431Y041856D01*
X033374Y041845D01*
X033320Y041822D01*
X033272Y041790D01*
X033230Y041749D01*
X033198Y041701D01*
X033176Y041647D01*
X033165Y041590D01*
X033165Y041561D01*
X033460Y041561D01*
X033460Y041561D01*
X033460Y041265D01*
X033460Y041561D01*
X033460Y041561D01*
X033165Y041561D01*
X033165Y041532D01*
X033165Y041589D02*
X032808Y041589D01*
X032775Y041576D02*
X032847Y041606D01*
X032912Y041649D01*
X032966Y041703D01*
X033009Y041768D01*
X033039Y041840D01*
X033054Y041915D01*
X032700Y041915D01*
X032700Y041561D01*
X032775Y041576D01*
X032700Y041589D02*
X032621Y041589D01*
X032621Y041561D02*
X032621Y041915D01*
X032267Y041915D01*
X032282Y041840D01*
X032312Y041768D01*
X032355Y041703D01*
X032410Y041649D01*
X032474Y041606D01*
X032546Y041576D01*
X032621Y041561D01*
X032621Y041666D02*
X032700Y041666D01*
X032700Y041744D02*
X032621Y041744D01*
X032621Y041821D02*
X032700Y041821D01*
X032700Y041898D02*
X032621Y041898D01*
X032621Y041915D02*
X032700Y041915D01*
X032700Y041994D01*
X032621Y041994D01*
X032621Y041915D01*
X032621Y041975D02*
X032074Y041975D01*
X032074Y041898D02*
X032270Y041898D01*
X032290Y041821D02*
X032053Y041821D01*
X032021Y041744D02*
X032328Y041744D01*
X032392Y041666D02*
X031957Y041666D01*
X031859Y041589D02*
X032513Y041589D01*
X032621Y041994D02*
X032267Y041994D01*
X032282Y042069D01*
X032312Y042141D01*
X032355Y042205D01*
X032410Y042260D01*
X032474Y042303D01*
X032546Y042333D01*
X032621Y042348D01*
X032621Y041994D01*
X032621Y042053D02*
X032700Y042053D01*
X032700Y041994D02*
X032700Y042348D01*
X032775Y042333D01*
X032847Y042303D01*
X032912Y042260D01*
X032966Y042205D01*
X033009Y042141D01*
X033039Y042069D01*
X033054Y041994D01*
X032700Y041994D01*
X032700Y041975D02*
X037791Y041975D01*
X037791Y041898D02*
X033051Y041898D01*
X033031Y041821D02*
X033318Y041821D01*
X033227Y041744D02*
X032993Y041744D01*
X032929Y041666D02*
X033184Y041666D01*
X033192Y041435D02*
X024798Y041435D01*
X024798Y041358D02*
X033245Y041358D01*
X033365Y041280D02*
X024798Y041280D01*
X024798Y041203D02*
X037791Y041203D01*
X037791Y041126D02*
X024798Y041126D01*
X024798Y041049D02*
X037791Y041049D01*
X037791Y040971D02*
X024798Y040971D01*
X024798Y040894D02*
X037791Y040894D01*
X037791Y040817D02*
X024798Y040817D01*
X024798Y040740D02*
X035208Y040740D01*
X035228Y040759D02*
X035128Y040659D01*
X035074Y040529D01*
X035074Y040388D01*
X035128Y040258D01*
X035228Y040158D01*
X035358Y040104D01*
X035499Y040104D01*
X035629Y040158D01*
X035729Y040258D01*
X035783Y040388D01*
X035783Y040529D01*
X035729Y040659D01*
X035629Y040759D01*
X035499Y040813D01*
X035358Y040813D01*
X035228Y040759D01*
X035131Y040662D02*
X028560Y040662D01*
X028542Y040680D02*
X028412Y040734D01*
X028271Y040734D01*
X028141Y040680D01*
X028041Y040580D01*
X027987Y040450D01*
X027987Y040309D01*
X028041Y040179D01*
X028141Y040079D01*
X028271Y040025D01*
X028412Y040025D01*
X028542Y040079D01*
X028642Y040179D01*
X028696Y040309D01*
X028696Y040450D01*
X028642Y040580D01*
X028542Y040680D01*
X028637Y040585D02*
X035097Y040585D01*
X035074Y040508D02*
X028672Y040508D01*
X028696Y040431D02*
X035074Y040431D01*
X035088Y040353D02*
X034066Y040353D01*
X034054Y040365D02*
X033924Y040419D01*
X033783Y040419D01*
X033653Y040365D01*
X033553Y040265D01*
X033499Y040135D01*
X033499Y039994D01*
X033553Y039864D01*
X033653Y039764D01*
X033783Y039710D01*
X033924Y039710D01*
X034054Y039764D01*
X034154Y039864D01*
X034208Y039994D01*
X034208Y040135D01*
X034154Y040265D01*
X034054Y040365D01*
X034143Y040276D02*
X035120Y040276D01*
X035187Y040199D02*
X034181Y040199D01*
X034208Y040122D02*
X035315Y040122D01*
X035541Y040122D02*
X037791Y040122D01*
X037791Y040199D02*
X035670Y040199D01*
X035736Y040276D02*
X037791Y040276D01*
X037791Y040353D02*
X035768Y040353D01*
X035783Y040431D02*
X037791Y040431D01*
X037791Y040508D02*
X035783Y040508D01*
X035759Y040585D02*
X037791Y040585D01*
X037791Y040662D02*
X035725Y040662D01*
X035648Y040740D02*
X037791Y040740D01*
X037791Y041280D02*
X034499Y041280D01*
X034491Y041277D02*
X034545Y041299D01*
X034593Y041331D01*
X034634Y041373D01*
X034666Y041421D01*
X034689Y041475D01*
X034700Y041532D01*
X034700Y041561D01*
X034700Y041590D01*
X034689Y041647D01*
X034666Y041701D01*
X034634Y041749D01*
X034593Y041790D01*
X034545Y041822D01*
X034491Y041845D01*
X034434Y041856D01*
X034405Y041856D01*
X034405Y041561D01*
X034700Y041561D01*
X034405Y041561D01*
X034405Y041561D01*
X034405Y041561D01*
X034405Y041856D01*
X034376Y041856D01*
X034319Y041845D01*
X034265Y041822D01*
X034216Y041790D01*
X034175Y041749D01*
X034143Y041701D01*
X034121Y041647D01*
X034109Y041590D01*
X034109Y041561D01*
X034405Y041561D01*
X034405Y041265D01*
X034434Y041265D01*
X034491Y041277D01*
X034405Y041280D02*
X034405Y041280D01*
X034405Y041265D02*
X034405Y041561D01*
X034405Y041561D01*
X034405Y041561D01*
X034109Y041561D01*
X034109Y041532D01*
X034121Y041475D01*
X034143Y041421D01*
X034175Y041373D01*
X034216Y041331D01*
X034265Y041299D01*
X034319Y041277D01*
X034376Y041265D01*
X034405Y041265D01*
X034405Y041358D02*
X034405Y041358D01*
X034405Y041435D02*
X034405Y041435D01*
X034405Y041512D02*
X034405Y041512D01*
X034405Y041589D02*
X034405Y041589D01*
X034405Y041666D02*
X034405Y041666D01*
X034405Y041744D02*
X034405Y041744D01*
X034405Y041821D02*
X034405Y041821D01*
X034547Y041821D02*
X037791Y041821D01*
X037791Y041744D02*
X034638Y041744D01*
X034680Y041666D02*
X037791Y041666D01*
X037791Y041589D02*
X034700Y041589D01*
X034696Y041512D02*
X037791Y041512D01*
X037791Y041435D02*
X034672Y041435D01*
X034619Y041358D02*
X037791Y041358D01*
X037791Y042053D02*
X033766Y042053D01*
X033884Y042130D02*
X037791Y042130D01*
X037791Y042207D02*
X033939Y042207D01*
X033971Y042284D02*
X037791Y042284D01*
X037791Y042362D02*
X033972Y042362D01*
X033960Y042439D02*
X037791Y042439D01*
X037791Y042516D02*
X033928Y042516D01*
X033857Y042593D02*
X037791Y042593D01*
X037791Y042671D02*
X033267Y042671D01*
X033279Y042679D02*
X033326Y042725D01*
X033363Y042780D01*
X033388Y042841D01*
X033401Y042906D01*
X033401Y042919D01*
X033086Y042919D01*
X033086Y042958D01*
X033401Y042958D01*
X033401Y042972D01*
X033388Y043036D01*
X033363Y043097D01*
X033326Y043152D01*
X033279Y043199D01*
X033225Y043235D01*
X033164Y043260D01*
X033099Y043273D01*
X033086Y043273D01*
X033086Y042958D01*
X033046Y042958D01*
X033046Y042919D01*
X032731Y042919D01*
X032731Y042906D01*
X032744Y042841D01*
X032770Y042780D01*
X032806Y042725D01*
X032853Y042679D01*
X032908Y042642D01*
X032969Y042617D01*
X033033Y042604D01*
X033046Y042604D01*
X033046Y042919D01*
X033086Y042919D01*
X033086Y042604D01*
X033099Y042604D01*
X033164Y042617D01*
X033225Y042642D01*
X033279Y042679D01*
X033341Y042748D02*
X037791Y042748D01*
X037791Y042825D02*
X033381Y042825D01*
X033400Y042902D02*
X037791Y042902D01*
X037791Y042980D02*
X033399Y042980D01*
X033379Y043057D02*
X037791Y043057D01*
X037791Y043134D02*
X033338Y043134D01*
X033260Y043211D02*
X037791Y043211D01*
X037791Y040044D02*
X034208Y040044D01*
X034197Y039967D02*
X037791Y039967D01*
X037791Y039890D02*
X034165Y039890D01*
X034103Y039813D02*
X037791Y039813D01*
X037791Y039735D02*
X033985Y039735D01*
X033722Y039735D02*
X027554Y039735D01*
X027554Y039813D02*
X033604Y039813D01*
X033542Y039890D02*
X027554Y039890D01*
X027554Y039967D02*
X033510Y039967D01*
X033499Y040044D02*
X028458Y040044D01*
X028585Y040122D02*
X033499Y040122D01*
X033526Y040199D02*
X028650Y040199D01*
X028682Y040276D02*
X033564Y040276D01*
X033641Y040353D02*
X028696Y040353D01*
X028225Y040044D02*
X027554Y040044D01*
X027554Y040122D02*
X028099Y040122D01*
X028033Y040199D02*
X024798Y040199D01*
X024798Y040276D02*
X028001Y040276D01*
X027987Y040353D02*
X024798Y040353D01*
X024798Y040431D02*
X027987Y040431D01*
X028011Y040508D02*
X024798Y040508D01*
X024798Y040585D02*
X028046Y040585D01*
X028123Y040662D02*
X024798Y040662D01*
X024562Y040662D02*
X024264Y040662D01*
X024266Y040662D02*
X024201Y040675D01*
X024188Y040675D01*
X024188Y040360D01*
X024149Y040360D01*
X024149Y040675D01*
X024136Y040675D01*
X024071Y040662D01*
X024010Y040637D01*
X023955Y040600D01*
X023909Y040554D01*
X023872Y040499D01*
X023847Y040438D01*
X023834Y040373D01*
X023834Y040360D01*
X024149Y040360D01*
X024149Y040321D01*
X023834Y040321D01*
X023834Y040307D01*
X023847Y040243D01*
X023872Y040182D01*
X023909Y040127D01*
X023955Y040080D01*
X024010Y040044D01*
X024071Y040018D01*
X024136Y040006D01*
X024149Y040006D01*
X024149Y040321D01*
X024188Y040321D01*
X024188Y040360D01*
X024503Y040360D01*
X024503Y040373D01*
X024490Y040438D01*
X024465Y040499D01*
X024428Y040554D01*
X024382Y040600D01*
X024327Y040637D01*
X024266Y040662D01*
X024188Y040662D02*
X024149Y040662D01*
X024109Y040688D02*
X024170Y040713D01*
X024224Y040750D01*
X024271Y040796D01*
X024308Y040851D01*
X024333Y040912D01*
X024346Y040977D01*
X024346Y040990D01*
X024031Y040990D01*
X024031Y041029D01*
X024346Y041029D01*
X024346Y041043D01*
X024333Y041107D01*
X024308Y041168D01*
X024271Y041223D01*
X024224Y041269D01*
X024170Y041306D01*
X024109Y041331D01*
X024044Y041344D01*
X024031Y041344D01*
X024031Y041029D01*
X023991Y041029D01*
X023991Y040990D01*
X023676Y040990D01*
X023676Y040977D01*
X023689Y040912D01*
X023714Y040851D01*
X023751Y040796D01*
X023798Y040750D01*
X023852Y040713D01*
X023913Y040688D01*
X023978Y040675D01*
X023991Y040675D01*
X023991Y040990D01*
X024031Y040990D01*
X024031Y040675D01*
X024044Y040675D01*
X024109Y040688D01*
X024072Y040662D02*
X013893Y040662D01*
X013893Y040585D02*
X023940Y040585D01*
X023878Y040508D02*
X013893Y040508D01*
X013893Y040431D02*
X023223Y040431D01*
X023242Y040450D02*
X023153Y040361D01*
X023105Y040245D01*
X023105Y040120D01*
X023153Y040004D01*
X023242Y039916D01*
X023259Y039909D01*
X023220Y039893D01*
X023120Y039793D01*
X023066Y039663D01*
X023066Y039522D01*
X023120Y039392D01*
X023220Y039292D01*
X023350Y039238D01*
X023491Y039238D01*
X023621Y039292D01*
X023721Y039392D01*
X023775Y039522D01*
X023775Y039663D01*
X023721Y039793D01*
X023621Y039893D01*
X023582Y039909D01*
X023599Y039916D01*
X023687Y040004D01*
X023735Y040120D01*
X023735Y040245D01*
X023687Y040361D01*
X023599Y040450D01*
X023483Y040498D01*
X023358Y040498D01*
X023242Y040450D01*
X023150Y040353D02*
X013893Y040353D01*
X013893Y040276D02*
X023118Y040276D01*
X023105Y040199D02*
X013893Y040199D01*
X013893Y040122D02*
X023105Y040122D01*
X023137Y040044D02*
X013893Y040044D01*
X013893Y039967D02*
X023191Y039967D01*
X023217Y039890D02*
X022246Y039890D01*
X022243Y039893D02*
X022113Y039947D01*
X021972Y039947D01*
X021842Y039893D01*
X021742Y039793D01*
X021688Y039663D01*
X021688Y039522D01*
X021742Y039392D01*
X021842Y039292D01*
X021972Y039238D01*
X022113Y039238D01*
X022243Y039292D01*
X022343Y039392D01*
X022397Y039522D01*
X022397Y039663D01*
X022343Y039793D01*
X022243Y039893D01*
X022323Y039813D02*
X023140Y039813D01*
X023096Y039735D02*
X022367Y039735D01*
X022397Y039658D02*
X023066Y039658D01*
X023066Y039581D02*
X022397Y039581D01*
X022389Y039504D02*
X023074Y039504D01*
X023106Y039427D02*
X022357Y039427D01*
X022301Y039349D02*
X023162Y039349D01*
X023268Y039272D02*
X022195Y039272D01*
X021890Y039272D02*
X013893Y039272D01*
X013893Y039195D02*
X027309Y039195D01*
X027264Y039272D02*
X023573Y039272D01*
X023679Y039349D02*
X027239Y039349D01*
X027239Y039427D02*
X023735Y039427D01*
X023767Y039504D02*
X027258Y039504D01*
X027295Y039581D02*
X023775Y039581D01*
X023775Y039658D02*
X027357Y039658D01*
X027357Y039735D02*
X023745Y039735D01*
X023701Y039813D02*
X027357Y039813D01*
X027357Y039890D02*
X023624Y039890D01*
X023650Y039967D02*
X027357Y039967D01*
X027737Y039658D02*
X037791Y039658D01*
X037791Y039581D02*
X027814Y039581D01*
X027850Y039504D02*
X037791Y039504D01*
X037791Y039427D02*
X032172Y039427D01*
X032152Y039435D02*
X032011Y039435D01*
X031881Y039381D01*
X031781Y039281D01*
X031728Y039151D01*
X031728Y039010D01*
X031781Y038880D01*
X031881Y038780D01*
X032011Y038726D01*
X032152Y038726D01*
X032283Y038780D01*
X032382Y038880D01*
X032436Y039010D01*
X032436Y039151D01*
X032382Y039281D01*
X032283Y039381D01*
X032152Y039435D01*
X031992Y039427D02*
X027869Y039427D01*
X027869Y039349D02*
X031850Y039349D01*
X031778Y039272D02*
X027844Y039272D01*
X027799Y039195D02*
X031746Y039195D01*
X031728Y039118D02*
X027707Y039118D01*
X027554Y039040D02*
X031728Y039040D01*
X031747Y038963D02*
X027554Y038963D01*
X027554Y038886D02*
X031779Y038886D01*
X031853Y038809D02*
X027554Y038809D01*
X027554Y038731D02*
X031999Y038731D01*
X032165Y038731D02*
X037791Y038731D01*
X037791Y038654D02*
X027554Y038654D01*
X027554Y038577D02*
X037791Y038577D01*
X037791Y038500D02*
X034999Y038500D01*
X035014Y038497D02*
X034949Y038510D01*
X034936Y038510D01*
X034936Y038195D01*
X034897Y038195D01*
X034897Y038510D01*
X034884Y038510D01*
X034819Y038497D01*
X034758Y038471D01*
X034703Y038435D01*
X034657Y038388D01*
X034620Y038333D01*
X034595Y038273D01*
X034582Y038208D01*
X034582Y038195D01*
X034897Y038195D01*
X034897Y038155D01*
X034936Y038155D01*
X034936Y037840D01*
X034949Y037840D01*
X035014Y037853D01*
X035075Y037878D01*
X035130Y037915D01*
X035176Y037962D01*
X035213Y038016D01*
X035238Y038077D01*
X035251Y038142D01*
X035251Y038155D01*
X034936Y038155D01*
X034936Y038195D01*
X035251Y038195D01*
X035251Y038208D01*
X035238Y038273D01*
X035213Y038333D01*
X035176Y038388D01*
X035130Y038435D01*
X035075Y038471D01*
X035014Y038497D01*
X034936Y038500D02*
X034897Y038500D01*
X034834Y038500D02*
X027554Y038500D01*
X027554Y038422D02*
X034691Y038422D01*
X034628Y038345D02*
X027554Y038345D01*
X027554Y038268D02*
X030115Y038268D01*
X030132Y038284D02*
X030043Y038196D01*
X029995Y038080D01*
X029995Y037955D01*
X030043Y037839D01*
X030132Y037750D01*
X030248Y037702D01*
X030373Y037702D01*
X030489Y037750D01*
X030577Y037839D01*
X030625Y037955D01*
X030625Y038080D01*
X030577Y038196D01*
X030489Y038284D01*
X030373Y038332D01*
X030248Y038332D01*
X030132Y038284D01*
X030041Y038191D02*
X027554Y038191D01*
X027554Y038113D02*
X030009Y038113D01*
X029995Y038036D02*
X027554Y038036D01*
X027554Y037959D02*
X029995Y037959D01*
X030026Y037882D02*
X027554Y037882D01*
X027554Y037804D02*
X030078Y037804D01*
X030188Y037727D02*
X027554Y037727D01*
X027554Y037650D02*
X032599Y037650D01*
X032602Y037642D02*
X032691Y037554D01*
X032807Y037506D01*
X032932Y037506D01*
X033048Y037554D01*
X033136Y037642D01*
X033184Y037758D01*
X033184Y037883D01*
X033136Y037999D01*
X033048Y038088D01*
X032932Y038136D01*
X032807Y038136D01*
X032691Y038088D01*
X032602Y037999D01*
X032554Y037883D01*
X032554Y037758D01*
X032602Y037642D01*
X032567Y037727D02*
X030433Y037727D01*
X030543Y037804D02*
X032554Y037804D01*
X032554Y037882D02*
X030595Y037882D01*
X030625Y037959D02*
X032586Y037959D01*
X032639Y038036D02*
X030625Y038036D01*
X030611Y038113D02*
X032753Y038113D01*
X032985Y038113D02*
X033749Y038113D01*
X033735Y038080D02*
X033735Y037955D01*
X033783Y037839D01*
X033872Y037750D01*
X033988Y037702D01*
X034113Y037702D01*
X034229Y037750D01*
X034317Y037839D01*
X034365Y037955D01*
X034365Y038080D01*
X034317Y038196D01*
X034229Y038284D01*
X034113Y038332D01*
X033988Y038332D01*
X033872Y038284D01*
X033783Y038196D01*
X033735Y038080D01*
X033735Y038036D02*
X033099Y038036D01*
X033153Y037959D02*
X033735Y037959D01*
X033766Y037882D02*
X033184Y037882D01*
X033184Y037804D02*
X033818Y037804D01*
X033928Y037727D02*
X033172Y037727D01*
X033140Y037650D02*
X034694Y037650D01*
X034689Y037645D02*
X034641Y037529D01*
X034641Y037404D01*
X034689Y037288D01*
X034777Y037199D01*
X034893Y037151D01*
X035019Y037151D01*
X035134Y037199D01*
X035223Y037288D01*
X035271Y037404D01*
X035271Y037529D01*
X035223Y037645D01*
X035134Y037733D01*
X035019Y037781D01*
X034893Y037781D01*
X034777Y037733D01*
X034689Y037645D01*
X034659Y037573D02*
X033067Y037573D01*
X032672Y037573D02*
X027554Y037573D01*
X027554Y037496D02*
X034641Y037496D01*
X034641Y037418D02*
X027554Y037418D01*
X027554Y037341D02*
X034667Y037341D01*
X034713Y037264D02*
X027554Y037264D01*
X027554Y037187D02*
X034808Y037187D01*
X035104Y037187D02*
X037791Y037187D01*
X037791Y037264D02*
X035199Y037264D01*
X035245Y037341D02*
X037791Y037341D01*
X037791Y037418D02*
X035271Y037418D01*
X035271Y037496D02*
X037791Y037496D01*
X037791Y037573D02*
X036020Y037573D01*
X036000Y037554D02*
X036089Y037642D01*
X036137Y037758D01*
X036137Y037860D01*
X036146Y037839D01*
X036234Y037750D01*
X036350Y037702D01*
X036475Y037702D01*
X036591Y037750D01*
X036680Y037839D01*
X036728Y037955D01*
X036728Y038080D01*
X036680Y038196D01*
X036591Y038284D01*
X036475Y038332D01*
X036350Y038332D01*
X036234Y038284D01*
X036146Y038196D01*
X036098Y038080D01*
X036098Y037978D01*
X036089Y037999D01*
X036000Y038088D01*
X035885Y038136D01*
X035759Y038136D01*
X035644Y038088D01*
X035555Y037999D01*
X035507Y037883D01*
X035507Y037758D01*
X035555Y037642D01*
X035644Y037554D01*
X035759Y037506D01*
X035885Y037506D01*
X036000Y037554D01*
X036092Y037650D02*
X037791Y037650D01*
X037791Y037727D02*
X036535Y037727D01*
X036645Y037804D02*
X037791Y037804D01*
X037791Y037882D02*
X036697Y037882D01*
X036728Y037959D02*
X037791Y037959D01*
X037791Y038036D02*
X036728Y038036D01*
X036714Y038113D02*
X037791Y038113D01*
X037791Y038191D02*
X036682Y038191D01*
X036608Y038268D02*
X037791Y038268D01*
X037791Y038345D02*
X035205Y038345D01*
X035239Y038268D02*
X036218Y038268D01*
X036143Y038191D02*
X034936Y038191D01*
X034897Y038191D02*
X034320Y038191D01*
X034352Y038113D02*
X034588Y038113D01*
X034582Y038142D02*
X034595Y038077D01*
X034620Y038016D01*
X034657Y037962D01*
X034703Y037915D01*
X034758Y037878D01*
X034819Y037853D01*
X034884Y037840D01*
X034897Y037840D01*
X034897Y038155D01*
X034582Y038155D01*
X034582Y038142D01*
X034612Y038036D02*
X034365Y038036D01*
X034365Y037959D02*
X034659Y037959D01*
X034753Y037882D02*
X034335Y037882D01*
X034283Y037804D02*
X035507Y037804D01*
X035507Y037882D02*
X035080Y037882D01*
X035174Y037959D02*
X035538Y037959D01*
X035592Y038036D02*
X035221Y038036D01*
X035245Y038113D02*
X035706Y038113D01*
X035938Y038113D02*
X036111Y038113D01*
X036098Y038036D02*
X036052Y038036D01*
X036137Y037804D02*
X036180Y037804D01*
X036124Y037727D02*
X036290Y037727D01*
X035624Y037573D02*
X035253Y037573D01*
X035218Y037650D02*
X035552Y037650D01*
X035520Y037727D02*
X035140Y037727D01*
X034936Y037882D02*
X034897Y037882D01*
X034897Y037959D02*
X034936Y037959D01*
X034936Y038036D02*
X034897Y038036D01*
X034897Y038113D02*
X034936Y038113D01*
X034936Y038268D02*
X034897Y038268D01*
X034897Y038345D02*
X034936Y038345D01*
X034936Y038422D02*
X034897Y038422D01*
X035142Y038422D02*
X037791Y038422D01*
X037791Y038809D02*
X032311Y038809D01*
X032385Y038886D02*
X037791Y038886D01*
X037791Y038963D02*
X032417Y038963D01*
X032436Y039040D02*
X037791Y039040D01*
X037791Y039118D02*
X032436Y039118D01*
X032418Y039195D02*
X037791Y039195D01*
X037791Y039272D02*
X032386Y039272D01*
X032314Y039349D02*
X037791Y039349D01*
X037791Y037109D02*
X027554Y037109D01*
X027554Y037032D02*
X037791Y037032D01*
X037791Y036955D02*
X027554Y036955D01*
X027554Y036878D02*
X037791Y036878D01*
X037791Y036800D02*
X027554Y036800D01*
X027554Y036723D02*
X037791Y036723D01*
X037791Y036646D02*
X027554Y036646D01*
X027554Y036569D02*
X037791Y036569D01*
X037791Y036491D02*
X027554Y036491D01*
X027554Y036414D02*
X037791Y036414D01*
X037791Y036337D02*
X035888Y036337D01*
X035908Y036333D02*
X035851Y036344D01*
X035822Y036344D01*
X035793Y036344D01*
X035736Y036333D01*
X035682Y036311D01*
X035634Y036278D01*
X035593Y036237D01*
X035560Y036189D01*
X035538Y036135D01*
X035527Y036078D01*
X035527Y036049D01*
X035822Y036049D01*
X035822Y036344D01*
X035822Y036049D01*
X035822Y036049D01*
X035822Y036049D01*
X036117Y036049D01*
X036117Y036078D01*
X036106Y036135D01*
X036084Y036189D01*
X036051Y036237D01*
X036010Y036278D01*
X035962Y036311D01*
X035908Y036333D01*
X035822Y036337D02*
X035822Y036337D01*
X035756Y036337D02*
X034769Y036337D01*
X034819Y036316D02*
X034704Y036364D01*
X034578Y036364D01*
X034463Y036316D01*
X034374Y036227D01*
X034326Y036112D01*
X034326Y035986D01*
X034374Y035871D01*
X034463Y035782D01*
X034578Y035734D01*
X034704Y035734D01*
X034819Y035782D01*
X034908Y035871D01*
X034956Y035986D01*
X034956Y036112D01*
X034908Y036227D01*
X034819Y036316D01*
X034876Y036260D02*
X035615Y036260D01*
X035558Y036182D02*
X034927Y036182D01*
X034956Y036105D02*
X035532Y036105D01*
X035527Y036049D02*
X035527Y036020D01*
X035538Y035963D01*
X035560Y035909D01*
X035593Y035861D01*
X035634Y035820D01*
X035682Y035787D01*
X035736Y035765D01*
X035793Y035754D01*
X035822Y035754D01*
X035851Y035754D01*
X035908Y035765D01*
X035962Y035787D01*
X036010Y035820D01*
X036051Y035861D01*
X036084Y035909D01*
X036106Y035963D01*
X036117Y036020D01*
X036117Y036049D01*
X035822Y036049D01*
X035822Y036049D01*
X035527Y036049D01*
X035527Y036028D02*
X034956Y036028D01*
X034941Y035951D02*
X035543Y035951D01*
X035584Y035873D02*
X034909Y035873D01*
X034834Y035796D02*
X035669Y035796D01*
X035822Y035796D02*
X035822Y035796D01*
X035822Y035754D02*
X035822Y036049D01*
X035822Y036049D01*
X035822Y035754D01*
X035822Y035873D02*
X035822Y035873D01*
X035822Y035951D02*
X035822Y035951D01*
X035822Y036028D02*
X035822Y036028D01*
X035822Y036105D02*
X035822Y036105D01*
X035822Y036182D02*
X035822Y036182D01*
X035822Y036260D02*
X035822Y036260D01*
X036029Y036260D02*
X037791Y036260D01*
X037791Y036182D02*
X036086Y036182D01*
X036112Y036105D02*
X037791Y036105D01*
X037791Y036028D02*
X036117Y036028D01*
X036101Y035951D02*
X037791Y035951D01*
X037791Y035873D02*
X036060Y035873D01*
X035975Y035796D02*
X037791Y035796D01*
X037791Y035719D02*
X027554Y035719D01*
X027554Y035796D02*
X030117Y035796D01*
X030132Y035782D02*
X030248Y035734D01*
X030373Y035734D01*
X030489Y035782D01*
X030577Y035871D01*
X030625Y035986D01*
X030625Y036112D01*
X030577Y036227D01*
X030489Y036316D01*
X030373Y036364D01*
X030248Y036364D01*
X030132Y036316D01*
X030043Y036227D01*
X029995Y036112D01*
X029995Y035986D01*
X030043Y035871D01*
X030132Y035782D01*
X030042Y035873D02*
X027554Y035873D01*
X027554Y035951D02*
X030010Y035951D01*
X029995Y036028D02*
X027554Y036028D01*
X027554Y036105D02*
X029995Y036105D01*
X030025Y036182D02*
X027554Y036182D01*
X027554Y036260D02*
X030076Y036260D01*
X030182Y036337D02*
X027554Y036337D01*
X027357Y036337D02*
X013893Y036337D01*
X013893Y036414D02*
X015433Y036414D01*
X015424Y036418D02*
X015555Y036364D01*
X015696Y036364D01*
X015826Y036418D01*
X015926Y036518D01*
X015960Y036600D01*
X015994Y036518D01*
X016094Y036418D01*
X016224Y036364D01*
X016365Y036364D01*
X016495Y036418D01*
X016595Y036518D01*
X016649Y036648D01*
X016649Y036789D01*
X016595Y036919D01*
X016495Y037019D01*
X016365Y037073D01*
X016224Y037073D01*
X016094Y037019D01*
X015994Y036919D01*
X015960Y036836D01*
X015926Y036919D01*
X015837Y037007D01*
X015870Y036994D01*
X016011Y036994D01*
X016141Y037048D01*
X016241Y037147D01*
X016294Y037278D01*
X016294Y037419D01*
X016241Y037549D01*
X016141Y037649D01*
X016011Y037702D01*
X015870Y037702D01*
X015739Y037649D01*
X015640Y037549D01*
X015586Y037419D01*
X015586Y037278D01*
X015640Y037147D01*
X015728Y037059D01*
X015696Y037073D01*
X015555Y037073D01*
X015424Y037019D01*
X015325Y036919D01*
X015271Y036789D01*
X015271Y036648D01*
X015325Y036518D01*
X015424Y036418D01*
X015351Y036491D02*
X013893Y036491D01*
X013893Y036569D02*
X015304Y036569D01*
X015272Y036646D02*
X013893Y036646D01*
X013893Y036723D02*
X015271Y036723D01*
X015276Y036800D02*
X013893Y036800D01*
X013893Y036878D02*
X015308Y036878D01*
X015361Y036955D02*
X013893Y036955D01*
X013893Y037032D02*
X015457Y037032D01*
X015624Y037187D02*
X013893Y037187D01*
X013893Y037264D02*
X015592Y037264D01*
X015586Y037341D02*
X013893Y037341D01*
X013893Y037418D02*
X015586Y037418D01*
X015618Y037496D02*
X013893Y037496D01*
X013893Y037573D02*
X015664Y037573D01*
X015743Y037650D02*
X013893Y037650D01*
X013893Y037727D02*
X017839Y037727D01*
X017830Y037750D02*
X017884Y037620D01*
X017984Y037520D01*
X018019Y037506D01*
X017984Y037491D01*
X017884Y037391D01*
X017830Y037261D01*
X017830Y037120D01*
X017884Y036990D01*
X017984Y036890D01*
X018114Y036836D01*
X018255Y036836D01*
X018385Y036890D01*
X018485Y036990D01*
X018527Y037092D01*
X018553Y037029D01*
X018653Y036930D01*
X018783Y036876D01*
X018924Y036876D01*
X019054Y036930D01*
X019154Y037029D01*
X019208Y037160D01*
X019208Y037301D01*
X019154Y037431D01*
X019059Y037525D01*
X019154Y037620D01*
X019208Y037750D01*
X019208Y037891D01*
X019154Y038021D01*
X019059Y038116D01*
X019154Y038210D01*
X019208Y038341D01*
X019208Y038482D01*
X019154Y038612D01*
X019054Y038712D01*
X018924Y038765D01*
X018783Y038765D01*
X018653Y038712D01*
X018553Y038612D01*
X018519Y038529D01*
X018485Y038612D01*
X018385Y038712D01*
X018255Y038765D01*
X018114Y038765D01*
X017984Y038712D01*
X017884Y038612D01*
X017830Y038482D01*
X017830Y038341D01*
X017884Y038210D01*
X017978Y038116D01*
X017884Y038021D01*
X017830Y037891D01*
X017830Y037750D01*
X017830Y037804D02*
X013893Y037804D01*
X013893Y037882D02*
X017830Y037882D01*
X017858Y037959D02*
X016721Y037959D01*
X016709Y037947D02*
X016798Y038036D01*
X017899Y038036D01*
X017976Y038113D02*
X016830Y038113D01*
X016846Y038152D02*
X016798Y038036D01*
X016846Y038152D02*
X016846Y038277D01*
X016798Y038393D01*
X016709Y038481D01*
X016593Y038529D01*
X016468Y038529D01*
X016352Y038481D01*
X016264Y038393D01*
X016216Y038277D01*
X016216Y038152D01*
X016264Y038036D01*
X016352Y037947D01*
X016468Y037899D01*
X016593Y037899D01*
X016709Y037947D01*
X016846Y038191D02*
X017904Y038191D01*
X017860Y038268D02*
X016846Y038268D01*
X016817Y038345D02*
X017830Y038345D01*
X017830Y038422D02*
X016768Y038422D01*
X016665Y038500D02*
X017837Y038500D01*
X017869Y038577D02*
X015661Y038577D01*
X015665Y038585D02*
X015617Y038469D01*
X015528Y038380D01*
X015412Y038332D01*
X015287Y038332D01*
X015171Y038380D01*
X015083Y038469D01*
X015035Y038585D01*
X015035Y038710D01*
X015083Y038826D01*
X015171Y038914D01*
X015287Y038962D01*
X015412Y038962D01*
X015528Y038914D01*
X015617Y038826D01*
X015665Y038710D01*
X015665Y038585D01*
X015665Y038654D02*
X017926Y038654D01*
X018031Y038731D02*
X015656Y038731D01*
X015624Y038809D02*
X027357Y038809D01*
X027357Y038886D02*
X015557Y038886D01*
X015629Y038500D02*
X016397Y038500D01*
X016293Y038422D02*
X015570Y038422D01*
X015443Y038345D02*
X016244Y038345D01*
X016216Y038268D02*
X013893Y038268D01*
X013893Y038345D02*
X015256Y038345D01*
X015129Y038422D02*
X013893Y038422D01*
X013893Y038500D02*
X015070Y038500D01*
X015038Y038577D02*
X013893Y038577D01*
X013893Y038654D02*
X015035Y038654D01*
X015043Y038731D02*
X013893Y038731D01*
X013893Y038809D02*
X015075Y038809D01*
X015143Y038886D02*
X013893Y038886D01*
X013893Y038963D02*
X027357Y038963D01*
X027357Y039040D02*
X013893Y039040D01*
X013893Y039118D02*
X027357Y039118D01*
X027357Y038731D02*
X019006Y038731D01*
X019112Y038654D02*
X027357Y038654D01*
X027357Y038577D02*
X019168Y038577D01*
X019200Y038500D02*
X021908Y038500D01*
X021864Y038481D02*
X021775Y038393D01*
X021728Y038277D01*
X021728Y038152D01*
X021775Y038036D01*
X019139Y038036D01*
X019180Y037959D02*
X021759Y037959D01*
X021775Y037999D02*
X021728Y037883D01*
X021728Y037758D01*
X021775Y037642D01*
X021864Y037554D01*
X021980Y037506D01*
X022105Y037506D01*
X022221Y037554D01*
X022310Y037642D01*
X022357Y037758D01*
X022357Y037883D01*
X022310Y037999D01*
X022291Y038017D01*
X022310Y038036D01*
X027357Y038036D01*
X027357Y037959D02*
X022326Y037959D01*
X022310Y038036D02*
X022357Y038152D01*
X022357Y038277D01*
X022310Y038393D01*
X022221Y038481D01*
X022105Y038529D01*
X021980Y038529D01*
X021864Y038481D01*
X021805Y038422D02*
X019208Y038422D01*
X019208Y038345D02*
X021756Y038345D01*
X021728Y038268D02*
X019178Y038268D01*
X019134Y038191D02*
X021728Y038191D01*
X021743Y038113D02*
X019062Y038113D01*
X019208Y037882D02*
X021728Y037882D01*
X021728Y037804D02*
X019208Y037804D01*
X019198Y037727D02*
X021740Y037727D01*
X021772Y037650D02*
X019166Y037650D01*
X019107Y037573D02*
X021845Y037573D01*
X022240Y037573D02*
X027357Y037573D01*
X027357Y037650D02*
X022313Y037650D01*
X022345Y037727D02*
X027357Y037727D01*
X027357Y037804D02*
X022357Y037804D01*
X022357Y037882D02*
X027357Y037882D01*
X027357Y038113D02*
X022342Y038113D01*
X022357Y038191D02*
X027357Y038191D01*
X027357Y038268D02*
X022357Y038268D01*
X022329Y038345D02*
X027357Y038345D01*
X027357Y038422D02*
X022280Y038422D01*
X022177Y038500D02*
X027357Y038500D01*
X027357Y037496D02*
X026307Y037496D01*
X026376Y037467D02*
X026188Y037545D01*
X025984Y037545D01*
X025796Y037467D01*
X025652Y037323D01*
X025586Y037163D01*
X025520Y037323D01*
X025376Y037467D01*
X025188Y037545D01*
X024984Y037545D01*
X024796Y037467D01*
X024652Y037323D01*
X024574Y037135D01*
X024574Y036931D01*
X024652Y036743D01*
X024796Y036599D01*
X024984Y036521D01*
X025188Y036521D01*
X025376Y036599D01*
X025520Y036743D01*
X025586Y036903D01*
X025652Y036743D01*
X025796Y036599D01*
X025984Y036521D01*
X026188Y036521D01*
X026376Y036599D01*
X026520Y036743D01*
X026598Y036931D01*
X026598Y037135D01*
X026520Y037323D01*
X026376Y037467D01*
X026425Y037418D02*
X027357Y037418D01*
X027357Y037341D02*
X026502Y037341D01*
X026544Y037264D02*
X027357Y037264D01*
X027357Y037187D02*
X026576Y037187D01*
X026598Y037109D02*
X027357Y037109D01*
X027357Y037032D02*
X026598Y037032D01*
X026598Y036955D02*
X027357Y036955D01*
X027357Y036878D02*
X026575Y036878D01*
X026543Y036800D02*
X027357Y036800D01*
X027357Y036723D02*
X026500Y036723D01*
X026422Y036646D02*
X027357Y036646D01*
X027357Y036569D02*
X026302Y036569D01*
X025870Y036569D02*
X025302Y036569D01*
X025422Y036646D02*
X025749Y036646D01*
X025672Y036723D02*
X025500Y036723D01*
X025543Y036800D02*
X025628Y036800D01*
X025596Y036878D02*
X025575Y036878D01*
X025576Y037187D02*
X025595Y037187D01*
X025627Y037264D02*
X025544Y037264D01*
X025502Y037341D02*
X025670Y037341D01*
X025747Y037418D02*
X025425Y037418D01*
X025307Y037496D02*
X025865Y037496D01*
X024865Y037496D02*
X019089Y037496D01*
X019159Y037418D02*
X024747Y037418D01*
X024670Y037341D02*
X019191Y037341D01*
X019208Y037264D02*
X024627Y037264D01*
X024595Y037187D02*
X019208Y037187D01*
X019187Y037109D02*
X024574Y037109D01*
X024574Y037032D02*
X019155Y037032D01*
X019079Y036955D02*
X024574Y036955D01*
X024596Y036878D02*
X018929Y036878D01*
X018778Y036878D02*
X018354Y036878D01*
X018449Y036955D02*
X018628Y036955D01*
X018552Y037032D02*
X018502Y037032D01*
X018014Y036878D02*
X016612Y036878D01*
X016644Y036800D02*
X024628Y036800D01*
X024672Y036723D02*
X016649Y036723D01*
X016648Y036646D02*
X024749Y036646D01*
X024870Y036569D02*
X016616Y036569D01*
X016569Y036491D02*
X027357Y036491D01*
X027357Y036414D02*
X016486Y036414D01*
X016103Y036414D02*
X015817Y036414D01*
X015899Y036491D02*
X016020Y036491D01*
X015973Y036569D02*
X015947Y036569D01*
X015943Y036878D02*
X015977Y036878D01*
X016030Y036955D02*
X015890Y036955D01*
X016103Y037032D02*
X016126Y037032D01*
X016202Y037109D02*
X017834Y037109D01*
X017830Y037187D02*
X016257Y037187D01*
X016289Y037264D02*
X017831Y037264D01*
X017863Y037341D02*
X016294Y037341D01*
X016294Y037418D02*
X017911Y037418D01*
X017994Y037496D02*
X016263Y037496D01*
X016217Y037573D02*
X017931Y037573D01*
X017871Y037650D02*
X016137Y037650D01*
X016341Y037959D02*
X013893Y037959D01*
X013893Y038036D02*
X016264Y038036D01*
X016232Y038113D02*
X013893Y038113D01*
X013893Y038191D02*
X016216Y038191D01*
X016463Y037032D02*
X017866Y037032D01*
X017919Y036955D02*
X016559Y036955D01*
X015678Y037109D02*
X013893Y037109D01*
X013893Y036260D02*
X027357Y036260D01*
X027357Y036182D02*
X013893Y036182D01*
X013893Y036105D02*
X027357Y036105D01*
X027357Y036028D02*
X013893Y036028D01*
X013893Y035951D02*
X027357Y035951D01*
X027357Y035873D02*
X013893Y035873D01*
X013893Y035796D02*
X027357Y035796D01*
X027357Y035719D02*
X013893Y035719D01*
X013893Y035642D02*
X022418Y035642D01*
X022370Y035622D02*
X022265Y035517D01*
X022208Y035379D01*
X022208Y035230D01*
X022265Y035093D01*
X022370Y034988D01*
X022507Y034931D01*
X022656Y034931D01*
X022794Y034988D01*
X022899Y035093D01*
X022956Y035230D01*
X022956Y035379D01*
X022899Y035517D01*
X022794Y035622D01*
X022656Y035679D01*
X022507Y035679D01*
X022370Y035622D01*
X022313Y035564D02*
X013893Y035564D01*
X013893Y035487D02*
X022253Y035487D01*
X022221Y035410D02*
X015835Y035410D01*
X015814Y035419D02*
X015673Y035419D01*
X015543Y035365D01*
X015443Y035265D01*
X015389Y035135D01*
X015389Y034994D01*
X015443Y034864D01*
X015543Y034764D01*
X015673Y034710D01*
X015814Y034710D01*
X015944Y034764D01*
X016044Y034864D01*
X016098Y034994D01*
X016098Y035135D01*
X016044Y035265D01*
X015944Y035365D01*
X015814Y035419D01*
X015651Y035410D02*
X015048Y035410D01*
X015026Y035419D02*
X014885Y035419D01*
X014755Y035365D01*
X014655Y035265D01*
X014602Y035135D01*
X014602Y034994D01*
X014655Y034864D01*
X014755Y034764D01*
X014885Y034710D01*
X015026Y034710D01*
X015157Y034764D01*
X015256Y034864D01*
X015310Y034994D01*
X015310Y035135D01*
X015256Y035265D01*
X015157Y035365D01*
X015026Y035419D01*
X014864Y035410D02*
X014261Y035410D01*
X014401Y035333D02*
X014723Y035333D01*
X014651Y035256D02*
X014473Y035256D01*
X014505Y035178D02*
X014619Y035178D01*
X014602Y035101D02*
X014523Y035101D01*
X014523Y035024D02*
X014602Y035024D01*
X014621Y034947D02*
X014503Y034947D01*
X014471Y034869D02*
X014653Y034869D01*
X014727Y034792D02*
X014397Y034792D01*
X014250Y034715D02*
X014875Y034715D01*
X015037Y034715D02*
X015662Y034715D01*
X015825Y034715D02*
X027357Y034715D01*
X027357Y034792D02*
X015972Y034792D01*
X016046Y034869D02*
X027357Y034869D01*
X027357Y034947D02*
X022694Y034947D01*
X022830Y035024D02*
X027357Y035024D01*
X027357Y035101D02*
X022902Y035101D01*
X022934Y035178D02*
X027357Y035178D01*
X027357Y035256D02*
X022956Y035256D01*
X022956Y035333D02*
X027357Y035333D01*
X027357Y035410D02*
X022943Y035410D01*
X022911Y035487D02*
X027357Y035487D01*
X027357Y035564D02*
X022851Y035564D01*
X022746Y035642D02*
X027357Y035642D01*
X027554Y035642D02*
X037791Y035642D01*
X037791Y035564D02*
X027554Y035564D01*
X027554Y035487D02*
X037791Y035487D01*
X037791Y035410D02*
X027554Y035410D01*
X027554Y035333D02*
X037791Y035333D01*
X037791Y035256D02*
X027554Y035256D01*
X027554Y035178D02*
X037791Y035178D01*
X037791Y035101D02*
X027554Y035101D01*
X027554Y035024D02*
X037791Y035024D01*
X037791Y034947D02*
X027554Y034947D01*
X027554Y034869D02*
X037791Y034869D01*
X037791Y034792D02*
X027554Y034792D01*
X027554Y034715D02*
X037791Y034715D01*
X037791Y034638D02*
X027554Y034638D01*
X027554Y034560D02*
X034620Y034560D01*
X034637Y034578D02*
X034537Y034478D01*
X034483Y034348D01*
X034483Y034207D01*
X034537Y034077D01*
X034637Y033977D01*
X034767Y033923D01*
X034908Y033923D01*
X035038Y033977D01*
X035138Y034077D01*
X035192Y034207D01*
X035192Y034348D01*
X035138Y034478D01*
X035038Y034578D01*
X034908Y034632D01*
X034767Y034632D01*
X034637Y034578D01*
X034543Y034483D02*
X027554Y034483D01*
X027554Y034406D02*
X034508Y034406D01*
X034483Y034329D02*
X027554Y034329D01*
X027554Y034251D02*
X034483Y034251D01*
X034497Y034174D02*
X027554Y034174D01*
X027554Y034097D02*
X034529Y034097D01*
X034594Y034020D02*
X027554Y034020D01*
X027554Y033942D02*
X029727Y033942D01*
X029738Y033954D02*
X029650Y033865D01*
X027554Y033865D01*
X027554Y033788D02*
X029618Y033788D01*
X029602Y033749D02*
X029602Y033624D01*
X029650Y033508D01*
X029738Y033420D01*
X029854Y033372D01*
X029979Y033372D01*
X030095Y033420D01*
X030184Y033508D01*
X030231Y033624D01*
X030231Y033749D01*
X030184Y033865D01*
X030095Y033954D01*
X029979Y034002D01*
X029854Y034002D01*
X029738Y033954D01*
X029650Y033865D02*
X029602Y033749D01*
X029602Y033711D02*
X027554Y033711D01*
X027554Y033633D02*
X029602Y033633D01*
X029630Y033556D02*
X027554Y033556D01*
X027554Y033479D02*
X029679Y033479D01*
X029781Y033402D02*
X027554Y033402D01*
X027554Y033325D02*
X037791Y033325D01*
X037791Y033402D02*
X030052Y033402D01*
X030154Y033479D02*
X037791Y033479D01*
X037791Y033556D02*
X030203Y033556D01*
X030231Y033633D02*
X037791Y033633D01*
X037791Y033711D02*
X030231Y033711D01*
X030215Y033788D02*
X037791Y033788D01*
X037791Y033865D02*
X030183Y033865D01*
X030106Y033942D02*
X034720Y033942D01*
X034955Y033942D02*
X037791Y033942D01*
X037791Y034020D02*
X035081Y034020D01*
X035147Y034097D02*
X037791Y034097D01*
X037791Y034174D02*
X035179Y034174D01*
X035192Y034251D02*
X037791Y034251D01*
X037791Y034329D02*
X035192Y034329D01*
X035168Y034406D02*
X037791Y034406D01*
X037791Y034483D02*
X035133Y034483D01*
X035056Y034560D02*
X037791Y034560D01*
X037791Y033247D02*
X027554Y033247D01*
X027554Y033170D02*
X034444Y033170D01*
X034428Y033159D02*
X034381Y033113D01*
X034344Y033058D01*
X034319Y032997D01*
X034306Y032932D01*
X034306Y032919D01*
X034621Y032919D01*
X034621Y032880D01*
X034306Y032880D01*
X034306Y032866D01*
X034319Y032802D01*
X034344Y032741D01*
X034381Y032686D01*
X034428Y032639D01*
X034482Y032603D01*
X034543Y032578D01*
X034608Y032565D01*
X034621Y032565D01*
X034621Y032880D01*
X034661Y032880D01*
X034661Y032919D01*
X034976Y032919D01*
X034976Y032932D01*
X034963Y032997D01*
X034937Y033058D01*
X034901Y033113D01*
X034854Y033159D01*
X034799Y033196D01*
X034739Y033221D01*
X034674Y033234D01*
X034661Y033234D01*
X034661Y032919D01*
X034621Y032919D01*
X034621Y033234D01*
X034608Y033234D01*
X034543Y033221D01*
X034482Y033196D01*
X034428Y033159D01*
X034368Y033093D02*
X027554Y033093D01*
X027554Y033016D02*
X034327Y033016D01*
X034307Y032938D02*
X027554Y032938D01*
X027554Y032861D02*
X034307Y032861D01*
X034327Y032784D02*
X033611Y032784D01*
X033638Y032773D02*
X033522Y032821D01*
X033397Y032821D01*
X033281Y032773D01*
X033193Y032684D01*
X033145Y032568D01*
X033145Y032443D01*
X033193Y032327D01*
X033281Y032239D01*
X033397Y032191D01*
X033522Y032191D01*
X033638Y032239D01*
X033727Y032327D01*
X033775Y032443D01*
X033775Y032568D01*
X033727Y032684D01*
X033638Y032773D01*
X033704Y032707D02*
X034367Y032707D01*
X034443Y032629D02*
X033749Y032629D01*
X033775Y032552D02*
X037791Y032552D01*
X037791Y032475D02*
X033775Y032475D01*
X033756Y032398D02*
X037264Y032398D01*
X037218Y032379D02*
X037130Y032290D01*
X037082Y032175D01*
X037082Y032049D01*
X037130Y031934D01*
X034661Y031934D01*
X034661Y031935D02*
X034976Y031935D01*
X034976Y031948D01*
X034963Y032013D01*
X034937Y032074D01*
X034901Y032128D01*
X034854Y032175D01*
X034799Y032212D01*
X034739Y032237D01*
X034674Y032250D01*
X034661Y032250D01*
X034661Y031935D01*
X034661Y031895D01*
X034976Y031895D01*
X034976Y031882D01*
X034963Y031817D01*
X034937Y031757D01*
X034901Y031702D01*
X034854Y031655D01*
X034799Y031619D01*
X034739Y031593D01*
X034674Y031580D01*
X034661Y031580D01*
X034661Y031895D01*
X034621Y031895D01*
X034621Y031580D01*
X034608Y031580D01*
X034543Y031593D01*
X034482Y031619D01*
X034428Y031655D01*
X034381Y031702D01*
X034344Y031757D01*
X034319Y031817D01*
X034306Y031882D01*
X034306Y031895D01*
X034621Y031895D01*
X034621Y031935D01*
X034621Y032250D01*
X034608Y032250D01*
X034543Y032237D01*
X034482Y032212D01*
X034428Y032175D01*
X034381Y032128D01*
X034344Y032074D01*
X034319Y032013D01*
X034306Y031948D01*
X034306Y031935D01*
X034621Y031935D01*
X034661Y031935D01*
X034621Y031934D02*
X027554Y031934D01*
X027554Y031857D02*
X034311Y031857D01*
X034335Y031780D02*
X027554Y031780D01*
X027554Y031702D02*
X034380Y031702D01*
X034472Y031625D02*
X027554Y031625D01*
X027579Y031548D02*
X037791Y031548D01*
X037791Y031625D02*
X034810Y031625D01*
X034901Y031702D02*
X037791Y031702D01*
X037791Y031780D02*
X034947Y031780D01*
X034971Y031857D02*
X037206Y031857D01*
X037218Y031845D02*
X037334Y031797D01*
X037459Y031797D01*
X037575Y031845D01*
X037664Y031934D01*
X037791Y031934D01*
X037791Y031857D02*
X037587Y031857D01*
X037664Y031934D02*
X037712Y032049D01*
X037712Y032175D01*
X037664Y032290D01*
X037575Y032379D01*
X037459Y032427D01*
X037334Y032427D01*
X037218Y032379D01*
X037160Y032320D02*
X033720Y032320D01*
X033643Y032243D02*
X034575Y032243D01*
X034621Y032243D02*
X034661Y032243D01*
X034707Y032243D02*
X037110Y032243D01*
X037082Y032166D02*
X034863Y032166D01*
X034927Y032089D02*
X037082Y032089D01*
X037098Y032011D02*
X034963Y032011D01*
X034661Y032011D02*
X034621Y032011D01*
X034621Y032089D02*
X034661Y032089D01*
X034661Y032166D02*
X034621Y032166D01*
X034419Y032166D02*
X027554Y032166D01*
X027554Y032243D02*
X029930Y032243D01*
X029935Y032239D02*
X030051Y032191D01*
X030176Y032191D01*
X030292Y032239D01*
X030380Y032327D01*
X030428Y032443D01*
X030428Y032568D01*
X030380Y032684D01*
X030292Y032773D01*
X030176Y032821D01*
X030051Y032821D01*
X029935Y032773D01*
X029846Y032684D01*
X029798Y032568D01*
X029798Y032443D01*
X029846Y032327D01*
X029935Y032239D01*
X029853Y032320D02*
X027554Y032320D01*
X027554Y032398D02*
X029817Y032398D01*
X029798Y032475D02*
X027554Y032475D01*
X027554Y032552D02*
X029798Y032552D01*
X029824Y032629D02*
X027554Y032629D01*
X027554Y032707D02*
X029869Y032707D01*
X029962Y032784D02*
X027554Y032784D01*
X027357Y032784D02*
X024168Y032784D01*
X024168Y032793D02*
X024100Y032959D01*
X023972Y033086D01*
X023806Y033155D01*
X023626Y033155D01*
X023459Y033086D01*
X023332Y032959D01*
X023263Y032793D01*
X023263Y032612D01*
X023332Y032446D01*
X023459Y032319D01*
X023626Y032250D01*
X023806Y032250D01*
X023972Y032319D01*
X024100Y032446D01*
X024168Y032612D01*
X024168Y032793D01*
X024140Y032861D02*
X027357Y032861D01*
X027357Y032938D02*
X024108Y032938D01*
X024043Y033016D02*
X027357Y033016D01*
X027357Y033093D02*
X023956Y033093D01*
X024168Y032707D02*
X027357Y032707D01*
X027357Y032629D02*
X024168Y032629D01*
X024144Y032552D02*
X027357Y032552D01*
X027357Y032475D02*
X024112Y032475D01*
X024051Y032398D02*
X027357Y032398D01*
X027357Y032320D02*
X023974Y032320D01*
X023457Y032320D02*
X022990Y032320D01*
X022988Y032319D02*
X023115Y032446D01*
X023184Y032612D01*
X023184Y032793D01*
X023115Y032959D01*
X022988Y033086D01*
X022822Y033155D01*
X022641Y033155D01*
X022475Y033086D01*
X022348Y032959D01*
X022279Y032793D01*
X022279Y032612D01*
X022348Y032446D01*
X022475Y032319D01*
X022641Y032250D01*
X022822Y032250D01*
X022988Y032319D01*
X023067Y032398D02*
X023380Y032398D01*
X023320Y032475D02*
X023127Y032475D01*
X023159Y032552D02*
X023288Y032552D01*
X023263Y032629D02*
X023184Y032629D01*
X023184Y032707D02*
X023263Y032707D01*
X023263Y032784D02*
X023184Y032784D01*
X023156Y032861D02*
X023291Y032861D01*
X023323Y032938D02*
X023124Y032938D01*
X023059Y033016D02*
X023389Y033016D01*
X023475Y033093D02*
X022972Y033093D01*
X022491Y033093D02*
X021747Y033093D01*
X021747Y033096D02*
X021452Y033096D01*
X021452Y032801D01*
X021481Y032801D01*
X021538Y032812D01*
X021592Y032834D01*
X021640Y032867D01*
X021681Y032908D01*
X021714Y032956D01*
X021736Y033010D01*
X021747Y033067D01*
X021747Y033096D01*
X021747Y033125D01*
X021736Y033182D01*
X021714Y033236D01*
X021681Y033284D01*
X021640Y033326D01*
X021592Y033358D01*
X021538Y033380D01*
X021481Y033391D01*
X021452Y033391D01*
X021452Y033096D01*
X021452Y033096D01*
X021452Y033096D01*
X021452Y032801D01*
X021423Y032801D01*
X021366Y032812D01*
X021312Y032834D01*
X021264Y032867D01*
X021223Y032908D01*
X021190Y032956D01*
X021168Y033010D01*
X021157Y033067D01*
X021157Y033096D01*
X021452Y033096D01*
X021452Y033096D01*
X021747Y033096D01*
X021738Y033170D02*
X027357Y033170D01*
X027357Y033247D02*
X021706Y033247D01*
X021641Y033325D02*
X027357Y033325D01*
X027357Y033402D02*
X020881Y033402D01*
X020881Y033479D02*
X027357Y033479D01*
X027357Y033556D02*
X020850Y033556D01*
X020881Y033482D02*
X020818Y033633D01*
X020702Y033750D01*
X020550Y033813D01*
X020385Y033813D01*
X020234Y033750D01*
X020117Y033633D01*
X020054Y033482D01*
X020054Y033317D01*
X020117Y033165D01*
X020234Y033049D01*
X020385Y032986D01*
X020550Y032986D01*
X020702Y033049D01*
X020818Y033165D01*
X020881Y033317D01*
X020881Y033482D01*
X020881Y033325D02*
X021263Y033325D01*
X021264Y033326D02*
X021223Y033284D01*
X021190Y033236D01*
X021168Y033182D01*
X021157Y033125D01*
X021157Y033096D01*
X021452Y033096D01*
X021452Y033096D01*
X021452Y033391D01*
X021423Y033391D01*
X021366Y033380D01*
X021312Y033358D01*
X021264Y033326D01*
X021198Y033247D02*
X020852Y033247D01*
X020820Y033170D02*
X021166Y033170D01*
X021157Y033093D02*
X020746Y033093D01*
X020621Y033016D02*
X021167Y033016D01*
X021202Y032938D02*
X013893Y032938D01*
X013893Y032861D02*
X021272Y032861D01*
X021452Y032861D02*
X021452Y032861D01*
X021452Y032938D02*
X021452Y032938D01*
X021452Y033016D02*
X021452Y033016D01*
X021452Y033093D02*
X021452Y033093D01*
X021452Y033170D02*
X021452Y033170D01*
X021452Y033247D02*
X021452Y033247D01*
X021452Y033325D02*
X021452Y033325D01*
X021737Y033016D02*
X022404Y033016D01*
X022339Y032938D02*
X021702Y032938D01*
X021632Y032861D02*
X022307Y032861D01*
X022279Y032784D02*
X020620Y032784D01*
X020550Y032813D02*
X020702Y032750D01*
X020818Y032633D01*
X020881Y032482D01*
X020881Y032317D01*
X020818Y032165D01*
X020702Y032049D01*
X020550Y031986D01*
X020385Y031986D01*
X020234Y032049D01*
X020117Y032165D01*
X020054Y032317D01*
X020054Y032482D01*
X020117Y032633D01*
X020234Y032750D01*
X020385Y032813D01*
X020550Y032813D01*
X020745Y032707D02*
X022279Y032707D01*
X022279Y032629D02*
X020820Y032629D01*
X020852Y032552D02*
X022304Y032552D01*
X022336Y032475D02*
X020881Y032475D01*
X020881Y032398D02*
X022396Y032398D01*
X022473Y032320D02*
X020881Y032320D01*
X020850Y032243D02*
X026830Y032243D01*
X026893Y032269D02*
X026763Y032215D01*
X026663Y032116D01*
X026609Y031986D01*
X026609Y031845D01*
X026663Y031714D01*
X026763Y031615D01*
X026893Y031561D01*
X027034Y031561D01*
X027164Y031615D01*
X027264Y031714D01*
X027318Y031845D01*
X027318Y031986D01*
X027264Y032116D01*
X027164Y032215D01*
X027034Y032269D01*
X026893Y032269D01*
X027098Y032243D02*
X027357Y032243D01*
X027357Y032166D02*
X027214Y032166D01*
X027275Y032089D02*
X027357Y032089D01*
X027357Y032011D02*
X027307Y032011D01*
X027318Y031934D02*
X027357Y031934D01*
X027357Y031857D02*
X027318Y031857D01*
X027291Y031780D02*
X027357Y031780D01*
X027357Y031702D02*
X027252Y031702D01*
X027260Y031625D02*
X027175Y031625D01*
X027136Y031548D02*
X019171Y031548D01*
X019193Y031525D02*
X019094Y031625D01*
X018963Y031679D01*
X018822Y031679D01*
X018692Y031625D01*
X018593Y031525D01*
X018539Y031395D01*
X018539Y031254D01*
X018593Y031124D01*
X018692Y031024D01*
X018822Y030970D01*
X018963Y030970D01*
X019094Y031024D01*
X019193Y031124D01*
X019247Y031254D01*
X019247Y031395D01*
X019193Y031525D01*
X019216Y031471D02*
X027077Y031471D01*
X027045Y031394D02*
X019247Y031394D01*
X019247Y031316D02*
X027042Y031316D01*
X027052Y031239D02*
X019241Y031239D01*
X019209Y031162D02*
X027084Y031162D01*
X027152Y031085D02*
X019154Y031085D01*
X019053Y031007D02*
X027357Y031007D01*
X027357Y030930D02*
X013893Y030930D01*
X013893Y030853D02*
X027357Y030853D01*
X027357Y030776D02*
X013893Y030776D01*
X013893Y030698D02*
X027357Y030698D01*
X027357Y030621D02*
X015964Y030621D01*
X015944Y030641D02*
X016044Y030541D01*
X016098Y030411D01*
X016098Y030270D01*
X016044Y030140D01*
X015944Y030040D01*
X015814Y029986D01*
X015673Y029986D01*
X015543Y030040D01*
X015448Y030134D01*
X015353Y030040D01*
X015223Y029986D01*
X015082Y029986D01*
X014952Y030040D01*
X014852Y030140D01*
X014798Y030270D01*
X014798Y030411D01*
X014852Y030541D01*
X014952Y030641D01*
X015082Y030695D01*
X015223Y030695D01*
X015353Y030641D01*
X015448Y030546D01*
X015543Y030641D01*
X015673Y030695D01*
X015814Y030695D01*
X015944Y030641D01*
X016041Y030544D02*
X027357Y030544D01*
X027357Y030467D02*
X016074Y030467D01*
X016098Y030389D02*
X027357Y030389D01*
X027357Y030312D02*
X016098Y030312D01*
X016083Y030235D02*
X027357Y030235D01*
X027357Y030158D02*
X016051Y030158D01*
X015985Y030080D02*
X027357Y030080D01*
X027357Y030003D02*
X026841Y030003D01*
X026917Y029926D02*
X027357Y029926D01*
X027357Y029849D02*
X026949Y029849D01*
X026964Y029771D02*
X027357Y029771D01*
X027357Y029694D02*
X026964Y029694D01*
X026935Y029617D02*
X027357Y029617D01*
X027357Y029540D02*
X026884Y029540D01*
X026867Y029463D02*
X027357Y029463D01*
X027357Y029385D02*
X026885Y029385D01*
X026363Y029617D02*
X012987Y029617D01*
X012987Y029694D02*
X026334Y029694D01*
X026334Y029771D02*
X012987Y029771D01*
X012987Y029849D02*
X013230Y029849D01*
X013072Y029926D02*
X012987Y029926D01*
X012987Y030003D02*
X012994Y030003D01*
X012987Y029540D02*
X026308Y029540D01*
X026273Y029463D02*
X012987Y029463D01*
X012987Y029385D02*
X026255Y029385D01*
X026349Y029849D02*
X013532Y029849D01*
X013691Y029926D02*
X026381Y029926D01*
X026457Y030003D02*
X015855Y030003D01*
X015631Y030003D02*
X015265Y030003D01*
X015394Y030080D02*
X015502Y030080D01*
X015041Y030003D02*
X013768Y030003D01*
X013827Y030080D02*
X014911Y030080D01*
X014845Y030158D02*
X013859Y030158D01*
X013891Y030235D02*
X014813Y030235D01*
X014798Y030312D02*
X013893Y030312D01*
X013893Y030389D02*
X014798Y030389D01*
X014822Y030467D02*
X013893Y030467D01*
X013893Y030544D02*
X014855Y030544D01*
X014932Y030621D02*
X013893Y030621D01*
X013893Y031007D02*
X016371Y031007D01*
X016330Y031024D02*
X016460Y030970D01*
X016601Y030970D01*
X016731Y031024D01*
X016831Y031124D01*
X016885Y031254D01*
X016885Y031395D01*
X016831Y031525D01*
X016731Y031625D01*
X016601Y031679D01*
X016460Y031679D01*
X016330Y031625D01*
X016230Y031525D01*
X016176Y031395D01*
X016176Y031254D01*
X016230Y031124D01*
X016330Y031024D01*
X016270Y031085D02*
X013893Y031085D01*
X013893Y031162D02*
X016215Y031162D01*
X016183Y031239D02*
X013893Y031239D01*
X013893Y031316D02*
X016176Y031316D01*
X016176Y031394D02*
X013893Y031394D01*
X013893Y031471D02*
X016208Y031471D01*
X016253Y031548D02*
X013893Y031548D01*
X013893Y031625D02*
X016331Y031625D01*
X016731Y031625D02*
X017118Y031625D01*
X017117Y031625D02*
X017018Y031525D01*
X016964Y031395D01*
X016964Y031254D01*
X017018Y031124D01*
X017117Y031024D01*
X017248Y030970D01*
X017389Y030970D01*
X017519Y031024D01*
X017618Y031124D01*
X017672Y031254D01*
X017672Y031395D01*
X017618Y031525D01*
X017519Y031625D01*
X017389Y031679D01*
X017248Y031679D01*
X017117Y031625D01*
X017040Y031548D02*
X016808Y031548D01*
X016854Y031471D02*
X016995Y031471D01*
X016964Y031394D02*
X016885Y031394D01*
X016885Y031316D02*
X016964Y031316D01*
X016970Y031239D02*
X016879Y031239D01*
X016847Y031162D02*
X017002Y031162D01*
X017057Y031085D02*
X016792Y031085D01*
X016691Y031007D02*
X017158Y031007D01*
X017478Y031007D02*
X017945Y031007D01*
X017905Y031024D02*
X018035Y030970D01*
X018176Y030970D01*
X018306Y031024D01*
X018406Y031124D01*
X018460Y031254D01*
X018460Y031395D01*
X018406Y031525D01*
X018306Y031625D01*
X018176Y031679D01*
X018035Y031679D01*
X017905Y031625D01*
X017805Y031525D01*
X017751Y031395D01*
X017751Y031254D01*
X017805Y031124D01*
X017905Y031024D01*
X017844Y031085D02*
X017579Y031085D01*
X017634Y031162D02*
X017789Y031162D01*
X017757Y031239D02*
X017666Y031239D01*
X017672Y031316D02*
X017751Y031316D01*
X017751Y031394D02*
X017672Y031394D01*
X017641Y031471D02*
X017783Y031471D01*
X017828Y031548D02*
X017596Y031548D01*
X017518Y031625D02*
X017906Y031625D01*
X018305Y031625D02*
X018693Y031625D01*
X018615Y031548D02*
X018383Y031548D01*
X018428Y031471D02*
X018570Y031471D01*
X018539Y031394D02*
X018460Y031394D01*
X018460Y031316D02*
X018539Y031316D01*
X018545Y031239D02*
X018454Y031239D01*
X018422Y031162D02*
X018577Y031162D01*
X018632Y031085D02*
X018367Y031085D01*
X018266Y031007D02*
X018733Y031007D01*
X019093Y031625D02*
X026752Y031625D01*
X026675Y031702D02*
X013893Y031702D01*
X013893Y031780D02*
X026636Y031780D01*
X026609Y031857D02*
X013893Y031857D01*
X013893Y031934D02*
X026609Y031934D01*
X026620Y032011D02*
X020611Y032011D01*
X020742Y032089D02*
X026652Y032089D01*
X026714Y032166D02*
X020818Y032166D01*
X020324Y032011D02*
X013893Y032011D01*
X013893Y032089D02*
X020194Y032089D01*
X020117Y032166D02*
X013893Y032166D01*
X013893Y032243D02*
X020085Y032243D01*
X020054Y032320D02*
X013893Y032320D01*
X013893Y032398D02*
X020054Y032398D01*
X020054Y032475D02*
X013893Y032475D01*
X013893Y032552D02*
X020084Y032552D01*
X020116Y032629D02*
X013893Y032629D01*
X013893Y032707D02*
X020190Y032707D01*
X020316Y032784D02*
X013893Y032784D01*
X013893Y033016D02*
X020314Y033016D01*
X020190Y033093D02*
X013893Y033093D01*
X013893Y033170D02*
X020115Y033170D01*
X020083Y033247D02*
X013893Y033247D01*
X013893Y033325D02*
X020054Y033325D01*
X020054Y033402D02*
X013893Y033402D01*
X013893Y033479D02*
X020054Y033479D01*
X020085Y033556D02*
X013893Y033556D01*
X013893Y033633D02*
X020117Y033633D01*
X020194Y033711D02*
X013893Y033711D01*
X013893Y033788D02*
X020326Y033788D01*
X020610Y033788D02*
X027357Y033788D01*
X027357Y033865D02*
X013893Y033865D01*
X013893Y033942D02*
X027357Y033942D01*
X027357Y034020D02*
X013893Y034020D01*
X013893Y034097D02*
X027357Y034097D01*
X027357Y034174D02*
X013893Y034174D01*
X013893Y034251D02*
X027357Y034251D01*
X027357Y034329D02*
X013893Y034329D01*
X013893Y034406D02*
X027357Y034406D01*
X027357Y034483D02*
X013893Y034483D01*
X013893Y034560D02*
X027357Y034560D01*
X027357Y034638D02*
X013893Y034638D01*
X013893Y034715D02*
X014087Y034715D01*
X013940Y034792D02*
X013893Y034792D01*
X013893Y035333D02*
X013935Y035333D01*
X013893Y035410D02*
X014076Y035410D01*
X015189Y035333D02*
X015510Y035333D01*
X015439Y035256D02*
X015260Y035256D01*
X015292Y035178D02*
X015407Y035178D01*
X015389Y035101D02*
X015310Y035101D01*
X015310Y035024D02*
X015389Y035024D01*
X015409Y034947D02*
X015290Y034947D01*
X015258Y034869D02*
X015441Y034869D01*
X015515Y034792D02*
X015184Y034792D01*
X016078Y034947D02*
X022469Y034947D01*
X022334Y035024D02*
X016098Y035024D01*
X016098Y035101D02*
X022261Y035101D01*
X022229Y035178D02*
X016080Y035178D01*
X016048Y035256D02*
X022208Y035256D01*
X022208Y035333D02*
X015976Y035333D01*
X018499Y038577D02*
X018539Y038577D01*
X018595Y038654D02*
X018442Y038654D01*
X018337Y038731D02*
X018701Y038731D01*
X016260Y041435D02*
X024562Y041435D01*
X024562Y041512D02*
X016307Y041512D01*
X016334Y041589D02*
X024630Y041589D01*
X024562Y041358D02*
X016161Y041358D01*
X015877Y041358D02*
X015851Y041358D01*
X015883Y041280D02*
X023814Y041280D01*
X023798Y041269D02*
X023751Y041223D01*
X023714Y041168D01*
X023689Y041107D01*
X023676Y041043D01*
X023676Y041029D01*
X023991Y041029D01*
X023991Y041344D01*
X023978Y041344D01*
X023913Y041331D01*
X023852Y041306D01*
X023798Y041269D01*
X023738Y041203D02*
X015901Y041203D01*
X015901Y041126D02*
X023697Y041126D01*
X023678Y041049D02*
X015881Y041049D01*
X015849Y040971D02*
X023677Y040971D01*
X023697Y040894D02*
X015775Y040894D01*
X015627Y040817D02*
X023737Y040817D01*
X023813Y040740D02*
X013893Y040740D01*
X013893Y040817D02*
X015466Y040817D01*
X015318Y040894D02*
X013893Y040894D01*
X013893Y040971D02*
X015244Y040971D01*
X015212Y041049D02*
X013893Y041049D01*
X013893Y041126D02*
X015192Y041126D01*
X015192Y041203D02*
X013893Y041203D01*
X013893Y041280D02*
X015210Y041280D01*
X015242Y041358D02*
X013893Y041358D01*
X013893Y041435D02*
X015313Y041435D01*
X015453Y041512D02*
X013893Y041512D01*
X013893Y041589D02*
X015704Y041589D01*
X015704Y041666D02*
X013893Y041666D01*
X013893Y041744D02*
X015721Y041744D01*
X015755Y041821D02*
X013893Y041821D01*
X013893Y041898D02*
X015832Y041898D01*
X015731Y041512D02*
X015639Y041512D01*
X013893Y039890D02*
X021839Y039890D01*
X021762Y039813D02*
X013893Y039813D01*
X013893Y039735D02*
X021718Y039735D01*
X021688Y039658D02*
X013893Y039658D01*
X013893Y039581D02*
X021688Y039581D01*
X021696Y039504D02*
X013893Y039504D01*
X013893Y039427D02*
X021728Y039427D01*
X021784Y039349D02*
X013893Y039349D01*
X015426Y044756D02*
X018418Y044756D01*
X018386Y044833D02*
X015394Y044833D01*
X015322Y044911D02*
X018381Y044911D01*
X018389Y044988D02*
X015243Y044988D01*
X016098Y045760D02*
X016574Y045760D01*
X016436Y045837D02*
X016098Y045837D01*
X016098Y045915D02*
X016359Y045915D01*
X016318Y045992D02*
X016092Y045992D01*
X016060Y046069D02*
X016286Y046069D01*
X016275Y046146D02*
X016028Y046146D01*
X015987Y046224D02*
X016275Y046224D01*
X016285Y046301D02*
X015910Y046301D01*
X015832Y046378D02*
X016317Y046378D01*
X016356Y046455D02*
X015657Y046455D01*
X018906Y045142D02*
X019520Y045142D01*
X019432Y045065D02*
X018972Y045065D01*
X019004Y044988D02*
X019389Y044988D01*
X019365Y044911D02*
X019011Y044911D01*
X019006Y044833D02*
X019365Y044833D01*
X019386Y044756D02*
X018974Y044756D01*
X018913Y044679D02*
X019424Y044679D01*
X019501Y044602D02*
X018781Y044602D01*
X019860Y044602D02*
X021374Y044602D01*
X021354Y044679D02*
X019937Y044679D01*
X019975Y044756D02*
X021357Y044756D01*
X021380Y044833D02*
X019995Y044833D01*
X019995Y044911D02*
X021431Y044911D01*
X021547Y044988D02*
X019971Y044988D01*
X021190Y045606D02*
X021319Y045606D01*
X023991Y041280D02*
X024031Y041280D01*
X024031Y041203D02*
X023991Y041203D01*
X023991Y041126D02*
X024031Y041126D01*
X024031Y041049D02*
X023991Y041049D01*
X023991Y040971D02*
X024031Y040971D01*
X024031Y040894D02*
X023991Y040894D01*
X023991Y040817D02*
X024031Y040817D01*
X024031Y040740D02*
X023991Y040740D01*
X024209Y040740D02*
X024562Y040740D01*
X024562Y040817D02*
X024285Y040817D01*
X024325Y040894D02*
X024562Y040894D01*
X024562Y040971D02*
X024345Y040971D01*
X024344Y041049D02*
X024562Y041049D01*
X024562Y041126D02*
X024325Y041126D01*
X024284Y041203D02*
X024562Y041203D01*
X024562Y041280D02*
X024208Y041280D01*
X024188Y040585D02*
X024149Y040585D01*
X024149Y040508D02*
X024188Y040508D01*
X024188Y040431D02*
X024149Y040431D01*
X024149Y040353D02*
X023691Y040353D01*
X023723Y040276D02*
X023840Y040276D01*
X023865Y040199D02*
X023735Y040199D01*
X023735Y040122D02*
X023914Y040122D01*
X024009Y040044D02*
X023704Y040044D01*
X023618Y040431D02*
X023845Y040431D01*
X024149Y040276D02*
X024188Y040276D01*
X024188Y040321D02*
X024188Y040006D01*
X024201Y040006D01*
X024266Y040018D01*
X024327Y040044D01*
X024382Y040080D01*
X024428Y040127D01*
X024465Y040182D01*
X024490Y040243D01*
X024503Y040307D01*
X024503Y040321D01*
X024188Y040321D01*
X024188Y040353D02*
X024562Y040353D01*
X024562Y040276D02*
X024497Y040276D01*
X024472Y040199D02*
X024562Y040199D01*
X024562Y040122D02*
X024423Y040122D01*
X024328Y040044D02*
X024562Y040044D01*
X024188Y040044D02*
X024149Y040044D01*
X024149Y040122D02*
X024188Y040122D01*
X024188Y040199D02*
X024149Y040199D01*
X024492Y040431D02*
X024562Y040431D01*
X024562Y040508D02*
X024459Y040508D01*
X024397Y040585D02*
X024562Y040585D01*
X025640Y042284D02*
X026779Y042284D01*
X030505Y038268D02*
X033855Y038268D01*
X033781Y038191D02*
X030579Y038191D01*
X030438Y036337D02*
X034513Y036337D01*
X034406Y036260D02*
X030545Y036260D01*
X030596Y036182D02*
X034355Y036182D01*
X034326Y036105D02*
X030625Y036105D01*
X030625Y036028D02*
X034326Y036028D01*
X034341Y035951D02*
X030610Y035951D01*
X030578Y035873D02*
X034373Y035873D01*
X034448Y035796D02*
X030503Y035796D01*
X030265Y032784D02*
X033308Y032784D01*
X033215Y032707D02*
X030358Y032707D01*
X030403Y032629D02*
X033170Y032629D01*
X033145Y032552D02*
X030428Y032552D01*
X030428Y032475D02*
X033145Y032475D01*
X033164Y032398D02*
X030410Y032398D01*
X030374Y032320D02*
X033200Y032320D01*
X033277Y032243D02*
X030296Y032243D01*
X032179Y029308D02*
X032295Y029356D01*
X032420Y029356D01*
X032536Y029308D01*
X034243Y029308D01*
X034266Y029286D02*
X034381Y029238D01*
X034507Y029238D01*
X034622Y029286D01*
X034680Y029344D01*
X034680Y029286D01*
X034734Y029155D01*
X034834Y029056D01*
X034964Y029002D01*
X035105Y029002D01*
X035235Y029056D01*
X035335Y029155D01*
X035389Y029286D01*
X035389Y029426D01*
X035335Y029557D01*
X035235Y029656D01*
X035105Y029710D01*
X034964Y029710D01*
X034834Y029656D01*
X034759Y029582D01*
X034759Y029616D01*
X034711Y029731D01*
X034622Y029820D01*
X034507Y029868D01*
X034381Y029868D01*
X034266Y029820D01*
X034177Y029731D01*
X034129Y029616D01*
X034129Y029490D01*
X034177Y029374D01*
X034266Y029286D01*
X034173Y029385D02*
X027554Y029385D01*
X027554Y029308D02*
X032179Y029308D01*
X032090Y029219D01*
X032042Y029104D01*
X032042Y028978D01*
X032090Y028863D01*
X032112Y028841D01*
X032100Y028836D01*
X032012Y028747D01*
X031981Y028673D01*
X031948Y028687D01*
X031822Y028687D01*
X031707Y028639D01*
X031618Y028550D01*
X031570Y028434D01*
X031570Y028309D01*
X031618Y028193D01*
X031707Y028105D01*
X031822Y028057D01*
X031948Y028057D01*
X032063Y028105D01*
X032152Y028193D01*
X032183Y028267D01*
X032216Y028254D01*
X032341Y028254D01*
X032457Y028302D01*
X032546Y028390D01*
X032594Y028506D01*
X032594Y028631D01*
X032546Y028747D01*
X032524Y028769D01*
X032536Y028774D01*
X032624Y028863D01*
X032672Y028978D01*
X032672Y029104D01*
X032624Y029219D01*
X032536Y029308D01*
X032613Y029231D02*
X034703Y029231D01*
X034680Y029308D02*
X034645Y029308D01*
X034736Y029154D02*
X032652Y029154D01*
X032672Y029076D02*
X034813Y029076D01*
X035256Y029076D02*
X036462Y029076D01*
X036431Y029089D02*
X036547Y029041D01*
X036672Y029041D01*
X036788Y029089D01*
X036876Y029178D01*
X036924Y029293D01*
X036924Y029419D01*
X036876Y029534D01*
X036788Y029623D01*
X036672Y029671D01*
X036547Y029671D01*
X036431Y029623D01*
X036342Y029534D01*
X036294Y029419D01*
X036294Y029293D01*
X036342Y029178D01*
X036431Y029089D01*
X036366Y029154D02*
X035333Y029154D01*
X035366Y029231D02*
X036320Y029231D01*
X036294Y029308D02*
X035389Y029308D01*
X035389Y029385D02*
X036294Y029385D01*
X036313Y029463D02*
X035374Y029463D01*
X035342Y029540D02*
X036348Y029540D01*
X036425Y029617D02*
X035275Y029617D01*
X035144Y029694D02*
X037791Y029694D01*
X037791Y029617D02*
X036794Y029617D01*
X036871Y029540D02*
X037791Y029540D01*
X037791Y029463D02*
X036906Y029463D01*
X036924Y029385D02*
X037791Y029385D01*
X037791Y029308D02*
X036924Y029308D01*
X036898Y029231D02*
X037791Y029231D01*
X037791Y029154D02*
X036852Y029154D01*
X036757Y029076D02*
X037791Y029076D01*
X037791Y028999D02*
X032672Y028999D01*
X032649Y028922D02*
X037791Y028922D01*
X037791Y028845D02*
X032606Y028845D01*
X032525Y028767D02*
X037791Y028767D01*
X037791Y028690D02*
X032569Y028690D01*
X032594Y028613D02*
X037791Y028613D01*
X037791Y028536D02*
X036688Y028536D01*
X036608Y028569D02*
X036217Y028569D01*
X035855Y028419D01*
X035578Y028142D01*
X035428Y027780D01*
X035428Y027389D01*
X035578Y027027D01*
X035855Y026750D01*
X036217Y026600D01*
X036608Y026600D01*
X036970Y026750D01*
X037247Y027027D01*
X037397Y027389D01*
X037397Y027780D01*
X037247Y028142D01*
X036970Y028419D01*
X036608Y028569D01*
X036874Y028458D02*
X037791Y028458D01*
X037791Y028381D02*
X037008Y028381D01*
X037085Y028304D02*
X037791Y028304D01*
X037791Y028227D02*
X037162Y028227D01*
X037239Y028149D02*
X037791Y028149D01*
X037791Y028072D02*
X037276Y028072D01*
X037308Y027995D02*
X037791Y027995D01*
X037791Y027918D02*
X037340Y027918D01*
X037372Y027840D02*
X037791Y027840D01*
X037791Y027763D02*
X037397Y027763D01*
X037397Y027686D02*
X037791Y027686D01*
X037791Y027609D02*
X037397Y027609D01*
X037397Y027531D02*
X037791Y027531D01*
X037791Y027454D02*
X037397Y027454D01*
X037392Y027377D02*
X037791Y027377D01*
X037791Y027300D02*
X037360Y027300D01*
X037328Y027223D02*
X037791Y027223D01*
X037791Y027145D02*
X037296Y027145D01*
X037264Y027068D02*
X037791Y027068D01*
X037791Y026991D02*
X037211Y026991D01*
X037134Y026914D02*
X037791Y026914D01*
X037791Y026836D02*
X037056Y026836D01*
X036979Y026759D02*
X037791Y026759D01*
X037791Y026682D02*
X036806Y026682D01*
X036619Y026605D02*
X037791Y026605D01*
X036206Y026605D02*
X034894Y026605D01*
X034934Y026682D02*
X036019Y026682D01*
X035846Y026759D02*
X034956Y026759D01*
X034956Y026836D02*
X035769Y026836D01*
X035691Y026914D02*
X034934Y026914D01*
X034892Y026991D02*
X035614Y026991D01*
X035561Y027068D02*
X034809Y027068D01*
X034472Y027068D02*
X032902Y027068D01*
X032976Y026991D02*
X034389Y026991D01*
X034348Y026914D02*
X033008Y026914D01*
X033027Y026836D02*
X034326Y026836D01*
X034326Y026759D02*
X033027Y026759D01*
X033008Y026682D02*
X034348Y026682D01*
X034388Y026605D02*
X032976Y026605D01*
X032757Y027145D02*
X035529Y027145D01*
X035497Y027223D02*
X028024Y027223D01*
X028056Y027300D02*
X032143Y027300D01*
X032100Y027317D02*
X032216Y027269D01*
X032341Y027269D01*
X032457Y027317D01*
X032546Y027406D01*
X032594Y027522D01*
X032594Y027647D01*
X032582Y027674D01*
X032610Y027663D01*
X032735Y027663D01*
X032851Y027711D01*
X032939Y027800D01*
X032987Y027915D01*
X032987Y028041D01*
X032939Y028156D01*
X032851Y028245D01*
X032735Y028293D01*
X032610Y028293D01*
X032494Y028245D01*
X032405Y028156D01*
X032357Y028041D01*
X032357Y027915D01*
X032369Y027888D01*
X032341Y027899D01*
X032216Y027899D01*
X032100Y027851D01*
X032012Y027763D01*
X029838Y027763D01*
X029838Y027719D02*
X029790Y027603D01*
X029701Y027514D01*
X029585Y027466D01*
X029460Y027466D01*
X029344Y027514D01*
X029256Y027603D01*
X029208Y027719D01*
X029208Y027844D01*
X029256Y027960D01*
X029344Y028048D01*
X029460Y028096D01*
X029585Y028096D01*
X029701Y028048D01*
X029790Y027960D01*
X029838Y027844D01*
X029838Y027719D01*
X029824Y027686D02*
X031980Y027686D01*
X031964Y027647D02*
X031964Y027522D01*
X032012Y027406D01*
X032100Y027317D01*
X032041Y027377D02*
X028066Y027377D01*
X028064Y027454D02*
X031992Y027454D01*
X031964Y027531D02*
X029719Y027531D01*
X029792Y027609D02*
X031964Y027609D01*
X031964Y027647D02*
X032012Y027763D01*
X032089Y027840D02*
X029838Y027840D01*
X029807Y027918D02*
X032357Y027918D01*
X032357Y027995D02*
X029754Y027995D01*
X029643Y028072D02*
X031785Y028072D01*
X031662Y028149D02*
X027581Y028149D01*
X027554Y028072D02*
X029402Y028072D01*
X029291Y027995D02*
X027554Y027995D01*
X027554Y027918D02*
X029238Y027918D01*
X029208Y027840D02*
X027554Y027840D01*
X027554Y027763D02*
X029208Y027763D01*
X029221Y027686D02*
X027854Y027686D01*
X027975Y027609D02*
X029253Y027609D01*
X029327Y027531D02*
X028032Y027531D01*
X027954Y027145D02*
X032587Y027145D01*
X032442Y027068D02*
X027554Y027068D01*
X027554Y026991D02*
X032369Y026991D01*
X032337Y026914D02*
X027554Y026914D01*
X027554Y026836D02*
X032318Y026836D01*
X032318Y026759D02*
X027554Y026759D01*
X027554Y026682D02*
X032337Y026682D01*
X032369Y026605D02*
X027554Y026605D01*
X027554Y027686D02*
X027649Y027686D01*
X027638Y028227D02*
X031604Y028227D01*
X031572Y028304D02*
X027670Y028304D01*
X027672Y028381D02*
X031570Y028381D01*
X031580Y028458D02*
X027662Y028458D01*
X027630Y028536D02*
X031612Y028536D01*
X031681Y028613D02*
X027562Y028613D01*
X027554Y028690D02*
X031988Y028690D01*
X032032Y028767D02*
X027554Y028767D01*
X027554Y028845D02*
X032109Y028845D01*
X032066Y028922D02*
X027554Y028922D01*
X027554Y028999D02*
X032042Y028999D01*
X032042Y029076D02*
X027554Y029076D01*
X027554Y029154D02*
X032063Y029154D01*
X032102Y029231D02*
X027554Y029231D01*
X027554Y029463D02*
X034141Y029463D01*
X034129Y029540D02*
X027554Y029540D01*
X027554Y029617D02*
X034130Y029617D01*
X034162Y029694D02*
X027554Y029694D01*
X027554Y029771D02*
X034217Y029771D01*
X034335Y029849D02*
X027554Y029849D01*
X027554Y029926D02*
X037791Y029926D01*
X037791Y030003D02*
X027554Y030003D01*
X027554Y030080D02*
X037791Y030080D01*
X037791Y030158D02*
X027554Y030158D01*
X027554Y030235D02*
X037791Y030235D01*
X037791Y030312D02*
X027554Y030312D01*
X027554Y030389D02*
X037791Y030389D01*
X037791Y030467D02*
X027554Y030467D01*
X027554Y030544D02*
X037791Y030544D01*
X037791Y030621D02*
X027554Y030621D01*
X027554Y030698D02*
X037791Y030698D01*
X037791Y030776D02*
X027554Y030776D01*
X027554Y030853D02*
X037791Y030853D01*
X037791Y030930D02*
X027554Y030930D01*
X027554Y031007D02*
X037791Y031007D01*
X037791Y031085D02*
X027563Y031085D01*
X027631Y031162D02*
X037791Y031162D01*
X037791Y031239D02*
X027663Y031239D01*
X027672Y031316D02*
X037791Y031316D01*
X037791Y031394D02*
X027670Y031394D01*
X027638Y031471D02*
X037791Y031471D01*
X037791Y032011D02*
X037696Y032011D01*
X037712Y032089D02*
X037791Y032089D01*
X037791Y032166D02*
X037712Y032166D01*
X037683Y032243D02*
X037791Y032243D01*
X037791Y032320D02*
X037634Y032320D01*
X037530Y032398D02*
X037791Y032398D01*
X037791Y032629D02*
X034839Y032629D01*
X034854Y032639D02*
X034901Y032686D01*
X034937Y032741D01*
X034963Y032802D01*
X034976Y032866D01*
X034976Y032880D01*
X034661Y032880D01*
X034661Y032565D01*
X034674Y032565D01*
X034739Y032578D01*
X034799Y032603D01*
X034854Y032639D01*
X034915Y032707D02*
X037791Y032707D01*
X037791Y032784D02*
X034955Y032784D01*
X034975Y032861D02*
X037791Y032861D01*
X037791Y032938D02*
X034974Y032938D01*
X034955Y033016D02*
X037791Y033016D01*
X037791Y033093D02*
X034914Y033093D01*
X034838Y033170D02*
X037791Y033170D01*
X037130Y031934D02*
X037218Y031845D01*
X037791Y029849D02*
X034553Y029849D01*
X034671Y029771D02*
X037791Y029771D01*
X036137Y028536D02*
X032594Y028536D01*
X032574Y028458D02*
X035951Y028458D01*
X035817Y028381D02*
X032537Y028381D01*
X032459Y028304D02*
X035740Y028304D01*
X035663Y028227D02*
X032869Y028227D01*
X032942Y028149D02*
X035586Y028149D01*
X035549Y028072D02*
X032974Y028072D01*
X032987Y027995D02*
X035517Y027995D01*
X035485Y027918D02*
X032987Y027918D01*
X032956Y027840D02*
X035453Y027840D01*
X035428Y027763D02*
X032903Y027763D01*
X032790Y027686D02*
X035428Y027686D01*
X035428Y027609D02*
X032594Y027609D01*
X032594Y027531D02*
X035428Y027531D01*
X035428Y027454D02*
X032566Y027454D01*
X032517Y027377D02*
X035433Y027377D01*
X035465Y027300D02*
X032415Y027300D01*
X032370Y028072D02*
X031985Y028072D01*
X032108Y028149D02*
X032402Y028149D01*
X032476Y028227D02*
X032166Y028227D01*
X034758Y029617D02*
X034794Y029617D01*
X034726Y029694D02*
X034925Y029694D01*
X034661Y031625D02*
X034621Y031625D01*
X034621Y031702D02*
X034661Y031702D01*
X034661Y031780D02*
X034621Y031780D01*
X034621Y031857D02*
X034661Y031857D01*
X034319Y032011D02*
X027554Y032011D01*
X027554Y032089D02*
X034354Y032089D01*
X034621Y032629D02*
X034661Y032629D01*
X034661Y032707D02*
X034621Y032707D01*
X034621Y032784D02*
X034661Y032784D01*
X034661Y032861D02*
X034621Y032861D01*
X034621Y032938D02*
X034661Y032938D01*
X034661Y033016D02*
X034621Y033016D01*
X034621Y033093D02*
X034661Y033093D01*
X034661Y033170D02*
X034621Y033170D01*
X034771Y037727D02*
X034173Y037727D01*
X034245Y038268D02*
X034594Y038268D01*
X034310Y041280D02*
X033554Y041280D01*
X033460Y041280D02*
X033460Y041280D01*
X033460Y041358D02*
X033460Y041358D01*
X033460Y041435D02*
X033460Y041435D01*
X033460Y041512D02*
X033460Y041512D01*
X033460Y041589D02*
X033460Y041589D01*
X033460Y041666D02*
X033460Y041666D01*
X033460Y041744D02*
X033460Y041744D01*
X033460Y041821D02*
X033460Y041821D01*
X033602Y041821D02*
X034263Y041821D01*
X034172Y041744D02*
X033693Y041744D01*
X033736Y041666D02*
X034129Y041666D01*
X034109Y041589D02*
X033755Y041589D01*
X033751Y041512D02*
X034113Y041512D01*
X034137Y041435D02*
X033727Y041435D01*
X033674Y041358D02*
X034190Y041358D01*
X033547Y042053D02*
X033042Y042053D01*
X033014Y042130D02*
X033429Y042130D01*
X033374Y042207D02*
X032965Y042207D01*
X032875Y042284D02*
X033342Y042284D01*
X033086Y042671D02*
X033046Y042671D01*
X033046Y042748D02*
X033086Y042748D01*
X033086Y042825D02*
X033046Y042825D01*
X033046Y042902D02*
X033086Y042902D01*
X033046Y042958D02*
X032731Y042958D01*
X032731Y042972D01*
X032744Y043036D01*
X032770Y043097D01*
X032806Y043152D01*
X032853Y043199D01*
X032908Y043235D01*
X032969Y043260D01*
X033033Y043273D01*
X033046Y043273D01*
X033046Y042958D01*
X033046Y042980D02*
X033086Y042980D01*
X033086Y043057D02*
X033046Y043057D01*
X033046Y043134D02*
X033086Y043134D01*
X033086Y043211D02*
X033046Y043211D01*
X032872Y043211D02*
X032079Y043211D01*
X032157Y043134D02*
X032794Y043134D01*
X032753Y043057D02*
X032198Y043057D01*
X032218Y042980D02*
X032733Y042980D01*
X032732Y042902D02*
X032219Y042902D01*
X032220Y042906D02*
X032220Y042919D01*
X031905Y042919D01*
X031905Y042604D01*
X031918Y042604D01*
X031983Y042617D01*
X032044Y042642D01*
X032098Y042679D01*
X032145Y042725D01*
X032182Y042780D01*
X032207Y042841D01*
X032220Y042906D01*
X032200Y042825D02*
X032751Y042825D01*
X032791Y042748D02*
X032160Y042748D01*
X032086Y042671D02*
X032865Y042671D01*
X032700Y042284D02*
X032621Y042284D01*
X032621Y042207D02*
X032700Y042207D01*
X032700Y042130D02*
X032621Y042130D01*
X032446Y042284D02*
X031915Y042284D01*
X031992Y042207D02*
X032357Y042207D01*
X032307Y042130D02*
X032035Y042130D01*
X032067Y042053D02*
X032279Y042053D01*
X031905Y042671D02*
X031865Y042671D01*
X031865Y042748D02*
X031905Y042748D01*
X031905Y042825D02*
X031865Y042825D01*
X031865Y042902D02*
X031905Y042902D01*
X031905Y042980D02*
X031865Y042980D01*
X031865Y043057D02*
X031905Y043057D01*
X031905Y043134D02*
X031865Y043134D01*
X031865Y043211D02*
X031905Y043211D01*
X030901Y048077D02*
X037791Y048077D01*
X037791Y048155D02*
X030901Y048155D01*
X030901Y048232D02*
X037791Y048232D01*
X037791Y048309D02*
X030901Y048309D01*
X030901Y048386D02*
X037791Y048386D01*
X037791Y048464D02*
X030901Y048464D01*
X030901Y048541D02*
X037791Y048541D01*
X037791Y048618D02*
X030901Y048618D01*
X030901Y048695D02*
X037791Y048695D01*
X037791Y048773D02*
X030901Y048773D01*
X030901Y048850D02*
X037791Y048850D01*
X037791Y048927D02*
X030901Y048927D01*
X030901Y049004D02*
X037791Y049004D01*
X037791Y050163D02*
X034830Y050163D01*
X034908Y050240D02*
X037791Y050240D01*
X037791Y050317D02*
X034940Y050317D01*
X034956Y050395D02*
X037791Y050395D01*
X037791Y050472D02*
X034956Y050472D01*
X034928Y050549D02*
X037791Y050549D01*
X037791Y050626D02*
X034879Y050626D01*
X034777Y050704D02*
X037791Y050704D01*
X037791Y050935D02*
X030901Y050935D01*
X030901Y051013D02*
X037791Y051013D01*
X037791Y051090D02*
X030901Y051090D01*
X030901Y051167D02*
X037791Y051167D01*
X037791Y051244D02*
X030901Y051244D01*
X030901Y051322D02*
X037791Y051322D01*
X037791Y051399D02*
X030901Y051399D01*
X030901Y051476D02*
X037791Y051476D01*
X037791Y051553D02*
X030901Y051553D01*
X030704Y051553D02*
X030520Y051553D01*
X030565Y051476D02*
X030704Y051476D01*
X030704Y051399D02*
X030597Y051399D01*
X030605Y051322D02*
X030704Y051322D01*
X030704Y051244D02*
X030605Y051244D01*
X030586Y051167D02*
X030704Y051167D01*
X030704Y051090D02*
X030554Y051090D01*
X030492Y051013D02*
X030704Y051013D01*
X030704Y050935D02*
X030399Y050935D01*
X030443Y051631D02*
X030704Y051631D01*
X030901Y054566D02*
X037791Y054566D01*
X037791Y054643D02*
X030901Y054643D01*
X030901Y054720D02*
X037791Y054720D01*
X037791Y054797D02*
X030901Y054797D01*
X030901Y054875D02*
X037791Y054875D01*
X037791Y054952D02*
X030901Y054952D01*
X030901Y055029D02*
X037791Y055029D01*
X037791Y055106D02*
X030901Y055106D01*
X030901Y055184D02*
X037791Y055184D01*
X037791Y055261D02*
X030901Y055261D01*
X030901Y055338D02*
X037791Y055338D01*
X037791Y055415D02*
X030901Y055415D01*
X030901Y055493D02*
X037791Y055493D01*
X037791Y055570D02*
X030901Y055570D01*
X030901Y055647D02*
X037791Y055647D01*
X037791Y055724D02*
X032219Y055724D01*
X032204Y055709D02*
X032304Y055809D01*
X032357Y055939D01*
X032357Y056080D01*
X032304Y056210D01*
X032204Y056310D01*
X032074Y056364D01*
X031933Y056364D01*
X031802Y056310D01*
X031703Y056210D01*
X031649Y056080D01*
X031649Y055939D01*
X031703Y055809D01*
X031802Y055709D01*
X031933Y055655D01*
X032074Y055655D01*
X032204Y055709D01*
X032296Y055801D02*
X033200Y055801D01*
X033182Y055809D02*
X033334Y055746D01*
X033499Y055746D01*
X033651Y055809D01*
X033767Y055925D01*
X033830Y056077D01*
X033830Y056241D01*
X033767Y056393D01*
X033651Y056510D01*
X033499Y056573D01*
X033334Y056573D01*
X033182Y056510D01*
X033066Y056393D01*
X033003Y056241D01*
X033003Y056077D01*
X033066Y055925D01*
X033182Y055809D01*
X033112Y055879D02*
X032332Y055879D01*
X032357Y055956D02*
X033053Y055956D01*
X033021Y056033D02*
X032357Y056033D01*
X032345Y056110D02*
X033003Y056110D01*
X033003Y056188D02*
X032313Y056188D01*
X032249Y056265D02*
X033013Y056265D01*
X033045Y056342D02*
X032126Y056342D01*
X031880Y056342D02*
X030901Y056342D01*
X030901Y056265D02*
X031757Y056265D01*
X031693Y056188D02*
X030901Y056188D01*
X030901Y056110D02*
X031661Y056110D01*
X031649Y056033D02*
X030901Y056033D01*
X030901Y055956D02*
X031649Y055956D01*
X031674Y055879D02*
X030901Y055879D01*
X030901Y055801D02*
X031710Y055801D01*
X031787Y055724D02*
X030901Y055724D01*
X030704Y056188D02*
X030553Y056188D01*
X030630Y056265D02*
X030704Y056265D01*
X030901Y056419D02*
X033092Y056419D01*
X033169Y056497D02*
X030901Y056497D01*
X030901Y056574D02*
X037791Y056574D01*
X037791Y056651D02*
X030915Y056651D01*
X030915Y056728D02*
X037791Y056728D01*
X037791Y056806D02*
X030912Y056806D01*
X030901Y056883D02*
X037791Y056883D01*
X037791Y056960D02*
X030901Y056960D01*
X030901Y057037D02*
X037791Y057037D01*
X037791Y057115D02*
X030901Y057115D01*
X030901Y057192D02*
X037791Y057192D01*
X037791Y057269D02*
X030901Y057269D01*
X030901Y057346D02*
X037791Y057346D01*
X037791Y057424D02*
X030901Y057424D01*
X030901Y057501D02*
X037791Y057501D01*
X037791Y057578D02*
X030901Y057578D01*
X030901Y057655D02*
X037791Y057655D01*
X037791Y056497D02*
X035664Y056497D01*
X035651Y056510D02*
X035767Y056393D01*
X035830Y056241D01*
X035830Y056077D01*
X035767Y055925D01*
X035651Y055809D01*
X035499Y055746D01*
X035334Y055746D01*
X035182Y055809D01*
X035066Y055925D01*
X035003Y056077D01*
X035003Y056241D01*
X035066Y056393D01*
X035182Y056510D01*
X035334Y056573D01*
X035499Y056573D01*
X035651Y056510D01*
X035741Y056419D02*
X037791Y056419D01*
X037791Y056342D02*
X035788Y056342D01*
X035820Y056265D02*
X037791Y056265D01*
X037791Y056188D02*
X035830Y056188D01*
X035830Y056110D02*
X037791Y056110D01*
X037791Y056033D02*
X035812Y056033D01*
X035780Y055956D02*
X037791Y055956D01*
X037791Y055879D02*
X035721Y055879D01*
X035633Y055801D02*
X037791Y055801D01*
X036079Y054102D02*
X034483Y054102D01*
X034454Y054025D02*
X035893Y054025D01*
X035793Y053948D02*
X034402Y053948D01*
X034295Y053870D02*
X035716Y053870D01*
X035475Y053484D02*
X033536Y053484D01*
X033673Y053407D02*
X035443Y053407D01*
X035428Y053330D02*
X033737Y053330D01*
X033769Y053253D02*
X035428Y053253D01*
X035428Y053175D02*
X033775Y053175D01*
X033769Y053098D02*
X035428Y053098D01*
X035428Y053021D02*
X033737Y053021D01*
X033674Y052944D02*
X035443Y052944D01*
X035041Y052248D02*
X034241Y052248D01*
X034318Y052171D02*
X034964Y052171D01*
X034932Y052094D02*
X034350Y052094D01*
X034365Y052017D02*
X034917Y052017D01*
X034917Y051939D02*
X034365Y051939D01*
X034337Y051862D02*
X034945Y051862D01*
X034995Y051785D02*
X034287Y051785D01*
X034183Y051708D02*
X035099Y051708D01*
X034499Y055746D02*
X034334Y055746D01*
X034182Y055809D01*
X034066Y055925D01*
X034003Y056077D01*
X034003Y056241D01*
X034066Y056393D01*
X034182Y056510D01*
X034334Y056573D01*
X034499Y056573D01*
X034651Y056510D01*
X034767Y056393D01*
X034830Y056241D01*
X034830Y056077D01*
X034767Y055925D01*
X034651Y055809D01*
X034499Y055746D01*
X034633Y055801D02*
X035200Y055801D01*
X035112Y055879D02*
X034721Y055879D01*
X034780Y055956D02*
X035053Y055956D01*
X035021Y056033D02*
X034812Y056033D01*
X034830Y056110D02*
X035003Y056110D01*
X035003Y056188D02*
X034830Y056188D01*
X034820Y056265D02*
X035013Y056265D01*
X035045Y056342D02*
X034788Y056342D01*
X034741Y056419D02*
X035092Y056419D01*
X035169Y056497D02*
X034664Y056497D01*
X034169Y056497D02*
X033664Y056497D01*
X033741Y056419D02*
X034092Y056419D01*
X034045Y056342D02*
X033788Y056342D01*
X033820Y056265D02*
X034013Y056265D01*
X034003Y056188D02*
X033830Y056188D01*
X033830Y056110D02*
X034003Y056110D01*
X034021Y056033D02*
X033812Y056033D01*
X033780Y055956D02*
X034053Y055956D01*
X034112Y055879D02*
X033721Y055879D01*
X033633Y055801D02*
X034200Y055801D01*
X021816Y054102D02*
X020901Y054102D01*
X020901Y054025D02*
X021760Y054025D01*
X021728Y053948D02*
X020891Y053948D01*
X020859Y053870D02*
X021728Y053870D01*
X021739Y053793D02*
X020800Y053793D01*
X020688Y053716D02*
X021771Y053716D01*
X019977Y050704D02*
X019698Y050704D01*
X019800Y050626D02*
X019875Y050626D01*
X019847Y050240D02*
X019829Y050240D01*
X019830Y050163D02*
X019924Y050163D01*
X016741Y052557D02*
X015616Y052557D01*
X014518Y054720D02*
X018320Y054720D01*
X018259Y054797D02*
X014595Y054797D01*
X014377Y054643D02*
X018449Y054643D01*
X015652Y055724D02*
X014518Y055724D01*
X014377Y055801D02*
X014766Y055801D01*
X014676Y055879D02*
X013976Y055879D01*
X014030Y055956D02*
X014622Y055956D01*
X014590Y056033D02*
X014062Y056033D01*
X014070Y056110D02*
X014582Y056110D01*
X014582Y056188D02*
X014070Y056188D01*
X014044Y056265D02*
X014608Y056265D01*
X014641Y056342D02*
X014010Y056342D01*
X013933Y056419D02*
X014719Y056419D01*
X014729Y056574D02*
X013797Y056574D01*
X013799Y056574D02*
X013864Y056601D01*
X013922Y056640D01*
X013971Y056689D01*
X014010Y056747D01*
X014037Y056812D01*
X014050Y056880D01*
X014050Y056895D01*
X013716Y056895D01*
X013716Y056561D01*
X013731Y056561D01*
X013799Y056574D01*
X013783Y056497D02*
X014869Y056497D01*
X014881Y056502D02*
X015030Y056502D01*
X014881Y056502D01*
X015042Y056497D02*
X015336Y056497D01*
X015336Y056574D02*
X015183Y056574D01*
X015260Y056651D02*
X015336Y056651D01*
X015336Y056728D02*
X015300Y056728D01*
X015330Y056806D02*
X015336Y056806D01*
X015330Y056883D02*
X015336Y056883D01*
X015326Y056960D02*
X015336Y056960D01*
X015336Y057037D02*
X015294Y057037D01*
X015336Y056419D02*
X015193Y056419D01*
X015270Y056342D02*
X015336Y056342D01*
X015336Y056265D02*
X015304Y056265D01*
X015330Y056188D02*
X015336Y056188D01*
X015330Y056110D02*
X015336Y056110D01*
X015341Y056033D02*
X015322Y056033D01*
X015290Y055956D02*
X015373Y055956D01*
X015416Y055879D02*
X015236Y055879D01*
X015146Y055801D02*
X015493Y055801D01*
X014652Y056651D02*
X013933Y056651D01*
X013997Y056728D02*
X014612Y056728D01*
X014582Y056806D02*
X014034Y056806D01*
X014050Y056883D02*
X014582Y056883D01*
X014586Y056960D02*
X014048Y056960D01*
X014029Y057037D02*
X014618Y057037D01*
X013716Y056883D02*
X013676Y056883D01*
X013676Y056806D02*
X013716Y056806D01*
X013716Y056728D02*
X013676Y056728D01*
X013676Y056651D02*
X013716Y056651D01*
X013716Y056574D02*
X013676Y056574D01*
X013595Y056574D02*
X013552Y056574D01*
X013552Y056497D02*
X013609Y056497D01*
X013559Y054952D02*
X013552Y054952D01*
X013552Y054875D02*
X013591Y054875D01*
X013552Y054797D02*
X013663Y054797D01*
X013740Y054720D02*
X013552Y054720D01*
X013552Y054643D02*
X013882Y054643D01*
X021775Y038036D02*
X021794Y038017D01*
X021775Y037999D01*
X020741Y033711D02*
X027357Y033711D01*
X027357Y033633D02*
X020818Y033633D01*
X015523Y030621D02*
X015373Y030621D01*
D20*
X014562Y025419D03*
X013972Y025419D03*
X021058Y024435D03*
X022239Y025025D03*
X023420Y024041D03*
X024602Y023726D03*
X025586Y024435D03*
X025586Y026206D03*
X027161Y026010D03*
X027751Y027388D03*
X026964Y027781D03*
X027357Y028372D03*
X026570Y029356D03*
X026649Y029750D03*
X027357Y031325D03*
X030113Y032506D03*
X029917Y033687D03*
X030310Y036049D03*
X030310Y038017D03*
X032869Y037821D03*
X034050Y038017D03*
X034956Y037466D03*
X035822Y037821D03*
X036413Y038017D03*
X035822Y036049D03*
X034641Y036049D03*
X033460Y032506D03*
X034444Y029553D03*
X032672Y027978D03*
X032279Y027584D03*
X031885Y028372D03*
X032279Y028569D03*
X032357Y029041D03*
X031885Y026206D03*
X029523Y027781D03*
X027948Y023844D03*
X024247Y021206D03*
X024011Y019474D03*
X021452Y033096D03*
X022042Y037821D03*
X022042Y038214D03*
X023420Y040183D03*
X021452Y041954D03*
X020586Y041915D03*
X021649Y044710D03*
X021452Y045891D03*
X020980Y045813D03*
X020350Y046403D03*
X019680Y044868D03*
X018696Y044907D03*
X016334Y044317D03*
X016019Y041639D03*
X015350Y038647D03*
X016531Y038214D03*
X023420Y046285D03*
X024208Y046246D03*
X024917Y046285D03*
X025586Y046482D03*
X025980Y046246D03*
X025783Y047269D03*
X025586Y048254D03*
X024405Y049120D03*
X025783Y050813D03*
X024602Y053175D03*
X024602Y053569D03*
X024208Y053765D03*
X024602Y054159D03*
X024208Y052978D03*
X023184Y052702D03*
X022830Y052978D03*
X022909Y053490D03*
X022830Y054159D03*
X022042Y053884D03*
X022633Y052191D03*
X023617Y052073D03*
X021964Y049828D03*
X021924Y049435D03*
X020940Y051206D03*
X021452Y051994D03*
X020113Y050419D03*
X019562Y050419D03*
X019562Y049986D03*
X019680Y048450D03*
X018184Y048450D03*
X018105Y049907D03*
X019602Y054199D03*
X018539Y054947D03*
X022633Y057033D03*
X024602Y057033D03*
X026767Y057033D03*
X028932Y057033D03*
X026334Y053569D03*
X028814Y051994D03*
X029129Y050813D03*
X027830Y050458D03*
X027830Y047663D03*
X028145Y043136D03*
X028145Y042742D03*
X029129Y043136D03*
X026964Y042545D03*
X027554Y039395D03*
X033460Y041561D03*
X033657Y042348D03*
X034405Y041561D03*
X034641Y050419D03*
X035231Y051994D03*
X034050Y051994D03*
X033460Y053175D03*
X033066Y053765D03*
X032476Y053175D03*
X034168Y054159D03*
X032672Y050616D03*
X037397Y032112D03*
X036609Y029356D03*
X034641Y026797D03*
X034444Y024238D03*
D21*
X032672Y026797D03*
X035035Y029356D03*
X034641Y031915D03*
X034641Y032899D03*
X034838Y034277D03*
X034917Y038175D03*
X033854Y040065D03*
X035428Y040458D03*
X033066Y042939D03*
X033066Y044907D03*
X032476Y045301D03*
X031885Y042939D03*
X030743Y044828D03*
X029208Y044513D03*
X028932Y046206D03*
X027279Y045813D03*
X025389Y046954D03*
X023814Y046482D03*
X025428Y043647D03*
X027554Y043332D03*
X028342Y040380D03*
X032082Y039080D03*
X026964Y031915D03*
X028539Y025025D03*
X029287Y019947D03*
X033735Y019947D03*
X023027Y021285D03*
X022042Y021285D03*
X015743Y030340D03*
X015153Y030340D03*
X016531Y031325D03*
X017318Y031325D03*
X018105Y031325D03*
X018893Y031325D03*
X015743Y035065D03*
X014956Y035065D03*
X014168Y035065D03*
X015625Y036718D03*
X016294Y036718D03*
X015940Y037348D03*
X018184Y037191D03*
X018184Y037821D03*
X018184Y038411D03*
X018854Y038411D03*
X018854Y037821D03*
X018854Y037230D03*
X022042Y039592D03*
X023420Y039592D03*
X024168Y040340D03*
X024011Y041010D03*
X022594Y042151D03*
X019680Y042545D03*
X015940Y043136D03*
X015546Y041167D03*
X013381Y030340D03*
X026452Y050813D03*
X027948Y054356D03*
X025743Y056325D03*
X021649Y056325D03*
X020546Y054041D03*
X030507Y056718D03*
X032003Y056010D03*
D22*
X021649Y043923D03*
D23*
X014464Y053962D02*
X013184Y053962D01*
X013145Y053962D01*
X013145Y055576D01*
X013145Y057506D01*
X014956Y057506D01*
X015743Y057506D01*
X015743Y056128D01*
X020861Y056128D01*
X021452Y055537D01*
X025783Y055537D01*
X026767Y056521D01*
X030310Y056521D01*
X030507Y056718D01*
D24*
X014956Y056876D02*
X014956Y057506D01*
D25*
X017515Y053175D03*
X036413Y053175D03*
X036413Y027584D03*
X014365Y027191D03*
D26*
X023420Y024041D02*
X023814Y023647D01*
X023814Y021639D01*
X024247Y021206D01*
X024602Y020065D02*
X024602Y023726D01*
X025192Y024317D01*
X025192Y024632D01*
X025586Y025025D01*
X025586Y026206D01*
X024602Y020065D02*
X024011Y019474D01*
D27*
X013381Y030340D02*
X013381Y042742D01*
X014956Y042742D01*
X014956Y044553D01*
X013381Y044553D01*
X013381Y049238D01*
X013381Y051994D01*
X014464Y051994D01*
M02*
