G75*
%MOIN*%
%OFA0B0*%
%FSLAX24Y24*%
%IPPOS*%
%LPD*%
%AMOC8*
5,1,8,0,0,1.08239X$1,22.5*
%
%ADD10C,0.0059*%
%ADD11C,0.0839*%
%ADD12R,0.0779X0.0779*%
%ADD13C,0.0779*%
%ADD14R,0.0639X0.0639*%
%ADD15C,0.0639*%
%ADD16R,0.0787X0.0787*%
%ADD17R,0.0579X0.0579*%
%ADD18C,0.0217*%
%ADD19C,0.0167*%
%ADD20C,0.0787*%
%ADD21R,0.0551X0.0551*%
%ADD22C,0.0551*%
%ADD23C,0.0739*%
%ADD24C,0.0709*%
%ADD25C,0.0069*%
%ADD26C,0.0433*%
%ADD27C,0.0472*%
%ADD28C,0.0579*%
%ADD29C,0.2619*%
D10*
X012594Y020529D02*
X012594Y059899D01*
X038184Y059899D01*
X038184Y020529D01*
X012594Y020529D01*
D11*
X025086Y038836D03*
X033417Y057962D03*
X034417Y057962D03*
X035417Y057962D03*
D12*
X015448Y054190D03*
D13*
X015448Y053206D03*
X015448Y052222D03*
X014464Y052222D03*
X014464Y053206D03*
X014464Y054190D03*
D14*
X017318Y050647D03*
X028224Y051434D03*
X029405Y054100D03*
X031228Y043757D03*
X023684Y034899D03*
D15*
X022684Y034899D03*
X032228Y043757D03*
X028224Y049434D03*
X028224Y050434D03*
X029405Y053100D03*
X017318Y052647D03*
X017318Y051647D03*
D16*
X026086Y038836D03*
D17*
X022582Y037108D03*
X030507Y048482D03*
X030507Y049466D03*
X025980Y050253D03*
X025783Y049466D03*
X024798Y051434D03*
X024011Y051434D03*
X023224Y051434D03*
X022436Y051434D03*
X022042Y050277D03*
X023027Y050253D03*
X023027Y049072D03*
X022042Y049072D03*
X014956Y057537D03*
X013972Y057537D03*
X013972Y058718D03*
X014956Y058718D03*
X037279Y026789D03*
D18*
X036639Y026405D02*
X036639Y027251D01*
X036639Y026405D02*
X035989Y026405D01*
X035989Y027251D01*
X036639Y027251D01*
X036639Y026621D02*
X035989Y026621D01*
X035989Y026837D02*
X036639Y026837D01*
X036639Y027053D02*
X035989Y027053D01*
X035084Y024928D02*
X034238Y024928D01*
X034238Y025578D01*
X035084Y025578D01*
X035084Y024928D01*
X035084Y025144D02*
X034238Y025144D01*
X034238Y025360D02*
X035084Y025360D01*
X035084Y025576D02*
X034238Y025576D01*
X032190Y026405D02*
X032190Y027251D01*
X032190Y026405D02*
X031540Y026405D01*
X031540Y027251D01*
X032190Y027251D01*
X032190Y026621D02*
X031540Y026621D01*
X031540Y026837D02*
X032190Y026837D01*
X032190Y027053D02*
X031540Y027053D01*
X030635Y024928D02*
X029789Y024928D01*
X029789Y025578D01*
X030635Y025578D01*
X030635Y024928D01*
X030635Y025144D02*
X029789Y025144D01*
X029789Y025360D02*
X030635Y025360D01*
X030635Y025576D02*
X029789Y025576D01*
X027742Y026405D02*
X027742Y027251D01*
X027742Y026405D02*
X027092Y026405D01*
X027092Y027251D01*
X027742Y027251D01*
X027742Y026621D02*
X027092Y026621D01*
X027092Y026837D02*
X027742Y026837D01*
X027742Y027053D02*
X027092Y027053D01*
X026186Y024928D02*
X025340Y024928D01*
X025340Y025578D01*
X026186Y025578D01*
X026186Y024928D01*
X026186Y025144D02*
X025340Y025144D01*
X025340Y025360D02*
X026186Y025360D01*
X026186Y025576D02*
X025340Y025576D01*
X024454Y021995D02*
X023608Y021995D01*
X023608Y022645D01*
X024454Y022645D01*
X024454Y021995D01*
X024454Y022211D02*
X023608Y022211D01*
X023608Y022427D02*
X024454Y022427D01*
X024454Y022643D02*
X023608Y022643D01*
X025340Y021287D02*
X026186Y021287D01*
X025340Y021287D02*
X025340Y021937D01*
X026186Y021937D01*
X026186Y021287D01*
X026186Y021503D02*
X025340Y021503D01*
X025340Y021719D02*
X026186Y021719D01*
X026186Y021935D02*
X025340Y021935D01*
X028057Y021995D02*
X028903Y021995D01*
X028057Y021995D02*
X028057Y022645D01*
X028903Y022645D01*
X028903Y021995D01*
X028903Y022211D02*
X028057Y022211D01*
X028057Y022427D02*
X028903Y022427D01*
X028903Y022643D02*
X028057Y022643D01*
X029789Y021287D02*
X030635Y021287D01*
X029789Y021287D02*
X029789Y021937D01*
X030635Y021937D01*
X030635Y021287D01*
X030635Y021503D02*
X029789Y021503D01*
X029789Y021719D02*
X030635Y021719D01*
X030635Y021935D02*
X029789Y021935D01*
X032505Y021995D02*
X033351Y021995D01*
X032505Y021995D02*
X032505Y022645D01*
X033351Y022645D01*
X033351Y021995D01*
X033351Y022211D02*
X032505Y022211D01*
X032505Y022427D02*
X033351Y022427D01*
X033351Y022643D02*
X032505Y022643D01*
X034238Y021287D02*
X035084Y021287D01*
X034238Y021287D02*
X034238Y021937D01*
X035084Y021937D01*
X035084Y021287D01*
X035084Y021503D02*
X034238Y021503D01*
X034238Y021719D02*
X035084Y021719D01*
X035084Y021935D02*
X034238Y021935D01*
X036954Y021995D02*
X037800Y021995D01*
X036954Y021995D02*
X036954Y022645D01*
X037800Y022645D01*
X037800Y021995D01*
X037800Y022211D02*
X036954Y022211D01*
X036954Y022427D02*
X037800Y022427D01*
X037800Y022643D02*
X036954Y022643D01*
X023293Y026405D02*
X023293Y027251D01*
X023293Y026405D02*
X022643Y026405D01*
X022643Y027251D01*
X023293Y027251D01*
X023293Y026621D02*
X022643Y026621D01*
X022643Y026837D02*
X023293Y026837D01*
X023293Y027053D02*
X022643Y027053D01*
X021737Y024928D02*
X020891Y024928D01*
X020891Y025578D01*
X021737Y025578D01*
X021737Y024928D01*
X021737Y025144D02*
X020891Y025144D01*
X020891Y025360D02*
X021737Y025360D01*
X021737Y025576D02*
X020891Y025576D01*
X020005Y021995D02*
X019159Y021995D01*
X019159Y022645D01*
X020005Y022645D01*
X020005Y021995D01*
X020005Y022211D02*
X019159Y022211D01*
X019159Y022427D02*
X020005Y022427D01*
X020005Y022643D02*
X019159Y022643D01*
X020891Y021287D02*
X021737Y021287D01*
X020891Y021287D02*
X020891Y021937D01*
X021737Y021937D01*
X021737Y021287D01*
X021737Y021503D02*
X020891Y021503D01*
X020891Y021719D02*
X021737Y021719D01*
X021737Y021935D02*
X020891Y021935D01*
X018844Y026405D02*
X018844Y027251D01*
X018844Y026405D02*
X018194Y026405D01*
X018194Y027251D01*
X018844Y027251D01*
X018844Y026621D02*
X018194Y026621D01*
X018194Y026837D02*
X018844Y026837D01*
X018844Y027053D02*
X018194Y027053D01*
X017288Y024928D02*
X016442Y024928D01*
X016442Y025578D01*
X017288Y025578D01*
X017288Y024928D01*
X017288Y025144D02*
X016442Y025144D01*
X016442Y025360D02*
X017288Y025360D01*
X017288Y025576D02*
X016442Y025576D01*
X016442Y021287D02*
X017288Y021287D01*
X016442Y021287D02*
X016442Y021937D01*
X017288Y021937D01*
X017288Y021287D01*
X017288Y021503D02*
X016442Y021503D01*
X016442Y021719D02*
X017288Y021719D01*
X017288Y021935D02*
X016442Y021935D01*
X013981Y043669D02*
X013981Y044515D01*
X014631Y044515D01*
X014631Y043669D01*
X013981Y043669D01*
X013981Y043885D02*
X014631Y043885D01*
X014631Y044101D02*
X013981Y044101D01*
X013981Y044317D02*
X014631Y044317D01*
X013273Y046385D02*
X013273Y047231D01*
X013923Y047231D01*
X013923Y046385D01*
X013273Y046385D01*
X013273Y046601D02*
X013923Y046601D01*
X013923Y046817D02*
X013273Y046817D01*
X013273Y047033D02*
X013923Y047033D01*
X016914Y047231D02*
X016914Y046385D01*
X016914Y047231D02*
X017564Y047231D01*
X017564Y046385D01*
X016914Y046385D01*
X016914Y046601D02*
X017564Y046601D01*
X017564Y046817D02*
X016914Y046817D01*
X016914Y047033D02*
X017564Y047033D01*
X018391Y044830D02*
X019237Y044830D01*
X018391Y044830D02*
X018391Y045480D01*
X019237Y045480D01*
X019237Y044830D01*
X019237Y045046D02*
X018391Y045046D01*
X018391Y045262D02*
X019237Y045262D01*
X019237Y045478D02*
X018391Y045478D01*
X022190Y056700D02*
X022190Y057546D01*
X022190Y056700D02*
X021540Y056700D01*
X021540Y057546D01*
X022190Y057546D01*
X022190Y056916D02*
X021540Y056916D01*
X021540Y057132D02*
X022190Y057132D01*
X022190Y057348D02*
X021540Y057348D01*
X022190Y058866D02*
X022190Y059712D01*
X022190Y058866D02*
X021540Y058866D01*
X021540Y059712D01*
X022190Y059712D01*
X022190Y059082D02*
X021540Y059082D01*
X021540Y059298D02*
X022190Y059298D01*
X022190Y059514D02*
X021540Y059514D01*
X025694Y059712D02*
X025694Y058866D01*
X025044Y058866D01*
X025044Y059712D01*
X025694Y059712D01*
X025694Y059082D02*
X025044Y059082D01*
X025044Y059298D02*
X025694Y059298D01*
X025694Y059514D02*
X025044Y059514D01*
X025694Y057546D02*
X025694Y056700D01*
X025044Y056700D01*
X025044Y057546D01*
X025694Y057546D01*
X025694Y056916D02*
X025044Y056916D01*
X025044Y057132D02*
X025694Y057132D01*
X025694Y057348D02*
X025044Y057348D01*
D19*
X013494Y044540D02*
X013494Y043644D01*
X012992Y043644D01*
X012992Y044540D01*
X013494Y044540D01*
X013494Y043810D02*
X012992Y043810D01*
X012992Y043976D02*
X013494Y043976D01*
X013494Y044142D02*
X012992Y044142D01*
X012992Y044308D02*
X013494Y044308D01*
X013494Y044474D02*
X012992Y044474D01*
X019134Y021508D02*
X020030Y021508D01*
X020030Y021006D01*
X019134Y021006D01*
X019134Y021508D01*
X019134Y021172D02*
X020030Y021172D01*
X020030Y021338D02*
X019134Y021338D01*
X019134Y021504D02*
X020030Y021504D01*
X023583Y021508D02*
X024479Y021508D01*
X024479Y021006D01*
X023583Y021006D01*
X023583Y021508D01*
X023583Y021172D02*
X024479Y021172D01*
X024479Y021338D02*
X023583Y021338D01*
X023583Y021504D02*
X024479Y021504D01*
X028032Y021508D02*
X028928Y021508D01*
X028928Y021006D01*
X028032Y021006D01*
X028032Y021508D01*
X028032Y021172D02*
X028928Y021172D01*
X028928Y021338D02*
X028032Y021338D01*
X028032Y021504D02*
X028928Y021504D01*
X032480Y021508D02*
X033376Y021508D01*
X033376Y021006D01*
X032480Y021006D01*
X032480Y021508D01*
X032480Y021172D02*
X033376Y021172D01*
X033376Y021338D02*
X032480Y021338D01*
X032480Y021504D02*
X033376Y021504D01*
X036929Y021508D02*
X037825Y021508D01*
X037825Y021006D01*
X036929Y021006D01*
X036929Y021508D01*
X036929Y021172D02*
X037825Y021172D01*
X037825Y021338D02*
X036929Y021338D01*
X036929Y021504D02*
X037825Y021504D01*
D20*
X036019Y022005D03*
X036019Y024761D03*
X031570Y024761D03*
X031570Y022005D03*
X027121Y022005D03*
X027121Y024761D03*
X022672Y024761D03*
X022672Y022005D03*
X018224Y022005D03*
X018224Y024761D03*
X016747Y045450D03*
X013991Y045450D03*
D21*
X020665Y029190D03*
D22*
X020665Y029978D03*
X021452Y029978D03*
X022239Y029978D03*
X022239Y029190D03*
X021452Y029190D03*
X023027Y029190D03*
X023027Y029978D03*
X023814Y029978D03*
X024602Y029978D03*
X024602Y029190D03*
X023814Y029190D03*
X025389Y029190D03*
X026176Y029190D03*
X026176Y029978D03*
X025389Y029978D03*
D23*
X012987Y047982D03*
X012987Y048982D03*
X014987Y048982D03*
X015987Y048982D03*
X016987Y048982D03*
X016708Y058728D03*
X017318Y059495D03*
X017928Y058728D03*
X019464Y058728D03*
X020074Y059495D03*
X020684Y058728D03*
D24*
X015743Y024663D03*
X015743Y022891D03*
D25*
X023091Y056626D02*
X023091Y057542D01*
X023091Y056626D02*
X022883Y056626D01*
X022883Y057542D01*
X023091Y057542D01*
X023091Y056694D02*
X022883Y056694D01*
X022883Y056762D02*
X023091Y056762D01*
X023091Y056830D02*
X022883Y056830D01*
X022883Y056898D02*
X023091Y056898D01*
X023091Y056966D02*
X022883Y056966D01*
X022883Y057034D02*
X023091Y057034D01*
X023091Y057102D02*
X022883Y057102D01*
X022883Y057170D02*
X023091Y057170D01*
X023091Y057238D02*
X022883Y057238D01*
X022883Y057306D02*
X023091Y057306D01*
X023091Y057374D02*
X022883Y057374D01*
X022883Y057442D02*
X023091Y057442D01*
X023091Y057510D02*
X022883Y057510D01*
X023406Y057542D02*
X023406Y056626D01*
X023198Y056626D01*
X023198Y057542D01*
X023406Y057542D01*
X023406Y056694D02*
X023198Y056694D01*
X023198Y056762D02*
X023406Y056762D01*
X023406Y056830D02*
X023198Y056830D01*
X023198Y056898D02*
X023406Y056898D01*
X023406Y056966D02*
X023198Y056966D01*
X023198Y057034D02*
X023406Y057034D01*
X023406Y057102D02*
X023198Y057102D01*
X023198Y057170D02*
X023406Y057170D01*
X023406Y057238D02*
X023198Y057238D01*
X023198Y057306D02*
X023406Y057306D01*
X023406Y057374D02*
X023198Y057374D01*
X023198Y057442D02*
X023406Y057442D01*
X023406Y057510D02*
X023198Y057510D01*
X023721Y057542D02*
X023721Y056626D01*
X023513Y056626D01*
X023513Y057542D01*
X023721Y057542D01*
X023721Y056694D02*
X023513Y056694D01*
X023513Y056762D02*
X023721Y056762D01*
X023721Y056830D02*
X023513Y056830D01*
X023513Y056898D02*
X023721Y056898D01*
X023721Y056966D02*
X023513Y056966D01*
X023513Y057034D02*
X023721Y057034D01*
X023721Y057102D02*
X023513Y057102D01*
X023513Y057170D02*
X023721Y057170D01*
X023721Y057238D02*
X023513Y057238D01*
X023513Y057306D02*
X023721Y057306D01*
X023721Y057374D02*
X023513Y057374D01*
X023513Y057442D02*
X023721Y057442D01*
X023721Y057510D02*
X023513Y057510D01*
X024036Y057542D02*
X024036Y056626D01*
X023828Y056626D01*
X023828Y057542D01*
X024036Y057542D01*
X024036Y056694D02*
X023828Y056694D01*
X023828Y056762D02*
X024036Y056762D01*
X024036Y056830D02*
X023828Y056830D01*
X023828Y056898D02*
X024036Y056898D01*
X024036Y056966D02*
X023828Y056966D01*
X023828Y057034D02*
X024036Y057034D01*
X024036Y057102D02*
X023828Y057102D01*
X023828Y057170D02*
X024036Y057170D01*
X024036Y057238D02*
X023828Y057238D01*
X023828Y057306D02*
X024036Y057306D01*
X024036Y057374D02*
X023828Y057374D01*
X023828Y057442D02*
X024036Y057442D01*
X024036Y057510D02*
X023828Y057510D01*
X024351Y057542D02*
X024351Y056626D01*
X024143Y056626D01*
X024143Y057542D01*
X024351Y057542D01*
X024351Y056694D02*
X024143Y056694D01*
X024143Y056762D02*
X024351Y056762D01*
X024351Y056830D02*
X024143Y056830D01*
X024143Y056898D02*
X024351Y056898D01*
X024351Y056966D02*
X024143Y056966D01*
X024143Y057034D02*
X024351Y057034D01*
X024351Y057102D02*
X024143Y057102D01*
X024143Y057170D02*
X024351Y057170D01*
X024351Y057238D02*
X024143Y057238D01*
X024143Y057306D02*
X024351Y057306D01*
X024351Y057374D02*
X024143Y057374D01*
X024143Y057442D02*
X024351Y057442D01*
X024351Y057510D02*
X024143Y057510D01*
D26*
X024483Y058108D03*
X022751Y058108D03*
X021255Y045135D03*
D27*
X022594Y043954D03*
X022042Y041395D03*
X023420Y041395D03*
X024798Y044741D03*
X024995Y045529D03*
X024602Y048088D03*
X023224Y048285D03*
X026058Y052615D03*
X027948Y056159D03*
X025743Y058127D03*
X021649Y058127D03*
X026885Y047615D03*
X028342Y047812D03*
X028617Y046316D03*
X027239Y045529D03*
X018854Y040214D03*
X018854Y039623D03*
X018854Y039033D03*
X018184Y038993D03*
X018184Y039623D03*
X018184Y040214D03*
X016294Y038521D03*
X015625Y038521D03*
X015940Y039151D03*
X015743Y036867D03*
X014956Y036867D03*
X014168Y036867D03*
X016531Y033127D03*
X017318Y033127D03*
X018105Y033127D03*
X018893Y033127D03*
X015743Y032143D03*
X015153Y032143D03*
X014050Y032143D03*
X013381Y032143D03*
X030507Y058521D03*
X032003Y057812D03*
D28*
X032476Y047104D03*
X033066Y046710D03*
X033066Y044741D03*
X031885Y044741D03*
X030743Y046631D03*
X033854Y041867D03*
X034917Y039978D03*
X036019Y041395D03*
X034838Y036080D03*
X034641Y034702D03*
X034641Y033718D03*
X035035Y031159D03*
X032672Y028600D03*
X028539Y026828D03*
X029287Y021749D03*
X033735Y021749D03*
X026964Y033718D03*
X032082Y040883D03*
X027161Y042576D03*
X024168Y042143D03*
X024011Y042812D03*
X019680Y044348D03*
X015940Y044938D03*
X015546Y042970D03*
X020546Y055844D03*
X022239Y023088D03*
X024602Y023088D03*
D29*
X014365Y028993D03*
X017515Y054978D03*
X036413Y054978D03*
X036413Y029387D03*
M02*
