G75*
%MOIN*%
%OFA0B0*%
%FSLAX24Y24*%
%IPPOS*%
%LPD*%
%AMOC8*
5,1,8,0,0,1.08239X$1,22.5*
%
%ADD10C,0.0059*%
%ADD11C,0.0050*%
%ADD12C,0.0839*%
%ADD13R,0.0639X0.0639*%
%ADD14C,0.0639*%
%ADD15R,0.0787X0.0787*%
%ADD16R,0.0579X0.0579*%
%ADD17C,0.0217*%
%ADD18C,0.0167*%
%ADD19C,0.0787*%
%ADD20C,0.0739*%
%ADD21C,0.0709*%
%ADD22C,0.0069*%
%ADD23C,0.0433*%
%ADD24R,0.0779X0.0779*%
%ADD25C,0.0779*%
%ADD26C,0.1079*%
%ADD27C,0.0939*%
%ADD28R,0.0739X0.0739*%
%ADD29C,0.0157*%
%ADD30C,0.0098*%
%ADD31C,0.0472*%
%ADD32C,0.0579*%
%ADD33C,0.2619*%
D10*
X012594Y018363D02*
X012594Y057734D01*
X038184Y057734D01*
X038184Y018363D01*
X012594Y018363D01*
D11*
X012891Y058152D02*
X012816Y058227D01*
X012891Y058152D02*
X013041Y058152D01*
X013116Y058227D01*
X013116Y058302D01*
X013041Y058377D01*
X012891Y058377D01*
X012816Y058453D01*
X012816Y058528D01*
X012891Y058603D01*
X013041Y058603D01*
X013116Y058528D01*
X013276Y058603D02*
X013426Y058453D01*
X013576Y058603D01*
X013576Y058152D01*
X013736Y058152D02*
X014037Y058152D01*
X013886Y058152D02*
X013886Y058603D01*
X013736Y058453D01*
X014197Y058528D02*
X014197Y058227D01*
X014497Y058528D01*
X014497Y058227D01*
X014422Y058152D01*
X014272Y058152D01*
X014197Y058227D01*
X014197Y058528D02*
X014272Y058603D01*
X014422Y058603D01*
X014497Y058528D01*
X014657Y058528D02*
X014732Y058603D01*
X014882Y058603D01*
X014957Y058528D01*
X014657Y058227D01*
X014732Y058152D01*
X014882Y058152D01*
X014957Y058227D01*
X014957Y058528D01*
X015117Y058528D02*
X015193Y058603D01*
X015343Y058603D01*
X015418Y058528D01*
X015117Y058227D01*
X015193Y058152D01*
X015343Y058152D01*
X015418Y058227D01*
X015418Y058528D01*
X015578Y058377D02*
X015878Y058377D01*
X016038Y058377D02*
X016188Y058377D01*
X016038Y058152D02*
X016038Y058603D01*
X016339Y058603D01*
X017419Y058453D02*
X017570Y058603D01*
X017570Y058152D01*
X017720Y058152D02*
X017419Y058152D01*
X017880Y058152D02*
X018180Y058453D01*
X018180Y058528D01*
X018105Y058603D01*
X017955Y058603D01*
X017880Y058528D01*
X017880Y058152D02*
X018180Y058152D01*
X018340Y058152D02*
X018640Y058603D01*
X018801Y058453D02*
X018951Y058603D01*
X018951Y058152D01*
X018801Y058152D02*
X019101Y058152D01*
X019261Y058152D02*
X019561Y058152D01*
X019411Y058152D02*
X019411Y058603D01*
X019261Y058453D01*
X019721Y058152D02*
X020022Y058603D01*
X020182Y058453D02*
X020332Y058603D01*
X020332Y058152D01*
X020182Y058152D02*
X020482Y058152D01*
X020642Y058227D02*
X020717Y058152D01*
X020867Y058152D01*
X020942Y058227D01*
X020942Y058377D01*
X020867Y058453D01*
X020792Y058453D01*
X020642Y058377D01*
X020642Y058603D01*
X020942Y058603D01*
X021563Y058603D02*
X021563Y058152D01*
X021563Y058302D02*
X021788Y058302D01*
X021863Y058377D01*
X021863Y058528D01*
X021788Y058603D01*
X021563Y058603D01*
X021713Y058302D02*
X021863Y058152D01*
X022023Y058227D02*
X022098Y058152D01*
X022249Y058152D01*
X022324Y058227D01*
X022324Y058377D01*
X022174Y058377D01*
X022324Y058528D02*
X022249Y058603D01*
X022098Y058603D01*
X022023Y058528D01*
X022023Y058227D01*
X022484Y058152D02*
X022484Y058603D01*
X022709Y058603D01*
X022784Y058528D01*
X022784Y058453D01*
X022709Y058377D01*
X022484Y058377D01*
X022484Y058152D02*
X022709Y058152D01*
X022784Y058227D01*
X022784Y058302D01*
X022709Y058377D01*
X022944Y058227D02*
X023019Y058227D01*
X023019Y058152D01*
X022944Y058152D01*
X022944Y058227D01*
X015117Y058227D02*
X015117Y058528D01*
X014657Y058528D02*
X014657Y058227D01*
X013276Y058152D02*
X013276Y058603D01*
D12*
X025086Y036671D03*
X033417Y055797D03*
X034417Y055797D03*
X035417Y055797D03*
D13*
X030192Y051934D03*
X028617Y049269D03*
X031661Y041592D03*
X029629Y026867D03*
X020271Y031643D03*
X017318Y048482D03*
D14*
X017318Y049482D03*
X017318Y050482D03*
X028617Y048269D03*
X028617Y047269D03*
X030192Y050934D03*
X032661Y041592D03*
X028629Y026867D03*
X020271Y032643D03*
D15*
X026086Y036671D03*
D16*
X019877Y035883D03*
X022436Y046907D03*
X023420Y046907D03*
X023420Y048088D03*
X022436Y048112D03*
X022830Y049269D03*
X023617Y049269D03*
X024405Y049269D03*
X025192Y049269D03*
X026373Y048088D03*
X026373Y047300D03*
X030507Y047300D03*
X030507Y046316D03*
X014956Y055765D03*
X014956Y056513D03*
X013696Y056552D03*
X013696Y055765D03*
X013381Y024269D03*
X013420Y019387D03*
X029326Y024466D03*
X037279Y024623D03*
D17*
X036639Y024240D02*
X036639Y025086D01*
X036639Y024240D02*
X035989Y024240D01*
X035989Y025086D01*
X036639Y025086D01*
X036639Y024456D02*
X035989Y024456D01*
X035989Y024672D02*
X036639Y024672D01*
X036639Y024888D02*
X035989Y024888D01*
X035084Y022763D02*
X034238Y022763D01*
X034238Y023413D01*
X035084Y023413D01*
X035084Y022763D01*
X035084Y022979D02*
X034238Y022979D01*
X034238Y023195D02*
X035084Y023195D01*
X035084Y023411D02*
X034238Y023411D01*
X033351Y019830D02*
X032505Y019830D01*
X032505Y020480D01*
X033351Y020480D01*
X033351Y019830D01*
X033351Y020046D02*
X032505Y020046D01*
X032505Y020262D02*
X033351Y020262D01*
X033351Y020478D02*
X032505Y020478D01*
X034238Y019121D02*
X035084Y019121D01*
X034238Y019121D02*
X034238Y019771D01*
X035084Y019771D01*
X035084Y019121D01*
X035084Y019337D02*
X034238Y019337D01*
X034238Y019553D02*
X035084Y019553D01*
X035084Y019769D02*
X034238Y019769D01*
X036954Y019830D02*
X037800Y019830D01*
X036954Y019830D02*
X036954Y020480D01*
X037800Y020480D01*
X037800Y019830D01*
X037800Y020046D02*
X036954Y020046D01*
X036954Y020262D02*
X037800Y020262D01*
X037800Y020478D02*
X036954Y020478D01*
X032190Y024240D02*
X032190Y025086D01*
X032190Y024240D02*
X031540Y024240D01*
X031540Y025086D01*
X032190Y025086D01*
X032190Y024456D02*
X031540Y024456D01*
X031540Y024672D02*
X032190Y024672D01*
X032190Y024888D02*
X031540Y024888D01*
X030635Y022763D02*
X029789Y022763D01*
X029789Y023413D01*
X030635Y023413D01*
X030635Y022763D01*
X030635Y022979D02*
X029789Y022979D01*
X029789Y023195D02*
X030635Y023195D01*
X030635Y023411D02*
X029789Y023411D01*
X027742Y024240D02*
X027742Y025086D01*
X027742Y024240D02*
X027092Y024240D01*
X027092Y025086D01*
X027742Y025086D01*
X027742Y024456D02*
X027092Y024456D01*
X027092Y024672D02*
X027742Y024672D01*
X027742Y024888D02*
X027092Y024888D01*
X026186Y022763D02*
X025340Y022763D01*
X025340Y023413D01*
X026186Y023413D01*
X026186Y022763D01*
X026186Y022979D02*
X025340Y022979D01*
X025340Y023195D02*
X026186Y023195D01*
X026186Y023411D02*
X025340Y023411D01*
X024454Y019830D02*
X023608Y019830D01*
X023608Y020480D01*
X024454Y020480D01*
X024454Y019830D01*
X024454Y020046D02*
X023608Y020046D01*
X023608Y020262D02*
X024454Y020262D01*
X024454Y020478D02*
X023608Y020478D01*
X021737Y019121D02*
X020891Y019121D01*
X020891Y019771D01*
X021737Y019771D01*
X021737Y019121D01*
X021737Y019337D02*
X020891Y019337D01*
X020891Y019553D02*
X021737Y019553D01*
X021737Y019769D02*
X020891Y019769D01*
X020005Y019830D02*
X019159Y019830D01*
X019159Y020480D01*
X020005Y020480D01*
X020005Y019830D01*
X020005Y020046D02*
X019159Y020046D01*
X019159Y020262D02*
X020005Y020262D01*
X020005Y020478D02*
X019159Y020478D01*
X020891Y022763D02*
X021737Y022763D01*
X020891Y022763D02*
X020891Y023413D01*
X021737Y023413D01*
X021737Y022763D01*
X021737Y022979D02*
X020891Y022979D01*
X020891Y023195D02*
X021737Y023195D01*
X021737Y023411D02*
X020891Y023411D01*
X023293Y024240D02*
X023293Y025086D01*
X023293Y024240D02*
X022643Y024240D01*
X022643Y025086D01*
X023293Y025086D01*
X023293Y024456D02*
X022643Y024456D01*
X022643Y024672D02*
X023293Y024672D01*
X023293Y024888D02*
X022643Y024888D01*
X025340Y019121D02*
X026186Y019121D01*
X025340Y019121D02*
X025340Y019771D01*
X026186Y019771D01*
X026186Y019121D01*
X026186Y019337D02*
X025340Y019337D01*
X025340Y019553D02*
X026186Y019553D01*
X026186Y019769D02*
X025340Y019769D01*
X028057Y019830D02*
X028903Y019830D01*
X028057Y019830D02*
X028057Y020480D01*
X028903Y020480D01*
X028903Y019830D01*
X028903Y020046D02*
X028057Y020046D01*
X028057Y020262D02*
X028903Y020262D01*
X028903Y020478D02*
X028057Y020478D01*
X029789Y019121D02*
X030635Y019121D01*
X029789Y019121D02*
X029789Y019771D01*
X030635Y019771D01*
X030635Y019121D01*
X030635Y019337D02*
X029789Y019337D01*
X029789Y019553D02*
X030635Y019553D01*
X030635Y019769D02*
X029789Y019769D01*
X018844Y024240D02*
X018844Y025086D01*
X018844Y024240D02*
X018194Y024240D01*
X018194Y025086D01*
X018844Y025086D01*
X018844Y024456D02*
X018194Y024456D01*
X018194Y024672D02*
X018844Y024672D01*
X018844Y024888D02*
X018194Y024888D01*
X017288Y022763D02*
X016442Y022763D01*
X016442Y023413D01*
X017288Y023413D01*
X017288Y022763D01*
X017288Y022979D02*
X016442Y022979D01*
X016442Y023195D02*
X017288Y023195D01*
X017288Y023411D02*
X016442Y023411D01*
X016442Y019121D02*
X017288Y019121D01*
X016442Y019121D02*
X016442Y019771D01*
X017288Y019771D01*
X017288Y019121D01*
X017288Y019337D02*
X016442Y019337D01*
X016442Y019553D02*
X017288Y019553D01*
X017288Y019769D02*
X016442Y019769D01*
X013981Y041503D02*
X013981Y042349D01*
X014631Y042349D01*
X014631Y041503D01*
X013981Y041503D01*
X013981Y041719D02*
X014631Y041719D01*
X014631Y041935D02*
X013981Y041935D01*
X013981Y042151D02*
X014631Y042151D01*
X013273Y044220D02*
X013273Y045066D01*
X013923Y045066D01*
X013923Y044220D01*
X013273Y044220D01*
X013273Y044436D02*
X013923Y044436D01*
X013923Y044652D02*
X013273Y044652D01*
X013273Y044868D02*
X013923Y044868D01*
X016914Y045066D02*
X016914Y044220D01*
X016914Y045066D02*
X017564Y045066D01*
X017564Y044220D01*
X016914Y044220D01*
X016914Y044436D02*
X017564Y044436D01*
X017564Y044652D02*
X016914Y044652D01*
X016914Y044868D02*
X017564Y044868D01*
X018391Y042664D02*
X019237Y042664D01*
X018391Y042664D02*
X018391Y043314D01*
X019237Y043314D01*
X019237Y042664D01*
X019237Y042880D02*
X018391Y042880D01*
X018391Y043096D02*
X019237Y043096D01*
X019237Y043312D02*
X018391Y043312D01*
X022190Y054535D02*
X022190Y055381D01*
X022190Y054535D02*
X021540Y054535D01*
X021540Y055381D01*
X022190Y055381D01*
X022190Y054751D02*
X021540Y054751D01*
X021540Y054967D02*
X022190Y054967D01*
X022190Y055183D02*
X021540Y055183D01*
X022190Y056700D02*
X022190Y057546D01*
X022190Y056700D02*
X021540Y056700D01*
X021540Y057546D01*
X022190Y057546D01*
X022190Y056916D02*
X021540Y056916D01*
X021540Y057132D02*
X022190Y057132D01*
X022190Y057348D02*
X021540Y057348D01*
X025694Y057546D02*
X025694Y056700D01*
X025044Y056700D01*
X025044Y057546D01*
X025694Y057546D01*
X025694Y056916D02*
X025044Y056916D01*
X025044Y057132D02*
X025694Y057132D01*
X025694Y057348D02*
X025044Y057348D01*
X025694Y055381D02*
X025694Y054535D01*
X025044Y054535D01*
X025044Y055381D01*
X025694Y055381D01*
X025694Y054751D02*
X025044Y054751D01*
X025044Y054967D02*
X025694Y054967D01*
X025694Y055183D02*
X025044Y055183D01*
D18*
X013494Y042374D02*
X013494Y041478D01*
X012992Y041478D01*
X012992Y042374D01*
X013494Y042374D01*
X013494Y041644D02*
X012992Y041644D01*
X012992Y041810D02*
X013494Y041810D01*
X013494Y041976D02*
X012992Y041976D01*
X012992Y042142D02*
X013494Y042142D01*
X013494Y042308D02*
X012992Y042308D01*
X019134Y019343D02*
X020030Y019343D01*
X020030Y018841D01*
X019134Y018841D01*
X019134Y019343D01*
X019134Y019007D02*
X020030Y019007D01*
X020030Y019173D02*
X019134Y019173D01*
X019134Y019339D02*
X020030Y019339D01*
X023583Y019343D02*
X024479Y019343D01*
X024479Y018841D01*
X023583Y018841D01*
X023583Y019343D01*
X023583Y019007D02*
X024479Y019007D01*
X024479Y019173D02*
X023583Y019173D01*
X023583Y019339D02*
X024479Y019339D01*
X028032Y019343D02*
X028928Y019343D01*
X028928Y018841D01*
X028032Y018841D01*
X028032Y019343D01*
X028032Y019007D02*
X028928Y019007D01*
X028928Y019173D02*
X028032Y019173D01*
X028032Y019339D02*
X028928Y019339D01*
X032480Y019343D02*
X033376Y019343D01*
X033376Y018841D01*
X032480Y018841D01*
X032480Y019343D01*
X032480Y019007D02*
X033376Y019007D01*
X033376Y019173D02*
X032480Y019173D01*
X032480Y019339D02*
X033376Y019339D01*
X036929Y019343D02*
X037825Y019343D01*
X037825Y018841D01*
X036929Y018841D01*
X036929Y019343D01*
X036929Y019007D02*
X037825Y019007D01*
X037825Y019173D02*
X036929Y019173D01*
X036929Y019339D02*
X037825Y019339D01*
D19*
X036019Y019840D03*
X036019Y022596D03*
X031570Y022596D03*
X031570Y019840D03*
X027121Y019840D03*
X027121Y022596D03*
X022672Y022596D03*
X022672Y019840D03*
X018224Y019840D03*
X018224Y022596D03*
X016747Y043285D03*
X013991Y043285D03*
D20*
X022731Y034112D03*
X022314Y029903D03*
X021314Y029903D03*
X020314Y029903D03*
X021314Y026903D03*
X022314Y026903D03*
X023314Y026903D03*
X024314Y026903D03*
X025314Y026903D03*
X026314Y026903D03*
X027314Y026903D03*
X027314Y029903D03*
X026314Y029903D03*
X025314Y029903D03*
X024314Y029903D03*
X023314Y029903D03*
X020684Y056562D03*
X020074Y057330D03*
X019464Y056562D03*
X017928Y056562D03*
X017318Y057330D03*
X016708Y056562D03*
D21*
X015743Y022497D03*
X015743Y020726D03*
D22*
X016348Y021449D02*
X016348Y021735D01*
X016556Y021735D01*
X016556Y021449D01*
X016348Y021449D01*
X016348Y021517D02*
X016556Y021517D01*
X016556Y021585D02*
X016348Y021585D01*
X016348Y021653D02*
X016556Y021653D01*
X016556Y021721D02*
X016348Y021721D01*
X016348Y021961D02*
X016348Y022247D01*
X016556Y022247D01*
X016556Y021961D01*
X016348Y021961D01*
X016348Y022029D02*
X016556Y022029D01*
X016556Y022097D02*
X016348Y022097D01*
X016348Y022165D02*
X016556Y022165D01*
X016556Y022233D02*
X016348Y022233D01*
X025561Y024767D02*
X025847Y024767D01*
X025847Y024559D01*
X025561Y024559D01*
X025561Y024767D01*
X025561Y024627D02*
X025847Y024627D01*
X025847Y024695D02*
X025561Y024695D01*
X025561Y024763D02*
X025847Y024763D01*
X026073Y024767D02*
X026359Y024767D01*
X026359Y024559D01*
X026073Y024559D01*
X026073Y024767D01*
X026073Y024627D02*
X026359Y024627D01*
X026359Y024695D02*
X026073Y024695D01*
X026073Y024763D02*
X026359Y024763D01*
X029616Y021695D02*
X029616Y021409D01*
X029616Y021695D02*
X029824Y021695D01*
X029824Y021409D01*
X029616Y021409D01*
X029616Y021477D02*
X029824Y021477D01*
X029824Y021545D02*
X029616Y021545D01*
X029616Y021613D02*
X029824Y021613D01*
X029824Y021681D02*
X029616Y021681D01*
X029616Y021184D02*
X029616Y020898D01*
X029616Y021184D02*
X029824Y021184D01*
X029824Y020898D01*
X029616Y020898D01*
X029616Y020966D02*
X029824Y020966D01*
X029824Y021034D02*
X029616Y021034D01*
X029616Y021102D02*
X029824Y021102D01*
X029824Y021170D02*
X029616Y021170D01*
X033946Y021184D02*
X033946Y020898D01*
X033946Y021184D02*
X034154Y021184D01*
X034154Y020898D01*
X033946Y020898D01*
X033946Y020966D02*
X034154Y020966D01*
X034154Y021034D02*
X033946Y021034D01*
X033946Y021102D02*
X034154Y021102D01*
X034154Y021170D02*
X033946Y021170D01*
X033946Y021409D02*
X033946Y021695D01*
X034154Y021695D01*
X034154Y021409D01*
X033946Y021409D01*
X033946Y021477D02*
X034154Y021477D01*
X034154Y021545D02*
X033946Y021545D01*
X033946Y021613D02*
X034154Y021613D01*
X034154Y021681D02*
X033946Y021681D01*
X014706Y044913D02*
X014706Y045199D01*
X014706Y044913D02*
X014498Y044913D01*
X014498Y045199D01*
X014706Y045199D01*
X014706Y044981D02*
X014498Y044981D01*
X014498Y045049D02*
X014706Y045049D01*
X014706Y045117D02*
X014498Y045117D01*
X014498Y045185D02*
X014706Y045185D01*
X014706Y045425D02*
X014706Y045711D01*
X014706Y045425D02*
X014498Y045425D01*
X014498Y045711D01*
X014706Y045711D01*
X014706Y045493D02*
X014498Y045493D01*
X014498Y045561D02*
X014706Y045561D01*
X014706Y045629D02*
X014498Y045629D01*
X014498Y045697D02*
X014706Y045697D01*
X023091Y054461D02*
X023091Y055377D01*
X023091Y054461D02*
X022883Y054461D01*
X022883Y055377D01*
X023091Y055377D01*
X023091Y054529D02*
X022883Y054529D01*
X022883Y054597D02*
X023091Y054597D01*
X023091Y054665D02*
X022883Y054665D01*
X022883Y054733D02*
X023091Y054733D01*
X023091Y054801D02*
X022883Y054801D01*
X022883Y054869D02*
X023091Y054869D01*
X023091Y054937D02*
X022883Y054937D01*
X022883Y055005D02*
X023091Y055005D01*
X023091Y055073D02*
X022883Y055073D01*
X022883Y055141D02*
X023091Y055141D01*
X023091Y055209D02*
X022883Y055209D01*
X022883Y055277D02*
X023091Y055277D01*
X023091Y055345D02*
X022883Y055345D01*
X023406Y055377D02*
X023406Y054461D01*
X023198Y054461D01*
X023198Y055377D01*
X023406Y055377D01*
X023406Y054529D02*
X023198Y054529D01*
X023198Y054597D02*
X023406Y054597D01*
X023406Y054665D02*
X023198Y054665D01*
X023198Y054733D02*
X023406Y054733D01*
X023406Y054801D02*
X023198Y054801D01*
X023198Y054869D02*
X023406Y054869D01*
X023406Y054937D02*
X023198Y054937D01*
X023198Y055005D02*
X023406Y055005D01*
X023406Y055073D02*
X023198Y055073D01*
X023198Y055141D02*
X023406Y055141D01*
X023406Y055209D02*
X023198Y055209D01*
X023198Y055277D02*
X023406Y055277D01*
X023406Y055345D02*
X023198Y055345D01*
X023721Y055377D02*
X023721Y054461D01*
X023513Y054461D01*
X023513Y055377D01*
X023721Y055377D01*
X023721Y054529D02*
X023513Y054529D01*
X023513Y054597D02*
X023721Y054597D01*
X023721Y054665D02*
X023513Y054665D01*
X023513Y054733D02*
X023721Y054733D01*
X023721Y054801D02*
X023513Y054801D01*
X023513Y054869D02*
X023721Y054869D01*
X023721Y054937D02*
X023513Y054937D01*
X023513Y055005D02*
X023721Y055005D01*
X023721Y055073D02*
X023513Y055073D01*
X023513Y055141D02*
X023721Y055141D01*
X023721Y055209D02*
X023513Y055209D01*
X023513Y055277D02*
X023721Y055277D01*
X023721Y055345D02*
X023513Y055345D01*
X024036Y055377D02*
X024036Y054461D01*
X023828Y054461D01*
X023828Y055377D01*
X024036Y055377D01*
X024036Y054529D02*
X023828Y054529D01*
X023828Y054597D02*
X024036Y054597D01*
X024036Y054665D02*
X023828Y054665D01*
X023828Y054733D02*
X024036Y054733D01*
X024036Y054801D02*
X023828Y054801D01*
X023828Y054869D02*
X024036Y054869D01*
X024036Y054937D02*
X023828Y054937D01*
X023828Y055005D02*
X024036Y055005D01*
X024036Y055073D02*
X023828Y055073D01*
X023828Y055141D02*
X024036Y055141D01*
X024036Y055209D02*
X023828Y055209D01*
X023828Y055277D02*
X024036Y055277D01*
X024036Y055345D02*
X023828Y055345D01*
X024351Y055377D02*
X024351Y054461D01*
X024143Y054461D01*
X024143Y055377D01*
X024351Y055377D01*
X024351Y054529D02*
X024143Y054529D01*
X024143Y054597D02*
X024351Y054597D01*
X024351Y054665D02*
X024143Y054665D01*
X024143Y054733D02*
X024351Y054733D01*
X024351Y054801D02*
X024143Y054801D01*
X024143Y054869D02*
X024351Y054869D01*
X024351Y054937D02*
X024143Y054937D01*
X024143Y055005D02*
X024351Y055005D01*
X024351Y055073D02*
X024143Y055073D01*
X024143Y055141D02*
X024351Y055141D01*
X024351Y055209D02*
X024143Y055209D01*
X024143Y055277D02*
X024351Y055277D01*
X024351Y055345D02*
X024143Y055345D01*
X028395Y055238D02*
X028603Y055238D01*
X028395Y055238D02*
X028395Y056134D01*
X028603Y056134D01*
X028603Y055238D01*
X028603Y055306D02*
X028395Y055306D01*
X028395Y055374D02*
X028603Y055374D01*
X028603Y055442D02*
X028395Y055442D01*
X028395Y055510D02*
X028603Y055510D01*
X028603Y055578D02*
X028395Y055578D01*
X028395Y055646D02*
X028603Y055646D01*
X028603Y055714D02*
X028395Y055714D01*
X028395Y055782D02*
X028603Y055782D01*
X028603Y055850D02*
X028395Y055850D01*
X028395Y055918D02*
X028603Y055918D01*
X028603Y055986D02*
X028395Y055986D01*
X028395Y056054D02*
X028603Y056054D01*
X028603Y056122D02*
X028395Y056122D01*
X028895Y055238D02*
X029103Y055238D01*
X028895Y055238D02*
X028895Y056134D01*
X029103Y056134D01*
X029103Y055238D01*
X029103Y055306D02*
X028895Y055306D01*
X028895Y055374D02*
X029103Y055374D01*
X029103Y055442D02*
X028895Y055442D01*
X028895Y055510D02*
X029103Y055510D01*
X029103Y055578D02*
X028895Y055578D01*
X028895Y055646D02*
X029103Y055646D01*
X029103Y055714D02*
X028895Y055714D01*
X028895Y055782D02*
X029103Y055782D01*
X029103Y055850D02*
X028895Y055850D01*
X028895Y055918D02*
X029103Y055918D01*
X029103Y055986D02*
X028895Y055986D01*
X028895Y056054D02*
X029103Y056054D01*
X029103Y056122D02*
X028895Y056122D01*
X029395Y055238D02*
X029603Y055238D01*
X029395Y055238D02*
X029395Y056134D01*
X029603Y056134D01*
X029603Y055238D01*
X029603Y055306D02*
X029395Y055306D01*
X029395Y055374D02*
X029603Y055374D01*
X029603Y055442D02*
X029395Y055442D01*
X029395Y055510D02*
X029603Y055510D01*
X029603Y055578D02*
X029395Y055578D01*
X029395Y055646D02*
X029603Y055646D01*
X029603Y055714D02*
X029395Y055714D01*
X029395Y055782D02*
X029603Y055782D01*
X029603Y055850D02*
X029395Y055850D01*
X029395Y055918D02*
X029603Y055918D01*
X029603Y055986D02*
X029395Y055986D01*
X029395Y056054D02*
X029603Y056054D01*
X029603Y056122D02*
X029395Y056122D01*
X029895Y055238D02*
X030103Y055238D01*
X029895Y055238D02*
X029895Y056134D01*
X030103Y056134D01*
X030103Y055238D01*
X030103Y055306D02*
X029895Y055306D01*
X029895Y055374D02*
X030103Y055374D01*
X030103Y055442D02*
X029895Y055442D01*
X029895Y055510D02*
X030103Y055510D01*
X030103Y055578D02*
X029895Y055578D01*
X029895Y055646D02*
X030103Y055646D01*
X030103Y055714D02*
X029895Y055714D01*
X029895Y055782D02*
X030103Y055782D01*
X030103Y055850D02*
X029895Y055850D01*
X029895Y055918D02*
X030103Y055918D01*
X030103Y055986D02*
X029895Y055986D01*
X029895Y056054D02*
X030103Y056054D01*
X030103Y056122D02*
X029895Y056122D01*
X029895Y053427D02*
X030103Y053427D01*
X029895Y053427D02*
X029895Y054323D01*
X030103Y054323D01*
X030103Y053427D01*
X030103Y053495D02*
X029895Y053495D01*
X029895Y053563D02*
X030103Y053563D01*
X030103Y053631D02*
X029895Y053631D01*
X029895Y053699D02*
X030103Y053699D01*
X030103Y053767D02*
X029895Y053767D01*
X029895Y053835D02*
X030103Y053835D01*
X030103Y053903D02*
X029895Y053903D01*
X029895Y053971D02*
X030103Y053971D01*
X030103Y054039D02*
X029895Y054039D01*
X029895Y054107D02*
X030103Y054107D01*
X030103Y054175D02*
X029895Y054175D01*
X029895Y054243D02*
X030103Y054243D01*
X030103Y054311D02*
X029895Y054311D01*
X029603Y053427D02*
X029395Y053427D01*
X029395Y054323D01*
X029603Y054323D01*
X029603Y053427D01*
X029603Y053495D02*
X029395Y053495D01*
X029395Y053563D02*
X029603Y053563D01*
X029603Y053631D02*
X029395Y053631D01*
X029395Y053699D02*
X029603Y053699D01*
X029603Y053767D02*
X029395Y053767D01*
X029395Y053835D02*
X029603Y053835D01*
X029603Y053903D02*
X029395Y053903D01*
X029395Y053971D02*
X029603Y053971D01*
X029603Y054039D02*
X029395Y054039D01*
X029395Y054107D02*
X029603Y054107D01*
X029603Y054175D02*
X029395Y054175D01*
X029395Y054243D02*
X029603Y054243D01*
X029603Y054311D02*
X029395Y054311D01*
X029103Y053427D02*
X028895Y053427D01*
X028895Y054323D01*
X029103Y054323D01*
X029103Y053427D01*
X029103Y053495D02*
X028895Y053495D01*
X028895Y053563D02*
X029103Y053563D01*
X029103Y053631D02*
X028895Y053631D01*
X028895Y053699D02*
X029103Y053699D01*
X029103Y053767D02*
X028895Y053767D01*
X028895Y053835D02*
X029103Y053835D01*
X029103Y053903D02*
X028895Y053903D01*
X028895Y053971D02*
X029103Y053971D01*
X029103Y054039D02*
X028895Y054039D01*
X028895Y054107D02*
X029103Y054107D01*
X029103Y054175D02*
X028895Y054175D01*
X028895Y054243D02*
X029103Y054243D01*
X029103Y054311D02*
X028895Y054311D01*
X028603Y053427D02*
X028395Y053427D01*
X028395Y054323D01*
X028603Y054323D01*
X028603Y053427D01*
X028603Y053495D02*
X028395Y053495D01*
X028395Y053563D02*
X028603Y053563D01*
X028603Y053631D02*
X028395Y053631D01*
X028395Y053699D02*
X028603Y053699D01*
X028603Y053767D02*
X028395Y053767D01*
X028395Y053835D02*
X028603Y053835D01*
X028603Y053903D02*
X028395Y053903D01*
X028395Y053971D02*
X028603Y053971D01*
X028603Y054039D02*
X028395Y054039D01*
X028395Y054107D02*
X028603Y054107D01*
X028603Y054175D02*
X028395Y054175D01*
X028395Y054243D02*
X028603Y054243D01*
X028603Y054311D02*
X028395Y054311D01*
D23*
X024483Y055942D03*
X022751Y055942D03*
X021649Y043560D03*
D24*
X018696Y045824D03*
X014464Y051631D03*
D25*
X014464Y052615D03*
X015448Y052615D03*
X015448Y051631D03*
X015448Y053600D03*
X014464Y053600D03*
X016728Y046808D03*
X016728Y045824D03*
X017712Y045824D03*
X017712Y046808D03*
X018696Y046808D03*
D26*
X015468Y045489D03*
X014129Y054860D03*
D27*
X015783Y050371D03*
X019956Y047143D03*
D28*
X023716Y034112D03*
X020314Y026903D03*
D29*
X024977Y023600D02*
X024977Y023126D01*
X024227Y023126D01*
X024227Y023600D01*
X024977Y023600D01*
X024977Y023282D02*
X024227Y023282D01*
X024227Y023438D02*
X024977Y023438D01*
X024977Y023594D02*
X024227Y023594D01*
X024977Y021868D02*
X024977Y021394D01*
X024227Y021394D01*
X024227Y021868D01*
X024977Y021868D01*
X024977Y021550D02*
X024227Y021550D01*
X024227Y021706D02*
X024977Y021706D01*
X024977Y021862D02*
X024227Y021862D01*
X015134Y021475D02*
X015134Y021001D01*
X014384Y021001D01*
X014384Y021475D01*
X015134Y021475D01*
X015134Y021157D02*
X014384Y021157D01*
X014384Y021313D02*
X015134Y021313D01*
X015134Y021469D02*
X014384Y021469D01*
X015134Y022733D02*
X015134Y023207D01*
X015134Y022733D02*
X014384Y022733D01*
X014384Y023207D01*
X015134Y023207D01*
X015134Y022889D02*
X014384Y022889D01*
X014384Y023045D02*
X015134Y023045D01*
X015134Y023201D02*
X014384Y023201D01*
D30*
X031117Y054220D02*
X031471Y054220D01*
X031471Y053924D01*
X031117Y053924D01*
X031117Y054220D01*
X031117Y054021D02*
X031471Y054021D01*
X031471Y054118D02*
X031117Y054118D01*
X031117Y054215D02*
X031471Y054215D01*
X031471Y054850D02*
X031117Y054850D01*
X031471Y054850D02*
X031471Y054554D01*
X031117Y054554D01*
X031117Y054850D01*
X031117Y054651D02*
X031471Y054651D01*
X031471Y054748D02*
X031117Y054748D01*
X031117Y054845D02*
X031471Y054845D01*
X032299Y054850D02*
X032653Y054850D01*
X032653Y054554D01*
X032299Y054554D01*
X032299Y054850D01*
X032299Y054651D02*
X032653Y054651D01*
X032653Y054748D02*
X032299Y054748D01*
X032299Y054845D02*
X032653Y054845D01*
X032653Y054220D02*
X032299Y054220D01*
X032653Y054220D02*
X032653Y053924D01*
X032299Y053924D01*
X032299Y054220D01*
X032299Y054021D02*
X032653Y054021D01*
X032653Y054118D02*
X032299Y054118D01*
X032299Y054215D02*
X032653Y054215D01*
D31*
X032003Y055647D03*
X030507Y056356D03*
X027554Y053797D03*
X025743Y055962D03*
X021649Y055962D03*
X026452Y050450D03*
X025389Y046592D03*
X023814Y046119D03*
X025428Y043285D03*
X027279Y045450D03*
X027554Y042970D03*
X029208Y044151D03*
X028932Y045844D03*
X023420Y039230D03*
X022042Y039230D03*
X022594Y041789D03*
X018854Y038049D03*
X018854Y037458D03*
X018854Y036867D03*
X018184Y036828D03*
X018184Y037458D03*
X018184Y038049D03*
X016294Y036356D03*
X015625Y036356D03*
X015940Y036986D03*
X015743Y034702D03*
X014956Y034702D03*
X014168Y034702D03*
X016531Y030962D03*
X017318Y030962D03*
X018105Y030962D03*
X018893Y030962D03*
X015743Y029978D03*
X015153Y029978D03*
D32*
X013381Y029978D03*
X015546Y040804D03*
X015940Y042773D03*
X019641Y042182D03*
X024011Y040647D03*
X024168Y039978D03*
X028342Y040017D03*
X031885Y042576D03*
X033066Y042576D03*
X033066Y044545D03*
X032476Y044938D03*
X030743Y044466D03*
X033854Y039702D03*
X034917Y037812D03*
X035428Y040096D03*
X032082Y038718D03*
X034838Y033915D03*
X034641Y032537D03*
X034641Y031552D03*
X035035Y028993D03*
X032869Y026434D03*
X028539Y024663D03*
X029287Y019584D03*
X033735Y019584D03*
X026964Y031552D03*
X023027Y020923D03*
X022042Y020923D03*
X020546Y053678D03*
D33*
X017515Y052812D03*
X036413Y052812D03*
X036413Y027222D03*
X014365Y026828D03*
M02*
