G75*
%MOIN*%
%OFA0B0*%
%FSLAX24Y24*%
%IPPOS*%
%LPD*%
%AMOC8*
5,1,8,0,0,1.08239X$1,22.5*
%
%ADD10C,0.0050*%
%ADD11C,0.0040*%
%ADD12C,0.0059*%
%ADD13C,0.0079*%
%ADD14C,0.0030*%
%ADD15C,0.0070*%
%ADD16C,0.0080*%
%ADD17C,0.0049*%
%ADD18R,0.0276X0.0236*%
%ADD19C,0.0573*%
%ADD20R,0.0197X0.0197*%
%ADD21C,0.0591*%
%ADD22C,0.0060*%
%ADD23R,0.1063X0.0217*%
%ADD24C,0.0118*%
%ADD25C,0.0325*%
%ADD26C,0.0000*%
%ADD27C,0.0001*%
%ADD28C,0.0315*%
D10*
X017812Y022325D02*
X017962Y022325D01*
X018037Y022401D01*
X018197Y022325D02*
X018197Y022776D01*
X018497Y022325D01*
X018497Y022776D01*
X018658Y022701D02*
X018733Y022776D01*
X018883Y022776D01*
X018958Y022701D01*
X018958Y022626D01*
X018883Y022551D01*
X018958Y022476D01*
X018958Y022401D01*
X018883Y022325D01*
X018733Y022325D01*
X018658Y022401D01*
X018808Y022551D02*
X018883Y022551D01*
X018037Y022701D02*
X017962Y022776D01*
X017812Y022776D01*
X017737Y022701D01*
X017737Y022401D01*
X017812Y022325D01*
X020099Y023975D02*
X020174Y023900D01*
X020324Y023900D01*
X020399Y023975D01*
X020559Y023900D02*
X020559Y024351D01*
X020860Y023900D01*
X020860Y024351D01*
X021020Y024125D02*
X021320Y024125D01*
X021245Y023900D02*
X021245Y024351D01*
X021020Y024125D01*
X020399Y024276D02*
X020324Y024351D01*
X020174Y024351D01*
X020099Y024276D01*
X020099Y023975D01*
X019771Y029568D02*
X019771Y031568D01*
X020771Y031568D01*
X020771Y029568D01*
X019771Y029568D01*
X017554Y030667D02*
X017554Y031060D01*
X016491Y031060D02*
X016491Y030667D01*
X014168Y034604D02*
X013775Y034604D01*
X013775Y035667D02*
X014168Y035667D01*
X014168Y036139D02*
X013775Y036139D01*
X013775Y037202D02*
X014168Y037202D01*
X013977Y042916D02*
X013977Y043366D01*
X013827Y043366D02*
X014127Y043366D01*
X014287Y043366D02*
X014588Y043366D01*
X014438Y043366D02*
X014438Y042916D01*
X013667Y043141D02*
X013592Y043066D01*
X013367Y043066D01*
X013367Y042916D02*
X013367Y043366D01*
X013592Y043366D01*
X013667Y043291D01*
X013667Y043141D01*
X013745Y047325D02*
X013895Y047325D01*
X013970Y047401D01*
X013970Y047701D01*
X013895Y047776D01*
X013745Y047776D01*
X013670Y047701D01*
X013670Y047401D01*
X013745Y047325D01*
X013509Y047551D02*
X013434Y047476D01*
X013209Y047476D01*
X013209Y047325D02*
X013209Y047776D01*
X013434Y047776D01*
X013509Y047701D01*
X013509Y047551D01*
X014130Y047776D02*
X014130Y047325D01*
X014280Y047476D01*
X014430Y047325D01*
X014430Y047776D01*
X014590Y047776D02*
X014590Y047325D01*
X014891Y047325D01*
X015051Y047325D02*
X015051Y047776D01*
X015276Y047776D01*
X015351Y047701D01*
X015351Y047551D01*
X015276Y047476D01*
X015051Y047476D01*
X015201Y047476D02*
X015351Y047325D01*
X014891Y047776D02*
X014590Y047776D01*
X014590Y047551D02*
X014741Y047551D01*
X018048Y043642D02*
X017973Y043567D01*
X017973Y043492D01*
X018048Y043417D01*
X018198Y043417D01*
X018273Y043342D01*
X018273Y043267D01*
X018198Y043192D01*
X018048Y043192D01*
X017973Y043267D01*
X018048Y043642D02*
X018198Y043642D01*
X018273Y043567D01*
X018433Y043642D02*
X018433Y043192D01*
X018584Y043342D01*
X018734Y043192D01*
X018734Y043642D01*
X018894Y043642D02*
X018894Y043417D01*
X019044Y043492D01*
X019119Y043492D01*
X019194Y043417D01*
X019194Y043267D01*
X019119Y043192D01*
X018969Y043192D01*
X018894Y043267D01*
X018894Y043642D02*
X019194Y043642D01*
X021255Y037241D02*
X021255Y036887D01*
X021255Y036060D02*
X021255Y035706D01*
X026753Y034311D02*
X026753Y033861D01*
X026753Y034011D02*
X026978Y034011D01*
X027053Y034086D01*
X027053Y034236D01*
X026978Y034311D01*
X026753Y034311D01*
X026903Y034011D02*
X027053Y033861D01*
X027213Y033936D02*
X027288Y033861D01*
X027438Y033861D01*
X027513Y033936D01*
X027513Y034086D01*
X027438Y034161D01*
X027363Y034161D01*
X027213Y034086D01*
X027213Y034311D01*
X027513Y034311D01*
X027673Y034236D02*
X027748Y034311D01*
X027899Y034311D01*
X027974Y034236D01*
X027974Y034161D01*
X027673Y033861D01*
X027974Y033861D01*
X027961Y032658D02*
X028186Y032658D01*
X028261Y032583D01*
X028261Y032433D01*
X028186Y032358D01*
X027961Y032358D01*
X027961Y032207D02*
X027961Y032658D01*
X027801Y032583D02*
X027726Y032658D01*
X027576Y032658D01*
X027501Y032583D01*
X027501Y032508D01*
X027576Y032433D01*
X027726Y032433D01*
X027801Y032358D01*
X027801Y032282D01*
X027726Y032207D01*
X027576Y032207D01*
X027501Y032282D01*
X027776Y031634D02*
X028001Y031634D01*
X028076Y031559D01*
X028076Y031409D01*
X028001Y031334D01*
X027776Y031334D01*
X027776Y031184D02*
X027776Y031634D01*
X027926Y031334D02*
X028076Y031184D01*
X028237Y031184D02*
X028387Y031184D01*
X028312Y031184D02*
X028312Y031634D01*
X028237Y031634D02*
X028387Y031634D01*
X028543Y031559D02*
X028543Y031259D01*
X028619Y031184D01*
X028769Y031184D01*
X028844Y031259D01*
X028844Y031409D01*
X028694Y031409D01*
X028844Y031559D02*
X028769Y031634D01*
X028619Y031634D01*
X028543Y031559D01*
X028421Y032207D02*
X028421Y032658D01*
X028496Y032433D02*
X028722Y032207D01*
X028882Y032207D02*
X028882Y032658D01*
X029107Y032658D01*
X029182Y032583D01*
X029182Y032433D01*
X029107Y032358D01*
X028882Y032358D01*
X029032Y032358D02*
X029182Y032207D01*
X028722Y032658D02*
X028421Y032358D01*
X030212Y032734D02*
X030212Y033127D01*
X031275Y033127D02*
X031275Y032734D01*
X031300Y034097D02*
X031150Y034097D01*
X031225Y034097D02*
X031225Y034548D01*
X031150Y034548D02*
X031300Y034548D01*
X031457Y034472D02*
X031457Y034172D01*
X031532Y034097D01*
X031682Y034097D01*
X031757Y034172D01*
X031757Y034472D02*
X031682Y034548D01*
X031532Y034548D01*
X031457Y034472D01*
X030990Y034548D02*
X030990Y034097D01*
X030690Y034097D02*
X030690Y034548D01*
X030840Y034397D01*
X030990Y034548D01*
X029852Y035121D02*
X029402Y035121D01*
X029402Y035346D01*
X029477Y035421D01*
X029627Y035421D01*
X029702Y035346D01*
X029702Y035121D01*
X029702Y035271D02*
X029852Y035421D01*
X029627Y035581D02*
X029627Y035881D01*
X029477Y036042D02*
X029402Y036117D01*
X029402Y036267D01*
X029477Y036342D01*
X029552Y036342D01*
X029852Y036042D01*
X029852Y036342D01*
X029852Y035806D02*
X029402Y035806D01*
X029627Y035581D01*
X031161Y039517D02*
X033161Y039517D01*
X033161Y040517D01*
X031161Y040517D01*
X031161Y039517D01*
X031157Y041986D02*
X031157Y042379D01*
X032220Y042379D02*
X032220Y041986D01*
X030692Y048860D02*
X029692Y048860D01*
X029692Y050860D01*
X030692Y050860D01*
X030692Y048860D01*
X030980Y054190D02*
X030980Y054584D01*
X031609Y054584D02*
X031609Y054190D01*
X035233Y053433D02*
X035458Y053433D01*
X035533Y053358D01*
X035533Y053208D01*
X035458Y053133D01*
X035233Y053133D01*
X035383Y053133D02*
X035533Y052983D01*
X035693Y053208D02*
X035993Y053208D01*
X036154Y053208D02*
X036379Y053208D01*
X036454Y053133D01*
X036454Y053058D01*
X036379Y052983D01*
X036229Y052983D01*
X036154Y053058D01*
X036154Y053208D01*
X036304Y053358D01*
X036454Y053433D01*
X036721Y053782D02*
X036796Y053782D01*
X036871Y053857D01*
X036871Y054007D01*
X036946Y054082D01*
X037021Y054082D01*
X037096Y054007D01*
X037096Y053857D01*
X037021Y053782D01*
X036721Y053782D02*
X036646Y053857D01*
X036646Y054007D01*
X036721Y054082D01*
X036646Y054243D02*
X036646Y054468D01*
X036721Y054543D01*
X036871Y054543D01*
X036946Y054468D01*
X036946Y054243D01*
X037096Y054243D02*
X036646Y054243D01*
X036646Y054703D02*
X037096Y054703D01*
X036946Y054703D02*
X036646Y055003D01*
X036646Y055163D02*
X036646Y055389D01*
X036721Y055464D01*
X036871Y055464D01*
X036946Y055389D01*
X036946Y055163D01*
X037096Y055163D02*
X036646Y055163D01*
X036946Y055313D02*
X037096Y055464D01*
X037096Y055003D02*
X036871Y054778D01*
X037315Y054742D02*
X037315Y055043D01*
X037315Y054892D02*
X037766Y054892D01*
X037690Y054582D02*
X037315Y054582D01*
X037315Y054282D02*
X037690Y054282D01*
X037766Y054357D01*
X037766Y054507D01*
X037690Y054582D01*
X037690Y054122D02*
X037390Y054122D01*
X037315Y054047D01*
X037315Y053897D01*
X037390Y053822D01*
X037690Y053822D01*
X037766Y053897D01*
X037766Y054047D01*
X037690Y054122D01*
X035918Y053433D02*
X035693Y053208D01*
X035918Y052983D02*
X035918Y053433D01*
X035233Y053433D02*
X035233Y052983D01*
X023019Y056577D02*
X022944Y056577D01*
X022944Y056653D01*
X023019Y056653D01*
X023019Y056577D01*
X022784Y056653D02*
X022709Y056577D01*
X022484Y056577D01*
X022484Y057028D01*
X022709Y057028D01*
X022784Y056953D01*
X022784Y056878D01*
X022709Y056803D01*
X022484Y056803D01*
X022324Y056803D02*
X022174Y056803D01*
X022324Y056803D02*
X022324Y056653D01*
X022249Y056577D01*
X022098Y056577D01*
X022023Y056653D01*
X022023Y056953D01*
X022098Y057028D01*
X022249Y057028D01*
X022324Y056953D01*
X022709Y056803D02*
X022784Y056728D01*
X022784Y056653D01*
X021863Y056577D02*
X021713Y056728D01*
X021788Y056728D02*
X021563Y056728D01*
X021563Y056577D02*
X021563Y057028D01*
X021788Y057028D01*
X021863Y056953D01*
X021863Y056803D01*
X021788Y056728D01*
X021678Y055948D02*
X021603Y055948D01*
X021528Y055873D01*
X021528Y055723D01*
X021603Y055648D01*
X021528Y055488D02*
X021978Y055488D01*
X021828Y055338D01*
X021978Y055187D01*
X021528Y055187D01*
X021603Y055027D02*
X021528Y054952D01*
X021528Y054802D01*
X021603Y054727D01*
X021678Y054727D01*
X021753Y054802D01*
X021753Y054952D01*
X021828Y055027D01*
X021903Y055027D01*
X021978Y054952D01*
X021978Y054802D01*
X021903Y054727D01*
X021978Y055648D02*
X021678Y055948D01*
X021978Y055948D02*
X021978Y055648D01*
X020942Y056653D02*
X020867Y056577D01*
X020717Y056577D01*
X020642Y056653D01*
X020642Y056803D02*
X020792Y056878D01*
X020867Y056878D01*
X020942Y056803D01*
X020942Y056653D01*
X020642Y056803D02*
X020642Y057028D01*
X020942Y057028D01*
X020332Y057028D02*
X020332Y056577D01*
X020182Y056577D02*
X020482Y056577D01*
X020182Y056878D02*
X020332Y057028D01*
X020022Y057028D02*
X019721Y056577D01*
X019561Y056653D02*
X019486Y056577D01*
X019336Y056577D01*
X019261Y056653D01*
X019101Y056653D02*
X019026Y056577D01*
X018876Y056577D01*
X018801Y056653D01*
X019101Y056953D01*
X019101Y056653D01*
X019101Y056953D02*
X019026Y057028D01*
X018876Y057028D01*
X018801Y056953D01*
X018801Y056653D01*
X018640Y057028D02*
X018340Y056577D01*
X018180Y056653D02*
X018105Y056577D01*
X017955Y056577D01*
X017880Y056653D01*
X018180Y056953D01*
X018180Y056653D01*
X018180Y056953D02*
X018105Y057028D01*
X017955Y057028D01*
X017880Y056953D01*
X017880Y056653D01*
X017720Y056577D02*
X017419Y056577D01*
X017570Y056577D02*
X017570Y057028D01*
X017419Y056878D01*
X016339Y057028D02*
X016038Y057028D01*
X016038Y056577D01*
X016038Y056803D02*
X016188Y056803D01*
X015878Y056803D02*
X015578Y056803D01*
X015418Y056953D02*
X015117Y056653D01*
X015193Y056577D01*
X015343Y056577D01*
X015418Y056653D01*
X015418Y056953D01*
X015343Y057028D01*
X015193Y057028D01*
X015117Y056953D01*
X015117Y056653D01*
X014957Y056653D02*
X014882Y056577D01*
X014732Y056577D01*
X014657Y056653D01*
X014957Y056953D01*
X014957Y056653D01*
X014957Y056953D02*
X014882Y057028D01*
X014732Y057028D01*
X014657Y056953D01*
X014657Y056653D01*
X014497Y056653D02*
X014422Y056577D01*
X014272Y056577D01*
X014197Y056653D01*
X014497Y056953D01*
X014497Y056653D01*
X014497Y056953D02*
X014422Y057028D01*
X014272Y057028D01*
X014197Y056953D01*
X014197Y056653D01*
X014037Y056577D02*
X013736Y056577D01*
X013886Y056577D02*
X013886Y057028D01*
X013736Y056878D01*
X013576Y057028D02*
X013576Y056577D01*
X013276Y056577D02*
X013276Y057028D01*
X013426Y056878D01*
X013576Y057028D01*
X013116Y056953D02*
X013041Y057028D01*
X012891Y057028D01*
X012816Y056953D01*
X012816Y056878D01*
X012891Y056803D01*
X013041Y056803D01*
X013116Y056728D01*
X013116Y056653D01*
X013041Y056577D01*
X012891Y056577D01*
X012816Y056653D01*
X019261Y056953D02*
X019336Y057028D01*
X019486Y057028D01*
X019561Y056953D01*
X019561Y056878D01*
X019486Y056803D01*
X019561Y056728D01*
X019561Y056653D01*
X019486Y056803D02*
X019411Y056803D01*
X019505Y054390D02*
X019430Y054315D01*
X019430Y054240D01*
X019505Y054165D01*
X019655Y054165D01*
X019730Y054090D01*
X019730Y054015D01*
X019655Y053940D01*
X019505Y053940D01*
X019430Y054015D01*
X019505Y054390D02*
X019655Y054390D01*
X019730Y054315D01*
X019890Y054390D02*
X019890Y053940D01*
X020040Y054090D01*
X020190Y053940D01*
X020190Y054390D01*
X020350Y054165D02*
X020576Y054390D01*
X020576Y053940D01*
X020651Y054165D02*
X020350Y054165D01*
X032733Y034587D02*
X032658Y034512D01*
X032658Y034212D01*
X032733Y034137D01*
X032883Y034137D01*
X032958Y034212D01*
X032958Y034362D01*
X032808Y034362D01*
X032958Y034512D02*
X032883Y034587D01*
X032733Y034587D01*
X033118Y034437D02*
X033269Y034587D01*
X033419Y034437D01*
X033419Y034137D01*
X033579Y034137D02*
X033729Y034137D01*
X033654Y034137D02*
X033654Y034587D01*
X033579Y034587D02*
X033729Y034587D01*
X033886Y034587D02*
X034186Y034137D01*
X034186Y034587D01*
X033886Y034587D02*
X033886Y034137D01*
X033419Y034362D02*
X033118Y034362D01*
X033118Y034437D02*
X033118Y034137D01*
X031635Y030807D02*
X031335Y030807D01*
X031100Y030807D02*
X030874Y030582D01*
X031175Y030582D01*
X031335Y030432D02*
X031335Y030357D01*
X031335Y030432D02*
X031635Y030732D01*
X031635Y030807D01*
X031100Y030807D02*
X031100Y030357D01*
X030714Y030357D02*
X030564Y030507D01*
X030639Y030507D02*
X030414Y030507D01*
X030414Y030357D02*
X030414Y030807D01*
X030639Y030807D01*
X030714Y030732D01*
X030714Y030582D01*
X030639Y030507D01*
X030369Y029387D02*
X030369Y028993D01*
X029306Y028993D02*
X029306Y029387D01*
X029720Y027025D02*
X029720Y026631D01*
X030350Y026631D02*
X030350Y027025D01*
X030129Y025793D02*
X028129Y025793D01*
X028129Y024793D01*
X030129Y024793D01*
X030129Y025793D01*
X030940Y025844D02*
X030940Y025450D01*
X031570Y025450D02*
X031570Y025844D01*
X033288Y025059D02*
X033588Y025059D01*
X033438Y025059D02*
X033438Y024609D01*
X033748Y024609D02*
X034049Y024609D01*
X033898Y024609D02*
X033898Y025059D01*
X033748Y024909D01*
X036275Y028403D02*
X036275Y028797D01*
X037338Y028797D02*
X037338Y028403D01*
X037362Y030514D02*
X037362Y030965D01*
X037287Y030965D02*
X037437Y030965D01*
X037594Y030890D02*
X037594Y030590D01*
X037669Y030514D01*
X037819Y030514D01*
X037894Y030590D01*
X037894Y030890D02*
X037819Y030965D01*
X037669Y030965D01*
X037594Y030890D01*
X037437Y030514D02*
X037287Y030514D01*
X037127Y030514D02*
X037127Y030965D01*
X036977Y030815D01*
X036826Y030965D01*
X036826Y030514D01*
X036206Y030590D02*
X036206Y030740D01*
X036056Y030740D01*
X036206Y030890D02*
X036131Y030965D01*
X035981Y030965D01*
X035906Y030890D01*
X035906Y030590D01*
X035981Y030514D01*
X036131Y030514D01*
X036206Y030590D01*
X035749Y030514D02*
X035599Y030514D01*
X035674Y030514D02*
X035674Y030965D01*
X035599Y030965D02*
X035749Y030965D01*
X035439Y030890D02*
X035439Y030740D01*
X035364Y030665D01*
X035138Y030665D01*
X035288Y030665D02*
X035439Y030514D01*
X035138Y030514D02*
X035138Y030965D01*
X035364Y030965D01*
X035439Y030890D01*
X027372Y023677D02*
X027372Y023376D01*
X027072Y023677D01*
X026997Y023677D01*
X026921Y023602D01*
X026921Y023452D01*
X026997Y023376D01*
X026921Y023216D02*
X026921Y022916D01*
X026921Y023066D02*
X027372Y023066D01*
X032756Y017558D02*
X032697Y017499D01*
X032697Y017441D01*
X032756Y017383D01*
X032873Y017383D01*
X032931Y017324D01*
X032931Y017266D01*
X032873Y017207D01*
X032756Y017207D01*
X032697Y017266D01*
X032756Y017558D02*
X032873Y017558D01*
X032931Y017499D01*
X033066Y017558D02*
X033066Y017207D01*
X033299Y017207D02*
X033299Y017558D01*
X033182Y017441D01*
X033066Y017558D01*
X033434Y017441D02*
X033551Y017558D01*
X033551Y017207D01*
X033434Y017207D02*
X033668Y017207D01*
X033802Y017266D02*
X034036Y017499D01*
X034036Y017266D01*
X033978Y017207D01*
X033861Y017207D01*
X033802Y017266D01*
X033802Y017499D01*
X033861Y017558D01*
X033978Y017558D01*
X034036Y017499D01*
X034171Y017499D02*
X034229Y017558D01*
X034346Y017558D01*
X034404Y017499D01*
X034171Y017266D01*
X034229Y017207D01*
X034346Y017207D01*
X034404Y017266D01*
X034404Y017499D01*
X034539Y017499D02*
X034539Y017266D01*
X034773Y017499D01*
X034773Y017266D01*
X034714Y017207D01*
X034597Y017207D01*
X034539Y017266D01*
X034539Y017499D02*
X034597Y017558D01*
X034714Y017558D01*
X034773Y017499D01*
X035276Y017558D02*
X035276Y017207D01*
X035276Y017324D02*
X035451Y017324D01*
X035509Y017383D01*
X035509Y017499D01*
X035451Y017558D01*
X035276Y017558D01*
X035392Y017324D02*
X035509Y017207D01*
X035644Y017266D02*
X035644Y017383D01*
X035702Y017441D01*
X035819Y017441D01*
X035877Y017383D01*
X035877Y017324D01*
X035644Y017324D01*
X035644Y017266D02*
X035702Y017207D01*
X035819Y017207D01*
X036012Y017441D02*
X036129Y017207D01*
X036246Y017441D01*
X036749Y017383D02*
X036866Y017383D01*
X036982Y017558D02*
X036749Y017558D01*
X036749Y017207D01*
X034171Y017266D02*
X034171Y017499D01*
D11*
X032147Y024934D02*
X031793Y024934D01*
X031793Y025111D01*
X031852Y025170D01*
X031970Y025170D01*
X032029Y025111D01*
X032029Y024934D01*
X032029Y025052D02*
X032147Y025170D01*
X032088Y025296D02*
X032147Y025355D01*
X032147Y025473D01*
X032088Y025532D01*
X032029Y025532D01*
X031970Y025473D01*
X031970Y025296D01*
X032088Y025296D01*
X031970Y025296D02*
X031852Y025414D01*
X031793Y025532D01*
X031852Y025659D02*
X031793Y025718D01*
X031793Y025836D01*
X031852Y025895D01*
X032088Y025659D01*
X032147Y025718D01*
X032147Y025836D01*
X032088Y025895D01*
X031852Y025895D01*
X031852Y025659D02*
X032088Y025659D01*
X030885Y025080D02*
X030578Y025080D01*
X030578Y024850D01*
X030731Y024927D01*
X030808Y024927D01*
X030885Y024850D01*
X030885Y024696D01*
X030808Y024620D01*
X030655Y024620D01*
X030578Y024696D01*
X030348Y024696D02*
X030348Y025080D01*
X030271Y025080D02*
X030425Y025080D01*
X030348Y024696D02*
X030271Y024620D01*
X030194Y024620D01*
X030118Y024696D01*
X027794Y024525D02*
X027794Y024407D01*
X027735Y024348D01*
X027676Y024348D01*
X027617Y024407D01*
X027617Y024525D01*
X027676Y024584D01*
X027735Y024584D01*
X027794Y024525D01*
X027617Y024525D02*
X027558Y024584D01*
X027499Y024584D01*
X027440Y024525D01*
X027440Y024407D01*
X027499Y024348D01*
X027558Y024348D01*
X027617Y024407D01*
X027558Y029048D02*
X027617Y029107D01*
X027617Y029284D01*
X027499Y029284D02*
X027440Y029225D01*
X027440Y029107D01*
X027499Y029048D01*
X027558Y029048D01*
X027735Y029048D02*
X027794Y029107D01*
X027794Y029225D01*
X027735Y029284D01*
X027499Y029284D01*
X023724Y034230D02*
X023488Y034230D01*
X023665Y034407D01*
X023665Y034053D01*
X023302Y034112D02*
X023243Y034053D01*
X023184Y034053D01*
X023125Y034112D01*
X023302Y034112D02*
X023302Y034407D01*
X023243Y034407D02*
X023361Y034407D01*
X020135Y029547D02*
X020076Y029547D01*
X020017Y029488D01*
X020017Y029311D01*
X020135Y029311D01*
X020194Y029370D01*
X020194Y029488D01*
X020135Y029547D01*
X019899Y029429D02*
X020017Y029311D01*
X019899Y029429D02*
X019840Y029547D01*
X019840Y029066D02*
X020194Y029066D01*
X020194Y028948D02*
X020194Y029184D01*
X019958Y028948D02*
X019840Y029066D01*
X019660Y028998D02*
X019660Y028762D01*
X019424Y028998D01*
X019365Y028998D01*
X019306Y028939D01*
X019306Y028821D01*
X019365Y028762D01*
X019306Y028518D02*
X019660Y028518D01*
X019660Y028400D02*
X019660Y028636D01*
X019424Y028400D02*
X019306Y028518D01*
X019306Y028273D02*
X019660Y028273D01*
X019306Y028037D01*
X019660Y028037D01*
X019601Y027911D02*
X019660Y027852D01*
X019660Y027734D01*
X019601Y027675D01*
X019365Y027675D01*
X019306Y027734D01*
X019306Y027852D01*
X019365Y027911D01*
X019484Y030191D02*
X019177Y030191D01*
X019484Y030498D01*
X019484Y030574D01*
X019407Y030651D01*
X019254Y030651D01*
X019177Y030574D01*
X019023Y030651D02*
X018870Y030651D01*
X018947Y030651D02*
X018947Y030267D01*
X018870Y030191D01*
X018793Y030191D01*
X018717Y030267D01*
X020294Y024584D02*
X020294Y024348D01*
X020294Y024466D02*
X019940Y024466D01*
X020058Y024348D01*
X013637Y027104D02*
X013204Y027104D01*
X013204Y027576D01*
X013637Y027576D02*
X013637Y027104D01*
X013657Y045943D02*
X013598Y046002D01*
X013657Y045943D02*
X013775Y045943D01*
X013834Y046002D01*
X013834Y046061D01*
X013775Y046120D01*
X013657Y046120D01*
X013598Y046179D01*
X013598Y046238D01*
X013657Y046297D01*
X013775Y046297D01*
X013834Y046238D01*
X013960Y046297D02*
X013960Y045943D01*
X014078Y046061D01*
X014196Y045943D01*
X014196Y046297D01*
X014323Y046179D02*
X014441Y046297D01*
X014441Y045943D01*
X014323Y045943D02*
X014559Y045943D01*
X014448Y048108D02*
X014566Y048226D01*
X014684Y048108D01*
X014684Y048462D01*
X014810Y048403D02*
X014869Y048462D01*
X014987Y048462D01*
X015046Y048403D01*
X015046Y048344D01*
X014987Y048285D01*
X015046Y048226D01*
X015046Y048167D01*
X014987Y048108D01*
X014869Y048108D01*
X014810Y048167D01*
X014928Y048285D02*
X014987Y048285D01*
X014448Y048462D02*
X014448Y048108D01*
X014321Y048167D02*
X014262Y048108D01*
X014144Y048108D01*
X014085Y048167D01*
X014144Y048285D02*
X014262Y048285D01*
X014321Y048226D01*
X014321Y048167D01*
X014144Y048285D02*
X014085Y048344D01*
X014085Y048403D01*
X014144Y048462D01*
X014262Y048462D01*
X014321Y048403D01*
X022456Y053285D02*
X022515Y053226D01*
X022633Y053226D01*
X022692Y053285D01*
X022819Y053226D02*
X023055Y053226D01*
X023181Y053226D02*
X023299Y053226D01*
X023240Y053226D02*
X023240Y053580D01*
X023181Y053580D02*
X023299Y053580D01*
X023423Y053580D02*
X023600Y053580D01*
X023659Y053521D01*
X023659Y053403D01*
X023600Y053344D01*
X023423Y053344D01*
X023423Y053226D02*
X023423Y053580D01*
X022819Y053580D02*
X022819Y053226D01*
X022692Y053521D02*
X022633Y053580D01*
X022515Y053580D01*
X022456Y053521D01*
X022456Y053285D01*
X024622Y053285D02*
X024681Y053226D01*
X024799Y053226D01*
X024858Y053285D01*
X024858Y053344D01*
X024799Y053403D01*
X024681Y053403D01*
X024622Y053462D01*
X024622Y053521D01*
X024681Y053580D01*
X024799Y053580D01*
X024858Y053521D01*
X024984Y053521D02*
X025102Y053403D01*
X025102Y053226D01*
X025102Y053403D02*
X025220Y053521D01*
X025220Y053580D01*
X025347Y053580D02*
X025583Y053226D01*
X025583Y053580D01*
X025709Y053521D02*
X025709Y053285D01*
X025768Y053226D01*
X025886Y053226D01*
X025945Y053285D01*
X025945Y053521D02*
X025886Y053580D01*
X025768Y053580D01*
X025709Y053521D01*
X025347Y053580D02*
X025347Y053226D01*
X024984Y053521D02*
X024984Y053580D01*
X026984Y053580D02*
X026984Y053226D01*
X026984Y053344D02*
X027161Y053344D01*
X027220Y053403D01*
X027220Y053521D01*
X027161Y053580D01*
X026984Y053580D01*
X027346Y053580D02*
X027582Y053580D01*
X027464Y053580D02*
X027464Y053226D01*
X027827Y053226D02*
X027827Y053580D01*
X027709Y053580D02*
X027945Y053580D01*
X028559Y053580D02*
X028559Y053226D01*
X028559Y053344D02*
X028736Y053344D01*
X028795Y053403D01*
X028795Y053521D01*
X028736Y053580D01*
X028559Y053580D01*
X028921Y053521D02*
X028921Y053285D01*
X028980Y053226D01*
X029098Y053226D01*
X029157Y053285D01*
X029157Y053521D01*
X029098Y053580D01*
X028980Y053580D01*
X028921Y053521D01*
X029284Y053580D02*
X029284Y053226D01*
X029402Y053344D01*
X029520Y053226D01*
X029520Y053580D01*
X029646Y053580D02*
X029646Y053226D01*
X029882Y053226D01*
X030009Y053226D02*
X030009Y053580D01*
X030186Y053580D01*
X030245Y053521D01*
X030245Y053403D01*
X030186Y053344D01*
X030009Y053344D01*
X030127Y053344D02*
X030245Y053226D01*
X029882Y053580D02*
X029646Y053580D01*
X029646Y053403D02*
X029764Y053403D01*
D12*
X012594Y056159D02*
X012594Y016789D01*
X038184Y016789D01*
X038184Y056159D01*
X012594Y056159D01*
X014365Y056159D02*
X015546Y056159D01*
X016137Y055765D02*
X016137Y054584D01*
X016924Y054584D01*
X017712Y054584D02*
X018499Y054584D01*
X018499Y055765D01*
X017751Y055765D01*
X016885Y055765D02*
X016137Y055765D01*
X016255Y053403D02*
X015901Y053403D01*
X014759Y053403D01*
X013657Y052812D02*
X013657Y048678D01*
X015153Y048678D01*
X016255Y049269D02*
X016255Y049308D01*
X016255Y053403D01*
X018893Y054584D02*
X018893Y055765D01*
X019641Y055765D01*
X020507Y055765D02*
X021255Y055765D01*
X021255Y054584D01*
X020468Y054584D01*
X019680Y054584D02*
X018893Y054584D01*
X019602Y053797D02*
X021334Y053797D01*
X021334Y052458D01*
X019602Y052458D01*
X019602Y053797D01*
X022436Y055923D02*
X022438Y055949D01*
X022443Y055974D01*
X022451Y055998D01*
X022462Y056022D01*
X022477Y056043D01*
X022494Y056062D01*
X022513Y056079D01*
X022535Y056094D01*
X022558Y056105D01*
X022582Y056113D01*
X022607Y056118D01*
X022633Y056120D01*
X022633Y056119D02*
X023420Y056119D01*
X023421Y056120D02*
X023449Y056112D01*
X023476Y056100D01*
X023502Y056086D01*
X023526Y056069D01*
X023547Y056049D01*
X023567Y056028D01*
X023584Y056004D01*
X023598Y055978D01*
X023610Y055951D01*
X023618Y055923D01*
X023046Y055962D02*
X023046Y055175D01*
X023007Y055175D01*
X023007Y055962D01*
X023046Y055962D01*
X023046Y055175D01*
X023007Y055175D01*
X022968Y055175D01*
X022968Y055962D01*
X023007Y055962D01*
X023007Y055175D01*
X022968Y055175D01*
X022830Y055175D01*
X022791Y055175D01*
X022830Y055175D01*
X022968Y055175D01*
X022968Y055962D01*
X022830Y055962D01*
X022791Y055962D01*
X022830Y055962D01*
X022968Y055962D01*
X023007Y055962D01*
X023046Y055962D01*
X024601Y055923D02*
X024603Y055949D01*
X024608Y055974D01*
X024616Y055998D01*
X024627Y056022D01*
X024642Y056043D01*
X024659Y056062D01*
X024678Y056079D01*
X024700Y056094D01*
X024723Y056105D01*
X024747Y056113D01*
X024772Y056118D01*
X024798Y056120D01*
X024798Y056119D02*
X025586Y056119D01*
X025586Y056120D02*
X025614Y056112D01*
X025641Y056100D01*
X025667Y056086D01*
X025691Y056069D01*
X025712Y056049D01*
X025732Y056028D01*
X025749Y056004D01*
X025763Y055978D01*
X025775Y055951D01*
X025783Y055923D01*
X025212Y055962D02*
X025212Y055175D01*
X025172Y055175D01*
X025172Y055962D01*
X025212Y055962D01*
X025212Y055175D01*
X025172Y055175D01*
X025133Y055175D01*
X025133Y055962D01*
X025172Y055962D01*
X025172Y055175D01*
X025133Y055175D01*
X024995Y055175D01*
X024956Y055175D01*
X024995Y055175D01*
X025133Y055175D01*
X025133Y055962D01*
X024995Y055962D01*
X024956Y055962D01*
X024995Y055962D01*
X025133Y055962D01*
X025172Y055962D01*
X025212Y055962D01*
X026767Y055923D02*
X026769Y055949D01*
X026774Y055974D01*
X026782Y055998D01*
X026793Y056022D01*
X026808Y056043D01*
X026825Y056062D01*
X026844Y056079D01*
X026866Y056094D01*
X026889Y056105D01*
X026913Y056113D01*
X026938Y056118D01*
X026964Y056120D01*
X026964Y056119D02*
X027751Y056119D01*
X027751Y056120D02*
X027779Y056112D01*
X027806Y056100D01*
X027832Y056086D01*
X027856Y056069D01*
X027877Y056049D01*
X027897Y056028D01*
X027914Y056004D01*
X027928Y055978D01*
X027940Y055951D01*
X027948Y055923D01*
X027377Y055962D02*
X027377Y055175D01*
X027338Y055175D01*
X027338Y055962D01*
X027377Y055962D01*
X027377Y055175D01*
X027338Y055175D01*
X027298Y055175D01*
X027298Y055962D01*
X027338Y055962D01*
X027338Y055175D01*
X027298Y055175D01*
X027161Y055175D01*
X027121Y055175D01*
X027161Y055175D01*
X027298Y055175D01*
X027298Y055962D01*
X027161Y055962D01*
X027121Y055962D01*
X027161Y055962D01*
X027298Y055962D01*
X027338Y055962D01*
X027377Y055962D01*
X028932Y055923D02*
X028934Y055949D01*
X028939Y055974D01*
X028947Y055998D01*
X028958Y056022D01*
X028973Y056043D01*
X028990Y056062D01*
X029009Y056079D01*
X029031Y056094D01*
X029054Y056105D01*
X029078Y056113D01*
X029103Y056118D01*
X029129Y056120D01*
X029129Y056119D02*
X029917Y056119D01*
X029917Y056120D02*
X029945Y056112D01*
X029972Y056100D01*
X029998Y056086D01*
X030022Y056069D01*
X030043Y056049D01*
X030063Y056028D01*
X030080Y056004D01*
X030094Y055978D01*
X030106Y055951D01*
X030114Y055923D01*
X029542Y055962D02*
X029542Y055175D01*
X029503Y055175D01*
X029503Y055962D01*
X029542Y055962D01*
X029542Y055175D01*
X029503Y055175D01*
X029464Y055175D01*
X029464Y055962D01*
X029503Y055962D01*
X029503Y055175D01*
X029464Y055175D01*
X029326Y055175D01*
X029287Y055175D01*
X029326Y055175D01*
X029464Y055175D01*
X029464Y055962D01*
X029326Y055962D01*
X029287Y055962D01*
X029326Y055962D01*
X029464Y055962D01*
X029503Y055962D01*
X029542Y055962D01*
X032448Y055761D02*
X032448Y053596D01*
X036385Y053596D01*
X036385Y055761D01*
X032448Y055761D01*
X027653Y051926D02*
X027298Y051926D01*
X027298Y051297D01*
X027653Y051297D01*
X027298Y051297D02*
X027259Y051297D01*
X027259Y051926D01*
X027298Y051926D01*
X027259Y051926D02*
X027220Y051926D01*
X027220Y051297D01*
X027259Y051297D01*
X026767Y049171D02*
X026767Y044052D01*
X022042Y044052D01*
X021649Y044446D01*
X021649Y049171D01*
X026767Y049171D01*
X023972Y051001D02*
X023263Y051001D01*
X023263Y051867D01*
X023972Y051867D01*
X023972Y051001D01*
X022042Y044643D02*
X022044Y044670D01*
X022050Y044697D01*
X022059Y044723D01*
X022072Y044747D01*
X022088Y044770D01*
X022107Y044789D01*
X022129Y044806D01*
X022153Y044820D01*
X022178Y044830D01*
X022205Y044837D01*
X022232Y044840D01*
X022260Y044839D01*
X022287Y044834D01*
X022313Y044826D01*
X022337Y044814D01*
X022360Y044798D01*
X022381Y044780D01*
X022398Y044759D01*
X022413Y044735D01*
X022424Y044710D01*
X022432Y044684D01*
X022436Y044657D01*
X022436Y044629D01*
X022432Y044602D01*
X022424Y044576D01*
X022413Y044551D01*
X022398Y044527D01*
X022381Y044506D01*
X022360Y044488D01*
X022338Y044472D01*
X022313Y044460D01*
X022287Y044452D01*
X022260Y044447D01*
X022232Y044446D01*
X022205Y044449D01*
X022178Y044456D01*
X022153Y044466D01*
X022129Y044480D01*
X022107Y044497D01*
X022088Y044516D01*
X022072Y044539D01*
X022059Y044563D01*
X022050Y044589D01*
X022044Y044616D01*
X022042Y044643D01*
X020074Y044938D02*
X020074Y043442D01*
X015940Y043442D01*
X015350Y044545D02*
X015350Y045686D01*
X015350Y046041D01*
X019444Y046041D01*
X019483Y046041D01*
X019228Y042596D02*
X017456Y042596D01*
X017456Y040824D01*
X019228Y040824D01*
X019228Y042596D01*
X019897Y040785D02*
X021235Y040785D01*
X021235Y039052D01*
X019897Y039052D01*
X019897Y040785D01*
X021708Y039800D02*
X021708Y039249D01*
X021964Y039249D01*
X021964Y039800D02*
X021708Y039800D01*
X022594Y039800D02*
X022850Y039800D01*
X022850Y039249D01*
X022594Y039249D01*
X023578Y040608D02*
X023578Y041395D01*
X024129Y041986D02*
X024287Y041986D01*
X024838Y041395D02*
X024838Y040608D01*
X025054Y040411D02*
X025054Y039761D01*
X024405Y039761D01*
X024287Y040017D02*
X024129Y040017D01*
X023696Y035883D02*
X023698Y035970D01*
X023704Y036056D01*
X023714Y036142D01*
X023728Y036228D01*
X023745Y036313D01*
X023767Y036397D01*
X023793Y036479D01*
X023822Y036561D01*
X023855Y036641D01*
X023891Y036720D01*
X023931Y036797D01*
X023975Y036871D01*
X024022Y036944D01*
X024072Y037015D01*
X024126Y037083D01*
X024182Y037149D01*
X024242Y037212D01*
X024304Y037272D01*
X024369Y037329D01*
X024437Y037384D01*
X024507Y037435D01*
X024579Y037482D01*
X024654Y037527D01*
X024730Y037568D01*
X024808Y037605D01*
X024888Y037639D01*
X024969Y037669D01*
X025052Y037696D01*
X025135Y037718D01*
X025220Y037737D01*
X025305Y037752D01*
X025391Y037763D01*
X025478Y037770D01*
X025564Y037773D01*
X025651Y037772D01*
X025738Y037767D01*
X025824Y037758D01*
X025909Y037745D01*
X025994Y037728D01*
X026079Y037708D01*
X026162Y037683D01*
X026244Y037655D01*
X026324Y037623D01*
X026403Y037587D01*
X026481Y037548D01*
X026556Y037505D01*
X026629Y037459D01*
X026700Y037409D01*
X026769Y037357D01*
X026836Y037301D01*
X026899Y037242D01*
X026960Y037181D01*
X027018Y037116D01*
X027073Y037049D01*
X027125Y036980D01*
X027174Y036908D01*
X027219Y036834D01*
X027261Y036758D01*
X027299Y036681D01*
X027334Y036601D01*
X027365Y036520D01*
X027393Y036438D01*
X027416Y036355D01*
X027436Y036270D01*
X027452Y036185D01*
X027464Y036099D01*
X027472Y036013D01*
X027476Y035926D01*
X027476Y035840D01*
X027472Y035753D01*
X027464Y035667D01*
X027452Y035581D01*
X027436Y035496D01*
X027416Y035411D01*
X027393Y035328D01*
X027365Y035246D01*
X027334Y035165D01*
X027299Y035085D01*
X027261Y035008D01*
X027219Y034932D01*
X027174Y034858D01*
X027125Y034786D01*
X027073Y034717D01*
X027018Y034650D01*
X026960Y034585D01*
X026899Y034524D01*
X026836Y034465D01*
X026769Y034409D01*
X026700Y034357D01*
X026629Y034307D01*
X026556Y034261D01*
X026481Y034218D01*
X026403Y034179D01*
X026324Y034143D01*
X026244Y034111D01*
X026162Y034083D01*
X026079Y034058D01*
X025994Y034038D01*
X025909Y034021D01*
X025824Y034008D01*
X025738Y033999D01*
X025651Y033994D01*
X025564Y033993D01*
X025478Y033996D01*
X025391Y034003D01*
X025305Y034014D01*
X025220Y034029D01*
X025135Y034048D01*
X025052Y034070D01*
X024969Y034097D01*
X024888Y034127D01*
X024808Y034161D01*
X024730Y034198D01*
X024654Y034239D01*
X024579Y034284D01*
X024507Y034331D01*
X024437Y034382D01*
X024369Y034437D01*
X024304Y034494D01*
X024242Y034554D01*
X024182Y034617D01*
X024126Y034683D01*
X024072Y034751D01*
X024022Y034822D01*
X023975Y034895D01*
X023931Y034969D01*
X023891Y035046D01*
X023855Y035125D01*
X023822Y035205D01*
X023793Y035287D01*
X023767Y035369D01*
X023745Y035453D01*
X023728Y035538D01*
X023714Y035624D01*
X023704Y035710D01*
X023698Y035796D01*
X023696Y035883D01*
X024680Y033875D02*
X021767Y033875D01*
X021767Y031592D01*
X024680Y031592D01*
X024680Y033875D01*
X024798Y031356D02*
X024798Y029387D01*
X022436Y029387D01*
X022436Y031356D01*
X024798Y031356D01*
X027023Y031946D02*
X027023Y033718D01*
X027042Y033718D02*
X027948Y033718D01*
X028775Y033718D02*
X029641Y033718D01*
X029661Y033718D02*
X029661Y032005D01*
X028932Y030954D02*
X027751Y030954D01*
X027814Y028828D02*
X027814Y024828D01*
X019814Y024828D01*
X019814Y026328D01*
X019858Y026330D01*
X019901Y026336D01*
X019943Y026345D01*
X019985Y026358D01*
X020025Y026375D01*
X020064Y026395D01*
X020101Y026418D01*
X020135Y026445D01*
X020168Y026474D01*
X020197Y026507D01*
X020224Y026541D01*
X020247Y026578D01*
X020267Y026617D01*
X020284Y026657D01*
X020297Y026699D01*
X020306Y026741D01*
X020312Y026784D01*
X020314Y026828D01*
X020312Y026872D01*
X020306Y026915D01*
X020297Y026957D01*
X020284Y026999D01*
X020267Y027039D01*
X020247Y027078D01*
X020224Y027115D01*
X020197Y027149D01*
X020168Y027182D01*
X020135Y027211D01*
X020101Y027238D01*
X020064Y027261D01*
X020025Y027281D01*
X019985Y027298D01*
X019943Y027311D01*
X019901Y027320D01*
X019858Y027326D01*
X019814Y027328D01*
X019814Y028828D01*
X027814Y028828D01*
X030763Y028403D02*
X030763Y030175D01*
X030783Y030175D02*
X031688Y030175D01*
X032515Y030175D02*
X033381Y030175D01*
X033401Y030175D02*
X033401Y028462D01*
X032672Y027411D02*
X031491Y027411D01*
X031314Y024033D02*
X031314Y018993D01*
X030999Y018993D01*
X031865Y018993D02*
X032180Y018993D01*
X031865Y018993D02*
X031865Y024033D01*
X032180Y024033D01*
X031314Y024033D02*
X031078Y024033D01*
X027850Y024033D02*
X027535Y024033D01*
X027535Y018993D01*
X027850Y018993D01*
X026570Y020332D02*
X026570Y016986D01*
X020271Y016986D01*
X020271Y020332D01*
X020271Y023678D01*
X021255Y023678D01*
X019542Y024210D02*
X018893Y024210D01*
X019542Y024210D02*
X019542Y027222D01*
X019287Y027478D01*
X018893Y027478D01*
X016924Y027478D02*
X016531Y027478D01*
X016275Y027222D01*
X016275Y024210D01*
X016924Y024210D01*
X017515Y022970D02*
X017515Y022104D01*
X017515Y020923D02*
X017515Y019741D01*
X017515Y018560D02*
X017515Y017182D01*
X013972Y017182D01*
X013972Y018560D01*
X013972Y019741D02*
X013972Y020923D01*
X013972Y022104D02*
X013972Y022970D01*
X017515Y022970D01*
X013617Y027458D02*
X013224Y027458D01*
X013224Y027497D02*
X013617Y027497D01*
X013617Y027537D02*
X013224Y027537D01*
X013381Y030608D02*
X013381Y031316D01*
X014168Y030962D02*
X014170Y031001D01*
X014176Y031040D01*
X014186Y031078D01*
X014199Y031115D01*
X014216Y031150D01*
X014236Y031184D01*
X014260Y031215D01*
X014287Y031244D01*
X014316Y031270D01*
X014348Y031293D01*
X014382Y031313D01*
X014418Y031329D01*
X014455Y031341D01*
X014494Y031350D01*
X014533Y031355D01*
X014572Y031356D01*
X014611Y031353D01*
X014650Y031346D01*
X014687Y031335D01*
X014724Y031321D01*
X014759Y031303D01*
X014792Y031282D01*
X014823Y031257D01*
X014851Y031230D01*
X014876Y031200D01*
X014898Y031167D01*
X014917Y031133D01*
X014932Y031097D01*
X014944Y031059D01*
X014952Y031021D01*
X014956Y030982D01*
X014956Y030942D01*
X014952Y030903D01*
X014944Y030865D01*
X014932Y030827D01*
X014917Y030791D01*
X014898Y030757D01*
X014876Y030724D01*
X014851Y030694D01*
X014823Y030667D01*
X014792Y030642D01*
X014759Y030621D01*
X014724Y030603D01*
X014687Y030589D01*
X014650Y030578D01*
X014611Y030571D01*
X014572Y030568D01*
X014533Y030569D01*
X014494Y030574D01*
X014455Y030583D01*
X014418Y030595D01*
X014382Y030611D01*
X014348Y030631D01*
X014316Y030654D01*
X014287Y030680D01*
X014260Y030709D01*
X014236Y030740D01*
X014216Y030774D01*
X014199Y030809D01*
X014186Y030846D01*
X014176Y030884D01*
X014170Y030923D01*
X014168Y030962D01*
X015743Y031316D02*
X015743Y030608D01*
X017731Y031671D02*
X017987Y031671D01*
X017731Y031671D02*
X017731Y032222D01*
X017987Y032222D01*
X018617Y032222D02*
X018873Y032222D01*
X018873Y031671D01*
X018617Y031671D01*
X019129Y034741D02*
X017869Y034741D01*
X017869Y034820D01*
X019129Y034820D02*
X019129Y034741D01*
X019129Y036946D02*
X017869Y036946D01*
X017869Y036986D01*
X019129Y036986D01*
X019129Y036946D01*
X019129Y036986D02*
X019129Y037025D01*
X017869Y037025D01*
X017869Y036986D01*
X012594Y044151D02*
X012594Y045332D01*
X027830Y040529D02*
X027830Y039702D01*
X027830Y040529D02*
X029917Y040529D01*
X030428Y040017D01*
X030428Y039702D01*
X030428Y038757D02*
X030428Y038442D01*
X029917Y037930D01*
X027830Y037930D01*
X027830Y038757D01*
X029976Y037655D02*
X029976Y035883D01*
X030704Y034891D02*
X031885Y034891D01*
X032613Y035942D02*
X032613Y037655D01*
X032594Y037655D02*
X031728Y037655D01*
X030901Y037655D02*
X029995Y037655D01*
X034917Y038127D02*
X034917Y040214D01*
X035428Y040726D01*
X035743Y040726D01*
X036688Y040726D02*
X037003Y040726D01*
X037515Y040214D01*
X037515Y038127D01*
X036688Y038127D01*
X035743Y038127D02*
X034917Y038127D01*
X035231Y043501D02*
X034582Y043501D01*
X034582Y046513D01*
X034838Y046769D01*
X035231Y046769D01*
X034267Y047497D02*
X034011Y047753D01*
X033617Y047753D01*
X034267Y047497D02*
X034267Y044486D01*
X033617Y044486D01*
X031649Y044486D02*
X030999Y044486D01*
X030999Y047497D01*
X031255Y047753D01*
X031649Y047753D01*
X037200Y046769D02*
X037594Y046769D01*
X037850Y046513D01*
X037850Y043501D01*
X037200Y043501D01*
X035645Y024033D02*
X035409Y024033D01*
X035645Y024033D02*
X035645Y018993D01*
X035330Y018993D01*
X026570Y020332D02*
X026570Y023678D01*
X025586Y023678D01*
D13*
X027200Y041198D02*
X027200Y041749D01*
D14*
X027440Y041053D02*
X027634Y040859D01*
X027682Y040908D01*
X027682Y041005D01*
X027634Y041053D01*
X027440Y041053D01*
X027392Y041005D01*
X027392Y040908D01*
X027440Y040859D01*
X027634Y040859D01*
X027682Y040758D02*
X027682Y040565D01*
X027682Y040662D02*
X027392Y040662D01*
X027489Y040565D01*
X027440Y040464D02*
X027392Y040415D01*
X027392Y040319D01*
X027440Y040270D01*
X027634Y040270D01*
X027682Y040319D01*
X027682Y040415D01*
X027634Y040464D01*
X026620Y040513D02*
X026571Y040465D01*
X026475Y040465D01*
X026426Y040513D01*
X026620Y040707D01*
X026620Y040513D01*
X026426Y040513D02*
X026426Y040707D01*
X026475Y040755D01*
X026571Y040755D01*
X026620Y040707D01*
X026325Y040465D02*
X026132Y040465D01*
X026228Y040465D02*
X026228Y040755D01*
X026132Y040659D01*
X026031Y040707D02*
X026031Y040610D01*
X025982Y040562D01*
X025837Y040562D01*
X025934Y040562D02*
X026031Y040465D01*
X025837Y040465D02*
X025837Y040755D01*
X025982Y040755D01*
X026031Y040707D01*
X026053Y041567D02*
X026246Y041761D01*
X026246Y041809D01*
X026198Y041858D01*
X026101Y041858D01*
X026053Y041809D01*
X025952Y041809D02*
X025903Y041858D01*
X025807Y041858D01*
X025758Y041809D01*
X025758Y041616D01*
X025807Y041567D01*
X025903Y041567D01*
X025952Y041616D01*
X026053Y041567D02*
X026246Y041567D01*
X025222Y042276D02*
X025029Y042276D01*
X025222Y042470D01*
X025222Y042518D01*
X025174Y042566D01*
X025077Y042566D01*
X025029Y042518D01*
X024831Y042566D02*
X024831Y042276D01*
X024734Y042276D02*
X024928Y042276D01*
X024734Y042470D02*
X024831Y042566D01*
X024633Y042518D02*
X024585Y042566D01*
X024488Y042566D01*
X024439Y042518D01*
X024439Y042325D01*
X024488Y042276D01*
X024585Y042276D01*
X024633Y042325D01*
X024626Y042901D02*
X024674Y042949D01*
X024626Y042901D02*
X024529Y042901D01*
X024481Y042949D01*
X024481Y043143D01*
X024529Y043191D01*
X024626Y043191D01*
X024674Y043143D01*
X024775Y043095D02*
X024872Y043191D01*
X024872Y042901D01*
X024775Y042901D02*
X024969Y042901D01*
X025070Y042949D02*
X025118Y042901D01*
X025215Y042901D01*
X025263Y042949D01*
X025263Y042998D01*
X025215Y043046D01*
X025167Y043046D01*
X025215Y043046D02*
X025263Y043095D01*
X025263Y043143D01*
X025215Y043191D01*
X025118Y043191D01*
X025070Y043143D01*
X024021Y043051D02*
X023828Y043051D01*
X023973Y043196D01*
X023973Y042906D01*
X023727Y042906D02*
X023533Y042906D01*
X023630Y042906D02*
X023630Y043196D01*
X023533Y043100D01*
X023432Y043148D02*
X023432Y043051D01*
X023384Y043003D01*
X023239Y043003D01*
X023335Y043003D02*
X023432Y042906D01*
X023239Y042906D02*
X023239Y043196D01*
X023384Y043196D01*
X023432Y043148D01*
X023384Y042645D02*
X023432Y042597D01*
X023432Y042500D01*
X023384Y042452D01*
X023239Y042452D01*
X023335Y042452D02*
X023432Y042355D01*
X023533Y042403D02*
X023582Y042355D01*
X023678Y042355D01*
X023727Y042403D01*
X023727Y042452D01*
X023678Y042500D01*
X023630Y042500D01*
X023678Y042500D02*
X023727Y042548D01*
X023727Y042597D01*
X023678Y042645D01*
X023582Y042645D01*
X023533Y042597D01*
X023384Y042645D02*
X023239Y042645D01*
X023239Y042355D01*
X023828Y042355D02*
X024021Y042355D01*
X023925Y042355D02*
X023925Y042645D01*
X023828Y042548D01*
X022910Y041582D02*
X022765Y041437D01*
X022958Y041437D01*
X022910Y041292D02*
X022910Y041582D01*
X022664Y041534D02*
X022615Y041582D01*
X022519Y041582D01*
X022470Y041534D01*
X022369Y041534D02*
X022321Y041582D01*
X022224Y041582D01*
X022176Y041534D01*
X022176Y041340D01*
X022224Y041292D01*
X022321Y041292D01*
X022369Y041340D01*
X022470Y041292D02*
X022664Y041485D01*
X022664Y041534D01*
X022664Y041292D02*
X022470Y041292D01*
X021713Y041054D02*
X021664Y041054D01*
X021471Y041248D01*
X021422Y041248D01*
X021422Y041054D01*
X021422Y040857D02*
X021713Y040857D01*
X021713Y040953D02*
X021713Y040760D01*
X021713Y040659D02*
X021616Y040562D01*
X021616Y040610D02*
X021616Y040465D01*
X021713Y040465D02*
X021422Y040465D01*
X021422Y040610D01*
X021471Y040659D01*
X021567Y040659D01*
X021616Y040610D01*
X021519Y040760D02*
X021422Y040857D01*
X021001Y041397D02*
X021049Y041446D01*
X021049Y041639D01*
X021001Y041687D01*
X020904Y041687D01*
X020855Y041639D01*
X020855Y041591D01*
X020904Y041542D01*
X021049Y041542D01*
X021001Y041397D02*
X020904Y041397D01*
X020855Y041446D01*
X020754Y041542D02*
X020561Y041542D01*
X020706Y041687D01*
X020706Y041397D01*
X020460Y041446D02*
X020411Y041397D01*
X020315Y041397D01*
X020266Y041446D01*
X020266Y041639D01*
X020315Y041687D01*
X020411Y041687D01*
X020460Y041639D01*
X021034Y042296D02*
X021034Y042586D01*
X021179Y042586D01*
X021227Y042538D01*
X021227Y042441D01*
X021179Y042393D01*
X021034Y042393D01*
X021131Y042393D02*
X021227Y042296D01*
X021329Y042344D02*
X021377Y042296D01*
X021474Y042296D01*
X021522Y042344D01*
X021522Y042393D01*
X021474Y042441D01*
X021425Y042441D01*
X021474Y042441D02*
X021522Y042489D01*
X021522Y042538D01*
X021474Y042586D01*
X021377Y042586D01*
X021329Y042538D01*
X021286Y043201D02*
X021092Y043201D01*
X021189Y043201D02*
X021189Y043492D01*
X021092Y043395D01*
X020991Y043443D02*
X020943Y043492D01*
X020846Y043492D01*
X020798Y043443D01*
X020798Y043250D01*
X020846Y043201D01*
X020943Y043201D01*
X020991Y043250D01*
X021387Y043250D02*
X021435Y043201D01*
X021532Y043201D01*
X021580Y043250D01*
X021580Y043298D01*
X021532Y043346D01*
X021387Y043346D01*
X021387Y043250D01*
X021387Y043346D02*
X021484Y043443D01*
X021580Y043492D01*
X019882Y043781D02*
X019882Y043878D01*
X019833Y043926D01*
X019882Y044027D02*
X019882Y044221D01*
X019882Y044124D02*
X019592Y044124D01*
X019688Y044027D01*
X019640Y043926D02*
X019592Y043878D01*
X019592Y043781D01*
X019640Y043733D01*
X019833Y043733D01*
X019882Y043781D01*
X019882Y044322D02*
X019833Y044322D01*
X019640Y044516D01*
X019592Y044516D01*
X019592Y044322D01*
X020010Y046489D02*
X020010Y046779D01*
X020155Y046779D01*
X020204Y046731D01*
X020204Y046634D01*
X020155Y046585D01*
X020010Y046585D01*
X020107Y046585D02*
X020204Y046489D01*
X020305Y046489D02*
X020498Y046682D01*
X020498Y046731D01*
X020450Y046779D01*
X020353Y046779D01*
X020305Y046731D01*
X020305Y046489D02*
X020498Y046489D01*
X020485Y047020D02*
X020195Y047020D01*
X020195Y047165D01*
X020243Y047214D01*
X020340Y047214D01*
X020388Y047165D01*
X020388Y047020D01*
X020388Y047117D02*
X020485Y047214D01*
X020437Y047315D02*
X020485Y047363D01*
X020485Y047460D01*
X020437Y047508D01*
X020340Y047508D01*
X020292Y047460D01*
X020292Y047412D01*
X020340Y047315D01*
X020195Y047315D01*
X020195Y047508D01*
X020195Y047610D02*
X020195Y047803D01*
X020243Y047803D01*
X020437Y047610D01*
X020485Y047610D01*
X020442Y047906D02*
X020636Y047906D01*
X020539Y047906D02*
X020539Y048196D01*
X020442Y048100D01*
X020341Y048051D02*
X020341Y047954D01*
X020293Y047906D01*
X020196Y047906D01*
X020147Y047954D01*
X020147Y048051D02*
X020244Y048100D01*
X020293Y048100D01*
X020341Y048051D01*
X020341Y048196D02*
X020147Y048196D01*
X020147Y048051D01*
X020046Y047954D02*
X019998Y047906D01*
X019901Y047906D01*
X019853Y047954D01*
X019853Y048148D01*
X019901Y048196D01*
X019998Y048196D01*
X020046Y048148D01*
X020046Y048339D02*
X019950Y048436D01*
X019998Y048436D02*
X019853Y048436D01*
X019853Y048339D02*
X019853Y048629D01*
X019998Y048629D01*
X020046Y048581D01*
X020046Y048484D01*
X019998Y048436D01*
X020147Y048484D02*
X020244Y048533D01*
X020293Y048533D01*
X020341Y048484D01*
X020341Y048387D01*
X020293Y048339D01*
X020196Y048339D01*
X020147Y048387D01*
X020147Y048484D02*
X020147Y048629D01*
X020341Y048629D01*
X020442Y048484D02*
X020587Y048484D01*
X020636Y048436D01*
X020636Y048387D01*
X020587Y048339D01*
X020490Y048339D01*
X020442Y048387D01*
X020442Y048484D01*
X020539Y048581D01*
X020636Y048629D01*
X020905Y049502D02*
X021098Y049502D01*
X021147Y049551D01*
X021147Y049648D01*
X021098Y049696D01*
X021147Y049797D02*
X021147Y049991D01*
X021147Y049894D02*
X020856Y049894D01*
X020953Y049797D01*
X020905Y049696D02*
X020856Y049648D01*
X020856Y049551D01*
X020905Y049502D01*
X020905Y050092D02*
X020953Y050092D01*
X021002Y050140D01*
X021002Y050237D01*
X021050Y050285D01*
X021098Y050285D01*
X021147Y050237D01*
X021147Y050140D01*
X021098Y050092D01*
X021050Y050092D01*
X021002Y050140D01*
X021002Y050237D02*
X020953Y050285D01*
X020905Y050285D01*
X020856Y050237D01*
X020856Y050140D01*
X020905Y050092D01*
X020351Y050583D02*
X020351Y050873D01*
X020206Y050728D01*
X020399Y050728D01*
X020105Y050583D02*
X019911Y050583D01*
X020008Y050583D02*
X020008Y050873D01*
X019911Y050777D01*
X019810Y050825D02*
X019762Y050873D01*
X019665Y050873D01*
X019617Y050825D01*
X019617Y050632D01*
X019665Y050583D01*
X019762Y050583D01*
X019810Y050632D01*
X019558Y050264D02*
X019606Y050215D01*
X019606Y050119D01*
X019558Y050070D01*
X019461Y050119D02*
X019413Y050070D01*
X019364Y050070D01*
X019316Y050119D01*
X019316Y050215D01*
X019364Y050264D01*
X019558Y050264D01*
X019461Y050264D02*
X019461Y050119D01*
X019606Y049969D02*
X019606Y049776D01*
X019606Y049872D02*
X019316Y049872D01*
X019413Y049776D01*
X019364Y049674D02*
X019316Y049626D01*
X019316Y049529D01*
X019364Y049481D01*
X019558Y049481D01*
X019606Y049529D01*
X019606Y049626D01*
X019558Y049674D01*
X019140Y049526D02*
X019091Y049574D01*
X018994Y049574D01*
X018946Y049526D01*
X018946Y049478D01*
X018994Y049429D01*
X019140Y049429D01*
X019140Y049332D02*
X019140Y049526D01*
X019140Y049332D02*
X019091Y049284D01*
X018994Y049284D01*
X018946Y049332D01*
X018845Y049284D02*
X018651Y049284D01*
X018748Y049284D02*
X018748Y049574D01*
X018651Y049478D01*
X018550Y049526D02*
X018550Y049429D01*
X018502Y049381D01*
X018357Y049381D01*
X018453Y049381D02*
X018550Y049284D01*
X018357Y049284D02*
X018357Y049574D01*
X018502Y049574D01*
X018550Y049526D01*
X018844Y051408D02*
X018844Y051553D01*
X018893Y051601D01*
X018989Y051601D01*
X019038Y051553D01*
X019038Y051408D01*
X019038Y051504D02*
X019135Y051601D01*
X019135Y051702D02*
X018941Y051896D01*
X018893Y051896D01*
X018844Y051847D01*
X018844Y051751D01*
X018893Y051702D01*
X019135Y051702D02*
X019135Y051896D01*
X019086Y051997D02*
X019135Y052045D01*
X019135Y052142D01*
X019086Y052190D01*
X019038Y052190D01*
X018989Y052142D01*
X018989Y051997D01*
X019086Y051997D01*
X018989Y051997D02*
X018893Y052094D01*
X018844Y052190D01*
X018844Y051408D02*
X019135Y051408D01*
X019577Y051410D02*
X019577Y051700D01*
X019722Y051700D01*
X019771Y051652D01*
X019771Y051555D01*
X019722Y051507D01*
X019577Y051507D01*
X019674Y051507D02*
X019771Y051410D01*
X019872Y051410D02*
X020065Y051603D01*
X020065Y051652D01*
X020017Y051700D01*
X019920Y051700D01*
X019872Y051652D01*
X019872Y051410D02*
X020065Y051410D01*
X020166Y051458D02*
X020360Y051652D01*
X020360Y051458D01*
X020312Y051410D01*
X020215Y051410D01*
X020166Y051458D01*
X020166Y051652D01*
X020215Y051700D01*
X020312Y051700D01*
X020360Y051652D01*
X021594Y053064D02*
X021691Y053064D01*
X021739Y053112D01*
X021739Y053354D01*
X021840Y053305D02*
X021889Y053354D01*
X021985Y053354D01*
X022034Y053305D01*
X022034Y053257D01*
X021985Y053209D01*
X022034Y053160D01*
X022034Y053112D01*
X021985Y053064D01*
X021889Y053064D01*
X021840Y053112D01*
X021937Y053209D02*
X021985Y053209D01*
X021594Y053064D02*
X021546Y053112D01*
X021546Y053354D01*
X022097Y052763D02*
X022242Y052763D01*
X022290Y052715D01*
X022290Y052618D01*
X022242Y052570D01*
X022097Y052570D01*
X022194Y052570D02*
X022290Y052473D01*
X022392Y052473D02*
X022585Y052666D01*
X022585Y052715D01*
X022537Y052763D01*
X022440Y052763D01*
X022392Y052715D01*
X022392Y052473D02*
X022585Y052473D01*
X022686Y052521D02*
X022686Y052570D01*
X022735Y052618D01*
X022831Y052618D01*
X022880Y052570D01*
X022880Y052521D01*
X022831Y052473D01*
X022735Y052473D01*
X022686Y052521D01*
X022735Y052618D02*
X022686Y052666D01*
X022686Y052715D01*
X022735Y052763D01*
X022831Y052763D01*
X022880Y052715D01*
X022880Y052666D01*
X022831Y052618D01*
X023337Y052330D02*
X023337Y052088D01*
X023385Y052040D01*
X023482Y052040D01*
X023531Y052088D01*
X023531Y052330D01*
X023632Y052185D02*
X023825Y052185D01*
X023777Y052040D02*
X023777Y052330D01*
X023632Y052185D01*
X023711Y053733D02*
X023711Y054023D01*
X023856Y054023D01*
X023905Y053975D01*
X023905Y053878D01*
X023856Y053830D01*
X023711Y053830D01*
X023808Y053830D02*
X023905Y053733D01*
X024006Y053733D02*
X024199Y053733D01*
X024102Y053733D02*
X024102Y054023D01*
X024006Y053926D01*
X024300Y053878D02*
X024445Y053878D01*
X024494Y053830D01*
X024494Y053781D01*
X024445Y053733D01*
X024349Y053733D01*
X024300Y053781D01*
X024300Y053878D01*
X024397Y053975D01*
X024494Y054023D01*
X024287Y055032D02*
X024287Y055322D01*
X024142Y055177D01*
X024336Y055177D01*
X024041Y055080D02*
X024041Y055274D01*
X023993Y055322D01*
X023848Y055322D01*
X023848Y055032D01*
X023993Y055032D01*
X024041Y055080D01*
X023746Y055032D02*
X023553Y055032D01*
X023553Y055322D01*
X023746Y055322D01*
X023650Y055177D02*
X023553Y055177D01*
X023452Y055032D02*
X023258Y055032D01*
X023258Y055322D01*
X025365Y055283D02*
X025365Y054993D01*
X025558Y054993D01*
X025659Y054993D02*
X025853Y054993D01*
X025954Y054993D02*
X026099Y054993D01*
X026147Y055041D01*
X026147Y055235D01*
X026099Y055283D01*
X025954Y055283D01*
X025954Y054993D01*
X025756Y055138D02*
X025659Y055138D01*
X025659Y055283D02*
X025659Y054993D01*
X025659Y055283D02*
X025853Y055283D01*
X026249Y055235D02*
X026297Y055283D01*
X026394Y055283D01*
X026442Y055235D01*
X026442Y055186D01*
X026394Y055138D01*
X026442Y055089D01*
X026442Y055041D01*
X026394Y054993D01*
X026297Y054993D01*
X026249Y055041D01*
X026345Y055138D02*
X026394Y055138D01*
X026384Y054082D02*
X026190Y054082D01*
X026190Y053937D01*
X026287Y053985D01*
X026335Y053985D01*
X026384Y053937D01*
X026384Y053840D01*
X026335Y053792D01*
X026238Y053792D01*
X026190Y053840D01*
X026089Y053792D02*
X025895Y053792D01*
X025992Y053792D02*
X025992Y054082D01*
X025895Y053985D01*
X025794Y053937D02*
X025746Y053889D01*
X025601Y053889D01*
X025698Y053889D02*
X025794Y053792D01*
X025794Y053937D02*
X025794Y054034D01*
X025746Y054082D01*
X025601Y054082D01*
X025601Y053792D01*
X026614Y052429D02*
X026565Y052380D01*
X026565Y052187D01*
X026614Y052138D01*
X026710Y052138D01*
X026759Y052187D01*
X026860Y052187D02*
X026908Y052138D01*
X027005Y052138D01*
X027054Y052187D01*
X027054Y052380D01*
X027005Y052429D01*
X026908Y052429D01*
X026860Y052380D01*
X026860Y052332D01*
X026908Y052283D01*
X027054Y052283D01*
X026759Y052380D02*
X026710Y052429D01*
X026614Y052429D01*
X025666Y050893D02*
X025714Y050845D01*
X025521Y050651D01*
X025569Y050603D01*
X025666Y050603D01*
X025714Y050651D01*
X025714Y050845D01*
X025666Y050893D02*
X025569Y050893D01*
X025521Y050845D01*
X025521Y050651D01*
X025420Y050651D02*
X025371Y050603D01*
X025275Y050603D01*
X025226Y050651D01*
X025125Y050603D02*
X025028Y050700D01*
X025077Y050700D02*
X024932Y050700D01*
X024932Y050603D02*
X024932Y050893D01*
X025077Y050893D01*
X025125Y050845D01*
X025125Y050748D01*
X025077Y050700D01*
X025226Y050845D02*
X025275Y050893D01*
X025371Y050893D01*
X025420Y050845D01*
X025420Y050796D01*
X025371Y050748D01*
X025420Y050700D01*
X025420Y050651D01*
X025371Y050748D02*
X025323Y050748D01*
X026782Y049870D02*
X026782Y049628D01*
X026830Y049579D01*
X026927Y049579D01*
X026975Y049628D01*
X026975Y049870D01*
X027077Y049773D02*
X027173Y049870D01*
X027173Y049579D01*
X027077Y049579D02*
X027270Y049579D01*
X027766Y049093D02*
X027766Y048899D01*
X027815Y048851D01*
X027911Y048851D01*
X027960Y048899D01*
X028061Y048899D02*
X028109Y048851D01*
X028206Y048851D01*
X028254Y048899D01*
X028254Y048996D01*
X028206Y049044D01*
X028158Y049044D01*
X028061Y048996D01*
X028061Y049141D01*
X028254Y049141D01*
X028355Y049093D02*
X028404Y049141D01*
X028501Y049141D01*
X028549Y049093D01*
X028549Y049044D01*
X028355Y048851D01*
X028549Y048851D01*
X027960Y049093D02*
X027911Y049141D01*
X027815Y049141D01*
X027766Y049093D01*
X027972Y047543D02*
X027972Y047301D01*
X027972Y047181D02*
X027972Y046938D01*
X027972Y046818D02*
X027608Y046818D01*
X027730Y046938D02*
X027608Y047060D01*
X027972Y047060D01*
X027972Y046818D02*
X027608Y046576D01*
X027972Y046576D01*
X027912Y046456D02*
X027972Y046395D01*
X027972Y046274D01*
X027912Y046213D01*
X027669Y046213D01*
X027608Y046274D01*
X027608Y046395D01*
X027669Y046456D01*
X027730Y047301D02*
X027608Y047422D01*
X027972Y047422D01*
X029014Y046091D02*
X029159Y045946D01*
X029159Y046140D01*
X029304Y046091D02*
X029014Y046091D01*
X029014Y045845D02*
X029014Y045651D01*
X029159Y045651D01*
X029111Y045748D01*
X029111Y045797D01*
X029159Y045845D01*
X029256Y045845D01*
X029304Y045797D01*
X029304Y045700D01*
X029256Y045651D01*
X029304Y045550D02*
X029207Y045454D01*
X029207Y045502D02*
X029207Y045357D01*
X029304Y045357D02*
X029014Y045357D01*
X029014Y045502D01*
X029062Y045550D01*
X029159Y045550D01*
X029207Y045502D01*
X028610Y044850D02*
X028610Y044560D01*
X028706Y044560D02*
X028513Y044560D01*
X028412Y044560D02*
X028218Y044560D01*
X028412Y044753D01*
X028412Y044801D01*
X028363Y044850D01*
X028267Y044850D01*
X028218Y044801D01*
X028117Y044801D02*
X028069Y044850D01*
X027972Y044850D01*
X027924Y044801D01*
X027924Y044608D01*
X027972Y044560D01*
X028069Y044560D01*
X028117Y044608D01*
X028513Y044753D02*
X028610Y044850D01*
X028720Y043629D02*
X028672Y043581D01*
X028672Y043387D01*
X028720Y043339D01*
X028817Y043339D01*
X028865Y043387D01*
X028966Y043339D02*
X029160Y043533D01*
X029160Y043581D01*
X029111Y043629D01*
X029015Y043629D01*
X028966Y043581D01*
X028865Y043581D02*
X028817Y043629D01*
X028720Y043629D01*
X028966Y043339D02*
X029160Y043339D01*
X029261Y043387D02*
X029454Y043581D01*
X029454Y043387D01*
X029406Y043339D01*
X029309Y043339D01*
X029261Y043387D01*
X029261Y043581D01*
X029309Y043629D01*
X029406Y043629D01*
X029454Y043581D01*
X028953Y043149D02*
X028759Y043149D01*
X028759Y043004D01*
X028856Y043052D01*
X028904Y043052D01*
X028953Y043004D01*
X028953Y042907D01*
X028904Y042858D01*
X028807Y042858D01*
X028759Y042907D01*
X028658Y042907D02*
X028609Y042858D01*
X028513Y042858D01*
X028464Y042907D01*
X028464Y043004D02*
X028561Y043052D01*
X028609Y043052D01*
X028658Y043004D01*
X028658Y042907D01*
X028464Y043004D02*
X028464Y043149D01*
X028658Y043149D01*
X028363Y043100D02*
X028315Y043149D01*
X028218Y043149D01*
X028170Y043100D01*
X028170Y042907D01*
X028218Y042858D01*
X028315Y042858D01*
X028363Y042907D01*
X027803Y043058D02*
X027609Y043058D01*
X027706Y043058D02*
X027706Y043349D01*
X027609Y043252D01*
X027508Y043058D02*
X027315Y043058D01*
X027411Y043058D02*
X027411Y043349D01*
X027315Y043252D01*
X027213Y043300D02*
X027165Y043349D01*
X027068Y043349D01*
X027020Y043300D01*
X027020Y043107D01*
X027068Y043058D01*
X027165Y043058D01*
X027213Y043107D01*
X028957Y041998D02*
X028957Y041804D01*
X029005Y041756D01*
X029102Y041756D01*
X029151Y041804D01*
X029252Y041804D02*
X029300Y041756D01*
X029397Y041756D01*
X029445Y041804D01*
X029445Y041901D01*
X029397Y041950D01*
X029349Y041950D01*
X029252Y041901D01*
X029252Y042046D01*
X029445Y042046D01*
X029546Y041901D02*
X029692Y041901D01*
X029740Y041853D01*
X029740Y041804D01*
X029692Y041756D01*
X029595Y041756D01*
X029546Y041804D01*
X029546Y041901D01*
X029643Y041998D01*
X029740Y042046D01*
X029151Y041998D02*
X029102Y042046D01*
X029005Y042046D01*
X028957Y041998D01*
X028956Y040952D02*
X028908Y040904D01*
X028908Y040710D01*
X028956Y040662D01*
X029053Y040662D01*
X029101Y040710D01*
X029203Y040710D02*
X029251Y040662D01*
X029348Y040662D01*
X029396Y040710D01*
X029396Y040759D01*
X029348Y040807D01*
X029299Y040807D01*
X029348Y040807D02*
X029396Y040855D01*
X029396Y040904D01*
X029348Y040952D01*
X029251Y040952D01*
X029203Y040904D01*
X029101Y040904D02*
X029053Y040952D01*
X028956Y040952D01*
X029497Y040904D02*
X029546Y040952D01*
X029642Y040952D01*
X029691Y040904D01*
X029691Y040855D01*
X029497Y040662D01*
X029691Y040662D01*
X030900Y040667D02*
X030948Y040619D01*
X030997Y040619D01*
X031045Y040667D01*
X031045Y040909D01*
X030997Y040909D02*
X031094Y040909D01*
X031195Y040861D02*
X031243Y040909D01*
X031340Y040909D01*
X031388Y040861D01*
X031388Y040812D01*
X031340Y040764D01*
X031388Y040715D01*
X031388Y040667D01*
X031340Y040619D01*
X031243Y040619D01*
X031195Y040667D01*
X031291Y040764D02*
X031340Y040764D01*
X032380Y041478D02*
X032428Y041430D01*
X032622Y041430D01*
X032670Y041478D01*
X032670Y041575D01*
X032622Y041623D01*
X032622Y041724D02*
X032670Y041773D01*
X032670Y041869D01*
X032622Y041918D01*
X032573Y041918D01*
X032525Y041869D01*
X032525Y041724D01*
X032622Y041724D01*
X032525Y041724D02*
X032428Y041821D01*
X032380Y041918D01*
X032380Y042019D02*
X032525Y042019D01*
X032477Y042116D01*
X032477Y042164D01*
X032525Y042212D01*
X032622Y042212D01*
X032670Y042164D01*
X032670Y042067D01*
X032622Y042019D01*
X032380Y042019D02*
X032380Y042212D01*
X032428Y041623D02*
X032380Y041575D01*
X032380Y041478D01*
X033443Y041557D02*
X033491Y041508D01*
X033685Y041508D01*
X033733Y041557D01*
X033733Y041654D01*
X033685Y041702D01*
X033685Y041803D02*
X033733Y041851D01*
X033733Y041948D01*
X033685Y041997D01*
X033636Y041997D01*
X033588Y041948D01*
X033588Y041803D01*
X033685Y041803D01*
X033588Y041803D02*
X033491Y041900D01*
X033443Y041997D01*
X033588Y042098D02*
X033588Y042243D01*
X033636Y042291D01*
X033685Y042291D01*
X033733Y042243D01*
X033733Y042146D01*
X033685Y042098D01*
X033588Y042098D01*
X033491Y042194D01*
X033443Y042291D01*
X033491Y041702D02*
X033443Y041654D01*
X033443Y041557D01*
X031975Y043169D02*
X031975Y043459D01*
X031830Y043314D01*
X032023Y043314D01*
X031729Y043266D02*
X031680Y043314D01*
X031535Y043314D01*
X031535Y043217D01*
X031584Y043169D01*
X031680Y043169D01*
X031729Y043217D01*
X031729Y043266D01*
X031632Y043411D02*
X031535Y043314D01*
X031632Y043411D02*
X031729Y043459D01*
X031434Y043411D02*
X031386Y043459D01*
X031289Y043459D01*
X031241Y043411D01*
X031241Y043217D01*
X031289Y043169D01*
X031386Y043169D01*
X031434Y043217D01*
X030873Y043976D02*
X030921Y044024D01*
X030921Y044121D01*
X030873Y044169D01*
X030824Y044169D01*
X030728Y044121D01*
X030728Y044266D01*
X030921Y044266D01*
X030873Y043976D02*
X030776Y043976D01*
X030728Y044024D01*
X030626Y044024D02*
X030578Y043976D01*
X030481Y043976D01*
X030433Y044024D01*
X030433Y044121D02*
X030530Y044169D01*
X030578Y044169D01*
X030626Y044121D01*
X030626Y044024D01*
X030433Y044121D02*
X030433Y044266D01*
X030626Y044266D01*
X030332Y044218D02*
X030332Y044121D01*
X030283Y044073D01*
X030138Y044073D01*
X030235Y044073D02*
X030332Y043976D01*
X030138Y043976D02*
X030138Y044266D01*
X030283Y044266D01*
X030332Y044218D01*
X030361Y046686D02*
X030264Y046782D01*
X030313Y046782D02*
X030168Y046782D01*
X030168Y046686D02*
X030168Y046976D01*
X030313Y046976D01*
X030361Y046927D01*
X030361Y046831D01*
X030313Y046782D01*
X030462Y046734D02*
X030511Y046686D01*
X030608Y046686D01*
X030656Y046734D01*
X030656Y046782D01*
X030608Y046831D01*
X030462Y046831D01*
X030462Y046734D01*
X030462Y046831D02*
X030559Y046927D01*
X030656Y046976D01*
X030669Y048044D02*
X030766Y048044D01*
X030814Y048092D01*
X030915Y048044D02*
X031109Y048044D01*
X031012Y048044D02*
X031012Y048334D01*
X030915Y048237D01*
X030814Y048286D02*
X030766Y048334D01*
X030669Y048334D01*
X030620Y048286D01*
X030620Y048092D01*
X030669Y048044D01*
X031210Y048092D02*
X031258Y048044D01*
X031355Y048044D01*
X031403Y048092D01*
X031403Y048189D01*
X031355Y048237D01*
X031307Y048237D01*
X031210Y048189D01*
X031210Y048334D01*
X031403Y048334D01*
X032139Y049027D02*
X032188Y048979D01*
X032381Y048979D01*
X032429Y049027D01*
X032429Y049124D01*
X032381Y049172D01*
X032381Y049274D02*
X032429Y049322D01*
X032429Y049419D01*
X032381Y049467D01*
X032284Y049467D01*
X032236Y049419D01*
X032236Y049370D01*
X032284Y049274D01*
X032139Y049274D01*
X032139Y049467D01*
X032139Y049568D02*
X032139Y049762D01*
X032188Y049762D01*
X032381Y049568D01*
X032429Y049568D01*
X032188Y049172D02*
X032139Y049124D01*
X032139Y049027D01*
X033226Y049035D02*
X033226Y048938D01*
X033275Y048890D01*
X033275Y048789D02*
X033372Y048789D01*
X033420Y048740D01*
X033420Y048595D01*
X033517Y048595D02*
X033226Y048595D01*
X033226Y048740D01*
X033275Y048789D01*
X033420Y048692D02*
X033517Y048789D01*
X033517Y048890D02*
X033323Y049083D01*
X033275Y049083D01*
X033226Y049035D01*
X033275Y049184D02*
X033226Y049233D01*
X033226Y049329D01*
X033275Y049378D01*
X033323Y049378D01*
X033517Y049184D01*
X033517Y049378D01*
X033517Y049083D02*
X033517Y048890D01*
X033681Y048196D02*
X033632Y048148D01*
X033632Y047954D01*
X033681Y047906D01*
X033777Y047906D01*
X033826Y047954D01*
X033927Y047954D02*
X033975Y047906D01*
X034072Y047906D01*
X034120Y047954D01*
X034120Y048003D01*
X034072Y048051D01*
X033927Y048051D01*
X033927Y047954D01*
X033927Y048051D02*
X034024Y048148D01*
X034120Y048196D01*
X034222Y048148D02*
X034270Y048196D01*
X034367Y048196D01*
X034415Y048148D01*
X034222Y047954D01*
X034270Y047906D01*
X034367Y047906D01*
X034415Y047954D01*
X034415Y048148D01*
X034222Y048148D02*
X034222Y047954D01*
X033826Y048148D02*
X033777Y048196D01*
X033681Y048196D01*
X034533Y049048D02*
X034533Y049193D01*
X034581Y049241D01*
X034678Y049241D01*
X034726Y049193D01*
X034726Y049048D01*
X034726Y049145D02*
X034823Y049241D01*
X034774Y049342D02*
X034823Y049391D01*
X034823Y049488D01*
X034774Y049536D01*
X034678Y049536D01*
X034629Y049488D01*
X034629Y049439D01*
X034678Y049342D01*
X034533Y049342D01*
X034533Y049536D01*
X034581Y049637D02*
X034533Y049685D01*
X034533Y049782D01*
X034581Y049831D01*
X034774Y049637D01*
X034823Y049685D01*
X034823Y049782D01*
X034774Y049831D01*
X034581Y049831D01*
X034581Y049637D02*
X034774Y049637D01*
X034823Y049048D02*
X034533Y049048D01*
X035832Y049094D02*
X035977Y048949D01*
X035977Y049142D01*
X036074Y049243D02*
X035880Y049243D01*
X035832Y049292D01*
X035832Y049389D01*
X035880Y049437D01*
X036074Y049243D01*
X036122Y049292D01*
X036122Y049389D01*
X036074Y049437D01*
X035880Y049437D01*
X035832Y049094D02*
X036122Y049094D01*
X036074Y048848D02*
X036122Y048799D01*
X036122Y048702D01*
X036074Y048654D01*
X035880Y048654D01*
X035832Y048702D01*
X035832Y048799D01*
X035880Y048848D01*
X035292Y047310D02*
X035195Y047310D01*
X035147Y047262D01*
X035147Y047214D01*
X035195Y047165D01*
X035340Y047165D01*
X035340Y047069D02*
X035340Y047262D01*
X035292Y047310D01*
X035340Y047069D02*
X035292Y047020D01*
X035195Y047020D01*
X035147Y047069D01*
X035046Y047069D02*
X034997Y047020D01*
X034901Y047020D01*
X034852Y047069D01*
X034751Y047069D02*
X034703Y047020D01*
X034606Y047020D01*
X034557Y047069D01*
X034557Y047262D01*
X034606Y047310D01*
X034703Y047310D01*
X034751Y047262D01*
X034852Y047262D02*
X034901Y047310D01*
X034997Y047310D01*
X035046Y047262D01*
X035046Y047214D01*
X034997Y047165D01*
X035046Y047117D01*
X035046Y047069D01*
X034997Y047165D02*
X034949Y047165D01*
X031231Y050859D02*
X031279Y050907D01*
X031279Y051004D01*
X031231Y051052D01*
X030989Y051052D01*
X031038Y051153D02*
X031086Y051153D01*
X031134Y051202D01*
X031134Y051299D01*
X031183Y051347D01*
X031231Y051347D01*
X031279Y051299D01*
X031279Y051202D01*
X031231Y051153D01*
X031183Y051153D01*
X031134Y051202D01*
X031134Y051299D02*
X031086Y051347D01*
X031038Y051347D01*
X030989Y051299D01*
X030989Y051202D01*
X031038Y051153D01*
X030989Y050859D02*
X031231Y050859D01*
X030467Y051040D02*
X030273Y051040D01*
X030370Y051040D02*
X030370Y051330D01*
X030273Y051233D01*
X030172Y051330D02*
X030076Y051330D01*
X030124Y051330D02*
X030124Y051088D01*
X030076Y051040D01*
X030027Y051040D01*
X029979Y051088D01*
X029445Y050598D02*
X029494Y050549D01*
X029494Y050501D01*
X029445Y050453D01*
X029494Y050404D01*
X029494Y050356D01*
X029445Y050308D01*
X029349Y050308D01*
X029300Y050356D01*
X029199Y050356D02*
X029151Y050308D01*
X029054Y050308D01*
X029006Y050356D01*
X029006Y050453D02*
X029102Y050501D01*
X029151Y050501D01*
X029199Y050453D01*
X029199Y050356D01*
X029006Y050453D02*
X029006Y050598D01*
X029199Y050598D01*
X029300Y050549D02*
X029349Y050598D01*
X029445Y050598D01*
X029445Y050453D02*
X029397Y050453D01*
X029111Y050701D02*
X029111Y050992D01*
X028966Y050846D01*
X029160Y050846D01*
X028865Y050846D02*
X028817Y050798D01*
X028672Y050798D01*
X028768Y050798D02*
X028865Y050701D01*
X028856Y050598D02*
X028759Y050598D01*
X028711Y050549D01*
X028711Y050356D01*
X028759Y050308D01*
X028856Y050308D01*
X028905Y050356D01*
X028905Y050549D02*
X028856Y050598D01*
X028672Y050701D02*
X028672Y050992D01*
X028817Y050992D01*
X028865Y050943D01*
X028865Y050846D01*
X029065Y050047D02*
X029210Y050047D01*
X029259Y049998D01*
X029259Y049902D01*
X029210Y049853D01*
X029065Y049853D01*
X029065Y049756D02*
X029065Y050047D01*
X029162Y049853D02*
X029259Y049756D01*
X029360Y049805D02*
X029408Y049756D01*
X029505Y049756D01*
X029554Y049805D01*
X029554Y049902D01*
X029505Y049950D01*
X029457Y049950D01*
X029360Y049902D01*
X029360Y050047D01*
X029554Y050047D01*
X030561Y053031D02*
X030561Y053321D01*
X030707Y053321D01*
X030755Y053273D01*
X030755Y053176D01*
X030707Y053128D01*
X030561Y053128D01*
X030658Y053128D02*
X030755Y053031D01*
X030856Y053079D02*
X030904Y053031D01*
X031001Y053031D01*
X031050Y053079D01*
X031050Y053128D01*
X031001Y053176D01*
X030953Y053176D01*
X031001Y053176D02*
X031050Y053225D01*
X031050Y053273D01*
X031001Y053321D01*
X030904Y053321D01*
X030856Y053273D01*
X031151Y053273D02*
X031151Y053225D01*
X031199Y053176D01*
X031344Y053176D01*
X031344Y053079D02*
X031344Y053273D01*
X031296Y053321D01*
X031199Y053321D01*
X031151Y053273D01*
X031151Y053079D02*
X031199Y053031D01*
X031296Y053031D01*
X031344Y053079D01*
X030124Y054008D02*
X029930Y054008D01*
X030124Y054202D01*
X030124Y054250D01*
X030075Y054299D01*
X029979Y054299D01*
X029930Y054250D01*
X029732Y054299D02*
X029732Y054008D01*
X029636Y054008D02*
X029829Y054008D01*
X029636Y054202D02*
X029732Y054299D01*
X029534Y054250D02*
X029486Y054299D01*
X029341Y054299D01*
X029341Y054008D01*
X029341Y054105D02*
X029486Y054105D01*
X029534Y054154D01*
X029534Y054250D01*
X029438Y054105D02*
X029534Y054008D01*
X028943Y054450D02*
X028894Y054402D01*
X028798Y054402D01*
X028749Y054450D01*
X028648Y054402D02*
X028455Y054402D01*
X028551Y054402D02*
X028551Y054692D01*
X028455Y054596D01*
X028353Y054644D02*
X028353Y054547D01*
X028305Y054499D01*
X028160Y054499D01*
X028257Y054499D02*
X028353Y054402D01*
X028160Y054402D02*
X028160Y054692D01*
X028305Y054692D01*
X028353Y054644D01*
X028375Y054993D02*
X028568Y055186D01*
X028568Y055235D01*
X028520Y055283D01*
X028423Y055283D01*
X028375Y055235D01*
X028273Y055235D02*
X028225Y055283D01*
X028080Y055283D01*
X028080Y054993D01*
X028225Y054993D01*
X028273Y055041D01*
X028273Y055235D01*
X028375Y054993D02*
X028568Y054993D01*
X028798Y054692D02*
X028894Y054692D01*
X028943Y054644D01*
X028943Y054596D01*
X028894Y054547D01*
X028943Y054499D01*
X028943Y054450D01*
X028894Y054547D02*
X028846Y054547D01*
X028749Y054644D02*
X028798Y054692D01*
X027979Y054993D02*
X027785Y054993D01*
X027785Y055283D01*
X027979Y055283D01*
X027882Y055138D02*
X027785Y055138D01*
X027684Y054993D02*
X027491Y054993D01*
X027491Y055283D01*
X030483Y055623D02*
X030676Y055623D01*
X030777Y055623D02*
X030971Y055623D01*
X031072Y055623D02*
X031217Y055623D01*
X031265Y055671D01*
X031265Y055864D01*
X031217Y055913D01*
X031072Y055913D01*
X031072Y055623D01*
X030874Y055768D02*
X030777Y055768D01*
X030777Y055913D02*
X030777Y055623D01*
X030777Y055913D02*
X030971Y055913D01*
X031367Y055816D02*
X031463Y055913D01*
X031463Y055623D01*
X031367Y055623D02*
X031560Y055623D01*
X032432Y055195D02*
X032432Y055002D01*
X032480Y054953D01*
X032577Y054953D01*
X032625Y055002D01*
X032726Y054953D02*
X032920Y055147D01*
X032920Y055195D01*
X032871Y055244D01*
X032775Y055244D01*
X032726Y055195D01*
X032625Y055195D02*
X032577Y055244D01*
X032480Y055244D01*
X032432Y055195D01*
X032726Y054953D02*
X032920Y054953D01*
X033021Y055002D02*
X033069Y054953D01*
X033166Y054953D01*
X033214Y055002D01*
X033214Y055050D01*
X033166Y055098D01*
X033118Y055098D01*
X033166Y055098D02*
X033214Y055147D01*
X033214Y055195D01*
X033166Y055244D01*
X033069Y055244D01*
X033021Y055195D01*
X034139Y053216D02*
X034187Y053216D01*
X034381Y053023D01*
X034429Y053023D01*
X034381Y052922D02*
X034429Y052873D01*
X034429Y052777D01*
X034381Y052728D01*
X034381Y052627D02*
X034429Y052579D01*
X034429Y052482D01*
X034381Y052434D01*
X034187Y052434D01*
X034139Y052482D01*
X034139Y052579D01*
X034187Y052627D01*
X034187Y052728D02*
X034139Y052777D01*
X034139Y052873D01*
X034187Y052922D01*
X034236Y052922D01*
X034284Y052873D01*
X034332Y052922D01*
X034381Y052922D01*
X034284Y052873D02*
X034284Y052825D01*
X034139Y053023D02*
X034139Y053216D01*
X030483Y055623D02*
X030483Y055913D01*
X025968Y048625D02*
X025871Y048577D01*
X025774Y048480D01*
X025920Y048480D01*
X025968Y048432D01*
X025968Y048384D01*
X025920Y048335D01*
X025823Y048335D01*
X025774Y048384D01*
X025774Y048480D01*
X025673Y048625D02*
X025480Y048625D01*
X025577Y048625D02*
X025577Y048335D01*
X025379Y048384D02*
X025379Y048480D01*
X025282Y048480D01*
X025379Y048384D02*
X025330Y048335D01*
X025233Y048335D01*
X025185Y048384D01*
X025185Y048577D01*
X025233Y048625D01*
X025330Y048625D01*
X025379Y048577D01*
X025084Y048625D02*
X025084Y048432D01*
X024987Y048335D01*
X024890Y048432D01*
X024890Y048625D01*
X024789Y048625D02*
X024596Y048625D01*
X024596Y048480D01*
X024693Y048529D01*
X024741Y048529D01*
X024789Y048480D01*
X024789Y048384D01*
X024741Y048335D01*
X024644Y048335D01*
X024596Y048384D01*
X024495Y048384D02*
X024446Y048335D01*
X024350Y048335D01*
X024301Y048384D01*
X024495Y048577D01*
X024495Y048384D01*
X024495Y048577D02*
X024446Y048625D01*
X024350Y048625D01*
X024301Y048577D01*
X024301Y048384D01*
X024200Y048480D02*
X024007Y048480D01*
X024152Y048625D01*
X024152Y048335D01*
X023809Y048480D02*
X023712Y048480D01*
X023611Y048529D02*
X023611Y048577D01*
X023562Y048625D01*
X023466Y048625D01*
X023417Y048577D01*
X023316Y048577D02*
X023316Y048529D01*
X023268Y048480D01*
X023316Y048432D01*
X023316Y048384D01*
X023268Y048335D01*
X023171Y048335D01*
X023123Y048384D01*
X023021Y048335D02*
X023021Y048625D01*
X022925Y048529D01*
X022828Y048625D01*
X022828Y048335D01*
X022630Y048335D02*
X022630Y048625D01*
X022533Y048625D02*
X022727Y048625D01*
X022432Y048577D02*
X022384Y048625D01*
X022287Y048625D01*
X022239Y048577D01*
X022239Y048529D01*
X022287Y048480D01*
X022384Y048480D01*
X022432Y048432D01*
X022432Y048384D01*
X022384Y048335D01*
X022287Y048335D01*
X022239Y048384D01*
X023123Y048577D02*
X023171Y048625D01*
X023268Y048625D01*
X023316Y048577D01*
X023268Y048480D02*
X023219Y048480D01*
X023417Y048335D02*
X023611Y048529D01*
X023712Y048625D02*
X023905Y048625D01*
X023712Y048625D02*
X023712Y048335D01*
X023611Y048335D02*
X023417Y048335D01*
X022106Y050426D02*
X021816Y050426D01*
X021816Y050571D01*
X021864Y050619D01*
X021961Y050619D01*
X022009Y050571D01*
X022009Y050426D01*
X022009Y050522D02*
X022106Y050619D01*
X022106Y050720D02*
X021913Y050914D01*
X021864Y050914D01*
X021816Y050866D01*
X021816Y050769D01*
X021864Y050720D01*
X022106Y050720D02*
X022106Y050914D01*
X022106Y051015D02*
X022058Y051015D01*
X021864Y051209D01*
X021816Y051209D01*
X021816Y051015D01*
X022097Y052473D02*
X022097Y052763D01*
X019131Y054008D02*
X019131Y054299D01*
X018985Y054154D01*
X019179Y054154D01*
X018884Y054202D02*
X018884Y054250D01*
X018836Y054299D01*
X018739Y054299D01*
X018691Y054250D01*
X018590Y054250D02*
X018590Y054154D01*
X018541Y054105D01*
X018396Y054105D01*
X018396Y054008D02*
X018396Y054299D01*
X018541Y054299D01*
X018590Y054250D01*
X018493Y054105D02*
X018590Y054008D01*
X018691Y054008D02*
X018884Y054202D01*
X018884Y054008D02*
X018691Y054008D01*
X018155Y054057D02*
X018107Y054008D01*
X018010Y054008D01*
X017962Y054057D01*
X017962Y054154D02*
X018059Y054202D01*
X018107Y054202D01*
X018155Y054154D01*
X018155Y054057D01*
X017962Y054154D02*
X017962Y054299D01*
X018155Y054299D01*
X017861Y054250D02*
X017812Y054299D01*
X017715Y054299D01*
X017667Y054250D01*
X017566Y054250D02*
X017566Y054154D01*
X017518Y054105D01*
X017372Y054105D01*
X017372Y054008D02*
X017372Y054299D01*
X017518Y054299D01*
X017566Y054250D01*
X017469Y054105D02*
X017566Y054008D01*
X017667Y054008D02*
X017861Y054202D01*
X017861Y054250D01*
X017861Y054008D02*
X017667Y054008D01*
X017231Y054250D02*
X017231Y054299D01*
X017037Y054299D01*
X016936Y054250D02*
X016936Y054154D01*
X016888Y054105D01*
X016743Y054105D01*
X016839Y054105D02*
X016936Y054008D01*
X017037Y054008D02*
X017037Y054057D01*
X017231Y054250D01*
X016936Y054250D02*
X016888Y054299D01*
X016743Y054299D01*
X016743Y054008D01*
X015754Y053787D02*
X015657Y053738D01*
X015560Y053642D01*
X015705Y053642D01*
X015754Y053593D01*
X015754Y053545D01*
X015705Y053497D01*
X015609Y053497D01*
X015560Y053545D01*
X015560Y053642D01*
X015459Y053497D02*
X015266Y053497D01*
X015362Y053497D02*
X015362Y053787D01*
X015266Y053690D01*
X015164Y053642D02*
X015116Y053593D01*
X014971Y053593D01*
X014971Y053497D02*
X014971Y053787D01*
X015116Y053787D01*
X015164Y053738D01*
X015164Y053642D01*
X016428Y052842D02*
X016573Y052842D01*
X016621Y052794D01*
X016621Y052697D01*
X016573Y052648D01*
X016428Y052648D01*
X016428Y052552D02*
X016428Y052842D01*
X016524Y052648D02*
X016621Y052552D01*
X016722Y052600D02*
X016722Y052648D01*
X016771Y052697D01*
X016867Y052697D01*
X016916Y052648D01*
X016916Y052600D01*
X016867Y052552D01*
X016771Y052552D01*
X016722Y052600D01*
X016771Y052697D02*
X016722Y052745D01*
X016722Y052794D01*
X016771Y052842D01*
X016867Y052842D01*
X016916Y052794D01*
X016916Y052745D01*
X016867Y052697D01*
X015863Y055426D02*
X015766Y055426D01*
X015718Y055474D01*
X015911Y055668D01*
X015911Y055474D01*
X015863Y055426D01*
X015718Y055474D02*
X015718Y055668D01*
X015766Y055716D01*
X015863Y055716D01*
X015911Y055668D01*
X015617Y055668D02*
X015568Y055716D01*
X015471Y055716D01*
X015423Y055668D01*
X015322Y055668D02*
X015322Y055571D01*
X015273Y055522D01*
X015128Y055522D01*
X015128Y055426D02*
X015128Y055716D01*
X015273Y055716D01*
X015322Y055668D01*
X015423Y055426D02*
X015617Y055619D01*
X015617Y055668D01*
X015617Y055426D02*
X015423Y055426D01*
X014218Y055513D02*
X014170Y055465D01*
X014073Y055465D01*
X014025Y055513D01*
X013924Y055465D02*
X013730Y055465D01*
X013827Y055465D02*
X013827Y055755D01*
X013730Y055659D01*
X013629Y055707D02*
X013629Y055610D01*
X013581Y055562D01*
X013435Y055562D01*
X013435Y055465D02*
X013435Y055755D01*
X013581Y055755D01*
X013629Y055707D01*
X014025Y055707D02*
X014073Y055755D01*
X014170Y055755D01*
X014218Y055707D01*
X014218Y055659D01*
X014170Y055610D01*
X014218Y055562D01*
X014218Y055513D01*
X014170Y055610D02*
X014121Y055610D01*
X013292Y054528D02*
X013002Y054528D01*
X013147Y054383D01*
X013147Y054577D01*
X013292Y054282D02*
X013292Y054088D01*
X013292Y054185D02*
X013002Y054185D01*
X013099Y054088D01*
X013147Y053987D02*
X013196Y053939D01*
X013196Y053794D01*
X013292Y053794D02*
X013002Y053794D01*
X013002Y053939D01*
X013051Y053987D01*
X013147Y053987D01*
X018036Y047705D02*
X018085Y047705D01*
X018278Y047511D01*
X018327Y047511D01*
X018278Y047410D02*
X018327Y047362D01*
X018327Y047265D01*
X018278Y047216D01*
X018327Y047115D02*
X018230Y047019D01*
X018230Y047067D02*
X018230Y046922D01*
X018327Y046922D02*
X018036Y046922D01*
X018036Y047067D01*
X018085Y047115D01*
X018182Y047115D01*
X018230Y047067D01*
X018085Y047216D02*
X018036Y047265D01*
X018036Y047362D01*
X018085Y047410D01*
X018133Y047410D01*
X018182Y047362D01*
X018230Y047410D01*
X018278Y047410D01*
X018182Y047362D02*
X018182Y047313D01*
X018036Y047511D02*
X018036Y047705D01*
X017596Y046050D02*
X017499Y045953D01*
X017596Y046050D02*
X017596Y045759D01*
X017499Y045759D02*
X017693Y045759D01*
X017398Y045759D02*
X017398Y046050D01*
X017204Y046050D02*
X017398Y045759D01*
X017204Y045759D02*
X017204Y046050D01*
X017103Y046001D02*
X017055Y046050D01*
X016958Y046050D01*
X016910Y046001D01*
X016910Y045808D01*
X016958Y045759D01*
X017055Y045759D01*
X017103Y045808D01*
X015126Y042448D02*
X015126Y042158D01*
X015029Y042158D02*
X015223Y042158D01*
X015029Y042352D02*
X015126Y042448D01*
X014928Y042400D02*
X014928Y042303D01*
X014880Y042255D01*
X014735Y042255D01*
X014831Y042255D02*
X014928Y042158D01*
X014735Y042158D02*
X014735Y042448D01*
X014880Y042448D01*
X014928Y042400D01*
X015374Y040795D02*
X015325Y040746D01*
X015325Y040553D01*
X015374Y040504D01*
X015470Y040504D01*
X015519Y040553D01*
X015620Y040553D02*
X015620Y040504D01*
X015620Y040553D02*
X015813Y040746D01*
X015813Y040795D01*
X015620Y040795D01*
X015519Y040746D02*
X015470Y040795D01*
X015374Y040795D01*
X014752Y039333D02*
X014655Y039285D01*
X014558Y039188D01*
X014703Y039188D01*
X014752Y039139D01*
X014752Y039091D01*
X014703Y039043D01*
X014606Y039043D01*
X014558Y039091D01*
X014558Y039188D01*
X014457Y039285D02*
X014409Y039333D01*
X014312Y039333D01*
X014263Y039285D01*
X014263Y039091D01*
X014312Y039043D01*
X014409Y039043D01*
X014457Y039091D01*
X013394Y038629D02*
X013394Y038339D01*
X013297Y038339D02*
X013491Y038339D01*
X013297Y038533D02*
X013394Y038629D01*
X013196Y038581D02*
X013148Y038629D01*
X013051Y038629D01*
X013002Y038581D01*
X013002Y038387D01*
X013051Y038339D01*
X013148Y038339D01*
X013196Y038387D01*
X013112Y037897D02*
X013015Y037897D01*
X012967Y037849D01*
X012967Y037655D01*
X013015Y037607D01*
X013112Y037607D01*
X013160Y037655D01*
X013262Y037752D02*
X013455Y037752D01*
X013556Y037752D02*
X013701Y037752D01*
X013750Y037704D01*
X013750Y037655D01*
X013701Y037607D01*
X013605Y037607D01*
X013556Y037655D01*
X013556Y037752D01*
X013653Y037849D01*
X013750Y037897D01*
X013407Y037897D02*
X013262Y037752D01*
X013160Y037849D02*
X013112Y037897D01*
X013407Y037897D02*
X013407Y037607D01*
X014864Y037529D02*
X014913Y037481D01*
X015010Y037481D01*
X015058Y037529D01*
X015159Y037529D02*
X015159Y037481D01*
X015159Y037529D02*
X015353Y037723D01*
X015353Y037771D01*
X015159Y037771D01*
X015058Y037723D02*
X015010Y037771D01*
X014913Y037771D01*
X014864Y037723D01*
X014864Y037529D01*
X015454Y037529D02*
X015647Y037723D01*
X015647Y037529D01*
X015599Y037481D01*
X015502Y037481D01*
X015454Y037529D01*
X015454Y037723D01*
X015502Y037771D01*
X015599Y037771D01*
X015647Y037723D01*
X015889Y037496D02*
X015841Y037447D01*
X015841Y037254D01*
X015889Y037205D01*
X015986Y037205D01*
X016034Y037254D01*
X016136Y037205D02*
X016329Y037399D01*
X016329Y037447D01*
X016281Y037496D01*
X016184Y037496D01*
X016136Y037447D01*
X016034Y037447D02*
X015986Y037496D01*
X015889Y037496D01*
X016136Y037205D02*
X016329Y037205D01*
X016430Y037254D02*
X016479Y037205D01*
X016575Y037205D01*
X016624Y037254D01*
X016624Y037302D01*
X016575Y037350D01*
X016430Y037350D01*
X016430Y037254D01*
X016430Y037350D02*
X016527Y037447D01*
X016624Y037496D01*
X017126Y038871D02*
X017222Y038871D01*
X017271Y038919D01*
X017372Y038919D02*
X017420Y038871D01*
X017517Y038871D01*
X017565Y038919D01*
X017565Y039016D01*
X017517Y039064D01*
X017469Y039064D01*
X017372Y039016D01*
X017372Y039161D01*
X017565Y039161D01*
X017748Y039190D02*
X017796Y039141D01*
X017893Y039141D01*
X017941Y039190D01*
X018042Y039286D02*
X018236Y039286D01*
X018187Y039141D02*
X018187Y039431D01*
X018042Y039286D01*
X017941Y039383D02*
X017893Y039431D01*
X017796Y039431D01*
X017748Y039383D01*
X017748Y039190D01*
X017271Y039112D02*
X017222Y039161D01*
X017126Y039161D01*
X017077Y039112D01*
X017077Y038919D01*
X017126Y038871D01*
X016720Y039209D02*
X016672Y039161D01*
X016575Y039161D01*
X016527Y039209D01*
X016527Y039258D01*
X016575Y039306D01*
X016672Y039306D01*
X016720Y039258D01*
X016720Y039209D01*
X016672Y039306D02*
X016720Y039354D01*
X016720Y039403D01*
X016672Y039451D01*
X016575Y039451D01*
X016527Y039403D01*
X016527Y039354D01*
X016575Y039306D01*
X016425Y039403D02*
X016377Y039451D01*
X016280Y039451D01*
X016232Y039403D01*
X016232Y039209D01*
X016280Y039161D01*
X016377Y039161D01*
X016425Y039209D01*
X018317Y037527D02*
X018317Y037285D01*
X018366Y037237D01*
X018462Y037237D01*
X018511Y037285D01*
X018511Y037527D01*
X018612Y037527D02*
X018612Y037382D01*
X018709Y037430D01*
X018757Y037430D01*
X018805Y037382D01*
X018805Y037285D01*
X018757Y037237D01*
X018660Y037237D01*
X018612Y037285D01*
X018612Y037527D02*
X018805Y037527D01*
X018800Y039133D02*
X018800Y039424D01*
X018945Y039424D01*
X018993Y039375D01*
X018993Y039279D01*
X018945Y039230D01*
X018800Y039230D01*
X018896Y039230D02*
X018993Y039133D01*
X019094Y039133D02*
X019288Y039133D01*
X019191Y039133D02*
X019191Y039424D01*
X019094Y039327D01*
X019389Y039327D02*
X019389Y039375D01*
X019437Y039424D01*
X019534Y039424D01*
X019582Y039375D01*
X019582Y039327D01*
X019534Y039279D01*
X019437Y039279D01*
X019389Y039327D01*
X019437Y039279D02*
X019389Y039230D01*
X019389Y039182D01*
X019437Y039133D01*
X019534Y039133D01*
X019582Y039182D01*
X019582Y039230D01*
X019534Y039279D01*
X020267Y038801D02*
X020267Y038560D01*
X020316Y038511D01*
X020413Y038511D01*
X020461Y038560D01*
X020461Y038801D01*
X020562Y038753D02*
X020610Y038801D01*
X020707Y038801D01*
X020756Y038753D01*
X020756Y038705D01*
X020562Y038511D01*
X020756Y038511D01*
X021706Y038826D02*
X021899Y038826D01*
X022000Y038826D02*
X022194Y038826D01*
X022295Y038826D02*
X022440Y038826D01*
X022488Y038875D01*
X022488Y039068D01*
X022440Y039116D01*
X022295Y039116D01*
X022295Y038826D01*
X022097Y038971D02*
X022000Y038971D01*
X022000Y039116D02*
X022000Y038826D01*
X022000Y039116D02*
X022194Y039116D01*
X022590Y039116D02*
X022590Y038971D01*
X022686Y039020D01*
X022735Y039020D01*
X022783Y038971D01*
X022783Y038875D01*
X022735Y038826D01*
X022638Y038826D01*
X022590Y038875D01*
X022590Y039116D02*
X022783Y039116D01*
X023239Y039402D02*
X023432Y039692D01*
X023533Y039692D02*
X023727Y039692D01*
X023630Y039692D02*
X023630Y039402D01*
X023828Y039402D02*
X023828Y039596D01*
X023925Y039692D01*
X024021Y039596D01*
X024021Y039402D01*
X024123Y039402D02*
X024316Y039402D01*
X024417Y039402D02*
X024611Y039402D01*
X024635Y039333D02*
X024441Y039333D01*
X024441Y039043D01*
X024441Y038939D02*
X024635Y038939D01*
X024736Y038939D02*
X024881Y038939D01*
X024929Y038891D01*
X024929Y038843D01*
X024881Y038794D01*
X024736Y038794D01*
X024736Y038649D02*
X024881Y038649D01*
X024929Y038697D01*
X024929Y038746D01*
X024881Y038794D01*
X025031Y038746D02*
X025079Y038794D01*
X025176Y038794D01*
X025224Y038746D01*
X025224Y038697D01*
X025176Y038649D01*
X025079Y038649D01*
X025031Y038697D01*
X025031Y038746D01*
X025079Y038794D02*
X025031Y038843D01*
X025031Y038891D01*
X025079Y038939D01*
X025176Y038939D01*
X025224Y038891D01*
X025224Y038843D01*
X025176Y038794D01*
X025031Y039043D02*
X025031Y039091D01*
X025224Y039285D01*
X025224Y039333D01*
X025031Y039333D01*
X024929Y039285D02*
X024929Y039236D01*
X024881Y039188D01*
X024736Y039188D01*
X024736Y039333D02*
X024881Y039333D01*
X024929Y039285D01*
X024881Y039188D02*
X024929Y039139D01*
X024929Y039091D01*
X024881Y039043D01*
X024736Y039043D01*
X024736Y039333D01*
X024514Y039402D02*
X024514Y039692D01*
X024417Y039596D01*
X024123Y039692D02*
X024123Y039402D01*
X024021Y039547D02*
X023828Y039547D01*
X023432Y039402D02*
X023239Y039692D01*
X023160Y039835D02*
X023209Y039884D01*
X023209Y039980D01*
X023160Y040029D01*
X023160Y040130D02*
X023209Y040178D01*
X023209Y040275D01*
X023160Y040323D01*
X023112Y040323D01*
X023063Y040275D01*
X023063Y040227D01*
X023063Y040275D02*
X023015Y040323D01*
X022967Y040323D01*
X022918Y040275D01*
X022918Y040178D01*
X022967Y040130D01*
X022967Y040029D02*
X022918Y039980D01*
X022918Y039884D01*
X022967Y039835D01*
X023160Y039835D01*
X021706Y039116D02*
X021706Y038826D01*
X022381Y037251D02*
X022333Y037203D01*
X022333Y037010D01*
X022381Y036961D01*
X022478Y036961D01*
X022527Y037010D01*
X022628Y037010D02*
X022676Y036961D01*
X022773Y036961D01*
X022821Y037010D01*
X022821Y037058D01*
X022773Y037106D01*
X022724Y037106D01*
X022773Y037106D02*
X022821Y037155D01*
X022821Y037203D01*
X022773Y037251D01*
X022676Y037251D01*
X022628Y037203D01*
X022527Y037203D02*
X022478Y037251D01*
X022381Y037251D01*
X022922Y037155D02*
X023019Y037251D01*
X023019Y036961D01*
X022922Y036961D02*
X023116Y036961D01*
X023146Y036582D02*
X023001Y036437D01*
X023195Y036437D01*
X023146Y036292D02*
X023146Y036582D01*
X022900Y036534D02*
X022900Y036485D01*
X022852Y036437D01*
X022900Y036389D01*
X022900Y036340D01*
X022852Y036292D01*
X022755Y036292D01*
X022706Y036340D01*
X022605Y036292D02*
X022509Y036389D01*
X022557Y036389D02*
X022412Y036389D01*
X022412Y036292D02*
X022412Y036582D01*
X022557Y036582D01*
X022605Y036534D01*
X022605Y036437D01*
X022557Y036389D01*
X022706Y036534D02*
X022755Y036582D01*
X022852Y036582D01*
X022900Y036534D01*
X022852Y036437D02*
X022803Y036437D01*
X022852Y035992D02*
X022706Y035846D01*
X022900Y035846D01*
X023001Y035798D02*
X023050Y035846D01*
X023146Y035846D01*
X023195Y035798D01*
X023195Y035750D01*
X023146Y035701D01*
X023050Y035701D01*
X023001Y035750D01*
X023001Y035798D01*
X023050Y035846D02*
X023001Y035895D01*
X023001Y035943D01*
X023050Y035992D01*
X023146Y035992D01*
X023195Y035943D01*
X023195Y035895D01*
X023146Y035846D01*
X022852Y035701D02*
X022852Y035992D01*
X022605Y035943D02*
X022557Y035992D01*
X022460Y035992D01*
X022412Y035943D01*
X022412Y035750D01*
X022460Y035701D01*
X022557Y035701D01*
X022605Y035750D01*
X022557Y035440D02*
X022605Y035392D01*
X022605Y035295D01*
X022557Y035247D01*
X022412Y035247D01*
X022509Y035247D02*
X022605Y035150D01*
X022706Y035199D02*
X022755Y035150D01*
X022852Y035150D01*
X022900Y035199D01*
X022900Y035247D01*
X022852Y035295D01*
X022803Y035295D01*
X022852Y035295D02*
X022900Y035344D01*
X022900Y035392D01*
X022852Y035440D01*
X022755Y035440D01*
X022706Y035392D01*
X022557Y035440D02*
X022412Y035440D01*
X022412Y035150D01*
X022332Y034889D02*
X022525Y034889D01*
X022525Y034841D01*
X022332Y034647D01*
X022332Y034599D01*
X022231Y034599D02*
X022037Y034599D01*
X022231Y034792D01*
X022231Y034841D01*
X022182Y034889D01*
X022086Y034889D01*
X022037Y034841D01*
X021936Y034841D02*
X021888Y034889D01*
X021791Y034889D01*
X021743Y034841D01*
X021743Y034647D01*
X021791Y034599D01*
X021888Y034599D01*
X021936Y034647D01*
X022007Y034299D02*
X022104Y034299D01*
X022152Y034250D01*
X022152Y034202D01*
X022104Y034154D01*
X022152Y034105D01*
X022152Y034057D01*
X022104Y034008D01*
X022007Y034008D01*
X021958Y034057D01*
X021857Y034008D02*
X021761Y034105D01*
X021809Y034105D02*
X021664Y034105D01*
X021664Y034008D02*
X021664Y034299D01*
X021809Y034299D01*
X021857Y034250D01*
X021857Y034154D01*
X021809Y034105D01*
X021958Y034250D02*
X022007Y034299D01*
X022055Y034154D02*
X022104Y034154D01*
X022253Y034154D02*
X022350Y034202D01*
X022398Y034202D01*
X022447Y034154D01*
X022447Y034057D01*
X022398Y034008D01*
X022301Y034008D01*
X022253Y034057D01*
X022253Y034154D02*
X022253Y034299D01*
X022447Y034299D01*
X023050Y035150D02*
X023146Y035150D01*
X023195Y035199D01*
X023195Y035247D01*
X023146Y035295D01*
X023001Y035295D01*
X023001Y035199D01*
X023050Y035150D01*
X023001Y035295D02*
X023098Y035392D01*
X023195Y035440D01*
X024971Y033196D02*
X025164Y033196D01*
X025266Y033196D02*
X025411Y033196D01*
X025459Y033148D01*
X025459Y033100D01*
X025411Y033051D01*
X025266Y033051D01*
X025411Y033051D02*
X025459Y033003D01*
X025459Y032954D01*
X025411Y032906D01*
X025266Y032906D01*
X025266Y033196D01*
X025068Y033051D02*
X024971Y033051D01*
X024971Y032906D02*
X024971Y033196D01*
X025560Y033051D02*
X025705Y033051D01*
X025754Y033003D01*
X025754Y032954D01*
X025705Y032906D01*
X025609Y032906D01*
X025560Y032954D01*
X025560Y033051D01*
X025657Y033148D01*
X025754Y033196D01*
X027564Y034737D02*
X027564Y034930D01*
X027564Y035031D02*
X027564Y035177D01*
X027612Y035225D01*
X027661Y035225D01*
X027709Y035177D01*
X027709Y035031D01*
X027854Y035031D02*
X027564Y035031D01*
X027709Y035177D02*
X027758Y035225D01*
X027806Y035225D01*
X027854Y035177D01*
X027854Y035031D01*
X027709Y034834D02*
X027709Y034737D01*
X027854Y034737D02*
X027564Y034737D01*
X027709Y035326D02*
X027709Y035520D01*
X027564Y035471D02*
X027709Y035326D01*
X027854Y035471D02*
X027564Y035471D01*
X029670Y034841D02*
X029670Y034745D01*
X029719Y034696D01*
X029767Y034696D01*
X029815Y034745D01*
X029815Y034841D01*
X029864Y034890D01*
X029912Y034890D01*
X029961Y034841D01*
X029961Y034745D01*
X029912Y034696D01*
X029864Y034696D01*
X029815Y034745D01*
X029815Y034841D02*
X029767Y034890D01*
X029719Y034890D01*
X029670Y034841D01*
X029670Y034595D02*
X029670Y034401D01*
X029815Y034401D01*
X029767Y034498D01*
X029767Y034547D01*
X029815Y034595D01*
X029912Y034595D01*
X029961Y034547D01*
X029961Y034450D01*
X029912Y034401D01*
X029961Y034300D02*
X029864Y034204D01*
X029864Y034252D02*
X029864Y034107D01*
X029961Y034107D02*
X029670Y034107D01*
X029670Y034252D01*
X029719Y034300D01*
X029815Y034300D01*
X029864Y034252D01*
X031777Y033700D02*
X031825Y033748D01*
X031873Y033748D01*
X031922Y033700D01*
X031970Y033748D01*
X032018Y033748D01*
X032067Y033700D01*
X032067Y033603D01*
X032018Y033554D01*
X031922Y033651D02*
X031922Y033700D01*
X031777Y033700D02*
X031777Y033603D01*
X031825Y033554D01*
X031922Y033453D02*
X031922Y033260D01*
X031777Y033405D01*
X032067Y033405D01*
X032067Y033159D02*
X031970Y033062D01*
X031970Y033110D02*
X031970Y032965D01*
X032067Y032965D02*
X031777Y032965D01*
X031777Y033110D01*
X031825Y033159D01*
X031922Y033159D01*
X031970Y033110D01*
X031752Y032853D02*
X031704Y032901D01*
X031655Y032901D01*
X031607Y032853D01*
X031607Y032708D01*
X031704Y032708D01*
X031752Y032756D01*
X031752Y032853D01*
X031607Y032708D02*
X031510Y032805D01*
X031462Y032901D01*
X031510Y032607D02*
X031558Y032607D01*
X031607Y032558D01*
X031655Y032607D01*
X031704Y032607D01*
X031752Y032558D01*
X031752Y032462D01*
X031704Y032413D01*
X031704Y032312D02*
X031752Y032264D01*
X031752Y032167D01*
X031704Y032119D01*
X031510Y032119D01*
X031462Y032167D01*
X031462Y032264D01*
X031510Y032312D01*
X031510Y032413D02*
X031462Y032462D01*
X031462Y032558D01*
X031510Y032607D01*
X031607Y032558D02*
X031607Y032510D01*
X031825Y031760D02*
X031873Y031760D01*
X031922Y031711D01*
X031970Y031760D01*
X032018Y031760D01*
X032067Y031711D01*
X032067Y031615D01*
X032018Y031566D01*
X032067Y031465D02*
X032067Y031272D01*
X031873Y031465D01*
X031825Y031465D01*
X031777Y031417D01*
X031777Y031320D01*
X031825Y031272D01*
X031825Y031170D02*
X031922Y031170D01*
X031970Y031122D01*
X031970Y030977D01*
X031970Y031074D02*
X032067Y031170D01*
X032067Y030977D02*
X031777Y030977D01*
X031777Y031122D01*
X031825Y031170D01*
X031825Y031566D02*
X031777Y031615D01*
X031777Y031711D01*
X031825Y031760D01*
X031922Y031711D02*
X031922Y031663D01*
X030886Y031614D02*
X030837Y031662D01*
X030644Y031662D01*
X030596Y031614D01*
X030596Y031517D01*
X030644Y031468D01*
X030692Y031468D01*
X030741Y031517D01*
X030741Y031662D01*
X030886Y031614D02*
X030886Y031517D01*
X030837Y031468D01*
X030886Y031367D02*
X030789Y031271D01*
X030789Y031319D02*
X030789Y031174D01*
X030886Y031174D02*
X030596Y031174D01*
X030596Y031319D01*
X030644Y031367D01*
X030741Y031367D01*
X030789Y031319D01*
X030045Y030362D02*
X029852Y030362D01*
X029702Y030362D02*
X029557Y030217D01*
X029750Y030217D01*
X029852Y030120D02*
X029852Y030071D01*
X029852Y030120D02*
X030045Y030313D01*
X030045Y030362D01*
X029702Y030362D02*
X029702Y030071D01*
X029456Y030120D02*
X029407Y030071D01*
X029311Y030071D01*
X029262Y030120D01*
X029262Y030313D01*
X029311Y030362D01*
X029407Y030362D01*
X029456Y030313D01*
X027933Y030342D02*
X027933Y030149D01*
X027740Y030342D01*
X027691Y030342D01*
X027643Y030294D01*
X027643Y030197D01*
X027691Y030149D01*
X027691Y030048D02*
X027740Y030048D01*
X027788Y029999D01*
X027788Y029854D01*
X027933Y029854D02*
X027643Y029854D01*
X027643Y029999D01*
X027691Y030048D01*
X027788Y029999D02*
X027836Y030048D01*
X027885Y030048D01*
X027933Y029999D01*
X027933Y029854D01*
X027788Y029656D02*
X027788Y029560D01*
X027933Y029560D02*
X027643Y029560D01*
X027643Y029753D01*
X026555Y029744D02*
X026507Y029792D01*
X026555Y029744D02*
X026555Y029647D01*
X026507Y029599D01*
X026313Y029599D01*
X026265Y029647D01*
X026265Y029744D01*
X026313Y029792D01*
X026410Y029894D02*
X026410Y030087D01*
X026410Y030188D02*
X026362Y030285D01*
X026362Y030333D01*
X026410Y030382D01*
X026507Y030382D01*
X026555Y030333D01*
X026555Y030237D01*
X026507Y030188D01*
X026410Y030188D02*
X026265Y030188D01*
X026265Y030382D01*
X026265Y030039D02*
X026410Y029894D01*
X026555Y030039D02*
X026265Y030039D01*
X027416Y027783D02*
X027464Y027783D01*
X027512Y027735D01*
X027561Y027783D01*
X027609Y027783D01*
X027657Y027735D01*
X027657Y027638D01*
X027609Y027590D01*
X027609Y027489D02*
X027657Y027440D01*
X027657Y027295D01*
X027367Y027295D01*
X027367Y027440D01*
X027416Y027489D01*
X027464Y027489D01*
X027512Y027440D01*
X027512Y027295D01*
X027512Y027440D02*
X027561Y027489D01*
X027609Y027489D01*
X027416Y027590D02*
X027367Y027638D01*
X027367Y027735D01*
X027416Y027783D01*
X027512Y027735D02*
X027512Y027687D01*
X027367Y027194D02*
X027367Y027001D01*
X027657Y027001D01*
X027512Y027001D02*
X027512Y027097D01*
X027512Y026563D02*
X027512Y026418D01*
X027464Y026369D01*
X027416Y026369D01*
X027367Y026418D01*
X027367Y026514D01*
X027416Y026563D01*
X027609Y026563D01*
X027657Y026514D01*
X027657Y026418D01*
X027609Y026369D01*
X027512Y026268D02*
X027512Y026075D01*
X027367Y026220D01*
X027657Y026220D01*
X027657Y025974D02*
X027561Y025877D01*
X027561Y025925D02*
X027561Y025780D01*
X027657Y025780D02*
X027367Y025780D01*
X027367Y025925D01*
X027416Y025974D01*
X027512Y025974D01*
X027561Y025925D01*
X029656Y027954D02*
X029704Y027906D01*
X029801Y027906D01*
X029849Y027954D01*
X029951Y028051D02*
X030144Y028051D01*
X030245Y027954D02*
X030294Y027906D01*
X030390Y027906D01*
X030439Y027954D01*
X030439Y028003D01*
X030390Y028051D01*
X030342Y028051D01*
X030390Y028051D02*
X030439Y028100D01*
X030439Y028148D01*
X030390Y028196D01*
X030294Y028196D01*
X030245Y028148D01*
X030096Y028196D02*
X029951Y028051D01*
X029849Y028148D02*
X029801Y028196D01*
X029704Y028196D01*
X029656Y028148D01*
X029656Y027954D01*
X030096Y027906D02*
X030096Y028196D01*
X030483Y026779D02*
X030628Y026779D01*
X030676Y026731D01*
X030676Y026634D01*
X030628Y026585D01*
X030483Y026585D01*
X030483Y026489D02*
X030483Y026779D01*
X030579Y026585D02*
X030676Y026489D01*
X030777Y026634D02*
X030971Y026634D01*
X031072Y026682D02*
X031072Y026731D01*
X031120Y026779D01*
X031217Y026779D01*
X031265Y026731D01*
X031265Y026682D01*
X031217Y026634D01*
X031120Y026634D01*
X031072Y026682D01*
X031120Y026634D02*
X031072Y026585D01*
X031072Y026537D01*
X031120Y026489D01*
X031217Y026489D01*
X031265Y026537D01*
X031265Y026585D01*
X031217Y026634D01*
X030922Y026779D02*
X030777Y026634D01*
X030922Y026489D02*
X030922Y026779D01*
X032786Y025655D02*
X032786Y025461D01*
X032834Y025413D01*
X032931Y025413D01*
X032979Y025461D01*
X033080Y025558D02*
X033274Y025558D01*
X033375Y025558D02*
X033569Y025558D01*
X033520Y025413D02*
X033520Y025703D01*
X033375Y025558D01*
X033226Y025413D02*
X033226Y025703D01*
X033080Y025558D01*
X032979Y025655D02*
X032931Y025703D01*
X032834Y025703D01*
X032786Y025655D01*
X033829Y027079D02*
X033829Y027370D01*
X034023Y027370D01*
X034124Y027370D02*
X034269Y027370D01*
X034317Y027321D01*
X034317Y027273D01*
X034269Y027224D01*
X034124Y027224D01*
X034124Y027079D02*
X034124Y027370D01*
X034269Y027224D02*
X034317Y027176D01*
X034317Y027128D01*
X034269Y027079D01*
X034124Y027079D01*
X033926Y027224D02*
X033829Y027224D01*
X033738Y027788D02*
X033786Y027836D01*
X033738Y027788D02*
X033641Y027788D01*
X033593Y027836D01*
X033593Y028030D01*
X033641Y028078D01*
X033738Y028078D01*
X033786Y028030D01*
X033888Y027933D02*
X034081Y027933D01*
X034182Y028030D02*
X034231Y028078D01*
X034327Y028078D01*
X034376Y028030D01*
X034376Y027981D01*
X034182Y027788D01*
X034376Y027788D01*
X034033Y027788D02*
X034033Y028078D01*
X033888Y027933D01*
X034515Y027370D02*
X034418Y027273D01*
X034515Y027370D02*
X034515Y027079D01*
X034418Y027079D02*
X034612Y027079D01*
X035177Y029638D02*
X035273Y029638D01*
X035322Y029687D01*
X035322Y029929D01*
X035423Y029929D02*
X035617Y029929D01*
X035617Y029880D01*
X035423Y029687D01*
X035423Y029638D01*
X035177Y029638D02*
X035128Y029687D01*
X035128Y029929D01*
X035188Y031292D02*
X034994Y031292D01*
X034946Y031340D01*
X034946Y031437D01*
X034994Y031485D01*
X035091Y031587D02*
X034946Y031732D01*
X035236Y031732D01*
X035236Y031881D02*
X035236Y032075D01*
X035236Y031978D02*
X034946Y031978D01*
X035043Y031881D01*
X035091Y031780D02*
X035091Y031587D01*
X035188Y031485D02*
X035236Y031437D01*
X035236Y031340D01*
X035188Y031292D01*
X034670Y031499D02*
X034670Y031596D01*
X034622Y031644D01*
X034380Y031644D01*
X034525Y031745D02*
X034428Y031842D01*
X034380Y031939D01*
X034525Y031890D02*
X034525Y031745D01*
X034622Y031745D01*
X034670Y031794D01*
X034670Y031890D01*
X034622Y031939D01*
X034574Y031939D01*
X034525Y031890D01*
X034670Y031499D02*
X034622Y031451D01*
X034380Y031451D01*
X034533Y032945D02*
X034533Y033091D01*
X034581Y033139D01*
X034678Y033139D01*
X034726Y033091D01*
X034726Y032945D01*
X034823Y032945D02*
X034533Y032945D01*
X034726Y033042D02*
X034823Y033139D01*
X034678Y033240D02*
X034678Y033434D01*
X034678Y033535D02*
X034629Y033631D01*
X034629Y033680D01*
X034678Y033728D01*
X034774Y033728D01*
X034823Y033680D01*
X034823Y033583D01*
X034774Y033535D01*
X034678Y033535D02*
X034533Y033535D01*
X034533Y033728D01*
X034533Y033385D02*
X034678Y033240D01*
X034823Y033385D02*
X034533Y033385D01*
X033661Y033287D02*
X033613Y033336D01*
X033661Y033287D02*
X033661Y033191D01*
X033613Y033142D01*
X033419Y033142D01*
X033371Y033191D01*
X033371Y033287D01*
X033419Y033336D01*
X033516Y033437D02*
X033419Y033534D01*
X033371Y033630D01*
X033468Y033732D02*
X033371Y033828D01*
X033661Y033828D01*
X033661Y033732D02*
X033661Y033925D01*
X033613Y033630D02*
X033565Y033630D01*
X033516Y033582D01*
X033516Y033437D01*
X033613Y033437D01*
X033661Y033485D01*
X033661Y033582D01*
X033613Y033630D01*
X033824Y034815D02*
X033824Y034961D01*
X033872Y035009D01*
X033969Y035009D01*
X034017Y034961D01*
X034017Y034815D01*
X034114Y034815D02*
X033824Y034815D01*
X034017Y034912D02*
X034114Y035009D01*
X034066Y035110D02*
X034114Y035159D01*
X034114Y035255D01*
X034066Y035304D01*
X033969Y035304D01*
X033921Y035255D01*
X033921Y035207D01*
X033969Y035110D01*
X033824Y035110D01*
X033824Y035304D01*
X033872Y035405D02*
X033824Y035453D01*
X033824Y035550D01*
X033872Y035598D01*
X033921Y035598D01*
X033969Y035550D01*
X034017Y035598D01*
X034066Y035598D01*
X034114Y035550D01*
X034114Y035453D01*
X034066Y035405D01*
X033969Y035502D02*
X033969Y035550D01*
X033130Y035648D02*
X032840Y035648D01*
X032985Y035503D01*
X032985Y035697D01*
X032985Y035402D02*
X032936Y035354D01*
X032936Y035305D01*
X032985Y035209D01*
X032840Y035209D01*
X032840Y035402D01*
X032985Y035402D02*
X033081Y035402D01*
X033130Y035354D01*
X033130Y035257D01*
X033081Y035209D01*
X033081Y035107D02*
X033130Y035059D01*
X033130Y034962D01*
X033081Y034914D01*
X032888Y034914D01*
X032840Y034962D01*
X032840Y035059D01*
X032888Y035107D01*
X032988Y037435D02*
X032746Y037435D01*
X032746Y037628D02*
X032988Y037628D01*
X033036Y037580D01*
X033036Y037483D01*
X032988Y037435D01*
X032988Y037730D02*
X033036Y037778D01*
X033036Y037875D01*
X032988Y037923D01*
X032795Y037923D01*
X032746Y037875D01*
X032746Y037778D01*
X032795Y037730D01*
X032843Y037730D01*
X032891Y037778D01*
X032891Y037923D01*
X032849Y038536D02*
X033042Y038536D01*
X033090Y038584D01*
X033090Y038681D01*
X033042Y038729D01*
X033090Y038831D02*
X032897Y039024D01*
X032849Y039024D01*
X032800Y038976D01*
X032800Y038879D01*
X032849Y038831D01*
X032849Y038729D02*
X032800Y038681D01*
X032800Y038584D01*
X032849Y038536D01*
X033090Y038831D02*
X033090Y039024D01*
X033090Y039125D02*
X032897Y039319D01*
X032849Y039319D01*
X032800Y039270D01*
X032800Y039174D01*
X032849Y039125D01*
X033090Y039125D02*
X033090Y039319D01*
X033784Y039270D02*
X033833Y039319D01*
X033881Y039319D01*
X033930Y039270D01*
X033930Y039174D01*
X033881Y039125D01*
X033833Y039125D01*
X033784Y039174D01*
X033784Y039270D01*
X033930Y039270D02*
X033978Y039319D01*
X034026Y039319D01*
X034075Y039270D01*
X034075Y039174D01*
X034026Y039125D01*
X033978Y039125D01*
X033930Y039174D01*
X033978Y039024D02*
X033930Y038976D01*
X033930Y038927D01*
X033930Y038976D02*
X033881Y039024D01*
X033833Y039024D01*
X033784Y038976D01*
X033784Y038879D01*
X033833Y038831D01*
X033833Y038729D02*
X033930Y038729D01*
X033978Y038681D01*
X033978Y038536D01*
X033978Y038633D02*
X034075Y038729D01*
X034026Y038831D02*
X034075Y038879D01*
X034075Y038976D01*
X034026Y039024D01*
X033978Y039024D01*
X033833Y038729D02*
X033784Y038681D01*
X033784Y038536D01*
X034075Y038536D01*
X034867Y037440D02*
X035012Y037295D01*
X035012Y037488D01*
X035157Y037440D02*
X034867Y037440D01*
X034916Y037193D02*
X034964Y037193D01*
X035012Y037145D01*
X035061Y037193D01*
X035109Y037193D01*
X035157Y037145D01*
X035157Y037048D01*
X035109Y037000D01*
X035109Y036899D02*
X035157Y036850D01*
X035157Y036754D01*
X035109Y036705D01*
X034916Y036705D01*
X034867Y036754D01*
X034867Y036850D01*
X034916Y036899D01*
X034916Y037000D02*
X034867Y037048D01*
X034867Y037145D01*
X034916Y037193D01*
X035012Y037145D02*
X035012Y037097D01*
X035714Y037026D02*
X035762Y037075D01*
X035955Y036881D01*
X036004Y036930D01*
X036004Y037026D01*
X035955Y037075D01*
X035762Y037075D01*
X035714Y037026D02*
X035714Y036930D01*
X035762Y036881D01*
X035955Y036881D01*
X035859Y036780D02*
X035859Y036587D01*
X035714Y036732D01*
X036004Y036732D01*
X036004Y036485D02*
X035907Y036389D01*
X035907Y036437D02*
X035907Y036292D01*
X036004Y036292D02*
X035714Y036292D01*
X035714Y036437D01*
X035762Y036485D01*
X035859Y036485D01*
X035907Y036437D01*
X036083Y035697D02*
X036083Y035503D01*
X036083Y035600D02*
X035792Y035600D01*
X035889Y035503D01*
X035937Y035402D02*
X035937Y035209D01*
X035792Y035354D01*
X036083Y035354D01*
X036083Y035107D02*
X035986Y035011D01*
X035986Y035059D02*
X035986Y034914D01*
X036083Y034914D02*
X035792Y034914D01*
X035792Y035059D01*
X035841Y035107D01*
X035937Y035107D01*
X035986Y035059D01*
X035098Y035119D02*
X035098Y035215D01*
X035050Y035264D01*
X034856Y035264D01*
X034808Y035215D01*
X034808Y035119D01*
X034856Y035070D01*
X034905Y035070D01*
X034953Y035119D01*
X034953Y035264D01*
X035098Y035119D02*
X035050Y035070D01*
X035098Y034969D02*
X035098Y034776D01*
X034905Y034969D01*
X034856Y034969D01*
X034808Y034921D01*
X034808Y034824D01*
X034856Y034776D01*
X034856Y034674D02*
X034953Y034674D01*
X035002Y034626D01*
X035002Y034481D01*
X035098Y034481D02*
X034808Y034481D01*
X034808Y034626D01*
X034856Y034674D01*
X035002Y034578D02*
X035098Y034674D01*
X035714Y033680D02*
X035859Y033535D01*
X035859Y033728D01*
X036004Y033680D02*
X035714Y033680D01*
X035859Y033434D02*
X035859Y033240D01*
X035714Y033385D01*
X036004Y033385D01*
X036004Y033139D02*
X035907Y033042D01*
X035907Y033091D02*
X035907Y032945D01*
X036004Y032945D02*
X035714Y032945D01*
X035714Y033091D01*
X035762Y033139D01*
X035859Y033139D01*
X035907Y033091D01*
X036077Y031957D02*
X036029Y031908D01*
X036029Y031811D01*
X036077Y031763D01*
X036270Y031763D01*
X036077Y031957D01*
X036270Y031957D01*
X036319Y031908D01*
X036319Y031811D01*
X036270Y031763D01*
X036270Y031662D02*
X036319Y031614D01*
X036319Y031517D01*
X036270Y031468D01*
X036174Y031468D02*
X036125Y031565D01*
X036125Y031614D01*
X036174Y031662D01*
X036270Y031662D01*
X036174Y031468D02*
X036029Y031468D01*
X036029Y031662D01*
X036077Y031367D02*
X036029Y031319D01*
X036029Y031222D01*
X036077Y031174D01*
X036270Y031174D01*
X036319Y031222D01*
X036319Y031319D01*
X036270Y031367D01*
X036240Y029988D02*
X036191Y029939D01*
X036191Y029746D01*
X036240Y029697D01*
X036336Y029697D01*
X036385Y029746D01*
X036486Y029746D02*
X036534Y029697D01*
X036631Y029697D01*
X036680Y029746D01*
X036680Y029794D01*
X036631Y029843D01*
X036583Y029843D01*
X036631Y029843D02*
X036680Y029891D01*
X036680Y029939D01*
X036631Y029988D01*
X036534Y029988D01*
X036486Y029939D01*
X036385Y029939D02*
X036336Y029988D01*
X036240Y029988D01*
X036781Y029939D02*
X036781Y029891D01*
X036829Y029843D01*
X036926Y029843D01*
X036974Y029794D01*
X036974Y029746D01*
X036926Y029697D01*
X036829Y029697D01*
X036781Y029746D01*
X036781Y029794D01*
X036829Y029843D01*
X036926Y029843D02*
X036974Y029891D01*
X036974Y029939D01*
X036926Y029988D01*
X036829Y029988D01*
X036781Y029939D01*
X036825Y034953D02*
X037018Y034953D01*
X037067Y035002D01*
X037067Y035098D01*
X037018Y035147D01*
X037018Y035248D02*
X037067Y035296D01*
X037067Y035393D01*
X037018Y035441D01*
X036970Y035441D01*
X036922Y035393D01*
X036922Y035345D01*
X036922Y035393D02*
X036873Y035441D01*
X036825Y035441D01*
X036777Y035393D01*
X036777Y035296D01*
X036825Y035248D01*
X036825Y035147D02*
X036777Y035098D01*
X036777Y035002D01*
X036825Y034953D01*
X036825Y035543D02*
X036777Y035591D01*
X036777Y035688D01*
X036825Y035736D01*
X036873Y035736D01*
X036922Y035688D01*
X036970Y035736D01*
X037018Y035736D01*
X037067Y035688D01*
X037067Y035591D01*
X037018Y035543D01*
X036922Y035639D02*
X036922Y035688D01*
X036864Y036292D02*
X037058Y036292D01*
X037106Y036340D01*
X037106Y036437D01*
X037058Y036485D01*
X037058Y036587D02*
X037106Y036635D01*
X037106Y036732D01*
X037058Y036780D01*
X036961Y036780D01*
X036913Y036732D01*
X036913Y036683D01*
X036961Y036587D01*
X036816Y036587D01*
X036816Y036780D01*
X036864Y036881D02*
X036913Y036881D01*
X036961Y036930D01*
X036961Y037026D01*
X037009Y037075D01*
X037058Y037075D01*
X037106Y037026D01*
X037106Y036930D01*
X037058Y036881D01*
X037009Y036881D01*
X036961Y036930D01*
X036961Y037026D02*
X036913Y037075D01*
X036864Y037075D01*
X036816Y037026D01*
X036816Y036930D01*
X036864Y036881D01*
X036864Y036485D02*
X036816Y036437D01*
X036816Y036340D01*
X036864Y036292D01*
X036138Y041331D02*
X036187Y041380D01*
X036187Y041573D01*
X036138Y041621D01*
X036042Y041621D01*
X035993Y041573D01*
X035993Y041525D01*
X036042Y041476D01*
X036187Y041476D01*
X036138Y041331D02*
X036042Y041331D01*
X035993Y041380D01*
X035892Y041380D02*
X035844Y041331D01*
X035747Y041331D01*
X035699Y041380D01*
X035699Y041476D02*
X035795Y041525D01*
X035844Y041525D01*
X035892Y041476D01*
X035892Y041380D01*
X035699Y041476D02*
X035699Y041621D01*
X035892Y041621D01*
X035597Y041573D02*
X035549Y041621D01*
X035452Y041621D01*
X035404Y041573D01*
X035404Y041380D01*
X035452Y041331D01*
X035549Y041331D01*
X035597Y041380D01*
X031949Y038522D02*
X031949Y038426D01*
X031900Y038377D01*
X031804Y038377D02*
X031755Y038474D01*
X031755Y038522D01*
X031804Y038571D01*
X031900Y038571D01*
X031949Y038522D01*
X031804Y038377D02*
X031659Y038377D01*
X031659Y038571D01*
X031756Y038644D02*
X031804Y038693D01*
X031804Y038789D01*
X031756Y038838D01*
X031756Y038939D02*
X031804Y038987D01*
X031804Y039084D01*
X031756Y039132D01*
X031707Y039132D01*
X031659Y039084D01*
X031659Y038939D01*
X031756Y038939D01*
X031659Y038939D02*
X031562Y039036D01*
X031514Y039132D01*
X031562Y039234D02*
X031514Y039282D01*
X031514Y039379D01*
X031562Y039427D01*
X031611Y039427D01*
X031804Y039234D01*
X031804Y039427D01*
X031562Y038838D02*
X031514Y038789D01*
X031514Y038693D01*
X031562Y038644D01*
X031756Y038644D01*
X031755Y038276D02*
X031804Y038228D01*
X031852Y038276D01*
X031900Y038276D01*
X031949Y038228D01*
X031949Y038131D01*
X031900Y038083D01*
X031900Y037981D02*
X031949Y037933D01*
X031949Y037836D01*
X031900Y037788D01*
X031707Y037788D01*
X031659Y037836D01*
X031659Y037933D01*
X031707Y037981D01*
X031707Y038083D02*
X031659Y038131D01*
X031659Y038228D01*
X031707Y038276D01*
X031755Y038276D01*
X031804Y038228D02*
X031804Y038179D01*
X030931Y038155D02*
X030882Y038203D01*
X030786Y038203D01*
X030737Y038155D01*
X030636Y038155D02*
X030636Y038106D01*
X030588Y038058D01*
X030636Y038010D01*
X030636Y037961D01*
X030588Y037913D01*
X030491Y037913D01*
X030443Y037961D01*
X030342Y037913D02*
X030245Y038010D01*
X030293Y038010D02*
X030148Y038010D01*
X030148Y037913D02*
X030148Y038203D01*
X030293Y038203D01*
X030342Y038155D01*
X030342Y038058D01*
X030293Y038010D01*
X030443Y038155D02*
X030491Y038203D01*
X030588Y038203D01*
X030636Y038155D01*
X030588Y038058D02*
X030539Y038058D01*
X030737Y037913D02*
X030931Y038106D01*
X030931Y038155D01*
X030931Y037913D02*
X030737Y037913D01*
X027368Y037709D02*
X027174Y037709D01*
X027271Y037709D02*
X027271Y037999D01*
X027174Y037903D01*
X027073Y037709D02*
X026880Y037709D01*
X026976Y037709D02*
X026976Y037999D01*
X026880Y037903D01*
X026779Y037951D02*
X026779Y037854D01*
X026730Y037806D01*
X026585Y037806D01*
X026585Y037709D02*
X026585Y037999D01*
X026730Y037999D01*
X026779Y037951D01*
X026682Y037806D02*
X026779Y037709D01*
X024752Y037704D02*
X024558Y037704D01*
X024655Y037704D02*
X024655Y037994D01*
X024558Y037898D01*
X024457Y037946D02*
X024409Y037994D01*
X024312Y037994D01*
X024263Y037946D01*
X024263Y037753D01*
X024312Y037704D01*
X024409Y037704D01*
X024457Y037753D01*
X024164Y037704D02*
X024067Y037704D01*
X024115Y037704D02*
X024115Y037994D01*
X024067Y037994D02*
X024164Y037994D01*
X023966Y037994D02*
X023966Y037704D01*
X023772Y037704D02*
X023772Y037994D01*
X023869Y037898D01*
X023966Y037994D01*
X024441Y038649D02*
X024441Y038939D01*
X024441Y038794D02*
X024538Y038794D01*
X024736Y038649D02*
X024736Y038939D01*
X024538Y039188D02*
X024441Y039188D01*
X020588Y033439D02*
X020588Y033149D01*
X020491Y033149D02*
X020685Y033149D01*
X020491Y033343D02*
X020588Y033439D01*
X020390Y033391D02*
X020342Y033439D01*
X020245Y033439D01*
X020197Y033391D01*
X020095Y033391D02*
X020095Y033294D01*
X020047Y033246D01*
X019902Y033246D01*
X019999Y033246D02*
X020095Y033149D01*
X020197Y033149D02*
X020390Y033343D01*
X020390Y033391D01*
X020390Y033149D02*
X020197Y033149D01*
X020095Y033391D02*
X020047Y033439D01*
X019902Y033439D01*
X019902Y033149D01*
X019901Y032207D02*
X019950Y032159D01*
X019950Y032062D01*
X019901Y032014D01*
X019756Y032014D01*
X019853Y032014D02*
X019950Y031917D01*
X020051Y031965D02*
X020099Y031917D01*
X020196Y031917D01*
X020244Y031965D01*
X020244Y032062D01*
X020196Y032110D01*
X020148Y032110D01*
X020051Y032062D01*
X020051Y032207D01*
X020244Y032207D01*
X020346Y032110D02*
X020442Y032207D01*
X020442Y031917D01*
X020346Y031917D02*
X020539Y031917D01*
X019901Y032207D02*
X019756Y032207D01*
X019756Y031917D01*
X018804Y032403D02*
X018756Y032355D01*
X018659Y032355D01*
X018611Y032403D01*
X018611Y032452D01*
X018659Y032500D01*
X018756Y032500D01*
X018804Y032452D01*
X018804Y032403D01*
X018756Y032500D02*
X018804Y032548D01*
X018804Y032597D01*
X018756Y032645D01*
X018659Y032645D01*
X018611Y032597D01*
X018611Y032548D01*
X018659Y032500D01*
X018510Y032597D02*
X018461Y032645D01*
X018316Y032645D01*
X018316Y032355D01*
X018461Y032355D01*
X018510Y032403D01*
X018510Y032597D01*
X018215Y032645D02*
X018021Y032645D01*
X018021Y032355D01*
X018215Y032355D01*
X018118Y032500D02*
X018021Y032500D01*
X017920Y032355D02*
X017727Y032355D01*
X017727Y032645D01*
X017428Y032180D02*
X017331Y032180D01*
X017283Y032131D01*
X017283Y032083D01*
X017331Y032034D01*
X017476Y032034D01*
X017476Y031938D02*
X017476Y032131D01*
X017428Y032180D01*
X017476Y031938D02*
X017428Y031889D01*
X017331Y031889D01*
X017283Y031938D01*
X017181Y031889D02*
X016988Y031889D01*
X017181Y032083D01*
X017181Y032131D01*
X017133Y032180D01*
X017036Y032180D01*
X016988Y032131D01*
X016887Y032131D02*
X016838Y032180D01*
X016742Y032180D01*
X016693Y032131D01*
X016693Y031938D01*
X016742Y031889D01*
X016838Y031889D01*
X016887Y031938D01*
X017924Y030204D02*
X018069Y030204D01*
X018117Y030156D01*
X018117Y030059D01*
X018069Y030011D01*
X017924Y030011D01*
X018020Y030011D02*
X018117Y029914D01*
X018218Y029962D02*
X018267Y029914D01*
X018363Y029914D01*
X018412Y029962D01*
X018412Y030011D01*
X018363Y030059D01*
X018315Y030059D01*
X018363Y030059D02*
X018412Y030107D01*
X018412Y030156D01*
X018363Y030204D01*
X018267Y030204D01*
X018218Y030156D01*
X018513Y030156D02*
X018561Y030204D01*
X018658Y030204D01*
X018706Y030156D01*
X018706Y030107D01*
X018658Y030059D01*
X018706Y030011D01*
X018706Y029962D01*
X018658Y029914D01*
X018561Y029914D01*
X018513Y029962D01*
X018610Y030059D02*
X018658Y030059D01*
X017924Y029914D02*
X017924Y030204D01*
X017005Y028039D02*
X016908Y028039D01*
X016859Y027990D01*
X016758Y028039D02*
X016661Y027990D01*
X016565Y027894D01*
X016710Y027894D01*
X016758Y027845D01*
X016758Y027797D01*
X016710Y027749D01*
X016613Y027749D01*
X016565Y027797D01*
X016565Y027894D01*
X016464Y027990D02*
X016415Y028039D01*
X016318Y028039D01*
X016270Y027990D01*
X016270Y027797D01*
X016318Y027749D01*
X016415Y027749D01*
X016464Y027797D01*
X016859Y027797D02*
X016908Y027749D01*
X017005Y027749D01*
X017053Y027797D01*
X017053Y027845D01*
X017005Y027894D01*
X016956Y027894D01*
X017005Y027894D02*
X017053Y027942D01*
X017053Y027990D01*
X017005Y028039D01*
X015399Y028078D02*
X015206Y028078D01*
X015206Y027933D01*
X015303Y027981D01*
X015351Y027981D01*
X015399Y027933D01*
X015399Y027836D01*
X015351Y027788D01*
X015254Y027788D01*
X015206Y027836D01*
X015105Y027836D02*
X015056Y027788D01*
X014911Y027788D01*
X014911Y028078D01*
X015056Y028078D01*
X015105Y028030D01*
X015105Y027981D01*
X015056Y027933D01*
X014911Y027933D01*
X015056Y027933D02*
X015105Y027885D01*
X015105Y027836D01*
X014810Y028078D02*
X014617Y028078D01*
X014617Y027788D01*
X014617Y027933D02*
X014713Y027933D01*
X014060Y027510D02*
X014060Y027316D01*
X013867Y027510D01*
X013818Y027510D01*
X013770Y027461D01*
X013770Y027364D01*
X013818Y027316D01*
X013818Y027215D02*
X013770Y027167D01*
X013770Y027021D01*
X014060Y027021D01*
X014060Y027167D01*
X014012Y027215D01*
X013818Y027215D01*
X015986Y023388D02*
X015937Y023340D01*
X015937Y023146D01*
X015986Y023098D01*
X016082Y023098D01*
X016131Y023146D01*
X016232Y023146D02*
X016280Y023098D01*
X016377Y023098D01*
X016425Y023146D01*
X016425Y023195D01*
X016377Y023243D01*
X016329Y023243D01*
X016377Y023243D02*
X016425Y023291D01*
X016425Y023340D01*
X016377Y023388D01*
X016280Y023388D01*
X016232Y023340D01*
X016131Y023340D02*
X016082Y023388D01*
X015986Y023388D01*
X016527Y023340D02*
X016575Y023388D01*
X016672Y023388D01*
X016720Y023340D01*
X016527Y023146D01*
X016575Y023098D01*
X016672Y023098D01*
X016720Y023146D01*
X016720Y023340D01*
X016527Y023340D02*
X016527Y023146D01*
X021467Y028969D02*
X021467Y029259D01*
X021467Y028969D02*
X021660Y028969D01*
X021762Y028969D02*
X021907Y028969D01*
X021955Y029017D01*
X021955Y029211D01*
X021907Y029259D01*
X021762Y029259D01*
X021762Y028969D01*
X022056Y028969D02*
X022250Y029163D01*
X022250Y029211D01*
X022201Y029259D01*
X022105Y029259D01*
X022056Y029211D01*
X022056Y028969D02*
X022250Y028969D01*
X014297Y034057D02*
X014249Y034008D01*
X014152Y034008D01*
X014103Y034057D01*
X014103Y034154D02*
X014200Y034202D01*
X014249Y034202D01*
X014297Y034154D01*
X014297Y034057D01*
X014103Y034154D02*
X014103Y034299D01*
X014297Y034299D01*
X014002Y034250D02*
X013954Y034299D01*
X013857Y034299D01*
X013809Y034250D01*
X013708Y034250D02*
X013659Y034299D01*
X013563Y034299D01*
X013514Y034250D01*
X013514Y034057D01*
X013563Y034008D01*
X013659Y034008D01*
X013708Y034057D01*
X013809Y034008D02*
X014002Y034202D01*
X014002Y034250D01*
X014002Y034008D02*
X013809Y034008D01*
X013591Y033236D02*
X013591Y032945D01*
X013687Y032945D02*
X013494Y032945D01*
X013393Y032945D02*
X013199Y032945D01*
X013199Y033236D01*
X013494Y033139D02*
X013591Y033236D01*
X036766Y023704D02*
X036766Y023414D01*
X036766Y023511D02*
X036911Y023511D01*
X036960Y023559D01*
X036960Y023656D01*
X036911Y023704D01*
X036766Y023704D01*
X037061Y023607D02*
X037158Y023704D01*
X037158Y023414D01*
X037254Y023414D02*
X037061Y023414D01*
X037355Y023462D02*
X037355Y023511D01*
X037404Y023559D01*
X037501Y023559D01*
X037549Y023511D01*
X037549Y023462D01*
X037501Y023414D01*
X037404Y023414D01*
X037355Y023462D01*
X037404Y023559D02*
X037355Y023607D01*
X037355Y023656D01*
X037404Y023704D01*
X037501Y023704D01*
X037549Y023656D01*
X037549Y023607D01*
X037501Y023559D01*
D15*
X034886Y045866D02*
X034886Y046286D01*
X034676Y046076D02*
X035096Y046076D01*
X031514Y047060D02*
X031093Y047060D01*
X031303Y047270D02*
X031303Y046850D01*
X016579Y026995D02*
X016579Y026574D01*
X016369Y026785D02*
X016789Y026785D01*
D16*
X016985Y024649D02*
X016531Y024649D01*
X031256Y044925D02*
X031709Y044925D01*
X034838Y043941D02*
X035292Y043941D01*
D17*
X034247Y042379D02*
X033854Y042379D01*
X033854Y042182D01*
X034247Y042182D02*
X034247Y042379D01*
X034247Y041789D02*
X034247Y041592D01*
X033854Y041592D01*
X033854Y041789D01*
X033361Y041671D02*
X033361Y041395D01*
X032771Y041395D01*
X032771Y041671D01*
X032771Y042300D02*
X032771Y042576D01*
X033361Y042576D01*
X033361Y042300D01*
X033263Y039230D02*
X033657Y039230D01*
X033657Y039033D01*
X033657Y038639D02*
X033657Y038442D01*
X033263Y038442D01*
X033263Y038639D01*
X033263Y039033D02*
X033263Y039230D01*
X032574Y039230D02*
X032574Y038954D01*
X032574Y039230D02*
X031983Y039230D01*
X031983Y038954D01*
X031413Y038757D02*
X031413Y038560D01*
X031019Y038560D01*
X031019Y038757D01*
X031019Y039151D02*
X031019Y039348D01*
X031413Y039348D01*
X031413Y039151D01*
X031983Y038324D02*
X031983Y038049D01*
X032574Y038049D01*
X032574Y038324D01*
X033322Y037241D02*
X034385Y037241D01*
X034385Y036887D01*
X033322Y036887D01*
X033322Y037241D01*
X034208Y038442D02*
X034208Y038639D01*
X034208Y038442D02*
X034602Y038442D01*
X034602Y038639D01*
X034602Y039033D02*
X034602Y039230D01*
X034208Y039230D01*
X034208Y039033D01*
X035231Y037458D02*
X035625Y037458D01*
X035625Y037261D01*
X035231Y037261D02*
X035231Y037458D01*
X035231Y036867D02*
X035231Y036671D01*
X035625Y036671D01*
X035625Y036867D01*
X036216Y036671D02*
X036216Y036474D01*
X036609Y036474D01*
X036609Y036671D01*
X036609Y037064D02*
X036609Y037261D01*
X036216Y037261D01*
X036216Y037064D01*
X037200Y037064D02*
X037200Y037261D01*
X037594Y037261D01*
X037594Y037064D01*
X037594Y036671D02*
X037594Y036474D01*
X037200Y036474D01*
X037200Y036671D01*
X037200Y035686D02*
X037594Y035686D01*
X037594Y035489D01*
X037594Y035096D02*
X037594Y034899D01*
X037200Y034899D01*
X037200Y035096D01*
X037200Y035489D02*
X037200Y035686D01*
X036609Y035686D02*
X036609Y035489D01*
X036609Y035686D02*
X036216Y035686D01*
X036216Y035489D01*
X036216Y035096D02*
X036216Y034899D01*
X036609Y034899D01*
X036609Y035096D01*
X035586Y035096D02*
X035586Y034899D01*
X035192Y034899D01*
X035192Y035096D01*
X035192Y035489D02*
X035192Y035686D01*
X035586Y035686D01*
X035586Y035489D01*
X034641Y035489D02*
X034641Y035686D01*
X034247Y035686D01*
X034247Y035489D01*
X034247Y035096D02*
X034247Y034899D01*
X034641Y034899D01*
X034641Y035096D01*
X033657Y035096D02*
X033657Y034899D01*
X033263Y034899D01*
X033263Y035096D01*
X033263Y035489D02*
X033263Y035686D01*
X033657Y035686D01*
X033657Y035489D01*
X033854Y033915D02*
X034247Y033915D01*
X034247Y033718D01*
X033854Y033718D02*
X033854Y033915D01*
X033854Y033324D02*
X033854Y033127D01*
X034247Y033127D01*
X034247Y033324D01*
X034188Y032123D02*
X033125Y032123D01*
X033125Y031769D01*
X034188Y031769D01*
X034188Y032123D01*
X035428Y032143D02*
X035428Y031946D01*
X035428Y032143D02*
X035822Y032143D01*
X035822Y031946D01*
X035822Y031552D02*
X035822Y031356D01*
X035428Y031356D01*
X035428Y031552D01*
X036511Y031434D02*
X036511Y031159D01*
X037102Y031159D01*
X037102Y031434D01*
X037102Y032064D02*
X037102Y032340D01*
X036511Y032340D01*
X036511Y032064D01*
X036609Y033127D02*
X036216Y033127D01*
X036216Y033324D01*
X036609Y033324D02*
X036609Y033127D01*
X036609Y033718D02*
X036609Y033915D01*
X036216Y033915D01*
X036216Y033718D01*
X035428Y033718D02*
X035428Y033915D01*
X035035Y033915D01*
X035035Y033718D01*
X035035Y033324D02*
X035035Y033127D01*
X035428Y033127D01*
X035428Y033324D01*
X032672Y033324D02*
X032672Y033127D01*
X032279Y033127D01*
X032279Y033324D01*
X032279Y033718D02*
X032279Y033915D01*
X032672Y033915D01*
X032672Y033718D01*
X032672Y031749D02*
X032279Y031749D01*
X032279Y031552D01*
X032279Y031159D02*
X032279Y030962D01*
X032672Y030962D01*
X032672Y031159D01*
X032672Y031552D02*
X032672Y031749D01*
X031491Y031749D02*
X031491Y031552D01*
X031491Y031749D02*
X031098Y031749D01*
X031098Y031552D01*
X031098Y031159D02*
X031098Y030962D01*
X031491Y030962D01*
X031491Y031159D01*
X033696Y029190D02*
X034090Y029190D01*
X034090Y028993D01*
X034090Y028600D02*
X034090Y028403D01*
X033696Y028403D01*
X033696Y028600D01*
X033696Y028993D02*
X033696Y029190D01*
X034503Y028777D02*
X034503Y028423D01*
X035566Y028423D01*
X035566Y028777D01*
X034503Y028777D01*
X034720Y026907D02*
X033775Y026907D01*
X033775Y025175D01*
X034720Y025175D01*
X034720Y026907D01*
X033460Y026631D02*
X033460Y026434D01*
X033460Y026631D02*
X033066Y026631D01*
X033066Y026434D01*
X033066Y026041D02*
X033066Y025844D01*
X033460Y025844D01*
X033460Y026041D01*
X029483Y026474D02*
X029090Y026474D01*
X029090Y026671D01*
X028854Y026513D02*
X027909Y026513D01*
X027909Y028245D01*
X028854Y028245D01*
X028854Y026513D01*
X029090Y027064D02*
X029090Y027261D01*
X029483Y027261D01*
X029483Y027064D01*
X029483Y026671D02*
X029483Y026474D01*
X029483Y027458D02*
X029090Y027458D01*
X029090Y027655D01*
X029483Y027655D02*
X029483Y027458D01*
X029483Y028049D02*
X029483Y028245D01*
X029090Y028245D01*
X029090Y028049D01*
X029011Y028521D02*
X028066Y028521D01*
X028066Y030253D01*
X029011Y030253D01*
X029011Y028521D01*
X026767Y030568D02*
X026373Y030568D01*
X026373Y030765D01*
X026373Y031159D02*
X026373Y031356D01*
X026767Y031356D01*
X026767Y031159D01*
X026767Y030765D02*
X026767Y030568D01*
X026728Y031867D02*
X026728Y032812D01*
X024995Y032812D01*
X024995Y031867D01*
X026728Y031867D01*
X027869Y034466D02*
X028814Y034466D01*
X028814Y036198D01*
X027869Y036198D01*
X027869Y034466D01*
X029168Y034308D02*
X029168Y034112D01*
X029562Y034112D01*
X029562Y034308D01*
X029562Y034702D02*
X029562Y034899D01*
X029168Y034899D01*
X029168Y034702D01*
X029424Y036434D02*
X028834Y036434D01*
X028834Y036671D01*
X028440Y036671D02*
X028440Y036434D01*
X027850Y036434D01*
X027850Y036671D01*
X027850Y037379D02*
X027850Y037615D01*
X028440Y037615D01*
X028440Y037379D01*
X028834Y037379D02*
X028834Y037615D01*
X029424Y037615D01*
X029424Y037379D01*
X029424Y036671D02*
X029424Y036434D01*
X027042Y038127D02*
X025310Y038127D01*
X025310Y039072D01*
X027042Y039072D01*
X027042Y038127D01*
X027042Y039348D02*
X025310Y039348D01*
X025310Y040293D01*
X027042Y040293D01*
X027042Y039348D01*
X026964Y040863D02*
X027200Y040863D01*
X027200Y041454D01*
X026964Y041454D01*
X026924Y041690D02*
X026649Y041690D01*
X026649Y042281D01*
X026924Y042281D01*
X026767Y042576D02*
X026570Y042576D01*
X026570Y042970D01*
X026767Y042970D01*
X027161Y042970D02*
X027357Y042970D01*
X027357Y042576D01*
X027161Y042576D01*
X027554Y042281D02*
X027830Y042281D01*
X027830Y041690D01*
X027554Y041690D01*
X028105Y041710D02*
X028105Y042104D01*
X028302Y042104D01*
X028302Y042379D02*
X028105Y042379D01*
X028105Y042773D01*
X028302Y042773D01*
X028696Y042773D02*
X028893Y042773D01*
X028893Y042379D01*
X028696Y042379D01*
X028696Y042104D02*
X028893Y042104D01*
X028893Y041710D01*
X028696Y041710D01*
X028302Y041710D02*
X028105Y041710D01*
X026413Y042045D02*
X026413Y042635D01*
X026137Y042635D01*
X026176Y042734D02*
X026176Y043127D01*
X025980Y043127D01*
X025980Y042734D02*
X026176Y042734D01*
X025586Y042734D02*
X025389Y042734D01*
X025389Y043127D01*
X025586Y043127D01*
X025507Y042635D02*
X025231Y042635D01*
X025231Y042045D01*
X025507Y042045D01*
X026137Y042045D02*
X026413Y042045D01*
X026255Y041454D02*
X026019Y041454D01*
X026019Y040863D01*
X026255Y040863D01*
X025625Y040804D02*
X025625Y040608D01*
X025231Y040608D01*
X025231Y040804D01*
X025231Y041198D02*
X025231Y041395D01*
X025625Y041395D01*
X025625Y041198D01*
X024405Y042379D02*
X024405Y042576D01*
X024405Y042379D02*
X024011Y042379D01*
X024011Y042576D01*
X024011Y042970D02*
X024011Y043167D01*
X024405Y043167D01*
X024405Y042970D01*
X023184Y043068D02*
X023184Y042478D01*
X022948Y042478D01*
X022909Y042281D02*
X023184Y042281D01*
X023184Y041690D01*
X022909Y041690D01*
X022791Y041198D02*
X023184Y041198D01*
X023184Y041001D01*
X023184Y040608D02*
X023184Y040411D01*
X022791Y040411D01*
X022791Y040608D01*
X022791Y041001D02*
X022791Y041198D01*
X022239Y041198D02*
X022239Y041001D01*
X022239Y041198D02*
X021846Y041198D01*
X021846Y041001D01*
X021846Y040608D02*
X021846Y040411D01*
X022239Y040411D01*
X022239Y040608D01*
X022279Y041690D02*
X022003Y041690D01*
X022003Y042281D01*
X022279Y042281D01*
X022239Y042478D02*
X022003Y042478D01*
X022003Y043068D01*
X022239Y043068D01*
X022948Y043068D02*
X023184Y043068D01*
X020901Y043088D02*
X020901Y042694D01*
X020704Y042694D01*
X020310Y042694D02*
X020113Y042694D01*
X020113Y043088D01*
X020310Y043088D01*
X020271Y043363D02*
X020665Y043363D01*
X020665Y043560D01*
X020665Y043954D02*
X020665Y044151D01*
X020271Y044151D01*
X020271Y043954D01*
X020271Y043560D02*
X020271Y043363D01*
X020704Y043088D02*
X020901Y043088D01*
X020861Y042182D02*
X021058Y042182D01*
X021058Y041789D01*
X020861Y041789D01*
X020468Y041789D02*
X020271Y041789D01*
X020271Y042182D01*
X020468Y042182D01*
X020468Y041316D02*
X020271Y041316D01*
X020271Y040923D01*
X020468Y040923D01*
X020861Y040923D02*
X021058Y040923D01*
X021058Y041316D01*
X020861Y041316D01*
X019680Y040273D02*
X019680Y039682D01*
X019444Y039682D01*
X019444Y040273D02*
X019680Y040273D01*
X018735Y040273D02*
X018499Y040273D01*
X018499Y039682D01*
X018735Y039682D01*
X018204Y039722D02*
X017810Y039722D01*
X017810Y039919D01*
X017515Y039800D02*
X017515Y039525D01*
X016924Y039525D01*
X016924Y039800D01*
X016728Y039820D02*
X016334Y039820D01*
X016334Y040017D01*
X016728Y040017D02*
X016728Y039820D01*
X016728Y040411D02*
X016728Y040608D01*
X016334Y040608D01*
X016334Y040411D01*
X016924Y040430D02*
X016924Y040706D01*
X017515Y040706D01*
X017515Y040430D01*
X017810Y040509D02*
X018204Y040509D01*
X018204Y040312D01*
X018204Y039919D02*
X018204Y039722D01*
X017810Y040312D02*
X017810Y040509D01*
X015743Y040411D02*
X015743Y040214D01*
X015743Y040411D02*
X015350Y040411D01*
X015350Y040214D01*
X015350Y039820D02*
X015350Y039623D01*
X015743Y039623D01*
X015743Y039820D01*
X014857Y039702D02*
X014857Y039426D01*
X014267Y039426D01*
X014267Y039702D01*
X014267Y040332D02*
X014267Y040608D01*
X014857Y040608D01*
X014857Y040332D01*
X014483Y038678D02*
X014287Y038678D01*
X014483Y038678D02*
X014483Y038285D01*
X014287Y038285D01*
X014464Y038029D02*
X014661Y038029D01*
X014661Y037635D01*
X014464Y037635D01*
X014070Y037635D02*
X013873Y037635D01*
X013873Y038029D01*
X014070Y038029D01*
X013893Y038285D02*
X013696Y038285D01*
X013696Y038678D01*
X013893Y038678D01*
X015743Y037064D02*
X015743Y036671D01*
X015940Y036671D01*
X015940Y037064D02*
X015743Y037064D01*
X016334Y037064D02*
X016531Y037064D01*
X016531Y036671D01*
X016334Y036671D01*
X019680Y033029D02*
X019680Y032438D01*
X019917Y032438D01*
X019917Y033029D02*
X019680Y033029D01*
X020625Y033029D02*
X020861Y033029D01*
X020861Y032438D01*
X020625Y032438D01*
X020704Y032340D02*
X020901Y032340D01*
X020704Y032340D02*
X020704Y031946D01*
X020901Y031946D01*
X021294Y031946D02*
X021491Y031946D01*
X021491Y032340D01*
X021294Y032340D01*
X021255Y033915D02*
X021452Y033915D01*
X021452Y034308D01*
X021255Y034308D01*
X021255Y034505D02*
X021452Y034505D01*
X021452Y034899D01*
X021255Y034899D01*
X021058Y035096D02*
X020861Y035096D01*
X020861Y035489D01*
X021058Y035489D01*
X021452Y035489D02*
X021649Y035489D01*
X021649Y035096D01*
X021452Y035096D01*
X020861Y034899D02*
X020665Y034899D01*
X020665Y034505D01*
X020861Y034505D01*
X020861Y034308D02*
X020665Y034308D01*
X020665Y033915D01*
X020861Y033915D01*
X020861Y036277D02*
X020861Y036671D01*
X021058Y036671D01*
X021452Y036671D02*
X021649Y036671D01*
X021649Y036277D01*
X021452Y036277D01*
X021058Y036277D02*
X020861Y036277D01*
X018302Y031159D02*
X017909Y031159D01*
X017909Y030962D01*
X018302Y030962D02*
X018302Y031159D01*
X018302Y030568D02*
X018302Y030371D01*
X017909Y030371D01*
X017909Y030568D01*
X016019Y027694D02*
X016019Y026749D01*
X014287Y026749D01*
X014287Y027694D01*
X016019Y027694D01*
X015940Y023875D02*
X015940Y023482D01*
X016137Y023482D01*
X016137Y023875D02*
X015940Y023875D01*
X016531Y023875D02*
X016728Y023875D01*
X016728Y023482D01*
X016531Y023482D01*
X015743Y042025D02*
X015350Y042025D01*
X015350Y042222D01*
X015743Y042222D02*
X015743Y042025D01*
X015743Y042615D02*
X015743Y042812D01*
X015350Y042812D01*
X015350Y042615D01*
X018499Y046316D02*
X018499Y046710D01*
X018696Y046710D01*
X018696Y046907D02*
X018499Y046907D01*
X018499Y047300D01*
X018696Y047300D01*
X018696Y047497D02*
X018499Y047497D01*
X018499Y047891D01*
X018696Y047891D01*
X018499Y048088D02*
X018302Y048088D01*
X018302Y048482D01*
X018499Y048482D01*
X018342Y048580D02*
X018105Y048580D01*
X018105Y049171D01*
X018342Y049171D01*
X018893Y048482D02*
X019090Y048482D01*
X019090Y048088D01*
X018893Y048088D01*
X019090Y047891D02*
X019287Y047891D01*
X019287Y047497D01*
X019090Y047497D01*
X019090Y047300D02*
X019287Y047300D01*
X019287Y046907D01*
X019090Y046907D01*
X019090Y046710D02*
X019287Y046710D01*
X019287Y046316D01*
X019090Y046316D01*
X018696Y046316D02*
X018499Y046316D01*
X019562Y046946D02*
X019562Y047143D01*
X019562Y046946D02*
X019956Y046946D01*
X019956Y047143D01*
X019956Y047537D02*
X019956Y047734D01*
X019562Y047734D01*
X019562Y047537D01*
X019287Y048580D02*
X019287Y049171D01*
X019050Y049171D01*
X019050Y048580D02*
X019287Y048580D01*
X019739Y049466D02*
X020133Y049466D01*
X020133Y049663D01*
X020330Y049663D02*
X020330Y049466D01*
X020724Y049466D01*
X020724Y049663D01*
X020724Y050056D02*
X020724Y050253D01*
X020330Y050253D01*
X020330Y050056D01*
X020133Y050056D02*
X020133Y050253D01*
X019739Y050253D01*
X019739Y050056D01*
X019739Y049663D02*
X019739Y049466D01*
X020468Y050391D02*
X020468Y050982D01*
X020743Y050982D01*
X020704Y051178D02*
X020468Y051178D01*
X020468Y051769D01*
X020704Y051769D01*
X021413Y051769D02*
X021649Y051769D01*
X021649Y051178D01*
X021413Y051178D01*
X021373Y050982D02*
X021649Y050982D01*
X021649Y050391D01*
X021373Y050391D01*
X020743Y050391D02*
X020468Y050391D01*
X019385Y052419D02*
X018794Y052419D01*
X018794Y052655D01*
X019385Y052655D02*
X019385Y052419D01*
X019385Y053363D02*
X019385Y053600D01*
X018794Y053600D01*
X018794Y053363D01*
X018302Y053206D02*
X018302Y053009D01*
X017909Y053009D01*
X017909Y053206D01*
X017712Y053206D02*
X017712Y053009D01*
X017318Y053009D01*
X017318Y053206D01*
X017121Y053206D02*
X017121Y053009D01*
X016728Y053009D01*
X016728Y053206D01*
X016728Y053600D02*
X016728Y053797D01*
X017121Y053797D01*
X017121Y053600D01*
X017318Y053600D02*
X017318Y053797D01*
X017712Y053797D01*
X017712Y053600D01*
X017909Y053600D02*
X017909Y053797D01*
X018302Y053797D01*
X018302Y053600D01*
X016531Y053560D02*
X016137Y053560D01*
X016137Y053757D01*
X016531Y053757D02*
X016531Y053560D01*
X016531Y054151D02*
X016531Y054348D01*
X016137Y054348D01*
X016137Y054151D01*
X022239Y052143D02*
X022633Y052143D01*
X022633Y051946D01*
X022633Y051552D02*
X022633Y051356D01*
X022239Y051356D01*
X022239Y051552D01*
X022239Y051238D02*
X022239Y051041D01*
X022239Y051238D02*
X022633Y051238D01*
X022633Y051041D01*
X022633Y050647D02*
X022633Y050450D01*
X022239Y050450D01*
X022239Y050647D01*
X022239Y051946D02*
X022239Y052143D01*
X023224Y054112D02*
X023224Y054308D01*
X023224Y054112D02*
X023617Y054112D01*
X023617Y054308D01*
X023617Y054702D02*
X023617Y054899D01*
X023224Y054899D01*
X023224Y054702D01*
X024956Y054781D02*
X025350Y054781D01*
X025350Y054584D01*
X025350Y054190D02*
X025350Y053993D01*
X024956Y053993D01*
X024956Y054190D01*
X024956Y054584D02*
X024956Y054781D01*
X024936Y052222D02*
X024936Y051986D01*
X024936Y052222D02*
X025527Y052222D01*
X025527Y051986D01*
X025527Y051277D02*
X025527Y051041D01*
X024936Y051041D01*
X024936Y051277D01*
X027751Y050844D02*
X027751Y050450D01*
X027948Y050450D01*
X027948Y050253D02*
X027751Y050253D01*
X027751Y049860D01*
X027948Y049860D01*
X027948Y049663D02*
X027751Y049663D01*
X027751Y049269D01*
X027948Y049269D01*
X028342Y049269D02*
X028539Y049269D01*
X028539Y049663D01*
X028342Y049663D01*
X028342Y049860D02*
X028539Y049860D01*
X028539Y050253D01*
X028342Y050253D01*
X028342Y050450D02*
X028539Y050450D01*
X028539Y050844D01*
X028342Y050844D01*
X027948Y050844D02*
X027751Y050844D01*
X028617Y049663D02*
X028814Y049663D01*
X028617Y049663D02*
X028617Y049269D01*
X028814Y049269D01*
X029208Y049269D02*
X029405Y049269D01*
X029405Y049663D01*
X029208Y049663D01*
X029326Y048521D02*
X029326Y047930D01*
X029602Y047930D01*
X029641Y047596D02*
X029838Y047596D01*
X029641Y047596D02*
X029641Y047202D01*
X029838Y047202D01*
X030231Y047202D02*
X030428Y047202D01*
X030428Y047596D01*
X030231Y047596D01*
X030231Y047930D02*
X030507Y047930D01*
X030507Y048521D01*
X030231Y048521D01*
X029602Y048521D02*
X029326Y048521D01*
X029424Y046513D02*
X030015Y046513D01*
X030015Y046277D01*
X029424Y046277D02*
X029424Y046513D01*
X029424Y045568D02*
X029424Y045332D01*
X030015Y045332D01*
X030015Y045568D01*
X030015Y044938D02*
X029424Y044938D01*
X029424Y044702D01*
X030015Y044702D02*
X030015Y044938D01*
X030015Y043993D02*
X030015Y043757D01*
X029424Y043757D01*
X029424Y043993D01*
X028539Y044052D02*
X028539Y044446D01*
X028342Y044446D01*
X028342Y044052D02*
X028539Y044052D01*
X028539Y043856D02*
X028539Y043462D01*
X028342Y043462D01*
X028342Y043856D02*
X028539Y043856D01*
X027948Y043856D02*
X027751Y043856D01*
X027751Y043462D01*
X027948Y043462D01*
X027948Y044052D02*
X027751Y044052D01*
X027751Y044446D01*
X027948Y044446D01*
X032672Y048875D02*
X032672Y049072D01*
X032672Y048875D02*
X033066Y048875D01*
X033066Y049072D01*
X033066Y049466D02*
X033066Y049663D01*
X032672Y049663D01*
X032672Y049466D01*
X033755Y049426D02*
X033755Y049663D01*
X034346Y049663D01*
X034346Y049426D01*
X034346Y048718D02*
X034346Y048482D01*
X033755Y048482D01*
X033755Y048718D01*
X035035Y048718D02*
X035035Y048482D01*
X035625Y048482D01*
X035625Y048718D01*
X036314Y048678D02*
X036314Y048875D01*
X036314Y048678D02*
X036708Y048678D01*
X036708Y048875D01*
X036708Y049269D02*
X036708Y049466D01*
X036314Y049466D01*
X036314Y049269D01*
X035625Y049426D02*
X035625Y049663D01*
X035035Y049663D01*
X035035Y049426D01*
X034739Y051238D02*
X034346Y051238D01*
X034346Y051434D01*
X034739Y051434D02*
X034739Y051238D01*
X034739Y051828D02*
X034739Y052025D01*
X034346Y052025D01*
X034346Y051828D01*
X032180Y054387D02*
X031787Y054387D01*
X031787Y054584D01*
X032180Y054584D02*
X032180Y054387D01*
X032180Y054978D02*
X032180Y055175D01*
X031787Y055175D01*
X031787Y054978D01*
X030113Y054781D02*
X030113Y054387D01*
X029917Y054387D01*
X029917Y054781D02*
X030113Y054781D01*
X029523Y054781D02*
X029326Y054781D01*
X029326Y054387D01*
X029523Y054387D01*
X027948Y054387D02*
X027751Y054387D01*
X027948Y054387D02*
X027948Y054781D01*
X027751Y054781D01*
X027357Y054781D02*
X027161Y054781D01*
X027161Y054387D01*
X027357Y054387D01*
D18*
X018007Y037143D03*
D19*
X022830Y030962D03*
D20*
X034109Y032045D03*
X034582Y028501D03*
X034306Y037163D03*
D21*
X034739Y022891D03*
X030409Y022891D03*
D22*
X029117Y045178D02*
X028117Y045178D01*
X028117Y048194D01*
X029117Y048194D01*
X029117Y045178D01*
X017818Y046407D02*
X016818Y046407D01*
X016818Y049423D01*
X017818Y049423D01*
X017818Y046407D01*
D23*
X017318Y046306D03*
X028617Y048295D03*
D24*
X014838Y030706D02*
X014956Y030588D01*
X014287Y031218D02*
X014168Y031336D01*
D25*
X017751Y042300D03*
D26*
X022259Y039722D02*
X022259Y039584D01*
X022200Y039584D01*
X022200Y039466D01*
X022259Y039466D01*
X022259Y039328D01*
X022338Y039328D01*
X022338Y039722D01*
X022259Y039722D01*
X018322Y032143D02*
X018243Y032143D01*
X018243Y031749D01*
X018322Y031749D01*
X018322Y031887D01*
X018381Y031887D01*
X018381Y032005D01*
X018322Y032005D01*
X018322Y032143D01*
D27*
X018243Y032143D01*
X018243Y032142D02*
X018322Y032142D01*
X018322Y032141D02*
X018243Y032141D01*
X018243Y032140D02*
X018322Y032140D01*
X018322Y032139D02*
X018243Y032139D01*
X018243Y032138D02*
X018322Y032138D01*
X018322Y032137D02*
X018243Y032137D01*
X018243Y032136D02*
X018322Y032136D01*
X018322Y032135D02*
X018243Y032135D01*
X018243Y032134D02*
X018322Y032134D01*
X018322Y032133D02*
X018243Y032133D01*
X018243Y032132D02*
X018322Y032132D01*
X018322Y032131D02*
X018243Y032131D01*
X018243Y032130D02*
X018322Y032130D01*
X018322Y032129D02*
X018243Y032129D01*
X018243Y032128D02*
X018322Y032128D01*
X018322Y032127D02*
X018243Y032127D01*
X018243Y032126D02*
X018322Y032126D01*
X018322Y032125D02*
X018243Y032125D01*
X018243Y032124D02*
X018322Y032124D01*
X018322Y032123D02*
X018243Y032123D01*
X018243Y032122D02*
X018322Y032122D01*
X018322Y032121D02*
X018243Y032121D01*
X018243Y032120D02*
X018322Y032120D01*
X018322Y032119D02*
X018243Y032119D01*
X018243Y032118D02*
X018322Y032118D01*
X018322Y032117D02*
X018243Y032117D01*
X018243Y032116D02*
X018322Y032116D01*
X018322Y032115D02*
X018243Y032115D01*
X018243Y032114D02*
X018322Y032114D01*
X018322Y032113D02*
X018243Y032113D01*
X018243Y032112D02*
X018322Y032112D01*
X018322Y032111D02*
X018243Y032111D01*
X018243Y032110D02*
X018322Y032110D01*
X018322Y032109D02*
X018243Y032109D01*
X018243Y032108D02*
X018322Y032108D01*
X018322Y032107D02*
X018243Y032107D01*
X018243Y032106D02*
X018322Y032106D01*
X018322Y032105D02*
X018243Y032105D01*
X018243Y032104D02*
X018322Y032104D01*
X018322Y032103D02*
X018243Y032103D01*
X018243Y032102D02*
X018322Y032102D01*
X018322Y032101D02*
X018243Y032101D01*
X018243Y032100D02*
X018322Y032100D01*
X018322Y032099D02*
X018243Y032099D01*
X018243Y032098D02*
X018322Y032098D01*
X018322Y032097D02*
X018243Y032097D01*
X018243Y032096D02*
X018322Y032096D01*
X018322Y032095D02*
X018243Y032095D01*
X018243Y032094D02*
X018322Y032094D01*
X018322Y032093D02*
X018243Y032093D01*
X018243Y032092D02*
X018322Y032092D01*
X018322Y032091D02*
X018243Y032091D01*
X018243Y032090D02*
X018322Y032090D01*
X018322Y032089D02*
X018243Y032089D01*
X018243Y032088D02*
X018322Y032088D01*
X018322Y032087D02*
X018243Y032087D01*
X018243Y032086D02*
X018322Y032086D01*
X018322Y032085D02*
X018243Y032085D01*
X018243Y032084D02*
X018322Y032084D01*
X018322Y032083D02*
X018243Y032083D01*
X018243Y032082D02*
X018322Y032082D01*
X018322Y032081D02*
X018243Y032081D01*
X018243Y032080D02*
X018322Y032080D01*
X018322Y032079D02*
X018243Y032079D01*
X018243Y032078D02*
X018322Y032078D01*
X018322Y032077D02*
X018243Y032077D01*
X018243Y032076D02*
X018322Y032076D01*
X018322Y032075D02*
X018243Y032075D01*
X018243Y032074D02*
X018322Y032074D01*
X018322Y032073D02*
X018243Y032073D01*
X018243Y032072D02*
X018322Y032072D01*
X018322Y032071D02*
X018243Y032071D01*
X018243Y032070D02*
X018322Y032070D01*
X018322Y032069D02*
X018243Y032069D01*
X018243Y032068D02*
X018322Y032068D01*
X018322Y032067D02*
X018243Y032067D01*
X018243Y032066D02*
X018322Y032066D01*
X018322Y032065D02*
X018243Y032065D01*
X018243Y032064D02*
X018322Y032064D01*
X018322Y032063D02*
X018243Y032063D01*
X018243Y032062D02*
X018322Y032062D01*
X018322Y032061D02*
X018243Y032061D01*
X018243Y032060D02*
X018322Y032060D01*
X018322Y032059D02*
X018243Y032059D01*
X018243Y032058D02*
X018322Y032058D01*
X018322Y032057D02*
X018243Y032057D01*
X018243Y032056D02*
X018322Y032056D01*
X018322Y032055D02*
X018243Y032055D01*
X018243Y032054D02*
X018322Y032054D01*
X018322Y032053D02*
X018243Y032053D01*
X018243Y032052D02*
X018322Y032052D01*
X018322Y032051D02*
X018243Y032051D01*
X018243Y032050D02*
X018322Y032050D01*
X018322Y032049D02*
X018243Y032049D01*
X018243Y032048D02*
X018322Y032048D01*
X018322Y032047D02*
X018243Y032047D01*
X018243Y032046D02*
X018322Y032046D01*
X018322Y032045D02*
X018243Y032045D01*
X018243Y032044D02*
X018322Y032044D01*
X018322Y032043D02*
X018243Y032043D01*
X018243Y032042D02*
X018322Y032042D01*
X018322Y032041D02*
X018243Y032041D01*
X018243Y032040D02*
X018322Y032040D01*
X018322Y032039D02*
X018243Y032039D01*
X018243Y032038D02*
X018322Y032038D01*
X018322Y032037D02*
X018243Y032037D01*
X018243Y032036D02*
X018322Y032036D01*
X018322Y032035D02*
X018243Y032035D01*
X018243Y032034D02*
X018322Y032034D01*
X018322Y032033D02*
X018243Y032033D01*
X018243Y032032D02*
X018322Y032032D01*
X018322Y032031D02*
X018243Y032031D01*
X018243Y032030D02*
X018322Y032030D01*
X018322Y032029D02*
X018243Y032029D01*
X018243Y032028D02*
X018322Y032028D01*
X018322Y032027D02*
X018243Y032027D01*
X018243Y032026D02*
X018322Y032026D01*
X018322Y032025D02*
X018243Y032025D01*
X018243Y032024D02*
X018322Y032024D01*
X018322Y032023D02*
X018243Y032023D01*
X018243Y032022D02*
X018322Y032022D01*
X018322Y032021D02*
X018243Y032021D01*
X018243Y032020D02*
X018322Y032020D01*
X018322Y032019D02*
X018243Y032019D01*
X018243Y032018D02*
X018322Y032018D01*
X018322Y032017D02*
X018243Y032017D01*
X018243Y032016D02*
X018322Y032016D01*
X018322Y032015D02*
X018243Y032015D01*
X018243Y032014D02*
X018322Y032014D01*
X018322Y032013D02*
X018243Y032013D01*
X018243Y032012D02*
X018322Y032012D01*
X018322Y032011D02*
X018243Y032011D01*
X018243Y032010D02*
X018322Y032010D01*
X018322Y032009D02*
X018243Y032009D01*
X018243Y032008D02*
X018322Y032008D01*
X018322Y032007D02*
X018243Y032007D01*
X018243Y032006D02*
X018322Y032006D01*
X018381Y032005D02*
X018243Y032005D01*
X018243Y032004D02*
X018381Y032004D01*
X018381Y032003D02*
X018243Y032003D01*
X018243Y032002D02*
X018381Y032002D01*
X018381Y032001D02*
X018243Y032001D01*
X018243Y032000D02*
X018381Y032000D01*
X018381Y031999D02*
X018243Y031999D01*
X018243Y031998D02*
X018381Y031998D01*
X018381Y031997D02*
X018243Y031997D01*
X018243Y031996D02*
X018381Y031996D01*
X018381Y031995D02*
X018243Y031995D01*
X018243Y031994D02*
X018381Y031994D01*
X018381Y031993D02*
X018243Y031993D01*
X018243Y031992D02*
X018381Y031992D01*
X018381Y031991D02*
X018243Y031991D01*
X018243Y031990D02*
X018381Y031990D01*
X018381Y031989D02*
X018243Y031989D01*
X018243Y031988D02*
X018381Y031988D01*
X018381Y031987D02*
X018243Y031987D01*
X018243Y031986D02*
X018381Y031986D01*
X018381Y031985D02*
X018243Y031985D01*
X018243Y031984D02*
X018381Y031984D01*
X018381Y031983D02*
X018243Y031983D01*
X018243Y031982D02*
X018381Y031982D01*
X018381Y031981D02*
X018243Y031981D01*
X018243Y031980D02*
X018381Y031980D01*
X018381Y031979D02*
X018243Y031979D01*
X018243Y031978D02*
X018381Y031978D01*
X018381Y031977D02*
X018243Y031977D01*
X018243Y031976D02*
X018381Y031976D01*
X018381Y031975D02*
X018243Y031975D01*
X018243Y031974D02*
X018381Y031974D01*
X018381Y031973D02*
X018243Y031973D01*
X018243Y031972D02*
X018381Y031972D01*
X018381Y031971D02*
X018243Y031971D01*
X018243Y031970D02*
X018381Y031970D01*
X018381Y031969D02*
X018243Y031969D01*
X018243Y031968D02*
X018381Y031968D01*
X018381Y031967D02*
X018243Y031967D01*
X018243Y031966D02*
X018381Y031966D01*
X018381Y031965D02*
X018243Y031965D01*
X018243Y031964D02*
X018381Y031964D01*
X018381Y031963D02*
X018243Y031963D01*
X018243Y031962D02*
X018381Y031962D01*
X018381Y031961D02*
X018243Y031961D01*
X018243Y031960D02*
X018381Y031960D01*
X018381Y031959D02*
X018243Y031959D01*
X018243Y031958D02*
X018381Y031958D01*
X018381Y031957D02*
X018243Y031957D01*
X018243Y031956D02*
X018381Y031956D01*
X018381Y031955D02*
X018243Y031955D01*
X018243Y031954D02*
X018381Y031954D01*
X018381Y031953D02*
X018243Y031953D01*
X018243Y031952D02*
X018381Y031952D01*
X018381Y031951D02*
X018243Y031951D01*
X018243Y031950D02*
X018381Y031950D01*
X018381Y031949D02*
X018243Y031949D01*
X018243Y031948D02*
X018381Y031948D01*
X018381Y031947D02*
X018243Y031947D01*
X018243Y031946D02*
X018381Y031946D01*
X018381Y031945D02*
X018243Y031945D01*
X018243Y031944D02*
X018381Y031944D01*
X018381Y031943D02*
X018243Y031943D01*
X018243Y031942D02*
X018381Y031942D01*
X018381Y031941D02*
X018243Y031941D01*
X018243Y031940D02*
X018381Y031940D01*
X018381Y031939D02*
X018243Y031939D01*
X018243Y031938D02*
X018381Y031938D01*
X018381Y031937D02*
X018243Y031937D01*
X018243Y031936D02*
X018381Y031936D01*
X018381Y031935D02*
X018243Y031935D01*
X018243Y031934D02*
X018381Y031934D01*
X018381Y031933D02*
X018243Y031933D01*
X018243Y031932D02*
X018381Y031932D01*
X018381Y031931D02*
X018243Y031931D01*
X018243Y031930D02*
X018381Y031930D01*
X018381Y031929D02*
X018243Y031929D01*
X018243Y031928D02*
X018381Y031928D01*
X018381Y031927D02*
X018243Y031927D01*
X018243Y031926D02*
X018381Y031926D01*
X018381Y031925D02*
X018243Y031925D01*
X018243Y031924D02*
X018381Y031924D01*
X018381Y031923D02*
X018243Y031923D01*
X018243Y031922D02*
X018381Y031922D01*
X018381Y031921D02*
X018243Y031921D01*
X018243Y031920D02*
X018381Y031920D01*
X018381Y031919D02*
X018243Y031919D01*
X018243Y031918D02*
X018381Y031918D01*
X018381Y031917D02*
X018243Y031917D01*
X018243Y031916D02*
X018381Y031916D01*
X018381Y031915D02*
X018243Y031915D01*
X018243Y031914D02*
X018381Y031914D01*
X018381Y031913D02*
X018243Y031913D01*
X018243Y031912D02*
X018381Y031912D01*
X018381Y031911D02*
X018243Y031911D01*
X018243Y031910D02*
X018381Y031910D01*
X018381Y031909D02*
X018243Y031909D01*
X018243Y031908D02*
X018381Y031908D01*
X018381Y031907D02*
X018243Y031907D01*
X018243Y031906D02*
X018381Y031906D01*
X018381Y031905D02*
X018243Y031905D01*
X018243Y031904D02*
X018381Y031904D01*
X018381Y031903D02*
X018243Y031903D01*
X018243Y031902D02*
X018381Y031902D01*
X018381Y031901D02*
X018243Y031901D01*
X018243Y031900D02*
X018381Y031900D01*
X018381Y031899D02*
X018243Y031899D01*
X018243Y031898D02*
X018381Y031898D01*
X018381Y031897D02*
X018243Y031897D01*
X018243Y031896D02*
X018381Y031896D01*
X018381Y031895D02*
X018243Y031895D01*
X018243Y031894D02*
X018381Y031894D01*
X018381Y031893D02*
X018243Y031893D01*
X018243Y031892D02*
X018381Y031892D01*
X018381Y031891D02*
X018243Y031891D01*
X018243Y031890D02*
X018381Y031890D01*
X018381Y031889D02*
X018243Y031889D01*
X018243Y031888D02*
X018381Y031888D01*
X018322Y031887D02*
X018243Y031887D01*
X018243Y031886D02*
X018322Y031886D01*
X018322Y031885D02*
X018243Y031885D01*
X018243Y031884D02*
X018322Y031884D01*
X018322Y031883D02*
X018243Y031883D01*
X018243Y031882D02*
X018322Y031882D01*
X018322Y031881D02*
X018243Y031881D01*
X018243Y031880D02*
X018322Y031880D01*
X018322Y031879D02*
X018243Y031879D01*
X018243Y031878D02*
X018322Y031878D01*
X018322Y031877D02*
X018243Y031877D01*
X018243Y031876D02*
X018322Y031876D01*
X018322Y031875D02*
X018243Y031875D01*
X018243Y031874D02*
X018322Y031874D01*
X018322Y031873D02*
X018243Y031873D01*
X018243Y031872D02*
X018322Y031872D01*
X018322Y031871D02*
X018243Y031871D01*
X018243Y031870D02*
X018322Y031870D01*
X018322Y031869D02*
X018243Y031869D01*
X018243Y031868D02*
X018322Y031868D01*
X018322Y031867D02*
X018243Y031867D01*
X018243Y031866D02*
X018322Y031866D01*
X018322Y031865D02*
X018243Y031865D01*
X018243Y031864D02*
X018322Y031864D01*
X018322Y031863D02*
X018243Y031863D01*
X018243Y031862D02*
X018322Y031862D01*
X018322Y031861D02*
X018243Y031861D01*
X018243Y031860D02*
X018322Y031860D01*
X018322Y031859D02*
X018243Y031859D01*
X018243Y031858D02*
X018322Y031858D01*
X018322Y031857D02*
X018243Y031857D01*
X018243Y031856D02*
X018322Y031856D01*
X018322Y031855D02*
X018243Y031855D01*
X018243Y031854D02*
X018322Y031854D01*
X018322Y031853D02*
X018243Y031853D01*
X018243Y031852D02*
X018322Y031852D01*
X018322Y031851D02*
X018243Y031851D01*
X018243Y031850D02*
X018322Y031850D01*
X018322Y031849D02*
X018243Y031849D01*
X018243Y031848D02*
X018322Y031848D01*
X018322Y031847D02*
X018243Y031847D01*
X018243Y031846D02*
X018322Y031846D01*
X018322Y031845D02*
X018243Y031845D01*
X018243Y031844D02*
X018322Y031844D01*
X018322Y031843D02*
X018243Y031843D01*
X018243Y031842D02*
X018322Y031842D01*
X018322Y031841D02*
X018243Y031841D01*
X018243Y031840D02*
X018322Y031840D01*
X018322Y031839D02*
X018243Y031839D01*
X018243Y031838D02*
X018322Y031838D01*
X018322Y031837D02*
X018243Y031837D01*
X018243Y031836D02*
X018322Y031836D01*
X018322Y031835D02*
X018243Y031835D01*
X018243Y031834D02*
X018322Y031834D01*
X018322Y031833D02*
X018243Y031833D01*
X018243Y031832D02*
X018322Y031832D01*
X018322Y031831D02*
X018243Y031831D01*
X018243Y031830D02*
X018322Y031830D01*
X018322Y031829D02*
X018243Y031829D01*
X018243Y031828D02*
X018322Y031828D01*
X018322Y031827D02*
X018243Y031827D01*
X018243Y031826D02*
X018322Y031826D01*
X018322Y031825D02*
X018243Y031825D01*
X018243Y031824D02*
X018322Y031824D01*
X018322Y031823D02*
X018243Y031823D01*
X018243Y031822D02*
X018322Y031822D01*
X018322Y031821D02*
X018243Y031821D01*
X018243Y031820D02*
X018322Y031820D01*
X018322Y031819D02*
X018243Y031819D01*
X018243Y031818D02*
X018322Y031818D01*
X018322Y031817D02*
X018243Y031817D01*
X018243Y031816D02*
X018322Y031816D01*
X018322Y031815D02*
X018243Y031815D01*
X018243Y031814D02*
X018322Y031814D01*
X018322Y031813D02*
X018243Y031813D01*
X018243Y031812D02*
X018322Y031812D01*
X018322Y031811D02*
X018243Y031811D01*
X018243Y031810D02*
X018322Y031810D01*
X018322Y031809D02*
X018243Y031809D01*
X018243Y031808D02*
X018322Y031808D01*
X018322Y031807D02*
X018243Y031807D01*
X018243Y031806D02*
X018322Y031806D01*
X018322Y031805D02*
X018243Y031805D01*
X018243Y031804D02*
X018322Y031804D01*
X018322Y031803D02*
X018243Y031803D01*
X018243Y031802D02*
X018322Y031802D01*
X018322Y031801D02*
X018243Y031801D01*
X018243Y031800D02*
X018322Y031800D01*
X018322Y031799D02*
X018243Y031799D01*
X018243Y031798D02*
X018322Y031798D01*
X018322Y031797D02*
X018243Y031797D01*
X018243Y031796D02*
X018322Y031796D01*
X018322Y031795D02*
X018243Y031795D01*
X018243Y031794D02*
X018322Y031794D01*
X018322Y031793D02*
X018243Y031793D01*
X018243Y031792D02*
X018322Y031792D01*
X018322Y031791D02*
X018243Y031791D01*
X018243Y031790D02*
X018322Y031790D01*
X018322Y031789D02*
X018243Y031789D01*
X018243Y031788D02*
X018322Y031788D01*
X018322Y031787D02*
X018243Y031787D01*
X018243Y031786D02*
X018322Y031786D01*
X018322Y031785D02*
X018243Y031785D01*
X018243Y031784D02*
X018322Y031784D01*
X018322Y031783D02*
X018243Y031783D01*
X018243Y031782D02*
X018322Y031782D01*
X018322Y031781D02*
X018243Y031781D01*
X018243Y031780D02*
X018322Y031780D01*
X018322Y031779D02*
X018243Y031779D01*
X018243Y031778D02*
X018322Y031778D01*
X018322Y031777D02*
X018243Y031777D01*
X018243Y031776D02*
X018322Y031776D01*
X018322Y031775D02*
X018243Y031775D01*
X018243Y031774D02*
X018322Y031774D01*
X018322Y031773D02*
X018243Y031773D01*
X018243Y031772D02*
X018322Y031772D01*
X018322Y031771D02*
X018243Y031771D01*
X018243Y031770D02*
X018322Y031770D01*
X018322Y031769D02*
X018243Y031769D01*
X018243Y031768D02*
X018322Y031768D01*
X018322Y031767D02*
X018243Y031767D01*
X018243Y031766D02*
X018322Y031766D01*
X018322Y031765D02*
X018243Y031765D01*
X018243Y031764D02*
X018322Y031764D01*
X018322Y031763D02*
X018243Y031763D01*
X018243Y031762D02*
X018322Y031762D01*
X018322Y031761D02*
X018243Y031761D01*
X018243Y031760D02*
X018322Y031760D01*
X018322Y031759D02*
X018243Y031759D01*
X018243Y031758D02*
X018322Y031758D01*
X018322Y031757D02*
X018243Y031757D01*
X018243Y031756D02*
X018322Y031756D01*
X018322Y031755D02*
X018243Y031755D01*
X018243Y031754D02*
X018322Y031754D01*
X018322Y031753D02*
X018243Y031753D01*
X018243Y031752D02*
X018322Y031752D01*
X018322Y031751D02*
X018243Y031751D01*
X018243Y031750D02*
X018322Y031750D01*
X022259Y039328D02*
X022338Y039328D01*
X022338Y039329D02*
X022259Y039329D01*
X022259Y039330D02*
X022338Y039330D01*
X022338Y039331D02*
X022259Y039331D01*
X022259Y039332D02*
X022338Y039332D01*
X022338Y039333D02*
X022259Y039333D01*
X022259Y039334D02*
X022338Y039334D01*
X022338Y039335D02*
X022259Y039335D01*
X022259Y039336D02*
X022338Y039336D01*
X022338Y039337D02*
X022259Y039337D01*
X022259Y039338D02*
X022338Y039338D01*
X022338Y039339D02*
X022259Y039339D01*
X022259Y039340D02*
X022338Y039340D01*
X022338Y039341D02*
X022259Y039341D01*
X022259Y039342D02*
X022338Y039342D01*
X022338Y039343D02*
X022259Y039343D01*
X022259Y039344D02*
X022338Y039344D01*
X022338Y039345D02*
X022259Y039345D01*
X022259Y039346D02*
X022338Y039346D01*
X022338Y039347D02*
X022259Y039347D01*
X022259Y039348D02*
X022338Y039348D01*
X022338Y039349D02*
X022259Y039349D01*
X022259Y039350D02*
X022338Y039350D01*
X022338Y039351D02*
X022259Y039351D01*
X022259Y039352D02*
X022338Y039352D01*
X022338Y039353D02*
X022259Y039353D01*
X022259Y039354D02*
X022338Y039354D01*
X022338Y039355D02*
X022259Y039355D01*
X022259Y039356D02*
X022338Y039356D01*
X022338Y039357D02*
X022259Y039357D01*
X022259Y039358D02*
X022338Y039358D01*
X022338Y039359D02*
X022259Y039359D01*
X022259Y039360D02*
X022338Y039360D01*
X022338Y039361D02*
X022259Y039361D01*
X022259Y039362D02*
X022338Y039362D01*
X022338Y039363D02*
X022259Y039363D01*
X022259Y039364D02*
X022338Y039364D01*
X022338Y039365D02*
X022259Y039365D01*
X022259Y039366D02*
X022338Y039366D01*
X022338Y039367D02*
X022259Y039367D01*
X022259Y039368D02*
X022338Y039368D01*
X022338Y039369D02*
X022259Y039369D01*
X022259Y039370D02*
X022338Y039370D01*
X022338Y039371D02*
X022259Y039371D01*
X022259Y039372D02*
X022338Y039372D01*
X022338Y039373D02*
X022259Y039373D01*
X022259Y039374D02*
X022338Y039374D01*
X022338Y039375D02*
X022259Y039375D01*
X022259Y039376D02*
X022338Y039376D01*
X022338Y039377D02*
X022259Y039377D01*
X022259Y039378D02*
X022338Y039378D01*
X022338Y039379D02*
X022259Y039379D01*
X022259Y039380D02*
X022338Y039380D01*
X022338Y039381D02*
X022259Y039381D01*
X022259Y039382D02*
X022338Y039382D01*
X022338Y039383D02*
X022259Y039383D01*
X022259Y039384D02*
X022338Y039384D01*
X022338Y039385D02*
X022259Y039385D01*
X022259Y039386D02*
X022338Y039386D01*
X022338Y039387D02*
X022259Y039387D01*
X022259Y039388D02*
X022338Y039388D01*
X022338Y039389D02*
X022259Y039389D01*
X022259Y039390D02*
X022338Y039390D01*
X022338Y039391D02*
X022259Y039391D01*
X022259Y039392D02*
X022338Y039392D01*
X022338Y039393D02*
X022259Y039393D01*
X022259Y039394D02*
X022338Y039394D01*
X022338Y039395D02*
X022259Y039395D01*
X022259Y039396D02*
X022338Y039396D01*
X022338Y039397D02*
X022259Y039397D01*
X022259Y039398D02*
X022338Y039398D01*
X022338Y039399D02*
X022259Y039399D01*
X022259Y039400D02*
X022338Y039400D01*
X022338Y039401D02*
X022259Y039401D01*
X022259Y039402D02*
X022338Y039402D01*
X022338Y039403D02*
X022259Y039403D01*
X022259Y039404D02*
X022338Y039404D01*
X022338Y039405D02*
X022259Y039405D01*
X022259Y039406D02*
X022338Y039406D01*
X022338Y039407D02*
X022259Y039407D01*
X022259Y039408D02*
X022338Y039408D01*
X022338Y039409D02*
X022259Y039409D01*
X022259Y039410D02*
X022338Y039410D01*
X022338Y039411D02*
X022259Y039411D01*
X022259Y039412D02*
X022338Y039412D01*
X022338Y039413D02*
X022259Y039413D01*
X022259Y039414D02*
X022338Y039414D01*
X022338Y039415D02*
X022259Y039415D01*
X022259Y039416D02*
X022338Y039416D01*
X022338Y039417D02*
X022259Y039417D01*
X022259Y039418D02*
X022338Y039418D01*
X022338Y039419D02*
X022259Y039419D01*
X022259Y039420D02*
X022338Y039420D01*
X022338Y039421D02*
X022259Y039421D01*
X022259Y039422D02*
X022338Y039422D01*
X022338Y039423D02*
X022259Y039423D01*
X022259Y039424D02*
X022338Y039424D01*
X022338Y039425D02*
X022259Y039425D01*
X022259Y039426D02*
X022338Y039426D01*
X022338Y039427D02*
X022259Y039427D01*
X022259Y039428D02*
X022338Y039428D01*
X022338Y039429D02*
X022259Y039429D01*
X022259Y039430D02*
X022338Y039430D01*
X022338Y039431D02*
X022259Y039431D01*
X022259Y039432D02*
X022338Y039432D01*
X022338Y039433D02*
X022259Y039433D01*
X022259Y039434D02*
X022338Y039434D01*
X022338Y039435D02*
X022259Y039435D01*
X022259Y039436D02*
X022338Y039436D01*
X022338Y039437D02*
X022259Y039437D01*
X022259Y039438D02*
X022338Y039438D01*
X022338Y039439D02*
X022259Y039439D01*
X022259Y039440D02*
X022338Y039440D01*
X022338Y039441D02*
X022259Y039441D01*
X022259Y039442D02*
X022338Y039442D01*
X022338Y039443D02*
X022259Y039443D01*
X022259Y039444D02*
X022338Y039444D01*
X022338Y039445D02*
X022259Y039445D01*
X022259Y039446D02*
X022338Y039446D01*
X022338Y039447D02*
X022259Y039447D01*
X022259Y039448D02*
X022338Y039448D01*
X022338Y039449D02*
X022259Y039449D01*
X022259Y039450D02*
X022338Y039450D01*
X022338Y039451D02*
X022259Y039451D01*
X022259Y039452D02*
X022338Y039452D01*
X022338Y039453D02*
X022259Y039453D01*
X022259Y039454D02*
X022338Y039454D01*
X022338Y039455D02*
X022259Y039455D01*
X022259Y039456D02*
X022338Y039456D01*
X022338Y039457D02*
X022259Y039457D01*
X022259Y039458D02*
X022338Y039458D01*
X022338Y039459D02*
X022259Y039459D01*
X022259Y039460D02*
X022338Y039460D01*
X022338Y039461D02*
X022259Y039461D01*
X022259Y039462D02*
X022338Y039462D01*
X022338Y039463D02*
X022259Y039463D01*
X022259Y039464D02*
X022338Y039464D01*
X022338Y039465D02*
X022259Y039465D01*
X022200Y039466D02*
X022338Y039466D01*
X022338Y039467D02*
X022200Y039467D01*
X022200Y039468D02*
X022338Y039468D01*
X022338Y039469D02*
X022200Y039469D01*
X022200Y039470D02*
X022338Y039470D01*
X022338Y039471D02*
X022200Y039471D01*
X022200Y039472D02*
X022338Y039472D01*
X022338Y039473D02*
X022200Y039473D01*
X022200Y039474D02*
X022338Y039474D01*
X022338Y039475D02*
X022200Y039475D01*
X022200Y039476D02*
X022338Y039476D01*
X022338Y039477D02*
X022200Y039477D01*
X022200Y039478D02*
X022338Y039478D01*
X022338Y039479D02*
X022200Y039479D01*
X022200Y039480D02*
X022338Y039480D01*
X022338Y039481D02*
X022200Y039481D01*
X022200Y039482D02*
X022338Y039482D01*
X022338Y039483D02*
X022200Y039483D01*
X022200Y039484D02*
X022338Y039484D01*
X022338Y039485D02*
X022200Y039485D01*
X022200Y039486D02*
X022338Y039486D01*
X022338Y039487D02*
X022200Y039487D01*
X022200Y039488D02*
X022338Y039488D01*
X022338Y039489D02*
X022200Y039489D01*
X022200Y039490D02*
X022338Y039490D01*
X022338Y039491D02*
X022200Y039491D01*
X022200Y039492D02*
X022338Y039492D01*
X022338Y039493D02*
X022200Y039493D01*
X022200Y039494D02*
X022338Y039494D01*
X022338Y039495D02*
X022200Y039495D01*
X022200Y039496D02*
X022338Y039496D01*
X022338Y039497D02*
X022200Y039497D01*
X022200Y039498D02*
X022338Y039498D01*
X022338Y039499D02*
X022200Y039499D01*
X022200Y039500D02*
X022338Y039500D01*
X022338Y039501D02*
X022200Y039501D01*
X022200Y039502D02*
X022338Y039502D01*
X022338Y039503D02*
X022200Y039503D01*
X022200Y039504D02*
X022338Y039504D01*
X022338Y039505D02*
X022200Y039505D01*
X022200Y039506D02*
X022338Y039506D01*
X022338Y039507D02*
X022200Y039507D01*
X022200Y039508D02*
X022338Y039508D01*
X022338Y039509D02*
X022200Y039509D01*
X022200Y039510D02*
X022338Y039510D01*
X022338Y039511D02*
X022200Y039511D01*
X022200Y039512D02*
X022338Y039512D01*
X022338Y039513D02*
X022200Y039513D01*
X022200Y039514D02*
X022338Y039514D01*
X022338Y039515D02*
X022200Y039515D01*
X022200Y039516D02*
X022338Y039516D01*
X022338Y039517D02*
X022200Y039517D01*
X022200Y039518D02*
X022338Y039518D01*
X022338Y039519D02*
X022200Y039519D01*
X022200Y039520D02*
X022338Y039520D01*
X022338Y039521D02*
X022200Y039521D01*
X022200Y039522D02*
X022338Y039522D01*
X022338Y039523D02*
X022200Y039523D01*
X022200Y039524D02*
X022338Y039524D01*
X022338Y039525D02*
X022200Y039525D01*
X022200Y039526D02*
X022338Y039526D01*
X022338Y039527D02*
X022200Y039527D01*
X022200Y039528D02*
X022338Y039528D01*
X022338Y039529D02*
X022200Y039529D01*
X022200Y039530D02*
X022338Y039530D01*
X022338Y039531D02*
X022200Y039531D01*
X022200Y039532D02*
X022338Y039532D01*
X022338Y039533D02*
X022200Y039533D01*
X022200Y039534D02*
X022338Y039534D01*
X022338Y039535D02*
X022200Y039535D01*
X022200Y039536D02*
X022338Y039536D01*
X022338Y039537D02*
X022200Y039537D01*
X022200Y039538D02*
X022338Y039538D01*
X022338Y039539D02*
X022200Y039539D01*
X022200Y039540D02*
X022338Y039540D01*
X022338Y039541D02*
X022200Y039541D01*
X022200Y039542D02*
X022338Y039542D01*
X022338Y039543D02*
X022200Y039543D01*
X022200Y039544D02*
X022338Y039544D01*
X022338Y039545D02*
X022200Y039545D01*
X022200Y039546D02*
X022338Y039546D01*
X022338Y039547D02*
X022200Y039547D01*
X022200Y039548D02*
X022338Y039548D01*
X022338Y039549D02*
X022200Y039549D01*
X022200Y039550D02*
X022338Y039550D01*
X022338Y039551D02*
X022200Y039551D01*
X022200Y039552D02*
X022338Y039552D01*
X022338Y039553D02*
X022200Y039553D01*
X022200Y039554D02*
X022338Y039554D01*
X022338Y039555D02*
X022200Y039555D01*
X022200Y039556D02*
X022338Y039556D01*
X022338Y039557D02*
X022200Y039557D01*
X022200Y039558D02*
X022338Y039558D01*
X022338Y039559D02*
X022200Y039559D01*
X022200Y039560D02*
X022338Y039560D01*
X022338Y039561D02*
X022200Y039561D01*
X022200Y039562D02*
X022338Y039562D01*
X022338Y039563D02*
X022200Y039563D01*
X022200Y039564D02*
X022338Y039564D01*
X022338Y039565D02*
X022200Y039565D01*
X022200Y039566D02*
X022338Y039566D01*
X022338Y039567D02*
X022200Y039567D01*
X022200Y039568D02*
X022338Y039568D01*
X022338Y039569D02*
X022200Y039569D01*
X022200Y039570D02*
X022338Y039570D01*
X022338Y039571D02*
X022200Y039571D01*
X022200Y039572D02*
X022338Y039572D01*
X022338Y039573D02*
X022200Y039573D01*
X022200Y039574D02*
X022338Y039574D01*
X022338Y039575D02*
X022200Y039575D01*
X022200Y039576D02*
X022338Y039576D01*
X022338Y039577D02*
X022200Y039577D01*
X022200Y039578D02*
X022338Y039578D01*
X022338Y039579D02*
X022200Y039579D01*
X022200Y039580D02*
X022338Y039580D01*
X022338Y039581D02*
X022200Y039581D01*
X022200Y039582D02*
X022338Y039582D01*
X022338Y039583D02*
X022200Y039583D01*
X022259Y039584D02*
X022338Y039584D01*
X022338Y039585D02*
X022259Y039585D01*
X022259Y039586D02*
X022338Y039586D01*
X022338Y039587D02*
X022259Y039587D01*
X022259Y039588D02*
X022338Y039588D01*
X022338Y039589D02*
X022259Y039589D01*
X022259Y039590D02*
X022338Y039590D01*
X022338Y039591D02*
X022259Y039591D01*
X022259Y039592D02*
X022338Y039592D01*
X022338Y039593D02*
X022259Y039593D01*
X022259Y039594D02*
X022338Y039594D01*
X022338Y039595D02*
X022259Y039595D01*
X022259Y039596D02*
X022338Y039596D01*
X022338Y039597D02*
X022259Y039597D01*
X022259Y039598D02*
X022338Y039598D01*
X022338Y039599D02*
X022259Y039599D01*
X022259Y039600D02*
X022338Y039600D01*
X022338Y039601D02*
X022259Y039601D01*
X022259Y039602D02*
X022338Y039602D01*
X022338Y039603D02*
X022259Y039603D01*
X022259Y039604D02*
X022338Y039604D01*
X022338Y039605D02*
X022259Y039605D01*
X022259Y039606D02*
X022338Y039606D01*
X022338Y039607D02*
X022259Y039607D01*
X022259Y039608D02*
X022338Y039608D01*
X022338Y039609D02*
X022259Y039609D01*
X022259Y039610D02*
X022338Y039610D01*
X022338Y039611D02*
X022259Y039611D01*
X022259Y039612D02*
X022338Y039612D01*
X022338Y039613D02*
X022259Y039613D01*
X022259Y039614D02*
X022338Y039614D01*
X022338Y039615D02*
X022259Y039615D01*
X022259Y039616D02*
X022338Y039616D01*
X022338Y039617D02*
X022259Y039617D01*
X022259Y039618D02*
X022338Y039618D01*
X022338Y039619D02*
X022259Y039619D01*
X022259Y039620D02*
X022338Y039620D01*
X022338Y039621D02*
X022259Y039621D01*
X022259Y039622D02*
X022338Y039622D01*
X022338Y039623D02*
X022259Y039623D01*
X022259Y039624D02*
X022338Y039624D01*
X022338Y039625D02*
X022259Y039625D01*
X022259Y039626D02*
X022338Y039626D01*
X022338Y039627D02*
X022259Y039627D01*
X022259Y039628D02*
X022338Y039628D01*
X022338Y039629D02*
X022259Y039629D01*
X022259Y039630D02*
X022338Y039630D01*
X022338Y039631D02*
X022259Y039631D01*
X022259Y039632D02*
X022338Y039632D01*
X022338Y039633D02*
X022259Y039633D01*
X022259Y039634D02*
X022338Y039634D01*
X022338Y039635D02*
X022259Y039635D01*
X022259Y039636D02*
X022338Y039636D01*
X022338Y039637D02*
X022259Y039637D01*
X022259Y039638D02*
X022338Y039638D01*
X022338Y039639D02*
X022259Y039639D01*
X022259Y039640D02*
X022338Y039640D01*
X022338Y039641D02*
X022259Y039641D01*
X022259Y039642D02*
X022338Y039642D01*
X022338Y039643D02*
X022259Y039643D01*
X022259Y039644D02*
X022338Y039644D01*
X022338Y039645D02*
X022259Y039645D01*
X022259Y039646D02*
X022338Y039646D01*
X022338Y039647D02*
X022259Y039647D01*
X022259Y039648D02*
X022338Y039648D01*
X022338Y039649D02*
X022259Y039649D01*
X022259Y039650D02*
X022338Y039650D01*
X022338Y039651D02*
X022259Y039651D01*
X022259Y039652D02*
X022338Y039652D01*
X022338Y039653D02*
X022259Y039653D01*
X022259Y039654D02*
X022338Y039654D01*
X022338Y039655D02*
X022259Y039655D01*
X022259Y039656D02*
X022338Y039656D01*
X022338Y039657D02*
X022259Y039657D01*
X022259Y039658D02*
X022338Y039658D01*
X022338Y039659D02*
X022259Y039659D01*
X022259Y039660D02*
X022338Y039660D01*
X022338Y039661D02*
X022259Y039661D01*
X022259Y039662D02*
X022338Y039662D01*
X022338Y039663D02*
X022259Y039663D01*
X022259Y039664D02*
X022338Y039664D01*
X022338Y039665D02*
X022259Y039665D01*
X022259Y039666D02*
X022338Y039666D01*
X022338Y039667D02*
X022259Y039667D01*
X022259Y039668D02*
X022338Y039668D01*
X022338Y039669D02*
X022259Y039669D01*
X022259Y039670D02*
X022338Y039670D01*
X022338Y039671D02*
X022259Y039671D01*
X022259Y039672D02*
X022338Y039672D01*
X022338Y039673D02*
X022259Y039673D01*
X022259Y039674D02*
X022338Y039674D01*
X022338Y039675D02*
X022259Y039675D01*
X022259Y039676D02*
X022338Y039676D01*
X022338Y039677D02*
X022259Y039677D01*
X022259Y039678D02*
X022338Y039678D01*
X022338Y039679D02*
X022259Y039679D01*
X022259Y039680D02*
X022338Y039680D01*
X022338Y039681D02*
X022259Y039681D01*
X022259Y039682D02*
X022338Y039682D01*
X022338Y039683D02*
X022259Y039683D01*
X022259Y039684D02*
X022338Y039684D01*
X022338Y039685D02*
X022259Y039685D01*
X022259Y039686D02*
X022338Y039686D01*
X022338Y039687D02*
X022259Y039687D01*
X022259Y039688D02*
X022338Y039688D01*
X022338Y039689D02*
X022259Y039689D01*
X022259Y039690D02*
X022338Y039690D01*
X022338Y039691D02*
X022259Y039691D01*
X022259Y039692D02*
X022338Y039692D01*
X022338Y039693D02*
X022259Y039693D01*
X022259Y039694D02*
X022338Y039694D01*
X022338Y039695D02*
X022259Y039695D01*
X022259Y039696D02*
X022338Y039696D01*
X022338Y039697D02*
X022259Y039697D01*
X022259Y039698D02*
X022338Y039698D01*
X022338Y039699D02*
X022259Y039699D01*
X022259Y039700D02*
X022338Y039700D01*
X022338Y039701D02*
X022259Y039701D01*
X022259Y039702D02*
X022338Y039702D01*
X022338Y039703D02*
X022259Y039703D01*
X022259Y039704D02*
X022338Y039704D01*
X022338Y039705D02*
X022259Y039705D01*
X022259Y039706D02*
X022338Y039706D01*
X022338Y039707D02*
X022259Y039707D01*
X022259Y039708D02*
X022338Y039708D01*
X022338Y039709D02*
X022259Y039709D01*
X022259Y039710D02*
X022338Y039710D01*
X022338Y039711D02*
X022259Y039711D01*
X022259Y039712D02*
X022338Y039712D01*
X022338Y039713D02*
X022259Y039713D01*
X022259Y039714D02*
X022338Y039714D01*
X022338Y039715D02*
X022259Y039715D01*
X022259Y039716D02*
X022338Y039716D01*
X022338Y039717D02*
X022259Y039717D01*
X022259Y039718D02*
X022338Y039718D01*
X022338Y039719D02*
X022259Y039719D01*
X022259Y039720D02*
X022338Y039720D01*
X022338Y039721D02*
X022259Y039721D01*
D28*
X021452Y039328D03*
X019129Y032143D03*
M02*
