G75*
%MOIN*%
%OFA0B0*%
%FSLAX24Y24*%
%IPPOS*%
%LPD*%
%AMOC8*
5,1,8,0,0,1.08239X$1,22.5*
%
%ADD10C,0.0059*%
%ADD11C,0.0050*%
D10*
X012594Y016789D02*
X012594Y056159D01*
X038184Y056159D01*
X038184Y016789D01*
X012594Y016789D01*
D11*
X012891Y056577D02*
X012816Y056653D01*
X012891Y056577D02*
X013041Y056577D01*
X013116Y056653D01*
X013116Y056728D01*
X013041Y056803D01*
X012891Y056803D01*
X012816Y056878D01*
X012816Y056953D01*
X012891Y057028D01*
X013041Y057028D01*
X013116Y056953D01*
X013276Y057028D02*
X013426Y056878D01*
X013576Y057028D01*
X013576Y056577D01*
X013736Y056577D02*
X014037Y056577D01*
X013886Y056577D02*
X013886Y057028D01*
X013736Y056878D01*
X014197Y056953D02*
X014272Y057028D01*
X014422Y057028D01*
X014497Y056953D01*
X014197Y056653D01*
X014272Y056577D01*
X014422Y056577D01*
X014497Y056653D01*
X014497Y056953D01*
X014657Y056953D02*
X014732Y057028D01*
X014882Y057028D01*
X014957Y056953D01*
X014657Y056653D01*
X014732Y056577D01*
X014882Y056577D01*
X014957Y056653D01*
X014957Y056953D01*
X015117Y056953D02*
X015193Y057028D01*
X015343Y057028D01*
X015418Y056953D01*
X015117Y056653D01*
X015193Y056577D01*
X015343Y056577D01*
X015418Y056653D01*
X015418Y056953D01*
X015578Y056803D02*
X015878Y056803D01*
X016038Y056803D02*
X016188Y056803D01*
X016038Y057028D02*
X016339Y057028D01*
X016038Y057028D02*
X016038Y056577D01*
X015117Y056653D02*
X015117Y056953D01*
X014657Y056953D02*
X014657Y056653D01*
X014197Y056653D02*
X014197Y056953D01*
X013276Y057028D02*
X013276Y056577D01*
X017419Y056577D02*
X017720Y056577D01*
X017570Y056577D02*
X017570Y057028D01*
X017419Y056878D01*
X017880Y056953D02*
X017955Y057028D01*
X018105Y057028D01*
X018180Y056953D01*
X017880Y056653D01*
X017955Y056577D01*
X018105Y056577D01*
X018180Y056653D01*
X018180Y056953D01*
X017880Y056953D02*
X017880Y056653D01*
X018340Y056577D02*
X018640Y057028D01*
X018801Y056953D02*
X018876Y057028D01*
X019026Y057028D01*
X019101Y056953D01*
X018801Y056653D01*
X018876Y056577D01*
X019026Y056577D01*
X019101Y056653D01*
X019101Y056953D01*
X019261Y056953D02*
X019336Y057028D01*
X019486Y057028D01*
X019561Y056953D01*
X019561Y056878D01*
X019486Y056803D01*
X019561Y056728D01*
X019561Y056653D01*
X019486Y056577D01*
X019336Y056577D01*
X019261Y056653D01*
X019411Y056803D02*
X019486Y056803D01*
X019721Y056577D02*
X020022Y057028D01*
X020182Y056878D02*
X020332Y057028D01*
X020332Y056577D01*
X020182Y056577D02*
X020482Y056577D01*
X020642Y056653D02*
X020717Y056577D01*
X020867Y056577D01*
X020942Y056653D01*
X020942Y056803D01*
X020867Y056878D01*
X020792Y056878D01*
X020642Y056803D01*
X020642Y057028D01*
X020942Y057028D01*
X021563Y057028D02*
X021788Y057028D01*
X021863Y056953D01*
X021863Y056803D01*
X021788Y056728D01*
X021563Y056728D01*
X021713Y056728D02*
X021863Y056577D01*
X022023Y056653D02*
X022098Y056577D01*
X022249Y056577D01*
X022324Y056653D01*
X022324Y056803D01*
X022174Y056803D01*
X022324Y056953D02*
X022249Y057028D01*
X022098Y057028D01*
X022023Y056953D01*
X022023Y056653D01*
X021563Y056577D02*
X021563Y057028D01*
X022484Y057028D02*
X022709Y057028D01*
X022784Y056953D01*
X022784Y056878D01*
X022709Y056803D01*
X022484Y056803D01*
X022484Y057028D02*
X022484Y056577D01*
X022709Y056577D01*
X022784Y056653D01*
X022784Y056728D01*
X022709Y056803D01*
X022944Y056653D02*
X023019Y056653D01*
X023019Y056577D01*
X022944Y056577D01*
X022944Y056653D01*
X018801Y056653D02*
X018801Y056953D01*
M02*
