G75*
%MOIN*%
%OFA0B0*%
%FSLAX24Y24*%
%IPPOS*%
%LPD*%
%AMOC8*
5,1,8,0,0,1.08239X$1,22.5*
%
%ADD10C,0.0040*%
%ADD11C,0.0060*%
%ADD12C,0.0039*%
%ADD13C,0.0050*%
%ADD14C,0.0030*%
%ADD15C,0.0059*%
%ADD16C,0.0049*%
%ADD17C,0.0500*%
D10*
X014357Y019120D02*
X014357Y019179D01*
X014121Y019415D01*
X014121Y019474D01*
X014357Y019474D01*
X014601Y019474D02*
X014601Y019120D01*
X014719Y019120D02*
X014483Y019120D01*
X014719Y019356D02*
X014601Y019474D01*
X014846Y019415D02*
X014846Y019297D01*
X014905Y019238D01*
X015082Y019238D01*
X015082Y019120D02*
X015082Y019474D01*
X014905Y019474D01*
X014846Y019415D01*
X016429Y020588D02*
X016429Y020765D01*
X016488Y020824D01*
X016724Y020824D01*
X016783Y020765D01*
X016783Y020588D01*
X016429Y020588D01*
X016488Y020951D02*
X016429Y021010D01*
X016429Y021128D01*
X016488Y021187D01*
X016547Y021187D01*
X016606Y021128D01*
X016606Y021010D01*
X016665Y020951D01*
X016724Y020951D01*
X016783Y021010D01*
X016783Y021128D01*
X016724Y021187D01*
X016665Y021187D01*
X016606Y021128D01*
X016606Y021010D02*
X016547Y020951D01*
X016488Y020951D01*
X015266Y024076D02*
X015266Y024537D01*
X015036Y024537D01*
X014959Y024460D01*
X014959Y024307D01*
X015036Y024230D01*
X015266Y024230D01*
X014805Y024076D02*
X014499Y024383D01*
X014499Y024460D01*
X014575Y024537D01*
X014729Y024537D01*
X014805Y024460D01*
X014805Y024076D02*
X014499Y024076D01*
X014345Y024076D02*
X014038Y024076D01*
X014192Y024076D02*
X014192Y024537D01*
X014345Y024383D01*
X013602Y022588D02*
X013602Y022352D01*
X013602Y022470D02*
X013956Y022470D01*
X013838Y022352D01*
X013897Y022225D02*
X013956Y022166D01*
X013956Y021989D01*
X013602Y021989D01*
X013602Y022166D01*
X013661Y022225D01*
X013897Y022225D01*
X024314Y023958D02*
X024373Y023899D01*
X024491Y023899D01*
X024550Y023958D01*
X024677Y023958D02*
X024677Y024194D01*
X024736Y024253D01*
X024913Y024253D01*
X024913Y023899D01*
X024736Y023899D01*
X024677Y023958D01*
X024550Y024194D02*
X024491Y024253D01*
X024373Y024253D01*
X024314Y024194D01*
X024314Y024135D01*
X024373Y024076D01*
X024314Y024017D01*
X024314Y023958D01*
X024373Y024076D02*
X024432Y024076D01*
X024633Y024482D02*
X024633Y024836D01*
X024810Y024659D01*
X024574Y024659D01*
X024936Y024777D02*
X024995Y024836D01*
X025172Y024836D01*
X025172Y024482D01*
X024995Y024482D01*
X024936Y024541D01*
X024936Y024777D01*
X028562Y021741D02*
X028562Y021623D01*
X028621Y021564D01*
X028739Y021564D02*
X028798Y021682D01*
X028798Y021741D01*
X028739Y021800D01*
X028621Y021800D01*
X028562Y021741D01*
X028739Y021564D02*
X028916Y021564D01*
X028916Y021800D01*
X028857Y021438D02*
X028916Y021379D01*
X028916Y021202D01*
X028562Y021202D01*
X028562Y021379D01*
X028621Y021438D01*
X028857Y021438D01*
X029247Y023671D02*
X029365Y023671D01*
X029424Y023730D01*
X029424Y023848D02*
X029306Y023907D01*
X029247Y023907D01*
X029188Y023848D01*
X029188Y023730D01*
X029247Y023671D01*
X029424Y023848D02*
X029424Y024025D01*
X029188Y024025D01*
X029669Y024025D02*
X029669Y023671D01*
X029787Y023671D02*
X029551Y023671D01*
X029787Y023907D02*
X029669Y024025D01*
X029913Y023966D02*
X029913Y023848D01*
X029972Y023789D01*
X030149Y023789D01*
X030149Y023671D02*
X030149Y024025D01*
X029972Y024025D01*
X029913Y023966D01*
X032893Y021741D02*
X032952Y021800D01*
X033011Y021800D01*
X033070Y021741D01*
X033070Y021564D01*
X032952Y021564D01*
X032893Y021623D01*
X032893Y021741D01*
X033070Y021564D02*
X033188Y021682D01*
X033247Y021800D01*
X033188Y021438D02*
X033247Y021379D01*
X033247Y021202D01*
X032893Y021202D01*
X032893Y021379D01*
X032952Y021438D01*
X033188Y021438D01*
X035984Y032573D02*
X035984Y032809D01*
X035984Y032936D02*
X035984Y033054D01*
X035984Y032995D02*
X036220Y032995D01*
X036220Y032936D01*
X036338Y032995D02*
X036397Y032995D01*
X036574Y032995D02*
X036810Y032995D01*
X036810Y032936D01*
X036928Y032995D02*
X036987Y032995D01*
X037165Y032995D02*
X037224Y032936D01*
X037342Y032936D01*
X037401Y032995D01*
X037401Y033113D01*
X037342Y033172D01*
X037224Y033172D01*
X037165Y033113D01*
X037165Y032995D01*
X037224Y032809D02*
X037165Y032750D01*
X037165Y032632D01*
X037224Y032573D01*
X037460Y032573D01*
X037519Y032632D01*
X037519Y032750D01*
X037460Y032809D01*
X037401Y033298D02*
X037401Y033475D01*
X037342Y033534D01*
X037224Y033534D01*
X037165Y033475D01*
X037165Y033298D01*
X037047Y033298D02*
X037401Y033298D01*
X037401Y033661D02*
X037224Y033661D01*
X037165Y033720D01*
X037165Y033897D01*
X037106Y033897D02*
X037047Y033838D01*
X037047Y033779D01*
X037106Y033897D02*
X037401Y033897D01*
X037401Y034023D02*
X037165Y034023D01*
X037283Y034023D02*
X037401Y034141D01*
X037401Y034200D01*
X037401Y034325D02*
X037401Y034384D01*
X037165Y034384D01*
X037165Y034325D02*
X037165Y034443D01*
X037224Y034567D02*
X037165Y034626D01*
X037165Y034803D01*
X037106Y034803D02*
X037401Y034803D01*
X037401Y034626D01*
X037342Y034567D01*
X037224Y034567D01*
X037047Y034685D02*
X037047Y034744D01*
X037106Y034803D01*
X037165Y034930D02*
X037519Y034930D01*
X037401Y034989D02*
X037401Y035107D01*
X037342Y035166D01*
X037165Y035166D01*
X037224Y035351D02*
X037165Y035410D01*
X037224Y035351D02*
X037460Y035351D01*
X037401Y035292D02*
X037401Y035410D01*
X037401Y034989D02*
X037342Y034930D01*
X036928Y034803D02*
X036574Y034803D01*
X036574Y034626D01*
X036633Y034567D01*
X036751Y034567D01*
X036810Y034626D01*
X036810Y034803D01*
X036810Y034442D02*
X036810Y034383D01*
X036692Y034265D01*
X036574Y034265D02*
X036810Y034265D01*
X036751Y034138D02*
X036574Y034138D01*
X036574Y033961D01*
X036633Y033902D01*
X036692Y033961D01*
X036692Y034138D01*
X036751Y034138D02*
X036810Y034079D01*
X036810Y033961D01*
X036751Y033776D02*
X036574Y033776D01*
X036751Y033776D02*
X036810Y033717D01*
X036810Y033599D01*
X036751Y033540D01*
X036810Y033413D02*
X036810Y033236D01*
X036751Y033177D01*
X036633Y033177D01*
X036574Y033236D01*
X036574Y033413D01*
X036574Y033540D02*
X036928Y033540D01*
X036574Y033054D02*
X036574Y032936D01*
X036574Y032809D02*
X036692Y032691D01*
X036692Y032750D02*
X036692Y032573D01*
X036574Y032573D02*
X036928Y032573D01*
X036928Y032750D01*
X036869Y032809D01*
X036751Y032809D01*
X036692Y032750D01*
X036338Y032573D02*
X035984Y032573D01*
X036043Y033177D02*
X035984Y033236D01*
X035984Y033413D01*
X036043Y033540D02*
X035984Y033599D01*
X035984Y033717D01*
X036102Y033776D02*
X036102Y033540D01*
X036161Y033540D02*
X036220Y033599D01*
X036220Y033717D01*
X036161Y033776D01*
X036102Y033776D01*
X036220Y033902D02*
X036220Y034079D01*
X036161Y034138D01*
X035984Y034138D01*
X035984Y034265D02*
X035984Y034442D01*
X036043Y034501D01*
X036102Y034442D01*
X036102Y034324D01*
X036161Y034265D01*
X036220Y034324D01*
X036220Y034501D01*
X036161Y034627D02*
X036220Y034686D01*
X036220Y034804D01*
X036161Y034863D01*
X036102Y034863D01*
X036102Y034627D01*
X036043Y034627D02*
X036161Y034627D01*
X036043Y034627D02*
X035984Y034686D01*
X035984Y034804D01*
X036043Y034990D02*
X035984Y035049D01*
X035984Y035226D01*
X036338Y035226D01*
X036220Y035226D02*
X036220Y035049D01*
X036161Y034990D01*
X036043Y034990D01*
X036574Y035292D02*
X036574Y035469D01*
X036633Y035528D01*
X036692Y035528D01*
X036751Y035469D01*
X036751Y035292D01*
X036574Y035292D02*
X036928Y035292D01*
X036928Y035469D01*
X036869Y035528D01*
X036810Y035528D01*
X036751Y035469D01*
X036633Y035655D02*
X036692Y035714D01*
X036692Y035891D01*
X036751Y035891D02*
X036574Y035891D01*
X036574Y035714D01*
X036633Y035655D01*
X036810Y035714D02*
X036810Y035832D01*
X036751Y035891D01*
X036692Y036017D02*
X036810Y036135D01*
X036810Y036194D01*
X036810Y036319D02*
X036810Y036496D01*
X036751Y036555D01*
X036574Y036555D01*
X036574Y036682D02*
X036574Y036800D01*
X036574Y036741D02*
X036810Y036741D01*
X036810Y036682D01*
X036928Y036741D02*
X036987Y036741D01*
X036751Y036923D02*
X036633Y036923D01*
X036574Y036982D01*
X036574Y037159D01*
X036574Y037286D02*
X036928Y037286D01*
X036810Y037345D02*
X036810Y037463D01*
X036751Y037522D01*
X036574Y037522D01*
X036751Y037286D02*
X036810Y037345D01*
X036810Y037159D02*
X036810Y036982D01*
X036751Y036923D01*
X036338Y036676D02*
X035984Y036676D01*
X035984Y036499D01*
X036043Y036440D01*
X036161Y036440D01*
X036220Y036499D01*
X036220Y036676D01*
X036161Y036803D02*
X036220Y036862D01*
X036220Y036980D01*
X036161Y037039D01*
X036102Y037039D01*
X036102Y036803D01*
X036043Y036803D02*
X036161Y036803D01*
X036043Y036803D02*
X035984Y036862D01*
X035984Y036980D01*
X035984Y037165D02*
X036220Y037165D01*
X036220Y037283D02*
X036220Y037342D01*
X036220Y037283D02*
X036102Y037165D01*
X036338Y037830D02*
X036338Y038066D01*
X036338Y037948D02*
X035984Y037948D01*
X035984Y038192D02*
X036220Y038192D01*
X036338Y038310D01*
X036220Y038428D01*
X035984Y038428D01*
X035984Y038555D02*
X036338Y038555D01*
X036338Y038732D01*
X036279Y038791D01*
X036161Y038791D01*
X036102Y038732D01*
X036102Y038555D01*
X036161Y038428D02*
X036161Y038192D01*
X036574Y038247D02*
X036574Y038070D01*
X036633Y038011D01*
X036692Y038070D01*
X036692Y038247D01*
X036751Y038247D02*
X036574Y038247D01*
X036574Y038373D02*
X036810Y038373D01*
X036810Y038550D01*
X036751Y038609D01*
X036574Y038609D01*
X036633Y038736D02*
X036751Y038736D01*
X036810Y038795D01*
X036810Y038972D01*
X036928Y038972D02*
X036574Y038972D01*
X036574Y038795D01*
X036633Y038736D01*
X036338Y038917D02*
X036338Y039094D01*
X036279Y039153D01*
X036161Y039153D01*
X036102Y039094D01*
X036102Y038917D01*
X036102Y039035D02*
X035984Y039153D01*
X035984Y038917D02*
X036338Y038917D01*
X036574Y039461D02*
X036574Y039638D01*
X036633Y039697D01*
X036869Y039697D01*
X036928Y039638D01*
X036928Y039461D01*
X036574Y039461D01*
X036338Y039701D02*
X036279Y039642D01*
X036043Y039642D01*
X035984Y039701D01*
X035984Y039819D01*
X036043Y039878D01*
X036279Y039878D01*
X036338Y039819D01*
X036338Y039701D01*
X036574Y039883D02*
X036633Y039824D01*
X036692Y039883D01*
X036692Y040060D01*
X036751Y040060D02*
X036574Y040060D01*
X036574Y039883D01*
X036810Y039883D02*
X036810Y040001D01*
X036751Y040060D01*
X036810Y040186D02*
X036574Y040304D01*
X036810Y040422D01*
X036810Y040549D02*
X036810Y040608D01*
X036574Y040608D01*
X036574Y040549D02*
X036574Y040667D01*
X036633Y040790D02*
X036751Y040790D01*
X036810Y040849D01*
X036810Y041026D01*
X036928Y041026D02*
X036574Y041026D01*
X036574Y040849D01*
X036633Y040790D01*
X036928Y040608D02*
X036987Y040608D01*
X036220Y040544D02*
X036161Y040603D01*
X036102Y040603D01*
X036102Y040367D01*
X036161Y040367D02*
X036220Y040426D01*
X036220Y040544D01*
X036220Y040730D02*
X035984Y040730D01*
X035984Y040544D02*
X035984Y040426D01*
X036043Y040367D01*
X036161Y040367D01*
X036161Y040241D02*
X036043Y040241D01*
X035984Y040182D01*
X035984Y040005D01*
X035866Y040005D02*
X036220Y040005D01*
X036220Y040182D01*
X036161Y040241D01*
X036220Y040730D02*
X036220Y040907D01*
X036161Y040966D01*
X035984Y040966D01*
X035984Y041455D02*
X036338Y041455D01*
X036161Y041455D02*
X036161Y041691D01*
X036043Y041817D02*
X036102Y041876D01*
X036102Y042053D01*
X036161Y042053D02*
X035984Y042053D01*
X035984Y041876D01*
X036043Y041817D01*
X035984Y041691D02*
X036338Y041691D01*
X036220Y041876D02*
X036220Y041994D01*
X036161Y042053D01*
X036220Y042180D02*
X035984Y042180D01*
X036102Y042180D02*
X036220Y042298D01*
X036220Y042357D01*
X036161Y042482D02*
X036220Y042541D01*
X036220Y042718D01*
X036338Y042718D02*
X035984Y042718D01*
X035984Y042541D01*
X036043Y042482D01*
X036161Y042482D01*
X036220Y042844D02*
X036043Y042844D01*
X035984Y042903D01*
X036043Y042962D01*
X035984Y043021D01*
X036043Y043080D01*
X036220Y043080D01*
X036220Y043266D02*
X036220Y043384D01*
X036161Y043443D01*
X035984Y043443D01*
X035984Y043266D01*
X036043Y043207D01*
X036102Y043266D01*
X036102Y043443D01*
X036102Y043569D02*
X036220Y043687D01*
X036220Y043746D01*
X036161Y043872D02*
X036220Y043931D01*
X036220Y044049D01*
X036161Y044108D01*
X036102Y044108D01*
X036102Y043872D01*
X036043Y043872D02*
X036161Y043872D01*
X036043Y043872D02*
X035984Y043931D01*
X035984Y044049D01*
X035984Y043569D02*
X036220Y043569D01*
X036574Y042780D02*
X036574Y042662D01*
X036633Y042603D01*
X036751Y042603D01*
X036810Y042662D01*
X036810Y042780D01*
X036751Y042839D01*
X036692Y042839D01*
X036692Y042603D01*
X036633Y042476D02*
X036810Y042476D01*
X036633Y042476D02*
X036574Y042417D01*
X036633Y042358D01*
X036574Y042299D01*
X036633Y042240D01*
X036810Y042240D01*
X036751Y042114D02*
X036810Y042055D01*
X036810Y041937D01*
X036751Y041878D01*
X036633Y041878D01*
X036574Y041937D01*
X036574Y042055D01*
X036633Y042114D01*
X036751Y042114D01*
X036751Y041751D02*
X036692Y041692D01*
X036692Y041515D01*
X036574Y041515D02*
X036928Y041515D01*
X036928Y041692D01*
X036869Y041751D01*
X036751Y041751D01*
X036692Y041633D02*
X036574Y041751D01*
X036338Y044597D02*
X035984Y044597D01*
X035984Y044833D01*
X035984Y044959D02*
X035984Y045077D01*
X035984Y045018D02*
X036220Y045018D01*
X036220Y044959D01*
X036338Y045018D02*
X036397Y045018D01*
X036161Y045201D02*
X036043Y045201D01*
X035984Y045260D01*
X035984Y045437D01*
X036043Y045563D02*
X035984Y045622D01*
X035984Y045740D01*
X036102Y045799D02*
X036102Y045563D01*
X036161Y045563D02*
X036220Y045622D01*
X036220Y045740D01*
X036161Y045799D01*
X036102Y045799D01*
X036220Y045926D02*
X036220Y046103D01*
X036161Y046162D01*
X035984Y046162D01*
X035984Y046288D02*
X035984Y046465D01*
X036043Y046524D01*
X036102Y046465D01*
X036102Y046347D01*
X036161Y046288D01*
X036220Y046347D01*
X036220Y046524D01*
X036161Y046651D02*
X036220Y046710D01*
X036220Y046828D01*
X036161Y046887D01*
X036102Y046887D01*
X036102Y046651D01*
X036043Y046651D02*
X036161Y046651D01*
X036043Y046651D02*
X035984Y046710D01*
X035984Y046828D01*
X035984Y045926D02*
X036220Y045926D01*
X036161Y045563D02*
X036043Y045563D01*
X036220Y045437D02*
X036220Y045260D01*
X036161Y045201D01*
X037224Y038670D02*
X037165Y038611D01*
X037165Y038493D01*
X037224Y038434D01*
X037342Y038434D02*
X037401Y038552D01*
X037401Y038611D01*
X037342Y038670D01*
X037224Y038670D01*
X037342Y038434D02*
X037519Y038434D01*
X037519Y038670D01*
X037519Y038189D02*
X037165Y038189D01*
X037165Y038071D02*
X037165Y038307D01*
X037401Y038071D02*
X037519Y038189D01*
X037460Y037945D02*
X037224Y037709D01*
X037165Y037768D01*
X037165Y037886D01*
X037224Y037945D01*
X037460Y037945D01*
X037519Y037886D01*
X037519Y037768D01*
X037460Y037709D01*
X037224Y037709D01*
X037165Y037582D02*
X037165Y037346D01*
X037401Y037582D01*
X037460Y037582D01*
X037519Y037523D01*
X037519Y037405D01*
X037460Y037346D01*
X036810Y038070D02*
X036810Y038188D01*
X036751Y038247D01*
X036810Y036319D02*
X036574Y036319D01*
X036574Y036017D02*
X036810Y036017D01*
X036220Y036078D02*
X036220Y036255D01*
X036161Y036314D01*
X035984Y036314D01*
X035984Y036078D02*
X036220Y036078D01*
X036220Y035951D02*
X035984Y035951D01*
X035984Y035774D01*
X036043Y035715D01*
X036220Y035715D01*
X037519Y034384D02*
X037578Y034384D01*
X036220Y033902D02*
X035984Y033902D01*
X036043Y033540D02*
X036161Y033540D01*
X036220Y033413D02*
X036220Y033236D01*
X036161Y033177D01*
X036043Y033177D01*
X013991Y045584D02*
X013814Y045584D01*
X013755Y045643D01*
X013755Y045879D01*
X013814Y045938D01*
X013991Y045938D01*
X013991Y045584D01*
X013628Y045584D02*
X013628Y045643D01*
X013392Y045879D01*
X013392Y045938D01*
X013628Y045938D01*
D11*
X037196Y036036D02*
X037196Y035865D01*
X037253Y035809D01*
X037366Y035809D01*
X037423Y035865D01*
X037423Y036036D01*
D12*
X037072Y036009D02*
X037074Y036039D01*
X037080Y036069D01*
X037090Y036097D01*
X037103Y036124D01*
X037120Y036149D01*
X037139Y036172D01*
X037162Y036191D01*
X037187Y036208D01*
X037214Y036221D01*
X037242Y036231D01*
X037272Y036237D01*
X037302Y036239D01*
X037332Y036237D01*
X037362Y036231D01*
X037390Y036221D01*
X037417Y036208D01*
X037442Y036191D01*
X037465Y036172D01*
X037484Y036149D01*
X037501Y036124D01*
X037514Y036097D01*
X037524Y036069D01*
X037530Y036039D01*
X037532Y036009D01*
X037530Y035979D01*
X037524Y035949D01*
X037514Y035921D01*
X037501Y035894D01*
X037484Y035869D01*
X037465Y035846D01*
X037442Y035827D01*
X037417Y035810D01*
X037390Y035797D01*
X037362Y035787D01*
X037332Y035781D01*
X037302Y035779D01*
X037272Y035781D01*
X037242Y035787D01*
X037214Y035797D01*
X037187Y035810D01*
X037162Y035827D01*
X037139Y035846D01*
X037120Y035869D01*
X037103Y035894D01*
X037090Y035921D01*
X037080Y035949D01*
X037074Y035979D01*
X037072Y036009D01*
X037791Y032340D02*
X035428Y032340D01*
X035428Y047104D01*
X037791Y047104D01*
X037791Y032340D01*
D13*
X035994Y025925D02*
X035769Y025925D01*
X035694Y025850D01*
X035694Y025700D01*
X035769Y025625D01*
X035994Y025625D01*
X035994Y025475D02*
X035994Y025925D01*
X035844Y025625D02*
X035694Y025475D01*
X035533Y025475D02*
X035383Y025475D01*
X035458Y025475D02*
X035458Y025925D01*
X035533Y025925D02*
X035383Y025925D01*
X035227Y025850D02*
X035227Y025550D01*
X035151Y025475D01*
X035001Y025475D01*
X034926Y025550D01*
X034926Y025700D01*
X035076Y025700D01*
X034926Y025850D02*
X035001Y025925D01*
X035151Y025925D01*
X035227Y025850D01*
X035178Y024941D02*
X035328Y024941D01*
X035403Y024866D01*
X035403Y024566D01*
X035328Y024491D01*
X035178Y024491D01*
X035103Y024566D01*
X034943Y024491D02*
X034943Y024941D01*
X034643Y024491D01*
X034643Y024941D01*
X034483Y024716D02*
X034257Y024716D01*
X034182Y024641D01*
X034182Y024566D01*
X034257Y024491D01*
X034407Y024491D01*
X034483Y024566D01*
X034483Y024716D01*
X034332Y024866D01*
X034182Y024941D01*
X034231Y025475D02*
X034306Y025550D01*
X034231Y025475D02*
X034081Y025475D01*
X034006Y025550D01*
X034006Y025625D01*
X034081Y025700D01*
X034231Y025700D01*
X034306Y025775D01*
X034306Y025850D01*
X034231Y025925D01*
X034081Y025925D01*
X034006Y025850D01*
X033845Y025925D02*
X033845Y025475D01*
X033845Y025625D02*
X033620Y025625D01*
X033545Y025700D01*
X033545Y025850D01*
X033620Y025925D01*
X033845Y025925D01*
X033385Y025925D02*
X033385Y025475D01*
X033385Y025625D02*
X033085Y025925D01*
X032925Y025925D02*
X032925Y025475D01*
X032925Y025625D02*
X032699Y025625D01*
X032624Y025700D01*
X032624Y025850D01*
X032699Y025925D01*
X032925Y025925D01*
X032774Y025625D02*
X032624Y025475D01*
X033085Y025475D02*
X033310Y025700D01*
X031466Y025625D02*
X031241Y025625D01*
X031166Y025700D01*
X031166Y025850D01*
X031241Y025925D01*
X031466Y025925D01*
X031466Y025475D01*
X031316Y025625D02*
X031166Y025475D01*
X031006Y025475D02*
X030856Y025475D01*
X030931Y025475D02*
X030931Y025925D01*
X031006Y025925D02*
X030856Y025925D01*
X030699Y025850D02*
X030699Y025550D01*
X030624Y025475D01*
X030474Y025475D01*
X030399Y025550D01*
X030399Y025700D01*
X030549Y025700D01*
X030699Y025850D02*
X030624Y025925D01*
X030474Y025925D01*
X030399Y025850D01*
X029778Y025925D02*
X029778Y025475D01*
X029478Y025475D02*
X029478Y025925D01*
X029628Y025775D01*
X029778Y025925D01*
X029318Y025925D02*
X029168Y025925D01*
X029243Y025925D02*
X029243Y025475D01*
X029318Y025475D02*
X029168Y025475D01*
X029011Y025550D02*
X028936Y025475D01*
X028786Y025475D01*
X028711Y025550D01*
X029011Y025550D02*
X029011Y025850D01*
X028936Y025925D01*
X028786Y025925D01*
X028711Y025850D01*
X029852Y024862D02*
X029852Y024787D01*
X030152Y024487D01*
X030152Y024412D01*
X030312Y024412D02*
X030312Y024862D01*
X030152Y024862D02*
X029852Y024862D01*
X030312Y024412D02*
X030612Y024862D01*
X030612Y024412D01*
X030772Y024487D02*
X030847Y024412D01*
X030998Y024412D01*
X031073Y024487D01*
X031073Y024787D01*
X030998Y024862D01*
X030847Y024862D01*
X030772Y024787D01*
X028935Y023865D02*
X028935Y023715D01*
X028860Y023640D01*
X028785Y023640D01*
X028710Y023715D01*
X028710Y023940D01*
X028560Y023940D02*
X028860Y023940D01*
X028935Y023865D01*
X028560Y023940D02*
X028485Y023865D01*
X028485Y023715D01*
X028560Y023640D01*
X028485Y023480D02*
X028935Y023480D01*
X028935Y023180D02*
X028485Y023480D01*
X028485Y023180D02*
X028935Y023180D01*
X028860Y023019D02*
X028935Y022944D01*
X028935Y022794D01*
X028860Y022719D01*
X028560Y022719D01*
X028485Y022794D01*
X028485Y022944D01*
X028560Y023019D01*
X026860Y025081D02*
X026860Y025532D01*
X026635Y025532D01*
X026560Y025457D01*
X026560Y025307D01*
X026635Y025232D01*
X026860Y025232D01*
X026710Y025232D02*
X026560Y025081D01*
X026400Y025081D02*
X026249Y025081D01*
X026325Y025081D02*
X026325Y025532D01*
X026400Y025532D02*
X026249Y025532D01*
X026093Y025457D02*
X026093Y025156D01*
X026018Y025081D01*
X025868Y025081D01*
X025792Y025156D01*
X025792Y025307D01*
X025943Y025307D01*
X026093Y025457D02*
X026018Y025532D01*
X025868Y025532D01*
X025792Y025457D01*
X025172Y025532D02*
X024947Y025532D01*
X024872Y025457D01*
X024872Y025307D01*
X024947Y025232D01*
X025172Y025232D01*
X025172Y025081D02*
X025172Y025532D01*
X024712Y025532D02*
X024411Y025532D01*
X024561Y025532D02*
X024561Y025081D01*
X024101Y025081D02*
X024101Y025532D01*
X024251Y025532D02*
X023951Y025532D01*
X023514Y025475D02*
X023514Y025925D01*
X023213Y025925D01*
X023053Y025925D02*
X022753Y025475D01*
X023053Y025475D02*
X022753Y025925D01*
X022593Y025925D02*
X022293Y025925D01*
X022443Y025925D02*
X022443Y025475D01*
X021672Y025550D02*
X021597Y025475D01*
X021447Y025475D01*
X021372Y025550D01*
X021372Y025625D01*
X021447Y025700D01*
X021597Y025700D01*
X021672Y025775D01*
X021672Y025850D01*
X021597Y025925D01*
X021447Y025925D01*
X021372Y025850D01*
X021212Y025925D02*
X020986Y025925D01*
X020911Y025850D01*
X020911Y025700D01*
X020986Y025625D01*
X021212Y025625D01*
X021212Y025475D02*
X021212Y025925D01*
X020751Y025925D02*
X020751Y025475D01*
X020751Y025625D02*
X020451Y025925D01*
X020291Y025925D02*
X020066Y025925D01*
X019991Y025850D01*
X019991Y025700D01*
X020066Y025625D01*
X020291Y025625D01*
X020291Y025475D02*
X020291Y025925D01*
X020141Y025625D02*
X019991Y025475D01*
X020451Y025475D02*
X020676Y025700D01*
X020793Y024823D02*
X020718Y024748D01*
X020718Y024673D01*
X020793Y024598D01*
X020943Y024598D01*
X021018Y024673D01*
X021018Y024748D01*
X020943Y024823D01*
X020793Y024823D01*
X020793Y024598D02*
X020718Y024523D01*
X020718Y024448D01*
X020793Y024373D01*
X020943Y024373D01*
X021018Y024448D01*
X021018Y024523D01*
X020943Y024598D01*
X021178Y024373D02*
X021178Y024823D01*
X021478Y024823D02*
X021178Y024373D01*
X021478Y024373D02*
X021478Y024823D01*
X021638Y024748D02*
X021714Y024823D01*
X021864Y024823D01*
X021939Y024748D01*
X021939Y024448D01*
X021864Y024373D01*
X021714Y024373D01*
X021638Y024448D01*
X023213Y025475D02*
X023514Y025475D01*
X023514Y025700D02*
X023363Y025700D01*
X024109Y023245D02*
X024109Y021749D01*
X024414Y022372D02*
X024602Y022622D01*
X024602Y022718D01*
X024602Y022622D02*
X024414Y022622D01*
X024602Y022622D02*
X024789Y022622D01*
X024602Y022622D02*
X024789Y022372D01*
X024602Y022372D01*
X024602Y022276D01*
X024602Y022372D02*
X024414Y022372D01*
X025094Y021749D02*
X025094Y023245D01*
X019262Y025475D02*
X018961Y025475D01*
X018801Y025475D02*
X018501Y025925D01*
X018341Y025925D02*
X018041Y025925D01*
X018191Y025925D02*
X018191Y025475D01*
X018501Y025475D02*
X018801Y025925D01*
X018961Y025925D02*
X019262Y025925D01*
X019262Y025475D01*
X019262Y025700D02*
X019111Y025700D01*
X017690Y024878D02*
X017690Y024578D01*
X017615Y024503D01*
X017465Y024503D01*
X017390Y024578D01*
X017230Y024503D02*
X017230Y024953D01*
X016929Y024503D01*
X016929Y024953D01*
X016769Y024953D02*
X016769Y024728D01*
X016619Y024803D01*
X016544Y024803D01*
X016469Y024728D01*
X016469Y024578D01*
X016544Y024503D01*
X016694Y024503D01*
X016769Y024578D01*
X016769Y024953D02*
X016469Y024953D01*
X016428Y025475D02*
X016352Y025550D01*
X016428Y025475D02*
X016578Y025475D01*
X016653Y025550D01*
X016653Y025850D01*
X016578Y025925D01*
X016428Y025925D01*
X016352Y025850D01*
X016809Y025925D02*
X016960Y025925D01*
X016885Y025925D02*
X016885Y025475D01*
X016960Y025475D02*
X016809Y025475D01*
X017120Y025475D02*
X017120Y025925D01*
X017270Y025775D01*
X017420Y025925D01*
X017420Y025475D01*
X017465Y024953D02*
X017615Y024953D01*
X017690Y024878D01*
X017465Y024953D02*
X017390Y024878D01*
X015251Y022852D02*
X015251Y021356D01*
X014947Y021979D02*
X014759Y021979D01*
X014759Y021883D01*
X014759Y021979D02*
X014572Y021979D01*
X014759Y022229D01*
X014759Y022325D01*
X014759Y022229D02*
X014572Y022229D01*
X014759Y022229D02*
X014947Y022229D01*
X014759Y022229D02*
X014947Y021979D01*
X014267Y021356D02*
X014267Y022852D01*
X016544Y041255D02*
X016694Y041255D01*
X016769Y041330D01*
X016469Y041630D01*
X016469Y041330D01*
X016544Y041255D01*
X016769Y041330D02*
X016769Y041630D01*
X016694Y041705D01*
X016544Y041705D01*
X016469Y041630D01*
X016929Y041255D02*
X017230Y041255D01*
X017079Y041255D02*
X017079Y041705D01*
X017230Y041555D01*
X017390Y041705D02*
X017390Y041255D01*
X017690Y041705D01*
X017690Y041255D01*
X017850Y041330D02*
X017925Y041255D01*
X018075Y041255D01*
X018150Y041330D01*
X018150Y041630D01*
X018075Y041705D01*
X017925Y041705D01*
X017850Y041630D01*
X020197Y042306D02*
X020197Y042606D01*
X020197Y042766D02*
X020648Y043066D01*
X020648Y043227D02*
X020648Y043527D01*
X020648Y043377D02*
X020197Y043377D01*
X020197Y043066D02*
X020648Y042766D01*
X020648Y042606D02*
X020648Y042306D01*
X020197Y042306D01*
X020423Y042306D02*
X020423Y042456D01*
X020348Y044147D02*
X020348Y044373D01*
X020423Y044448D01*
X020573Y044448D01*
X020648Y044373D01*
X020648Y044147D01*
X020197Y044147D01*
X020197Y044758D02*
X020648Y044758D01*
X020648Y044608D02*
X020648Y044908D01*
X020648Y045068D02*
X020648Y045368D01*
X020648Y045218D02*
X020197Y045218D01*
X027987Y053867D02*
X027987Y055678D01*
X028224Y055678D01*
X028224Y053867D02*
X027987Y053867D01*
X030231Y053867D02*
X030468Y053867D01*
X030468Y055678D01*
X030231Y055678D01*
X023019Y058152D02*
X022944Y058152D01*
X022944Y058227D01*
X023019Y058227D01*
X023019Y058152D01*
X022784Y058227D02*
X022709Y058152D01*
X022484Y058152D01*
X022484Y058603D01*
X022709Y058603D01*
X022784Y058528D01*
X022784Y058453D01*
X022709Y058377D01*
X022484Y058377D01*
X022324Y058377D02*
X022174Y058377D01*
X022324Y058377D02*
X022324Y058227D01*
X022249Y058152D01*
X022098Y058152D01*
X022023Y058227D01*
X022023Y058528D01*
X022098Y058603D01*
X022249Y058603D01*
X022324Y058528D01*
X022709Y058377D02*
X022784Y058302D01*
X022784Y058227D01*
X021863Y058152D02*
X021713Y058302D01*
X021788Y058302D02*
X021563Y058302D01*
X021563Y058152D02*
X021563Y058603D01*
X021788Y058603D01*
X021863Y058528D01*
X021863Y058377D01*
X021788Y058302D01*
X020942Y058227D02*
X020867Y058152D01*
X020717Y058152D01*
X020642Y058227D01*
X020642Y058377D02*
X020792Y058453D01*
X020867Y058453D01*
X020942Y058377D01*
X020942Y058227D01*
X020642Y058377D02*
X020642Y058603D01*
X020942Y058603D01*
X020332Y058603D02*
X020332Y058152D01*
X020182Y058152D02*
X020482Y058152D01*
X020182Y058453D02*
X020332Y058603D01*
X020022Y058603D02*
X019721Y058152D01*
X019561Y058152D02*
X019261Y058152D01*
X019411Y058152D02*
X019411Y058603D01*
X019261Y058453D01*
X019101Y058152D02*
X018801Y058152D01*
X018951Y058152D02*
X018951Y058603D01*
X018801Y058453D01*
X018640Y058603D02*
X018340Y058152D01*
X018180Y058152D02*
X017880Y058152D01*
X018180Y058453D01*
X018180Y058528D01*
X018105Y058603D01*
X017955Y058603D01*
X017880Y058528D01*
X017570Y058603D02*
X017570Y058152D01*
X017720Y058152D02*
X017419Y058152D01*
X017419Y058453D02*
X017570Y058603D01*
X016339Y058603D02*
X016038Y058603D01*
X016038Y058152D01*
X016038Y058377D02*
X016188Y058377D01*
X015878Y058377D02*
X015578Y058377D01*
X015418Y058227D02*
X015343Y058152D01*
X015193Y058152D01*
X015117Y058227D01*
X015418Y058528D01*
X015418Y058227D01*
X015117Y058227D02*
X015117Y058528D01*
X015193Y058603D01*
X015343Y058603D01*
X015418Y058528D01*
X014957Y058528D02*
X014657Y058227D01*
X014732Y058152D01*
X014882Y058152D01*
X014957Y058227D01*
X014957Y058528D01*
X014882Y058603D01*
X014732Y058603D01*
X014657Y058528D01*
X014657Y058227D01*
X014497Y058227D02*
X014422Y058152D01*
X014272Y058152D01*
X014197Y058227D01*
X014497Y058528D01*
X014497Y058227D01*
X014197Y058227D02*
X014197Y058528D01*
X014272Y058603D01*
X014422Y058603D01*
X014497Y058528D01*
X014037Y058152D02*
X013736Y058152D01*
X013886Y058152D02*
X013886Y058603D01*
X013736Y058453D01*
X013576Y058603D02*
X013576Y058152D01*
X013276Y058152D02*
X013276Y058603D01*
X013426Y058453D01*
X013576Y058603D01*
X013116Y058528D02*
X013041Y058603D01*
X012891Y058603D01*
X012816Y058528D01*
X012816Y058453D01*
X012891Y058377D01*
X013041Y058377D01*
X013116Y058302D01*
X013116Y058227D01*
X013041Y058152D01*
X012891Y058152D01*
X012816Y058227D01*
X035178Y024941D02*
X035103Y024866D01*
D14*
X020272Y036245D02*
X020272Y036535D01*
X020126Y036535D01*
X020078Y036487D01*
X020078Y036390D01*
X020126Y036341D01*
X020272Y036341D01*
X019977Y036245D02*
X019783Y036245D01*
X019880Y036245D02*
X019880Y036535D01*
X019977Y036438D01*
X019682Y036438D02*
X019634Y036390D01*
X019489Y036390D01*
X019489Y036487D02*
X019537Y036535D01*
X019634Y036535D01*
X019682Y036487D01*
X019682Y036438D01*
X019682Y036293D02*
X019634Y036245D01*
X019537Y036245D01*
X019489Y036293D01*
X019489Y036487D01*
X022198Y047300D02*
X022150Y047348D01*
X022150Y047396D01*
X022198Y047445D01*
X022343Y047445D01*
X022343Y047348D01*
X022295Y047300D01*
X022198Y047300D01*
X022343Y047445D02*
X022246Y047542D01*
X022150Y047590D01*
X022444Y047542D02*
X022444Y047445D01*
X022493Y047396D01*
X022638Y047396D01*
X022638Y047300D02*
X022638Y047590D01*
X022493Y047590D01*
X022444Y047542D01*
X023114Y047549D02*
X023114Y047501D01*
X023163Y047453D01*
X023259Y047453D01*
X023308Y047501D01*
X023308Y047549D01*
X023259Y047598D01*
X023163Y047598D01*
X023114Y047549D01*
X023163Y047453D02*
X023114Y047404D01*
X023114Y047356D01*
X023163Y047308D01*
X023259Y047308D01*
X023308Y047356D01*
X023308Y047404D01*
X023259Y047453D01*
X023409Y047453D02*
X023457Y047404D01*
X023602Y047404D01*
X023602Y047308D02*
X023602Y047598D01*
X023457Y047598D01*
X023409Y047549D01*
X023409Y047453D01*
X023292Y048508D02*
X023292Y048557D01*
X023098Y048750D01*
X023098Y048799D01*
X023292Y048799D01*
X023393Y048750D02*
X023393Y048654D01*
X023441Y048605D01*
X023587Y048605D01*
X023587Y048508D02*
X023587Y048799D01*
X023441Y048799D01*
X023393Y048750D01*
X023378Y049634D02*
X023571Y049634D01*
X023475Y049634D02*
X023475Y049925D01*
X023571Y049828D01*
X023673Y049876D02*
X023673Y049780D01*
X023721Y049731D01*
X023866Y049731D01*
X023866Y049634D02*
X023866Y049925D01*
X023721Y049925D01*
X023673Y049876D01*
X023277Y049828D02*
X023180Y049925D01*
X023180Y049634D01*
X023277Y049634D02*
X023083Y049634D01*
X022850Y049863D02*
X022850Y050153D01*
X022705Y050153D01*
X022657Y050105D01*
X022657Y050008D01*
X022705Y049959D01*
X022850Y049959D01*
X022556Y049863D02*
X022362Y049863D01*
X022459Y049863D02*
X022459Y050153D01*
X022556Y050056D01*
X022261Y050105D02*
X022213Y050153D01*
X022116Y050153D01*
X022068Y050105D01*
X022068Y050056D01*
X022261Y049863D01*
X022068Y049863D01*
X022130Y048814D02*
X022323Y048814D01*
X022323Y048669D01*
X022227Y048718D01*
X022178Y048718D01*
X022130Y048669D01*
X022130Y048573D01*
X022178Y048524D01*
X022275Y048524D01*
X022323Y048573D01*
X022425Y048669D02*
X022473Y048621D01*
X022618Y048621D01*
X022618Y048524D02*
X022618Y048814D01*
X022473Y048814D01*
X022425Y048766D01*
X022425Y048669D01*
X024131Y049887D02*
X024179Y049839D01*
X024276Y049839D01*
X024324Y049887D01*
X024131Y050081D01*
X024131Y049887D01*
X024324Y049887D02*
X024324Y050081D01*
X024276Y050129D01*
X024179Y050129D01*
X024131Y050081D01*
X024425Y049839D02*
X024619Y049839D01*
X024522Y049839D02*
X024522Y050129D01*
X024619Y050033D01*
X024720Y050081D02*
X024720Y049984D01*
X024768Y049936D01*
X024913Y049936D01*
X024913Y049839D02*
X024913Y050129D01*
X024768Y050129D01*
X024720Y050081D01*
X025134Y049876D02*
X025182Y049925D01*
X025279Y049925D01*
X025327Y049876D01*
X025327Y049828D01*
X025279Y049780D01*
X025134Y049780D01*
X025134Y049876D02*
X025134Y049683D01*
X025182Y049634D01*
X025279Y049634D01*
X025327Y049683D01*
X025428Y049780D02*
X025477Y049731D01*
X025622Y049731D01*
X025622Y049634D02*
X025622Y049925D01*
X025477Y049925D01*
X025428Y049876D01*
X025428Y049780D01*
X025564Y048551D02*
X025709Y048406D01*
X025516Y048406D01*
X025564Y048551D02*
X025564Y048260D01*
X025810Y048406D02*
X025859Y048357D01*
X026004Y048357D01*
X026004Y048260D02*
X026004Y048551D01*
X025859Y048551D01*
X025810Y048502D01*
X025810Y048406D01*
X025847Y047476D02*
X025799Y047427D01*
X025799Y047331D01*
X025847Y047282D01*
X025992Y047282D01*
X025992Y047186D02*
X025992Y047476D01*
X025847Y047476D01*
X025697Y047379D02*
X025601Y047476D01*
X025601Y047186D01*
X025697Y047186D02*
X025504Y047186D01*
X030280Y047758D02*
X030328Y047709D01*
X030425Y047709D01*
X030473Y047758D01*
X030376Y047854D02*
X030328Y047854D01*
X030280Y047806D01*
X030280Y047758D01*
X030328Y047854D02*
X030280Y047903D01*
X030280Y047951D01*
X030328Y047999D01*
X030425Y047999D01*
X030473Y047951D01*
X030574Y047951D02*
X030574Y047854D01*
X030623Y047806D01*
X030768Y047806D01*
X030768Y047709D02*
X030768Y047999D01*
X030623Y047999D01*
X030574Y047951D01*
X030650Y045940D02*
X030602Y045892D01*
X030602Y045795D01*
X030650Y045747D01*
X030795Y045747D01*
X030795Y045650D02*
X030795Y045940D01*
X030650Y045940D01*
X030501Y045892D02*
X030452Y045940D01*
X030355Y045940D01*
X030307Y045892D01*
X030307Y045844D01*
X030501Y045650D01*
X030307Y045650D01*
X030770Y053288D02*
X030964Y053288D01*
X030770Y053481D01*
X030770Y053530D01*
X030819Y053578D01*
X030916Y053578D01*
X030964Y053530D01*
X031065Y053578D02*
X031162Y053530D01*
X031259Y053433D01*
X031113Y053433D01*
X031065Y053385D01*
X031065Y053336D01*
X031113Y053288D01*
X031210Y053288D01*
X031259Y053336D01*
X031259Y053433D01*
X031360Y053433D02*
X031408Y053385D01*
X031553Y053385D01*
X031456Y053385D02*
X031360Y053288D01*
X031360Y053433D02*
X031360Y053530D01*
X031408Y053578D01*
X031553Y053578D01*
X031553Y053288D01*
X031951Y053288D02*
X032145Y053288D01*
X032048Y053288D02*
X032048Y053578D01*
X032145Y053481D01*
X032246Y053385D02*
X032295Y053433D01*
X032440Y053433D01*
X032440Y053336D01*
X032391Y053288D01*
X032295Y053288D01*
X032246Y053336D01*
X032246Y053385D01*
X032343Y053530D02*
X032440Y053433D01*
X032541Y053433D02*
X032589Y053385D01*
X032734Y053385D01*
X032638Y053385D02*
X032541Y053288D01*
X032541Y053433D02*
X032541Y053530D01*
X032589Y053578D01*
X032734Y053578D01*
X032734Y053288D01*
X032343Y053530D02*
X032246Y053578D01*
X027625Y054441D02*
X027383Y054441D01*
X027335Y054490D01*
X027335Y054587D01*
X027383Y054635D01*
X027625Y054635D01*
X027529Y054736D02*
X027625Y054833D01*
X027335Y054833D01*
X027335Y054736D02*
X027335Y054930D01*
X027383Y055031D02*
X027577Y055224D01*
X027383Y055224D01*
X027335Y055176D01*
X027335Y055079D01*
X027383Y055031D01*
X027577Y055031D01*
X027625Y055079D01*
X027625Y055176D01*
X027577Y055224D01*
X025965Y054132D02*
X025965Y053939D01*
X025916Y053890D01*
X025819Y053890D01*
X025771Y053939D01*
X025670Y053890D02*
X025670Y054181D01*
X025476Y053890D01*
X025476Y054181D01*
X025375Y054132D02*
X025327Y054181D01*
X025230Y054181D01*
X025182Y054132D01*
X025182Y054084D01*
X025375Y053890D01*
X025182Y053890D01*
X025230Y053708D02*
X025182Y053660D01*
X025182Y053611D01*
X025230Y053563D01*
X025375Y053563D01*
X025476Y053515D02*
X025476Y053466D01*
X025525Y053418D01*
X025621Y053418D01*
X025670Y053466D01*
X025771Y053466D02*
X025771Y053708D01*
X025670Y053660D02*
X025670Y053611D01*
X025621Y053563D01*
X025525Y053563D01*
X025476Y053515D01*
X025375Y053418D02*
X025230Y053418D01*
X025182Y053466D01*
X025182Y053515D01*
X025230Y053563D01*
X025230Y053708D02*
X025375Y053708D01*
X025375Y053418D01*
X025476Y053660D02*
X025525Y053708D01*
X025621Y053708D01*
X025670Y053660D01*
X025771Y053466D02*
X025819Y053418D01*
X025916Y053418D01*
X025965Y053466D01*
X025965Y053708D01*
X025965Y054132D02*
X025916Y054181D01*
X025819Y054181D01*
X025771Y054132D01*
D15*
X012594Y057734D02*
X012594Y018363D01*
X038184Y018363D01*
X038184Y057734D01*
X012594Y057734D01*
X022042Y057812D02*
X024798Y057812D01*
X024995Y057812D01*
X025192Y057812D01*
X025113Y056434D02*
X025113Y055667D01*
X024798Y054466D02*
X024483Y054466D01*
X022751Y054466D02*
X022436Y054466D01*
X022102Y055647D02*
X022102Y056434D01*
X014798Y045450D02*
X014798Y045273D01*
X014405Y045273D01*
X014405Y045450D01*
X014405Y045273D02*
X014405Y044938D01*
X014798Y044938D02*
X014798Y045234D01*
X014798Y045273D01*
X014188Y044466D02*
X016550Y044466D01*
X017928Y044466D02*
X018243Y044466D01*
X018243Y042104D01*
X014976Y042104D01*
X013007Y044466D02*
X012613Y044466D01*
X012613Y042104D01*
X012810Y042104D01*
X017042Y024092D02*
X017042Y023777D01*
X017042Y024092D02*
X019405Y024092D01*
X019405Y020824D01*
X019405Y018659D02*
X019405Y018462D01*
X017042Y018462D01*
X017042Y018856D01*
X017042Y020037D02*
X017042Y022399D01*
X016649Y022222D02*
X016649Y021887D01*
X016255Y021887D01*
X016255Y021710D01*
X016255Y021887D02*
X016255Y021926D01*
X016255Y022222D01*
X016649Y021887D02*
X016649Y021710D01*
X021491Y022399D02*
X021491Y020037D01*
X021491Y018856D02*
X021491Y018462D01*
X023854Y018462D01*
X023854Y018659D01*
X023854Y020824D02*
X023854Y024092D01*
X021491Y024092D01*
X021491Y023777D01*
X025822Y024466D02*
X025999Y024466D01*
X025999Y024860D01*
X025822Y024860D01*
X025999Y024860D02*
X026039Y024860D01*
X026334Y024860D01*
X026334Y024466D02*
X025999Y024466D01*
X025940Y024092D02*
X025940Y023777D01*
X025940Y024092D02*
X028302Y024092D01*
X028302Y020824D01*
X029523Y021159D02*
X029523Y021336D01*
X029917Y021336D01*
X029917Y021159D01*
X029917Y021336D02*
X029917Y021671D01*
X029523Y021671D02*
X029523Y021375D01*
X029523Y021336D01*
X030389Y022399D02*
X030389Y020037D01*
X030389Y018856D02*
X030389Y018462D01*
X032751Y018462D01*
X032751Y018659D01*
X032751Y020824D02*
X032751Y024092D01*
X030389Y024092D01*
X030389Y023777D01*
X033854Y021671D02*
X033854Y021375D01*
X033854Y021336D01*
X034247Y021336D01*
X034247Y021159D01*
X034247Y021336D02*
X034247Y021671D01*
X033854Y021336D02*
X033854Y021159D01*
X034838Y020037D02*
X034838Y022399D01*
X034838Y023777D02*
X034838Y024092D01*
X037200Y024092D01*
X037200Y020824D01*
X037200Y018659D02*
X037200Y018462D01*
X034838Y018462D01*
X034838Y018856D01*
X028302Y018659D02*
X028302Y018462D01*
X025940Y018462D01*
X025940Y018856D01*
X025940Y020037D02*
X025940Y022399D01*
D16*
X024798Y022537D02*
X024798Y022615D01*
X014956Y022222D02*
X014956Y022143D01*
X030999Y053797D02*
X031590Y053797D01*
X031590Y054033D01*
X032180Y054033D02*
X032180Y053797D01*
X032771Y053797D01*
X032771Y054033D01*
X032771Y054741D02*
X032771Y054978D01*
X032180Y054978D01*
X032180Y054741D01*
X031590Y054741D02*
X031590Y054978D01*
X030999Y054978D01*
X030999Y054741D01*
X030999Y054033D02*
X030999Y053797D01*
D17*
X027497Y055781D03*
M02*
