G75*
%MOIN*%
%OFA0B0*%
%FSLAX24Y24*%
%IPPOS*%
%LPD*%
%AMOC8*
5,1,8,0,0,1.08239X$1,22.5*
%
%ADD10C,0.0059*%
%ADD11C,0.0050*%
%ADD12C,0.0839*%
%ADD13R,0.0639X0.0639*%
%ADD14C,0.0639*%
%ADD15R,0.0787X0.0787*%
%ADD16R,0.0579X0.0579*%
%ADD17C,0.0217*%
%ADD18C,0.0167*%
%ADD19C,0.0787*%
%ADD20C,0.0739*%
%ADD21C,0.0709*%
%ADD22C,0.0069*%
%ADD23C,0.0433*%
%ADD24R,0.0779X0.0779*%
%ADD25C,0.0779*%
%ADD26C,0.1079*%
%ADD27C,0.0939*%
%ADD28R,0.0739X0.0739*%
%ADD29C,0.0157*%
%ADD30C,0.0098*%
%ADD31C,0.0472*%
%ADD32C,0.0579*%
%ADD33C,0.2619*%
D10*
X012594Y016789D02*
X012594Y056159D01*
X038184Y056159D01*
X038184Y016789D01*
X012594Y016789D01*
D11*
X012891Y056577D02*
X012816Y056653D01*
X012891Y056577D02*
X013041Y056577D01*
X013116Y056653D01*
X013116Y056728D01*
X013041Y056803D01*
X012891Y056803D01*
X012816Y056878D01*
X012816Y056953D01*
X012891Y057028D01*
X013041Y057028D01*
X013116Y056953D01*
X013276Y057028D02*
X013426Y056878D01*
X013576Y057028D01*
X013576Y056577D01*
X013736Y056577D02*
X014037Y056577D01*
X013886Y056577D02*
X013886Y057028D01*
X013736Y056878D01*
X014197Y056953D02*
X014272Y057028D01*
X014422Y057028D01*
X014497Y056953D01*
X014197Y056653D01*
X014272Y056577D01*
X014422Y056577D01*
X014497Y056653D01*
X014497Y056953D01*
X014657Y056953D02*
X014732Y057028D01*
X014882Y057028D01*
X014957Y056953D01*
X014657Y056653D01*
X014732Y056577D01*
X014882Y056577D01*
X014957Y056653D01*
X014957Y056953D01*
X015117Y056953D02*
X015193Y057028D01*
X015343Y057028D01*
X015418Y056953D01*
X015117Y056653D01*
X015193Y056577D01*
X015343Y056577D01*
X015418Y056653D01*
X015418Y056953D01*
X015578Y056803D02*
X015878Y056803D01*
X016038Y056803D02*
X016188Y056803D01*
X016038Y057028D02*
X016339Y057028D01*
X016038Y057028D02*
X016038Y056577D01*
X015117Y056653D02*
X015117Y056953D01*
X014657Y056953D02*
X014657Y056653D01*
X014197Y056653D02*
X014197Y056953D01*
X013276Y057028D02*
X013276Y056577D01*
X017419Y056577D02*
X017720Y056577D01*
X017570Y056577D02*
X017570Y057028D01*
X017419Y056878D01*
X017880Y056953D02*
X017955Y057028D01*
X018105Y057028D01*
X018180Y056953D01*
X017880Y056653D01*
X017955Y056577D01*
X018105Y056577D01*
X018180Y056653D01*
X018180Y056953D01*
X017880Y056953D02*
X017880Y056653D01*
X018340Y056577D02*
X018640Y057028D01*
X018801Y056953D02*
X018876Y057028D01*
X019026Y057028D01*
X019101Y056953D01*
X018801Y056653D01*
X018876Y056577D01*
X019026Y056577D01*
X019101Y056653D01*
X019101Y056953D01*
X019261Y056953D02*
X019336Y057028D01*
X019486Y057028D01*
X019561Y056953D01*
X019561Y056878D01*
X019486Y056803D01*
X019561Y056728D01*
X019561Y056653D01*
X019486Y056577D01*
X019336Y056577D01*
X019261Y056653D01*
X019411Y056803D02*
X019486Y056803D01*
X019721Y056577D02*
X020022Y057028D01*
X020182Y056878D02*
X020332Y057028D01*
X020332Y056577D01*
X020182Y056577D02*
X020482Y056577D01*
X020642Y056653D02*
X020717Y056577D01*
X020867Y056577D01*
X020942Y056653D01*
X020942Y056803D01*
X020867Y056878D01*
X020792Y056878D01*
X020642Y056803D01*
X020642Y057028D01*
X020942Y057028D01*
X021563Y057028D02*
X021788Y057028D01*
X021863Y056953D01*
X021863Y056803D01*
X021788Y056728D01*
X021563Y056728D01*
X021713Y056728D02*
X021863Y056577D01*
X022023Y056653D02*
X022098Y056577D01*
X022249Y056577D01*
X022324Y056653D01*
X022324Y056803D01*
X022174Y056803D01*
X022324Y056953D02*
X022249Y057028D01*
X022098Y057028D01*
X022023Y056953D01*
X022023Y056653D01*
X021563Y056577D02*
X021563Y057028D01*
X022484Y057028D02*
X022709Y057028D01*
X022784Y056953D01*
X022784Y056878D01*
X022709Y056803D01*
X022484Y056803D01*
X022484Y057028D02*
X022484Y056577D01*
X022709Y056577D01*
X022784Y056653D01*
X022784Y056728D01*
X022709Y056803D01*
X022944Y056653D02*
X023019Y056653D01*
X023019Y056577D01*
X022944Y056577D01*
X022944Y056653D01*
X018801Y056653D02*
X018801Y056953D01*
D12*
X033417Y054222D03*
X034417Y054222D03*
X035417Y054222D03*
X025086Y035096D03*
D13*
X020271Y030068D03*
X029629Y025293D03*
X031661Y040017D03*
X028617Y047694D03*
X030192Y050360D03*
X017318Y046907D03*
D14*
X017318Y047907D03*
X017318Y048907D03*
X028617Y046694D03*
X028617Y045694D03*
X030192Y049360D03*
X032661Y040017D03*
X028629Y025293D03*
X020271Y031068D03*
D15*
X026086Y035096D03*
D16*
X019877Y034308D03*
X022436Y045332D03*
X022436Y046537D03*
X023420Y046513D03*
X023420Y045332D03*
X023617Y047694D03*
X022830Y047694D03*
X024405Y047694D03*
X025192Y047694D03*
X026373Y046513D03*
X026373Y045726D03*
X030507Y045726D03*
X030507Y044741D03*
X014956Y054190D03*
X014956Y054938D03*
X013696Y054978D03*
X013696Y054190D03*
X013381Y022694D03*
X013420Y017812D03*
X029326Y022891D03*
X037279Y023049D03*
D17*
X036639Y022665D02*
X036639Y023511D01*
X036639Y022665D02*
X035989Y022665D01*
X035989Y023511D01*
X036639Y023511D01*
X036639Y022881D02*
X035989Y022881D01*
X035989Y023097D02*
X036639Y023097D01*
X036639Y023313D02*
X035989Y023313D01*
X035084Y021188D02*
X034238Y021188D01*
X034238Y021838D01*
X035084Y021838D01*
X035084Y021188D01*
X035084Y021404D02*
X034238Y021404D01*
X034238Y021620D02*
X035084Y021620D01*
X035084Y021836D02*
X034238Y021836D01*
X032190Y022665D02*
X032190Y023511D01*
X032190Y022665D02*
X031540Y022665D01*
X031540Y023511D01*
X032190Y023511D01*
X032190Y022881D02*
X031540Y022881D01*
X031540Y023097D02*
X032190Y023097D01*
X032190Y023313D02*
X031540Y023313D01*
X030635Y021188D02*
X029789Y021188D01*
X029789Y021838D01*
X030635Y021838D01*
X030635Y021188D01*
X030635Y021404D02*
X029789Y021404D01*
X029789Y021620D02*
X030635Y021620D01*
X030635Y021836D02*
X029789Y021836D01*
X027742Y022665D02*
X027742Y023511D01*
X027742Y022665D02*
X027092Y022665D01*
X027092Y023511D01*
X027742Y023511D01*
X027742Y022881D02*
X027092Y022881D01*
X027092Y023097D02*
X027742Y023097D01*
X027742Y023313D02*
X027092Y023313D01*
X026186Y021188D02*
X025340Y021188D01*
X025340Y021838D01*
X026186Y021838D01*
X026186Y021188D01*
X026186Y021404D02*
X025340Y021404D01*
X025340Y021620D02*
X026186Y021620D01*
X026186Y021836D02*
X025340Y021836D01*
X023293Y022665D02*
X023293Y023511D01*
X023293Y022665D02*
X022643Y022665D01*
X022643Y023511D01*
X023293Y023511D01*
X023293Y022881D02*
X022643Y022881D01*
X022643Y023097D02*
X023293Y023097D01*
X023293Y023313D02*
X022643Y023313D01*
X021737Y021188D02*
X020891Y021188D01*
X020891Y021838D01*
X021737Y021838D01*
X021737Y021188D01*
X021737Y021404D02*
X020891Y021404D01*
X020891Y021620D02*
X021737Y021620D01*
X021737Y021836D02*
X020891Y021836D01*
X018844Y022665D02*
X018844Y023511D01*
X018844Y022665D02*
X018194Y022665D01*
X018194Y023511D01*
X018844Y023511D01*
X018844Y022881D02*
X018194Y022881D01*
X018194Y023097D02*
X018844Y023097D01*
X018844Y023313D02*
X018194Y023313D01*
X017288Y021188D02*
X016442Y021188D01*
X016442Y021838D01*
X017288Y021838D01*
X017288Y021188D01*
X017288Y021404D02*
X016442Y021404D01*
X016442Y021620D02*
X017288Y021620D01*
X017288Y021836D02*
X016442Y021836D01*
X016442Y017546D02*
X017288Y017546D01*
X016442Y017546D02*
X016442Y018196D01*
X017288Y018196D01*
X017288Y017546D01*
X017288Y017762D02*
X016442Y017762D01*
X016442Y017978D02*
X017288Y017978D01*
X017288Y018194D02*
X016442Y018194D01*
X019159Y018255D02*
X020005Y018255D01*
X019159Y018255D02*
X019159Y018905D01*
X020005Y018905D01*
X020005Y018255D01*
X020005Y018471D02*
X019159Y018471D01*
X019159Y018687D02*
X020005Y018687D01*
X020005Y018903D02*
X019159Y018903D01*
X020891Y017546D02*
X021737Y017546D01*
X020891Y017546D02*
X020891Y018196D01*
X021737Y018196D01*
X021737Y017546D01*
X021737Y017762D02*
X020891Y017762D01*
X020891Y017978D02*
X021737Y017978D01*
X021737Y018194D02*
X020891Y018194D01*
X023608Y018255D02*
X024454Y018255D01*
X023608Y018255D02*
X023608Y018905D01*
X024454Y018905D01*
X024454Y018255D01*
X024454Y018471D02*
X023608Y018471D01*
X023608Y018687D02*
X024454Y018687D01*
X024454Y018903D02*
X023608Y018903D01*
X025340Y017546D02*
X026186Y017546D01*
X025340Y017546D02*
X025340Y018196D01*
X026186Y018196D01*
X026186Y017546D01*
X026186Y017762D02*
X025340Y017762D01*
X025340Y017978D02*
X026186Y017978D01*
X026186Y018194D02*
X025340Y018194D01*
X028057Y018255D02*
X028903Y018255D01*
X028057Y018255D02*
X028057Y018905D01*
X028903Y018905D01*
X028903Y018255D01*
X028903Y018471D02*
X028057Y018471D01*
X028057Y018687D02*
X028903Y018687D01*
X028903Y018903D02*
X028057Y018903D01*
X029789Y017546D02*
X030635Y017546D01*
X029789Y017546D02*
X029789Y018196D01*
X030635Y018196D01*
X030635Y017546D01*
X030635Y017762D02*
X029789Y017762D01*
X029789Y017978D02*
X030635Y017978D01*
X030635Y018194D02*
X029789Y018194D01*
X032505Y018255D02*
X033351Y018255D01*
X032505Y018255D02*
X032505Y018905D01*
X033351Y018905D01*
X033351Y018255D01*
X033351Y018471D02*
X032505Y018471D01*
X032505Y018687D02*
X033351Y018687D01*
X033351Y018903D02*
X032505Y018903D01*
X034238Y017546D02*
X035084Y017546D01*
X034238Y017546D02*
X034238Y018196D01*
X035084Y018196D01*
X035084Y017546D01*
X035084Y017762D02*
X034238Y017762D01*
X034238Y017978D02*
X035084Y017978D01*
X035084Y018194D02*
X034238Y018194D01*
X036954Y018255D02*
X037800Y018255D01*
X036954Y018255D02*
X036954Y018905D01*
X037800Y018905D01*
X037800Y018255D01*
X037800Y018471D02*
X036954Y018471D01*
X036954Y018687D02*
X037800Y018687D01*
X037800Y018903D02*
X036954Y018903D01*
X019237Y041090D02*
X018391Y041090D01*
X018391Y041740D01*
X019237Y041740D01*
X019237Y041090D01*
X019237Y041306D02*
X018391Y041306D01*
X018391Y041522D02*
X019237Y041522D01*
X019237Y041738D02*
X018391Y041738D01*
X016914Y042645D02*
X016914Y043491D01*
X017564Y043491D01*
X017564Y042645D01*
X016914Y042645D01*
X016914Y042861D02*
X017564Y042861D01*
X017564Y043077D02*
X016914Y043077D01*
X016914Y043293D02*
X017564Y043293D01*
X013981Y040775D02*
X013981Y039929D01*
X013981Y040775D02*
X014631Y040775D01*
X014631Y039929D01*
X013981Y039929D01*
X013981Y040145D02*
X014631Y040145D01*
X014631Y040361D02*
X013981Y040361D01*
X013981Y040577D02*
X014631Y040577D01*
X013273Y042645D02*
X013273Y043491D01*
X013923Y043491D01*
X013923Y042645D01*
X013273Y042645D01*
X013273Y042861D02*
X013923Y042861D01*
X013923Y043077D02*
X013273Y043077D01*
X013273Y043293D02*
X013923Y043293D01*
X022190Y052960D02*
X022190Y053806D01*
X022190Y052960D02*
X021540Y052960D01*
X021540Y053806D01*
X022190Y053806D01*
X022190Y053176D02*
X021540Y053176D01*
X021540Y053392D02*
X022190Y053392D01*
X022190Y053608D02*
X021540Y053608D01*
X022190Y055126D02*
X022190Y055972D01*
X022190Y055126D02*
X021540Y055126D01*
X021540Y055972D01*
X022190Y055972D01*
X022190Y055342D02*
X021540Y055342D01*
X021540Y055558D02*
X022190Y055558D01*
X022190Y055774D02*
X021540Y055774D01*
X025694Y055972D02*
X025694Y055126D01*
X025044Y055126D01*
X025044Y055972D01*
X025694Y055972D01*
X025694Y055342D02*
X025044Y055342D01*
X025044Y055558D02*
X025694Y055558D01*
X025694Y055774D02*
X025044Y055774D01*
X025694Y053806D02*
X025694Y052960D01*
X025044Y052960D01*
X025044Y053806D01*
X025694Y053806D01*
X025694Y053176D02*
X025044Y053176D01*
X025044Y053392D02*
X025694Y053392D01*
X025694Y053608D02*
X025044Y053608D01*
D18*
X013494Y040800D02*
X013494Y039904D01*
X012992Y039904D01*
X012992Y040800D01*
X013494Y040800D01*
X013494Y040070D02*
X012992Y040070D01*
X012992Y040236D02*
X013494Y040236D01*
X013494Y040402D02*
X012992Y040402D01*
X012992Y040568D02*
X013494Y040568D01*
X013494Y040734D02*
X012992Y040734D01*
X019134Y017768D02*
X020030Y017768D01*
X020030Y017266D01*
X019134Y017266D01*
X019134Y017768D01*
X019134Y017432D02*
X020030Y017432D01*
X020030Y017598D02*
X019134Y017598D01*
X019134Y017764D02*
X020030Y017764D01*
X023583Y017768D02*
X024479Y017768D01*
X024479Y017266D01*
X023583Y017266D01*
X023583Y017768D01*
X023583Y017432D02*
X024479Y017432D01*
X024479Y017598D02*
X023583Y017598D01*
X023583Y017764D02*
X024479Y017764D01*
X028032Y017768D02*
X028928Y017768D01*
X028928Y017266D01*
X028032Y017266D01*
X028032Y017768D01*
X028032Y017432D02*
X028928Y017432D01*
X028928Y017598D02*
X028032Y017598D01*
X028032Y017764D02*
X028928Y017764D01*
X032480Y017768D02*
X033376Y017768D01*
X033376Y017266D01*
X032480Y017266D01*
X032480Y017768D01*
X032480Y017432D02*
X033376Y017432D01*
X033376Y017598D02*
X032480Y017598D01*
X032480Y017764D02*
X033376Y017764D01*
X036929Y017768D02*
X037825Y017768D01*
X037825Y017266D01*
X036929Y017266D01*
X036929Y017768D01*
X036929Y017432D02*
X037825Y017432D01*
X037825Y017598D02*
X036929Y017598D01*
X036929Y017764D02*
X037825Y017764D01*
D19*
X036019Y018265D03*
X036019Y021021D03*
X031570Y021021D03*
X031570Y018265D03*
X027121Y018265D03*
X027121Y021021D03*
X022672Y021021D03*
X022672Y018265D03*
X018224Y018265D03*
X018224Y021021D03*
X016747Y041710D03*
X013991Y041710D03*
D20*
X022731Y032537D03*
X022314Y028328D03*
X021314Y028328D03*
X020314Y028328D03*
X021314Y025328D03*
X022314Y025328D03*
X023314Y025328D03*
X024314Y025328D03*
X025314Y025328D03*
X026314Y025328D03*
X027314Y025328D03*
X027314Y028328D03*
X026314Y028328D03*
X025314Y028328D03*
X024314Y028328D03*
X023314Y028328D03*
X020684Y054988D03*
X020074Y055755D03*
X019464Y054988D03*
X017928Y054988D03*
X017318Y055755D03*
X016708Y054988D03*
D21*
X015743Y020923D03*
X015743Y019151D03*
D22*
X016348Y019874D02*
X016348Y020160D01*
X016556Y020160D01*
X016556Y019874D01*
X016348Y019874D01*
X016348Y019942D02*
X016556Y019942D01*
X016556Y020010D02*
X016348Y020010D01*
X016348Y020078D02*
X016556Y020078D01*
X016556Y020146D02*
X016348Y020146D01*
X016348Y020386D02*
X016348Y020672D01*
X016556Y020672D01*
X016556Y020386D01*
X016348Y020386D01*
X016348Y020454D02*
X016556Y020454D01*
X016556Y020522D02*
X016348Y020522D01*
X016348Y020590D02*
X016556Y020590D01*
X016556Y020658D02*
X016348Y020658D01*
X025561Y023192D02*
X025847Y023192D01*
X025847Y022984D01*
X025561Y022984D01*
X025561Y023192D01*
X025561Y023052D02*
X025847Y023052D01*
X025847Y023120D02*
X025561Y023120D01*
X025561Y023188D02*
X025847Y023188D01*
X026073Y023192D02*
X026359Y023192D01*
X026359Y022984D01*
X026073Y022984D01*
X026073Y023192D01*
X026073Y023052D02*
X026359Y023052D01*
X026359Y023120D02*
X026073Y023120D01*
X026073Y023188D02*
X026359Y023188D01*
X029616Y020121D02*
X029616Y019835D01*
X029616Y020121D02*
X029824Y020121D01*
X029824Y019835D01*
X029616Y019835D01*
X029616Y019903D02*
X029824Y019903D01*
X029824Y019971D02*
X029616Y019971D01*
X029616Y020039D02*
X029824Y020039D01*
X029824Y020107D02*
X029616Y020107D01*
X029616Y019609D02*
X029616Y019323D01*
X029616Y019609D02*
X029824Y019609D01*
X029824Y019323D01*
X029616Y019323D01*
X029616Y019391D02*
X029824Y019391D01*
X029824Y019459D02*
X029616Y019459D01*
X029616Y019527D02*
X029824Y019527D01*
X029824Y019595D02*
X029616Y019595D01*
X033946Y019609D02*
X033946Y019323D01*
X033946Y019609D02*
X034154Y019609D01*
X034154Y019323D01*
X033946Y019323D01*
X033946Y019391D02*
X034154Y019391D01*
X034154Y019459D02*
X033946Y019459D01*
X033946Y019527D02*
X034154Y019527D01*
X034154Y019595D02*
X033946Y019595D01*
X033946Y019835D02*
X033946Y020121D01*
X034154Y020121D01*
X034154Y019835D01*
X033946Y019835D01*
X033946Y019903D02*
X034154Y019903D01*
X034154Y019971D02*
X033946Y019971D01*
X033946Y020039D02*
X034154Y020039D01*
X034154Y020107D02*
X033946Y020107D01*
X014706Y043339D02*
X014706Y043625D01*
X014706Y043339D02*
X014498Y043339D01*
X014498Y043625D01*
X014706Y043625D01*
X014706Y043407D02*
X014498Y043407D01*
X014498Y043475D02*
X014706Y043475D01*
X014706Y043543D02*
X014498Y043543D01*
X014498Y043611D02*
X014706Y043611D01*
X014706Y043850D02*
X014706Y044136D01*
X014706Y043850D02*
X014498Y043850D01*
X014498Y044136D01*
X014706Y044136D01*
X014706Y043918D02*
X014498Y043918D01*
X014498Y043986D02*
X014706Y043986D01*
X014706Y044054D02*
X014498Y044054D01*
X014498Y044122D02*
X014706Y044122D01*
X023091Y052886D02*
X023091Y053802D01*
X023091Y052886D02*
X022883Y052886D01*
X022883Y053802D01*
X023091Y053802D01*
X023091Y052954D02*
X022883Y052954D01*
X022883Y053022D02*
X023091Y053022D01*
X023091Y053090D02*
X022883Y053090D01*
X022883Y053158D02*
X023091Y053158D01*
X023091Y053226D02*
X022883Y053226D01*
X022883Y053294D02*
X023091Y053294D01*
X023091Y053362D02*
X022883Y053362D01*
X022883Y053430D02*
X023091Y053430D01*
X023091Y053498D02*
X022883Y053498D01*
X022883Y053566D02*
X023091Y053566D01*
X023091Y053634D02*
X022883Y053634D01*
X022883Y053702D02*
X023091Y053702D01*
X023091Y053770D02*
X022883Y053770D01*
X023406Y053802D02*
X023406Y052886D01*
X023198Y052886D01*
X023198Y053802D01*
X023406Y053802D01*
X023406Y052954D02*
X023198Y052954D01*
X023198Y053022D02*
X023406Y053022D01*
X023406Y053090D02*
X023198Y053090D01*
X023198Y053158D02*
X023406Y053158D01*
X023406Y053226D02*
X023198Y053226D01*
X023198Y053294D02*
X023406Y053294D01*
X023406Y053362D02*
X023198Y053362D01*
X023198Y053430D02*
X023406Y053430D01*
X023406Y053498D02*
X023198Y053498D01*
X023198Y053566D02*
X023406Y053566D01*
X023406Y053634D02*
X023198Y053634D01*
X023198Y053702D02*
X023406Y053702D01*
X023406Y053770D02*
X023198Y053770D01*
X023721Y053802D02*
X023721Y052886D01*
X023513Y052886D01*
X023513Y053802D01*
X023721Y053802D01*
X023721Y052954D02*
X023513Y052954D01*
X023513Y053022D02*
X023721Y053022D01*
X023721Y053090D02*
X023513Y053090D01*
X023513Y053158D02*
X023721Y053158D01*
X023721Y053226D02*
X023513Y053226D01*
X023513Y053294D02*
X023721Y053294D01*
X023721Y053362D02*
X023513Y053362D01*
X023513Y053430D02*
X023721Y053430D01*
X023721Y053498D02*
X023513Y053498D01*
X023513Y053566D02*
X023721Y053566D01*
X023721Y053634D02*
X023513Y053634D01*
X023513Y053702D02*
X023721Y053702D01*
X023721Y053770D02*
X023513Y053770D01*
X024036Y053802D02*
X024036Y052886D01*
X023828Y052886D01*
X023828Y053802D01*
X024036Y053802D01*
X024036Y052954D02*
X023828Y052954D01*
X023828Y053022D02*
X024036Y053022D01*
X024036Y053090D02*
X023828Y053090D01*
X023828Y053158D02*
X024036Y053158D01*
X024036Y053226D02*
X023828Y053226D01*
X023828Y053294D02*
X024036Y053294D01*
X024036Y053362D02*
X023828Y053362D01*
X023828Y053430D02*
X024036Y053430D01*
X024036Y053498D02*
X023828Y053498D01*
X023828Y053566D02*
X024036Y053566D01*
X024036Y053634D02*
X023828Y053634D01*
X023828Y053702D02*
X024036Y053702D01*
X024036Y053770D02*
X023828Y053770D01*
X024351Y053802D02*
X024351Y052886D01*
X024143Y052886D01*
X024143Y053802D01*
X024351Y053802D01*
X024351Y052954D02*
X024143Y052954D01*
X024143Y053022D02*
X024351Y053022D01*
X024351Y053090D02*
X024143Y053090D01*
X024143Y053158D02*
X024351Y053158D01*
X024351Y053226D02*
X024143Y053226D01*
X024143Y053294D02*
X024351Y053294D01*
X024351Y053362D02*
X024143Y053362D01*
X024143Y053430D02*
X024351Y053430D01*
X024351Y053498D02*
X024143Y053498D01*
X024143Y053566D02*
X024351Y053566D01*
X024351Y053634D02*
X024143Y053634D01*
X024143Y053702D02*
X024351Y053702D01*
X024351Y053770D02*
X024143Y053770D01*
X028395Y053664D02*
X028603Y053664D01*
X028395Y053664D02*
X028395Y054560D01*
X028603Y054560D01*
X028603Y053664D01*
X028603Y053732D02*
X028395Y053732D01*
X028395Y053800D02*
X028603Y053800D01*
X028603Y053868D02*
X028395Y053868D01*
X028395Y053936D02*
X028603Y053936D01*
X028603Y054004D02*
X028395Y054004D01*
X028395Y054072D02*
X028603Y054072D01*
X028603Y054140D02*
X028395Y054140D01*
X028395Y054208D02*
X028603Y054208D01*
X028603Y054276D02*
X028395Y054276D01*
X028395Y054344D02*
X028603Y054344D01*
X028603Y054412D02*
X028395Y054412D01*
X028395Y054480D02*
X028603Y054480D01*
X028603Y054548D02*
X028395Y054548D01*
X028895Y053664D02*
X029103Y053664D01*
X028895Y053664D02*
X028895Y054560D01*
X029103Y054560D01*
X029103Y053664D01*
X029103Y053732D02*
X028895Y053732D01*
X028895Y053800D02*
X029103Y053800D01*
X029103Y053868D02*
X028895Y053868D01*
X028895Y053936D02*
X029103Y053936D01*
X029103Y054004D02*
X028895Y054004D01*
X028895Y054072D02*
X029103Y054072D01*
X029103Y054140D02*
X028895Y054140D01*
X028895Y054208D02*
X029103Y054208D01*
X029103Y054276D02*
X028895Y054276D01*
X028895Y054344D02*
X029103Y054344D01*
X029103Y054412D02*
X028895Y054412D01*
X028895Y054480D02*
X029103Y054480D01*
X029103Y054548D02*
X028895Y054548D01*
X029395Y053664D02*
X029603Y053664D01*
X029395Y053664D02*
X029395Y054560D01*
X029603Y054560D01*
X029603Y053664D01*
X029603Y053732D02*
X029395Y053732D01*
X029395Y053800D02*
X029603Y053800D01*
X029603Y053868D02*
X029395Y053868D01*
X029395Y053936D02*
X029603Y053936D01*
X029603Y054004D02*
X029395Y054004D01*
X029395Y054072D02*
X029603Y054072D01*
X029603Y054140D02*
X029395Y054140D01*
X029395Y054208D02*
X029603Y054208D01*
X029603Y054276D02*
X029395Y054276D01*
X029395Y054344D02*
X029603Y054344D01*
X029603Y054412D02*
X029395Y054412D01*
X029395Y054480D02*
X029603Y054480D01*
X029603Y054548D02*
X029395Y054548D01*
X029895Y053664D02*
X030103Y053664D01*
X029895Y053664D02*
X029895Y054560D01*
X030103Y054560D01*
X030103Y053664D01*
X030103Y053732D02*
X029895Y053732D01*
X029895Y053800D02*
X030103Y053800D01*
X030103Y053868D02*
X029895Y053868D01*
X029895Y053936D02*
X030103Y053936D01*
X030103Y054004D02*
X029895Y054004D01*
X029895Y054072D02*
X030103Y054072D01*
X030103Y054140D02*
X029895Y054140D01*
X029895Y054208D02*
X030103Y054208D01*
X030103Y054276D02*
X029895Y054276D01*
X029895Y054344D02*
X030103Y054344D01*
X030103Y054412D02*
X029895Y054412D01*
X029895Y054480D02*
X030103Y054480D01*
X030103Y054548D02*
X029895Y054548D01*
X029895Y051852D02*
X030103Y051852D01*
X029895Y051852D02*
X029895Y052748D01*
X030103Y052748D01*
X030103Y051852D01*
X030103Y051920D02*
X029895Y051920D01*
X029895Y051988D02*
X030103Y051988D01*
X030103Y052056D02*
X029895Y052056D01*
X029895Y052124D02*
X030103Y052124D01*
X030103Y052192D02*
X029895Y052192D01*
X029895Y052260D02*
X030103Y052260D01*
X030103Y052328D02*
X029895Y052328D01*
X029895Y052396D02*
X030103Y052396D01*
X030103Y052464D02*
X029895Y052464D01*
X029895Y052532D02*
X030103Y052532D01*
X030103Y052600D02*
X029895Y052600D01*
X029895Y052668D02*
X030103Y052668D01*
X030103Y052736D02*
X029895Y052736D01*
X029603Y051852D02*
X029395Y051852D01*
X029395Y052748D01*
X029603Y052748D01*
X029603Y051852D01*
X029603Y051920D02*
X029395Y051920D01*
X029395Y051988D02*
X029603Y051988D01*
X029603Y052056D02*
X029395Y052056D01*
X029395Y052124D02*
X029603Y052124D01*
X029603Y052192D02*
X029395Y052192D01*
X029395Y052260D02*
X029603Y052260D01*
X029603Y052328D02*
X029395Y052328D01*
X029395Y052396D02*
X029603Y052396D01*
X029603Y052464D02*
X029395Y052464D01*
X029395Y052532D02*
X029603Y052532D01*
X029603Y052600D02*
X029395Y052600D01*
X029395Y052668D02*
X029603Y052668D01*
X029603Y052736D02*
X029395Y052736D01*
X029103Y051852D02*
X028895Y051852D01*
X028895Y052748D01*
X029103Y052748D01*
X029103Y051852D01*
X029103Y051920D02*
X028895Y051920D01*
X028895Y051988D02*
X029103Y051988D01*
X029103Y052056D02*
X028895Y052056D01*
X028895Y052124D02*
X029103Y052124D01*
X029103Y052192D02*
X028895Y052192D01*
X028895Y052260D02*
X029103Y052260D01*
X029103Y052328D02*
X028895Y052328D01*
X028895Y052396D02*
X029103Y052396D01*
X029103Y052464D02*
X028895Y052464D01*
X028895Y052532D02*
X029103Y052532D01*
X029103Y052600D02*
X028895Y052600D01*
X028895Y052668D02*
X029103Y052668D01*
X029103Y052736D02*
X028895Y052736D01*
X028603Y051852D02*
X028395Y051852D01*
X028395Y052748D01*
X028603Y052748D01*
X028603Y051852D01*
X028603Y051920D02*
X028395Y051920D01*
X028395Y051988D02*
X028603Y051988D01*
X028603Y052056D02*
X028395Y052056D01*
X028395Y052124D02*
X028603Y052124D01*
X028603Y052192D02*
X028395Y052192D01*
X028395Y052260D02*
X028603Y052260D01*
X028603Y052328D02*
X028395Y052328D01*
X028395Y052396D02*
X028603Y052396D01*
X028603Y052464D02*
X028395Y052464D01*
X028395Y052532D02*
X028603Y052532D01*
X028603Y052600D02*
X028395Y052600D01*
X028395Y052668D02*
X028603Y052668D01*
X028603Y052736D02*
X028395Y052736D01*
D23*
X024483Y054367D03*
X022751Y054367D03*
X021649Y041986D03*
D24*
X018696Y044249D03*
X014464Y050056D03*
D25*
X015448Y050056D03*
X015448Y051041D03*
X015448Y052025D03*
X014464Y052025D03*
X014464Y051041D03*
X016728Y045234D03*
X017712Y045234D03*
X018696Y045234D03*
X017712Y044249D03*
X016728Y044249D03*
D26*
X015468Y043915D03*
X014129Y053285D03*
D27*
X015783Y048797D03*
X019956Y045568D03*
D28*
X023716Y032537D03*
X020314Y025328D03*
D29*
X024977Y022026D02*
X024977Y021552D01*
X024227Y021552D01*
X024227Y022026D01*
X024977Y022026D01*
X024977Y021708D02*
X024227Y021708D01*
X024227Y021864D02*
X024977Y021864D01*
X024977Y022020D02*
X024227Y022020D01*
X024977Y020293D02*
X024977Y019819D01*
X024227Y019819D01*
X024227Y020293D01*
X024977Y020293D01*
X024977Y019975D02*
X024227Y019975D01*
X024227Y020131D02*
X024977Y020131D01*
X024977Y020287D02*
X024227Y020287D01*
X015134Y019900D02*
X015134Y019426D01*
X014384Y019426D01*
X014384Y019900D01*
X015134Y019900D01*
X015134Y019582D02*
X014384Y019582D01*
X014384Y019738D02*
X015134Y019738D01*
X015134Y019894D02*
X014384Y019894D01*
X015134Y021158D02*
X015134Y021632D01*
X015134Y021158D02*
X014384Y021158D01*
X014384Y021632D01*
X015134Y021632D01*
X015134Y021314D02*
X014384Y021314D01*
X014384Y021470D02*
X015134Y021470D01*
X015134Y021626D02*
X014384Y021626D01*
D30*
X031117Y052645D02*
X031471Y052645D01*
X031471Y052349D01*
X031117Y052349D01*
X031117Y052645D01*
X031117Y052446D02*
X031471Y052446D01*
X031471Y052543D02*
X031117Y052543D01*
X031117Y052640D02*
X031471Y052640D01*
X031471Y053275D02*
X031117Y053275D01*
X031471Y053275D02*
X031471Y052979D01*
X031117Y052979D01*
X031117Y053275D01*
X031117Y053076D02*
X031471Y053076D01*
X031471Y053173D02*
X031117Y053173D01*
X031117Y053270D02*
X031471Y053270D01*
X032299Y053275D02*
X032653Y053275D01*
X032653Y052979D01*
X032299Y052979D01*
X032299Y053275D01*
X032299Y053076D02*
X032653Y053076D01*
X032653Y053173D02*
X032299Y053173D01*
X032299Y053270D02*
X032653Y053270D01*
X032653Y052645D02*
X032299Y052645D01*
X032653Y052645D02*
X032653Y052349D01*
X032299Y052349D01*
X032299Y052645D01*
X032299Y052446D02*
X032653Y052446D01*
X032653Y052543D02*
X032299Y052543D01*
X032299Y052640D02*
X032653Y052640D01*
D31*
X032003Y054072D03*
X030507Y054781D03*
X027554Y052222D03*
X025743Y054387D03*
X021649Y054387D03*
X026452Y048875D03*
X025389Y045017D03*
X023814Y044545D03*
X025428Y041710D03*
X027554Y041395D03*
X029208Y042576D03*
X028932Y044269D03*
X027279Y043875D03*
X022594Y040214D03*
X022042Y037655D03*
X023420Y037655D03*
X018854Y036474D03*
X018854Y035883D03*
X018854Y035293D03*
X018184Y035253D03*
X018184Y035883D03*
X018184Y036474D03*
X016294Y034781D03*
X015625Y034781D03*
X015940Y035411D03*
X015743Y033127D03*
X014956Y033127D03*
X014168Y033127D03*
X016531Y029387D03*
X017318Y029387D03*
X018105Y029387D03*
X018893Y029387D03*
X015743Y028403D03*
X015153Y028403D03*
D32*
X013381Y028403D03*
X015546Y039230D03*
X015940Y041198D03*
X019641Y040608D03*
X024011Y039072D03*
X024168Y038403D03*
X028342Y038442D03*
X031885Y041001D03*
X033066Y041001D03*
X033066Y042970D03*
X032476Y043363D03*
X030743Y042891D03*
X033854Y038127D03*
X034917Y036238D03*
X035428Y038521D03*
X032082Y037143D03*
X034838Y032340D03*
X034641Y030962D03*
X034641Y029978D03*
X035035Y027419D03*
X032869Y024860D03*
X028539Y023088D03*
X029287Y018009D03*
X033735Y018009D03*
X026964Y029978D03*
X023027Y019348D03*
X022042Y019348D03*
X020546Y052104D03*
D33*
X017515Y051238D03*
X036413Y051238D03*
X036413Y025647D03*
X014365Y025253D03*
M02*
