%
M48
M72
T01C0.0157
T02C0.0197
T03C0.0236
T04C0.0315
T05C0.0354
T06C0.0394
T07C0.0472
T08C0.0551
T09C0.0630
T10C0.0709
T11C0.1260
%
T01
X13381Y23482
X13972Y23482
X14562Y23482
X19090Y27025
X19877Y26828
X20665Y29190
X21373Y31710
X23617Y29190
X24405Y30175
X24798Y29190
X25783Y27615
X26570Y27222
X26964Y26434
X28381Y26238
X29168Y26198
X30507Y25450
X32082Y26356
X32436Y26080
X32791Y25804
X32436Y25529
X31964Y24269
X32357Y27104
X34444Y27615
X33460Y30568
X34641Y34112
X35822Y34112
X34956Y35529
X35822Y35883
X36413Y36080
X33854Y35883
X33066Y35883
X32869Y38245
X33460Y39623
X34405Y39623
X33657Y40411
X31294Y36277
X30310Y36080
X30310Y34112
X29917Y31749
X30113Y30568
X27357Y29387
X25389Y26041
X24798Y26041
X24011Y26041
X23617Y26238
X22830Y25844
X21058Y22497
X19759Y23206
X23420Y22104
X24602Y21789
X25586Y22497
X26452Y24033
X26964Y24269
X27948Y22300
X24247Y19269
X24011Y17537
X34444Y22300
X36609Y27419
X37397Y30175
X29129Y41198
X28145Y41198
X28145Y40804
X26964Y40608
X27554Y37458
X26767Y33324
X25980Y33324
X23420Y38245
X22042Y36277
X22042Y35883
X21452Y40017
X20586Y39978
X21649Y42773
X21452Y43954
X20980Y43875
X20350Y44466
X19680Y42930
X18696Y42970
X16334Y42379
X16019Y39702
X15350Y36710
X16531Y36277
X23420Y44348
X24208Y44308
X24917Y44348
X25586Y44545
X25980Y44308
X25783Y45332
X25586Y46316
X24405Y47182
X23814Y48875
X23224Y48875
X23617Y50135
X23184Y50765
X22830Y51041
X22909Y51552
X22830Y52222
X22042Y51946
X22633Y50253
X21452Y50056
X20940Y49269
X20113Y48482
X19562Y48482
X19562Y48049
X18105Y47970
X18184Y46513
X19680Y46513
X21924Y47497
X21964Y47891
X24208Y51041
X24602Y51238
X24602Y51631
X24208Y51828
X24602Y52222
X26334Y51631
X28539Y53009
X30113Y53403
X28932Y55096
X26767Y55096
X24602Y55096
X22633Y55096
X19602Y52261
X18539Y53009
X25783Y48875
X27830Y48521
X29129Y48875
X28814Y50056
X27830Y45726
X32672Y48678
X34050Y50056
X35231Y50056
X34641Y48482
X33460Y51238
X33066Y51828
X32476Y51238
X34168Y52222
T02
X21649Y41986
T03
X13420Y17812
X13381Y22694
X13381Y28403
X15153Y28403
X15743Y28403
X16531Y29387
X17318Y29387
X18105Y29387
X18893Y29387
X15743Y33127
X14956Y33127
X14168Y33127
X15625Y34781
X16294Y34781
X15940Y35411
X18184Y35253
X18184Y35883
X18184Y36474
X18854Y36474
X18854Y35883
X18854Y35293
X19877Y34308
X22042Y37655
X23420Y37655
X24168Y38403
X24011Y39072
X22594Y40214
X19641Y40608
X22436Y45332
X22436Y46537
X23420Y46513
X23420Y45332
X23814Y44545
X25389Y45017
X26373Y45726
X26373Y46513
X25192Y47694
X24405Y47694
X23617Y47694
X22830Y47694
X20546Y52104
X21649Y54387
X25743Y54387
X27554Y52222
X26452Y48875
X27279Y43875
X28932Y44269
X29208Y42576
X30743Y42891
X30507Y44741
X30507Y45726
X32476Y43363
X33066Y42970
X33066Y41001
X31885Y41001
X33854Y38127
X34917Y36238
X35428Y38521
X32082Y37143
X28342Y38442
X27554Y41395
X25428Y41710
X26964Y29978
X28539Y23088
X29326Y22891
X32869Y24860
X35035Y27419
X34641Y29978
X34641Y30962
X34838Y32340
X37279Y23049
X33735Y18009
X29287Y18009
X23027Y19348
X22042Y19348
X15546Y39230
X15940Y41198
X14956Y54190
X14956Y54938
X13696Y54978
X13696Y54190
X30507Y54781
X32003Y54072
T04
X33417Y54222
X34417Y54222
X35417Y54222
X30192Y50360
X30192Y49360
X28617Y47694
X28617Y46694
X28617Y45694
X31661Y40017
X32661Y40017
X27314Y28328
X26314Y28328
X25314Y28328
X24314Y28328
X23314Y28328
X22314Y28328
X21314Y28328
X20314Y28328
X20271Y30068
X20271Y31068
X20314Y25328
X21314Y25328
X22314Y25328
X23314Y25328
X24314Y25328
X25314Y25328
X26314Y25328
X27314Y25328
X28629Y25293
X29629Y25293
X17318Y46907
X17318Y47907
X17318Y48907
X16708Y54988
X17318Y55755
X17928Y54988
X19464Y54988
X20074Y55755
X20684Y54988
T05
X22751Y54367
X24483Y54367
T06
X18696Y45234
X17712Y45234
X16728Y45234
X16728Y44249
X17712Y44249
X18696Y44249
X15448Y50056
X14464Y50056
X14464Y51041
X14464Y52025
X15448Y52025
X15448Y51041
X22731Y32537
X23716Y32537
T07
X25086Y35096
X26086Y35096
T08
X19956Y45568
X15783Y48797
T09
X14129Y53285
X15468Y43915
X15743Y20923
X15743Y19151
T10
X18224Y18265
X18224Y21021
X22672Y21021
X22672Y18265
X27121Y18265
X27121Y21021
X31570Y21021
X31570Y18265
X36019Y18265
X36019Y21021
X16747Y41710
X13991Y41710
T11
X17515Y51238
X36413Y51238
X36413Y25647
X14365Y25253
M30
