G75*
%MOIN*%
%OFA0B0*%
%FSLAX24Y24*%
%IPPOS*%
%LPD*%
%AMOC8*
5,1,8,0,0,1.08239X$1,22.5*
%
%ADD10C,0.0059*%
%ADD11C,0.0050*%
%ADD12C,0.0134*%
%ADD13C,0.0364*%
%ADD14C,0.0108*%
%ADD15C,0.0084*%
%ADD16C,0.0098*%
%ADD17C,0.0079*%
%ADD18C,0.0069*%
%ADD19R,0.0945X0.1260*%
%ADD20C,0.0133*%
%ADD21C,0.0839*%
%ADD22R,0.0639X0.0639*%
%ADD23C,0.0639*%
%ADD24C,0.0217*%
%ADD25C,0.0049*%
%ADD26C,0.0083*%
%ADD27C,0.0270*%
%ADD28C,0.0089*%
%ADD29C,0.0128*%
%ADD30C,0.0137*%
%ADD31C,0.0146*%
%ADD32C,0.0167*%
%ADD33R,0.0787X0.0787*%
%ADD34C,0.0157*%
%ADD35R,0.0579X0.0579*%
%ADD36C,0.0207*%
%ADD37C,0.0177*%
%ADD38C,0.0787*%
%ADD39C,0.0739*%
%ADD40C,0.0709*%
%ADD41C,0.0433*%
%ADD42R,0.0779X0.0779*%
%ADD43C,0.0779*%
%ADD44C,0.1079*%
%ADD45C,0.0939*%
%ADD46R,0.0739X0.0739*%
%ADD47C,0.0472*%
%ADD48C,0.0579*%
%ADD49C,0.2619*%
D10*
X012594Y018363D02*
X012594Y057734D01*
X038184Y057734D01*
X038184Y018363D01*
X012594Y018363D01*
D11*
X012891Y058152D02*
X012816Y058227D01*
X012891Y058152D02*
X013041Y058152D01*
X013116Y058227D01*
X013116Y058302D01*
X013041Y058377D01*
X012891Y058377D01*
X012816Y058453D01*
X012816Y058528D01*
X012891Y058603D01*
X013041Y058603D01*
X013116Y058528D01*
X013276Y058603D02*
X013426Y058453D01*
X013576Y058603D01*
X013576Y058152D01*
X013736Y058152D02*
X014037Y058152D01*
X013886Y058152D02*
X013886Y058603D01*
X013736Y058453D01*
X014197Y058528D02*
X014197Y058227D01*
X014497Y058528D01*
X014497Y058227D01*
X014422Y058152D01*
X014272Y058152D01*
X014197Y058227D01*
X014197Y058528D02*
X014272Y058603D01*
X014422Y058603D01*
X014497Y058528D01*
X014657Y058528D02*
X014732Y058603D01*
X014882Y058603D01*
X014957Y058528D01*
X014657Y058227D01*
X014732Y058152D01*
X014882Y058152D01*
X014957Y058227D01*
X014957Y058528D01*
X015117Y058528D02*
X015193Y058603D01*
X015343Y058603D01*
X015418Y058528D01*
X015117Y058227D01*
X015193Y058152D01*
X015343Y058152D01*
X015418Y058227D01*
X015418Y058528D01*
X015578Y058377D02*
X015878Y058377D01*
X016038Y058377D02*
X016188Y058377D01*
X016038Y058152D02*
X016038Y058603D01*
X016339Y058603D01*
X017419Y058453D02*
X017570Y058603D01*
X017570Y058152D01*
X017720Y058152D02*
X017419Y058152D01*
X017880Y058152D02*
X018180Y058453D01*
X018180Y058528D01*
X018105Y058603D01*
X017955Y058603D01*
X017880Y058528D01*
X017880Y058152D02*
X018180Y058152D01*
X018340Y058152D02*
X018640Y058603D01*
X018801Y058453D02*
X018951Y058603D01*
X018951Y058152D01*
X018801Y058152D02*
X019101Y058152D01*
X019261Y058152D02*
X019561Y058152D01*
X019411Y058152D02*
X019411Y058603D01*
X019261Y058453D01*
X019721Y058152D02*
X020022Y058603D01*
X020182Y058453D02*
X020332Y058603D01*
X020332Y058152D01*
X020182Y058152D02*
X020482Y058152D01*
X020642Y058227D02*
X020717Y058152D01*
X020867Y058152D01*
X020942Y058227D01*
X020942Y058377D01*
X020867Y058453D01*
X020792Y058453D01*
X020642Y058377D01*
X020642Y058603D01*
X020942Y058603D01*
X021563Y058603D02*
X021563Y058152D01*
X021563Y058302D02*
X021788Y058302D01*
X021863Y058377D01*
X021863Y058528D01*
X021788Y058603D01*
X021563Y058603D01*
X021713Y058302D02*
X021863Y058152D01*
X022023Y058227D02*
X022098Y058152D01*
X022249Y058152D01*
X022324Y058227D01*
X022324Y058377D01*
X022174Y058377D01*
X022324Y058528D02*
X022249Y058603D01*
X022098Y058603D01*
X022023Y058528D01*
X022023Y058227D01*
X022484Y058152D02*
X022484Y058603D01*
X022709Y058603D01*
X022784Y058528D01*
X022784Y058453D01*
X022709Y058377D01*
X022484Y058377D01*
X022484Y058152D02*
X022709Y058152D01*
X022784Y058227D01*
X022784Y058302D01*
X022709Y058377D01*
X022944Y058227D02*
X023019Y058227D01*
X023019Y058152D01*
X022944Y058152D01*
X022944Y058227D01*
X015117Y058227D02*
X015117Y058528D01*
X014657Y058528D02*
X014657Y058227D01*
X013276Y058152D02*
X013276Y058603D01*
D12*
X023420Y053108D03*
X023420Y052911D03*
X023420Y052714D03*
X023617Y052714D03*
X023617Y052911D03*
X023617Y053108D03*
X023617Y053304D03*
X023814Y053304D03*
X023814Y053108D03*
X023814Y052911D03*
X023814Y052714D03*
D13*
X033179Y049815D02*
X033179Y048447D01*
X032087Y048447D01*
X032087Y049815D01*
X033179Y049815D01*
X033179Y048810D02*
X032087Y048810D01*
X032087Y049173D02*
X033179Y049173D01*
X033179Y049536D02*
X032087Y049536D01*
X033179Y046941D02*
X033179Y045573D01*
X032087Y045573D01*
X032087Y046941D01*
X033179Y046941D01*
X033179Y045936D02*
X032087Y045936D01*
X032087Y046299D02*
X033179Y046299D01*
X033179Y046662D02*
X032087Y046662D01*
X036762Y045957D02*
X036762Y044589D01*
X035670Y044589D01*
X035670Y045957D01*
X036762Y045957D01*
X036762Y044952D02*
X035670Y044952D01*
X035670Y045315D02*
X036762Y045315D01*
X036762Y045678D02*
X035670Y045678D01*
X036762Y047463D02*
X036762Y048831D01*
X036762Y047463D02*
X035670Y047463D01*
X035670Y048831D01*
X036762Y048831D01*
X036762Y047826D02*
X035670Y047826D01*
X035670Y048189D02*
X036762Y048189D01*
X036762Y048552D02*
X035670Y048552D01*
X018455Y029540D02*
X018455Y028172D01*
X017363Y028172D01*
X017363Y029540D01*
X018455Y029540D01*
X018455Y028535D02*
X017363Y028535D01*
X017363Y028898D02*
X018455Y028898D01*
X018455Y029261D02*
X017363Y029261D01*
X018455Y026666D02*
X018455Y025298D01*
X017363Y025298D01*
X017363Y026666D01*
X018455Y026666D01*
X018455Y025661D02*
X017363Y025661D01*
X017363Y026024D02*
X018455Y026024D01*
X018455Y026387D02*
X017363Y026387D01*
D14*
X021102Y037286D02*
X021102Y037630D01*
X021102Y037286D02*
X020778Y037286D01*
X020778Y037630D01*
X021102Y037630D01*
X021102Y037393D02*
X020778Y037393D01*
X020778Y037500D02*
X021102Y037500D01*
X021102Y037607D02*
X020778Y037607D01*
X021732Y037630D02*
X021732Y037286D01*
X021408Y037286D01*
X021408Y037630D01*
X021732Y037630D01*
X021732Y037393D02*
X021408Y037393D01*
X021408Y037500D02*
X021732Y037500D01*
X021732Y037607D02*
X021408Y037607D01*
X021732Y038467D02*
X021732Y038811D01*
X021732Y038467D02*
X021408Y038467D01*
X021408Y038811D01*
X021732Y038811D01*
X021732Y038574D02*
X021408Y038574D01*
X021408Y038681D02*
X021732Y038681D01*
X021732Y038788D02*
X021408Y038788D01*
X021102Y038811D02*
X021102Y038467D01*
X020778Y038467D01*
X020778Y038811D01*
X021102Y038811D01*
X021102Y038574D02*
X020778Y038574D01*
X020778Y038681D02*
X021102Y038681D01*
X021102Y038788D02*
X020778Y038788D01*
X019901Y042532D02*
X019341Y042532D01*
X019341Y042856D01*
X019901Y042856D01*
X019901Y042532D01*
X019901Y042639D02*
X019341Y042639D01*
X019341Y042746D02*
X019901Y042746D01*
X019901Y042853D02*
X019341Y042853D01*
X019341Y043713D02*
X019901Y043713D01*
X019341Y043713D02*
X019341Y044037D01*
X019901Y044037D01*
X019901Y043713D01*
X019901Y043820D02*
X019341Y043820D01*
X019341Y043927D02*
X019901Y043927D01*
X019901Y044034D02*
X019341Y044034D01*
X017342Y043713D02*
X016782Y043713D01*
X016782Y044037D01*
X017342Y044037D01*
X017342Y043713D01*
X017342Y043820D02*
X016782Y043820D01*
X016782Y043927D02*
X017342Y043927D01*
X017342Y044034D02*
X016782Y044034D01*
X016782Y042532D02*
X017342Y042532D01*
X016782Y042532D02*
X016782Y042856D01*
X017342Y042856D01*
X017342Y042532D01*
X017342Y042639D02*
X016782Y042639D01*
X016782Y042746D02*
X017342Y042746D01*
X017342Y042853D02*
X016782Y042853D01*
X017048Y042167D02*
X017392Y042167D01*
X017392Y041843D01*
X017048Y041843D01*
X017048Y042167D01*
X017048Y041950D02*
X017392Y041950D01*
X017392Y042057D02*
X017048Y042057D01*
X017048Y042164D02*
X017392Y042164D01*
X017392Y041537D02*
X017048Y041537D01*
X017392Y041537D02*
X017392Y041213D01*
X017048Y041213D01*
X017048Y041537D01*
X017048Y041320D02*
X017392Y041320D01*
X017392Y041427D02*
X017048Y041427D01*
X017048Y041534D02*
X017392Y041534D01*
X014734Y041439D02*
X014390Y041439D01*
X014734Y041439D02*
X014734Y041115D01*
X014390Y041115D01*
X014390Y041439D01*
X014390Y041222D02*
X014734Y041222D01*
X014734Y041329D02*
X014390Y041329D01*
X014390Y041436D02*
X014734Y041436D01*
X014734Y042069D02*
X014390Y042069D01*
X014734Y042069D02*
X014734Y041745D01*
X014390Y041745D01*
X014390Y042069D01*
X014390Y041852D02*
X014734Y041852D01*
X014734Y041959D02*
X014390Y041959D01*
X014390Y042066D02*
X014734Y042066D01*
X020581Y052089D02*
X020581Y052433D01*
X020905Y052433D01*
X020905Y052089D01*
X020581Y052089D01*
X020581Y052196D02*
X020905Y052196D01*
X020905Y052303D02*
X020581Y052303D01*
X020581Y052410D02*
X020905Y052410D01*
X021211Y052433D02*
X021211Y052089D01*
X021211Y052433D02*
X021535Y052433D01*
X021535Y052089D01*
X021211Y052089D01*
X021211Y052196D02*
X021535Y052196D01*
X021535Y052303D02*
X021211Y052303D01*
X021211Y052410D02*
X021535Y052410D01*
X022117Y043732D02*
X022117Y043388D01*
X022117Y043732D02*
X022441Y043732D01*
X022441Y043388D01*
X022117Y043388D01*
X022117Y043495D02*
X022441Y043495D01*
X022441Y043602D02*
X022117Y043602D01*
X022117Y043709D02*
X022441Y043709D01*
X022747Y043732D02*
X022747Y043388D01*
X022747Y043732D02*
X023071Y043732D01*
X023071Y043388D01*
X022747Y043388D01*
X022747Y043495D02*
X023071Y043495D01*
X023071Y043602D02*
X022747Y043602D01*
X022747Y043709D02*
X023071Y043709D01*
X025345Y043743D02*
X025345Y044087D01*
X025669Y044087D01*
X025669Y043743D01*
X025345Y043743D01*
X025345Y043850D02*
X025669Y043850D01*
X025669Y043957D02*
X025345Y043957D01*
X025345Y044064D02*
X025669Y044064D01*
X025975Y044087D02*
X025975Y043743D01*
X025975Y044087D02*
X026299Y044087D01*
X026299Y043743D01*
X025975Y043743D01*
X025975Y043850D02*
X026299Y043850D01*
X026299Y043957D02*
X025975Y043957D01*
X025975Y044064D02*
X026299Y044064D01*
X027086Y043732D02*
X027086Y043388D01*
X026762Y043388D01*
X026762Y043732D01*
X027086Y043732D01*
X027086Y043495D02*
X026762Y043495D01*
X026762Y043602D02*
X027086Y043602D01*
X027086Y043709D02*
X026762Y043709D01*
X027716Y043732D02*
X027716Y043388D01*
X027392Y043388D01*
X027392Y043732D01*
X027716Y043732D01*
X027716Y043495D02*
X027392Y043495D01*
X027392Y043602D02*
X027716Y043602D01*
X027716Y043709D02*
X027392Y043709D01*
X029764Y049628D02*
X029764Y049972D01*
X029764Y049628D02*
X029440Y049628D01*
X029440Y049972D01*
X029764Y049972D01*
X029764Y049735D02*
X029440Y049735D01*
X029440Y049842D02*
X029764Y049842D01*
X029764Y049949D02*
X029440Y049949D01*
X030393Y049972D02*
X030393Y049628D01*
X030069Y049628D01*
X030069Y049972D01*
X030393Y049972D01*
X030393Y049735D02*
X030069Y049735D01*
X030069Y049842D02*
X030393Y049842D01*
X030393Y049949D02*
X030069Y049949D01*
X032894Y044037D02*
X033238Y044037D01*
X033238Y043713D01*
X032894Y043713D01*
X032894Y044037D01*
X032894Y043820D02*
X033238Y043820D01*
X033238Y043927D02*
X032894Y043927D01*
X032894Y044034D02*
X033238Y044034D01*
X033238Y043407D02*
X032894Y043407D01*
X033238Y043407D02*
X033238Y043083D01*
X032894Y043083D01*
X032894Y043407D01*
X032894Y043190D02*
X033238Y043190D01*
X033238Y043297D02*
X032894Y043297D01*
X032894Y043404D02*
X033238Y043404D01*
X032451Y040367D02*
X032107Y040367D01*
X032107Y040691D01*
X032451Y040691D01*
X032451Y040367D01*
X032451Y040474D02*
X032107Y040474D01*
X032107Y040581D02*
X032451Y040581D01*
X032451Y040688D02*
X032107Y040688D01*
X032107Y039737D02*
X032451Y039737D01*
X032107Y039737D02*
X032107Y040061D01*
X032451Y040061D01*
X032451Y039737D01*
X032451Y039844D02*
X032107Y039844D01*
X032107Y039951D02*
X032451Y039951D01*
X032451Y040058D02*
X032107Y040058D01*
X036634Y033801D02*
X036978Y033801D01*
X036978Y033477D01*
X036634Y033477D01*
X036634Y033801D01*
X036634Y033584D02*
X036978Y033584D01*
X036978Y033691D02*
X036634Y033691D01*
X036634Y033798D02*
X036978Y033798D01*
X036978Y033171D02*
X036634Y033171D01*
X036978Y033171D02*
X036978Y032847D01*
X036634Y032847D01*
X036634Y033171D01*
X036634Y032954D02*
X036978Y032954D01*
X036978Y033061D02*
X036634Y033061D01*
X036634Y033168D02*
X036978Y033168D01*
D15*
X035750Y033272D02*
X035500Y033272D01*
X035750Y033272D02*
X035750Y033022D01*
X035500Y033022D01*
X035500Y033272D01*
X035500Y033105D02*
X035750Y033105D01*
X035750Y033188D02*
X035500Y033188D01*
X035500Y033271D02*
X035750Y033271D01*
X035750Y033626D02*
X035500Y033626D01*
X035750Y033626D02*
X035750Y033376D01*
X035500Y033376D01*
X035500Y033626D01*
X035500Y033459D02*
X035750Y033459D01*
X035750Y033542D02*
X035500Y033542D01*
X035500Y033625D02*
X035750Y033625D01*
X034175Y035044D02*
X033925Y035044D01*
X034175Y035044D02*
X034175Y034794D01*
X033925Y034794D01*
X033925Y035044D01*
X033925Y034877D02*
X034175Y034877D01*
X034175Y034960D02*
X033925Y034960D01*
X033925Y035043D02*
X034175Y035043D01*
X034175Y035398D02*
X033925Y035398D01*
X034175Y035398D02*
X034175Y035148D01*
X033925Y035148D01*
X033925Y035398D01*
X033925Y035231D02*
X034175Y035231D01*
X034175Y035314D02*
X033925Y035314D01*
X033925Y035397D02*
X034175Y035397D01*
X033585Y036565D02*
X033335Y036565D01*
X033335Y036815D01*
X033585Y036815D01*
X033585Y036565D01*
X033585Y036648D02*
X033335Y036648D01*
X033335Y036731D02*
X033585Y036731D01*
X033585Y036814D02*
X033335Y036814D01*
X033335Y036920D02*
X033585Y036920D01*
X033335Y036920D02*
X033335Y037170D01*
X033585Y037170D01*
X033585Y036920D01*
X033585Y037003D02*
X033335Y037003D01*
X033335Y037086D02*
X033585Y037086D01*
X033585Y037169D02*
X033335Y037169D01*
X035303Y038587D02*
X035553Y038587D01*
X035553Y038337D01*
X035303Y038337D01*
X035303Y038587D01*
X035303Y038420D02*
X035553Y038420D01*
X035553Y038503D02*
X035303Y038503D01*
X035303Y038586D02*
X035553Y038586D01*
X035553Y038941D02*
X035303Y038941D01*
X035553Y038941D02*
X035553Y038691D01*
X035303Y038691D01*
X035303Y038941D01*
X035303Y038774D02*
X035553Y038774D01*
X035553Y038857D02*
X035303Y038857D01*
X035303Y038940D02*
X035553Y038940D01*
X037272Y038744D02*
X037522Y038744D01*
X037522Y038494D01*
X037272Y038494D01*
X037272Y038744D01*
X037272Y038577D02*
X037522Y038577D01*
X037522Y038660D02*
X037272Y038660D01*
X037272Y038743D02*
X037522Y038743D01*
X037522Y038390D02*
X037272Y038390D01*
X037522Y038390D02*
X037522Y038140D01*
X037272Y038140D01*
X037272Y038390D01*
X037272Y038223D02*
X037522Y038223D01*
X037522Y038306D02*
X037272Y038306D01*
X037272Y038389D02*
X037522Y038389D01*
X037522Y036920D02*
X037272Y036920D01*
X037272Y037170D01*
X037522Y037170D01*
X037522Y036920D01*
X037522Y037003D02*
X037272Y037003D01*
X037272Y037086D02*
X037522Y037086D01*
X037522Y037169D02*
X037272Y037169D01*
X037272Y036565D02*
X037522Y036565D01*
X037272Y036565D02*
X037272Y036815D01*
X037522Y036815D01*
X037522Y036565D01*
X037522Y036648D02*
X037272Y036648D01*
X037272Y036731D02*
X037522Y036731D01*
X037522Y036814D02*
X037272Y036814D01*
X033585Y040109D02*
X033335Y040109D01*
X033335Y040359D01*
X033585Y040359D01*
X033585Y040109D01*
X033585Y040192D02*
X033335Y040192D01*
X033335Y040275D02*
X033585Y040275D01*
X033585Y040358D02*
X033335Y040358D01*
X033335Y040463D02*
X033585Y040463D01*
X033335Y040463D02*
X033335Y040713D01*
X033585Y040713D01*
X033585Y040463D01*
X033585Y040546D02*
X033335Y040546D01*
X033335Y040629D02*
X033585Y040629D01*
X033585Y040712D02*
X033335Y040712D01*
X033925Y043508D02*
X034175Y043508D01*
X034175Y043258D01*
X033925Y043258D01*
X033925Y043508D01*
X033925Y043341D02*
X034175Y043341D01*
X034175Y043424D02*
X033925Y043424D01*
X033925Y043507D02*
X034175Y043507D01*
X034175Y043863D02*
X033925Y043863D01*
X034175Y043863D02*
X034175Y043613D01*
X033925Y043613D01*
X033925Y043863D01*
X033925Y043696D02*
X034175Y043696D01*
X034175Y043779D02*
X033925Y043779D01*
X033925Y043862D02*
X034175Y043862D01*
X031341Y040581D02*
X031091Y040581D01*
X031091Y040831D01*
X031341Y040831D01*
X031341Y040581D01*
X031341Y040664D02*
X031091Y040664D01*
X031091Y040747D02*
X031341Y040747D01*
X031341Y040830D02*
X031091Y040830D01*
X031091Y040227D02*
X031341Y040227D01*
X031091Y040227D02*
X031091Y040477D01*
X031341Y040477D01*
X031341Y040227D01*
X031341Y040310D02*
X031091Y040310D01*
X031091Y040393D02*
X031341Y040393D01*
X031341Y040476D02*
X031091Y040476D01*
X028801Y043357D02*
X028801Y043607D01*
X028801Y043357D02*
X028551Y043357D01*
X028551Y043607D01*
X028801Y043607D01*
X028801Y043440D02*
X028551Y043440D01*
X028551Y043523D02*
X028801Y043523D01*
X028801Y043606D02*
X028551Y043606D01*
X028447Y043607D02*
X028447Y043357D01*
X028197Y043357D01*
X028197Y043607D01*
X028447Y043607D01*
X028447Y043440D02*
X028197Y043440D01*
X028197Y043523D02*
X028447Y043523D01*
X028447Y043606D02*
X028197Y043606D01*
X028447Y044026D02*
X028447Y044276D01*
X028447Y044026D02*
X028197Y044026D01*
X028197Y044276D01*
X028447Y044276D01*
X028447Y044109D02*
X028197Y044109D01*
X028197Y044192D02*
X028447Y044192D01*
X028447Y044275D02*
X028197Y044275D01*
X028801Y044276D02*
X028801Y044026D01*
X028551Y044026D01*
X028551Y044276D01*
X028801Y044276D01*
X028801Y044109D02*
X028551Y044109D01*
X028551Y044192D02*
X028801Y044192D01*
X028801Y044275D02*
X028551Y044275D01*
X028197Y045109D02*
X028197Y045359D01*
X028447Y045359D01*
X028447Y045109D01*
X028197Y045109D01*
X028197Y045192D02*
X028447Y045192D01*
X028447Y045275D02*
X028197Y045275D01*
X028197Y045358D02*
X028447Y045358D01*
X028197Y045699D02*
X028197Y045949D01*
X028447Y045949D01*
X028447Y045699D01*
X028197Y045699D01*
X028197Y045782D02*
X028447Y045782D01*
X028447Y045865D02*
X028197Y045865D01*
X028197Y045948D02*
X028447Y045948D01*
X027843Y045949D02*
X027843Y045699D01*
X027843Y045949D02*
X028093Y045949D01*
X028093Y045699D01*
X027843Y045699D01*
X027843Y045782D02*
X028093Y045782D01*
X028093Y045865D02*
X027843Y045865D01*
X027843Y045948D02*
X028093Y045948D01*
X027843Y045359D02*
X027843Y045109D01*
X027843Y045359D02*
X028093Y045359D01*
X028093Y045109D01*
X027843Y045109D01*
X027843Y045192D02*
X028093Y045192D01*
X028093Y045275D02*
X027843Y045275D01*
X027843Y045358D02*
X028093Y045358D01*
X027266Y044473D02*
X027266Y044223D01*
X027016Y044223D01*
X027016Y044473D01*
X027266Y044473D01*
X027266Y044306D02*
X027016Y044306D01*
X027016Y044389D02*
X027266Y044389D01*
X027266Y044472D02*
X027016Y044472D01*
X026912Y044473D02*
X026912Y044223D01*
X026662Y044223D01*
X026662Y044473D01*
X026912Y044473D01*
X026912Y044306D02*
X026662Y044306D01*
X026662Y044389D02*
X026912Y044389D01*
X026912Y044472D02*
X026662Y044472D01*
X025835Y044380D02*
X025835Y044630D01*
X026085Y044630D01*
X026085Y044380D01*
X025835Y044380D01*
X025835Y044463D02*
X026085Y044463D01*
X026085Y044546D02*
X025835Y044546D01*
X025835Y044629D02*
X026085Y044629D01*
X025480Y044630D02*
X025480Y044380D01*
X025480Y044630D02*
X025730Y044630D01*
X025730Y044380D01*
X025480Y044380D01*
X025480Y044463D02*
X025730Y044463D01*
X025730Y044546D02*
X025480Y044546D01*
X025480Y044629D02*
X025730Y044629D01*
X025553Y042878D02*
X025303Y042878D01*
X025553Y042878D02*
X025553Y042628D01*
X025303Y042628D01*
X025303Y042878D01*
X025303Y042711D02*
X025553Y042711D01*
X025553Y042794D02*
X025303Y042794D01*
X025303Y042877D02*
X025553Y042877D01*
X025553Y042524D02*
X025303Y042524D01*
X025553Y042524D02*
X025553Y042274D01*
X025303Y042274D01*
X025303Y042524D01*
X025303Y042357D02*
X025553Y042357D01*
X025553Y042440D02*
X025303Y042440D01*
X025303Y042523D02*
X025553Y042523D01*
X023112Y042431D02*
X022862Y042431D01*
X022862Y042681D01*
X023112Y042681D01*
X023112Y042431D01*
X023112Y042514D02*
X022862Y042514D01*
X022862Y042597D02*
X023112Y042597D01*
X023112Y042680D02*
X022862Y042680D01*
X022862Y042077D02*
X023112Y042077D01*
X022862Y042077D02*
X022862Y042327D01*
X023112Y042327D01*
X023112Y042077D01*
X023112Y042160D02*
X022862Y042160D01*
X022862Y042243D02*
X023112Y042243D01*
X023112Y042326D02*
X022862Y042326D01*
X020967Y042569D02*
X020967Y042819D01*
X020967Y042569D02*
X020717Y042569D01*
X020717Y042819D01*
X020967Y042819D01*
X020967Y042652D02*
X020717Y042652D01*
X020717Y042735D02*
X020967Y042735D01*
X020967Y042818D02*
X020717Y042818D01*
X020612Y042819D02*
X020612Y042569D01*
X020362Y042569D01*
X020362Y042819D01*
X020612Y042819D01*
X020612Y042652D02*
X020362Y042652D01*
X020362Y042735D02*
X020612Y042735D01*
X020612Y042818D02*
X020362Y042818D01*
X020205Y044341D02*
X020205Y044591D01*
X020455Y044591D01*
X020455Y044341D01*
X020205Y044341D01*
X020205Y044424D02*
X020455Y044424D01*
X020455Y044507D02*
X020205Y044507D01*
X020205Y044590D02*
X020455Y044590D01*
X020559Y044591D02*
X020559Y044341D01*
X020559Y044591D02*
X020809Y044591D01*
X020809Y044341D01*
X020559Y044341D01*
X020559Y044424D02*
X020809Y044424D01*
X020809Y044507D02*
X020559Y044507D01*
X020559Y044590D02*
X020809Y044590D01*
X020593Y045280D02*
X020343Y045280D01*
X020593Y045280D02*
X020593Y045030D01*
X020343Y045030D01*
X020343Y045280D01*
X020343Y045113D02*
X020593Y045113D01*
X020593Y045196D02*
X020343Y045196D01*
X020343Y045279D02*
X020593Y045279D01*
X020593Y045634D02*
X020343Y045634D01*
X020593Y045634D02*
X020593Y045384D01*
X020343Y045384D01*
X020343Y045634D01*
X020343Y045467D02*
X020593Y045467D01*
X020593Y045550D02*
X020343Y045550D01*
X020343Y045633D02*
X020593Y045633D01*
X018945Y049144D02*
X018945Y049394D01*
X019195Y049394D01*
X019195Y049144D01*
X018945Y049144D01*
X018945Y049227D02*
X019195Y049227D01*
X019195Y049310D02*
X018945Y049310D01*
X018945Y049393D02*
X019195Y049393D01*
X018591Y049394D02*
X018591Y049144D01*
X018591Y049394D02*
X018841Y049394D01*
X018841Y049144D01*
X018591Y049144D01*
X018591Y049227D02*
X018841Y049227D01*
X018841Y049310D02*
X018591Y049310D01*
X018591Y049393D02*
X018841Y049393D01*
X019811Y051382D02*
X020061Y051382D01*
X020061Y051132D01*
X019811Y051132D01*
X019811Y051382D01*
X019811Y051215D02*
X020061Y051215D01*
X020061Y051298D02*
X019811Y051298D01*
X019811Y051381D02*
X020061Y051381D01*
X020061Y051737D02*
X019811Y051737D01*
X020061Y051737D02*
X020061Y051487D01*
X019811Y051487D01*
X019811Y051737D01*
X019811Y051570D02*
X020061Y051570D01*
X020061Y051653D02*
X019811Y051653D01*
X019811Y051736D02*
X020061Y051736D01*
X020402Y051737D02*
X020652Y051737D01*
X020652Y051487D01*
X020402Y051487D01*
X020402Y051737D01*
X020402Y051570D02*
X020652Y051570D01*
X020652Y051653D02*
X020402Y051653D01*
X020402Y051736D02*
X020652Y051736D01*
X020652Y051382D02*
X020402Y051382D01*
X020652Y051382D02*
X020652Y051132D01*
X020402Y051132D01*
X020402Y051382D01*
X020402Y051215D02*
X020652Y051215D01*
X020652Y051298D02*
X020402Y051298D01*
X020402Y051381D02*
X020652Y051381D01*
X028093Y051506D02*
X028093Y051756D01*
X028093Y051506D02*
X027843Y051506D01*
X027843Y051756D01*
X028093Y051756D01*
X028093Y051589D02*
X027843Y051589D01*
X027843Y051672D02*
X028093Y051672D01*
X028093Y051755D02*
X027843Y051755D01*
X028447Y051756D02*
X028447Y051506D01*
X028197Y051506D01*
X028197Y051756D01*
X028447Y051756D01*
X028447Y051589D02*
X028197Y051589D01*
X028197Y051672D02*
X028447Y051672D01*
X028447Y051755D02*
X028197Y051755D01*
X028447Y051166D02*
X028447Y050916D01*
X028197Y050916D01*
X028197Y051166D01*
X028447Y051166D01*
X028447Y050999D02*
X028197Y050999D01*
X028197Y051082D02*
X028447Y051082D01*
X028447Y051165D02*
X028197Y051165D01*
X028093Y051166D02*
X028093Y050916D01*
X027843Y050916D01*
X027843Y051166D01*
X028093Y051166D01*
X028093Y050999D02*
X027843Y050999D01*
X027843Y051082D02*
X028093Y051082D01*
X028093Y051165D02*
X027843Y051165D01*
X031858Y056053D02*
X032108Y056053D01*
X031858Y056053D02*
X031858Y056303D01*
X032108Y056303D01*
X032108Y056053D01*
X032108Y056136D02*
X031858Y056136D01*
X031858Y056219D02*
X032108Y056219D01*
X032108Y056302D02*
X031858Y056302D01*
X031858Y056408D02*
X032108Y056408D01*
X031858Y056408D02*
X031858Y056658D01*
X032108Y056658D01*
X032108Y056408D01*
X032108Y056491D02*
X031858Y056491D01*
X031858Y056574D02*
X032108Y056574D01*
X032108Y056657D02*
X031858Y056657D01*
X034417Y053508D02*
X034667Y053508D01*
X034667Y053258D01*
X034417Y053258D01*
X034417Y053508D01*
X034417Y053341D02*
X034667Y053341D01*
X034667Y053424D02*
X034417Y053424D01*
X034417Y053507D02*
X034667Y053507D01*
X034667Y053154D02*
X034417Y053154D01*
X034667Y053154D02*
X034667Y052904D01*
X034417Y052904D01*
X034417Y053154D01*
X034417Y052987D02*
X034667Y052987D01*
X034667Y053070D02*
X034417Y053070D01*
X034417Y053153D02*
X034667Y053153D01*
X036386Y050699D02*
X036636Y050699D01*
X036386Y050699D02*
X036386Y050949D01*
X036636Y050949D01*
X036636Y050699D01*
X036636Y050782D02*
X036386Y050782D01*
X036386Y050865D02*
X036636Y050865D01*
X036636Y050948D02*
X036386Y050948D01*
X036386Y050345D02*
X036636Y050345D01*
X036386Y050345D02*
X036386Y050595D01*
X036636Y050595D01*
X036636Y050345D01*
X036636Y050428D02*
X036386Y050428D01*
X036386Y050511D02*
X036636Y050511D01*
X036636Y050594D02*
X036386Y050594D01*
X032994Y050542D02*
X032744Y050542D01*
X032744Y050792D01*
X032994Y050792D01*
X032994Y050542D01*
X032994Y050625D02*
X032744Y050625D01*
X032744Y050708D02*
X032994Y050708D01*
X032994Y050791D02*
X032744Y050791D01*
X032744Y050896D02*
X032994Y050896D01*
X032744Y050896D02*
X032744Y051146D01*
X032994Y051146D01*
X032994Y050896D01*
X032994Y050979D02*
X032744Y050979D01*
X032744Y051062D02*
X032994Y051062D01*
X032994Y051145D02*
X032744Y051145D01*
X021110Y036402D02*
X021110Y036152D01*
X021110Y036402D02*
X021360Y036402D01*
X021360Y036152D01*
X021110Y036152D01*
X021110Y036235D02*
X021360Y036235D01*
X021360Y036318D02*
X021110Y036318D01*
X021110Y036401D02*
X021360Y036401D01*
X020756Y036402D02*
X020756Y036152D01*
X020756Y036402D02*
X021006Y036402D01*
X021006Y036152D01*
X020756Y036152D01*
X020756Y036235D02*
X021006Y036235D01*
X021006Y036318D02*
X020756Y036318D01*
X020756Y036401D02*
X021006Y036401D01*
X018132Y041638D02*
X017882Y041638D01*
X018132Y041638D02*
X018132Y041388D01*
X017882Y041388D01*
X017882Y041638D01*
X017882Y041471D02*
X018132Y041471D01*
X018132Y041554D02*
X017882Y041554D01*
X017882Y041637D02*
X018132Y041637D01*
X018132Y041992D02*
X017882Y041992D01*
X018132Y041992D02*
X018132Y041742D01*
X017882Y041742D01*
X017882Y041992D01*
X017882Y041825D02*
X018132Y041825D01*
X018132Y041908D02*
X017882Y041908D01*
X017882Y041991D02*
X018132Y041991D01*
X016656Y042091D02*
X016406Y042091D01*
X016656Y042091D02*
X016656Y041841D01*
X016406Y041841D01*
X016406Y042091D01*
X016406Y041924D02*
X016656Y041924D01*
X016656Y042007D02*
X016406Y042007D01*
X016406Y042090D02*
X016656Y042090D01*
X016656Y041737D02*
X016406Y041737D01*
X016656Y041737D02*
X016656Y041487D01*
X016406Y041487D01*
X016406Y041737D01*
X016406Y041570D02*
X016656Y041570D01*
X016656Y041653D02*
X016406Y041653D01*
X016406Y041736D02*
X016656Y041736D01*
X015671Y041894D02*
X015421Y041894D01*
X015671Y041894D02*
X015671Y041644D01*
X015421Y041644D01*
X015421Y041894D01*
X015421Y041727D02*
X015671Y041727D01*
X015671Y041810D02*
X015421Y041810D01*
X015421Y041893D02*
X015671Y041893D01*
X015671Y041540D02*
X015421Y041540D01*
X015671Y041540D02*
X015671Y041290D01*
X015421Y041290D01*
X015421Y041540D01*
X015421Y041373D02*
X015671Y041373D01*
X015671Y041456D02*
X015421Y041456D01*
X015421Y041539D02*
X015671Y041539D01*
X014392Y040181D02*
X014392Y039931D01*
X014142Y039931D01*
X014142Y040181D01*
X014392Y040181D01*
X014392Y040014D02*
X014142Y040014D01*
X014142Y040097D02*
X014392Y040097D01*
X014392Y040180D02*
X014142Y040180D01*
X014038Y040181D02*
X014038Y039931D01*
X013788Y039931D01*
X013788Y040181D01*
X014038Y040181D01*
X014038Y040014D02*
X013788Y040014D01*
X013788Y040097D02*
X014038Y040097D01*
X014038Y040180D02*
X013788Y040180D01*
X013965Y039532D02*
X013965Y039282D01*
X013965Y039532D02*
X014215Y039532D01*
X014215Y039282D01*
X013965Y039282D01*
X013965Y039365D02*
X014215Y039365D01*
X014215Y039448D02*
X013965Y039448D01*
X013965Y039531D02*
X014215Y039531D01*
X014319Y039532D02*
X014319Y039282D01*
X014319Y039532D02*
X014569Y039532D01*
X014569Y039282D01*
X014319Y039282D01*
X014319Y039365D02*
X014569Y039365D01*
X014569Y039448D02*
X014319Y039448D01*
X014319Y039531D02*
X014569Y039531D01*
X015835Y038567D02*
X015835Y038317D01*
X015835Y038567D02*
X016085Y038567D01*
X016085Y038317D01*
X015835Y038317D01*
X015835Y038400D02*
X016085Y038400D01*
X016085Y038483D02*
X015835Y038483D01*
X015835Y038566D02*
X016085Y038566D01*
X016189Y038567D02*
X016189Y038317D01*
X016189Y038567D02*
X016439Y038567D01*
X016439Y038317D01*
X016189Y038317D01*
X016189Y038400D02*
X016439Y038400D01*
X016439Y038483D02*
X016189Y038483D01*
X016189Y038566D02*
X016439Y038566D01*
X016636Y025378D02*
X016636Y025128D01*
X016386Y025128D01*
X016386Y025378D01*
X016636Y025378D01*
X016636Y025211D02*
X016386Y025211D01*
X016386Y025294D02*
X016636Y025294D01*
X016636Y025377D02*
X016386Y025377D01*
X016282Y025378D02*
X016282Y025128D01*
X016032Y025128D01*
X016032Y025378D01*
X016282Y025378D01*
X016282Y025211D02*
X016032Y025211D01*
X016032Y025294D02*
X016282Y025294D01*
X016282Y025377D02*
X016032Y025377D01*
X026445Y032235D02*
X026695Y032235D01*
X026445Y032235D02*
X026445Y032485D01*
X026695Y032485D01*
X026695Y032235D01*
X026695Y032318D02*
X026445Y032318D01*
X026445Y032401D02*
X026695Y032401D01*
X026695Y032484D02*
X026445Y032484D01*
X026445Y032589D02*
X026695Y032589D01*
X026445Y032589D02*
X026445Y032839D01*
X026695Y032839D01*
X026695Y032589D01*
X026695Y032672D02*
X026445Y032672D01*
X026445Y032755D02*
X026695Y032755D01*
X026695Y032838D02*
X026445Y032838D01*
X029162Y029479D02*
X029412Y029479D01*
X029162Y029479D02*
X029162Y029729D01*
X029412Y029729D01*
X029412Y029479D01*
X029412Y029562D02*
X029162Y029562D01*
X029162Y029645D02*
X029412Y029645D01*
X029412Y029728D02*
X029162Y029728D01*
X029162Y029124D02*
X029412Y029124D01*
X029162Y029124D02*
X029162Y029374D01*
X029412Y029374D01*
X029412Y029124D01*
X029412Y029207D02*
X029162Y029207D01*
X029162Y029290D02*
X029412Y029290D01*
X029412Y029373D02*
X029162Y029373D01*
X033138Y027864D02*
X033388Y027864D01*
X033138Y027864D02*
X033138Y028114D01*
X033388Y028114D01*
X033388Y027864D01*
X033388Y027947D02*
X033138Y027947D01*
X033138Y028030D02*
X033388Y028030D01*
X033388Y028113D02*
X033138Y028113D01*
X033138Y027510D02*
X033388Y027510D01*
X033138Y027510D02*
X033138Y027760D01*
X033388Y027760D01*
X033388Y027510D01*
X033388Y027593D02*
X033138Y027593D01*
X033138Y027676D02*
X033388Y027676D01*
X033388Y027759D02*
X033138Y027759D01*
X033768Y030069D02*
X034018Y030069D01*
X033768Y030069D02*
X033768Y030319D01*
X034018Y030319D01*
X034018Y030069D01*
X034018Y030152D02*
X033768Y030152D01*
X033768Y030235D02*
X034018Y030235D01*
X034018Y030318D02*
X033768Y030318D01*
X033768Y030424D02*
X034018Y030424D01*
X033768Y030424D02*
X033768Y030674D01*
X034018Y030674D01*
X034018Y030424D01*
X034018Y030507D02*
X033768Y030507D01*
X033768Y030590D02*
X034018Y030590D01*
X034018Y030673D02*
X033768Y030673D01*
D16*
X029306Y038433D02*
X028952Y038433D01*
X029306Y038433D02*
X029306Y038137D01*
X028952Y038137D01*
X028952Y038433D01*
X028952Y038234D02*
X029306Y038234D01*
X029306Y038331D02*
X028952Y038331D01*
X028952Y038428D02*
X029306Y038428D01*
X029306Y039063D02*
X028952Y039063D01*
X029306Y039063D02*
X029306Y038767D01*
X028952Y038767D01*
X028952Y039063D01*
X028952Y038864D02*
X029306Y038864D01*
X029306Y038961D02*
X028952Y038961D01*
X028952Y039058D02*
X029306Y039058D01*
X028322Y039063D02*
X027968Y039063D01*
X028322Y039063D02*
X028322Y038767D01*
X027968Y038767D01*
X027968Y039063D01*
X027968Y038864D02*
X028322Y038864D01*
X028322Y038961D02*
X027968Y038961D01*
X027968Y039058D02*
X028322Y039058D01*
X028322Y038433D02*
X027968Y038433D01*
X028322Y038433D02*
X028322Y038137D01*
X027968Y038137D01*
X027968Y038433D01*
X027968Y038234D02*
X028322Y038234D01*
X028322Y038331D02*
X027968Y038331D01*
X027968Y038428D02*
X028322Y038428D01*
X027072Y042557D02*
X027072Y042911D01*
X027072Y042557D02*
X026776Y042557D01*
X026776Y042911D01*
X027072Y042911D01*
X027072Y042654D02*
X026776Y042654D01*
X026776Y042751D02*
X027072Y042751D01*
X027072Y042848D02*
X026776Y042848D01*
X026442Y042911D02*
X026442Y042557D01*
X026146Y042557D01*
X026146Y042911D01*
X026442Y042911D01*
X026442Y042654D02*
X026146Y042654D01*
X026146Y042751D02*
X026442Y042751D01*
X026442Y042848D02*
X026146Y042848D01*
X023057Y044171D02*
X023057Y044525D01*
X023057Y044171D02*
X022761Y044171D01*
X022761Y044525D01*
X023057Y044525D01*
X023057Y044268D02*
X022761Y044268D01*
X022761Y044365D02*
X023057Y044365D01*
X023057Y044462D02*
X022761Y044462D01*
X022427Y044525D02*
X022427Y044171D01*
X022131Y044171D01*
X022131Y044525D01*
X022427Y044525D01*
X022427Y044268D02*
X022131Y044268D01*
X022131Y044365D02*
X022427Y044365D01*
X022427Y044462D02*
X022131Y044462D01*
X022131Y041248D02*
X021835Y041248D01*
X022131Y041248D02*
X022131Y040952D01*
X021835Y040952D01*
X021835Y041248D01*
X021835Y041049D02*
X022131Y041049D01*
X022131Y041146D02*
X021835Y041146D01*
X021835Y041243D02*
X022131Y041243D01*
X022426Y041248D02*
X022722Y041248D01*
X022722Y040952D01*
X022426Y040952D01*
X022426Y041248D01*
X022426Y041049D02*
X022722Y041049D01*
X022722Y041146D02*
X022426Y041146D01*
X022426Y041243D02*
X022722Y041243D01*
X019553Y041375D02*
X019553Y041729D01*
X019553Y041375D02*
X019257Y041375D01*
X019257Y041729D01*
X019553Y041729D01*
X019553Y041472D02*
X019257Y041472D01*
X019257Y041569D02*
X019553Y041569D01*
X019553Y041666D02*
X019257Y041666D01*
X018923Y041729D02*
X018923Y041375D01*
X018627Y041375D01*
X018627Y041729D01*
X018923Y041729D01*
X018923Y041472D02*
X018627Y041472D01*
X018627Y041569D02*
X018923Y041569D01*
X018923Y041666D02*
X018627Y041666D01*
X020104Y034485D02*
X020104Y034131D01*
X019808Y034131D01*
X019808Y034485D01*
X020104Y034485D01*
X020104Y034228D02*
X019808Y034228D01*
X019808Y034325D02*
X020104Y034325D01*
X020104Y034422D02*
X019808Y034422D01*
X020734Y034485D02*
X020734Y034131D01*
X020438Y034131D01*
X020438Y034485D01*
X020734Y034485D01*
X020734Y034228D02*
X020438Y034228D01*
X020438Y034325D02*
X020734Y034325D01*
X020734Y034422D02*
X020438Y034422D01*
X018746Y033373D02*
X018450Y033373D01*
X018450Y033669D01*
X018746Y033669D01*
X018746Y033373D01*
X018746Y033470D02*
X018450Y033470D01*
X018450Y033567D02*
X018746Y033567D01*
X018746Y033664D02*
X018450Y033664D01*
X018155Y033373D02*
X017859Y033373D01*
X017859Y033669D01*
X018155Y033669D01*
X018155Y033373D01*
X018155Y033470D02*
X017859Y033470D01*
X017859Y033567D02*
X018155Y033567D01*
X018155Y033664D02*
X017859Y033664D01*
X018233Y050273D02*
X018233Y050627D01*
X018529Y050627D01*
X018529Y050273D01*
X018233Y050273D01*
X018233Y050370D02*
X018529Y050370D01*
X018529Y050467D02*
X018233Y050467D01*
X018233Y050564D02*
X018529Y050564D01*
X018863Y050627D02*
X018863Y050273D01*
X018863Y050627D02*
X019159Y050627D01*
X019159Y050273D01*
X018863Y050273D01*
X018863Y050370D02*
X019159Y050370D01*
X019159Y050467D02*
X018863Y050467D01*
X018863Y050564D02*
X019159Y050564D01*
X020595Y052872D02*
X020595Y053226D01*
X020891Y053226D01*
X020891Y052872D01*
X020595Y052872D01*
X020595Y052969D02*
X020891Y052969D01*
X020891Y053066D02*
X020595Y053066D01*
X020595Y053163D02*
X020891Y053163D01*
X021225Y053226D02*
X021225Y052872D01*
X021225Y053226D02*
X021521Y053226D01*
X021521Y052872D01*
X021225Y052872D01*
X021225Y052969D02*
X021521Y052969D01*
X021521Y053066D02*
X021225Y053066D01*
X021225Y053163D02*
X021521Y053163D01*
X019267Y054417D02*
X018913Y054417D01*
X019267Y054417D02*
X019267Y054121D01*
X018913Y054121D01*
X018913Y054417D01*
X018913Y054218D02*
X019267Y054218D01*
X019267Y054315D02*
X018913Y054315D01*
X018913Y054412D02*
X019267Y054412D01*
X019267Y055047D02*
X018913Y055047D01*
X019267Y055047D02*
X019267Y054751D01*
X018913Y054751D01*
X018913Y055047D01*
X018913Y054848D02*
X019267Y054848D01*
X019267Y054945D02*
X018913Y054945D01*
X018913Y055042D02*
X019267Y055042D01*
X022505Y056976D02*
X022505Y057310D01*
X022801Y057310D01*
X022801Y056976D01*
X022505Y056976D01*
X022505Y057073D02*
X022801Y057073D01*
X022801Y057170D02*
X022505Y057170D01*
X022505Y057267D02*
X022801Y057267D01*
X023253Y057310D02*
X023253Y056976D01*
X023253Y057310D02*
X023549Y057310D01*
X023549Y056976D01*
X023253Y056976D01*
X023253Y057073D02*
X023549Y057073D01*
X023549Y057170D02*
X023253Y057170D01*
X023253Y057267D02*
X023549Y057267D01*
X024670Y057310D02*
X024670Y056976D01*
X024670Y057310D02*
X024966Y057310D01*
X024966Y056976D01*
X024670Y056976D01*
X024670Y057073D02*
X024966Y057073D01*
X024966Y057170D02*
X024670Y057170D01*
X024670Y057267D02*
X024966Y057267D01*
X025418Y057310D02*
X025418Y056976D01*
X025418Y057310D02*
X025714Y057310D01*
X025714Y056976D01*
X025418Y056976D01*
X025418Y057073D02*
X025714Y057073D01*
X025714Y057170D02*
X025418Y057170D01*
X025418Y057267D02*
X025714Y057267D01*
X026835Y057310D02*
X026835Y056976D01*
X026835Y057310D02*
X027131Y057310D01*
X027131Y056976D01*
X026835Y056976D01*
X026835Y057073D02*
X027131Y057073D01*
X027131Y057170D02*
X026835Y057170D01*
X026835Y057267D02*
X027131Y057267D01*
X027583Y057310D02*
X027583Y056976D01*
X027583Y057310D02*
X027879Y057310D01*
X027879Y056976D01*
X027583Y056976D01*
X027583Y057073D02*
X027879Y057073D01*
X027879Y057170D02*
X027583Y057170D01*
X027583Y057267D02*
X027879Y057267D01*
X029001Y057310D02*
X029001Y056976D01*
X029001Y057310D02*
X029297Y057310D01*
X029297Y056976D01*
X029001Y056976D01*
X029001Y057073D02*
X029297Y057073D01*
X029297Y057170D02*
X029001Y057170D01*
X029001Y057267D02*
X029297Y057267D01*
X029749Y057310D02*
X029749Y056976D01*
X029749Y057310D02*
X030045Y057310D01*
X030045Y056976D01*
X029749Y056976D01*
X029749Y057073D02*
X030045Y057073D01*
X030045Y057170D02*
X029749Y057170D01*
X029749Y057267D02*
X030045Y057267D01*
X025408Y053373D02*
X025054Y053373D01*
X025054Y053669D01*
X025408Y053669D01*
X025408Y053373D01*
X025408Y053470D02*
X025054Y053470D01*
X025054Y053567D02*
X025408Y053567D01*
X025408Y053664D02*
X025054Y053664D01*
X025054Y052743D02*
X025408Y052743D01*
X025054Y052743D02*
X025054Y053039D01*
X025408Y053039D01*
X025408Y052743D01*
X025408Y052840D02*
X025054Y052840D01*
X025054Y052937D02*
X025408Y052937D01*
X025408Y053034D02*
X025054Y053034D01*
X029543Y047960D02*
X029897Y047960D01*
X029897Y047664D01*
X029543Y047664D01*
X029543Y047960D01*
X029543Y047761D02*
X029897Y047761D01*
X029897Y047858D02*
X029543Y047858D01*
X029543Y047955D02*
X029897Y047955D01*
X029897Y047330D02*
X029543Y047330D01*
X029897Y047330D02*
X029897Y047034D01*
X029543Y047034D01*
X029543Y047330D01*
X029543Y047131D02*
X029897Y047131D01*
X029897Y047228D02*
X029543Y047228D01*
X029543Y047325D02*
X029897Y047325D01*
X029897Y046090D02*
X029543Y046090D01*
X029543Y046386D01*
X029897Y046386D01*
X029897Y046090D01*
X029897Y046187D02*
X029543Y046187D01*
X029543Y046284D02*
X029897Y046284D01*
X029897Y046381D02*
X029543Y046381D01*
X029543Y045460D02*
X029897Y045460D01*
X029543Y045460D02*
X029543Y045756D01*
X029897Y045756D01*
X029897Y045460D01*
X029897Y045557D02*
X029543Y045557D01*
X029543Y045654D02*
X029897Y045654D01*
X029897Y045751D02*
X029543Y045751D01*
X033873Y050184D02*
X034227Y050184D01*
X033873Y050184D02*
X033873Y050480D01*
X034227Y050480D01*
X034227Y050184D01*
X034227Y050281D02*
X033873Y050281D01*
X033873Y050378D02*
X034227Y050378D01*
X034227Y050475D02*
X033873Y050475D01*
X033873Y050814D02*
X034227Y050814D01*
X033873Y050814D02*
X033873Y051110D01*
X034227Y051110D01*
X034227Y050814D01*
X034227Y050911D02*
X033873Y050911D01*
X033873Y051008D02*
X034227Y051008D01*
X034227Y051105D02*
X033873Y051105D01*
X035153Y050814D02*
X035507Y050814D01*
X035153Y050814D02*
X035153Y051110D01*
X035507Y051110D01*
X035507Y050814D01*
X035507Y050911D02*
X035153Y050911D01*
X035153Y051008D02*
X035507Y051008D01*
X035507Y051105D02*
X035153Y051105D01*
X035153Y050184D02*
X035507Y050184D01*
X035153Y050184D02*
X035153Y050480D01*
X035507Y050480D01*
X035507Y050184D01*
X035507Y050281D02*
X035153Y050281D01*
X035153Y050378D02*
X035507Y050378D01*
X035507Y050475D02*
X035153Y050475D01*
D17*
X033540Y051651D02*
X033304Y051651D01*
X033304Y052517D01*
X033540Y052517D01*
X033540Y051651D01*
X033540Y051729D02*
X033304Y051729D01*
X033304Y051807D02*
X033540Y051807D01*
X033540Y051885D02*
X033304Y051885D01*
X033304Y051963D02*
X033540Y051963D01*
X033540Y052041D02*
X033304Y052041D01*
X033304Y052119D02*
X033540Y052119D01*
X033540Y052197D02*
X033304Y052197D01*
X033304Y052275D02*
X033540Y052275D01*
X033540Y052353D02*
X033304Y052353D01*
X033304Y052431D02*
X033540Y052431D01*
X033540Y052509D02*
X033304Y052509D01*
X033040Y051651D02*
X032804Y051651D01*
X032804Y052517D01*
X033040Y052517D01*
X033040Y051651D01*
X033040Y051729D02*
X032804Y051729D01*
X032804Y051807D02*
X033040Y051807D01*
X033040Y051885D02*
X032804Y051885D01*
X032804Y051963D02*
X033040Y051963D01*
X033040Y052041D02*
X032804Y052041D01*
X032804Y052119D02*
X033040Y052119D01*
X033040Y052197D02*
X032804Y052197D01*
X032804Y052275D02*
X033040Y052275D01*
X033040Y052353D02*
X032804Y052353D01*
X032804Y052431D02*
X033040Y052431D01*
X033040Y052509D02*
X032804Y052509D01*
X032540Y051651D02*
X032304Y051651D01*
X032304Y052517D01*
X032540Y052517D01*
X032540Y051651D01*
X032540Y051729D02*
X032304Y051729D01*
X032304Y051807D02*
X032540Y051807D01*
X032540Y051885D02*
X032304Y051885D01*
X032304Y051963D02*
X032540Y051963D01*
X032540Y052041D02*
X032304Y052041D01*
X032304Y052119D02*
X032540Y052119D01*
X032540Y052197D02*
X032304Y052197D01*
X032304Y052275D02*
X032540Y052275D01*
X032540Y052353D02*
X032304Y052353D01*
X032304Y052431D02*
X032540Y052431D01*
X032540Y052509D02*
X032304Y052509D01*
X032040Y051651D02*
X031804Y051651D01*
X031804Y052517D01*
X032040Y052517D01*
X032040Y051651D01*
X032040Y051729D02*
X031804Y051729D01*
X031804Y051807D02*
X032040Y051807D01*
X032040Y051885D02*
X031804Y051885D01*
X031804Y051963D02*
X032040Y051963D01*
X032040Y052041D02*
X031804Y052041D01*
X031804Y052119D02*
X032040Y052119D01*
X032040Y052197D02*
X031804Y052197D01*
X031804Y052275D02*
X032040Y052275D01*
X032040Y052353D02*
X031804Y052353D01*
X031804Y052431D02*
X032040Y052431D01*
X032040Y052509D02*
X031804Y052509D01*
X031804Y053698D02*
X032040Y053698D01*
X031804Y053698D02*
X031804Y054564D01*
X032040Y054564D01*
X032040Y053698D01*
X032040Y053776D02*
X031804Y053776D01*
X031804Y053854D02*
X032040Y053854D01*
X032040Y053932D02*
X031804Y053932D01*
X031804Y054010D02*
X032040Y054010D01*
X032040Y054088D02*
X031804Y054088D01*
X031804Y054166D02*
X032040Y054166D01*
X032040Y054244D02*
X031804Y054244D01*
X031804Y054322D02*
X032040Y054322D01*
X032040Y054400D02*
X031804Y054400D01*
X031804Y054478D02*
X032040Y054478D01*
X032040Y054556D02*
X031804Y054556D01*
X032304Y053698D02*
X032540Y053698D01*
X032304Y053698D02*
X032304Y054564D01*
X032540Y054564D01*
X032540Y053698D01*
X032540Y053776D02*
X032304Y053776D01*
X032304Y053854D02*
X032540Y053854D01*
X032540Y053932D02*
X032304Y053932D01*
X032304Y054010D02*
X032540Y054010D01*
X032540Y054088D02*
X032304Y054088D01*
X032304Y054166D02*
X032540Y054166D01*
X032540Y054244D02*
X032304Y054244D01*
X032304Y054322D02*
X032540Y054322D01*
X032540Y054400D02*
X032304Y054400D01*
X032304Y054478D02*
X032540Y054478D01*
X032540Y054556D02*
X032304Y054556D01*
X032804Y053698D02*
X033040Y053698D01*
X032804Y053698D02*
X032804Y054564D01*
X033040Y054564D01*
X033040Y053698D01*
X033040Y053776D02*
X032804Y053776D01*
X032804Y053854D02*
X033040Y053854D01*
X033040Y053932D02*
X032804Y053932D01*
X032804Y054010D02*
X033040Y054010D01*
X033040Y054088D02*
X032804Y054088D01*
X032804Y054166D02*
X033040Y054166D01*
X033040Y054244D02*
X032804Y054244D01*
X032804Y054322D02*
X033040Y054322D01*
X033040Y054400D02*
X032804Y054400D01*
X032804Y054478D02*
X033040Y054478D01*
X033040Y054556D02*
X032804Y054556D01*
X033304Y053698D02*
X033540Y053698D01*
X033304Y053698D02*
X033304Y054564D01*
X033540Y054564D01*
X033540Y053698D01*
X033540Y053776D02*
X033304Y053776D01*
X033304Y053854D02*
X033540Y053854D01*
X033540Y053932D02*
X033304Y053932D01*
X033304Y054010D02*
X033540Y054010D01*
X033540Y054088D02*
X033304Y054088D01*
X033304Y054166D02*
X033540Y054166D01*
X033540Y054244D02*
X033304Y054244D01*
X033304Y054322D02*
X033540Y054322D01*
X033540Y054400D02*
X033304Y054400D01*
X033304Y054478D02*
X033540Y054478D01*
X033540Y054556D02*
X033304Y054556D01*
X030035Y056031D02*
X030035Y056287D01*
X030035Y056031D02*
X029799Y056031D01*
X029799Y056287D01*
X030035Y056287D01*
X030035Y056109D02*
X029799Y056109D01*
X029799Y056187D02*
X030035Y056187D01*
X030035Y056265D02*
X029799Y056265D01*
X029641Y056287D02*
X029641Y056031D01*
X029405Y056031D01*
X029405Y056287D01*
X029641Y056287D01*
X029641Y056109D02*
X029405Y056109D01*
X029405Y056187D02*
X029641Y056187D01*
X029641Y056265D02*
X029405Y056265D01*
X027869Y056287D02*
X027869Y056031D01*
X027633Y056031D01*
X027633Y056287D01*
X027869Y056287D01*
X027869Y056109D02*
X027633Y056109D01*
X027633Y056187D02*
X027869Y056187D01*
X027869Y056265D02*
X027633Y056265D01*
X027475Y056287D02*
X027475Y056031D01*
X027239Y056031D01*
X027239Y056287D01*
X027475Y056287D01*
X027475Y056109D02*
X027239Y056109D01*
X027239Y056187D02*
X027475Y056187D01*
X027475Y056265D02*
X027239Y056265D01*
X025281Y056277D02*
X025025Y056277D01*
X025281Y056277D02*
X025281Y056041D01*
X025025Y056041D01*
X025025Y056277D01*
X025025Y056119D02*
X025281Y056119D01*
X025281Y056197D02*
X025025Y056197D01*
X025025Y056275D02*
X025281Y056275D01*
X025281Y055883D02*
X025025Y055883D01*
X025281Y055883D02*
X025281Y055647D01*
X025025Y055647D01*
X025025Y055883D01*
X025025Y055725D02*
X025281Y055725D01*
X025281Y055803D02*
X025025Y055803D01*
X025025Y055881D02*
X025281Y055881D01*
X023548Y056001D02*
X023292Y056001D01*
X023548Y056001D02*
X023548Y055765D01*
X023292Y055765D01*
X023292Y056001D01*
X023292Y055843D02*
X023548Y055843D01*
X023548Y055921D02*
X023292Y055921D01*
X023292Y055999D02*
X023548Y055999D01*
X023548Y056395D02*
X023292Y056395D01*
X023548Y056395D02*
X023548Y056159D01*
X023292Y056159D01*
X023292Y056395D01*
X023292Y056237D02*
X023548Y056237D01*
X023548Y056315D02*
X023292Y056315D01*
X023292Y056393D02*
X023548Y056393D01*
X022564Y053639D02*
X022308Y053639D01*
X022564Y053639D02*
X022564Y053403D01*
X022308Y053403D01*
X022308Y053639D01*
X022308Y053481D02*
X022564Y053481D01*
X022564Y053559D02*
X022308Y053559D01*
X022308Y053637D02*
X022564Y053637D01*
X022564Y053245D02*
X022308Y053245D01*
X022564Y053245D02*
X022564Y053009D01*
X022308Y053009D01*
X022308Y053245D01*
X022308Y053087D02*
X022564Y053087D01*
X022564Y053165D02*
X022308Y053165D01*
X022308Y053243D02*
X022564Y053243D01*
X022564Y052497D02*
X022308Y052497D01*
X022308Y052733D01*
X022564Y052733D01*
X022564Y052497D01*
X022564Y052575D02*
X022308Y052575D01*
X022308Y052653D02*
X022564Y052653D01*
X022564Y052731D02*
X022308Y052731D01*
X022308Y052104D02*
X022564Y052104D01*
X022308Y052104D02*
X022308Y052340D01*
X022564Y052340D01*
X022564Y052104D01*
X022564Y052182D02*
X022308Y052182D01*
X022308Y052260D02*
X022564Y052260D01*
X022564Y052338D02*
X022308Y052338D01*
X021156Y054210D02*
X020684Y054210D01*
X020684Y054446D01*
X021156Y054446D01*
X021156Y054210D01*
X021156Y054288D02*
X020684Y054288D01*
X020684Y054366D02*
X021156Y054366D01*
X021156Y054444D02*
X020684Y054444D01*
X020684Y054584D02*
X021156Y054584D01*
X020684Y054584D02*
X020684Y054820D01*
X021156Y054820D01*
X021156Y054584D01*
X021156Y054662D02*
X020684Y054662D01*
X020684Y054740D02*
X021156Y054740D01*
X021156Y054818D02*
X020684Y054818D01*
X020684Y054958D02*
X021156Y054958D01*
X020684Y054958D02*
X020684Y055194D01*
X021156Y055194D01*
X021156Y054958D01*
X021156Y055036D02*
X020684Y055036D01*
X020684Y055114D02*
X021156Y055114D01*
X021156Y055192D02*
X020684Y055192D01*
X020251Y054958D02*
X019779Y054958D01*
X019779Y055194D01*
X020251Y055194D01*
X020251Y054958D01*
X020251Y055036D02*
X019779Y055036D01*
X019779Y055114D02*
X020251Y055114D01*
X020251Y055192D02*
X019779Y055192D01*
X019779Y054210D02*
X020251Y054210D01*
X019779Y054210D02*
X019779Y054446D01*
X020251Y054446D01*
X020251Y054210D01*
X020251Y054288D02*
X019779Y054288D01*
X019779Y054366D02*
X020251Y054366D01*
X020251Y054444D02*
X019779Y054444D01*
X018233Y054663D02*
X017977Y054663D01*
X017977Y054899D01*
X018233Y054899D01*
X018233Y054663D01*
X018233Y054741D02*
X017977Y054741D01*
X017977Y054819D02*
X018233Y054819D01*
X018233Y054897D02*
X017977Y054897D01*
X017977Y055057D02*
X018233Y055057D01*
X017977Y055057D02*
X017977Y055293D01*
X018233Y055293D01*
X018233Y055057D01*
X018233Y055135D02*
X017977Y055135D01*
X017977Y055213D02*
X018233Y055213D01*
X018233Y055291D02*
X017977Y055291D01*
X017643Y055057D02*
X017387Y055057D01*
X017387Y055293D01*
X017643Y055293D01*
X017643Y055057D01*
X017643Y055135D02*
X017387Y055135D01*
X017387Y055213D02*
X017643Y055213D01*
X017643Y055291D02*
X017387Y055291D01*
X017052Y055057D02*
X016796Y055057D01*
X016796Y055293D01*
X017052Y055293D01*
X017052Y055057D01*
X017052Y055135D02*
X016796Y055135D01*
X016796Y055213D02*
X017052Y055213D01*
X017052Y055291D02*
X016796Y055291D01*
X016462Y055214D02*
X016206Y055214D01*
X016206Y055450D01*
X016462Y055450D01*
X016462Y055214D01*
X016462Y055292D02*
X016206Y055292D01*
X016206Y055370D02*
X016462Y055370D01*
X016462Y055448D02*
X016206Y055448D01*
X016206Y055608D02*
X016462Y055608D01*
X016206Y055608D02*
X016206Y055844D01*
X016462Y055844D01*
X016462Y055608D01*
X016462Y055686D02*
X016206Y055686D01*
X016206Y055764D02*
X016462Y055764D01*
X016462Y055842D02*
X016206Y055842D01*
X016796Y054663D02*
X017052Y054663D01*
X016796Y054663D02*
X016796Y054899D01*
X017052Y054899D01*
X017052Y054663D01*
X017052Y054741D02*
X016796Y054741D01*
X016796Y054819D02*
X017052Y054819D01*
X017052Y054897D02*
X016796Y054897D01*
X017387Y054663D02*
X017643Y054663D01*
X017387Y054663D02*
X017387Y054899D01*
X017643Y054899D01*
X017643Y054663D01*
X017643Y054741D02*
X017387Y054741D01*
X017387Y054819D02*
X017643Y054819D01*
X017643Y054897D02*
X017387Y054897D01*
X018617Y049988D02*
X018617Y049732D01*
X018381Y049732D01*
X018381Y049988D01*
X018617Y049988D01*
X018617Y049810D02*
X018381Y049810D01*
X018381Y049888D02*
X018617Y049888D01*
X018617Y049966D02*
X018381Y049966D01*
X019011Y049988D02*
X019011Y049732D01*
X018775Y049732D01*
X018775Y049988D01*
X019011Y049988D01*
X019011Y049810D02*
X018775Y049810D01*
X018775Y049888D02*
X019011Y049888D01*
X019011Y049966D02*
X018775Y049966D01*
X018814Y048806D02*
X018814Y048550D01*
X018578Y048550D01*
X018578Y048806D01*
X018814Y048806D01*
X018814Y048628D02*
X018578Y048628D01*
X018578Y048706D02*
X018814Y048706D01*
X018814Y048784D02*
X018578Y048784D01*
X019208Y048806D02*
X019208Y048550D01*
X018972Y048550D01*
X018972Y048806D01*
X019208Y048806D01*
X019208Y048628D02*
X018972Y048628D01*
X018972Y048706D02*
X019208Y048706D01*
X019208Y048784D02*
X018972Y048784D01*
X019208Y048216D02*
X019208Y047960D01*
X018972Y047960D01*
X018972Y048216D01*
X019208Y048216D01*
X019208Y048038D02*
X018972Y048038D01*
X018972Y048116D02*
X019208Y048116D01*
X019208Y048194D02*
X018972Y048194D01*
X018814Y048216D02*
X018814Y047960D01*
X018578Y047960D01*
X018578Y048216D01*
X018814Y048216D01*
X018814Y048038D02*
X018578Y048038D01*
X018578Y048116D02*
X018814Y048116D01*
X018814Y048194D02*
X018578Y048194D01*
X019631Y048836D02*
X019887Y048836D01*
X019887Y048600D01*
X019631Y048600D01*
X019631Y048836D01*
X019631Y048678D02*
X019887Y048678D01*
X019887Y048756D02*
X019631Y048756D01*
X019631Y048834D02*
X019887Y048834D01*
X019887Y049230D02*
X019631Y049230D01*
X019887Y049230D02*
X019887Y048994D01*
X019631Y048994D01*
X019631Y049230D01*
X019631Y049072D02*
X019887Y049072D01*
X019887Y049150D02*
X019631Y049150D01*
X019631Y049228D02*
X019887Y049228D01*
X020586Y043688D02*
X020586Y043432D01*
X020350Y043432D01*
X020350Y043688D01*
X020586Y043688D01*
X020586Y043510D02*
X020350Y043510D01*
X020350Y043588D02*
X020586Y043588D01*
X020586Y043666D02*
X020350Y043666D01*
X020979Y043688D02*
X020979Y043432D01*
X020743Y043432D01*
X020743Y043688D01*
X020979Y043688D01*
X020979Y043510D02*
X020743Y043510D01*
X020743Y043588D02*
X020979Y043588D01*
X020979Y043666D02*
X020743Y043666D01*
X021914Y042694D02*
X022170Y042694D01*
X022170Y042458D01*
X021914Y042458D01*
X021914Y042694D01*
X021914Y042536D02*
X022170Y042536D01*
X022170Y042614D02*
X021914Y042614D01*
X021914Y042692D02*
X022170Y042692D01*
X022170Y042300D02*
X021914Y042300D01*
X022170Y042300D02*
X022170Y042064D01*
X021914Y042064D01*
X021914Y042300D01*
X021914Y042142D02*
X022170Y042142D01*
X022170Y042220D02*
X021914Y042220D01*
X021914Y042298D02*
X022170Y042298D01*
X020822Y042182D02*
X020822Y041710D01*
X020822Y042182D02*
X021058Y042182D01*
X021058Y041710D01*
X020822Y041710D01*
X020822Y041788D02*
X021058Y041788D01*
X021058Y041866D02*
X020822Y041866D01*
X020822Y041944D02*
X021058Y041944D01*
X021058Y042022D02*
X020822Y042022D01*
X020822Y042100D02*
X021058Y042100D01*
X021058Y042178D02*
X020822Y042178D01*
X020074Y042182D02*
X020074Y041710D01*
X020074Y042182D02*
X020310Y042182D01*
X020310Y041710D01*
X020074Y041710D01*
X020074Y041788D02*
X020310Y041788D01*
X020310Y041866D02*
X020074Y041866D01*
X020074Y041944D02*
X020310Y041944D01*
X020310Y042022D02*
X020074Y042022D01*
X020074Y042100D02*
X020310Y042100D01*
X020310Y042178D02*
X020074Y042178D01*
X020074Y041277D02*
X020074Y040805D01*
X020074Y041277D02*
X020310Y041277D01*
X020310Y040805D01*
X020074Y040805D01*
X020074Y040883D02*
X020310Y040883D01*
X020310Y040961D02*
X020074Y040961D01*
X020074Y041039D02*
X020310Y041039D01*
X020310Y041117D02*
X020074Y041117D01*
X020074Y041195D02*
X020310Y041195D01*
X020310Y041273D02*
X020074Y041273D01*
X020448Y041277D02*
X020448Y040805D01*
X020448Y041277D02*
X020684Y041277D01*
X020684Y040805D01*
X020448Y040805D01*
X020448Y040883D02*
X020684Y040883D01*
X020684Y040961D02*
X020448Y040961D01*
X020448Y041039D02*
X020684Y041039D01*
X020684Y041117D02*
X020448Y041117D01*
X020448Y041195D02*
X020684Y041195D01*
X020684Y041273D02*
X020448Y041273D01*
X020822Y041277D02*
X020822Y040805D01*
X020822Y041277D02*
X021058Y041277D01*
X021058Y040805D01*
X020822Y040805D01*
X020822Y040883D02*
X021058Y040883D01*
X021058Y040961D02*
X020822Y040961D01*
X020822Y041039D02*
X021058Y041039D01*
X021058Y041117D02*
X020822Y041117D01*
X020822Y041195D02*
X021058Y041195D01*
X021058Y041273D02*
X020822Y041273D01*
X020940Y038177D02*
X020940Y037921D01*
X020940Y038177D02*
X021176Y038177D01*
X021176Y037921D01*
X020940Y037921D01*
X020940Y037999D02*
X021176Y037999D01*
X021176Y038077D02*
X020940Y038077D01*
X020940Y038155D02*
X021176Y038155D01*
X021334Y038177D02*
X021334Y037921D01*
X021334Y038177D02*
X021570Y038177D01*
X021570Y037921D01*
X021334Y037921D01*
X021334Y037999D02*
X021570Y037999D01*
X021570Y038077D02*
X021334Y038077D01*
X021334Y038155D02*
X021570Y038155D01*
X021570Y036995D02*
X021570Y036739D01*
X021334Y036739D01*
X021334Y036995D01*
X021570Y036995D01*
X021570Y036817D02*
X021334Y036817D01*
X021334Y036895D02*
X021570Y036895D01*
X021570Y036973D02*
X021334Y036973D01*
X021176Y036995D02*
X021176Y036739D01*
X020940Y036739D01*
X020940Y036995D01*
X021176Y036995D01*
X021176Y036817D02*
X020940Y036817D01*
X020940Y036895D02*
X021176Y036895D01*
X021176Y036973D02*
X020940Y036973D01*
X020743Y035814D02*
X020743Y035558D01*
X020743Y035814D02*
X020979Y035814D01*
X020979Y035558D01*
X020743Y035558D01*
X020743Y035636D02*
X020979Y035636D01*
X020979Y035714D02*
X020743Y035714D01*
X020743Y035792D02*
X020979Y035792D01*
X021137Y035814D02*
X021137Y035558D01*
X021137Y035814D02*
X021373Y035814D01*
X021373Y035558D01*
X021137Y035558D01*
X021137Y035636D02*
X021373Y035636D01*
X021373Y035714D02*
X021137Y035714D01*
X021137Y035792D02*
X021373Y035792D01*
X021412Y033846D02*
X021412Y033590D01*
X021176Y033590D01*
X021176Y033846D01*
X021412Y033846D01*
X021412Y033668D02*
X021176Y033668D01*
X021176Y033746D02*
X021412Y033746D01*
X021412Y033824D02*
X021176Y033824D01*
X021019Y033846D02*
X021019Y033590D01*
X020783Y033590D01*
X020783Y033846D01*
X021019Y033846D01*
X021019Y033668D02*
X020783Y033668D01*
X020783Y033746D02*
X021019Y033746D01*
X021019Y033824D02*
X020783Y033824D01*
X018233Y032655D02*
X017977Y032655D01*
X018233Y032655D02*
X018233Y032419D01*
X017977Y032419D01*
X017977Y032655D01*
X017977Y032497D02*
X018233Y032497D01*
X018233Y032575D02*
X017977Y032575D01*
X017977Y032653D02*
X018233Y032653D01*
X018233Y032261D02*
X017977Y032261D01*
X018233Y032261D02*
X018233Y032025D01*
X017977Y032025D01*
X017977Y032261D01*
X017977Y032103D02*
X018233Y032103D01*
X018233Y032181D02*
X017977Y032181D01*
X017977Y032259D02*
X018233Y032259D01*
X013302Y029565D02*
X013302Y029249D01*
X013302Y029565D02*
X013538Y029565D01*
X013538Y029249D01*
X013302Y029249D01*
X013302Y029327D02*
X013538Y029327D01*
X013538Y029405D02*
X013302Y029405D01*
X013302Y029483D02*
X013538Y029483D01*
X013538Y029561D02*
X013302Y029561D01*
X013302Y028581D02*
X013302Y028265D01*
X013302Y028581D02*
X013538Y028581D01*
X013538Y028265D01*
X013302Y028265D01*
X013302Y028343D02*
X013538Y028343D01*
X013538Y028421D02*
X013302Y028421D01*
X013302Y028499D02*
X013538Y028499D01*
X013538Y028577D02*
X013302Y028577D01*
X015418Y043915D02*
X015674Y043915D01*
X015674Y043679D01*
X015418Y043679D01*
X015418Y043915D01*
X015418Y043757D02*
X015674Y043757D01*
X015674Y043835D02*
X015418Y043835D01*
X015418Y043913D02*
X015674Y043913D01*
X015674Y044308D02*
X015418Y044308D01*
X015674Y044308D02*
X015674Y044072D01*
X015418Y044072D01*
X015418Y044308D01*
X015418Y044150D02*
X015674Y044150D01*
X015674Y044228D02*
X015418Y044228D01*
X015418Y044306D02*
X015674Y044306D01*
X024080Y044033D02*
X024336Y044033D01*
X024080Y044033D02*
X024080Y044269D01*
X024336Y044269D01*
X024336Y044033D01*
X024336Y044111D02*
X024080Y044111D01*
X024080Y044189D02*
X024336Y044189D01*
X024336Y044267D02*
X024080Y044267D01*
X024080Y044427D02*
X024336Y044427D01*
X024080Y044427D02*
X024080Y044663D01*
X024336Y044663D01*
X024336Y044427D01*
X024336Y044505D02*
X024080Y044505D01*
X024080Y044583D02*
X024336Y044583D01*
X024336Y044661D02*
X024080Y044661D01*
X028932Y050913D02*
X028932Y051169D01*
X028932Y050913D02*
X028696Y050913D01*
X028696Y051169D01*
X028932Y051169D01*
X028932Y050991D02*
X028696Y050991D01*
X028696Y051069D02*
X028932Y051069D01*
X028932Y051147D02*
X028696Y051147D01*
X029326Y051169D02*
X029326Y050913D01*
X029090Y050913D01*
X029090Y051169D01*
X029326Y051169D01*
X029326Y050991D02*
X029090Y050991D01*
X029090Y051069D02*
X029326Y051069D01*
X029326Y051147D02*
X029090Y051147D01*
X028460Y052094D02*
X028460Y052350D01*
X028460Y052094D02*
X028224Y052094D01*
X028224Y052350D01*
X028460Y052350D01*
X028460Y052172D02*
X028224Y052172D01*
X028224Y052250D02*
X028460Y052250D01*
X028460Y052328D02*
X028224Y052328D01*
X028066Y052350D02*
X028066Y052094D01*
X027830Y052094D01*
X027830Y052350D01*
X028066Y052350D01*
X028066Y052172D02*
X027830Y052172D01*
X027830Y052250D02*
X028066Y052250D01*
X028066Y052328D02*
X027830Y052328D01*
X029956Y049102D02*
X029956Y048846D01*
X029720Y048846D01*
X029720Y049102D01*
X029956Y049102D01*
X029956Y048924D02*
X029720Y048924D01*
X029720Y049002D02*
X029956Y049002D01*
X029956Y049080D02*
X029720Y049080D01*
X030349Y049102D02*
X030349Y048846D01*
X030113Y048846D01*
X030113Y049102D01*
X030349Y049102D01*
X030349Y048924D02*
X030113Y048924D01*
X030113Y049002D02*
X030349Y049002D01*
X030349Y049080D02*
X030113Y049080D01*
X034277Y040726D02*
X034533Y040726D01*
X034533Y040490D01*
X034277Y040490D01*
X034277Y040726D01*
X034277Y040568D02*
X034533Y040568D01*
X034533Y040646D02*
X034277Y040646D01*
X034277Y040724D02*
X034533Y040724D01*
X034533Y040332D02*
X034277Y040332D01*
X034533Y040332D02*
X034533Y040096D01*
X034277Y040096D01*
X034277Y040332D01*
X034277Y040174D02*
X034533Y040174D01*
X034533Y040252D02*
X034277Y040252D01*
X034277Y040330D02*
X034533Y040330D01*
X036285Y038521D02*
X036541Y038521D01*
X036285Y038521D02*
X036285Y038757D01*
X036541Y038757D01*
X036541Y038521D01*
X036541Y038599D02*
X036285Y038599D01*
X036285Y038677D02*
X036541Y038677D01*
X036541Y038755D02*
X036285Y038755D01*
X036285Y038127D02*
X036541Y038127D01*
X036285Y038127D02*
X036285Y038363D01*
X036541Y038363D01*
X036541Y038127D01*
X036541Y038205D02*
X036285Y038205D01*
X036285Y038283D02*
X036541Y038283D01*
X036541Y038361D02*
X036285Y038361D01*
X036285Y037182D02*
X036541Y037182D01*
X036541Y036946D01*
X036285Y036946D01*
X036285Y037182D01*
X036285Y037024D02*
X036541Y037024D01*
X036541Y037102D02*
X036285Y037102D01*
X036285Y037180D02*
X036541Y037180D01*
X036541Y036789D02*
X036285Y036789D01*
X036541Y036789D02*
X036541Y036553D01*
X036285Y036553D01*
X036285Y036789D01*
X036285Y036631D02*
X036541Y036631D01*
X036541Y036709D02*
X036285Y036709D01*
X036285Y036787D02*
X036541Y036787D01*
X035517Y036553D02*
X035261Y036553D01*
X035261Y036789D01*
X035517Y036789D01*
X035517Y036553D01*
X035517Y036631D02*
X035261Y036631D01*
X035261Y036709D02*
X035517Y036709D01*
X035517Y036787D02*
X035261Y036787D01*
X035261Y036946D02*
X035517Y036946D01*
X035261Y036946D02*
X035261Y037182D01*
X035517Y037182D01*
X035517Y036946D01*
X035517Y037024D02*
X035261Y037024D01*
X035261Y037102D02*
X035517Y037102D01*
X035517Y037180D02*
X035261Y037180D01*
X034572Y036946D02*
X034316Y036946D01*
X034316Y037182D01*
X034572Y037182D01*
X034572Y036946D01*
X034572Y037024D02*
X034316Y037024D01*
X034316Y037102D02*
X034572Y037102D01*
X034572Y037180D02*
X034316Y037180D01*
X034316Y036553D02*
X034572Y036553D01*
X034316Y036553D02*
X034316Y036789D01*
X034572Y036789D01*
X034572Y036553D01*
X034572Y036631D02*
X034316Y036631D01*
X034316Y036709D02*
X034572Y036709D01*
X034572Y036787D02*
X034316Y036787D01*
X035103Y035411D02*
X035359Y035411D01*
X035359Y035175D01*
X035103Y035175D01*
X035103Y035411D01*
X035103Y035253D02*
X035359Y035253D01*
X035359Y035331D02*
X035103Y035331D01*
X035103Y035409D02*
X035359Y035409D01*
X035359Y035017D02*
X035103Y035017D01*
X035359Y035017D02*
X035359Y034781D01*
X035103Y034781D01*
X035103Y035017D01*
X035103Y034859D02*
X035359Y034859D01*
X035359Y034937D02*
X035103Y034937D01*
X035103Y035015D02*
X035359Y035015D01*
X036285Y035017D02*
X036541Y035017D01*
X036541Y034781D01*
X036285Y034781D01*
X036285Y035017D01*
X036285Y034859D02*
X036541Y034859D01*
X036541Y034937D02*
X036285Y034937D01*
X036285Y035015D02*
X036541Y035015D01*
X036541Y035411D02*
X036285Y035411D01*
X036541Y035411D02*
X036541Y035175D01*
X036285Y035175D01*
X036285Y035411D01*
X036285Y035253D02*
X036541Y035253D01*
X036541Y035331D02*
X036285Y035331D01*
X036285Y035409D02*
X036541Y035409D01*
X032604Y035411D02*
X032348Y035411D01*
X032604Y035411D02*
X032604Y035175D01*
X032348Y035175D01*
X032348Y035411D01*
X032348Y035253D02*
X032604Y035253D01*
X032604Y035331D02*
X032348Y035331D01*
X032348Y035409D02*
X032604Y035409D01*
X032604Y035017D02*
X032348Y035017D01*
X032604Y035017D02*
X032604Y034781D01*
X032348Y034781D01*
X032348Y035017D01*
X032348Y034859D02*
X032604Y034859D01*
X032604Y034937D02*
X032348Y034937D01*
X032348Y035015D02*
X032604Y035015D01*
X032604Y033245D02*
X032348Y033245D01*
X032604Y033245D02*
X032604Y033009D01*
X032348Y033009D01*
X032348Y033245D01*
X032348Y033087D02*
X032604Y033087D01*
X032604Y033165D02*
X032348Y033165D01*
X032348Y033243D02*
X032604Y033243D01*
X032604Y032852D02*
X032348Y032852D01*
X032604Y032852D02*
X032604Y032616D01*
X032348Y032616D01*
X032348Y032852D01*
X032348Y032694D02*
X032604Y032694D01*
X032604Y032772D02*
X032348Y032772D01*
X032348Y032850D02*
X032604Y032850D01*
X031422Y032616D02*
X031166Y032616D01*
X031166Y032852D01*
X031422Y032852D01*
X031422Y032616D01*
X031422Y032694D02*
X031166Y032694D01*
X031166Y032772D02*
X031422Y032772D01*
X031422Y032850D02*
X031166Y032850D01*
X031166Y033009D02*
X031422Y033009D01*
X031166Y033009D02*
X031166Y033245D01*
X031422Y033245D01*
X031422Y033009D01*
X031422Y033087D02*
X031166Y033087D01*
X031166Y033165D02*
X031422Y033165D01*
X031422Y033243D02*
X031166Y033243D01*
X029493Y036001D02*
X029237Y036001D01*
X029493Y036001D02*
X029493Y035765D01*
X029237Y035765D01*
X029237Y036001D01*
X029237Y035843D02*
X029493Y035843D01*
X029493Y035921D02*
X029237Y035921D01*
X029237Y035999D02*
X029493Y035999D01*
X029493Y036395D02*
X029237Y036395D01*
X029493Y036395D02*
X029493Y036159D01*
X029237Y036159D01*
X029237Y036395D01*
X029237Y036237D02*
X029493Y036237D01*
X029493Y036315D02*
X029237Y036315D01*
X029237Y036393D02*
X029493Y036393D01*
X029415Y028521D02*
X029159Y028521D01*
X029159Y028757D01*
X029415Y028757D01*
X029415Y028521D01*
X029415Y028599D02*
X029159Y028599D01*
X029159Y028677D02*
X029415Y028677D01*
X029415Y028755D02*
X029159Y028755D01*
X029159Y028127D02*
X029415Y028127D01*
X029159Y028127D02*
X029159Y028363D01*
X029415Y028363D01*
X029415Y028127D01*
X029415Y028205D02*
X029159Y028205D01*
X029159Y028283D02*
X029415Y028283D01*
X029415Y028361D02*
X029159Y028361D01*
D18*
X020069Y036604D02*
X019193Y036604D01*
X019193Y036812D01*
X020069Y036812D01*
X020069Y036604D01*
X020069Y036672D02*
X019193Y036672D01*
X019193Y036740D02*
X020069Y036740D01*
X020069Y036808D02*
X019193Y036808D01*
X019193Y037104D02*
X020069Y037104D01*
X019193Y037104D02*
X019193Y037312D01*
X020069Y037312D01*
X020069Y037104D01*
X020069Y037172D02*
X019193Y037172D01*
X019193Y037240D02*
X020069Y037240D01*
X020069Y037308D02*
X019193Y037308D01*
X019193Y037604D02*
X020069Y037604D01*
X019193Y037604D02*
X019193Y037812D01*
X020069Y037812D01*
X020069Y037604D01*
X020069Y037672D02*
X019193Y037672D01*
X019193Y037740D02*
X020069Y037740D01*
X020069Y037808D02*
X019193Y037808D01*
X019193Y038104D02*
X020069Y038104D01*
X019193Y038104D02*
X019193Y038312D01*
X020069Y038312D01*
X020069Y038104D01*
X020069Y038172D02*
X019193Y038172D01*
X019193Y038240D02*
X020069Y038240D01*
X020069Y038308D02*
X019193Y038308D01*
X017805Y038104D02*
X016929Y038104D01*
X016929Y038312D01*
X017805Y038312D01*
X017805Y038104D01*
X017805Y038172D02*
X016929Y038172D01*
X016929Y038240D02*
X017805Y038240D01*
X017805Y038308D02*
X016929Y038308D01*
X016929Y037604D02*
X017805Y037604D01*
X016929Y037604D02*
X016929Y037812D01*
X017805Y037812D01*
X017805Y037604D01*
X017805Y037672D02*
X016929Y037672D01*
X016929Y037740D02*
X017805Y037740D01*
X017805Y037808D02*
X016929Y037808D01*
X016929Y037104D02*
X017805Y037104D01*
X016929Y037104D02*
X016929Y037312D01*
X017805Y037312D01*
X017805Y037104D01*
X017805Y037172D02*
X016929Y037172D01*
X016929Y037240D02*
X017805Y037240D01*
X017805Y037308D02*
X016929Y037308D01*
X016929Y036604D02*
X017805Y036604D01*
X016929Y036604D02*
X016929Y036812D01*
X017805Y036812D01*
X017805Y036604D01*
X017805Y036672D02*
X016929Y036672D01*
X016929Y036740D02*
X017805Y036740D01*
X017805Y036808D02*
X016929Y036808D01*
D19*
X018499Y037458D03*
D20*
X017528Y033228D02*
X016518Y033228D01*
X017528Y033228D02*
X017528Y032830D01*
X016518Y032830D01*
X016518Y033228D01*
X016518Y032962D02*
X017528Y032962D01*
X017528Y033094D02*
X016518Y033094D01*
X016518Y033226D02*
X017528Y033226D01*
X017528Y032047D02*
X016518Y032047D01*
X017528Y032047D02*
X017528Y031649D01*
X016518Y031649D01*
X016518Y032047D01*
X016518Y031781D02*
X017528Y031781D01*
X017528Y031913D02*
X016518Y031913D01*
X016518Y032045D02*
X017528Y032045D01*
X014363Y036205D02*
X014363Y037215D01*
X014761Y037215D01*
X014761Y036205D01*
X014363Y036205D01*
X014363Y036337D02*
X014761Y036337D01*
X014761Y036469D02*
X014363Y036469D01*
X014363Y036601D02*
X014761Y036601D01*
X014761Y036733D02*
X014363Y036733D01*
X014363Y036865D02*
X014761Y036865D01*
X014761Y036997D02*
X014363Y036997D01*
X014363Y037129D02*
X014761Y037129D01*
X014363Y037740D02*
X014363Y038750D01*
X014761Y038750D01*
X014761Y037740D01*
X014363Y037740D01*
X014363Y037872D02*
X014761Y037872D01*
X014761Y038004D02*
X014363Y038004D01*
X014363Y038136D02*
X014761Y038136D01*
X014761Y038268D02*
X014363Y038268D01*
X014363Y038400D02*
X014761Y038400D01*
X014761Y038532D02*
X014363Y038532D01*
X014363Y038664D02*
X014761Y038664D01*
X013182Y038750D02*
X013182Y037740D01*
X013182Y038750D02*
X013580Y038750D01*
X013580Y037740D01*
X013182Y037740D01*
X013182Y037872D02*
X013580Y037872D01*
X013580Y038004D02*
X013182Y038004D01*
X013182Y038136D02*
X013580Y038136D01*
X013580Y038268D02*
X013182Y038268D01*
X013182Y038400D02*
X013580Y038400D01*
X013580Y038532D02*
X013182Y038532D01*
X013182Y038664D02*
X013580Y038664D01*
X013182Y037215D02*
X013182Y036205D01*
X013182Y037215D02*
X013580Y037215D01*
X013580Y036205D01*
X013182Y036205D01*
X013182Y036337D02*
X013580Y036337D01*
X013580Y036469D02*
X013182Y036469D01*
X013182Y036601D02*
X013580Y036601D01*
X013580Y036733D02*
X013182Y036733D01*
X013182Y036865D02*
X013580Y036865D01*
X013580Y036997D02*
X013182Y036997D01*
X013182Y037129D02*
X013580Y037129D01*
X027025Y052888D02*
X027025Y053484D01*
X027025Y052888D02*
X026627Y052888D01*
X026627Y053484D01*
X027025Y053484D01*
X027025Y053020D02*
X026627Y053020D01*
X026627Y053152D02*
X027025Y053152D01*
X027025Y053284D02*
X026627Y053284D01*
X026627Y053416D02*
X027025Y053416D01*
X028206Y053484D02*
X028206Y052888D01*
X027808Y052888D01*
X027808Y053484D01*
X028206Y053484D01*
X028206Y053020D02*
X027808Y053020D01*
X027808Y053152D02*
X028206Y053152D01*
X028206Y053284D02*
X027808Y053284D01*
X027808Y053416D02*
X028206Y053416D01*
X031183Y044547D02*
X032193Y044547D01*
X032193Y044149D01*
X031183Y044149D01*
X031183Y044547D01*
X031183Y044281D02*
X032193Y044281D01*
X032193Y044413D02*
X031183Y044413D01*
X031183Y044545D02*
X032193Y044545D01*
X032193Y043366D02*
X031183Y043366D01*
X032193Y043366D02*
X032193Y042968D01*
X031183Y042968D01*
X031183Y043366D01*
X031183Y043100D02*
X032193Y043100D01*
X032193Y043232D02*
X031183Y043232D01*
X031183Y043364D02*
X032193Y043364D01*
X031248Y034897D02*
X030238Y034897D01*
X030238Y035295D01*
X031248Y035295D01*
X031248Y034897D01*
X031248Y035029D02*
X030238Y035029D01*
X030238Y035161D02*
X031248Y035161D01*
X031248Y035293D02*
X030238Y035293D01*
X030238Y033716D02*
X031248Y033716D01*
X030238Y033716D02*
X030238Y034114D01*
X031248Y034114D01*
X031248Y033716D01*
X031248Y033848D02*
X030238Y033848D01*
X030238Y033980D02*
X031248Y033980D01*
X031248Y034112D02*
X030238Y034112D01*
X030343Y031157D02*
X029333Y031157D01*
X029333Y031555D01*
X030343Y031555D01*
X030343Y031157D01*
X030343Y031289D02*
X029333Y031289D01*
X029333Y031421D02*
X030343Y031421D01*
X030343Y031553D02*
X029333Y031553D01*
X029333Y029976D02*
X030343Y029976D01*
X029333Y029976D02*
X029333Y030374D01*
X030343Y030374D01*
X030343Y029976D01*
X030343Y030108D02*
X029333Y030108D01*
X029333Y030240D02*
X030343Y030240D01*
X030343Y030372D02*
X029333Y030372D01*
X036301Y030566D02*
X037311Y030566D01*
X036301Y030566D02*
X036301Y030964D01*
X037311Y030964D01*
X037311Y030566D01*
X037311Y030698D02*
X036301Y030698D01*
X036301Y030830D02*
X037311Y030830D01*
X037311Y030962D02*
X036301Y030962D01*
X036301Y029385D02*
X037311Y029385D01*
X036301Y029385D02*
X036301Y029783D01*
X037311Y029783D01*
X037311Y029385D01*
X037311Y029517D02*
X036301Y029517D01*
X036301Y029649D02*
X037311Y029649D01*
X037311Y029781D02*
X036301Y029781D01*
D21*
X025086Y036671D03*
X033417Y055797D03*
X034417Y055797D03*
X035417Y055797D03*
D22*
X030192Y051934D03*
X028617Y049269D03*
X031661Y041592D03*
X029629Y026867D03*
X020271Y031643D03*
X017318Y048482D03*
D23*
X017318Y049482D03*
X017318Y050482D03*
X028617Y048269D03*
X028617Y047269D03*
X030192Y050934D03*
X032661Y041592D03*
X028629Y026867D03*
X020271Y032643D03*
D24*
X021226Y032212D02*
X022072Y032212D01*
X021226Y032212D02*
X021226Y032862D01*
X022072Y032862D01*
X022072Y032212D01*
X022072Y032428D02*
X021226Y032428D01*
X021226Y032644D02*
X022072Y032644D01*
X022072Y032860D02*
X021226Y032860D01*
X021226Y031031D02*
X022072Y031031D01*
X021226Y031031D02*
X021226Y031681D01*
X022072Y031681D01*
X022072Y031031D01*
X022072Y031247D02*
X021226Y031247D01*
X021226Y031463D02*
X022072Y031463D01*
X022072Y031679D02*
X021226Y031679D01*
X025163Y031031D02*
X026009Y031031D01*
X025163Y031031D02*
X025163Y031681D01*
X026009Y031681D01*
X026009Y031031D01*
X026009Y031247D02*
X025163Y031247D01*
X025163Y031463D02*
X026009Y031463D01*
X026009Y031679D02*
X025163Y031679D01*
X025163Y032212D02*
X026009Y032212D01*
X025163Y032212D02*
X025163Y032862D01*
X026009Y032862D01*
X026009Y032212D01*
X026009Y032428D02*
X025163Y032428D01*
X025163Y032644D02*
X026009Y032644D01*
X026009Y032860D02*
X025163Y032860D01*
X018431Y023413D02*
X017387Y023413D01*
X018431Y023413D02*
X018431Y022763D01*
X017387Y022763D01*
X017387Y023413D01*
X017387Y022979D02*
X018431Y022979D01*
X018431Y023195D02*
X017387Y023195D01*
X017387Y023411D02*
X018431Y023411D01*
X018431Y021051D02*
X017387Y021051D01*
X018431Y021051D02*
X018431Y020401D01*
X017387Y020401D01*
X017387Y021051D01*
X017387Y020617D02*
X018431Y020617D01*
X018431Y020833D02*
X017387Y020833D01*
X017387Y021049D02*
X018431Y021049D01*
X014100Y021051D02*
X013056Y021051D01*
X014100Y021051D02*
X014100Y020401D01*
X013056Y020401D01*
X013056Y021051D01*
X013056Y020617D02*
X014100Y020617D01*
X014100Y020833D02*
X013056Y020833D01*
X013056Y021049D02*
X014100Y021049D01*
X014100Y023413D02*
X013056Y023413D01*
X014100Y023413D02*
X014100Y022763D01*
X013056Y022763D01*
X013056Y023413D01*
X013056Y022979D02*
X014100Y022979D01*
X014100Y023195D02*
X013056Y023195D01*
X013056Y023411D02*
X014100Y023411D01*
D25*
X021920Y044884D02*
X021920Y045386D01*
X021920Y044884D02*
X021772Y044884D01*
X021772Y045386D01*
X021920Y045386D01*
X021920Y044932D02*
X021772Y044932D01*
X021772Y044980D02*
X021920Y044980D01*
X021920Y045028D02*
X021772Y045028D01*
X021772Y045076D02*
X021920Y045076D01*
X021920Y045124D02*
X021772Y045124D01*
X021772Y045172D02*
X021920Y045172D01*
X021920Y045220D02*
X021772Y045220D01*
X021772Y045268D02*
X021920Y045268D01*
X021920Y045316D02*
X021772Y045316D01*
X021772Y045364D02*
X021920Y045364D01*
X022116Y045386D02*
X022116Y044884D01*
X021968Y044884D01*
X021968Y045386D01*
X022116Y045386D01*
X022116Y044932D02*
X021968Y044932D01*
X021968Y044980D02*
X022116Y044980D01*
X022116Y045028D02*
X021968Y045028D01*
X021968Y045076D02*
X022116Y045076D01*
X022116Y045124D02*
X021968Y045124D01*
X021968Y045172D02*
X022116Y045172D01*
X022116Y045220D02*
X021968Y045220D01*
X021968Y045268D02*
X022116Y045268D01*
X022116Y045316D02*
X021968Y045316D01*
X021968Y045364D02*
X022116Y045364D01*
X022313Y045386D02*
X022313Y044884D01*
X022165Y044884D01*
X022165Y045386D01*
X022313Y045386D01*
X022313Y044932D02*
X022165Y044932D01*
X022165Y044980D02*
X022313Y044980D01*
X022313Y045028D02*
X022165Y045028D01*
X022165Y045076D02*
X022313Y045076D01*
X022313Y045124D02*
X022165Y045124D01*
X022165Y045172D02*
X022313Y045172D01*
X022313Y045220D02*
X022165Y045220D01*
X022165Y045268D02*
X022313Y045268D01*
X022313Y045316D02*
X022165Y045316D01*
X022165Y045364D02*
X022313Y045364D01*
X022510Y045386D02*
X022510Y044884D01*
X022362Y044884D01*
X022362Y045386D01*
X022510Y045386D01*
X022510Y044932D02*
X022362Y044932D01*
X022362Y044980D02*
X022510Y044980D01*
X022510Y045028D02*
X022362Y045028D01*
X022362Y045076D02*
X022510Y045076D01*
X022510Y045124D02*
X022362Y045124D01*
X022362Y045172D02*
X022510Y045172D01*
X022510Y045220D02*
X022362Y045220D01*
X022362Y045268D02*
X022510Y045268D01*
X022510Y045316D02*
X022362Y045316D01*
X022362Y045364D02*
X022510Y045364D01*
X022707Y045386D02*
X022707Y044884D01*
X022559Y044884D01*
X022559Y045386D01*
X022707Y045386D01*
X022707Y044932D02*
X022559Y044932D01*
X022559Y044980D02*
X022707Y044980D01*
X022707Y045028D02*
X022559Y045028D01*
X022559Y045076D02*
X022707Y045076D01*
X022707Y045124D02*
X022559Y045124D01*
X022559Y045172D02*
X022707Y045172D01*
X022707Y045220D02*
X022559Y045220D01*
X022559Y045268D02*
X022707Y045268D01*
X022707Y045316D02*
X022559Y045316D01*
X022559Y045364D02*
X022707Y045364D01*
X022904Y045386D02*
X022904Y044884D01*
X022756Y044884D01*
X022756Y045386D01*
X022904Y045386D01*
X022904Y044932D02*
X022756Y044932D01*
X022756Y044980D02*
X022904Y044980D01*
X022904Y045028D02*
X022756Y045028D01*
X022756Y045076D02*
X022904Y045076D01*
X022904Y045124D02*
X022756Y045124D01*
X022756Y045172D02*
X022904Y045172D01*
X022904Y045220D02*
X022756Y045220D01*
X022756Y045268D02*
X022904Y045268D01*
X022904Y045316D02*
X022756Y045316D01*
X022756Y045364D02*
X022904Y045364D01*
X023101Y045386D02*
X023101Y044884D01*
X022953Y044884D01*
X022953Y045386D01*
X023101Y045386D01*
X023101Y044932D02*
X022953Y044932D01*
X022953Y044980D02*
X023101Y044980D01*
X023101Y045028D02*
X022953Y045028D01*
X022953Y045076D02*
X023101Y045076D01*
X023101Y045124D02*
X022953Y045124D01*
X022953Y045172D02*
X023101Y045172D01*
X023101Y045220D02*
X022953Y045220D01*
X022953Y045268D02*
X023101Y045268D01*
X023101Y045316D02*
X022953Y045316D01*
X022953Y045364D02*
X023101Y045364D01*
X023298Y045386D02*
X023298Y044884D01*
X023150Y044884D01*
X023150Y045386D01*
X023298Y045386D01*
X023298Y044932D02*
X023150Y044932D01*
X023150Y044980D02*
X023298Y044980D01*
X023298Y045028D02*
X023150Y045028D01*
X023150Y045076D02*
X023298Y045076D01*
X023298Y045124D02*
X023150Y045124D01*
X023150Y045172D02*
X023298Y045172D01*
X023298Y045220D02*
X023150Y045220D01*
X023150Y045268D02*
X023298Y045268D01*
X023298Y045316D02*
X023150Y045316D01*
X023150Y045364D02*
X023298Y045364D01*
X023494Y045386D02*
X023494Y044884D01*
X023346Y044884D01*
X023346Y045386D01*
X023494Y045386D01*
X023494Y044932D02*
X023346Y044932D01*
X023346Y044980D02*
X023494Y044980D01*
X023494Y045028D02*
X023346Y045028D01*
X023346Y045076D02*
X023494Y045076D01*
X023494Y045124D02*
X023346Y045124D01*
X023346Y045172D02*
X023494Y045172D01*
X023494Y045220D02*
X023346Y045220D01*
X023346Y045268D02*
X023494Y045268D01*
X023494Y045316D02*
X023346Y045316D01*
X023346Y045364D02*
X023494Y045364D01*
X023691Y045386D02*
X023691Y044884D01*
X023543Y044884D01*
X023543Y045386D01*
X023691Y045386D01*
X023691Y044932D02*
X023543Y044932D01*
X023543Y044980D02*
X023691Y044980D01*
X023691Y045028D02*
X023543Y045028D01*
X023543Y045076D02*
X023691Y045076D01*
X023691Y045124D02*
X023543Y045124D01*
X023543Y045172D02*
X023691Y045172D01*
X023691Y045220D02*
X023543Y045220D01*
X023543Y045268D02*
X023691Y045268D01*
X023691Y045316D02*
X023543Y045316D01*
X023543Y045364D02*
X023691Y045364D01*
X023888Y045386D02*
X023888Y044884D01*
X023740Y044884D01*
X023740Y045386D01*
X023888Y045386D01*
X023888Y044932D02*
X023740Y044932D01*
X023740Y044980D02*
X023888Y044980D01*
X023888Y045028D02*
X023740Y045028D01*
X023740Y045076D02*
X023888Y045076D01*
X023888Y045124D02*
X023740Y045124D01*
X023740Y045172D02*
X023888Y045172D01*
X023888Y045220D02*
X023740Y045220D01*
X023740Y045268D02*
X023888Y045268D01*
X023888Y045316D02*
X023740Y045316D01*
X023740Y045364D02*
X023888Y045364D01*
X024085Y045386D02*
X024085Y044884D01*
X023937Y044884D01*
X023937Y045386D01*
X024085Y045386D01*
X024085Y044932D02*
X023937Y044932D01*
X023937Y044980D02*
X024085Y044980D01*
X024085Y045028D02*
X023937Y045028D01*
X023937Y045076D02*
X024085Y045076D01*
X024085Y045124D02*
X023937Y045124D01*
X023937Y045172D02*
X024085Y045172D01*
X024085Y045220D02*
X023937Y045220D01*
X023937Y045268D02*
X024085Y045268D01*
X024085Y045316D02*
X023937Y045316D01*
X023937Y045364D02*
X024085Y045364D01*
X024282Y045386D02*
X024282Y044884D01*
X024134Y044884D01*
X024134Y045386D01*
X024282Y045386D01*
X024282Y044932D02*
X024134Y044932D01*
X024134Y044980D02*
X024282Y044980D01*
X024282Y045028D02*
X024134Y045028D01*
X024134Y045076D02*
X024282Y045076D01*
X024282Y045124D02*
X024134Y045124D01*
X024134Y045172D02*
X024282Y045172D01*
X024282Y045220D02*
X024134Y045220D01*
X024134Y045268D02*
X024282Y045268D01*
X024282Y045316D02*
X024134Y045316D01*
X024134Y045364D02*
X024282Y045364D01*
X024479Y045386D02*
X024479Y044884D01*
X024331Y044884D01*
X024331Y045386D01*
X024479Y045386D01*
X024479Y044932D02*
X024331Y044932D01*
X024331Y044980D02*
X024479Y044980D01*
X024479Y045028D02*
X024331Y045028D01*
X024331Y045076D02*
X024479Y045076D01*
X024479Y045124D02*
X024331Y045124D01*
X024331Y045172D02*
X024479Y045172D01*
X024479Y045220D02*
X024331Y045220D01*
X024331Y045268D02*
X024479Y045268D01*
X024479Y045316D02*
X024331Y045316D01*
X024331Y045364D02*
X024479Y045364D01*
X024676Y045386D02*
X024676Y044884D01*
X024528Y044884D01*
X024528Y045386D01*
X024676Y045386D01*
X024676Y044932D02*
X024528Y044932D01*
X024528Y044980D02*
X024676Y044980D01*
X024676Y045028D02*
X024528Y045028D01*
X024528Y045076D02*
X024676Y045076D01*
X024676Y045124D02*
X024528Y045124D01*
X024528Y045172D02*
X024676Y045172D01*
X024676Y045220D02*
X024528Y045220D01*
X024528Y045268D02*
X024676Y045268D01*
X024676Y045316D02*
X024528Y045316D01*
X024528Y045364D02*
X024676Y045364D01*
X024872Y045386D02*
X024872Y044884D01*
X024724Y044884D01*
X024724Y045386D01*
X024872Y045386D01*
X024872Y044932D02*
X024724Y044932D01*
X024724Y044980D02*
X024872Y044980D01*
X024872Y045028D02*
X024724Y045028D01*
X024724Y045076D02*
X024872Y045076D01*
X024872Y045124D02*
X024724Y045124D01*
X024724Y045172D02*
X024872Y045172D01*
X024872Y045220D02*
X024724Y045220D01*
X024724Y045268D02*
X024872Y045268D01*
X024872Y045316D02*
X024724Y045316D01*
X024724Y045364D02*
X024872Y045364D01*
X025069Y045386D02*
X025069Y044884D01*
X024921Y044884D01*
X024921Y045386D01*
X025069Y045386D01*
X025069Y044932D02*
X024921Y044932D01*
X024921Y044980D02*
X025069Y044980D01*
X025069Y045028D02*
X024921Y045028D01*
X024921Y045076D02*
X025069Y045076D01*
X025069Y045124D02*
X024921Y045124D01*
X024921Y045172D02*
X025069Y045172D01*
X025069Y045220D02*
X024921Y045220D01*
X024921Y045268D02*
X025069Y045268D01*
X025069Y045316D02*
X024921Y045316D01*
X024921Y045364D02*
X025069Y045364D01*
X025266Y045386D02*
X025266Y044884D01*
X025118Y044884D01*
X025118Y045386D01*
X025266Y045386D01*
X025266Y044932D02*
X025118Y044932D01*
X025118Y044980D02*
X025266Y044980D01*
X025266Y045028D02*
X025118Y045028D01*
X025118Y045076D02*
X025266Y045076D01*
X025266Y045124D02*
X025118Y045124D01*
X025118Y045172D02*
X025266Y045172D01*
X025266Y045220D02*
X025118Y045220D01*
X025118Y045268D02*
X025266Y045268D01*
X025266Y045316D02*
X025118Y045316D01*
X025118Y045364D02*
X025266Y045364D01*
X025463Y045386D02*
X025463Y044884D01*
X025315Y044884D01*
X025315Y045386D01*
X025463Y045386D01*
X025463Y044932D02*
X025315Y044932D01*
X025315Y044980D02*
X025463Y044980D01*
X025463Y045028D02*
X025315Y045028D01*
X025315Y045076D02*
X025463Y045076D01*
X025463Y045124D02*
X025315Y045124D01*
X025315Y045172D02*
X025463Y045172D01*
X025463Y045220D02*
X025315Y045220D01*
X025315Y045268D02*
X025463Y045268D01*
X025463Y045316D02*
X025315Y045316D01*
X025315Y045364D02*
X025463Y045364D01*
X025660Y045386D02*
X025660Y044884D01*
X025512Y044884D01*
X025512Y045386D01*
X025660Y045386D01*
X025660Y044932D02*
X025512Y044932D01*
X025512Y044980D02*
X025660Y044980D01*
X025660Y045028D02*
X025512Y045028D01*
X025512Y045076D02*
X025660Y045076D01*
X025660Y045124D02*
X025512Y045124D01*
X025512Y045172D02*
X025660Y045172D01*
X025660Y045220D02*
X025512Y045220D01*
X025512Y045268D02*
X025660Y045268D01*
X025660Y045316D02*
X025512Y045316D01*
X025512Y045364D02*
X025660Y045364D01*
X025857Y045386D02*
X025857Y044884D01*
X025709Y044884D01*
X025709Y045386D01*
X025857Y045386D01*
X025857Y044932D02*
X025709Y044932D01*
X025709Y044980D02*
X025857Y044980D01*
X025857Y045028D02*
X025709Y045028D01*
X025709Y045076D02*
X025857Y045076D01*
X025857Y045124D02*
X025709Y045124D01*
X025709Y045172D02*
X025857Y045172D01*
X025857Y045220D02*
X025709Y045220D01*
X025709Y045268D02*
X025857Y045268D01*
X025857Y045316D02*
X025709Y045316D01*
X025709Y045364D02*
X025857Y045364D01*
X026054Y045386D02*
X026054Y044884D01*
X025906Y044884D01*
X025906Y045386D01*
X026054Y045386D01*
X026054Y044932D02*
X025906Y044932D01*
X025906Y044980D02*
X026054Y044980D01*
X026054Y045028D02*
X025906Y045028D01*
X025906Y045076D02*
X026054Y045076D01*
X026054Y045124D02*
X025906Y045124D01*
X025906Y045172D02*
X026054Y045172D01*
X026054Y045220D02*
X025906Y045220D01*
X025906Y045268D02*
X026054Y045268D01*
X026054Y045316D02*
X025906Y045316D01*
X025906Y045364D02*
X026054Y045364D01*
X026250Y045386D02*
X026250Y044884D01*
X026102Y044884D01*
X026102Y045386D01*
X026250Y045386D01*
X026250Y044932D02*
X026102Y044932D01*
X026102Y044980D02*
X026250Y044980D01*
X026250Y045028D02*
X026102Y045028D01*
X026102Y045076D02*
X026250Y045076D01*
X026250Y045124D02*
X026102Y045124D01*
X026102Y045172D02*
X026250Y045172D01*
X026250Y045220D02*
X026102Y045220D01*
X026102Y045268D02*
X026250Y045268D01*
X026250Y045316D02*
X026102Y045316D01*
X026102Y045364D02*
X026250Y045364D01*
X026447Y045386D02*
X026447Y044884D01*
X026299Y044884D01*
X026299Y045386D01*
X026447Y045386D01*
X026447Y044932D02*
X026299Y044932D01*
X026299Y044980D02*
X026447Y044980D01*
X026447Y045028D02*
X026299Y045028D01*
X026299Y045076D02*
X026447Y045076D01*
X026447Y045124D02*
X026299Y045124D01*
X026299Y045172D02*
X026447Y045172D01*
X026447Y045220D02*
X026299Y045220D01*
X026299Y045268D02*
X026447Y045268D01*
X026447Y045316D02*
X026299Y045316D01*
X026299Y045364D02*
X026447Y045364D01*
X026644Y045386D02*
X026644Y044884D01*
X026496Y044884D01*
X026496Y045386D01*
X026644Y045386D01*
X026644Y044932D02*
X026496Y044932D01*
X026496Y044980D02*
X026644Y044980D01*
X026644Y045028D02*
X026496Y045028D01*
X026496Y045076D02*
X026644Y045076D01*
X026644Y045124D02*
X026496Y045124D01*
X026496Y045172D02*
X026644Y045172D01*
X026644Y045220D02*
X026496Y045220D01*
X026496Y045268D02*
X026644Y045268D01*
X026644Y045316D02*
X026496Y045316D01*
X026496Y045364D02*
X026644Y045364D01*
X027008Y045898D02*
X027510Y045898D01*
X027510Y045750D01*
X027008Y045750D01*
X027008Y045898D01*
X027008Y045798D02*
X027510Y045798D01*
X027510Y045846D02*
X027008Y045846D01*
X027008Y045894D02*
X027510Y045894D01*
X027510Y046095D02*
X027008Y046095D01*
X027510Y046095D02*
X027510Y045947D01*
X027008Y045947D01*
X027008Y046095D01*
X027008Y045995D02*
X027510Y045995D01*
X027510Y046043D02*
X027008Y046043D01*
X027008Y046091D02*
X027510Y046091D01*
X027510Y046292D02*
X027008Y046292D01*
X027510Y046292D02*
X027510Y046144D01*
X027008Y046144D01*
X027008Y046292D01*
X027008Y046192D02*
X027510Y046192D01*
X027510Y046240D02*
X027008Y046240D01*
X027008Y046288D02*
X027510Y046288D01*
X027510Y046489D02*
X027008Y046489D01*
X027510Y046489D02*
X027510Y046341D01*
X027008Y046341D01*
X027008Y046489D01*
X027008Y046389D02*
X027510Y046389D01*
X027510Y046437D02*
X027008Y046437D01*
X027008Y046485D02*
X027510Y046485D01*
X027510Y046686D02*
X027008Y046686D01*
X027510Y046686D02*
X027510Y046538D01*
X027008Y046538D01*
X027008Y046686D01*
X027008Y046586D02*
X027510Y046586D01*
X027510Y046634D02*
X027008Y046634D01*
X027008Y046682D02*
X027510Y046682D01*
X027510Y046882D02*
X027008Y046882D01*
X027510Y046882D02*
X027510Y046734D01*
X027008Y046734D01*
X027008Y046882D01*
X027008Y046782D02*
X027510Y046782D01*
X027510Y046830D02*
X027008Y046830D01*
X027008Y046878D02*
X027510Y046878D01*
X027510Y047079D02*
X027008Y047079D01*
X027510Y047079D02*
X027510Y046931D01*
X027008Y046931D01*
X027008Y047079D01*
X027008Y046979D02*
X027510Y046979D01*
X027510Y047027D02*
X027008Y047027D01*
X027008Y047075D02*
X027510Y047075D01*
X027510Y047276D02*
X027008Y047276D01*
X027510Y047276D02*
X027510Y047128D01*
X027008Y047128D01*
X027008Y047276D01*
X027008Y047176D02*
X027510Y047176D01*
X027510Y047224D02*
X027008Y047224D01*
X027008Y047272D02*
X027510Y047272D01*
X027510Y047473D02*
X027008Y047473D01*
X027510Y047473D02*
X027510Y047325D01*
X027008Y047325D01*
X027008Y047473D01*
X027008Y047373D02*
X027510Y047373D01*
X027510Y047421D02*
X027008Y047421D01*
X027008Y047469D02*
X027510Y047469D01*
X027510Y047670D02*
X027008Y047670D01*
X027510Y047670D02*
X027510Y047522D01*
X027008Y047522D01*
X027008Y047670D01*
X027008Y047570D02*
X027510Y047570D01*
X027510Y047618D02*
X027008Y047618D01*
X027008Y047666D02*
X027510Y047666D01*
X027510Y047867D02*
X027008Y047867D01*
X027510Y047867D02*
X027510Y047719D01*
X027008Y047719D01*
X027008Y047867D01*
X027008Y047767D02*
X027510Y047767D01*
X027510Y047815D02*
X027008Y047815D01*
X027008Y047863D02*
X027510Y047863D01*
X027510Y048063D02*
X027008Y048063D01*
X027510Y048063D02*
X027510Y047915D01*
X027008Y047915D01*
X027008Y048063D01*
X027008Y047963D02*
X027510Y047963D01*
X027510Y048011D02*
X027008Y048011D01*
X027008Y048059D02*
X027510Y048059D01*
X027510Y048260D02*
X027008Y048260D01*
X027510Y048260D02*
X027510Y048112D01*
X027008Y048112D01*
X027008Y048260D01*
X027008Y048160D02*
X027510Y048160D01*
X027510Y048208D02*
X027008Y048208D01*
X027008Y048256D02*
X027510Y048256D01*
X027510Y048457D02*
X027008Y048457D01*
X027510Y048457D02*
X027510Y048309D01*
X027008Y048309D01*
X027008Y048457D01*
X027008Y048357D02*
X027510Y048357D01*
X027510Y048405D02*
X027008Y048405D01*
X027008Y048453D02*
X027510Y048453D01*
X027510Y048654D02*
X027008Y048654D01*
X027510Y048654D02*
X027510Y048506D01*
X027008Y048506D01*
X027008Y048654D01*
X027008Y048554D02*
X027510Y048554D01*
X027510Y048602D02*
X027008Y048602D01*
X027008Y048650D02*
X027510Y048650D01*
X027510Y048851D02*
X027008Y048851D01*
X027510Y048851D02*
X027510Y048703D01*
X027008Y048703D01*
X027008Y048851D01*
X027008Y048751D02*
X027510Y048751D01*
X027510Y048799D02*
X027008Y048799D01*
X027008Y048847D02*
X027510Y048847D01*
X027510Y049048D02*
X027008Y049048D01*
X027510Y049048D02*
X027510Y048900D01*
X027008Y048900D01*
X027008Y049048D01*
X027008Y048948D02*
X027510Y048948D01*
X027510Y048996D02*
X027008Y048996D01*
X027008Y049044D02*
X027510Y049044D01*
X027510Y049245D02*
X027008Y049245D01*
X027510Y049245D02*
X027510Y049097D01*
X027008Y049097D01*
X027008Y049245D01*
X027008Y049145D02*
X027510Y049145D01*
X027510Y049193D02*
X027008Y049193D01*
X027008Y049241D02*
X027510Y049241D01*
X027510Y049441D02*
X027008Y049441D01*
X027510Y049441D02*
X027510Y049293D01*
X027008Y049293D01*
X027008Y049441D01*
X027008Y049341D02*
X027510Y049341D01*
X027510Y049389D02*
X027008Y049389D01*
X027008Y049437D02*
X027510Y049437D01*
X027510Y049638D02*
X027008Y049638D01*
X027510Y049638D02*
X027510Y049490D01*
X027008Y049490D01*
X027008Y049638D01*
X027008Y049538D02*
X027510Y049538D01*
X027510Y049586D02*
X027008Y049586D01*
X027008Y049634D02*
X027510Y049634D01*
X027510Y049835D02*
X027008Y049835D01*
X027510Y049835D02*
X027510Y049687D01*
X027008Y049687D01*
X027008Y049835D01*
X027008Y049735D02*
X027510Y049735D01*
X027510Y049783D02*
X027008Y049783D01*
X027008Y049831D02*
X027510Y049831D01*
X027510Y050032D02*
X027008Y050032D01*
X027510Y050032D02*
X027510Y049884D01*
X027008Y049884D01*
X027008Y050032D01*
X027008Y049932D02*
X027510Y049932D01*
X027510Y049980D02*
X027008Y049980D01*
X027008Y050028D02*
X027510Y050028D01*
X027510Y050229D02*
X027008Y050229D01*
X027510Y050229D02*
X027510Y050081D01*
X027008Y050081D01*
X027008Y050229D01*
X027008Y050129D02*
X027510Y050129D01*
X027510Y050177D02*
X027008Y050177D01*
X027008Y050225D02*
X027510Y050225D01*
X027510Y050426D02*
X027008Y050426D01*
X027510Y050426D02*
X027510Y050278D01*
X027008Y050278D01*
X027008Y050426D01*
X027008Y050326D02*
X027510Y050326D01*
X027510Y050374D02*
X027008Y050374D01*
X027008Y050422D02*
X027510Y050422D01*
X027510Y050623D02*
X027008Y050623D01*
X027510Y050623D02*
X027510Y050475D01*
X027008Y050475D01*
X027008Y050623D01*
X027008Y050523D02*
X027510Y050523D01*
X027510Y050571D02*
X027008Y050571D01*
X027008Y050619D02*
X027510Y050619D01*
X026496Y050987D02*
X026496Y051489D01*
X026644Y051489D01*
X026644Y050987D01*
X026496Y050987D01*
X026496Y051035D02*
X026644Y051035D01*
X026644Y051083D02*
X026496Y051083D01*
X026496Y051131D02*
X026644Y051131D01*
X026644Y051179D02*
X026496Y051179D01*
X026496Y051227D02*
X026644Y051227D01*
X026644Y051275D02*
X026496Y051275D01*
X026496Y051323D02*
X026644Y051323D01*
X026644Y051371D02*
X026496Y051371D01*
X026496Y051419D02*
X026644Y051419D01*
X026644Y051467D02*
X026496Y051467D01*
X026299Y051489D02*
X026299Y050987D01*
X026299Y051489D02*
X026447Y051489D01*
X026447Y050987D01*
X026299Y050987D01*
X026299Y051035D02*
X026447Y051035D01*
X026447Y051083D02*
X026299Y051083D01*
X026299Y051131D02*
X026447Y051131D01*
X026447Y051179D02*
X026299Y051179D01*
X026299Y051227D02*
X026447Y051227D01*
X026447Y051275D02*
X026299Y051275D01*
X026299Y051323D02*
X026447Y051323D01*
X026447Y051371D02*
X026299Y051371D01*
X026299Y051419D02*
X026447Y051419D01*
X026447Y051467D02*
X026299Y051467D01*
X026102Y051489D02*
X026102Y050987D01*
X026102Y051489D02*
X026250Y051489D01*
X026250Y050987D01*
X026102Y050987D01*
X026102Y051035D02*
X026250Y051035D01*
X026250Y051083D02*
X026102Y051083D01*
X026102Y051131D02*
X026250Y051131D01*
X026250Y051179D02*
X026102Y051179D01*
X026102Y051227D02*
X026250Y051227D01*
X026250Y051275D02*
X026102Y051275D01*
X026102Y051323D02*
X026250Y051323D01*
X026250Y051371D02*
X026102Y051371D01*
X026102Y051419D02*
X026250Y051419D01*
X026250Y051467D02*
X026102Y051467D01*
X025906Y051489D02*
X025906Y050987D01*
X025906Y051489D02*
X026054Y051489D01*
X026054Y050987D01*
X025906Y050987D01*
X025906Y051035D02*
X026054Y051035D01*
X026054Y051083D02*
X025906Y051083D01*
X025906Y051131D02*
X026054Y051131D01*
X026054Y051179D02*
X025906Y051179D01*
X025906Y051227D02*
X026054Y051227D01*
X026054Y051275D02*
X025906Y051275D01*
X025906Y051323D02*
X026054Y051323D01*
X026054Y051371D02*
X025906Y051371D01*
X025906Y051419D02*
X026054Y051419D01*
X026054Y051467D02*
X025906Y051467D01*
X025709Y051489D02*
X025709Y050987D01*
X025709Y051489D02*
X025857Y051489D01*
X025857Y050987D01*
X025709Y050987D01*
X025709Y051035D02*
X025857Y051035D01*
X025857Y051083D02*
X025709Y051083D01*
X025709Y051131D02*
X025857Y051131D01*
X025857Y051179D02*
X025709Y051179D01*
X025709Y051227D02*
X025857Y051227D01*
X025857Y051275D02*
X025709Y051275D01*
X025709Y051323D02*
X025857Y051323D01*
X025857Y051371D02*
X025709Y051371D01*
X025709Y051419D02*
X025857Y051419D01*
X025857Y051467D02*
X025709Y051467D01*
X025512Y051489D02*
X025512Y050987D01*
X025512Y051489D02*
X025660Y051489D01*
X025660Y050987D01*
X025512Y050987D01*
X025512Y051035D02*
X025660Y051035D01*
X025660Y051083D02*
X025512Y051083D01*
X025512Y051131D02*
X025660Y051131D01*
X025660Y051179D02*
X025512Y051179D01*
X025512Y051227D02*
X025660Y051227D01*
X025660Y051275D02*
X025512Y051275D01*
X025512Y051323D02*
X025660Y051323D01*
X025660Y051371D02*
X025512Y051371D01*
X025512Y051419D02*
X025660Y051419D01*
X025660Y051467D02*
X025512Y051467D01*
X025315Y051489D02*
X025315Y050987D01*
X025315Y051489D02*
X025463Y051489D01*
X025463Y050987D01*
X025315Y050987D01*
X025315Y051035D02*
X025463Y051035D01*
X025463Y051083D02*
X025315Y051083D01*
X025315Y051131D02*
X025463Y051131D01*
X025463Y051179D02*
X025315Y051179D01*
X025315Y051227D02*
X025463Y051227D01*
X025463Y051275D02*
X025315Y051275D01*
X025315Y051323D02*
X025463Y051323D01*
X025463Y051371D02*
X025315Y051371D01*
X025315Y051419D02*
X025463Y051419D01*
X025463Y051467D02*
X025315Y051467D01*
X025118Y051489D02*
X025118Y050987D01*
X025118Y051489D02*
X025266Y051489D01*
X025266Y050987D01*
X025118Y050987D01*
X025118Y051035D02*
X025266Y051035D01*
X025266Y051083D02*
X025118Y051083D01*
X025118Y051131D02*
X025266Y051131D01*
X025266Y051179D02*
X025118Y051179D01*
X025118Y051227D02*
X025266Y051227D01*
X025266Y051275D02*
X025118Y051275D01*
X025118Y051323D02*
X025266Y051323D01*
X025266Y051371D02*
X025118Y051371D01*
X025118Y051419D02*
X025266Y051419D01*
X025266Y051467D02*
X025118Y051467D01*
X024921Y051489D02*
X024921Y050987D01*
X024921Y051489D02*
X025069Y051489D01*
X025069Y050987D01*
X024921Y050987D01*
X024921Y051035D02*
X025069Y051035D01*
X025069Y051083D02*
X024921Y051083D01*
X024921Y051131D02*
X025069Y051131D01*
X025069Y051179D02*
X024921Y051179D01*
X024921Y051227D02*
X025069Y051227D01*
X025069Y051275D02*
X024921Y051275D01*
X024921Y051323D02*
X025069Y051323D01*
X025069Y051371D02*
X024921Y051371D01*
X024921Y051419D02*
X025069Y051419D01*
X025069Y051467D02*
X024921Y051467D01*
X024724Y051489D02*
X024724Y050987D01*
X024724Y051489D02*
X024872Y051489D01*
X024872Y050987D01*
X024724Y050987D01*
X024724Y051035D02*
X024872Y051035D01*
X024872Y051083D02*
X024724Y051083D01*
X024724Y051131D02*
X024872Y051131D01*
X024872Y051179D02*
X024724Y051179D01*
X024724Y051227D02*
X024872Y051227D01*
X024872Y051275D02*
X024724Y051275D01*
X024724Y051323D02*
X024872Y051323D01*
X024872Y051371D02*
X024724Y051371D01*
X024724Y051419D02*
X024872Y051419D01*
X024872Y051467D02*
X024724Y051467D01*
X024528Y051489D02*
X024528Y050987D01*
X024528Y051489D02*
X024676Y051489D01*
X024676Y050987D01*
X024528Y050987D01*
X024528Y051035D02*
X024676Y051035D01*
X024676Y051083D02*
X024528Y051083D01*
X024528Y051131D02*
X024676Y051131D01*
X024676Y051179D02*
X024528Y051179D01*
X024528Y051227D02*
X024676Y051227D01*
X024676Y051275D02*
X024528Y051275D01*
X024528Y051323D02*
X024676Y051323D01*
X024676Y051371D02*
X024528Y051371D01*
X024528Y051419D02*
X024676Y051419D01*
X024676Y051467D02*
X024528Y051467D01*
X024331Y051489D02*
X024331Y050987D01*
X024331Y051489D02*
X024479Y051489D01*
X024479Y050987D01*
X024331Y050987D01*
X024331Y051035D02*
X024479Y051035D01*
X024479Y051083D02*
X024331Y051083D01*
X024331Y051131D02*
X024479Y051131D01*
X024479Y051179D02*
X024331Y051179D01*
X024331Y051227D02*
X024479Y051227D01*
X024479Y051275D02*
X024331Y051275D01*
X024331Y051323D02*
X024479Y051323D01*
X024479Y051371D02*
X024331Y051371D01*
X024331Y051419D02*
X024479Y051419D01*
X024479Y051467D02*
X024331Y051467D01*
X024134Y051489D02*
X024134Y050987D01*
X024134Y051489D02*
X024282Y051489D01*
X024282Y050987D01*
X024134Y050987D01*
X024134Y051035D02*
X024282Y051035D01*
X024282Y051083D02*
X024134Y051083D01*
X024134Y051131D02*
X024282Y051131D01*
X024282Y051179D02*
X024134Y051179D01*
X024134Y051227D02*
X024282Y051227D01*
X024282Y051275D02*
X024134Y051275D01*
X024134Y051323D02*
X024282Y051323D01*
X024282Y051371D02*
X024134Y051371D01*
X024134Y051419D02*
X024282Y051419D01*
X024282Y051467D02*
X024134Y051467D01*
X023937Y051489D02*
X023937Y050987D01*
X023937Y051489D02*
X024085Y051489D01*
X024085Y050987D01*
X023937Y050987D01*
X023937Y051035D02*
X024085Y051035D01*
X024085Y051083D02*
X023937Y051083D01*
X023937Y051131D02*
X024085Y051131D01*
X024085Y051179D02*
X023937Y051179D01*
X023937Y051227D02*
X024085Y051227D01*
X024085Y051275D02*
X023937Y051275D01*
X023937Y051323D02*
X024085Y051323D01*
X024085Y051371D02*
X023937Y051371D01*
X023937Y051419D02*
X024085Y051419D01*
X024085Y051467D02*
X023937Y051467D01*
X023740Y051489D02*
X023740Y050987D01*
X023740Y051489D02*
X023888Y051489D01*
X023888Y050987D01*
X023740Y050987D01*
X023740Y051035D02*
X023888Y051035D01*
X023888Y051083D02*
X023740Y051083D01*
X023740Y051131D02*
X023888Y051131D01*
X023888Y051179D02*
X023740Y051179D01*
X023740Y051227D02*
X023888Y051227D01*
X023888Y051275D02*
X023740Y051275D01*
X023740Y051323D02*
X023888Y051323D01*
X023888Y051371D02*
X023740Y051371D01*
X023740Y051419D02*
X023888Y051419D01*
X023888Y051467D02*
X023740Y051467D01*
X023543Y051489D02*
X023543Y050987D01*
X023543Y051489D02*
X023691Y051489D01*
X023691Y050987D01*
X023543Y050987D01*
X023543Y051035D02*
X023691Y051035D01*
X023691Y051083D02*
X023543Y051083D01*
X023543Y051131D02*
X023691Y051131D01*
X023691Y051179D02*
X023543Y051179D01*
X023543Y051227D02*
X023691Y051227D01*
X023691Y051275D02*
X023543Y051275D01*
X023543Y051323D02*
X023691Y051323D01*
X023691Y051371D02*
X023543Y051371D01*
X023543Y051419D02*
X023691Y051419D01*
X023691Y051467D02*
X023543Y051467D01*
X023346Y051489D02*
X023346Y050987D01*
X023346Y051489D02*
X023494Y051489D01*
X023494Y050987D01*
X023346Y050987D01*
X023346Y051035D02*
X023494Y051035D01*
X023494Y051083D02*
X023346Y051083D01*
X023346Y051131D02*
X023494Y051131D01*
X023494Y051179D02*
X023346Y051179D01*
X023346Y051227D02*
X023494Y051227D01*
X023494Y051275D02*
X023346Y051275D01*
X023346Y051323D02*
X023494Y051323D01*
X023494Y051371D02*
X023346Y051371D01*
X023346Y051419D02*
X023494Y051419D01*
X023494Y051467D02*
X023346Y051467D01*
X023150Y051489D02*
X023150Y050987D01*
X023150Y051489D02*
X023298Y051489D01*
X023298Y050987D01*
X023150Y050987D01*
X023150Y051035D02*
X023298Y051035D01*
X023298Y051083D02*
X023150Y051083D01*
X023150Y051131D02*
X023298Y051131D01*
X023298Y051179D02*
X023150Y051179D01*
X023150Y051227D02*
X023298Y051227D01*
X023298Y051275D02*
X023150Y051275D01*
X023150Y051323D02*
X023298Y051323D01*
X023298Y051371D02*
X023150Y051371D01*
X023150Y051419D02*
X023298Y051419D01*
X023298Y051467D02*
X023150Y051467D01*
X022953Y051489D02*
X022953Y050987D01*
X022953Y051489D02*
X023101Y051489D01*
X023101Y050987D01*
X022953Y050987D01*
X022953Y051035D02*
X023101Y051035D01*
X023101Y051083D02*
X022953Y051083D01*
X022953Y051131D02*
X023101Y051131D01*
X023101Y051179D02*
X022953Y051179D01*
X022953Y051227D02*
X023101Y051227D01*
X023101Y051275D02*
X022953Y051275D01*
X022953Y051323D02*
X023101Y051323D01*
X023101Y051371D02*
X022953Y051371D01*
X022953Y051419D02*
X023101Y051419D01*
X023101Y051467D02*
X022953Y051467D01*
X022756Y051489D02*
X022756Y050987D01*
X022756Y051489D02*
X022904Y051489D01*
X022904Y050987D01*
X022756Y050987D01*
X022756Y051035D02*
X022904Y051035D01*
X022904Y051083D02*
X022756Y051083D01*
X022756Y051131D02*
X022904Y051131D01*
X022904Y051179D02*
X022756Y051179D01*
X022756Y051227D02*
X022904Y051227D01*
X022904Y051275D02*
X022756Y051275D01*
X022756Y051323D02*
X022904Y051323D01*
X022904Y051371D02*
X022756Y051371D01*
X022756Y051419D02*
X022904Y051419D01*
X022904Y051467D02*
X022756Y051467D01*
X022559Y051489D02*
X022559Y050987D01*
X022559Y051489D02*
X022707Y051489D01*
X022707Y050987D01*
X022559Y050987D01*
X022559Y051035D02*
X022707Y051035D01*
X022707Y051083D02*
X022559Y051083D01*
X022559Y051131D02*
X022707Y051131D01*
X022707Y051179D02*
X022559Y051179D01*
X022559Y051227D02*
X022707Y051227D01*
X022707Y051275D02*
X022559Y051275D01*
X022559Y051323D02*
X022707Y051323D01*
X022707Y051371D02*
X022559Y051371D01*
X022559Y051419D02*
X022707Y051419D01*
X022707Y051467D02*
X022559Y051467D01*
X022362Y051489D02*
X022362Y050987D01*
X022362Y051489D02*
X022510Y051489D01*
X022510Y050987D01*
X022362Y050987D01*
X022362Y051035D02*
X022510Y051035D01*
X022510Y051083D02*
X022362Y051083D01*
X022362Y051131D02*
X022510Y051131D01*
X022510Y051179D02*
X022362Y051179D01*
X022362Y051227D02*
X022510Y051227D01*
X022510Y051275D02*
X022362Y051275D01*
X022362Y051323D02*
X022510Y051323D01*
X022510Y051371D02*
X022362Y051371D01*
X022362Y051419D02*
X022510Y051419D01*
X022510Y051467D02*
X022362Y051467D01*
X022165Y051489D02*
X022165Y050987D01*
X022165Y051489D02*
X022313Y051489D01*
X022313Y050987D01*
X022165Y050987D01*
X022165Y051035D02*
X022313Y051035D01*
X022313Y051083D02*
X022165Y051083D01*
X022165Y051131D02*
X022313Y051131D01*
X022313Y051179D02*
X022165Y051179D01*
X022165Y051227D02*
X022313Y051227D01*
X022313Y051275D02*
X022165Y051275D01*
X022165Y051323D02*
X022313Y051323D01*
X022313Y051371D02*
X022165Y051371D01*
X022165Y051419D02*
X022313Y051419D01*
X022313Y051467D02*
X022165Y051467D01*
X021968Y051489D02*
X021968Y050987D01*
X021968Y051489D02*
X022116Y051489D01*
X022116Y050987D01*
X021968Y050987D01*
X021968Y051035D02*
X022116Y051035D01*
X022116Y051083D02*
X021968Y051083D01*
X021968Y051131D02*
X022116Y051131D01*
X022116Y051179D02*
X021968Y051179D01*
X021968Y051227D02*
X022116Y051227D01*
X022116Y051275D02*
X021968Y051275D01*
X021968Y051323D02*
X022116Y051323D01*
X022116Y051371D02*
X021968Y051371D01*
X021968Y051419D02*
X022116Y051419D01*
X022116Y051467D02*
X021968Y051467D01*
X021772Y051489D02*
X021772Y050987D01*
X021772Y051489D02*
X021920Y051489D01*
X021920Y050987D01*
X021772Y050987D01*
X021772Y051035D02*
X021920Y051035D01*
X021920Y051083D02*
X021772Y051083D01*
X021772Y051131D02*
X021920Y051131D01*
X021920Y051179D02*
X021772Y051179D01*
X021772Y051227D02*
X021920Y051227D01*
X021920Y051275D02*
X021772Y051275D01*
X021772Y051323D02*
X021920Y051323D01*
X021920Y051371D02*
X021772Y051371D01*
X021772Y051419D02*
X021920Y051419D01*
X021920Y051467D02*
X021772Y051467D01*
X021408Y050475D02*
X020906Y050475D01*
X020906Y050623D01*
X021408Y050623D01*
X021408Y050475D01*
X021408Y050523D02*
X020906Y050523D01*
X020906Y050571D02*
X021408Y050571D01*
X021408Y050619D02*
X020906Y050619D01*
X020906Y050278D02*
X021408Y050278D01*
X020906Y050278D02*
X020906Y050426D01*
X021408Y050426D01*
X021408Y050278D01*
X021408Y050326D02*
X020906Y050326D01*
X020906Y050374D02*
X021408Y050374D01*
X021408Y050422D02*
X020906Y050422D01*
X020906Y050081D02*
X021408Y050081D01*
X020906Y050081D02*
X020906Y050229D01*
X021408Y050229D01*
X021408Y050081D01*
X021408Y050129D02*
X020906Y050129D01*
X020906Y050177D02*
X021408Y050177D01*
X021408Y050225D02*
X020906Y050225D01*
X020906Y049884D02*
X021408Y049884D01*
X020906Y049884D02*
X020906Y050032D01*
X021408Y050032D01*
X021408Y049884D01*
X021408Y049932D02*
X020906Y049932D01*
X020906Y049980D02*
X021408Y049980D01*
X021408Y050028D02*
X020906Y050028D01*
X020906Y049687D02*
X021408Y049687D01*
X020906Y049687D02*
X020906Y049835D01*
X021408Y049835D01*
X021408Y049687D01*
X021408Y049735D02*
X020906Y049735D01*
X020906Y049783D02*
X021408Y049783D01*
X021408Y049831D02*
X020906Y049831D01*
X020906Y049490D02*
X021408Y049490D01*
X020906Y049490D02*
X020906Y049638D01*
X021408Y049638D01*
X021408Y049490D01*
X021408Y049538D02*
X020906Y049538D01*
X020906Y049586D02*
X021408Y049586D01*
X021408Y049634D02*
X020906Y049634D01*
X020906Y049293D02*
X021408Y049293D01*
X020906Y049293D02*
X020906Y049441D01*
X021408Y049441D01*
X021408Y049293D01*
X021408Y049341D02*
X020906Y049341D01*
X020906Y049389D02*
X021408Y049389D01*
X021408Y049437D02*
X020906Y049437D01*
X020906Y049097D02*
X021408Y049097D01*
X020906Y049097D02*
X020906Y049245D01*
X021408Y049245D01*
X021408Y049097D01*
X021408Y049145D02*
X020906Y049145D01*
X020906Y049193D02*
X021408Y049193D01*
X021408Y049241D02*
X020906Y049241D01*
X020906Y048900D02*
X021408Y048900D01*
X020906Y048900D02*
X020906Y049048D01*
X021408Y049048D01*
X021408Y048900D01*
X021408Y048948D02*
X020906Y048948D01*
X020906Y048996D02*
X021408Y048996D01*
X021408Y049044D02*
X020906Y049044D01*
X020906Y048703D02*
X021408Y048703D01*
X020906Y048703D02*
X020906Y048851D01*
X021408Y048851D01*
X021408Y048703D01*
X021408Y048751D02*
X020906Y048751D01*
X020906Y048799D02*
X021408Y048799D01*
X021408Y048847D02*
X020906Y048847D01*
X020906Y048506D02*
X021408Y048506D01*
X020906Y048506D02*
X020906Y048654D01*
X021408Y048654D01*
X021408Y048506D01*
X021408Y048554D02*
X020906Y048554D01*
X020906Y048602D02*
X021408Y048602D01*
X021408Y048650D02*
X020906Y048650D01*
X020906Y048309D02*
X021408Y048309D01*
X020906Y048309D02*
X020906Y048457D01*
X021408Y048457D01*
X021408Y048309D01*
X021408Y048357D02*
X020906Y048357D01*
X020906Y048405D02*
X021408Y048405D01*
X021408Y048453D02*
X020906Y048453D01*
X020906Y048112D02*
X021408Y048112D01*
X020906Y048112D02*
X020906Y048260D01*
X021408Y048260D01*
X021408Y048112D01*
X021408Y048160D02*
X020906Y048160D01*
X020906Y048208D02*
X021408Y048208D01*
X021408Y048256D02*
X020906Y048256D01*
X020906Y047915D02*
X021408Y047915D01*
X020906Y047915D02*
X020906Y048063D01*
X021408Y048063D01*
X021408Y047915D01*
X021408Y047963D02*
X020906Y047963D01*
X020906Y048011D02*
X021408Y048011D01*
X021408Y048059D02*
X020906Y048059D01*
X020906Y047719D02*
X021408Y047719D01*
X020906Y047719D02*
X020906Y047867D01*
X021408Y047867D01*
X021408Y047719D01*
X021408Y047767D02*
X020906Y047767D01*
X020906Y047815D02*
X021408Y047815D01*
X021408Y047863D02*
X020906Y047863D01*
X020906Y047522D02*
X021408Y047522D01*
X020906Y047522D02*
X020906Y047670D01*
X021408Y047670D01*
X021408Y047522D01*
X021408Y047570D02*
X020906Y047570D01*
X020906Y047618D02*
X021408Y047618D01*
X021408Y047666D02*
X020906Y047666D01*
X020906Y047325D02*
X021408Y047325D01*
X020906Y047325D02*
X020906Y047473D01*
X021408Y047473D01*
X021408Y047325D01*
X021408Y047373D02*
X020906Y047373D01*
X020906Y047421D02*
X021408Y047421D01*
X021408Y047469D02*
X020906Y047469D01*
X020906Y047128D02*
X021408Y047128D01*
X020906Y047128D02*
X020906Y047276D01*
X021408Y047276D01*
X021408Y047128D01*
X021408Y047176D02*
X020906Y047176D01*
X020906Y047224D02*
X021408Y047224D01*
X021408Y047272D02*
X020906Y047272D01*
X020906Y046931D02*
X021408Y046931D01*
X020906Y046931D02*
X020906Y047079D01*
X021408Y047079D01*
X021408Y046931D01*
X021408Y046979D02*
X020906Y046979D01*
X020906Y047027D02*
X021408Y047027D01*
X021408Y047075D02*
X020906Y047075D01*
X020906Y046734D02*
X021408Y046734D01*
X020906Y046734D02*
X020906Y046882D01*
X021408Y046882D01*
X021408Y046734D01*
X021408Y046782D02*
X020906Y046782D01*
X020906Y046830D02*
X021408Y046830D01*
X021408Y046878D02*
X020906Y046878D01*
X020906Y046538D02*
X021408Y046538D01*
X020906Y046538D02*
X020906Y046686D01*
X021408Y046686D01*
X021408Y046538D01*
X021408Y046586D02*
X020906Y046586D01*
X020906Y046634D02*
X021408Y046634D01*
X021408Y046682D02*
X020906Y046682D01*
X020906Y046341D02*
X021408Y046341D01*
X020906Y046341D02*
X020906Y046489D01*
X021408Y046489D01*
X021408Y046341D01*
X021408Y046389D02*
X020906Y046389D01*
X020906Y046437D02*
X021408Y046437D01*
X021408Y046485D02*
X020906Y046485D01*
X020906Y046144D02*
X021408Y046144D01*
X020906Y046144D02*
X020906Y046292D01*
X021408Y046292D01*
X021408Y046144D01*
X021408Y046192D02*
X020906Y046192D01*
X020906Y046240D02*
X021408Y046240D01*
X021408Y046288D02*
X020906Y046288D01*
X020906Y045947D02*
X021408Y045947D01*
X020906Y045947D02*
X020906Y046095D01*
X021408Y046095D01*
X021408Y045947D01*
X021408Y045995D02*
X020906Y045995D01*
X020906Y046043D02*
X021408Y046043D01*
X021408Y046091D02*
X020906Y046091D01*
X020906Y045750D02*
X021408Y045750D01*
X020906Y045750D02*
X020906Y045898D01*
X021408Y045898D01*
X021408Y045750D01*
X021408Y045798D02*
X020906Y045798D01*
X020906Y045846D02*
X021408Y045846D01*
X021408Y045894D02*
X020906Y045894D01*
D26*
X021794Y025948D02*
X021794Y024952D01*
X021546Y024952D01*
X021546Y025948D01*
X021794Y025948D01*
X021794Y025034D02*
X021546Y025034D01*
X021546Y025116D02*
X021794Y025116D01*
X021794Y025198D02*
X021546Y025198D01*
X021546Y025280D02*
X021794Y025280D01*
X021794Y025362D02*
X021546Y025362D01*
X021546Y025444D02*
X021794Y025444D01*
X021794Y025526D02*
X021546Y025526D01*
X021546Y025608D02*
X021794Y025608D01*
X021794Y025690D02*
X021546Y025690D01*
X021546Y025772D02*
X021794Y025772D01*
X021794Y025854D02*
X021546Y025854D01*
X021546Y025936D02*
X021794Y025936D01*
X022294Y025948D02*
X022294Y024952D01*
X022046Y024952D01*
X022046Y025948D01*
X022294Y025948D01*
X022294Y025034D02*
X022046Y025034D01*
X022046Y025116D02*
X022294Y025116D01*
X022294Y025198D02*
X022046Y025198D01*
X022046Y025280D02*
X022294Y025280D01*
X022294Y025362D02*
X022046Y025362D01*
X022046Y025444D02*
X022294Y025444D01*
X022294Y025526D02*
X022046Y025526D01*
X022046Y025608D02*
X022294Y025608D01*
X022294Y025690D02*
X022046Y025690D01*
X022046Y025772D02*
X022294Y025772D01*
X022294Y025854D02*
X022046Y025854D01*
X022046Y025936D02*
X022294Y025936D01*
X022794Y025948D02*
X022794Y024952D01*
X022546Y024952D01*
X022546Y025948D01*
X022794Y025948D01*
X022794Y025034D02*
X022546Y025034D01*
X022546Y025116D02*
X022794Y025116D01*
X022794Y025198D02*
X022546Y025198D01*
X022546Y025280D02*
X022794Y025280D01*
X022794Y025362D02*
X022546Y025362D01*
X022546Y025444D02*
X022794Y025444D01*
X022794Y025526D02*
X022546Y025526D01*
X022546Y025608D02*
X022794Y025608D01*
X022794Y025690D02*
X022546Y025690D01*
X022546Y025772D02*
X022794Y025772D01*
X022794Y025854D02*
X022546Y025854D01*
X022546Y025936D02*
X022794Y025936D01*
X023294Y025948D02*
X023294Y024952D01*
X023046Y024952D01*
X023046Y025948D01*
X023294Y025948D01*
X023294Y025034D02*
X023046Y025034D01*
X023046Y025116D02*
X023294Y025116D01*
X023294Y025198D02*
X023046Y025198D01*
X023046Y025280D02*
X023294Y025280D01*
X023294Y025362D02*
X023046Y025362D01*
X023046Y025444D02*
X023294Y025444D01*
X023294Y025526D02*
X023046Y025526D01*
X023046Y025608D02*
X023294Y025608D01*
X023294Y025690D02*
X023046Y025690D01*
X023046Y025772D02*
X023294Y025772D01*
X023294Y025854D02*
X023046Y025854D01*
X023046Y025936D02*
X023294Y025936D01*
X023794Y025948D02*
X023794Y024952D01*
X023546Y024952D01*
X023546Y025948D01*
X023794Y025948D01*
X023794Y025034D02*
X023546Y025034D01*
X023546Y025116D02*
X023794Y025116D01*
X023794Y025198D02*
X023546Y025198D01*
X023546Y025280D02*
X023794Y025280D01*
X023794Y025362D02*
X023546Y025362D01*
X023546Y025444D02*
X023794Y025444D01*
X023794Y025526D02*
X023546Y025526D01*
X023546Y025608D02*
X023794Y025608D01*
X023794Y025690D02*
X023546Y025690D01*
X023546Y025772D02*
X023794Y025772D01*
X023794Y025854D02*
X023546Y025854D01*
X023546Y025936D02*
X023794Y025936D01*
X024294Y025948D02*
X024294Y024952D01*
X024046Y024952D01*
X024046Y025948D01*
X024294Y025948D01*
X024294Y025034D02*
X024046Y025034D01*
X024046Y025116D02*
X024294Y025116D01*
X024294Y025198D02*
X024046Y025198D01*
X024046Y025280D02*
X024294Y025280D01*
X024294Y025362D02*
X024046Y025362D01*
X024046Y025444D02*
X024294Y025444D01*
X024294Y025526D02*
X024046Y025526D01*
X024046Y025608D02*
X024294Y025608D01*
X024294Y025690D02*
X024046Y025690D01*
X024046Y025772D02*
X024294Y025772D01*
X024294Y025854D02*
X024046Y025854D01*
X024046Y025936D02*
X024294Y025936D01*
X024794Y025948D02*
X024794Y024952D01*
X024546Y024952D01*
X024546Y025948D01*
X024794Y025948D01*
X024794Y025034D02*
X024546Y025034D01*
X024546Y025116D02*
X024794Y025116D01*
X024794Y025198D02*
X024546Y025198D01*
X024546Y025280D02*
X024794Y025280D01*
X024794Y025362D02*
X024546Y025362D01*
X024546Y025444D02*
X024794Y025444D01*
X024794Y025526D02*
X024546Y025526D01*
X024546Y025608D02*
X024794Y025608D01*
X024794Y025690D02*
X024546Y025690D01*
X024546Y025772D02*
X024794Y025772D01*
X024794Y025854D02*
X024546Y025854D01*
X024546Y025936D02*
X024794Y025936D01*
X025294Y025948D02*
X025294Y024952D01*
X025046Y024952D01*
X025046Y025948D01*
X025294Y025948D01*
X025294Y025034D02*
X025046Y025034D01*
X025046Y025116D02*
X025294Y025116D01*
X025294Y025198D02*
X025046Y025198D01*
X025046Y025280D02*
X025294Y025280D01*
X025294Y025362D02*
X025046Y025362D01*
X025046Y025444D02*
X025294Y025444D01*
X025294Y025526D02*
X025046Y025526D01*
X025046Y025608D02*
X025294Y025608D01*
X025294Y025690D02*
X025046Y025690D01*
X025046Y025772D02*
X025294Y025772D01*
X025294Y025854D02*
X025046Y025854D01*
X025046Y025936D02*
X025294Y025936D01*
D27*
X026324Y021738D02*
X026324Y019878D01*
X025516Y019878D01*
X025516Y021738D01*
X026324Y021738D01*
X026324Y020147D02*
X025516Y020147D01*
X025516Y020416D02*
X026324Y020416D01*
X026324Y020685D02*
X025516Y020685D01*
X025516Y020954D02*
X026324Y020954D01*
X026324Y021223D02*
X025516Y021223D01*
X025516Y021492D02*
X026324Y021492D01*
X021324Y021738D02*
X021324Y019878D01*
X020516Y019878D01*
X020516Y021738D01*
X021324Y021738D01*
X021324Y020147D02*
X020516Y020147D01*
X020516Y020416D02*
X021324Y020416D01*
X021324Y020685D02*
X020516Y020685D01*
X020516Y020954D02*
X021324Y020954D01*
X021324Y021223D02*
X020516Y021223D01*
X020516Y021492D02*
X021324Y021492D01*
D28*
X033150Y032818D02*
X033150Y033280D01*
X033416Y033280D01*
X033416Y032818D01*
X033150Y032818D01*
X033150Y032906D02*
X033416Y032906D01*
X033416Y032994D02*
X033150Y032994D01*
X033150Y033082D02*
X033416Y033082D01*
X033416Y033170D02*
X033150Y033170D01*
X033150Y033258D02*
X033416Y033258D01*
X033524Y033280D02*
X033524Y032818D01*
X033524Y033280D02*
X033790Y033280D01*
X033790Y032818D01*
X033524Y032818D01*
X033524Y032906D02*
X033790Y032906D01*
X033790Y032994D02*
X033524Y032994D01*
X033524Y033082D02*
X033790Y033082D01*
X033790Y033170D02*
X033524Y033170D01*
X033524Y033258D02*
X033790Y033258D01*
X033898Y033280D02*
X033898Y032818D01*
X033898Y033280D02*
X034164Y033280D01*
X034164Y032818D01*
X033898Y032818D01*
X033898Y032906D02*
X034164Y032906D01*
X034164Y032994D02*
X033898Y032994D01*
X033898Y033082D02*
X034164Y033082D01*
X034164Y033170D02*
X033898Y033170D01*
X033898Y033258D02*
X034164Y033258D01*
X033898Y033762D02*
X033898Y034224D01*
X034164Y034224D01*
X034164Y033762D01*
X033898Y033762D01*
X033898Y033850D02*
X034164Y033850D01*
X034164Y033938D02*
X033898Y033938D01*
X033898Y034026D02*
X034164Y034026D01*
X034164Y034114D02*
X033898Y034114D01*
X033898Y034202D02*
X034164Y034202D01*
X033524Y034224D02*
X033524Y033762D01*
X033524Y034224D02*
X033790Y034224D01*
X033790Y033762D01*
X033524Y033762D01*
X033524Y033850D02*
X033790Y033850D01*
X033790Y033938D02*
X033524Y033938D01*
X033524Y034026D02*
X033790Y034026D01*
X033790Y034114D02*
X033524Y034114D01*
X033524Y034202D02*
X033790Y034202D01*
X033150Y034224D02*
X033150Y033762D01*
X033150Y034224D02*
X033416Y034224D01*
X033416Y033762D01*
X033150Y033762D01*
X033150Y033850D02*
X033416Y033850D01*
X033416Y033938D02*
X033150Y033938D01*
X033150Y034026D02*
X033416Y034026D01*
X033416Y034114D02*
X033150Y034114D01*
X033150Y034202D02*
X033416Y034202D01*
X034794Y030878D02*
X034794Y030416D01*
X034528Y030416D01*
X034528Y030878D01*
X034794Y030878D01*
X034794Y030504D02*
X034528Y030504D01*
X034528Y030592D02*
X034794Y030592D01*
X034794Y030680D02*
X034528Y030680D01*
X034528Y030768D02*
X034794Y030768D01*
X034794Y030856D02*
X034528Y030856D01*
X035168Y030878D02*
X035168Y030416D01*
X034902Y030416D01*
X034902Y030878D01*
X035168Y030878D01*
X035168Y030504D02*
X034902Y030504D01*
X034902Y030592D02*
X035168Y030592D01*
X035168Y030680D02*
X034902Y030680D01*
X034902Y030768D02*
X035168Y030768D01*
X035168Y030856D02*
X034902Y030856D01*
X035542Y030878D02*
X035542Y030416D01*
X035276Y030416D01*
X035276Y030878D01*
X035542Y030878D01*
X035542Y030504D02*
X035276Y030504D01*
X035276Y030592D02*
X035542Y030592D01*
X035542Y030680D02*
X035276Y030680D01*
X035276Y030768D02*
X035542Y030768D01*
X035542Y030856D02*
X035276Y030856D01*
X035542Y029933D02*
X035542Y029471D01*
X035276Y029471D01*
X035276Y029933D01*
X035542Y029933D01*
X035542Y029559D02*
X035276Y029559D01*
X035276Y029647D02*
X035542Y029647D01*
X035542Y029735D02*
X035276Y029735D01*
X035276Y029823D02*
X035542Y029823D01*
X035542Y029911D02*
X035276Y029911D01*
X035168Y029933D02*
X035168Y029471D01*
X034902Y029471D01*
X034902Y029933D01*
X035168Y029933D01*
X035168Y029559D02*
X034902Y029559D01*
X034902Y029647D02*
X035168Y029647D01*
X035168Y029735D02*
X034902Y029735D01*
X034902Y029823D02*
X035168Y029823D01*
X035168Y029911D02*
X034902Y029911D01*
X034794Y029933D02*
X034794Y029471D01*
X034528Y029471D01*
X034528Y029933D01*
X034794Y029933D01*
X034794Y029559D02*
X034528Y029559D01*
X034528Y029647D02*
X034794Y029647D01*
X034794Y029735D02*
X034528Y029735D01*
X034528Y029823D02*
X034794Y029823D01*
X034794Y029911D02*
X034528Y029911D01*
X034095Y037936D02*
X034095Y038398D01*
X034361Y038398D01*
X034361Y037936D01*
X034095Y037936D01*
X034095Y038024D02*
X034361Y038024D01*
X034361Y038112D02*
X034095Y038112D01*
X034095Y038200D02*
X034361Y038200D01*
X034361Y038288D02*
X034095Y038288D01*
X034095Y038376D02*
X034361Y038376D01*
X033721Y038398D02*
X033721Y037936D01*
X033721Y038398D02*
X033987Y038398D01*
X033987Y037936D01*
X033721Y037936D01*
X033721Y038024D02*
X033987Y038024D01*
X033987Y038112D02*
X033721Y038112D01*
X033721Y038200D02*
X033987Y038200D01*
X033987Y038288D02*
X033721Y038288D01*
X033721Y038376D02*
X033987Y038376D01*
X033347Y038398D02*
X033347Y037936D01*
X033347Y038398D02*
X033613Y038398D01*
X033613Y037936D01*
X033347Y037936D01*
X033347Y038024D02*
X033613Y038024D01*
X033613Y038112D02*
X033347Y038112D01*
X033347Y038200D02*
X033613Y038200D01*
X033613Y038288D02*
X033347Y038288D01*
X033347Y038376D02*
X033613Y038376D01*
X033347Y038881D02*
X033347Y039343D01*
X033613Y039343D01*
X033613Y038881D01*
X033347Y038881D01*
X033347Y038969D02*
X033613Y038969D01*
X033613Y039057D02*
X033347Y039057D01*
X033347Y039145D02*
X033613Y039145D01*
X033613Y039233D02*
X033347Y039233D01*
X033347Y039321D02*
X033613Y039321D01*
X033721Y039343D02*
X033721Y038881D01*
X033721Y039343D02*
X033987Y039343D01*
X033987Y038881D01*
X033721Y038881D01*
X033721Y038969D02*
X033987Y038969D01*
X033987Y039057D02*
X033721Y039057D01*
X033721Y039145D02*
X033987Y039145D01*
X033987Y039233D02*
X033721Y039233D01*
X033721Y039321D02*
X033987Y039321D01*
X034095Y039343D02*
X034095Y038881D01*
X034095Y039343D02*
X034361Y039343D01*
X034361Y038881D01*
X034095Y038881D01*
X034095Y038969D02*
X034361Y038969D01*
X034361Y039057D02*
X034095Y039057D01*
X034095Y039145D02*
X034361Y039145D01*
X034361Y039233D02*
X034095Y039233D01*
X034095Y039321D02*
X034361Y039321D01*
D29*
X030345Y028782D02*
X029725Y028782D01*
X029725Y029166D01*
X030345Y029166D01*
X030345Y028782D01*
X030345Y028909D02*
X029725Y028909D01*
X029725Y029036D02*
X030345Y029036D01*
X030345Y029163D02*
X029725Y029163D01*
X029725Y027640D02*
X030345Y027640D01*
X029725Y027640D02*
X029725Y028024D01*
X030345Y028024D01*
X030345Y027640D01*
X030345Y027767D02*
X029725Y027767D01*
X029725Y027894D02*
X030345Y027894D01*
X030345Y028021D02*
X029725Y028021D01*
X030945Y027601D02*
X031565Y027601D01*
X030945Y027601D02*
X030945Y027985D01*
X031565Y027985D01*
X031565Y027601D01*
X031565Y027728D02*
X030945Y027728D01*
X030945Y027855D02*
X031565Y027855D01*
X031565Y027982D02*
X030945Y027982D01*
X030945Y026459D02*
X031565Y026459D01*
X030945Y026459D02*
X030945Y026843D01*
X031565Y026843D01*
X031565Y026459D01*
X031565Y026586D02*
X030945Y026586D01*
X030945Y026713D02*
X031565Y026713D01*
X031565Y026840D02*
X030945Y026840D01*
X030984Y055199D02*
X031604Y055199D01*
X030984Y055199D02*
X030984Y055583D01*
X031604Y055583D01*
X031604Y055199D01*
X031604Y055326D02*
X030984Y055326D01*
X030984Y055453D02*
X031604Y055453D01*
X031604Y055580D02*
X030984Y055580D01*
X030984Y056341D02*
X031604Y056341D01*
X030984Y056341D02*
X030984Y056725D01*
X031604Y056725D01*
X031604Y056341D01*
X031604Y056468D02*
X030984Y056468D01*
X030984Y056595D02*
X031604Y056595D01*
X031604Y056722D02*
X030984Y056722D01*
D30*
X031499Y039733D02*
X031499Y038491D01*
X031089Y038491D01*
X031089Y039733D01*
X031499Y039733D01*
X031499Y038627D02*
X031089Y038627D01*
X031089Y038763D02*
X031499Y038763D01*
X031499Y038899D02*
X031089Y038899D01*
X031089Y039035D02*
X031499Y039035D01*
X031499Y039171D02*
X031089Y039171D01*
X031089Y039307D02*
X031499Y039307D01*
X031499Y039443D02*
X031089Y039443D01*
X031089Y039579D02*
X031499Y039579D01*
X031499Y039715D02*
X031089Y039715D01*
X030499Y037213D02*
X030499Y035971D01*
X030089Y035971D01*
X030089Y037213D01*
X030499Y037213D01*
X030499Y036107D02*
X030089Y036107D01*
X030089Y036243D02*
X030499Y036243D01*
X030499Y036379D02*
X030089Y036379D01*
X030089Y036515D02*
X030499Y036515D01*
X030499Y036651D02*
X030089Y036651D01*
X030089Y036787D02*
X030499Y036787D01*
X030499Y036923D02*
X030089Y036923D01*
X030089Y037059D02*
X030499Y037059D01*
X030499Y037195D02*
X030089Y037195D01*
X028547Y035796D02*
X028547Y034554D01*
X028137Y034554D01*
X028137Y035796D01*
X028547Y035796D01*
X028547Y034690D02*
X028137Y034690D01*
X028137Y034826D02*
X028547Y034826D01*
X028547Y034962D02*
X028137Y034962D01*
X028137Y035098D02*
X028547Y035098D01*
X028547Y035234D02*
X028137Y035234D01*
X028137Y035370D02*
X028547Y035370D01*
X028547Y035506D02*
X028137Y035506D01*
X028137Y035642D02*
X028547Y035642D01*
X028547Y035778D02*
X028137Y035778D01*
X027547Y033276D02*
X027547Y032034D01*
X027137Y032034D01*
X027137Y033276D01*
X027547Y033276D01*
X027547Y032170D02*
X027137Y032170D01*
X027137Y032306D02*
X027547Y032306D01*
X027547Y032442D02*
X027137Y032442D01*
X027137Y032578D02*
X027547Y032578D01*
X027547Y032714D02*
X027137Y032714D01*
X027137Y032850D02*
X027547Y032850D01*
X027547Y032986D02*
X027137Y032986D01*
X027137Y033122D02*
X027547Y033122D01*
X027547Y033258D02*
X027137Y033258D01*
X029547Y033276D02*
X029547Y032034D01*
X029137Y032034D01*
X029137Y033276D01*
X029547Y033276D01*
X029547Y032170D02*
X029137Y032170D01*
X029137Y032306D02*
X029547Y032306D01*
X029547Y032442D02*
X029137Y032442D01*
X029137Y032578D02*
X029547Y032578D01*
X029547Y032714D02*
X029137Y032714D01*
X029137Y032850D02*
X029547Y032850D01*
X029547Y032986D02*
X029137Y032986D01*
X029137Y033122D02*
X029547Y033122D01*
X029547Y033258D02*
X029137Y033258D01*
X032287Y032252D02*
X032287Y031010D01*
X031877Y031010D01*
X031877Y032252D01*
X032287Y032252D01*
X032287Y031146D02*
X031877Y031146D01*
X031877Y031282D02*
X032287Y031282D01*
X032287Y031418D02*
X031877Y031418D01*
X031877Y031554D02*
X032287Y031554D01*
X032287Y031690D02*
X031877Y031690D01*
X031877Y031826D02*
X032287Y031826D01*
X032287Y031962D02*
X031877Y031962D01*
X031877Y032098D02*
X032287Y032098D01*
X032287Y032234D02*
X031877Y032234D01*
X031287Y029733D02*
X031287Y028491D01*
X030877Y028491D01*
X030877Y029733D01*
X031287Y029733D01*
X031287Y028627D02*
X030877Y028627D01*
X030877Y028763D02*
X031287Y028763D01*
X031287Y028899D02*
X030877Y028899D01*
X030877Y029035D02*
X031287Y029035D01*
X031287Y029171D02*
X030877Y029171D01*
X030877Y029307D02*
X031287Y029307D01*
X031287Y029443D02*
X030877Y029443D01*
X030877Y029579D02*
X031287Y029579D01*
X031287Y029715D02*
X030877Y029715D01*
X033287Y029733D02*
X033287Y028491D01*
X032877Y028491D01*
X032877Y029733D01*
X033287Y029733D01*
X033287Y028627D02*
X032877Y028627D01*
X032877Y028763D02*
X033287Y028763D01*
X033287Y028899D02*
X032877Y028899D01*
X032877Y029035D02*
X033287Y029035D01*
X033287Y029171D02*
X032877Y029171D01*
X032877Y029307D02*
X033287Y029307D01*
X033287Y029443D02*
X032877Y029443D01*
X032877Y029579D02*
X033287Y029579D01*
X033287Y029715D02*
X032877Y029715D01*
X032499Y035971D02*
X032499Y037213D01*
X032499Y035971D02*
X032089Y035971D01*
X032089Y037213D01*
X032499Y037213D01*
X032499Y036107D02*
X032089Y036107D01*
X032089Y036243D02*
X032499Y036243D01*
X032499Y036379D02*
X032089Y036379D01*
X032089Y036515D02*
X032499Y036515D01*
X032499Y036651D02*
X032089Y036651D01*
X032089Y036787D02*
X032499Y036787D01*
X032499Y036923D02*
X032089Y036923D01*
X032089Y037059D02*
X032499Y037059D01*
X032499Y037195D02*
X032089Y037195D01*
D31*
X028597Y037509D02*
X028087Y037509D01*
X028597Y037509D02*
X028597Y037073D01*
X028087Y037073D01*
X028087Y037509D01*
X028087Y037218D02*
X028597Y037218D01*
X028597Y037363D02*
X028087Y037363D01*
X028087Y037508D02*
X028597Y037508D01*
X028597Y036741D02*
X028087Y036741D01*
X028597Y036741D02*
X028597Y036305D01*
X028087Y036305D01*
X028087Y036741D01*
X028087Y036450D02*
X028597Y036450D01*
X028597Y036595D02*
X028087Y036595D01*
X028087Y036740D02*
X028597Y036740D01*
X026027Y034170D02*
X026027Y033660D01*
X026027Y034170D02*
X026463Y034170D01*
X026463Y033660D01*
X026027Y033660D01*
X026027Y033805D02*
X026463Y033805D01*
X026463Y033950D02*
X026027Y033950D01*
X026027Y034095D02*
X026463Y034095D01*
X025260Y034170D02*
X025260Y033660D01*
X025260Y034170D02*
X025696Y034170D01*
X025696Y033660D01*
X025260Y033660D01*
X025260Y033805D02*
X025696Y033805D01*
X025696Y033950D02*
X025260Y033950D01*
X025260Y034095D02*
X025696Y034095D01*
X028284Y031128D02*
X028794Y031128D01*
X028284Y031128D02*
X028284Y031564D01*
X028794Y031564D01*
X028794Y031128D01*
X028794Y031273D02*
X028284Y031273D01*
X028284Y031418D02*
X028794Y031418D01*
X028794Y031563D02*
X028284Y031563D01*
X028284Y030360D02*
X028794Y030360D01*
X028284Y030360D02*
X028284Y030796D01*
X028794Y030796D01*
X028794Y030360D01*
X028794Y030505D02*
X028284Y030505D01*
X028284Y030650D02*
X028794Y030650D01*
X028794Y030795D02*
X028284Y030795D01*
X028126Y029120D02*
X028636Y029120D01*
X028126Y029120D02*
X028126Y029556D01*
X028636Y029556D01*
X028636Y029120D01*
X028636Y029265D02*
X028126Y029265D01*
X028126Y029410D02*
X028636Y029410D01*
X028636Y029555D02*
X028126Y029555D01*
X028126Y028352D02*
X028636Y028352D01*
X028126Y028352D02*
X028126Y028788D01*
X028636Y028788D01*
X028636Y028352D01*
X028636Y028497D02*
X028126Y028497D01*
X028126Y028642D02*
X028636Y028642D01*
X028636Y028787D02*
X028126Y028787D01*
X033992Y027781D02*
X034502Y027781D01*
X033992Y027781D02*
X033992Y028217D01*
X034502Y028217D01*
X034502Y027781D01*
X034502Y027926D02*
X033992Y027926D01*
X033992Y028071D02*
X034502Y028071D01*
X034502Y028216D02*
X033992Y028216D01*
X033992Y027014D02*
X034502Y027014D01*
X033992Y027014D02*
X033992Y027450D01*
X034502Y027450D01*
X034502Y027014D01*
X034502Y027159D02*
X033992Y027159D01*
X033992Y027304D02*
X034502Y027304D01*
X034502Y027449D02*
X033992Y027449D01*
X026778Y039920D02*
X026778Y040430D01*
X026778Y039920D02*
X026342Y039920D01*
X026342Y040430D01*
X026778Y040430D01*
X026778Y040065D02*
X026342Y040065D01*
X026342Y040210D02*
X026778Y040210D01*
X026778Y040355D02*
X026342Y040355D01*
X026010Y040430D02*
X026010Y039920D01*
X025574Y039920D01*
X025574Y040430D01*
X026010Y040430D01*
X026010Y040065D02*
X025574Y040065D01*
X025574Y040210D02*
X026010Y040210D01*
X026010Y040355D02*
X025574Y040355D01*
X026010Y041140D02*
X026010Y041650D01*
X026010Y041140D02*
X025574Y041140D01*
X025574Y041650D01*
X026010Y041650D01*
X026010Y041285D02*
X025574Y041285D01*
X025574Y041430D02*
X026010Y041430D01*
X026010Y041575D02*
X025574Y041575D01*
X026778Y041650D02*
X026778Y041140D01*
X026342Y041140D01*
X026342Y041650D01*
X026778Y041650D01*
X026778Y041285D02*
X026342Y041285D01*
X026342Y041430D02*
X026778Y041430D01*
X026778Y041575D02*
X026342Y041575D01*
X015319Y029052D02*
X015319Y028542D01*
X015319Y029052D02*
X015755Y029052D01*
X015755Y028542D01*
X015319Y028542D01*
X015319Y028687D02*
X015755Y028687D01*
X015755Y028832D02*
X015319Y028832D01*
X015319Y028977D02*
X015755Y028977D01*
X014551Y029052D02*
X014551Y028542D01*
X014551Y029052D02*
X014987Y029052D01*
X014987Y028542D01*
X014551Y028542D01*
X014551Y028687D02*
X014987Y028687D01*
X014987Y028832D02*
X014551Y028832D01*
X014551Y028977D02*
X014987Y028977D01*
D32*
X028173Y025997D02*
X028173Y025101D01*
X028173Y025997D02*
X028675Y025997D01*
X028675Y025101D01*
X028173Y025101D01*
X028173Y025267D02*
X028675Y025267D01*
X028675Y025433D02*
X028173Y025433D01*
X028173Y025599D02*
X028675Y025599D01*
X028675Y025765D02*
X028173Y025765D01*
X028173Y025931D02*
X028675Y025931D01*
X029173Y025997D02*
X029173Y025101D01*
X029173Y025997D02*
X029675Y025997D01*
X029675Y025101D01*
X029173Y025101D01*
X029173Y025267D02*
X029675Y025267D01*
X029675Y025433D02*
X029173Y025433D01*
X029173Y025599D02*
X029675Y025599D01*
X029675Y025765D02*
X029173Y025765D01*
X029173Y025931D02*
X029675Y025931D01*
X030173Y025997D02*
X030173Y025101D01*
X030173Y025997D02*
X030675Y025997D01*
X030675Y025101D01*
X030173Y025101D01*
X030173Y025267D02*
X030675Y025267D01*
X030675Y025433D02*
X030173Y025433D01*
X030173Y025599D02*
X030675Y025599D01*
X030675Y025765D02*
X030173Y025765D01*
X030173Y025931D02*
X030675Y025931D01*
X032504Y025997D02*
X032504Y025101D01*
X032504Y025997D02*
X033006Y025997D01*
X033006Y025101D01*
X032504Y025101D01*
X032504Y025267D02*
X033006Y025267D01*
X033006Y025433D02*
X032504Y025433D01*
X032504Y025599D02*
X033006Y025599D01*
X033006Y025765D02*
X032504Y025765D01*
X032504Y025931D02*
X033006Y025931D01*
X033504Y025997D02*
X033504Y025101D01*
X033504Y025997D02*
X034006Y025997D01*
X034006Y025101D01*
X033504Y025101D01*
X033504Y025267D02*
X034006Y025267D01*
X034006Y025433D02*
X033504Y025433D01*
X033504Y025599D02*
X034006Y025599D01*
X034006Y025765D02*
X033504Y025765D01*
X033504Y025931D02*
X034006Y025931D01*
X034504Y025997D02*
X034504Y025101D01*
X034504Y025997D02*
X035006Y025997D01*
X035006Y025101D01*
X034504Y025101D01*
X034504Y025267D02*
X035006Y025267D01*
X035006Y025433D02*
X034504Y025433D01*
X034504Y025599D02*
X035006Y025599D01*
X035006Y025765D02*
X034504Y025765D01*
X034504Y025931D02*
X035006Y025931D01*
X034504Y021075D02*
X034504Y020179D01*
X034504Y021075D02*
X035006Y021075D01*
X035006Y020179D01*
X034504Y020179D01*
X034504Y020345D02*
X035006Y020345D01*
X035006Y020511D02*
X034504Y020511D01*
X034504Y020677D02*
X035006Y020677D01*
X035006Y020843D02*
X034504Y020843D01*
X034504Y021009D02*
X035006Y021009D01*
X033504Y021075D02*
X033504Y020179D01*
X033504Y021075D02*
X034006Y021075D01*
X034006Y020179D01*
X033504Y020179D01*
X033504Y020345D02*
X034006Y020345D01*
X034006Y020511D02*
X033504Y020511D01*
X033504Y020677D02*
X034006Y020677D01*
X034006Y020843D02*
X033504Y020843D01*
X033504Y021009D02*
X034006Y021009D01*
X032504Y021075D02*
X032504Y020179D01*
X032504Y021075D02*
X033006Y021075D01*
X033006Y020179D01*
X032504Y020179D01*
X032504Y020345D02*
X033006Y020345D01*
X033006Y020511D02*
X032504Y020511D01*
X032504Y020677D02*
X033006Y020677D01*
X033006Y020843D02*
X032504Y020843D01*
X032504Y021009D02*
X033006Y021009D01*
X030173Y021075D02*
X030173Y020179D01*
X030173Y021075D02*
X030675Y021075D01*
X030675Y020179D01*
X030173Y020179D01*
X030173Y020345D02*
X030675Y020345D01*
X030675Y020511D02*
X030173Y020511D01*
X030173Y020677D02*
X030675Y020677D01*
X030675Y020843D02*
X030173Y020843D01*
X030173Y021009D02*
X030675Y021009D01*
X029173Y021075D02*
X029173Y020179D01*
X029173Y021075D02*
X029675Y021075D01*
X029675Y020179D01*
X029173Y020179D01*
X029173Y020345D02*
X029675Y020345D01*
X029675Y020511D02*
X029173Y020511D01*
X029173Y020677D02*
X029675Y020677D01*
X029675Y020843D02*
X029173Y020843D01*
X029173Y021009D02*
X029675Y021009D01*
X028173Y021075D02*
X028173Y020179D01*
X028173Y021075D02*
X028675Y021075D01*
X028675Y020179D01*
X028173Y020179D01*
X028173Y020345D02*
X028675Y020345D01*
X028675Y020511D02*
X028173Y020511D01*
X028173Y020677D02*
X028675Y020677D01*
X028675Y020843D02*
X028173Y020843D01*
X028173Y021009D02*
X028675Y021009D01*
D33*
X026086Y036671D03*
D34*
X024917Y041473D02*
X024917Y042025D01*
X024917Y041473D02*
X024443Y041473D01*
X024443Y042025D01*
X024917Y042025D01*
X024917Y041629D02*
X024443Y041629D01*
X024443Y041785D02*
X024917Y041785D01*
X024917Y041941D02*
X024443Y041941D01*
X023972Y042025D02*
X023972Y041473D01*
X023498Y041473D01*
X023498Y042025D01*
X023972Y042025D01*
X023972Y041629D02*
X023498Y041629D01*
X023498Y041785D02*
X023972Y041785D01*
X023972Y041941D02*
X023498Y041941D01*
X023972Y043127D02*
X023972Y043679D01*
X023972Y043127D02*
X023498Y043127D01*
X023498Y043679D01*
X023972Y043679D01*
X023972Y043283D02*
X023498Y043283D01*
X023498Y043439D02*
X023972Y043439D01*
X023972Y043595D02*
X023498Y043595D01*
X024917Y043679D02*
X024917Y043127D01*
X024443Y043127D01*
X024443Y043679D01*
X024917Y043679D01*
X024917Y043283D02*
X024443Y043283D01*
X024443Y043439D02*
X024917Y043439D01*
X024917Y043595D02*
X024443Y043595D01*
D35*
X023420Y046907D03*
X022436Y046907D03*
X022436Y048112D03*
X023420Y048088D03*
X023617Y049269D03*
X022830Y049269D03*
X024405Y049269D03*
X025192Y049269D03*
X026373Y048088D03*
X026373Y047300D03*
X030507Y047300D03*
X030507Y046316D03*
X019877Y035883D03*
X013381Y024269D03*
X013420Y019387D03*
X029326Y024466D03*
X037279Y024623D03*
X014956Y055765D03*
X014956Y056513D03*
X013696Y056552D03*
X013696Y055765D03*
D36*
X013386Y033093D02*
X015738Y033093D01*
X013386Y033093D02*
X013386Y033713D01*
X015738Y033713D01*
X015738Y033093D01*
X015738Y033299D02*
X013386Y033299D01*
X013386Y033505D02*
X015738Y033505D01*
X015738Y033711D02*
X013386Y033711D01*
X013386Y031361D02*
X015738Y031361D01*
X013386Y031361D02*
X013386Y031981D01*
X015738Y031981D01*
X015738Y031361D01*
X015738Y031567D02*
X013386Y031567D01*
X013386Y031773D02*
X015738Y031773D01*
X015738Y031979D02*
X013386Y031979D01*
D37*
X027426Y040538D02*
X028706Y040538D01*
X027426Y040538D02*
X027426Y041070D01*
X028706Y041070D01*
X028706Y040538D01*
X028706Y040714D02*
X027426Y040714D01*
X027426Y040890D02*
X028706Y040890D01*
X028706Y041066D02*
X027426Y041066D01*
X029552Y040538D02*
X030832Y040538D01*
X029552Y040538D02*
X029552Y041070D01*
X030832Y041070D01*
X030832Y040538D01*
X030832Y040714D02*
X029552Y040714D01*
X029552Y040890D02*
X030832Y040890D01*
X030832Y041066D02*
X029552Y041066D01*
X036482Y041424D02*
X036482Y042704D01*
X036482Y041424D02*
X035950Y041424D01*
X035950Y042704D01*
X036482Y042704D01*
X036482Y041600D02*
X035950Y041600D01*
X035950Y041776D02*
X036482Y041776D01*
X036482Y041952D02*
X035950Y041952D01*
X035950Y042128D02*
X036482Y042128D01*
X036482Y042304D02*
X035950Y042304D01*
X035950Y042480D02*
X036482Y042480D01*
X036482Y042656D02*
X035950Y042656D01*
X036482Y040578D02*
X036482Y039298D01*
X035950Y039298D01*
X035950Y040578D01*
X036482Y040578D01*
X036482Y039474D02*
X035950Y039474D01*
X035950Y039650D02*
X036482Y039650D01*
X036482Y039826D02*
X035950Y039826D01*
X035950Y040002D02*
X036482Y040002D01*
X036482Y040178D02*
X035950Y040178D01*
X035950Y040354D02*
X036482Y040354D01*
X036482Y040530D02*
X035950Y040530D01*
D38*
X036019Y022596D03*
X036019Y019840D03*
X031570Y019840D03*
X031570Y022596D03*
X027121Y022596D03*
X027121Y019840D03*
X022672Y019840D03*
X022672Y022596D03*
X018224Y022596D03*
X018224Y019840D03*
X016747Y043285D03*
X013991Y043285D03*
D39*
X022731Y034112D03*
X022314Y029903D03*
X021314Y029903D03*
X020314Y029903D03*
X021314Y026903D03*
X022314Y026903D03*
X023314Y026903D03*
X024314Y026903D03*
X025314Y026903D03*
X026314Y026903D03*
X027314Y026903D03*
X027314Y029903D03*
X026314Y029903D03*
X025314Y029903D03*
X024314Y029903D03*
X023314Y029903D03*
X020684Y056562D03*
X020074Y057330D03*
X019464Y056562D03*
X017928Y056562D03*
X017318Y057330D03*
X016708Y056562D03*
D40*
X015743Y022497D03*
X015743Y020726D03*
D41*
X021649Y043560D03*
X022751Y055942D03*
X024483Y055942D03*
D42*
X018696Y045824D03*
X014464Y051631D03*
D43*
X014464Y052615D03*
X015448Y052615D03*
X015448Y051631D03*
X015448Y053600D03*
X014464Y053600D03*
X016728Y046808D03*
X016728Y045824D03*
X017712Y045824D03*
X017712Y046808D03*
X018696Y046808D03*
D44*
X015468Y045489D03*
X014129Y054860D03*
D45*
X015783Y050371D03*
X019956Y047143D03*
D46*
X023716Y034112D03*
X020314Y026903D03*
D47*
X018893Y030962D03*
X018105Y030962D03*
X017318Y030962D03*
X016531Y030962D03*
X015743Y029978D03*
X015153Y029978D03*
X014956Y034702D03*
X015743Y034702D03*
X014168Y034702D03*
X015625Y036356D03*
X016294Y036356D03*
X015940Y036986D03*
X018184Y036828D03*
X018184Y037458D03*
X018184Y038049D03*
X018854Y038049D03*
X018854Y037458D03*
X018854Y036867D03*
X022042Y039230D03*
X023420Y039230D03*
X022594Y041789D03*
X025428Y043285D03*
X027279Y045450D03*
X025389Y046592D03*
X023814Y046119D03*
X026452Y050450D03*
X027554Y053797D03*
X025743Y055962D03*
X021649Y055962D03*
X028932Y045844D03*
X029208Y044151D03*
X027554Y042970D03*
X032003Y055647D03*
X030507Y056356D03*
D48*
X032476Y044938D03*
X033066Y044545D03*
X033066Y042576D03*
X031885Y042576D03*
X030743Y044466D03*
X028342Y040017D03*
X032082Y038718D03*
X033854Y039702D03*
X034917Y037812D03*
X035428Y040096D03*
X034838Y033915D03*
X034641Y032537D03*
X034641Y031552D03*
X035035Y028993D03*
X032869Y026434D03*
X028539Y024663D03*
X029287Y019584D03*
X033735Y019584D03*
X026964Y031552D03*
X024168Y039978D03*
X024011Y040647D03*
X019641Y042182D03*
X015940Y042773D03*
X015546Y040804D03*
X013381Y029978D03*
X022042Y020923D03*
X023027Y020923D03*
X020546Y053678D03*
D49*
X017515Y052812D03*
X036413Y052812D03*
X036413Y027222D03*
X014365Y026828D03*
M02*
