G75*
%MOIN*%
%OFA0B0*%
%FSLAX24Y24*%
%IPPOS*%
%LPD*%
%AMOC8*
5,1,8,0,0,1.08239X$1,22.5*
%
%ADD10C,0.0050*%
%ADD11C,0.0059*%
%ADD12C,0.0760*%
%ADD13R,0.0560X0.0560*%
%ADD14C,0.0560*%
%ADD15R,0.0709X0.0709*%
%ADD16R,0.0500X0.0500*%
%ADD17C,0.0197*%
%ADD18C,0.0148*%
%ADD19C,0.0660*%
%ADD20C,0.0049*%
%ADD21R,0.0700X0.0700*%
%ADD22C,0.0700*%
%ADD23C,0.1000*%
%ADD24C,0.0860*%
%ADD25R,0.0660X0.0660*%
%ADD26C,0.0138*%
%ADD27C,0.0079*%
%ADD28C,0.0315*%
%ADD29C,0.0394*%
%ADD30C,0.0500*%
%ADD31C,0.0098*%
%ADD32C,0.0157*%
%ADD33C,0.0500*%
%ADD34C,0.0354*%
%ADD35C,0.0276*%
%ADD36C,0.0315*%
%ADD37C,0.0709*%
%ADD38C,0.2540*%
%ADD39C,0.0118*%
%ADD40C,0.0394*%
%ADD41C,0.0236*%
D10*
X033879Y017601D02*
X034179Y017601D01*
X034339Y017826D02*
X034639Y017826D01*
X034799Y017826D02*
X035100Y017826D01*
X035260Y017826D02*
X035485Y017826D01*
X035560Y017751D01*
X035560Y017676D01*
X035485Y017601D01*
X035260Y017601D01*
X035260Y018051D01*
X035485Y018051D01*
X035560Y017976D01*
X035560Y017901D01*
X035485Y017826D01*
X035720Y017676D02*
X035795Y017601D01*
X035945Y017601D01*
X036020Y017676D01*
X036020Y017976D01*
X035945Y018051D01*
X035795Y018051D01*
X035720Y017976D01*
X035720Y017676D01*
X036180Y018051D02*
X036481Y018051D01*
X036331Y018051D02*
X036331Y017601D01*
X036791Y017601D02*
X036791Y018051D01*
X036641Y018051D02*
X036941Y018051D01*
X037101Y017976D02*
X037101Y017676D01*
X037176Y017601D01*
X037326Y017601D01*
X037402Y017676D01*
X037402Y017976D01*
X037326Y018051D01*
X037176Y018051D01*
X037101Y017976D01*
X037562Y018051D02*
X037712Y017901D01*
X037862Y018051D01*
X037862Y017601D01*
X037562Y017601D02*
X037562Y018051D01*
X034564Y018051D02*
X034564Y017601D01*
X034339Y017826D02*
X034564Y018051D01*
X033879Y018051D02*
X033879Y017601D01*
X033889Y047522D02*
X033889Y047823D01*
X033739Y047973D01*
X033589Y047823D01*
X033589Y047522D01*
X033589Y047748D02*
X033889Y047748D01*
X034049Y047973D02*
X034049Y047522D01*
X034349Y047522D02*
X034349Y047973D01*
X034199Y047823D01*
X034049Y047973D01*
X034509Y047898D02*
X034509Y047823D01*
X034584Y047748D01*
X034810Y047748D01*
X034970Y047823D02*
X035045Y047748D01*
X035195Y047748D01*
X035270Y047823D01*
X035270Y047898D01*
X035195Y047973D01*
X035045Y047973D01*
X034970Y047898D01*
X034970Y047823D01*
X035045Y047748D02*
X034970Y047672D01*
X034970Y047597D01*
X035045Y047522D01*
X035195Y047522D01*
X035270Y047597D01*
X035270Y047672D01*
X035195Y047748D01*
X035430Y047748D02*
X035730Y047748D01*
X035730Y047823D02*
X035580Y047973D01*
X035430Y047823D01*
X035430Y047522D01*
X035730Y047522D02*
X035730Y047823D01*
X035890Y047973D02*
X036191Y047672D01*
X036116Y047748D02*
X035890Y047522D01*
X036191Y047522D02*
X036191Y047973D01*
X036041Y048507D02*
X035890Y048657D01*
X035890Y048957D01*
X035730Y048957D02*
X035730Y048507D01*
X035730Y048657D02*
X035430Y048957D01*
X035270Y048957D02*
X035270Y048732D01*
X035120Y048807D01*
X035045Y048807D01*
X034970Y048732D01*
X034970Y048582D01*
X035045Y048507D01*
X035195Y048507D01*
X035270Y048582D01*
X035430Y048507D02*
X035655Y048732D01*
X035270Y048957D02*
X034970Y048957D01*
X034810Y048957D02*
X034584Y048957D01*
X034509Y048882D01*
X034509Y048582D01*
X034584Y048507D01*
X034810Y048507D01*
X034810Y048957D01*
X034349Y048882D02*
X034349Y048582D01*
X034274Y048507D01*
X034124Y048507D01*
X034049Y048582D01*
X034049Y048732D01*
X034199Y048732D01*
X034049Y048882D02*
X034124Y048957D01*
X034274Y048957D01*
X034349Y048882D01*
X033889Y048957D02*
X033664Y048957D01*
X033589Y048882D01*
X033589Y048732D01*
X033664Y048657D01*
X033889Y048657D01*
X033739Y048657D02*
X033589Y048507D01*
X033889Y048507D02*
X033889Y048957D01*
X034584Y047973D02*
X034509Y047898D01*
X034584Y047973D02*
X034810Y047973D01*
X034810Y047522D01*
X034584Y047522D01*
X034509Y047597D01*
X034509Y047672D01*
X034584Y047748D01*
X036041Y048507D02*
X036191Y048657D01*
X036191Y048957D01*
X023019Y058152D02*
X022944Y058152D01*
X022944Y058227D01*
X023019Y058227D01*
X023019Y058152D01*
X022784Y058227D02*
X022709Y058152D01*
X022484Y058152D01*
X022484Y058603D01*
X022709Y058603D01*
X022784Y058528D01*
X022784Y058453D01*
X022709Y058377D01*
X022484Y058377D01*
X022324Y058377D02*
X022174Y058377D01*
X022324Y058377D02*
X022324Y058227D01*
X022249Y058152D01*
X022098Y058152D01*
X022023Y058227D01*
X022023Y058528D01*
X022098Y058603D01*
X022249Y058603D01*
X022324Y058528D01*
X022709Y058377D02*
X022784Y058302D01*
X022784Y058227D01*
X021863Y058152D02*
X021713Y058302D01*
X021788Y058302D02*
X021563Y058302D01*
X021563Y058152D02*
X021563Y058603D01*
X021788Y058603D01*
X021863Y058528D01*
X021863Y058377D01*
X021788Y058302D01*
X020942Y058227D02*
X020867Y058152D01*
X020717Y058152D01*
X020642Y058227D01*
X020642Y058377D02*
X020792Y058453D01*
X020867Y058453D01*
X020942Y058377D01*
X020942Y058227D01*
X020642Y058377D02*
X020642Y058603D01*
X020942Y058603D01*
X020332Y058603D02*
X020332Y058152D01*
X020182Y058152D02*
X020482Y058152D01*
X020182Y058453D02*
X020332Y058603D01*
X020022Y058603D02*
X019721Y058152D01*
X019561Y058152D02*
X019261Y058152D01*
X019411Y058152D02*
X019411Y058603D01*
X019261Y058453D01*
X019101Y058152D02*
X018801Y058152D01*
X018951Y058152D02*
X018951Y058603D01*
X018801Y058453D01*
X018640Y058603D02*
X018340Y058152D01*
X018180Y058152D02*
X017880Y058152D01*
X018180Y058453D01*
X018180Y058528D01*
X018105Y058603D01*
X017955Y058603D01*
X017880Y058528D01*
X017570Y058603D02*
X017570Y058152D01*
X017720Y058152D02*
X017419Y058152D01*
X017419Y058453D02*
X017570Y058603D01*
X016339Y058603D02*
X016038Y058603D01*
X016038Y058152D01*
X016038Y058377D02*
X016188Y058377D01*
X015878Y058377D02*
X015578Y058377D01*
X015418Y058227D02*
X015343Y058152D01*
X015193Y058152D01*
X015117Y058227D01*
X015418Y058528D01*
X015418Y058227D01*
X015117Y058227D02*
X015117Y058528D01*
X015193Y058603D01*
X015343Y058603D01*
X015418Y058528D01*
X014957Y058528D02*
X014657Y058227D01*
X014732Y058152D01*
X014882Y058152D01*
X014957Y058227D01*
X014957Y058528D01*
X014882Y058603D01*
X014732Y058603D01*
X014657Y058528D01*
X014657Y058227D01*
X014497Y058227D02*
X014422Y058152D01*
X014272Y058152D01*
X014197Y058227D01*
X014497Y058528D01*
X014497Y058227D01*
X014197Y058227D02*
X014197Y058528D01*
X014272Y058603D01*
X014422Y058603D01*
X014497Y058528D01*
X014037Y058152D02*
X013736Y058152D01*
X013886Y058152D02*
X013886Y058603D01*
X013736Y058453D01*
X013576Y058603D02*
X013576Y058152D01*
X013276Y058152D02*
X013276Y058603D01*
X013426Y058453D01*
X013576Y058603D01*
X013116Y058528D02*
X013041Y058603D01*
X012891Y058603D01*
X012816Y058528D01*
X012816Y058453D01*
X012891Y058377D01*
X013041Y058377D01*
X013116Y058302D01*
X013116Y058227D01*
X013041Y058152D01*
X012891Y058152D01*
X012816Y058227D01*
D11*
X012594Y057734D02*
X012594Y018363D01*
X038184Y018363D01*
X038184Y057734D01*
X012594Y057734D01*
D12*
X025086Y036671D03*
X033417Y055797D03*
X034417Y055797D03*
X035417Y055797D03*
D13*
X030192Y051934D03*
X028617Y049269D03*
X031661Y041592D03*
X029629Y026867D03*
X020271Y031643D03*
X017318Y048482D03*
D14*
X017318Y049482D03*
X017318Y050482D03*
X028617Y048269D03*
X028617Y047269D03*
X030192Y050934D03*
X032661Y041592D03*
X028629Y026867D03*
X020271Y032643D03*
D15*
X026086Y036671D03*
D16*
X019877Y035883D03*
X022436Y046907D03*
X023420Y046907D03*
X023420Y048088D03*
X022436Y048112D03*
X022830Y049269D03*
X023617Y049269D03*
X024405Y049269D03*
X025192Y049269D03*
X026373Y048088D03*
X026373Y047300D03*
X030507Y047300D03*
X030507Y046316D03*
X014956Y055765D03*
X014956Y056513D03*
X013696Y056552D03*
X013696Y055765D03*
X013381Y024269D03*
X013420Y019387D03*
X029326Y024466D03*
X037279Y024623D03*
D17*
X036609Y024269D02*
X036609Y025057D01*
X036609Y024269D02*
X036019Y024269D01*
X036019Y025057D01*
X036609Y025057D01*
X036609Y024465D02*
X036019Y024465D01*
X036019Y024661D02*
X036609Y024661D01*
X036609Y024857D02*
X036019Y024857D01*
X036019Y025053D02*
X036609Y025053D01*
X035055Y022793D02*
X034267Y022793D01*
X034267Y023383D01*
X035055Y023383D01*
X035055Y022793D01*
X035055Y022989D02*
X034267Y022989D01*
X034267Y023185D02*
X035055Y023185D01*
X035055Y023381D02*
X034267Y023381D01*
X033322Y019860D02*
X032534Y019860D01*
X032534Y020450D01*
X033322Y020450D01*
X033322Y019860D01*
X033322Y020056D02*
X032534Y020056D01*
X032534Y020252D02*
X033322Y020252D01*
X033322Y020448D02*
X032534Y020448D01*
X034267Y019151D02*
X035055Y019151D01*
X034267Y019151D02*
X034267Y019741D01*
X035055Y019741D01*
X035055Y019151D01*
X035055Y019347D02*
X034267Y019347D01*
X034267Y019543D02*
X035055Y019543D01*
X035055Y019739D02*
X034267Y019739D01*
X036983Y019860D02*
X037771Y019860D01*
X036983Y019860D02*
X036983Y020450D01*
X037771Y020450D01*
X037771Y019860D01*
X037771Y020056D02*
X036983Y020056D01*
X036983Y020252D02*
X037771Y020252D01*
X037771Y020448D02*
X036983Y020448D01*
X032160Y024269D02*
X032160Y025057D01*
X032160Y024269D02*
X031570Y024269D01*
X031570Y025057D01*
X032160Y025057D01*
X032160Y024465D02*
X031570Y024465D01*
X031570Y024661D02*
X032160Y024661D01*
X032160Y024857D02*
X031570Y024857D01*
X031570Y025053D02*
X032160Y025053D01*
X030606Y022793D02*
X029818Y022793D01*
X029818Y023383D01*
X030606Y023383D01*
X030606Y022793D01*
X030606Y022989D02*
X029818Y022989D01*
X029818Y023185D02*
X030606Y023185D01*
X030606Y023381D02*
X029818Y023381D01*
X027712Y024269D02*
X027712Y025057D01*
X027712Y024269D02*
X027122Y024269D01*
X027122Y025057D01*
X027712Y025057D01*
X027712Y024465D02*
X027122Y024465D01*
X027122Y024661D02*
X027712Y024661D01*
X027712Y024857D02*
X027122Y024857D01*
X027122Y025053D02*
X027712Y025053D01*
X027417Y024663D02*
X026767Y024663D01*
X026216Y024663D01*
X025704Y024663D02*
X025704Y024466D01*
X026491Y023678D01*
X026491Y021080D01*
X025901Y020489D01*
X025763Y020352D01*
X025763Y019446D01*
X026157Y019151D02*
X025369Y019151D01*
X025369Y019741D01*
X026157Y019741D01*
X026157Y019151D01*
X026157Y019347D02*
X025369Y019347D01*
X025369Y019543D02*
X026157Y019543D01*
X026157Y019739D02*
X025369Y019739D01*
X024425Y019860D02*
X023637Y019860D01*
X023637Y020450D01*
X024425Y020450D01*
X024425Y019860D01*
X024425Y020056D02*
X023637Y020056D01*
X023637Y020252D02*
X024425Y020252D01*
X024425Y020448D02*
X023637Y020448D01*
X021708Y019151D02*
X020920Y019151D01*
X020920Y019741D01*
X021708Y019741D01*
X021708Y019151D01*
X021708Y019347D02*
X020920Y019347D01*
X020920Y019543D02*
X021708Y019543D01*
X021708Y019739D02*
X020920Y019739D01*
X019976Y019860D02*
X019188Y019860D01*
X019188Y020450D01*
X019976Y020450D01*
X019976Y019860D01*
X019976Y020056D02*
X019188Y020056D01*
X019188Y020252D02*
X019976Y020252D01*
X019976Y020448D02*
X019188Y020448D01*
X020920Y022793D02*
X021708Y022793D01*
X020920Y022793D02*
X020920Y023383D01*
X021708Y023383D01*
X021708Y022793D01*
X021708Y022989D02*
X020920Y022989D01*
X020920Y023185D02*
X021708Y023185D01*
X021708Y023381D02*
X020920Y023381D01*
X023263Y024269D02*
X023263Y025057D01*
X023263Y024269D02*
X022673Y024269D01*
X022673Y025057D01*
X023263Y025057D01*
X023263Y024465D02*
X022673Y024465D01*
X022673Y024661D02*
X023263Y024661D01*
X023263Y024857D02*
X022673Y024857D01*
X022673Y025053D02*
X023263Y025053D01*
X025369Y022793D02*
X026157Y022793D01*
X025369Y022793D02*
X025369Y023383D01*
X026157Y023383D01*
X026157Y022793D01*
X026157Y022989D02*
X025369Y022989D01*
X025369Y023185D02*
X026157Y023185D01*
X026157Y023381D02*
X025369Y023381D01*
X028086Y019860D02*
X028874Y019860D01*
X028086Y019860D02*
X028086Y020450D01*
X028874Y020450D01*
X028874Y019860D01*
X028874Y020056D02*
X028086Y020056D01*
X028086Y020252D02*
X028874Y020252D01*
X028874Y020448D02*
X028086Y020448D01*
X029818Y019151D02*
X030606Y019151D01*
X029818Y019151D02*
X029818Y019741D01*
X030606Y019741D01*
X030606Y019151D01*
X030606Y019347D02*
X029818Y019347D01*
X029818Y019543D02*
X030606Y019543D01*
X030606Y019739D02*
X029818Y019739D01*
X018814Y024269D02*
X018814Y025057D01*
X018814Y024269D02*
X018224Y024269D01*
X018224Y025057D01*
X018814Y025057D01*
X018814Y024465D02*
X018224Y024465D01*
X018224Y024661D02*
X018814Y024661D01*
X018814Y024857D02*
X018224Y024857D01*
X018224Y025053D02*
X018814Y025053D01*
X016865Y023088D02*
X016865Y022714D01*
X016452Y022300D01*
X016452Y022104D01*
X016471Y022793D02*
X017259Y022793D01*
X016471Y022793D02*
X016471Y023383D01*
X017259Y023383D01*
X017259Y022793D01*
X017259Y022989D02*
X016471Y022989D01*
X016471Y023185D02*
X017259Y023185D01*
X017259Y023381D02*
X016471Y023381D01*
X016471Y019151D02*
X017259Y019151D01*
X016471Y019151D02*
X016471Y019741D01*
X017259Y019741D01*
X017259Y019151D01*
X017259Y019347D02*
X016471Y019347D01*
X016471Y019543D02*
X017259Y019543D01*
X017259Y019739D02*
X016471Y019739D01*
X014011Y041532D02*
X014011Y042320D01*
X014601Y042320D01*
X014601Y041532D01*
X014011Y041532D01*
X014011Y041728D02*
X014601Y041728D01*
X014601Y041924D02*
X014011Y041924D01*
X014011Y042120D02*
X014601Y042120D01*
X014601Y042316D02*
X014011Y042316D01*
X013303Y044249D02*
X013303Y045037D01*
X013893Y045037D01*
X013893Y044249D01*
X013303Y044249D01*
X013303Y044445D02*
X013893Y044445D01*
X013893Y044641D02*
X013303Y044641D01*
X013303Y044837D02*
X013893Y044837D01*
X013893Y045033D02*
X013303Y045033D01*
X013598Y045135D02*
X014031Y045568D01*
X014602Y045568D01*
X014602Y045056D02*
X014838Y045056D01*
X015251Y044643D01*
X016137Y044643D01*
X017239Y044643D01*
X016944Y044249D02*
X016944Y045037D01*
X017534Y045037D01*
X017534Y044249D01*
X016944Y044249D01*
X016944Y044445D02*
X017534Y044445D01*
X017534Y044641D02*
X016944Y044641D01*
X016944Y044837D02*
X017534Y044837D01*
X017534Y045033D02*
X016944Y045033D01*
X018420Y042694D02*
X019208Y042694D01*
X018420Y042694D02*
X018420Y043284D01*
X019208Y043284D01*
X019208Y042694D01*
X019208Y042890D02*
X018420Y042890D01*
X018420Y043086D02*
X019208Y043086D01*
X019208Y043282D02*
X018420Y043282D01*
X013598Y044860D02*
X013598Y045135D01*
X022160Y054564D02*
X022160Y055352D01*
X022160Y054564D02*
X021570Y054564D01*
X021570Y055352D01*
X022160Y055352D01*
X022160Y054760D02*
X021570Y054760D01*
X021570Y054956D02*
X022160Y054956D01*
X022160Y055152D02*
X021570Y055152D01*
X021570Y055348D02*
X022160Y055348D01*
X022160Y056729D02*
X022160Y057517D01*
X022160Y056729D02*
X021570Y056729D01*
X021570Y057517D01*
X022160Y057517D01*
X022160Y056925D02*
X021570Y056925D01*
X021570Y057121D02*
X022160Y057121D01*
X022160Y057317D02*
X021570Y057317D01*
X021570Y057513D02*
X022160Y057513D01*
X024247Y054919D02*
X024582Y054919D01*
X024621Y054958D01*
X025369Y054958D01*
X025664Y055352D02*
X025664Y054564D01*
X025074Y054564D01*
X025074Y055352D01*
X025664Y055352D01*
X025664Y054760D02*
X025074Y054760D01*
X025074Y054956D02*
X025664Y054956D01*
X025664Y055152D02*
X025074Y055152D01*
X025074Y055348D02*
X025664Y055348D01*
X025664Y056729D02*
X025664Y057517D01*
X025664Y056729D02*
X025074Y056729D01*
X025074Y057517D01*
X025664Y057517D01*
X025664Y056925D02*
X025074Y056925D01*
X025074Y057121D02*
X025664Y057121D01*
X025664Y057317D02*
X025074Y057317D01*
X025074Y057513D02*
X025664Y057513D01*
D18*
X013464Y042344D02*
X013464Y041508D01*
X013022Y041508D01*
X013022Y042344D01*
X013464Y042344D01*
X013464Y041655D02*
X013022Y041655D01*
X013022Y041802D02*
X013464Y041802D01*
X013464Y041949D02*
X013022Y041949D01*
X013022Y042096D02*
X013464Y042096D01*
X013464Y042243D02*
X013022Y042243D01*
X019164Y019313D02*
X020000Y019313D01*
X020000Y018871D01*
X019164Y018871D01*
X019164Y019313D01*
X019164Y019018D02*
X020000Y019018D01*
X020000Y019165D02*
X019164Y019165D01*
X019164Y019312D02*
X020000Y019312D01*
X023613Y019313D02*
X024449Y019313D01*
X024449Y018871D01*
X023613Y018871D01*
X023613Y019313D01*
X023613Y019018D02*
X024449Y019018D01*
X024449Y019165D02*
X023613Y019165D01*
X023613Y019312D02*
X024449Y019312D01*
X028062Y019313D02*
X028898Y019313D01*
X028898Y018871D01*
X028062Y018871D01*
X028062Y019313D01*
X028062Y019018D02*
X028898Y019018D01*
X028898Y019165D02*
X028062Y019165D01*
X028062Y019312D02*
X028898Y019312D01*
X032510Y019313D02*
X033346Y019313D01*
X033346Y018871D01*
X032510Y018871D01*
X032510Y019313D01*
X032510Y019018D02*
X033346Y019018D01*
X033346Y019165D02*
X032510Y019165D01*
X032510Y019312D02*
X033346Y019312D01*
X036959Y019313D02*
X037795Y019313D01*
X037795Y018871D01*
X036959Y018871D01*
X036959Y019313D01*
X036959Y019018D02*
X037795Y019018D01*
X037795Y019165D02*
X036959Y019165D01*
X036959Y019312D02*
X037795Y019312D01*
D19*
X027314Y026903D03*
X026314Y026903D03*
X025314Y026903D03*
X024314Y026903D03*
X023314Y026903D03*
X022314Y026903D03*
X021314Y026903D03*
X021314Y029903D03*
X020314Y029903D03*
X022314Y029903D03*
X023314Y029903D03*
X024314Y029903D03*
X025314Y029903D03*
X026314Y029903D03*
X027314Y029903D03*
X022731Y034112D03*
X020684Y056562D03*
X020074Y057330D03*
X019464Y056562D03*
X017928Y056562D03*
X017318Y057330D03*
X016708Y056562D03*
D20*
X023061Y055348D02*
X023061Y054490D01*
X022913Y054490D01*
X022913Y055348D01*
X023061Y055348D01*
X023061Y054538D02*
X022913Y054538D01*
X022913Y054586D02*
X023061Y054586D01*
X023061Y054634D02*
X022913Y054634D01*
X022913Y054682D02*
X023061Y054682D01*
X023061Y054730D02*
X022913Y054730D01*
X022913Y054778D02*
X023061Y054778D01*
X023061Y054826D02*
X022913Y054826D01*
X022913Y054874D02*
X023061Y054874D01*
X023061Y054922D02*
X022913Y054922D01*
X022913Y054970D02*
X023061Y054970D01*
X023061Y055018D02*
X022913Y055018D01*
X022913Y055066D02*
X023061Y055066D01*
X023061Y055114D02*
X022913Y055114D01*
X022913Y055162D02*
X023061Y055162D01*
X023061Y055210D02*
X022913Y055210D01*
X022913Y055258D02*
X023061Y055258D01*
X023061Y055306D02*
X022913Y055306D01*
X023376Y055348D02*
X023376Y054490D01*
X023228Y054490D01*
X023228Y055348D01*
X023376Y055348D01*
X023376Y054538D02*
X023228Y054538D01*
X023228Y054586D02*
X023376Y054586D01*
X023376Y054634D02*
X023228Y054634D01*
X023228Y054682D02*
X023376Y054682D01*
X023376Y054730D02*
X023228Y054730D01*
X023228Y054778D02*
X023376Y054778D01*
X023376Y054826D02*
X023228Y054826D01*
X023228Y054874D02*
X023376Y054874D01*
X023376Y054922D02*
X023228Y054922D01*
X023228Y054970D02*
X023376Y054970D01*
X023376Y055018D02*
X023228Y055018D01*
X023228Y055066D02*
X023376Y055066D01*
X023376Y055114D02*
X023228Y055114D01*
X023228Y055162D02*
X023376Y055162D01*
X023376Y055210D02*
X023228Y055210D01*
X023228Y055258D02*
X023376Y055258D01*
X023376Y055306D02*
X023228Y055306D01*
X023691Y055348D02*
X023691Y054490D01*
X023543Y054490D01*
X023543Y055348D01*
X023691Y055348D01*
X023691Y054538D02*
X023543Y054538D01*
X023543Y054586D02*
X023691Y054586D01*
X023691Y054634D02*
X023543Y054634D01*
X023543Y054682D02*
X023691Y054682D01*
X023691Y054730D02*
X023543Y054730D01*
X023543Y054778D02*
X023691Y054778D01*
X023691Y054826D02*
X023543Y054826D01*
X023543Y054874D02*
X023691Y054874D01*
X023691Y054922D02*
X023543Y054922D01*
X023543Y054970D02*
X023691Y054970D01*
X023691Y055018D02*
X023543Y055018D01*
X023543Y055066D02*
X023691Y055066D01*
X023691Y055114D02*
X023543Y055114D01*
X023543Y055162D02*
X023691Y055162D01*
X023691Y055210D02*
X023543Y055210D01*
X023543Y055258D02*
X023691Y055258D01*
X023691Y055306D02*
X023543Y055306D01*
X024006Y055348D02*
X024006Y054490D01*
X023858Y054490D01*
X023858Y055348D01*
X024006Y055348D01*
X024006Y054538D02*
X023858Y054538D01*
X023858Y054586D02*
X024006Y054586D01*
X024006Y054634D02*
X023858Y054634D01*
X023858Y054682D02*
X024006Y054682D01*
X024006Y054730D02*
X023858Y054730D01*
X023858Y054778D02*
X024006Y054778D01*
X024006Y054826D02*
X023858Y054826D01*
X023858Y054874D02*
X024006Y054874D01*
X024006Y054922D02*
X023858Y054922D01*
X023858Y054970D02*
X024006Y054970D01*
X024006Y055018D02*
X023858Y055018D01*
X023858Y055066D02*
X024006Y055066D01*
X024006Y055114D02*
X023858Y055114D01*
X023858Y055162D02*
X024006Y055162D01*
X024006Y055210D02*
X023858Y055210D01*
X023858Y055258D02*
X024006Y055258D01*
X024006Y055306D02*
X023858Y055306D01*
X024321Y055348D02*
X024321Y054490D01*
X024173Y054490D01*
X024173Y055348D01*
X024321Y055348D01*
X024321Y054538D02*
X024173Y054538D01*
X024173Y054586D02*
X024321Y054586D01*
X024321Y054634D02*
X024173Y054634D01*
X024173Y054682D02*
X024321Y054682D01*
X024321Y054730D02*
X024173Y054730D01*
X024173Y054778D02*
X024321Y054778D01*
X024321Y054826D02*
X024173Y054826D01*
X024173Y054874D02*
X024321Y054874D01*
X024321Y054922D02*
X024173Y054922D01*
X024173Y054970D02*
X024321Y054970D01*
X024321Y055018D02*
X024173Y055018D01*
X024173Y055066D02*
X024321Y055066D01*
X024321Y055114D02*
X024173Y055114D01*
X024173Y055162D02*
X024321Y055162D01*
X024321Y055210D02*
X024173Y055210D01*
X024173Y055258D02*
X024321Y055258D01*
X024321Y055306D02*
X024173Y055306D01*
X028425Y055267D02*
X028573Y055267D01*
X028425Y055267D02*
X028425Y056105D01*
X028573Y056105D01*
X028573Y055267D01*
X028573Y055315D02*
X028425Y055315D01*
X028425Y055363D02*
X028573Y055363D01*
X028573Y055411D02*
X028425Y055411D01*
X028425Y055459D02*
X028573Y055459D01*
X028573Y055507D02*
X028425Y055507D01*
X028425Y055555D02*
X028573Y055555D01*
X028573Y055603D02*
X028425Y055603D01*
X028425Y055651D02*
X028573Y055651D01*
X028573Y055699D02*
X028425Y055699D01*
X028425Y055747D02*
X028573Y055747D01*
X028573Y055795D02*
X028425Y055795D01*
X028425Y055843D02*
X028573Y055843D01*
X028573Y055891D02*
X028425Y055891D01*
X028425Y055939D02*
X028573Y055939D01*
X028573Y055987D02*
X028425Y055987D01*
X028425Y056035D02*
X028573Y056035D01*
X028573Y056083D02*
X028425Y056083D01*
X028925Y055267D02*
X029073Y055267D01*
X028925Y055267D02*
X028925Y056105D01*
X029073Y056105D01*
X029073Y055267D01*
X029073Y055315D02*
X028925Y055315D01*
X028925Y055363D02*
X029073Y055363D01*
X029073Y055411D02*
X028925Y055411D01*
X028925Y055459D02*
X029073Y055459D01*
X029073Y055507D02*
X028925Y055507D01*
X028925Y055555D02*
X029073Y055555D01*
X029073Y055603D02*
X028925Y055603D01*
X028925Y055651D02*
X029073Y055651D01*
X029073Y055699D02*
X028925Y055699D01*
X028925Y055747D02*
X029073Y055747D01*
X029073Y055795D02*
X028925Y055795D01*
X028925Y055843D02*
X029073Y055843D01*
X029073Y055891D02*
X028925Y055891D01*
X028925Y055939D02*
X029073Y055939D01*
X029073Y055987D02*
X028925Y055987D01*
X028925Y056035D02*
X029073Y056035D01*
X029073Y056083D02*
X028925Y056083D01*
X029425Y055267D02*
X029573Y055267D01*
X029425Y055267D02*
X029425Y056105D01*
X029573Y056105D01*
X029573Y055267D01*
X029573Y055315D02*
X029425Y055315D01*
X029425Y055363D02*
X029573Y055363D01*
X029573Y055411D02*
X029425Y055411D01*
X029425Y055459D02*
X029573Y055459D01*
X029573Y055507D02*
X029425Y055507D01*
X029425Y055555D02*
X029573Y055555D01*
X029573Y055603D02*
X029425Y055603D01*
X029425Y055651D02*
X029573Y055651D01*
X029573Y055699D02*
X029425Y055699D01*
X029425Y055747D02*
X029573Y055747D01*
X029573Y055795D02*
X029425Y055795D01*
X029425Y055843D02*
X029573Y055843D01*
X029573Y055891D02*
X029425Y055891D01*
X029425Y055939D02*
X029573Y055939D01*
X029573Y055987D02*
X029425Y055987D01*
X029425Y056035D02*
X029573Y056035D01*
X029573Y056083D02*
X029425Y056083D01*
X029925Y055267D02*
X030073Y055267D01*
X029925Y055267D02*
X029925Y056105D01*
X030073Y056105D01*
X030073Y055267D01*
X030073Y055315D02*
X029925Y055315D01*
X029925Y055363D02*
X030073Y055363D01*
X030073Y055411D02*
X029925Y055411D01*
X029925Y055459D02*
X030073Y055459D01*
X030073Y055507D02*
X029925Y055507D01*
X029925Y055555D02*
X030073Y055555D01*
X030073Y055603D02*
X029925Y055603D01*
X029925Y055651D02*
X030073Y055651D01*
X030073Y055699D02*
X029925Y055699D01*
X029925Y055747D02*
X030073Y055747D01*
X030073Y055795D02*
X029925Y055795D01*
X029925Y055843D02*
X030073Y055843D01*
X030073Y055891D02*
X029925Y055891D01*
X029925Y055939D02*
X030073Y055939D01*
X030073Y055987D02*
X029925Y055987D01*
X029925Y056035D02*
X030073Y056035D01*
X030073Y056083D02*
X029925Y056083D01*
X029925Y053456D02*
X030073Y053456D01*
X029925Y053456D02*
X029925Y054294D01*
X030073Y054294D01*
X030073Y053456D01*
X030073Y053504D02*
X029925Y053504D01*
X029925Y053552D02*
X030073Y053552D01*
X030073Y053600D02*
X029925Y053600D01*
X029925Y053648D02*
X030073Y053648D01*
X030073Y053696D02*
X029925Y053696D01*
X029925Y053744D02*
X030073Y053744D01*
X030073Y053792D02*
X029925Y053792D01*
X029925Y053840D02*
X030073Y053840D01*
X030073Y053888D02*
X029925Y053888D01*
X029925Y053936D02*
X030073Y053936D01*
X030073Y053984D02*
X029925Y053984D01*
X029925Y054032D02*
X030073Y054032D01*
X030073Y054080D02*
X029925Y054080D01*
X029925Y054128D02*
X030073Y054128D01*
X030073Y054176D02*
X029925Y054176D01*
X029925Y054224D02*
X030073Y054224D01*
X030073Y054272D02*
X029925Y054272D01*
X029573Y053456D02*
X029425Y053456D01*
X029425Y054294D01*
X029573Y054294D01*
X029573Y053456D01*
X029573Y053504D02*
X029425Y053504D01*
X029425Y053552D02*
X029573Y053552D01*
X029573Y053600D02*
X029425Y053600D01*
X029425Y053648D02*
X029573Y053648D01*
X029573Y053696D02*
X029425Y053696D01*
X029425Y053744D02*
X029573Y053744D01*
X029573Y053792D02*
X029425Y053792D01*
X029425Y053840D02*
X029573Y053840D01*
X029573Y053888D02*
X029425Y053888D01*
X029425Y053936D02*
X029573Y053936D01*
X029573Y053984D02*
X029425Y053984D01*
X029425Y054032D02*
X029573Y054032D01*
X029573Y054080D02*
X029425Y054080D01*
X029425Y054128D02*
X029573Y054128D01*
X029573Y054176D02*
X029425Y054176D01*
X029425Y054224D02*
X029573Y054224D01*
X029573Y054272D02*
X029425Y054272D01*
X029073Y053456D02*
X028925Y053456D01*
X028925Y054294D01*
X029073Y054294D01*
X029073Y053456D01*
X029073Y053504D02*
X028925Y053504D01*
X028925Y053552D02*
X029073Y053552D01*
X029073Y053600D02*
X028925Y053600D01*
X028925Y053648D02*
X029073Y053648D01*
X029073Y053696D02*
X028925Y053696D01*
X028925Y053744D02*
X029073Y053744D01*
X029073Y053792D02*
X028925Y053792D01*
X028925Y053840D02*
X029073Y053840D01*
X029073Y053888D02*
X028925Y053888D01*
X028925Y053936D02*
X029073Y053936D01*
X029073Y053984D02*
X028925Y053984D01*
X028925Y054032D02*
X029073Y054032D01*
X029073Y054080D02*
X028925Y054080D01*
X028925Y054128D02*
X029073Y054128D01*
X029073Y054176D02*
X028925Y054176D01*
X028925Y054224D02*
X029073Y054224D01*
X029073Y054272D02*
X028925Y054272D01*
X028573Y053456D02*
X028425Y053456D01*
X028425Y054294D01*
X028573Y054294D01*
X028573Y053456D01*
X028573Y053504D02*
X028425Y053504D01*
X028425Y053552D02*
X028573Y053552D01*
X028573Y053600D02*
X028425Y053600D01*
X028425Y053648D02*
X028573Y053648D01*
X028573Y053696D02*
X028425Y053696D01*
X028425Y053744D02*
X028573Y053744D01*
X028573Y053792D02*
X028425Y053792D01*
X028425Y053840D02*
X028573Y053840D01*
X028573Y053888D02*
X028425Y053888D01*
X028425Y053936D02*
X028573Y053936D01*
X028573Y053984D02*
X028425Y053984D01*
X028425Y054032D02*
X028573Y054032D01*
X028573Y054080D02*
X028425Y054080D01*
X028425Y054128D02*
X028573Y054128D01*
X028573Y054176D02*
X028425Y054176D01*
X028425Y054224D02*
X028573Y054224D01*
X028573Y054272D02*
X028425Y054272D01*
X014676Y045682D02*
X014676Y045454D01*
X014528Y045454D01*
X014528Y045682D01*
X014676Y045682D01*
X014676Y045502D02*
X014528Y045502D01*
X014528Y045550D02*
X014676Y045550D01*
X014676Y045598D02*
X014528Y045598D01*
X014528Y045646D02*
X014676Y045646D01*
X014676Y045170D02*
X014676Y044942D01*
X014528Y044942D01*
X014528Y045170D01*
X014676Y045170D01*
X014676Y044990D02*
X014528Y044990D01*
X014528Y045038D02*
X014676Y045038D01*
X014676Y045086D02*
X014528Y045086D01*
X014528Y045134D02*
X014676Y045134D01*
X025590Y024737D02*
X025818Y024737D01*
X025818Y024589D01*
X025590Y024589D01*
X025590Y024737D01*
X025590Y024637D02*
X025818Y024637D01*
X025818Y024685D02*
X025590Y024685D01*
X025590Y024733D02*
X025818Y024733D01*
X026102Y024737D02*
X026330Y024737D01*
X026330Y024589D01*
X026102Y024589D01*
X026102Y024737D01*
X026102Y024637D02*
X026330Y024637D01*
X026330Y024685D02*
X026102Y024685D01*
X026102Y024733D02*
X026330Y024733D01*
X029646Y021666D02*
X029646Y021438D01*
X029646Y021666D02*
X029794Y021666D01*
X029794Y021438D01*
X029646Y021438D01*
X029646Y021486D02*
X029794Y021486D01*
X029794Y021534D02*
X029646Y021534D01*
X029646Y021582D02*
X029794Y021582D01*
X029794Y021630D02*
X029646Y021630D01*
X029646Y021155D02*
X029646Y020927D01*
X029646Y021155D02*
X029794Y021155D01*
X029794Y020927D01*
X029646Y020927D01*
X029646Y020975D02*
X029794Y020975D01*
X029794Y021023D02*
X029646Y021023D01*
X029646Y021071D02*
X029794Y021071D01*
X029794Y021119D02*
X029646Y021119D01*
X033976Y021155D02*
X033976Y020927D01*
X033976Y021155D02*
X034124Y021155D01*
X034124Y020927D01*
X033976Y020927D01*
X033976Y020975D02*
X034124Y020975D01*
X034124Y021023D02*
X033976Y021023D01*
X033976Y021071D02*
X034124Y021071D01*
X034124Y021119D02*
X033976Y021119D01*
X033976Y021438D02*
X033976Y021666D01*
X034124Y021666D01*
X034124Y021438D01*
X033976Y021438D01*
X033976Y021486D02*
X034124Y021486D01*
X034124Y021534D02*
X033976Y021534D01*
X033976Y021582D02*
X034124Y021582D01*
X034124Y021630D02*
X033976Y021630D01*
X016378Y021478D02*
X016378Y021706D01*
X016526Y021706D01*
X016526Y021478D01*
X016378Y021478D01*
X016378Y021526D02*
X016526Y021526D01*
X016526Y021574D02*
X016378Y021574D01*
X016378Y021622D02*
X016526Y021622D01*
X016526Y021670D02*
X016378Y021670D01*
X016378Y021990D02*
X016378Y022218D01*
X016526Y022218D01*
X016526Y021990D01*
X016378Y021990D01*
X016378Y022038D02*
X016526Y022038D01*
X016526Y022086D02*
X016378Y022086D01*
X016378Y022134D02*
X016526Y022134D01*
X016526Y022182D02*
X016378Y022182D01*
D21*
X018696Y045824D03*
X014464Y051631D03*
D22*
X014464Y052615D03*
X015448Y052615D03*
X015448Y051631D03*
X015448Y053600D03*
X014464Y053600D03*
X016728Y046808D03*
X016728Y045824D03*
X017712Y045824D03*
X017712Y046808D03*
X018696Y046808D03*
D23*
X015468Y045489D03*
X014129Y054860D03*
D24*
X015783Y050371D03*
X019956Y047143D03*
D25*
X023716Y034112D03*
X020314Y026903D03*
D26*
X024946Y023569D02*
X024946Y023157D01*
X024258Y023157D01*
X024258Y023569D01*
X024946Y023569D01*
X024946Y023294D02*
X024258Y023294D01*
X024258Y023431D02*
X024946Y023431D01*
X024946Y023568D02*
X024258Y023568D01*
X024946Y021837D02*
X024946Y021425D01*
X024258Y021425D01*
X024258Y021837D01*
X024946Y021837D01*
X024946Y021562D02*
X024258Y021562D01*
X024258Y021699D02*
X024946Y021699D01*
X024946Y021836D02*
X024258Y021836D01*
X015103Y021444D02*
X015103Y021032D01*
X014415Y021032D01*
X014415Y021444D01*
X015103Y021444D01*
X015103Y021169D02*
X014415Y021169D01*
X014415Y021306D02*
X015103Y021306D01*
X015103Y021443D02*
X014415Y021443D01*
X015103Y022764D02*
X015103Y023176D01*
X015103Y022764D02*
X014415Y022764D01*
X014415Y023176D01*
X015103Y023176D01*
X015103Y022901D02*
X014415Y022901D01*
X014415Y023038D02*
X015103Y023038D01*
X015103Y023175D02*
X014415Y023175D01*
D27*
X014387Y021651D02*
X014335Y021637D01*
X014288Y021610D01*
X014249Y021571D01*
X014222Y021524D01*
X014208Y021471D01*
X014208Y021277D01*
X014720Y021277D01*
X014720Y021651D01*
X014387Y021651D01*
X014286Y021608D02*
X012987Y021608D01*
X012987Y021685D02*
X016216Y021685D01*
X016216Y021710D02*
X016216Y021602D01*
X016442Y021602D01*
X016442Y021582D01*
X016216Y021582D01*
X016216Y021457D01*
X016227Y021416D01*
X016248Y021379D01*
X016278Y021349D01*
X016315Y021327D01*
X016357Y021316D01*
X016442Y021316D01*
X016442Y021582D01*
X016462Y021582D01*
X016462Y021602D01*
X016688Y021602D01*
X016688Y021710D01*
X024050Y021710D01*
X024050Y021671D01*
X024562Y021671D01*
X024562Y021592D01*
X024050Y021592D01*
X024050Y021397D01*
X024064Y021345D01*
X024092Y021298D01*
X024130Y021259D01*
X024177Y021232D01*
X024230Y021218D01*
X024562Y021218D01*
X024562Y021592D01*
X024641Y021592D01*
X024641Y021671D01*
X025153Y021671D01*
X025153Y021710D01*
X025389Y021710D01*
X025389Y019997D01*
X025318Y019997D01*
X025224Y019958D01*
X025152Y019886D01*
X025113Y019792D01*
X025113Y019100D01*
X025152Y019006D01*
X025224Y018934D01*
X025318Y018895D01*
X025389Y018895D01*
X025389Y018757D01*
X024663Y018757D01*
X024680Y018775D01*
X024680Y019409D01*
X024545Y019545D01*
X023517Y019545D01*
X023381Y019409D01*
X023381Y018775D01*
X023398Y018757D01*
X020214Y018757D01*
X020231Y018775D01*
X020231Y019409D01*
X020096Y019545D01*
X019068Y019545D01*
X018932Y019409D01*
X018932Y018775D01*
X018950Y018757D01*
X012987Y018757D01*
X012987Y021710D01*
X016216Y021710D01*
X016216Y021608D02*
X015232Y021608D01*
X015230Y021610D02*
X015183Y021637D01*
X015131Y021651D01*
X014798Y021651D01*
X014798Y021277D01*
X014720Y021277D01*
X014720Y021198D01*
X014798Y021198D01*
X014798Y020824D01*
X015131Y020824D01*
X015183Y020838D01*
X015224Y020862D01*
X015212Y020831D01*
X015212Y020620D01*
X015293Y020425D01*
X015442Y020275D01*
X015638Y020194D01*
X015849Y020194D01*
X016044Y020275D01*
X016194Y020425D01*
X016275Y020620D01*
X016275Y020831D01*
X016194Y021027D01*
X016044Y021176D01*
X015849Y021257D01*
X015638Y021257D01*
X015442Y021176D01*
X015310Y021044D01*
X015310Y021198D01*
X014798Y021198D01*
X014798Y021277D01*
X015310Y021277D01*
X015310Y021471D01*
X015296Y021524D01*
X015269Y021571D01*
X015230Y021610D01*
X015292Y021530D02*
X016216Y021530D01*
X016217Y021453D02*
X015310Y021453D01*
X015310Y021376D02*
X016251Y021376D01*
X016442Y021376D02*
X016462Y021376D01*
X016462Y021316D02*
X016462Y021582D01*
X016688Y021582D01*
X016688Y021457D01*
X016677Y021416D01*
X016656Y021379D01*
X016625Y021349D01*
X016588Y021327D01*
X016547Y021316D01*
X016462Y021316D01*
X016462Y021453D02*
X016442Y021453D01*
X016442Y021530D02*
X016462Y021530D01*
X016688Y021530D02*
X024050Y021530D01*
X024050Y021453D02*
X016687Y021453D01*
X016653Y021376D02*
X024056Y021376D01*
X024091Y021299D02*
X023124Y021299D01*
X023140Y021295D02*
X023065Y021310D01*
X023046Y021310D01*
X023046Y020942D01*
X023007Y020942D01*
X023007Y020903D01*
X022639Y020903D01*
X022639Y020884D01*
X022654Y020809D01*
X022683Y020739D01*
X022726Y020675D01*
X022780Y020621D01*
X022843Y020579D01*
X022914Y020550D01*
X022989Y020535D01*
X023007Y020535D01*
X023007Y020903D01*
X023046Y020903D01*
X023046Y020535D01*
X023065Y020535D01*
X023140Y020550D01*
X023210Y020579D01*
X023274Y020621D01*
X023328Y020675D01*
X023370Y020739D01*
X023400Y020809D01*
X023415Y020884D01*
X023415Y020903D01*
X023046Y020903D01*
X023046Y020942D01*
X023415Y020942D01*
X023415Y020961D01*
X023400Y021036D01*
X023370Y021106D01*
X023328Y021170D01*
X023274Y021224D01*
X023210Y021266D01*
X023140Y021295D01*
X023046Y021299D02*
X023007Y021299D01*
X023007Y021310D02*
X022989Y021310D01*
X022914Y021295D01*
X022843Y021266D01*
X022780Y021224D01*
X022726Y021170D01*
X022683Y021106D01*
X022654Y021036D01*
X022639Y020961D01*
X022639Y020942D01*
X023007Y020942D01*
X023007Y021310D01*
X022930Y021299D02*
X022140Y021299D01*
X022156Y021295D02*
X022081Y021310D01*
X022062Y021310D01*
X022062Y020942D01*
X022430Y020942D01*
X022430Y020961D01*
X022415Y021036D01*
X022386Y021106D01*
X022344Y021170D01*
X022290Y021224D01*
X022226Y021266D01*
X022156Y021295D01*
X022062Y021299D02*
X022023Y021299D01*
X022023Y021310D02*
X022004Y021310D01*
X021929Y021295D01*
X021859Y021266D01*
X021795Y021224D01*
X021741Y021170D01*
X021699Y021106D01*
X021670Y021036D01*
X021655Y020961D01*
X021655Y020942D01*
X022023Y020942D01*
X022023Y020903D01*
X022062Y020903D01*
X022062Y020535D01*
X022081Y020535D01*
X022156Y020550D01*
X022226Y020579D01*
X022290Y020621D01*
X022344Y020675D01*
X022386Y020739D01*
X022415Y020809D01*
X022430Y020884D01*
X022430Y020903D01*
X022062Y020903D01*
X022062Y020942D01*
X022023Y020942D01*
X022023Y021310D01*
X021945Y021299D02*
X015310Y021299D01*
X015310Y021144D02*
X015410Y021144D01*
X015333Y021067D02*
X015310Y021067D01*
X015213Y020835D02*
X015172Y020835D01*
X015212Y020758D02*
X012987Y020758D01*
X012987Y020835D02*
X014346Y020835D01*
X014335Y020838D02*
X014387Y020824D01*
X014720Y020824D01*
X014720Y021198D01*
X014208Y021198D01*
X014208Y021004D01*
X014222Y020951D01*
X014249Y020904D01*
X014288Y020865D01*
X014335Y020838D01*
X014244Y020912D02*
X012987Y020912D01*
X012987Y020990D02*
X014212Y020990D01*
X014208Y021067D02*
X012987Y021067D01*
X012987Y021144D02*
X014208Y021144D01*
X014208Y021299D02*
X012987Y021299D01*
X012987Y021376D02*
X014208Y021376D01*
X014208Y021453D02*
X012987Y021453D01*
X012987Y021530D02*
X014226Y021530D01*
X014720Y021530D02*
X014798Y021530D01*
X014798Y021453D02*
X014720Y021453D01*
X014720Y021376D02*
X014798Y021376D01*
X014798Y021299D02*
X014720Y021299D01*
X014720Y021221D02*
X012987Y021221D01*
X012987Y020681D02*
X015212Y020681D01*
X015219Y020603D02*
X012987Y020603D01*
X012987Y020526D02*
X015251Y020526D01*
X015283Y020449D02*
X012987Y020449D01*
X012987Y020372D02*
X015346Y020372D01*
X015423Y020295D02*
X012987Y020295D01*
X012987Y020217D02*
X015582Y020217D01*
X015905Y020217D02*
X017794Y020217D01*
X017740Y020163D02*
X017653Y019953D01*
X017653Y019726D01*
X017740Y019516D01*
X017900Y019356D01*
X018110Y019269D01*
X018337Y019269D01*
X018547Y019356D01*
X018708Y019516D01*
X018794Y019726D01*
X018794Y019953D01*
X018708Y020163D01*
X018547Y020324D01*
X018337Y020411D01*
X018110Y020411D01*
X017900Y020324D01*
X017740Y020163D01*
X017730Y020140D02*
X012987Y020140D01*
X012987Y020063D02*
X017698Y020063D01*
X017666Y019986D02*
X012987Y019986D01*
X012987Y019908D02*
X016304Y019908D01*
X016288Y019892D02*
X016262Y019853D01*
X016244Y019810D01*
X016235Y019765D01*
X016235Y019486D01*
X016826Y019486D01*
X016826Y019978D01*
X016448Y019978D01*
X016403Y019969D01*
X016360Y019951D01*
X016321Y019925D01*
X016288Y019892D01*
X016253Y019831D02*
X012987Y019831D01*
X012987Y019754D02*
X013097Y019754D01*
X013086Y019747D02*
X013060Y019722D01*
X013042Y019690D01*
X013033Y019655D01*
X013033Y019407D01*
X013401Y019407D01*
X013401Y019775D01*
X013152Y019775D01*
X013117Y019766D01*
X013086Y019747D01*
X013038Y019677D02*
X012987Y019677D01*
X012987Y019599D02*
X013033Y019599D01*
X013033Y019522D02*
X012987Y019522D01*
X012987Y019445D02*
X013033Y019445D01*
X013033Y019367D02*
X013033Y019119D01*
X013042Y019084D01*
X013060Y019053D01*
X013086Y019027D01*
X013117Y019009D01*
X013152Y018999D01*
X013401Y018999D01*
X013401Y019367D01*
X013440Y019367D01*
X013440Y018999D01*
X013689Y018999D01*
X013724Y019009D01*
X013755Y019027D01*
X013781Y019053D01*
X013799Y019084D01*
X013808Y019119D01*
X013808Y019367D01*
X013440Y019367D01*
X013440Y019407D01*
X013401Y019407D01*
X013401Y019367D01*
X013033Y019367D01*
X012987Y019368D02*
X013401Y019368D01*
X013440Y019368D02*
X016235Y019368D01*
X016235Y019407D02*
X016235Y019128D01*
X016244Y019082D01*
X016262Y019039D01*
X016288Y019000D01*
X016321Y018967D01*
X016360Y018942D01*
X016403Y018924D01*
X016448Y018915D01*
X016826Y018915D01*
X016826Y019407D01*
X016235Y019407D01*
X016235Y019522D02*
X013808Y019522D01*
X013808Y019445D02*
X016826Y019445D01*
X016826Y019407D02*
X016826Y019486D01*
X016905Y019486D01*
X016905Y019978D01*
X017282Y019978D01*
X017328Y019969D01*
X017371Y019951D01*
X017410Y019925D01*
X017443Y019892D01*
X017468Y019853D01*
X017486Y019810D01*
X017495Y019765D01*
X017495Y019486D01*
X016905Y019486D01*
X016905Y019407D01*
X017495Y019407D01*
X017495Y019128D01*
X017486Y019082D01*
X017468Y019039D01*
X017443Y019000D01*
X017410Y018967D01*
X017371Y018942D01*
X017328Y018924D01*
X017282Y018915D01*
X016905Y018915D01*
X016905Y019407D01*
X016826Y019407D01*
X016826Y019368D02*
X016905Y019368D01*
X016905Y019445D02*
X017811Y019445D01*
X017737Y019522D02*
X017495Y019522D01*
X017495Y019599D02*
X017705Y019599D01*
X017673Y019677D02*
X017495Y019677D01*
X017495Y019754D02*
X017653Y019754D01*
X017653Y019831D02*
X017478Y019831D01*
X017426Y019908D02*
X017653Y019908D01*
X017871Y020295D02*
X016064Y020295D01*
X016141Y020372D02*
X018016Y020372D01*
X018431Y020372D02*
X018932Y020372D01*
X018932Y020449D02*
X016204Y020449D01*
X016236Y020526D02*
X018943Y020526D01*
X018932Y020501D02*
X018932Y019809D01*
X018971Y019715D01*
X019043Y019643D01*
X019137Y019604D01*
X020026Y019604D01*
X020121Y019643D01*
X020193Y019715D01*
X020231Y019809D01*
X020231Y020501D01*
X020193Y020595D01*
X020121Y020667D01*
X020026Y020706D01*
X019137Y020706D01*
X019043Y020667D01*
X018971Y020595D01*
X018932Y020501D01*
X018980Y020603D02*
X016268Y020603D01*
X016275Y020681D02*
X019076Y020681D01*
X018932Y020295D02*
X018576Y020295D01*
X018654Y020217D02*
X018932Y020217D01*
X018932Y020140D02*
X018717Y020140D01*
X018749Y020063D02*
X018932Y020063D01*
X018932Y019986D02*
X018781Y019986D01*
X018794Y019908D02*
X018932Y019908D01*
X018932Y019831D02*
X018794Y019831D01*
X018794Y019754D02*
X018955Y019754D01*
X019009Y019677D02*
X018774Y019677D01*
X018742Y019599D02*
X020684Y019599D01*
X020684Y019522D02*
X020118Y019522D01*
X020196Y019445D02*
X021275Y019445D01*
X021275Y019407D02*
X020684Y019407D01*
X020684Y019128D01*
X020693Y019082D01*
X020711Y019039D01*
X020737Y019000D01*
X020770Y018967D01*
X020809Y018942D01*
X020852Y018924D01*
X020897Y018915D01*
X021275Y018915D01*
X021275Y019407D01*
X021354Y019407D01*
X021354Y019486D01*
X021944Y019486D01*
X021944Y019765D01*
X021935Y019810D01*
X021917Y019853D01*
X021891Y019892D01*
X021858Y019925D01*
X021820Y019951D01*
X021777Y019969D01*
X021731Y019978D01*
X021354Y019978D01*
X021354Y019486D01*
X021275Y019486D01*
X021275Y019978D01*
X020897Y019978D01*
X020852Y019969D01*
X020809Y019951D01*
X020770Y019925D01*
X020737Y019892D01*
X020711Y019853D01*
X020693Y019810D01*
X020684Y019765D01*
X020684Y019486D01*
X021275Y019486D01*
X021275Y019407D01*
X021275Y019368D02*
X021354Y019368D01*
X021354Y019407D02*
X021354Y018915D01*
X021731Y018915D01*
X021777Y018924D01*
X021820Y018942D01*
X021858Y018967D01*
X021891Y019000D01*
X021917Y019039D01*
X021935Y019082D01*
X021944Y019128D01*
X021944Y019407D01*
X021354Y019407D01*
X021354Y019445D02*
X022260Y019445D01*
X022188Y019516D02*
X022349Y019356D01*
X022559Y019269D01*
X022786Y019269D01*
X022996Y019356D01*
X023156Y019516D01*
X023243Y019726D01*
X023243Y019953D01*
X023156Y020163D01*
X022996Y020324D01*
X022786Y020411D01*
X022559Y020411D01*
X022349Y020324D01*
X022188Y020163D01*
X022102Y019953D01*
X022102Y019726D01*
X022188Y019516D01*
X022186Y019522D02*
X021944Y019522D01*
X021944Y019599D02*
X022154Y019599D01*
X022122Y019677D02*
X021944Y019677D01*
X021944Y019754D02*
X022102Y019754D01*
X022102Y019831D02*
X021926Y019831D01*
X021875Y019908D02*
X022102Y019908D01*
X022115Y019986D02*
X020231Y019986D01*
X020231Y020063D02*
X022147Y020063D01*
X022179Y020140D02*
X020231Y020140D01*
X020231Y020217D02*
X022242Y020217D01*
X022320Y020295D02*
X020231Y020295D01*
X020231Y020372D02*
X022465Y020372D01*
X022263Y020603D02*
X022806Y020603D01*
X022722Y020681D02*
X022347Y020681D01*
X022394Y020758D02*
X022675Y020758D01*
X022649Y020835D02*
X022421Y020835D01*
X022425Y020990D02*
X022645Y020990D01*
X022667Y021067D02*
X022402Y021067D01*
X022361Y021144D02*
X022708Y021144D01*
X022777Y021221D02*
X022292Y021221D01*
X022062Y021221D02*
X022023Y021221D01*
X022023Y021144D02*
X022062Y021144D01*
X022062Y021067D02*
X022023Y021067D01*
X022023Y020990D02*
X022062Y020990D01*
X022062Y020912D02*
X023007Y020912D01*
X023046Y020912D02*
X023935Y020912D01*
X023932Y020906D02*
X023932Y020807D01*
X023834Y020709D01*
X023834Y020706D01*
X023586Y020706D01*
X023492Y020667D01*
X023420Y020595D01*
X023381Y020501D01*
X023381Y019809D01*
X023420Y019715D01*
X023492Y019643D01*
X023586Y019604D01*
X024475Y019604D01*
X024569Y019643D01*
X024641Y019715D01*
X024680Y019809D01*
X024680Y020501D01*
X024641Y020595D01*
X024569Y020667D01*
X024523Y020686D01*
X024562Y020781D01*
X024562Y020906D01*
X024514Y021022D01*
X024426Y021111D01*
X024310Y021159D01*
X024185Y021159D01*
X024069Y021111D01*
X023980Y021022D01*
X023932Y020906D01*
X023932Y020835D02*
X023405Y020835D01*
X023378Y020758D02*
X023883Y020758D01*
X024031Y020627D02*
X024247Y020844D01*
X024031Y020627D02*
X024031Y020155D01*
X024680Y020140D02*
X025389Y020140D01*
X025389Y020063D02*
X024680Y020063D01*
X024680Y019986D02*
X025290Y019986D01*
X025174Y019908D02*
X024680Y019908D01*
X024680Y019831D02*
X025129Y019831D01*
X025113Y019754D02*
X024658Y019754D01*
X024603Y019677D02*
X025113Y019677D01*
X025113Y019599D02*
X023191Y019599D01*
X023159Y019522D02*
X023494Y019522D01*
X023417Y019445D02*
X023085Y019445D01*
X023007Y019368D02*
X023381Y019368D01*
X023381Y019290D02*
X022838Y019290D01*
X022507Y019290D02*
X021944Y019290D01*
X021944Y019213D02*
X023381Y019213D01*
X023381Y019136D02*
X021944Y019136D01*
X021925Y019059D02*
X023381Y019059D01*
X023381Y018981D02*
X021872Y018981D01*
X021944Y019368D02*
X022337Y019368D01*
X022880Y020372D02*
X023381Y020372D01*
X023381Y020449D02*
X020231Y020449D01*
X020221Y020526D02*
X023392Y020526D01*
X023428Y020603D02*
X023247Y020603D01*
X023332Y020681D02*
X023525Y020681D01*
X023409Y020990D02*
X023967Y020990D01*
X024025Y021067D02*
X023387Y021067D01*
X023345Y021144D02*
X024149Y021144D01*
X024217Y021221D02*
X023276Y021221D01*
X023046Y021221D02*
X023007Y021221D01*
X023007Y021144D02*
X023046Y021144D01*
X023046Y021067D02*
X023007Y021067D01*
X023007Y020990D02*
X023046Y020990D01*
X023046Y020835D02*
X023007Y020835D01*
X023007Y020758D02*
X023046Y020758D01*
X023046Y020681D02*
X023007Y020681D01*
X023007Y020603D02*
X023046Y020603D01*
X023025Y020295D02*
X023381Y020295D01*
X023381Y020217D02*
X023102Y020217D01*
X023166Y020140D02*
X023381Y020140D01*
X023381Y020063D02*
X023198Y020063D01*
X023230Y019986D02*
X023381Y019986D01*
X023381Y019908D02*
X023243Y019908D01*
X023243Y019831D02*
X023381Y019831D01*
X023404Y019754D02*
X023243Y019754D01*
X023223Y019677D02*
X023458Y019677D01*
X023381Y018904D02*
X020231Y018904D01*
X020231Y018827D02*
X023381Y018827D01*
X024680Y018827D02*
X025389Y018827D01*
X025296Y018904D02*
X024680Y018904D01*
X024680Y018981D02*
X025177Y018981D01*
X025130Y019059D02*
X024680Y019059D01*
X024680Y019136D02*
X025113Y019136D01*
X025113Y019213D02*
X024680Y019213D01*
X024680Y019290D02*
X025113Y019290D01*
X025113Y019368D02*
X024680Y019368D01*
X024645Y019445D02*
X025113Y019445D01*
X025113Y019522D02*
X024567Y019522D01*
X024680Y020217D02*
X025389Y020217D01*
X025389Y020295D02*
X024680Y020295D01*
X024680Y020372D02*
X025389Y020372D01*
X025389Y020449D02*
X024680Y020449D01*
X024670Y020526D02*
X025389Y020526D01*
X025389Y020603D02*
X024633Y020603D01*
X024536Y020681D02*
X025389Y020681D01*
X025389Y020758D02*
X024553Y020758D01*
X024562Y020835D02*
X025389Y020835D01*
X025389Y020912D02*
X024560Y020912D01*
X024528Y020990D02*
X025389Y020990D01*
X025389Y021067D02*
X024470Y021067D01*
X024345Y021144D02*
X025389Y021144D01*
X025389Y021221D02*
X024987Y021221D01*
X024973Y021218D02*
X025026Y021232D01*
X025073Y021259D01*
X025111Y021298D01*
X025139Y021345D01*
X025153Y021397D01*
X025153Y021592D01*
X024641Y021592D01*
X024641Y021218D01*
X024973Y021218D01*
X025112Y021299D02*
X025389Y021299D01*
X025389Y021376D02*
X025147Y021376D01*
X025153Y021453D02*
X025389Y021453D01*
X025389Y021530D02*
X025153Y021530D01*
X025153Y021685D02*
X025389Y021685D01*
X025389Y021608D02*
X024641Y021608D01*
X024641Y021530D02*
X024562Y021530D01*
X024562Y021453D02*
X024641Y021453D01*
X024641Y021376D02*
X024562Y021376D01*
X024562Y021299D02*
X024641Y021299D01*
X024641Y021221D02*
X024562Y021221D01*
X024562Y021608D02*
X016688Y021608D01*
X016688Y021685D02*
X024050Y021685D01*
X024602Y023363D02*
X024602Y023875D01*
X024483Y023993D01*
X021137Y023993D01*
X021058Y024072D01*
X021314Y023816D01*
X021314Y023088D01*
X020074Y024466D02*
X020074Y025056D01*
X020822Y025804D01*
X020822Y027458D01*
X021176Y027812D01*
X023617Y027812D01*
X024011Y027615D02*
X024011Y027419D01*
X023814Y027222D01*
X023814Y025135D01*
X024483Y024466D01*
X025704Y024466D01*
X025586Y024072D02*
X025763Y023895D01*
X025763Y023088D01*
X025507Y025608D02*
X026452Y025608D01*
X025507Y025608D02*
X024838Y026277D01*
X024838Y027576D01*
X024798Y027615D01*
X026176Y028403D02*
X026294Y028285D01*
X026728Y028285D01*
X027239Y028797D01*
X029247Y028797D01*
X030153Y027891D01*
X031413Y027891D01*
X031649Y027655D01*
X032436Y027655D01*
X032082Y027930D02*
X031924Y028088D01*
X030231Y028088D01*
X029326Y028993D01*
X027161Y028993D01*
X026649Y028482D01*
X026334Y028482D01*
X026216Y028600D01*
X022617Y028600D01*
X021314Y029903D01*
X020314Y029903D02*
X021814Y028403D01*
X026176Y028403D01*
X025783Y029190D02*
X029444Y029190D01*
X030350Y028285D01*
X031570Y028285D01*
X032279Y028993D01*
X034247Y028993D01*
X034444Y029190D01*
X034641Y028797D02*
X034838Y028600D01*
X035231Y028600D01*
X035625Y028993D01*
X036609Y028993D01*
X034641Y028797D02*
X032476Y028797D01*
X032357Y028678D01*
X032791Y027379D02*
X031609Y027379D01*
X031294Y027694D01*
X030035Y027694D01*
X029129Y028600D01*
X027554Y028600D01*
X026964Y028009D01*
X028629Y026867D02*
X029141Y027379D01*
X030153Y027379D01*
X030507Y027025D01*
X031885Y025765D02*
X031964Y025844D01*
X031885Y025765D02*
X031885Y024663D01*
X031865Y024663D01*
X030212Y023088D02*
X028735Y023088D01*
X027948Y023875D01*
X032436Y027104D02*
X032712Y026828D01*
X034641Y026828D01*
X036314Y025155D01*
X036314Y024663D01*
X034661Y023659D02*
X034661Y023088D01*
X034641Y023108D01*
X034661Y023659D02*
X034444Y023875D01*
X033460Y032143D02*
X030113Y032143D01*
X029917Y033324D02*
X029917Y036277D01*
X029129Y037064D01*
X029129Y042182D01*
X028539Y042773D01*
X028145Y042773D01*
X028145Y042379D02*
X027751Y041986D01*
X027751Y039820D01*
X027554Y039623D01*
X027554Y039033D01*
X024838Y040017D02*
X024838Y045844D01*
X024917Y045923D01*
X024208Y045883D02*
X023854Y045529D01*
X021452Y045529D01*
X020665Y047694D02*
X020271Y048088D01*
X019680Y048088D01*
X020665Y047694D02*
X025389Y047694D01*
X025586Y047891D01*
X025192Y048482D02*
X025783Y049072D01*
X025783Y050450D01*
X024798Y051041D02*
X024405Y051041D01*
X023814Y050450D01*
X023224Y050450D02*
X023224Y050647D01*
X023814Y051238D01*
X024602Y051238D01*
X026176Y052812D01*
X028932Y052812D01*
X029499Y053379D01*
X029499Y053875D01*
X029499Y054363D01*
X029720Y054584D01*
X030507Y054584D01*
X031019Y054072D01*
X031294Y054072D01*
X031146Y054190D02*
X031442Y054190D01*
X031442Y053954D01*
X031146Y053954D01*
X031146Y054190D01*
X031146Y054032D02*
X031442Y054032D01*
X031442Y054110D02*
X031146Y054110D01*
X031146Y054188D02*
X031442Y054188D01*
X031442Y054820D02*
X031146Y054820D01*
X031442Y054820D02*
X031442Y054584D01*
X031146Y054584D01*
X031146Y054820D01*
X031146Y054662D02*
X031442Y054662D01*
X031442Y054740D02*
X031146Y054740D01*
X031146Y054818D02*
X031442Y054818D01*
X032328Y054820D02*
X032624Y054820D01*
X032624Y054584D01*
X032328Y054584D01*
X032328Y054820D01*
X032328Y054662D02*
X032624Y054662D01*
X032624Y054740D02*
X032328Y054740D01*
X032328Y054818D02*
X032624Y054818D01*
X032624Y054190D02*
X032328Y054190D01*
X032624Y054190D02*
X032624Y053954D01*
X032328Y053954D01*
X032328Y054190D01*
X032328Y054032D02*
X032624Y054032D01*
X032624Y054110D02*
X032328Y054110D01*
X032328Y054188D02*
X032624Y054188D01*
X032476Y054072D02*
X032476Y053797D01*
X032279Y053600D01*
X030901Y053600D01*
X030625Y053875D01*
X029999Y053875D01*
X029999Y053289D01*
X029326Y052615D01*
X026373Y052615D01*
X024798Y051041D01*
X024680Y051710D02*
X024995Y052025D01*
X024995Y053206D01*
X024602Y053206D01*
X024602Y053797D01*
X024208Y053403D02*
X023932Y053678D01*
X023932Y054919D01*
X023617Y054919D02*
X023617Y053403D01*
X023342Y053127D01*
X022909Y053127D01*
X022633Y053285D02*
X022830Y053482D01*
X023105Y053482D01*
X023302Y053678D01*
X023302Y054919D01*
X022987Y054919D02*
X022987Y053954D01*
X022830Y053797D01*
X022633Y053285D02*
X022633Y052812D01*
X022830Y052615D01*
X022712Y052734D01*
X022791Y051986D02*
X022633Y051828D01*
X022397Y051828D01*
X022042Y052182D01*
X022042Y053521D01*
X022791Y051986D02*
X024326Y051986D01*
X024602Y052261D01*
X024602Y052812D01*
X024995Y053206D02*
X026334Y053206D01*
X024680Y051710D02*
X023617Y051710D01*
X023814Y049860D02*
X024011Y049663D01*
X024011Y048875D01*
X024129Y048757D01*
X024405Y048757D01*
X024011Y048482D02*
X023696Y048797D01*
X021570Y048797D01*
X020625Y049741D01*
X019995Y049741D01*
X019680Y050056D01*
X019562Y050056D01*
X019759Y050411D02*
X020113Y050056D01*
X019759Y050411D02*
X019759Y052812D01*
X018539Y054033D01*
X018539Y054584D01*
X018893Y054978D02*
X018893Y053915D01*
X019956Y052852D01*
X019956Y050647D01*
X021531Y049072D01*
X021924Y049072D01*
X021964Y049466D02*
X021373Y049466D01*
X020133Y050706D01*
X020133Y052911D01*
X019287Y053757D01*
X019287Y056385D01*
X019464Y056562D01*
X018027Y055844D02*
X018893Y054978D01*
X018027Y055844D02*
X017239Y055844D01*
X016708Y056375D01*
X016708Y056562D01*
X019602Y053836D02*
X020310Y053127D01*
X020310Y050765D01*
X021216Y049860D01*
X023814Y049860D01*
X024011Y048482D02*
X025192Y048482D01*
X027830Y047300D02*
X027830Y050096D01*
X033066Y053403D02*
X033775Y053403D01*
X034168Y053797D01*
X034050Y051631D02*
X035231Y051631D01*
X029129Y042773D02*
X029720Y042182D01*
X032869Y042182D01*
X033066Y041986D01*
X033657Y041986D01*
X032869Y039820D02*
X032869Y038363D01*
X033460Y037773D01*
X034050Y037773D01*
X034720Y037104D01*
X034956Y037104D01*
X035822Y036867D02*
X035035Y036080D01*
X034444Y036080D01*
X034050Y035686D01*
X030310Y035686D01*
X030507Y037458D02*
X030310Y037655D01*
X030507Y037458D02*
X033066Y037458D01*
X033184Y037773D02*
X033499Y037458D01*
X033854Y037458D01*
X033184Y037773D02*
X031373Y037773D01*
X031294Y037852D01*
X035822Y037458D02*
X035822Y036867D01*
X026767Y034899D02*
X025980Y034899D01*
X024405Y031749D02*
X024798Y031356D01*
X024798Y030765D01*
X022830Y027419D02*
X022830Y026238D01*
X022968Y026100D01*
X022968Y024663D01*
X021793Y021221D02*
X015935Y021221D01*
X016076Y021144D02*
X021724Y021144D01*
X021683Y021067D02*
X016154Y021067D01*
X016209Y020990D02*
X021660Y020990D01*
X021655Y020903D02*
X021655Y020884D01*
X021670Y020809D01*
X021699Y020739D01*
X021741Y020675D01*
X021795Y020621D01*
X021859Y020579D01*
X021929Y020550D01*
X022004Y020535D01*
X022023Y020535D01*
X022023Y020903D01*
X021655Y020903D01*
X021664Y020835D02*
X016273Y020835D01*
X016275Y020758D02*
X021691Y020758D01*
X021738Y020681D02*
X020088Y020681D01*
X020184Y020603D02*
X021822Y020603D01*
X022023Y020603D02*
X022062Y020603D01*
X022062Y020681D02*
X022023Y020681D01*
X022023Y020758D02*
X022062Y020758D01*
X022062Y020835D02*
X022023Y020835D01*
X022023Y020912D02*
X016241Y020912D01*
X015551Y021221D02*
X014798Y021221D01*
X014798Y021144D02*
X014720Y021144D01*
X014720Y021067D02*
X014798Y021067D01*
X014798Y020990D02*
X014720Y020990D01*
X014720Y020912D02*
X014798Y020912D01*
X014798Y020835D02*
X014720Y020835D01*
X014720Y021608D02*
X014798Y021608D01*
X013724Y019766D02*
X013689Y019775D01*
X013440Y019775D01*
X013440Y019407D01*
X013808Y019407D01*
X013808Y019655D01*
X013799Y019690D01*
X013781Y019722D01*
X013755Y019747D01*
X013724Y019766D01*
X013744Y019754D02*
X016235Y019754D01*
X016235Y019677D02*
X013803Y019677D01*
X013808Y019599D02*
X016235Y019599D01*
X016235Y019290D02*
X013808Y019290D01*
X013808Y019213D02*
X016235Y019213D01*
X016235Y019136D02*
X013808Y019136D01*
X013784Y019059D02*
X016254Y019059D01*
X016307Y018981D02*
X012987Y018981D01*
X012987Y018904D02*
X018932Y018904D01*
X018932Y018827D02*
X012987Y018827D01*
X012987Y019059D02*
X013057Y019059D01*
X013033Y019136D02*
X012987Y019136D01*
X012987Y019213D02*
X013033Y019213D01*
X013033Y019290D02*
X012987Y019290D01*
X013401Y019290D02*
X013440Y019290D01*
X013440Y019213D02*
X013401Y019213D01*
X013401Y019136D02*
X013440Y019136D01*
X013440Y019059D02*
X013401Y019059D01*
X013401Y019445D02*
X013440Y019445D01*
X013440Y019522D02*
X013401Y019522D01*
X013401Y019599D02*
X013440Y019599D01*
X013440Y019677D02*
X013401Y019677D01*
X013401Y019754D02*
X013440Y019754D01*
X016826Y019754D02*
X016905Y019754D01*
X016905Y019831D02*
X016826Y019831D01*
X016826Y019908D02*
X016905Y019908D01*
X016905Y019677D02*
X016826Y019677D01*
X016826Y019599D02*
X016905Y019599D01*
X016905Y019522D02*
X016826Y019522D01*
X016826Y019290D02*
X016905Y019290D01*
X016905Y019213D02*
X016826Y019213D01*
X016826Y019136D02*
X016905Y019136D01*
X016905Y019059D02*
X016826Y019059D01*
X016826Y018981D02*
X016905Y018981D01*
X017424Y018981D02*
X018932Y018981D01*
X018932Y019059D02*
X017477Y019059D01*
X017495Y019136D02*
X018932Y019136D01*
X018932Y019213D02*
X017495Y019213D01*
X017495Y019290D02*
X018058Y019290D01*
X017889Y019368D02*
X017495Y019368D01*
X018389Y019290D02*
X018932Y019290D01*
X018932Y019368D02*
X018559Y019368D01*
X018636Y019445D02*
X018968Y019445D01*
X019045Y019522D02*
X018710Y019522D01*
X020154Y019677D02*
X020684Y019677D01*
X020684Y019754D02*
X020209Y019754D01*
X020231Y019831D02*
X020702Y019831D01*
X020753Y019908D02*
X020231Y019908D01*
X020231Y019368D02*
X020684Y019368D01*
X020684Y019290D02*
X020231Y019290D01*
X020231Y019213D02*
X020684Y019213D01*
X020684Y019136D02*
X020231Y019136D01*
X020231Y019059D02*
X020703Y019059D01*
X020756Y018981D02*
X020231Y018981D01*
X021275Y018981D02*
X021354Y018981D01*
X021354Y019059D02*
X021275Y019059D01*
X021275Y019136D02*
X021354Y019136D01*
X021354Y019213D02*
X021275Y019213D01*
X021275Y019290D02*
X021354Y019290D01*
X021354Y019522D02*
X021275Y019522D01*
X021275Y019599D02*
X021354Y019599D01*
X021354Y019677D02*
X021275Y019677D01*
X021275Y019754D02*
X021354Y019754D01*
X021354Y019831D02*
X021275Y019831D01*
X021275Y019908D02*
X021354Y019908D01*
X018893Y023285D02*
X020074Y024466D01*
X019759Y024781D02*
X019562Y024978D01*
X019562Y031934D01*
X020271Y032643D01*
X019483Y032653D02*
X016334Y032653D01*
X016334Y032730D02*
X019483Y032730D01*
X019483Y032807D02*
X016334Y032807D01*
X016334Y032885D02*
X019483Y032885D01*
X019483Y032962D02*
X016334Y032962D01*
X016334Y033039D02*
X019483Y033039D01*
X019483Y033116D02*
X016334Y033116D01*
X016334Y033194D02*
X019483Y033194D01*
X019483Y033271D02*
X016334Y033271D01*
X016334Y033324D02*
X016809Y033324D01*
X016924Y033439D01*
X016924Y037618D01*
X016819Y037724D01*
X016846Y037789D01*
X016846Y037914D01*
X016798Y038030D01*
X016709Y038119D01*
X016593Y038167D01*
X016468Y038167D01*
X016352Y038119D01*
X016264Y038030D01*
X016216Y037914D01*
X016216Y037789D01*
X016239Y037734D01*
X015665Y037734D01*
X015665Y038347D01*
X015617Y038463D01*
X015528Y038552D01*
X015412Y038600D01*
X015287Y038600D01*
X015171Y038552D01*
X015083Y038463D01*
X015035Y038347D01*
X015035Y037658D01*
X014995Y037618D01*
X014995Y035489D01*
X012987Y035489D01*
X012987Y041277D01*
X013561Y041277D01*
X013696Y041412D01*
X013696Y041986D01*
X013755Y041986D01*
X013755Y041482D01*
X013794Y041388D01*
X013866Y041316D01*
X013960Y041277D01*
X014652Y041277D01*
X014747Y041316D01*
X014818Y041388D01*
X014857Y041482D01*
X014857Y041986D01*
X015231Y041986D01*
X015231Y041066D01*
X015201Y041035D01*
X015139Y040885D01*
X015139Y040723D01*
X015201Y040574D01*
X015316Y040459D01*
X015465Y040397D01*
X015627Y040397D01*
X015777Y040459D01*
X015892Y040574D01*
X015954Y040723D01*
X015954Y040885D01*
X015926Y040953D01*
X015952Y040942D01*
X016085Y040942D01*
X016208Y040993D01*
X016303Y041087D01*
X016354Y041210D01*
X016354Y041343D01*
X016303Y041466D01*
X016216Y041553D01*
X016216Y041786D01*
X016415Y041986D01*
X019008Y041986D01*
X019287Y041707D01*
X019402Y041592D01*
X020156Y041592D01*
X020352Y041789D01*
X020977Y041789D01*
X021117Y041648D01*
X021117Y041525D01*
X021168Y041402D01*
X021262Y041308D01*
X021385Y041257D01*
X021519Y041257D01*
X021642Y041308D01*
X021736Y041402D01*
X021787Y041525D01*
X021787Y041658D01*
X021736Y041781D01*
X021642Y041876D01*
X021519Y041926D01*
X021396Y041926D01*
X021337Y041986D01*
X023027Y041986D01*
X023027Y039545D01*
X022208Y039545D01*
X022113Y039584D01*
X021972Y039584D01*
X021842Y039530D01*
X021742Y039430D01*
X021688Y039300D01*
X021688Y039159D01*
X021742Y039029D01*
X021767Y039004D01*
X021767Y038009D01*
X021728Y037914D01*
X021728Y037789D01*
X021775Y037673D01*
X021864Y037585D01*
X021980Y037537D01*
X022105Y037537D01*
X022221Y037585D01*
X022310Y037673D01*
X022357Y037789D01*
X022357Y037914D01*
X022318Y038009D01*
X022318Y038915D01*
X023027Y038915D01*
X023027Y034506D01*
X023008Y034525D01*
X022828Y034599D01*
X022635Y034599D01*
X022455Y034525D01*
X022436Y034505D01*
X019483Y034505D01*
X019483Y032537D01*
X016334Y032537D01*
X016334Y033324D01*
X016137Y033348D02*
X012987Y033348D01*
X012987Y033271D02*
X016137Y033271D01*
X016137Y033194D02*
X012987Y033194D01*
X012987Y033116D02*
X016137Y033116D01*
X016137Y033039D02*
X012987Y033039D01*
X012987Y032962D02*
X016137Y032962D01*
X016137Y032885D02*
X012987Y032885D01*
X012987Y032807D02*
X016137Y032807D01*
X016137Y032730D02*
X012987Y032730D01*
X012987Y032653D02*
X016137Y032653D01*
X016137Y032576D02*
X012987Y032576D01*
X012987Y032537D02*
X016137Y032537D01*
X016137Y033521D01*
X016728Y033521D01*
X016728Y037537D01*
X015192Y037537D01*
X015192Y035293D01*
X012987Y035293D01*
X012987Y032537D01*
X012987Y032340D02*
X019483Y032340D01*
X019483Y032134D01*
X019365Y032016D01*
X019365Y029387D01*
X017515Y029387D01*
X015626Y027499D01*
X015508Y027705D01*
X015242Y027970D01*
X014916Y028158D01*
X014553Y028256D01*
X014177Y028256D01*
X013814Y028158D01*
X013489Y027970D01*
X013223Y027705D01*
X013035Y027379D01*
X012987Y027201D01*
X012987Y029863D01*
X013036Y029747D01*
X013150Y029632D01*
X013300Y029570D01*
X013462Y029570D01*
X013612Y029632D01*
X013727Y029747D01*
X013789Y029897D01*
X013789Y030059D01*
X013727Y030208D01*
X013612Y030323D01*
X013462Y030385D01*
X013300Y030385D01*
X013150Y030323D01*
X013036Y030208D01*
X012987Y030092D01*
X012987Y032340D01*
X012987Y032267D02*
X019483Y032267D01*
X019483Y032190D02*
X012987Y032190D01*
X012987Y032112D02*
X019462Y032112D01*
X019384Y032035D02*
X012987Y032035D01*
X012987Y031958D02*
X019365Y031958D01*
X019365Y031881D02*
X012987Y031881D01*
X012987Y031803D02*
X019365Y031803D01*
X019365Y031726D02*
X012987Y031726D01*
X012987Y031649D02*
X019365Y031649D01*
X019365Y031572D02*
X012987Y031572D01*
X012987Y031494D02*
X019365Y031494D01*
X019365Y031417D02*
X012987Y031417D01*
X012987Y031340D02*
X019365Y031340D01*
X019365Y031263D02*
X019041Y031263D01*
X019051Y031258D02*
X018991Y031284D01*
X018926Y031297D01*
X018913Y031297D01*
X018913Y030982D01*
X019228Y030982D01*
X019228Y030995D01*
X019215Y031060D01*
X019189Y031120D01*
X019153Y031175D01*
X019106Y031222D01*
X019051Y031258D01*
X019143Y031185D02*
X019365Y031185D01*
X019365Y031108D02*
X019195Y031108D01*
X019220Y031031D02*
X019365Y031031D01*
X019365Y030954D02*
X018913Y030954D01*
X018913Y030942D02*
X018913Y030982D01*
X018873Y030982D01*
X018873Y031297D01*
X018860Y031297D01*
X018795Y031284D01*
X018734Y031258D01*
X018680Y031222D01*
X018633Y031175D01*
X018596Y031120D01*
X018571Y031060D01*
X018558Y030995D01*
X018558Y030982D01*
X018873Y030982D01*
X018873Y030942D01*
X018913Y030942D01*
X019228Y030942D01*
X019228Y030929D01*
X019215Y030864D01*
X019189Y030803D01*
X019153Y030749D01*
X019106Y030702D01*
X019051Y030665D01*
X018991Y030640D01*
X018926Y030627D01*
X018913Y030627D01*
X018913Y030942D01*
X018873Y030942D02*
X018873Y030627D01*
X018860Y030627D01*
X018795Y030640D01*
X018734Y030665D01*
X018680Y030702D01*
X018633Y030749D01*
X018596Y030803D01*
X018571Y030864D01*
X018558Y030929D01*
X018558Y030942D01*
X018873Y030942D01*
X018873Y030954D02*
X018125Y030954D01*
X018125Y030942D02*
X018125Y030982D01*
X018086Y030982D01*
X018086Y031297D01*
X018073Y031297D01*
X018008Y031284D01*
X017947Y031258D01*
X017892Y031222D01*
X017846Y031175D01*
X017809Y031120D01*
X017784Y031060D01*
X017771Y030995D01*
X017771Y030982D01*
X018086Y030982D01*
X018086Y030942D01*
X018125Y030942D01*
X018125Y030627D01*
X018138Y030627D01*
X018203Y030640D01*
X018264Y030665D01*
X018319Y030702D01*
X018365Y030749D01*
X018402Y030803D01*
X018427Y030864D01*
X018440Y030929D01*
X018440Y030942D01*
X018125Y030942D01*
X018086Y030942D02*
X018086Y030627D01*
X018073Y030627D01*
X018008Y030640D01*
X017947Y030665D01*
X017892Y030702D01*
X017846Y030749D01*
X017809Y030803D01*
X017784Y030864D01*
X017771Y030929D01*
X017771Y030942D01*
X018086Y030942D01*
X018086Y030954D02*
X017338Y030954D01*
X017338Y030942D02*
X017338Y030982D01*
X017298Y030982D01*
X017298Y031297D01*
X017285Y031297D01*
X017220Y031284D01*
X017160Y031258D01*
X017105Y031222D01*
X017058Y031175D01*
X017022Y031120D01*
X016996Y031060D01*
X016983Y030995D01*
X016983Y030982D01*
X017298Y030982D01*
X017298Y030942D01*
X016983Y030942D01*
X016983Y030929D01*
X016996Y030864D01*
X017022Y030803D01*
X017058Y030749D01*
X017105Y030702D01*
X017160Y030665D01*
X017220Y030640D01*
X017285Y030627D01*
X017298Y030627D01*
X017298Y030942D01*
X017338Y030942D01*
X017653Y030942D01*
X017653Y030929D01*
X017640Y030864D01*
X017615Y030803D01*
X017578Y030749D01*
X017531Y030702D01*
X017477Y030665D01*
X017416Y030640D01*
X017351Y030627D01*
X017338Y030627D01*
X017338Y030942D01*
X017338Y030982D02*
X017653Y030982D01*
X017653Y030995D01*
X017640Y031060D01*
X017615Y031120D01*
X017578Y031175D01*
X017531Y031222D01*
X017477Y031258D01*
X017416Y031284D01*
X017351Y031297D01*
X017338Y031297D01*
X017338Y030982D01*
X017298Y030954D02*
X016550Y030954D01*
X016550Y030942D02*
X016550Y030982D01*
X016511Y030982D01*
X016511Y031297D01*
X016498Y031297D01*
X016433Y031284D01*
X016372Y031258D01*
X016317Y031222D01*
X016271Y031175D01*
X016234Y031120D01*
X016209Y031060D01*
X016196Y030995D01*
X016196Y030982D01*
X016511Y030982D01*
X016511Y030942D01*
X016550Y030942D01*
X016550Y030627D01*
X016564Y030627D01*
X016628Y030640D01*
X016689Y030665D01*
X016744Y030702D01*
X016791Y030749D01*
X016827Y030803D01*
X016852Y030864D01*
X016865Y030929D01*
X016865Y030942D01*
X016550Y030942D01*
X016511Y030942D02*
X016511Y030627D01*
X016498Y030627D01*
X016433Y030640D01*
X016372Y030665D01*
X016317Y030702D01*
X016271Y030749D01*
X016234Y030803D01*
X016209Y030864D01*
X016196Y030929D01*
X016196Y030942D01*
X016511Y030942D01*
X016511Y030954D02*
X012987Y030954D01*
X012987Y031031D02*
X016203Y031031D01*
X016229Y031108D02*
X012987Y031108D01*
X012987Y031185D02*
X016281Y031185D01*
X016382Y031263D02*
X012987Y031263D01*
X012987Y030876D02*
X016206Y030876D01*
X016237Y030799D02*
X012987Y030799D01*
X012987Y030722D02*
X016297Y030722D01*
X016422Y030645D02*
X012987Y030645D01*
X012987Y030567D02*
X019365Y030567D01*
X019365Y030490D02*
X012987Y030490D01*
X012987Y030413D02*
X019365Y030413D01*
X019365Y030336D02*
X013581Y030336D01*
X013676Y030259D02*
X014932Y030259D01*
X014952Y030278D02*
X014852Y030178D01*
X014798Y030048D01*
X014798Y029907D01*
X014852Y029777D01*
X014952Y029677D01*
X015082Y029623D01*
X015223Y029623D01*
X015353Y029677D01*
X015448Y029772D01*
X015543Y029677D01*
X015673Y029623D01*
X015814Y029623D01*
X015944Y029677D01*
X016044Y029777D01*
X016098Y029907D01*
X016098Y030048D01*
X016044Y030178D01*
X015944Y030278D01*
X015814Y030332D01*
X015673Y030332D01*
X015543Y030278D01*
X015448Y030183D01*
X015353Y030278D01*
X015223Y030332D01*
X015082Y030332D01*
X014952Y030278D01*
X014855Y030181D02*
X013738Y030181D01*
X013770Y030104D02*
X014822Y030104D01*
X014798Y030027D02*
X013789Y030027D01*
X013789Y029950D02*
X014798Y029950D01*
X014813Y029872D02*
X013778Y029872D01*
X013746Y029795D02*
X014845Y029795D01*
X014911Y029718D02*
X013698Y029718D01*
X013620Y029641D02*
X015041Y029641D01*
X015265Y029641D02*
X015631Y029641D01*
X015502Y029718D02*
X015394Y029718D01*
X015855Y029641D02*
X019365Y029641D01*
X019365Y029718D02*
X015985Y029718D01*
X016051Y029795D02*
X019365Y029795D01*
X019365Y029872D02*
X016083Y029872D01*
X016098Y029950D02*
X019365Y029950D01*
X019365Y030027D02*
X016098Y030027D01*
X016074Y030104D02*
X019365Y030104D01*
X019365Y030181D02*
X016041Y030181D01*
X015964Y030259D02*
X019365Y030259D01*
X019365Y030645D02*
X019002Y030645D01*
X018913Y030645D02*
X018873Y030645D01*
X018873Y030722D02*
X018913Y030722D01*
X018913Y030799D02*
X018873Y030799D01*
X018873Y030876D02*
X018913Y030876D01*
X018913Y031031D02*
X018873Y031031D01*
X018873Y031108D02*
X018913Y031108D01*
X018913Y031185D02*
X018873Y031185D01*
X018873Y031263D02*
X018913Y031263D01*
X018744Y031263D02*
X018254Y031263D01*
X018264Y031258D02*
X018203Y031284D01*
X018138Y031297D01*
X018125Y031297D01*
X018125Y030982D01*
X018440Y030982D01*
X018440Y030995D01*
X018427Y031060D01*
X018402Y031120D01*
X018365Y031175D01*
X018319Y031222D01*
X018264Y031258D01*
X018355Y031185D02*
X018643Y031185D01*
X018591Y031108D02*
X018407Y031108D01*
X018433Y031031D02*
X018565Y031031D01*
X018569Y030876D02*
X018430Y030876D01*
X018399Y030799D02*
X018599Y030799D01*
X018660Y030722D02*
X018339Y030722D01*
X018214Y030645D02*
X018784Y030645D01*
X019126Y030722D02*
X019365Y030722D01*
X019365Y030799D02*
X019187Y030799D01*
X019217Y030876D02*
X019365Y030876D01*
X018125Y030876D02*
X018086Y030876D01*
X018086Y030799D02*
X018125Y030799D01*
X018125Y030722D02*
X018086Y030722D01*
X018086Y030645D02*
X018125Y030645D01*
X017997Y030645D02*
X017427Y030645D01*
X017338Y030645D02*
X017298Y030645D01*
X017298Y030722D02*
X017338Y030722D01*
X017338Y030799D02*
X017298Y030799D01*
X017298Y030876D02*
X017338Y030876D01*
X017338Y031031D02*
X017298Y031031D01*
X017298Y031108D02*
X017338Y031108D01*
X017338Y031185D02*
X017298Y031185D01*
X017298Y031263D02*
X017338Y031263D01*
X017467Y031263D02*
X017957Y031263D01*
X017856Y031185D02*
X017568Y031185D01*
X017620Y031108D02*
X017804Y031108D01*
X017778Y031031D02*
X017646Y031031D01*
X017642Y030876D02*
X017781Y030876D01*
X017812Y030799D02*
X017612Y030799D01*
X017551Y030722D02*
X017872Y030722D01*
X018086Y031031D02*
X018125Y031031D01*
X018125Y031108D02*
X018086Y031108D01*
X018086Y031185D02*
X018125Y031185D01*
X018125Y031263D02*
X018086Y031263D01*
X017170Y031263D02*
X016679Y031263D01*
X016689Y031258D02*
X016628Y031284D01*
X016564Y031297D01*
X016550Y031297D01*
X016550Y030982D01*
X016865Y030982D01*
X016865Y030995D01*
X016852Y031060D01*
X016827Y031120D01*
X016791Y031175D01*
X016744Y031222D01*
X016689Y031258D01*
X016780Y031185D02*
X017068Y031185D01*
X017016Y031108D02*
X016832Y031108D01*
X016858Y031031D02*
X016991Y031031D01*
X016994Y030876D02*
X016855Y030876D01*
X016824Y030799D02*
X017024Y030799D01*
X017085Y030722D02*
X016764Y030722D01*
X016639Y030645D02*
X017209Y030645D01*
X016550Y030645D02*
X016511Y030645D01*
X016511Y030722D02*
X016550Y030722D01*
X016550Y030799D02*
X016511Y030799D01*
X016511Y030876D02*
X016550Y030876D01*
X016550Y031031D02*
X016511Y031031D01*
X016511Y031108D02*
X016550Y031108D01*
X016550Y031185D02*
X016511Y031185D01*
X016511Y031263D02*
X016550Y031263D01*
X016334Y032576D02*
X019483Y032576D01*
X019483Y033348D02*
X016833Y033348D01*
X016910Y033425D02*
X019483Y033425D01*
X019483Y033503D02*
X016924Y033503D01*
X016924Y033580D02*
X019483Y033580D01*
X019483Y033657D02*
X016924Y033657D01*
X016924Y033734D02*
X019483Y033734D01*
X019483Y033812D02*
X016924Y033812D01*
X016924Y033889D02*
X019483Y033889D01*
X019483Y033966D02*
X016924Y033966D01*
X016924Y034043D02*
X019483Y034043D01*
X019483Y034121D02*
X016924Y034121D01*
X016924Y034198D02*
X019483Y034198D01*
X019483Y034275D02*
X016924Y034275D01*
X016924Y034352D02*
X019483Y034352D01*
X019483Y034429D02*
X016924Y034429D01*
X016924Y034507D02*
X022437Y034507D01*
X022598Y034584D02*
X016924Y034584D01*
X016924Y034661D02*
X023027Y034661D01*
X023027Y034584D02*
X022865Y034584D01*
X023026Y034507D02*
X023027Y034507D01*
X023027Y034738D02*
X016924Y034738D01*
X016924Y034816D02*
X023027Y034816D01*
X023027Y034893D02*
X016924Y034893D01*
X016924Y034970D02*
X023027Y034970D01*
X023027Y035047D02*
X016924Y035047D01*
X016924Y035125D02*
X023027Y035125D01*
X023027Y035202D02*
X016924Y035202D01*
X016924Y035279D02*
X023027Y035279D01*
X023027Y035356D02*
X016924Y035356D01*
X016924Y035434D02*
X023027Y035434D01*
X023027Y035511D02*
X020228Y035511D01*
X020192Y035476D02*
X020285Y035568D01*
X020285Y036198D01*
X020192Y036291D01*
X019562Y036291D01*
X019470Y036198D01*
X019470Y035568D01*
X019562Y035476D01*
X020192Y035476D01*
X020285Y035588D02*
X023027Y035588D01*
X023027Y035665D02*
X020285Y035665D01*
X020285Y035743D02*
X023027Y035743D01*
X023027Y035820D02*
X020285Y035820D01*
X020285Y035897D02*
X023027Y035897D01*
X023027Y035974D02*
X020285Y035974D01*
X020285Y036052D02*
X023027Y036052D01*
X023027Y036129D02*
X020285Y036129D01*
X020277Y036206D02*
X023027Y036206D01*
X023027Y036283D02*
X020200Y036283D01*
X019555Y036283D02*
X016924Y036283D01*
X016924Y036206D02*
X019477Y036206D01*
X019470Y036129D02*
X016924Y036129D01*
X016924Y036052D02*
X019470Y036052D01*
X019470Y035974D02*
X016924Y035974D01*
X016924Y035897D02*
X019470Y035897D01*
X019470Y035820D02*
X016924Y035820D01*
X016924Y035743D02*
X019470Y035743D01*
X019470Y035665D02*
X016924Y035665D01*
X016924Y035588D02*
X019470Y035588D01*
X019527Y035511D02*
X016924Y035511D01*
X016728Y035511D02*
X015192Y035511D01*
X015192Y035588D02*
X016728Y035588D01*
X016728Y035665D02*
X015192Y035665D01*
X015192Y035743D02*
X016728Y035743D01*
X016728Y035820D02*
X015192Y035820D01*
X015192Y035897D02*
X016728Y035897D01*
X016728Y035974D02*
X015192Y035974D01*
X015192Y036052D02*
X015485Y036052D01*
X015467Y036059D02*
X015528Y036034D01*
X015592Y036021D01*
X015605Y036021D01*
X015605Y036336D01*
X015291Y036336D01*
X015291Y036323D01*
X015303Y036258D01*
X015329Y036197D01*
X015365Y036142D01*
X015412Y036096D01*
X015467Y036059D01*
X015379Y036129D02*
X015192Y036129D01*
X015192Y036206D02*
X015325Y036206D01*
X015298Y036283D02*
X015192Y036283D01*
X015192Y036361D02*
X015605Y036361D01*
X015605Y036375D02*
X015605Y036336D01*
X015645Y036336D01*
X015645Y036375D01*
X015960Y036375D01*
X016275Y036375D01*
X016275Y036336D01*
X016314Y036336D01*
X016314Y036021D01*
X016327Y036021D01*
X016392Y036034D01*
X016453Y036059D01*
X016508Y036096D01*
X016554Y036142D01*
X016591Y036197D01*
X016616Y036258D01*
X016629Y036323D01*
X016629Y036336D01*
X016314Y036336D01*
X016314Y036375D01*
X016629Y036375D01*
X016629Y036389D01*
X016616Y036453D01*
X016591Y036514D01*
X016554Y036569D01*
X016508Y036616D01*
X016453Y036652D01*
X016392Y036677D01*
X016327Y036690D01*
X016314Y036690D01*
X016314Y036375D01*
X016275Y036375D01*
X016275Y036690D01*
X016262Y036690D01*
X016197Y036677D01*
X016136Y036652D01*
X016081Y036616D01*
X016035Y036569D01*
X015998Y036514D01*
X015973Y036453D01*
X015960Y036389D01*
X015960Y036375D01*
X015960Y036389D01*
X015947Y036453D01*
X015922Y036514D01*
X015885Y036569D01*
X015838Y036616D01*
X015784Y036652D01*
X015723Y036677D01*
X015658Y036690D01*
X015645Y036690D01*
X015645Y036375D01*
X015605Y036375D01*
X015291Y036375D01*
X015291Y036389D01*
X015303Y036453D01*
X015329Y036514D01*
X015365Y036569D01*
X015412Y036616D01*
X015467Y036652D01*
X015528Y036677D01*
X015592Y036690D01*
X015605Y036690D01*
X015605Y036375D01*
X015645Y036361D02*
X016275Y036361D01*
X016275Y036336D02*
X015960Y036336D01*
X015960Y036323D01*
X015973Y036258D01*
X015998Y036197D01*
X016035Y036142D01*
X016081Y036096D01*
X016136Y036059D01*
X016197Y036034D01*
X016262Y036021D01*
X016275Y036021D01*
X016275Y036336D01*
X016314Y036361D02*
X016728Y036361D01*
X016728Y036438D02*
X016619Y036438D01*
X016590Y036515D02*
X016728Y036515D01*
X016728Y036592D02*
X016531Y036592D01*
X016411Y036669D02*
X016728Y036669D01*
X016728Y036747D02*
X016175Y036747D01*
X016153Y036726D02*
X016200Y036772D01*
X016237Y036827D01*
X016262Y036888D01*
X016275Y036953D01*
X016275Y036966D01*
X015960Y036966D01*
X015960Y037005D01*
X016275Y037005D01*
X016275Y037018D01*
X016262Y037083D01*
X016237Y037144D01*
X016200Y037199D01*
X016153Y037245D01*
X016099Y037282D01*
X016038Y037307D01*
X015973Y037320D01*
X015960Y037320D01*
X015960Y037005D01*
X015920Y037005D01*
X015920Y036966D01*
X015605Y036966D01*
X015605Y036953D01*
X015618Y036888D01*
X015644Y036827D01*
X015680Y036772D01*
X015727Y036726D01*
X015782Y036689D01*
X015843Y036664D01*
X015907Y036651D01*
X015920Y036651D01*
X015920Y036966D01*
X015960Y036966D01*
X015960Y036651D01*
X015973Y036651D01*
X016038Y036664D01*
X016099Y036689D01*
X016153Y036726D01*
X016178Y036669D02*
X016052Y036669D01*
X016058Y036592D02*
X015862Y036592D01*
X015829Y036669D02*
X015742Y036669D01*
X015706Y036747D02*
X015192Y036747D01*
X015192Y036824D02*
X015646Y036824D01*
X015616Y036901D02*
X015192Y036901D01*
X015192Y036978D02*
X015920Y036978D01*
X015920Y037005D02*
X015605Y037005D01*
X015605Y037018D01*
X015618Y037083D01*
X015644Y037144D01*
X015680Y037199D01*
X015727Y037245D01*
X015782Y037282D01*
X015843Y037307D01*
X015907Y037320D01*
X015920Y037320D01*
X015920Y037005D01*
X015960Y036978D02*
X016728Y036978D01*
X016728Y036901D02*
X016265Y036901D01*
X016235Y036824D02*
X016728Y036824D01*
X016924Y036824D02*
X023027Y036824D01*
X023027Y036901D02*
X016924Y036901D01*
X016924Y036978D02*
X023027Y036978D01*
X023027Y037056D02*
X016924Y037056D01*
X016924Y037133D02*
X023027Y037133D01*
X023027Y037210D02*
X016924Y037210D01*
X016924Y037287D02*
X023027Y037287D01*
X023027Y037365D02*
X016924Y037365D01*
X016924Y037442D02*
X023027Y037442D01*
X023027Y037519D02*
X016924Y037519D01*
X016924Y037596D02*
X021852Y037596D01*
X021775Y037674D02*
X016869Y037674D01*
X016830Y037751D02*
X021743Y037751D01*
X021728Y037828D02*
X016846Y037828D01*
X016846Y037905D02*
X021728Y037905D01*
X021756Y037983D02*
X016817Y037983D01*
X016768Y038060D02*
X021767Y038060D01*
X021767Y038137D02*
X016665Y038137D01*
X016397Y038137D02*
X015665Y038137D01*
X015665Y038060D02*
X016293Y038060D01*
X016244Y037983D02*
X015665Y037983D01*
X015665Y037905D02*
X016216Y037905D01*
X016216Y037828D02*
X015665Y037828D01*
X015665Y037751D02*
X016232Y037751D01*
X016086Y037287D02*
X016728Y037287D01*
X016728Y037210D02*
X016189Y037210D01*
X016241Y037133D02*
X016728Y037133D01*
X016728Y037056D02*
X016267Y037056D01*
X015960Y037056D02*
X015920Y037056D01*
X015920Y037133D02*
X015960Y037133D01*
X015960Y037210D02*
X015920Y037210D01*
X015920Y037287D02*
X015960Y037287D01*
X015794Y037287D02*
X015192Y037287D01*
X015192Y037210D02*
X015691Y037210D01*
X015639Y037133D02*
X015192Y037133D01*
X015192Y037056D02*
X015613Y037056D01*
X015920Y036901D02*
X015960Y036901D01*
X015960Y036824D02*
X015920Y036824D01*
X015920Y036747D02*
X015960Y036747D01*
X015960Y036669D02*
X015920Y036669D01*
X015921Y036515D02*
X015998Y036515D01*
X015970Y036438D02*
X015950Y036438D01*
X015960Y036336D02*
X015645Y036336D01*
X015645Y036021D01*
X015658Y036021D01*
X015723Y036034D01*
X015784Y036059D01*
X015838Y036096D01*
X015885Y036142D01*
X015922Y036197D01*
X015947Y036258D01*
X015960Y036323D01*
X015960Y036336D01*
X015952Y036283D02*
X015968Y036283D01*
X015994Y036206D02*
X015925Y036206D01*
X015872Y036129D02*
X016048Y036129D01*
X016154Y036052D02*
X015766Y036052D01*
X015645Y036052D02*
X015605Y036052D01*
X015605Y036129D02*
X015645Y036129D01*
X015645Y036206D02*
X015605Y036206D01*
X015605Y036283D02*
X015645Y036283D01*
X015645Y036438D02*
X015605Y036438D01*
X015605Y036515D02*
X015645Y036515D01*
X015645Y036592D02*
X015605Y036592D01*
X015605Y036669D02*
X015645Y036669D01*
X015508Y036669D02*
X015192Y036669D01*
X015192Y036592D02*
X015389Y036592D01*
X015329Y036515D02*
X015192Y036515D01*
X015192Y036438D02*
X015300Y036438D01*
X014995Y036438D02*
X012987Y036438D01*
X012987Y036515D02*
X014995Y036515D01*
X014995Y036592D02*
X012987Y036592D01*
X012987Y036669D02*
X014995Y036669D01*
X014995Y036747D02*
X012987Y036747D01*
X012987Y036824D02*
X014995Y036824D01*
X014995Y036901D02*
X012987Y036901D01*
X012987Y036978D02*
X014995Y036978D01*
X014995Y037056D02*
X012987Y037056D01*
X012987Y037133D02*
X014995Y037133D01*
X014995Y037210D02*
X012987Y037210D01*
X012987Y037287D02*
X014995Y037287D01*
X014995Y037365D02*
X012987Y037365D01*
X012987Y037442D02*
X014995Y037442D01*
X014995Y037519D02*
X012987Y037519D01*
X012987Y037596D02*
X014995Y037596D01*
X015035Y037674D02*
X012987Y037674D01*
X012987Y037751D02*
X015035Y037751D01*
X015035Y037828D02*
X012987Y037828D01*
X012987Y037905D02*
X015035Y037905D01*
X015035Y037983D02*
X012987Y037983D01*
X012987Y038060D02*
X015035Y038060D01*
X015035Y038137D02*
X012987Y038137D01*
X012987Y038214D02*
X015035Y038214D01*
X015035Y038292D02*
X012987Y038292D01*
X012987Y038369D02*
X015043Y038369D01*
X015075Y038446D02*
X012987Y038446D01*
X012987Y038523D02*
X015143Y038523D01*
X015557Y038523D02*
X021767Y038523D01*
X021767Y038446D02*
X015624Y038446D01*
X015656Y038369D02*
X021767Y038369D01*
X021767Y038292D02*
X015665Y038292D01*
X015665Y038214D02*
X021767Y038214D01*
X021767Y038600D02*
X012987Y038600D01*
X012987Y038678D02*
X021767Y038678D01*
X021767Y038755D02*
X012987Y038755D01*
X012987Y038832D02*
X021767Y038832D01*
X021767Y038909D02*
X012987Y038909D01*
X012987Y038987D02*
X021767Y038987D01*
X021728Y039064D02*
X012987Y039064D01*
X012987Y039141D02*
X021696Y039141D01*
X021688Y039218D02*
X012987Y039218D01*
X012987Y039296D02*
X021688Y039296D01*
X021718Y039373D02*
X012987Y039373D01*
X012987Y039450D02*
X021762Y039450D01*
X021839Y039527D02*
X012987Y039527D01*
X012987Y039605D02*
X023027Y039605D01*
X023027Y039682D02*
X012987Y039682D01*
X012987Y039759D02*
X023027Y039759D01*
X023027Y039836D02*
X012987Y039836D01*
X012987Y039914D02*
X023027Y039914D01*
X023027Y039991D02*
X012987Y039991D01*
X012987Y040068D02*
X023027Y040068D01*
X023027Y040145D02*
X012987Y040145D01*
X012987Y040223D02*
X023027Y040223D01*
X023027Y040300D02*
X012987Y040300D01*
X012987Y040377D02*
X023027Y040377D01*
X023027Y040454D02*
X015766Y040454D01*
X015850Y040531D02*
X023027Y040531D01*
X023027Y040609D02*
X015906Y040609D01*
X015938Y040686D02*
X023027Y040686D01*
X023027Y040763D02*
X015954Y040763D01*
X015954Y040840D02*
X023027Y040840D01*
X023027Y040918D02*
X015941Y040918D01*
X016210Y040995D02*
X023027Y040995D01*
X023027Y041072D02*
X016287Y041072D01*
X016328Y041149D02*
X023027Y041149D01*
X023027Y041227D02*
X016354Y041227D01*
X016354Y041304D02*
X021273Y041304D01*
X021189Y041381D02*
X016338Y041381D01*
X016306Y041458D02*
X021145Y041458D01*
X021117Y041536D02*
X016233Y041536D01*
X016216Y041613D02*
X019381Y041613D01*
X019304Y041690D02*
X016216Y041690D01*
X016216Y041767D02*
X019226Y041767D01*
X019149Y041845D02*
X016274Y041845D01*
X016352Y041922D02*
X019072Y041922D01*
X019090Y042182D02*
X019483Y041789D01*
X020074Y041789D01*
X020271Y041986D01*
X021058Y041986D01*
X021452Y041592D01*
X021759Y041458D02*
X023027Y041458D01*
X023027Y041381D02*
X021714Y041381D01*
X021631Y041304D02*
X023027Y041304D01*
X023027Y041536D02*
X021787Y041536D01*
X021787Y041613D02*
X023027Y041613D01*
X023027Y041690D02*
X021773Y041690D01*
X021741Y041767D02*
X023027Y041767D01*
X023027Y041845D02*
X021672Y041845D01*
X021530Y041922D02*
X023027Y041922D01*
X021117Y041613D02*
X020177Y041613D01*
X020254Y041690D02*
X021075Y041690D01*
X020998Y041767D02*
X020331Y041767D01*
X019090Y042182D02*
X016334Y042182D01*
X016019Y041867D01*
X016019Y041277D01*
X015231Y041304D02*
X014718Y041304D01*
X014812Y041381D02*
X015231Y041381D01*
X015231Y041458D02*
X014848Y041458D01*
X014857Y041536D02*
X015231Y041536D01*
X015231Y041613D02*
X014857Y041613D01*
X014857Y041690D02*
X015231Y041690D01*
X015231Y041767D02*
X014857Y041767D01*
X014857Y041845D02*
X015231Y041845D01*
X015231Y041922D02*
X014857Y041922D01*
X015231Y041227D02*
X012987Y041227D01*
X012987Y041149D02*
X015231Y041149D01*
X015231Y041072D02*
X012987Y041072D01*
X012987Y040995D02*
X015184Y040995D01*
X015152Y040918D02*
X012987Y040918D01*
X012987Y040840D02*
X015139Y040840D01*
X015139Y040763D02*
X012987Y040763D01*
X012987Y040686D02*
X015154Y040686D01*
X015186Y040609D02*
X012987Y040609D01*
X012987Y040531D02*
X015243Y040531D01*
X015327Y040454D02*
X012987Y040454D01*
X013588Y041304D02*
X013895Y041304D01*
X013801Y041381D02*
X013665Y041381D01*
X013696Y041458D02*
X013765Y041458D01*
X013755Y041536D02*
X013696Y041536D01*
X013696Y041613D02*
X013755Y041613D01*
X013755Y041690D02*
X013696Y041690D01*
X013696Y041767D02*
X013755Y041767D01*
X013755Y041845D02*
X013696Y041845D01*
X013696Y041922D02*
X013755Y041922D01*
X015192Y037519D02*
X016728Y037519D01*
X016728Y037442D02*
X015192Y037442D01*
X015192Y037365D02*
X016728Y037365D01*
X016924Y036747D02*
X023027Y036747D01*
X023027Y036669D02*
X016924Y036669D01*
X016924Y036592D02*
X023027Y036592D01*
X023027Y036515D02*
X016924Y036515D01*
X016924Y036438D02*
X023027Y036438D01*
X023027Y036361D02*
X016924Y036361D01*
X016728Y036283D02*
X016621Y036283D01*
X016595Y036206D02*
X016728Y036206D01*
X016728Y036129D02*
X016541Y036129D01*
X016435Y036052D02*
X016728Y036052D01*
X016314Y036052D02*
X016275Y036052D01*
X016275Y036129D02*
X016314Y036129D01*
X016314Y036206D02*
X016275Y036206D01*
X016275Y036283D02*
X016314Y036283D01*
X016314Y036438D02*
X016275Y036438D01*
X016275Y036515D02*
X016314Y036515D01*
X016314Y036592D02*
X016275Y036592D01*
X016275Y036669D02*
X016314Y036669D01*
X016728Y035434D02*
X015192Y035434D01*
X015192Y035356D02*
X016728Y035356D01*
X016728Y035279D02*
X012987Y035279D01*
X012987Y035202D02*
X016728Y035202D01*
X016728Y035125D02*
X012987Y035125D01*
X012987Y035047D02*
X016728Y035047D01*
X016728Y034970D02*
X015944Y034970D01*
X015957Y034962D02*
X015902Y034999D01*
X015841Y035024D01*
X015776Y035037D01*
X015763Y035037D01*
X015763Y034722D01*
X015724Y034722D01*
X015724Y035037D01*
X015710Y035037D01*
X015646Y035024D01*
X015585Y034999D01*
X015530Y034962D01*
X015483Y034915D01*
X015447Y034861D01*
X015421Y034800D01*
X015409Y034735D01*
X015409Y034722D01*
X015724Y034722D01*
X015724Y034682D01*
X015763Y034682D01*
X015763Y034367D01*
X015776Y034367D01*
X015841Y034380D01*
X015902Y034406D01*
X015957Y034442D01*
X016003Y034489D01*
X016040Y034544D01*
X016065Y034604D01*
X016078Y034669D01*
X016078Y034682D01*
X015763Y034682D01*
X015763Y034722D01*
X016078Y034722D01*
X016078Y034735D01*
X016065Y034800D01*
X016040Y034861D01*
X016003Y034915D01*
X015957Y034962D01*
X016018Y034893D02*
X016728Y034893D01*
X016728Y034816D02*
X016058Y034816D01*
X016077Y034738D02*
X016728Y034738D01*
X016728Y034661D02*
X016076Y034661D01*
X016057Y034584D02*
X016728Y034584D01*
X016728Y034507D02*
X016015Y034507D01*
X015938Y034429D02*
X016728Y034429D01*
X016728Y034352D02*
X012987Y034352D01*
X012987Y034275D02*
X016728Y034275D01*
X016728Y034198D02*
X012987Y034198D01*
X012987Y034121D02*
X016728Y034121D01*
X016728Y034043D02*
X012987Y034043D01*
X012987Y033966D02*
X016728Y033966D01*
X016728Y033889D02*
X012987Y033889D01*
X012987Y033812D02*
X016728Y033812D01*
X016728Y033734D02*
X012987Y033734D01*
X012987Y033657D02*
X016728Y033657D01*
X016728Y033580D02*
X012987Y033580D01*
X012987Y033503D02*
X016137Y033503D01*
X016137Y033425D02*
X012987Y033425D01*
X012987Y034429D02*
X013974Y034429D01*
X013955Y034442D02*
X014010Y034406D01*
X014071Y034380D01*
X014136Y034367D01*
X014149Y034367D01*
X014149Y034682D01*
X014188Y034682D01*
X014188Y034367D01*
X014201Y034367D01*
X014266Y034380D01*
X014327Y034406D01*
X014382Y034442D01*
X014428Y034489D01*
X014465Y034544D01*
X014490Y034604D01*
X014503Y034669D01*
X014503Y034682D01*
X014188Y034682D01*
X014188Y034722D01*
X014149Y034722D01*
X014149Y035037D01*
X014136Y035037D01*
X014071Y035024D01*
X014010Y034999D01*
X013955Y034962D01*
X013909Y034915D01*
X013872Y034861D01*
X013847Y034800D01*
X013834Y034735D01*
X013834Y034722D01*
X014149Y034722D01*
X014149Y034682D01*
X013834Y034682D01*
X013834Y034669D01*
X013847Y034604D01*
X013872Y034544D01*
X013909Y034489D01*
X013955Y034442D01*
X013897Y034507D02*
X012987Y034507D01*
X012987Y034584D02*
X013855Y034584D01*
X013835Y034661D02*
X012987Y034661D01*
X012987Y034738D02*
X013835Y034738D01*
X013853Y034816D02*
X012987Y034816D01*
X012987Y034893D02*
X013894Y034893D01*
X013967Y034970D02*
X012987Y034970D01*
X012987Y035511D02*
X014995Y035511D01*
X014995Y035588D02*
X012987Y035588D01*
X012987Y035665D02*
X014995Y035665D01*
X014995Y035743D02*
X012987Y035743D01*
X012987Y035820D02*
X014995Y035820D01*
X014995Y035897D02*
X012987Y035897D01*
X012987Y035974D02*
X014995Y035974D01*
X014995Y036052D02*
X012987Y036052D01*
X012987Y036129D02*
X014995Y036129D01*
X014995Y036206D02*
X012987Y036206D01*
X012987Y036283D02*
X014995Y036283D01*
X014995Y036361D02*
X012987Y036361D01*
X014188Y035037D02*
X014201Y035037D01*
X014266Y035024D01*
X014327Y034999D01*
X014382Y034962D01*
X014428Y034915D01*
X014465Y034861D01*
X014490Y034800D01*
X014503Y034735D01*
X014503Y034722D01*
X014188Y034722D01*
X014188Y035037D01*
X014188Y034970D02*
X014149Y034970D01*
X014149Y034893D02*
X014188Y034893D01*
X014188Y034816D02*
X014149Y034816D01*
X014149Y034738D02*
X014188Y034738D01*
X014188Y034661D02*
X014149Y034661D01*
X014149Y034584D02*
X014188Y034584D01*
X014188Y034507D02*
X014149Y034507D01*
X014149Y034429D02*
X014188Y034429D01*
X014363Y034429D02*
X014761Y034429D01*
X014743Y034442D02*
X014797Y034406D01*
X014858Y034380D01*
X014923Y034367D01*
X014936Y034367D01*
X014936Y034682D01*
X014976Y034682D01*
X014976Y034722D01*
X015291Y034722D01*
X015291Y034735D01*
X015278Y034800D01*
X015252Y034861D01*
X015216Y034915D01*
X015169Y034962D01*
X015114Y034999D01*
X015053Y035024D01*
X014989Y035037D01*
X014976Y035037D01*
X014976Y034722D01*
X014936Y034722D01*
X014936Y035037D01*
X014923Y035037D01*
X014858Y035024D01*
X014797Y034999D01*
X014743Y034962D01*
X014696Y034915D01*
X014659Y034861D01*
X014634Y034800D01*
X014621Y034735D01*
X014621Y034722D01*
X014936Y034722D01*
X014936Y034682D01*
X014621Y034682D01*
X014621Y034669D01*
X014634Y034604D01*
X014659Y034544D01*
X014696Y034489D01*
X014743Y034442D01*
X014684Y034507D02*
X014440Y034507D01*
X014482Y034584D02*
X014643Y034584D01*
X014623Y034661D02*
X014502Y034661D01*
X014502Y034738D02*
X014622Y034738D01*
X014641Y034816D02*
X014484Y034816D01*
X014443Y034893D02*
X014681Y034893D01*
X014755Y034970D02*
X014370Y034970D01*
X014936Y034970D02*
X014976Y034970D01*
X014976Y034893D02*
X014936Y034893D01*
X014936Y034816D02*
X014976Y034816D01*
X014976Y034738D02*
X014936Y034738D01*
X014976Y034682D02*
X015291Y034682D01*
X015291Y034669D01*
X015278Y034604D01*
X015252Y034544D01*
X015216Y034489D01*
X015169Y034442D01*
X015114Y034406D01*
X015053Y034380D01*
X014989Y034367D01*
X014976Y034367D01*
X014976Y034682D01*
X014976Y034661D02*
X014936Y034661D01*
X014936Y034584D02*
X014976Y034584D01*
X014976Y034507D02*
X014936Y034507D01*
X014936Y034429D02*
X014976Y034429D01*
X015150Y034429D02*
X015549Y034429D01*
X015530Y034442D02*
X015585Y034406D01*
X015646Y034380D01*
X015710Y034367D01*
X015724Y034367D01*
X015724Y034682D01*
X015409Y034682D01*
X015409Y034669D01*
X015421Y034604D01*
X015447Y034544D01*
X015483Y034489D01*
X015530Y034442D01*
X015471Y034507D02*
X015228Y034507D01*
X015269Y034584D02*
X015430Y034584D01*
X015410Y034661D02*
X015289Y034661D01*
X015290Y034738D02*
X015409Y034738D01*
X015428Y034816D02*
X015271Y034816D01*
X015231Y034893D02*
X015468Y034893D01*
X015542Y034970D02*
X015157Y034970D01*
X015724Y034970D02*
X015763Y034970D01*
X015763Y034893D02*
X015724Y034893D01*
X015724Y034816D02*
X015763Y034816D01*
X015763Y034738D02*
X015724Y034738D01*
X015724Y034661D02*
X015763Y034661D01*
X015763Y034584D02*
X015724Y034584D01*
X015724Y034507D02*
X015763Y034507D01*
X015763Y034429D02*
X015724Y034429D01*
X015523Y030259D02*
X015373Y030259D01*
X016842Y028714D02*
X012987Y028714D01*
X012987Y028791D02*
X016919Y028791D01*
X016996Y028868D02*
X012987Y028868D01*
X012987Y028945D02*
X017073Y028945D01*
X017150Y029023D02*
X012987Y029023D01*
X012987Y029100D02*
X017228Y029100D01*
X017305Y029177D02*
X012987Y029177D01*
X012987Y029254D02*
X017382Y029254D01*
X017459Y029332D02*
X012987Y029332D01*
X012987Y029409D02*
X019365Y029409D01*
X019365Y029486D02*
X012987Y029486D01*
X012987Y029563D02*
X019365Y029563D01*
X016764Y028636D02*
X012987Y028636D01*
X012987Y028559D02*
X016687Y028559D01*
X016610Y028482D02*
X012987Y028482D01*
X012987Y028405D02*
X016533Y028405D01*
X016455Y028328D02*
X012987Y028328D01*
X012987Y028250D02*
X014158Y028250D01*
X013869Y028173D02*
X012987Y028173D01*
X012987Y028096D02*
X013706Y028096D01*
X013572Y028019D02*
X012987Y028019D01*
X012987Y027941D02*
X013460Y027941D01*
X013383Y027864D02*
X012987Y027864D01*
X012987Y027787D02*
X013305Y027787D01*
X013228Y027710D02*
X012987Y027710D01*
X012987Y027632D02*
X013181Y027632D01*
X013137Y027555D02*
X012987Y027555D01*
X012987Y027478D02*
X013092Y027478D01*
X013048Y027401D02*
X012987Y027401D01*
X012987Y027323D02*
X013020Y027323D01*
X013000Y027246D02*
X012987Y027246D01*
X014573Y028250D02*
X016378Y028250D01*
X016301Y028173D02*
X014861Y028173D01*
X015025Y028096D02*
X016224Y028096D01*
X016146Y028019D02*
X015158Y028019D01*
X015271Y027941D02*
X016069Y027941D01*
X015992Y027864D02*
X015348Y027864D01*
X015425Y027787D02*
X015915Y027787D01*
X015837Y027710D02*
X015503Y027710D01*
X015549Y027632D02*
X015760Y027632D01*
X015683Y027555D02*
X015594Y027555D01*
X013142Y029641D02*
X012987Y029641D01*
X012987Y029718D02*
X013065Y029718D01*
X013016Y029795D02*
X012987Y029795D01*
X012987Y030104D02*
X012992Y030104D01*
X012987Y030181D02*
X013024Y030181D01*
X012987Y030259D02*
X013086Y030259D01*
X013181Y030336D02*
X012987Y030336D01*
X016865Y023088D02*
X017515Y023088D01*
X017712Y023285D01*
X018893Y023285D01*
X022233Y037596D02*
X023027Y037596D01*
X023027Y037674D02*
X022310Y037674D01*
X022342Y037751D02*
X023027Y037751D01*
X023027Y037828D02*
X022357Y037828D01*
X022357Y037905D02*
X023027Y037905D01*
X023027Y037983D02*
X022329Y037983D01*
X022318Y038060D02*
X023027Y038060D01*
X023027Y038137D02*
X022318Y038137D01*
X022318Y038214D02*
X023027Y038214D01*
X023027Y038292D02*
X022318Y038292D01*
X022318Y038369D02*
X023027Y038369D01*
X023027Y038446D02*
X022318Y038446D01*
X022318Y038523D02*
X023027Y038523D01*
X023027Y038600D02*
X022318Y038600D01*
X022318Y038678D02*
X023027Y038678D01*
X023027Y038755D02*
X022318Y038755D01*
X022318Y038832D02*
X023027Y038832D01*
X023027Y038909D02*
X022318Y038909D01*
X023420Y039820D02*
X023696Y039545D01*
X024365Y039545D01*
X024838Y040017D01*
D28*
X023420Y039820D03*
X022042Y037852D03*
X022042Y037458D03*
X021373Y033285D03*
X020665Y030765D03*
X019090Y028600D03*
X019877Y028403D03*
X019759Y024781D03*
X021058Y024072D03*
X023420Y023678D03*
X024602Y023363D03*
X025586Y024072D03*
X026452Y025608D03*
X026964Y025844D03*
X026964Y028009D03*
X026570Y028797D03*
X025783Y029190D03*
X024798Y030765D03*
X024405Y031749D03*
X023617Y030765D03*
X023617Y027812D03*
X024011Y027615D03*
X024798Y027615D03*
X025389Y027615D03*
X022830Y027419D03*
X027357Y030962D03*
X028381Y027812D03*
X029168Y027773D03*
X030507Y027025D03*
X032082Y027930D03*
X032436Y027655D03*
X032791Y027379D03*
X032436Y027104D03*
X031964Y025844D03*
X032357Y028678D03*
X034444Y029190D03*
X033460Y032143D03*
X034641Y035686D03*
X035822Y035686D03*
X034956Y037104D03*
X035822Y037458D03*
X036413Y037655D03*
X033854Y037458D03*
X033066Y037458D03*
X032869Y039820D03*
X033460Y041198D03*
X034405Y041198D03*
X033657Y041986D03*
X031294Y037852D03*
X030310Y037655D03*
X030310Y035686D03*
X029917Y033324D03*
X030113Y032143D03*
X026767Y034899D03*
X025980Y034899D03*
X027554Y039033D03*
X026964Y042182D03*
X028145Y042379D03*
X028145Y042773D03*
X029129Y042773D03*
X025980Y045883D03*
X025586Y046119D03*
X024917Y045923D03*
X024208Y045883D03*
X023420Y045923D03*
X021649Y044348D03*
X021452Y045529D03*
X020980Y045450D03*
X020350Y046041D03*
X019680Y044505D03*
X018696Y044545D03*
X020586Y041552D03*
X016531Y037852D03*
X015350Y038285D03*
X016334Y043954D03*
X018184Y048088D03*
X018105Y049545D03*
X019562Y049623D03*
X019562Y050056D03*
X020113Y050056D03*
X020940Y050844D03*
X021452Y051631D03*
X022633Y051828D03*
X022830Y052615D03*
X023184Y052340D03*
X023617Y051710D03*
X024208Y052615D03*
X024602Y052812D03*
X024602Y053206D03*
X024208Y053403D03*
X024602Y053797D03*
X022830Y053797D03*
X022909Y053127D03*
X022042Y053521D03*
X019602Y053836D03*
X018539Y054584D03*
X022633Y056671D03*
X024602Y056671D03*
X026767Y056671D03*
X028539Y054584D03*
X030113Y054978D03*
X028932Y056671D03*
X026334Y053206D03*
X025783Y050450D03*
X024405Y048757D03*
X025586Y047891D03*
X025783Y046907D03*
X027830Y047300D03*
X027830Y050096D03*
X029129Y050450D03*
X028814Y051631D03*
X032476Y052812D03*
X033066Y053403D03*
X033460Y052812D03*
X034168Y053797D03*
X034050Y051631D03*
X035231Y051631D03*
X034641Y050056D03*
X032672Y050253D03*
X023814Y050450D03*
X023224Y050450D03*
X021964Y049466D03*
X021924Y049072D03*
X019680Y048088D03*
X013381Y025056D03*
X024011Y019112D03*
X024247Y020844D03*
X027948Y023875D03*
X034444Y023875D03*
X036609Y028993D03*
X037397Y031749D03*
D29*
X029208Y044151D03*
X028932Y045844D03*
X027279Y045450D03*
X025389Y046592D03*
X023814Y046119D03*
X025428Y043285D03*
X027554Y042970D03*
X023420Y039230D03*
X022042Y039230D03*
X022594Y041789D03*
X018854Y038049D03*
X018854Y037458D03*
X018854Y036867D03*
X018184Y036828D03*
X018184Y037458D03*
X018184Y038049D03*
X016294Y036356D03*
X015625Y036356D03*
X015940Y036986D03*
X015743Y034702D03*
X014956Y034702D03*
X014168Y034702D03*
X016531Y030962D03*
X017318Y030962D03*
X018105Y030962D03*
X018893Y030962D03*
X015743Y029978D03*
X015153Y029978D03*
X026452Y050450D03*
X027554Y053797D03*
X025743Y055962D03*
X021649Y055962D03*
X030507Y056356D03*
X032003Y055647D03*
D30*
X032476Y044938D03*
X033066Y044545D03*
X033066Y042576D03*
X031885Y042576D03*
X030743Y044466D03*
X028342Y040017D03*
X032082Y038718D03*
X033854Y039702D03*
X034917Y037812D03*
X035428Y040096D03*
X034838Y033915D03*
X034641Y032537D03*
X034641Y031552D03*
X035035Y028993D03*
X032869Y026434D03*
X028539Y024663D03*
X029287Y019584D03*
X033735Y019584D03*
X026964Y031552D03*
X024168Y039978D03*
X024011Y040647D03*
X019641Y042182D03*
X015940Y042773D03*
X015546Y040804D03*
X013381Y029978D03*
X013972Y025056D03*
X014562Y025056D03*
X022042Y020923D03*
X023027Y020923D03*
X020546Y053678D03*
D31*
X019562Y049623D02*
X019365Y049426D01*
X019365Y047478D01*
X018696Y046808D01*
X018696Y045824D01*
X018696Y044545D01*
X016137Y044643D02*
X016137Y046316D01*
X015940Y046513D01*
X015940Y046907D01*
X016728Y047694D01*
X017515Y047694D01*
X017830Y048009D01*
X017830Y049269D01*
X018105Y049545D01*
X025389Y046592D02*
X025861Y046592D01*
X026216Y046238D01*
X028539Y046238D01*
X028932Y045844D01*
X026964Y045135D02*
X026216Y045883D01*
X025980Y045883D01*
X026964Y045135D02*
X026964Y042182D01*
X028617Y049269D02*
X028617Y049938D01*
X029129Y050450D01*
X020271Y031643D02*
X019798Y031171D01*
X019798Y028482D01*
X019877Y028403D01*
X019090Y028600D02*
X019090Y025844D01*
X018519Y025273D01*
X018519Y024663D01*
X023420Y028797D02*
X022314Y029903D01*
X023617Y030765D02*
X020665Y030765D01*
X023420Y028797D02*
X026570Y028797D01*
X027239Y027694D02*
X025468Y027694D01*
X025389Y027615D01*
X026964Y025844D02*
X026767Y025647D01*
X026767Y024663D01*
X027239Y027694D02*
X027751Y028206D01*
X028735Y028206D01*
X029168Y027773D01*
X029050Y027891D01*
X030212Y023088D02*
X030212Y022399D01*
X029720Y021907D01*
X029720Y021552D01*
X029720Y021041D02*
X029720Y020726D01*
X030212Y020234D01*
X030212Y019446D01*
X034050Y020726D02*
X034661Y020115D01*
X034661Y019446D01*
X034050Y020726D02*
X034050Y021041D01*
X034050Y021552D02*
X034050Y021907D01*
X034661Y022517D01*
X034661Y023088D01*
D32*
X027314Y029903D02*
X026314Y029903D01*
X024314Y029903D02*
X023314Y029903D01*
X017239Y044643D02*
X017239Y044860D01*
X013598Y044860D02*
X013598Y044643D01*
X021865Y054958D02*
X021865Y055745D01*
X021649Y055962D01*
X021865Y056178D01*
X021865Y057123D01*
X025369Y057123D02*
X025369Y055962D01*
X025743Y055962D01*
X025369Y055962D02*
X025369Y054958D01*
X028499Y054545D02*
X028499Y053875D01*
X028999Y053875D02*
X028999Y055686D01*
X029499Y055686D01*
X029999Y055686D01*
X030113Y054978D02*
X030704Y054978D01*
X030980Y054702D01*
X031294Y054702D01*
X032476Y054702D01*
X028999Y055686D02*
X028499Y055686D01*
X028499Y056238D01*
X028932Y056671D01*
X028539Y054584D02*
X028499Y054545D01*
D33*
X016924Y019505D02*
X016865Y019446D01*
D34*
X016019Y041277D03*
X021452Y041592D03*
X021649Y043560D03*
D35*
X017318Y049482D02*
X015562Y049482D01*
X015546Y049466D01*
X013598Y047517D01*
X013598Y044643D01*
D36*
X015546Y042379D02*
X015546Y040804D01*
X015546Y042379D02*
X015940Y042773D01*
X015350Y038285D02*
X015350Y037458D01*
X022042Y039230D02*
X023420Y039230D01*
X029287Y019584D02*
X029424Y019446D01*
X030212Y019446D01*
X033735Y019446D02*
X033735Y019584D01*
X033735Y019446D02*
X034661Y019446D01*
D37*
X015448Y051631D02*
X014464Y051631D01*
X014464Y052615D02*
X014464Y053600D01*
X015448Y053600D02*
X015448Y052615D01*
X014464Y052615D01*
D38*
X017515Y052812D03*
X036413Y052812D03*
X036413Y027222D03*
X014365Y026828D03*
D39*
X027357Y030962D02*
X028145Y031749D01*
X034050Y031749D01*
X034365Y032064D01*
X034917Y032064D01*
X035231Y031749D01*
X037397Y031749D01*
D40*
X014759Y024860D02*
X014759Y022970D01*
X014759Y024860D02*
X014562Y025056D01*
X013972Y025056D01*
X013381Y025056D02*
X013381Y024269D01*
D41*
X022042Y037852D02*
X022042Y039230D01*
M02*
