%
M48
M72
T01C0.0157
T02C0.0197
T03C0.0236
T04C0.0315
T05C0.0354
T06C0.0394
T07C0.0472
T08C0.0551
T09C0.0630
T10C0.0709
T11C0.1260
%
T01
X13381Y25056
X13972Y25056
X14562Y25056
X19090Y28600
X19877Y28403
X20665Y30765
X21373Y33285
X23617Y30765
X24405Y31749
X24798Y30765
X25783Y29190
X26570Y28797
X26964Y28009
X28381Y27812
X29168Y27773
X30507Y27025
X32082Y27930
X32436Y27655
X32791Y27379
X32436Y27104
X31964Y25844
X32357Y28678
X34444Y29190
X33460Y32143
X34641Y35686
X35822Y35686
X34956Y37104
X35822Y37458
X36413Y37655
X33854Y37458
X33066Y37458
X32869Y39820
X33460Y41198
X34405Y41198
X33657Y41986
X31294Y37852
X30310Y37655
X30310Y35686
X29917Y33324
X30113Y32143
X27357Y30962
X25389Y27615
X24798Y27615
X24011Y27615
X23617Y27812
X22830Y27419
X23420Y23678
X24602Y23363
X25586Y24072
X26452Y25608
X26964Y25844
X27948Y23875
X24247Y20844
X24011Y19112
X21058Y24072
X19759Y24781
X25980Y34899
X26767Y34899
X27554Y39033
X26964Y42182
X28145Y42379
X28145Y42773
X29129Y42773
X25980Y45883
X25586Y46119
X24917Y45923
X24208Y45883
X23420Y45923
X21649Y44348
X21452Y45529
X20980Y45450
X20350Y46041
X19680Y44505
X18696Y44545
X20586Y41552
X21452Y41592
X23420Y39820
X22042Y37852
X22042Y37458
X16531Y37852
X15350Y38285
X16019Y41277
X16334Y43954
X18184Y48088
X18105Y49545
X19562Y49623
X19562Y50056
X20113Y50056
X20940Y50844
X21452Y51631
X22633Y51828
X22830Y52615
X23184Y52340
X23617Y51710
X24208Y52615
X24602Y52812
X24602Y53206
X24208Y53403
X24602Y53797
X22830Y53797
X22909Y53127
X22042Y53521
X19602Y53836
X18539Y54584
X22633Y56671
X24602Y56671
X26767Y56671
X28539Y54584
X30113Y54978
X28932Y56671
X26334Y53206
X25783Y50450
X24405Y48757
X25586Y47891
X25783Y46907
X27830Y47300
X27830Y50096
X29129Y50450
X28814Y51631
X32476Y52812
X33066Y53403
X33460Y52812
X34168Y53797
X34050Y51631
X35231Y51631
X34641Y50056
X32672Y50253
X23814Y50450
X23224Y50450
X21964Y49466
X21924Y49072
X19680Y48088
X36609Y28993
X37397Y31749
X34444Y23875
T02
X21649Y43560
T03
X13420Y19387
X13381Y24269
X13381Y29978
X15153Y29978
X15743Y29978
X16531Y30962
X17318Y30962
X18105Y30962
X18893Y30962
X15743Y34702
X14956Y34702
X14168Y34702
X15625Y36356
X16294Y36356
X15940Y36986
X18184Y36828
X18184Y37458
X18184Y38049
X18854Y38049
X18854Y37458
X18854Y36867
X19877Y35883
X22042Y39230
X23420Y39230
X24168Y39978
X24011Y40647
X22594Y41789
X19641Y42182
X22436Y46907
X23420Y46907
X23814Y46119
X25389Y46592
X26373Y47300
X26373Y48088
X25192Y49269
X24405Y49269
X23617Y49269
X22830Y49269
X22436Y48112
X23420Y48088
X26452Y50450
X27554Y53797
X25743Y55962
X21649Y55962
X20546Y53678
X14956Y55765
X14956Y56513
X13696Y56552
X13696Y55765
X15940Y42773
X15546Y40804
X25428Y43285
X27279Y45450
X27554Y42970
X29208Y44151
X28932Y45844
X30507Y46316
X30507Y47300
X30743Y44466
X31885Y42576
X33066Y42576
X33066Y44545
X32476Y44938
X35428Y40096
X33854Y39702
X34917Y37812
X32082Y38718
X28342Y40017
X26964Y31552
X28539Y24663
X29326Y24466
X32869Y26434
X35035Y28993
X34641Y31552
X34641Y32537
X34838Y33915
X37279Y24623
X33735Y19584
X29287Y19584
X23027Y20923
X22042Y20923
X32003Y55647
X30507Y56356
T04
X33417Y55797
X34417Y55797
X35417Y55797
X30192Y51934
X30192Y50934
X28617Y49269
X28617Y48269
X28617Y47269
X31661Y41592
X32661Y41592
X27314Y29903
X26314Y29903
X25314Y29903
X24314Y29903
X23314Y29903
X22314Y29903
X21314Y29903
X20314Y29903
X20271Y31643
X20271Y32643
X20314Y26903
X21314Y26903
X22314Y26903
X23314Y26903
X24314Y26903
X25314Y26903
X26314Y26903
X27314Y26903
X28629Y26867
X29629Y26867
X17318Y48482
X17318Y49482
X17318Y50482
X16708Y56562
X17318Y57330
X17928Y56562
X19464Y56562
X20074Y57330
X20684Y56562
T05
X22751Y55942
X24483Y55942
T06
X18696Y46808
X18696Y45824
X17712Y45824
X17712Y46808
X16728Y46808
X16728Y45824
X15448Y51631
X15448Y52615
X14464Y52615
X14464Y51631
X14464Y53600
X15448Y53600
X22731Y34112
X23716Y34112
T07
X25086Y36671
X26086Y36671
T08
X19956Y47143
X15783Y50371
T09
X14129Y54860
X15468Y45489
X15743Y22497
X15743Y20726
T10
X18224Y19840
X18224Y22596
X22672Y22596
X22672Y19840
X27121Y19840
X27121Y22596
X31570Y22596
X31570Y19840
X36019Y19840
X36019Y22596
X16747Y43285
X13991Y43285
T11
X17515Y52812
X36413Y52812
X36413Y27222
X14365Y26828
M30
